<?xml version="1.0" encoding="UTF-8" standalone="no"?>
<!DOCTYPE svg PUBLIC "-//W3C//DTD SVG 1.1//EN"
 "http://www.w3.org/Graphics/SVG/1.1/DTD/svg11.dtd">
<!-- Generated by graphviz version 2.43.0 (0)
 -->
<!-- Title: net/AcceptEventReceiver.cpp Pages: 1 -->
<svg width="385pt" height="140pt"
 viewBox="0.00 0.00 384.50 140.00" xmlns="http://www.w3.org/2000/svg" xmlns:xlink="http://www.w3.org/1999/xlink">
<g id="graph0" class="graph" transform="scale(1 1) rotate(0) translate(4 136)">
<title>net/AcceptEventReceiver.cpp</title>
<polygon fill="white" stroke="transparent" points="-4,4 -4,-136 380.5,-136 380.5,4 -4,4"/>
<!-- Node1 -->
<g id="node1" class="node">
<title>Node1</title>
<g id="a_node1"><a xlink:title=" ">
<polygon fill="#bfbfbf" stroke="black" points="143,-112.5 143,-131.5 289,-131.5 289,-112.5 143,-112.5"/>
<text text-anchor="middle" x="216" y="-119.5" font-family="Helvetica,sans-Serif" font-size="10.00">net/AcceptEventReceiver.cpp</text>
</a>
</g>
</g>
<!-- Node2 -->
<g id="node2" class="node">
<title>Node2</title>
<g id="a_node2"><a xlink:href="_accept_event_receiver_8h.html" target="_top" xlink:title=" ">
<polygon fill="white" stroke="black" points="7.5,-56.5 7.5,-75.5 126.5,-75.5 126.5,-56.5 7.5,-56.5"/>
<text text-anchor="middle" x="67" y="-63.5" font-family="Helvetica,sans-Serif" font-size="10.00">AcceptEventReceiver.h</text>
</a>
</g>
</g>
<!-- Node1&#45;&gt;Node2 -->
<g id="edge1" class="edge">
<title>Node1&#45;&gt;Node2</title>
<path fill="none" stroke="midnightblue" d="M192.39,-112.44C167.54,-103.44 128.23,-89.19 100.25,-79.05"/>
<polygon fill="midnightblue" stroke="midnightblue" points="101.09,-75.63 90.5,-75.52 98.71,-82.21 101.09,-75.63"/>
</g>
<!-- Node4 -->
<g id="node4" class="node">
<title>Node4</title>
<g id="a_node4"><a xlink:href="_descriptor_event_dispatcher_8h.html" target="_top" xlink:title=" ">
<polygon fill="white" stroke="black" points="145,-56.5 145,-75.5 287,-75.5 287,-56.5 145,-56.5"/>
<text text-anchor="middle" x="216" y="-63.5" font-family="Helvetica,sans-Serif" font-size="10.00">DescriptorEventDispatcher.h</text>
</a>
</g>
</g>
<!-- Node1&#45;&gt;Node4 -->
<g id="edge3" class="edge">
<title>Node1&#45;&gt;Node4</title>
<path fill="none" stroke="midnightblue" d="M216,-112.08C216,-105.01 216,-94.86 216,-85.99"/>
<polygon fill="midnightblue" stroke="midnightblue" points="219.5,-85.75 216,-75.75 212.5,-85.75 219.5,-85.75"/>
</g>
<!-- Node5 -->
<g id="node5" class="node">
<title>Node5</title>
<g id="a_node5"><a xlink:href="_event_loop_8h.html" target="_top" xlink:title=" ">
<polygon fill="white" stroke="black" points="305.5,-56.5 305.5,-75.5 376.5,-75.5 376.5,-56.5 305.5,-56.5"/>
<text text-anchor="middle" x="341" y="-63.5" font-family="Helvetica,sans-Serif" font-size="10.00">EventLoop.h</text>
</a>
</g>
</g>
<!-- Node1&#45;&gt;Node5 -->
<g id="edge4" class="edge">
<title>Node1&#45;&gt;Node5</title>
<path fill="none" stroke="midnightblue" d="M235.81,-112.44C256.29,-103.6 288.48,-89.69 311.86,-79.59"/>
<polygon fill="midnightblue" stroke="midnightblue" points="313.49,-82.7 321.29,-75.52 310.72,-76.27 313.49,-82.7"/>
</g>
<!-- Node3 -->
<g id="node3" class="node">
<title>Node3</title>
<g id="a_node3"><a xlink:href="_descriptor_event_receiver_8h.html" target="_top" xlink:title=" ">
<polygon fill="white" stroke="black" points="0,-0.5 0,-19.5 134,-19.5 134,-0.5 0,-0.5"/>
<text text-anchor="middle" x="67" y="-7.5" font-family="Helvetica,sans-Serif" font-size="10.00">DescriptorEventReceiver.h</text>
</a>
</g>
</g>
<!-- Node2&#45;&gt;Node3 -->
<g id="edge2" class="edge">
<title>Node2&#45;&gt;Node3</title>
<path fill="none" stroke="midnightblue" d="M67,-56.08C67,-49.01 67,-38.86 67,-29.99"/>
<polygon fill="midnightblue" stroke="midnightblue" points="70.5,-29.75 67,-19.75 63.5,-29.75 70.5,-29.75"/>
</g>
<!-- Node6 -->
<g id="node6" class="node">
<title>Node6</title>
<g id="a_node6"><a xlink:href="_fd_set_8h.html" target="_top" xlink:title=" ">
<polygon fill="white" stroke="black" points="315.5,-0.5 315.5,-19.5 366.5,-19.5 366.5,-0.5 315.5,-0.5"/>
<text text-anchor="middle" x="341" y="-7.5" font-family="Helvetica,sans-Serif" font-size="10.00">FdSet.h</text>
</a>
</g>
</g>
<!-- Node5&#45;&gt;Node6 -->
<g id="edge5" class="edge">
<title>Node5&#45;&gt;Node6</title>
<path fill="none" stroke="midnightblue" d="M341,-56.08C341,-49.01 341,-38.86 341,-29.99"/>
<polygon fill="midnightblue" stroke="midnightblue" points="344.5,-29.75 341,-19.75 337.5,-29.75 344.5,-29.75"/>
</g>
</g>
</svg>
