<?xml version="1.0" encoding="UTF-8" standalone="no"?>
<!DOCTYPE svg PUBLIC "-//W3C//DTD SVG 1.1//EN"
 "http://www.w3.org/Graphics/SVG/1.1/DTD/svg11.dtd">
<!-- Generated by graphviz version 2.43.0 (0)
 -->
<!-- Title: net/AcceptEventReceiver.h Pages: 1 -->
<svg width="1356pt" height="397pt"
 viewBox="0.00 0.00 1356.00 397.00" xmlns="http://www.w3.org/2000/svg" xmlns:xlink="http://www.w3.org/1999/xlink">
<g id="graph0" class="graph" transform="scale(1 1) rotate(0) translate(4 393)">
<title>net/AcceptEventReceiver.h</title>
<polygon fill="white" stroke="transparent" points="-4,4 -4,-393 1352,-393 1352,4 -4,4"/>
<!-- Node1 -->
<g id="node1" class="node">
<title>Node1</title>
<g id="a_node1"><a xlink:title=" ">
<polygon fill="#bfbfbf" stroke="black" points="864,-369.5 864,-388.5 1000,-388.5 1000,-369.5 864,-369.5"/>
<text text-anchor="middle" x="932" y="-376.5" font-family="Helvetica,sans-Serif" font-size="10.00">net/AcceptEventReceiver.h</text>
</a>
</g>
</g>
<!-- Node2 -->
<g id="node2" class="node">
<title>Node2</title>
<g id="a_node2"><a xlink:href="_accept_event_dispatcher_8h.html" target="_top" xlink:title=" ">
<polygon fill="white" stroke="black" points="738,-313.5 738,-332.5 882,-332.5 882,-313.5 738,-313.5"/>
<text text-anchor="middle" x="810" y="-320.5" font-family="Helvetica,sans-Serif" font-size="10.00">net/AcceptEventDispatcher.h</text>
</a>
</g>
</g>
<!-- Node1&#45;&gt;Node2 -->
<g id="edge1" class="edge">
<title>Node1&#45;&gt;Node2</title>
<path fill="none" stroke="midnightblue" d="M903.46,-365.37C880.61,-355.26 849.19,-341.35 829.24,-332.52"/>
<polygon fill="midnightblue" stroke="midnightblue" points="902.11,-368.6 912.67,-369.44 904.94,-362.2 902.11,-368.6"/>
</g>
<!-- Node4 -->
<g id="node4" class="node">
<title>Node4</title>
<g id="a_node4"><a xlink:href="_accept_event_receiver_8cpp.html" target="_top" xlink:title=" ">
<polygon fill="white" stroke="black" points="859,-185 859,-204 1005,-204 1005,-185 859,-185"/>
<text text-anchor="middle" x="932" y="-192" font-family="Helvetica,sans-Serif" font-size="10.00">net/AcceptEventReceiver.cpp</text>
</a>
</g>
</g>
<!-- Node1&#45;&gt;Node4 -->
<g id="edge12" class="edge">
<title>Node1&#45;&gt;Node4</title>
<path fill="none" stroke="midnightblue" d="M932,-358.72C932,-319.56 932,-232.09 932,-204.21"/>
<polygon fill="midnightblue" stroke="midnightblue" points="928.5,-359.2 932,-369.2 935.5,-359.2 928.5,-359.2"/>
</g>
<!-- Node12 -->
<g id="node12" class="node">
<title>Node12</title>
<g id="a_node12"><a xlink:href="_socket_listener_8h.html" target="_top" xlink:title=" ">
<polygon fill="white" stroke="black" points="1013.5,-313.5 1013.5,-332.5 1168.5,-332.5 1168.5,-313.5 1013.5,-313.5"/>
<text text-anchor="middle" x="1091" y="-320.5" font-family="Helvetica,sans-Serif" font-size="10.00">net/socket/tcp/SocketListener.h</text>
</a>
</g>
</g>
<!-- Node1&#45;&gt;Node12 -->
<g id="edge13" class="edge">
<title>Node1&#45;&gt;Node12</title>
<path fill="none" stroke="midnightblue" d="M966.83,-366.17C996.77,-356 1039.22,-341.59 1065.92,-332.52"/>
<polygon fill="midnightblue" stroke="midnightblue" points="965.54,-362.91 957.19,-369.44 967.79,-369.54 965.54,-362.91"/>
</g>
<!-- Node3 -->
<g id="node3" class="node">
<title>Node3</title>
<g id="a_node3"><a xlink:href="_accept_event_dispatcher_8cpp.html" target="_top" xlink:title=" ">
<polygon fill="white" stroke="black" points="710.5,-252 710.5,-271 865.5,-271 865.5,-252 710.5,-252"/>
<text text-anchor="middle" x="788" y="-259" font-family="Helvetica,sans-Serif" font-size="10.00">net/AcceptEventDispatcher.cpp</text>
</a>
</g>
</g>
<!-- Node2&#45;&gt;Node3 -->
<g id="edge2" class="edge">
<title>Node2&#45;&gt;Node3</title>
<path fill="none" stroke="midnightblue" d="M803.34,-304C799.3,-293.05 794.31,-279.57 791.15,-271.01"/>
<polygon fill="midnightblue" stroke="midnightblue" points="800.1,-305.31 806.85,-313.48 806.66,-302.88 800.1,-305.31"/>
</g>
<!-- Node2&#45;&gt;Node4 -->
<g id="edge3" class="edge">
<title>Node2&#45;&gt;Node4</title>
<path fill="none" stroke="midnightblue" d="M833.75,-308.06C846.49,-299.93 861.99,-288.95 874,-277 897.52,-253.61 918.23,-219.76 927.23,-204.07"/>
<polygon fill="midnightblue" stroke="midnightblue" points="831.71,-305.21 825.05,-313.45 835.4,-311.16 831.71,-305.21"/>
</g>
<!-- Node5 -->
<g id="node5" class="node">
<title>Node5</title>
<g id="a_node5"><a xlink:href="_event_loop_8h.html" target="_top" xlink:title=" ">
<polygon fill="white" stroke="black" points="544,-252 544,-271 632,-271 632,-252 544,-252"/>
<text text-anchor="middle" x="588" y="-259" font-family="Helvetica,sans-Serif" font-size="10.00">net/EventLoop.h</text>
</a>
</g>
</g>
<!-- Node2&#45;&gt;Node5 -->
<g id="edge4" class="edge">
<title>Node2&#45;&gt;Node5</title>
<path fill="none" stroke="midnightblue" d="M768.3,-310.82C725.17,-299.26 658.79,-281.47 619.75,-271.01"/>
<polygon fill="midnightblue" stroke="midnightblue" points="767.63,-314.27 778.19,-313.48 769.44,-307.51 767.63,-314.27"/>
</g>
<!-- Node5&#45;&gt;Node4 -->
<g id="edge5" class="edge">
<title>Node5&#45;&gt;Node4</title>
<path fill="none" stroke="midnightblue" d="M642.28,-250.24C709.8,-237.49 823.83,-215.94 886.81,-204.04"/>
<polygon fill="midnightblue" stroke="midnightblue" points="641.44,-246.84 632.27,-252.14 642.74,-253.72 641.44,-246.84"/>
</g>
<!-- Node6 -->
<g id="node6" class="node">
<title>Node6</title>
<g id="a_node6"><a xlink:href="_event_loop_8cpp.html" target="_top" xlink:title=" ">
<polygon fill="white" stroke="black" points="743,-185 743,-204 841,-204 841,-185 743,-185"/>
<text text-anchor="middle" x="792" y="-192" font-family="Helvetica,sans-Serif" font-size="10.00">net/EventLoop.cpp</text>
</a>
</g>
</g>
<!-- Node5&#45;&gt;Node6 -->
<g id="edge6" class="edge">
<title>Node5&#45;&gt;Node6</title>
<path fill="none" stroke="midnightblue" d="M624.83,-248.77C665.25,-235.89 729.16,-215.52 765.12,-204.06"/>
<polygon fill="midnightblue" stroke="midnightblue" points="623.56,-245.5 615.09,-251.87 625.68,-252.17 623.56,-245.5"/>
</g>
<!-- Node7 -->
<g id="node7" class="node">
<title>Node7</title>
<g id="a_node7"><a xlink:href="_out_of_band_event_receiver_8cpp.html" target="_top" xlink:title=" ">
<polygon fill="white" stroke="black" points="0,-185 0,-204 164,-204 164,-185 0,-185"/>
<text text-anchor="middle" x="82" y="-192" font-family="Helvetica,sans-Serif" font-size="10.00">net/OutOfBandEventReceiver.cpp</text>
</a>
</g>
</g>
<!-- Node5&#45;&gt;Node7 -->
<g id="edge7" class="edge">
<title>Node5&#45;&gt;Node7</title>
<path fill="none" stroke="midnightblue" d="M533.46,-254.51C454.04,-245.65 301.97,-228.12 173,-210 160.17,-208.2 146.35,-206.08 133.44,-204.04"/>
<polygon fill="midnightblue" stroke="midnightblue" points="533.38,-258.03 543.71,-255.65 534.16,-251.07 533.38,-258.03"/>
</g>
<!-- Node8 -->
<g id="node8" class="node">
<title>Node8</title>
<g id="a_node8"><a xlink:href="_read_event_receiver_8cpp.html" target="_top" xlink:title=" ">
<polygon fill="white" stroke="black" points="182.5,-185 182.5,-204 321.5,-204 321.5,-185 182.5,-185"/>
<text text-anchor="middle" x="252" y="-192" font-family="Helvetica,sans-Serif" font-size="10.00">net/ReadEventReceiver.cpp</text>
</a>
</g>
</g>
<!-- Node5&#45;&gt;Node8 -->
<g id="edge8" class="edge">
<title>Node5&#45;&gt;Node8</title>
<path fill="none" stroke="midnightblue" d="M533.51,-249.96C467.38,-237.16 357.16,-215.84 296.1,-204.03"/>
<polygon fill="midnightblue" stroke="midnightblue" points="533.25,-253.47 543.73,-251.94 534.58,-246.6 533.25,-253.47"/>
</g>
<!-- Node9 -->
<g id="node9" class="node">
<title>Node9</title>
<g id="a_node9"><a xlink:href="_timer_8cpp.html" target="_top" xlink:title=" ">
<polygon fill="white" stroke="black" points="339.5,-185 339.5,-204 440.5,-204 440.5,-185 339.5,-185"/>
<text text-anchor="middle" x="390" y="-192" font-family="Helvetica,sans-Serif" font-size="10.00">net/timer/Timer.cpp</text>
</a>
</g>
</g>
<!-- Node5&#45;&gt;Node9 -->
<g id="edge9" class="edge">
<title>Node5&#45;&gt;Node9</title>
<path fill="none" stroke="midnightblue" d="M552,-248.68C512.76,-235.8 450.91,-215.5 416.09,-204.06"/>
<polygon fill="midnightblue" stroke="midnightblue" points="551.11,-252.07 561.71,-251.87 553.3,-245.42 551.11,-252.07"/>
</g>
<!-- Node10 -->
<g id="node10" class="node">
<title>Node10</title>
<g id="a_node10"><a xlink:href="_write_event_receiver_8cpp.html" target="_top" xlink:title=" ">
<polygon fill="white" stroke="black" points="459,-185 459,-204 597,-204 597,-185 459,-185"/>
<text text-anchor="middle" x="528" y="-192" font-family="Helvetica,sans-Serif" font-size="10.00">net/WriteEventReceiver.cpp</text>
</a>
</g>
</g>
<!-- Node5&#45;&gt;Node10 -->
<g id="edge10" class="edge">
<title>Node5&#45;&gt;Node10</title>
<path fill="none" stroke="midnightblue" d="M572.89,-244.13C561.16,-231.42 545.35,-214.3 535.96,-204.13"/>
<polygon fill="midnightblue" stroke="midnightblue" points="570.55,-246.76 579.91,-251.73 575.7,-242.01 570.55,-246.76"/>
</g>
<!-- Node11 -->
<g id="node11" class="node">
<title>Node11</title>
<g id="a_node11"><a xlink:href="_web_app_8cpp.html" target="_top" xlink:title=" ">
<polygon fill="white" stroke="black" points="615,-185 615,-204 725,-204 725,-185 615,-185"/>
<text text-anchor="middle" x="670" y="-192" font-family="Helvetica,sans-Serif" font-size="10.00">express/WebApp.cpp</text>
</a>
</g>
</g>
<!-- Node5&#45;&gt;Node11 -->
<g id="edge11" class="edge">
<title>Node5&#45;&gt;Node11</title>
<path fill="none" stroke="midnightblue" d="M607.28,-245.21C623.44,-232.41 645.92,-214.59 659.12,-204.13"/>
<polygon fill="midnightblue" stroke="midnightblue" points="604.72,-242.78 599.06,-251.73 609.07,-248.26 604.72,-242.78"/>
</g>
<!-- Node13 -->
<g id="node13" class="node">
<title>Node13</title>
<g id="a_node13"><a xlink:href="legacy_2_socket_listener_8h.html" target="_top" xlink:title=" ">
<polygon fill="white" stroke="black" points="1238,-246.5 1238,-276.5 1348,-276.5 1348,-246.5 1238,-246.5"/>
<text text-anchor="start" x="1246" y="-264.5" font-family="Helvetica,sans-Serif" font-size="10.00">net/socket/tcp/legacy</text>
<text text-anchor="middle" x="1293" y="-253.5" font-family="Helvetica,sans-Serif" font-size="10.00">/SocketListener.h</text>
</a>
</g>
</g>
<!-- Node12&#45;&gt;Node13 -->
<g id="edge14" class="edge">
<title>Node12&#45;&gt;Node13</title>
<path fill="none" stroke="midnightblue" d="M1129.67,-310.61C1162.62,-300.9 1210.11,-286.92 1245.39,-276.52"/>
<polygon fill="midnightblue" stroke="midnightblue" points="1128.55,-307.29 1119.94,-313.48 1130.52,-314.01 1128.55,-307.29"/>
</g>
<!-- Node18 -->
<g id="node18" class="node">
<title>Node18</title>
<g id="a_node18"><a xlink:href="tcp_2_socket_server_8h.html" target="_top" xlink:title=" ">
<polygon fill="white" stroke="black" points="1070.5,-252 1070.5,-271 1219.5,-271 1219.5,-252 1070.5,-252"/>
<text text-anchor="middle" x="1145" y="-259" font-family="Helvetica,sans-Serif" font-size="10.00">net/socket/tcp/SocketServer.h</text>
</a>
</g>
</g>
<!-- Node12&#45;&gt;Node18 -->
<g id="edge19" class="edge">
<title>Node12&#45;&gt;Node18</title>
<path fill="none" stroke="midnightblue" d="M1105.52,-306C1115.74,-294.74 1129.02,-280.1 1137.28,-271.01"/>
<polygon fill="midnightblue" stroke="midnightblue" points="1102.87,-303.72 1098.74,-313.48 1108.05,-308.42 1102.87,-303.72"/>
</g>
<!-- Node23 -->
<g id="node23" class="node">
<title>Node23</title>
<g id="a_node23"><a xlink:href="tls_2_socket_listener_8h.html" target="_top" xlink:title=" ">
<polygon fill="white" stroke="black" points="960,-246.5 960,-276.5 1052,-276.5 1052,-246.5 960,-246.5"/>
<text text-anchor="start" x="968" y="-264.5" font-family="Helvetica,sans-Serif" font-size="10.00">net/socket/tcp/tls</text>
<text text-anchor="middle" x="1006" y="-253.5" font-family="Helvetica,sans-Serif" font-size="10.00">/SocketListener.h</text>
</a>
</g>
</g>
<!-- Node12&#45;&gt;Node23 -->
<g id="edge25" class="edge">
<title>Node12&#45;&gt;Node23</title>
<path fill="none" stroke="midnightblue" d="M1070.63,-307.74C1057.12,-298.28 1039.47,-285.93 1026.03,-276.52"/>
<polygon fill="midnightblue" stroke="midnightblue" points="1068.62,-310.61 1078.82,-313.48 1072.64,-304.87 1068.62,-310.61"/>
</g>
<!-- Node14 -->
<g id="node14" class="node">
<title>Node14</title>
<g id="a_node14"><a xlink:href="tcp_2legacy_2_socket_server_8h.html" target="_top" xlink:title=" ">
<polygon fill="white" stroke="black" points="1196,-179.5 1196,-209.5 1306,-209.5 1306,-179.5 1196,-179.5"/>
<text text-anchor="start" x="1204" y="-197.5" font-family="Helvetica,sans-Serif" font-size="10.00">net/socket/tcp/legacy</text>
<text text-anchor="middle" x="1251" y="-186.5" font-family="Helvetica,sans-Serif" font-size="10.00">/SocketServer.h</text>
</a>
</g>
</g>
<!-- Node13&#45;&gt;Node14 -->
<g id="edge15" class="edge">
<title>Node13&#45;&gt;Node14</title>
<path fill="none" stroke="midnightblue" d="M1278.38,-237.87C1272.3,-228.46 1265.43,-217.83 1260.1,-209.58"/>
<polygon fill="midnightblue" stroke="midnightblue" points="1275.52,-239.9 1283.89,-246.4 1281.4,-236.1 1275.52,-239.9"/>
</g>
<!-- Node15 -->
<g id="node15" class="node">
<title>Node15</title>
<g id="a_node15"><a xlink:href="ipv4_2tcp_2legacy_2_socket_server_8h.html" target="_top" xlink:title=" ">
<polygon fill="white" stroke="black" points="1192,-112.5 1192,-142.5 1310,-142.5 1310,-112.5 1192,-112.5"/>
<text text-anchor="start" x="1200" y="-130.5" font-family="Helvetica,sans-Serif" font-size="10.00">net/socket/ipv4/tcp</text>
<text text-anchor="middle" x="1251" y="-119.5" font-family="Helvetica,sans-Serif" font-size="10.00">/legacy/SocketServer.h</text>
</a>
</g>
</g>
<!-- Node14&#45;&gt;Node15 -->
<g id="edge16" class="edge">
<title>Node14&#45;&gt;Node15</title>
<path fill="none" stroke="midnightblue" d="M1251,-169.11C1251,-160.15 1251,-150.32 1251,-142.58"/>
<polygon fill="midnightblue" stroke="midnightblue" points="1247.5,-169.4 1251,-179.4 1254.5,-169.4 1247.5,-169.4"/>
</g>
<!-- Node16 -->
<g id="node16" class="node">
<title>Node16</title>
<g id="a_node16"><a xlink:href="legacy_2_server_8h.html" target="_top" xlink:title=" ">
<polygon fill="white" stroke="black" points="1199,-56.5 1199,-75.5 1303,-75.5 1303,-56.5 1199,-56.5"/>
<text text-anchor="middle" x="1251" y="-63.5" font-family="Helvetica,sans-Serif" font-size="10.00">http/legacy/Server.h</text>
</a>
</g>
</g>
<!-- Node15&#45;&gt;Node16 -->
<g id="edge17" class="edge">
<title>Node15&#45;&gt;Node16</title>
<path fill="none" stroke="midnightblue" d="M1251,-102.29C1251,-92.86 1251,-82.65 1251,-75.66"/>
<polygon fill="midnightblue" stroke="midnightblue" points="1247.5,-102.4 1251,-112.4 1254.5,-102.4 1247.5,-102.4"/>
</g>
<!-- Node17 -->
<g id="node17" class="node">
<title>Node17</title>
<g id="a_node17"><a xlink:href="legacy_2_web_app_8h.html" target="_top" xlink:title=" ">
<polygon fill="white" stroke="black" points="1185.5,-0.5 1185.5,-19.5 1316.5,-19.5 1316.5,-0.5 1185.5,-0.5"/>
<text text-anchor="middle" x="1251" y="-7.5" font-family="Helvetica,sans-Serif" font-size="10.00">express/legacy/WebApp.h</text>
</a>
</g>
</g>
<!-- Node16&#45;&gt;Node17 -->
<g id="edge18" class="edge">
<title>Node16&#45;&gt;Node17</title>
<path fill="none" stroke="midnightblue" d="M1251,-45.8C1251,-36.91 1251,-26.78 1251,-19.75"/>
<polygon fill="midnightblue" stroke="midnightblue" points="1247.5,-46.08 1251,-56.08 1254.5,-46.08 1247.5,-46.08"/>
</g>
<!-- Node18&#45;&gt;Node14 -->
<g id="edge20" class="edge">
<title>Node18&#45;&gt;Node14</title>
<path fill="none" stroke="midnightblue" d="M1167.91,-246.45C1185.69,-235.55 1210.23,-220.5 1228.02,-209.59"/>
<polygon fill="midnightblue" stroke="midnightblue" points="1165.99,-243.52 1159.3,-251.73 1169.65,-249.49 1165.99,-243.52"/>
</g>
<!-- Node19 -->
<g id="node19" class="node">
<title>Node19</title>
<g id="a_node19"><a xlink:href="tcp_2tls_2_socket_server_8h.html" target="_top" xlink:title=" ">
<polygon fill="white" stroke="black" points="1061,-179.5 1061,-209.5 1153,-209.5 1153,-179.5 1061,-179.5"/>
<text text-anchor="start" x="1069" y="-197.5" font-family="Helvetica,sans-Serif" font-size="10.00">net/socket/tcp/tls</text>
<text text-anchor="middle" x="1107" y="-186.5" font-family="Helvetica,sans-Serif" font-size="10.00">/SocketServer.h</text>
</a>
</g>
</g>
<!-- Node18&#45;&gt;Node19 -->
<g id="edge21" class="edge">
<title>Node18&#45;&gt;Node19</title>
<path fill="none" stroke="midnightblue" d="M1134.79,-243.03C1128.66,-232.56 1120.97,-219.4 1115.24,-209.59"/>
<polygon fill="midnightblue" stroke="midnightblue" points="1131.81,-244.87 1139.88,-251.73 1137.85,-241.33 1131.81,-244.87"/>
</g>
<!-- Node20 -->
<g id="node20" class="node">
<title>Node20</title>
<g id="a_node20"><a xlink:href="ipv4_2tcp_2tls_2_socket_server_8h.html" target="_top" xlink:title=" ">
<polygon fill="white" stroke="black" points="1057,-112.5 1057,-142.5 1157,-142.5 1157,-112.5 1057,-112.5"/>
<text text-anchor="start" x="1065" y="-130.5" font-family="Helvetica,sans-Serif" font-size="10.00">net/socket/ipv4/tcp</text>
<text text-anchor="middle" x="1107" y="-119.5" font-family="Helvetica,sans-Serif" font-size="10.00">/tls/SocketServer.h</text>
</a>
</g>
</g>
<!-- Node19&#45;&gt;Node20 -->
<g id="edge22" class="edge">
<title>Node19&#45;&gt;Node20</title>
<path fill="none" stroke="midnightblue" d="M1107,-169.11C1107,-160.15 1107,-150.32 1107,-142.58"/>
<polygon fill="midnightblue" stroke="midnightblue" points="1103.5,-169.4 1107,-179.4 1110.5,-169.4 1103.5,-169.4"/>
</g>
<!-- Node21 -->
<g id="node21" class="node">
<title>Node21</title>
<g id="a_node21"><a xlink:href="tls_2_server_8h.html" target="_top" xlink:title=" ">
<polygon fill="white" stroke="black" points="1064,-56.5 1064,-75.5 1150,-75.5 1150,-56.5 1064,-56.5"/>
<text text-anchor="middle" x="1107" y="-63.5" font-family="Helvetica,sans-Serif" font-size="10.00">http/tls/Server.h</text>
</a>
</g>
</g>
<!-- Node20&#45;&gt;Node21 -->
<g id="edge23" class="edge">
<title>Node20&#45;&gt;Node21</title>
<path fill="none" stroke="midnightblue" d="M1107,-102.29C1107,-92.86 1107,-82.65 1107,-75.66"/>
<polygon fill="midnightblue" stroke="midnightblue" points="1103.5,-102.4 1107,-112.4 1110.5,-102.4 1103.5,-102.4"/>
</g>
<!-- Node22 -->
<g id="node22" class="node">
<title>Node22</title>
<g id="a_node22"><a xlink:href="tls_2_web_app_8h.html" target="_top" xlink:title=" ">
<polygon fill="white" stroke="black" points="1050.5,-0.5 1050.5,-19.5 1163.5,-19.5 1163.5,-0.5 1050.5,-0.5"/>
<text text-anchor="middle" x="1107" y="-7.5" font-family="Helvetica,sans-Serif" font-size="10.00">express/tls/WebApp.h</text>
</a>
</g>
</g>
<!-- Node21&#45;&gt;Node22 -->
<g id="edge24" class="edge">
<title>Node21&#45;&gt;Node22</title>
<path fill="none" stroke="midnightblue" d="M1107,-45.8C1107,-36.91 1107,-26.78 1107,-19.75"/>
<polygon fill="midnightblue" stroke="midnightblue" points="1103.5,-46.08 1107,-56.08 1110.5,-46.08 1103.5,-46.08"/>
</g>
<!-- Node23&#45;&gt;Node19 -->
<g id="edge26" class="edge">
<title>Node23&#45;&gt;Node19</title>
<path fill="none" stroke="midnightblue" d="M1036.71,-240.73C1052.34,-230.68 1070.97,-218.68 1085.13,-209.58"/>
<polygon fill="midnightblue" stroke="midnightblue" points="1034.43,-238.04 1027.92,-246.4 1038.22,-243.93 1034.43,-238.04"/>
</g>
</g>
</svg>
