<?xml version="1.0" encoding="UTF-8" standalone="no"?>
<!DOCTYPE svg PUBLIC "-//W3C//DTD SVG 1.1//EN"
 "http://www.w3.org/Graphics/SVG/1.1/DTD/svg11.dtd">
<!-- Generated by graphviz version 2.43.0 (0)
 -->
<!-- Title: utils/AttributeInjector.h Pages: 1 -->
<svg width="2764pt" height="553pt"
 viewBox="0.00 0.00 2763.50 553.00" xmlns="http://www.w3.org/2000/svg" xmlns:xlink="http://www.w3.org/1999/xlink">
<g id="graph0" class="graph" transform="scale(1 1) rotate(0) translate(4 549)">
<title>utils/AttributeInjector.h</title>
<polygon fill="white" stroke="transparent" points="-4,4 -4,-549 2759.5,-549 2759.5,4 -4,4"/>
<!-- Node1 -->
<g id="node1" class="node">
<title>Node1</title>
<g id="a_node1"><a xlink:title=" ">
<polygon fill="#bfbfbf" stroke="black" points="1643,-525.5 1643,-544.5 1757,-544.5 1757,-525.5 1643,-525.5"/>
<text text-anchor="middle" x="1700" y="-532.5" font-family="Helvetica,sans-Serif" font-size="10.00">utils/AttributeInjector.h</text>
</a>
</g>
</g>
<!-- Node2 -->
<g id="node2" class="node">
<title>Node2</title>
<g id="a_node2"><a xlink:href="_socket_connection_base_8h.html" target="_top" xlink:title=" ">
<polygon fill="white" stroke="black" points="1589.5,-458.5 1589.5,-488.5 1718.5,-488.5 1718.5,-458.5 1589.5,-458.5"/>
<text text-anchor="start" x="1597.5" y="-476.5" font-family="Helvetica,sans-Serif" font-size="10.00">net/socket/stream/Socket</text>
<text text-anchor="middle" x="1654" y="-465.5" font-family="Helvetica,sans-Serif" font-size="10.00">ConnectionBase.h</text>
</a>
</g>
</g>
<!-- Node1&#45;&gt;Node2 -->
<g id="edge1" class="edge">
<title>Node1&#45;&gt;Node2</title>
<path fill="none" stroke="midnightblue" d="M1687.27,-517.53C1680.22,-508.42 1671.56,-497.21 1664.84,-488.52"/>
<polygon fill="midnightblue" stroke="midnightblue" points="1684.52,-519.7 1693.41,-525.48 1690.06,-515.42 1684.52,-519.7"/>
</g>
<!-- Node38 -->
<g id="node38" class="node">
<title>Node38</title>
<g id="a_node38"><a xlink:href="http_2server_2_request_8h.html" target="_top" xlink:title=" ">
<polygon fill="white" stroke="black" points="2098.5,-330 2098.5,-349 2209.5,-349 2209.5,-330 2098.5,-330"/>
<text text-anchor="middle" x="2154" y="-337" font-family="Helvetica,sans-Serif" font-size="10.00">http/server/Request.h</text>
</a>
</g>
</g>
<!-- Node1&#45;&gt;Node38 -->
<g id="edge45" class="edge">
<title>Node1&#45;&gt;Node38</title>
<path fill="none" stroke="midnightblue" d="M1729.47,-521.44C1814.98,-485 2061.62,-379.87 2133.88,-349.07"/>
<polygon fill="midnightblue" stroke="midnightblue" points="1727.92,-518.3 1720.09,-525.44 1730.67,-524.73 1727.92,-518.3"/>
</g>
<!-- Node3 -->
<g id="node3" class="node">
<title>Node3</title>
<g id="a_node3"><a xlink:href="_socket_connection_8h.html" target="_top" xlink:title=" ">
<polygon fill="white" stroke="black" points="1439.5,-391.5 1439.5,-421.5 1568.5,-421.5 1568.5,-391.5 1439.5,-391.5"/>
<text text-anchor="start" x="1447.5" y="-409.5" font-family="Helvetica,sans-Serif" font-size="10.00">net/socket/stream/Socket</text>
<text text-anchor="middle" x="1504" y="-398.5" font-family="Helvetica,sans-Serif" font-size="10.00">Connection.h</text>
</a>
</g>
</g>
<!-- Node2&#45;&gt;Node3 -->
<g id="edge2" class="edge">
<title>Node2&#45;&gt;Node3</title>
<path fill="none" stroke="midnightblue" d="M1612.25,-454.41C1588.3,-444.03 1558.68,-431.2 1536.48,-421.58"/>
<polygon fill="midnightblue" stroke="midnightblue" points="1610.89,-457.63 1621.45,-458.4 1613.67,-451.21 1610.89,-457.63"/>
</g>
<!-- Node34 -->
<g id="node34" class="node">
<title>Node34</title>
<g id="a_node34"><a xlink:href="_client_context_8hpp.html" target="_top" xlink:title=" ">
<polygon fill="white" stroke="black" points="956.5,-397 956.5,-416 1097.5,-416 1097.5,-397 956.5,-397"/>
<text text-anchor="middle" x="1027" y="-404" font-family="Helvetica,sans-Serif" font-size="10.00">http/client/ClientContext.hpp</text>
</a>
</g>
</g>
<!-- Node2&#45;&gt;Node34 -->
<g id="edge37" class="edge">
<title>Node2&#45;&gt;Node34</title>
<path fill="none" stroke="midnightblue" d="M1579.26,-464.75C1457.22,-452.1 1216.87,-427.18 1097.59,-414.82"/>
<polygon fill="midnightblue" stroke="midnightblue" points="1578.95,-468.24 1589.26,-465.79 1579.68,-461.28 1578.95,-468.24"/>
</g>
<!-- Node36 -->
<g id="node36" class="node">
<title>Node36</title>
<g id="a_node36"><a xlink:href="_server_context_8hpp.html" target="_top" xlink:title=" ">
<polygon fill="white" stroke="black" points="1658,-196 1658,-215 1806,-215 1806,-196 1658,-196"/>
<text text-anchor="middle" x="1732" y="-203" font-family="Helvetica,sans-Serif" font-size="10.00">http/server/ServerContext.hpp</text>
</a>
</g>
</g>
<!-- Node2&#45;&gt;Node36 -->
<g id="edge41" class="edge">
<title>Node2&#45;&gt;Node36</title>
<path fill="none" stroke="midnightblue" d="M1661.1,-448.28C1677.8,-391.34 1718.93,-251.08 1729.49,-215.05"/>
<polygon fill="midnightblue" stroke="midnightblue" points="1657.65,-447.62 1658.19,-458.2 1664.37,-449.59 1657.65,-447.62"/>
</g>
<!-- Node4 -->
<g id="node4" class="node">
<title>Node4</title>
<g id="a_node4"><a xlink:href="legacy_2_socket_connection_8h.html" target="_top" xlink:title=" ">
<polygon fill="white" stroke="black" points="1440.5,-324.5 1440.5,-354.5 1567.5,-354.5 1567.5,-324.5 1440.5,-324.5"/>
<text text-anchor="start" x="1448.5" y="-342.5" font-family="Helvetica,sans-Serif" font-size="10.00">net/socket/stream/legacy</text>
<text text-anchor="middle" x="1504" y="-331.5" font-family="Helvetica,sans-Serif" font-size="10.00">/SocketConnection.h</text>
</a>
</g>
</g>
<!-- Node3&#45;&gt;Node4 -->
<g id="edge3" class="edge">
<title>Node3&#45;&gt;Node4</title>
<path fill="none" stroke="midnightblue" d="M1504,-381.11C1504,-372.15 1504,-362.32 1504,-354.58"/>
<polygon fill="midnightblue" stroke="midnightblue" points="1500.5,-381.4 1504,-391.4 1507.5,-381.4 1500.5,-381.4"/>
</g>
<!-- Node20 -->
<g id="node20" class="node">
<title>Node20</title>
<g id="a_node20"><a xlink:href="tls_2_socket_connection_8h.html" target="_top" xlink:title=" ">
<polygon fill="white" stroke="black" points="1240.5,-324.5 1240.5,-354.5 1349.5,-354.5 1349.5,-324.5 1240.5,-324.5"/>
<text text-anchor="start" x="1248.5" y="-342.5" font-family="Helvetica,sans-Serif" font-size="10.00">net/socket/stream/tls</text>
<text text-anchor="middle" x="1295" y="-331.5" font-family="Helvetica,sans-Serif" font-size="10.00">/SocketConnection.h</text>
</a>
</g>
</g>
<!-- Node3&#45;&gt;Node20 -->
<g id="edge21" class="edge">
<title>Node3&#45;&gt;Node20</title>
<path fill="none" stroke="midnightblue" d="M1449.16,-388.44C1415.28,-377.91 1372.33,-364.55 1340.37,-354.61"/>
<polygon fill="midnightblue" stroke="midnightblue" points="1448.32,-391.85 1458.91,-391.48 1450.4,-385.16 1448.32,-391.85"/>
</g>
<!-- Node5 -->
<g id="node5" class="node">
<title>Node5</title>
<g id="a_node5"><a xlink:href="legacy_2_socket_connector_8h.html" target="_top" xlink:title=" ">
<polygon fill="white" stroke="black" points="1367.5,-257.5 1367.5,-287.5 1494.5,-287.5 1494.5,-257.5 1367.5,-257.5"/>
<text text-anchor="start" x="1375.5" y="-275.5" font-family="Helvetica,sans-Serif" font-size="10.00">net/socket/stream/legacy</text>
<text text-anchor="middle" x="1431" y="-264.5" font-family="Helvetica,sans-Serif" font-size="10.00">/SocketConnector.h</text>
</a>
</g>
</g>
<!-- Node4&#45;&gt;Node5 -->
<g id="edge4" class="edge">
<title>Node4&#45;&gt;Node5</title>
<path fill="none" stroke="midnightblue" d="M1480.53,-317.6C1469.5,-307.78 1456.66,-296.34 1446.81,-287.58"/>
<polygon fill="midnightblue" stroke="midnightblue" points="1478.36,-320.36 1488.16,-324.4 1483.02,-315.13 1478.36,-320.36"/>
</g>
<!-- Node12 -->
<g id="node12" class="node">
<title>Node12</title>
<g id="a_node12"><a xlink:href="legacy_2_socket_listener_8h.html" target="_top" xlink:title=" ">
<polygon fill="white" stroke="black" points="1512.5,-257.5 1512.5,-287.5 1639.5,-287.5 1639.5,-257.5 1512.5,-257.5"/>
<text text-anchor="start" x="1520.5" y="-275.5" font-family="Helvetica,sans-Serif" font-size="10.00">net/socket/stream/legacy</text>
<text text-anchor="middle" x="1576" y="-264.5" font-family="Helvetica,sans-Serif" font-size="10.00">/SocketListener.h</text>
</a>
</g>
</g>
<!-- Node4&#45;&gt;Node12 -->
<g id="edge12" class="edge">
<title>Node4&#45;&gt;Node12</title>
<path fill="none" stroke="midnightblue" d="M1527.15,-317.6C1538.02,-307.78 1550.7,-296.34 1560.41,-287.58"/>
<polygon fill="midnightblue" stroke="midnightblue" points="1524.7,-315.1 1519.62,-324.4 1529.39,-320.29 1524.7,-315.1"/>
</g>
<!-- Node6 -->
<g id="node6" class="node">
<title>Node6</title>
<g id="a_node6"><a xlink:href="stream_2legacy_2_socket_client_8h.html" target="_top" xlink:title=" ">
<polygon fill="white" stroke="black" points="802.5,-190.5 802.5,-220.5 929.5,-220.5 929.5,-190.5 802.5,-190.5"/>
<text text-anchor="start" x="810.5" y="-208.5" font-family="Helvetica,sans-Serif" font-size="10.00">net/socket/stream/legacy</text>
<text text-anchor="middle" x="866" y="-197.5" font-family="Helvetica,sans-Serif" font-size="10.00">/SocketClient.h</text>
</a>
</g>
</g>
<!-- Node5&#45;&gt;Node6 -->
<g id="edge5" class="edge">
<title>Node5&#45;&gt;Node6</title>
<path fill="none" stroke="midnightblue" d="M1357.48,-256.85C1198.25,-233.13 1021.92,-218.07 929.67,-211.04"/>
<polygon fill="midnightblue" stroke="midnightblue" points="1357.05,-260.33 1367.46,-258.36 1358.09,-253.41 1357.05,-260.33"/>
</g>
<!-- Node7 -->
<g id="node7" class="node">
<title>Node7</title>
<g id="a_node7"><a xlink:href="bluetooth_2l2cap_2_socket_client_8h.html" target="_top" xlink:title=" ">
<polygon fill="white" stroke="black" points="960,-123.5 960,-153.5 1070,-153.5 1070,-123.5 960,-123.5"/>
<text text-anchor="start" x="968" y="-141.5" font-family="Helvetica,sans-Serif" font-size="10.00">net/socket/bluetooth</text>
<text text-anchor="middle" x="1015" y="-130.5" font-family="Helvetica,sans-Serif" font-size="10.00">/l2cap/SocketClient.h</text>
</a>
</g>
</g>
<!-- Node6&#45;&gt;Node7 -->
<g id="edge6" class="edge">
<title>Node6&#45;&gt;Node7</title>
<path fill="none" stroke="midnightblue" d="M907.79,-186.27C931.52,-175.92 960.78,-163.15 982.73,-153.58"/>
<polygon fill="midnightblue" stroke="midnightblue" points="906.1,-183.19 898.33,-190.4 908.9,-189.61 906.1,-183.19"/>
</g>
<!-- Node8 -->
<g id="node8" class="node">
<title>Node8</title>
<g id="a_node8"><a xlink:href="bluetooth_2rfcomm_2legacy_2_socket_client_8h.html" target="_top" xlink:title=" ">
<polygon fill="white" stroke="black" points="790,-123.5 790,-153.5 942,-153.5 942,-123.5 790,-123.5"/>
<text text-anchor="start" x="798" y="-141.5" font-family="Helvetica,sans-Serif" font-size="10.00">net/socket/bluetooth</text>
<text text-anchor="middle" x="866" y="-130.5" font-family="Helvetica,sans-Serif" font-size="10.00">/rfcomm/legacy/SocketClient.h</text>
</a>
</g>
</g>
<!-- Node6&#45;&gt;Node8 -->
<g id="edge7" class="edge">
<title>Node6&#45;&gt;Node8</title>
<path fill="none" stroke="midnightblue" d="M866,-180.11C866,-171.15 866,-161.32 866,-153.58"/>
<polygon fill="midnightblue" stroke="midnightblue" points="862.5,-180.4 866,-190.4 869.5,-180.4 862.5,-180.4"/>
</g>
<!-- Node9 -->
<g id="node9" class="node">
<title>Node9</title>
<g id="a_node9"><a xlink:href="ip_2tcp_2ipv4_2legacy_2_socket_client_8h.html" target="_top" xlink:title=" ">
<polygon fill="white" stroke="black" points="522,-123.5 522,-153.5 638,-153.5 638,-123.5 522,-123.5"/>
<text text-anchor="start" x="530" y="-141.5" font-family="Helvetica,sans-Serif" font-size="10.00">net/socket/ip/tcp/ipv4</text>
<text text-anchor="middle" x="580" y="-130.5" font-family="Helvetica,sans-Serif" font-size="10.00">/legacy/SocketClient.h</text>
</a>
</g>
</g>
<!-- Node6&#45;&gt;Node9 -->
<g id="edge8" class="edge">
<title>Node6&#45;&gt;Node9</title>
<path fill="none" stroke="midnightblue" d="M794.54,-188.26C746.28,-177.29 683.38,-163 638.18,-152.72"/>
<polygon fill="midnightblue" stroke="midnightblue" points="793.77,-191.67 804.29,-190.48 795.32,-184.85 793.77,-191.67"/>
</g>
<!-- Node11 -->
<g id="node11" class="node">
<title>Node11</title>
<g id="a_node11"><a xlink:href="ip_2tcp_2ipv6_2legacy_2_socket_client_8h.html" target="_top" xlink:title=" ">
<polygon fill="white" stroke="black" points="656,-123.5 656,-153.5 772,-153.5 772,-123.5 656,-123.5"/>
<text text-anchor="start" x="664" y="-141.5" font-family="Helvetica,sans-Serif" font-size="10.00">net/socket/ip/tcp/ipv6</text>
<text text-anchor="middle" x="714" y="-130.5" font-family="Helvetica,sans-Serif" font-size="10.00">/legacy/SocketClient.h</text>
</a>
</g>
</g>
<!-- Node6&#45;&gt;Node11 -->
<g id="edge10" class="edge">
<title>Node6&#45;&gt;Node11</title>
<path fill="none" stroke="midnightblue" d="M823.69,-186.41C799.42,-176.03 769.41,-163.2 746.92,-153.58"/>
<polygon fill="midnightblue" stroke="midnightblue" points="822.45,-189.68 833.02,-190.4 825.2,-183.25 822.45,-189.68"/>
</g>
<!-- Node10 -->
<g id="node10" class="node">
<title>Node10</title>
<g id="a_node10"><a xlink:href="legacy_2_client_8h.html" target="_top" xlink:title=" ">
<polygon fill="white" stroke="black" points="534.5,-56.5 534.5,-86.5 625.5,-86.5 625.5,-56.5 534.5,-56.5"/>
<text text-anchor="start" x="542.5" y="-74.5" font-family="Helvetica,sans-Serif" font-size="10.00">http/client/legacy</text>
<text text-anchor="middle" x="580" y="-63.5" font-family="Helvetica,sans-Serif" font-size="10.00">/Client.h</text>
</a>
</g>
</g>
<!-- Node9&#45;&gt;Node10 -->
<g id="edge9" class="edge">
<title>Node9&#45;&gt;Node10</title>
<path fill="none" stroke="midnightblue" d="M580,-113.11C580,-104.15 580,-94.32 580,-86.58"/>
<polygon fill="midnightblue" stroke="midnightblue" points="576.5,-113.4 580,-123.4 583.5,-113.4 576.5,-113.4"/>
</g>
<!-- Node11&#45;&gt;Node10 -->
<g id="edge11" class="edge">
<title>Node11&#45;&gt;Node10</title>
<path fill="none" stroke="midnightblue" d="M675.85,-118.99C654.61,-108.69 628.59,-96.07 609.02,-86.58"/>
<polygon fill="midnightblue" stroke="midnightblue" points="674.4,-122.18 684.92,-123.4 677.45,-115.88 674.4,-122.18"/>
</g>
<!-- Node13 -->
<g id="node13" class="node">
<title>Node13</title>
<g id="a_node13"><a xlink:href="stream_2legacy_2_socket_server_8h.html" target="_top" xlink:title=" ">
<polygon fill="white" stroke="black" points="1512.5,-190.5 1512.5,-220.5 1639.5,-220.5 1639.5,-190.5 1512.5,-190.5"/>
<text text-anchor="start" x="1520.5" y="-208.5" font-family="Helvetica,sans-Serif" font-size="10.00">net/socket/stream/legacy</text>
<text text-anchor="middle" x="1576" y="-197.5" font-family="Helvetica,sans-Serif" font-size="10.00">/SocketServer.h</text>
</a>
</g>
</g>
<!-- Node12&#45;&gt;Node13 -->
<g id="edge13" class="edge">
<title>Node12&#45;&gt;Node13</title>
<path fill="none" stroke="midnightblue" d="M1576,-247.11C1576,-238.15 1576,-228.32 1576,-220.58"/>
<polygon fill="midnightblue" stroke="midnightblue" points="1572.5,-247.4 1576,-257.4 1579.5,-247.4 1572.5,-247.4"/>
</g>
<!-- Node14 -->
<g id="node14" class="node">
<title>Node14</title>
<g id="a_node14"><a xlink:href="bluetooth_2l2cap_2_socket_server_8h.html" target="_top" xlink:title=" ">
<polygon fill="white" stroke="black" points="1670.5,-123.5 1670.5,-153.5 1783.5,-153.5 1783.5,-123.5 1670.5,-123.5"/>
<text text-anchor="start" x="1678.5" y="-141.5" font-family="Helvetica,sans-Serif" font-size="10.00">net/socket/bluetooth</text>
<text text-anchor="middle" x="1727" y="-130.5" font-family="Helvetica,sans-Serif" font-size="10.00">/l2cap/SocketServer.h</text>
</a>
</g>
</g>
<!-- Node13&#45;&gt;Node14 -->
<g id="edge14" class="edge">
<title>Node13&#45;&gt;Node14</title>
<path fill="none" stroke="midnightblue" d="M1618.03,-186.41C1642.14,-176.03 1671.95,-163.2 1694.3,-153.58"/>
<polygon fill="midnightblue" stroke="midnightblue" points="1616.57,-183.23 1608.76,-190.4 1619.33,-189.66 1616.57,-183.23"/>
</g>
<!-- Node15 -->
<g id="node15" class="node">
<title>Node15</title>
<g id="a_node15"><a xlink:href="bluetooth_2rfcomm_2legacy_2_socket_server_8h.html" target="_top" xlink:title=" ">
<polygon fill="white" stroke="black" points="1498,-123.5 1498,-153.5 1652,-153.5 1652,-123.5 1498,-123.5"/>
<text text-anchor="start" x="1506" y="-141.5" font-family="Helvetica,sans-Serif" font-size="10.00">net/socket/bluetooth</text>
<text text-anchor="middle" x="1575" y="-130.5" font-family="Helvetica,sans-Serif" font-size="10.00">/rfcomm/legacy/SocketServer.h</text>
</a>
</g>
</g>
<!-- Node13&#45;&gt;Node15 -->
<g id="edge15" class="edge">
<title>Node13&#45;&gt;Node15</title>
<path fill="none" stroke="midnightblue" d="M1575.62,-180.11C1575.49,-171.15 1575.34,-161.32 1575.22,-153.58"/>
<polygon fill="midnightblue" stroke="midnightblue" points="1572.13,-180.45 1575.78,-190.4 1579.13,-180.34 1572.13,-180.45"/>
</g>
<!-- Node16 -->
<g id="node16" class="node">
<title>Node16</title>
<g id="a_node16"><a xlink:href="ip_2tcp_2ipv4_2legacy_2_socket_server_8h.html" target="_top" xlink:title=" ">
<polygon fill="white" stroke="black" points="1802,-123.5 1802,-153.5 1920,-153.5 1920,-123.5 1802,-123.5"/>
<text text-anchor="start" x="1810" y="-141.5" font-family="Helvetica,sans-Serif" font-size="10.00">net/socket/ip/tcp/ipv4</text>
<text text-anchor="middle" x="1861" y="-130.5" font-family="Helvetica,sans-Serif" font-size="10.00">/legacy/SocketServer.h</text>
</a>
</g>
</g>
<!-- Node13&#45;&gt;Node16 -->
<g id="edge16" class="edge">
<title>Node13&#45;&gt;Node16</title>
<path fill="none" stroke="midnightblue" d="M1647.41,-188.21C1694.96,-177.37 1756.71,-163.29 1801.57,-153.05"/>
<polygon fill="midnightblue" stroke="midnightblue" points="1646.46,-184.84 1637.49,-190.48 1648.02,-191.66 1646.46,-184.84"/>
</g>
<!-- Node19 -->
<g id="node19" class="node">
<title>Node19</title>
<g id="a_node19"><a xlink:href="ip_2tcp_2ipv6_2legacy_2_socket_server_8h.html" target="_top" xlink:title=" ">
<polygon fill="white" stroke="black" points="2058,-123.5 2058,-153.5 2176,-153.5 2176,-123.5 2058,-123.5"/>
<text text-anchor="start" x="2066" y="-141.5" font-family="Helvetica,sans-Serif" font-size="10.00">net/socket/ip/tcp/ipv6</text>
<text text-anchor="middle" x="2117" y="-130.5" font-family="Helvetica,sans-Serif" font-size="10.00">/legacy/SocketServer.h</text>
</a>
</g>
</g>
<!-- Node13&#45;&gt;Node19 -->
<g id="edge19" class="edge">
<title>Node13&#45;&gt;Node19</title>
<path fill="none" stroke="midnightblue" d="M1649.58,-190.03C1827.41,-165.14 1875.69,-180.18 2049,-154 2051.86,-153.57 2054.79,-153.09 2057.74,-152.58"/>
<polygon fill="midnightblue" stroke="midnightblue" points="1649.04,-186.57 1639.63,-191.45 1650.03,-193.5 1649.04,-186.57"/>
</g>
<!-- Node17 -->
<g id="node17" class="node">
<title>Node17</title>
<g id="a_node17"><a xlink:href="legacy_2_server_8h.html" target="_top" xlink:title=" ">
<polygon fill="white" stroke="black" points="1941.5,-56.5 1941.5,-86.5 2036.5,-86.5 2036.5,-56.5 1941.5,-56.5"/>
<text text-anchor="start" x="1949.5" y="-74.5" font-family="Helvetica,sans-Serif" font-size="10.00">http/server/legacy</text>
<text text-anchor="middle" x="1989" y="-63.5" font-family="Helvetica,sans-Serif" font-size="10.00">/Server.h</text>
</a>
</g>
</g>
<!-- Node16&#45;&gt;Node17 -->
<g id="edge17" class="edge">
<title>Node16&#45;&gt;Node17</title>
<path fill="none" stroke="midnightblue" d="M1897.72,-118.85C1917.96,-108.58 1942.67,-96.03 1961.28,-86.58"/>
<polygon fill="midnightblue" stroke="midnightblue" points="1896.11,-115.75 1888.77,-123.4 1899.28,-121.99 1896.11,-115.75"/>
</g>
<!-- Node18 -->
<g id="node18" class="node">
<title>Node18</title>
<g id="a_node18"><a xlink:href="legacy_2_web_app_8h.html" target="_top" xlink:title=" ">
<polygon fill="white" stroke="black" points="1982.5,-0.5 1982.5,-19.5 2113.5,-19.5 2113.5,-0.5 1982.5,-0.5"/>
<text text-anchor="middle" x="2048" y="-7.5" font-family="Helvetica,sans-Serif" font-size="10.00">express/legacy/WebApp.h</text>
</a>
</g>
</g>
<!-- Node17&#45;&gt;Node18 -->
<g id="edge18" class="edge">
<title>Node17&#45;&gt;Node18</title>
<path fill="none" stroke="midnightblue" d="M2010.32,-49C2020.37,-38.86 2031.81,-27.33 2039.41,-19.66"/>
<polygon fill="midnightblue" stroke="midnightblue" points="2007.54,-46.83 2002.98,-56.4 2012.51,-51.76 2007.54,-46.83"/>
</g>
<!-- Node19&#45;&gt;Node17 -->
<g id="edge20" class="edge">
<title>Node19&#45;&gt;Node17</title>
<path fill="none" stroke="midnightblue" d="M2080.28,-118.85C2060.04,-108.58 2035.33,-96.03 2016.72,-86.58"/>
<polygon fill="midnightblue" stroke="midnightblue" points="2078.72,-121.99 2089.23,-123.4 2081.89,-115.75 2078.72,-121.99"/>
</g>
<!-- Node21 -->
<g id="node21" class="node">
<title>Node21</title>
<g id="a_node21"><a xlink:href="tls_2_socket_connector_8h.html" target="_top" xlink:title=" ">
<polygon fill="white" stroke="black" points="958.5,-257.5 958.5,-287.5 1067.5,-287.5 1067.5,-257.5 958.5,-257.5"/>
<text text-anchor="start" x="966.5" y="-275.5" font-family="Helvetica,sans-Serif" font-size="10.00">net/socket/stream/tls</text>
<text text-anchor="middle" x="1013" y="-264.5" font-family="Helvetica,sans-Serif" font-size="10.00">/SocketConnector.h</text>
</a>
</g>
</g>
<!-- Node20&#45;&gt;Node21 -->
<g id="edge22" class="edge">
<title>Node20&#45;&gt;Node21</title>
<path fill="none" stroke="midnightblue" d="M1230.38,-323.61C1181.15,-312.26 1114.11,-296.81 1067.55,-286.07"/>
<polygon fill="midnightblue" stroke="midnightblue" points="1229.76,-327.05 1240.29,-325.89 1231.33,-320.23 1229.76,-327.05"/>
</g>
<!-- Node27 -->
<g id="node27" class="node">
<title>Node27</title>
<g id="a_node27"><a xlink:href="tls_2_socket_listener_8h.html" target="_top" xlink:title=" ">
<polygon fill="white" stroke="black" points="1240.5,-257.5 1240.5,-287.5 1349.5,-287.5 1349.5,-257.5 1240.5,-257.5"/>
<text text-anchor="start" x="1248.5" y="-275.5" font-family="Helvetica,sans-Serif" font-size="10.00">net/socket/stream/tls</text>
<text text-anchor="middle" x="1295" y="-264.5" font-family="Helvetica,sans-Serif" font-size="10.00">/SocketListener.h</text>
</a>
</g>
</g>
<!-- Node20&#45;&gt;Node27 -->
<g id="edge29" class="edge">
<title>Node20&#45;&gt;Node27</title>
<path fill="none" stroke="midnightblue" d="M1295,-314.11C1295,-305.15 1295,-295.32 1295,-287.58"/>
<polygon fill="midnightblue" stroke="midnightblue" points="1291.5,-314.4 1295,-324.4 1298.5,-314.4 1291.5,-314.4"/>
</g>
<!-- Node22 -->
<g id="node22" class="node">
<title>Node22</title>
<g id="a_node22"><a xlink:href="stream_2tls_2_socket_client_8h.html" target="_top" xlink:title=" ">
<polygon fill="white" stroke="black" points="210.5,-190.5 210.5,-220.5 319.5,-220.5 319.5,-190.5 210.5,-190.5"/>
<text text-anchor="start" x="218.5" y="-208.5" font-family="Helvetica,sans-Serif" font-size="10.00">net/socket/stream/tls</text>
<text text-anchor="middle" x="265" y="-197.5" font-family="Helvetica,sans-Serif" font-size="10.00">/SocketClient.h</text>
</a>
</g>
</g>
<!-- Node21&#45;&gt;Node22 -->
<g id="edge23" class="edge">
<title>Node21&#45;&gt;Node22</title>
<path fill="none" stroke="midnightblue" d="M948.22,-265.87C803.19,-253.27 454.58,-222.97 319.64,-211.25"/>
<polygon fill="midnightblue" stroke="midnightblue" points="948.04,-269.37 958.3,-266.75 948.64,-262.39 948.04,-269.37"/>
</g>
<!-- Node23 -->
<g id="node23" class="node">
<title>Node23</title>
<g id="a_node23"><a xlink:href="bluetooth_2rfcomm_2tls_2_socket_client_8h.html" target="_top" xlink:title=" ">
<polygon fill="white" stroke="black" points="128,-123.5 128,-153.5 262,-153.5 262,-123.5 128,-123.5"/>
<text text-anchor="start" x="136" y="-141.5" font-family="Helvetica,sans-Serif" font-size="10.00">net/socket/bluetooth</text>
<text text-anchor="middle" x="195" y="-130.5" font-family="Helvetica,sans-Serif" font-size="10.00">/rfcomm/tls/SocketClient.h</text>
</a>
</g>
</g>
<!-- Node22&#45;&gt;Node23 -->
<g id="edge24" class="edge">
<title>Node22&#45;&gt;Node23</title>
<path fill="none" stroke="midnightblue" d="M242.18,-183.31C231.68,-173.56 219.51,-162.26 210.16,-153.58"/>
<polygon fill="midnightblue" stroke="midnightblue" points="240.1,-186.16 249.81,-190.4 244.86,-181.03 240.1,-186.16"/>
</g>
<!-- Node24 -->
<g id="node24" class="node">
<title>Node24</title>
<g id="a_node24"><a xlink:href="ip_2tcp_2ipv4_2tls_2_socket_client_8h.html" target="_top" xlink:title=" ">
<polygon fill="white" stroke="black" points="0,-123.5 0,-153.5 110,-153.5 110,-123.5 0,-123.5"/>
<text text-anchor="start" x="8" y="-141.5" font-family="Helvetica,sans-Serif" font-size="10.00">net/socket/ip/tcp/ipv4</text>
<text text-anchor="middle" x="55" y="-130.5" font-family="Helvetica,sans-Serif" font-size="10.00">/tls/SocketClient.h</text>
</a>
</g>
</g>
<!-- Node22&#45;&gt;Node24 -->
<g id="edge25" class="edge">
<title>Node22&#45;&gt;Node24</title>
<path fill="none" stroke="midnightblue" d="M209.9,-187.44C175.86,-176.91 132.7,-163.55 100.59,-153.61"/>
<polygon fill="midnightblue" stroke="midnightblue" points="209.1,-190.86 219.69,-190.48 211.17,-184.18 209.1,-190.86"/>
</g>
<!-- Node26 -->
<g id="node26" class="node">
<title>Node26</title>
<g id="a_node26"><a xlink:href="ip_2tcp_2ipv6_2tls_2_socket_client_8h.html" target="_top" xlink:title=" ">
<polygon fill="white" stroke="black" points="280,-123.5 280,-153.5 390,-153.5 390,-123.5 280,-123.5"/>
<text text-anchor="start" x="288" y="-141.5" font-family="Helvetica,sans-Serif" font-size="10.00">net/socket/ip/tcp/ipv6</text>
<text text-anchor="middle" x="335" y="-130.5" font-family="Helvetica,sans-Serif" font-size="10.00">/tls/SocketClient.h</text>
</a>
</g>
</g>
<!-- Node22&#45;&gt;Node26 -->
<g id="edge27" class="edge">
<title>Node22&#45;&gt;Node26</title>
<path fill="none" stroke="midnightblue" d="M287.82,-183.31C298.32,-173.56 310.49,-162.26 319.84,-153.58"/>
<polygon fill="midnightblue" stroke="midnightblue" points="285.14,-181.03 280.19,-190.4 289.9,-186.16 285.14,-181.03"/>
</g>
<!-- Node25 -->
<g id="node25" class="node">
<title>Node25</title>
<g id="a_node25"><a xlink:href="tls_2_client_8h.html" target="_top" xlink:title=" ">
<polygon fill="white" stroke="black" points="280,-62 280,-81 390,-81 390,-62 280,-62"/>
<text text-anchor="middle" x="335" y="-69" font-family="Helvetica,sans-Serif" font-size="10.00">http/client/tls/Client.h</text>
</a>
</g>
</g>
<!-- Node24&#45;&gt;Node25 -->
<g id="edge26" class="edge">
<title>Node24&#45;&gt;Node25</title>
<path fill="none" stroke="midnightblue" d="M120.38,-122.32C175.68,-109.48 252.94,-91.55 298.1,-81.07"/>
<polygon fill="midnightblue" stroke="midnightblue" points="119.27,-118.99 110.32,-124.66 120.85,-125.81 119.27,-118.99"/>
</g>
<!-- Node26&#45;&gt;Node25 -->
<g id="edge28" class="edge">
<title>Node26&#45;&gt;Node25</title>
<path fill="none" stroke="midnightblue" d="M335,-113.25C335,-102.02 335,-89.38 335,-81.19"/>
<polygon fill="midnightblue" stroke="midnightblue" points="331.5,-113.4 335,-123.4 338.5,-113.4 331.5,-113.4"/>
</g>
<!-- Node28 -->
<g id="node28" class="node">
<title>Node28</title>
<g id="a_node28"><a xlink:href="stream_2tls_2_socket_server_8h.html" target="_top" xlink:title=" ">
<polygon fill="white" stroke="black" points="1241.5,-190.5 1241.5,-220.5 1350.5,-220.5 1350.5,-190.5 1241.5,-190.5"/>
<text text-anchor="start" x="1249.5" y="-208.5" font-family="Helvetica,sans-Serif" font-size="10.00">net/socket/stream/tls</text>
<text text-anchor="middle" x="1296" y="-197.5" font-family="Helvetica,sans-Serif" font-size="10.00">/SocketServer.h</text>
</a>
</g>
</g>
<!-- Node27&#45;&gt;Node28 -->
<g id="edge30" class="edge">
<title>Node27&#45;&gt;Node28</title>
<path fill="none" stroke="midnightblue" d="M1295.38,-247.11C1295.51,-238.15 1295.66,-228.32 1295.78,-220.58"/>
<polygon fill="midnightblue" stroke="midnightblue" points="1291.87,-247.34 1295.22,-257.4 1298.87,-247.45 1291.87,-247.34"/>
</g>
<!-- Node29 -->
<g id="node29" class="node">
<title>Node29</title>
<g id="a_node29"><a xlink:href="bluetooth_2rfcomm_2tls_2_socket_server_8h.html" target="_top" xlink:title=" ">
<polygon fill="white" stroke="black" points="1088,-123.5 1088,-153.5 1224,-153.5 1224,-123.5 1088,-123.5"/>
<text text-anchor="start" x="1096" y="-141.5" font-family="Helvetica,sans-Serif" font-size="10.00">net/socket/bluetooth</text>
<text text-anchor="middle" x="1156" y="-130.5" font-family="Helvetica,sans-Serif" font-size="10.00">/rfcomm/tls/SocketServer.h</text>
</a>
</g>
</g>
<!-- Node28&#45;&gt;Node29 -->
<g id="edge31" class="edge">
<title>Node28&#45;&gt;Node29</title>
<path fill="none" stroke="midnightblue" d="M1256.43,-186.13C1234.19,-175.8 1206.85,-163.11 1186.32,-153.58"/>
<polygon fill="midnightblue" stroke="midnightblue" points="1255.08,-189.36 1265.62,-190.4 1258.03,-183.01 1255.08,-189.36"/>
</g>
<!-- Node30 -->
<g id="node30" class="node">
<title>Node30</title>
<g id="a_node30"><a xlink:href="ip_2tcp_2ipv4_2tls_2_socket_server_8h.html" target="_top" xlink:title=" ">
<polygon fill="white" stroke="black" points="1370,-123.5 1370,-153.5 1480,-153.5 1480,-123.5 1370,-123.5"/>
<text text-anchor="start" x="1378" y="-141.5" font-family="Helvetica,sans-Serif" font-size="10.00">net/socket/ip/tcp/ipv4</text>
<text text-anchor="middle" x="1425" y="-130.5" font-family="Helvetica,sans-Serif" font-size="10.00">/tls/SocketServer.h</text>
</a>
</g>
</g>
<!-- Node28&#45;&gt;Node30 -->
<g id="edge32" class="edge">
<title>Node28&#45;&gt;Node30</title>
<path fill="none" stroke="midnightblue" d="M1333.01,-185.85C1353.4,-175.58 1378.31,-163.03 1397.06,-153.58"/>
<polygon fill="midnightblue" stroke="midnightblue" points="1331.35,-182.77 1323.99,-190.4 1334.5,-189.02 1331.35,-182.77"/>
</g>
<!-- Node33 -->
<g id="node33" class="node">
<title>Node33</title>
<g id="a_node33"><a xlink:href="ip_2tcp_2ipv6_2tls_2_socket_server_8h.html" target="_top" xlink:title=" ">
<polygon fill="white" stroke="black" points="1242,-123.5 1242,-153.5 1352,-153.5 1352,-123.5 1242,-123.5"/>
<text text-anchor="start" x="1250" y="-141.5" font-family="Helvetica,sans-Serif" font-size="10.00">net/socket/ip/tcp/ipv6</text>
<text text-anchor="middle" x="1297" y="-130.5" font-family="Helvetica,sans-Serif" font-size="10.00">/tls/SocketServer.h</text>
</a>
</g>
</g>
<!-- Node28&#45;&gt;Node33 -->
<g id="edge35" class="edge">
<title>Node28&#45;&gt;Node33</title>
<path fill="none" stroke="midnightblue" d="M1296.38,-180.11C1296.51,-171.15 1296.66,-161.32 1296.78,-153.58"/>
<polygon fill="midnightblue" stroke="midnightblue" points="1292.87,-180.34 1296.22,-190.4 1299.87,-180.45 1292.87,-180.34"/>
</g>
<!-- Node31 -->
<g id="node31" class="node">
<title>Node31</title>
<g id="a_node31"><a xlink:href="tls_2_server_8h.html" target="_top" xlink:title=" ">
<polygon fill="white" stroke="black" points="1473,-62 1473,-81 1589,-81 1589,-62 1473,-62"/>
<text text-anchor="middle" x="1531" y="-69" font-family="Helvetica,sans-Serif" font-size="10.00">http/server/tls/Server.h</text>
</a>
</g>
</g>
<!-- Node30&#45;&gt;Node31 -->
<g id="edge33" class="edge">
<title>Node30&#45;&gt;Node31</title>
<path fill="none" stroke="midnightblue" d="M1456.57,-118.14C1476.72,-105.79 1501.83,-90.39 1517.13,-81.01"/>
<polygon fill="midnightblue" stroke="midnightblue" points="1454.7,-115.18 1448,-123.4 1458.35,-121.15 1454.7,-115.18"/>
</g>
<!-- Node32 -->
<g id="node32" class="node">
<title>Node32</title>
<g id="a_node32"><a xlink:href="tls_2_web_app_8h.html" target="_top" xlink:title=" ">
<polygon fill="white" stroke="black" points="1639.5,-0.5 1639.5,-19.5 1752.5,-19.5 1752.5,-0.5 1639.5,-0.5"/>
<text text-anchor="middle" x="1696" y="-7.5" font-family="Helvetica,sans-Serif" font-size="10.00">express/tls/WebApp.h</text>
</a>
</g>
</g>
<!-- Node31&#45;&gt;Node32 -->
<g id="edge34" class="edge">
<title>Node31&#45;&gt;Node32</title>
<path fill="none" stroke="midnightblue" d="M1564.05,-58.58C1596.12,-47.02 1644,-29.75 1672.4,-19.51"/>
<polygon fill="midnightblue" stroke="midnightblue" points="1562.86,-55.29 1554.64,-61.98 1565.23,-61.88 1562.86,-55.29"/>
</g>
<!-- Node33&#45;&gt;Node31 -->
<g id="edge36" class="edge">
<title>Node33&#45;&gt;Node31</title>
<path fill="none" stroke="midnightblue" d="M1357.3,-120.75C1403.06,-108.04 1464.09,-91.09 1500.3,-81.03"/>
<polygon fill="midnightblue" stroke="midnightblue" points="1356.18,-117.43 1347.49,-123.48 1358.06,-124.17 1356.18,-117.43"/>
</g>
<!-- Node35 -->
<g id="node35" class="node">
<title>Node35</title>
<g id="a_node35"><a xlink:href="_client_8h.html" target="_top" xlink:title=" ">
<polygon fill="white" stroke="black" points="408,-129 408,-148 504,-148 504,-129 408,-129"/>
<text text-anchor="middle" x="456" y="-136" font-family="Helvetica,sans-Serif" font-size="10.00">http/client/Client.h</text>
</a>
</g>
</g>
<!-- Node34&#45;&gt;Node35 -->
<g id="edge38" class="edge">
<title>Node34&#45;&gt;Node35</title>
<path fill="none" stroke="midnightblue" d="M999.49,-392.69C899.57,-346.14 557.37,-186.72 474.28,-148.02"/>
<polygon fill="midnightblue" stroke="midnightblue" points="998.11,-395.9 1008.65,-396.95 1001.06,-389.56 998.11,-395.9"/>
</g>
<!-- Node35&#45;&gt;Node10 -->
<g id="edge39" class="edge">
<title>Node35&#45;&gt;Node10</title>
<path fill="none" stroke="midnightblue" d="M481.38,-124.19C502.24,-113.26 531.72,-97.81 553,-86.65"/>
<polygon fill="midnightblue" stroke="midnightblue" points="479.7,-121.13 472.47,-128.87 482.95,-127.33 479.7,-121.13"/>
</g>
<!-- Node35&#45;&gt;Node25 -->
<g id="edge40" class="edge">
<title>Node35&#45;&gt;Node25</title>
<path fill="none" stroke="midnightblue" d="M430.79,-123.96C406.8,-111.07 371.44,-92.07 351.06,-81.13"/>
<polygon fill="midnightblue" stroke="midnightblue" points="429.22,-127.08 439.68,-128.73 432.53,-120.92 429.22,-127.08"/>
</g>
<!-- Node37 -->
<g id="node37" class="node">
<title>Node37</title>
<g id="a_node37"><a xlink:href="_server_8h.html" target="_top" xlink:title=" ">
<polygon fill="white" stroke="black" points="1938,-129 1938,-148 2040,-148 2040,-129 1938,-129"/>
<text text-anchor="middle" x="1989" y="-136" font-family="Helvetica,sans-Serif" font-size="10.00">http/server/Server.h</text>
</a>
</g>
</g>
<!-- Node36&#45;&gt;Node37 -->
<g id="edge42" class="edge">
<title>Node36&#45;&gt;Node37</title>
<path fill="none" stroke="midnightblue" d="M1775.87,-193.4C1826.59,-180.58 1908.99,-159.74 1955.06,-148.08"/>
<polygon fill="midnightblue" stroke="midnightblue" points="1774.7,-190.09 1765.86,-195.94 1776.42,-196.88 1774.7,-190.09"/>
</g>
<!-- Node37&#45;&gt;Node17 -->
<g id="edge43" class="edge">
<title>Node37&#45;&gt;Node17</title>
<path fill="none" stroke="midnightblue" d="M1989,-118.41C1989,-108.22 1989,-95.9 1989,-86.59"/>
<polygon fill="midnightblue" stroke="midnightblue" points="1985.5,-118.73 1989,-128.73 1992.5,-118.73 1985.5,-118.73"/>
</g>
<!-- Node37&#45;&gt;Node31 -->
<g id="edge44" class="edge">
<title>Node37&#45;&gt;Node31</title>
<path fill="none" stroke="midnightblue" d="M1946.66,-126.65C1940.75,-125.32 1934.74,-124.05 1929,-123 1809.12,-100.98 1667.15,-85.47 1589.31,-77.85"/>
<polygon fill="midnightblue" stroke="midnightblue" points="1945.91,-130.07 1956.44,-128.94 1947.5,-123.25 1945.91,-130.07"/>
</g>
<!-- Node39 -->
<g id="node39" class="node">
<title>Node39</title>
<g id="a_node39"><a xlink:href="http_2server_2_request_8cpp.html" target="_top" xlink:title=" ">
<polygon fill="white" stroke="black" points="2346,-263 2346,-282 2468,-282 2468,-263 2346,-263"/>
<text text-anchor="middle" x="2407" y="-270" font-family="Helvetica,sans-Serif" font-size="10.00">http/server/Request.cpp</text>
</a>
</g>
</g>
<!-- Node38&#45;&gt;Node39 -->
<g id="edge46" class="edge">
<title>Node38&#45;&gt;Node39</title>
<path fill="none" stroke="midnightblue" d="M2197.19,-327.4C2247.12,-314.58 2328.23,-293.74 2373.59,-282.08"/>
<polygon fill="midnightblue" stroke="midnightblue" points="2196.15,-324.06 2187.34,-329.94 2197.89,-330.84 2196.15,-324.06"/>
</g>
<!-- Node40 -->
<g id="node40" class="node">
<title>Node40</title>
<g id="a_node40"><a xlink:href="_server_context_8h.html" target="_top" xlink:title=" ">
<polygon fill="white" stroke="black" points="1961.5,-263 1961.5,-282 2098.5,-282 2098.5,-263 1961.5,-263"/>
<text text-anchor="middle" x="2030" y="-270" font-family="Helvetica,sans-Serif" font-size="10.00">http/server/ServerContext.h</text>
</a>
</g>
</g>
<!-- Node38&#45;&gt;Node40 -->
<g id="edge47" class="edge">
<title>Node38&#45;&gt;Node40</title>
<path fill="none" stroke="midnightblue" d="M2128.44,-325.1C2103.89,-312.23 2067.51,-293.16 2046.53,-282.17"/>
<polygon fill="midnightblue" stroke="midnightblue" points="2127.05,-328.33 2137.53,-329.87 2130.3,-322.13 2127.05,-328.33"/>
</g>
<!-- Node44 -->
<g id="node44" class="node">
<title>Node44</title>
<g id="a_node44"><a xlink:href="express_2_request_8h.html" target="_top" xlink:title=" ">
<polygon fill="white" stroke="black" points="2228.5,-263 2228.5,-282 2327.5,-282 2327.5,-263 2228.5,-263"/>
<text text-anchor="middle" x="2278" y="-270" font-family="Helvetica,sans-Serif" font-size="10.00">express/Request.h</text>
</a>
</g>
</g>
<!-- Node38&#45;&gt;Node44 -->
<g id="edge52" class="edge">
<title>Node38&#45;&gt;Node44</title>
<path fill="none" stroke="midnightblue" d="M2179.56,-325.1C2204.11,-312.23 2240.49,-293.16 2261.47,-282.17"/>
<polygon fill="midnightblue" stroke="midnightblue" points="2177.7,-322.13 2170.47,-329.87 2180.95,-328.33 2177.7,-322.13"/>
</g>
<!-- Node40&#45;&gt;Node36 -->
<g id="edge49" class="edge">
<title>Node40&#45;&gt;Node36</title>
<path fill="none" stroke="midnightblue" d="M1980.96,-260.8C1922.32,-248.01 1825.33,-226.86 1771.35,-215.08"/>
<polygon fill="midnightblue" stroke="midnightblue" points="1980.22,-264.22 1990.74,-262.94 1981.71,-257.38 1980.22,-264.22"/>
</g>
<!-- Node41 -->
<g id="node41" class="node">
<title>Node41</title>
<g id="a_node41"><a xlink:href="http_2server_2_response_8cpp.html" target="_top" xlink:title=" ">
<polygon fill="white" stroke="black" points="1824.5,-196 1824.5,-215 1953.5,-215 1953.5,-196 1824.5,-196"/>
<text text-anchor="middle" x="1889" y="-203" font-family="Helvetica,sans-Serif" font-size="10.00">http/server/Response.cpp</text>
</a>
</g>
</g>
<!-- Node40&#45;&gt;Node41 -->
<g id="edge48" class="edge">
<title>Node40&#45;&gt;Node41</title>
<path fill="none" stroke="midnightblue" d="M2002.04,-258.61C1974.12,-245.74 1931.96,-226.31 1907.8,-215.17"/>
<polygon fill="midnightblue" stroke="midnightblue" points="2000.73,-261.86 2011.28,-262.87 2003.66,-255.5 2000.73,-261.86"/>
</g>
<!-- Node42 -->
<g id="node42" class="node">
<title>Node42</title>
<g id="a_node42"><a xlink:href="express_2_response_8cpp.html" target="_top" xlink:title=" ">
<polygon fill="white" stroke="black" points="1971.5,-196 1971.5,-215 2088.5,-215 2088.5,-196 1971.5,-196"/>
<text text-anchor="middle" x="2030" y="-203" font-family="Helvetica,sans-Serif" font-size="10.00">express/Response.cpp</text>
</a>
</g>
</g>
<!-- Node40&#45;&gt;Node42 -->
<g id="edge50" class="edge">
<title>Node40&#45;&gt;Node42</title>
<path fill="none" stroke="midnightblue" d="M2030,-252.54C2030,-240.17 2030,-224.62 2030,-215.13"/>
<polygon fill="midnightblue" stroke="midnightblue" points="2026.5,-252.73 2030,-262.73 2033.5,-252.73 2026.5,-252.73"/>
</g>
<!-- Node43 -->
<g id="node43" class="node">
<title>Node43</title>
<g id="a_node43"><a xlink:href="_router_8cpp.html" target="_top" xlink:title=" ">
<polygon fill="white" stroke="black" points="2106.5,-196 2106.5,-215 2207.5,-215 2207.5,-196 2106.5,-196"/>
<text text-anchor="middle" x="2157" y="-203" font-family="Helvetica,sans-Serif" font-size="10.00">express/Router.cpp</text>
</a>
</g>
</g>
<!-- Node40&#45;&gt;Node43 -->
<g id="edge51" class="edge">
<title>Node40&#45;&gt;Node43</title>
<path fill="none" stroke="midnightblue" d="M2055.84,-258.27C2081,-245.4 2118.49,-226.21 2140.07,-215.17"/>
<polygon fill="midnightblue" stroke="midnightblue" points="2054.17,-255.2 2046.86,-262.87 2057.36,-261.43 2054.17,-255.2"/>
</g>
<!-- Node44&#45;&gt;Node43 -->
<g id="edge57" class="edge">
<title>Node44&#45;&gt;Node43</title>
<path fill="none" stroke="midnightblue" d="M2252.79,-257.96C2228.8,-245.07 2193.44,-226.07 2173.06,-215.13"/>
<polygon fill="midnightblue" stroke="midnightblue" points="2251.22,-261.08 2261.68,-262.73 2254.53,-254.92 2251.22,-261.08"/>
</g>
<!-- Node45 -->
<g id="node45" class="node">
<title>Node45</title>
<g id="a_node45"><a xlink:href="_json_middleware_8cpp.html" target="_top" xlink:title=" ">
<polygon fill="white" stroke="black" points="2646.5,-190.5 2646.5,-220.5 2755.5,-220.5 2755.5,-190.5 2646.5,-190.5"/>
<text text-anchor="start" x="2654.5" y="-208.5" font-family="Helvetica,sans-Serif" font-size="10.00">express/middleware</text>
<text text-anchor="middle" x="2701" y="-197.5" font-family="Helvetica,sans-Serif" font-size="10.00">/JsonMiddleware.cpp</text>
</a>
</g>
</g>
<!-- Node44&#45;&gt;Node45 -->
<g id="edge53" class="edge">
<title>Node44&#45;&gt;Node45</title>
<path fill="none" stroke="midnightblue" d="M2319.85,-260.55C2325.59,-259.24 2331.42,-258.02 2337,-257 2469.12,-232.93 2504.67,-243.87 2637,-221 2640.03,-220.48 2643.13,-219.9 2646.26,-219.29"/>
<polygon fill="midnightblue" stroke="midnightblue" points="2318.61,-257.25 2309.69,-262.96 2320.23,-264.06 2318.61,-257.25"/>
</g>
<!-- Node46 -->
<g id="node46" class="node">
<title>Node46</title>
<g id="a_node46"><a xlink:href="_static_middleware_8cpp.html" target="_top" xlink:title=" ">
<polygon fill="white" stroke="black" points="2264.5,-190.5 2264.5,-220.5 2377.5,-220.5 2377.5,-190.5 2264.5,-190.5"/>
<text text-anchor="start" x="2272.5" y="-208.5" font-family="Helvetica,sans-Serif" font-size="10.00">express/middleware</text>
<text text-anchor="middle" x="2321" y="-197.5" font-family="Helvetica,sans-Serif" font-size="10.00">/StaticMiddleware.cpp</text>
</a>
</g>
</g>
<!-- Node44&#45;&gt;Node46 -->
<g id="edge54" class="edge">
<title>Node44&#45;&gt;Node46</title>
<path fill="none" stroke="midnightblue" d="M2289.34,-254.35C2296.31,-243.82 2305.12,-230.5 2311.68,-220.59"/>
<polygon fill="midnightblue" stroke="midnightblue" points="2286.4,-252.46 2283.8,-262.73 2292.24,-256.32 2286.4,-252.46"/>
</g>
<!-- Node47 -->
<g id="node47" class="node">
<title>Node47</title>
<g id="a_node47"><a xlink:href="_v_host_8cpp.html" target="_top" xlink:title=" ">
<polygon fill="white" stroke="black" points="2396,-190.5 2396,-220.5 2500,-220.5 2500,-190.5 2396,-190.5"/>
<text text-anchor="start" x="2404" y="-208.5" font-family="Helvetica,sans-Serif" font-size="10.00">express/middleware</text>
<text text-anchor="middle" x="2448" y="-197.5" font-family="Helvetica,sans-Serif" font-size="10.00">/VHost.cpp</text>
</a>
</g>
</g>
<!-- Node44&#45;&gt;Node47 -->
<g id="edge55" class="edge">
<title>Node44&#45;&gt;Node47</title>
<path fill="none" stroke="midnightblue" d="M2310.16,-259.2C2338.97,-248.19 2381.2,-232.04 2411.31,-220.53"/>
<polygon fill="midnightblue" stroke="midnightblue" points="2308.67,-256.03 2300.57,-262.87 2311.17,-262.57 2308.67,-256.03"/>
</g>
<!-- Node48 -->
<g id="node48" class="node">
<title>Node48</title>
<g id="a_node48"><a xlink:href="express_2_request_8cpp.html" target="_top" xlink:title=" ">
<polygon fill="white" stroke="black" points="2518,-196 2518,-215 2628,-215 2628,-196 2518,-196"/>
<text text-anchor="middle" x="2573" y="-203" font-family="Helvetica,sans-Serif" font-size="10.00">express/Request.cpp</text>
</a>
</g>
</g>
<!-- Node44&#45;&gt;Node48 -->
<g id="edge56" class="edge">
<title>Node44&#45;&gt;Node48</title>
<path fill="none" stroke="midnightblue" d="M2321.73,-260.57C2326.87,-259.34 2332.05,-258.13 2337,-257 2413.16,-239.68 2432.69,-237.63 2509,-221 2517.68,-219.11 2527.02,-217.02 2535.8,-215.04"/>
<polygon fill="midnightblue" stroke="midnightblue" points="2320.85,-257.18 2311.96,-262.94 2322.5,-263.99 2320.85,-257.18"/>
</g>
<!-- Node49 -->
<g id="node49" class="node">
<title>Node49</title>
<g id="a_node49"><a xlink:href="_web_app_t_8h.html" target="_top" xlink:title=" ">
<polygon fill="white" stroke="black" points="2055,-62 2055,-81 2159,-81 2159,-62 2055,-62"/>
<text text-anchor="middle" x="2107" y="-69" font-family="Helvetica,sans-Serif" font-size="10.00">express/WebAppT.h</text>
</a>
</g>
</g>
<!-- Node44&#45;&gt;Node49 -->
<g id="edge58" class="edge">
<title>Node44&#45;&gt;Node49</title>
<path fill="none" stroke="midnightblue" d="M2270.06,-253.76C2256.13,-224.06 2224.91,-163.52 2185,-123 2167.11,-104.84 2141.59,-89.86 2124.68,-81.05"/>
<polygon fill="midnightblue" stroke="midnightblue" points="2266.91,-255.27 2274.26,-262.9 2273.27,-252.35 2266.91,-255.27"/>
</g>
<!-- Node49&#45;&gt;Node18 -->
<g id="edge59" class="edge">
<title>Node49&#45;&gt;Node18</title>
<path fill="none" stroke="midnightblue" d="M2091.46,-54.82C2080.25,-43.52 2065.54,-28.69 2056.44,-19.51"/>
<polygon fill="midnightblue" stroke="midnightblue" points="2089.02,-57.34 2098.55,-61.98 2093.99,-52.41 2089.02,-57.34"/>
</g>
<!-- Node49&#45;&gt;Node32 -->
<g id="edge60" class="edge">
<title>Node49&#45;&gt;Node32</title>
<path fill="none" stroke="midnightblue" d="M2063.95,-59.67C2057.94,-58.33 2051.83,-57.06 2046,-56 1943.24,-37.24 1822.11,-23.5 1752.66,-16.43"/>
<polygon fill="midnightblue" stroke="midnightblue" points="2063.36,-63.13 2073.89,-61.96 2064.93,-56.3 2063.36,-63.13"/>
</g>
</g>
</svg>
