<?xml version="1.0" encoding="UTF-8" standalone="no"?>
<!DOCTYPE svg PUBLIC "-//W3C//DTD SVG 1.1//EN"
 "http://www.w3.org/Graphics/SVG/1.1/DTD/svg11.dtd">
<!-- Generated by graphviz version 2.43.0 (0)
 -->
<!-- Title: web/http/client/Client.h Pages: 1 -->
<svg width="465pt" height="285pt"
 viewBox="0.00 0.00 464.50 285.00" xmlns="http://www.w3.org/2000/svg" xmlns:xlink="http://www.w3.org/1999/xlink">
<g id="graph0" class="graph" transform="scale(1 1) rotate(0) translate(4 281)">
<title>web/http/client/Client.h</title>
<polygon fill="white" stroke="transparent" points="-4,4 -4,-281 460.5,-281 460.5,4 -4,4"/>
<!-- Node1 -->
<g id="node1" class="node">
<title>Node1</title>
<g id="a_node1"><a xlink:title=" ">
<polygon fill="#bfbfbf" stroke="black" points="227,-257.5 227,-276.5 344,-276.5 344,-257.5 227,-257.5"/>
<text text-anchor="middle" x="285.5" y="-264.5" font-family="Helvetica,sans-Serif" font-size="10.00">web/http/client/Client.h</text>
</a>
</g>
</g>
<!-- Node2 -->
<g id="node2" class="node">
<title>Node2</title>
<g id="a_node2"><a xlink:href="client_2_socket_context_8hpp.html" target="_top" xlink:title=" ">
<polygon fill="white" stroke="black" points="114,-196 114,-215 281,-215 281,-196 114,-196"/>
<text text-anchor="middle" x="197.5" y="-203" font-family="Helvetica,sans-Serif" font-size="10.00">web/http/client/SocketContext.hpp</text>
</a>
</g>
</g>
<!-- Node1&#45;&gt;Node2 -->
<g id="edge1" class="edge">
<title>Node1&#45;&gt;Node2</title>
<path fill="none" stroke="midnightblue" d="M272.89,-257.48C258.78,-247.93 235.67,-232.31 218.75,-220.87"/>
<polygon fill="midnightblue" stroke="midnightblue" points="220.33,-217.71 210.08,-215.01 216.41,-223.51 220.33,-217.71"/>
</g>
<!-- Node9 -->
<g id="node9" class="node">
<title>Node9</title>
<g id="a_node9"><a xlink:href="web_2http_2client_2_socket_context_factory_8h.html" target="_top" xlink:title=" ">
<polygon fill="white" stroke="black" points="299,-190.5 299,-220.5 448,-220.5 448,-190.5 299,-190.5"/>
<text text-anchor="start" x="307" y="-208.5" font-family="Helvetica,sans-Serif" font-size="10.00">web/http/client/SocketContext</text>
<text text-anchor="middle" x="373.5" y="-197.5" font-family="Helvetica,sans-Serif" font-size="10.00">Factory.h</text>
</a>
</g>
</g>
<!-- Node1&#45;&gt;Node9 -->
<g id="edge8" class="edge">
<title>Node1&#45;&gt;Node9</title>
<path fill="none" stroke="midnightblue" d="M298.11,-257.48C310.14,-249.34 328.7,-236.79 344.4,-226.18"/>
<polygon fill="midnightblue" stroke="midnightblue" points="346.44,-229.02 352.76,-220.52 342.52,-223.22 346.44,-229.02"/>
</g>
<!-- Node3 -->
<g id="node3" class="node">
<title>Node3</title>
<g id="a_node3"><a xlink:href="web_2http_2client_2_socket_context_8h.html" target="_top" xlink:title=" ">
<polygon fill="white" stroke="black" points="119,-134.5 119,-153.5 276,-153.5 276,-134.5 119,-134.5"/>
<text text-anchor="middle" x="197.5" y="-141.5" font-family="Helvetica,sans-Serif" font-size="10.00">web/http/client/SocketContext.h</text>
</a>
</g>
</g>
<!-- Node2&#45;&gt;Node3 -->
<g id="edge2" class="edge">
<title>Node2&#45;&gt;Node3</title>
<path fill="none" stroke="midnightblue" d="M197.5,-195.98C197.5,-187.58 197.5,-174.48 197.5,-163.66"/>
<polygon fill="midnightblue" stroke="midnightblue" points="201,-163.51 197.5,-153.51 194,-163.51 201,-163.51"/>
</g>
<!-- Node4 -->
<g id="node4" class="node">
<title>Node4</title>
<g id="a_node4"><a xlink:href="web_2http_2_socket_context_8h.html" target="_top" xlink:title=" ">
<polygon fill="white" stroke="black" points="0,-73 0,-92 131,-92 131,-73 0,-73"/>
<text text-anchor="middle" x="65.5" y="-80" font-family="Helvetica,sans-Serif" font-size="10.00">web/http/SocketContext.h</text>
</a>
</g>
</g>
<!-- Node3&#45;&gt;Node4 -->
<g id="edge3" class="edge">
<title>Node3&#45;&gt;Node4</title>
<path fill="none" stroke="midnightblue" d="M178.59,-134.48C156.34,-124.45 119.19,-107.7 93.57,-96.15"/>
<polygon fill="midnightblue" stroke="midnightblue" points="94.93,-92.93 84.38,-92.01 92.06,-99.31 94.93,-92.93"/>
</g>
<!-- Node6 -->
<g id="node6" class="node">
<title>Node6</title>
<g id="a_node6"><a xlink:href="_response_parser_8h.html" target="_top" xlink:title=" ">
<polygon fill="white" stroke="black" points="149.5,-67.5 149.5,-97.5 277.5,-97.5 277.5,-67.5 149.5,-67.5"/>
<text text-anchor="start" x="157.5" y="-85.5" font-family="Helvetica,sans-Serif" font-size="10.00">web/http/client/Response</text>
<text text-anchor="middle" x="213.5" y="-74.5" font-family="Helvetica,sans-Serif" font-size="10.00">Parser.h</text>
</a>
</g>
</g>
<!-- Node3&#45;&gt;Node6 -->
<g id="edge5" class="edge">
<title>Node3&#45;&gt;Node6</title>
<path fill="none" stroke="midnightblue" d="M199.79,-134.48C201.7,-127.4 204.5,-116.97 207.08,-107.39"/>
<polygon fill="midnightblue" stroke="midnightblue" points="210.51,-108.09 209.73,-97.52 203.75,-106.27 210.51,-108.09"/>
</g>
<!-- Node5 -->
<g id="node5" class="node">
<title>Node5</title>
<g id="a_node5"><a xlink:href="net_2socket_2stream_2_socket_context_8h.html" target="_top" xlink:title=" ">
<polygon fill="white" stroke="black" points="1,-0.5 1,-30.5 130,-30.5 130,-0.5 1,-0.5"/>
<text text-anchor="start" x="9" y="-18.5" font-family="Helvetica,sans-Serif" font-size="10.00">net/socket/stream/Socket</text>
<text text-anchor="middle" x="65.5" y="-7.5" font-family="Helvetica,sans-Serif" font-size="10.00">Context.h</text>
</a>
</g>
</g>
<!-- Node4&#45;&gt;Node5 -->
<g id="edge4" class="edge">
<title>Node4&#45;&gt;Node5</title>
<path fill="none" stroke="midnightblue" d="M65.5,-72.73C65.5,-64.54 65.5,-51.92 65.5,-40.71"/>
<polygon fill="midnightblue" stroke="midnightblue" points="69,-40.59 65.5,-30.59 62,-40.59 69,-40.59"/>
</g>
<!-- Node7 -->
<g id="node7" class="node">
<title>Node7</title>
<g id="a_node7"><a xlink:href="_cookie_options_8h.html" target="_top" xlink:title=" ">
<polygon fill="white" stroke="black" points="148.5,-6 148.5,-25 278.5,-25 278.5,-6 148.5,-6"/>
<text text-anchor="middle" x="213.5" y="-13" font-family="Helvetica,sans-Serif" font-size="10.00">web/http/CookieOptions.h</text>
</a>
</g>
</g>
<!-- Node6&#45;&gt;Node7 -->
<g id="edge6" class="edge">
<title>Node6&#45;&gt;Node7</title>
<path fill="none" stroke="midnightblue" d="M213.5,-67.4C213.5,-58.06 213.5,-45.71 213.5,-35.52"/>
<polygon fill="midnightblue" stroke="midnightblue" points="217,-35.19 213.5,-25.19 210,-35.19 217,-35.19"/>
</g>
<!-- Node8 -->
<g id="node8" class="node">
<title>Node8</title>
<g id="a_node8"><a xlink:href="_parser_8h.html" target="_top" xlink:title=" ">
<polygon fill="white" stroke="black" points="297,-6 297,-25 390,-25 390,-6 297,-6"/>
<text text-anchor="middle" x="343.5" y="-13" font-family="Helvetica,sans-Serif" font-size="10.00">web/http/Parser.h</text>
</a>
</g>
</g>
<!-- Node6&#45;&gt;Node8 -->
<g id="edge7" class="edge">
<title>Node6&#45;&gt;Node8</title>
<path fill="none" stroke="midnightblue" d="M241.71,-67.4C264.22,-56.14 295.5,-40.5 317.42,-29.54"/>
<polygon fill="midnightblue" stroke="midnightblue" points="319.11,-32.61 326.49,-25.01 315.98,-26.35 319.11,-32.61"/>
</g>
<!-- Node9&#45;&gt;Node3 -->
<g id="edge11" class="edge">
<title>Node9&#45;&gt;Node3</title>
<path fill="none" stroke="midnightblue" d="M331.79,-190.4C301.51,-180.16 261.01,-166.47 232.43,-156.81"/>
<polygon fill="midnightblue" stroke="midnightblue" points="233.45,-153.46 222.85,-153.57 231.2,-160.09 233.45,-153.46"/>
</g>
<!-- Node10 -->
<g id="node10" class="node">
<title>Node10</title>
<g id="a_node10"><a xlink:href="web_2http_2_socket_context_factory_8h.html" target="_top" xlink:title=" ">
<polygon fill="white" stroke="black" points="294.5,-134.5 294.5,-153.5 456.5,-153.5 456.5,-134.5 294.5,-134.5"/>
<text text-anchor="middle" x="375.5" y="-141.5" font-family="Helvetica,sans-Serif" font-size="10.00">web/http/SocketContextFactory.h</text>
</a>
</g>
</g>
<!-- Node9&#45;&gt;Node10 -->
<g id="edge9" class="edge">
<title>Node9&#45;&gt;Node10</title>
<path fill="none" stroke="midnightblue" d="M373.97,-190.4C374.24,-182.47 374.58,-172.46 374.87,-163.86"/>
<polygon fill="midnightblue" stroke="midnightblue" points="378.37,-163.77 375.21,-153.66 371.37,-163.53 378.37,-163.77"/>
</g>
<!-- Node11 -->
<g id="node11" class="node">
<title>Node11</title>
<g id="a_node11"><a xlink:href="net_2socket_2stream_2_socket_context_factory_8h.html" target="_top" xlink:title=" ">
<polygon fill="white" stroke="black" points="311,-67.5 311,-97.5 440,-97.5 440,-67.5 311,-67.5"/>
<text text-anchor="start" x="319" y="-85.5" font-family="Helvetica,sans-Serif" font-size="10.00">net/socket/stream/Socket</text>
<text text-anchor="middle" x="375.5" y="-74.5" font-family="Helvetica,sans-Serif" font-size="10.00">ContextFactory.h</text>
</a>
</g>
</g>
<!-- Node10&#45;&gt;Node11 -->
<g id="edge10" class="edge">
<title>Node10&#45;&gt;Node11</title>
<path fill="none" stroke="midnightblue" d="M375.5,-134.48C375.5,-127.47 375.5,-117.19 375.5,-107.7"/>
<polygon fill="midnightblue" stroke="midnightblue" points="379,-107.52 375.5,-97.52 372,-107.52 379,-107.52"/>
</g>
</g>
</svg>
