<?xml version="1.0" encoding="UTF-8" standalone="no"?>
<!DOCTYPE svg PUBLIC "-//W3C//DTD SVG 1.1//EN"
 "http://www.w3.org/Graphics/SVG/1.1/DTD/svg11.dtd">
<!-- Generated by graphviz version 2.43.0 (0)
 -->
<!-- Title: web/http/client/Client.h Pages: 1 -->
<svg width="683pt" height="285pt"
 viewBox="0.00 0.00 682.50 285.00" xmlns="http://www.w3.org/2000/svg" xmlns:xlink="http://www.w3.org/1999/xlink">
<g id="graph0" class="graph" transform="scale(1 1) rotate(0) translate(4 281)">
<title>web/http/client/Client.h</title>
<polygon fill="white" stroke="transparent" points="-4,4 -4,-281 678.5,-281 678.5,4 -4,4"/>
<!-- Node1 -->
<g id="node1" class="node">
<title>Node1</title>
<g id="a_node1"><a xlink:title=" ">
<polygon fill="#bfbfbf" stroke="black" points="172,-257.5 172,-276.5 289,-276.5 289,-257.5 172,-257.5"/>
<text text-anchor="middle" x="230.5" y="-264.5" font-family="Helvetica,sans-Serif" font-size="10.00">web/http/client/Client.h</text>
</a>
</g>
</g>
<!-- Node2 -->
<g id="node2" class="node">
<title>Node2</title>
<g id="a_node2"><a xlink:href="_client_context_8hpp.html" target="_top" xlink:title=" ">
<polygon fill="white" stroke="black" points="64.5,-196 64.5,-215 226.5,-215 226.5,-196 64.5,-196"/>
<text text-anchor="middle" x="145.5" y="-203" font-family="Helvetica,sans-Serif" font-size="10.00">web/http/client/ClientContext.hpp</text>
</a>
</g>
</g>
<!-- Node1&#45;&gt;Node2 -->
<g id="edge1" class="edge">
<title>Node1&#45;&gt;Node2</title>
<path fill="none" stroke="midnightblue" d="M218.32,-257.48C204.69,-247.93 182.37,-232.31 166.03,-220.87"/>
<polygon fill="midnightblue" stroke="midnightblue" points="167.86,-217.88 157.66,-215.01 163.84,-223.61 167.86,-217.88"/>
</g>
<!-- Node14 -->
<g id="node14" class="node">
<title>Node14</title>
<g id="a_node14"><a xlink:href="_client_context_factory_8h.html" target="_top" xlink:title=" ">
<polygon fill="white" stroke="black" points="245,-190.5 245,-220.5 388,-220.5 388,-190.5 245,-190.5"/>
<text text-anchor="start" x="253" y="-208.5" font-family="Helvetica,sans-Serif" font-size="10.00">web/http/client/ClientContext</text>
<text text-anchor="middle" x="316.5" y="-197.5" font-family="Helvetica,sans-Serif" font-size="10.00">Factory.h</text>
</a>
</g>
</g>
<!-- Node1&#45;&gt;Node14 -->
<g id="edge14" class="edge">
<title>Node1&#45;&gt;Node14</title>
<path fill="none" stroke="midnightblue" d="M242.82,-257.48C254.47,-249.42 272.38,-237.02 287.63,-226.47"/>
<polygon fill="midnightblue" stroke="midnightblue" points="290,-229.09 296.23,-220.52 286.02,-223.33 290,-229.09"/>
</g>
<!-- Node3 -->
<g id="node3" class="node">
<title>Node3</title>
<g id="a_node3"><a xlink:href="_logger_8h.html" target="_top" xlink:title=" ">
<polygon fill="white" stroke="black" points="0,-129 0,-148 69,-148 69,-129 0,-129"/>
<text text-anchor="middle" x="34.5" y="-136" font-family="Helvetica,sans-Serif" font-size="10.00">log/Logger.h</text>
</a>
</g>
</g>
<!-- Node2&#45;&gt;Node3 -->
<g id="edge2" class="edge">
<title>Node2&#45;&gt;Node3</title>
<path fill="none" stroke="midnightblue" d="M130.53,-195.73C111.89,-184.82 79.84,-166.05 57.93,-153.22"/>
<polygon fill="midnightblue" stroke="midnightblue" points="59.63,-150.16 49.23,-148.13 56.09,-156.2 59.63,-150.16"/>
</g>
<!-- Node4 -->
<g id="node4" class="node">
<title>Node4</title>
<g id="a_node4"><a xlink:href="_socket_connection_base_8h.html" target="_top" xlink:title=" ">
<polygon fill="white" stroke="black" points="87,-123.5 87,-153.5 216,-153.5 216,-123.5 87,-123.5"/>
<text text-anchor="start" x="95" y="-141.5" font-family="Helvetica,sans-Serif" font-size="10.00">net/socket/stream/Socket</text>
<text text-anchor="middle" x="151.5" y="-130.5" font-family="Helvetica,sans-Serif" font-size="10.00">ConnectionBase.h</text>
</a>
</g>
</g>
<!-- Node2&#45;&gt;Node4 -->
<g id="edge3" class="edge">
<title>Node2&#45;&gt;Node4</title>
<path fill="none" stroke="midnightblue" d="M146.31,-195.73C147.07,-187.54 148.23,-174.92 149.26,-163.71"/>
<polygon fill="midnightblue" stroke="midnightblue" points="152.77,-163.87 150.2,-153.59 145.8,-163.22 152.77,-163.87"/>
</g>
<!-- Node5 -->
<g id="node5" class="node">
<title>Node5</title>
<g id="a_node5"><a xlink:href="_client_context_8h.html" target="_top" xlink:title=" ">
<polygon fill="white" stroke="black" points="234.5,-129 234.5,-148 386.5,-148 386.5,-129 234.5,-129"/>
<text text-anchor="middle" x="310.5" y="-136" font-family="Helvetica,sans-Serif" font-size="10.00">web/http/client/ClientContext.h</text>
</a>
</g>
</g>
<!-- Node2&#45;&gt;Node5 -->
<g id="edge4" class="edge">
<title>Node2&#45;&gt;Node5</title>
<path fill="none" stroke="midnightblue" d="M167.41,-195.87C196.09,-184.57 246.54,-164.7 279.23,-151.82"/>
<polygon fill="midnightblue" stroke="midnightblue" points="280.74,-154.99 288.76,-148.06 278.17,-148.47 280.74,-154.99"/>
</g>
<!-- Node6 -->
<g id="node6" class="node">
<title>Node6</title>
<g id="a_node6"><a xlink:href="_socket_protocol_8h.html" target="_top" xlink:title=" ">
<polygon fill="white" stroke="black" points="61,-56.5 61,-86.5 190,-86.5 190,-56.5 61,-56.5"/>
<text text-anchor="start" x="69" y="-74.5" font-family="Helvetica,sans-Serif" font-size="10.00">net/socket/stream/Socket</text>
<text text-anchor="middle" x="125.5" y="-63.5" font-family="Helvetica,sans-Serif" font-size="10.00">Protocol.h</text>
</a>
</g>
</g>
<!-- Node5&#45;&gt;Node6 -->
<g id="edge5" class="edge">
<title>Node5&#45;&gt;Node6</title>
<path fill="none" stroke="midnightblue" d="M285.93,-128.87C257.81,-118.99 211.02,-102.55 175.21,-89.97"/>
<polygon fill="midnightblue" stroke="midnightblue" points="176.02,-86.54 165.43,-86.53 173.7,-93.15 176.02,-86.54"/>
</g>
<!-- Node7 -->
<g id="node7" class="node">
<title>Node7</title>
<g id="a_node7"><a xlink:href="_cookie_options_8h.html" target="_top" xlink:title=" ">
<polygon fill="white" stroke="black" points="153.5,-0.5 153.5,-19.5 283.5,-19.5 283.5,-0.5 153.5,-0.5"/>
<text text-anchor="middle" x="218.5" y="-7.5" font-family="Helvetica,sans-Serif" font-size="10.00">web/http/CookieOptions.h</text>
</a>
</g>
</g>
<!-- Node5&#45;&gt;Node7 -->
<g id="edge6" class="edge">
<title>Node5&#45;&gt;Node7</title>
<path fill="none" stroke="midnightblue" d="M291.07,-128.97C274.37,-120.64 250.92,-106.39 237.5,-87 225.68,-69.92 221.2,-46.16 219.51,-29.78"/>
<polygon fill="midnightblue" stroke="midnightblue" points="223,-29.48 218.73,-19.79 216.02,-30.03 223,-29.48"/>
</g>
<!-- Node8 -->
<g id="node8" class="node">
<title>Node8</title>
<g id="a_node8"><a xlink:href="web_2http_2client_2_request_8h.html" target="_top" xlink:title=" ">
<polygon fill="white" stroke="black" points="392.5,-62 392.5,-81 520.5,-81 520.5,-62 392.5,-62"/>
<text text-anchor="middle" x="456.5" y="-69" font-family="Helvetica,sans-Serif" font-size="10.00">web/http/client/Request.h</text>
</a>
</g>
</g>
<!-- Node5&#45;&gt;Node8 -->
<g id="edge7" class="edge">
<title>Node5&#45;&gt;Node8</title>
<path fill="none" stroke="midnightblue" d="M329.89,-128.87C354.98,-117.7 398.89,-98.15 427.84,-85.26"/>
<polygon fill="midnightblue" stroke="midnightblue" points="429.32,-88.43 437.03,-81.17 426.47,-82.04 429.32,-88.43"/>
</g>
<!-- Node11 -->
<g id="node11" class="node">
<title>Node11</title>
<g id="a_node11"><a xlink:href="web_2http_2client_2_response_8h.html" target="_top" xlink:title=" ">
<polygon fill="white" stroke="black" points="538.5,-62 538.5,-81 674.5,-81 674.5,-62 538.5,-62"/>
<text text-anchor="middle" x="606.5" y="-69" font-family="Helvetica,sans-Serif" font-size="10.00">web/http/client/Response.h</text>
</a>
</g>
</g>
<!-- Node5&#45;&gt;Node11 -->
<g id="edge10" class="edge">
<title>Node5&#45;&gt;Node11</title>
<path fill="none" stroke="midnightblue" d="M349.5,-128.94C402.96,-117.2 499.01,-96.11 557.33,-83.3"/>
<polygon fill="midnightblue" stroke="midnightblue" points="558.4,-86.65 567.41,-81.08 556.89,-79.81 558.4,-86.65"/>
</g>
<!-- Node12 -->
<g id="node12" class="node">
<title>Node12</title>
<g id="a_node12"><a xlink:href="_response_parser_8h.html" target="_top" xlink:title=" ">
<polygon fill="white" stroke="black" points="246.5,-56.5 246.5,-86.5 374.5,-86.5 374.5,-56.5 246.5,-56.5"/>
<text text-anchor="start" x="254.5" y="-74.5" font-family="Helvetica,sans-Serif" font-size="10.00">web/http/client/Response</text>
<text text-anchor="middle" x="310.5" y="-63.5" font-family="Helvetica,sans-Serif" font-size="10.00">Parser.h</text>
</a>
</g>
</g>
<!-- Node5&#45;&gt;Node12 -->
<g id="edge11" class="edge">
<title>Node5&#45;&gt;Node12</title>
<path fill="none" stroke="midnightblue" d="M310.5,-128.73C310.5,-120.54 310.5,-107.92 310.5,-96.71"/>
<polygon fill="midnightblue" stroke="midnightblue" points="314,-96.59 310.5,-86.59 307,-96.59 314,-96.59"/>
</g>
<!-- Node9 -->
<g id="node9" class="node">
<title>Node9</title>
<g id="a_node9"><a xlink:href="_sink_8h.html" target="_top" xlink:title=" ">
<polygon fill="white" stroke="black" points="414.5,-0.5 414.5,-19.5 496.5,-19.5 496.5,-0.5 414.5,-0.5"/>
<text text-anchor="middle" x="455.5" y="-7.5" font-family="Helvetica,sans-Serif" font-size="10.00">net/pipe/Sink.h</text>
</a>
</g>
</g>
<!-- Node8&#45;&gt;Node9 -->
<g id="edge8" class="edge">
<title>Node8&#45;&gt;Node9</title>
<path fill="none" stroke="midnightblue" d="M456.36,-61.98C456.22,-53.58 456,-40.48 455.81,-29.66"/>
<polygon fill="midnightblue" stroke="midnightblue" points="459.31,-29.45 455.64,-19.51 452.31,-29.57 459.31,-29.45"/>
</g>
<!-- Node10 -->
<g id="node10" class="node">
<title>Node10</title>
<g id="a_node10"><a xlink:href="_connection_state_8h.html" target="_top" xlink:title=" ">
<polygon fill="white" stroke="black" points="514.5,-0.5 514.5,-19.5 652.5,-19.5 652.5,-0.5 514.5,-0.5"/>
<text text-anchor="middle" x="583.5" y="-7.5" font-family="Helvetica,sans-Serif" font-size="10.00">web/http/ConnectionState.h</text>
</a>
</g>
</g>
<!-- Node8&#45;&gt;Node10 -->
<g id="edge9" class="edge">
<title>Node8&#45;&gt;Node10</title>
<path fill="none" stroke="midnightblue" d="M474.7,-61.98C496.01,-51.99 531.53,-35.35 556.16,-23.81"/>
<polygon fill="midnightblue" stroke="midnightblue" points="557.77,-26.92 565.34,-19.51 554.8,-20.58 557.77,-26.92"/>
</g>
<!-- Node12&#45;&gt;Node7 -->
<g id="edge12" class="edge">
<title>Node12&#45;&gt;Node7</title>
<path fill="none" stroke="midnightblue" d="M288.7,-56.4C274.09,-46.95 254.93,-34.56 240.32,-25.11"/>
<polygon fill="midnightblue" stroke="midnightblue" points="242.18,-22.15 231.89,-19.66 238.38,-28.03 242.18,-22.15"/>
</g>
<!-- Node13 -->
<g id="node13" class="node">
<title>Node13</title>
<g id="a_node13"><a xlink:href="_parser_8h.html" target="_top" xlink:title=" ">
<polygon fill="white" stroke="black" points="302,-0.5 302,-19.5 395,-19.5 395,-0.5 302,-0.5"/>
<text text-anchor="middle" x="348.5" y="-7.5" font-family="Helvetica,sans-Serif" font-size="10.00">web/http/Parser.h</text>
</a>
</g>
</g>
<!-- Node12&#45;&gt;Node13 -->
<g id="edge13" class="edge">
<title>Node12&#45;&gt;Node13</title>
<path fill="none" stroke="midnightblue" d="M319.51,-56.4C324.91,-47.93 331.83,-37.1 337.55,-28.14"/>
<polygon fill="midnightblue" stroke="midnightblue" points="340.54,-29.97 342.97,-19.66 334.64,-26.2 340.54,-29.97"/>
</g>
<!-- Node14&#45;&gt;Node4 -->
<g id="edge15" class="edge">
<title>Node14&#45;&gt;Node4</title>
<path fill="none" stroke="midnightblue" d="M280.7,-190.4C256.05,-180.69 223.11,-167.71 196.66,-157.29"/>
<polygon fill="midnightblue" stroke="midnightblue" points="197.82,-153.99 187.23,-153.58 195.25,-160.5 197.82,-153.99"/>
</g>
<!-- Node14&#45;&gt;Node5 -->
<g id="edge17" class="edge">
<title>Node14&#45;&gt;Node5</title>
<path fill="none" stroke="midnightblue" d="M315.2,-190.4C314.33,-180.96 313.17,-168.45 312.23,-158.19"/>
<polygon fill="midnightblue" stroke="midnightblue" points="315.71,-157.83 311.3,-148.19 308.74,-158.47 315.71,-157.83"/>
</g>
<!-- Node15 -->
<g id="node15" class="node">
<title>Node15</title>
<g id="a_node15"><a xlink:href="_socket_protocol_factory_8h.html" target="_top" xlink:title=" ">
<polygon fill="white" stroke="black" points="405,-123.5 405,-153.5 534,-153.5 534,-123.5 405,-123.5"/>
<text text-anchor="start" x="413" y="-141.5" font-family="Helvetica,sans-Serif" font-size="10.00">net/socket/stream/Socket</text>
<text text-anchor="middle" x="469.5" y="-130.5" font-family="Helvetica,sans-Serif" font-size="10.00">ProtocolFactory.h</text>
</a>
</g>
</g>
<!-- Node14&#45;&gt;Node15 -->
<g id="edge16" class="edge">
<title>Node14&#45;&gt;Node15</title>
<path fill="none" stroke="midnightblue" d="M349.7,-190.4C372.35,-180.77 402.57,-167.94 426.98,-157.56"/>
<polygon fill="midnightblue" stroke="midnightblue" points="428.53,-160.71 436.37,-153.58 425.79,-154.27 428.53,-160.71"/>
</g>
</g>
</svg>
