<?xml version="1.0" encoding="UTF-8" standalone="no"?>
<!DOCTYPE svg PUBLIC "-//W3C//DTD SVG 1.1//EN"
 "http://www.w3.org/Graphics/SVG/1.1/DTD/svg11.dtd">
<!-- Generated by graphviz version 2.43.0 (0)
 -->
<!-- Title: http/ConnectionState.h Pages: 1 -->
<svg width="1750pt" height="397pt"
 viewBox="0.00 0.00 1749.50 397.00" xmlns="http://www.w3.org/2000/svg" xmlns:xlink="http://www.w3.org/1999/xlink">
<g id="graph0" class="graph" transform="scale(1 1) rotate(0) translate(4 393)">
<title>http/ConnectionState.h</title>
<polygon fill="white" stroke="transparent" points="-4,4 -4,-393 1745.5,-393 1745.5,4 -4,4"/>
<!-- Node1 -->
<g id="node1" class="node">
<title>Node1</title>
<g id="a_node1"><a xlink:title=" ">
<polygon fill="#bfbfbf" stroke="black" points="857.5,-369.5 857.5,-388.5 974.5,-388.5 974.5,-369.5 857.5,-369.5"/>
<text text-anchor="middle" x="916" y="-376.5" font-family="Helvetica,sans-Serif" font-size="10.00">http/ConnectionState.h</text>
</a>
</g>
</g>
<!-- Node2 -->
<g id="node2" class="node">
<title>Node2</title>
<g id="a_node2"><a xlink:href="http_2client_2_request_8h.html" target="_top" xlink:title=" ">
<polygon fill="white" stroke="black" points="143.5,-313.5 143.5,-332.5 250.5,-332.5 250.5,-313.5 143.5,-313.5"/>
<text text-anchor="middle" x="197" y="-320.5" font-family="Helvetica,sans-Serif" font-size="10.00">http/client/Request.h</text>
</a>
</g>
</g>
<!-- Node1&#45;&gt;Node2 -->
<g id="edge1" class="edge">
<title>Node1&#45;&gt;Node2</title>
<path fill="none" stroke="midnightblue" d="M847.11,-372.83C704.45,-362.11 379.34,-337.69 250.77,-328.04"/>
<polygon fill="midnightblue" stroke="midnightblue" points="847.23,-376.34 857.47,-373.6 847.76,-369.36 847.23,-376.34"/>
</g>
<!-- Node10 -->
<g id="node10" class="node">
<title>Node10</title>
<g id="a_node10"><a xlink:href="http_2server_2http_2_request_8h.html" target="_top" xlink:title=" ">
<polygon fill="white" stroke="black" points="850.5,-313.5 850.5,-332.5 981.5,-332.5 981.5,-313.5 850.5,-313.5"/>
<text text-anchor="middle" x="916" y="-320.5" font-family="Helvetica,sans-Serif" font-size="10.00">http/server/http/Request.h</text>
</a>
</g>
</g>
<!-- Node1&#45;&gt;Node10 -->
<g id="edge11" class="edge">
<title>Node1&#45;&gt;Node10</title>
<path fill="none" stroke="midnightblue" d="M916,-358.8C916,-349.91 916,-339.78 916,-332.75"/>
<polygon fill="midnightblue" stroke="midnightblue" points="912.5,-359.08 916,-369.08 919.5,-359.08 912.5,-359.08"/>
</g>
<!-- Node29 -->
<g id="node29" class="node">
<title>Node29</title>
<g id="a_node29"><a xlink:href="http_2server_2http_2_response_8h.html" target="_top" xlink:title=" ">
<polygon fill="white" stroke="black" points="1065,-313.5 1065,-332.5 1203,-332.5 1203,-313.5 1065,-313.5"/>
<text text-anchor="middle" x="1134" y="-320.5" font-family="Helvetica,sans-Serif" font-size="10.00">http/server/http/Response.h</text>
</a>
</g>
</g>
<!-- Node1&#45;&gt;Node29 -->
<g id="edge34" class="edge">
<title>Node1&#45;&gt;Node29</title>
<path fill="none" stroke="midnightblue" d="M960.31,-367.02C1001.49,-356.82 1061.97,-341.84 1099.62,-332.52"/>
<polygon fill="midnightblue" stroke="midnightblue" points="959.41,-363.64 950.54,-369.44 961.09,-370.44 959.41,-363.64"/>
</g>
<!-- Node3 -->
<g id="node3" class="node">
<title>Node3</title>
<g id="a_node3"><a xlink:href="_client_context_8h.html" target="_top" xlink:title=" ">
<polygon fill="white" stroke="black" points="131.5,-252 131.5,-271 262.5,-271 262.5,-252 131.5,-252"/>
<text text-anchor="middle" x="197" y="-259" font-family="Helvetica,sans-Serif" font-size="10.00">http/client/ClientContext.h</text>
</a>
</g>
</g>
<!-- Node2&#45;&gt;Node3 -->
<g id="edge2" class="edge">
<title>Node2&#45;&gt;Node3</title>
<path fill="none" stroke="midnightblue" d="M197,-303.32C197,-292.5 197,-279.4 197,-271.01"/>
<polygon fill="midnightblue" stroke="midnightblue" points="193.5,-303.48 197,-313.48 200.5,-303.48 193.5,-303.48"/>
</g>
<!-- Node9 -->
<g id="node9" class="node">
<title>Node9</title>
<g id="a_node9"><a xlink:href="http_2client_2_request_8cpp.html" target="_top" xlink:title=" ">
<polygon fill="white" stroke="black" points="0,-185 0,-204 118,-204 118,-185 0,-185"/>
<text text-anchor="middle" x="59" y="-192" font-family="Helvetica,sans-Serif" font-size="10.00">http/client/Request.cpp</text>
</a>
</g>
</g>
<!-- Node2&#45;&gt;Node9 -->
<g id="edge10" class="edge">
<title>Node2&#45;&gt;Node9</title>
<path fill="none" stroke="midnightblue" d="M169.22,-308.55C154.31,-300.58 136.15,-289.58 122,-277 96.47,-254.31 73.97,-220.11 64.18,-204.21"/>
<polygon fill="midnightblue" stroke="midnightblue" points="167.98,-311.85 178.46,-313.35 171.19,-305.64 167.98,-311.85"/>
</g>
<!-- Node4 -->
<g id="node4" class="node">
<title>Node4</title>
<g id="a_node4"><a xlink:href="_client_context_8hpp.html" target="_top" xlink:title=" ">
<polygon fill="white" stroke="black" points="276.5,-185 276.5,-204 417.5,-204 417.5,-185 276.5,-185"/>
<text text-anchor="middle" x="347" y="-192" font-family="Helvetica,sans-Serif" font-size="10.00">http/client/ClientContext.hpp</text>
</a>
</g>
</g>
<!-- Node3&#45;&gt;Node4 -->
<g id="edge3" class="edge">
<title>Node3&#45;&gt;Node4</title>
<path fill="none" stroke="midnightblue" d="M226.35,-247.78C256.06,-234.91 301.18,-215.35 327,-204.17"/>
<polygon fill="midnightblue" stroke="midnightblue" points="224.7,-244.68 216.92,-251.87 227.49,-251.1 224.7,-244.68"/>
</g>
<!-- Node8 -->
<g id="node8" class="node">
<title>Node8</title>
<g id="a_node8"><a xlink:href="_client_context_factory_8h.html" target="_top" xlink:title=" ">
<polygon fill="white" stroke="black" points="136,-179.5 136,-209.5 258,-209.5 258,-179.5 136,-179.5"/>
<text text-anchor="start" x="144" y="-197.5" font-family="Helvetica,sans-Serif" font-size="10.00">http/client/ClientContext</text>
<text text-anchor="middle" x="197" y="-186.5" font-family="Helvetica,sans-Serif" font-size="10.00">Factory.h</text>
</a>
</g>
</g>
<!-- Node3&#45;&gt;Node8 -->
<g id="edge7" class="edge">
<title>Node3&#45;&gt;Node8</title>
<path fill="none" stroke="midnightblue" d="M197,-241.41C197,-231.22 197,-218.9 197,-209.59"/>
<polygon fill="midnightblue" stroke="midnightblue" points="193.5,-241.73 197,-251.73 200.5,-241.73 193.5,-241.73"/>
</g>
<!-- Node3&#45;&gt;Node9 -->
<g id="edge9" class="edge">
<title>Node3&#45;&gt;Node9</title>
<path fill="none" stroke="midnightblue" d="M169.28,-247.44C141.95,-234.57 100.95,-215.26 77.4,-204.17"/>
<polygon fill="midnightblue" stroke="midnightblue" points="168.14,-250.77 178.67,-251.87 171.12,-244.44 168.14,-250.77"/>
</g>
<!-- Node5 -->
<g id="node5" class="node">
<title>Node5</title>
<g id="a_node5"><a xlink:href="_client_8h.html" target="_top" xlink:title=" ">
<polygon fill="white" stroke="black" points="224,-123.5 224,-142.5 320,-142.5 320,-123.5 224,-123.5"/>
<text text-anchor="middle" x="272" y="-130.5" font-family="Helvetica,sans-Serif" font-size="10.00">http/client/Client.h</text>
</a>
</g>
</g>
<!-- Node4&#45;&gt;Node5 -->
<g id="edge4" class="edge">
<title>Node4&#45;&gt;Node5</title>
<path fill="none" stroke="midnightblue" d="M328.06,-178.47C313.71,-167.09 294.52,-151.87 282.73,-142.51"/>
<polygon fill="midnightblue" stroke="midnightblue" points="326.24,-181.5 336.25,-184.98 330.6,-176.02 326.24,-181.5"/>
</g>
<!-- Node6 -->
<g id="node6" class="node">
<title>Node6</title>
<g id="a_node6"><a xlink:href="legacy_2_client_8h.html" target="_top" xlink:title=" ">
<polygon fill="white" stroke="black" points="167.5,-56.5 167.5,-86.5 258.5,-86.5 258.5,-56.5 167.5,-56.5"/>
<text text-anchor="start" x="175.5" y="-74.5" font-family="Helvetica,sans-Serif" font-size="10.00">http/client/legacy</text>
<text text-anchor="middle" x="213" y="-63.5" font-family="Helvetica,sans-Serif" font-size="10.00">/Client.h</text>
</a>
</g>
</g>
<!-- Node5&#45;&gt;Node6 -->
<g id="edge5" class="edge">
<title>Node5&#45;&gt;Node6</title>
<path fill="none" stroke="midnightblue" d="M256.5,-116.37C247.32,-107.11 235.79,-95.48 226.91,-86.52"/>
<polygon fill="midnightblue" stroke="midnightblue" points="254.02,-118.84 263.55,-123.48 258.99,-113.91 254.02,-118.84"/>
</g>
<!-- Node7 -->
<g id="node7" class="node">
<title>Node7</title>
<g id="a_node7"><a xlink:href="tls_2_client_8h.html" target="_top" xlink:title=" ">
<polygon fill="white" stroke="black" points="277,-62 277,-81 387,-81 387,-62 277,-62"/>
<text text-anchor="middle" x="332" y="-69" font-family="Helvetica,sans-Serif" font-size="10.00">http/client/tls/Client.h</text>
</a>
</g>
</g>
<!-- Node5&#45;&gt;Node7 -->
<g id="edge6" class="edge">
<title>Node5&#45;&gt;Node7</title>
<path fill="none" stroke="midnightblue" d="M287.81,-116.32C299.21,-105.02 314.16,-90.19 323.42,-81.01"/>
<polygon fill="midnightblue" stroke="midnightblue" points="285.23,-113.95 280.6,-123.48 290.16,-118.92 285.23,-113.95"/>
</g>
<!-- Node8&#45;&gt;Node5 -->
<g id="edge8" class="edge">
<title>Node8&#45;&gt;Node5</title>
<path fill="none" stroke="midnightblue" d="M222.97,-172.89C236.02,-162.54 251.13,-150.56 261.09,-142.66"/>
<polygon fill="midnightblue" stroke="midnightblue" points="220.43,-170.44 214.77,-179.4 224.78,-175.93 220.43,-170.44"/>
</g>
<!-- Node11 -->
<g id="node11" class="node">
<title>Node11</title>
<g id="a_node11"><a xlink:href="_h_t_t_p_server_context_8h.html" target="_top" xlink:title=" ">
<polygon fill="white" stroke="black" points="1130,-246.5 1130,-276.5 1270,-276.5 1270,-246.5 1130,-246.5"/>
<text text-anchor="start" x="1138" y="-264.5" font-family="Helvetica,sans-Serif" font-size="10.00">http/server/http/HTTPServer</text>
<text text-anchor="middle" x="1200" y="-253.5" font-family="Helvetica,sans-Serif" font-size="10.00">Context.h</text>
</a>
</g>
</g>
<!-- Node10&#45;&gt;Node11 -->
<g id="edge12" class="edge">
<title>Node10&#45;&gt;Node11</title>
<path fill="none" stroke="midnightblue" d="M966.53,-311.41C1012.94,-301.69 1082.07,-287.21 1133.07,-276.52"/>
<polygon fill="midnightblue" stroke="midnightblue" points="965.76,-308 956.69,-313.48 967.2,-314.85 965.76,-308"/>
</g>
<!-- Node22 -->
<g id="node22" class="node">
<title>Node22</title>
<g id="a_node22"><a xlink:href="http_2server_2http_2_request_8cpp.html" target="_top" xlink:title=" ">
<polygon fill="white" stroke="black" points="845.5,-252 845.5,-271 986.5,-271 986.5,-252 845.5,-252"/>
<text text-anchor="middle" x="916" y="-259" font-family="Helvetica,sans-Serif" font-size="10.00">http/server/http/Request.cpp</text>
</a>
</g>
</g>
<!-- Node10&#45;&gt;Node22 -->
<g id="edge24" class="edge">
<title>Node10&#45;&gt;Node22</title>
<path fill="none" stroke="midnightblue" d="M916,-303.32C916,-292.5 916,-279.4 916,-271.01"/>
<polygon fill="midnightblue" stroke="midnightblue" points="912.5,-303.48 916,-313.48 919.5,-303.48 912.5,-303.48"/>
</g>
<!-- Node23 -->
<g id="node23" class="node">
<title>Node23</title>
<g id="a_node23"><a xlink:href="express_2_request_8h.html" target="_top" xlink:title=" ">
<polygon fill="white" stroke="black" points="728.5,-252 728.5,-271 827.5,-271 827.5,-252 728.5,-252"/>
<text text-anchor="middle" x="778" y="-259" font-family="Helvetica,sans-Serif" font-size="10.00">express/Request.h</text>
</a>
</g>
</g>
<!-- Node10&#45;&gt;Node23 -->
<g id="edge25" class="edge">
<title>Node10&#45;&gt;Node23</title>
<path fill="none" stroke="midnightblue" d="M886.96,-309.48C860.16,-297.92 821.08,-281.08 797.74,-271.01"/>
<polygon fill="midnightblue" stroke="midnightblue" points="885.66,-312.73 896.23,-313.48 888.43,-306.3 885.66,-312.73"/>
</g>
<!-- Node12 -->
<g id="node12" class="node">
<title>Node12</title>
<g id="a_node12"><a xlink:href="_h_t_t_p_server_context_8hpp.html" target="_top" xlink:title=" ">
<polygon fill="white" stroke="black" points="1434,-179.5 1434,-209.5 1574,-209.5 1574,-179.5 1434,-179.5"/>
<text text-anchor="start" x="1442" y="-197.5" font-family="Helvetica,sans-Serif" font-size="10.00">http/server/http/HTTPServer</text>
<text text-anchor="middle" x="1504" y="-186.5" font-family="Helvetica,sans-Serif" font-size="10.00">Context.hpp</text>
</a>
</g>
</g>
<!-- Node11&#45;&gt;Node12 -->
<g id="edge13" class="edge">
<title>Node11&#45;&gt;Node12</title>
<path fill="none" stroke="midnightblue" d="M1275.38,-244.38C1325.38,-233.69 1390.37,-219.8 1438.27,-209.55"/>
<polygon fill="midnightblue" stroke="midnightblue" points="1274.64,-240.96 1265.59,-246.48 1276.1,-247.81 1274.64,-240.96"/>
</g>
<!-- Node18 -->
<g id="node18" class="node">
<title>Node18</title>
<g id="a_node18"><a xlink:href="_h_t_t_p_server_context_factory_8h.html" target="_top" xlink:title=" ">
<polygon fill="white" stroke="black" points="1276,-179.5 1276,-209.5 1416,-209.5 1416,-179.5 1276,-179.5"/>
<text text-anchor="start" x="1284" y="-197.5" font-family="Helvetica,sans-Serif" font-size="10.00">http/server/http/HTTPServer</text>
<text text-anchor="middle" x="1346" y="-186.5" font-family="Helvetica,sans-Serif" font-size="10.00">ContextFactory.h</text>
</a>
</g>
</g>
<!-- Node11&#45;&gt;Node18 -->
<g id="edge19" class="edge">
<title>Node11&#45;&gt;Node18</title>
<path fill="none" stroke="midnightblue" d="M1240.95,-242.27C1264.2,-231.92 1292.87,-219.15 1314.38,-209.58"/>
<polygon fill="midnightblue" stroke="midnightblue" points="1239.39,-239.13 1231.68,-246.4 1242.24,-245.53 1239.39,-239.13"/>
</g>
<!-- Node19 -->
<g id="node19" class="node">
<title>Node19</title>
<g id="a_node19"><a xlink:href="http_2server_2http_2_response_8cpp.html" target="_top" xlink:title=" ">
<polygon fill="white" stroke="black" points="1592.5,-185 1592.5,-204 1741.5,-204 1741.5,-185 1592.5,-185"/>
<text text-anchor="middle" x="1667" y="-192" font-family="Helvetica,sans-Serif" font-size="10.00">http/server/http/Response.cpp</text>
</a>
</g>
</g>
<!-- Node11&#45;&gt;Node19 -->
<g id="edge21" class="edge">
<title>Node11&#45;&gt;Node19</title>
<path fill="none" stroke="midnightblue" d="M1280.19,-250.87C1357.77,-241.33 1478.61,-225.88 1583,-210 1594.85,-208.2 1607.61,-206.08 1619.52,-204.04"/>
<polygon fill="midnightblue" stroke="midnightblue" points="1279.51,-247.43 1270.01,-252.12 1280.36,-254.38 1279.51,-247.43"/>
</g>
<!-- Node20 -->
<g id="node20" class="node">
<title>Node20</title>
<g id="a_node20"><a xlink:href="express_2_response_8cpp.html" target="_top" xlink:title=" ">
<polygon fill="white" stroke="black" points="1140.5,-185 1140.5,-204 1257.5,-204 1257.5,-185 1140.5,-185"/>
<text text-anchor="middle" x="1199" y="-192" font-family="Helvetica,sans-Serif" font-size="10.00">express/Response.cpp</text>
</a>
</g>
</g>
<!-- Node11&#45;&gt;Node20 -->
<g id="edge22" class="edge">
<title>Node11&#45;&gt;Node20</title>
<path fill="none" stroke="midnightblue" d="M1199.63,-236.25C1199.45,-225.02 1199.26,-212.38 1199.13,-204.19"/>
<polygon fill="midnightblue" stroke="midnightblue" points="1196.13,-236.45 1199.78,-246.4 1203.13,-236.34 1196.13,-236.45"/>
</g>
<!-- Node21 -->
<g id="node21" class="node">
<title>Node21</title>
<g id="a_node21"><a xlink:href="_router_8cpp.html" target="_top" xlink:title=" ">
<polygon fill="white" stroke="black" points="982.5,-185 982.5,-204 1083.5,-204 1083.5,-185 982.5,-185"/>
<text text-anchor="middle" x="1033" y="-192" font-family="Helvetica,sans-Serif" font-size="10.00">express/Router.cpp</text>
</a>
</g>
</g>
<!-- Node11&#45;&gt;Node21 -->
<g id="edge23" class="edge">
<title>Node11&#45;&gt;Node21</title>
<path fill="none" stroke="midnightblue" d="M1154.07,-242.62C1121.74,-230.04 1079.93,-213.77 1054.86,-204.01"/>
<polygon fill="midnightblue" stroke="midnightblue" points="1153.17,-246.03 1163.76,-246.4 1155.71,-239.51 1153.17,-246.03"/>
</g>
<!-- Node13 -->
<g id="node13" class="node">
<title>Node13</title>
<g id="a_node13"><a xlink:href="_server_8h.html" target="_top" xlink:title=" ">
<polygon fill="white" stroke="black" points="1296,-123.5 1296,-142.5 1398,-142.5 1398,-123.5 1296,-123.5"/>
<text text-anchor="middle" x="1347" y="-130.5" font-family="Helvetica,sans-Serif" font-size="10.00">http/server/Server.h</text>
</a>
</g>
</g>
<!-- Node12&#45;&gt;Node13 -->
<g id="edge14" class="edge">
<title>Node12&#45;&gt;Node13</title>
<path fill="none" stroke="midnightblue" d="M1457.3,-175.8C1428.44,-164.86 1392.68,-151.31 1369.84,-142.66"/>
<polygon fill="midnightblue" stroke="midnightblue" points="1456.2,-179.13 1466.79,-179.4 1458.68,-172.58 1456.2,-179.13"/>
</g>
<!-- Node14 -->
<g id="node14" class="node">
<title>Node14</title>
<g id="a_node14"><a xlink:href="legacy_2_server_8h.html" target="_top" xlink:title=" ">
<polygon fill="white" stroke="black" points="1177.5,-56.5 1177.5,-86.5 1272.5,-86.5 1272.5,-56.5 1177.5,-56.5"/>
<text text-anchor="start" x="1185.5" y="-74.5" font-family="Helvetica,sans-Serif" font-size="10.00">http/server/legacy</text>
<text text-anchor="middle" x="1225" y="-63.5" font-family="Helvetica,sans-Serif" font-size="10.00">/Server.h</text>
</a>
</g>
</g>
<!-- Node13&#45;&gt;Node14 -->
<g id="edge15" class="edge">
<title>Node13&#45;&gt;Node14</title>
<path fill="none" stroke="midnightblue" d="M1320.49,-119.07C1300.79,-109.47 1273.96,-96.38 1253.75,-86.52"/>
<polygon fill="midnightblue" stroke="midnightblue" points="1319,-122.24 1329.52,-123.48 1322.07,-115.95 1319,-122.24"/>
</g>
<!-- Node16 -->
<g id="node16" class="node">
<title>Node16</title>
<g id="a_node16"><a xlink:href="tls_2_server_8h.html" target="_top" xlink:title=" ">
<polygon fill="white" stroke="black" points="1291,-62 1291,-81 1407,-81 1407,-62 1291,-62"/>
<text text-anchor="middle" x="1349" y="-69" font-family="Helvetica,sans-Serif" font-size="10.00">http/server/tls/Server.h</text>
</a>
</g>
</g>
<!-- Node13&#45;&gt;Node16 -->
<g id="edge17" class="edge">
<title>Node13&#45;&gt;Node16</title>
<path fill="none" stroke="midnightblue" d="M1347.63,-113.32C1347.99,-102.5 1348.43,-89.4 1348.71,-81.01"/>
<polygon fill="midnightblue" stroke="midnightblue" points="1344.12,-113.36 1347.29,-123.48 1351.12,-113.6 1344.12,-113.36"/>
</g>
<!-- Node15 -->
<g id="node15" class="node">
<title>Node15</title>
<g id="a_node15"><a xlink:href="legacy_2_web_app_8h.html" target="_top" xlink:title=" ">
<polygon fill="white" stroke="black" points="1094.5,-0.5 1094.5,-19.5 1225.5,-19.5 1225.5,-0.5 1094.5,-0.5"/>
<text text-anchor="middle" x="1160" y="-7.5" font-family="Helvetica,sans-Serif" font-size="10.00">express/legacy/WebApp.h</text>
</a>
</g>
</g>
<!-- Node14&#45;&gt;Node15 -->
<g id="edge16" class="edge">
<title>Node14&#45;&gt;Node15</title>
<path fill="none" stroke="midnightblue" d="M1202.17,-49.6C1190.93,-39.32 1178.01,-27.48 1169.46,-19.66"/>
<polygon fill="midnightblue" stroke="midnightblue" points="1199.86,-52.23 1209.6,-56.4 1204.58,-47.07 1199.86,-52.23"/>
</g>
<!-- Node17 -->
<g id="node17" class="node">
<title>Node17</title>
<g id="a_node17"><a xlink:href="tls_2_web_app_8h.html" target="_top" xlink:title=" ">
<polygon fill="white" stroke="black" points="1267.5,-0.5 1267.5,-19.5 1380.5,-19.5 1380.5,-0.5 1267.5,-0.5"/>
<text text-anchor="middle" x="1324" y="-7.5" font-family="Helvetica,sans-Serif" font-size="10.00">express/tls/WebApp.h</text>
</a>
</g>
</g>
<!-- Node16&#45;&gt;Node17 -->
<g id="edge18" class="edge">
<title>Node16&#45;&gt;Node17</title>
<path fill="none" stroke="midnightblue" d="M1341.44,-52.5C1336.84,-41.55 1331.17,-28.07 1327.58,-19.51"/>
<polygon fill="midnightblue" stroke="midnightblue" points="1338.32,-54.11 1345.42,-61.98 1344.77,-51.4 1338.32,-54.11"/>
</g>
<!-- Node18&#45;&gt;Node13 -->
<g id="edge20" class="edge">
<title>Node18&#45;&gt;Node13</title>
<path fill="none" stroke="midnightblue" d="M1346.41,-169.29C1346.57,-159.86 1346.74,-149.65 1346.85,-142.66"/>
<polygon fill="midnightblue" stroke="midnightblue" points="1342.91,-169.34 1346.24,-179.4 1349.9,-169.46 1342.91,-169.34"/>
</g>
<!-- Node23&#45;&gt;Node21 -->
<g id="edge30" class="edge">
<title>Node23&#45;&gt;Node21</title>
<path fill="none" stroke="midnightblue" d="M821.53,-249.4C871.86,-236.58 953.61,-215.74 999.33,-204.08"/>
<polygon fill="midnightblue" stroke="midnightblue" points="820.42,-246.07 811.6,-251.94 822.15,-252.86 820.42,-246.07"/>
</g>
<!-- Node24 -->
<g id="node24" class="node">
<title>Node24</title>
<g id="a_node24"><a xlink:href="_json_middleware_8cpp.html" target="_top" xlink:title=" ">
<polygon fill="white" stroke="black" points="724.5,-179.5 724.5,-209.5 833.5,-209.5 833.5,-179.5 724.5,-179.5"/>
<text text-anchor="start" x="732.5" y="-197.5" font-family="Helvetica,sans-Serif" font-size="10.00">express/middleware</text>
<text text-anchor="middle" x="779" y="-186.5" font-family="Helvetica,sans-Serif" font-size="10.00">/JsonMiddleware.cpp</text>
</a>
</g>
</g>
<!-- Node23&#45;&gt;Node24 -->
<g id="edge26" class="edge">
<title>Node23&#45;&gt;Node24</title>
<path fill="none" stroke="midnightblue" d="M778.29,-241.41C778.45,-231.22 778.64,-218.9 778.78,-209.59"/>
<polygon fill="midnightblue" stroke="midnightblue" points="774.79,-241.68 778.13,-251.73 781.79,-241.79 774.79,-241.68"/>
</g>
<!-- Node25 -->
<g id="node25" class="node">
<title>Node25</title>
<g id="a_node25"><a xlink:href="_static_middleware_8cpp.html" target="_top" xlink:title=" ">
<polygon fill="white" stroke="black" points="851.5,-179.5 851.5,-209.5 964.5,-209.5 964.5,-179.5 851.5,-179.5"/>
<text text-anchor="start" x="859.5" y="-197.5" font-family="Helvetica,sans-Serif" font-size="10.00">express/middleware</text>
<text text-anchor="middle" x="908" y="-186.5" font-family="Helvetica,sans-Serif" font-size="10.00">/StaticMiddleware.cpp</text>
</a>
</g>
</g>
<!-- Node23&#45;&gt;Node25 -->
<g id="edge27" class="edge">
<title>Node23&#45;&gt;Node25</title>
<path fill="none" stroke="midnightblue" d="M804.32,-247.34C826.2,-236.4 857.28,-220.86 879.7,-209.65"/>
<polygon fill="midnightblue" stroke="midnightblue" points="802.64,-244.27 795.26,-251.87 805.77,-250.53 802.64,-244.27"/>
</g>
<!-- Node26 -->
<g id="node26" class="node">
<title>Node26</title>
<g id="a_node26"><a xlink:href="_v_host_8cpp.html" target="_top" xlink:title=" ">
<polygon fill="white" stroke="black" points="602,-179.5 602,-209.5 706,-209.5 706,-179.5 602,-179.5"/>
<text text-anchor="start" x="610" y="-197.5" font-family="Helvetica,sans-Serif" font-size="10.00">express/middleware</text>
<text text-anchor="middle" x="654" y="-186.5" font-family="Helvetica,sans-Serif" font-size="10.00">/VHost.cpp</text>
</a>
</g>
</g>
<!-- Node23&#45;&gt;Node26 -->
<g id="edge28" class="edge">
<title>Node23&#45;&gt;Node26</title>
<path fill="none" stroke="midnightblue" d="M752.62,-247.19C731.76,-236.26 702.28,-220.81 681,-209.65"/>
<polygon fill="midnightblue" stroke="midnightblue" points="751.05,-250.33 761.53,-251.87 754.3,-244.13 751.05,-250.33"/>
</g>
<!-- Node27 -->
<g id="node27" class="node">
<title>Node27</title>
<g id="a_node27"><a xlink:href="express_2_request_8cpp.html" target="_top" xlink:title=" ">
<polygon fill="white" stroke="black" points="436,-185 436,-204 546,-204 546,-185 436,-185"/>
<text text-anchor="middle" x="491" y="-192" font-family="Helvetica,sans-Serif" font-size="10.00">express/Request.cpp</text>
</a>
</g>
</g>
<!-- Node23&#45;&gt;Node27 -->
<g id="edge29" class="edge">
<title>Node23&#45;&gt;Node27</title>
<path fill="none" stroke="midnightblue" d="M730.42,-249.72C673.9,-236.92 580.78,-215.83 528.9,-204.08"/>
<polygon fill="midnightblue" stroke="midnightblue" points="729.66,-253.14 740.18,-251.94 731.2,-246.31 729.66,-253.14"/>
</g>
<!-- Node28 -->
<g id="node28" class="node">
<title>Node28</title>
<g id="a_node28"><a xlink:href="_web_app_t_8h.html" target="_top" xlink:title=" ">
<polygon fill="white" stroke="black" points="1059,-123.5 1059,-142.5 1163,-142.5 1163,-123.5 1059,-123.5"/>
<text text-anchor="middle" x="1111" y="-130.5" font-family="Helvetica,sans-Serif" font-size="10.00">express/WebAppT.h</text>
</a>
</g>
</g>
<!-- Node23&#45;&gt;Node28 -->
<g id="edge31" class="edge">
<title>Node23&#45;&gt;Node28</title>
<path fill="none" stroke="midnightblue" d="M718.05,-254.29C649.65,-244.97 552.22,-223.47 593,-179 624.07,-145.11 933.81,-136.66 1058.96,-134.62"/>
<polygon fill="midnightblue" stroke="midnightblue" points="717.96,-257.81 728.33,-255.63 718.87,-250.87 717.96,-257.81"/>
</g>
<!-- Node28&#45;&gt;Node15 -->
<g id="edge32" class="edge">
<title>Node28&#45;&gt;Node15</title>
<path fill="none" stroke="midnightblue" d="M1115.74,-113.4C1119.99,-97.78 1126.81,-75.02 1135,-56 1140.65,-42.87 1149.01,-28.57 1154.48,-19.7"/>
<polygon fill="midnightblue" stroke="midnightblue" points="1112.28,-112.8 1113.12,-123.36 1119.05,-114.58 1112.28,-112.8"/>
</g>
<!-- Node28&#45;&gt;Node17 -->
<g id="edge33" class="edge">
<title>Node28&#45;&gt;Node17</title>
<path fill="none" stroke="midnightblue" d="M1119.78,-114.44C1129.34,-97.09 1146.21,-71.04 1168,-56 1197.35,-35.75 1235.78,-24.52 1267.16,-18.35"/>
<polygon fill="midnightblue" stroke="midnightblue" points="1116.58,-113.02 1115.02,-123.5 1122.77,-116.28 1116.58,-113.02"/>
</g>
<!-- Node29&#45;&gt;Node11 -->
<g id="edge35" class="edge">
<title>Node29&#45;&gt;Node11</title>
<path fill="none" stroke="midnightblue" d="M1151.03,-306.65C1161.35,-297.35 1174.41,-285.57 1184.45,-276.52"/>
<polygon fill="midnightblue" stroke="midnightblue" points="1148.54,-304.18 1143.46,-313.48 1153.23,-309.38 1148.54,-304.18"/>
</g>
<!-- Node29&#45;&gt;Node19 -->
<g id="edge36" class="edge">
<title>Node29&#45;&gt;Node19</title>
<path fill="none" stroke="midnightblue" d="M1180.14,-311.05C1284.57,-286.26 1537.21,-226.3 1631.08,-204.02"/>
<polygon fill="midnightblue" stroke="midnightblue" points="1179.14,-307.69 1170.22,-313.4 1180.75,-314.5 1179.14,-307.69"/>
</g>
<!-- Node30 -->
<g id="node30" class="node">
<title>Node30</title>
<g id="a_node30"><a xlink:href="express_2_response_8h.html" target="_top" xlink:title=" ">
<polygon fill="white" stroke="black" points="1004.5,-252 1004.5,-271 1111.5,-271 1111.5,-252 1004.5,-252"/>
<text text-anchor="middle" x="1058" y="-259" font-family="Helvetica,sans-Serif" font-size="10.00">express/Response.h</text>
</a>
</g>
</g>
<!-- Node29&#45;&gt;Node30 -->
<g id="edge37" class="edge">
<title>Node29&#45;&gt;Node30</title>
<path fill="none" stroke="midnightblue" d="M1115.22,-307.29C1100.64,-295.88 1080.94,-280.46 1068.87,-271.01"/>
<polygon fill="midnightblue" stroke="midnightblue" points="1113.08,-310.07 1123.11,-313.48 1117.39,-304.55 1113.08,-310.07"/>
</g>
<!-- Node30&#45;&gt;Node20 -->
<g id="edge41" class="edge">
<title>Node30&#45;&gt;Node20</title>
<path fill="none" stroke="midnightblue" d="M1085.96,-247.61C1113.88,-234.74 1156.04,-215.31 1180.2,-204.17"/>
<polygon fill="midnightblue" stroke="midnightblue" points="1084.34,-244.5 1076.72,-251.87 1087.27,-250.86 1084.34,-244.5"/>
</g>
<!-- Node30&#45;&gt;Node24 -->
<g id="edge38" class="edge">
<title>Node30&#45;&gt;Node24</title>
<path fill="none" stroke="midnightblue" d="M1011.23,-249.6C962.23,-238.19 885.35,-220.28 833.6,-208.22"/>
<polygon fill="midnightblue" stroke="midnightblue" points="1010.71,-253.08 1021.24,-251.94 1012.29,-246.26 1010.71,-253.08"/>
</g>
<!-- Node30&#45;&gt;Node25 -->
<g id="edge39" class="edge">
<title>Node30&#45;&gt;Node25</title>
<path fill="none" stroke="midnightblue" d="M1028.62,-247.77C1003.23,-236.77 966.6,-220.89 940.37,-209.53"/>
<polygon fill="midnightblue" stroke="midnightblue" points="1027.51,-251.1 1038.08,-251.87 1030.3,-244.68 1027.51,-251.1"/>
</g>
<!-- Node30&#45;&gt;Node26 -->
<g id="edge40" class="edge">
<title>Node30&#45;&gt;Node26</title>
<path fill="none" stroke="midnightblue" d="M1013.98,-249.79C1007.63,-248.41 1001.16,-247.1 995,-246 871.49,-223.9 838.43,-232.54 715,-210 712.11,-209.47 709.15,-208.89 706.17,-208.28"/>
<polygon fill="midnightblue" stroke="midnightblue" points="1013.27,-253.22 1023.79,-251.98 1014.8,-246.39 1013.27,-253.22"/>
</g>
<!-- Node30&#45;&gt;Node28 -->
<g id="edge42" class="edge">
<title>Node30&#45;&gt;Node28</title>
<path fill="none" stroke="midnightblue" d="M1071.5,-243.68C1078.49,-234.25 1086.66,-222 1092,-210 1102.29,-186.89 1107.66,-157.24 1109.82,-142.76"/>
<polygon fill="midnightblue" stroke="midnightblue" points="1068.61,-241.7 1065.29,-251.76 1074.16,-245.96 1068.61,-241.7"/>
</g>
</g>
</svg>
