<?xml version="1.0" encoding="UTF-8" standalone="no"?>
<!DOCTYPE svg PUBLIC "-//W3C//DTD SVG 1.1//EN"
 "http://www.w3.org/Graphics/SVG/1.1/DTD/svg11.dtd">
<!-- Generated by graphviz version 2.43.0 (0)
 -->
<!-- Title: http/CookieOptions.h Pages: 1 -->
<svg width="911pt" height="386pt"
 viewBox="0.00 0.00 911.00 386.00" xmlns="http://www.w3.org/2000/svg" xmlns:xlink="http://www.w3.org/1999/xlink">
<g id="graph0" class="graph" transform="scale(1 1) rotate(0) translate(4 382)">
<title>http/CookieOptions.h</title>
<polygon fill="white" stroke="transparent" points="-4,4 -4,-382 907,-382 907,4 -4,4"/>
<!-- Node1 -->
<g id="node1" class="node">
<title>Node1</title>
<g id="a_node1"><a xlink:title=" ">
<polygon fill="#bfbfbf" stroke="black" points="486,-358.5 486,-377.5 595,-377.5 595,-358.5 486,-358.5"/>
<text text-anchor="middle" x="540.5" y="-365.5" font-family="Helvetica,sans-Serif" font-size="10.00">http/CookieOptions.h</text>
</a>
</g>
</g>
<!-- Node2 -->
<g id="node2" class="node">
<title>Node2</title>
<g id="a_node2"><a xlink:href="http_2_response_8h.html" target="_top" xlink:title=" ">
<polygon fill="white" stroke="black" points="436,-302.5 436,-321.5 525,-321.5 525,-302.5 436,-302.5"/>
<text text-anchor="middle" x="480.5" y="-309.5" font-family="Helvetica,sans-Serif" font-size="10.00">http/Response.h</text>
</a>
</g>
</g>
<!-- Node1&#45;&gt;Node2 -->
<g id="edge1" class="edge">
<title>Node1&#45;&gt;Node2</title>
<path fill="none" stroke="midnightblue" d="M523.32,-351.54C512.62,-341.91 499.24,-329.87 490.32,-321.83"/>
<polygon fill="midnightblue" stroke="midnightblue" points="521.09,-354.24 530.86,-358.32 525.77,-349.03 521.09,-354.24"/>
</g>
<!-- Node22 -->
<g id="node22" class="node">
<title>Node22</title>
<g id="a_node22"><a xlink:href="_response_parser_8h.html" target="_top" xlink:title=" ">
<polygon fill="white" stroke="black" points="569.5,-302.5 569.5,-321.5 685.5,-321.5 685.5,-302.5 569.5,-302.5"/>
<text text-anchor="middle" x="627.5" y="-309.5" font-family="Helvetica,sans-Serif" font-size="10.00">http/ResponseParser.h</text>
</a>
</g>
</g>
<!-- Node1&#45;&gt;Node22 -->
<g id="edge26" class="edge">
<title>Node1&#45;&gt;Node22</title>
<path fill="none" stroke="midnightblue" d="M563.22,-352.9C579.17,-343 600,-330.07 613.56,-321.65"/>
<polygon fill="midnightblue" stroke="midnightblue" points="561.13,-350.08 554.48,-358.32 564.82,-356.02 561.13,-350.08"/>
</g>
<!-- Node3 -->
<g id="node3" class="node">
<title>Node3</title>
<g id="a_node3"><a xlink:href="http_2_response_8cpp.html" target="_top" xlink:title=" ">
<polygon fill="white" stroke="black" points="531,-190.5 531,-209.5 630,-209.5 630,-190.5 531,-190.5"/>
<text text-anchor="middle" x="580.5" y="-197.5" font-family="Helvetica,sans-Serif" font-size="10.00">http/Response.cpp</text>
</a>
</g>
</g>
<!-- Node2&#45;&gt;Node3 -->
<g id="edge2" class="edge">
<title>Node2&#45;&gt;Node3</title>
<path fill="none" stroke="midnightblue" d="M495.14,-294.9C516.64,-271.25 556,-227.95 572.69,-209.59"/>
<polygon fill="midnightblue" stroke="midnightblue" points="492.48,-292.61 488.35,-302.37 497.66,-297.32 492.48,-292.61"/>
</g>
<!-- Node4 -->
<g id="node4" class="node">
<title>Node4</title>
<g id="a_node4"><a xlink:href="_server_context_8h.html" target="_top" xlink:title=" ">
<polygon fill="white" stroke="black" points="400,-246.5 400,-265.5 507,-265.5 507,-246.5 400,-246.5"/>
<text text-anchor="middle" x="453.5" y="-253.5" font-family="Helvetica,sans-Serif" font-size="10.00">http/ServerContext.h</text>
</a>
</g>
</g>
<!-- Node2&#45;&gt;Node4 -->
<g id="edge3" class="edge">
<title>Node2&#45;&gt;Node4</title>
<path fill="none" stroke="midnightblue" d="M471.49,-292.98C466.91,-283.82 461.55,-273.09 457.88,-265.75"/>
<polygon fill="midnightblue" stroke="midnightblue" points="468.44,-294.7 476.04,-302.08 474.7,-291.57 468.44,-294.7"/>
</g>
<!-- Node13 -->
<g id="node13" class="node">
<title>Node13</title>
<g id="a_node13"><a xlink:href="express_2_response_8h.html" target="_top" xlink:title=" ">
<polygon fill="white" stroke="black" points="264,-246.5 264,-265.5 371,-265.5 371,-246.5 264,-246.5"/>
<text text-anchor="middle" x="317.5" y="-253.5" font-family="Helvetica,sans-Serif" font-size="10.00">express/Response.h</text>
</a>
</g>
</g>
<!-- Node2&#45;&gt;Node13 -->
<g id="edge13" class="edge">
<title>Node2&#45;&gt;Node13</title>
<path fill="none" stroke="midnightblue" d="M444.8,-299.17C414.1,-289 370.58,-274.59 343.21,-265.52"/>
<polygon fill="midnightblue" stroke="midnightblue" points="444.08,-302.62 454.67,-302.44 446.28,-295.98 444.08,-302.62"/>
</g>
<!-- Node4&#45;&gt;Node3 -->
<g id="edge4" class="edge">
<title>Node4&#45;&gt;Node3</title>
<path fill="none" stroke="midnightblue" d="M482.89,-242.5C506.7,-232.38 539.61,-218.39 560.47,-209.52"/>
<polygon fill="midnightblue" stroke="midnightblue" points="481.46,-239.31 473.62,-246.44 484.2,-245.75 481.46,-239.31"/>
</g>
<!-- Node5 -->
<g id="node5" class="node">
<title>Node5</title>
<g id="a_node5"><a xlink:href="_server_context_8hpp.html" target="_top" xlink:title=" ">
<polygon fill="white" stroke="black" points="394.5,-190.5 394.5,-209.5 512.5,-209.5 512.5,-190.5 394.5,-190.5"/>
<text text-anchor="middle" x="453.5" y="-197.5" font-family="Helvetica,sans-Serif" font-size="10.00">http/ServerContext.hpp</text>
</a>
</g>
</g>
<!-- Node4&#45;&gt;Node5 -->
<g id="edge5" class="edge">
<title>Node4&#45;&gt;Node5</title>
<path fill="none" stroke="midnightblue" d="M453.5,-235.8C453.5,-226.91 453.5,-216.78 453.5,-209.75"/>
<polygon fill="midnightblue" stroke="midnightblue" points="450,-236.08 453.5,-246.08 457,-236.08 450,-236.08"/>
</g>
<!-- Node12 -->
<g id="node12" class="node">
<title>Node12</title>
<g id="a_node12"><a xlink:href="express_2_response_8cpp.html" target="_top" xlink:title=" ">
<polygon fill="white" stroke="black" points="259,-190.5 259,-209.5 376,-209.5 376,-190.5 259,-190.5"/>
<text text-anchor="middle" x="317.5" y="-197.5" font-family="Helvetica,sans-Serif" font-size="10.00">express/Response.cpp</text>
</a>
</g>
</g>
<!-- Node4&#45;&gt;Node12 -->
<g id="edge12" class="edge">
<title>Node4&#45;&gt;Node12</title>
<path fill="none" stroke="midnightblue" d="M422.37,-242.64C396.84,-232.5 361.39,-218.43 338.95,-209.52"/>
<polygon fill="midnightblue" stroke="midnightblue" points="421.36,-246.01 431.95,-246.44 423.95,-239.5 421.36,-246.01"/>
</g>
<!-- Node6 -->
<g id="node6" class="node">
<title>Node6</title>
<g id="a_node6"><a xlink:href="_server_8h.html" target="_top" xlink:title=" ">
<polygon fill="white" stroke="black" points="524.5,-129 524.5,-148 596.5,-148 596.5,-129 524.5,-129"/>
<text text-anchor="middle" x="560.5" y="-136" font-family="Helvetica,sans-Serif" font-size="10.00">http/Server.h</text>
</a>
</g>
</g>
<!-- Node5&#45;&gt;Node6 -->
<g id="edge6" class="edge">
<title>Node5&#45;&gt;Node6</title>
<path fill="none" stroke="midnightblue" d="M477.68,-185.56C498.38,-174.04 527.57,-157.81 545.2,-148.01"/>
<polygon fill="midnightblue" stroke="midnightblue" points="475.87,-182.56 468.83,-190.48 479.27,-188.67 475.87,-182.56"/>
</g>
<!-- Node11 -->
<g id="node11" class="node">
<title>Node11</title>
<g id="a_node11"><a xlink:href="_router_8cpp.html" target="_top" xlink:title=" ">
<polygon fill="white" stroke="black" points="394,-129 394,-148 495,-148 495,-129 394,-129"/>
<text text-anchor="middle" x="444.5" y="-136" font-family="Helvetica,sans-Serif" font-size="10.00">express/Router.cpp</text>
</a>
</g>
</g>
<!-- Node5&#45;&gt;Node11 -->
<g id="edge11" class="edge">
<title>Node5&#45;&gt;Node11</title>
<path fill="none" stroke="midnightblue" d="M450.67,-180.32C449.04,-169.5 447.06,-156.4 445.79,-148.01"/>
<polygon fill="midnightblue" stroke="midnightblue" points="447.25,-181.11 452.21,-190.48 454.18,-180.06 447.25,-181.11"/>
</g>
<!-- Node7 -->
<g id="node7" class="node">
<title>Node7</title>
<g id="a_node7"><a xlink:href="legacy_2_server_8h.html" target="_top" xlink:title=" ">
<polygon fill="white" stroke="black" points="508.5,-62 508.5,-81 612.5,-81 612.5,-62 508.5,-62"/>
<text text-anchor="middle" x="560.5" y="-69" font-family="Helvetica,sans-Serif" font-size="10.00">http/legacy/Server.h</text>
</a>
</g>
</g>
<!-- Node6&#45;&gt;Node7 -->
<g id="edge7" class="edge">
<title>Node6&#45;&gt;Node7</title>
<path fill="none" stroke="midnightblue" d="M560.5,-118.54C560.5,-106.17 560.5,-90.62 560.5,-81.13"/>
<polygon fill="midnightblue" stroke="midnightblue" points="557,-118.73 560.5,-128.73 564,-118.73 557,-118.73"/>
</g>
<!-- Node9 -->
<g id="node9" class="node">
<title>Node9</title>
<g id="a_node9"><a xlink:href="tls_2_server_8h.html" target="_top" xlink:title=" ">
<polygon fill="white" stroke="black" points="630.5,-62 630.5,-81 716.5,-81 716.5,-62 630.5,-62"/>
<text text-anchor="middle" x="673.5" y="-69" font-family="Helvetica,sans-Serif" font-size="10.00">http/tls/Server.h</text>
</a>
</g>
</g>
<!-- Node6&#45;&gt;Node9 -->
<g id="edge9" class="edge">
<title>Node6&#45;&gt;Node9</title>
<path fill="none" stroke="midnightblue" d="M584.64,-123.62C607.03,-110.74 639.64,-91.98 658.5,-81.13"/>
<polygon fill="midnightblue" stroke="midnightblue" points="582.66,-120.71 575.74,-128.73 586.15,-126.78 582.66,-120.71"/>
</g>
<!-- Node8 -->
<g id="node8" class="node">
<title>Node8</title>
<g id="a_node8"><a xlink:href="legacy_2_web_app_8h.html" target="_top" xlink:title=" ">
<polygon fill="white" stroke="black" points="420,-0.5 420,-19.5 551,-19.5 551,-0.5 420,-0.5"/>
<text text-anchor="middle" x="485.5" y="-7.5" font-family="Helvetica,sans-Serif" font-size="10.00">express/legacy/WebApp.h</text>
</a>
</g>
</g>
<!-- Node7&#45;&gt;Node8 -->
<g id="edge8" class="edge">
<title>Node7&#45;&gt;Node8</title>
<path fill="none" stroke="midnightblue" d="M541.56,-55.47C527.21,-44.09 508.02,-28.87 496.23,-19.51"/>
<polygon fill="midnightblue" stroke="midnightblue" points="539.74,-58.5 549.75,-61.98 544.1,-53.02 539.74,-58.5"/>
</g>
<!-- Node10 -->
<g id="node10" class="node">
<title>Node10</title>
<g id="a_node10"><a xlink:href="tls_2_web_app_8h.html" target="_top" xlink:title=" ">
<polygon fill="white" stroke="black" points="593,-0.5 593,-19.5 706,-19.5 706,-0.5 593,-0.5"/>
<text text-anchor="middle" x="649.5" y="-7.5" font-family="Helvetica,sans-Serif" font-size="10.00">express/tls/WebApp.h</text>
</a>
</g>
</g>
<!-- Node9&#45;&gt;Node10 -->
<g id="edge10" class="edge">
<title>Node9&#45;&gt;Node10</title>
<path fill="none" stroke="midnightblue" d="M666.24,-52.5C661.82,-41.55 656.39,-28.07 652.93,-19.51"/>
<polygon fill="midnightblue" stroke="midnightblue" points="663.07,-54.01 670.06,-61.98 669.57,-51.39 663.07,-54.01"/>
</g>
<!-- Node13&#45;&gt;Node12 -->
<g id="edge14" class="edge">
<title>Node13&#45;&gt;Node12</title>
<path fill="none" stroke="midnightblue" d="M317.5,-235.8C317.5,-226.91 317.5,-216.78 317.5,-209.75"/>
<polygon fill="midnightblue" stroke="midnightblue" points="314,-236.08 317.5,-246.08 321,-236.08 314,-236.08"/>
</g>
<!-- Node14 -->
<g id="node14" class="node">
<title>Node14</title>
<g id="a_node14"><a xlink:href="_router_8h.html" target="_top" xlink:title=" ">
<polygon fill="white" stroke="black" points="150,-190.5 150,-209.5 241,-209.5 241,-190.5 150,-190.5"/>
<text text-anchor="middle" x="195.5" y="-197.5" font-family="Helvetica,sans-Serif" font-size="10.00">express/Router.h</text>
</a>
</g>
</g>
<!-- Node13&#45;&gt;Node14 -->
<g id="edge15" class="edge">
<title>Node13&#45;&gt;Node14</title>
<path fill="none" stroke="midnightblue" d="M288.96,-242.37C266.11,-232.26 234.69,-218.35 214.74,-209.52"/>
<polygon fill="midnightblue" stroke="midnightblue" points="287.61,-245.6 298.17,-246.44 290.44,-239.2 287.61,-245.6"/>
</g>
<!-- Node14&#45;&gt;Node11 -->
<g id="edge20" class="edge">
<title>Node14&#45;&gt;Node11</title>
<path fill="none" stroke="midnightblue" d="M241.06,-188.11C289.39,-176.57 364.73,-158.56 408.89,-148.01"/>
<polygon fill="midnightblue" stroke="midnightblue" points="240.09,-184.75 231.18,-190.48 241.72,-191.56 240.09,-184.75"/>
</g>
<!-- Node15 -->
<g id="node15" class="node">
<title>Node15</title>
<g id="a_node15"><a xlink:href="_json_middleware_8h.html" target="_top" xlink:title=" ">
<polygon fill="white" stroke="black" points="137.5,-123.5 137.5,-153.5 241.5,-153.5 241.5,-123.5 137.5,-123.5"/>
<text text-anchor="start" x="145.5" y="-141.5" font-family="Helvetica,sans-Serif" font-size="10.00">express/middleware</text>
<text text-anchor="middle" x="189.5" y="-130.5" font-family="Helvetica,sans-Serif" font-size="10.00">/JsonMiddleware.h</text>
</a>
</g>
</g>
<!-- Node14&#45;&gt;Node15 -->
<g id="edge16" class="edge">
<title>Node14&#45;&gt;Node15</title>
<path fill="none" stroke="midnightblue" d="M193.61,-180.23C192.74,-171.59 191.72,-161.5 190.91,-153.52"/>
<polygon fill="midnightblue" stroke="midnightblue" points="190.15,-180.88 194.64,-190.48 197.12,-180.17 190.15,-180.88"/>
</g>
<!-- Node17 -->
<g id="node17" class="node">
<title>Node17</title>
<g id="a_node17"><a xlink:href="_static_middleware_8h.html" target="_top" xlink:title=" ">
<polygon fill="white" stroke="black" points="12.5,-123.5 12.5,-153.5 116.5,-153.5 116.5,-123.5 12.5,-123.5"/>
<text text-anchor="start" x="20.5" y="-141.5" font-family="Helvetica,sans-Serif" font-size="10.00">express/middleware</text>
<text text-anchor="middle" x="64.5" y="-130.5" font-family="Helvetica,sans-Serif" font-size="10.00">/StaticMiddleware.h</text>
</a>
</g>
</g>
<!-- Node14&#45;&gt;Node17 -->
<g id="edge18" class="edge">
<title>Node14&#45;&gt;Node17</title>
<path fill="none" stroke="midnightblue" d="M167.61,-186.33C146.41,-176.7 117.27,-163.47 95.37,-153.52"/>
<polygon fill="midnightblue" stroke="midnightblue" points="166.18,-189.53 176.73,-190.48 169.07,-183.15 166.18,-189.53"/>
</g>
<!-- Node19 -->
<g id="node19" class="node">
<title>Node19</title>
<g id="a_node19"><a xlink:href="_web_app_8h.html" target="_top" xlink:title=" ">
<polygon fill="white" stroke="black" points="264,-129 264,-148 363,-148 363,-129 264,-129"/>
<text text-anchor="middle" x="313.5" y="-136" font-family="Helvetica,sans-Serif" font-size="10.00">express/WebApp.h</text>
</a>
</g>
</g>
<!-- Node14&#45;&gt;Node19 -->
<g id="edge21" class="edge">
<title>Node14&#45;&gt;Node19</title>
<path fill="none" stroke="midnightblue" d="M221.55,-185.87C244.42,-174.33 277.01,-157.9 296.62,-148.01"/>
<polygon fill="midnightblue" stroke="midnightblue" points="219.76,-182.85 212.41,-190.48 222.91,-189.1 219.76,-182.85"/>
</g>
<!-- Node16 -->
<g id="node16" class="node">
<title>Node16</title>
<g id="a_node16"><a xlink:href="_json_middleware_8cpp.html" target="_top" xlink:title=" ">
<polygon fill="white" stroke="black" points="131,-56.5 131,-86.5 240,-86.5 240,-56.5 131,-56.5"/>
<text text-anchor="start" x="139" y="-74.5" font-family="Helvetica,sans-Serif" font-size="10.00">express/middleware</text>
<text text-anchor="middle" x="185.5" y="-63.5" font-family="Helvetica,sans-Serif" font-size="10.00">/JsonMiddleware.cpp</text>
</a>
</g>
</g>
<!-- Node15&#45;&gt;Node16 -->
<g id="edge17" class="edge">
<title>Node15&#45;&gt;Node16</title>
<path fill="none" stroke="midnightblue" d="M188.02,-113.4C187.46,-104.37 186.85,-94.41 186.37,-86.58"/>
<polygon fill="midnightblue" stroke="midnightblue" points="184.52,-113.63 188.63,-123.4 191.51,-113.2 184.52,-113.63"/>
</g>
<!-- Node18 -->
<g id="node18" class="node">
<title>Node18</title>
<g id="a_node18"><a xlink:href="_static_middleware_8cpp.html" target="_top" xlink:title=" ">
<polygon fill="white" stroke="black" points="0,-56.5 0,-86.5 113,-86.5 113,-56.5 0,-56.5"/>
<text text-anchor="start" x="8" y="-74.5" font-family="Helvetica,sans-Serif" font-size="10.00">express/middleware</text>
<text text-anchor="middle" x="56.5" y="-63.5" font-family="Helvetica,sans-Serif" font-size="10.00">/StaticMiddleware.cpp</text>
</a>
</g>
</g>
<!-- Node17&#45;&gt;Node18 -->
<g id="edge19" class="edge">
<title>Node17&#45;&gt;Node18</title>
<path fill="none" stroke="midnightblue" d="M61.53,-113.4C60.42,-104.37 59.2,-94.41 58.23,-86.58"/>
<polygon fill="midnightblue" stroke="midnightblue" points="58.07,-113.9 62.76,-123.4 65.02,-113.04 58.07,-113.9"/>
</g>
<!-- Node20 -->
<g id="node20" class="node">
<title>Node20</title>
<g id="a_node20"><a xlink:href="_web_app_8cpp.html" target="_top" xlink:title=" ">
<polygon fill="white" stroke="black" points="258.5,-62 258.5,-81 368.5,-81 368.5,-62 258.5,-62"/>
<text text-anchor="middle" x="313.5" y="-69" font-family="Helvetica,sans-Serif" font-size="10.00">express/WebApp.cpp</text>
</a>
</g>
</g>
<!-- Node19&#45;&gt;Node20 -->
<g id="edge22" class="edge">
<title>Node19&#45;&gt;Node20</title>
<path fill="none" stroke="midnightblue" d="M313.5,-118.54C313.5,-106.17 313.5,-90.62 313.5,-81.13"/>
<polygon fill="midnightblue" stroke="midnightblue" points="310,-118.73 313.5,-128.73 317,-118.73 310,-118.73"/>
</g>
<!-- Node21 -->
<g id="node21" class="node">
<title>Node21</title>
<g id="a_node21"><a xlink:href="_web_app_t_8h.html" target="_top" xlink:title=" ">
<polygon fill="white" stroke="black" points="386.5,-62 386.5,-81 490.5,-81 490.5,-62 386.5,-62"/>
<text text-anchor="middle" x="438.5" y="-69" font-family="Helvetica,sans-Serif" font-size="10.00">express/WebAppT.h</text>
</a>
</g>
</g>
<!-- Node19&#45;&gt;Node21 -->
<g id="edge23" class="edge">
<title>Node19&#45;&gt;Node21</title>
<path fill="none" stroke="midnightblue" d="M339.26,-124.1C364.02,-111.23 400.69,-92.16 421.83,-81.17"/>
<polygon fill="midnightblue" stroke="midnightblue" points="337.36,-121.15 330.1,-128.87 340.59,-127.36 337.36,-121.15"/>
</g>
<!-- Node21&#45;&gt;Node8 -->
<g id="edge24" class="edge">
<title>Node21&#45;&gt;Node8</title>
<path fill="none" stroke="midnightblue" d="M451.66,-53.84C460.48,-42.67 471.73,-28.43 478.78,-19.51"/>
<polygon fill="midnightblue" stroke="midnightblue" points="448.69,-51.96 445.23,-61.98 454.18,-56.3 448.69,-51.96"/>
</g>
<!-- Node21&#45;&gt;Node10 -->
<g id="edge25" class="edge">
<title>Node21&#45;&gt;Node10</title>
<path fill="none" stroke="midnightblue" d="M478.4,-59.25C519.39,-47.69 582.3,-29.95 619.32,-19.51"/>
<polygon fill="midnightblue" stroke="midnightblue" points="477.41,-55.89 468.73,-61.98 479.31,-62.63 477.41,-55.89"/>
</g>
<!-- Node23 -->
<g id="node23" class="node">
<title>Node23</title>
<g id="a_node23"><a xlink:href="_client_context_8h.html" target="_top" xlink:title=" ">
<polygon fill="white" stroke="black" points="709.5,-246.5 709.5,-265.5 813.5,-265.5 813.5,-246.5 709.5,-246.5"/>
<text text-anchor="middle" x="761.5" y="-253.5" font-family="Helvetica,sans-Serif" font-size="10.00">http/ClientContext.h</text>
</a>
</g>
</g>
<!-- Node22&#45;&gt;Node23 -->
<g id="edge27" class="edge">
<title>Node22&#45;&gt;Node23</title>
<path fill="none" stroke="midnightblue" d="M658.18,-298.64C683.32,-288.5 718.25,-274.43 740.37,-265.52"/>
<polygon fill="midnightblue" stroke="midnightblue" points="656.7,-295.46 648.73,-302.44 659.32,-301.95 656.7,-295.46"/>
</g>
<!-- Node28 -->
<g id="node28" class="node">
<title>Node28</title>
<g id="a_node28"><a xlink:href="_response_parser_8cpp.html" target="_top" xlink:title=" ">
<polygon fill="white" stroke="black" points="564,-246.5 564,-265.5 691,-265.5 691,-246.5 564,-246.5"/>
<text text-anchor="middle" x="627.5" y="-253.5" font-family="Helvetica,sans-Serif" font-size="10.00">http/ResponseParser.cpp</text>
</a>
</g>
</g>
<!-- Node22&#45;&gt;Node28 -->
<g id="edge32" class="edge">
<title>Node22&#45;&gt;Node28</title>
<path fill="none" stroke="midnightblue" d="M627.5,-291.8C627.5,-282.91 627.5,-272.78 627.5,-265.75"/>
<polygon fill="midnightblue" stroke="midnightblue" points="624,-292.08 627.5,-302.08 631,-292.08 624,-292.08"/>
</g>
<!-- Node24 -->
<g id="node24" class="node">
<title>Node24</title>
<g id="a_node24"><a xlink:href="_client_8h.html" target="_top" xlink:title=" ">
<polygon fill="white" stroke="black" points="699.5,-190.5 699.5,-209.5 769.5,-209.5 769.5,-190.5 699.5,-190.5"/>
<text text-anchor="middle" x="734.5" y="-197.5" font-family="Helvetica,sans-Serif" font-size="10.00">http/Client.h</text>
</a>
</g>
</g>
<!-- Node23&#45;&gt;Node24 -->
<g id="edge28" class="edge">
<title>Node23&#45;&gt;Node24</title>
<path fill="none" stroke="midnightblue" d="M752.49,-236.98C747.91,-227.82 742.55,-217.09 738.88,-209.75"/>
<polygon fill="midnightblue" stroke="midnightblue" points="749.44,-238.7 757.04,-246.08 755.7,-235.57 749.44,-238.7"/>
</g>
<!-- Node27 -->
<g id="node27" class="node">
<title>Node27</title>
<g id="a_node27"><a xlink:href="_client_context_8cpp.html" target="_top" xlink:title=" ">
<polygon fill="white" stroke="black" points="788,-190.5 788,-209.5 903,-209.5 903,-190.5 788,-190.5"/>
<text text-anchor="middle" x="845.5" y="-197.5" font-family="Helvetica,sans-Serif" font-size="10.00">http/ClientContext.cpp</text>
</a>
</g>
</g>
<!-- Node23&#45;&gt;Node27 -->
<g id="edge31" class="edge">
<title>Node23&#45;&gt;Node27</title>
<path fill="none" stroke="midnightblue" d="M783.43,-240.9C798.84,-231 818.95,-218.07 832.04,-209.65"/>
<polygon fill="midnightblue" stroke="midnightblue" points="781.52,-237.97 775,-246.32 785.3,-243.86 781.52,-237.97"/>
</g>
<!-- Node25 -->
<g id="node25" class="node">
<title>Node25</title>
<g id="a_node25"><a xlink:href="legacy_2_client_8h.html" target="_top" xlink:title=" ">
<polygon fill="white" stroke="black" points="744,-129 744,-148 845,-148 845,-129 744,-129"/>
<text text-anchor="middle" x="794.5" y="-136" font-family="Helvetica,sans-Serif" font-size="10.00">http/legacy/Client.h</text>
</a>
</g>
</g>
<!-- Node24&#45;&gt;Node25 -->
<g id="edge29" class="edge">
<title>Node24&#45;&gt;Node25</title>
<path fill="none" stroke="midnightblue" d="M750.31,-183.32C761.71,-172.02 776.66,-157.19 785.92,-148.01"/>
<polygon fill="midnightblue" stroke="midnightblue" points="747.73,-180.95 743.1,-190.48 752.66,-185.92 747.73,-180.95"/>
</g>
<!-- Node26 -->
<g id="node26" class="node">
<title>Node26</title>
<g id="a_node26"><a xlink:href="tls_2_client_8h.html" target="_top" xlink:title=" ">
<polygon fill="white" stroke="black" points="643,-129 643,-148 726,-148 726,-129 643,-129"/>
<text text-anchor="middle" x="684.5" y="-136" font-family="Helvetica,sans-Serif" font-size="10.00">http/tls/Client.h</text>
</a>
</g>
</g>
<!-- Node24&#45;&gt;Node26 -->
<g id="edge30" class="edge">
<title>Node24&#45;&gt;Node26</title>
<path fill="none" stroke="midnightblue" d="M720.78,-182.67C711.35,-171.45 699.22,-157.02 691.65,-148.01"/>
<polygon fill="midnightblue" stroke="midnightblue" points="718.22,-185.07 727.34,-190.48 723.58,-180.57 718.22,-185.07"/>
</g>
</g>
</svg>
