<?xml version="1.0" encoding="UTF-8" standalone="no"?>
<!DOCTYPE svg PUBLIC "-//W3C//DTD SVG 1.1//EN"
 "http://www.w3.org/Graphics/SVG/1.1/DTD/svg11.dtd">
<!-- Generated by graphviz version 2.43.0 (0)
 -->
<!-- Title: net/EventLoop.cpp Pages: 1 -->
<svg width="429pt" height="252pt"
 viewBox="0.00 0.00 429.00 252.00" xmlns="http://www.w3.org/2000/svg" xmlns:xlink="http://www.w3.org/1999/xlink">
<g id="graph0" class="graph" transform="scale(1 1) rotate(0) translate(4 248)">
<title>net/EventLoop.cpp</title>
<polygon fill="white" stroke="transparent" points="-4,4 -4,-248 425,-248 425,4 -4,4"/>
<!-- Node1 -->
<g id="node1" class="node">
<title>Node1</title>
<g id="a_node1"><a xlink:title=" ">
<polygon fill="#bfbfbf" stroke="black" points="225,-224.5 225,-243.5 323,-243.5 323,-224.5 225,-224.5"/>
<text text-anchor="middle" x="274" y="-231.5" font-family="Helvetica,sans-Serif" font-size="10.00">net/EventLoop.cpp</text>
</a>
</g>
</g>
<!-- Node2 -->
<g id="node2" class="node">
<title>Node2</title>
<g id="a_node2"><a xlink:href="_event_loop_8h.html" target="_top" xlink:title=" ">
<polygon fill="white" stroke="black" points="176,-168.5 176,-187.5 264,-187.5 264,-168.5 176,-168.5"/>
<text text-anchor="middle" x="220" y="-175.5" font-family="Helvetica,sans-Serif" font-size="10.00">net/EventLoop.h</text>
</a>
</g>
</g>
<!-- Node1&#45;&gt;Node2 -->
<g id="edge1" class="edge">
<title>Node1&#45;&gt;Node2</title>
<path fill="none" stroke="midnightblue" d="M265.08,-224.08C257.22,-216.22 245.57,-204.57 236.08,-195.08"/>
<polygon fill="midnightblue" stroke="midnightblue" points="238.3,-192.35 228.75,-187.75 233.35,-197.3 238.3,-192.35"/>
</g>
<!-- Node9 -->
<g id="node9" class="node">
<title>Node9</title>
<g id="a_node9"><a xlink:href="_dynamic_loader_8h.html" target="_top" xlink:title=" ">
<polygon fill="white" stroke="black" points="282,-168.5 282,-187.5 374,-187.5 374,-168.5 282,-168.5"/>
<text text-anchor="middle" x="328" y="-175.5" font-family="Helvetica,sans-Serif" font-size="10.00">DynamicLoader.h</text>
</a>
</g>
</g>
<!-- Node1&#45;&gt;Node9 -->
<g id="edge8" class="edge">
<title>Node1&#45;&gt;Node9</title>
<path fill="none" stroke="midnightblue" d="M282.92,-224.08C290.78,-216.22 302.43,-204.57 311.92,-195.08"/>
<polygon fill="midnightblue" stroke="midnightblue" points="314.65,-197.3 319.25,-187.75 309.7,-192.35 314.65,-197.3"/>
</g>
<!-- Node3 -->
<g id="node3" class="node">
<title>Node3</title>
<g id="a_node3"><a xlink:href="_descriptor_event_dispatcher_8h.html" target="_top" xlink:title=" ">
<polygon fill="white" stroke="black" points="0,-112.5 0,-131.5 158,-131.5 158,-112.5 0,-112.5"/>
<text text-anchor="middle" x="79" y="-119.5" font-family="Helvetica,sans-Serif" font-size="10.00">net/DescriptorEventDispatcher.h</text>
</a>
</g>
</g>
<!-- Node2&#45;&gt;Node3 -->
<g id="edge2" class="edge">
<title>Node2&#45;&gt;Node3</title>
<path fill="none" stroke="midnightblue" d="M197.66,-168.44C174.25,-159.48 137.26,-145.31 110.81,-135.18"/>
<polygon fill="midnightblue" stroke="midnightblue" points="111.83,-131.82 101.24,-131.52 109.32,-138.36 111.83,-131.82"/>
</g>
<!-- Node5 -->
<g id="node5" class="node">
<title>Node5</title>
<g id="a_node5"><a xlink:href="_tick_status_8h.html" target="_top" xlink:title=" ">
<polygon fill="white" stroke="black" points="175.5,-112.5 175.5,-131.5 264.5,-131.5 264.5,-112.5 175.5,-112.5"/>
<text text-anchor="middle" x="220" y="-119.5" font-family="Helvetica,sans-Serif" font-size="10.00">net/TickStatus.h</text>
</a>
</g>
</g>
<!-- Node2&#45;&gt;Node5 -->
<g id="edge4" class="edge">
<title>Node2&#45;&gt;Node5</title>
<path fill="none" stroke="midnightblue" d="M220,-168.08C220,-161.01 220,-150.86 220,-141.99"/>
<polygon fill="midnightblue" stroke="midnightblue" points="223.5,-141.75 220,-131.75 216.5,-141.75 223.5,-141.75"/>
</g>
<!-- Node6 -->
<g id="node6" class="node">
<title>Node6</title>
<g id="a_node6"><a xlink:href="_timer_event_dispatcher_8h.html" target="_top" xlink:title=" ">
<polygon fill="white" stroke="black" points="283,-112.5 283,-131.5 421,-131.5 421,-112.5 283,-112.5"/>
<text text-anchor="middle" x="352" y="-119.5" font-family="Helvetica,sans-Serif" font-size="10.00">net/TimerEventDispatcher.h</text>
</a>
</g>
</g>
<!-- Node2&#45;&gt;Node6 -->
<g id="edge5" class="edge">
<title>Node2&#45;&gt;Node6</title>
<path fill="none" stroke="midnightblue" d="M240.92,-168.44C262.74,-159.52 297.15,-145.44 321.89,-135.32"/>
<polygon fill="midnightblue" stroke="midnightblue" points="323.25,-138.54 331.18,-131.52 320.6,-132.06 323.25,-138.54"/>
</g>
<!-- Node4 -->
<g id="node4" class="node">
<title>Node4</title>
<g id="a_node4"><a xlink:href="_fd_set_8h.html" target="_top" xlink:title=" ">
<polygon fill="white" stroke="black" points="45,-56.5 45,-75.5 113,-75.5 113,-56.5 45,-56.5"/>
<text text-anchor="middle" x="79" y="-63.5" font-family="Helvetica,sans-Serif" font-size="10.00">net/FdSet.h</text>
</a>
</g>
</g>
<!-- Node3&#45;&gt;Node4 -->
<g id="edge3" class="edge">
<title>Node3&#45;&gt;Node4</title>
<path fill="none" stroke="midnightblue" d="M79,-112.08C79,-105.01 79,-94.86 79,-85.99"/>
<polygon fill="midnightblue" stroke="midnightblue" points="82.5,-85.75 79,-75.75 75.5,-85.75 82.5,-85.75"/>
</g>
<!-- Node7 -->
<g id="node7" class="node">
<title>Node7</title>
<g id="a_node7"><a xlink:href="_timer_event_receiver_8h.html" target="_top" xlink:title=" ">
<polygon fill="white" stroke="black" points="287,-56.5 287,-75.5 417,-75.5 417,-56.5 287,-56.5"/>
<text text-anchor="middle" x="352" y="-63.5" font-family="Helvetica,sans-Serif" font-size="10.00">net/TimerEventReceiver.h</text>
</a>
</g>
</g>
<!-- Node6&#45;&gt;Node7 -->
<g id="edge6" class="edge">
<title>Node6&#45;&gt;Node7</title>
<path fill="none" stroke="midnightblue" d="M352,-112.08C352,-105.01 352,-94.86 352,-85.99"/>
<polygon fill="midnightblue" stroke="midnightblue" points="355.5,-85.75 352,-75.75 348.5,-85.75 355.5,-85.75"/>
</g>
<!-- Node8 -->
<g id="node8" class="node">
<title>Node8</title>
<g id="a_node8"><a xlink:href="_timeval_8h.html" target="_top" xlink:title=" ">
<polygon fill="white" stroke="black" points="312,-0.5 312,-19.5 392,-19.5 392,-0.5 312,-0.5"/>
<text text-anchor="middle" x="352" y="-7.5" font-family="Helvetica,sans-Serif" font-size="10.00">utils/Timeval.h</text>
</a>
</g>
</g>
<!-- Node7&#45;&gt;Node8 -->
<g id="edge7" class="edge">
<title>Node7&#45;&gt;Node8</title>
<path fill="none" stroke="midnightblue" d="M352,-56.08C352,-49.01 352,-38.86 352,-29.99"/>
<polygon fill="midnightblue" stroke="midnightblue" points="355.5,-29.75 352,-19.75 348.5,-29.75 355.5,-29.75"/>
</g>
</g>
</svg>
