<?xml version="1.0" encoding="UTF-8" standalone="no"?>
<!DOCTYPE svg PUBLIC "-//W3C//DTD SVG 1.1//EN"
 "http://www.w3.org/Graphics/SVG/1.1/DTD/svg11.dtd">
<!-- Generated by graphviz version 2.43.0 (0)
 -->
<!-- Title: net/EventDispatcher.h Pages: 1 -->
<svg width="1112pt" height="196pt"
 viewBox="0.00 0.00 1112.00 196.00" xmlns="http://www.w3.org/2000/svg" xmlns:xlink="http://www.w3.org/1999/xlink">
<g id="graph0" class="graph" transform="scale(1 1) rotate(0) translate(4 192)">
<title>net/EventDispatcher.h</title>
<polygon fill="white" stroke="transparent" points="-4,4 -4,-192 1108,-192 1108,4 -4,4"/>
<!-- Node1 -->
<g id="node1" class="node">
<title>Node1</title>
<g id="a_node1"><a xlink:title=" ">
<polygon fill="#bfbfbf" stroke="black" points="548.5,-168.5 548.5,-187.5 661.5,-187.5 661.5,-168.5 548.5,-168.5"/>
<text text-anchor="middle" x="605" y="-175.5" font-family="Helvetica,sans-Serif" font-size="10.00">net/EventDispatcher.h</text>
</a>
</g>
</g>
<!-- Node2 -->
<g id="node2" class="node">
<title>Node2</title>
<g id="a_node2"><a xlink:href="_accept_event_dispatcher_8h.html" target="_top" xlink:title=" ">
<polygon fill="white" stroke="black" points="215,-112.5 215,-131.5 359,-131.5 359,-112.5 215,-112.5"/>
<text text-anchor="middle" x="287" y="-119.5" font-family="Helvetica,sans-Serif" font-size="10.00">net/AcceptEventDispatcher.h</text>
</a>
</g>
</g>
<!-- Node1&#45;&gt;Node2 -->
<g id="edge1" class="edge">
<title>Node1&#45;&gt;Node2</title>
<path fill="none" stroke="midnightblue" d="M544.51,-166.73C484.41,-156.52 393.34,-141.06 337.15,-131.52"/>
<polygon fill="midnightblue" stroke="midnightblue" points="544.17,-170.22 554.61,-168.44 545.34,-163.32 544.17,-170.22"/>
</g>
<!-- Node13 -->
<g id="node13" class="node">
<title>Node13</title>
<g id="a_node13"><a xlink:href="_out_of_band_event_dispatcher_8h.html" target="_top" xlink:title=" ">
<polygon fill="white" stroke="black" points="440,-112.5 440,-131.5 602,-131.5 602,-112.5 440,-112.5"/>
<text text-anchor="middle" x="521" y="-119.5" font-family="Helvetica,sans-Serif" font-size="10.00">net/OutOfBandEventDispatcher.h</text>
</a>
</g>
</g>
<!-- Node1&#45;&gt;Node13 -->
<g id="edge13" class="edge">
<title>Node1&#45;&gt;Node13</title>
<path fill="none" stroke="midnightblue" d="M583.07,-162.9C567.66,-153 547.55,-140.07 534.46,-131.65"/>
<polygon fill="midnightblue" stroke="midnightblue" points="581.2,-165.86 591.5,-168.32 584.98,-159.97 581.2,-165.86"/>
</g>
<!-- Node15 -->
<g id="node15" class="node">
<title>Node15</title>
<g id="a_node15"><a xlink:href="_read_event_dispatcher_8h.html" target="_top" xlink:title=" ">
<polygon fill="white" stroke="black" points="640.5,-112.5 640.5,-131.5 777.5,-131.5 777.5,-112.5 640.5,-112.5"/>
<text text-anchor="middle" x="709" y="-119.5" font-family="Helvetica,sans-Serif" font-size="10.00">net/ReadEventDispatcher.h</text>
</a>
</g>
</g>
<!-- Node1&#45;&gt;Node15 -->
<g id="edge17" class="edge">
<title>Node1&#45;&gt;Node15</title>
<path fill="none" stroke="midnightblue" d="M630.83,-163.59C650.06,-153.61 675.74,-140.27 692.33,-131.65"/>
<polygon fill="midnightblue" stroke="midnightblue" points="628.97,-160.61 621.71,-168.32 632.2,-166.82 628.97,-160.61"/>
</g>
<!-- Node17 -->
<g id="node17" class="node">
<title>Node17</title>
<g id="a_node17"><a xlink:href="_write_event_dispatcher_8h.html" target="_top" xlink:title=" ">
<polygon fill="white" stroke="black" points="830,-112.5 830,-131.5 966,-131.5 966,-112.5 830,-112.5"/>
<text text-anchor="middle" x="898" y="-119.5" font-family="Helvetica,sans-Serif" font-size="10.00">net/WriteEventDispatcher.h</text>
</a>
</g>
</g>
<!-- Node1&#45;&gt;Node17 -->
<g id="edge21" class="edge">
<title>Node1&#45;&gt;Node17</title>
<path fill="none" stroke="midnightblue" d="M661.43,-166.6C716.8,-156.4 800.23,-141.02 851.79,-131.52"/>
<polygon fill="midnightblue" stroke="midnightblue" points="660.63,-163.19 651.43,-168.44 661.9,-170.07 660.63,-163.19"/>
</g>
<!-- Node3 -->
<g id="node3" class="node">
<title>Node3</title>
<g id="a_node3"><a xlink:href="_accept_event_dispatcher_8cpp.html" target="_top" xlink:title=" ">
<polygon fill="white" stroke="black" points="136.5,-56.5 136.5,-75.5 291.5,-75.5 291.5,-56.5 136.5,-56.5"/>
<text text-anchor="middle" x="214" y="-63.5" font-family="Helvetica,sans-Serif" font-size="10.00">net/AcceptEventDispatcher.cpp</text>
</a>
</g>
</g>
<!-- Node2&#45;&gt;Node3 -->
<g id="edge2" class="edge">
<title>Node2&#45;&gt;Node3</title>
<path fill="none" stroke="midnightblue" d="M266.86,-106.1C253.72,-96.38 237.02,-84.03 225.94,-75.83"/>
<polygon fill="midnightblue" stroke="midnightblue" points="265.15,-109.19 275.27,-112.32 269.31,-103.56 265.15,-109.19"/>
</g>
<!-- Node4 -->
<g id="node4" class="node">
<title>Node4</title>
<g id="a_node4"><a xlink:href="_accept_event_receiver_8cpp.html" target="_top" xlink:title=" ">
<polygon fill="white" stroke="black" points="0,-0.5 0,-19.5 146,-19.5 146,-0.5 0,-0.5"/>
<text text-anchor="middle" x="73" y="-7.5" font-family="Helvetica,sans-Serif" font-size="10.00">net/AcceptEventReceiver.cpp</text>
</a>
</g>
</g>
<!-- Node2&#45;&gt;Node4 -->
<g id="edge3" class="edge">
<title>Node2&#45;&gt;Node4</title>
<path fill="none" stroke="midnightblue" d="M214.44,-110.25C185.57,-103.59 153.09,-92.94 127,-76 104.11,-61.14 85.98,-33.56 77.77,-19.59"/>
<polygon fill="midnightblue" stroke="midnightblue" points="213.97,-113.73 224.49,-112.44 215.46,-106.89 213.97,-113.73"/>
</g>
<!-- Node5 -->
<g id="node5" class="node">
<title>Node5</title>
<g id="a_node5"><a xlink:href="_event_loop_8h.html" target="_top" xlink:title=" ">
<polygon fill="white" stroke="black" points="539,-56.5 539,-75.5 627,-75.5 627,-56.5 539,-56.5"/>
<text text-anchor="middle" x="583" y="-63.5" font-family="Helvetica,sans-Serif" font-size="10.00">net/EventLoop.h</text>
</a>
</g>
</g>
<!-- Node2&#45;&gt;Node5 -->
<g id="edge4" class="edge">
<title>Node2&#45;&gt;Node5</title>
<path fill="none" stroke="midnightblue" d="M343.8,-110.64C400.62,-100.27 486.81,-84.55 538.73,-75.08"/>
<polygon fill="midnightblue" stroke="midnightblue" points="343.11,-107.21 333.9,-112.44 344.37,-114.09 343.11,-107.21"/>
</g>
<!-- Node5&#45;&gt;Node4 -->
<g id="edge5" class="edge">
<title>Node5&#45;&gt;Node4</title>
<path fill="none" stroke="midnightblue" d="M528.95,-59.4C447.75,-50.96 289.47,-34.45 155,-20 152.15,-19.69 149.25,-19.38 146.32,-19.06"/>
<polygon fill="midnightblue" stroke="midnightblue" points="528.63,-62.88 538.94,-60.43 529.35,-55.92 528.63,-62.88"/>
</g>
<!-- Node6 -->
<g id="node6" class="node">
<title>Node6</title>
<g id="a_node6"><a xlink:href="_event_loop_8cpp.html" target="_top" xlink:title=" ">
<polygon fill="white" stroke="black" points="346,-0.5 346,-19.5 444,-19.5 444,-0.5 346,-0.5"/>
<text text-anchor="middle" x="395" y="-7.5" font-family="Helvetica,sans-Serif" font-size="10.00">net/EventLoop.cpp</text>
</a>
</g>
</g>
<!-- Node5&#45;&gt;Node6 -->
<g id="edge6" class="edge">
<title>Node5&#45;&gt;Node6</title>
<path fill="none" stroke="midnightblue" d="M543.2,-53.57C507.73,-43.38 456.63,-28.7 424.65,-19.52"/>
<polygon fill="midnightblue" stroke="midnightblue" points="542.63,-57.05 553.21,-56.44 544.57,-50.32 542.63,-57.05"/>
</g>
<!-- Node7 -->
<g id="node7" class="node">
<title>Node7</title>
<g id="a_node7"><a xlink:href="_out_of_band_event_receiver_8cpp.html" target="_top" xlink:title=" ">
<polygon fill="white" stroke="black" points="164,-0.5 164,-19.5 328,-19.5 328,-0.5 164,-0.5"/>
<text text-anchor="middle" x="246" y="-7.5" font-family="Helvetica,sans-Serif" font-size="10.00">net/OutOfBandEventReceiver.cpp</text>
</a>
</g>
</g>
<!-- Node5&#45;&gt;Node7 -->
<g id="edge7" class="edge">
<title>Node5&#45;&gt;Node7</title>
<path fill="none" stroke="midnightblue" d="M528.79,-56.31C465.63,-46.19 361.96,-29.58 299.23,-19.53"/>
<polygon fill="midnightblue" stroke="midnightblue" points="528.52,-59.81 538.94,-57.94 529.62,-52.9 528.52,-59.81"/>
</g>
<!-- Node8 -->
<g id="node8" class="node">
<title>Node8</title>
<g id="a_node8"><a xlink:href="_read_event_receiver_8cpp.html" target="_top" xlink:title=" ">
<polygon fill="white" stroke="black" points="808.5,-0.5 808.5,-19.5 947.5,-19.5 947.5,-0.5 808.5,-0.5"/>
<text text-anchor="middle" x="878" y="-7.5" font-family="Helvetica,sans-Serif" font-size="10.00">net/ReadEventReceiver.cpp</text>
</a>
</g>
</g>
<!-- Node5&#45;&gt;Node8 -->
<g id="edge8" class="edge">
<title>Node5&#45;&gt;Node8</title>
<path fill="none" stroke="midnightblue" d="M637.18,-55.08C692.75,-44.91 778.32,-29.25 831.09,-19.59"/>
<polygon fill="midnightblue" stroke="midnightblue" points="636.37,-51.67 627.16,-56.92 637.63,-58.56 636.37,-51.67"/>
</g>
<!-- Node9 -->
<g id="node9" class="node">
<title>Node9</title>
<g id="a_node9"><a xlink:href="_timer_8cpp.html" target="_top" xlink:title=" ">
<polygon fill="white" stroke="black" points="462.5,-0.5 462.5,-19.5 563.5,-19.5 563.5,-0.5 462.5,-0.5"/>
<text text-anchor="middle" x="513" y="-7.5" font-family="Helvetica,sans-Serif" font-size="10.00">net/timer/Timer.cpp</text>
</a>
</g>
</g>
<!-- Node5&#45;&gt;Node9 -->
<g id="edge9" class="edge">
<title>Node5&#45;&gt;Node9</title>
<path fill="none" stroke="midnightblue" d="M563.69,-50.1C551.09,-40.38 535.07,-28.03 524.45,-19.83"/>
<polygon fill="midnightblue" stroke="midnightblue" points="561.7,-52.99 571.75,-56.32 565.97,-47.44 561.7,-52.99"/>
</g>
<!-- Node10 -->
<g id="node10" class="node">
<title>Node10</title>
<g id="a_node10"><a xlink:href="_write_event_receiver_8cpp.html" target="_top" xlink:title=" ">
<polygon fill="white" stroke="black" points="966,-0.5 966,-19.5 1104,-19.5 1104,-0.5 966,-0.5"/>
<text text-anchor="middle" x="1035" y="-7.5" font-family="Helvetica,sans-Serif" font-size="10.00">net/WriteEventReceiver.cpp</text>
</a>
</g>
</g>
<!-- Node5&#45;&gt;Node10 -->
<g id="edge10" class="edge">
<title>Node5&#45;&gt;Node10</title>
<path fill="none" stroke="midnightblue" d="M637.22,-55.89C779.84,-35.98 817.56,-35.86 957,-20 959.84,-19.68 962.75,-19.35 965.68,-19.01"/>
<polygon fill="midnightblue" stroke="midnightblue" points="636.63,-52.44 627.22,-57.3 637.61,-59.37 636.63,-52.44"/>
</g>
<!-- Node11 -->
<g id="node11" class="node">
<title>Node11</title>
<g id="a_node11"><a xlink:href="_logger_8cpp.html" target="_top" xlink:title=" ">
<polygon fill="white" stroke="black" points="582,-0.5 582,-19.5 662,-19.5 662,-0.5 582,-0.5"/>
<text text-anchor="middle" x="622" y="-7.5" font-family="Helvetica,sans-Serif" font-size="10.00">log/Logger.cpp</text>
</a>
</g>
</g>
<!-- Node5&#45;&gt;Node11 -->
<g id="edge11" class="edge">
<title>Node5&#45;&gt;Node11</title>
<path fill="none" stroke="midnightblue" d="M595.38,-47.86C602.14,-38.5 610.21,-27.33 615.68,-19.75"/>
<polygon fill="midnightblue" stroke="midnightblue" points="592.46,-45.93 589.44,-56.08 598.13,-50.03 592.46,-45.93"/>
</g>
<!-- Node12 -->
<g id="node12" class="node">
<title>Node12</title>
<g id="a_node12"><a xlink:href="_web_app_8cpp.html" target="_top" xlink:title=" ">
<polygon fill="white" stroke="black" points="680,-0.5 680,-19.5 790,-19.5 790,-0.5 680,-0.5"/>
<text text-anchor="middle" x="735" y="-7.5" font-family="Helvetica,sans-Serif" font-size="10.00">express/WebApp.cpp</text>
</a>
</g>
</g>
<!-- Node5&#45;&gt;Node12 -->
<g id="edge12" class="edge">
<title>Node5&#45;&gt;Node12</title>
<path fill="none" stroke="midnightblue" d="M616.67,-53.04C645.27,-42.88 685.61,-28.55 711.03,-19.52"/>
<polygon fill="midnightblue" stroke="midnightblue" points="615.34,-49.8 607.08,-56.44 617.68,-56.39 615.34,-49.8"/>
</g>
<!-- Node13&#45;&gt;Node5 -->
<g id="edge14" class="edge">
<title>Node13&#45;&gt;Node5</title>
<path fill="none" stroke="midnightblue" d="M538.75,-105.54C549.81,-95.91 563.63,-83.87 572.86,-75.83"/>
<polygon fill="midnightblue" stroke="midnightblue" points="536.2,-103.12 530.96,-112.32 540.8,-108.4 536.2,-103.12"/>
</g>
<!-- Node13&#45;&gt;Node7 -->
<g id="edge16" class="edge">
<title>Node13&#45;&gt;Node7</title>
<path fill="none" stroke="midnightblue" d="M517.26,-102.14C513.31,-87.3 505.55,-67.29 491,-56 476.74,-44.93 376.82,-29.15 309.07,-19.52"/>
<polygon fill="midnightblue" stroke="midnightblue" points="513.94,-103.3 519.59,-112.26 520.76,-101.73 513.94,-103.3"/>
</g>
<!-- Node14 -->
<g id="node14" class="node">
<title>Node14</title>
<g id="a_node14"><a xlink:href="_out_of_band_event_dispatcher_8cpp.html" target="_top" xlink:title=" ">
<polygon fill="white" stroke="black" points="309.5,-56.5 309.5,-75.5 482.5,-75.5 482.5,-56.5 309.5,-56.5"/>
<text text-anchor="middle" x="396" y="-63.5" font-family="Helvetica,sans-Serif" font-size="10.00">net/OutOfBandEventDispatcher.cpp</text>
</a>
</g>
</g>
<!-- Node13&#45;&gt;Node14 -->
<g id="edge15" class="edge">
<title>Node13&#45;&gt;Node14</title>
<path fill="none" stroke="midnightblue" d="M491.76,-108.37C468.35,-98.26 436.16,-84.35 415.71,-75.52"/>
<polygon fill="midnightblue" stroke="midnightblue" points="490.63,-111.69 501.19,-112.44 493.4,-105.26 490.63,-111.69"/>
</g>
<!-- Node15&#45;&gt;Node5 -->
<g id="edge18" class="edge">
<title>Node15&#45;&gt;Node5</title>
<path fill="none" stroke="midnightblue" d="M679.84,-108.5C656.22,-98.38 623.57,-84.39 602.87,-75.52"/>
<polygon fill="midnightblue" stroke="midnightblue" points="678.46,-111.72 689.03,-112.44 681.22,-105.29 678.46,-111.72"/>
</g>
<!-- Node15&#45;&gt;Node8 -->
<g id="edge20" class="edge">
<title>Node15&#45;&gt;Node8</title>
<path fill="none" stroke="midnightblue" d="M739.62,-108.31C758.02,-100.13 781.56,-88.68 801,-76 827.67,-58.6 855.34,-33.09 869.1,-19.79"/>
<polygon fill="midnightblue" stroke="midnightblue" points="738.03,-105.18 730.25,-112.39 740.82,-111.6 738.03,-105.18"/>
</g>
<!-- Node16 -->
<g id="node16" class="node">
<title>Node16</title>
<g id="a_node16"><a xlink:href="_read_event_dispatcher_8cpp.html" target="_top" xlink:title=" ">
<polygon fill="white" stroke="black" points="645.5,-56.5 645.5,-75.5 792.5,-75.5 792.5,-56.5 645.5,-56.5"/>
<text text-anchor="middle" x="719" y="-63.5" font-family="Helvetica,sans-Serif" font-size="10.00">net/ReadEventDispatcher.cpp</text>
</a>
</g>
</g>
<!-- Node15&#45;&gt;Node16 -->
<g id="edge19" class="edge">
<title>Node15&#45;&gt;Node16</title>
<path fill="none" stroke="midnightblue" d="M712.5,-102.1C714.16,-93.14 716.06,-82.86 717.38,-75.75"/>
<polygon fill="midnightblue" stroke="midnightblue" points="709.03,-101.61 710.65,-112.08 715.91,-102.89 709.03,-101.61"/>
</g>
<!-- Node17&#45;&gt;Node5 -->
<g id="edge22" class="edge">
<title>Node17&#45;&gt;Node5</title>
<path fill="none" stroke="midnightblue" d="M838.12,-110.74C776.56,-100.18 682.14,-84 627.09,-74.56"/>
<polygon fill="midnightblue" stroke="midnightblue" points="837.64,-114.2 848.09,-112.44 838.82,-107.3 837.64,-114.2"/>
</g>
<!-- Node17&#45;&gt;Node10 -->
<g id="edge24" class="edge">
<title>Node17&#45;&gt;Node10</title>
<path fill="none" stroke="midnightblue" d="M944.54,-109.35C964.77,-102.38 987.56,-91.74 1004,-76 1020.62,-60.09 1029.36,-33.47 1032.97,-19.76"/>
<polygon fill="midnightblue" stroke="midnightblue" points="943.29,-106.07 934.85,-112.48 945.44,-112.73 943.29,-106.07"/>
</g>
<!-- Node18 -->
<g id="node18" class="node">
<title>Node18</title>
<g id="a_node18"><a xlink:href="_write_event_dispatcher_8cpp.html" target="_top" xlink:title=" ">
<polygon fill="white" stroke="black" points="849,-56.5 849,-75.5 995,-75.5 995,-56.5 849,-56.5"/>
<text text-anchor="middle" x="922" y="-63.5" font-family="Helvetica,sans-Serif" font-size="10.00">net/WriteEventDispatcher.cpp</text>
</a>
</g>
</g>
<!-- Node17&#45;&gt;Node18 -->
<g id="edge23" class="edge">
<title>Node17&#45;&gt;Node18</title>
<path fill="none" stroke="midnightblue" d="M906.14,-102.69C910.18,-93.59 914.88,-83.01 918.11,-75.75"/>
<polygon fill="midnightblue" stroke="midnightblue" points="902.83,-101.52 901.96,-112.08 909.22,-104.37 902.83,-101.52"/>
</g>
</g>
</svg>
