<?xml version="1.0" encoding="UTF-8" standalone="no"?>
<!DOCTYPE svg PUBLIC "-//W3C//DTD SVG 1.1//EN"
 "http://www.w3.org/Graphics/SVG/1.1/DTD/svg11.dtd">
<!-- Generated by graphviz version 2.43.0 (0)
 -->
<!-- Title: net/EventLoop.cpp Pages: 1 -->
<svg width="1038pt" height="308pt"
 viewBox="0.00 0.00 1037.50 308.00" xmlns="http://www.w3.org/2000/svg" xmlns:xlink="http://www.w3.org/1999/xlink">
<g id="graph0" class="graph" transform="scale(1 1) rotate(0) translate(4 304)">
<title>net/EventLoop.cpp</title>
<polygon fill="white" stroke="transparent" points="-4,4 -4,-304 1033.5,-304 1033.5,4 -4,4"/>
<!-- Node1 -->
<g id="node1" class="node">
<title>Node1</title>
<g id="a_node1"><a xlink:title=" ">
<polygon fill="#bfbfbf" stroke="black" points="774.5,-280.5 774.5,-299.5 872.5,-299.5 872.5,-280.5 774.5,-280.5"/>
<text text-anchor="middle" x="823.5" y="-287.5" font-family="Helvetica,sans-Serif" font-size="10.00">net/EventLoop.cpp</text>
</a>
</g>
</g>
<!-- Node2 -->
<g id="node2" class="node">
<title>Node2</title>
<g id="a_node2"><a xlink:href="_event_loop_8h.html" target="_top" xlink:title=" ">
<polygon fill="white" stroke="black" points="549,-224.5 549,-243.5 620,-243.5 620,-224.5 549,-224.5"/>
<text text-anchor="middle" x="584.5" y="-231.5" font-family="Helvetica,sans-Serif" font-size="10.00">EventLoop.h</text>
</a>
</g>
</g>
<!-- Node1&#45;&gt;Node2 -->
<g id="edge1" class="edge">
<title>Node1&#45;&gt;Node2</title>
<path fill="none" stroke="midnightblue" d="M785.63,-280.44C743.41,-270.9 675.16,-255.48 630.06,-245.29"/>
<polygon fill="midnightblue" stroke="midnightblue" points="630.77,-241.87 620.24,-243.08 629.22,-248.69 630.77,-241.87"/>
</g>
<!-- Node10 -->
<g id="node10" class="node">
<title>Node10</title>
<g id="a_node10"><a xlink:href="_logger_8h.html" target="_top" xlink:title=" ">
<polygon fill="white" stroke="black" points="794,-0.5 794,-19.5 847,-19.5 847,-0.5 794,-0.5"/>
<text text-anchor="middle" x="820.5" y="-7.5" font-family="Helvetica,sans-Serif" font-size="10.00">Logger.h</text>
</a>
</g>
</g>
<!-- Node1&#45;&gt;Node10 -->
<g id="edge33" class="edge">
<title>Node1&#45;&gt;Node10</title>
<path fill="none" stroke="midnightblue" d="M823.41,-280.38C822.99,-241.78 821.29,-84.45 820.7,-29.81"/>
<polygon fill="midnightblue" stroke="midnightblue" points="824.2,-29.49 820.59,-19.52 817.2,-29.56 824.2,-29.49"/>
</g>
<!-- Node11 -->
<g id="node11" class="node">
<title>Node11</title>
<g id="a_node11"><a xlink:href="_timeval_8h.html" target="_top" xlink:title=" ">
<polygon fill="white" stroke="black" points="919,-0.5 919,-19.5 978,-19.5 978,-0.5 919,-0.5"/>
<text text-anchor="middle" x="948.5" y="-7.5" font-family="Helvetica,sans-Serif" font-size="10.00">Timeval.h</text>
</a>
</g>
</g>
<!-- Node1&#45;&gt;Node11 -->
<g id="edge34" class="edge">
<title>Node1&#45;&gt;Node11</title>
<path fill="none" stroke="midnightblue" d="M872.58,-284.2C933.51,-275.23 1029.5,-249.85 1029.5,-179 1029.5,-179 1029.5,-179 1029.5,-121 1029.5,-80.45 993.36,-44.99 969.36,-25.91"/>
<polygon fill="midnightblue" stroke="midnightblue" points="971.23,-22.94 961.16,-19.65 966.98,-28.5 971.23,-22.94"/>
</g>
<!-- Node3 -->
<g id="node3" class="node">
<title>Node3</title>
<g id="a_node3"><a xlink:href="_accept_event_dispatcher_8h.html" target="_top" xlink:title=" ">
<polygon fill="white" stroke="black" points="591.5,-168.5 591.5,-187.5 719.5,-187.5 719.5,-168.5 591.5,-168.5"/>
<text text-anchor="middle" x="655.5" y="-175.5" font-family="Helvetica,sans-Serif" font-size="10.00">AcceptEventDispatcher.h</text>
</a>
</g>
</g>
<!-- Node2&#45;&gt;Node3 -->
<g id="edge2" class="edge">
<title>Node2&#45;&gt;Node3</title>
<path fill="none" stroke="midnightblue" d="M595.91,-224.32C606.61,-216.18 622.84,-203.84 635.66,-194.09"/>
<polygon fill="midnightblue" stroke="midnightblue" points="638.04,-196.67 643.89,-187.83 633.81,-191.1 638.04,-196.67"/>
</g>
<!-- Node9 -->
<g id="node9" class="node">
<title>Node9</title>
<g id="a_node9"><a xlink:href="_fd_set_8h.html" target="_top" xlink:title=" ">
<polygon fill="white" stroke="black" points="722,-0.5 722,-19.5 773,-19.5 773,-0.5 722,-0.5"/>
<text text-anchor="middle" x="747.5" y="-7.5" font-family="Helvetica,sans-Serif" font-size="10.00">FdSet.h</text>
</a>
</g>
</g>
<!-- Node2&#45;&gt;Node9 -->
<g id="edge16" class="edge">
<title>Node2&#45;&gt;Node9</title>
<path fill="none" stroke="midnightblue" d="M620.11,-232.33C653.54,-229.63 702.24,-219.98 728.5,-188 766.37,-141.87 757.92,-64.63 751.48,-29.45"/>
<polygon fill="midnightblue" stroke="midnightblue" points="754.91,-28.73 749.52,-19.6 748.04,-30.09 754.91,-28.73"/>
</g>
<!-- Node12 -->
<g id="node12" class="node">
<title>Node12</title>
<g id="a_node12"><a xlink:href="_connect_event_dispatcher_8h.html" target="_top" xlink:title=" ">
<polygon fill="white" stroke="black" points="301.5,-168.5 301.5,-187.5 435.5,-187.5 435.5,-168.5 301.5,-168.5"/>
<text text-anchor="middle" x="368.5" y="-175.5" font-family="Helvetica,sans-Serif" font-size="10.00">ConnectEventDispatcher.h</text>
</a>
</g>
</g>
<!-- Node2&#45;&gt;Node12 -->
<g id="edge12" class="edge">
<title>Node2&#45;&gt;Node12</title>
<path fill="none" stroke="midnightblue" d="M550.27,-224.44C512.99,-215.12 453.23,-200.18 412.49,-190"/>
<polygon fill="midnightblue" stroke="midnightblue" points="413.12,-186.55 402.57,-187.52 411.42,-193.34 413.12,-186.55"/>
</g>
<!-- Node14 -->
<g id="node14" class="node">
<title>Node14</title>
<g id="a_node14"><a xlink:href="_out_of_band_event_dispatcher_8h.html" target="_top" xlink:title=" ">
<polygon fill="white" stroke="black" points="137.5,-168.5 137.5,-187.5 283.5,-187.5 283.5,-168.5 137.5,-168.5"/>
<text text-anchor="middle" x="210.5" y="-175.5" font-family="Helvetica,sans-Serif" font-size="10.00">OutOfBandEventDispatcher.h</text>
</a>
</g>
</g>
<!-- Node2&#45;&gt;Node14 -->
<g id="edge17" class="edge">
<title>Node2&#45;&gt;Node14</title>
<path fill="none" stroke="midnightblue" d="M548.98,-227.87C487.25,-218.96 359.18,-200.47 279.48,-188.96"/>
<polygon fill="midnightblue" stroke="midnightblue" points="279.93,-185.49 269.53,-187.52 278.93,-192.42 279.93,-185.49"/>
</g>
<!-- Node16 -->
<g id="node16" class="node">
<title>Node16</title>
<g id="a_node16"><a xlink:href="_read_event_dispatcher_8h.html" target="_top" xlink:title=" ">
<polygon fill="white" stroke="black" points="453.5,-168.5 453.5,-187.5 573.5,-187.5 573.5,-168.5 453.5,-168.5"/>
<text text-anchor="middle" x="513.5" y="-175.5" font-family="Helvetica,sans-Serif" font-size="10.00">ReadEventDispatcher.h</text>
</a>
</g>
</g>
<!-- Node2&#45;&gt;Node16 -->
<g id="edge21" class="edge">
<title>Node2&#45;&gt;Node16</title>
<path fill="none" stroke="midnightblue" d="M573.09,-224.32C562.39,-216.18 546.16,-203.84 533.34,-194.09"/>
<polygon fill="midnightblue" stroke="midnightblue" points="535.19,-191.1 525.11,-187.83 530.96,-196.67 535.19,-191.1"/>
</g>
<!-- Node18 -->
<g id="node18" class="node">
<title>Node18</title>
<g id="a_node18"><a xlink:href="_timer_event_dispatcher_8h.html" target="_top" xlink:title=" ">
<polygon fill="white" stroke="black" points="849.5,-112.5 849.5,-131.5 971.5,-131.5 971.5,-112.5 849.5,-112.5"/>
<text text-anchor="middle" x="910.5" y="-119.5" font-family="Helvetica,sans-Serif" font-size="10.00">TimerEventDispatcher.h</text>
</a>
</g>
</g>
<!-- Node2&#45;&gt;Node18 -->
<g id="edge25" class="edge">
<title>Node2&#45;&gt;Node18</title>
<path fill="none" stroke="midnightblue" d="M620.26,-225.7C656.37,-217.91 713.51,-204.45 761.5,-188 805.64,-172.87 854.9,-150.18 884.27,-136"/>
<polygon fill="midnightblue" stroke="midnightblue" points="885.97,-139.06 893.43,-131.54 882.91,-132.77 885.97,-139.06"/>
</g>
<!-- Node20 -->
<g id="node20" class="node">
<title>Node20</title>
<g id="a_node20"><a xlink:href="_write_event_dispatcher_8h.html" target="_top" xlink:title=" ">
<polygon fill="white" stroke="black" points="0,-168.5 0,-187.5 119,-187.5 119,-168.5 0,-168.5"/>
<text text-anchor="middle" x="59.5" y="-175.5" font-family="Helvetica,sans-Serif" font-size="10.00">WriteEventDispatcher.h</text>
</a>
</g>
</g>
<!-- Node2&#45;&gt;Node20 -->
<g id="edge29" class="edge">
<title>Node2&#45;&gt;Node20</title>
<path fill="none" stroke="midnightblue" d="M548.98,-229.88C473.77,-223.18 292.62,-206.62 129.54,-188.09"/>
<polygon fill="midnightblue" stroke="midnightblue" points="129.66,-184.58 119.33,-186.92 128.86,-191.53 129.66,-184.58"/>
</g>
<!-- Node4 -->
<g id="node4" class="node">
<title>Node4</title>
<g id="a_node4"><a xlink:href="_accept_event_receiver_8h.html" target="_top" xlink:title=" ">
<polygon fill="white" stroke="black" points="484,-56.5 484,-75.5 603,-75.5 603,-56.5 484,-56.5"/>
<text text-anchor="middle" x="543.5" y="-63.5" font-family="Helvetica,sans-Serif" font-size="10.00">AcceptEventReceiver.h</text>
</a>
</g>
</g>
<!-- Node3&#45;&gt;Node4 -->
<g id="edge3" class="edge">
<title>Node3&#45;&gt;Node4</title>
<path fill="none" stroke="midnightblue" d="M647.5,-168.43C635.68,-155.85 612.77,-131.73 592.5,-112 582.26,-102.03 570.47,-91.18 561.02,-82.64"/>
<polygon fill="midnightblue" stroke="midnightblue" points="563.19,-79.89 553.42,-75.8 558.51,-85.09 563.19,-79.89"/>
</g>
<!-- Node6 -->
<g id="node6" class="node">
<title>Node6</title>
<g id="a_node6"><a xlink:href="_event_dispatcher_8hpp.html" target="_top" xlink:title=" ">
<polygon fill="white" stroke="black" points="346,-112.5 346,-131.5 453,-131.5 453,-112.5 346,-112.5"/>
<text text-anchor="middle" x="399.5" y="-119.5" font-family="Helvetica,sans-Serif" font-size="10.00">EventDispatcher.hpp</text>
</a>
</g>
</g>
<!-- Node3&#45;&gt;Node6 -->
<g id="edge5" class="edge">
<title>Node3&#45;&gt;Node6</title>
<path fill="none" stroke="midnightblue" d="M614.94,-168.44C570.18,-159 498.12,-143.8 449.8,-133.61"/>
<polygon fill="midnightblue" stroke="midnightblue" points="450.38,-130.16 439.87,-131.52 448.94,-137.01 450.38,-130.16"/>
</g>
<!-- Node5 -->
<g id="node5" class="node">
<title>Node5</title>
<g id="a_node5"><a xlink:href="_event_receiver_8h.html" target="_top" xlink:title=" ">
<polygon fill="white" stroke="black" points="363,-0.5 363,-19.5 452,-19.5 452,-0.5 363,-0.5"/>
<text text-anchor="middle" x="407.5" y="-7.5" font-family="Helvetica,sans-Serif" font-size="10.00">EventReceiver.h</text>
</a>
</g>
</g>
<!-- Node4&#45;&gt;Node5 -->
<g id="edge4" class="edge">
<title>Node4&#45;&gt;Node5</title>
<path fill="none" stroke="midnightblue" d="M521.95,-56.44C499.47,-47.52 464.01,-33.44 438.52,-23.32"/>
<polygon fill="midnightblue" stroke="midnightblue" points="439.53,-19.95 428.95,-19.52 436.95,-26.46 439.53,-19.95"/>
</g>
<!-- Node7 -->
<g id="node7" class="node">
<title>Node7</title>
<g id="a_node7"><a xlink:href="_event_dispatcher_8h.html" target="_top" xlink:title=" ">
<polygon fill="white" stroke="black" points="622,-56.5 622,-75.5 719,-75.5 719,-56.5 622,-56.5"/>
<text text-anchor="middle" x="670.5" y="-63.5" font-family="Helvetica,sans-Serif" font-size="10.00">EventDispatcher.h</text>
</a>
</g>
</g>
<!-- Node6&#45;&gt;Node7 -->
<g id="edge6" class="edge">
<title>Node6&#45;&gt;Node7</title>
<path fill="none" stroke="midnightblue" d="M442.44,-112.44C490.01,-102.96 566.74,-87.67 617.89,-77.48"/>
<polygon fill="midnightblue" stroke="midnightblue" points="618.64,-80.9 627.76,-75.52 617.27,-74.04 618.64,-80.9"/>
</g>
<!-- Node7&#45;&gt;Node5 -->
<g id="edge8" class="edge">
<title>Node7&#45;&gt;Node5</title>
<path fill="none" stroke="midnightblue" d="M628.83,-56.44C582.75,-46.98 508.5,-31.74 458.87,-21.55"/>
<polygon fill="midnightblue" stroke="midnightblue" points="459.48,-18.1 448.98,-19.52 458.07,-24.96 459.48,-18.1"/>
</g>
<!-- Node8 -->
<g id="node8" class="node">
<title>Node8</title>
<g id="a_node8"><a xlink:href="_descriptor_8h.html" target="_top" xlink:title=" ">
<polygon fill="white" stroke="black" points="635,-0.5 635,-19.5 704,-19.5 704,-0.5 635,-0.5"/>
<text text-anchor="middle" x="669.5" y="-7.5" font-family="Helvetica,sans-Serif" font-size="10.00">Descriptor.h</text>
</a>
</g>
</g>
<!-- Node7&#45;&gt;Node8 -->
<g id="edge7" class="edge">
<title>Node7&#45;&gt;Node8</title>
<path fill="none" stroke="midnightblue" d="M670.33,-56.08C670.2,-49.01 670.02,-38.86 669.85,-29.99"/>
<polygon fill="midnightblue" stroke="midnightblue" points="673.35,-29.68 669.66,-19.75 666.35,-29.81 673.35,-29.68"/>
</g>
<!-- Node7&#45;&gt;Node9 -->
<g id="edge9" class="edge">
<title>Node7&#45;&gt;Node9</title>
<path fill="none" stroke="midnightblue" d="M682.87,-56.32C694.66,-48.06 712.63,-35.45 726.64,-25.63"/>
<polygon fill="midnightblue" stroke="midnightblue" points="728.98,-28.26 735.16,-19.65 724.96,-22.53 728.98,-28.26"/>
</g>
<!-- Node7&#45;&gt;Node10 -->
<g id="edge10" class="edge">
<title>Node7&#45;&gt;Node10</title>
<path fill="none" stroke="midnightblue" d="M694.27,-56.44C719.39,-47.4 759.21,-33.06 787.4,-22.92"/>
<polygon fill="midnightblue" stroke="midnightblue" points="788.62,-26.2 796.84,-19.52 786.25,-19.61 788.62,-26.2"/>
</g>
<!-- Node7&#45;&gt;Node11 -->
<g id="edge11" class="edge">
<title>Node7&#45;&gt;Node11</title>
<path fill="none" stroke="midnightblue" d="M714.55,-56.44C767.98,-46.07 857.25,-28.72 908.69,-18.73"/>
<polygon fill="midnightblue" stroke="midnightblue" points="909.61,-22.12 918.76,-16.78 908.28,-15.25 909.61,-22.12"/>
</g>
<!-- Node12&#45;&gt;Node6 -->
<g id="edge15" class="edge">
<title>Node12&#45;&gt;Node6</title>
<path fill="none" stroke="midnightblue" d="M373.62,-168.08C377.91,-160.61 384.16,-149.72 389.44,-140.52"/>
<polygon fill="midnightblue" stroke="midnightblue" points="392.53,-142.17 394.48,-131.75 386.46,-138.68 392.53,-142.17"/>
</g>
<!-- Node13 -->
<g id="node13" class="node">
<title>Node13</title>
<g id="a_node13"><a xlink:href="_connect_event_receiver_8h.html" target="_top" xlink:title=" ">
<polygon fill="white" stroke="black" points="298,-56.5 298,-75.5 423,-75.5 423,-56.5 298,-56.5"/>
<text text-anchor="middle" x="360.5" y="-63.5" font-family="Helvetica,sans-Serif" font-size="10.00">ConnectEventReceiver.h</text>
</a>
</g>
</g>
<!-- Node12&#45;&gt;Node13 -->
<g id="edge13" class="edge">
<title>Node12&#45;&gt;Node13</title>
<path fill="none" stroke="midnightblue" d="M359.75,-168.29C351.94,-159.84 341.05,-146.25 336.5,-132 331.26,-115.59 339.4,-97.19 347.58,-84.17"/>
<polygon fill="midnightblue" stroke="midnightblue" points="350.59,-85.97 353.36,-75.74 344.82,-82.01 350.59,-85.97"/>
</g>
<!-- Node13&#45;&gt;Node5 -->
<g id="edge14" class="edge">
<title>Node13&#45;&gt;Node5</title>
<path fill="none" stroke="midnightblue" d="M368.26,-56.08C375.04,-48.3 385.04,-36.8 393.26,-27.37"/>
<polygon fill="midnightblue" stroke="midnightblue" points="395.96,-29.59 399.88,-19.75 390.68,-25 395.96,-29.59"/>
</g>
<!-- Node14&#45;&gt;Node6 -->
<g id="edge18" class="edge">
<title>Node14&#45;&gt;Node6</title>
<path fill="none" stroke="midnightblue" d="M240.45,-168.44C272.66,-159.24 324.03,-144.56 359.64,-134.39"/>
<polygon fill="midnightblue" stroke="midnightblue" points="361.04,-137.63 369.69,-131.52 359.12,-130.9 361.04,-137.63"/>
</g>
<!-- Node15 -->
<g id="node15" class="node">
<title>Node15</title>
<g id="a_node15"><a xlink:href="_out_of_band_event_receiver_8h.html" target="_top" xlink:title=" ">
<polygon fill="white" stroke="black" points="142,-56.5 142,-75.5 279,-75.5 279,-56.5 142,-56.5"/>
<text text-anchor="middle" x="210.5" y="-63.5" font-family="Helvetica,sans-Serif" font-size="10.00">OutOfBandEventReceiver.h</text>
</a>
</g>
</g>
<!-- Node14&#45;&gt;Node15 -->
<g id="edge19" class="edge">
<title>Node14&#45;&gt;Node15</title>
<path fill="none" stroke="midnightblue" d="M210.5,-168.37C210.5,-150.62 210.5,-109.67 210.5,-85.6"/>
<polygon fill="midnightblue" stroke="midnightblue" points="214,-85.59 210.5,-75.59 207,-85.59 214,-85.59"/>
</g>
<!-- Node15&#45;&gt;Node5 -->
<g id="edge20" class="edge">
<title>Node15&#45;&gt;Node5</title>
<path fill="none" stroke="midnightblue" d="M241.72,-56.44C275.43,-47.2 329.3,-32.44 366.43,-22.26"/>
<polygon fill="midnightblue" stroke="midnightblue" points="367.71,-25.54 376.43,-19.52 365.86,-18.78 367.71,-25.54"/>
</g>
<!-- Node16&#45;&gt;Node6 -->
<g id="edge22" class="edge">
<title>Node16&#45;&gt;Node6</title>
<path fill="none" stroke="midnightblue" d="M495.44,-168.44C476.93,-159.68 447.92,-145.94 426.64,-135.86"/>
<polygon fill="midnightblue" stroke="midnightblue" points="428.01,-132.63 417.48,-131.52 425.02,-138.96 428.01,-132.63"/>
</g>
<!-- Node17 -->
<g id="node17" class="node">
<title>Node17</title>
<g id="a_node17"><a xlink:href="_read_event_receiver_8h.html" target="_top" xlink:title=" ">
<polygon fill="white" stroke="black" points="471.5,-112.5 471.5,-131.5 583.5,-131.5 583.5,-112.5 471.5,-112.5"/>
<text text-anchor="middle" x="527.5" y="-119.5" font-family="Helvetica,sans-Serif" font-size="10.00">ReadEventReceiver.h</text>
</a>
</g>
</g>
<!-- Node16&#45;&gt;Node17 -->
<g id="edge23" class="edge">
<title>Node16&#45;&gt;Node17</title>
<path fill="none" stroke="midnightblue" d="M515.81,-168.08C517.67,-160.93 520.34,-150.64 522.65,-141.69"/>
<polygon fill="midnightblue" stroke="midnightblue" points="526.11,-142.31 525.23,-131.75 519.33,-140.55 526.11,-142.31"/>
</g>
<!-- Node17&#45;&gt;Node5 -->
<g id="edge24" class="edge">
<title>Node17&#45;&gt;Node5</title>
<path fill="none" stroke="midnightblue" d="M517.01,-112.18C506.41,-103.22 489.63,-88.85 475.5,-76 457.32,-59.46 437.02,-39.91 423.37,-26.6"/>
<polygon fill="midnightblue" stroke="midnightblue" points="425.77,-24.05 416.17,-19.55 420.87,-29.05 425.77,-24.05"/>
</g>
<!-- Node18&#45;&gt;Node11 -->
<g id="edge28" class="edge">
<title>Node18&#45;&gt;Node11</title>
<path fill="none" stroke="midnightblue" d="M930.72,-112.49C945.27,-105.17 963.8,-93.06 972.5,-76 980.49,-60.33 971.52,-41.35 962.36,-27.95"/>
<polygon fill="midnightblue" stroke="midnightblue" points="964.97,-25.61 956.19,-19.68 959.36,-29.79 964.97,-25.61"/>
</g>
<!-- Node19 -->
<g id="node19" class="node">
<title>Node19</title>
<g id="a_node19"><a xlink:href="_timer_event_receiver_8h.html" target="_top" xlink:title=" ">
<polygon fill="white" stroke="black" points="850,-56.5 850,-75.5 963,-75.5 963,-56.5 850,-56.5"/>
<text text-anchor="middle" x="906.5" y="-63.5" font-family="Helvetica,sans-Serif" font-size="10.00">TimerEventReceiver.h</text>
</a>
</g>
</g>
<!-- Node18&#45;&gt;Node19 -->
<g id="edge26" class="edge">
<title>Node18&#45;&gt;Node19</title>
<path fill="none" stroke="midnightblue" d="M909.84,-112.08C909.32,-105.01 908.56,-94.86 907.91,-85.99"/>
<polygon fill="midnightblue" stroke="midnightblue" points="911.38,-85.47 907.15,-75.75 904.4,-85.98 911.38,-85.47"/>
</g>
<!-- Node19&#45;&gt;Node11 -->
<g id="edge27" class="edge">
<title>Node19&#45;&gt;Node11</title>
<path fill="none" stroke="midnightblue" d="M913.44,-56.08C919.43,-48.38 928.25,-37.03 935.55,-27.65"/>
<polygon fill="midnightblue" stroke="midnightblue" points="938.32,-29.79 941.69,-19.75 932.79,-25.5 938.32,-29.79"/>
</g>
<!-- Node20&#45;&gt;Node6 -->
<g id="edge30" class="edge">
<title>Node20&#45;&gt;Node6</title>
<path fill="none" stroke="midnightblue" d="M113.37,-168.44C173.81,-158.85 271.74,-143.29 335.88,-133.1"/>
<polygon fill="midnightblue" stroke="midnightblue" points="336.55,-136.54 345.88,-131.52 335.45,-129.63 336.55,-136.54"/>
</g>
<!-- Node21 -->
<g id="node21" class="node">
<title>Node21</title>
<g id="a_node21"><a xlink:href="_write_event_receiver_8h.html" target="_top" xlink:title=" ">
<polygon fill="white" stroke="black" points="31,-112.5 31,-131.5 142,-131.5 142,-112.5 31,-112.5"/>
<text text-anchor="middle" x="86.5" y="-119.5" font-family="Helvetica,sans-Serif" font-size="10.00">WriteEventReceiver.h</text>
</a>
</g>
</g>
<!-- Node20&#45;&gt;Node21 -->
<g id="edge31" class="edge">
<title>Node20&#45;&gt;Node21</title>
<path fill="none" stroke="midnightblue" d="M63.96,-168.08C67.65,-160.69 73.02,-149.95 77.59,-140.81"/>
<polygon fill="midnightblue" stroke="midnightblue" points="80.78,-142.26 82.12,-131.75 74.52,-139.13 80.78,-142.26"/>
</g>
<!-- Node21&#45;&gt;Node5 -->
<g id="edge32" class="edge">
<title>Node21&#45;&gt;Node5</title>
<path fill="none" stroke="midnightblue" d="M90.05,-112.13C96.29,-97.77 110.69,-69.63 132.5,-56 168.3,-33.63 283.12,-20.84 352.56,-14.97"/>
<polygon fill="midnightblue" stroke="midnightblue" points="353.2,-18.43 362.88,-14.12 352.63,-11.46 353.2,-18.43"/>
</g>
</g>
</svg>
