<?xml version="1.0" encoding="UTF-8" standalone="no"?>
<!DOCTYPE svg PUBLIC "-//W3C//DTD SVG 1.1//EN"
 "http://www.w3.org/Graphics/SVG/1.1/DTD/svg11.dtd">
<!-- Generated by graphviz version 2.43.0 (0)
 -->
<!-- Title: net/FdSet.h Pages: 1 -->
<svg width="1162pt" height="140pt"
 viewBox="0.00 0.00 1162.00 140.00" xmlns="http://www.w3.org/2000/svg" xmlns:xlink="http://www.w3.org/1999/xlink">
<g id="graph0" class="graph" transform="scale(1 1) rotate(0) translate(4 136)">
<title>net/FdSet.h</title>
<polygon fill="white" stroke="transparent" points="-4,4 -4,-136 1158,-136 1158,4 -4,4"/>
<!-- Node1 -->
<g id="node1" class="node">
<title>Node1</title>
<g id="a_node1"><a xlink:title=" ">
<polygon fill="#bfbfbf" stroke="black" points="583,-112.5 583,-131.5 651,-131.5 651,-112.5 583,-112.5"/>
<text text-anchor="middle" x="617" y="-119.5" font-family="Helvetica,sans-Serif" font-size="10.00">net/FdSet.h</text>
</a>
</g>
</g>
<!-- Node2 -->
<g id="node2" class="node">
<title>Node2</title>
<g id="a_node2"><a xlink:href="_descriptor_event_dispatcher_8cpp.html" target="_top" xlink:title=" ">
<polygon fill="white" stroke="black" points="386.5,-56.5 386.5,-75.5 555.5,-75.5 555.5,-56.5 386.5,-56.5"/>
<text text-anchor="middle" x="471" y="-63.5" font-family="Helvetica,sans-Serif" font-size="10.00">net/DescriptorEventDispatcher.cpp</text>
</a>
</g>
</g>
<!-- Node1&#45;&gt;Node2 -->
<g id="edge1" class="edge">
<title>Node1&#45;&gt;Node2</title>
<path fill="none" stroke="midnightblue" d="M584.3,-108.91C556.85,-98.75 518.33,-84.51 494.03,-75.52"/>
<polygon fill="midnightblue" stroke="midnightblue" points="583.27,-112.26 593.87,-112.44 585.7,-105.69 583.27,-112.26"/>
</g>
<!-- Node3 -->
<g id="node3" class="node">
<title>Node3</title>
<g id="a_node3"><a xlink:href="_event_loop_8h.html" target="_top" xlink:title=" ">
<polygon fill="white" stroke="black" points="573,-56.5 573,-75.5 661,-75.5 661,-56.5 573,-56.5"/>
<text text-anchor="middle" x="617" y="-63.5" font-family="Helvetica,sans-Serif" font-size="10.00">net/EventLoop.h</text>
</a>
</g>
</g>
<!-- Node1&#45;&gt;Node3 -->
<g id="edge2" class="edge">
<title>Node1&#45;&gt;Node3</title>
<path fill="none" stroke="midnightblue" d="M617,-101.8C617,-92.91 617,-82.78 617,-75.75"/>
<polygon fill="midnightblue" stroke="midnightblue" points="613.5,-102.08 617,-112.08 620.5,-102.08 613.5,-102.08"/>
</g>
<!-- Node12 -->
<g id="node12" class="node">
<title>Node12</title>
<g id="a_node12"><a xlink:href="_fd_set_8cpp.html" target="_top" xlink:title=" ">
<polygon fill="white" stroke="black" points="679,-56.5 679,-75.5 757,-75.5 757,-56.5 679,-56.5"/>
<text text-anchor="middle" x="718" y="-63.5" font-family="Helvetica,sans-Serif" font-size="10.00">net/FdSet.cpp</text>
</a>
</g>
</g>
<!-- Node1&#45;&gt;Node12 -->
<g id="edge11" class="edge">
<title>Node1&#45;&gt;Node12</title>
<path fill="none" stroke="midnightblue" d="M642.08,-107.59C660.76,-97.61 685.7,-84.27 701.81,-75.65"/>
<polygon fill="midnightblue" stroke="midnightblue" points="640.4,-104.52 633.23,-112.32 643.7,-110.7 640.4,-104.52"/>
</g>
<!-- Node4 -->
<g id="node4" class="node">
<title>Node4</title>
<g id="a_node4"><a xlink:href="_accept_event_receiver_8cpp.html" target="_top" xlink:title=" ">
<polygon fill="white" stroke="black" points="0,-0.5 0,-19.5 146,-19.5 146,-0.5 0,-0.5"/>
<text text-anchor="middle" x="73" y="-7.5" font-family="Helvetica,sans-Serif" font-size="10.00">net/AcceptEventReceiver.cpp</text>
</a>
</g>
</g>
<!-- Node3&#45;&gt;Node4 -->
<g id="edge3" class="edge">
<title>Node3&#45;&gt;Node4</title>
<path fill="none" stroke="midnightblue" d="M562.65,-55.92C381.29,-32.89 333.31,-37.63 155,-20 152.15,-19.72 149.24,-19.43 146.31,-19.13"/>
<polygon fill="midnightblue" stroke="midnightblue" points="562.43,-59.42 572.79,-57.22 563.32,-52.48 562.43,-59.42"/>
</g>
<!-- Node5 -->
<g id="node5" class="node">
<title>Node5</title>
<g id="a_node5"><a xlink:href="_connect_event_receiver_8cpp.html" target="_top" xlink:title=" ">
<polygon fill="white" stroke="black" points="164,-0.5 164,-19.5 316,-19.5 316,-0.5 164,-0.5"/>
<text text-anchor="middle" x="240" y="-7.5" font-family="Helvetica,sans-Serif" font-size="10.00">net/ConnectEventReceiver.cpp</text>
</a>
</g>
</g>
<!-- Node3&#45;&gt;Node5 -->
<g id="edge4" class="edge">
<title>Node3&#45;&gt;Node5</title>
<path fill="none" stroke="midnightblue" d="M562.69,-55.83C467.59,-41.25 368.82,-27.87 305.55,-19.51"/>
<polygon fill="midnightblue" stroke="midnightblue" points="562.35,-59.32 572.77,-57.39 563.42,-52.41 562.35,-59.32"/>
</g>
<!-- Node6 -->
<g id="node6" class="node">
<title>Node6</title>
<g id="a_node6"><a xlink:href="_event_loop_8cpp.html" target="_top" xlink:title=" ">
<polygon fill="white" stroke="black" points="334,-0.5 334,-19.5 432,-19.5 432,-0.5 334,-0.5"/>
<text text-anchor="middle" x="383" y="-7.5" font-family="Helvetica,sans-Serif" font-size="10.00">net/EventLoop.cpp</text>
</a>
</g>
</g>
<!-- Node3&#45;&gt;Node6 -->
<g id="edge5" class="edge">
<title>Node3&#45;&gt;Node6</title>
<path fill="none" stroke="midnightblue" d="M570,-54.15C525.78,-43.95 460.48,-28.88 419.9,-19.52"/>
<polygon fill="midnightblue" stroke="midnightblue" points="569.39,-57.61 579.92,-56.44 570.97,-50.78 569.39,-57.61"/>
</g>
<!-- Node7 -->
<g id="node7" class="node">
<title>Node7</title>
<g id="a_node7"><a xlink:href="_out_of_band_event_receiver_8cpp.html" target="_top" xlink:title=" ">
<polygon fill="white" stroke="black" points="450,-0.5 450,-19.5 614,-19.5 614,-0.5 450,-0.5"/>
<text text-anchor="middle" x="532" y="-7.5" font-family="Helvetica,sans-Serif" font-size="10.00">net/OutOfBandEventReceiver.cpp</text>
</a>
</g>
</g>
<!-- Node3&#45;&gt;Node7 -->
<g id="edge6" class="edge">
<title>Node3&#45;&gt;Node7</title>
<path fill="none" stroke="midnightblue" d="M594.81,-50.9C579.22,-41 558.87,-28.07 545.62,-19.65"/>
<polygon fill="midnightblue" stroke="midnightblue" points="593.03,-53.92 603.34,-56.32 596.78,-48.01 593.03,-53.92"/>
</g>
<!-- Node8 -->
<g id="node8" class="node">
<title>Node8</title>
<g id="a_node8"><a xlink:href="_read_event_receiver_8cpp.html" target="_top" xlink:title=" ">
<polygon fill="white" stroke="black" points="632.5,-0.5 632.5,-19.5 771.5,-19.5 771.5,-0.5 632.5,-0.5"/>
<text text-anchor="middle" x="702" y="-7.5" font-family="Helvetica,sans-Serif" font-size="10.00">net/ReadEventReceiver.cpp</text>
</a>
</g>
</g>
<!-- Node3&#45;&gt;Node8 -->
<g id="edge7" class="edge">
<title>Node3&#45;&gt;Node8</title>
<path fill="none" stroke="midnightblue" d="M639.19,-50.9C654.78,-41 675.13,-28.07 688.38,-19.65"/>
<polygon fill="midnightblue" stroke="midnightblue" points="637.22,-48.01 630.66,-56.32 640.97,-53.92 637.22,-48.01"/>
</g>
<!-- Node9 -->
<g id="node9" class="node">
<title>Node9</title>
<g id="a_node9"><a xlink:href="_s_node_c_8cpp.html" target="_top" xlink:title=" ">
<polygon fill="white" stroke="black" points="789.5,-0.5 789.5,-19.5 878.5,-19.5 878.5,-0.5 789.5,-0.5"/>
<text text-anchor="middle" x="834" y="-7.5" font-family="Helvetica,sans-Serif" font-size="10.00">net/SNodeC.cpp</text>
</a>
</g>
</g>
<!-- Node3&#45;&gt;Node9 -->
<g id="edge8" class="edge">
<title>Node3&#45;&gt;Node9</title>
<path fill="none" stroke="midnightblue" d="M661.11,-54.02C702.1,-43.82 762.3,-28.84 799.78,-19.52"/>
<polygon fill="midnightblue" stroke="midnightblue" points="660.24,-50.63 651.38,-56.44 661.93,-57.43 660.24,-50.63"/>
</g>
<!-- Node10 -->
<g id="node10" class="node">
<title>Node10</title>
<g id="a_node10"><a xlink:href="_timer_8cpp.html" target="_top" xlink:title=" ">
<polygon fill="white" stroke="black" points="896.5,-0.5 896.5,-19.5 997.5,-19.5 997.5,-0.5 896.5,-0.5"/>
<text text-anchor="middle" x="947" y="-7.5" font-family="Helvetica,sans-Serif" font-size="10.00">net/timer/Timer.cpp</text>
</a>
</g>
</g>
<!-- Node3&#45;&gt;Node10 -->
<g id="edge9" class="edge">
<title>Node3&#45;&gt;Node10</title>
<path fill="none" stroke="midnightblue" d="M671.29,-55.79C756,-41.74 843.01,-27.69 896.44,-19.1"/>
<polygon fill="midnightblue" stroke="midnightblue" points="670.53,-52.37 661.24,-57.46 671.68,-59.28 670.53,-52.37"/>
</g>
<!-- Node11 -->
<g id="node11" class="node">
<title>Node11</title>
<g id="a_node11"><a xlink:href="_write_event_receiver_8cpp.html" target="_top" xlink:title=" ">
<polygon fill="white" stroke="black" points="1016,-0.5 1016,-19.5 1154,-19.5 1154,-0.5 1016,-0.5"/>
<text text-anchor="middle" x="1085" y="-7.5" font-family="Helvetica,sans-Serif" font-size="10.00">net/WriteEventReceiver.cpp</text>
</a>
</g>
</g>
<!-- Node3&#45;&gt;Node11 -->
<g id="edge10" class="edge">
<title>Node3&#45;&gt;Node11</title>
<path fill="none" stroke="midnightblue" d="M671.23,-55.9C820.9,-35.43 860.51,-36.28 1007,-20 1009.85,-19.68 1012.75,-19.36 1015.68,-19.03"/>
<polygon fill="midnightblue" stroke="midnightblue" points="670.64,-52.45 661.21,-57.28 671.6,-59.38 670.64,-52.45"/>
</g>
</g>
</svg>
