<?xml version="1.0" encoding="UTF-8" standalone="no"?>
<!DOCTYPE svg PUBLIC "-//W3C//DTD SVG 1.1//EN"
 "http://www.w3.org/Graphics/SVG/1.1/DTD/svg11.dtd">
<!-- Generated by graphviz version 2.43.0 (0)
 -->
<!-- Title: net/FdSet.h Pages: 1 -->
<svg width="1184pt" height="252pt"
 viewBox="0.00 0.00 1183.50 252.00" xmlns="http://www.w3.org/2000/svg" xmlns:xlink="http://www.w3.org/1999/xlink">
<g id="graph0" class="graph" transform="scale(1 1) rotate(0) translate(4 248)">
<title>net/FdSet.h</title>
<polygon fill="white" stroke="transparent" points="-4,4 -4,-248 1179.5,-248 1179.5,4 -4,4"/>
<!-- Node1 -->
<g id="node1" class="node">
<title>Node1</title>
<g id="a_node1"><a xlink:title=" ">
<polygon fill="#bfbfbf" stroke="black" points="637.5,-224.5 637.5,-243.5 705.5,-243.5 705.5,-224.5 637.5,-224.5"/>
<text text-anchor="middle" x="671.5" y="-231.5" font-family="Helvetica,sans-Serif" font-size="10.00">net/FdSet.h</text>
</a>
</g>
</g>
<!-- Node2 -->
<g id="node2" class="node">
<title>Node2</title>
<g id="a_node2"><a xlink:href="_event_dispatcher_8h.html" target="_top" xlink:title=" ">
<polygon fill="white" stroke="black" points="615,-168.5 615,-187.5 728,-187.5 728,-168.5 615,-168.5"/>
<text text-anchor="middle" x="671.5" y="-175.5" font-family="Helvetica,sans-Serif" font-size="10.00">net/EventDispatcher.h</text>
</a>
</g>
</g>
<!-- Node1&#45;&gt;Node2 -->
<g id="edge1" class="edge">
<title>Node1&#45;&gt;Node2</title>
<path fill="none" stroke="midnightblue" d="M671.5,-213.8C671.5,-204.91 671.5,-194.78 671.5,-187.75"/>
<polygon fill="midnightblue" stroke="midnightblue" points="668,-214.08 671.5,-224.08 675,-214.08 668,-214.08"/>
</g>
<!-- Node5 -->
<g id="node5" class="node">
<title>Node5</title>
<g id="a_node5"><a xlink:href="_event_loop_8h.html" target="_top" xlink:title=" ">
<polygon fill="white" stroke="black" points="554.5,-56.5 554.5,-75.5 642.5,-75.5 642.5,-56.5 554.5,-56.5"/>
<text text-anchor="middle" x="598.5" y="-63.5" font-family="Helvetica,sans-Serif" font-size="10.00">net/EventLoop.h</text>
</a>
</g>
</g>
<!-- Node1&#45;&gt;Node5 -->
<g id="edge25" class="edge">
<title>Node1&#45;&gt;Node5</title>
<path fill="none" stroke="midnightblue" d="M634.28,-220.85C596.64,-206.33 540.55,-178.05 515.5,-132 500.98,-105.31 540.19,-85.9 569.56,-75.56"/>
<polygon fill="midnightblue" stroke="midnightblue" points="633.3,-224.22 643.9,-224.41 635.74,-217.66 633.3,-224.22"/>
</g>
<!-- Node17 -->
<g id="node17" class="node">
<title>Node17</title>
<g id="a_node17"><a xlink:href="_fd_set_8cpp.html" target="_top" xlink:title=" ">
<polygon fill="white" stroke="black" points="746.5,-168.5 746.5,-187.5 824.5,-187.5 824.5,-168.5 746.5,-168.5"/>
<text text-anchor="middle" x="785.5" y="-175.5" font-family="Helvetica,sans-Serif" font-size="10.00">net/FdSet.cpp</text>
</a>
</g>
</g>
<!-- Node1&#45;&gt;Node17 -->
<g id="edge26" class="edge">
<title>Node1&#45;&gt;Node17</title>
<path fill="none" stroke="midnightblue" d="M698.74,-220.1C720.04,-210.01 749.04,-196.27 767.52,-187.52"/>
<polygon fill="midnightblue" stroke="midnightblue" points="697.1,-217 689.56,-224.44 700.1,-223.33 697.1,-217"/>
</g>
<!-- Node3 -->
<g id="node3" class="node">
<title>Node3</title>
<g id="a_node3"><a xlink:href="_accept_event_dispatcher_8h.html" target="_top" xlink:title=" ">
<polygon fill="white" stroke="black" points="678.5,-112.5 678.5,-131.5 822.5,-131.5 822.5,-112.5 678.5,-112.5"/>
<text text-anchor="middle" x="750.5" y="-119.5" font-family="Helvetica,sans-Serif" font-size="10.00">net/AcceptEventDispatcher.h</text>
</a>
</g>
</g>
<!-- Node2&#45;&gt;Node3 -->
<g id="edge2" class="edge">
<title>Node2&#45;&gt;Node3</title>
<path fill="none" stroke="midnightblue" d="M692.53,-162.62C706.97,-152.76 725.64,-139.99 737.84,-131.65"/>
<polygon fill="midnightblue" stroke="midnightblue" points="690.47,-159.79 684.19,-168.32 694.42,-165.57 690.47,-159.79"/>
</g>
<!-- Node13 -->
<g id="node13" class="node">
<title>Node13</title>
<g id="a_node13"><a xlink:href="_connect_event_dispatcher_8h.html" target="_top" xlink:title=" ">
<polygon fill="white" stroke="black" points="840.5,-112.5 840.5,-131.5 990.5,-131.5 990.5,-112.5 840.5,-112.5"/>
<text text-anchor="middle" x="915.5" y="-119.5" font-family="Helvetica,sans-Serif" font-size="10.00">net/ConnectEventDispatcher.h</text>
</a>
</g>
</g>
<!-- Node2&#45;&gt;Node13 -->
<g id="edge13" class="edge">
<title>Node2&#45;&gt;Node13</title>
<path fill="none" stroke="midnightblue" d="M719.93,-166.28C766.04,-156.08 834.53,-140.92 877.02,-131.52"/>
<polygon fill="midnightblue" stroke="midnightblue" points="719.17,-162.87 710.16,-168.44 720.68,-169.7 719.17,-162.87"/>
</g>
<!-- Node14 -->
<g id="node14" class="node">
<title>Node14</title>
<g id="a_node14"><a xlink:href="_out_of_band_event_dispatcher_8h.html" target="_top" xlink:title=" ">
<polygon fill="white" stroke="black" points="1008.5,-112.5 1008.5,-131.5 1170.5,-131.5 1170.5,-112.5 1008.5,-112.5"/>
<text text-anchor="middle" x="1089.5" y="-119.5" font-family="Helvetica,sans-Serif" font-size="10.00">net/OutOfBandEventDispatcher.h</text>
</a>
</g>
</g>
<!-- Node2&#45;&gt;Node14 -->
<g id="edge16" class="edge">
<title>Node2&#45;&gt;Node14</title>
<path fill="none" stroke="midnightblue" d="M738.19,-167.92C843.41,-154.05 952.98,-140.15 1021.67,-131.5"/>
<polygon fill="midnightblue" stroke="midnightblue" points="737.48,-164.48 728.02,-169.26 738.39,-171.42 737.48,-164.48"/>
</g>
<!-- Node15 -->
<g id="node15" class="node">
<title>Node15</title>
<g id="a_node15"><a xlink:href="_read_event_dispatcher_8h.html" target="_top" xlink:title=" ">
<polygon fill="white" stroke="black" points="331,-112.5 331,-131.5 468,-131.5 468,-112.5 331,-112.5"/>
<text text-anchor="middle" x="399.5" y="-119.5" font-family="Helvetica,sans-Serif" font-size="10.00">net/ReadEventDispatcher.h</text>
</a>
</g>
</g>
<!-- Node2&#45;&gt;Node15 -->
<g id="edge19" class="edge">
<title>Node2&#45;&gt;Node15</title>
<path fill="none" stroke="midnightblue" d="M618.48,-166.47C567.07,-156.27 490.06,-140.98 442.4,-131.52"/>
<polygon fill="midnightblue" stroke="midnightblue" points="617.91,-169.93 628.4,-168.44 619.27,-163.06 617.91,-169.93"/>
</g>
<!-- Node16 -->
<g id="node16" class="node">
<title>Node16</title>
<g id="a_node16"><a xlink:href="_write_event_dispatcher_8h.html" target="_top" xlink:title=" ">
<polygon fill="white" stroke="black" points="524.5,-112.5 524.5,-131.5 660.5,-131.5 660.5,-112.5 524.5,-112.5"/>
<text text-anchor="middle" x="592.5" y="-119.5" font-family="Helvetica,sans-Serif" font-size="10.00">net/WriteEventDispatcher.h</text>
</a>
</g>
</g>
<!-- Node2&#45;&gt;Node16 -->
<g id="edge22" class="edge">
<title>Node2&#45;&gt;Node16</title>
<path fill="none" stroke="midnightblue" d="M650.47,-162.62C636.03,-152.76 617.36,-139.99 605.16,-131.65"/>
<polygon fill="midnightblue" stroke="midnightblue" points="648.58,-165.57 658.81,-168.32 652.53,-159.79 648.58,-165.57"/>
</g>
<!-- Node4 -->
<g id="node4" class="node">
<title>Node4</title>
<g id="a_node4"><a xlink:href="_accept_event_receiver_8cpp.html" target="_top" xlink:title=" ">
<polygon fill="white" stroke="black" points="677.5,-0.5 677.5,-19.5 823.5,-19.5 823.5,-0.5 677.5,-0.5"/>
<text text-anchor="middle" x="750.5" y="-7.5" font-family="Helvetica,sans-Serif" font-size="10.00">net/AcceptEventReceiver.cpp</text>
</a>
</g>
</g>
<!-- Node3&#45;&gt;Node4 -->
<g id="edge3" class="edge">
<title>Node3&#45;&gt;Node4</title>
<path fill="none" stroke="midnightblue" d="M750.5,-102.35C750.5,-78.25 750.5,-37.31 750.5,-19.59"/>
<polygon fill="midnightblue" stroke="midnightblue" points="747,-102.37 750.5,-112.37 754,-102.37 747,-102.37"/>
</g>
<!-- Node3&#45;&gt;Node5 -->
<g id="edge4" class="edge">
<title>Node3&#45;&gt;Node5</title>
<path fill="none" stroke="midnightblue" d="M716.83,-109.04C688.23,-98.88 647.89,-84.55 622.47,-75.52"/>
<polygon fill="midnightblue" stroke="midnightblue" points="715.82,-112.39 726.42,-112.44 718.16,-105.8 715.82,-112.39"/>
</g>
<!-- Node5&#45;&gt;Node4 -->
<g id="edge5" class="edge">
<title>Node5&#45;&gt;Node4</title>
<path fill="none" stroke="midnightblue" d="M632.17,-53.04C660.77,-42.88 701.11,-28.55 726.53,-19.52"/>
<polygon fill="midnightblue" stroke="midnightblue" points="630.84,-49.8 622.58,-56.44 633.18,-56.39 630.84,-49.8"/>
</g>
<!-- Node6 -->
<g id="node6" class="node">
<title>Node6</title>
<g id="a_node6"><a xlink:href="_connect_event_receiver_8cpp.html" target="_top" xlink:title=" ">
<polygon fill="white" stroke="black" points="841.5,-0.5 841.5,-19.5 993.5,-19.5 993.5,-0.5 841.5,-0.5"/>
<text text-anchor="middle" x="917.5" y="-7.5" font-family="Helvetica,sans-Serif" font-size="10.00">net/ConnectEventReceiver.cpp</text>
</a>
</g>
</g>
<!-- Node5&#45;&gt;Node6 -->
<g id="edge6" class="edge">
<title>Node5&#45;&gt;Node6</title>
<path fill="none" stroke="midnightblue" d="M652.56,-55.85C712.56,-45.69 808.62,-29.43 867.1,-19.53"/>
<polygon fill="midnightblue" stroke="midnightblue" points="651.8,-52.43 642.52,-57.55 652.96,-59.33 651.8,-52.43"/>
</g>
<!-- Node7 -->
<g id="node7" class="node">
<title>Node7</title>
<g id="a_node7"><a xlink:href="_event_loop_8cpp.html" target="_top" xlink:title=" ">
<polygon fill="white" stroke="black" points="313.5,-0.5 313.5,-19.5 411.5,-19.5 411.5,-0.5 313.5,-0.5"/>
<text text-anchor="middle" x="362.5" y="-7.5" font-family="Helvetica,sans-Serif" font-size="10.00">net/EventLoop.cpp</text>
</a>
</g>
</g>
<!-- Node5&#45;&gt;Node7 -->
<g id="edge7" class="edge">
<title>Node5&#45;&gt;Node7</title>
<path fill="none" stroke="midnightblue" d="M551.09,-54.15C506.5,-43.95 440.65,-28.88 399.72,-19.52"/>
<polygon fill="midnightblue" stroke="midnightblue" points="550.58,-57.62 561.11,-56.44 552.14,-50.8 550.58,-57.62"/>
</g>
<!-- Node8 -->
<g id="node8" class="node">
<title>Node8</title>
<g id="a_node8"><a xlink:href="_out_of_band_event_receiver_8cpp.html" target="_top" xlink:title=" ">
<polygon fill="white" stroke="black" points="1011.5,-0.5 1011.5,-19.5 1175.5,-19.5 1175.5,-0.5 1011.5,-0.5"/>
<text text-anchor="middle" x="1093.5" y="-7.5" font-family="Helvetica,sans-Serif" font-size="10.00">net/OutOfBandEventReceiver.cpp</text>
</a>
</g>
</g>
<!-- Node5&#45;&gt;Node8 -->
<g id="edge8" class="edge">
<title>Node5&#45;&gt;Node8</title>
<path fill="none" stroke="midnightblue" d="M652.88,-59.07C740.71,-49.49 914.14,-30.57 1015.24,-19.54"/>
<polygon fill="midnightblue" stroke="midnightblue" points="652.42,-55.6 642.86,-60.16 653.18,-62.56 652.42,-55.6"/>
</g>
<!-- Node9 -->
<g id="node9" class="node">
<title>Node9</title>
<g id="a_node9"><a xlink:href="_read_event_receiver_8cpp.html" target="_top" xlink:title=" ">
<polygon fill="white" stroke="black" points="0,-0.5 0,-19.5 139,-19.5 139,-0.5 0,-0.5"/>
<text text-anchor="middle" x="69.5" y="-7.5" font-family="Helvetica,sans-Serif" font-size="10.00">net/ReadEventReceiver.cpp</text>
</a>
</g>
</g>
<!-- Node5&#45;&gt;Node9 -->
<g id="edge9" class="edge">
<title>Node5&#45;&gt;Node9</title>
<path fill="none" stroke="midnightblue" d="M544.27,-59.82C459.69,-51.69 291.27,-35.27 148.5,-20 145.48,-19.68 142.4,-19.34 139.28,-19"/>
<polygon fill="midnightblue" stroke="midnightblue" points="544.12,-63.32 554.41,-60.79 544.79,-56.35 544.12,-63.32"/>
</g>
<!-- Node10 -->
<g id="node10" class="node">
<title>Node10</title>
<g id="a_node10"><a xlink:href="_timer_8cpp.html" target="_top" xlink:title=" ">
<polygon fill="white" stroke="black" points="430,-0.5 430,-19.5 531,-19.5 531,-0.5 430,-0.5"/>
<text text-anchor="middle" x="480.5" y="-7.5" font-family="Helvetica,sans-Serif" font-size="10.00">net/timer/Timer.cpp</text>
</a>
</g>
</g>
<!-- Node5&#45;&gt;Node10 -->
<g id="edge10" class="edge">
<title>Node5&#45;&gt;Node10</title>
<path fill="none" stroke="midnightblue" d="M570.6,-52.23C548.53,-42.13 518.32,-28.31 499.11,-19.52"/>
<polygon fill="midnightblue" stroke="midnightblue" points="569.25,-55.46 579.8,-56.44 572.17,-49.1 569.25,-55.46"/>
</g>
<!-- Node11 -->
<g id="node11" class="node">
<title>Node11</title>
<g id="a_node11"><a xlink:href="_write_event_receiver_8cpp.html" target="_top" xlink:title=" ">
<polygon fill="white" stroke="black" points="157.5,-0.5 157.5,-19.5 295.5,-19.5 295.5,-0.5 157.5,-0.5"/>
<text text-anchor="middle" x="226.5" y="-7.5" font-family="Helvetica,sans-Serif" font-size="10.00">net/WriteEventReceiver.cpp</text>
</a>
</g>
</g>
<!-- Node5&#45;&gt;Node11 -->
<g id="edge11" class="edge">
<title>Node5&#45;&gt;Node11</title>
<path fill="none" stroke="midnightblue" d="M544.14,-57.11C475.07,-47.08 356.34,-29.85 285.25,-19.53"/>
<polygon fill="midnightblue" stroke="midnightblue" points="543.97,-60.62 554.37,-58.59 544.97,-53.69 543.97,-60.62"/>
</g>
<!-- Node12 -->
<g id="node12" class="node">
<title>Node12</title>
<g id="a_node12"><a xlink:href="_web_app_8cpp.html" target="_top" xlink:title=" ">
<polygon fill="white" stroke="black" points="549.5,-0.5 549.5,-19.5 659.5,-19.5 659.5,-0.5 549.5,-0.5"/>
<text text-anchor="middle" x="604.5" y="-7.5" font-family="Helvetica,sans-Serif" font-size="10.00">express/WebApp.cpp</text>
</a>
</g>
</g>
<!-- Node5&#45;&gt;Node12 -->
<g id="edge12" class="edge">
<title>Node5&#45;&gt;Node12</title>
<path fill="none" stroke="midnightblue" d="M600.6,-46.1C601.6,-37.14 602.74,-26.86 603.53,-19.75"/>
<polygon fill="midnightblue" stroke="midnightblue" points="597.12,-45.76 599.49,-56.08 604.07,-46.53 597.12,-45.76"/>
</g>
<!-- Node13&#45;&gt;Node5 -->
<g id="edge15" class="edge">
<title>Node13&#45;&gt;Node5</title>
<path fill="none" stroke="midnightblue" d="M855.23,-110.73C793.18,-100.16 697.98,-83.95 642.62,-74.52"/>
<polygon fill="midnightblue" stroke="midnightblue" points="854.82,-114.21 865.27,-112.44 856,-107.31 854.82,-114.21"/>
</g>
<!-- Node13&#45;&gt;Node6 -->
<g id="edge14" class="edge">
<title>Node13&#45;&gt;Node6</title>
<path fill="none" stroke="midnightblue" d="M915.84,-102.35C916.28,-78.25 917.02,-37.31 917.34,-19.59"/>
<polygon fill="midnightblue" stroke="midnightblue" points="912.34,-102.31 915.66,-112.37 919.34,-102.43 912.34,-102.31"/>
</g>
<!-- Node14&#45;&gt;Node5 -->
<g id="edge17" class="edge">
<title>Node14&#45;&gt;Node5</title>
<path fill="none" stroke="midnightblue" d="M1001.98,-111.37C896.53,-99.78 723.49,-80.75 642.67,-71.86"/>
<polygon fill="midnightblue" stroke="midnightblue" points="1001.65,-114.86 1011.97,-112.47 1002.41,-107.9 1001.65,-114.86"/>
</g>
<!-- Node14&#45;&gt;Node8 -->
<g id="edge18" class="edge">
<title>Node14&#45;&gt;Node8</title>
<path fill="none" stroke="midnightblue" d="M1090.18,-102.35C1091.05,-78.25 1092.54,-37.31 1093.19,-19.59"/>
<polygon fill="midnightblue" stroke="midnightblue" points="1086.68,-102.25 1089.81,-112.37 1093.68,-102.5 1086.68,-102.25"/>
</g>
<!-- Node15&#45;&gt;Node5 -->
<g id="edge20" class="edge">
<title>Node15&#45;&gt;Node5</title>
<path fill="none" stroke="midnightblue" d="M441.15,-109.7C478.71,-99.51 533.11,-84.74 567.12,-75.52"/>
<polygon fill="midnightblue" stroke="midnightblue" points="439.77,-106.45 431.03,-112.44 441.6,-113.2 439.77,-106.45"/>
</g>
<!-- Node15&#45;&gt;Node9 -->
<g id="edge21" class="edge">
<title>Node15&#45;&gt;Node9</title>
<path fill="none" stroke="midnightblue" d="M364.22,-109.24C297.45,-86.98 154.02,-39.17 95.33,-19.61"/>
<polygon fill="midnightblue" stroke="midnightblue" points="363.29,-112.62 373.88,-112.46 365.5,-105.98 363.29,-112.62"/>
</g>
<!-- Node16&#45;&gt;Node5 -->
<g id="edge23" class="edge">
<title>Node16&#45;&gt;Node5</title>
<path fill="none" stroke="midnightblue" d="M594.6,-102.1C595.6,-93.14 596.74,-82.86 597.53,-75.75"/>
<polygon fill="midnightblue" stroke="midnightblue" points="591.12,-101.76 593.49,-112.08 598.07,-102.53 591.12,-101.76"/>
</g>
<!-- Node16&#45;&gt;Node11 -->
<g id="edge24" class="edge">
<title>Node16&#45;&gt;Node11</title>
<path fill="none" stroke="midnightblue" d="M554.27,-109.51C480.51,-87.34 320.09,-39.13 254.9,-19.53"/>
<polygon fill="midnightblue" stroke="midnightblue" points="553.5,-112.93 564.09,-112.46 555.52,-106.23 553.5,-112.93"/>
</g>
</g>
</svg>
