<?xml version="1.0" encoding="UTF-8" standalone="no"?>
<!DOCTYPE svg PUBLIC "-//W3C//DTD SVG 1.1//EN"
 "http://www.w3.org/Graphics/SVG/1.1/DTD/svg11.dtd">
<!-- Generated by graphviz version 2.43.0 (0)
 -->
<!-- Title: log/Logger.h Pages: 1 -->
<svg width="2920pt" height="475pt"
 viewBox="0.00 0.00 2919.50 475.00" xmlns="http://www.w3.org/2000/svg" xmlns:xlink="http://www.w3.org/1999/xlink">
<g id="graph0" class="graph" transform="scale(1 1) rotate(0) translate(4 471)">
<title>log/Logger.h</title>
<polygon fill="white" stroke="transparent" points="-4,4 -4,-471 2915.5,-471 2915.5,4 -4,4"/>
<!-- Node1 -->
<g id="node1" class="node">
<title>Node1</title>
<g id="a_node1"><a xlink:title=" ">
<polygon fill="#bfbfbf" stroke="black" points="1766.5,-447.5 1766.5,-466.5 1835.5,-466.5 1835.5,-447.5 1766.5,-447.5"/>
<text text-anchor="middle" x="1801" y="-454.5" font-family="Helvetica,sans-Serif" font-size="10.00">log/Logger.h</text>
</a>
</g>
</g>
<!-- Node2 -->
<g id="node2" class="node">
<title>Node2</title>
<g id="a_node2"><a xlink:href="_event_dispatcher_8h.html" target="_top" xlink:title=" ">
<polygon fill="white" stroke="black" points="553.5,-386 553.5,-405 666.5,-405 666.5,-386 553.5,-386"/>
<text text-anchor="middle" x="610" y="-393" font-family="Helvetica,sans-Serif" font-size="10.00">net/EventDispatcher.h</text>
</a>
</g>
</g>
<!-- Node1&#45;&gt;Node2 -->
<g id="edge1" class="edge">
<title>Node1&#45;&gt;Node2</title>
<path fill="none" stroke="midnightblue" d="M1756.17,-453.76C1571.76,-444.55 871.79,-409.58 666.76,-399.34"/>
<polygon fill="midnightblue" stroke="midnightblue" points="1756.16,-457.26 1766.32,-454.27 1756.51,-450.27 1756.16,-457.26"/>
</g>
<!-- Node7 -->
<g id="node7" class="node">
<title>Node7</title>
<g id="a_node7"><a xlink:href="_event_loop_8cpp.html" target="_top" xlink:title=" ">
<polygon fill="white" stroke="black" points="950,-185 950,-204 1048,-204 1048,-185 950,-185"/>
<text text-anchor="middle" x="999" y="-192" font-family="Helvetica,sans-Serif" font-size="10.00">net/EventLoop.cpp</text>
</a>
</g>
</g>
<!-- Node1&#45;&gt;Node7 -->
<g id="edge25" class="edge">
<title>Node1&#45;&gt;Node7</title>
<path fill="none" stroke="midnightblue" d="M1755.87,-455.63C1610.81,-454.07 1162.85,-446.42 1109,-411 1031.8,-360.21 1006.05,-237.56 1000.33,-204.07"/>
<polygon fill="midnightblue" stroke="midnightblue" points="1756.14,-459.13 1766.18,-455.73 1756.21,-452.13 1756.14,-459.13"/>
</g>
<!-- Node12 -->
<g id="node12" class="node">
<title>Node12</title>
<g id="a_node12"><a xlink:href="_web_app_8cpp.html" target="_top" xlink:title=" ">
<polygon fill="white" stroke="black" points="1066,-185 1066,-204 1176,-204 1176,-185 1066,-185"/>
<text text-anchor="middle" x="1121" y="-192" font-family="Helvetica,sans-Serif" font-size="10.00">express/WebApp.cpp</text>
</a>
</g>
</g>
<!-- Node1&#45;&gt;Node12 -->
<g id="edge69" class="edge">
<title>Node1&#45;&gt;Node12</title>
<path fill="none" stroke="midnightblue" d="M1756.21,-456.35C1613.4,-457.01 1175.66,-455.37 1132,-411 1074.46,-352.52 1107.32,-236.39 1118.02,-204.04"/>
<polygon fill="midnightblue" stroke="midnightblue" points="1756.38,-459.85 1766.36,-456.3 1756.35,-452.85 1756.38,-459.85"/>
</g>
<!-- Node17 -->
<g id="node17" class="node">
<title>Node17</title>
<g id="a_node17"><a xlink:href="_file_reader_8cpp.html" target="_top" xlink:title=" ">
<polygon fill="white" stroke="black" points="1141,-386 1141,-405 1255,-405 1255,-386 1141,-386"/>
<text text-anchor="middle" x="1198" y="-393" font-family="Helvetica,sans-Serif" font-size="10.00">net/file/FileReader.cpp</text>
</a>
</g>
</g>
<!-- Node1&#45;&gt;Node17 -->
<g id="edge26" class="edge">
<title>Node1&#45;&gt;Node17</title>
<path fill="none" stroke="midnightblue" d="M1756.25,-453.99C1664.49,-449.47 1448.55,-436.84 1269,-411 1258.04,-409.42 1246.23,-407.22 1235.44,-405"/>
<polygon fill="midnightblue" stroke="midnightblue" points="1756.14,-457.49 1766.3,-454.47 1756.48,-450.49 1756.14,-457.49"/>
</g>
<!-- Node18 -->
<g id="node18" class="node">
<title>Node18</title>
<g id="a_node18"><a xlink:href="_socket_listener_8h.html" target="_top" xlink:title=" ">
<polygon fill="white" stroke="black" points="1521,-313.5 1521,-343.5 1643,-343.5 1643,-313.5 1521,-313.5"/>
<text text-anchor="start" x="1529" y="-331.5" font-family="Helvetica,sans-Serif" font-size="10.00">net/socket/sock_stream</text>
<text text-anchor="middle" x="1582" y="-320.5" font-family="Helvetica,sans-Serif" font-size="10.00">/SocketListener.h</text>
</a>
</g>
</g>
<!-- Node1&#45;&gt;Node18 -->
<g id="edge27" class="edge">
<title>Node1&#45;&gt;Node18</title>
<path fill="none" stroke="midnightblue" d="M1755.96,-450.46C1706.47,-443.52 1631.16,-430.16 1610,-411 1590.59,-393.43 1584.63,-361.8 1582.81,-343.54"/>
<polygon fill="midnightblue" stroke="midnightblue" points="1755.72,-453.96 1766.1,-451.84 1756.66,-447.02 1755.72,-453.96"/>
</g>
<!-- Node31 -->
<g id="node27" class="node">
<title>Node31</title>
<g id="a_node27"><a xlink:href="tls_2_socket_listener_8h.html" target="_top" xlink:title=" ">
<polygon fill="white" stroke="black" points="1702,-246.5 1702,-276.5 1824,-276.5 1824,-246.5 1702,-246.5"/>
<text text-anchor="start" x="1710" y="-264.5" font-family="Helvetica,sans-Serif" font-size="10.00">net/socket/sock_stream</text>
<text text-anchor="middle" x="1763" y="-253.5" font-family="Helvetica,sans-Serif" font-size="10.00">/tls/SocketListener.h</text>
</a>
</g>
</g>
<!-- Node1&#45;&gt;Node31 -->
<g id="edge46" class="edge">
<title>Node1&#45;&gt;Node31</title>
<path fill="none" stroke="midnightblue" d="M1756.31,-449.36C1714.56,-442.13 1656.69,-429.14 1643,-411 1614.46,-373.2 1685.23,-317.74 1690,-313 1704.32,-298.77 1723.1,-285.88 1738.03,-276.69"/>
<polygon fill="midnightblue" stroke="midnightblue" points="1755.83,-452.83 1766.27,-451.03 1756.98,-445.92 1755.83,-452.83"/>
</g>
<!-- Node32 -->
<g id="node28" class="node">
<title>Node32</title>
<g id="a_node28"><a xlink:href="tls_2_socket_connector_8h.html" target="_top" xlink:title=" ">
<polygon fill="white" stroke="black" points="1925,-246.5 1925,-276.5 2047,-276.5 2047,-246.5 1925,-246.5"/>
<text text-anchor="start" x="1933" y="-264.5" font-family="Helvetica,sans-Serif" font-size="10.00">net/socket/sock_stream</text>
<text text-anchor="middle" x="1986" y="-253.5" font-family="Helvetica,sans-Serif" font-size="10.00">/tls/SocketConnector.h</text>
</a>
</g>
</g>
<!-- Node1&#45;&gt;Node32 -->
<g id="edge40" class="edge">
<title>Node1&#45;&gt;Node32</title>
<path fill="none" stroke="midnightblue" d="M1846.2,-452.81C1901.61,-447.86 1990.69,-436.13 2011,-411 2043.21,-371.15 2011.45,-305.27 1994.78,-276.58"/>
<polygon fill="midnightblue" stroke="midnightblue" points="1845.6,-449.35 1835.93,-453.69 1846.19,-456.33 1845.6,-449.35"/>
</g>
<!-- Node37 -->
<g id="node33" class="node">
<title>Node37</title>
<g id="a_node33"><a xlink:href="tls_2_socket_reader_8h.html" target="_top" xlink:title=" ">
<polygon fill="white" stroke="black" points="1740,-380.5 1740,-410.5 1862,-410.5 1862,-380.5 1740,-380.5"/>
<text text-anchor="start" x="1748" y="-398.5" font-family="Helvetica,sans-Serif" font-size="10.00">net/socket/sock_stream</text>
<text text-anchor="middle" x="1801" y="-387.5" font-family="Helvetica,sans-Serif" font-size="10.00">/tls/SocketReader.h</text>
</a>
</g>
</g>
<!-- Node1&#45;&gt;Node37 -->
<g id="edge47" class="edge">
<title>Node1&#45;&gt;Node37</title>
<path fill="none" stroke="midnightblue" d="M1801,-437.23C1801,-428.59 1801,-418.5 1801,-410.52"/>
<polygon fill="midnightblue" stroke="midnightblue" points="1797.5,-437.48 1801,-447.48 1804.5,-437.48 1797.5,-437.48"/>
</g>
<!-- Node39 -->
<g id="node35" class="node">
<title>Node39</title>
<g id="a_node35"><a xlink:href="tls_2_socket_writer_8h.html" target="_top" xlink:title=" ">
<polygon fill="white" stroke="black" points="1880,-380.5 1880,-410.5 2002,-410.5 2002,-380.5 1880,-380.5"/>
<text text-anchor="start" x="1888" y="-398.5" font-family="Helvetica,sans-Serif" font-size="10.00">net/socket/sock_stream</text>
<text text-anchor="middle" x="1941" y="-387.5" font-family="Helvetica,sans-Serif" font-size="10.00">/tls/SocketWriter.h</text>
</a>
</g>
</g>
<!-- Node1&#45;&gt;Node39 -->
<g id="edge51" class="edge">
<title>Node1&#45;&gt;Node39</title>
<path fill="none" stroke="midnightblue" d="M1830.5,-443.46C1853.18,-433.82 1884.5,-420.51 1908,-410.52"/>
<polygon fill="midnightblue" stroke="midnightblue" points="1828.89,-440.34 1821.06,-447.48 1831.63,-446.78 1828.89,-440.34"/>
</g>
<!-- Node40 -->
<g id="node36" class="node">
<title>Node40</title>
<g id="a_node36"><a xlink:href="_client_8h.html" target="_top" xlink:title=" ">
<polygon fill="white" stroke="black" points="1652,-386 1652,-405 1722,-405 1722,-386 1652,-386"/>
<text text-anchor="middle" x="1687" y="-393" font-family="Helvetica,sans-Serif" font-size="10.00">http/Client.h</text>
</a>
</g>
</g>
<!-- Node1&#45;&gt;Node40 -->
<g id="edge53" class="edge">
<title>Node1&#45;&gt;Node40</title>
<path fill="none" stroke="midnightblue" d="M1775.54,-442.71C1753.46,-431.19 1722.17,-414.86 1703.3,-405.01"/>
<polygon fill="midnightblue" stroke="midnightblue" points="1774.18,-445.95 1784.67,-447.48 1777.42,-439.75 1774.18,-445.95"/>
</g>
<!-- Node42 -->
<g id="node38" class="node">
<title>Node42</title>
<g id="a_node38"><a xlink:href="_mime_types_8cpp.html" target="_top" xlink:title=" ">
<polygon fill="white" stroke="black" points="2058.5,-386 2058.5,-405 2163.5,-405 2163.5,-386 2058.5,-386"/>
<text text-anchor="middle" x="2111" y="-393" font-family="Helvetica,sans-Serif" font-size="10.00">http/MimeTypes.cpp</text>
</a>
</g>
</g>
<!-- Node1&#45;&gt;Node42 -->
<g id="edge56" class="edge">
<title>Node1&#45;&gt;Node42</title>
<path fill="none" stroke="midnightblue" d="M1845.59,-448.16C1894.38,-439.48 1974.88,-424.88 2044,-411 2053.22,-409.15 2063.13,-407.06 2072.42,-405.06"/>
<polygon fill="midnightblue" stroke="midnightblue" points="1844.9,-444.72 1835.67,-449.92 1846.13,-451.62 1844.9,-444.72"/>
</g>
<!-- Node43 -->
<g id="node39" class="node">
<title>Node43</title>
<g id="a_node39"><a xlink:href="_parser_8cpp.html" target="_top" xlink:title=" ">
<polygon fill="white" stroke="black" points="2181.5,-386 2181.5,-405 2264.5,-405 2264.5,-386 2181.5,-386"/>
<text text-anchor="middle" x="2223" y="-393" font-family="Helvetica,sans-Serif" font-size="10.00">http/Parser.cpp</text>
</a>
</g>
</g>
<!-- Node1&#45;&gt;Node43 -->
<g id="edge57" class="edge">
<title>Node1&#45;&gt;Node43</title>
<path fill="none" stroke="midnightblue" d="M1845.92,-452.93C1916.23,-447.59 2056.29,-434.82 2173,-411 2180.7,-409.43 2188.95,-407.25 2196.47,-405.06"/>
<polygon fill="midnightblue" stroke="midnightblue" points="1845.37,-449.46 1835.66,-453.69 1845.89,-456.44 1845.37,-449.46"/>
</g>
<!-- Node44 -->
<g id="node40" class="node">
<title>Node44</title>
<g id="a_node40"><a xlink:href="_request_parser_8cpp.html" target="_top" xlink:title=" ">
<polygon fill="white" stroke="black" points="2282.5,-386 2282.5,-405 2401.5,-405 2401.5,-386 2282.5,-386"/>
<text text-anchor="middle" x="2342" y="-393" font-family="Helvetica,sans-Serif" font-size="10.00">http/RequestParser.cpp</text>
</a>
</g>
</g>
<!-- Node1&#45;&gt;Node44 -->
<g id="edge58" class="edge">
<title>Node1&#45;&gt;Node44</title>
<path fill="none" stroke="midnightblue" d="M1845.82,-453.46C1930.06,-448.31 2117.62,-435.03 2274,-411 2284.38,-409.4 2295.56,-407.22 2305.79,-405.03"/>
<polygon fill="midnightblue" stroke="midnightblue" points="1845.36,-449.98 1835.59,-454.08 1845.78,-456.97 1845.36,-449.98"/>
</g>
<!-- Node45 -->
<g id="node41" class="node">
<title>Node45</title>
<g id="a_node41"><a xlink:href="_response_parser_8cpp.html" target="_top" xlink:title=" ">
<polygon fill="white" stroke="black" points="2419.5,-386 2419.5,-405 2546.5,-405 2546.5,-386 2419.5,-386"/>
<text text-anchor="middle" x="2483" y="-393" font-family="Helvetica,sans-Serif" font-size="10.00">http/ResponseParser.cpp</text>
</a>
</g>
</g>
<!-- Node1&#45;&gt;Node45 -->
<g id="edge59" class="edge">
<title>Node1&#45;&gt;Node45</title>
<path fill="none" stroke="midnightblue" d="M1845.71,-454.62C1946.82,-451.07 2200.66,-439.82 2411,-411 2422.12,-409.48 2434.1,-407.29 2445.04,-405.07"/>
<polygon fill="midnightblue" stroke="midnightblue" points="1845.43,-451.12 1835.55,-454.97 1845.67,-458.12 1845.43,-451.12"/>
</g>
<!-- Node46 -->
<g id="node42" class="node">
<title>Node46</title>
<g id="a_node42"><a xlink:href="_server_context_8hpp.html" target="_top" xlink:title=" ">
<polygon fill="white" stroke="black" points="1393,-386 1393,-405 1511,-405 1511,-386 1393,-386"/>
<text text-anchor="middle" x="1452" y="-393" font-family="Helvetica,sans-Serif" font-size="10.00">http/ServerContext.hpp</text>
</a>
</g>
</g>
<!-- Node1&#45;&gt;Node46 -->
<g id="edge60" class="edge">
<title>Node1&#45;&gt;Node46</title>
<path fill="none" stroke="midnightblue" d="M1756.28,-448.38C1691.01,-437.25 1570.04,-416.62 1501.94,-405.01"/>
<polygon fill="midnightblue" stroke="midnightblue" points="1755.81,-451.85 1766.26,-450.08 1756.99,-444.95 1755.81,-451.85"/>
</g>
<!-- Node49 -->
<g id="node47" class="node">
<title>Node49</title>
<g id="a_node47"><a xlink:href="_logger_8cpp.html" target="_top" xlink:title=" ">
<polygon fill="white" stroke="black" points="2565,-386 2565,-405 2645,-405 2645,-386 2565,-386"/>
<text text-anchor="middle" x="2605" y="-393" font-family="Helvetica,sans-Serif" font-size="10.00">log/Logger.cpp</text>
</a>
</g>
</g>
<!-- Node1&#45;&gt;Node49 -->
<g id="edge66" class="edge">
<title>Node1&#45;&gt;Node49</title>
<path fill="none" stroke="midnightblue" d="M1845.76,-454.67C1986.39,-450.29 2418.15,-435.18 2556,-411 2563.95,-409.61 2572.44,-407.37 2580.08,-405.07"/>
<polygon fill="midnightblue" stroke="midnightblue" points="1845.65,-451.17 1835.76,-454.98 1845.86,-458.17 1845.65,-451.17"/>
</g>
<!-- Node50 -->
<g id="node48" class="node">
<title>Node50</title>
<g id="a_node48"><a xlink:href="_static_middleware_8cpp.html" target="_top" xlink:title=" ">
<polygon fill="white" stroke="black" points="2663.5,-380.5 2663.5,-410.5 2776.5,-410.5 2776.5,-380.5 2663.5,-380.5"/>
<text text-anchor="start" x="2671.5" y="-398.5" font-family="Helvetica,sans-Serif" font-size="10.00">express/middleware</text>
<text text-anchor="middle" x="2720" y="-387.5" font-family="Helvetica,sans-Serif" font-size="10.00">/StaticMiddleware.cpp</text>
</a>
</g>
</g>
<!-- Node1&#45;&gt;Node50 -->
<g id="edge67" class="edge">
<title>Node1&#45;&gt;Node50</title>
<path fill="none" stroke="midnightblue" d="M1845.86,-456.21C1973.12,-456.25 2347.04,-452.53 2654,-411 2657.02,-410.59 2660.11,-410.12 2663.22,-409.59"/>
<polygon fill="midnightblue" stroke="midnightblue" points="1845.73,-452.71 1835.72,-456.2 1845.72,-459.71 1845.73,-452.71"/>
</g>
<!-- Node51 -->
<g id="node49" class="node">
<title>Node51</title>
<g id="a_node49"><a xlink:href="express_2_response_8cpp.html" target="_top" xlink:title=" ">
<polygon fill="white" stroke="black" points="2794.5,-386 2794.5,-405 2911.5,-405 2911.5,-386 2794.5,-386"/>
<text text-anchor="middle" x="2853" y="-393" font-family="Helvetica,sans-Serif" font-size="10.00">express/Response.cpp</text>
</a>
</g>
</g>
<!-- Node1&#45;&gt;Node51 -->
<g id="edge68" class="edge">
<title>Node1&#45;&gt;Node51</title>
<path fill="none" stroke="midnightblue" d="M1845.96,-456.61C1985.87,-457.96 2425.75,-457.88 2786,-411 2796.74,-409.6 2808.31,-407.37 2818.76,-405.06"/>
<polygon fill="midnightblue" stroke="midnightblue" points="1845.68,-453.11 1835.64,-456.51 1845.6,-460.11 1845.68,-453.11"/>
</g>
<!-- Node52 -->
<g id="node50" class="node">
<title>Node52</title>
<g id="a_node50"><a xlink:href="_web_app_t_8h.html" target="_top" xlink:title=" ">
<polygon fill="white" stroke="black" points="1138,-252 1138,-271 1242,-271 1242,-252 1138,-252"/>
<text text-anchor="middle" x="1190" y="-259" font-family="Helvetica,sans-Serif" font-size="10.00">express/WebAppT.h</text>
</a>
</g>
</g>
<!-- Node1&#45;&gt;Node52 -->
<g id="edge70" class="edge">
<title>Node1&#45;&gt;Node52</title>
<path fill="none" stroke="midnightblue" d="M1755.93,-454.2C1662.48,-449.97 1450.73,-437.68 1384,-411 1300.51,-377.61 1222.26,-297.68 1197.82,-271.19"/>
<polygon fill="midnightblue" stroke="midnightblue" points="1756.05,-457.71 1766.2,-454.65 1756.36,-450.72 1756.05,-457.71"/>
</g>
<!-- Node3 -->
<g id="node3" class="node">
<title>Node3</title>
<g id="a_node3"><a xlink:href="_accept_event_dispatcher_8h.html" target="_top" xlink:title=" ">
<polygon fill="white" stroke="black" points="617,-319 617,-338 761,-338 761,-319 617,-319"/>
<text text-anchor="middle" x="689" y="-326" font-family="Helvetica,sans-Serif" font-size="10.00">net/AcceptEventDispatcher.h</text>
</a>
</g>
</g>
<!-- Node2&#45;&gt;Node3 -->
<g id="edge2" class="edge">
<title>Node2&#45;&gt;Node3</title>
<path fill="none" stroke="midnightblue" d="M628.58,-379.21C644.14,-366.41 665.8,-348.59 678.51,-338.13"/>
<polygon fill="midnightblue" stroke="midnightblue" points="626.15,-376.68 620.65,-385.73 630.6,-382.08 626.15,-376.68"/>
</g>
<!-- Node13 -->
<g id="node13" class="node">
<title>Node13</title>
<g id="a_node13"><a xlink:href="_connect_event_dispatcher_8h.html" target="_top" xlink:title=" ">
<polygon fill="white" stroke="black" points="779,-319 779,-338 929,-338 929,-319 779,-319"/>
<text text-anchor="middle" x="854" y="-326" font-family="Helvetica,sans-Serif" font-size="10.00">net/ConnectEventDispatcher.h</text>
</a>
</g>
</g>
<!-- Node2&#45;&gt;Node13 -->
<g id="edge13" class="edge">
<title>Node2&#45;&gt;Node13</title>
<path fill="none" stroke="midnightblue" d="M651.96,-383.32C700.13,-370.49 778.13,-349.71 821.78,-338.08"/>
<polygon fill="midnightblue" stroke="midnightblue" points="650.91,-379.98 642.15,-385.94 652.71,-386.74 650.91,-379.98"/>
</g>
<!-- Node14 -->
<g id="node14" class="node">
<title>Node14</title>
<g id="a_node14"><a xlink:href="_out_of_band_event_dispatcher_8h.html" target="_top" xlink:title=" ">
<polygon fill="white" stroke="black" points="127,-319 127,-338 289,-338 289,-319 127,-319"/>
<text text-anchor="middle" x="208" y="-326" font-family="Helvetica,sans-Serif" font-size="10.00">net/OutOfBandEventDispatcher.h</text>
</a>
</g>
</g>
<!-- Node2&#45;&gt;Node14 -->
<g id="edge16" class="edge">
<title>Node2&#45;&gt;Node14</title>
<path fill="none" stroke="midnightblue" d="M546.75,-384.27C467.86,-371.52 334.42,-349.94 260.77,-338.03"/>
<polygon fill="midnightblue" stroke="midnightblue" points="546.6,-387.79 557.03,-385.94 547.72,-380.88 546.6,-387.79"/>
</g>
<!-- Node15 -->
<g id="node15" class="node">
<title>Node15</title>
<g id="a_node15"><a xlink:href="_read_event_dispatcher_8h.html" target="_top" xlink:title=" ">
<polygon fill="white" stroke="black" points="307.5,-319 307.5,-338 444.5,-338 444.5,-319 307.5,-319"/>
<text text-anchor="middle" x="376" y="-326" font-family="Helvetica,sans-Serif" font-size="10.00">net/ReadEventDispatcher.h</text>
</a>
</g>
</g>
<!-- Node2&#45;&gt;Node15 -->
<g id="edge19" class="edge">
<title>Node2&#45;&gt;Node15</title>
<path fill="none" stroke="midnightblue" d="M569.22,-383.17C522.95,-370.32 448.51,-349.64 406.83,-338.06"/>
<polygon fill="midnightblue" stroke="midnightblue" points="568.35,-386.56 578.93,-385.87 570.23,-379.82 568.35,-386.56"/>
</g>
<!-- Node16 -->
<g id="node16" class="node">
<title>Node16</title>
<g id="a_node16"><a xlink:href="_write_event_dispatcher_8h.html" target="_top" xlink:title=" ">
<polygon fill="white" stroke="black" points="463,-319 463,-338 599,-338 599,-319 463,-319"/>
<text text-anchor="middle" x="531" y="-326" font-family="Helvetica,sans-Serif" font-size="10.00">net/WriteEventDispatcher.h</text>
</a>
</g>
</g>
<!-- Node2&#45;&gt;Node16 -->
<g id="edge22" class="edge">
<title>Node2&#45;&gt;Node16</title>
<path fill="none" stroke="midnightblue" d="M591.42,-379.21C575.86,-366.41 554.2,-348.59 541.49,-338.13"/>
<polygon fill="midnightblue" stroke="midnightblue" points="589.4,-382.08 599.35,-385.73 593.85,-376.68 589.4,-382.08"/>
</g>
<!-- Node4 -->
<g id="node4" class="node">
<title>Node4</title>
<g id="a_node4"><a xlink:href="_accept_event_receiver_8cpp.html" target="_top" xlink:title=" ">
<polygon fill="white" stroke="black" points="616,-185 616,-204 762,-204 762,-185 616,-185"/>
<text text-anchor="middle" x="689" y="-192" font-family="Helvetica,sans-Serif" font-size="10.00">net/AcceptEventReceiver.cpp</text>
</a>
</g>
</g>
<!-- Node3&#45;&gt;Node4 -->
<g id="edge3" class="edge">
<title>Node3&#45;&gt;Node4</title>
<path fill="none" stroke="midnightblue" d="M689,-308.78C689,-279.75 689,-225.04 689,-204.02"/>
<polygon fill="midnightblue" stroke="midnightblue" points="685.5,-308.84 689,-318.84 692.5,-308.84 685.5,-308.84"/>
</g>
<!-- Node5 -->
<g id="node5" class="node">
<title>Node5</title>
<g id="a_node5"><a xlink:href="_event_loop_8h.html" target="_top" xlink:title=" ">
<polygon fill="white" stroke="black" points="503,-252 503,-271 591,-271 591,-252 503,-252"/>
<text text-anchor="middle" x="547" y="-259" font-family="Helvetica,sans-Serif" font-size="10.00">net/EventLoop.h</text>
</a>
</g>
</g>
<!-- Node3&#45;&gt;Node5 -->
<g id="edge4" class="edge">
<title>Node3&#45;&gt;Node5</title>
<path fill="none" stroke="midnightblue" d="M660.85,-314.61C632.72,-301.74 590.27,-282.31 565.93,-271.17"/>
<polygon fill="midnightblue" stroke="midnightblue" points="659.59,-317.89 670.14,-318.87 662.51,-311.52 659.59,-317.89"/>
</g>
<!-- Node5&#45;&gt;Node4 -->
<g id="edge5" class="edge">
<title>Node5&#45;&gt;Node4</title>
<path fill="none" stroke="midnightblue" d="M575.15,-247.61C603.28,-234.74 645.73,-215.31 670.07,-204.17"/>
<polygon fill="midnightblue" stroke="midnightblue" points="573.49,-244.52 565.86,-251.87 576.41,-250.89 573.49,-244.52"/>
</g>
<!-- Node6 -->
<g id="node6" class="node">
<title>Node6</title>
<g id="a_node6"><a xlink:href="_connect_event_receiver_8cpp.html" target="_top" xlink:title=" ">
<polygon fill="white" stroke="black" points="780,-185 780,-204 932,-204 932,-185 780,-185"/>
<text text-anchor="middle" x="856" y="-192" font-family="Helvetica,sans-Serif" font-size="10.00">net/ConnectEventReceiver.cpp</text>
</a>
</g>
</g>
<!-- Node5&#45;&gt;Node6 -->
<g id="edge6" class="edge">
<title>Node5&#45;&gt;Node6</title>
<path fill="none" stroke="midnightblue" d="M597.85,-249.8C658.66,-237.01 759.22,-215.86 815.2,-204.08"/>
<polygon fill="midnightblue" stroke="midnightblue" points="596.78,-246.45 587.71,-251.94 598.22,-253.3 596.78,-246.45"/>
</g>
<!-- Node5&#45;&gt;Node7 -->
<g id="edge7" class="edge">
<title>Node5&#45;&gt;Node7</title>
<path fill="none" stroke="midnightblue" d="M601.61,-255.55C677.96,-248.16 820.77,-232.65 941,-210 949.77,-208.35 959.2,-206.17 967.84,-204"/>
<polygon fill="midnightblue" stroke="midnightblue" points="600.91,-252.1 591.29,-256.54 601.57,-259.07 600.91,-252.1"/>
</g>
<!-- Node8 -->
<g id="node8" class="node">
<title>Node8</title>
<g id="a_node8"><a xlink:href="_out_of_band_event_receiver_8cpp.html" target="_top" xlink:title=" ">
<polygon fill="white" stroke="black" points="0,-185 0,-204 164,-204 164,-185 0,-185"/>
<text text-anchor="middle" x="82" y="-192" font-family="Helvetica,sans-Serif" font-size="10.00">net/OutOfBandEventReceiver.cpp</text>
</a>
</g>
</g>
<!-- Node5&#45;&gt;Node8 -->
<g id="edge8" class="edge">
<title>Node5&#45;&gt;Node8</title>
<path fill="none" stroke="midnightblue" d="M492.61,-253.57C419.76,-244.19 286.53,-226.71 173,-210 160.5,-208.16 147.04,-206.07 134.42,-204.07"/>
<polygon fill="midnightblue" stroke="midnightblue" points="492.54,-257.09 502.91,-254.89 493.44,-250.15 492.54,-257.09"/>
</g>
<!-- Node9 -->
<g id="node9" class="node">
<title>Node9</title>
<g id="a_node9"><a xlink:href="_read_event_receiver_8cpp.html" target="_top" xlink:title=" ">
<polygon fill="white" stroke="black" points="182.5,-185 182.5,-204 321.5,-204 321.5,-185 182.5,-185"/>
<text text-anchor="middle" x="252" y="-192" font-family="Helvetica,sans-Serif" font-size="10.00">net/ReadEventReceiver.cpp</text>
</a>
</g>
</g>
<!-- Node5&#45;&gt;Node9 -->
<g id="edge9" class="edge">
<title>Node5&#45;&gt;Node9</title>
<path fill="none" stroke="midnightblue" d="M498.09,-249.72C440,-236.92 344.28,-215.83 290.96,-204.08"/>
<polygon fill="midnightblue" stroke="midnightblue" points="497.61,-253.2 508.13,-251.94 499.12,-246.37 497.61,-253.2"/>
</g>
<!-- Node10 -->
<g id="node10" class="node">
<title>Node10</title>
<g id="a_node10"><a xlink:href="_timer_8cpp.html" target="_top" xlink:title=" ">
<polygon fill="white" stroke="black" points="496.5,-185 496.5,-204 597.5,-204 597.5,-185 496.5,-185"/>
<text text-anchor="middle" x="547" y="-192" font-family="Helvetica,sans-Serif" font-size="10.00">net/timer/Timer.cpp</text>
</a>
</g>
</g>
<!-- Node5&#45;&gt;Node10 -->
<g id="edge10" class="edge">
<title>Node5&#45;&gt;Node10</title>
<path fill="none" stroke="midnightblue" d="M547,-241.54C547,-229.17 547,-213.62 547,-204.13"/>
<polygon fill="midnightblue" stroke="midnightblue" points="543.5,-241.73 547,-251.73 550.5,-241.73 543.5,-241.73"/>
</g>
<!-- Node11 -->
<g id="node11" class="node">
<title>Node11</title>
<g id="a_node11"><a xlink:href="_write_event_receiver_8cpp.html" target="_top" xlink:title=" ">
<polygon fill="white" stroke="black" points="340,-185 340,-204 478,-204 478,-185 340,-185"/>
<text text-anchor="middle" x="409" y="-192" font-family="Helvetica,sans-Serif" font-size="10.00">net/WriteEventReceiver.cpp</text>
</a>
</g>
</g>
<!-- Node5&#45;&gt;Node11 -->
<g id="edge11" class="edge">
<title>Node5&#45;&gt;Node11</title>
<path fill="none" stroke="midnightblue" d="M519.28,-247.44C491.95,-234.57 450.95,-215.26 427.4,-204.17"/>
<polygon fill="midnightblue" stroke="midnightblue" points="518.14,-250.77 528.67,-251.87 521.12,-244.44 518.14,-250.77"/>
</g>
<!-- Node5&#45;&gt;Node12 -->
<g id="edge12" class="edge">
<title>Node5&#45;&gt;Node12</title>
<path fill="none" stroke="midnightblue" d="M601.31,-257.34C694.84,-251.41 892.14,-236.73 1057,-210 1066.78,-208.41 1077.31,-206.23 1086.94,-204.04"/>
<polygon fill="midnightblue" stroke="midnightblue" points="601,-253.86 591.24,-257.97 601.44,-260.84 601,-253.86"/>
</g>
<!-- Node13&#45;&gt;Node5 -->
<g id="edge15" class="edge">
<title>Node13&#45;&gt;Node5</title>
<path fill="none" stroke="midnightblue" d="M803.48,-316.8C743.06,-304.01 643.15,-282.86 587.54,-271.08"/>
<polygon fill="midnightblue" stroke="midnightblue" points="803.04,-320.29 813.55,-318.94 804.49,-313.44 803.04,-320.29"/>
</g>
<!-- Node13&#45;&gt;Node6 -->
<g id="edge14" class="edge">
<title>Node13&#45;&gt;Node6</title>
<path fill="none" stroke="midnightblue" d="M854.28,-308.78C854.72,-279.75 855.55,-225.04 855.87,-204.02"/>
<polygon fill="midnightblue" stroke="midnightblue" points="850.78,-308.79 854.13,-318.84 857.78,-308.89 850.78,-308.79"/>
</g>
<!-- Node14&#45;&gt;Node5 -->
<g id="edge17" class="edge">
<title>Node14&#45;&gt;Node5</title>
<path fill="none" stroke="midnightblue" d="M262.58,-317.03C329.36,-304.23 441.1,-282.8 502.77,-270.98"/>
<polygon fill="midnightblue" stroke="midnightblue" points="261.83,-313.61 252.67,-318.94 263.15,-320.49 261.83,-313.61"/>
</g>
<!-- Node14&#45;&gt;Node8 -->
<g id="edge18" class="edge">
<title>Node14&#45;&gt;Node8</title>
<path fill="none" stroke="midnightblue" d="M192.63,-311.4C165.68,-283.17 110.82,-225.69 90.13,-204.02"/>
<polygon fill="midnightblue" stroke="midnightblue" points="190.3,-314.02 199.73,-318.84 195.36,-309.19 190.3,-314.02"/>
</g>
<!-- Node15&#45;&gt;Node5 -->
<g id="edge20" class="edge">
<title>Node15&#45;&gt;Node5</title>
<path fill="none" stroke="midnightblue" d="M408.17,-315.27C442.11,-302.37 494.71,-282.38 524.47,-271.06"/>
<polygon fill="midnightblue" stroke="midnightblue" points="406.81,-312.04 398.71,-318.87 409.3,-318.59 406.81,-312.04"/>
</g>
<!-- Node15&#45;&gt;Node9 -->
<g id="edge21" class="edge">
<title>Node15&#45;&gt;Node9</title>
<path fill="none" stroke="midnightblue" d="M360.87,-311.4C334.35,-283.17 280.36,-225.69 260,-204.02"/>
<polygon fill="midnightblue" stroke="midnightblue" points="358.47,-313.95 367.86,-318.84 363.57,-309.15 358.47,-313.95"/>
</g>
<!-- Node16&#45;&gt;Node5 -->
<g id="edge23" class="edge">
<title>Node16&#45;&gt;Node5</title>
<path fill="none" stroke="midnightblue" d="M535.57,-308.91C538.63,-296.49 542.52,-280.72 544.88,-271.13"/>
<polygon fill="midnightblue" stroke="midnightblue" points="532.15,-308.19 533.16,-318.73 538.95,-309.86 532.15,-308.19"/>
</g>
<!-- Node16&#45;&gt;Node11 -->
<g id="edge24" class="edge">
<title>Node16&#45;&gt;Node11</title>
<path fill="none" stroke="midnightblue" d="M516.12,-311.4C490.03,-283.17 436.9,-225.69 416.88,-204.02"/>
<polygon fill="midnightblue" stroke="midnightblue" points="513.64,-313.87 523,-318.84 518.78,-309.12 513.64,-313.87"/>
</g>
<!-- Node19 -->
<g id="node19" class="node">
<title>Node19</title>
<g id="a_node19"><a xlink:href="legacy_2_socket_listener_8h.html" target="_top" xlink:title=" ">
<polygon fill="white" stroke="black" points="1420,-246.5 1420,-276.5 1544,-276.5 1544,-246.5 1420,-246.5"/>
<text text-anchor="start" x="1428" y="-264.5" font-family="Helvetica,sans-Serif" font-size="10.00">net/socket/sock_stream</text>
<text text-anchor="middle" x="1482" y="-253.5" font-family="Helvetica,sans-Serif" font-size="10.00">/legacy/SocketListener.h</text>
</a>
</g>
</g>
<!-- Node18&#45;&gt;Node19 -->
<g id="edge28" class="edge">
<title>Node18&#45;&gt;Node19</title>
<path fill="none" stroke="midnightblue" d="M1551.59,-307.73C1536.12,-297.68 1517.67,-285.68 1503.66,-276.58"/>
<polygon fill="midnightblue" stroke="midnightblue" points="1550.01,-310.88 1560.3,-313.4 1553.82,-305.01 1550.01,-310.88"/>
</g>
<!-- Node25 -->
<g id="node21" class="node">
<title>Node25</title>
<g id="a_node21"><a xlink:href="sock__stream_2_socket_server_8h.html" target="_top" xlink:title=" ">
<polygon fill="white" stroke="black" points="1562,-246.5 1562,-276.5 1684,-276.5 1684,-246.5 1562,-246.5"/>
<text text-anchor="start" x="1570" y="-264.5" font-family="Helvetica,sans-Serif" font-size="10.00">net/socket/sock_stream</text>
<text text-anchor="middle" x="1623" y="-253.5" font-family="Helvetica,sans-Serif" font-size="10.00">/SocketServer.h</text>
</a>
</g>
</g>
<!-- Node18&#45;&gt;Node25 -->
<g id="edge30" class="edge">
<title>Node18&#45;&gt;Node25</title>
<path fill="none" stroke="midnightblue" d="M1596.28,-304.87C1602.21,-295.46 1608.91,-284.83 1614.12,-276.58"/>
<polygon fill="midnightblue" stroke="midnightblue" points="1593.27,-303.07 1590.9,-313.4 1599.19,-306.81 1593.27,-303.07"/>
</g>
<!-- Node18&#45;&gt;Node31 -->
<g id="edge38" class="edge">
<title>Node18&#45;&gt;Node31</title>
<path fill="none" stroke="midnightblue" d="M1630.86,-309.96C1660.01,-299.48 1696.54,-286.37 1723.8,-276.58"/>
<polygon fill="midnightblue" stroke="midnightblue" points="1629.5,-306.72 1621.27,-313.4 1631.87,-313.31 1629.5,-306.72"/>
</g>
<!-- Node20 -->
<g id="node20" class="node">
<title>Node20</title>
<g id="a_node20"><a xlink:href="sock__stream_2legacy_2_socket_server_8h.html" target="_top" xlink:title=" ">
<polygon fill="white" stroke="red" points="1422,-179.5 1422,-209.5 1544,-209.5 1544,-179.5 1422,-179.5"/>
<text text-anchor="start" x="1430" y="-197.5" font-family="Helvetica,sans-Serif" font-size="10.00">net/socket/sock_stream</text>
<text text-anchor="middle" x="1483" y="-186.5" font-family="Helvetica,sans-Serif" font-size="10.00">/legacy/SocketServer.h</text>
</a>
</g>
</g>
<!-- Node19&#45;&gt;Node20 -->
<g id="edge29" class="edge">
<title>Node19&#45;&gt;Node20</title>
<path fill="none" stroke="midnightblue" d="M1482.38,-236.11C1482.51,-227.15 1482.66,-217.32 1482.78,-209.58"/>
<polygon fill="midnightblue" stroke="midnightblue" points="1478.87,-236.34 1482.22,-246.4 1485.87,-236.45 1478.87,-236.34"/>
</g>
<!-- Node25&#45;&gt;Node20 -->
<g id="edge31" class="edge">
<title>Node25&#45;&gt;Node20</title>
<path fill="none" stroke="midnightblue" d="M1583.43,-242.13C1561.19,-231.8 1533.85,-219.11 1513.32,-209.58"/>
<polygon fill="midnightblue" stroke="midnightblue" points="1582.08,-245.36 1592.62,-246.4 1585.03,-239.01 1582.08,-245.36"/>
</g>
<!-- Node26 -->
<g id="node22" class="node">
<title>Node26</title>
<g id="a_node22"><a xlink:href="sock__stream_2tls_2_socket_server_8h.html" target="_top" xlink:title=" ">
<polygon fill="white" stroke="black" points="1562,-179.5 1562,-209.5 1684,-209.5 1684,-179.5 1562,-179.5"/>
<text text-anchor="start" x="1570" y="-197.5" font-family="Helvetica,sans-Serif" font-size="10.00">net/socket/sock_stream</text>
<text text-anchor="middle" x="1623" y="-186.5" font-family="Helvetica,sans-Serif" font-size="10.00">/tls/SocketServer.h</text>
</a>
</g>
</g>
<!-- Node25&#45;&gt;Node26 -->
<g id="edge32" class="edge">
<title>Node25&#45;&gt;Node26</title>
<path fill="none" stroke="midnightblue" d="M1623,-236.11C1623,-227.15 1623,-217.32 1623,-209.58"/>
<polygon fill="midnightblue" stroke="midnightblue" points="1619.5,-236.4 1623,-246.4 1626.5,-236.4 1619.5,-236.4"/>
</g>
<!-- Node27 -->
<g id="node23" class="node">
<title>Node27</title>
<g id="a_node23"><a xlink:href="ip_2tcp_2ipv4_2tls_2_socket_server_8h.html" target="_top" xlink:title=" ">
<polygon fill="white" stroke="black" points="1558,-112.5 1558,-142.5 1668,-142.5 1668,-112.5 1558,-112.5"/>
<text text-anchor="start" x="1566" y="-130.5" font-family="Helvetica,sans-Serif" font-size="10.00">net/socket/ip/tcp/ipv4</text>
<text text-anchor="middle" x="1613" y="-119.5" font-family="Helvetica,sans-Serif" font-size="10.00">/tls/SocketServer.h</text>
</a>
</g>
</g>
<!-- Node26&#45;&gt;Node27 -->
<g id="edge33" class="edge">
<title>Node26&#45;&gt;Node27</title>
<path fill="none" stroke="midnightblue" d="M1619.29,-169.4C1617.9,-160.37 1616.37,-150.41 1615.17,-142.58"/>
<polygon fill="midnightblue" stroke="midnightblue" points="1615.85,-170.04 1620.83,-179.4 1622.77,-168.98 1615.85,-170.04"/>
</g>
<!-- Node30 -->
<g id="node26" class="node">
<title>Node30</title>
<g id="a_node26"><a xlink:href="ip_2tcp_2ipv6_2tls_2_socket_server_8h.html" target="_top" xlink:title=" ">
<polygon fill="white" stroke="black" points="1425,-112.5 1425,-142.5 1535,-142.5 1535,-112.5 1425,-112.5"/>
<text text-anchor="start" x="1433" y="-130.5" font-family="Helvetica,sans-Serif" font-size="10.00">net/socket/ip/tcp/ipv6</text>
<text text-anchor="middle" x="1480" y="-119.5" font-family="Helvetica,sans-Serif" font-size="10.00">/tls/SocketServer.h</text>
</a>
</g>
</g>
<!-- Node26&#45;&gt;Node30 -->
<g id="edge36" class="edge">
<title>Node26&#45;&gt;Node30</title>
<path fill="none" stroke="midnightblue" d="M1582.59,-175.13C1559.87,-164.8 1531.94,-152.11 1510.97,-142.58"/>
<polygon fill="midnightblue" stroke="midnightblue" points="1581.42,-178.44 1591.97,-179.4 1584.32,-172.07 1581.42,-178.44"/>
</g>
<!-- Node28 -->
<g id="node24" class="node">
<title>Node28</title>
<g id="a_node24"><a xlink:href="tls_2_server_8h.html" target="_top" xlink:title=" ">
<polygon fill="white" stroke="black" points="1386,-56.5 1386,-75.5 1472,-75.5 1472,-56.5 1386,-56.5"/>
<text text-anchor="middle" x="1429" y="-63.5" font-family="Helvetica,sans-Serif" font-size="10.00">http/tls/Server.h</text>
</a>
</g>
</g>
<!-- Node27&#45;&gt;Node28 -->
<g id="edge34" class="edge">
<title>Node27&#45;&gt;Node28</title>
<path fill="none" stroke="midnightblue" d="M1559.56,-109.22C1525.4,-98.17 1482.59,-84.33 1455.51,-75.57"/>
<polygon fill="midnightblue" stroke="midnightblue" points="1558.8,-112.65 1569.39,-112.4 1560.96,-105.99 1558.8,-112.65"/>
</g>
<!-- Node29 -->
<g id="node25" class="node">
<title>Node29</title>
<g id="a_node25"><a xlink:href="tls_2_web_app_8h.html" target="_top" xlink:title=" ">
<polygon fill="white" stroke="black" points="1292.5,-0.5 1292.5,-19.5 1405.5,-19.5 1405.5,-0.5 1292.5,-0.5"/>
<text text-anchor="middle" x="1349" y="-7.5" font-family="Helvetica,sans-Serif" font-size="10.00">express/tls/WebApp.h</text>
</a>
</g>
</g>
<!-- Node28&#45;&gt;Node29 -->
<g id="edge35" class="edge">
<title>Node28&#45;&gt;Node29</title>
<path fill="none" stroke="midnightblue" d="M1407.7,-50.62C1393.08,-40.76 1374.17,-27.99 1361.82,-19.65"/>
<polygon fill="midnightblue" stroke="midnightblue" points="1405.9,-53.63 1416.15,-56.32 1409.82,-47.83 1405.9,-53.63"/>
</g>
<!-- Node30&#45;&gt;Node28 -->
<g id="edge37" class="edge">
<title>Node30&#45;&gt;Node28</title>
<path fill="none" stroke="midnightblue" d="M1461.32,-104.7C1452.69,-94.64 1442.93,-83.26 1436.42,-75.66"/>
<polygon fill="midnightblue" stroke="midnightblue" points="1458.75,-107.08 1467.91,-112.4 1464.06,-102.53 1458.75,-107.08"/>
</g>
<!-- Node31&#45;&gt;Node26 -->
<g id="edge39" class="edge">
<title>Node31&#45;&gt;Node26</title>
<path fill="none" stroke="midnightblue" d="M1723.43,-242.13C1701.19,-231.8 1673.85,-219.11 1653.32,-209.58"/>
<polygon fill="midnightblue" stroke="midnightblue" points="1722.08,-245.36 1732.62,-246.4 1725.03,-239.01 1722.08,-245.36"/>
</g>
<!-- Node33 -->
<g id="node29" class="node">
<title>Node33</title>
<g id="a_node29"><a xlink:href="sock__stream_2tls_2_socket_client_8h.html" target="_top" xlink:title=" ">
<polygon fill="white" stroke="black" points="1925,-179.5 1925,-209.5 2047,-209.5 2047,-179.5 1925,-179.5"/>
<text text-anchor="start" x="1933" y="-197.5" font-family="Helvetica,sans-Serif" font-size="10.00">net/socket/sock_stream</text>
<text text-anchor="middle" x="1986" y="-186.5" font-family="Helvetica,sans-Serif" font-size="10.00">/tls/SocketClient.h</text>
</a>
</g>
</g>
<!-- Node32&#45;&gt;Node33 -->
<g id="edge41" class="edge">
<title>Node32&#45;&gt;Node33</title>
<path fill="none" stroke="midnightblue" d="M1986,-236.11C1986,-227.15 1986,-217.32 1986,-209.58"/>
<polygon fill="midnightblue" stroke="midnightblue" points="1982.5,-236.4 1986,-246.4 1989.5,-236.4 1982.5,-236.4"/>
</g>
<!-- Node34 -->
<g id="node30" class="node">
<title>Node34</title>
<g id="a_node30"><a xlink:href="ip_2tcp_2ipv4_2tls_2_socket_client_8h.html" target="_top" xlink:title=" ">
<polygon fill="white" stroke="black" points="1880,-112.5 1880,-142.5 1990,-142.5 1990,-112.5 1880,-112.5"/>
<text text-anchor="start" x="1888" y="-130.5" font-family="Helvetica,sans-Serif" font-size="10.00">net/socket/ip/tcp/ipv4</text>
<text text-anchor="middle" x="1935" y="-119.5" font-family="Helvetica,sans-Serif" font-size="10.00">/tls/SocketClient.h</text>
</a>
</g>
</g>
<!-- Node33&#45;&gt;Node34 -->
<g id="edge42" class="edge">
<title>Node33&#45;&gt;Node34</title>
<path fill="none" stroke="midnightblue" d="M1968.7,-171.45C1961.21,-161.9 1952.66,-151 1946.04,-142.58"/>
<polygon fill="midnightblue" stroke="midnightblue" points="1966.01,-173.69 1974.93,-179.4 1971.51,-169.37 1966.01,-173.69"/>
</g>
<!-- Node36 -->
<g id="node32" class="node">
<title>Node36</title>
<g id="a_node32"><a xlink:href="ip_2tcp_2ipv6_2tls_2_socket_client_8h.html" target="_top" xlink:title=" ">
<polygon fill="white" stroke="black" points="2008,-112.5 2008,-142.5 2118,-142.5 2118,-112.5 2008,-112.5"/>
<text text-anchor="start" x="2016" y="-130.5" font-family="Helvetica,sans-Serif" font-size="10.00">net/socket/ip/tcp/ipv6</text>
<text text-anchor="middle" x="2063" y="-119.5" font-family="Helvetica,sans-Serif" font-size="10.00">/tls/SocketClient.h</text>
</a>
</g>
</g>
<!-- Node33&#45;&gt;Node36 -->
<g id="edge44" class="edge">
<title>Node33&#45;&gt;Node36</title>
<path fill="none" stroke="midnightblue" d="M2010.42,-172.88C2022.12,-163.01 2035.84,-151.43 2046.32,-142.58"/>
<polygon fill="midnightblue" stroke="midnightblue" points="2008.09,-170.27 2002.71,-179.4 2012.61,-175.62 2008.09,-170.27"/>
</g>
<!-- Node35 -->
<g id="node31" class="node">
<title>Node35</title>
<g id="a_node31"><a xlink:href="tls_2_client_8h.html" target="_top" xlink:title=" ">
<polygon fill="white" stroke="black" points="1893.5,-56.5 1893.5,-75.5 1976.5,-75.5 1976.5,-56.5 1893.5,-56.5"/>
<text text-anchor="middle" x="1935" y="-63.5" font-family="Helvetica,sans-Serif" font-size="10.00">http/tls/Client.h</text>
</a>
</g>
</g>
<!-- Node34&#45;&gt;Node35 -->
<g id="edge43" class="edge">
<title>Node34&#45;&gt;Node35</title>
<path fill="none" stroke="midnightblue" d="M1935,-102.29C1935,-92.86 1935,-82.65 1935,-75.66"/>
<polygon fill="midnightblue" stroke="midnightblue" points="1931.5,-102.4 1935,-112.4 1938.5,-102.4 1931.5,-102.4"/>
</g>
<!-- Node36&#45;&gt;Node35 -->
<g id="edge45" class="edge">
<title>Node36&#45;&gt;Node35</title>
<path fill="none" stroke="midnightblue" d="M2023.38,-108.08C2000.13,-97.28 1971.83,-84.12 1953.63,-75.66"/>
<polygon fill="midnightblue" stroke="midnightblue" points="2022.12,-111.36 2032.67,-112.4 2025.07,-105.01 2022.12,-111.36"/>
</g>
<!-- Node38 -->
<g id="node34" class="node">
<title>Node38</title>
<g id="a_node34"><a xlink:href="tls_2_socket_connection_8h.html" target="_top" xlink:title=" ">
<polygon fill="white" stroke="black" points="1880,-313.5 1880,-343.5 2002,-343.5 2002,-313.5 1880,-313.5"/>
<text text-anchor="start" x="1888" y="-331.5" font-family="Helvetica,sans-Serif" font-size="10.00">net/socket/sock_stream</text>
<text text-anchor="middle" x="1941" y="-320.5" font-family="Helvetica,sans-Serif" font-size="10.00">/tls/SocketConnection.h</text>
</a>
</g>
</g>
<!-- Node37&#45;&gt;Node38 -->
<g id="edge48" class="edge">
<title>Node37&#45;&gt;Node38</title>
<path fill="none" stroke="midnightblue" d="M1840.57,-376.13C1862.81,-365.8 1890.15,-353.11 1910.68,-343.58"/>
<polygon fill="midnightblue" stroke="midnightblue" points="1838.97,-373.01 1831.38,-380.4 1841.92,-379.36 1838.97,-373.01"/>
</g>
<!-- Node38&#45;&gt;Node31 -->
<g id="edge50" class="edge">
<title>Node38&#45;&gt;Node31</title>
<path fill="none" stroke="midnightblue" d="M1892.95,-309.96C1864.28,-299.48 1828.36,-286.37 1801.55,-276.58"/>
<polygon fill="midnightblue" stroke="midnightblue" points="1891.78,-313.25 1902.38,-313.4 1894.18,-306.68 1891.78,-313.25"/>
</g>
<!-- Node38&#45;&gt;Node32 -->
<g id="edge49" class="edge">
<title>Node38&#45;&gt;Node32</title>
<path fill="none" stroke="midnightblue" d="M1956.47,-305.16C1963.03,-295.68 1970.48,-284.92 1976.25,-276.58"/>
<polygon fill="midnightblue" stroke="midnightblue" points="1953.58,-303.18 1950.76,-313.4 1959.33,-307.17 1953.58,-303.18"/>
</g>
<!-- Node39&#45;&gt;Node38 -->
<g id="edge52" class="edge">
<title>Node39&#45;&gt;Node38</title>
<path fill="none" stroke="midnightblue" d="M1941,-370.11C1941,-361.15 1941,-351.32 1941,-343.58"/>
<polygon fill="midnightblue" stroke="midnightblue" points="1937.5,-370.4 1941,-380.4 1944.5,-370.4 1937.5,-370.4"/>
</g>
<!-- Node40&#45;&gt;Node35 -->
<g id="edge55" class="edge">
<title>Node40&#45;&gt;Node35</title>
<path fill="none" stroke="midnightblue" d="M1719.8,-382.38C1753.8,-369.6 1802.97,-350.44 1810,-344 1840.03,-316.46 1852,-303.25 1852,-262.5 1852,-262.5 1852,-262.5 1852,-193.5 1852,-156.31 1850.2,-142.83 1871,-112 1882.17,-95.45 1901.61,-83.07 1916.15,-75.52"/>
<polygon fill="midnightblue" stroke="midnightblue" points="1718.37,-379.18 1710.23,-385.96 1720.82,-385.73 1718.37,-379.18"/>
</g>
<!-- Node41 -->
<g id="node37" class="node">
<title>Node41</title>
<g id="a_node37"><a xlink:href="legacy_2_client_8h.html" target="_top" xlink:title=" ">
<polygon fill="white" stroke="black" points="1699.5,-319 1699.5,-338 1800.5,-338 1800.5,-319 1699.5,-319"/>
<text text-anchor="middle" x="1750" y="-326" font-family="Helvetica,sans-Serif" font-size="10.00">http/legacy/Client.h</text>
</a>
</g>
</g>
<!-- Node40&#45;&gt;Node41 -->
<g id="edge54" class="edge">
<title>Node40&#45;&gt;Node41</title>
<path fill="none" stroke="midnightblue" d="M1702.51,-378.5C1714.87,-365.75 1731.69,-348.39 1741.64,-338.13"/>
<polygon fill="midnightblue" stroke="midnightblue" points="1699.94,-376.12 1695.5,-385.73 1704.97,-380.99 1699.94,-376.12"/>
</g>
<!-- Node47 -->
<g id="node43" class="node">
<title>Node47</title>
<g id="a_node43"><a xlink:href="_server_8h.html" target="_top" xlink:title=" ">
<polygon fill="white" stroke="black" points="1311,-319 1311,-338 1383,-338 1383,-319 1311,-319"/>
<text text-anchor="middle" x="1347" y="-326" font-family="Helvetica,sans-Serif" font-size="10.00">http/Server.h</text>
</a>
</g>
</g>
<!-- Node46&#45;&gt;Node47 -->
<g id="edge61" class="edge">
<title>Node46&#45;&gt;Node47</title>
<path fill="none" stroke="midnightblue" d="M1429.29,-380.44C1408.5,-367.57 1378.38,-348.93 1360.94,-338.13"/>
<polygon fill="midnightblue" stroke="midnightblue" points="1427.49,-383.45 1437.84,-385.73 1431.18,-377.49 1427.49,-383.45"/>
</g>
<!-- Node48 -->
<g id="node46" class="node">
<title>Node48</title>
<g id="a_node46"><a xlink:href="_router_8cpp.html" target="_top" xlink:title=" ">
<polygon fill="white" stroke="black" points="1401.5,-319 1401.5,-338 1502.5,-338 1502.5,-319 1401.5,-319"/>
<text text-anchor="middle" x="1452" y="-326" font-family="Helvetica,sans-Serif" font-size="10.00">express/Router.cpp</text>
</a>
</g>
</g>
<!-- Node46&#45;&gt;Node48 -->
<g id="edge65" class="edge">
<title>Node46&#45;&gt;Node48</title>
<path fill="none" stroke="midnightblue" d="M1452,-375.54C1452,-363.17 1452,-347.62 1452,-338.13"/>
<polygon fill="midnightblue" stroke="midnightblue" points="1448.5,-375.73 1452,-385.73 1455.5,-375.73 1448.5,-375.73"/>
</g>
<!-- Node47&#45;&gt;Node28 -->
<g id="edge64" class="edge">
<title>Node47&#45;&gt;Node28</title>
<path fill="none" stroke="midnightblue" d="M1357.23,-309.99C1362.48,-300.47 1368.66,-288.35 1373,-277 1400.06,-206.21 1395.93,-185.08 1416,-112 1419.49,-99.3 1423.77,-84.65 1426.44,-75.61"/>
<polygon fill="midnightblue" stroke="midnightblue" points="1354.1,-308.41 1352.21,-318.83 1360.19,-311.86 1354.1,-308.41"/>
</g>
<!-- Node22 -->
<g id="node44" class="node">
<title>Node22</title>
<g id="a_node44"><a xlink:href="legacy_2_server_8h.html" target="_top" xlink:title=" ">
<polygon fill="white" stroke="black" points="1260,-252 1260,-271 1364,-271 1364,-252 1260,-252"/>
<text text-anchor="middle" x="1312" y="-259" font-family="Helvetica,sans-Serif" font-size="10.00">http/legacy/Server.h</text>
</a>
</g>
</g>
<!-- Node47&#45;&gt;Node22 -->
<g id="edge62" class="edge">
<title>Node47&#45;&gt;Node22</title>
<path fill="none" stroke="midnightblue" d="M1337.4,-309.66C1330.65,-297.13 1321.91,-280.91 1316.65,-271.13"/>
<polygon fill="midnightblue" stroke="midnightblue" points="1334.46,-311.59 1342.28,-318.73 1340.62,-308.27 1334.46,-311.59"/>
</g>
<!-- Node23 -->
<g id="node45" class="node">
<title>Node23</title>
<g id="a_node45"><a xlink:href="legacy_2_web_app_8h.html" target="_top" xlink:title=" ">
<polygon fill="white" stroke="black" points="1232.5,-185 1232.5,-204 1363.5,-204 1363.5,-185 1232.5,-185"/>
<text text-anchor="middle" x="1298" y="-192" font-family="Helvetica,sans-Serif" font-size="10.00">express/legacy/WebApp.h</text>
</a>
</g>
</g>
<!-- Node22&#45;&gt;Node23 -->
<g id="edge63" class="edge">
<title>Node22&#45;&gt;Node23</title>
<path fill="none" stroke="midnightblue" d="M1308,-241.91C1305.32,-229.49 1301.92,-213.72 1299.86,-204.13"/>
<polygon fill="midnightblue" stroke="midnightblue" points="1304.58,-242.69 1310.11,-251.73 1311.43,-241.22 1304.58,-242.69"/>
</g>
<!-- Node52&#45;&gt;Node29 -->
<g id="edge72" class="edge">
<title>Node52&#45;&gt;Node29</title>
<path fill="none" stroke="midnightblue" d="M1196.01,-241.82C1201.82,-224.88 1211.42,-199.5 1223,-179 1260.29,-112.97 1320.16,-43.33 1341.31,-19.54"/>
<polygon fill="midnightblue" stroke="midnightblue" points="1192.59,-241 1192.76,-251.59 1199.24,-243.21 1192.59,-241"/>
</g>
<!-- Node52&#45;&gt;Node23 -->
<g id="edge71" class="edge">
<title>Node52&#45;&gt;Node23</title>
<path fill="none" stroke="midnightblue" d="M1213.36,-246.44C1234.75,-233.57 1265.72,-214.93 1283.67,-204.13"/>
<polygon fill="midnightblue" stroke="midnightblue" points="1211.33,-243.58 1204.57,-251.73 1214.94,-249.58 1211.33,-243.58"/>
</g>
</g>
</svg>
