<?xml version="1.0" encoding="UTF-8" standalone="no"?>
<!DOCTYPE svg PUBLIC "-//W3C//DTD SVG 1.1//EN"
 "http://www.w3.org/Graphics/SVG/1.1/DTD/svg11.dtd">
<!-- Generated by graphviz version 2.43.0 (0)
 -->
<!-- Title: log/Logger.h Pages: 1 -->
<svg width="3337pt" height="553pt"
 viewBox="0.00 0.00 3337.00 553.00" xmlns="http://www.w3.org/2000/svg" xmlns:xlink="http://www.w3.org/1999/xlink">
<g id="graph0" class="graph" transform="scale(1 1) rotate(0) translate(4 549)">
<title>log/Logger.h</title>
<polygon fill="white" stroke="transparent" points="-4,4 -4,-549 3333,-549 3333,4 -4,4"/>
<!-- Node1 -->
<g id="node1" class="node">
<title>Node1</title>
<g id="a_node1"><a xlink:title=" ">
<polygon fill="#bfbfbf" stroke="black" points="1370,-525.5 1370,-544.5 1439,-544.5 1439,-525.5 1370,-525.5"/>
<text text-anchor="middle" x="1404.5" y="-532.5" font-family="Helvetica,sans-Serif" font-size="10.00">log/Logger.h</text>
</a>
</g>
</g>
<!-- Node2 -->
<g id="node2" class="node">
<title>Node2</title>
<g id="a_node2"><a xlink:href="_descriptor_event_dispatcher_8cpp.html" target="_top" xlink:title=" ">
<polygon fill="white" stroke="black" points="0,-464 0,-483 169,-483 169,-464 0,-464"/>
<text text-anchor="middle" x="84.5" y="-471" font-family="Helvetica,sans-Serif" font-size="10.00">net/DescriptorEventDispatcher.cpp</text>
</a>
</g>
</g>
<!-- Node1&#45;&gt;Node2 -->
<g id="edge1" class="edge">
<title>Node1&#45;&gt;Node2</title>
<path fill="none" stroke="midnightblue" d="M1359.29,-534.26C1198.23,-534.79 637.46,-533.14 177.5,-489 162.7,-487.58 146.67,-485.34 132.15,-483.04"/>
<polygon fill="midnightblue" stroke="midnightblue" points="1359.77,-537.76 1369.76,-534.22 1359.74,-530.76 1359.77,-537.76"/>
</g>
<!-- Node3 -->
<g id="node3" class="node">
<title>Node3</title>
<g id="a_node3"><a xlink:href="_event_loop_8cpp.html" target="_top" xlink:title=" ">
<polygon fill="white" stroke="black" points="186.5,-464 186.5,-483 284.5,-483 284.5,-464 186.5,-464"/>
<text text-anchor="middle" x="235.5" y="-471" font-family="Helvetica,sans-Serif" font-size="10.00">net/EventLoop.cpp</text>
</a>
</g>
</g>
<!-- Node1&#45;&gt;Node3 -->
<g id="edge2" class="edge">
<title>Node1&#45;&gt;Node3</title>
<path fill="none" stroke="midnightblue" d="M1359.57,-533.28C1179.39,-530.24 508.82,-517.23 298.5,-489 288.27,-487.63 277.25,-485.37 267.34,-483.04"/>
<polygon fill="midnightblue" stroke="midnightblue" points="1359.69,-536.79 1369.75,-533.45 1359.81,-529.79 1359.69,-536.79"/>
</g>
<!-- Node4 -->
<g id="node4" class="node">
<title>Node4</title>
<g id="a_node4"><a xlink:href="_socket_connection_8h.html" target="_top" xlink:title=" ">
<polygon fill="white" stroke="black" points="341,-391.5 341,-421.5 470,-421.5 470,-391.5 341,-391.5"/>
<text text-anchor="start" x="349" y="-409.5" font-family="Helvetica,sans-Serif" font-size="10.00">net/socket/stream/Socket</text>
<text text-anchor="middle" x="405.5" y="-398.5" font-family="Helvetica,sans-Serif" font-size="10.00">Connection.h</text>
</a>
</g>
</g>
<!-- Node1&#45;&gt;Node4 -->
<g id="edge3" class="edge">
<title>Node1&#45;&gt;Node4</title>
<path fill="none" stroke="midnightblue" d="M1359.37,-533.23C1214.49,-530.45 762.27,-519.52 619.5,-489 550.49,-474.25 474.3,-440.77 434.06,-421.63"/>
<polygon fill="midnightblue" stroke="midnightblue" points="1359.6,-536.73 1369.66,-533.42 1359.73,-529.73 1359.6,-536.73"/>
</g>
<!-- Node21 -->
<g id="node9" class="node">
<title>Node21</title>
<g id="a_node9"><a xlink:href="tls_2_socket_connection_8h.html" target="_top" xlink:title=" ">
<polygon fill="white" stroke="black" points="713,-324.5 713,-354.5 822,-354.5 822,-324.5 713,-324.5"/>
<text text-anchor="start" x="721" y="-342.5" font-family="Helvetica,sans-Serif" font-size="10.00">net/socket/stream/tls</text>
<text text-anchor="middle" x="767.5" y="-331.5" font-family="Helvetica,sans-Serif" font-size="10.00">/SocketConnection.h</text>
</a>
</g>
</g>
<!-- Node1&#45;&gt;Node21 -->
<g id="edge36" class="edge">
<title>Node1&#45;&gt;Node21</title>
<path fill="none" stroke="midnightblue" d="M1359.71,-533.96C1251.21,-533.24 977.23,-527.53 895.5,-489 833.93,-459.97 790.44,-385.66 774.36,-354.54"/>
<polygon fill="midnightblue" stroke="midnightblue" points="1359.96,-537.46 1369.98,-534.01 1360,-530.46 1359.96,-537.46"/>
</g>
<!-- Node22 -->
<g id="node10" class="node">
<title>Node22</title>
<g id="a_node10"><a xlink:href="tls_2_socket_connector_8h.html" target="_top" xlink:title=" ">
<polygon fill="white" stroke="black" points="867,-257.5 867,-287.5 976,-287.5 976,-257.5 867,-257.5"/>
<text text-anchor="start" x="875" y="-275.5" font-family="Helvetica,sans-Serif" font-size="10.00">net/socket/stream/tls</text>
<text text-anchor="middle" x="921.5" y="-264.5" font-family="Helvetica,sans-Serif" font-size="10.00">/SocketConnector.h</text>
</a>
</g>
</g>
<!-- Node1&#45;&gt;Node22 -->
<g id="edge37" class="edge">
<title>Node1&#45;&gt;Node22</title>
<path fill="none" stroke="midnightblue" d="M1359.73,-532.88C1250.93,-529.7 979.52,-518.84 952.5,-489 943.25,-478.79 951.74,-471.76 952.5,-458 954.15,-428.21 960.8,-420.52 956.5,-391 950.91,-352.67 935.58,-309.45 927.18,-287.67"/>
<polygon fill="midnightblue" stroke="midnightblue" points="1359.64,-536.38 1369.74,-533.17 1359.84,-529.38 1359.64,-536.38"/>
</g>
<!-- Node28 -->
<g id="node16" class="node">
<title>Node28</title>
<g id="a_node16"><a xlink:href="tls_2_socket_listener_8h.html" target="_top" xlink:title=" ">
<polygon fill="white" stroke="black" points="591,-257.5 591,-287.5 700,-287.5 700,-257.5 591,-257.5"/>
<text text-anchor="start" x="599" y="-275.5" font-family="Helvetica,sans-Serif" font-size="10.00">net/socket/stream/tls</text>
<text text-anchor="middle" x="645.5" y="-264.5" font-family="Helvetica,sans-Serif" font-size="10.00">/SocketListener.h</text>
</a>
</g>
</g>
<!-- Node1&#45;&gt;Node28 -->
<g id="edge38" class="edge">
<title>Node1&#45;&gt;Node28</title>
<path fill="none" stroke="midnightblue" d="M1359.21,-532.96C1200.43,-529.08 677.24,-514.43 652.5,-489 624.76,-460.5 638.25,-330.83 643.64,-287.58"/>
<polygon fill="midnightblue" stroke="midnightblue" points="1359.49,-536.46 1369.57,-533.21 1359.66,-529.47 1359.49,-536.46"/>
</g>
<!-- Node35 -->
<g id="node23" class="node">
<title>Node35</title>
<g id="a_node23"><a xlink:href="_socket_listener_8h.html" target="_top" xlink:title=" ">
<polygon fill="white" stroke="black" points="276,-324.5 276,-354.5 405,-354.5 405,-324.5 276,-324.5"/>
<text text-anchor="start" x="284" y="-342.5" font-family="Helvetica,sans-Serif" font-size="10.00">net/socket/stream/Socket</text>
<text text-anchor="middle" x="340.5" y="-331.5" font-family="Helvetica,sans-Serif" font-size="10.00">Listener.h</text>
</a>
</g>
</g>
<!-- Node1&#45;&gt;Node35 -->
<g id="edge24" class="edge">
<title>Node1&#45;&gt;Node35</title>
<path fill="none" stroke="midnightblue" d="M1359.57,-533.43C1203.22,-531.17 683.69,-521.36 520.5,-489 433.08,-471.66 382.92,-494.79 331.5,-422 317.37,-402 326.29,-372.09 333.67,-354.61"/>
<polygon fill="midnightblue" stroke="midnightblue" points="1359.71,-536.93 1369.76,-533.57 1359.81,-529.93 1359.71,-536.93"/>
</g>
<!-- Node37 -->
<g id="node25" class="node">
<title>Node37</title>
<g id="a_node25"><a xlink:href="_socket_protocol_8cpp.html" target="_top" xlink:title=" ">
<polygon fill="white" stroke="black" points="1340,-458.5 1340,-488.5 1469,-488.5 1469,-458.5 1340,-458.5"/>
<text text-anchor="start" x="1348" y="-476.5" font-family="Helvetica,sans-Serif" font-size="10.00">net/socket/stream/Socket</text>
<text text-anchor="middle" x="1404.5" y="-465.5" font-family="Helvetica,sans-Serif" font-size="10.00">Protocol.cpp</text>
</a>
</g>
</g>
<!-- Node1&#45;&gt;Node37 -->
<g id="edge30" class="edge">
<title>Node1&#45;&gt;Node37</title>
<path fill="none" stroke="midnightblue" d="M1404.5,-515.23C1404.5,-506.59 1404.5,-496.5 1404.5,-488.52"/>
<polygon fill="midnightblue" stroke="midnightblue" points="1401,-515.48 1404.5,-525.48 1408,-515.48 1401,-515.48"/>
</g>
<!-- Node38 -->
<g id="node26" class="node">
<title>Node38</title>
<g id="a_node26"><a xlink:href="_socket_writer_8h.html" target="_top" xlink:title=" ">
<polygon fill="white" stroke="black" points="662,-458.5 662,-488.5 791,-488.5 791,-458.5 662,-458.5"/>
<text text-anchor="start" x="670" y="-476.5" font-family="Helvetica,sans-Serif" font-size="10.00">net/socket/stream/Socket</text>
<text text-anchor="middle" x="726.5" y="-465.5" font-family="Helvetica,sans-Serif" font-size="10.00">Writer.h</text>
</a>
</g>
</g>
<!-- Node1&#45;&gt;Node38 -->
<g id="edge31" class="edge">
<title>Node1&#45;&gt;Node38</title>
<path fill="none" stroke="midnightblue" d="M1359.91,-532.28C1260.21,-528.07 1011.78,-515.6 805.5,-489 800.8,-488.39 795.95,-487.69 791.08,-486.93"/>
<polygon fill="midnightblue" stroke="midnightblue" points="1359.79,-535.77 1369.93,-532.69 1360.08,-528.78 1359.79,-535.77"/>
</g>
<!-- Node40 -->
<g id="node28" class="node">
<title>Node40</title>
<g id="a_node28"><a xlink:href="tls_2_socket_writer_8h.html" target="_top" xlink:title=" ">
<polygon fill="white" stroke="black" points="672,-391.5 672,-421.5 781,-421.5 781,-391.5 672,-391.5"/>
<text text-anchor="start" x="680" y="-409.5" font-family="Helvetica,sans-Serif" font-size="10.00">net/socket/stream/tls</text>
<text text-anchor="middle" x="726.5" y="-398.5" font-family="Helvetica,sans-Serif" font-size="10.00">/SocketWriter.h</text>
</a>
</g>
</g>
<!-- Node1&#45;&gt;Node40 -->
<g id="edge41" class="edge">
<title>Node1&#45;&gt;Node40</title>
<path fill="none" stroke="midnightblue" d="M1359.58,-533.5C1243.86,-531.71 937.99,-523.74 843.5,-489 821.39,-480.87 819.79,-471.53 800.5,-458 782.67,-445.49 762.21,-431.56 747.33,-421.51"/>
<polygon fill="midnightblue" stroke="midnightblue" points="1359.8,-537 1369.85,-533.65 1359.9,-530 1359.8,-537"/>
</g>
<!-- Node41 -->
<g id="node29" class="node">
<title>Node41</title>
<g id="a_node29"><a xlink:href="tls_2_socket_reader_8h.html" target="_top" xlink:title=" ">
<polygon fill="white" stroke="black" points="838,-391.5 838,-421.5 947,-421.5 947,-391.5 838,-391.5"/>
<text text-anchor="start" x="846" y="-409.5" font-family="Helvetica,sans-Serif" font-size="10.00">net/socket/stream/tls</text>
<text text-anchor="middle" x="892.5" y="-398.5" font-family="Helvetica,sans-Serif" font-size="10.00">/SocketReader.h</text>
</a>
</g>
</g>
<!-- Node1&#45;&gt;Node41 -->
<g id="edge39" class="edge">
<title>Node1&#45;&gt;Node41</title>
<path fill="none" stroke="midnightblue" d="M1359.83,-532.61C1246.36,-528.7 953.56,-516.08 919.5,-489 898.97,-472.67 893.9,-440.27 892.75,-421.62"/>
<polygon fill="midnightblue" stroke="midnightblue" points="1359.81,-536.11 1369.92,-532.95 1360.05,-529.12 1359.81,-536.11"/>
</g>
<!-- Node42 -->
<g id="node30" class="node">
<title>Node42</title>
<g id="a_node30"><a xlink:href="ssl__utils_8cpp.html" target="_top" xlink:title=" ">
<polygon fill="white" stroke="black" points="1487,-458.5 1487,-488.5 1596,-488.5 1596,-458.5 1487,-458.5"/>
<text text-anchor="start" x="1495" y="-476.5" font-family="Helvetica,sans-Serif" font-size="10.00">net/socket/stream/tls</text>
<text text-anchor="middle" x="1541.5" y="-465.5" font-family="Helvetica,sans-Serif" font-size="10.00">/ssl_utils.cpp</text>
</a>
</g>
</g>
<!-- Node1&#45;&gt;Node42 -->
<g id="edge42" class="edge">
<title>Node1&#45;&gt;Node42</title>
<path fill="none" stroke="midnightblue" d="M1433.37,-521.46C1455.56,-511.82 1486.21,-498.51 1509.21,-488.52"/>
<polygon fill="midnightblue" stroke="midnightblue" points="1431.91,-518.28 1424.13,-525.48 1434.7,-524.7 1431.91,-518.28"/>
</g>
<!-- Node43 -->
<g id="node31" class="node">
<title>Node43</title>
<g id="a_node31"><a xlink:href="_client_context_8hpp.html" target="_top" xlink:title=" ">
<polygon fill="white" stroke="black" points="1121.5,-464 1121.5,-483 1283.5,-483 1283.5,-464 1121.5,-464"/>
<text text-anchor="middle" x="1202.5" y="-471" font-family="Helvetica,sans-Serif" font-size="10.00">web/http/client/ClientContext.hpp</text>
</a>
</g>
</g>
<!-- Node1&#45;&gt;Node43 -->
<g id="edge43" class="edge">
<title>Node1&#45;&gt;Node43</title>
<path fill="none" stroke="midnightblue" d="M1365.81,-522.6C1326.55,-511.04 1266.69,-493.41 1231.39,-483.01"/>
<polygon fill="midnightblue" stroke="midnightblue" points="1364.98,-526.01 1375.56,-525.48 1366.95,-519.29 1364.98,-526.01"/>
</g>
<!-- Node45 -->
<g id="node34" class="node">
<title>Node45</title>
<g id="a_node34"><a xlink:href="web_2http_2client_2_request_8cpp.html" target="_top" xlink:title=" ">
<polygon fill="white" stroke="black" points="1614,-464 1614,-483 1753,-483 1753,-464 1614,-464"/>
<text text-anchor="middle" x="1683.5" y="-471" font-family="Helvetica,sans-Serif" font-size="10.00">web/http/client/Request.cpp</text>
</a>
</g>
</g>
<!-- Node1&#45;&gt;Node45 -->
<g id="edge47" class="edge">
<title>Node1&#45;&gt;Node45</title>
<path fill="none" stroke="midnightblue" d="M1449.17,-524.47C1502.76,-513.04 1591.81,-494.05 1643.32,-483.07"/>
<polygon fill="midnightblue" stroke="midnightblue" points="1448.32,-521.08 1439.27,-526.58 1449.78,-527.92 1448.32,-521.08"/>
</g>
<!-- Node46 -->
<g id="node35" class="node">
<title>Node46</title>
<g id="a_node35"><a xlink:href="_mime_types_8cpp.html" target="_top" xlink:title=" ">
<polygon fill="white" stroke="black" points="1771.5,-464 1771.5,-483 1897.5,-483 1897.5,-464 1771.5,-464"/>
<text text-anchor="middle" x="1834.5" y="-471" font-family="Helvetica,sans-Serif" font-size="10.00">web/http/MimeTypes.cpp</text>
</a>
</g>
</g>
<!-- Node1&#45;&gt;Node46 -->
<g id="edge48" class="edge">
<title>Node1&#45;&gt;Node46</title>
<path fill="none" stroke="midnightblue" d="M1449.53,-529.42C1517.53,-522.25 1650.41,-507.31 1762.5,-489 1773.07,-487.27 1784.46,-485.12 1794.98,-483"/>
<polygon fill="midnightblue" stroke="midnightblue" points="1448.76,-525.98 1439.18,-530.5 1449.49,-532.94 1448.76,-525.98"/>
</g>
<!-- Node47 -->
<g id="node36" class="node">
<title>Node47</title>
<g id="a_node36"><a xlink:href="_h_t_t_p_server_context_8hpp.html" target="_top" xlink:title=" ">
<polygon fill="white" stroke="black" points="961.5,-458.5 961.5,-488.5 1103.5,-488.5 1103.5,-458.5 961.5,-458.5"/>
<text text-anchor="start" x="969.5" y="-476.5" font-family="Helvetica,sans-Serif" font-size="10.00">web/http/server/HTTPServer</text>
<text text-anchor="middle" x="1032.5" y="-465.5" font-family="Helvetica,sans-Serif" font-size="10.00">Context.hpp</text>
</a>
</g>
</g>
<!-- Node1&#45;&gt;Node47 -->
<g id="edge49" class="edge">
<title>Node1&#45;&gt;Node47</title>
<path fill="none" stroke="midnightblue" d="M1359.67,-527.47C1302.3,-519.02 1199.89,-503.65 1112.5,-489 1109.58,-488.51 1106.59,-488 1103.58,-487.48"/>
<polygon fill="midnightblue" stroke="midnightblue" points="1359.44,-530.97 1369.84,-528.96 1360.46,-524.04 1359.44,-530.97"/>
</g>
<!-- Node49 -->
<g id="node40" class="node">
<title>Node49</title>
<g id="a_node40"><a xlink:href="web_2http_2server_2_response_8cpp.html" target="_top" xlink:title=" ">
<polygon fill="white" stroke="black" points="1915.5,-464 1915.5,-483 2065.5,-483 2065.5,-464 1915.5,-464"/>
<text text-anchor="middle" x="1990.5" y="-471" font-family="Helvetica,sans-Serif" font-size="10.00">web/http/server/Response.cpp</text>
</a>
</g>
</g>
<!-- Node1&#45;&gt;Node49 -->
<g id="edge54" class="edge">
<title>Node1&#45;&gt;Node49</title>
<path fill="none" stroke="midnightblue" d="M1449.46,-531.2C1537.45,-525.46 1738.5,-510.99 1906.5,-489 1919.12,-487.35 1932.74,-485.17 1945.26,-483"/>
<polygon fill="midnightblue" stroke="midnightblue" points="1449.05,-527.72 1439.3,-531.86 1449.5,-534.71 1449.05,-527.72"/>
</g>
<!-- Node50 -->
<g id="node41" class="node">
<title>Node50</title>
<g id="a_node41"><a xlink:href="server_2_w_s_context_8cpp.html" target="_top" xlink:title=" ">
<polygon fill="white" stroke="black" points="2084,-464 2084,-483 2237,-483 2237,-464 2084,-464"/>
<text text-anchor="middle" x="2160.5" y="-471" font-family="Helvetica,sans-Serif" font-size="10.00">web/ws/server/WSContext.cpp</text>
</a>
</g>
</g>
<!-- Node1&#45;&gt;Node50 -->
<g id="edge55" class="edge">
<title>Node1&#45;&gt;Node50</title>
<path fill="none" stroke="midnightblue" d="M1449.32,-532.54C1557.26,-528.68 1840.03,-516.57 2074.5,-489 2087.73,-487.44 2102.03,-485.24 2115.1,-483.03"/>
<polygon fill="midnightblue" stroke="midnightblue" points="1449,-529.05 1439.13,-532.9 1449.25,-536.04 1449,-529.05"/>
</g>
<!-- Node51 -->
<g id="node42" class="node">
<title>Node51</title>
<g id="a_node42"><a xlink:href="_echo_8cpp.html" target="_top" xlink:title=" ">
<polygon fill="white" stroke="black" points="2255,-458.5 2255,-488.5 2370,-488.5 2370,-458.5 2255,-458.5"/>
<text text-anchor="start" x="2263" y="-476.5" font-family="Helvetica,sans-Serif" font-size="10.00">web/ws/subprotocol</text>
<text text-anchor="middle" x="2312.5" y="-465.5" font-family="Helvetica,sans-Serif" font-size="10.00">/echo/server/Echo.cpp</text>
</a>
</g>
</g>
<!-- Node1&#45;&gt;Node51 -->
<g id="edge56" class="edge">
<title>Node1&#45;&gt;Node51</title>
<path fill="none" stroke="midnightblue" d="M1449.22,-534.16C1575.26,-534.08 1943.85,-530.05 2246.5,-489 2249.17,-488.64 2251.9,-488.22 2254.65,-487.77"/>
<polygon fill="midnightblue" stroke="midnightblue" points="1449.18,-530.66 1439.18,-534.16 1449.18,-537.66 1449.18,-530.66"/>
</g>
<!-- Node52 -->
<g id="node43" class="node">
<title>Node52</title>
<g id="a_node43"><a xlink:href="_w_s_sub_protocol_selector_8cpp.html" target="_top" xlink:title=" ">
<polygon fill="white" stroke="black" points="2388,-458.5 2388,-488.5 2531,-488.5 2531,-458.5 2388,-458.5"/>
<text text-anchor="start" x="2396" y="-476.5" font-family="Helvetica,sans-Serif" font-size="10.00">web/ws/subprotocol</text>
<text text-anchor="middle" x="2459.5" y="-465.5" font-family="Helvetica,sans-Serif" font-size="10.00">/WSSubProtocolSelector.cpp</text>
</a>
</g>
</g>
<!-- Node1&#45;&gt;Node52 -->
<g id="edge57" class="edge">
<title>Node1&#45;&gt;Node52</title>
<path fill="none" stroke="midnightblue" d="M1449.42,-534.05C1588.24,-533.75 2022.58,-529.4 2379.5,-489 2382.16,-488.7 2384.87,-488.36 2387.61,-488"/>
<polygon fill="midnightblue" stroke="midnightblue" points="1449.17,-530.55 1439.17,-534.07 1449.18,-537.55 1449.17,-530.55"/>
</g>
<!-- Node53 -->
<g id="node44" class="node">
<title>Node53</title>
<g id="a_node44"><a xlink:href="ws__utils_8cpp.html" target="_top" xlink:title=" ">
<polygon fill="white" stroke="black" points="2549.5,-464 2549.5,-483 2657.5,-483 2657.5,-464 2549.5,-464"/>
<text text-anchor="middle" x="2603.5" y="-471" font-family="Helvetica,sans-Serif" font-size="10.00">web/ws/ws_utils.cpp</text>
</a>
</g>
</g>
<!-- Node1&#45;&gt;Node53 -->
<g id="edge58" class="edge">
<title>Node1&#45;&gt;Node53</title>
<path fill="none" stroke="midnightblue" d="M1449.15,-533.34C1631.96,-530.49 2323.88,-517.96 2540.5,-489 2550.73,-487.63 2561.75,-485.37 2571.66,-483.04"/>
<polygon fill="midnightblue" stroke="midnightblue" points="1449.03,-529.85 1439.09,-533.5 1449.14,-536.85 1449.03,-529.85"/>
</g>
<!-- Node54 -->
<g id="node45" class="node">
<title>Node54</title>
<g id="a_node45"><a xlink:href="_w_s_context_8cpp.html" target="_top" xlink:title=" ">
<polygon fill="white" stroke="black" points="2676,-464 2676,-483 2799,-483 2799,-464 2676,-464"/>
<text text-anchor="middle" x="2737.5" y="-471" font-family="Helvetica,sans-Serif" font-size="10.00">web/ws/WSContext.cpp</text>
</a>
</g>
</g>
<!-- Node1&#45;&gt;Node54 -->
<g id="edge59" class="edge">
<title>Node1&#45;&gt;Node54</title>
<path fill="none" stroke="midnightblue" d="M1449.2,-533.4C1644.45,-530.63 2423.48,-517.95 2666.5,-489 2677.99,-487.63 2690.4,-485.37 2701.57,-483.04"/>
<polygon fill="midnightblue" stroke="midnightblue" points="1448.97,-529.9 1439.02,-533.54 1449.07,-536.9 1448.97,-529.9"/>
</g>
<!-- Node55 -->
<g id="node46" class="node">
<title>Node55</title>
<g id="a_node46"><a xlink:href="_w_s_receiver_8cpp.html" target="_top" xlink:title=" ">
<polygon fill="white" stroke="black" points="2817,-464 2817,-483 2944,-483 2944,-464 2817,-464"/>
<text text-anchor="middle" x="2880.5" y="-471" font-family="Helvetica,sans-Serif" font-size="10.00">web/ws/WSReceiver.cpp</text>
</a>
</g>
</g>
<!-- Node1&#45;&gt;Node55 -->
<g id="edge60" class="edge">
<title>Node1&#45;&gt;Node55</title>
<path fill="none" stroke="midnightblue" d="M1449.39,-533.57C1658.22,-531.41 2536.01,-520.58 2808.5,-489 2820.15,-487.65 2832.73,-485.4 2844.06,-483.07"/>
<polygon fill="midnightblue" stroke="midnightblue" points="1449.07,-530.07 1439.11,-533.67 1449.15,-537.07 1449.07,-530.07"/>
</g>
<!-- Node56 -->
<g id="node47" class="node">
<title>Node56</title>
<g id="a_node47"><a xlink:href="_w_s_transmitter_8cpp.html" target="_top" xlink:title=" ">
<polygon fill="white" stroke="black" points="2962,-464 2962,-483 3099,-483 3099,-464 2962,-464"/>
<text text-anchor="middle" x="3030.5" y="-471" font-family="Helvetica,sans-Serif" font-size="10.00">web/ws/WSTransmitter.cpp</text>
</a>
</g>
</g>
<!-- Node1&#45;&gt;Node56 -->
<g id="edge61" class="edge">
<title>Node1&#45;&gt;Node56</title>
<path fill="none" stroke="midnightblue" d="M1449.28,-533.65C1670.77,-531.77 2650.52,-521.72 2953.5,-489 2965.94,-487.66 2979.39,-485.41 2991.51,-483.07"/>
<polygon fill="midnightblue" stroke="midnightblue" points="1448.99,-530.15 1439.02,-533.74 1449.05,-537.15 1448.99,-530.15"/>
</g>
<!-- Node57 -->
<g id="node48" class="node">
<title>Node57</title>
<g id="a_node48"><a xlink:href="_logger_8cpp.html" target="_top" xlink:title=" ">
<polygon fill="white" stroke="black" points="3117.5,-464 3117.5,-483 3197.5,-483 3197.5,-464 3117.5,-464"/>
<text text-anchor="middle" x="3157.5" y="-471" font-family="Helvetica,sans-Serif" font-size="10.00">log/Logger.cpp</text>
</a>
</g>
</g>
<!-- Node1&#45;&gt;Node57 -->
<g id="edge62" class="edge">
<title>Node1&#45;&gt;Node57</title>
<path fill="none" stroke="midnightblue" d="M1449.44,-533.51C1702.14,-530.69 2940.65,-515.58 3108.5,-489 3116.74,-487.7 3125.53,-485.39 3133.36,-483"/>
<polygon fill="midnightblue" stroke="midnightblue" points="1449.13,-530.02 1439.17,-533.63 1449.21,-537.02 1449.13,-530.02"/>
</g>
<!-- Node58 -->
<g id="node49" class="node">
<title>Node58</title>
<g id="a_node49"><a xlink:href="_static_middleware_8cpp.html" target="_top" xlink:title=" ">
<polygon fill="white" stroke="black" points="3216,-458.5 3216,-488.5 3329,-488.5 3329,-458.5 3216,-458.5"/>
<text text-anchor="start" x="3224" y="-476.5" font-family="Helvetica,sans-Serif" font-size="10.00">express/middleware</text>
<text text-anchor="middle" x="3272.5" y="-465.5" font-family="Helvetica,sans-Serif" font-size="10.00">/StaticMiddleware.cpp</text>
</a>
</g>
</g>
<!-- Node1&#45;&gt;Node58 -->
<g id="edge63" class="edge">
<title>Node1&#45;&gt;Node58</title>
<path fill="none" stroke="midnightblue" d="M1449.41,-534.04C1692.32,-534.1 2851.21,-532.06 3206.5,-489 3209.53,-488.63 3212.62,-488.19 3215.74,-487.69"/>
<polygon fill="midnightblue" stroke="midnightblue" points="1449.19,-530.54 1439.19,-534.04 1449.19,-537.54 1449.19,-530.54"/>
</g>
<!-- Node59 -->
<g id="node50" class="node">
<title>Node59</title>
<g id="a_node50"><a xlink:href="_web_app_t_8h.html" target="_top" xlink:title=" ">
<polygon fill="white" stroke="black" points="1334.5,-330 1334.5,-349 1438.5,-349 1438.5,-330 1334.5,-330"/>
<text text-anchor="middle" x="1386.5" y="-337" font-family="Helvetica,sans-Serif" font-size="10.00">express/WebAppT.h</text>
</a>
</g>
</g>
<!-- Node1&#45;&gt;Node59 -->
<g id="edge64" class="edge">
<title>Node1&#45;&gt;Node59</title>
<path fill="none" stroke="midnightblue" d="M1369.05,-521.2C1354.72,-514.06 1339.66,-503.61 1331.5,-489 1303.76,-439.31 1356.84,-372.89 1378.18,-349.28"/>
<polygon fill="midnightblue" stroke="midnightblue" points="1367.74,-524.44 1378.29,-525.41 1370.65,-518.08 1367.74,-524.44"/>
</g>
<!-- Node5 -->
<g id="node5" class="node">
<title>Node5</title>
<g id="a_node5"><a xlink:href="legacy_2_socket_connection_8h.html" target="_top" xlink:title=" ">
<polygon fill="white" stroke="black" points="437,-324.5 437,-354.5 564,-354.5 564,-324.5 437,-324.5"/>
<text text-anchor="start" x="445" y="-342.5" font-family="Helvetica,sans-Serif" font-size="10.00">net/socket/stream/legacy</text>
<text text-anchor="middle" x="500.5" y="-331.5" font-family="Helvetica,sans-Serif" font-size="10.00">/SocketConnection.h</text>
</a>
</g>
</g>
<!-- Node4&#45;&gt;Node5 -->
<g id="edge4" class="edge">
<title>Node4&#45;&gt;Node5</title>
<path fill="none" stroke="midnightblue" d="M434.39,-385.73C449.09,-375.68 466.61,-363.68 479.93,-354.58"/>
<polygon fill="midnightblue" stroke="midnightblue" points="432.39,-382.86 426.11,-391.4 436.34,-388.64 432.39,-382.86"/>
</g>
<!-- Node4&#45;&gt;Node21 -->
<g id="edge8" class="edge">
<title>Node4&#45;&gt;Node21</title>
<path fill="none" stroke="midnightblue" d="M480.36,-390.67C566.96,-374.59 656.83,-359.14 712.83,-349.67"/>
<polygon fill="midnightblue" stroke="midnightblue" points="479.55,-387.26 470.36,-392.54 480.84,-394.14 479.55,-387.26"/>
</g>
<!-- Node6 -->
<g id="node6" class="node">
<title>Node6</title>
<g id="a_node6"><a xlink:href="legacy_2_socket_connector_8h.html" target="_top" xlink:title=" ">
<polygon fill="white" stroke="red" points="446,-257.5 446,-287.5 573,-287.5 573,-257.5 446,-257.5"/>
<text text-anchor="start" x="454" y="-275.5" font-family="Helvetica,sans-Serif" font-size="10.00">net/socket/stream/legacy</text>
<text text-anchor="middle" x="509.5" y="-264.5" font-family="Helvetica,sans-Serif" font-size="10.00">/SocketConnector.h</text>
</a>
</g>
</g>
<!-- Node5&#45;&gt;Node6 -->
<g id="edge5" class="edge">
<title>Node5&#45;&gt;Node6</title>
<path fill="none" stroke="midnightblue" d="M503.84,-314.4C505.09,-305.37 506.47,-295.41 507.55,-287.58"/>
<polygon fill="midnightblue" stroke="midnightblue" points="500.36,-314.01 502.45,-324.4 507.29,-314.97 500.36,-314.01"/>
</g>
<!-- Node13 -->
<g id="node7" class="node">
<title>Node13</title>
<g id="a_node7"><a xlink:href="legacy_2_socket_listener_8h.html" target="_top" xlink:title=" ">
<polygon fill="white" stroke="black" points="301,-257.5 301,-287.5 428,-287.5 428,-257.5 301,-257.5"/>
<text text-anchor="start" x="309" y="-275.5" font-family="Helvetica,sans-Serif" font-size="10.00">net/socket/stream/legacy</text>
<text text-anchor="middle" x="364.5" y="-264.5" font-family="Helvetica,sans-Serif" font-size="10.00">/SocketListener.h</text>
</a>
</g>
</g>
<!-- Node5&#45;&gt;Node13 -->
<g id="edge6" class="edge">
<title>Node5&#45;&gt;Node13</title>
<path fill="none" stroke="midnightblue" d="M461.78,-319.99C440.22,-309.69 413.81,-297.07 393.95,-287.58"/>
<polygon fill="midnightblue" stroke="midnightblue" points="460.46,-323.24 470.99,-324.4 463.48,-316.93 460.46,-323.24"/>
</g>
<!-- Node14 -->
<g id="node8" class="node">
<title>Node14</title>
<g id="a_node8"><a xlink:href="stream_2legacy_2_socket_server_8h.html" target="_top" xlink:title=" ">
<polygon fill="white" stroke="red" points="228,-190.5 228,-220.5 355,-220.5 355,-190.5 228,-190.5"/>
<text text-anchor="start" x="236" y="-208.5" font-family="Helvetica,sans-Serif" font-size="10.00">net/socket/stream/legacy</text>
<text text-anchor="middle" x="291.5" y="-197.5" font-family="Helvetica,sans-Serif" font-size="10.00">/SocketServer.h</text>
</a>
</g>
</g>
<!-- Node13&#45;&gt;Node14 -->
<g id="edge7" class="edge">
<title>Node13&#45;&gt;Node14</title>
<path fill="none" stroke="midnightblue" d="M341.03,-250.6C330,-240.78 317.16,-229.34 307.31,-220.58"/>
<polygon fill="midnightblue" stroke="midnightblue" points="338.86,-253.36 348.66,-257.4 343.52,-248.13 338.86,-253.36"/>
</g>
<!-- Node21&#45;&gt;Node22 -->
<g id="edge9" class="edge">
<title>Node21&#45;&gt;Node22</title>
<path fill="none" stroke="midnightblue" d="M810.37,-320.41C834.95,-310.03 865.36,-297.2 888.15,-287.58"/>
<polygon fill="midnightblue" stroke="midnightblue" points="808.77,-317.28 800.92,-324.4 811.49,-323.73 808.77,-317.28"/>
</g>
<!-- Node21&#45;&gt;Node28 -->
<g id="edge16" class="edge">
<title>Node21&#45;&gt;Node28</title>
<path fill="none" stroke="midnightblue" d="M731.98,-319.57C712.79,-309.35 689.5,-296.94 671.92,-287.58"/>
<polygon fill="midnightblue" stroke="midnightblue" points="730.56,-322.78 741.03,-324.4 733.85,-316.6 730.56,-322.78"/>
</g>
<!-- Node23 -->
<g id="node11" class="node">
<title>Node23</title>
<g id="a_node11"><a xlink:href="stream_2tls_2_socket_client_8h.html" target="_top" xlink:title=" ">
<polygon fill="white" stroke="black" points="959,-190.5 959,-220.5 1068,-220.5 1068,-190.5 959,-190.5"/>
<text text-anchor="start" x="967" y="-208.5" font-family="Helvetica,sans-Serif" font-size="10.00">net/socket/stream/tls</text>
<text text-anchor="middle" x="1013.5" y="-197.5" font-family="Helvetica,sans-Serif" font-size="10.00">/SocketClient.h</text>
</a>
</g>
</g>
<!-- Node22&#45;&gt;Node23 -->
<g id="edge10" class="edge">
<title>Node22&#45;&gt;Node23</title>
<path fill="none" stroke="midnightblue" d="M949.88,-251.45C964.03,-241.45 980.81,-229.6 993.58,-220.58"/>
<polygon fill="midnightblue" stroke="midnightblue" points="947.61,-248.77 941.46,-257.4 951.65,-254.48 947.61,-248.77"/>
</g>
<!-- Node24 -->
<g id="node12" class="node">
<title>Node24</title>
<g id="a_node12"><a xlink:href="bluetooth_2rfcomm_2tls_2_socket_client_8h.html" target="_top" xlink:title=" ">
<polygon fill="white" stroke="black" points="1016.5,-123.5 1016.5,-153.5 1150.5,-153.5 1150.5,-123.5 1016.5,-123.5"/>
<text text-anchor="start" x="1024.5" y="-141.5" font-family="Helvetica,sans-Serif" font-size="10.00">net/socket/bluetooth</text>
<text text-anchor="middle" x="1083.5" y="-130.5" font-family="Helvetica,sans-Serif" font-size="10.00">/rfcomm/tls/SocketClient.h</text>
</a>
</g>
</g>
<!-- Node23&#45;&gt;Node24 -->
<g id="edge11" class="edge">
<title>Node23&#45;&gt;Node24</title>
<path fill="none" stroke="midnightblue" d="M1036.32,-183.31C1046.82,-173.56 1058.99,-162.26 1068.34,-153.58"/>
<polygon fill="midnightblue" stroke="midnightblue" points="1033.64,-181.03 1028.69,-190.4 1038.4,-186.16 1033.64,-181.03"/>
</g>
<!-- Node25 -->
<g id="node13" class="node">
<title>Node25</title>
<g id="a_node13"><a xlink:href="ip_2tcp_2ipv4_2tls_2_socket_client_8h.html" target="_top" xlink:title=" ">
<polygon fill="white" stroke="black" points="1168.5,-123.5 1168.5,-153.5 1278.5,-153.5 1278.5,-123.5 1168.5,-123.5"/>
<text text-anchor="start" x="1176.5" y="-141.5" font-family="Helvetica,sans-Serif" font-size="10.00">net/socket/ip/tcp/ipv4</text>
<text text-anchor="middle" x="1223.5" y="-130.5" font-family="Helvetica,sans-Serif" font-size="10.00">/tls/SocketClient.h</text>
</a>
</g>
</g>
<!-- Node23&#45;&gt;Node25 -->
<g id="edge12" class="edge">
<title>Node23&#45;&gt;Node25</title>
<path fill="none" stroke="midnightblue" d="M1068.6,-187.44C1102.64,-176.91 1145.8,-163.55 1177.91,-153.61"/>
<polygon fill="midnightblue" stroke="midnightblue" points="1067.33,-184.18 1058.81,-190.48 1069.4,-190.86 1067.33,-184.18"/>
</g>
<!-- Node27 -->
<g id="node15" class="node">
<title>Node27</title>
<g id="a_node15"><a xlink:href="ip_2tcp_2ipv6_2tls_2_socket_client_8h.html" target="_top" xlink:title=" ">
<polygon fill="white" stroke="black" points="888.5,-123.5 888.5,-153.5 998.5,-153.5 998.5,-123.5 888.5,-123.5"/>
<text text-anchor="start" x="896.5" y="-141.5" font-family="Helvetica,sans-Serif" font-size="10.00">net/socket/ip/tcp/ipv6</text>
<text text-anchor="middle" x="943.5" y="-130.5" font-family="Helvetica,sans-Serif" font-size="10.00">/tls/SocketClient.h</text>
</a>
</g>
</g>
<!-- Node23&#45;&gt;Node27 -->
<g id="edge14" class="edge">
<title>Node23&#45;&gt;Node27</title>
<path fill="none" stroke="midnightblue" d="M990.68,-183.31C980.18,-173.56 968.01,-162.26 958.66,-153.58"/>
<polygon fill="midnightblue" stroke="midnightblue" points="988.6,-186.16 998.31,-190.4 993.36,-181.03 988.6,-186.16"/>
</g>
<!-- Node26 -->
<g id="node14" class="node">
<title>Node26</title>
<g id="a_node14"><a xlink:href="tls_2_client_8h.html" target="_top" xlink:title=" ">
<polygon fill="white" stroke="black" points="1176.5,-56.5 1176.5,-86.5 1270.5,-86.5 1270.5,-56.5 1176.5,-56.5"/>
<text text-anchor="start" x="1184.5" y="-74.5" font-family="Helvetica,sans-Serif" font-size="10.00">web/http/client/tls</text>
<text text-anchor="middle" x="1223.5" y="-63.5" font-family="Helvetica,sans-Serif" font-size="10.00">/Client.h</text>
</a>
</g>
</g>
<!-- Node25&#45;&gt;Node26 -->
<g id="edge13" class="edge">
<title>Node25&#45;&gt;Node26</title>
<path fill="none" stroke="midnightblue" d="M1223.5,-113.11C1223.5,-104.15 1223.5,-94.32 1223.5,-86.58"/>
<polygon fill="midnightblue" stroke="midnightblue" points="1220,-113.4 1223.5,-123.4 1227,-113.4 1220,-113.4"/>
</g>
<!-- Node27&#45;&gt;Node26 -->
<g id="edge15" class="edge">
<title>Node27&#45;&gt;Node26</title>
<path fill="none" stroke="midnightblue" d="M1008.81,-122.34C1060.08,-110.44 1130.25,-94.15 1176.21,-83.48"/>
<polygon fill="midnightblue" stroke="midnightblue" points="1007.77,-118.99 998.82,-124.66 1009.35,-125.81 1007.77,-118.99"/>
</g>
<!-- Node29 -->
<g id="node17" class="node">
<title>Node29</title>
<g id="a_node17"><a xlink:href="stream_2tls_2_socket_server_8h.html" target="_top" xlink:title=" ">
<polygon fill="white" stroke="black" points="591,-190.5 591,-220.5 700,-220.5 700,-190.5 591,-190.5"/>
<text text-anchor="start" x="599" y="-208.5" font-family="Helvetica,sans-Serif" font-size="10.00">net/socket/stream/tls</text>
<text text-anchor="middle" x="645.5" y="-197.5" font-family="Helvetica,sans-Serif" font-size="10.00">/SocketServer.h</text>
</a>
</g>
</g>
<!-- Node28&#45;&gt;Node29 -->
<g id="edge17" class="edge">
<title>Node28&#45;&gt;Node29</title>
<path fill="none" stroke="midnightblue" d="M645.5,-247.11C645.5,-238.15 645.5,-228.32 645.5,-220.58"/>
<polygon fill="midnightblue" stroke="midnightblue" points="642,-247.4 645.5,-257.4 649,-247.4 642,-247.4"/>
</g>
<!-- Node30 -->
<g id="node18" class="node">
<title>Node30</title>
<g id="a_node18"><a xlink:href="bluetooth_2rfcomm_2tls_2_socket_server_8h.html" target="_top" xlink:title=" ">
<polygon fill="white" stroke="black" points="440.5,-123.5 440.5,-153.5 576.5,-153.5 576.5,-123.5 440.5,-123.5"/>
<text text-anchor="start" x="448.5" y="-141.5" font-family="Helvetica,sans-Serif" font-size="10.00">net/socket/bluetooth</text>
<text text-anchor="middle" x="508.5" y="-130.5" font-family="Helvetica,sans-Serif" font-size="10.00">/rfcomm/tls/SocketServer.h</text>
</a>
</g>
</g>
<!-- Node29&#45;&gt;Node30 -->
<g id="edge18" class="edge">
<title>Node29&#45;&gt;Node30</title>
<path fill="none" stroke="midnightblue" d="M606.49,-185.99C584.78,-175.69 558.17,-163.07 538.17,-153.58"/>
<polygon fill="midnightblue" stroke="midnightblue" points="605.24,-189.27 615.77,-190.4 608.24,-182.95 605.24,-189.27"/>
</g>
<!-- Node31 -->
<g id="node19" class="node">
<title>Node31</title>
<g id="a_node19"><a xlink:href="ip_2tcp_2ipv4_2tls_2_socket_server_8h.html" target="_top" xlink:title=" ">
<polygon fill="white" stroke="black" points="594.5,-123.5 594.5,-153.5 704.5,-153.5 704.5,-123.5 594.5,-123.5"/>
<text text-anchor="start" x="602.5" y="-141.5" font-family="Helvetica,sans-Serif" font-size="10.00">net/socket/ip/tcp/ipv4</text>
<text text-anchor="middle" x="649.5" y="-130.5" font-family="Helvetica,sans-Serif" font-size="10.00">/tls/SocketServer.h</text>
</a>
</g>
</g>
<!-- Node29&#45;&gt;Node31 -->
<g id="edge19" class="edge">
<title>Node29&#45;&gt;Node31</title>
<path fill="none" stroke="midnightblue" d="M646.98,-180.4C647.54,-171.37 648.15,-161.41 648.63,-153.58"/>
<polygon fill="midnightblue" stroke="midnightblue" points="643.49,-180.2 646.37,-190.4 650.48,-180.63 643.49,-180.2"/>
</g>
<!-- Node34 -->
<g id="node22" class="node">
<title>Node34</title>
<g id="a_node22"><a xlink:href="ip_2tcp_2ipv6_2tls_2_socket_server_8h.html" target="_top" xlink:title=" ">
<polygon fill="white" stroke="black" points="722.5,-123.5 722.5,-153.5 832.5,-153.5 832.5,-123.5 722.5,-123.5"/>
<text text-anchor="start" x="730.5" y="-141.5" font-family="Helvetica,sans-Serif" font-size="10.00">net/socket/ip/tcp/ipv6</text>
<text text-anchor="middle" x="777.5" y="-130.5" font-family="Helvetica,sans-Serif" font-size="10.00">/tls/SocketServer.h</text>
</a>
</g>
</g>
<!-- Node29&#45;&gt;Node34 -->
<g id="edge22" class="edge">
<title>Node29&#45;&gt;Node34</title>
<path fill="none" stroke="midnightblue" d="M683.37,-185.85C704.24,-175.58 729.73,-163.03 748.91,-153.58"/>
<polygon fill="midnightblue" stroke="midnightblue" points="681.57,-182.84 674.14,-190.4 684.66,-189.12 681.57,-182.84"/>
</g>
<!-- Node32 -->
<g id="node20" class="node">
<title>Node32</title>
<g id="a_node20"><a xlink:href="tls_2_server_8h.html" target="_top" xlink:title=" ">
<polygon fill="white" stroke="black" points="770.5,-56.5 770.5,-86.5 868.5,-86.5 868.5,-56.5 770.5,-56.5"/>
<text text-anchor="start" x="778.5" y="-74.5" font-family="Helvetica,sans-Serif" font-size="10.00">web/http/server/tls</text>
<text text-anchor="middle" x="819.5" y="-63.5" font-family="Helvetica,sans-Serif" font-size="10.00">/Server.h</text>
</a>
</g>
</g>
<!-- Node31&#45;&gt;Node32 -->
<g id="edge20" class="edge">
<title>Node31&#45;&gt;Node32</title>
<path fill="none" stroke="midnightblue" d="M695.74,-119.82C723.07,-109.37 757.19,-96.32 782.68,-86.58"/>
<polygon fill="midnightblue" stroke="midnightblue" points="694.48,-116.56 686.39,-123.4 696.98,-123.09 694.48,-116.56"/>
</g>
<!-- Node33 -->
<g id="node21" class="node">
<title>Node33</title>
<g id="a_node21"><a xlink:href="tls_2_web_app_8h.html" target="_top" xlink:title=" ">
<polygon fill="white" stroke="black" points="1005,-0.5 1005,-19.5 1118,-19.5 1118,-0.5 1005,-0.5"/>
<text text-anchor="middle" x="1061.5" y="-7.5" font-family="Helvetica,sans-Serif" font-size="10.00">express/tls/WebApp.h</text>
</a>
</g>
</g>
<!-- Node32&#45;&gt;Node33 -->
<g id="edge21" class="edge">
<title>Node32&#45;&gt;Node33</title>
<path fill="none" stroke="midnightblue" d="M878.7,-55.94C925.13,-44.53 988.16,-29.03 1026.77,-19.54"/>
<polygon fill="midnightblue" stroke="midnightblue" points="877.64,-52.6 868.76,-58.39 879.31,-59.4 877.64,-52.6"/>
</g>
<!-- Node34&#45;&gt;Node32 -->
<g id="edge23" class="edge">
<title>Node34&#45;&gt;Node32</title>
<path fill="none" stroke="midnightblue" d="M792.12,-114.87C798.2,-105.46 805.07,-94.83 810.4,-86.58"/>
<polygon fill="midnightblue" stroke="midnightblue" points="789.1,-113.1 786.61,-123.4 794.98,-116.9 789.1,-113.1"/>
</g>
<!-- Node35&#45;&gt;Node13 -->
<g id="edge25" class="edge">
<title>Node35&#45;&gt;Node13</title>
<path fill="none" stroke="midnightblue" d="M349.18,-314.99C352.57,-305.8 356.35,-295.58 359.3,-287.58"/>
<polygon fill="midnightblue" stroke="midnightblue" points="345.89,-313.8 345.71,-324.4 352.45,-316.23 345.89,-313.8"/>
</g>
<!-- Node35&#45;&gt;Node28 -->
<g id="edge29" class="edge">
<title>Node35&#45;&gt;Node28</title>
<path fill="none" stroke="midnightblue" d="M414.93,-323.23C462.59,-313.37 525.74,-300.16 581.5,-288 584.51,-287.34 587.59,-286.67 590.7,-285.98"/>
<polygon fill="midnightblue" stroke="midnightblue" points="414.09,-319.83 405,-325.28 415.5,-326.68 414.09,-319.83"/>
</g>
<!-- Node36 -->
<g id="node24" class="node">
<title>Node36</title>
<g id="a_node24"><a xlink:href="stream_2_socket_server_8h.html" target="_top" xlink:title=" ">
<polygon fill="white" stroke="black" points="154,-257.5 154,-287.5 283,-287.5 283,-257.5 154,-257.5"/>
<text text-anchor="start" x="162" y="-275.5" font-family="Helvetica,sans-Serif" font-size="10.00">net/socket/stream/Socket</text>
<text text-anchor="middle" x="218.5" y="-264.5" font-family="Helvetica,sans-Serif" font-size="10.00">Server.h</text>
</a>
</g>
</g>
<!-- Node35&#45;&gt;Node36 -->
<g id="edge26" class="edge">
<title>Node35&#45;&gt;Node36</title>
<path fill="none" stroke="midnightblue" d="M304.98,-319.57C285.79,-309.35 262.5,-296.94 244.92,-287.58"/>
<polygon fill="midnightblue" stroke="midnightblue" points="303.56,-322.78 314.03,-324.4 306.85,-316.6 303.56,-322.78"/>
</g>
<!-- Node36&#45;&gt;Node14 -->
<g id="edge27" class="edge">
<title>Node36&#45;&gt;Node14</title>
<path fill="none" stroke="midnightblue" d="M241.97,-250.6C253,-240.78 265.84,-229.34 275.69,-220.58"/>
<polygon fill="midnightblue" stroke="midnightblue" points="239.48,-248.13 234.34,-257.4 244.14,-253.36 239.48,-248.13"/>
</g>
<!-- Node36&#45;&gt;Node29 -->
<g id="edge28" class="edge">
<title>Node36&#45;&gt;Node29</title>
<path fill="none" stroke="midnightblue" d="M293.36,-256.73C404.29,-238.03 523.14,-222.07 590.78,-213.37"/>
<polygon fill="midnightblue" stroke="midnightblue" points="292.62,-253.31 283.34,-258.43 293.79,-260.21 292.62,-253.31"/>
</g>
<!-- Node39 -->
<g id="node27" class="node">
<title>Node39</title>
<g id="a_node27"><a xlink:href="legacy_2_socket_writer_8h.html" target="_top" xlink:title=" ">
<polygon fill="white" stroke="black" points="488,-391.5 488,-421.5 615,-421.5 615,-391.5 488,-391.5"/>
<text text-anchor="start" x="496" y="-409.5" font-family="Helvetica,sans-Serif" font-size="10.00">net/socket/stream/legacy</text>
<text text-anchor="middle" x="551.5" y="-398.5" font-family="Helvetica,sans-Serif" font-size="10.00">/SocketWriter.h</text>
</a>
</g>
</g>
<!-- Node38&#45;&gt;Node39 -->
<g id="edge32" class="edge">
<title>Node38&#45;&gt;Node39</title>
<path fill="none" stroke="midnightblue" d="M678.9,-454.82C650.77,-444.37 615.64,-431.32 589.4,-421.58"/>
<polygon fill="midnightblue" stroke="midnightblue" points="677.93,-458.2 688.53,-458.4 680.37,-451.63 677.93,-458.2"/>
</g>
<!-- Node38&#45;&gt;Node40 -->
<g id="edge34" class="edge">
<title>Node38&#45;&gt;Node40</title>
<path fill="none" stroke="midnightblue" d="M726.5,-448.11C726.5,-439.15 726.5,-429.32 726.5,-421.58"/>
<polygon fill="midnightblue" stroke="midnightblue" points="723,-448.4 726.5,-458.4 730,-448.4 723,-448.4"/>
</g>
<!-- Node39&#45;&gt;Node5 -->
<g id="edge33" class="edge">
<title>Node39&#45;&gt;Node5</title>
<path fill="none" stroke="midnightblue" d="M534.2,-383.45C526.71,-373.9 518.16,-363 511.54,-354.58"/>
<polygon fill="midnightblue" stroke="midnightblue" points="531.51,-385.69 540.43,-391.4 537.01,-381.37 531.51,-385.69"/>
</g>
<!-- Node40&#45;&gt;Node21 -->
<g id="edge35" class="edge">
<title>Node40&#45;&gt;Node21</title>
<path fill="none" stroke="midnightblue" d="M740.78,-382.87C746.71,-373.46 753.41,-362.83 758.62,-354.58"/>
<polygon fill="midnightblue" stroke="midnightblue" points="737.77,-381.07 735.4,-391.4 743.69,-384.81 737.77,-381.07"/>
</g>
<!-- Node41&#45;&gt;Node21 -->
<g id="edge40" class="edge">
<title>Node41&#45;&gt;Node21</title>
<path fill="none" stroke="midnightblue" d="M856.37,-386.71C836.66,-376.46 812.66,-363.98 794.57,-354.58"/>
<polygon fill="midnightblue" stroke="midnightblue" points="854.89,-389.89 865.38,-391.4 858.12,-383.68 854.89,-389.89"/>
</g>
<!-- Node44 -->
<g id="node32" class="node">
<title>Node44</title>
<g id="a_node32"><a xlink:href="_client_8h.html" target="_top" xlink:title=" ">
<polygon fill="white" stroke="black" points="1164,-397 1164,-416 1281,-416 1281,-397 1164,-397"/>
<text text-anchor="middle" x="1222.5" y="-404" font-family="Helvetica,sans-Serif" font-size="10.00">web/http/client/Client.h</text>
</a>
</g>
</g>
<!-- Node43&#45;&gt;Node44 -->
<g id="edge44" class="edge">
<title>Node43&#45;&gt;Node44</title>
<path fill="none" stroke="midnightblue" d="M1208.22,-453.91C1212.04,-441.49 1216.89,-425.72 1219.85,-416.13"/>
<polygon fill="midnightblue" stroke="midnightblue" points="1204.79,-453.15 1205.2,-463.73 1211.48,-455.21 1204.79,-453.15"/>
</g>
<!-- Node44&#45;&gt;Node26 -->
<g id="edge46" class="edge">
<title>Node44&#45;&gt;Node26</title>
<path fill="none" stroke="midnightblue" d="M1247.61,-391.8C1261.39,-383.02 1277.64,-370.4 1287.5,-355 1307.56,-323.68 1306.5,-310.69 1306.5,-273.5 1306.5,-273.5 1306.5,-273.5 1306.5,-204.5 1306.5,-167.31 1307.44,-154.4 1287.5,-123 1277.94,-107.95 1262.28,-95.48 1248.85,-86.7"/>
<polygon fill="midnightblue" stroke="midnightblue" points="1245.75,-388.83 1239,-397 1249.37,-394.82 1245.75,-388.83"/>
</g>
<!-- Node11 -->
<g id="node33" class="node">
<title>Node11</title>
<g id="a_node33"><a xlink:href="legacy_2_client_8h.html" target="_top" xlink:title=" ">
<polygon fill="white" stroke="black" points="1166.5,-324.5 1166.5,-354.5 1278.5,-354.5 1278.5,-324.5 1166.5,-324.5"/>
<text text-anchor="start" x="1174.5" y="-342.5" font-family="Helvetica,sans-Serif" font-size="10.00">web/http/client/legacy</text>
<text text-anchor="middle" x="1222.5" y="-331.5" font-family="Helvetica,sans-Serif" font-size="10.00">/Client.h</text>
</a>
</g>
</g>
<!-- Node44&#45;&gt;Node11 -->
<g id="edge45" class="edge">
<title>Node44&#45;&gt;Node11</title>
<path fill="none" stroke="midnightblue" d="M1222.5,-386.41C1222.5,-376.22 1222.5,-363.9 1222.5,-354.59"/>
<polygon fill="midnightblue" stroke="midnightblue" points="1219,-386.73 1222.5,-396.73 1226,-386.73 1219,-386.73"/>
</g>
<!-- Node48 -->
<g id="node37" class="node">
<title>Node48</title>
<g id="a_node37"><a xlink:href="_server_8h.html" target="_top" xlink:title=" ">
<polygon fill="white" stroke="black" points="1004,-397 1004,-416 1127,-416 1127,-397 1004,-397"/>
<text text-anchor="middle" x="1065.5" y="-404" font-family="Helvetica,sans-Serif" font-size="10.00">web/http/server/Server.h</text>
</a>
</g>
</g>
<!-- Node47&#45;&gt;Node48 -->
<g id="edge50" class="edge">
<title>Node47&#45;&gt;Node48</title>
<path fill="none" stroke="midnightblue" d="M1044.28,-449.29C1050.12,-437.8 1056.8,-424.63 1061.09,-416.19"/>
<polygon fill="midnightblue" stroke="midnightblue" points="1041.07,-447.89 1039.66,-458.4 1047.31,-451.06 1041.07,-447.89"/>
</g>
<!-- Node48&#45;&gt;Node32 -->
<g id="edge53" class="edge">
<title>Node48&#45;&gt;Node32</title>
<path fill="none" stroke="midnightblue" d="M1049.82,-389.43C1041.21,-379.98 1030.84,-367.47 1023.5,-355 999.81,-314.74 1011.29,-295.95 985.5,-257 976.43,-243.31 890.29,-166.38 879.5,-154 859.98,-131.62 840.09,-103.27 828.82,-86.59"/>
<polygon fill="midnightblue" stroke="midnightblue" points="1047.4,-391.97 1056.8,-396.87 1052.51,-387.18 1047.4,-391.97"/>
</g>
<!-- Node18 -->
<g id="node38" class="node">
<title>Node18</title>
<g id="a_node38"><a xlink:href="legacy_2_server_8h.html" target="_top" xlink:title=" ">
<polygon fill="white" stroke="black" points="1032.5,-324.5 1032.5,-354.5 1148.5,-354.5 1148.5,-324.5 1032.5,-324.5"/>
<text text-anchor="start" x="1040.5" y="-342.5" font-family="Helvetica,sans-Serif" font-size="10.00">web/http/server/legacy</text>
<text text-anchor="middle" x="1090.5" y="-331.5" font-family="Helvetica,sans-Serif" font-size="10.00">/Server.h</text>
</a>
</g>
</g>
<!-- Node48&#45;&gt;Node18 -->
<g id="edge51" class="edge">
<title>Node48&#45;&gt;Node18</title>
<path fill="none" stroke="midnightblue" d="M1072.47,-387.39C1076.45,-377.02 1081.38,-364.2 1085.08,-354.59"/>
<polygon fill="midnightblue" stroke="midnightblue" points="1069.19,-386.14 1068.87,-396.73 1075.73,-388.66 1069.19,-386.14"/>
</g>
<!-- Node19 -->
<g id="node39" class="node">
<title>Node19</title>
<g id="a_node39"><a xlink:href="legacy_2_web_app_8h.html" target="_top" xlink:title=" ">
<polygon fill="white" stroke="black" points="1090,-263 1090,-282 1221,-282 1221,-263 1090,-263"/>
<text text-anchor="middle" x="1155.5" y="-270" font-family="Helvetica,sans-Serif" font-size="10.00">express/legacy/WebApp.h</text>
</a>
</g>
</g>
<!-- Node18&#45;&gt;Node19 -->
<g id="edge52" class="edge">
<title>Node18&#45;&gt;Node19</title>
<path fill="none" stroke="midnightblue" d="M1112,-317C1123.87,-305.13 1137.95,-291.05 1146.81,-282.19"/>
<polygon fill="midnightblue" stroke="midnightblue" points="1109.2,-314.85 1104.6,-324.4 1114.15,-319.8 1109.2,-314.85"/>
</g>
<!-- Node59&#45;&gt;Node33 -->
<g id="edge66" class="edge">
<title>Node59&#45;&gt;Node33</title>
<path fill="none" stroke="midnightblue" d="M1381.72,-320.21C1375.52,-294.86 1365.5,-247.53 1365.5,-206.5 1365.5,-206.5 1365.5,-206.5 1365.5,-137.5 1365.5,-31.6 1206.31,-12.73 1118.32,-10.38"/>
<polygon fill="midnightblue" stroke="midnightblue" points="1378.33,-321.09 1384.17,-329.93 1385.12,-319.37 1378.33,-321.09"/>
</g>
<!-- Node59&#45;&gt;Node19 -->
<g id="edge65" class="edge">
<title>Node59&#45;&gt;Node19</title>
<path fill="none" stroke="midnightblue" d="M1345.95,-327.09C1300.26,-314.23 1227,-293.62 1185.93,-282.06"/>
<polygon fill="midnightblue" stroke="midnightblue" points="1345.25,-330.53 1355.82,-329.87 1347.15,-323.79 1345.25,-330.53"/>
</g>
</g>
</svg>
