<?xml version="1.0" encoding="UTF-8" standalone="no"?>
<!DOCTYPE svg PUBLIC "-//W3C//DTD SVG 1.1//EN"
 "http://www.w3.org/Graphics/SVG/1.1/DTD/svg11.dtd">
<!-- Generated by graphviz version 2.43.0 (0)
 -->
<!-- Title: log/Logger.h Pages: 1 -->
<svg width="2651pt" height="475pt"
 viewBox="0.00 0.00 2650.50 475.00" xmlns="http://www.w3.org/2000/svg" xmlns:xlink="http://www.w3.org/1999/xlink">
<g id="graph0" class="graph" transform="scale(1 1) rotate(0) translate(4 471)">
<title>log/Logger.h</title>
<polygon fill="white" stroke="transparent" points="-4,4 -4,-471 2646.5,-471 2646.5,4 -4,4"/>
<!-- Node1 -->
<g id="node1" class="node">
<title>Node1</title>
<g id="a_node1"><a xlink:title=" ">
<polygon fill="#bfbfbf" stroke="black" points="1722.5,-447.5 1722.5,-466.5 1791.5,-466.5 1791.5,-447.5 1722.5,-447.5"/>
<text text-anchor="middle" x="1757" y="-454.5" font-family="Helvetica,sans-Serif" font-size="10.00">log/Logger.h</text>
</a>
</g>
</g>
<!-- Node2 -->
<g id="node2" class="node">
<title>Node2</title>
<g id="a_node2"><a xlink:href="_event_dispatcher_8h.html" target="_top" xlink:title=" ">
<polygon fill="white" stroke="black" points="564.5,-386 564.5,-405 677.5,-405 677.5,-386 564.5,-386"/>
<text text-anchor="middle" x="621" y="-393" font-family="Helvetica,sans-Serif" font-size="10.00">net/EventDispatcher.h</text>
</a>
</g>
</g>
<!-- Node1&#45;&gt;Node2 -->
<g id="edge1" class="edge">
<title>Node1&#45;&gt;Node2</title>
<path fill="none" stroke="midnightblue" d="M1712.32,-453.66C1534.29,-444.34 875.55,-409.83 677.61,-399.47"/>
<polygon fill="midnightblue" stroke="midnightblue" points="1712.21,-457.16 1722.38,-454.19 1712.58,-450.17 1712.21,-457.16"/>
</g>
<!-- Node7 -->
<g id="node7" class="node">
<title>Node7</title>
<g id="a_node7"><a xlink:href="_event_loop_8cpp.html" target="_top" xlink:title=" ">
<polygon fill="white" stroke="black" points="949,-185 949,-204 1047,-204 1047,-185 949,-185"/>
<text text-anchor="middle" x="998" y="-192" font-family="Helvetica,sans-Serif" font-size="10.00">net/EventLoop.cpp</text>
</a>
</g>
</g>
<!-- Node1&#45;&gt;Node7 -->
<g id="edge25" class="edge">
<title>Node1&#45;&gt;Node7</title>
<path fill="none" stroke="midnightblue" d="M1711.98,-454.78C1580.81,-450.92 1205.18,-437.63 1157,-411 1067.48,-361.51 1014.4,-237.93 1001.24,-204.15"/>
<polygon fill="midnightblue" stroke="midnightblue" points="1711.99,-458.28 1722.09,-455.07 1712.19,-451.28 1711.99,-458.28"/>
</g>
<!-- Node12 -->
<g id="node12" class="node">
<title>Node12</title>
<g id="a_node12"><a xlink:href="_web_app_8cpp.html" target="_top" xlink:title=" ">
<polygon fill="white" stroke="black" points="1065,-185 1065,-204 1175,-204 1175,-185 1065,-185"/>
<text text-anchor="middle" x="1120" y="-192" font-family="Helvetica,sans-Serif" font-size="10.00">express/WebApp.cpp</text>
</a>
</g>
</g>
<!-- Node1&#45;&gt;Node12 -->
<g id="edge70" class="edge">
<title>Node1&#45;&gt;Node12</title>
<path fill="none" stroke="midnightblue" d="M1712.24,-455.28C1585.34,-452.86 1229.68,-443.23 1189,-411 1121.57,-357.58 1119.01,-237.85 1119.68,-204.36"/>
<polygon fill="midnightblue" stroke="midnightblue" points="1712.33,-458.78 1722.39,-455.47 1712.46,-451.79 1712.33,-458.78"/>
</g>
<!-- Node17 -->
<g id="node17" class="node">
<title>Node17</title>
<g id="a_node17"><a xlink:href="_socket_listener_8h.html" target="_top" xlink:title=" ">
<polygon fill="white" stroke="black" points="1410,-313.5 1410,-343.5 1532,-343.5 1532,-313.5 1410,-313.5"/>
<text text-anchor="start" x="1418" y="-331.5" font-family="Helvetica,sans-Serif" font-size="10.00">net/socket/sock_stream</text>
<text text-anchor="middle" x="1471" y="-320.5" font-family="Helvetica,sans-Serif" font-size="10.00">/SocketListener.h</text>
</a>
</g>
</g>
<!-- Node1&#45;&gt;Node17 -->
<g id="edge26" class="edge">
<title>Node1&#45;&gt;Node17</title>
<path fill="none" stroke="midnightblue" d="M1712.23,-454.29C1667.49,-450.86 1598.06,-440.71 1546,-411 1516.77,-394.32 1492.46,-362.36 1480,-343.81"/>
<polygon fill="midnightblue" stroke="midnightblue" points="1711.99,-457.79 1722.21,-454.98 1712.47,-450.8 1711.99,-457.79"/>
</g>
<!-- Node30 -->
<g id="node30" class="node">
<title>Node30</title>
<g id="a_node30"><a xlink:href="tls_2_socket_listener_8h.html" target="_top" xlink:title=" ">
<polygon fill="white" stroke="black" points="1629,-246.5 1629,-276.5 1751,-276.5 1751,-246.5 1629,-246.5"/>
<text text-anchor="start" x="1637" y="-264.5" font-family="Helvetica,sans-Serif" font-size="10.00">net/socket/sock_stream</text>
<text text-anchor="middle" x="1690" y="-253.5" font-family="Helvetica,sans-Serif" font-size="10.00">/tls/SocketListener.h</text>
</a>
</g>
</g>
<!-- Node1&#45;&gt;Node30 -->
<g id="edge50" class="edge">
<title>Node1&#45;&gt;Node30</title>
<path fill="none" stroke="midnightblue" d="M1712.14,-454.72C1679.94,-451.16 1638.58,-440.6 1617,-411 1584.34,-366.2 1642.42,-304.54 1672.98,-276.91"/>
<polygon fill="midnightblue" stroke="midnightblue" points="1711.95,-458.21 1722.23,-455.64 1712.59,-451.24 1711.95,-458.21"/>
</g>
<!-- Node31 -->
<g id="node31" class="node">
<title>Node31</title>
<g id="a_node31"><a xlink:href="tls_2_socket_connector_8h.html" target="_top" xlink:title=" ">
<polygon fill="white" stroke="black" points="1855,-246.5 1855,-276.5 1977,-276.5 1977,-246.5 1855,-246.5"/>
<text text-anchor="start" x="1863" y="-264.5" font-family="Helvetica,sans-Serif" font-size="10.00">net/socket/sock_stream</text>
<text text-anchor="middle" x="1916" y="-253.5" font-family="Helvetica,sans-Serif" font-size="10.00">/tls/SocketConnector.h</text>
</a>
</g>
</g>
<!-- Node1&#45;&gt;Node31 -->
<g id="edge44" class="edge">
<title>Node1&#45;&gt;Node31</title>
<path fill="none" stroke="midnightblue" d="M1801.81,-453.76C1833.31,-449.67 1873.83,-438.87 1897,-411 1929.57,-371.82 1923.4,-305.59 1918.72,-276.69"/>
<polygon fill="midnightblue" stroke="midnightblue" points="1801.06,-450.32 1791.5,-454.9 1801.83,-457.28 1801.06,-450.32"/>
</g>
<!-- Node36 -->
<g id="node36" class="node">
<title>Node36</title>
<g id="a_node36"><a xlink:href="tls_2_socket_reader_8h.html" target="_top" xlink:title=" ">
<polygon fill="white" stroke="black" points="1626,-380.5 1626,-410.5 1748,-410.5 1748,-380.5 1626,-380.5"/>
<text text-anchor="start" x="1634" y="-398.5" font-family="Helvetica,sans-Serif" font-size="10.00">net/socket/sock_stream</text>
<text text-anchor="middle" x="1687" y="-387.5" font-family="Helvetica,sans-Serif" font-size="10.00">/tls/SocketReader.h</text>
</a>
</g>
</g>
<!-- Node1&#45;&gt;Node36 -->
<g id="edge51" class="edge">
<title>Node1&#45;&gt;Node36</title>
<path fill="none" stroke="midnightblue" d="M1739.26,-440.92C1728.27,-431.58 1714.25,-419.66 1703.5,-410.52"/>
<polygon fill="midnightblue" stroke="midnightblue" points="1737.08,-443.67 1746.97,-447.48 1741.62,-438.33 1737.08,-443.67"/>
</g>
<!-- Node38 -->
<g id="node38" class="node">
<title>Node38</title>
<g id="a_node38"><a xlink:href="tls_2_socket_writer_8h.html" target="_top" xlink:title=" ">
<polygon fill="white" stroke="black" points="1766,-380.5 1766,-410.5 1888,-410.5 1888,-380.5 1766,-380.5"/>
<text text-anchor="start" x="1774" y="-398.5" font-family="Helvetica,sans-Serif" font-size="10.00">net/socket/sock_stream</text>
<text text-anchor="middle" x="1827" y="-387.5" font-family="Helvetica,sans-Serif" font-size="10.00">/tls/SocketWriter.h</text>
</a>
</g>
</g>
<!-- Node1&#45;&gt;Node38 -->
<g id="edge55" class="edge">
<title>Node1&#45;&gt;Node38</title>
<path fill="none" stroke="midnightblue" d="M1774.74,-440.92C1785.73,-431.58 1799.75,-419.66 1810.5,-410.52"/>
<polygon fill="midnightblue" stroke="midnightblue" points="1772.38,-438.33 1767.03,-447.48 1776.92,-443.67 1772.38,-438.33"/>
</g>
<!-- Node39 -->
<g id="node39" class="node">
<title>Node39</title>
<g id="a_node39"><a xlink:href="ssl__utils_8cpp.html" target="_top" xlink:title=" ">
<polygon fill="white" stroke="black" points="2032,-380.5 2032,-410.5 2154,-410.5 2154,-380.5 2032,-380.5"/>
<text text-anchor="start" x="2040" y="-398.5" font-family="Helvetica,sans-Serif" font-size="10.00">net/socket/sock_stream</text>
<text text-anchor="middle" x="2093" y="-387.5" font-family="Helvetica,sans-Serif" font-size="10.00">/tls/ssl_utils.cpp</text>
</a>
</g>
</g>
<!-- Node1&#45;&gt;Node39 -->
<g id="edge57" class="edge">
<title>Node1&#45;&gt;Node39</title>
<path fill="none" stroke="midnightblue" d="M1801.57,-448.97C1854.47,-440.51 1945.33,-425.61 2023,-411 2025.93,-410.45 2028.92,-409.87 2031.94,-409.28"/>
<polygon fill="midnightblue" stroke="midnightblue" points="1800.83,-445.55 1791.51,-450.58 1801.93,-452.46 1800.83,-445.55"/>
</g>
<!-- Node40 -->
<g id="node40" class="node">
<title>Node40</title>
<g id="a_node40"><a xlink:href="_client_8h.html" target="_top" xlink:title=" ">
<polygon fill="white" stroke="black" points="1944,-386 1944,-405 2014,-405 2014,-386 1944,-386"/>
<text text-anchor="middle" x="1979" y="-393" font-family="Helvetica,sans-Serif" font-size="10.00">http/Client.h</text>
</a>
</g>
</g>
<!-- Node1&#45;&gt;Node40 -->
<g id="edge58" class="edge">
<title>Node1&#45;&gt;Node40</title>
<path fill="none" stroke="midnightblue" d="M1801.14,-444.95C1836.16,-436.08 1886.32,-423.14 1930,-411 1936.75,-409.12 1944,-407.02 1950.8,-405.02"/>
<polygon fill="midnightblue" stroke="midnightblue" points="1800.07,-441.61 1791.23,-447.45 1801.78,-448.4 1800.07,-441.61"/>
</g>
<!-- Node42 -->
<g id="node42" class="node">
<title>Node42</title>
<g id="a_node42"><a xlink:href="_mime_types_8cpp.html" target="_top" xlink:title=" ">
<polygon fill="white" stroke="black" points="2172.5,-386 2172.5,-405 2277.5,-405 2277.5,-386 2172.5,-386"/>
<text text-anchor="middle" x="2225" y="-393" font-family="Helvetica,sans-Serif" font-size="10.00">http/MimeTypes.cpp</text>
</a>
</g>
</g>
<!-- Node1&#45;&gt;Node42 -->
<g id="edge61" class="edge">
<title>Node1&#45;&gt;Node42</title>
<path fill="none" stroke="midnightblue" d="M1801.73,-452.8C1876.78,-447.03 2032.66,-433.38 2163,-411 2172.37,-409.39 2182.44,-407.23 2191.69,-405.06"/>
<polygon fill="midnightblue" stroke="midnightblue" points="1801.39,-449.31 1791.68,-453.56 1801.92,-456.29 1801.39,-449.31"/>
</g>
<!-- Node43 -->
<g id="node43" class="node">
<title>Node43</title>
<g id="a_node43"><a xlink:href="_server_context_8hpp.html" target="_top" xlink:title=" ">
<polygon fill="white" stroke="black" points="1501,-185 1501,-204 1619,-204 1619,-185 1501,-185"/>
<text text-anchor="middle" x="1560" y="-192" font-family="Helvetica,sans-Serif" font-size="10.00">http/ServerContext.hpp</text>
</a>
</g>
</g>
<!-- Node1&#45;&gt;Node43 -->
<g id="edge62" class="edge">
<title>Node1&#45;&gt;Node43</title>
<path fill="none" stroke="midnightblue" d="M1711.93,-454.88C1677.21,-451.52 1630.63,-441.15 1603,-411 1546.81,-349.68 1555.14,-236.52 1558.85,-204.28"/>
<polygon fill="midnightblue" stroke="midnightblue" points="1712.04,-458.4 1722.29,-455.71 1712.6,-451.42 1712.04,-458.4"/>
</g>
<!-- Node46 -->
<g id="node46" class="node">
<title>Node46</title>
<g id="a_node46"><a xlink:href="_logger_8cpp.html" target="_top" xlink:title=" ">
<polygon fill="white" stroke="black" points="2296,-386 2296,-405 2376,-405 2376,-386 2296,-386"/>
<text text-anchor="middle" x="2336" y="-393" font-family="Helvetica,sans-Serif" font-size="10.00">log/Logger.cpp</text>
</a>
</g>
</g>
<!-- Node1&#45;&gt;Node46 -->
<g id="edge67" class="edge">
<title>Node1&#45;&gt;Node46</title>
<path fill="none" stroke="midnightblue" d="M1801.79,-455.26C1893.59,-453.06 2109.4,-444.46 2287,-411 2294.85,-409.52 2303.23,-407.29 2310.81,-405.02"/>
<polygon fill="midnightblue" stroke="midnightblue" points="1801.66,-451.76 1791.74,-455.48 1801.82,-458.76 1801.66,-451.76"/>
</g>
<!-- Node47 -->
<g id="node47" class="node">
<title>Node47</title>
<g id="a_node47"><a xlink:href="_static_middleware_8cpp.html" target="_top" xlink:title=" ">
<polygon fill="white" stroke="black" points="2394.5,-380.5 2394.5,-410.5 2507.5,-410.5 2507.5,-380.5 2394.5,-380.5"/>
<text text-anchor="start" x="2402.5" y="-398.5" font-family="Helvetica,sans-Serif" font-size="10.00">express/middleware</text>
<text text-anchor="middle" x="2451" y="-387.5" font-family="Helvetica,sans-Serif" font-size="10.00">/StaticMiddleware.cpp</text>
</a>
</g>
</g>
<!-- Node1&#45;&gt;Node47 -->
<g id="edge68" class="edge">
<title>Node1&#45;&gt;Node47</title>
<path fill="none" stroke="midnightblue" d="M1801.62,-455.02C1904.81,-452.26 2167.72,-442.48 2385,-411 2388.02,-410.56 2391.1,-410.06 2394.21,-409.52"/>
<polygon fill="midnightblue" stroke="midnightblue" points="1801.47,-451.52 1791.57,-455.28 1801.65,-458.52 1801.47,-451.52"/>
</g>
<!-- Node48 -->
<g id="node48" class="node">
<title>Node48</title>
<g id="a_node48"><a xlink:href="express_2_response_8cpp.html" target="_top" xlink:title=" ">
<polygon fill="white" stroke="black" points="2525.5,-386 2525.5,-405 2642.5,-405 2642.5,-386 2525.5,-386"/>
<text text-anchor="middle" x="2584" y="-393" font-family="Helvetica,sans-Serif" font-size="10.00">express/Response.cpp</text>
</a>
</g>
</g>
<!-- Node1&#45;&gt;Node48 -->
<g id="edge69" class="edge">
<title>Node1&#45;&gt;Node48</title>
<path fill="none" stroke="midnightblue" d="M1801.72,-455.75C1919.41,-454.58 2247.2,-447.96 2517,-411 2527.61,-409.55 2539.04,-407.32 2549.41,-405.05"/>
<polygon fill="midnightblue" stroke="midnightblue" points="1801.62,-452.25 1791.65,-455.84 1801.68,-459.25 1801.62,-452.25"/>
</g>
<!-- Node49 -->
<g id="node49" class="node">
<title>Node49</title>
<g id="a_node49"><a xlink:href="_web_app_t_8h.html" target="_top" xlink:title=" ">
<polygon fill="white" stroke="black" points="1233,-56.5 1233,-75.5 1337,-75.5 1337,-56.5 1233,-56.5"/>
<text text-anchor="middle" x="1285" y="-63.5" font-family="Helvetica,sans-Serif" font-size="10.00">express/WebAppT.h</text>
</a>
</g>
</g>
<!-- Node1&#45;&gt;Node49 -->
<g id="edge71" class="edge">
<title>Node1&#45;&gt;Node49</title>
<path fill="none" stroke="midnightblue" d="M1712.19,-455.31C1580.35,-452.08 1203,-433.72 1203,-329.5 1203,-329.5 1203,-329.5 1203,-260.5 1203,-194.5 1169.38,-168.8 1203,-112 1213.84,-93.69 1235.05,-82.34 1253.19,-75.62"/>
<polygon fill="midnightblue" stroke="midnightblue" points="1712.27,-458.81 1722.34,-455.54 1712.43,-451.81 1712.27,-458.81"/>
</g>
<!-- Node3 -->
<g id="node3" class="node">
<title>Node3</title>
<g id="a_node3"><a xlink:href="_accept_event_dispatcher_8h.html" target="_top" xlink:title=" ">
<polygon fill="white" stroke="black" points="126,-319 126,-338 270,-338 270,-319 126,-319"/>
<text text-anchor="middle" x="198" y="-326" font-family="Helvetica,sans-Serif" font-size="10.00">net/AcceptEventDispatcher.h</text>
</a>
</g>
</g>
<!-- Node2&#45;&gt;Node3 -->
<g id="edge2" class="edge">
<title>Node2&#45;&gt;Node3</title>
<path fill="none" stroke="midnightblue" d="M554.04,-385.23C485.03,-375.53 374.36,-359.57 279,-344 267.72,-342.16 255.58,-340.05 244.22,-338.03"/>
<polygon fill="midnightblue" stroke="midnightblue" points="553.95,-388.75 564.34,-386.67 554.92,-381.82 553.95,-388.75"/>
</g>
<!-- Node13 -->
<g id="node13" class="node">
<title>Node13</title>
<g id="a_node13"><a xlink:href="_connect_event_dispatcher_8h.html" target="_top" xlink:title=" ">
<polygon fill="white" stroke="black" points="288,-319 288,-338 438,-338 438,-319 288,-319"/>
<text text-anchor="middle" x="363" y="-326" font-family="Helvetica,sans-Serif" font-size="10.00">net/ConnectEventDispatcher.h</text>
</a>
</g>
</g>
<!-- Node2&#45;&gt;Node13 -->
<g id="edge13" class="edge">
<title>Node2&#45;&gt;Node13</title>
<path fill="none" stroke="midnightblue" d="M577.28,-383.48C526.38,-370.66 443.42,-349.76 397.07,-338.08"/>
<polygon fill="midnightblue" stroke="midnightblue" points="576.45,-386.89 587.01,-385.94 578.16,-380.1 576.45,-386.89"/>
</g>
<!-- Node14 -->
<g id="node14" class="node">
<title>Node14</title>
<g id="a_node14"><a xlink:href="_out_of_band_event_dispatcher_8h.html" target="_top" xlink:title=" ">
<polygon fill="white" stroke="black" points="456,-319 456,-338 618,-338 618,-319 456,-319"/>
<text text-anchor="middle" x="537" y="-326" font-family="Helvetica,sans-Serif" font-size="10.00">net/OutOfBandEventDispatcher.h</text>
</a>
</g>
</g>
<!-- Node2&#45;&gt;Node14 -->
<g id="edge16" class="edge">
<title>Node2&#45;&gt;Node14</title>
<path fill="none" stroke="midnightblue" d="M601.7,-379.57C585.12,-366.74 561.79,-348.69 548.15,-338.13"/>
<polygon fill="midnightblue" stroke="midnightblue" points="599.62,-382.38 609.67,-385.73 603.9,-376.85 599.62,-382.38"/>
</g>
<!-- Node15 -->
<g id="node15" class="node">
<title>Node15</title>
<g id="a_node15"><a xlink:href="_read_event_dispatcher_8h.html" target="_top" xlink:title=" ">
<polygon fill="white" stroke="black" points="636.5,-319 636.5,-338 773.5,-338 773.5,-319 636.5,-319"/>
<text text-anchor="middle" x="705" y="-326" font-family="Helvetica,sans-Serif" font-size="10.00">net/ReadEventDispatcher.h</text>
</a>
</g>
</g>
<!-- Node2&#45;&gt;Node15 -->
<g id="edge19" class="edge">
<title>Node2&#45;&gt;Node15</title>
<path fill="none" stroke="midnightblue" d="M640.3,-379.57C656.88,-366.74 680.21,-348.69 693.85,-338.13"/>
<polygon fill="midnightblue" stroke="midnightblue" points="638.1,-376.85 632.33,-385.73 642.38,-382.38 638.1,-376.85"/>
</g>
<!-- Node16 -->
<g id="node16" class="node">
<title>Node16</title>
<g id="a_node16"><a xlink:href="_write_event_dispatcher_8h.html" target="_top" xlink:title=" ">
<polygon fill="white" stroke="black" points="792,-319 792,-338 928,-338 928,-319 792,-319"/>
<text text-anchor="middle" x="860" y="-326" font-family="Helvetica,sans-Serif" font-size="10.00">net/WriteEventDispatcher.h</text>
</a>
</g>
</g>
<!-- Node2&#45;&gt;Node16 -->
<g id="edge22" class="edge">
<title>Node2&#45;&gt;Node16</title>
<path fill="none" stroke="midnightblue" d="M662.65,-383.17C709.91,-370.32 785.94,-349.64 828.51,-338.06"/>
<polygon fill="midnightblue" stroke="midnightblue" points="661.47,-379.87 652.74,-385.87 663.31,-386.62 661.47,-379.87"/>
</g>
<!-- Node4 -->
<g id="node4" class="node">
<title>Node4</title>
<g id="a_node4"><a xlink:href="_accept_event_receiver_8cpp.html" target="_top" xlink:title=" ">
<polygon fill="white" stroke="black" points="0,-185 0,-204 146,-204 146,-185 0,-185"/>
<text text-anchor="middle" x="73" y="-192" font-family="Helvetica,sans-Serif" font-size="10.00">net/AcceptEventReceiver.cpp</text>
</a>
</g>
</g>
<!-- Node3&#45;&gt;Node4 -->
<g id="edge3" class="edge">
<title>Node3&#45;&gt;Node4</title>
<path fill="none" stroke="midnightblue" d="M182.75,-311.4C156.02,-283.17 101.59,-225.69 81.07,-204.02"/>
<polygon fill="midnightblue" stroke="midnightblue" points="180.38,-313.98 189.8,-318.84 185.46,-309.17 180.38,-313.98"/>
</g>
<!-- Node5 -->
<g id="node5" class="node">
<title>Node5</title>
<g id="a_node5"><a xlink:href="_event_loop_8h.html" target="_top" xlink:title=" ">
<polygon fill="white" stroke="black" points="523,-252 523,-271 611,-271 611,-252 523,-252"/>
<text text-anchor="middle" x="567" y="-259" font-family="Helvetica,sans-Serif" font-size="10.00">net/EventLoop.h</text>
</a>
</g>
</g>
<!-- Node3&#45;&gt;Node5 -->
<g id="edge4" class="edge">
<title>Node3&#45;&gt;Node5</title>
<path fill="none" stroke="midnightblue" d="M255.46,-317.19C263.37,-315.78 271.38,-314.35 279,-313 365.22,-297.72 466.01,-280.1 522.59,-270.24"/>
<polygon fill="midnightblue" stroke="midnightblue" points="254.77,-313.76 245.54,-318.96 256,-320.65 254.77,-313.76"/>
</g>
<!-- Node5&#45;&gt;Node4 -->
<g id="edge5" class="edge">
<title>Node5&#45;&gt;Node4</title>
<path fill="none" stroke="midnightblue" d="M512.81,-254.79C433.92,-246.25 282.89,-229.13 155,-210 143.28,-208.25 130.65,-206.13 118.9,-204.06"/>
<polygon fill="midnightblue" stroke="midnightblue" points="512.68,-258.29 522.99,-255.88 513.43,-251.33 512.68,-258.29"/>
</g>
<!-- Node6 -->
<g id="node6" class="node">
<title>Node6</title>
<g id="a_node6"><a xlink:href="_connect_event_receiver_8cpp.html" target="_top" xlink:title=" ">
<polygon fill="white" stroke="black" points="164,-185 164,-204 316,-204 316,-185 164,-185"/>
<text text-anchor="middle" x="240" y="-192" font-family="Helvetica,sans-Serif" font-size="10.00">net/ConnectEventReceiver.cpp</text>
</a>
</g>
</g>
<!-- Node5&#45;&gt;Node6 -->
<g id="edge6" class="edge">
<title>Node5&#45;&gt;Node6</title>
<path fill="none" stroke="midnightblue" d="M513.97,-249.96C449.61,-237.16 342.34,-215.84 282.92,-204.03"/>
<polygon fill="midnightblue" stroke="midnightblue" points="513.42,-253.42 523.91,-251.94 514.79,-246.55 513.42,-253.42"/>
</g>
<!-- Node5&#45;&gt;Node7 -->
<g id="edge7" class="edge">
<title>Node5&#45;&gt;Node7</title>
<path fill="none" stroke="midnightblue" d="M621.5,-255.03C694.42,-247.27 827.61,-231.59 940,-210 948.66,-208.34 957.97,-206.18 966.53,-204.04"/>
<polygon fill="midnightblue" stroke="midnightblue" points="620.76,-251.59 611.18,-256.12 621.49,-258.55 620.76,-251.59"/>
</g>
<!-- Node8 -->
<g id="node8" class="node">
<title>Node8</title>
<g id="a_node8"><a xlink:href="_out_of_band_event_receiver_8cpp.html" target="_top" xlink:title=" ">
<polygon fill="white" stroke="black" points="334,-185 334,-204 498,-204 498,-185 334,-185"/>
<text text-anchor="middle" x="416" y="-192" font-family="Helvetica,sans-Serif" font-size="10.00">net/OutOfBandEventReceiver.cpp</text>
</a>
</g>
</g>
<!-- Node5&#45;&gt;Node8 -->
<g id="edge8" class="edge">
<title>Node5&#45;&gt;Node8</title>
<path fill="none" stroke="midnightblue" d="M537.45,-247.78C507.55,-234.91 462.12,-215.35 436.13,-204.17"/>
<polygon fill="midnightblue" stroke="midnightblue" points="536.38,-251.13 546.95,-251.87 539.15,-244.7 536.38,-251.13"/>
</g>
<!-- Node9 -->
<g id="node9" class="node">
<title>Node9</title>
<g id="a_node9"><a xlink:href="_read_event_receiver_8cpp.html" target="_top" xlink:title=" ">
<polygon fill="white" stroke="black" points="635.5,-185 635.5,-204 774.5,-204 774.5,-185 635.5,-185"/>
<text text-anchor="middle" x="705" y="-192" font-family="Helvetica,sans-Serif" font-size="10.00">net/ReadEventReceiver.cpp</text>
</a>
</g>
</g>
<!-- Node5&#45;&gt;Node9 -->
<g id="edge9" class="edge">
<title>Node5&#45;&gt;Node9</title>
<path fill="none" stroke="midnightblue" d="M594.72,-247.44C622.05,-234.57 663.05,-215.26 686.6,-204.17"/>
<polygon fill="midnightblue" stroke="midnightblue" points="592.88,-244.44 585.33,-251.87 595.86,-250.77 592.88,-244.44"/>
</g>
<!-- Node10 -->
<g id="node10" class="node">
<title>Node10</title>
<g id="a_node10"><a xlink:href="_timer_8cpp.html" target="_top" xlink:title=" ">
<polygon fill="white" stroke="black" points="516.5,-185 516.5,-204 617.5,-204 617.5,-185 516.5,-185"/>
<text text-anchor="middle" x="567" y="-192" font-family="Helvetica,sans-Serif" font-size="10.00">net/timer/Timer.cpp</text>
</a>
</g>
</g>
<!-- Node5&#45;&gt;Node10 -->
<g id="edge10" class="edge">
<title>Node5&#45;&gt;Node10</title>
<path fill="none" stroke="midnightblue" d="M567,-241.54C567,-229.17 567,-213.62 567,-204.13"/>
<polygon fill="midnightblue" stroke="midnightblue" points="563.5,-241.73 567,-251.73 570.5,-241.73 563.5,-241.73"/>
</g>
<!-- Node11 -->
<g id="node11" class="node">
<title>Node11</title>
<g id="a_node11"><a xlink:href="_write_event_receiver_8cpp.html" target="_top" xlink:title=" ">
<polygon fill="white" stroke="black" points="793,-185 793,-204 931,-204 931,-185 793,-185"/>
<text text-anchor="middle" x="862" y="-192" font-family="Helvetica,sans-Serif" font-size="10.00">net/WriteEventReceiver.cpp</text>
</a>
</g>
</g>
<!-- Node5&#45;&gt;Node11 -->
<g id="edge11" class="edge">
<title>Node5&#45;&gt;Node11</title>
<path fill="none" stroke="midnightblue" d="M615.91,-249.72C674,-236.92 769.72,-215.83 823.04,-204.08"/>
<polygon fill="midnightblue" stroke="midnightblue" points="614.88,-246.37 605.87,-251.94 616.39,-253.2 614.88,-246.37"/>
</g>
<!-- Node5&#45;&gt;Node12 -->
<g id="edge12" class="edge">
<title>Node5&#45;&gt;Node12</title>
<path fill="none" stroke="midnightblue" d="M621.09,-257.04C711.55,-250.79 899.09,-235.78 1056,-210 1065.78,-208.39 1076.3,-206.2 1085.94,-204.01"/>
<polygon fill="midnightblue" stroke="midnightblue" points="620.81,-253.55 611.07,-257.73 621.28,-260.54 620.81,-253.55"/>
</g>
<!-- Node13&#45;&gt;Node5 -->
<g id="edge15" class="edge">
<title>Node13&#45;&gt;Node5</title>
<path fill="none" stroke="midnightblue" d="M399.83,-315.77C440.25,-302.89 504.16,-282.52 540.12,-271.06"/>
<polygon fill="midnightblue" stroke="midnightblue" points="398.56,-312.5 390.09,-318.87 400.68,-319.17 398.56,-312.5"/>
</g>
<!-- Node13&#45;&gt;Node6 -->
<g id="edge14" class="edge">
<title>Node13&#45;&gt;Node6</title>
<path fill="none" stroke="midnightblue" d="M347.99,-311.4C321.69,-283.17 268.13,-225.69 247.94,-204.02"/>
<polygon fill="midnightblue" stroke="midnightblue" points="345.55,-313.91 354.93,-318.84 350.67,-309.14 345.55,-313.91"/>
</g>
<!-- Node14&#45;&gt;Node5 -->
<g id="edge17" class="edge">
<title>Node14&#45;&gt;Node5</title>
<path fill="none" stroke="midnightblue" d="M545.4,-309.29C551.17,-296.81 558.55,-280.81 563.02,-271.13"/>
<polygon fill="midnightblue" stroke="midnightblue" points="542.06,-308.19 541.05,-318.73 548.41,-311.12 542.06,-308.19"/>
</g>
<!-- Node14&#45;&gt;Node8 -->
<g id="edge18" class="edge">
<title>Node14&#45;&gt;Node8</title>
<path fill="none" stroke="midnightblue" d="M522.24,-311.4C496.36,-283.17 443.67,-225.69 423.81,-204.02"/>
<polygon fill="midnightblue" stroke="midnightblue" points="519.72,-313.83 529.06,-318.84 524.88,-309.1 519.72,-313.83"/>
</g>
<!-- Node15&#45;&gt;Node5 -->
<g id="edge20" class="edge">
<title>Node15&#45;&gt;Node5</title>
<path fill="none" stroke="midnightblue" d="M677.28,-314.44C649.95,-301.57 608.95,-282.26 585.4,-271.17"/>
<polygon fill="midnightblue" stroke="midnightblue" points="676.14,-317.77 686.67,-318.87 679.12,-311.44 676.14,-317.77"/>
</g>
<!-- Node15&#45;&gt;Node9 -->
<g id="edge21" class="edge">
<title>Node15&#45;&gt;Node9</title>
<path fill="none" stroke="midnightblue" d="M705,-308.78C705,-279.75 705,-225.04 705,-204.02"/>
<polygon fill="midnightblue" stroke="midnightblue" points="701.5,-308.84 705,-318.84 708.5,-308.84 701.5,-308.84"/>
</g>
<!-- Node16&#45;&gt;Node5 -->
<g id="edge23" class="edge">
<title>Node16&#45;&gt;Node5</title>
<path fill="none" stroke="midnightblue" d="M811.42,-316.72C753.73,-303.92 658.66,-282.83 605.69,-271.08"/>
<polygon fill="midnightblue" stroke="midnightblue" points="810.87,-320.19 821.39,-318.94 812.39,-313.35 810.87,-320.19"/>
</g>
<!-- Node16&#45;&gt;Node11 -->
<g id="edge24" class="edge">
<title>Node16&#45;&gt;Node11</title>
<path fill="none" stroke="midnightblue" d="M860.28,-308.78C860.72,-279.75 861.55,-225.04 861.87,-204.02"/>
<polygon fill="midnightblue" stroke="midnightblue" points="856.78,-308.79 860.13,-318.84 863.78,-308.89 856.78,-308.79"/>
</g>
<!-- Node18 -->
<g id="node18" class="node">
<title>Node18</title>
<g id="a_node18"><a xlink:href="legacy_2_socket_listener_8h.html" target="_top" xlink:title=" ">
<polygon fill="white" stroke="black" points="1268,-246.5 1268,-276.5 1392,-276.5 1392,-246.5 1268,-246.5"/>
<text text-anchor="start" x="1276" y="-264.5" font-family="Helvetica,sans-Serif" font-size="10.00">net/socket/sock_stream</text>
<text text-anchor="middle" x="1330" y="-253.5" font-family="Helvetica,sans-Serif" font-size="10.00">/legacy/SocketListener.h</text>
</a>
</g>
</g>
<!-- Node17&#45;&gt;Node18 -->
<g id="edge27" class="edge">
<title>Node17&#45;&gt;Node18</title>
<path fill="none" stroke="midnightblue" d="M1431.15,-309.13C1408.75,-298.8 1381.22,-286.11 1360.54,-276.58"/>
<polygon fill="midnightblue" stroke="midnightblue" points="1429.86,-312.39 1440.41,-313.4 1432.79,-306.03 1429.86,-312.39"/>
</g>
<!-- Node24 -->
<g id="node24" class="node">
<title>Node24</title>
<g id="a_node24"><a xlink:href="sock__stream_2_socket_server_8h.html" target="_top" xlink:title=" ">
<polygon fill="white" stroke="black" points="1410,-246.5 1410,-276.5 1532,-276.5 1532,-246.5 1410,-246.5"/>
<text text-anchor="start" x="1418" y="-264.5" font-family="Helvetica,sans-Serif" font-size="10.00">net/socket/sock_stream</text>
<text text-anchor="middle" x="1471" y="-253.5" font-family="Helvetica,sans-Serif" font-size="10.00">/SocketServer.h</text>
</a>
</g>
</g>
<!-- Node17&#45;&gt;Node24 -->
<g id="edge34" class="edge">
<title>Node17&#45;&gt;Node24</title>
<path fill="none" stroke="midnightblue" d="M1471,-303.11C1471,-294.15 1471,-284.32 1471,-276.58"/>
<polygon fill="midnightblue" stroke="midnightblue" points="1467.5,-303.4 1471,-313.4 1474.5,-303.4 1467.5,-303.4"/>
</g>
<!-- Node17&#45;&gt;Node30 -->
<g id="edge42" class="edge">
<title>Node17&#45;&gt;Node30</title>
<path fill="none" stroke="midnightblue" d="M1528.01,-310.58C1563.58,-300.02 1608.83,-286.59 1642.46,-276.61"/>
<polygon fill="midnightblue" stroke="midnightblue" points="1526.84,-307.28 1518.25,-313.48 1528.83,-313.99 1526.84,-307.28"/>
</g>
<!-- Node19 -->
<g id="node19" class="node">
<title>Node19</title>
<g id="a_node19"><a xlink:href="sock__stream_2legacy_2_socket_server_8h.html" target="_top" xlink:title=" ">
<polygon fill="white" stroke="black" points="1317,-179.5 1317,-209.5 1439,-209.5 1439,-179.5 1317,-179.5"/>
<text text-anchor="start" x="1325" y="-197.5" font-family="Helvetica,sans-Serif" font-size="10.00">net/socket/sock_stream</text>
<text text-anchor="middle" x="1378" y="-186.5" font-family="Helvetica,sans-Serif" font-size="10.00">/legacy/SocketServer.h</text>
</a>
</g>
</g>
<!-- Node18&#45;&gt;Node19 -->
<g id="edge28" class="edge">
<title>Node18&#45;&gt;Node19</title>
<path fill="none" stroke="midnightblue" d="M1346.5,-238.16C1353.5,-228.68 1361.44,-217.92 1367.61,-209.58"/>
<polygon fill="midnightblue" stroke="midnightblue" points="1343.54,-236.27 1340.42,-246.4 1349.17,-240.43 1343.54,-236.27"/>
</g>
<!-- Node20 -->
<g id="node20" class="node">
<title>Node20</title>
<g id="a_node20"><a xlink:href="ip_2tcp_2ipv4_2legacy_2_socket_server_8h.html" target="_top" xlink:title=" ">
<polygon fill="white" stroke="black" points="1212,-112.5 1212,-142.5 1330,-142.5 1330,-112.5 1212,-112.5"/>
<text text-anchor="start" x="1220" y="-130.5" font-family="Helvetica,sans-Serif" font-size="10.00">net/socket/ip/tcp/ipv4</text>
<text text-anchor="middle" x="1271" y="-119.5" font-family="Helvetica,sans-Serif" font-size="10.00">/legacy/SocketServer.h</text>
</a>
</g>
</g>
<!-- Node19&#45;&gt;Node20 -->
<g id="edge29" class="edge">
<title>Node19&#45;&gt;Node20</title>
<path fill="none" stroke="midnightblue" d="M1345.92,-174.02C1329.27,-163.9 1309.31,-151.77 1294.17,-142.58"/>
<polygon fill="midnightblue" stroke="midnightblue" points="1344.42,-177.2 1354.78,-179.4 1348.05,-171.21 1344.42,-177.2"/>
</g>
<!-- Node23 -->
<g id="node23" class="node">
<title>Node23</title>
<g id="a_node23"><a xlink:href="ip_2tcp_2ipv6_2legacy_2_socket_server_8h.html" target="_top" xlink:title=" ">
<polygon fill="white" stroke="black" points="1348,-112.5 1348,-142.5 1466,-142.5 1466,-112.5 1348,-112.5"/>
<text text-anchor="start" x="1356" y="-130.5" font-family="Helvetica,sans-Serif" font-size="10.00">net/socket/ip/tcp/ipv6</text>
<text text-anchor="middle" x="1407" y="-119.5" font-family="Helvetica,sans-Serif" font-size="10.00">/legacy/SocketServer.h</text>
</a>
</g>
</g>
<!-- Node19&#45;&gt;Node23 -->
<g id="edge32" class="edge">
<title>Node19&#45;&gt;Node23</title>
<path fill="none" stroke="midnightblue" d="M1388.49,-169.99C1392.59,-160.8 1397.15,-150.58 1400.72,-142.58"/>
<polygon fill="midnightblue" stroke="midnightblue" points="1385.17,-168.84 1384.29,-179.4 1391.56,-171.69 1385.17,-168.84"/>
</g>
<!-- Node21 -->
<g id="node21" class="node">
<title>Node21</title>
<g id="a_node21"><a xlink:href="legacy_2_server_8h.html" target="_top" xlink:title=" ">
<polygon fill="white" stroke="black" points="1355,-56.5 1355,-75.5 1459,-75.5 1459,-56.5 1355,-56.5"/>
<text text-anchor="middle" x="1407" y="-63.5" font-family="Helvetica,sans-Serif" font-size="10.00">http/legacy/Server.h</text>
</a>
</g>
</g>
<!-- Node20&#45;&gt;Node21 -->
<g id="edge30" class="edge">
<title>Node20&#45;&gt;Node21</title>
<path fill="none" stroke="midnightblue" d="M1312.44,-108.37C1337.26,-97.51 1367.69,-84.2 1387.21,-75.66"/>
<polygon fill="midnightblue" stroke="midnightblue" points="1310.99,-105.18 1303.23,-112.4 1313.79,-111.6 1310.99,-105.18"/>
</g>
<!-- Node22 -->
<g id="node22" class="node">
<title>Node22</title>
<g id="a_node22"><a xlink:href="legacy_2_web_app_8h.html" target="_top" xlink:title=" ">
<polygon fill="white" stroke="black" points="1280.5,-0.5 1280.5,-19.5 1411.5,-19.5 1411.5,-0.5 1280.5,-0.5"/>
<text text-anchor="middle" x="1346" y="-7.5" font-family="Helvetica,sans-Serif" font-size="10.00">express/legacy/WebApp.h</text>
</a>
</g>
</g>
<!-- Node21&#45;&gt;Node22 -->
<g id="edge31" class="edge">
<title>Node21&#45;&gt;Node22</title>
<path fill="none" stroke="midnightblue" d="M1389.53,-49.54C1378.66,-39.91 1365.06,-27.87 1355.98,-19.83"/>
<polygon fill="midnightblue" stroke="midnightblue" points="1387.39,-52.32 1397.2,-56.32 1392.03,-47.07 1387.39,-52.32"/>
</g>
<!-- Node23&#45;&gt;Node21 -->
<g id="edge33" class="edge">
<title>Node23&#45;&gt;Node21</title>
<path fill="none" stroke="midnightblue" d="M1407,-102.29C1407,-92.86 1407,-82.65 1407,-75.66"/>
<polygon fill="midnightblue" stroke="midnightblue" points="1403.5,-102.4 1407,-112.4 1410.5,-102.4 1403.5,-102.4"/>
</g>
<!-- Node24&#45;&gt;Node19 -->
<g id="edge35" class="edge">
<title>Node24&#45;&gt;Node19</title>
<path fill="none" stroke="midnightblue" d="M1442.31,-240.45C1428.01,-230.45 1411.05,-218.6 1398.14,-209.58"/>
<polygon fill="midnightblue" stroke="midnightblue" points="1440.62,-243.54 1450.82,-246.4 1444.63,-237.8 1440.62,-243.54"/>
</g>
<!-- Node25 -->
<g id="node25" class="node">
<title>Node25</title>
<g id="a_node25"><a xlink:href="sock__stream_2tls_2_socket_server_8h.html" target="_top" xlink:title=" ">
<polygon fill="white" stroke="black" points="1670,-179.5 1670,-209.5 1792,-209.5 1792,-179.5 1670,-179.5"/>
<text text-anchor="start" x="1678" y="-197.5" font-family="Helvetica,sans-Serif" font-size="10.00">net/socket/sock_stream</text>
<text text-anchor="middle" x="1731" y="-186.5" font-family="Helvetica,sans-Serif" font-size="10.00">/tls/SocketServer.h</text>
</a>
</g>
</g>
<!-- Node24&#45;&gt;Node25 -->
<g id="edge36" class="edge">
<title>Node24&#45;&gt;Node25</title>
<path fill="none" stroke="midnightblue" d="M1537.06,-243.98C1579.53,-233.37 1634.12,-219.72 1674.56,-209.61"/>
<polygon fill="midnightblue" stroke="midnightblue" points="1535.95,-240.66 1527.1,-246.48 1537.65,-247.45 1535.95,-240.66"/>
</g>
<!-- Node26 -->
<g id="node26" class="node">
<title>Node26</title>
<g id="a_node26"><a xlink:href="ip_2tcp_2ipv4_2tls_2_socket_server_8h.html" target="_top" xlink:title=" ">
<polygon fill="white" stroke="black" points="1822,-112.5 1822,-142.5 1932,-142.5 1932,-112.5 1822,-112.5"/>
<text text-anchor="start" x="1830" y="-130.5" font-family="Helvetica,sans-Serif" font-size="10.00">net/socket/ip/tcp/ipv4</text>
<text text-anchor="middle" x="1877" y="-119.5" font-family="Helvetica,sans-Serif" font-size="10.00">/tls/SocketServer.h</text>
</a>
</g>
</g>
<!-- Node25&#45;&gt;Node26 -->
<g id="edge37" class="edge">
<title>Node25&#45;&gt;Node26</title>
<path fill="none" stroke="midnightblue" d="M1771.95,-175.27C1795.2,-164.92 1823.87,-152.15 1845.38,-142.58"/>
<polygon fill="midnightblue" stroke="midnightblue" points="1770.39,-172.13 1762.68,-179.4 1773.24,-178.53 1770.39,-172.13"/>
</g>
<!-- Node29 -->
<g id="node29" class="node">
<title>Node29</title>
<g id="a_node29"><a xlink:href="ip_2tcp_2ipv6_2tls_2_socket_server_8h.html" target="_top" xlink:title=" ">
<polygon fill="white" stroke="black" points="1694,-112.5 1694,-142.5 1804,-142.5 1804,-112.5 1694,-112.5"/>
<text text-anchor="start" x="1702" y="-130.5" font-family="Helvetica,sans-Serif" font-size="10.00">net/socket/ip/tcp/ipv6</text>
<text text-anchor="middle" x="1749" y="-119.5" font-family="Helvetica,sans-Serif" font-size="10.00">/tls/SocketServer.h</text>
</a>
</g>
</g>
<!-- Node25&#45;&gt;Node29 -->
<g id="edge40" class="edge">
<title>Node25&#45;&gt;Node29</title>
<path fill="none" stroke="midnightblue" d="M1737.59,-169.7C1740.11,-160.59 1742.91,-150.49 1745.1,-142.58"/>
<polygon fill="midnightblue" stroke="midnightblue" points="1734.2,-168.82 1734.91,-179.4 1740.95,-170.69 1734.2,-168.82"/>
</g>
<!-- Node27 -->
<g id="node27" class="node">
<title>Node27</title>
<g id="a_node27"><a xlink:href="tls_2_server_8h.html" target="_top" xlink:title=" ">
<polygon fill="white" stroke="black" points="1640,-56.5 1640,-75.5 1726,-75.5 1726,-56.5 1640,-56.5"/>
<text text-anchor="middle" x="1683" y="-63.5" font-family="Helvetica,sans-Serif" font-size="10.00">http/tls/Server.h</text>
</a>
</g>
</g>
<!-- Node26&#45;&gt;Node27 -->
<g id="edge38" class="edge">
<title>Node26&#45;&gt;Node27</title>
<path fill="none" stroke="midnightblue" d="M1821.11,-109.36C1785.03,-98.29 1739.62,-84.37 1710.95,-75.57"/>
<polygon fill="midnightblue" stroke="midnightblue" points="1820.44,-112.81 1831.02,-112.4 1822.49,-106.12 1820.44,-112.81"/>
</g>
<!-- Node28 -->
<g id="node28" class="node">
<title>Node28</title>
<g id="a_node28"><a xlink:href="tls_2_web_app_8h.html" target="_top" xlink:title=" ">
<polygon fill="white" stroke="black" points="1560.5,-0.5 1560.5,-19.5 1673.5,-19.5 1673.5,-0.5 1560.5,-0.5"/>
<text text-anchor="middle" x="1617" y="-7.5" font-family="Helvetica,sans-Serif" font-size="10.00">express/tls/WebApp.h</text>
</a>
</g>
</g>
<!-- Node27&#45;&gt;Node28 -->
<g id="edge39" class="edge">
<title>Node27&#45;&gt;Node28</title>
<path fill="none" stroke="midnightblue" d="M1664.45,-49.82C1652.62,-40.15 1637.71,-27.95 1627.8,-19.83"/>
<polygon fill="midnightblue" stroke="midnightblue" points="1662.44,-52.7 1672.4,-56.32 1666.87,-47.28 1662.44,-52.7"/>
</g>
<!-- Node29&#45;&gt;Node27 -->
<g id="edge41" class="edge">
<title>Node29&#45;&gt;Node27</title>
<path fill="none" stroke="midnightblue" d="M1725.81,-105.6C1714.41,-95.32 1701.28,-83.48 1692.6,-75.66"/>
<polygon fill="midnightblue" stroke="midnightblue" points="1723.59,-108.3 1733.36,-112.4 1728.28,-103.1 1723.59,-108.3"/>
</g>
<!-- Node30&#45;&gt;Node25 -->
<g id="edge43" class="edge">
<title>Node30&#45;&gt;Node25</title>
<path fill="none" stroke="midnightblue" d="M1704.28,-237.87C1710.21,-228.46 1716.91,-217.83 1722.12,-209.58"/>
<polygon fill="midnightblue" stroke="midnightblue" points="1701.27,-236.07 1698.9,-246.4 1707.19,-239.81 1701.27,-236.07"/>
</g>
<!-- Node32 -->
<g id="node32" class="node">
<title>Node32</title>
<g id="a_node32"><a xlink:href="sock__stream_2tls_2_socket_client_8h.html" target="_top" xlink:title=" ">
<polygon fill="white" stroke="black" points="1944,-179.5 1944,-209.5 2066,-209.5 2066,-179.5 1944,-179.5"/>
<text text-anchor="start" x="1952" y="-197.5" font-family="Helvetica,sans-Serif" font-size="10.00">net/socket/sock_stream</text>
<text text-anchor="middle" x="2005" y="-186.5" font-family="Helvetica,sans-Serif" font-size="10.00">/tls/SocketClient.h</text>
</a>
</g>
</g>
<!-- Node31&#45;&gt;Node32 -->
<g id="edge45" class="edge">
<title>Node31&#45;&gt;Node32</title>
<path fill="none" stroke="midnightblue" d="M1943.45,-240.45C1957.14,-230.45 1973.37,-218.6 1985.73,-209.58"/>
<polygon fill="midnightblue" stroke="midnightblue" points="1941.32,-237.67 1935.31,-246.4 1945.45,-243.32 1941.32,-237.67"/>
</g>
<!-- Node33 -->
<g id="node33" class="node">
<title>Node33</title>
<g id="a_node33"><a xlink:href="ip_2tcp_2ipv4_2tls_2_socket_client_8h.html" target="_top" xlink:title=" ">
<polygon fill="white" stroke="black" points="2078,-112.5 2078,-142.5 2188,-142.5 2188,-112.5 2078,-112.5"/>
<text text-anchor="start" x="2086" y="-130.5" font-family="Helvetica,sans-Serif" font-size="10.00">net/socket/ip/tcp/ipv4</text>
<text text-anchor="middle" x="2133" y="-119.5" font-family="Helvetica,sans-Serif" font-size="10.00">/tls/SocketClient.h</text>
</a>
</g>
</g>
<!-- Node32&#45;&gt;Node33 -->
<g id="edge46" class="edge">
<title>Node32&#45;&gt;Node33</title>
<path fill="none" stroke="midnightblue" d="M2041.72,-174.85C2061.96,-164.58 2086.67,-152.03 2105.28,-142.58"/>
<polygon fill="midnightblue" stroke="midnightblue" points="2040.11,-171.75 2032.77,-179.4 2043.28,-177.99 2040.11,-171.75"/>
</g>
<!-- Node35 -->
<g id="node35" class="node">
<title>Node35</title>
<g id="a_node35"><a xlink:href="ip_2tcp_2ipv6_2tls_2_socket_client_8h.html" target="_top" xlink:title=" ">
<polygon fill="white" stroke="black" points="1950,-112.5 1950,-142.5 2060,-142.5 2060,-112.5 1950,-112.5"/>
<text text-anchor="start" x="1958" y="-130.5" font-family="Helvetica,sans-Serif" font-size="10.00">net/socket/ip/tcp/ipv6</text>
<text text-anchor="middle" x="2005" y="-119.5" font-family="Helvetica,sans-Serif" font-size="10.00">/tls/SocketClient.h</text>
</a>
</g>
</g>
<!-- Node32&#45;&gt;Node35 -->
<g id="edge48" class="edge">
<title>Node32&#45;&gt;Node35</title>
<path fill="none" stroke="midnightblue" d="M2005,-169.11C2005,-160.15 2005,-150.32 2005,-142.58"/>
<polygon fill="midnightblue" stroke="midnightblue" points="2001.5,-169.4 2005,-179.4 2008.5,-169.4 2001.5,-169.4"/>
</g>
<!-- Node34 -->
<g id="node34" class="node">
<title>Node34</title>
<g id="a_node34"><a xlink:href="tls_2_client_8h.html" target="_top" xlink:title=" ">
<polygon fill="white" stroke="black" points="2091.5,-56.5 2091.5,-75.5 2174.5,-75.5 2174.5,-56.5 2091.5,-56.5"/>
<text text-anchor="middle" x="2133" y="-63.5" font-family="Helvetica,sans-Serif" font-size="10.00">http/tls/Client.h</text>
</a>
</g>
</g>
<!-- Node33&#45;&gt;Node34 -->
<g id="edge47" class="edge">
<title>Node33&#45;&gt;Node34</title>
<path fill="none" stroke="midnightblue" d="M2133,-102.29C2133,-92.86 2133,-82.65 2133,-75.66"/>
<polygon fill="midnightblue" stroke="midnightblue" points="2129.5,-102.4 2133,-112.4 2136.5,-102.4 2129.5,-102.4"/>
</g>
<!-- Node35&#45;&gt;Node34 -->
<g id="edge49" class="edge">
<title>Node35&#45;&gt;Node34</title>
<path fill="none" stroke="midnightblue" d="M2044.62,-108.08C2067.87,-97.28 2096.17,-84.12 2114.37,-75.66"/>
<polygon fill="midnightblue" stroke="midnightblue" points="2042.93,-105.01 2035.33,-112.4 2045.88,-111.36 2042.93,-105.01"/>
</g>
<!-- Node37 -->
<g id="node37" class="node">
<title>Node37</title>
<g id="a_node37"><a xlink:href="tls_2_socket_connection_8h.html" target="_top" xlink:title=" ">
<polygon fill="white" stroke="black" points="1718,-313.5 1718,-343.5 1840,-343.5 1840,-313.5 1718,-313.5"/>
<text text-anchor="start" x="1726" y="-331.5" font-family="Helvetica,sans-Serif" font-size="10.00">net/socket/sock_stream</text>
<text text-anchor="middle" x="1779" y="-320.5" font-family="Helvetica,sans-Serif" font-size="10.00">/tls/SocketConnection.h</text>
</a>
</g>
</g>
<!-- Node36&#45;&gt;Node37 -->
<g id="edge52" class="edge">
<title>Node36&#45;&gt;Node37</title>
<path fill="none" stroke="midnightblue" d="M1715.38,-374.45C1729.53,-364.45 1746.31,-352.6 1759.08,-343.58"/>
<polygon fill="midnightblue" stroke="midnightblue" points="1713.11,-371.77 1706.96,-380.4 1717.15,-377.48 1713.11,-371.77"/>
</g>
<!-- Node37&#45;&gt;Node30 -->
<g id="edge54" class="edge">
<title>Node37&#45;&gt;Node30</title>
<path fill="none" stroke="midnightblue" d="M1751.55,-307.45C1737.86,-297.45 1721.63,-285.6 1709.27,-276.58"/>
<polygon fill="midnightblue" stroke="midnightblue" points="1749.55,-310.32 1759.69,-313.4 1753.68,-304.67 1749.55,-310.32"/>
</g>
<!-- Node37&#45;&gt;Node31 -->
<g id="edge53" class="edge">
<title>Node37&#45;&gt;Node31</title>
<path fill="none" stroke="midnightblue" d="M1818.01,-308.99C1839.72,-298.69 1866.33,-286.07 1886.33,-276.58"/>
<polygon fill="midnightblue" stroke="midnightblue" points="1816.26,-305.95 1808.73,-313.4 1819.26,-312.27 1816.26,-305.95"/>
</g>
<!-- Node38&#45;&gt;Node37 -->
<g id="edge56" class="edge">
<title>Node38&#45;&gt;Node37</title>
<path fill="none" stroke="midnightblue" d="M1810.5,-372.16C1803.5,-362.68 1795.56,-351.92 1789.39,-343.58"/>
<polygon fill="midnightblue" stroke="midnightblue" points="1807.83,-374.43 1816.58,-380.4 1813.46,-370.27 1807.83,-374.43"/>
</g>
<!-- Node40&#45;&gt;Node34 -->
<g id="edge60" class="edge">
<title>Node40&#45;&gt;Node34</title>
<path fill="none" stroke="midnightblue" d="M2015.4,-382.57C2081.84,-359.69 2216,-307.86 2216,-262.5 2216,-262.5 2216,-262.5 2216,-193.5 2216,-156.31 2217.8,-142.83 2197,-112 2185.83,-95.45 2166.39,-83.07 2151.85,-75.52"/>
<polygon fill="midnightblue" stroke="midnightblue" points="2014.07,-379.33 2005.73,-385.86 2016.32,-385.95 2014.07,-379.33"/>
</g>
<!-- Node41 -->
<g id="node41" class="node">
<title>Node41</title>
<g id="a_node41"><a xlink:href="legacy_2_client_8h.html" target="_top" xlink:title=" ">
<polygon fill="white" stroke="black" points="1944.5,-319 1944.5,-338 2045.5,-338 2045.5,-319 1944.5,-319"/>
<text text-anchor="middle" x="1995" y="-326" font-family="Helvetica,sans-Serif" font-size="10.00">http/legacy/Client.h</text>
</a>
</g>
</g>
<!-- Node40&#45;&gt;Node41 -->
<g id="edge59" class="edge">
<title>Node40&#45;&gt;Node41</title>
<path fill="none" stroke="midnightblue" d="M1983.57,-375.91C1986.63,-363.49 1990.52,-347.72 1992.88,-338.13"/>
<polygon fill="midnightblue" stroke="midnightblue" points="1980.15,-375.19 1981.16,-385.73 1986.95,-376.86 1980.15,-375.19"/>
</g>
<!-- Node44 -->
<g id="node44" class="node">
<title>Node44</title>
<g id="a_node44"><a xlink:href="_server_8h.html" target="_top" xlink:title=" ">
<polygon fill="white" stroke="black" points="1484,-118 1484,-137 1556,-137 1556,-118 1484,-118"/>
<text text-anchor="middle" x="1520" y="-125" font-family="Helvetica,sans-Serif" font-size="10.00">http/Server.h</text>
</a>
</g>
</g>
<!-- Node43&#45;&gt;Node44 -->
<g id="edge63" class="edge">
<title>Node43&#45;&gt;Node44</title>
<path fill="none" stroke="midnightblue" d="M1549.25,-176.03C1541.51,-163.45 1531.39,-147.01 1525.31,-137.13"/>
<polygon fill="midnightblue" stroke="midnightblue" points="1546.38,-178.05 1554.61,-184.73 1552.35,-174.38 1546.38,-178.05"/>
</g>
<!-- Node45 -->
<g id="node45" class="node">
<title>Node45</title>
<g id="a_node45"><a xlink:href="_router_8cpp.html" target="_top" xlink:title=" ">
<polygon fill="white" stroke="black" points="1574.5,-118 1574.5,-137 1675.5,-137 1675.5,-118 1574.5,-118"/>
<text text-anchor="middle" x="1625" y="-125" font-family="Helvetica,sans-Serif" font-size="10.00">express/Router.cpp</text>
</a>
</g>
</g>
<!-- Node43&#45;&gt;Node45 -->
<g id="edge66" class="edge">
<title>Node43&#45;&gt;Node45</title>
<path fill="none" stroke="midnightblue" d="M1576,-177.5C1588.75,-164.75 1606.11,-147.39 1616.37,-137.13"/>
<polygon fill="midnightblue" stroke="midnightblue" points="1573.36,-175.19 1568.77,-184.73 1578.31,-180.14 1573.36,-175.19"/>
</g>
<!-- Node44&#45;&gt;Node21 -->
<g id="edge64" class="edge">
<title>Node44&#45;&gt;Node21</title>
<path fill="none" stroke="midnightblue" d="M1494.76,-113.21C1472.88,-101.69 1441.86,-85.36 1423.16,-75.51"/>
<polygon fill="midnightblue" stroke="midnightblue" points="1493.33,-116.41 1503.81,-117.98 1496.59,-110.22 1493.33,-116.41"/>
</g>
<!-- Node44&#45;&gt;Node27 -->
<g id="edge65" class="edge">
<title>Node44&#45;&gt;Node27</title>
<path fill="none" stroke="midnightblue" d="M1553.06,-114.43C1584.74,-102.87 1631.75,-85.71 1659.69,-75.51"/>
<polygon fill="midnightblue" stroke="midnightblue" points="1551.55,-111.26 1543.35,-117.98 1553.95,-117.83 1551.55,-111.26"/>
</g>
<!-- Node49&#45;&gt;Node22 -->
<g id="edge72" class="edge">
<title>Node49&#45;&gt;Node22</title>
<path fill="none" stroke="midnightblue" d="M1302.47,-49.54C1313.34,-39.91 1326.94,-27.87 1336.02,-19.83"/>
<polygon fill="midnightblue" stroke="midnightblue" points="1299.97,-47.07 1294.8,-56.32 1304.61,-52.32 1299.97,-47.07"/>
</g>
<!-- Node49&#45;&gt;Node28 -->
<g id="edge73" class="edge">
<title>Node49&#45;&gt;Node28</title>
<path fill="none" stroke="midnightblue" d="M1347.39,-54.85C1410.08,-44.66 1505.6,-29.12 1564.52,-19.54"/>
<polygon fill="midnightblue" stroke="midnightblue" points="1346.55,-51.44 1337.24,-56.5 1347.67,-58.35 1346.55,-51.44"/>
</g>
</g>
</svg>
