<?xml version="1.0" encoding="UTF-8" standalone="no"?>
<!DOCTYPE svg PUBLIC "-//W3C//DTD SVG 1.1//EN"
 "http://www.w3.org/Graphics/SVG/1.1/DTD/svg11.dtd">
<!-- Generated by graphviz version 2.43.0 (0)
 -->
<!-- Title: log/Logger.h Pages: 1 -->
<svg width="2024pt" height="475pt"
 viewBox="0.00 0.00 2024.00 475.00" xmlns="http://www.w3.org/2000/svg" xmlns:xlink="http://www.w3.org/1999/xlink">
<g id="graph0" class="graph" transform="scale(1 1) rotate(0) translate(4 471)">
<title>log/Logger.h</title>
<polygon fill="white" stroke="transparent" points="-4,4 -4,-471 2020,-471 2020,4 -4,4"/>
<!-- Node1 -->
<g id="node1" class="node">
<title>Node1</title>
<g id="a_node1"><a xlink:title=" ">
<polygon fill="#bfbfbf" stroke="black" points="924.5,-447.5 924.5,-466.5 993.5,-466.5 993.5,-447.5 924.5,-447.5"/>
<text text-anchor="middle" x="959" y="-454.5" font-family="Helvetica,sans-Serif" font-size="10.00">log/Logger.h</text>
</a>
</g>
</g>
<!-- Node2 -->
<g id="node2" class="node">
<title>Node2</title>
<g id="a_node2"><a xlink:href="_event_loop_8cpp.html" target="_top" xlink:title=" ">
<polygon fill="white" stroke="black" points="218,-386 218,-405 316,-405 316,-386 218,-386"/>
<text text-anchor="middle" x="267" y="-393" font-family="Helvetica,sans-Serif" font-size="10.00">net/EventLoop.cpp</text>
</a>
</g>
</g>
<!-- Node1&#45;&gt;Node2 -->
<g id="edge1" class="edge">
<title>Node1&#45;&gt;Node2</title>
<path fill="none" stroke="midnightblue" d="M914.26,-455.49C810.21,-453.74 544.14,-445.9 325,-411 315.77,-409.53 305.87,-407.3 296.9,-405.03"/>
<polygon fill="midnightblue" stroke="midnightblue" points="914.34,-459 924.4,-455.65 914.45,-452 914.34,-459"/>
</g>
<!-- Node3 -->
<g id="node3" class="node">
<title>Node3</title>
<g id="a_node3"><a xlink:href="sock__stream_2_socket_client_8h.html" target="_top" xlink:title=" ">
<polygon fill="white" stroke="black" points="334,-380.5 334,-410.5 456,-410.5 456,-380.5 334,-380.5"/>
<text text-anchor="start" x="342" y="-398.5" font-family="Helvetica,sans-Serif" font-size="10.00">net/socket/sock_stream</text>
<text text-anchor="middle" x="395" y="-387.5" font-family="Helvetica,sans-Serif" font-size="10.00">/SocketClient.h</text>
</a>
</g>
</g>
<!-- Node1&#45;&gt;Node3 -->
<g id="edge2" class="edge">
<title>Node1&#45;&gt;Node3</title>
<path fill="none" stroke="midnightblue" d="M914.26,-453.37C828.02,-447.98 632.86,-434.18 470,-411 465.54,-410.36 460.93,-409.64 456.31,-408.87"/>
<polygon fill="midnightblue" stroke="midnightblue" points="914.28,-456.88 924.48,-454 914.71,-449.89 914.28,-456.88"/>
</g>
<!-- Node8 -->
<g id="node8" class="node">
<title>Node8</title>
<g id="a_node8"><a xlink:href="_socket_connector_8h.html" target="_top" xlink:title=" ">
<polygon fill="white" stroke="black" points="334,-313.5 334,-343.5 456,-343.5 456,-313.5 334,-313.5"/>
<text text-anchor="start" x="342" y="-331.5" font-family="Helvetica,sans-Serif" font-size="10.00">net/socket/sock_stream</text>
<text text-anchor="middle" x="395" y="-320.5" font-family="Helvetica,sans-Serif" font-size="10.00">/SocketConnector.h</text>
</a>
</g>
</g>
<!-- Node1&#45;&gt;Node8 -->
<g id="edge19" class="edge">
<title>Node1&#45;&gt;Node8</title>
<path fill="none" stroke="midnightblue" d="M914.21,-454.48C815.38,-450.66 581.57,-438.87 508,-411 507.83,-410.94 446.97,-367.01 414.65,-343.68"/>
<polygon fill="midnightblue" stroke="midnightblue" points="914.33,-457.99 924.46,-454.87 914.6,-450.99 914.33,-457.99"/>
</g>
<!-- Node15 -->
<g id="node15" class="node">
<title>Node15</title>
<g id="a_node15"><a xlink:href="_socket_listener_8h.html" target="_top" xlink:title=" ">
<polygon fill="white" stroke="black" points="728,-380.5 728,-410.5 850,-410.5 850,-380.5 728,-380.5"/>
<text text-anchor="start" x="736" y="-398.5" font-family="Helvetica,sans-Serif" font-size="10.00">net/socket/sock_stream</text>
<text text-anchor="middle" x="789" y="-387.5" font-family="Helvetica,sans-Serif" font-size="10.00">/SocketListener.h</text>
</a>
</g>
</g>
<!-- Node1&#45;&gt;Node15 -->
<g id="edge20" class="edge">
<title>Node1&#45;&gt;Node15</title>
<path fill="none" stroke="midnightblue" d="M925.01,-444.1C897.35,-434.42 858.25,-420.74 829.07,-410.52"/>
<polygon fill="midnightblue" stroke="midnightblue" points="924.05,-447.48 934.64,-447.48 926.36,-440.87 924.05,-447.48"/>
</g>
<!-- Node22 -->
<g id="node22" class="node">
<title>Node22</title>
<g id="a_node22"><a xlink:href="sock__stream_2_socket_server_8h.html" target="_top" xlink:title=" ">
<polygon fill="white" stroke="black" points="728,-313.5 728,-343.5 850,-343.5 850,-313.5 728,-313.5"/>
<text text-anchor="start" x="736" y="-331.5" font-family="Helvetica,sans-Serif" font-size="10.00">net/socket/sock_stream</text>
<text text-anchor="middle" x="789" y="-320.5" font-family="Helvetica,sans-Serif" font-size="10.00">/SocketServer.h</text>
</a>
</g>
</g>
<!-- Node1&#45;&gt;Node22 -->
<g id="edge38" class="edge">
<title>Node1&#45;&gt;Node22</title>
<path fill="none" stroke="midnightblue" d="M914.14,-454.2C851.65,-450.63 743.31,-440.3 719,-411 699.11,-387.03 734.96,-359.65 762.29,-343.51"/>
<polygon fill="midnightblue" stroke="midnightblue" points="914.33,-457.71 924.5,-454.75 914.7,-450.72 914.33,-457.71"/>
</g>
<!-- Node29 -->
<g id="node29" class="node">
<title>Node29</title>
<g id="a_node29"><a xlink:href="tls_2_socket_reader_8h.html" target="_top" xlink:title=" ">
<polygon fill="white" stroke="black" points="550,-380.5 550,-410.5 672,-410.5 672,-380.5 550,-380.5"/>
<text text-anchor="start" x="558" y="-398.5" font-family="Helvetica,sans-Serif" font-size="10.00">net/socket/sock_stream</text>
<text text-anchor="middle" x="611" y="-387.5" font-family="Helvetica,sans-Serif" font-size="10.00">/tls/SocketReader.h</text>
</a>
</g>
</g>
<!-- Node1&#45;&gt;Node29 -->
<g id="edge39" class="edge">
<title>Node1&#45;&gt;Node29</title>
<path fill="none" stroke="midnightblue" d="M914.53,-449.06C860.44,-440.52 766.4,-425.4 686,-411 681.56,-410.21 676.98,-409.37 672.37,-408.51"/>
<polygon fill="midnightblue" stroke="midnightblue" points="914.05,-452.52 924.47,-450.62 915.14,-445.61 914.05,-452.52"/>
</g>
<!-- Node31 -->
<g id="node31" class="node">
<title>Node31</title>
<g id="a_node31"><a xlink:href="_client_8h.html" target="_top" xlink:title=" ">
<polygon fill="white" stroke="black" points="504,-118 504,-137 574,-137 574,-118 504,-118"/>
<text text-anchor="middle" x="539" y="-125" font-family="Helvetica,sans-Serif" font-size="10.00">http/Client.h</text>
</a>
</g>
</g>
<!-- Node1&#45;&gt;Node31 -->
<g id="edge43" class="edge">
<title>Node1&#45;&gt;Node31</title>
<path fill="none" stroke="midnightblue" d="M914.46,-454.09C812.46,-449.3 568.58,-435.41 541,-411 513.15,-386.35 522,-366.69 522,-329.5 522,-329.5 522,-329.5 522,-260.5 522,-213.59 532.69,-158.08 537.12,-137.1"/>
<polygon fill="midnightblue" stroke="midnightblue" points="914.3,-457.58 924.45,-454.55 914.62,-450.59 914.3,-457.58"/>
</g>
<!-- Node32 -->
<g id="node32" class="node">
<title>Node32</title>
<g id="a_node32"><a xlink:href="_mime_types_8cpp.html" target="_top" xlink:title=" ">
<polygon fill="white" stroke="black" points="906.5,-386 906.5,-405 1011.5,-405 1011.5,-386 906.5,-386"/>
<text text-anchor="middle" x="959" y="-393" font-family="Helvetica,sans-Serif" font-size="10.00">http/MimeTypes.cpp</text>
</a>
</g>
</g>
<!-- Node1&#45;&gt;Node32 -->
<g id="edge46" class="edge">
<title>Node1&#45;&gt;Node32</title>
<path fill="none" stroke="midnightblue" d="M959,-437.32C959,-426.5 959,-413.4 959,-405.01"/>
<polygon fill="midnightblue" stroke="midnightblue" points="955.5,-437.48 959,-447.48 962.5,-437.48 955.5,-437.48"/>
</g>
<!-- Node33 -->
<g id="node33" class="node">
<title>Node33</title>
<g id="a_node33"><a xlink:href="_parser_8cpp.html" target="_top" xlink:title=" ">
<polygon fill="white" stroke="black" points="1029.5,-386 1029.5,-405 1112.5,-405 1112.5,-386 1029.5,-386"/>
<text text-anchor="middle" x="1071" y="-393" font-family="Helvetica,sans-Serif" font-size="10.00">http/Parser.cpp</text>
</a>
</g>
</g>
<!-- Node1&#45;&gt;Node33 -->
<g id="edge47" class="edge">
<title>Node1&#45;&gt;Node33</title>
<path fill="none" stroke="midnightblue" d="M984.01,-442.71C1005.7,-431.19 1036.45,-414.86 1054.98,-405.01"/>
<polygon fill="midnightblue" stroke="midnightblue" points="982.24,-439.69 975.05,-447.48 985.52,-445.87 982.24,-439.69"/>
</g>
<!-- Node34 -->
<g id="node34" class="node">
<title>Node34</title>
<g id="a_node34"><a xlink:href="_request_parser_8cpp.html" target="_top" xlink:title=" ">
<polygon fill="white" stroke="black" points="1130.5,-386 1130.5,-405 1249.5,-405 1249.5,-386 1130.5,-386"/>
<text text-anchor="middle" x="1190" y="-393" font-family="Helvetica,sans-Serif" font-size="10.00">http/RequestParser.cpp</text>
</a>
</g>
</g>
<!-- Node1&#45;&gt;Node34 -->
<g id="edge48" class="edge">
<title>Node1&#45;&gt;Node34</title>
<path fill="none" stroke="midnightblue" d="M1001.83,-444.97C1046.68,-433.41 1116.17,-415.52 1156.96,-405.01"/>
<polygon fill="midnightblue" stroke="midnightblue" points="1000.91,-441.59 992.1,-447.48 1002.65,-448.37 1000.91,-441.59"/>
</g>
<!-- Node35 -->
<g id="node35" class="node">
<title>Node35</title>
<g id="a_node35"><a xlink:href="_response_parser_8cpp.html" target="_top" xlink:title=" ">
<polygon fill="white" stroke="black" points="1267.5,-386 1267.5,-405 1394.5,-405 1394.5,-386 1267.5,-386"/>
<text text-anchor="middle" x="1331" y="-393" font-family="Helvetica,sans-Serif" font-size="10.00">http/ResponseParser.cpp</text>
</a>
</g>
</g>
<!-- Node1&#45;&gt;Node35 -->
<g id="edge49" class="edge">
<title>Node1&#45;&gt;Node35</title>
<path fill="none" stroke="midnightblue" d="M1003.79,-449.99C1062.53,-441.95 1168.72,-426.85 1259,-411 1269.17,-409.21 1280.12,-407.11 1290.32,-405.06"/>
<polygon fill="midnightblue" stroke="midnightblue" points="1003.17,-446.54 993.74,-451.36 1004.12,-453.48 1003.17,-446.54"/>
</g>
<!-- Node36 -->
<g id="node36" class="node">
<title>Node36</title>
<g id="a_node36"><a xlink:href="_server_8h.html" target="_top" xlink:title=" ">
<polygon fill="white" stroke="black" points="1011,-185 1011,-204 1083,-204 1083,-185 1011,-185"/>
<text text-anchor="middle" x="1047" y="-192" font-family="Helvetica,sans-Serif" font-size="10.00">http/Server.h</text>
</a>
</g>
</g>
<!-- Node1&#45;&gt;Node36 -->
<g id="edge50" class="edge">
<title>Node1&#45;&gt;Node36</title>
<path fill="none" stroke="midnightblue" d="M930,-442.33C917.77,-434.92 904.81,-424.48 898,-411 891.79,-398.7 890.03,-391.24 898,-380 926.07,-340.46 967.33,-378.9 1001,-344 1040.35,-303.21 1046.1,-229.41 1046.89,-204.21"/>
<polygon fill="midnightblue" stroke="midnightblue" points="928.66,-445.59 939.09,-447.41 932.07,-439.48 928.66,-445.59"/>
</g>
<!-- Node37 -->
<g id="node37" class="node">
<title>Node37</title>
<g id="a_node37"><a xlink:href="_server_context_8cpp.html" target="_top" xlink:title=" ">
<polygon fill="white" stroke="black" points="1413,-386 1413,-405 1531,-405 1531,-386 1413,-386"/>
<text text-anchor="middle" x="1472" y="-393" font-family="Helvetica,sans-Serif" font-size="10.00">http/ServerContext.cpp</text>
</a>
</g>
</g>
<!-- Node1&#45;&gt;Node37 -->
<g id="edge53" class="edge">
<title>Node1&#45;&gt;Node37</title>
<path fill="none" stroke="midnightblue" d="M1003.76,-453.1C1084.21,-447.53 1258.45,-433.81 1404,-411 1414.26,-409.39 1425.3,-407.23 1435.43,-405.06"/>
<polygon fill="midnightblue" stroke="midnightblue" points="1003.24,-449.63 993.5,-453.8 1003.72,-456.61 1003.24,-449.63"/>
</g>
<!-- Node38 -->
<g id="node38" class="node">
<title>Node38</title>
<g id="a_node38"><a xlink:href="_logger_8cpp.html" target="_top" xlink:title=" ">
<polygon fill="white" stroke="black" points="1549,-386 1549,-405 1629,-405 1629,-386 1549,-386"/>
<text text-anchor="middle" x="1589" y="-393" font-family="Helvetica,sans-Serif" font-size="10.00">log/Logger.cpp</text>
</a>
</g>
</g>
<!-- Node1&#45;&gt;Node38 -->
<g id="edge54" class="edge">
<title>Node1&#45;&gt;Node38</title>
<path fill="none" stroke="midnightblue" d="M1003.85,-455.73C1101.93,-454.43 1342.5,-447.45 1540,-411 1547.85,-409.55 1556.24,-407.33 1563.81,-405.06"/>
<polygon fill="midnightblue" stroke="midnightblue" points="1003.67,-452.23 993.71,-455.85 1003.75,-459.23 1003.67,-452.23"/>
</g>
<!-- Node39 -->
<g id="node39" class="node">
<title>Node39</title>
<g id="a_node39"><a xlink:href="_json_middleware_8cpp.html" target="_top" xlink:title=" ">
<polygon fill="white" stroke="black" points="1647.5,-380.5 1647.5,-410.5 1756.5,-410.5 1756.5,-380.5 1647.5,-380.5"/>
<text text-anchor="start" x="1655.5" y="-398.5" font-family="Helvetica,sans-Serif" font-size="10.00">express/middleware</text>
<text text-anchor="middle" x="1702" y="-387.5" font-family="Helvetica,sans-Serif" font-size="10.00">/JsonMiddleware.cpp</text>
</a>
</g>
</g>
<!-- Node1&#45;&gt;Node39 -->
<g id="edge55" class="edge">
<title>Node1&#45;&gt;Node39</title>
<path fill="none" stroke="midnightblue" d="M1004.15,-455.45C1113.49,-453.57 1400.97,-445.49 1638,-411 1641.04,-410.56 1644.16,-410.05 1647.29,-409.49"/>
<polygon fill="midnightblue" stroke="midnightblue" points="1003.77,-451.95 993.83,-455.61 1003.88,-458.95 1003.77,-451.95"/>
</g>
<!-- Node40 -->
<g id="node40" class="node">
<title>Node40</title>
<g id="a_node40"><a xlink:href="_static_middleware_8cpp.html" target="_top" xlink:title=" ">
<polygon fill="white" stroke="black" points="1774.5,-380.5 1774.5,-410.5 1887.5,-410.5 1887.5,-380.5 1774.5,-380.5"/>
<text text-anchor="start" x="1782.5" y="-398.5" font-family="Helvetica,sans-Serif" font-size="10.00">express/middleware</text>
<text text-anchor="middle" x="1831" y="-387.5" font-family="Helvetica,sans-Serif" font-size="10.00">/StaticMiddleware.cpp</text>
</a>
</g>
</g>
<!-- Node1&#45;&gt;Node40 -->
<g id="edge56" class="edge">
<title>Node1&#45;&gt;Node40</title>
<path fill="none" stroke="midnightblue" d="M1003.95,-456.07C1126.69,-455.69 1477.65,-450.93 1766,-411 1768.75,-410.62 1771.55,-410.18 1774.38,-409.7"/>
<polygon fill="midnightblue" stroke="midnightblue" points="1003.8,-452.57 993.8,-456.09 1003.81,-459.57 1003.8,-452.57"/>
</g>
<!-- Node41 -->
<g id="node41" class="node">
<title>Node41</title>
<g id="a_node41"><a xlink:href="_web_app_8cpp.html" target="_top" xlink:title=" ">
<polygon fill="white" stroke="black" points="1906,-386 1906,-405 2016,-405 2016,-386 1906,-386"/>
<text text-anchor="middle" x="1961" y="-393" font-family="Helvetica,sans-Serif" font-size="10.00">express/WebApp.cpp</text>
</a>
</g>
</g>
<!-- Node1&#45;&gt;Node41 -->
<g id="edge57" class="edge">
<title>Node1&#45;&gt;Node41</title>
<path fill="none" stroke="midnightblue" d="M1004.1,-456.62C1139.81,-457.89 1556.09,-457.43 1897,-411 1907.27,-409.6 1918.33,-407.36 1928.31,-405.06"/>
<polygon fill="midnightblue" stroke="midnightblue" points="1003.73,-453.12 993.7,-456.51 1003.66,-460.12 1003.73,-453.12"/>
</g>
<!-- Node4 -->
<g id="node4" class="node">
<title>Node4</title>
<g id="a_node4"><a xlink:href="sock__stream_2legacy_2_socket_client_8h.html" target="_top" xlink:title=" ">
<polygon fill="white" stroke="black" points="131,-179.5 131,-209.5 253,-209.5 253,-179.5 131,-179.5"/>
<text text-anchor="start" x="139" y="-197.5" font-family="Helvetica,sans-Serif" font-size="10.00">net/socket/sock_stream</text>
<text text-anchor="middle" x="192" y="-186.5" font-family="Helvetica,sans-Serif" font-size="10.00">/legacy/SocketClient.h</text>
</a>
</g>
</g>
<!-- Node3&#45;&gt;Node4 -->
<g id="edge3" class="edge">
<title>Node3&#45;&gt;Node4</title>
<path fill="none" stroke="midnightblue" d="M347.35,-376.38C305.07,-357.83 244.89,-324.89 211,-277 196.65,-256.72 192.99,-227.17 192.15,-209.78"/>
<polygon fill="midnightblue" stroke="midnightblue" points="346.05,-379.63 356.62,-380.35 348.8,-373.2 346.05,-379.63"/>
</g>
<!-- Node3&#45;&gt;Node8 -->
<g id="edge8" class="edge">
<title>Node3&#45;&gt;Node8</title>
<path fill="none" stroke="midnightblue" d="M388.45,-370.4C388.01,-361.37 388.3,-351.41 389.33,-343.58"/>
<polygon fill="midnightblue" stroke="midnightblue" points="384.97,-370.74 389.32,-380.4 391.94,-370.13 384.97,-370.74"/>
</g>
<!-- Node11 -->
<g id="node11" class="node">
<title>Node11</title>
<g id="a_node11"><a xlink:href="sock__stream_2tls_2_socket_client_8h.html" target="_top" xlink:title=" ">
<polygon fill="white" stroke="black" points="322,-179.5 322,-209.5 444,-209.5 444,-179.5 322,-179.5"/>
<text text-anchor="start" x="330" y="-197.5" font-family="Helvetica,sans-Serif" font-size="10.00">net/socket/sock_stream</text>
<text text-anchor="middle" x="383" y="-186.5" font-family="Helvetica,sans-Serif" font-size="10.00">/tls/SocketClient.h</text>
</a>
</g>
</g>
<!-- Node3&#45;&gt;Node11 -->
<g id="edge18" class="edge">
<title>Node3&#45;&gt;Node11</title>
<path fill="none" stroke="midnightblue" d="M341.34,-376.72C297.52,-359.02 238.49,-327.17 211,-277 185,-229.55 262.64,-209.45 321.96,-201.14"/>
<polygon fill="midnightblue" stroke="midnightblue" points="340.14,-380.01 350.73,-380.39 342.69,-373.49 340.14,-380.01"/>
</g>
<!-- Node5 -->
<g id="node5" class="node">
<title>Node5</title>
<g id="a_node5"><a xlink:href="ipv4_2tcp_2legacy_2_socket_client_8h.html" target="_top" xlink:title=" ">
<polygon fill="white" stroke="black" points="134,-112.5 134,-142.5 250,-142.5 250,-112.5 134,-112.5"/>
<text text-anchor="start" x="142" y="-130.5" font-family="Helvetica,sans-Serif" font-size="10.00">net/socket/ipv4/tcp</text>
<text text-anchor="middle" x="192" y="-119.5" font-family="Helvetica,sans-Serif" font-size="10.00">/legacy/SocketClient.h</text>
</a>
</g>
</g>
<!-- Node4&#45;&gt;Node5 -->
<g id="edge4" class="edge">
<title>Node4&#45;&gt;Node5</title>
<path fill="none" stroke="midnightblue" d="M192,-169.11C192,-160.15 192,-150.32 192,-142.58"/>
<polygon fill="midnightblue" stroke="midnightblue" points="188.5,-169.4 192,-179.4 195.5,-169.4 188.5,-169.4"/>
</g>
<!-- Node7 -->
<g id="node7" class="node">
<title>Node7</title>
<g id="a_node7"><a xlink:href="ipv6_2tcp_2legacy_2_socket_client_8h.html" target="_top" xlink:title=" ">
<polygon fill="white" stroke="black" points="0,-112.5 0,-142.5 116,-142.5 116,-112.5 0,-112.5"/>
<text text-anchor="start" x="8" y="-130.5" font-family="Helvetica,sans-Serif" font-size="10.00">net/socket/ipv6/tcp</text>
<text text-anchor="middle" x="58" y="-119.5" font-family="Helvetica,sans-Serif" font-size="10.00">/legacy/SocketClient.h</text>
</a>
</g>
</g>
<!-- Node4&#45;&gt;Node7 -->
<g id="edge6" class="edge">
<title>Node4&#45;&gt;Node7</title>
<path fill="none" stroke="midnightblue" d="M153.85,-174.99C132.61,-164.69 106.59,-152.07 87.02,-142.58"/>
<polygon fill="midnightblue" stroke="midnightblue" points="152.4,-178.18 162.92,-179.4 155.45,-171.88 152.4,-178.18"/>
</g>
<!-- Node6 -->
<g id="node6" class="node">
<title>Node6</title>
<g id="a_node6"><a xlink:href="legacy_2_client_8h.html" target="_top" xlink:title=" ">
<polygon fill="white" stroke="black" points="141.5,-56.5 141.5,-75.5 242.5,-75.5 242.5,-56.5 141.5,-56.5"/>
<text text-anchor="middle" x="192" y="-63.5" font-family="Helvetica,sans-Serif" font-size="10.00">http/legacy/Client.h</text>
</a>
</g>
</g>
<!-- Node5&#45;&gt;Node6 -->
<g id="edge5" class="edge">
<title>Node5&#45;&gt;Node6</title>
<path fill="none" stroke="midnightblue" d="M192,-102.29C192,-92.86 192,-82.65 192,-75.66"/>
<polygon fill="midnightblue" stroke="midnightblue" points="188.5,-102.4 192,-112.4 195.5,-102.4 188.5,-102.4"/>
</g>
<!-- Node7&#45;&gt;Node6 -->
<g id="edge7" class="edge">
<title>Node7&#45;&gt;Node6</title>
<path fill="none" stroke="midnightblue" d="M99.15,-108.23C123.55,-97.39 153.35,-84.16 172.5,-75.66"/>
<polygon fill="midnightblue" stroke="midnightblue" points="97.48,-105.14 89.76,-112.4 100.32,-111.54 97.48,-105.14"/>
</g>
<!-- Node8&#45;&gt;Node3 -->
<g id="edge11" class="edge">
<title>Node8&#45;&gt;Node3</title>
<path fill="none" stroke="midnightblue" d="M401.54,-353.57C401.99,-362.6 401.71,-372.56 400.68,-380.4"/>
<polygon fill="midnightblue" stroke="midnightblue" points="405.03,-353.24 400.67,-343.58 398.05,-353.84 405.03,-353.24"/>
</g>
<!-- Node9 -->
<g id="node9" class="node">
<title>Node9</title>
<g id="a_node9"><a xlink:href="legacy_2_socket_connector_8h.html" target="_top" xlink:title=" ">
<polygon fill="white" stroke="black" points="220,-246.5 220,-276.5 354,-276.5 354,-246.5 220,-246.5"/>
<text text-anchor="start" x="228" y="-264.5" font-family="Helvetica,sans-Serif" font-size="10.00">net/socket/sock_stream</text>
<text text-anchor="middle" x="287" y="-253.5" font-family="Helvetica,sans-Serif" font-size="10.00">/legacy/SocketConnector.h</text>
</a>
</g>
</g>
<!-- Node8&#45;&gt;Node9 -->
<g id="edge9" class="edge">
<title>Node8&#45;&gt;Node9</title>
<path fill="none" stroke="midnightblue" d="M362.63,-308.02C345.82,-297.9 325.66,-285.77 310.39,-276.58"/>
<polygon fill="midnightblue" stroke="midnightblue" points="361.19,-311.24 371.57,-313.4 364.8,-305.24 361.19,-311.24"/>
</g>
<!-- Node10 -->
<g id="node10" class="node">
<title>Node10</title>
<g id="a_node10"><a xlink:href="tls_2_socket_connector_8h.html" target="_top" xlink:title=" ">
<polygon fill="white" stroke="black" points="372,-246.5 372,-276.5 494,-276.5 494,-246.5 372,-246.5"/>
<text text-anchor="start" x="380" y="-264.5" font-family="Helvetica,sans-Serif" font-size="10.00">net/socket/sock_stream</text>
<text text-anchor="middle" x="433" y="-253.5" font-family="Helvetica,sans-Serif" font-size="10.00">/tls/SocketConnector.h</text>
</a>
</g>
</g>
<!-- Node8&#45;&gt;Node10 -->
<g id="edge12" class="edge">
<title>Node8&#45;&gt;Node10</title>
<path fill="none" stroke="midnightblue" d="M408.4,-304.58C413.86,-295.24 419.99,-284.75 424.77,-276.58"/>
<polygon fill="midnightblue" stroke="midnightblue" points="405.27,-303 403.25,-313.4 411.31,-306.53 405.27,-303"/>
</g>
<!-- Node9&#45;&gt;Node4 -->
<g id="edge10" class="edge">
<title>Node9&#45;&gt;Node4</title>
<path fill="none" stroke="midnightblue" d="M258.11,-240.73C243.41,-230.68 225.89,-218.68 212.57,-209.58"/>
<polygon fill="midnightblue" stroke="midnightblue" points="256.16,-243.64 266.39,-246.4 260.11,-237.86 256.16,-243.64"/>
</g>
<!-- Node10&#45;&gt;Node11 -->
<g id="edge13" class="edge">
<title>Node10&#45;&gt;Node11</title>
<path fill="none" stroke="midnightblue" d="M416.04,-238.45C408.69,-228.9 400.31,-218 393.83,-209.58"/>
<polygon fill="midnightblue" stroke="midnightblue" points="413.28,-240.6 422.15,-246.4 418.83,-236.34 413.28,-240.6"/>
</g>
<!-- Node12 -->
<g id="node12" class="node">
<title>Node12</title>
<g id="a_node12"><a xlink:href="ipv4_2tcp_2tls_2_socket_client_8h.html" target="_top" xlink:title=" ">
<polygon fill="white" stroke="black" points="268,-112.5 268,-142.5 368,-142.5 368,-112.5 268,-112.5"/>
<text text-anchor="start" x="276" y="-130.5" font-family="Helvetica,sans-Serif" font-size="10.00">net/socket/ipv4/tcp</text>
<text text-anchor="middle" x="318" y="-119.5" font-family="Helvetica,sans-Serif" font-size="10.00">/tls/SocketClient.h</text>
</a>
</g>
</g>
<!-- Node11&#45;&gt;Node12 -->
<g id="edge14" class="edge">
<title>Node11&#45;&gt;Node12</title>
<path fill="none" stroke="midnightblue" d="M361.81,-172.31C352.06,-162.56 340.76,-151.26 332.08,-142.58"/>
<polygon fill="midnightblue" stroke="midnightblue" points="359.35,-174.8 368.9,-179.4 364.3,-169.85 359.35,-174.8"/>
</g>
<!-- Node14 -->
<g id="node14" class="node">
<title>Node14</title>
<g id="a_node14"><a xlink:href="ipv6_2tcp_2tls_2_socket_client_8h.html" target="_top" xlink:title=" ">
<polygon fill="white" stroke="black" points="386,-112.5 386,-142.5 486,-142.5 486,-112.5 386,-112.5"/>
<text text-anchor="start" x="394" y="-130.5" font-family="Helvetica,sans-Serif" font-size="10.00">net/socket/ipv6/tcp</text>
<text text-anchor="middle" x="436" y="-119.5" font-family="Helvetica,sans-Serif" font-size="10.00">/tls/SocketClient.h</text>
</a>
</g>
</g>
<!-- Node11&#45;&gt;Node14 -->
<g id="edge16" class="edge">
<title>Node11&#45;&gt;Node14</title>
<path fill="none" stroke="midnightblue" d="M400.98,-171.45C408.77,-161.9 417.65,-151 424.52,-142.58"/>
<polygon fill="midnightblue" stroke="midnightblue" points="398.11,-169.43 394.5,-179.4 403.53,-173.86 398.11,-169.43"/>
</g>
<!-- Node13 -->
<g id="node13" class="node">
<title>Node13</title>
<g id="a_node13"><a xlink:href="tls_2_client_8h.html" target="_top" xlink:title=" ">
<polygon fill="white" stroke="black" points="394.5,-56.5 394.5,-75.5 477.5,-75.5 477.5,-56.5 394.5,-56.5"/>
<text text-anchor="middle" x="436" y="-63.5" font-family="Helvetica,sans-Serif" font-size="10.00">http/tls/Client.h</text>
</a>
</g>
</g>
<!-- Node12&#45;&gt;Node13 -->
<g id="edge15" class="edge">
<title>Node12&#45;&gt;Node13</title>
<path fill="none" stroke="midnightblue" d="M355.09,-107.8C376.42,-97.04 402.19,-84.05 418.83,-75.66"/>
<polygon fill="midnightblue" stroke="midnightblue" points="353.32,-104.77 345.96,-112.4 356.47,-111.02 353.32,-104.77"/>
</g>
<!-- Node14&#45;&gt;Node13 -->
<g id="edge17" class="edge">
<title>Node14&#45;&gt;Node13</title>
<path fill="none" stroke="midnightblue" d="M436,-102.29C436,-92.86 436,-82.65 436,-75.66"/>
<polygon fill="midnightblue" stroke="midnightblue" points="432.5,-102.4 436,-112.4 439.5,-102.4 432.5,-102.4"/>
</g>
<!-- Node16 -->
<g id="node16" class="node">
<title>Node16</title>
<g id="a_node16"><a xlink:href="legacy_2_socket_listener_8h.html" target="_top" xlink:title=" ">
<polygon fill="white" stroke="black" points="868,-313.5 868,-343.5 992,-343.5 992,-313.5 868,-313.5"/>
<text text-anchor="start" x="876" y="-331.5" font-family="Helvetica,sans-Serif" font-size="10.00">net/socket/sock_stream</text>
<text text-anchor="middle" x="930" y="-320.5" font-family="Helvetica,sans-Serif" font-size="10.00">/legacy/SocketListener.h</text>
</a>
</g>
</g>
<!-- Node15&#45;&gt;Node16 -->
<g id="edge21" class="edge">
<title>Node15&#45;&gt;Node16</title>
<path fill="none" stroke="midnightblue" d="M828.85,-376.13C851.25,-365.8 878.78,-353.11 899.46,-343.58"/>
<polygon fill="midnightblue" stroke="midnightblue" points="827.21,-373.03 819.59,-380.4 830.14,-379.39 827.21,-373.03"/>
</g>
<!-- Node15&#45;&gt;Node22 -->
<g id="edge28" class="edge">
<title>Node15&#45;&gt;Node22</title>
<path fill="none" stroke="midnightblue" d="M789,-370.11C789,-361.15 789,-351.32 789,-343.58"/>
<polygon fill="midnightblue" stroke="midnightblue" points="785.5,-370.4 789,-380.4 792.5,-370.4 785.5,-370.4"/>
</g>
<!-- Node28 -->
<g id="node28" class="node">
<title>Node28</title>
<g id="a_node28"><a xlink:href="tls_2_socket_listener_8h.html" target="_top" xlink:title=" ">
<polygon fill="white" stroke="black" points="599,-246.5 599,-276.5 721,-276.5 721,-246.5 599,-246.5"/>
<text text-anchor="start" x="607" y="-264.5" font-family="Helvetica,sans-Serif" font-size="10.00">net/socket/sock_stream</text>
<text text-anchor="middle" x="660" y="-253.5" font-family="Helvetica,sans-Serif" font-size="10.00">/tls/SocketListener.h</text>
</a>
</g>
</g>
<!-- Node15&#45;&gt;Node28 -->
<g id="edge36" class="edge">
<title>Node15&#45;&gt;Node28</title>
<path fill="none" stroke="midnightblue" d="M757.37,-374.86C744.72,-366.22 730.46,-355.44 719,-344 697.86,-322.9 678.64,-293.62 668.2,-276.51"/>
<polygon fill="midnightblue" stroke="midnightblue" points="755.55,-377.86 765.82,-380.48 759.43,-372.03 755.55,-377.86"/>
</g>
<!-- Node17 -->
<g id="node17" class="node">
<title>Node17</title>
<g id="a_node17"><a xlink:href="sock__stream_2legacy_2_socket_server_8h.html" target="_top" xlink:title=" ">
<polygon fill="white" stroke="black" points="843,-246.5 843,-276.5 965,-276.5 965,-246.5 843,-246.5"/>
<text text-anchor="start" x="851" y="-264.5" font-family="Helvetica,sans-Serif" font-size="10.00">net/socket/sock_stream</text>
<text text-anchor="middle" x="904" y="-253.5" font-family="Helvetica,sans-Serif" font-size="10.00">/legacy/SocketServer.h</text>
</a>
</g>
</g>
<!-- Node16&#45;&gt;Node17 -->
<g id="edge22" class="edge">
<title>Node16&#45;&gt;Node17</title>
<path fill="none" stroke="midnightblue" d="M920.6,-303.99C916.92,-294.8 912.83,-284.58 909.63,-276.58"/>
<polygon fill="midnightblue" stroke="midnightblue" points="917.39,-305.41 924.36,-313.4 923.89,-302.81 917.39,-305.41"/>
</g>
<!-- Node18 -->
<g id="node18" class="node">
<title>Node18</title>
<g id="a_node18"><a xlink:href="ipv4_2tcp_2legacy_2_socket_server_8h.html" target="_top" xlink:title=" ">
<polygon fill="white" stroke="black" points="739,-179.5 739,-209.5 857,-209.5 857,-179.5 739,-179.5"/>
<text text-anchor="start" x="747" y="-197.5" font-family="Helvetica,sans-Serif" font-size="10.00">net/socket/ipv4/tcp</text>
<text text-anchor="middle" x="798" y="-186.5" font-family="Helvetica,sans-Serif" font-size="10.00">/legacy/SocketServer.h</text>
</a>
</g>
</g>
<!-- Node17&#45;&gt;Node18 -->
<g id="edge23" class="edge">
<title>Node17&#45;&gt;Node18</title>
<path fill="none" stroke="midnightblue" d="M872.22,-241.02C855.73,-230.9 835.95,-218.77 820.96,-209.58"/>
<polygon fill="midnightblue" stroke="midnightblue" points="870.65,-244.15 881,-246.4 874.3,-238.18 870.65,-244.15"/>
</g>
<!-- Node21 -->
<g id="node21" class="node">
<title>Node21</title>
<g id="a_node21"><a xlink:href="ipv6_2tcp_2legacy_2_socket_server_8h.html" target="_top" xlink:title=" ">
<polygon fill="white" stroke="black" points="875,-179.5 875,-209.5 993,-209.5 993,-179.5 875,-179.5"/>
<text text-anchor="start" x="883" y="-197.5" font-family="Helvetica,sans-Serif" font-size="10.00">net/socket/ipv6/tcp</text>
<text text-anchor="middle" x="934" y="-186.5" font-family="Helvetica,sans-Serif" font-size="10.00">/legacy/SocketServer.h</text>
</a>
</g>
</g>
<!-- Node17&#45;&gt;Node21 -->
<g id="edge26" class="edge">
<title>Node17&#45;&gt;Node21</title>
<path fill="none" stroke="midnightblue" d="M914.72,-237.28C918.99,-228.02 923.77,-217.66 927.5,-209.58"/>
<polygon fill="midnightblue" stroke="midnightblue" points="911.52,-235.85 910.51,-246.4 917.88,-238.78 911.52,-235.85"/>
</g>
<!-- Node19 -->
<g id="node19" class="node">
<title>Node19</title>
<g id="a_node19"><a xlink:href="legacy_2_server_8h.html" target="_top" xlink:title=" ">
<polygon fill="white" stroke="black" points="882,-118 882,-137 986,-137 986,-118 882,-118"/>
<text text-anchor="middle" x="934" y="-125" font-family="Helvetica,sans-Serif" font-size="10.00">http/legacy/Server.h</text>
</a>
</g>
</g>
<!-- Node18&#45;&gt;Node19 -->
<g id="edge24" class="edge">
<title>Node18&#45;&gt;Node19</title>
<path fill="none" stroke="midnightblue" d="M836.78,-174.97C862.9,-162.48 896.13,-146.6 916.2,-137.01"/>
<polygon fill="midnightblue" stroke="midnightblue" points="835.02,-171.93 827.51,-179.4 838.04,-178.24 835.02,-171.93"/>
</g>
<!-- Node20 -->
<g id="node20" class="node">
<title>Node20</title>
<g id="a_node20"><a xlink:href="legacy_2_web_app_8h.html" target="_top" xlink:title=" ">
<polygon fill="white" stroke="black" points="868.5,-56.5 868.5,-75.5 999.5,-75.5 999.5,-56.5 868.5,-56.5"/>
<text text-anchor="middle" x="934" y="-63.5" font-family="Helvetica,sans-Serif" font-size="10.00">express/legacy/WebApp.h</text>
</a>
</g>
</g>
<!-- Node19&#45;&gt;Node20 -->
<g id="edge25" class="edge">
<title>Node19&#45;&gt;Node20</title>
<path fill="none" stroke="midnightblue" d="M934,-107.82C934,-97 934,-83.9 934,-75.51"/>
<polygon fill="midnightblue" stroke="midnightblue" points="930.5,-107.98 934,-117.98 937.5,-107.98 930.5,-107.98"/>
</g>
<!-- Node21&#45;&gt;Node19 -->
<g id="edge27" class="edge">
<title>Node21&#45;&gt;Node19</title>
<path fill="none" stroke="midnightblue" d="M934,-169.25C934,-158.02 934,-145.38 934,-137.19"/>
<polygon fill="midnightblue" stroke="midnightblue" points="930.5,-169.4 934,-179.4 937.5,-169.4 930.5,-169.4"/>
</g>
<!-- Node22&#45;&gt;Node17 -->
<g id="edge29" class="edge">
<title>Node22&#45;&gt;Node17</title>
<path fill="none" stroke="midnightblue" d="M822.98,-308.3C840.97,-298.12 862.68,-285.85 879.1,-276.58"/>
<polygon fill="midnightblue" stroke="midnightblue" points="820.94,-305.43 813.95,-313.4 824.38,-311.52 820.94,-305.43"/>
</g>
<!-- Node23 -->
<g id="node23" class="node">
<title>Node23</title>
<g id="a_node23"><a xlink:href="sock__stream_2tls_2_socket_server_8h.html" target="_top" xlink:title=" ">
<polygon fill="white" stroke="black" points="599,-179.5 599,-209.5 721,-209.5 721,-179.5 599,-179.5"/>
<text text-anchor="start" x="607" y="-197.5" font-family="Helvetica,sans-Serif" font-size="10.00">net/socket/sock_stream</text>
<text text-anchor="middle" x="660" y="-186.5" font-family="Helvetica,sans-Serif" font-size="10.00">/tls/SocketServer.h</text>
</a>
</g>
</g>
<!-- Node22&#45;&gt;Node23 -->
<g id="edge30" class="edge">
<title>Node22&#45;&gt;Node23</title>
<path fill="none" stroke="midnightblue" d="M775.29,-304.66C764.31,-287.43 747.84,-263.81 730,-246 715.9,-231.92 697.55,-218.84 683.18,-209.52"/>
<polygon fill="midnightblue" stroke="midnightblue" points="772.54,-306.86 780.8,-313.49 778.48,-303.15 772.54,-306.86"/>
</g>
<!-- Node24 -->
<g id="node24" class="node">
<title>Node24</title>
<g id="a_node24"><a xlink:href="ipv4_2tcp_2tls_2_socket_server_8h.html" target="_top" xlink:title=" ">
<polygon fill="white" stroke="black" points="728,-112.5 728,-142.5 828,-142.5 828,-112.5 728,-112.5"/>
<text text-anchor="start" x="736" y="-130.5" font-family="Helvetica,sans-Serif" font-size="10.00">net/socket/ipv4/tcp</text>
<text text-anchor="middle" x="778" y="-119.5" font-family="Helvetica,sans-Serif" font-size="10.00">/tls/SocketServer.h</text>
</a>
</g>
</g>
<!-- Node23&#45;&gt;Node24 -->
<g id="edge31" class="edge">
<title>Node23&#45;&gt;Node24</title>
<path fill="none" stroke="midnightblue" d="M694.61,-174.44C713.12,-164.24 735.52,-151.9 752.45,-142.58"/>
<polygon fill="midnightblue" stroke="midnightblue" points="692.67,-171.51 685.6,-179.4 696.05,-177.64 692.67,-171.51"/>
</g>
<!-- Node27 -->
<g id="node27" class="node">
<title>Node27</title>
<g id="a_node27"><a xlink:href="ipv6_2tcp_2tls_2_socket_server_8h.html" target="_top" xlink:title=" ">
<polygon fill="white" stroke="black" points="610,-112.5 610,-142.5 710,-142.5 710,-112.5 610,-112.5"/>
<text text-anchor="start" x="618" y="-130.5" font-family="Helvetica,sans-Serif" font-size="10.00">net/socket/ipv6/tcp</text>
<text text-anchor="middle" x="660" y="-119.5" font-family="Helvetica,sans-Serif" font-size="10.00">/tls/SocketServer.h</text>
</a>
</g>
</g>
<!-- Node23&#45;&gt;Node27 -->
<g id="edge34" class="edge">
<title>Node23&#45;&gt;Node27</title>
<path fill="none" stroke="midnightblue" d="M660,-169.11C660,-160.15 660,-150.32 660,-142.58"/>
<polygon fill="midnightblue" stroke="midnightblue" points="656.5,-169.4 660,-179.4 663.5,-169.4 656.5,-169.4"/>
</g>
<!-- Node25 -->
<g id="node25" class="node">
<title>Node25</title>
<g id="a_node25"><a xlink:href="tls_2_server_8h.html" target="_top" xlink:title=" ">
<polygon fill="white" stroke="black" points="735,-56.5 735,-75.5 821,-75.5 821,-56.5 735,-56.5"/>
<text text-anchor="middle" x="778" y="-63.5" font-family="Helvetica,sans-Serif" font-size="10.00">http/tls/Server.h</text>
</a>
</g>
</g>
<!-- Node24&#45;&gt;Node25 -->
<g id="edge32" class="edge">
<title>Node24&#45;&gt;Node25</title>
<path fill="none" stroke="midnightblue" d="M778,-102.29C778,-92.86 778,-82.65 778,-75.66"/>
<polygon fill="midnightblue" stroke="midnightblue" points="774.5,-102.4 778,-112.4 781.5,-102.4 774.5,-102.4"/>
</g>
<!-- Node26 -->
<g id="node26" class="node">
<title>Node26</title>
<g id="a_node26"><a xlink:href="tls_2_web_app_8h.html" target="_top" xlink:title=" ">
<polygon fill="white" stroke="black" points="721.5,-0.5 721.5,-19.5 834.5,-19.5 834.5,-0.5 721.5,-0.5"/>
<text text-anchor="middle" x="778" y="-7.5" font-family="Helvetica,sans-Serif" font-size="10.00">express/tls/WebApp.h</text>
</a>
</g>
</g>
<!-- Node25&#45;&gt;Node26 -->
<g id="edge33" class="edge">
<title>Node25&#45;&gt;Node26</title>
<path fill="none" stroke="midnightblue" d="M778,-45.8C778,-36.91 778,-26.78 778,-19.75"/>
<polygon fill="midnightblue" stroke="midnightblue" points="774.5,-46.08 778,-56.08 781.5,-46.08 774.5,-46.08"/>
</g>
<!-- Node27&#45;&gt;Node25 -->
<g id="edge35" class="edge">
<title>Node27&#45;&gt;Node25</title>
<path fill="none" stroke="midnightblue" d="M697.09,-107.8C718.42,-97.04 744.19,-84.05 760.83,-75.66"/>
<polygon fill="midnightblue" stroke="midnightblue" points="695.32,-104.77 687.96,-112.4 698.47,-111.02 695.32,-104.77"/>
</g>
<!-- Node28&#45;&gt;Node23 -->
<g id="edge37" class="edge">
<title>Node28&#45;&gt;Node23</title>
<path fill="none" stroke="midnightblue" d="M660,-236.11C660,-227.15 660,-217.32 660,-209.58"/>
<polygon fill="midnightblue" stroke="midnightblue" points="656.5,-236.4 660,-246.4 663.5,-236.4 656.5,-236.4"/>
</g>
<!-- Node30 -->
<g id="node30" class="node">
<title>Node30</title>
<g id="a_node30"><a xlink:href="tls_2_socket_connection_8h.html" target="_top" xlink:title=" ">
<polygon fill="white" stroke="black" points="550,-313.5 550,-343.5 672,-343.5 672,-313.5 550,-313.5"/>
<text text-anchor="start" x="558" y="-331.5" font-family="Helvetica,sans-Serif" font-size="10.00">net/socket/sock_stream</text>
<text text-anchor="middle" x="611" y="-320.5" font-family="Helvetica,sans-Serif" font-size="10.00">/tls/SocketConnection.h</text>
</a>
</g>
</g>
<!-- Node29&#45;&gt;Node30 -->
<g id="edge40" class="edge">
<title>Node29&#45;&gt;Node30</title>
<path fill="none" stroke="midnightblue" d="M611,-370.11C611,-361.15 611,-351.32 611,-343.58"/>
<polygon fill="midnightblue" stroke="midnightblue" points="607.5,-370.4 611,-380.4 614.5,-370.4 607.5,-370.4"/>
</g>
<!-- Node30&#45;&gt;Node10 -->
<g id="edge41" class="edge">
<title>Node30&#45;&gt;Node10</title>
<path fill="none" stroke="midnightblue" d="M562.95,-309.96C534.28,-299.48 498.36,-286.37 471.55,-276.58"/>
<polygon fill="midnightblue" stroke="midnightblue" points="561.78,-313.25 572.38,-313.4 564.18,-306.68 561.78,-313.25"/>
</g>
<!-- Node30&#45;&gt;Node28 -->
<g id="edge42" class="edge">
<title>Node30&#45;&gt;Node28</title>
<path fill="none" stroke="midnightblue" d="M627.84,-305.16C634.99,-295.68 643.1,-284.92 649.39,-276.58"/>
<polygon fill="midnightblue" stroke="midnightblue" points="624.86,-303.3 621.63,-313.4 630.45,-307.52 624.86,-303.3"/>
</g>
<!-- Node31&#45;&gt;Node6 -->
<g id="edge44" class="edge">
<title>Node31&#45;&gt;Node6</title>
<path fill="none" stroke="midnightblue" d="M505.62,-114.84C502.06,-113.8 498.47,-112.82 495,-112 407.42,-91.23 303.2,-78.25 242.63,-71.84"/>
<polygon fill="midnightblue" stroke="midnightblue" points="504.88,-118.28 515.46,-117.92 506.96,-111.6 504.88,-118.28"/>
</g>
<!-- Node31&#45;&gt;Node13 -->
<g id="edge45" class="edge">
<title>Node31&#45;&gt;Node13</title>
<path fill="none" stroke="midnightblue" d="M515.46,-112.9C495.54,-101.4 467.62,-85.27 450.73,-75.51"/>
<polygon fill="midnightblue" stroke="midnightblue" points="513.83,-116 524.24,-117.98 517.33,-109.94 513.83,-116"/>
</g>
<!-- Node36&#45;&gt;Node19 -->
<g id="edge51" class="edge">
<title>Node36&#45;&gt;Node19</title>
<path fill="none" stroke="midnightblue" d="M1022.86,-179.62C1000.47,-166.74 967.86,-147.98 949,-137.13"/>
<polygon fill="midnightblue" stroke="midnightblue" points="1021.35,-182.78 1031.76,-184.73 1024.84,-176.71 1021.35,-182.78"/>
</g>
<!-- Node36&#45;&gt;Node25 -->
<g id="edge52" class="edge">
<title>Node36&#45;&gt;Node25</title>
<path fill="none" stroke="midnightblue" d="M1040.43,-175.46C1032.59,-156.6 1017.63,-127.6 995,-112 967.28,-92.89 876.06,-78.88 821.1,-71.92"/>
<polygon fill="midnightblue" stroke="midnightblue" points="1037.25,-176.94 1044.14,-184.99 1043.77,-174.4 1037.25,-176.94"/>
</g>
</g>
</svg>
