<?xml version="1.0" encoding="UTF-8" standalone="no"?>
<!DOCTYPE svg PUBLIC "-//W3C//DTD SVG 1.1//EN"
 "http://www.w3.org/Graphics/SVG/1.1/DTD/svg11.dtd">
<!-- Generated by graphviz version 2.43.0 (0)
 -->
<!-- Title: net/OutOfBandEventReceiver.h Pages: 1 -->
<svg width="1183pt" height="196pt"
 viewBox="0.00 0.00 1183.00 196.00" xmlns="http://www.w3.org/2000/svg" xmlns:xlink="http://www.w3.org/1999/xlink">
<g id="graph0" class="graph" transform="scale(1 1) rotate(0) translate(4 192)">
<title>net/OutOfBandEventReceiver.h</title>
<polygon fill="white" stroke="transparent" points="-4,4 -4,-192 1179,-192 1179,4 -4,4"/>
<!-- Node1 -->
<g id="node1" class="node">
<title>Node1</title>
<g id="a_node1"><a xlink:title=" ">
<polygon fill="#bfbfbf" stroke="black" points="939,-168.5 939,-187.5 1093,-187.5 1093,-168.5 939,-168.5"/>
<text text-anchor="middle" x="1016" y="-175.5" font-family="Helvetica,sans-Serif" font-size="10.00">net/OutOfBandEventReceiver.h</text>
</a>
</g>
</g>
<!-- Node2 -->
<g id="node2" class="node">
<title>Node2</title>
<g id="a_node2"><a xlink:href="_out_of_band_event_dispatcher_8h.html" target="_top" xlink:title=" ">
<polygon fill="white" stroke="black" points="881,-112.5 881,-131.5 1043,-131.5 1043,-112.5 881,-112.5"/>
<text text-anchor="middle" x="962" y="-119.5" font-family="Helvetica,sans-Serif" font-size="10.00">net/OutOfBandEventDispatcher.h</text>
</a>
</g>
</g>
<!-- Node1&#45;&gt;Node2 -->
<g id="edge1" class="edge">
<title>Node1&#45;&gt;Node2</title>
<path fill="none" stroke="midnightblue" d="M1000,-161C990.43,-151.43 978.64,-139.64 970.75,-131.75"/>
<polygon fill="midnightblue" stroke="midnightblue" points="997.54,-163.49 1007.08,-168.08 1002.49,-158.54 997.54,-163.49"/>
</g>
<!-- Node7 -->
<g id="node7" class="node">
<title>Node7</title>
<g id="a_node7"><a xlink:href="_out_of_band_event_receiver_8cpp.html" target="_top" xlink:title=" ">
<polygon fill="white" stroke="black" points="1011,-0.5 1011,-19.5 1175,-19.5 1175,-0.5 1011,-0.5"/>
<text text-anchor="middle" x="1093" y="-7.5" font-family="Helvetica,sans-Serif" font-size="10.00">net/OutOfBandEventReceiver.cpp</text>
</a>
</g>
</g>
<!-- Node1&#45;&gt;Node7 -->
<g id="edge13" class="edge">
<title>Node1&#45;&gt;Node7</title>
<path fill="none" stroke="midnightblue" d="M1031.3,-160.74C1038.34,-152.6 1046.37,-142.29 1052,-132 1073.51,-92.7 1086.6,-40.08 1091.17,-19.63"/>
<polygon fill="midnightblue" stroke="midnightblue" points="1028.53,-158.58 1024.45,-168.36 1033.74,-163.26 1028.53,-158.58"/>
</g>
<!-- Node3 -->
<g id="node3" class="node">
<title>Node3</title>
<g id="a_node3"><a xlink:href="_event_loop_8h.html" target="_top" xlink:title=" ">
<polygon fill="white" stroke="black" points="614,-56.5 614,-75.5 702,-75.5 702,-56.5 614,-56.5"/>
<text text-anchor="middle" x="658" y="-63.5" font-family="Helvetica,sans-Serif" font-size="10.00">net/EventLoop.h</text>
</a>
</g>
</g>
<!-- Node2&#45;&gt;Node3 -->
<g id="edge2" class="edge">
<title>Node2&#45;&gt;Node3</title>
<path fill="none" stroke="midnightblue" d="M903.96,-110.69C845.26,-100.26 755.79,-84.37 702.48,-74.9"/>
<polygon fill="midnightblue" stroke="midnightblue" points="903.37,-114.14 913.83,-112.44 904.6,-107.25 903.37,-114.14"/>
</g>
<!-- Node2&#45;&gt;Node7 -->
<g id="edge12" class="edge">
<title>Node2&#45;&gt;Node7</title>
<path fill="none" stroke="midnightblue" d="M988.53,-107.46C1003.25,-99.33 1021.46,-88.22 1036,-76 1056.92,-58.43 1076.9,-32.99 1086.71,-19.75"/>
<polygon fill="midnightblue" stroke="midnightblue" points="986.59,-104.53 979.44,-112.35 989.9,-110.7 986.59,-104.53"/>
</g>
<!-- Node12 -->
<g id="node12" class="node">
<title>Node12</title>
<g id="a_node12"><a xlink:href="_out_of_band_event_dispatcher_8cpp.html" target="_top" xlink:title=" ">
<polygon fill="white" stroke="black" points="853.5,-56.5 853.5,-75.5 1026.5,-75.5 1026.5,-56.5 853.5,-56.5"/>
<text text-anchor="middle" x="940" y="-63.5" font-family="Helvetica,sans-Serif" font-size="10.00">net/OutOfBandEventDispatcher.cpp</text>
</a>
</g>
</g>
<!-- Node2&#45;&gt;Node12 -->
<g id="edge11" class="edge">
<title>Node2&#45;&gt;Node12</title>
<path fill="none" stroke="midnightblue" d="M954.54,-102.69C950.83,-93.59 946.52,-83.01 943.57,-75.75"/>
<polygon fill="midnightblue" stroke="midnightblue" points="951.35,-104.14 958.37,-112.08 957.84,-101.5 951.35,-104.14"/>
</g>
<!-- Node4 -->
<g id="node4" class="node">
<title>Node4</title>
<g id="a_node4"><a xlink:href="_accept_event_receiver_8cpp.html" target="_top" xlink:title=" ">
<polygon fill="white" stroke="black" points="286,-0.5 286,-19.5 432,-19.5 432,-0.5 286,-0.5"/>
<text text-anchor="middle" x="359" y="-7.5" font-family="Helvetica,sans-Serif" font-size="10.00">net/AcceptEventReceiver.cpp</text>
</a>
</g>
</g>
<!-- Node3&#45;&gt;Node4 -->
<g id="edge3" class="edge">
<title>Node3&#45;&gt;Node4</title>
<path fill="none" stroke="midnightblue" d="M603.72,-55.2C547.32,-45.01 459.93,-29.23 406.26,-19.54"/>
<polygon fill="midnightblue" stroke="midnightblue" points="603.42,-58.7 613.88,-57.03 604.66,-51.81 603.42,-58.7"/>
</g>
<!-- Node5 -->
<g id="node5" class="node">
<title>Node5</title>
<g id="a_node5"><a xlink:href="_connect_event_receiver_8cpp.html" target="_top" xlink:title=" ">
<polygon fill="white" stroke="black" points="0,-0.5 0,-19.5 152,-19.5 152,-0.5 0,-0.5"/>
<text text-anchor="middle" x="76" y="-7.5" font-family="Helvetica,sans-Serif" font-size="10.00">net/ConnectEventReceiver.cpp</text>
</a>
</g>
</g>
<!-- Node3&#45;&gt;Node5 -->
<g id="edge4" class="edge">
<title>Node3&#45;&gt;Node5</title>
<path fill="none" stroke="midnightblue" d="M603.64,-60.35C512.21,-52.47 321.86,-35.8 161,-20 158.19,-19.72 155.34,-19.44 152.45,-19.15"/>
<polygon fill="midnightblue" stroke="midnightblue" points="603.5,-63.85 613.76,-61.22 604.1,-56.88 603.5,-63.85"/>
</g>
<!-- Node6 -->
<g id="node6" class="node">
<title>Node6</title>
<g id="a_node6"><a xlink:href="_event_loop_8cpp.html" target="_top" xlink:title=" ">
<polygon fill="white" stroke="black" points="170,-0.5 170,-19.5 268,-19.5 268,-0.5 170,-0.5"/>
<text text-anchor="middle" x="219" y="-7.5" font-family="Helvetica,sans-Serif" font-size="10.00">net/EventLoop.cpp</text>
</a>
</g>
</g>
<!-- Node3&#45;&gt;Node6 -->
<g id="edge5" class="edge">
<title>Node3&#45;&gt;Node6</title>
<path fill="none" stroke="midnightblue" d="M603.93,-59.24C530,-51.22 393.29,-35.88 277,-20 274.07,-19.6 271.06,-19.18 268.03,-18.74"/>
<polygon fill="midnightblue" stroke="midnightblue" points="603.62,-62.73 613.93,-60.32 604.37,-55.77 603.62,-62.73"/>
</g>
<!-- Node3&#45;&gt;Node7 -->
<g id="edge6" class="edge">
<title>Node3&#45;&gt;Node7</title>
<path fill="none" stroke="midnightblue" d="M712.32,-58.26C791.3,-48.45 937.82,-30.26 1024.23,-19.54"/>
<polygon fill="midnightblue" stroke="midnightblue" points="711.6,-54.82 702.1,-59.53 712.46,-61.77 711.6,-54.82"/>
</g>
<!-- Node8 -->
<g id="node8" class="node">
<title>Node8</title>
<g id="a_node8"><a xlink:href="_read_event_receiver_8cpp.html" target="_top" xlink:title=" ">
<polygon fill="white" stroke="black" points="450.5,-0.5 450.5,-19.5 589.5,-19.5 589.5,-0.5 450.5,-0.5"/>
<text text-anchor="middle" x="520" y="-7.5" font-family="Helvetica,sans-Serif" font-size="10.00">net/ReadEventReceiver.cpp</text>
</a>
</g>
</g>
<!-- Node3&#45;&gt;Node8 -->
<g id="edge7" class="edge">
<title>Node3&#45;&gt;Node8</title>
<path fill="none" stroke="midnightblue" d="M626.75,-52.77C600.83,-42.63 564.64,-28.47 541.76,-19.52"/>
<polygon fill="midnightblue" stroke="midnightblue" points="625.55,-56.06 636.13,-56.44 628.1,-49.54 625.55,-56.06"/>
</g>
<!-- Node9 -->
<g id="node9" class="node">
<title>Node9</title>
<g id="a_node9"><a xlink:href="_timer_8cpp.html" target="_top" xlink:title=" ">
<polygon fill="white" stroke="black" points="607.5,-0.5 607.5,-19.5 708.5,-19.5 708.5,-0.5 607.5,-0.5"/>
<text text-anchor="middle" x="658" y="-7.5" font-family="Helvetica,sans-Serif" font-size="10.00">net/timer/Timer.cpp</text>
</a>
</g>
</g>
<!-- Node3&#45;&gt;Node9 -->
<g id="edge8" class="edge">
<title>Node3&#45;&gt;Node9</title>
<path fill="none" stroke="midnightblue" d="M658,-45.8C658,-36.91 658,-26.78 658,-19.75"/>
<polygon fill="midnightblue" stroke="midnightblue" points="654.5,-46.08 658,-56.08 661.5,-46.08 654.5,-46.08"/>
</g>
<!-- Node10 -->
<g id="node10" class="node">
<title>Node10</title>
<g id="a_node10"><a xlink:href="_write_event_receiver_8cpp.html" target="_top" xlink:title=" ">
<polygon fill="white" stroke="black" points="727,-0.5 727,-19.5 865,-19.5 865,-0.5 727,-0.5"/>
<text text-anchor="middle" x="796" y="-7.5" font-family="Helvetica,sans-Serif" font-size="10.00">net/WriteEventReceiver.cpp</text>
</a>
</g>
</g>
<!-- Node3&#45;&gt;Node10 -->
<g id="edge9" class="edge">
<title>Node3&#45;&gt;Node10</title>
<path fill="none" stroke="midnightblue" d="M689.25,-52.77C715.17,-42.63 751.36,-28.47 774.24,-19.52"/>
<polygon fill="midnightblue" stroke="midnightblue" points="687.9,-49.54 679.87,-56.44 690.45,-56.06 687.9,-49.54"/>
</g>
<!-- Node11 -->
<g id="node11" class="node">
<title>Node11</title>
<g id="a_node11"><a xlink:href="_web_app_8cpp.html" target="_top" xlink:title=" ">
<polygon fill="white" stroke="black" points="883,-0.5 883,-19.5 993,-19.5 993,-0.5 883,-0.5"/>
<text text-anchor="middle" x="938" y="-7.5" font-family="Helvetica,sans-Serif" font-size="10.00">express/WebApp.cpp</text>
</a>
</g>
</g>
<!-- Node3&#45;&gt;Node11 -->
<g id="edge10" class="edge">
<title>Node3&#45;&gt;Node11</title>
<path fill="none" stroke="midnightblue" d="M711.93,-54.6C764.81,-44.4 844.46,-29.04 893.74,-19.54"/>
<polygon fill="midnightblue" stroke="midnightblue" points="711.21,-51.17 702.06,-56.5 712.54,-58.05 711.21,-51.17"/>
</g>
</g>
</svg>
