<?xml version="1.0" encoding="UTF-8" standalone="no"?>
<!DOCTYPE svg PUBLIC "-//W3C//DTD SVG 1.1//EN"
 "http://www.w3.org/Graphics/SVG/1.1/DTD/svg11.dtd">
<!-- Generated by graphviz version 2.43.0 (0)
 -->
<!-- Title: http/Parser.h Pages: 1 -->
<svg width="994pt" height="386pt"
 viewBox="0.00 0.00 994.00 386.00" xmlns="http://www.w3.org/2000/svg" xmlns:xlink="http://www.w3.org/1999/xlink">
<g id="graph0" class="graph" transform="scale(1 1) rotate(0) translate(4 382)">
<title>http/Parser.h</title>
<polygon fill="white" stroke="transparent" points="-4,4 -4,-382 990,-382 990,4 -4,4"/>
<!-- Node1 -->
<g id="node1" class="node">
<title>Node1</title>
<g id="a_node1"><a xlink:title=" ">
<polygon fill="#bfbfbf" stroke="black" points="473.5,-358.5 473.5,-377.5 545.5,-377.5 545.5,-358.5 473.5,-358.5"/>
<text text-anchor="middle" x="509.5" y="-365.5" font-family="Helvetica,sans-Serif" font-size="10.00">http/Parser.h</text>
</a>
</g>
</g>
<!-- Node2 -->
<g id="node2" class="node">
<title>Node2</title>
<g id="a_node2"><a xlink:href="_response_parser_8h.html" target="_top" xlink:title=" ">
<polygon fill="white" stroke="black" points="307,-302.5 307,-321.5 450,-321.5 450,-302.5 307,-302.5"/>
<text text-anchor="middle" x="378.5" y="-309.5" font-family="Helvetica,sans-Serif" font-size="10.00">http/client/ResponseParser.h</text>
</a>
</g>
</g>
<!-- Node1&#45;&gt;Node2 -->
<g id="edge1" class="edge">
<title>Node1&#45;&gt;Node2</title>
<path fill="none" stroke="midnightblue" d="M479.18,-354.5C454.62,-344.38 420.68,-330.39 399.16,-321.52"/>
<polygon fill="midnightblue" stroke="midnightblue" points="478.16,-357.87 488.74,-358.44 480.83,-351.4 478.16,-357.87"/>
</g>
<!-- Node10 -->
<g id="node10" class="node">
<title>Node10</title>
<g id="a_node10"><a xlink:href="_parser_8cpp.html" target="_top" xlink:title=" ">
<polygon fill="white" stroke="black" points="468,-302.5 468,-321.5 551,-321.5 551,-302.5 468,-302.5"/>
<text text-anchor="middle" x="509.5" y="-309.5" font-family="Helvetica,sans-Serif" font-size="10.00">http/Parser.cpp</text>
</a>
</g>
</g>
<!-- Node1&#45;&gt;Node10 -->
<g id="edge9" class="edge">
<title>Node1&#45;&gt;Node10</title>
<path fill="none" stroke="midnightblue" d="M509.5,-347.8C509.5,-338.91 509.5,-328.78 509.5,-321.75"/>
<polygon fill="midnightblue" stroke="midnightblue" points="506,-348.08 509.5,-358.08 513,-348.08 506,-348.08"/>
</g>
<!-- Node11 -->
<g id="node11" class="node">
<title>Node11</title>
<g id="a_node11"><a xlink:href="_request_parser_8h.html" target="_top" xlink:title=" ">
<polygon fill="white" stroke="black" points="569,-302.5 569,-321.5 708,-321.5 708,-302.5 569,-302.5"/>
<text text-anchor="middle" x="638.5" y="-309.5" font-family="Helvetica,sans-Serif" font-size="10.00">http/server/RequestParser.h</text>
</a>
</g>
</g>
<!-- Node1&#45;&gt;Node11 -->
<g id="edge10" class="edge">
<title>Node1&#45;&gt;Node11</title>
<path fill="none" stroke="midnightblue" d="M539.35,-354.5C563.54,-344.38 596.96,-330.39 618.16,-321.52"/>
<polygon fill="midnightblue" stroke="midnightblue" points="537.81,-351.35 529.94,-358.44 540.52,-357.81 537.81,-351.35"/>
</g>
<!-- Node3 -->
<g id="node3" class="node">
<title>Node3</title>
<g id="a_node3"><a xlink:href="_client_context_8h.html" target="_top" xlink:title=" ">
<polygon fill="white" stroke="black" points="176,-246.5 176,-265.5 307,-265.5 307,-246.5 176,-246.5"/>
<text text-anchor="middle" x="241.5" y="-253.5" font-family="Helvetica,sans-Serif" font-size="10.00">http/client/ClientContext.h</text>
</a>
</g>
</g>
<!-- Node2&#45;&gt;Node3 -->
<g id="edge2" class="edge">
<title>Node2&#45;&gt;Node3</title>
<path fill="none" stroke="midnightblue" d="M347.48,-298.77C321.74,-288.63 285.81,-274.47 263.11,-265.52"/>
<polygon fill="midnightblue" stroke="midnightblue" points="346.21,-302.03 356.79,-302.44 348.77,-295.52 346.21,-302.03"/>
</g>
<!-- Node9 -->
<g id="node9" class="node">
<title>Node9</title>
<g id="a_node9"><a xlink:href="_response_parser_8cpp.html" target="_top" xlink:title=" ">
<polygon fill="white" stroke="black" points="325,-246.5 325,-265.5 478,-265.5 478,-246.5 325,-246.5"/>
<text text-anchor="middle" x="401.5" y="-253.5" font-family="Helvetica,sans-Serif" font-size="10.00">http/client/ResponseParser.cpp</text>
</a>
</g>
</g>
<!-- Node2&#45;&gt;Node9 -->
<g id="edge8" class="edge">
<title>Node2&#45;&gt;Node9</title>
<path fill="none" stroke="midnightblue" d="M386.3,-292.69C390.18,-283.59 394.68,-273.01 397.77,-265.75"/>
<polygon fill="midnightblue" stroke="midnightblue" points="383,-291.51 382.3,-302.08 389.44,-294.25 383,-291.51"/>
</g>
<!-- Node4 -->
<g id="node4" class="node">
<title>Node4</title>
<g id="a_node4"><a xlink:href="_client_8h.html" target="_top" xlink:title=" ">
<polygon fill="white" stroke="black" points="56.5,-190.5 56.5,-209.5 152.5,-209.5 152.5,-190.5 56.5,-190.5"/>
<text text-anchor="middle" x="104.5" y="-197.5" font-family="Helvetica,sans-Serif" font-size="10.00">http/client/Client.h</text>
</a>
</g>
</g>
<!-- Node3&#45;&gt;Node4 -->
<g id="edge3" class="edge">
<title>Node3&#45;&gt;Node4</title>
<path fill="none" stroke="midnightblue" d="M210.48,-242.77C184.74,-232.63 148.81,-218.47 126.11,-209.52"/>
<polygon fill="midnightblue" stroke="midnightblue" points="209.21,-246.03 219.79,-246.44 211.77,-239.52 209.21,-246.03"/>
</g>
<!-- Node7 -->
<g id="node7" class="node">
<title>Node7</title>
<g id="a_node7"><a xlink:href="_client_context_8cpp.html" target="_top" xlink:title=" ">
<polygon fill="white" stroke="black" points="171,-190.5 171,-209.5 312,-209.5 312,-190.5 171,-190.5"/>
<text text-anchor="middle" x="241.5" y="-197.5" font-family="Helvetica,sans-Serif" font-size="10.00">http/client/ClientContext.cpp</text>
</a>
</g>
</g>
<!-- Node3&#45;&gt;Node7 -->
<g id="edge6" class="edge">
<title>Node3&#45;&gt;Node7</title>
<path fill="none" stroke="midnightblue" d="M241.5,-235.8C241.5,-226.91 241.5,-216.78 241.5,-209.75"/>
<polygon fill="midnightblue" stroke="midnightblue" points="238,-236.08 241.5,-246.08 245,-236.08 238,-236.08"/>
</g>
<!-- Node8 -->
<g id="node8" class="node">
<title>Node8</title>
<g id="a_node8"><a xlink:href="http_2client_2_request_8cpp.html" target="_top" xlink:title=" ">
<polygon fill="white" stroke="black" points="330.5,-190.5 330.5,-209.5 448.5,-209.5 448.5,-190.5 330.5,-190.5"/>
<text text-anchor="middle" x="389.5" y="-197.5" font-family="Helvetica,sans-Serif" font-size="10.00">http/client/Request.cpp</text>
</a>
</g>
</g>
<!-- Node3&#45;&gt;Node8 -->
<g id="edge7" class="edge">
<title>Node3&#45;&gt;Node8</title>
<path fill="none" stroke="midnightblue" d="M274.65,-242.91C302.47,-232.75 341.52,-218.51 366.16,-209.52"/>
<polygon fill="midnightblue" stroke="midnightblue" points="273.15,-239.73 264.95,-246.44 275.54,-246.3 273.15,-239.73"/>
</g>
<!-- Node5 -->
<g id="node5" class="node">
<title>Node5</title>
<g id="a_node5"><a xlink:href="legacy_2_client_8h.html" target="_top" xlink:title=" ">
<polygon fill="white" stroke="black" points="0,-123.5 0,-153.5 91,-153.5 91,-123.5 0,-123.5"/>
<text text-anchor="start" x="8" y="-141.5" font-family="Helvetica,sans-Serif" font-size="10.00">http/client/legacy</text>
<text text-anchor="middle" x="45.5" y="-130.5" font-family="Helvetica,sans-Serif" font-size="10.00">/Client.h</text>
</a>
</g>
</g>
<!-- Node4&#45;&gt;Node5 -->
<g id="edge4" class="edge">
<title>Node4&#45;&gt;Node5</title>
<path fill="none" stroke="midnightblue" d="M89,-183.37C79.82,-174.11 68.29,-162.48 59.41,-153.52"/>
<polygon fill="midnightblue" stroke="midnightblue" points="86.52,-185.84 96.05,-190.48 91.49,-180.91 86.52,-185.84"/>
</g>
<!-- Node6 -->
<g id="node6" class="node">
<title>Node6</title>
<g id="a_node6"><a xlink:href="tls_2_client_8h.html" target="_top" xlink:title=" ">
<polygon fill="white" stroke="black" points="109.5,-129 109.5,-148 219.5,-148 219.5,-129 109.5,-129"/>
<text text-anchor="middle" x="164.5" y="-136" font-family="Helvetica,sans-Serif" font-size="10.00">http/client/tls/Client.h</text>
</a>
</g>
</g>
<!-- Node4&#45;&gt;Node6 -->
<g id="edge5" class="edge">
<title>Node4&#45;&gt;Node6</title>
<path fill="none" stroke="midnightblue" d="M120.31,-183.32C131.71,-172.02 146.66,-157.19 155.92,-148.01"/>
<polygon fill="midnightblue" stroke="midnightblue" points="117.73,-180.95 113.1,-190.48 122.66,-185.92 117.73,-180.95"/>
</g>
<!-- Node12 -->
<g id="node12" class="node">
<title>Node12</title>
<g id="a_node12"><a xlink:href="_request_parser_8cpp.html" target="_top" xlink:title=" ">
<polygon fill="white" stroke="black" points="541,-246.5 541,-265.5 690,-265.5 690,-246.5 541,-246.5"/>
<text text-anchor="middle" x="615.5" y="-253.5" font-family="Helvetica,sans-Serif" font-size="10.00">http/server/RequestParser.cpp</text>
</a>
</g>
</g>
<!-- Node11&#45;&gt;Node12 -->
<g id="edge11" class="edge">
<title>Node11&#45;&gt;Node12</title>
<path fill="none" stroke="midnightblue" d="M630.7,-292.69C626.82,-283.59 622.32,-273.01 619.23,-265.75"/>
<polygon fill="midnightblue" stroke="midnightblue" points="627.56,-294.25 634.7,-302.08 634,-291.51 627.56,-294.25"/>
</g>
<!-- Node13 -->
<g id="node13" class="node">
<title>Node13</title>
<g id="a_node13"><a xlink:href="_server_context_8h.html" target="_top" xlink:title=" ">
<polygon fill="white" stroke="black" points="708,-246.5 708,-265.5 845,-265.5 845,-246.5 708,-246.5"/>
<text text-anchor="middle" x="776.5" y="-253.5" font-family="Helvetica,sans-Serif" font-size="10.00">http/server/ServerContext.h</text>
</a>
</g>
</g>
<!-- Node11&#45;&gt;Node13 -->
<g id="edge12" class="edge">
<title>Node11&#45;&gt;Node13</title>
<path fill="none" stroke="midnightblue" d="M669.75,-298.77C695.67,-288.63 731.86,-274.47 754.74,-265.52"/>
<polygon fill="midnightblue" stroke="midnightblue" points="668.4,-295.54 660.37,-302.44 670.95,-302.06 668.4,-295.54"/>
</g>
<!-- Node14 -->
<g id="node14" class="node">
<title>Node14</title>
<g id="a_node14"><a xlink:href="http_2server_2_response_8cpp.html" target="_top" xlink:title=" ">
<polygon fill="white" stroke="black" points="555,-190.5 555,-209.5 684,-209.5 684,-190.5 555,-190.5"/>
<text text-anchor="middle" x="619.5" y="-197.5" font-family="Helvetica,sans-Serif" font-size="10.00">http/server/Response.cpp</text>
</a>
</g>
</g>
<!-- Node13&#45;&gt;Node14 -->
<g id="edge13" class="edge">
<title>Node13&#45;&gt;Node14</title>
<path fill="none" stroke="midnightblue" d="M742.11,-243.17C712.55,-233 670.63,-218.59 644.26,-209.52"/>
<polygon fill="midnightblue" stroke="midnightblue" points="741.03,-246.5 751.62,-246.44 743.3,-239.88 741.03,-246.5"/>
</g>
<!-- Node15 -->
<g id="node15" class="node">
<title>Node15</title>
<g id="a_node15"><a xlink:href="_server_context_8hpp.html" target="_top" xlink:title=" ">
<polygon fill="white" stroke="black" points="702.5,-190.5 702.5,-209.5 850.5,-209.5 850.5,-190.5 702.5,-190.5"/>
<text text-anchor="middle" x="776.5" y="-197.5" font-family="Helvetica,sans-Serif" font-size="10.00">http/server/ServerContext.hpp</text>
</a>
</g>
</g>
<!-- Node13&#45;&gt;Node15 -->
<g id="edge14" class="edge">
<title>Node13&#45;&gt;Node15</title>
<path fill="none" stroke="midnightblue" d="M776.5,-235.8C776.5,-226.91 776.5,-216.78 776.5,-209.75"/>
<polygon fill="midnightblue" stroke="midnightblue" points="773,-236.08 776.5,-246.08 780,-236.08 773,-236.08"/>
</g>
<!-- Node22 -->
<g id="node22" class="node">
<title>Node22</title>
<g id="a_node22"><a xlink:href="express_2_response_8cpp.html" target="_top" xlink:title=" ">
<polygon fill="white" stroke="black" points="869,-190.5 869,-209.5 986,-209.5 986,-190.5 869,-190.5"/>
<text text-anchor="middle" x="927.5" y="-197.5" font-family="Helvetica,sans-Serif" font-size="10.00">express/Response.cpp</text>
</a>
</g>
</g>
<!-- Node13&#45;&gt;Node22 -->
<g id="edge21" class="edge">
<title>Node13&#45;&gt;Node22</title>
<path fill="none" stroke="midnightblue" d="M809.95,-243.04C838.36,-232.88 878.44,-218.55 903.69,-209.52"/>
<polygon fill="midnightblue" stroke="midnightblue" points="808.66,-239.78 800.43,-246.44 811.02,-246.37 808.66,-239.78"/>
</g>
<!-- Node16 -->
<g id="node16" class="node">
<title>Node16</title>
<g id="a_node16"><a xlink:href="_server_8h.html" target="_top" xlink:title=" ">
<polygon fill="white" stroke="black" points="665.5,-129 665.5,-148 767.5,-148 767.5,-129 665.5,-129"/>
<text text-anchor="middle" x="716.5" y="-136" font-family="Helvetica,sans-Serif" font-size="10.00">http/server/Server.h</text>
</a>
</g>
</g>
<!-- Node15&#45;&gt;Node16 -->
<g id="edge15" class="edge">
<title>Node15&#45;&gt;Node16</title>
<path fill="none" stroke="midnightblue" d="M760.69,-183.32C749.29,-172.02 734.34,-157.19 725.08,-148.01"/>
<polygon fill="midnightblue" stroke="midnightblue" points="758.34,-185.92 767.9,-190.48 763.27,-180.95 758.34,-185.92"/>
</g>
<!-- Node21 -->
<g id="node21" class="node">
<title>Node21</title>
<g id="a_node21"><a xlink:href="_router_8cpp.html" target="_top" xlink:title=" ">
<polygon fill="white" stroke="black" points="786,-129 786,-148 887,-148 887,-129 786,-129"/>
<text text-anchor="middle" x="836.5" y="-136" font-family="Helvetica,sans-Serif" font-size="10.00">express/Router.cpp</text>
</a>
</g>
</g>
<!-- Node15&#45;&gt;Node21 -->
<g id="edge20" class="edge">
<title>Node15&#45;&gt;Node21</title>
<path fill="none" stroke="midnightblue" d="M792.31,-183.32C803.71,-172.02 818.66,-157.19 827.92,-148.01"/>
<polygon fill="midnightblue" stroke="midnightblue" points="789.73,-180.95 785.1,-190.48 794.66,-185.92 789.73,-180.95"/>
</g>
<!-- Node17 -->
<g id="node17" class="node">
<title>Node17</title>
<g id="a_node17"><a xlink:href="legacy_2_server_8h.html" target="_top" xlink:title=" ">
<polygon fill="white" stroke="black" points="605,-56.5 605,-86.5 700,-86.5 700,-56.5 605,-56.5"/>
<text text-anchor="start" x="613" y="-74.5" font-family="Helvetica,sans-Serif" font-size="10.00">http/server/legacy</text>
<text text-anchor="middle" x="652.5" y="-63.5" font-family="Helvetica,sans-Serif" font-size="10.00">/Server.h</text>
</a>
</g>
</g>
<!-- Node16&#45;&gt;Node17 -->
<g id="edge16" class="edge">
<title>Node16&#45;&gt;Node17</title>
<path fill="none" stroke="midnightblue" d="M700.55,-121.3C690.05,-110.63 676.43,-96.8 666.37,-86.59"/>
<polygon fill="midnightblue" stroke="midnightblue" points="698.36,-124.06 707.87,-128.73 703.35,-119.15 698.36,-124.06"/>
</g>
<!-- Node19 -->
<g id="node19" class="node">
<title>Node19</title>
<g id="a_node19"><a xlink:href="tls_2_server_8h.html" target="_top" xlink:title=" ">
<polygon fill="white" stroke="black" points="722.5,-62 722.5,-81 838.5,-81 838.5,-62 722.5,-62"/>
<text text-anchor="middle" x="780.5" y="-69" font-family="Helvetica,sans-Serif" font-size="10.00">http/server/tls/Server.h</text>
</a>
</g>
</g>
<!-- Node16&#45;&gt;Node19 -->
<g id="edge18" class="edge">
<title>Node16&#45;&gt;Node19</title>
<path fill="none" stroke="midnightblue" d="M732.26,-121.5C744.81,-108.75 761.9,-91.39 772.01,-81.13"/>
<polygon fill="midnightblue" stroke="midnightblue" points="729.65,-119.15 725.13,-128.73 734.64,-124.06 729.65,-119.15"/>
</g>
<!-- Node18 -->
<g id="node18" class="node">
<title>Node18</title>
<g id="a_node18"><a xlink:href="legacy_2_web_app_8h.html" target="_top" xlink:title=" ">
<polygon fill="white" stroke="black" points="579,-0.5 579,-19.5 710,-19.5 710,-0.5 579,-0.5"/>
<text text-anchor="middle" x="644.5" y="-7.5" font-family="Helvetica,sans-Serif" font-size="10.00">express/legacy/WebApp.h</text>
</a>
</g>
</g>
<!-- Node17&#45;&gt;Node18 -->
<g id="edge17" class="edge">
<title>Node17&#45;&gt;Node18</title>
<path fill="none" stroke="midnightblue" d="M649.24,-46.29C647.98,-36.86 646.6,-26.65 645.66,-19.66"/>
<polygon fill="midnightblue" stroke="midnightblue" points="645.8,-46.95 650.6,-56.4 652.74,-46.02 645.8,-46.95"/>
</g>
<!-- Node20 -->
<g id="node20" class="node">
<title>Node20</title>
<g id="a_node20"><a xlink:href="tls_2_web_app_8h.html" target="_top" xlink:title=" ">
<polygon fill="white" stroke="black" points="728,-0.5 728,-19.5 841,-19.5 841,-0.5 728,-0.5"/>
<text text-anchor="middle" x="784.5" y="-7.5" font-family="Helvetica,sans-Serif" font-size="10.00">express/tls/WebApp.h</text>
</a>
</g>
</g>
<!-- Node19&#45;&gt;Node20 -->
<g id="edge19" class="edge">
<title>Node19&#45;&gt;Node20</title>
<path fill="none" stroke="midnightblue" d="M781.76,-51.82C782.48,-41 783.36,-27.9 783.93,-19.51"/>
<polygon fill="midnightblue" stroke="midnightblue" points="778.25,-51.76 781.07,-61.98 785.24,-52.23 778.25,-51.76"/>
</g>
</g>
</svg>
