<?xml version="1.0" encoding="UTF-8" standalone="no"?>
<!DOCTYPE svg PUBLIC "-//W3C//DTD SVG 1.1//EN"
 "http://www.w3.org/Graphics/SVG/1.1/DTD/svg11.dtd">
<!-- Generated by graphviz version 2.43.0 (0)
 -->
<!-- Title: web/http/Parser.h Pages: 1 -->
<svg width="1281pt" height="408pt"
 viewBox="0.00 0.00 1281.00 408.00" xmlns="http://www.w3.org/2000/svg" xmlns:xlink="http://www.w3.org/1999/xlink">
<g id="graph0" class="graph" transform="scale(1 1) rotate(0) translate(4 404)">
<title>web/http/Parser.h</title>
<polygon fill="white" stroke="transparent" points="-4,4 -4,-404 1277,-404 1277,4 -4,4"/>
<!-- Node1 -->
<g id="node1" class="node">
<title>Node1</title>
<g id="a_node1"><a xlink:title=" ">
<polygon fill="#bfbfbf" stroke="black" points="362,-380.5 362,-399.5 455,-399.5 455,-380.5 362,-380.5"/>
<text text-anchor="middle" x="408.5" y="-387.5" font-family="Helvetica,sans-Serif" font-size="10.00">web/http/Parser.h</text>
</a>
</g>
</g>
<!-- Node2 -->
<g id="node2" class="node">
<title>Node2</title>
<g id="a_node2"><a xlink:href="_response_parser_8h.html" target="_top" xlink:title=" ">
<polygon fill="white" stroke="black" points="183.5,-313.5 183.5,-343.5 311.5,-343.5 311.5,-313.5 183.5,-313.5"/>
<text text-anchor="start" x="191.5" y="-331.5" font-family="Helvetica,sans-Serif" font-size="10.00">web/http/client/Response</text>
<text text-anchor="middle" x="247.5" y="-320.5" font-family="Helvetica,sans-Serif" font-size="10.00">Parser.h</text>
</a>
</g>
</g>
<!-- Node1&#45;&gt;Node2 -->
<g id="edge1" class="edge">
<title>Node1&#45;&gt;Node2</title>
<path fill="none" stroke="midnightblue" d="M375.96,-376.98C349.79,-367.3 312.96,-353.69 285.44,-343.52"/>
<polygon fill="midnightblue" stroke="midnightblue" points="374.84,-380.29 385.43,-380.48 377.27,-373.73 374.84,-380.29"/>
</g>
<!-- Node11 -->
<g id="node11" class="node">
<title>Node11</title>
<g id="a_node11"><a xlink:href="_parser_8cpp.html" target="_top" xlink:title=" ">
<polygon fill="white" stroke="black" points="356.5,-319 356.5,-338 460.5,-338 460.5,-319 356.5,-319"/>
<text text-anchor="middle" x="408.5" y="-326" font-family="Helvetica,sans-Serif" font-size="10.00">web/http/Parser.cpp</text>
</a>
</g>
</g>
<!-- Node1&#45;&gt;Node11 -->
<g id="edge11" class="edge">
<title>Node1&#45;&gt;Node11</title>
<path fill="none" stroke="midnightblue" d="M408.5,-370.32C408.5,-359.5 408.5,-346.4 408.5,-338.01"/>
<polygon fill="midnightblue" stroke="midnightblue" points="405,-370.48 408.5,-380.48 412,-370.48 405,-370.48"/>
</g>
<!-- Node12 -->
<g id="node12" class="node">
<title>Node12</title>
<g id="a_node12"><a xlink:href="_request_parser_8h.html" target="_top" xlink:title=" ">
<polygon fill="white" stroke="black" points="491.5,-319 491.5,-338 651.5,-338 651.5,-319 491.5,-319"/>
<text text-anchor="middle" x="571.5" y="-326" font-family="Helvetica,sans-Serif" font-size="10.00">web/http/server/RequestParser.h</text>
</a>
</g>
</g>
<!-- Node1&#45;&gt;Node12 -->
<g id="edge12" class="edge">
<title>Node1&#45;&gt;Node12</title>
<path fill="none" stroke="midnightblue" d="M441.56,-376.93C473.24,-365.37 520.25,-348.21 548.19,-338.01"/>
<polygon fill="midnightblue" stroke="midnightblue" points="440.05,-373.76 431.85,-380.48 442.45,-380.33 440.05,-373.76"/>
</g>
<!-- Node3 -->
<g id="node3" class="node">
<title>Node3</title>
<g id="a_node3"><a xlink:href="_response_parser_8cpp.html" target="_top" xlink:title=" ">
<polygon fill="white" stroke="black" points="22.5,-246.5 22.5,-276.5 150.5,-276.5 150.5,-246.5 22.5,-246.5"/>
<text text-anchor="start" x="30.5" y="-264.5" font-family="Helvetica,sans-Serif" font-size="10.00">web/http/client/Response</text>
<text text-anchor="middle" x="86.5" y="-253.5" font-family="Helvetica,sans-Serif" font-size="10.00">Parser.cpp</text>
</a>
</g>
</g>
<!-- Node2&#45;&gt;Node3 -->
<g id="edge2" class="edge">
<title>Node2&#45;&gt;Node3</title>
<path fill="none" stroke="midnightblue" d="M203.02,-309.54C177.26,-299.14 145.3,-286.24 121.37,-276.58"/>
<polygon fill="midnightblue" stroke="midnightblue" points="201.98,-312.9 212.57,-313.4 204.6,-306.41 201.98,-312.9"/>
</g>
<!-- Node4 -->
<g id="node4" class="node">
<title>Node4</title>
<g id="a_node4"><a xlink:href="web_2http_2client_2_socket_context_8h.html" target="_top" xlink:title=" ">
<polygon fill="white" stroke="black" points="169,-252 169,-271 326,-271 326,-252 169,-252"/>
<text text-anchor="middle" x="247.5" y="-259" font-family="Helvetica,sans-Serif" font-size="10.00">web/http/client/SocketContext.h</text>
</a>
</g>
</g>
<!-- Node2&#45;&gt;Node4 -->
<g id="edge3" class="edge">
<title>Node2&#45;&gt;Node4</title>
<path fill="none" stroke="midnightblue" d="M247.5,-303.25C247.5,-292.02 247.5,-279.38 247.5,-271.19"/>
<polygon fill="midnightblue" stroke="midnightblue" points="244,-303.4 247.5,-313.4 251,-303.4 244,-303.4"/>
</g>
<!-- Node5 -->
<g id="node5" class="node">
<title>Node5</title>
<g id="a_node5"><a xlink:href="web_2http_2client_2_request_8cpp.html" target="_top" xlink:title=" ">
<polygon fill="white" stroke="black" points="0,-185 0,-204 139,-204 139,-185 0,-185"/>
<text text-anchor="middle" x="69.5" y="-192" font-family="Helvetica,sans-Serif" font-size="10.00">web/http/client/Request.cpp</text>
</a>
</g>
</g>
<!-- Node4&#45;&gt;Node5 -->
<g id="edge4" class="edge">
<title>Node4&#45;&gt;Node5</title>
<path fill="none" stroke="midnightblue" d="M214.46,-248.44C179.15,-235.54 124.06,-215.42 92.95,-204.06"/>
<polygon fill="midnightblue" stroke="midnightblue" points="213.27,-251.73 223.86,-251.87 215.67,-245.15 213.27,-251.73"/>
</g>
<!-- Node6 -->
<g id="node6" class="node">
<title>Node6</title>
<g id="a_node6"><a xlink:href="client_2_socket_context_8hpp.html" target="_top" xlink:title=" ">
<polygon fill="white" stroke="black" points="157,-185 157,-204 324,-204 324,-185 157,-185"/>
<text text-anchor="middle" x="240.5" y="-192" font-family="Helvetica,sans-Serif" font-size="10.00">web/http/client/SocketContext.hpp</text>
</a>
</g>
</g>
<!-- Node4&#45;&gt;Node6 -->
<g id="edge5" class="edge">
<title>Node4&#45;&gt;Node6</title>
<path fill="none" stroke="midnightblue" d="M245.46,-241.54C244.13,-229.17 242.45,-213.62 241.43,-204.13"/>
<polygon fill="midnightblue" stroke="midnightblue" points="242.01,-242.17 246.56,-251.73 248.97,-241.42 242.01,-242.17"/>
</g>
<!-- Node10 -->
<g id="node10" class="node">
<title>Node10</title>
<g id="a_node10"><a xlink:href="web_2http_2client_2_socket_context_factory_8h.html" target="_top" xlink:title=" ">
<polygon fill="white" stroke="black" points="342,-179.5 342,-209.5 491,-209.5 491,-179.5 342,-179.5"/>
<text text-anchor="start" x="350" y="-197.5" font-family="Helvetica,sans-Serif" font-size="10.00">web/http/client/SocketContext</text>
<text text-anchor="middle" x="416.5" y="-186.5" font-family="Helvetica,sans-Serif" font-size="10.00">Factory.h</text>
</a>
</g>
</g>
<!-- Node4&#45;&gt;Node10 -->
<g id="edge9" class="edge">
<title>Node4&#45;&gt;Node10</title>
<path fill="none" stroke="midnightblue" d="M279.47,-248.2C308.11,-237.19 350.09,-221.04 380.03,-209.53"/>
<polygon fill="midnightblue" stroke="midnightblue" points="278.02,-245.01 269.94,-251.87 280.53,-251.55 278.02,-245.01"/>
</g>
<!-- Node7 -->
<g id="node7" class="node">
<title>Node7</title>
<g id="a_node7"><a xlink:href="_client_8h.html" target="_top" xlink:title=" ">
<polygon fill="white" stroke="black" points="270,-123.5 270,-142.5 387,-142.5 387,-123.5 270,-123.5"/>
<text text-anchor="middle" x="328.5" y="-130.5" font-family="Helvetica,sans-Serif" font-size="10.00">web/http/client/Client.h</text>
</a>
</g>
</g>
<!-- Node6&#45;&gt;Node7 -->
<g id="edge6" class="edge">
<title>Node6&#45;&gt;Node7</title>
<path fill="none" stroke="midnightblue" d="M261.78,-179.11C278.7,-167.67 301.81,-152.05 315.92,-142.51"/>
<polygon fill="midnightblue" stroke="midnightblue" points="259.43,-176.47 253.11,-184.98 263.35,-182.27 259.43,-176.47"/>
</g>
<!-- Node8 -->
<g id="node8" class="node">
<title>Node8</title>
<g id="a_node8"><a xlink:href="legacy_2_client_8h.html" target="_top" xlink:title=" ">
<polygon fill="white" stroke="black" points="212.5,-56.5 212.5,-86.5 324.5,-86.5 324.5,-56.5 212.5,-56.5"/>
<text text-anchor="start" x="220.5" y="-74.5" font-family="Helvetica,sans-Serif" font-size="10.00">web/http/client/legacy</text>
<text text-anchor="middle" x="268.5" y="-63.5" font-family="Helvetica,sans-Serif" font-size="10.00">/Client.h</text>
</a>
</g>
</g>
<!-- Node7&#45;&gt;Node8 -->
<g id="edge7" class="edge">
<title>Node7&#45;&gt;Node8</title>
<path fill="none" stroke="midnightblue" d="M312.74,-116.37C303.4,-107.11 291.68,-95.48 282.64,-86.52"/>
<polygon fill="midnightblue" stroke="midnightblue" points="310.34,-118.92 319.9,-123.48 315.27,-113.95 310.34,-118.92"/>
</g>
<!-- Node9 -->
<g id="node9" class="node">
<title>Node9</title>
<g id="a_node9"><a xlink:href="tls_2_client_8h.html" target="_top" xlink:title=" ">
<polygon fill="white" stroke="black" points="342.5,-56.5 342.5,-86.5 436.5,-86.5 436.5,-56.5 342.5,-56.5"/>
<text text-anchor="start" x="350.5" y="-74.5" font-family="Helvetica,sans-Serif" font-size="10.00">web/http/client/tls</text>
<text text-anchor="middle" x="389.5" y="-63.5" font-family="Helvetica,sans-Serif" font-size="10.00">/Client.h</text>
</a>
</g>
</g>
<!-- Node7&#45;&gt;Node9 -->
<g id="edge8" class="edge">
<title>Node7&#45;&gt;Node9</title>
<path fill="none" stroke="midnightblue" d="M344.53,-116.37C354.01,-107.11 365.94,-95.48 375.12,-86.52"/>
<polygon fill="midnightblue" stroke="midnightblue" points="341.95,-113.99 337.24,-123.48 346.84,-119 341.95,-113.99"/>
</g>
<!-- Node10&#45;&gt;Node7 -->
<g id="edge10" class="edge">
<title>Node10&#45;&gt;Node7</title>
<path fill="none" stroke="midnightblue" d="M387.33,-173.78C371.73,-163.23 353.32,-150.78 341.3,-142.66"/>
<polygon fill="midnightblue" stroke="midnightblue" points="385.4,-176.7 395.65,-179.4 389.32,-170.9 385.4,-176.7"/>
</g>
<!-- Node13 -->
<g id="node13" class="node">
<title>Node13</title>
<g id="a_node13"><a xlink:href="_request_parser_8cpp.html" target="_top" xlink:title=" ">
<polygon fill="white" stroke="black" points="486.5,-252 486.5,-271 656.5,-271 656.5,-252 486.5,-252"/>
<text text-anchor="middle" x="571.5" y="-259" font-family="Helvetica,sans-Serif" font-size="10.00">web/http/server/RequestParser.cpp</text>
</a>
</g>
</g>
<!-- Node12&#45;&gt;Node13 -->
<g id="edge13" class="edge">
<title>Node12&#45;&gt;Node13</title>
<path fill="none" stroke="midnightblue" d="M571.5,-308.54C571.5,-296.17 571.5,-280.62 571.5,-271.13"/>
<polygon fill="midnightblue" stroke="midnightblue" points="568,-308.73 571.5,-318.73 575,-308.73 568,-308.73"/>
</g>
<!-- Node14 -->
<g id="node14" class="node">
<title>Node14</title>
<g id="a_node14"><a xlink:href="web_2http_2server_2_socket_context_8h.html" target="_top" xlink:title=" ">
<polygon fill="white" stroke="black" points="772,-252 772,-271 933,-271 933,-252 772,-252"/>
<text text-anchor="middle" x="852.5" y="-259" font-family="Helvetica,sans-Serif" font-size="10.00">web/http/server/SocketContext.h</text>
</a>
</g>
</g>
<!-- Node12&#45;&gt;Node14 -->
<g id="edge14" class="edge">
<title>Node12&#45;&gt;Node14</title>
<path fill="none" stroke="midnightblue" d="M618.43,-316.64C673.8,-303.84 764.7,-282.81 815.39,-271.08"/>
<polygon fill="midnightblue" stroke="midnightblue" points="617.48,-313.27 608.52,-318.94 619.06,-320.09 617.48,-313.27"/>
</g>
<!-- Node15 -->
<g id="node15" class="node">
<title>Node15</title>
<g id="a_node15"><a xlink:href="web_2http_2server_2_response_8cpp.html" target="_top" xlink:title=" ">
<polygon fill="white" stroke="black" points="508.5,-185 508.5,-204 658.5,-204 658.5,-185 508.5,-185"/>
<text text-anchor="middle" x="583.5" y="-192" font-family="Helvetica,sans-Serif" font-size="10.00">web/http/server/Response.cpp</text>
</a>
</g>
</g>
<!-- Node14&#45;&gt;Node15 -->
<g id="edge15" class="edge">
<title>Node14&#45;&gt;Node15</title>
<path fill="none" stroke="midnightblue" d="M807.24,-249.56C754.21,-236.75 667.45,-215.78 619.02,-204.08"/>
<polygon fill="midnightblue" stroke="midnightblue" points="806.51,-252.99 817.06,-251.94 808.16,-246.18 806.51,-252.99"/>
</g>
<!-- Node16 -->
<g id="node16" class="node">
<title>Node16</title>
<g id="a_node16"><a xlink:href="server_2_socket_context_8hpp.html" target="_top" xlink:title=" ">
<polygon fill="white" stroke="black" points="677,-185 677,-204 848,-204 848,-185 677,-185"/>
<text text-anchor="middle" x="762.5" y="-192" font-family="Helvetica,sans-Serif" font-size="10.00">web/http/server/SocketContext.hpp</text>
</a>
</g>
</g>
<!-- Node14&#45;&gt;Node16 -->
<g id="edge16" class="edge">
<title>Node14&#45;&gt;Node16</title>
<path fill="none" stroke="midnightblue" d="M831.82,-245.57C814.06,-232.74 789.06,-214.69 774.45,-204.13"/>
<polygon fill="midnightblue" stroke="midnightblue" points="830.21,-248.72 840.36,-251.73 834.3,-243.04 830.21,-248.72"/>
</g>
<!-- Node22 -->
<g id="node22" class="node">
<title>Node22</title>
<g id="a_node22"><a xlink:href="web_2http_2server_2_socket_context_factory_8h.html" target="_top" xlink:title=" ">
<polygon fill="white" stroke="black" points="866.5,-179.5 866.5,-209.5 1018.5,-209.5 1018.5,-179.5 866.5,-179.5"/>
<text text-anchor="start" x="874.5" y="-197.5" font-family="Helvetica,sans-Serif" font-size="10.00">web/http/server/SocketContext</text>
<text text-anchor="middle" x="942.5" y="-186.5" font-family="Helvetica,sans-Serif" font-size="10.00">Factory.h</text>
</a>
</g>
</g>
<!-- Node14&#45;&gt;Node22 -->
<g id="edge22" class="edge">
<title>Node14&#45;&gt;Node22</title>
<path fill="none" stroke="midnightblue" d="M872.79,-245.85C887.81,-235 908.16,-220.3 922.99,-209.59"/>
<polygon fill="midnightblue" stroke="midnightblue" points="870.7,-243.04 864.64,-251.73 874.79,-248.72 870.7,-243.04"/>
</g>
<!-- Node23 -->
<g id="node23" class="node">
<title>Node23</title>
<g id="a_node23"><a xlink:href="express_2_response_8cpp.html" target="_top" xlink:title=" ">
<polygon fill="white" stroke="black" points="1037,-185 1037,-204 1154,-204 1154,-185 1037,-185"/>
<text text-anchor="middle" x="1095.5" y="-192" font-family="Helvetica,sans-Serif" font-size="10.00">express/Response.cpp</text>
</a>
</g>
</g>
<!-- Node14&#45;&gt;Node23 -->
<g id="edge24" class="edge">
<title>Node14&#45;&gt;Node23</title>
<path fill="none" stroke="midnightblue" d="M894.28,-249.32C942.27,-236.49 1019.94,-215.71 1063.41,-204.08"/>
<polygon fill="midnightblue" stroke="midnightblue" points="893.27,-245.97 884.52,-251.94 895.08,-252.73 893.27,-245.97"/>
</g>
<!-- Node24 -->
<g id="node24" class="node">
<title>Node24</title>
<g id="a_node24"><a xlink:href="_router_8cpp.html" target="_top" xlink:title=" ">
<polygon fill="white" stroke="black" points="1172,-185 1172,-204 1273,-204 1273,-185 1172,-185"/>
<text text-anchor="middle" x="1222.5" y="-192" font-family="Helvetica,sans-Serif" font-size="10.00">express/Router.cpp</text>
</a>
</g>
</g>
<!-- Node14&#45;&gt;Node24 -->
<g id="edge25" class="edge">
<title>Node14&#45;&gt;Node24</title>
<path fill="none" stroke="midnightblue" d="M924.4,-250.49C987.62,-241.3 1082.01,-226.6 1163.5,-210 1172.08,-208.25 1181.3,-206.11 1189.84,-204.02"/>
<polygon fill="midnightblue" stroke="midnightblue" points="923.53,-247.08 914.13,-251.98 924.53,-254.01 923.53,-247.08"/>
</g>
<!-- Node17 -->
<g id="node17" class="node">
<title>Node17</title>
<g id="a_node17"><a xlink:href="_server_8h.html" target="_top" xlink:title=" ">
<polygon fill="white" stroke="black" points="791,-123.5 791,-142.5 914,-142.5 914,-123.5 791,-123.5"/>
<text text-anchor="middle" x="852.5" y="-130.5" font-family="Helvetica,sans-Serif" font-size="10.00">web/http/server/Server.h</text>
</a>
</g>
</g>
<!-- Node16&#45;&gt;Node17 -->
<g id="edge17" class="edge">
<title>Node16&#45;&gt;Node17</title>
<path fill="none" stroke="midnightblue" d="M783.78,-179.43C801.13,-167.96 825.07,-152.13 839.63,-142.51"/>
<polygon fill="midnightblue" stroke="midnightblue" points="781.81,-176.54 775.39,-184.98 785.67,-182.38 781.81,-176.54"/>
</g>
<!-- Node18 -->
<g id="node18" class="node">
<title>Node18</title>
<g id="a_node18"><a xlink:href="legacy_2_server_8h.html" target="_top" xlink:title=" ">
<polygon fill="white" stroke="black" points="728.5,-56.5 728.5,-86.5 844.5,-86.5 844.5,-56.5 728.5,-56.5"/>
<text text-anchor="start" x="736.5" y="-74.5" font-family="Helvetica,sans-Serif" font-size="10.00">web/http/server/legacy</text>
<text text-anchor="middle" x="786.5" y="-63.5" font-family="Helvetica,sans-Serif" font-size="10.00">/Server.h</text>
</a>
</g>
</g>
<!-- Node17&#45;&gt;Node18 -->
<g id="edge18" class="edge">
<title>Node17&#45;&gt;Node18</title>
<path fill="none" stroke="midnightblue" d="M835.47,-116.65C825.15,-107.35 812.09,-95.57 802.05,-86.52"/>
<polygon fill="midnightblue" stroke="midnightblue" points="833.27,-119.38 843.04,-123.48 837.96,-114.18 833.27,-119.38"/>
</g>
<!-- Node20 -->
<g id="node20" class="node">
<title>Node20</title>
<g id="a_node20"><a xlink:href="tls_2_server_8h.html" target="_top" xlink:title=" ">
<polygon fill="white" stroke="black" points="869.5,-56.5 869.5,-86.5 967.5,-86.5 967.5,-56.5 869.5,-56.5"/>
<text text-anchor="start" x="877.5" y="-74.5" font-family="Helvetica,sans-Serif" font-size="10.00">web/http/server/tls</text>
<text text-anchor="middle" x="918.5" y="-63.5" font-family="Helvetica,sans-Serif" font-size="10.00">/Server.h</text>
</a>
</g>
</g>
<!-- Node17&#45;&gt;Node20 -->
<g id="edge20" class="edge">
<title>Node17&#45;&gt;Node20</title>
<path fill="none" stroke="midnightblue" d="M869.53,-116.65C879.85,-107.35 892.91,-95.57 902.95,-86.52"/>
<polygon fill="midnightblue" stroke="midnightblue" points="867.04,-114.18 861.96,-123.48 871.73,-119.38 867.04,-114.18"/>
</g>
<!-- Node19 -->
<g id="node19" class="node">
<title>Node19</title>
<g id="a_node19"><a xlink:href="legacy_2_web_app_8h.html" target="_top" xlink:title=" ">
<polygon fill="white" stroke="black" points="717,-0.5 717,-19.5 848,-19.5 848,-0.5 717,-0.5"/>
<text text-anchor="middle" x="782.5" y="-7.5" font-family="Helvetica,sans-Serif" font-size="10.00">express/legacy/WebApp.h</text>
</a>
</g>
</g>
<!-- Node18&#45;&gt;Node19 -->
<g id="edge19" class="edge">
<title>Node18&#45;&gt;Node19</title>
<path fill="none" stroke="midnightblue" d="M784.87,-46.29C784.24,-36.86 783.55,-26.65 783.08,-19.66"/>
<polygon fill="midnightblue" stroke="midnightblue" points="781.39,-46.66 785.55,-56.4 788.37,-46.19 781.39,-46.66"/>
</g>
<!-- Node21 -->
<g id="node21" class="node">
<title>Node21</title>
<g id="a_node21"><a xlink:href="tls_2_web_app_8h.html" target="_top" xlink:title=" ">
<polygon fill="white" stroke="black" points="866,-0.5 866,-19.5 979,-19.5 979,-0.5 866,-0.5"/>
<text text-anchor="middle" x="922.5" y="-7.5" font-family="Helvetica,sans-Serif" font-size="10.00">express/tls/WebApp.h</text>
</a>
</g>
</g>
<!-- Node20&#45;&gt;Node21 -->
<g id="edge21" class="edge">
<title>Node20&#45;&gt;Node21</title>
<path fill="none" stroke="midnightblue" d="M920.13,-46.29C920.76,-36.86 921.45,-26.65 921.92,-19.66"/>
<polygon fill="midnightblue" stroke="midnightblue" points="916.63,-46.19 919.45,-56.4 923.61,-46.66 916.63,-46.19"/>
</g>
<!-- Node22&#45;&gt;Node17 -->
<g id="edge23" class="edge">
<title>Node22&#45;&gt;Node17</title>
<path fill="none" stroke="midnightblue" d="M912.67,-173.78C896.72,-163.23 877.89,-150.78 865.6,-142.66"/>
<polygon fill="midnightblue" stroke="midnightblue" points="910.9,-176.8 921.17,-179.4 914.76,-170.96 910.9,-176.8"/>
</g>
</g>
</svg>
