<?xml version="1.0" encoding="UTF-8" standalone="no"?>
<!DOCTYPE svg PUBLIC "-//W3C//DTD SVG 1.1//EN"
 "http://www.w3.org/Graphics/SVG/1.1/DTD/svg11.dtd">
<!-- Generated by graphviz version 2.43.0 (0)
 -->
<!-- Title: net/ReadEventReceiver.cpp Pages: 1 -->
<svg width="978pt" height="252pt"
 viewBox="0.00 0.00 978.00 252.00" xmlns="http://www.w3.org/2000/svg" xmlns:xlink="http://www.w3.org/1999/xlink">
<g id="graph0" class="graph" transform="scale(1 1) rotate(0) translate(4 248)">
<title>net/ReadEventReceiver.cpp</title>
<polygon fill="white" stroke="transparent" points="-4,4 -4,-248 974,-248 974,4 -4,4"/>
<!-- Node1 -->
<g id="node1" class="node">
<title>Node1</title>
<g id="a_node1"><a xlink:title=" ">
<polygon fill="#bfbfbf" stroke="black" points="62.5,-224.5 62.5,-243.5 201.5,-243.5 201.5,-224.5 62.5,-224.5"/>
<text text-anchor="middle" x="132" y="-231.5" font-family="Helvetica,sans-Serif" font-size="10.00">net/ReadEventReceiver.cpp</text>
</a>
</g>
</g>
<!-- Node2 -->
<g id="node2" class="node">
<title>Node2</title>
<g id="a_node2"><a xlink:href="_read_event_receiver_8h.html" target="_top" xlink:title=" ">
<polygon fill="white" stroke="black" points="0,-56.5 0,-75.5 112,-75.5 112,-56.5 0,-56.5"/>
<text text-anchor="middle" x="56" y="-63.5" font-family="Helvetica,sans-Serif" font-size="10.00">ReadEventReceiver.h</text>
</a>
</g>
</g>
<!-- Node1&#45;&gt;Node2 -->
<g id="edge1" class="edge">
<title>Node1&#45;&gt;Node2</title>
<path fill="none" stroke="midnightblue" d="M123.86,-224.39C108.87,-207.94 77.11,-170.25 63,-132 57.53,-117.17 55.94,-99.25 55.63,-85.98"/>
<polygon fill="midnightblue" stroke="midnightblue" points="59.13,-85.71 55.62,-75.72 52.13,-85.72 59.13,-85.71"/>
</g>
<!-- Node4 -->
<g id="node4" class="node">
<title>Node4</title>
<g id="a_node4"><a xlink:href="_event_loop_8h.html" target="_top" xlink:title=" ">
<polygon fill="white" stroke="black" points="469.5,-168.5 469.5,-187.5 540.5,-187.5 540.5,-168.5 469.5,-168.5"/>
<text text-anchor="middle" x="505" y="-175.5" font-family="Helvetica,sans-Serif" font-size="10.00">EventLoop.h</text>
</a>
</g>
</g>
<!-- Node1&#45;&gt;Node4 -->
<g id="edge3" class="edge">
<title>Node1&#45;&gt;Node4</title>
<path fill="none" stroke="midnightblue" d="M191.1,-224.44C265.49,-213.67 391.68,-195.41 459.18,-185.63"/>
<polygon fill="midnightblue" stroke="midnightblue" points="460.1,-189.04 469.49,-184.14 459.09,-182.11 460.1,-189.04"/>
</g>
<!-- Node15 -->
<g id="node15" class="node">
<title>Node15</title>
<g id="a_node15"><a xlink:href="_read_event_dispatcher_8h.html" target="_top" xlink:title=" ">
<polygon fill="white" stroke="black" points="72,-112.5 72,-131.5 192,-131.5 192,-112.5 72,-112.5"/>
<text text-anchor="middle" x="132" y="-119.5" font-family="Helvetica,sans-Serif" font-size="10.00">ReadEventDispatcher.h</text>
</a>
</g>
</g>
<!-- Node1&#45;&gt;Node15 -->
<g id="edge30" class="edge">
<title>Node1&#45;&gt;Node15</title>
<path fill="none" stroke="midnightblue" d="M132,-224.37C132,-206.62 132,-165.67 132,-141.6"/>
<polygon fill="midnightblue" stroke="midnightblue" points="135.5,-141.59 132,-131.59 128.5,-141.59 135.5,-141.59"/>
</g>
<!-- Node3 -->
<g id="node3" class="node">
<title>Node3</title>
<g id="a_node3"><a xlink:href="_event_receiver_8h.html" target="_top" xlink:title=" ">
<polygon fill="white" stroke="black" points="363.5,-0.5 363.5,-19.5 452.5,-19.5 452.5,-0.5 363.5,-0.5"/>
<text text-anchor="middle" x="408" y="-7.5" font-family="Helvetica,sans-Serif" font-size="10.00">EventReceiver.h</text>
</a>
</g>
</g>
<!-- Node2&#45;&gt;Node3 -->
<g id="edge2" class="edge">
<title>Node2&#45;&gt;Node3</title>
<path fill="none" stroke="midnightblue" d="M111.78,-56.44C177.93,-46.3 287.49,-29.49 353.21,-19.41"/>
<polygon fill="midnightblue" stroke="midnightblue" points="354.01,-22.82 363.36,-17.85 352.95,-15.9 354.01,-22.82"/>
</g>
<!-- Node5 -->
<g id="node5" class="node">
<title>Node5</title>
<g id="a_node5"><a xlink:href="_accept_event_dispatcher_8h.html" target="_top" xlink:title=" ">
<polygon fill="white" stroke="black" points="512,-112.5 512,-131.5 640,-131.5 640,-112.5 512,-112.5"/>
<text text-anchor="middle" x="576" y="-119.5" font-family="Helvetica,sans-Serif" font-size="10.00">AcceptEventDispatcher.h</text>
</a>
</g>
</g>
<!-- Node4&#45;&gt;Node5 -->
<g id="edge4" class="edge">
<title>Node4&#45;&gt;Node5</title>
<path fill="none" stroke="midnightblue" d="M516.41,-168.32C527.11,-160.18 543.34,-147.84 556.16,-138.09"/>
<polygon fill="midnightblue" stroke="midnightblue" points="558.54,-140.67 564.39,-131.83 554.31,-135.1 558.54,-140.67"/>
</g>
<!-- Node9 -->
<g id="node9" class="node">
<title>Node9</title>
<g id="a_node9"><a xlink:href="_fd_set_8h.html" target="_top" xlink:title=" ">
<polygon fill="white" stroke="black" points="714.5,-0.5 714.5,-19.5 765.5,-19.5 765.5,-0.5 714.5,-0.5"/>
<text text-anchor="middle" x="740" y="-7.5" font-family="Helvetica,sans-Serif" font-size="10.00">FdSet.h</text>
</a>
</g>
</g>
<!-- Node4&#45;&gt;Node9 -->
<g id="edge16" class="edge">
<title>Node4&#45;&gt;Node9</title>
<path fill="none" stroke="midnightblue" d="M540.69,-177.11C611.93,-176.49 767.8,-170.63 801,-132 823.02,-106.38 816.23,-86.15 801,-56 794.19,-42.52 781.23,-32.08 769,-24.67"/>
<polygon fill="midnightblue" stroke="midnightblue" points="770.34,-21.41 759.91,-19.59 766.93,-27.52 770.34,-21.41"/>
</g>
<!-- Node11 -->
<g id="node11" class="node">
<title>Node11</title>
<g id="a_node11"><a xlink:href="_connect_event_dispatcher_8h.html" target="_top" xlink:title=" ">
<polygon fill="white" stroke="black" points="658,-112.5 658,-131.5 792,-131.5 792,-112.5 658,-112.5"/>
<text text-anchor="middle" x="725" y="-119.5" font-family="Helvetica,sans-Serif" font-size="10.00">ConnectEventDispatcher.h</text>
</a>
</g>
</g>
<!-- Node4&#45;&gt;Node11 -->
<g id="edge12" class="edge">
<title>Node4&#45;&gt;Node11</title>
<path fill="none" stroke="midnightblue" d="M539.86,-168.44C577.92,-159.1 638.96,-144.12 680.46,-133.93"/>
<polygon fill="midnightblue" stroke="midnightblue" points="681.43,-137.3 690.3,-131.52 679.76,-130.5 681.43,-137.3"/>
</g>
<!-- Node13 -->
<g id="node13" class="node">
<title>Node13</title>
<g id="a_node13"><a xlink:href="_out_of_band_event_dispatcher_8h.html" target="_top" xlink:title=" ">
<polygon fill="white" stroke="black" points="210,-112.5 210,-131.5 356,-131.5 356,-112.5 210,-112.5"/>
<text text-anchor="middle" x="283" y="-119.5" font-family="Helvetica,sans-Serif" font-size="10.00">OutOfBandEventDispatcher.h</text>
</a>
</g>
</g>
<!-- Node4&#45;&gt;Node13 -->
<g id="edge17" class="edge">
<title>Node4&#45;&gt;Node13</title>
<path fill="none" stroke="midnightblue" d="M469.82,-168.44C431.42,-159.1 369.82,-144.12 327.94,-133.93"/>
<polygon fill="midnightblue" stroke="midnightblue" points="328.56,-130.48 318.01,-131.52 326.9,-137.28 328.56,-130.48"/>
</g>
<!-- Node4&#45;&gt;Node15 -->
<g id="edge21" class="edge">
<title>Node4&#45;&gt;Node15</title>
<path fill="none" stroke="midnightblue" d="M469.24,-171.82C407.51,-162.89 279.98,-144.42 200.65,-132.94"/>
<polygon fill="midnightblue" stroke="midnightblue" points="201.14,-129.47 190.75,-131.5 200.14,-136.4 201.14,-129.47"/>
</g>
<!-- Node16 -->
<g id="node16" class="node">
<title>Node16</title>
<g id="a_node16"><a xlink:href="_timer_event_dispatcher_8h.html" target="_top" xlink:title=" ">
<polygon fill="white" stroke="black" points="848,-112.5 848,-131.5 970,-131.5 970,-112.5 848,-112.5"/>
<text text-anchor="middle" x="909" y="-119.5" font-family="Helvetica,sans-Serif" font-size="10.00">TimerEventDispatcher.h</text>
</a>
</g>
</g>
<!-- Node4&#45;&gt;Node16 -->
<g id="edge24" class="edge">
<title>Node4&#45;&gt;Node16</title>
<path fill="none" stroke="midnightblue" d="M540.85,-172.21C607.35,-163.32 750.94,-144.13 837.83,-132.51"/>
<polygon fill="midnightblue" stroke="midnightblue" points="838.43,-135.96 847.88,-131.17 837.51,-129.03 838.43,-135.96"/>
</g>
<!-- Node17 -->
<g id="node17" class="node">
<title>Node17</title>
<g id="a_node17"><a xlink:href="_write_event_dispatcher_8h.html" target="_top" xlink:title=" ">
<polygon fill="white" stroke="black" points="374.5,-112.5 374.5,-131.5 493.5,-131.5 493.5,-112.5 374.5,-112.5"/>
<text text-anchor="middle" x="434" y="-119.5" font-family="Helvetica,sans-Serif" font-size="10.00">WriteEventDispatcher.h</text>
</a>
</g>
</g>
<!-- Node4&#45;&gt;Node17 -->
<g id="edge26" class="edge">
<title>Node4&#45;&gt;Node17</title>
<path fill="none" stroke="midnightblue" d="M493.59,-168.32C482.89,-160.18 466.66,-147.84 453.84,-138.09"/>
<polygon fill="midnightblue" stroke="midnightblue" points="455.69,-135.1 445.61,-131.83 451.46,-140.67 455.69,-135.1"/>
</g>
<!-- Node6 -->
<g id="node6" class="node">
<title>Node6</title>
<g id="a_node6"><a xlink:href="_accept_event_receiver_8h.html" target="_top" xlink:title=" ">
<polygon fill="white" stroke="black" points="414.5,-56.5 414.5,-75.5 533.5,-75.5 533.5,-56.5 414.5,-56.5"/>
<text text-anchor="middle" x="474" y="-63.5" font-family="Helvetica,sans-Serif" font-size="10.00">AcceptEventReceiver.h</text>
</a>
</g>
</g>
<!-- Node5&#45;&gt;Node6 -->
<g id="edge5" class="edge">
<title>Node5&#45;&gt;Node6</title>
<path fill="none" stroke="midnightblue" d="M559.61,-112.32C543.33,-103.7 518.13,-90.36 499.28,-80.39"/>
<polygon fill="midnightblue" stroke="midnightblue" points="500.82,-77.24 490.35,-75.65 497.55,-83.43 500.82,-77.24"/>
</g>
<!-- Node7 -->
<g id="node7" class="node">
<title>Node7</title>
<g id="a_node7"><a xlink:href="_event_dispatcher_8h.html" target="_top" xlink:title=" ">
<polygon fill="white" stroke="black" points="551.5,-56.5 551.5,-75.5 648.5,-75.5 648.5,-56.5 551.5,-56.5"/>
<text text-anchor="middle" x="600" y="-63.5" font-family="Helvetica,sans-Serif" font-size="10.00">EventDispatcher.h</text>
</a>
</g>
</g>
<!-- Node5&#45;&gt;Node7 -->
<g id="edge7" class="edge">
<title>Node5&#45;&gt;Node7</title>
<path fill="none" stroke="midnightblue" d="M579.96,-112.08C583.21,-104.77 587.92,-94.18 591.95,-85.1"/>
<polygon fill="midnightblue" stroke="midnightblue" points="595.25,-86.31 596.11,-75.75 588.85,-83.47 595.25,-86.31"/>
</g>
<!-- Node6&#45;&gt;Node3 -->
<g id="edge6" class="edge">
<title>Node6&#45;&gt;Node3</title>
<path fill="none" stroke="midnightblue" d="M463.4,-56.32C453.54,-48.26 438.65,-36.08 426.78,-26.37"/>
<polygon fill="midnightblue" stroke="midnightblue" points="428.75,-23.46 418.8,-19.83 424.32,-28.88 428.75,-23.46"/>
</g>
<!-- Node7&#45;&gt;Node3 -->
<g id="edge9" class="edge">
<title>Node7&#45;&gt;Node3</title>
<path fill="none" stroke="midnightblue" d="M569.58,-56.44C536.72,-47.2 484.22,-32.44 448.03,-22.26"/>
<polygon fill="midnightblue" stroke="midnightblue" points="448.85,-18.85 438.28,-19.52 446.96,-25.59 448.85,-18.85"/>
</g>
<!-- Node8 -->
<g id="node8" class="node">
<title>Node8</title>
<g id="a_node8"><a xlink:href="_descriptor_8h.html" target="_top" xlink:title=" ">
<polygon fill="white" stroke="black" points="565.5,-0.5 565.5,-19.5 634.5,-19.5 634.5,-0.5 565.5,-0.5"/>
<text text-anchor="middle" x="600" y="-7.5" font-family="Helvetica,sans-Serif" font-size="10.00">Descriptor.h</text>
</a>
</g>
</g>
<!-- Node7&#45;&gt;Node8 -->
<g id="edge8" class="edge">
<title>Node7&#45;&gt;Node8</title>
<path fill="none" stroke="midnightblue" d="M600,-56.08C600,-49.01 600,-38.86 600,-29.99"/>
<polygon fill="midnightblue" stroke="midnightblue" points="603.5,-29.75 600,-19.75 596.5,-29.75 603.5,-29.75"/>
</g>
<!-- Node7&#45;&gt;Node9 -->
<g id="edge10" class="edge">
<title>Node7&#45;&gt;Node9</title>
<path fill="none" stroke="midnightblue" d="M622.18,-56.44C645.43,-47.48 682.15,-33.31 708.42,-23.18"/>
<polygon fill="midnightblue" stroke="midnightblue" points="709.85,-26.38 717.92,-19.52 707.33,-19.85 709.85,-26.38"/>
</g>
<!-- Node10 -->
<g id="node10" class="node">
<title>Node10</title>
<g id="a_node10"><a xlink:href="_timer_8h.html" target="_top" xlink:title=" ">
<polygon fill="white" stroke="black" points="815,-0.5 815,-19.5 889,-19.5 889,-0.5 815,-0.5"/>
<text text-anchor="middle" x="852" y="-7.5" font-family="Helvetica,sans-Serif" font-size="10.00">timer/Timer.h</text>
</a>
</g>
</g>
<!-- Node7&#45;&gt;Node10 -->
<g id="edge11" class="edge">
<title>Node7&#45;&gt;Node10</title>
<path fill="none" stroke="midnightblue" d="M639.93,-56.44C684.67,-46.86 757.13,-31.33 804.68,-21.14"/>
<polygon fill="midnightblue" stroke="midnightblue" points="805.68,-24.51 814.72,-18.99 804.21,-17.66 805.68,-24.51"/>
</g>
<!-- Node11&#45;&gt;Node7 -->
<g id="edge15" class="edge">
<title>Node11&#45;&gt;Node7</title>
<path fill="none" stroke="midnightblue" d="M705.19,-112.44C684.71,-103.6 652.52,-89.69 629.14,-79.59"/>
<polygon fill="midnightblue" stroke="midnightblue" points="630.28,-76.27 619.71,-75.52 627.51,-82.7 630.28,-76.27"/>
</g>
<!-- Node12 -->
<g id="node12" class="node">
<title>Node12</title>
<g id="a_node12"><a xlink:href="_connect_event_receiver_8h.html" target="_top" xlink:title=" ">
<polygon fill="white" stroke="black" points="666.5,-56.5 666.5,-75.5 791.5,-75.5 791.5,-56.5 666.5,-56.5"/>
<text text-anchor="middle" x="729" y="-63.5" font-family="Helvetica,sans-Serif" font-size="10.00">ConnectEventReceiver.h</text>
</a>
</g>
</g>
<!-- Node11&#45;&gt;Node12 -->
<g id="edge13" class="edge">
<title>Node11&#45;&gt;Node12</title>
<path fill="none" stroke="midnightblue" d="M725.66,-112.08C726.18,-105.01 726.94,-94.86 727.59,-85.99"/>
<polygon fill="midnightblue" stroke="midnightblue" points="731.1,-85.98 728.35,-75.75 724.12,-85.47 731.1,-85.98"/>
</g>
<!-- Node12&#45;&gt;Node3 -->
<g id="edge14" class="edge">
<title>Node12&#45;&gt;Node3</title>
<path fill="none" stroke="midnightblue" d="M678.14,-56.44C619.4,-46.56 523.12,-30.37 462.77,-20.21"/>
<polygon fill="midnightblue" stroke="midnightblue" points="463.12,-16.72 452.68,-18.52 461.96,-23.63 463.12,-16.72"/>
</g>
<!-- Node13&#45;&gt;Node7 -->
<g id="edge18" class="edge">
<title>Node13&#45;&gt;Node7</title>
<path fill="none" stroke="midnightblue" d="M333.23,-112.44C389.75,-102.81 481.47,-87.19 541.26,-77.01"/>
<polygon fill="midnightblue" stroke="midnightblue" points="542.04,-80.42 551.31,-75.29 540.86,-73.52 542.04,-80.42"/>
</g>
<!-- Node14 -->
<g id="node14" class="node">
<title>Node14</title>
<g id="a_node14"><a xlink:href="_out_of_band_event_receiver_8h.html" target="_top" xlink:title=" ">
<polygon fill="white" stroke="black" points="130.5,-56.5 130.5,-75.5 267.5,-75.5 267.5,-56.5 130.5,-56.5"/>
<text text-anchor="middle" x="199" y="-63.5" font-family="Helvetica,sans-Serif" font-size="10.00">OutOfBandEventReceiver.h</text>
</a>
</g>
</g>
<!-- Node13&#45;&gt;Node14 -->
<g id="edge19" class="edge">
<title>Node13&#45;&gt;Node14</title>
<path fill="none" stroke="midnightblue" d="M269.5,-112.32C256.4,-103.9 236.29,-90.97 220.89,-81.07"/>
<polygon fill="midnightblue" stroke="midnightblue" points="222.77,-78.12 212.46,-75.65 218.98,-84.01 222.77,-78.12"/>
</g>
<!-- Node14&#45;&gt;Node3 -->
<g id="edge20" class="edge">
<title>Node14&#45;&gt;Node3</title>
<path fill="none" stroke="midnightblue" d="M232.12,-56.44C268.12,-47.14 325.77,-32.25 365.19,-22.06"/>
<polygon fill="midnightblue" stroke="midnightblue" points="366.23,-25.41 375.04,-19.52 364.48,-18.63 366.23,-25.41"/>
</g>
<!-- Node15&#45;&gt;Node2 -->
<g id="edge23" class="edge">
<title>Node15&#45;&gt;Node2</title>
<path fill="none" stroke="midnightblue" d="M119.79,-112.32C108.22,-104.11 90.62,-91.6 76.84,-81.81"/>
<polygon fill="midnightblue" stroke="midnightblue" points="78.61,-78.77 68.43,-75.83 74.56,-84.48 78.61,-78.77"/>
</g>
<!-- Node15&#45;&gt;Node7 -->
<g id="edge22" class="edge">
<title>Node15&#45;&gt;Node7</title>
<path fill="none" stroke="midnightblue" d="M192.2,-113.06C195.17,-112.69 198.12,-112.34 201,-112 349.1,-94.53 389.17,-95.63 541.12,-76.05"/>
<polygon fill="midnightblue" stroke="midnightblue" points="541.82,-79.49 551.29,-74.73 540.92,-72.55 541.82,-79.49"/>
</g>
<!-- Node16&#45;&gt;Node10 -->
<g id="edge25" class="edge">
<title>Node16&#45;&gt;Node10</title>
<path fill="none" stroke="midnightblue" d="M904.53,-112.37C895.2,-94.38 873.53,-52.55 861.13,-28.63"/>
<polygon fill="midnightblue" stroke="midnightblue" points="864.16,-26.86 856.45,-19.59 857.95,-30.08 864.16,-26.86"/>
</g>
<!-- Node17&#45;&gt;Node7 -->
<g id="edge27" class="edge">
<title>Node17&#45;&gt;Node7</title>
<path fill="none" stroke="midnightblue" d="M460.3,-112.44C488.35,-103.32 532.94,-88.81 564.18,-78.65"/>
<polygon fill="midnightblue" stroke="midnightblue" points="565.39,-81.94 573.82,-75.52 563.23,-75.28 565.39,-81.94"/>
</g>
<!-- Node18 -->
<g id="node18" class="node">
<title>Node18</title>
<g id="a_node18"><a xlink:href="_write_event_receiver_8h.html" target="_top" xlink:title=" ">
<polygon fill="white" stroke="black" points="285.5,-56.5 285.5,-75.5 396.5,-75.5 396.5,-56.5 285.5,-56.5"/>
<text text-anchor="middle" x="341" y="-63.5" font-family="Helvetica,sans-Serif" font-size="10.00">WriteEventReceiver.h</text>
</a>
</g>
</g>
<!-- Node17&#45;&gt;Node18 -->
<g id="edge28" class="edge">
<title>Node17&#45;&gt;Node18</title>
<path fill="none" stroke="midnightblue" d="M419.06,-112.32C404.41,-103.82 381.87,-90.73 364.76,-80.8"/>
<polygon fill="midnightblue" stroke="midnightblue" points="366.31,-77.65 355.9,-75.65 362.8,-83.7 366.31,-77.65"/>
</g>
<!-- Node18&#45;&gt;Node3 -->
<g id="edge29" class="edge">
<title>Node18&#45;&gt;Node3</title>
<path fill="none" stroke="midnightblue" d="M351.76,-56.32C361.77,-48.26 376.89,-36.08 388.93,-26.37"/>
<polygon fill="midnightblue" stroke="midnightblue" points="391.45,-28.83 397.04,-19.83 387.06,-23.38 391.45,-28.83"/>
</g>
</g>
</svg>
