<?xml version="1.0" encoding="UTF-8" standalone="no"?>
<!DOCTYPE svg PUBLIC "-//W3C//DTD SVG 1.1//EN"
 "http://www.w3.org/Graphics/SVG/1.1/DTD/svg11.dtd">
<!-- Generated by graphviz version 2.43.0 (0)
 -->
<!-- Title: net/socket/sock_stream/SocketConnector.h Pages: 1 -->
<svg width="488pt" height="151pt"
 viewBox="0.00 0.00 488.00 151.00" xmlns="http://www.w3.org/2000/svg" xmlns:xlink="http://www.w3.org/1999/xlink">
<g id="graph0" class="graph" transform="scale(1 1) rotate(0) translate(4 147)">
<title>net/socket/sock_stream/SocketConnector.h</title>
<polygon fill="white" stroke="transparent" points="-4,4 -4,-147 484,-147 484,4 -4,4"/>
<!-- Node1 -->
<g id="node1" class="node">
<title>Node1</title>
<g id="a_node1"><a xlink:title=" ">
<polygon fill="#bfbfbf" stroke="black" points="267.5,-112.5 267.5,-142.5 389.5,-142.5 389.5,-112.5 267.5,-112.5"/>
<text text-anchor="start" x="275.5" y="-130.5" font-family="Helvetica,sans-Serif" font-size="10.00">net/socket/sock_stream</text>
<text text-anchor="middle" x="328.5" y="-119.5" font-family="Helvetica,sans-Serif" font-size="10.00">/SocketConnector.h</text>
</a>
</g>
</g>
<!-- Node2 -->
<g id="node2" class="node">
<title>Node2</title>
<g id="a_node2"><a xlink:href="_connect_event_receiver_8h.html" target="_top" xlink:title=" ">
<polygon fill="white" stroke="black" points="0,-56.5 0,-75.5 125,-75.5 125,-56.5 0,-56.5"/>
<text text-anchor="middle" x="62.5" y="-63.5" font-family="Helvetica,sans-Serif" font-size="10.00">ConnectEventReceiver.h</text>
</a>
</g>
</g>
<!-- Node1&#45;&gt;Node2 -->
<g id="edge1" class="edge">
<title>Node1&#45;&gt;Node2</title>
<path fill="none" stroke="midnightblue" d="M267.47,-112.85C219.8,-102.19 154.48,-87.57 110.5,-77.74"/>
<polygon fill="midnightblue" stroke="midnightblue" points="111.15,-74.3 100.63,-75.53 109.62,-81.13 111.15,-74.3"/>
</g>
<!-- Node4 -->
<g id="node4" class="node">
<title>Node4</title>
<g id="a_node4"><a xlink:href="_descriptor_8h.html" target="_top" xlink:title=" ">
<polygon fill="white" stroke="black" points="143,-56.5 143,-75.5 212,-75.5 212,-56.5 143,-56.5"/>
<text text-anchor="middle" x="177.5" y="-63.5" font-family="Helvetica,sans-Serif" font-size="10.00">Descriptor.h</text>
</a>
</g>
</g>
<!-- Node1&#45;&gt;Node4 -->
<g id="edge3" class="edge">
<title>Node1&#45;&gt;Node4</title>
<path fill="none" stroke="midnightblue" d="M292.72,-112.4C267.27,-102.37 233.4,-89.03 208.98,-79.4"/>
<polygon fill="midnightblue" stroke="midnightblue" points="210.06,-76.07 199.47,-75.66 207.49,-82.58 210.06,-76.07"/>
</g>
<!-- Node5 -->
<g id="node5" class="node">
<title>Node5</title>
<g id="a_node5"><a xlink:href="_logger_8h.html" target="_top" xlink:title=" ">
<polygon fill="white" stroke="black" points="378,-0.5 378,-19.5 431,-19.5 431,-0.5 378,-0.5"/>
<text text-anchor="middle" x="404.5" y="-7.5" font-family="Helvetica,sans-Serif" font-size="10.00">Logger.h</text>
</a>
</g>
</g>
<!-- Node1&#45;&gt;Node5 -->
<g id="edge4" class="edge">
<title>Node1&#45;&gt;Node5</title>
<path fill="none" stroke="midnightblue" d="M337.82,-112.34C351.82,-91.05 378.25,-50.89 393.29,-28.03"/>
<polygon fill="midnightblue" stroke="midnightblue" points="396.22,-29.95 398.8,-19.67 390.37,-26.1 396.22,-29.95"/>
</g>
<!-- Node6 -->
<g id="node6" class="node">
<title>Node6</title>
<g id="a_node6"><a xlink:href="_read_event_receiver_8h.html" target="_top" xlink:title=" ">
<polygon fill="white" stroke="black" points="230.5,-56.5 230.5,-75.5 342.5,-75.5 342.5,-56.5 230.5,-56.5"/>
<text text-anchor="middle" x="286.5" y="-63.5" font-family="Helvetica,sans-Serif" font-size="10.00">ReadEventReceiver.h</text>
</a>
</g>
</g>
<!-- Node1&#45;&gt;Node6 -->
<g id="edge5" class="edge">
<title>Node1&#45;&gt;Node6</title>
<path fill="none" stroke="midnightblue" d="M318.55,-112.4C312.51,-103.84 304.76,-92.87 298.4,-83.86"/>
<polygon fill="midnightblue" stroke="midnightblue" points="301.24,-81.81 292.61,-75.66 295.52,-85.85 301.24,-81.81"/>
</g>
<!-- Node7 -->
<g id="node7" class="node">
<title>Node7</title>
<g id="a_node7"><a xlink:href="sock__stream_2_socket_client_8h.html" target="_top" xlink:title=" ">
<polygon fill="white" stroke="black" points="399,-56.5 399,-75.5 480,-75.5 480,-56.5 399,-56.5"/>
<text text-anchor="middle" x="439.5" y="-63.5" font-family="Helvetica,sans-Serif" font-size="10.00">SocketClient.h</text>
</a>
</g>
</g>
<!-- Node1&#45;&gt;Node7 -->
<g id="edge7" class="edge">
<title>Node1&#45;&gt;Node7</title>
<path fill="none" stroke="midnightblue" d="M348.97,-112.4C365.92,-102.64 390.03,-89.74 409.19,-80.18"/>
<polygon fill="midnightblue" stroke="midnightblue" points="410.98,-83.2 418.42,-75.66 407.9,-76.92 410.98,-83.2"/>
</g>
<!-- Node3 -->
<g id="node3" class="node">
<title>Node3</title>
<g id="a_node3"><a xlink:href="_event_receiver_8h.html" target="_top" xlink:title=" ">
<polygon fill="white" stroke="black" points="162,-0.5 162,-19.5 251,-19.5 251,-0.5 162,-0.5"/>
<text text-anchor="middle" x="206.5" y="-7.5" font-family="Helvetica,sans-Serif" font-size="10.00">EventReceiver.h</text>
</a>
</g>
</g>
<!-- Node2&#45;&gt;Node3 -->
<g id="edge2" class="edge">
<title>Node2&#45;&gt;Node3</title>
<path fill="none" stroke="midnightblue" d="M85.32,-56.44C109.33,-47.44 147.33,-33.19 174.37,-23.05"/>
<polygon fill="midnightblue" stroke="midnightblue" points="175.66,-26.3 183.79,-19.52 173.2,-19.75 175.66,-26.3"/>
</g>
<!-- Node6&#45;&gt;Node3 -->
<g id="edge6" class="edge">
<title>Node6&#45;&gt;Node3</title>
<path fill="none" stroke="midnightblue" d="M273.65,-56.32C261.28,-47.98 242.37,-35.21 227.76,-25.35"/>
<polygon fill="midnightblue" stroke="midnightblue" points="229.57,-22.35 219.32,-19.65 225.65,-28.15 229.57,-22.35"/>
</g>
<!-- Node7&#45;&gt;Node1 -->
<g id="edge9" class="edge">
<title>Node7&#45;&gt;Node1</title>
<path fill="none" stroke="midnightblue" d="M428.28,-75.66C414.43,-84.05 390.65,-97.04 369.71,-107.8"/>
<polygon fill="midnightblue" stroke="midnightblue" points="367.98,-104.75 360.65,-112.4 371.15,-110.99 367.98,-104.75"/>
</g>
<!-- Node7&#45;&gt;Node5 -->
<g id="edge8" class="edge">
<title>Node7&#45;&gt;Node5</title>
<path fill="none" stroke="midnightblue" d="M433.72,-56.08C428.83,-48.53 421.67,-37.49 415.67,-28.23"/>
<polygon fill="midnightblue" stroke="midnightblue" points="418.55,-26.24 410.17,-19.75 412.67,-30.05 418.55,-26.24"/>
</g>
</g>
</svg>
