<?xml version="1.0" encoding="UTF-8" standalone="no"?>
<!DOCTYPE svg PUBLIC "-//W3C//DTD SVG 1.1//EN"
 "http://www.w3.org/Graphics/SVG/1.1/DTD/svg11.dtd">
<!-- Generated by graphviz version 2.43.0 (0)
 -->
<!-- Title: net/socket/stream/SocketProtocolFactory.h Pages: 1 -->
<svg width="2184pt" height="497pt"
 viewBox="0.00 0.00 2184.00 497.00" xmlns="http://www.w3.org/2000/svg" xmlns:xlink="http://www.w3.org/1999/xlink">
<g id="graph0" class="graph" transform="scale(1 1) rotate(0) translate(4 493)">
<title>net/socket/stream/SocketProtocolFactory.h</title>
<polygon fill="white" stroke="transparent" points="-4,4 -4,-493 2180,-493 2180,4 -4,4"/>
<!-- Node1 -->
<g id="node1" class="node">
<title>Node1</title>
<g id="a_node1"><a xlink:title=" ">
<polygon fill="#bfbfbf" stroke="black" points="992.5,-458.5 992.5,-488.5 1121.5,-488.5 1121.5,-458.5 992.5,-458.5"/>
<text text-anchor="start" x="1000.5" y="-476.5" font-family="Helvetica,sans-Serif" font-size="10.00">net/socket/stream/Socket</text>
<text text-anchor="middle" x="1057" y="-465.5" font-family="Helvetica,sans-Serif" font-size="10.00">ProtocolFactory.h</text>
</a>
</g>
</g>
<!-- Node2 -->
<g id="node2" class="node">
<title>Node2</title>
<g id="a_node2"><a xlink:href="stream_2_socket_client_8h.html" target="_top" xlink:title=" ">
<polygon fill="white" stroke="black" points="706.5,-257.5 706.5,-287.5 835.5,-287.5 835.5,-257.5 706.5,-257.5"/>
<text text-anchor="start" x="714.5" y="-275.5" font-family="Helvetica,sans-Serif" font-size="10.00">net/socket/stream/Socket</text>
<text text-anchor="middle" x="771" y="-264.5" font-family="Helvetica,sans-Serif" font-size="10.00">Client.h</text>
</a>
</g>
</g>
<!-- Node1&#45;&gt;Node2 -->
<g id="edge1" class="edge">
<title>Node1&#45;&gt;Node2</title>
<path fill="none" stroke="midnightblue" d="M1010.58,-454.66C963.61,-435.08 890.61,-400.31 838,-355 814.27,-334.56 792.34,-305.06 780.4,-287.73"/>
<polygon fill="midnightblue" stroke="midnightblue" points="1009.32,-457.93 1019.9,-458.49 1011.98,-451.45 1009.32,-457.93"/>
</g>
<!-- Node14 -->
<g id="node14" class="node">
<title>Node14</title>
<g id="a_node14"><a xlink:href="_socket_connection_8h.html" target="_top" xlink:title=" ">
<polygon fill="white" stroke="black" points="992.5,-391.5 992.5,-421.5 1121.5,-421.5 1121.5,-391.5 992.5,-391.5"/>
<text text-anchor="start" x="1000.5" y="-409.5" font-family="Helvetica,sans-Serif" font-size="10.00">net/socket/stream/Socket</text>
<text text-anchor="middle" x="1057" y="-398.5" font-family="Helvetica,sans-Serif" font-size="10.00">Connection.h</text>
</a>
</g>
</g>
<!-- Node1&#45;&gt;Node14 -->
<g id="edge15" class="edge">
<title>Node1&#45;&gt;Node14</title>
<path fill="none" stroke="midnightblue" d="M1057,-448.11C1057,-439.15 1057,-429.32 1057,-421.58"/>
<polygon fill="midnightblue" stroke="midnightblue" points="1053.5,-448.4 1057,-458.4 1060.5,-448.4 1053.5,-448.4"/>
</g>
<!-- Node34 -->
<g id="node34" class="node">
<title>Node34</title>
<g id="a_node34"><a xlink:href="_socket_connection_base_8cpp.html" target="_top" xlink:title=" ">
<polygon fill="white" stroke="black" points="1336.5,-391.5 1336.5,-421.5 1465.5,-421.5 1465.5,-391.5 1336.5,-391.5"/>
<text text-anchor="start" x="1344.5" y="-409.5" font-family="Helvetica,sans-Serif" font-size="10.00">net/socket/stream/Socket</text>
<text text-anchor="middle" x="1401" y="-398.5" font-family="Helvetica,sans-Serif" font-size="10.00">ConnectionBase.cpp</text>
</a>
</g>
</g>
<!-- Node1&#45;&gt;Node34 -->
<g id="edge39" class="edge">
<title>Node1&#45;&gt;Node34</title>
<path fill="none" stroke="midnightblue" d="M1131.55,-458.73C1185.79,-448.68 1260.97,-434.64 1327,-422 1330.09,-421.41 1333.24,-420.8 1336.43,-420.19"/>
<polygon fill="midnightblue" stroke="midnightblue" points="1130.87,-455.3 1121.68,-460.56 1132.15,-462.18 1130.87,-455.3"/>
</g>
<!-- Node35 -->
<g id="node35" class="node">
<title>Node35</title>
<g id="a_node35"><a xlink:href="_socket_connector_8h.html" target="_top" xlink:title=" ">
<polygon fill="white" stroke="black" points="846.5,-324.5 846.5,-354.5 975.5,-354.5 975.5,-324.5 846.5,-324.5"/>
<text text-anchor="start" x="854.5" y="-342.5" font-family="Helvetica,sans-Serif" font-size="10.00">net/socket/stream/Socket</text>
<text text-anchor="middle" x="911" y="-331.5" font-family="Helvetica,sans-Serif" font-size="10.00">Connector.h</text>
</a>
</g>
</g>
<!-- Node1&#45;&gt;Node35 -->
<g id="edge40" class="edge">
<title>Node1&#45;&gt;Node35</title>
<path fill="none" stroke="midnightblue" d="M1025.23,-452.88C1011.96,-444.1 996.7,-433.21 984,-422 959.78,-400.64 935.54,-371.71 921.98,-354.68"/>
<polygon fill="midnightblue" stroke="midnightblue" points="1023.32,-455.82 1033.62,-458.33 1027.14,-449.95 1023.32,-455.82"/>
</g>
<!-- Node36 -->
<g id="node36" class="node">
<title>Node36</title>
<g id="a_node36"><a xlink:href="_socket_listener_8h.html" target="_top" xlink:title=" ">
<polygon fill="white" stroke="black" points="1265.5,-324.5 1265.5,-354.5 1394.5,-354.5 1394.5,-324.5 1265.5,-324.5"/>
<text text-anchor="start" x="1273.5" y="-342.5" font-family="Helvetica,sans-Serif" font-size="10.00">net/socket/stream/Socket</text>
<text text-anchor="middle" x="1330" y="-331.5" font-family="Helvetica,sans-Serif" font-size="10.00">Listener.h</text>
</a>
</g>
</g>
<!-- Node1&#45;&gt;Node36 -->
<g id="edge44" class="edge">
<title>Node1&#45;&gt;Node36</title>
<path fill="none" stroke="midnightblue" d="M1087.22,-452.73C1100.79,-443.63 1116.89,-432.54 1131,-422 1148.46,-408.96 1149.81,-401.34 1169,-391 1199.3,-374.68 1235.71,-362.7 1266.23,-354.52"/>
<polygon fill="midnightblue" stroke="midnightblue" points="1085.1,-449.94 1078.71,-458.39 1088.98,-455.76 1085.1,-449.94"/>
</g>
<!-- Node38 -->
<g id="node38" class="node">
<title>Node38</title>
<g id="a_node38"><a xlink:href="_client_context_factory_8h.html" target="_top" xlink:title=" ">
<polygon fill="white" stroke="black" points="616,-391.5 616,-421.5 738,-421.5 738,-391.5 616,-391.5"/>
<text text-anchor="start" x="624" y="-409.5" font-family="Helvetica,sans-Serif" font-size="10.00">http/client/ClientContext</text>
<text text-anchor="middle" x="677" y="-398.5" font-family="Helvetica,sans-Serif" font-size="10.00">Factory.h</text>
</a>
</g>
</g>
<!-- Node1&#45;&gt;Node38 -->
<g id="edge50" class="edge">
<title>Node1&#45;&gt;Node38</title>
<path fill="none" stroke="midnightblue" d="M981.84,-459.64C910.47,-447.44 804.51,-429.31 738.17,-417.96"/>
<polygon fill="midnightblue" stroke="midnightblue" points="981.66,-463.16 992.11,-461.4 982.84,-456.26 981.66,-463.16"/>
</g>
<!-- Node40 -->
<g id="node40" class="node">
<title>Node40</title>
<g id="a_node40"><a xlink:href="_h_t_t_p_server_context_factory_8h.html" target="_top" xlink:title=" ">
<polygon fill="white" stroke="black" points="1178,-391.5 1178,-421.5 1318,-421.5 1318,-391.5 1178,-391.5"/>
<text text-anchor="start" x="1186" y="-409.5" font-family="Helvetica,sans-Serif" font-size="10.00">http/server/http/HTTPServer</text>
<text text-anchor="middle" x="1248" y="-398.5" font-family="Helvetica,sans-Serif" font-size="10.00">ContextFactory.h</text>
</a>
</g>
</g>
<!-- Node1&#45;&gt;Node40 -->
<g id="edge54" class="edge">
<title>Node1&#45;&gt;Node40</title>
<path fill="none" stroke="midnightblue" d="M1108.15,-455.09C1138.99,-444.6 1177.75,-431.41 1206.64,-421.58"/>
<polygon fill="midnightblue" stroke="midnightblue" points="1106.78,-451.86 1098.44,-458.4 1109.04,-458.49 1106.78,-451.86"/>
</g>
<!-- Node3 -->
<g id="node3" class="node">
<title>Node3</title>
<g id="a_node3"><a xlink:href="stream_2legacy_2_socket_client_8h.html" target="_top" xlink:title=" ">
<polygon fill="white" stroke="black" points="334.5,-190.5 334.5,-220.5 461.5,-220.5 461.5,-190.5 334.5,-190.5"/>
<text text-anchor="start" x="342.5" y="-208.5" font-family="Helvetica,sans-Serif" font-size="10.00">net/socket/stream/legacy</text>
<text text-anchor="middle" x="398" y="-197.5" font-family="Helvetica,sans-Serif" font-size="10.00">/SocketClient.h</text>
</a>
</g>
</g>
<!-- Node2&#45;&gt;Node3 -->
<g id="edge2" class="edge">
<title>Node2&#45;&gt;Node3</title>
<path fill="none" stroke="midnightblue" d="M696.56,-258.53C627.83,-246.55 526.85,-228.95 461.76,-217.61"/>
<polygon fill="midnightblue" stroke="midnightblue" points="696,-261.98 706.45,-260.25 697.2,-255.09 696,-261.98"/>
</g>
<!-- Node9 -->
<g id="node9" class="node">
<title>Node9</title>
<g id="a_node9"><a xlink:href="stream_2tls_2_socket_client_8h.html" target="_top" xlink:title=" ">
<polygon fill="white" stroke="black" points="820.5,-190.5 820.5,-220.5 929.5,-220.5 929.5,-190.5 820.5,-190.5"/>
<text text-anchor="start" x="828.5" y="-208.5" font-family="Helvetica,sans-Serif" font-size="10.00">net/socket/stream/tls</text>
<text text-anchor="middle" x="875" y="-197.5" font-family="Helvetica,sans-Serif" font-size="10.00">/SocketClient.h</text>
</a>
</g>
</g>
<!-- Node2&#45;&gt;Node9 -->
<g id="edge9" class="edge">
<title>Node2&#45;&gt;Node9</title>
<path fill="none" stroke="midnightblue" d="M802.18,-252.02C818.36,-241.9 837.77,-229.77 852.48,-220.58"/>
<polygon fill="midnightblue" stroke="midnightblue" points="800.19,-249.13 793.57,-257.4 803.9,-255.06 800.19,-249.13"/>
</g>
<!-- Node4 -->
<g id="node4" class="node">
<title>Node4</title>
<g id="a_node4"><a xlink:href="bluetooth_2l2cap_2_socket_client_8h.html" target="_top" xlink:title=" ">
<polygon fill="white" stroke="black" points="268,-123.5 268,-153.5 378,-153.5 378,-123.5 268,-123.5"/>
<text text-anchor="start" x="276" y="-141.5" font-family="Helvetica,sans-Serif" font-size="10.00">net/socket/bluetooth</text>
<text text-anchor="middle" x="323" y="-130.5" font-family="Helvetica,sans-Serif" font-size="10.00">/l2cap/SocketClient.h</text>
</a>
</g>
</g>
<!-- Node3&#45;&gt;Node4 -->
<g id="edge3" class="edge">
<title>Node3&#45;&gt;Node4</title>
<path fill="none" stroke="midnightblue" d="M373.88,-183.6C362.56,-173.78 349.36,-162.34 339.24,-153.58"/>
<polygon fill="midnightblue" stroke="midnightblue" points="371.88,-186.49 381.73,-190.4 376.46,-181.2 371.88,-186.49"/>
</g>
<!-- Node5 -->
<g id="node5" class="node">
<title>Node5</title>
<g id="a_node5"><a xlink:href="bluetooth_2rfcomm_2legacy_2_socket_client_8h.html" target="_top" xlink:title=" ">
<polygon fill="white" stroke="black" points="396,-123.5 396,-153.5 548,-153.5 548,-123.5 396,-123.5"/>
<text text-anchor="start" x="404" y="-141.5" font-family="Helvetica,sans-Serif" font-size="10.00">net/socket/bluetooth</text>
<text text-anchor="middle" x="472" y="-130.5" font-family="Helvetica,sans-Serif" font-size="10.00">/rfcomm/legacy/SocketClient.h</text>
</a>
</g>
</g>
<!-- Node3&#45;&gt;Node5 -->
<g id="edge4" class="edge">
<title>Node3&#45;&gt;Node5</title>
<path fill="none" stroke="midnightblue" d="M421.8,-183.6C432.97,-173.78 445.99,-162.34 455.97,-153.58"/>
<polygon fill="midnightblue" stroke="midnightblue" points="419.26,-181.17 414.06,-190.4 423.88,-186.43 419.26,-181.17"/>
</g>
<!-- Node6 -->
<g id="node6" class="node">
<title>Node6</title>
<g id="a_node6"><a xlink:href="ip_2tcp_2ipv4_2legacy_2_socket_client_8h.html" target="_top" xlink:title=" ">
<polygon fill="white" stroke="black" points="0,-123.5 0,-153.5 116,-153.5 116,-123.5 0,-123.5"/>
<text text-anchor="start" x="8" y="-141.5" font-family="Helvetica,sans-Serif" font-size="10.00">net/socket/ip/tcp/ipv4</text>
<text text-anchor="middle" x="58" y="-130.5" font-family="Helvetica,sans-Serif" font-size="10.00">/legacy/SocketClient.h</text>
</a>
</g>
</g>
<!-- Node3&#45;&gt;Node6 -->
<g id="edge5" class="edge">
<title>Node3&#45;&gt;Node6</title>
<path fill="none" stroke="midnightblue" d="M324.45,-191.52C269.44,-181.65 192.4,-167.52 125,-154 122.08,-153.41 119.1,-152.81 116.08,-152.18"/>
<polygon fill="midnightblue" stroke="midnightblue" points="324,-194.99 334.46,-193.31 325.23,-188.1 324,-194.99"/>
</g>
<!-- Node8 -->
<g id="node8" class="node">
<title>Node8</title>
<g id="a_node8"><a xlink:href="ip_2tcp_2ipv6_2legacy_2_socket_client_8h.html" target="_top" xlink:title=" ">
<polygon fill="white" stroke="black" points="134,-123.5 134,-153.5 250,-153.5 250,-123.5 134,-123.5"/>
<text text-anchor="start" x="142" y="-141.5" font-family="Helvetica,sans-Serif" font-size="10.00">net/socket/ip/tcp/ipv6</text>
<text text-anchor="middle" x="192" y="-130.5" font-family="Helvetica,sans-Serif" font-size="10.00">/legacy/SocketClient.h</text>
</a>
</g>
</g>
<!-- Node3&#45;&gt;Node8 -->
<g id="edge7" class="edge">
<title>Node3&#45;&gt;Node8</title>
<path fill="none" stroke="midnightblue" d="M343.95,-187.44C310.55,-176.91 268.22,-163.55 236.72,-153.61"/>
<polygon fill="midnightblue" stroke="midnightblue" points="342.96,-190.8 353.55,-190.48 345.07,-184.13 342.96,-190.8"/>
</g>
<!-- Node7 -->
<g id="node7" class="node">
<title>Node7</title>
<g id="a_node7"><a xlink:href="legacy_2_client_8h.html" target="_top" xlink:title=" ">
<polygon fill="white" stroke="black" points="146.5,-56.5 146.5,-86.5 237.5,-86.5 237.5,-56.5 146.5,-56.5"/>
<text text-anchor="start" x="154.5" y="-74.5" font-family="Helvetica,sans-Serif" font-size="10.00">http/client/legacy</text>
<text text-anchor="middle" x="192" y="-63.5" font-family="Helvetica,sans-Serif" font-size="10.00">/Client.h</text>
</a>
</g>
</g>
<!-- Node6&#45;&gt;Node7 -->
<g id="edge6" class="edge">
<title>Node6&#45;&gt;Node7</title>
<path fill="none" stroke="midnightblue" d="M96.15,-118.99C117.39,-108.69 143.41,-96.07 162.98,-86.58"/>
<polygon fill="midnightblue" stroke="midnightblue" points="94.55,-115.88 87.08,-123.4 97.6,-122.18 94.55,-115.88"/>
</g>
<!-- Node8&#45;&gt;Node7 -->
<g id="edge8" class="edge">
<title>Node8&#45;&gt;Node7</title>
<path fill="none" stroke="midnightblue" d="M192,-113.11C192,-104.15 192,-94.32 192,-86.58"/>
<polygon fill="midnightblue" stroke="midnightblue" points="188.5,-113.4 192,-123.4 195.5,-113.4 188.5,-113.4"/>
</g>
<!-- Node10 -->
<g id="node10" class="node">
<title>Node10</title>
<g id="a_node10"><a xlink:href="bluetooth_2rfcomm_2tls_2_socket_client_8h.html" target="_top" xlink:title=" ">
<polygon fill="white" stroke="black" points="808,-123.5 808,-153.5 942,-153.5 942,-123.5 808,-123.5"/>
<text text-anchor="start" x="816" y="-141.5" font-family="Helvetica,sans-Serif" font-size="10.00">net/socket/bluetooth</text>
<text text-anchor="middle" x="875" y="-130.5" font-family="Helvetica,sans-Serif" font-size="10.00">/rfcomm/tls/SocketClient.h</text>
</a>
</g>
</g>
<!-- Node9&#45;&gt;Node10 -->
<g id="edge10" class="edge">
<title>Node9&#45;&gt;Node10</title>
<path fill="none" stroke="midnightblue" d="M875,-180.11C875,-171.15 875,-161.32 875,-153.58"/>
<polygon fill="midnightblue" stroke="midnightblue" points="871.5,-180.4 875,-190.4 878.5,-180.4 871.5,-180.4"/>
</g>
<!-- Node11 -->
<g id="node11" class="node">
<title>Node11</title>
<g id="a_node11"><a xlink:href="ip_2tcp_2ipv4_2tls_2_socket_client_8h.html" target="_top" xlink:title=" ">
<polygon fill="white" stroke="black" points="680,-123.5 680,-153.5 790,-153.5 790,-123.5 680,-123.5"/>
<text text-anchor="start" x="688" y="-141.5" font-family="Helvetica,sans-Serif" font-size="10.00">net/socket/ip/tcp/ipv4</text>
<text text-anchor="middle" x="735" y="-130.5" font-family="Helvetica,sans-Serif" font-size="10.00">/tls/SocketClient.h</text>
</a>
</g>
</g>
<!-- Node9&#45;&gt;Node11 -->
<g id="edge11" class="edge">
<title>Node9&#45;&gt;Node11</title>
<path fill="none" stroke="midnightblue" d="M835.43,-186.13C813.19,-175.8 785.85,-163.11 765.32,-153.58"/>
<polygon fill="midnightblue" stroke="midnightblue" points="834.08,-189.36 844.62,-190.4 837.03,-183.01 834.08,-189.36"/>
</g>
<!-- Node13 -->
<g id="node13" class="node">
<title>Node13</title>
<g id="a_node13"><a xlink:href="ip_2tcp_2ipv6_2tls_2_socket_client_8h.html" target="_top" xlink:title=" ">
<polygon fill="white" stroke="black" points="960,-123.5 960,-153.5 1070,-153.5 1070,-123.5 960,-123.5"/>
<text text-anchor="start" x="968" y="-141.5" font-family="Helvetica,sans-Serif" font-size="10.00">net/socket/ip/tcp/ipv6</text>
<text text-anchor="middle" x="1015" y="-130.5" font-family="Helvetica,sans-Serif" font-size="10.00">/tls/SocketClient.h</text>
</a>
</g>
</g>
<!-- Node9&#45;&gt;Node13 -->
<g id="edge13" class="edge">
<title>Node9&#45;&gt;Node13</title>
<path fill="none" stroke="midnightblue" d="M914.57,-186.13C936.81,-175.8 964.15,-163.11 984.68,-153.58"/>
<polygon fill="midnightblue" stroke="midnightblue" points="912.97,-183.01 905.38,-190.4 915.92,-189.36 912.97,-183.01"/>
</g>
<!-- Node12 -->
<g id="node12" class="node">
<title>Node12</title>
<g id="a_node12"><a xlink:href="tls_2_client_8h.html" target="_top" xlink:title=" ">
<polygon fill="white" stroke="black" points="680,-62 680,-81 790,-81 790,-62 680,-62"/>
<text text-anchor="middle" x="735" y="-69" font-family="Helvetica,sans-Serif" font-size="10.00">http/client/tls/Client.h</text>
</a>
</g>
</g>
<!-- Node11&#45;&gt;Node12 -->
<g id="edge12" class="edge">
<title>Node11&#45;&gt;Node12</title>
<path fill="none" stroke="midnightblue" d="M735,-113.25C735,-102.02 735,-89.38 735,-81.19"/>
<polygon fill="midnightblue" stroke="midnightblue" points="731.5,-113.4 735,-123.4 738.5,-113.4 731.5,-113.4"/>
</g>
<!-- Node13&#45;&gt;Node12 -->
<g id="edge14" class="edge">
<title>Node13&#45;&gt;Node12</title>
<path fill="none" stroke="midnightblue" d="M949.62,-122.32C894.32,-109.48 817.06,-91.55 771.9,-81.07"/>
<polygon fill="midnightblue" stroke="midnightblue" points="949.15,-125.81 959.68,-124.66 950.73,-118.99 949.15,-125.81"/>
</g>
<!-- Node15 -->
<g id="node15" class="node">
<title>Node15</title>
<g id="a_node15"><a xlink:href="legacy_2_socket_connection_8h.html" target="_top" xlink:title=" ">
<polygon fill="white" stroke="black" points="993.5,-324.5 993.5,-354.5 1120.5,-354.5 1120.5,-324.5 993.5,-324.5"/>
<text text-anchor="start" x="1001.5" y="-342.5" font-family="Helvetica,sans-Serif" font-size="10.00">net/socket/stream/legacy</text>
<text text-anchor="middle" x="1057" y="-331.5" font-family="Helvetica,sans-Serif" font-size="10.00">/SocketConnection.h</text>
</a>
</g>
</g>
<!-- Node14&#45;&gt;Node15 -->
<g id="edge16" class="edge">
<title>Node14&#45;&gt;Node15</title>
<path fill="none" stroke="midnightblue" d="M1057,-381.11C1057,-372.15 1057,-362.32 1057,-354.58"/>
<polygon fill="midnightblue" stroke="midnightblue" points="1053.5,-381.4 1057,-391.4 1060.5,-381.4 1053.5,-381.4"/>
</g>
<!-- Node25 -->
<g id="node25" class="node">
<title>Node25</title>
<g id="a_node25"><a xlink:href="tls_2_socket_connection_8h.html" target="_top" xlink:title=" ">
<polygon fill="white" stroke="black" points="1138.5,-324.5 1138.5,-354.5 1247.5,-354.5 1247.5,-324.5 1138.5,-324.5"/>
<text text-anchor="start" x="1146.5" y="-342.5" font-family="Helvetica,sans-Serif" font-size="10.00">net/socket/stream/tls</text>
<text text-anchor="middle" x="1193" y="-331.5" font-family="Helvetica,sans-Serif" font-size="10.00">/SocketConnection.h</text>
</a>
</g>
</g>
<!-- Node14&#45;&gt;Node25 -->
<g id="edge28" class="edge">
<title>Node14&#45;&gt;Node25</title>
<path fill="none" stroke="midnightblue" d="M1095.72,-386.99C1117.28,-376.69 1143.69,-364.07 1163.55,-354.58"/>
<polygon fill="midnightblue" stroke="midnightblue" points="1094.02,-383.93 1086.51,-391.4 1097.04,-390.24 1094.02,-383.93"/>
</g>
<!-- Node16 -->
<g id="node16" class="node">
<title>Node16</title>
<g id="a_node16"><a xlink:href="legacy_2_socket_connector_8h.html" target="_top" xlink:title=" ">
<polygon fill="white" stroke="black" points="853.5,-257.5 853.5,-287.5 980.5,-287.5 980.5,-257.5 853.5,-257.5"/>
<text text-anchor="start" x="861.5" y="-275.5" font-family="Helvetica,sans-Serif" font-size="10.00">net/socket/stream/legacy</text>
<text text-anchor="middle" x="917" y="-264.5" font-family="Helvetica,sans-Serif" font-size="10.00">/SocketConnector.h</text>
</a>
</g>
</g>
<!-- Node15&#45;&gt;Node16 -->
<g id="edge17" class="edge">
<title>Node15&#45;&gt;Node16</title>
<path fill="none" stroke="midnightblue" d="M1017.43,-320.13C995.19,-309.8 967.85,-297.11 947.32,-287.58"/>
<polygon fill="midnightblue" stroke="midnightblue" points="1016.08,-323.36 1026.62,-324.4 1019.03,-317.01 1016.08,-323.36"/>
</g>
<!-- Node17 -->
<g id="node17" class="node">
<title>Node17</title>
<g id="a_node17"><a xlink:href="legacy_2_socket_listener_8h.html" target="_top" xlink:title=" ">
<polygon fill="white" stroke="black" points="1130.5,-257.5 1130.5,-287.5 1257.5,-287.5 1257.5,-257.5 1130.5,-257.5"/>
<text text-anchor="start" x="1138.5" y="-275.5" font-family="Helvetica,sans-Serif" font-size="10.00">net/socket/stream/legacy</text>
<text text-anchor="middle" x="1194" y="-264.5" font-family="Helvetica,sans-Serif" font-size="10.00">/SocketListener.h</text>
</a>
</g>
</g>
<!-- Node15&#45;&gt;Node17 -->
<g id="edge19" class="edge">
<title>Node15&#45;&gt;Node17</title>
<path fill="none" stroke="midnightblue" d="M1096.01,-319.99C1117.72,-309.69 1144.33,-297.07 1164.33,-287.58"/>
<polygon fill="midnightblue" stroke="midnightblue" points="1094.26,-316.95 1086.73,-324.4 1097.26,-323.27 1094.26,-316.95"/>
</g>
<!-- Node16&#45;&gt;Node3 -->
<g id="edge18" class="edge">
<title>Node16&#45;&gt;Node3</title>
<path fill="none" stroke="midnightblue" d="M843.27,-256.81C701.53,-234.93 546.36,-219.59 461.52,-211.94"/>
<polygon fill="midnightblue" stroke="midnightblue" points="843.03,-260.31 853.45,-258.39 844.11,-253.39 843.03,-260.31"/>
</g>
<!-- Node18 -->
<g id="node18" class="node">
<title>Node18</title>
<g id="a_node18"><a xlink:href="stream_2legacy_2_socket_server_8h.html" target="_top" xlink:title=" ">
<polygon fill="white" stroke="black" points="1352.5,-190.5 1352.5,-220.5 1479.5,-220.5 1479.5,-190.5 1352.5,-190.5"/>
<text text-anchor="start" x="1360.5" y="-208.5" font-family="Helvetica,sans-Serif" font-size="10.00">net/socket/stream/legacy</text>
<text text-anchor="middle" x="1416" y="-197.5" font-family="Helvetica,sans-Serif" font-size="10.00">/SocketServer.h</text>
</a>
</g>
</g>
<!-- Node17&#45;&gt;Node18 -->
<g id="edge20" class="edge">
<title>Node17&#45;&gt;Node18</title>
<path fill="none" stroke="midnightblue" d="M1251.79,-254.58C1287.85,-244.02 1333.72,-230.59 1367.81,-220.61"/>
<polygon fill="midnightblue" stroke="midnightblue" points="1250.51,-251.31 1241.9,-257.48 1252.48,-258.02 1250.51,-251.31"/>
</g>
<!-- Node19 -->
<g id="node19" class="node">
<title>Node19</title>
<g id="a_node19"><a xlink:href="bluetooth_2l2cap_2_socket_server_8h.html" target="_top" xlink:title=" ">
<polygon fill="white" stroke="black" points="1224.5,-123.5 1224.5,-153.5 1337.5,-153.5 1337.5,-123.5 1224.5,-123.5"/>
<text text-anchor="start" x="1232.5" y="-141.5" font-family="Helvetica,sans-Serif" font-size="10.00">net/socket/bluetooth</text>
<text text-anchor="middle" x="1281" y="-130.5" font-family="Helvetica,sans-Serif" font-size="10.00">/l2cap/SocketServer.h</text>
</a>
</g>
</g>
<!-- Node18&#45;&gt;Node19 -->
<g id="edge21" class="edge">
<title>Node18&#45;&gt;Node19</title>
<path fill="none" stroke="midnightblue" d="M1377.56,-185.99C1356.16,-175.69 1329.95,-163.07 1310.24,-153.58"/>
<polygon fill="midnightblue" stroke="midnightblue" points="1376.18,-189.21 1386.71,-190.4 1379.22,-182.9 1376.18,-189.21"/>
</g>
<!-- Node20 -->
<g id="node20" class="node">
<title>Node20</title>
<g id="a_node20"><a xlink:href="bluetooth_2rfcomm_2legacy_2_socket_server_8h.html" target="_top" xlink:title=" ">
<polygon fill="white" stroke="black" points="1356,-123.5 1356,-153.5 1510,-153.5 1510,-123.5 1356,-123.5"/>
<text text-anchor="start" x="1364" y="-141.5" font-family="Helvetica,sans-Serif" font-size="10.00">net/socket/bluetooth</text>
<text text-anchor="middle" x="1433" y="-130.5" font-family="Helvetica,sans-Serif" font-size="10.00">/rfcomm/legacy/SocketServer.h</text>
</a>
</g>
</g>
<!-- Node18&#45;&gt;Node20 -->
<g id="edge22" class="edge">
<title>Node18&#45;&gt;Node20</title>
<path fill="none" stroke="midnightblue" d="M1422.23,-180.7C1424.61,-171.59 1427.25,-161.49 1429.32,-153.58"/>
<polygon fill="midnightblue" stroke="midnightblue" points="1418.83,-179.84 1419.69,-190.4 1425.61,-181.61 1418.83,-179.84"/>
</g>
<!-- Node21 -->
<g id="node21" class="node">
<title>Node21</title>
<g id="a_node21"><a xlink:href="ip_2tcp_2ipv4_2legacy_2_socket_server_8h.html" target="_top" xlink:title=" ">
<polygon fill="white" stroke="black" points="1088,-123.5 1088,-153.5 1206,-153.5 1206,-123.5 1088,-123.5"/>
<text text-anchor="start" x="1096" y="-141.5" font-family="Helvetica,sans-Serif" font-size="10.00">net/socket/ip/tcp/ipv4</text>
<text text-anchor="middle" x="1147" y="-130.5" font-family="Helvetica,sans-Serif" font-size="10.00">/legacy/SocketServer.h</text>
</a>
</g>
</g>
<!-- Node18&#45;&gt;Node21 -->
<g id="edge23" class="edge">
<title>Node18&#45;&gt;Node21</title>
<path fill="none" stroke="midnightblue" d="M1348.21,-188.12C1304.19,-177.48 1247.41,-163.76 1205.4,-153.61"/>
<polygon fill="midnightblue" stroke="midnightblue" points="1347.42,-191.53 1357.96,-190.48 1349.06,-184.73 1347.42,-191.53"/>
</g>
<!-- Node24 -->
<g id="node24" class="node">
<title>Node24</title>
<g id="a_node24"><a xlink:href="ip_2tcp_2ipv6_2legacy_2_socket_server_8h.html" target="_top" xlink:title=" ">
<polygon fill="white" stroke="black" points="1528,-123.5 1528,-153.5 1646,-153.5 1646,-123.5 1528,-123.5"/>
<text text-anchor="start" x="1536" y="-141.5" font-family="Helvetica,sans-Serif" font-size="10.00">net/socket/ip/tcp/ipv6</text>
<text text-anchor="middle" x="1587" y="-130.5" font-family="Helvetica,sans-Serif" font-size="10.00">/legacy/SocketServer.h</text>
</a>
</g>
</g>
<!-- Node18&#45;&gt;Node24 -->
<g id="edge26" class="edge">
<title>Node18&#45;&gt;Node24</title>
<path fill="none" stroke="midnightblue" d="M1462.52,-186.82C1490,-176.37 1524.33,-163.32 1549.97,-153.58"/>
<polygon fill="midnightblue" stroke="midnightblue" points="1461.21,-183.57 1453.1,-190.4 1463.7,-190.11 1461.21,-183.57"/>
</g>
<!-- Node22 -->
<g id="node22" class="node">
<title>Node22</title>
<g id="a_node22"><a xlink:href="legacy_2_server_8h.html" target="_top" xlink:title=" ">
<polygon fill="white" stroke="black" points="1539.5,-56.5 1539.5,-86.5 1634.5,-86.5 1634.5,-56.5 1539.5,-56.5"/>
<text text-anchor="start" x="1547.5" y="-74.5" font-family="Helvetica,sans-Serif" font-size="10.00">http/server/legacy</text>
<text text-anchor="middle" x="1587" y="-63.5" font-family="Helvetica,sans-Serif" font-size="10.00">/Server.h</text>
</a>
</g>
</g>
<!-- Node21&#45;&gt;Node22 -->
<g id="edge24" class="edge">
<title>Node21&#45;&gt;Node22</title>
<path fill="none" stroke="midnightblue" d="M1215.69,-123.05C1215.8,-123.04 1215.9,-123.02 1216,-123 1331.62,-103.01 1468.63,-86.1 1539.39,-77.87"/>
<polygon fill="midnightblue" stroke="midnightblue" points="1215.26,-119.58 1206.04,-124.8 1216.51,-126.46 1215.26,-119.58"/>
</g>
<!-- Node23 -->
<g id="node23" class="node">
<title>Node23</title>
<g id="a_node23"><a xlink:href="legacy_2_web_app_8h.html" target="_top" xlink:title=" ">
<polygon fill="white" stroke="black" points="1521.5,-0.5 1521.5,-19.5 1652.5,-19.5 1652.5,-0.5 1521.5,-0.5"/>
<text text-anchor="middle" x="1587" y="-7.5" font-family="Helvetica,sans-Serif" font-size="10.00">express/legacy/WebApp.h</text>
</a>
</g>
</g>
<!-- Node22&#45;&gt;Node23 -->
<g id="edge25" class="edge">
<title>Node22&#45;&gt;Node23</title>
<path fill="none" stroke="midnightblue" d="M1587,-46.29C1587,-36.86 1587,-26.65 1587,-19.66"/>
<polygon fill="midnightblue" stroke="midnightblue" points="1583.5,-46.4 1587,-56.4 1590.5,-46.4 1583.5,-46.4"/>
</g>
<!-- Node24&#45;&gt;Node22 -->
<g id="edge27" class="edge">
<title>Node24&#45;&gt;Node22</title>
<path fill="none" stroke="midnightblue" d="M1587,-113.11C1587,-104.15 1587,-94.32 1587,-86.58"/>
<polygon fill="midnightblue" stroke="midnightblue" points="1583.5,-113.4 1587,-123.4 1590.5,-113.4 1583.5,-113.4"/>
</g>
<!-- Node26 -->
<g id="node26" class="node">
<title>Node26</title>
<g id="a_node26"><a xlink:href="tls_2_socket_connector_8h.html" target="_top" xlink:title=" ">
<polygon fill="white" stroke="black" points="998.5,-257.5 998.5,-287.5 1107.5,-287.5 1107.5,-257.5 998.5,-257.5"/>
<text text-anchor="start" x="1006.5" y="-275.5" font-family="Helvetica,sans-Serif" font-size="10.00">net/socket/stream/tls</text>
<text text-anchor="middle" x="1053" y="-264.5" font-family="Helvetica,sans-Serif" font-size="10.00">/SocketConnector.h</text>
</a>
</g>
</g>
<!-- Node25&#45;&gt;Node26 -->
<g id="edge29" class="edge">
<title>Node25&#45;&gt;Node26</title>
<path fill="none" stroke="midnightblue" d="M1153.43,-320.13C1131.19,-309.8 1103.85,-297.11 1083.32,-287.58"/>
<polygon fill="midnightblue" stroke="midnightblue" points="1152.08,-323.36 1162.62,-324.4 1155.03,-317.01 1152.08,-323.36"/>
</g>
<!-- Node27 -->
<g id="node27" class="node">
<title>Node27</title>
<g id="a_node27"><a xlink:href="tls_2_socket_listener_8h.html" target="_top" xlink:title=" ">
<polygon fill="white" stroke="black" points="1275.5,-257.5 1275.5,-287.5 1384.5,-287.5 1384.5,-257.5 1275.5,-257.5"/>
<text text-anchor="start" x="1283.5" y="-275.5" font-family="Helvetica,sans-Serif" font-size="10.00">net/socket/stream/tls</text>
<text text-anchor="middle" x="1330" y="-264.5" font-family="Helvetica,sans-Serif" font-size="10.00">/SocketListener.h</text>
</a>
</g>
</g>
<!-- Node25&#45;&gt;Node27 -->
<g id="edge31" class="edge">
<title>Node25&#45;&gt;Node27</title>
<path fill="none" stroke="midnightblue" d="M1232.01,-319.99C1253.72,-309.69 1280.33,-297.07 1300.33,-287.58"/>
<polygon fill="midnightblue" stroke="midnightblue" points="1230.26,-316.95 1222.73,-324.4 1233.26,-323.27 1230.26,-316.95"/>
</g>
<!-- Node26&#45;&gt;Node9 -->
<g id="edge30" class="edge">
<title>Node26&#45;&gt;Node9</title>
<path fill="none" stroke="midnightblue" d="M1004.95,-253.96C976.28,-243.48 940.36,-230.37 913.55,-220.58"/>
<polygon fill="midnightblue" stroke="midnightblue" points="1003.78,-257.25 1014.38,-257.4 1006.18,-250.68 1003.78,-257.25"/>
</g>
<!-- Node28 -->
<g id="node28" class="node">
<title>Node28</title>
<g id="a_node28"><a xlink:href="stream_2tls_2_socket_server_8h.html" target="_top" xlink:title=" ">
<polygon fill="white" stroke="black" points="1797.5,-190.5 1797.5,-220.5 1906.5,-220.5 1906.5,-190.5 1797.5,-190.5"/>
<text text-anchor="start" x="1805.5" y="-208.5" font-family="Helvetica,sans-Serif" font-size="10.00">net/socket/stream/tls</text>
<text text-anchor="middle" x="1852" y="-197.5" font-family="Helvetica,sans-Serif" font-size="10.00">/SocketServer.h</text>
</a>
</g>
</g>
<!-- Node27&#45;&gt;Node28 -->
<g id="edge32" class="edge">
<title>Node27&#45;&gt;Node28</title>
<path fill="none" stroke="midnightblue" d="M1394.68,-257.01C1546.14,-232.04 1713.17,-217.14 1797.44,-210.51"/>
<polygon fill="midnightblue" stroke="midnightblue" points="1394.02,-253.58 1384.73,-258.67 1395.17,-260.48 1394.02,-253.58"/>
</g>
<!-- Node29 -->
<g id="node29" class="node">
<title>Node29</title>
<g id="a_node29"><a xlink:href="bluetooth_2rfcomm_2tls_2_socket_server_8h.html" target="_top" xlink:title=" ">
<polygon fill="white" stroke="black" points="1784,-123.5 1784,-153.5 1920,-153.5 1920,-123.5 1784,-123.5"/>
<text text-anchor="start" x="1792" y="-141.5" font-family="Helvetica,sans-Serif" font-size="10.00">net/socket/bluetooth</text>
<text text-anchor="middle" x="1852" y="-130.5" font-family="Helvetica,sans-Serif" font-size="10.00">/rfcomm/tls/SocketServer.h</text>
</a>
</g>
</g>
<!-- Node28&#45;&gt;Node29 -->
<g id="edge33" class="edge">
<title>Node28&#45;&gt;Node29</title>
<path fill="none" stroke="midnightblue" d="M1852,-180.11C1852,-171.15 1852,-161.32 1852,-153.58"/>
<polygon fill="midnightblue" stroke="midnightblue" points="1848.5,-180.4 1852,-190.4 1855.5,-180.4 1848.5,-180.4"/>
</g>
<!-- Node30 -->
<g id="node30" class="node">
<title>Node30</title>
<g id="a_node30"><a xlink:href="ip_2tcp_2ipv4_2tls_2_socket_server_8h.html" target="_top" xlink:title=" ">
<polygon fill="white" stroke="black" points="1938,-123.5 1938,-153.5 2048,-153.5 2048,-123.5 1938,-123.5"/>
<text text-anchor="start" x="1946" y="-141.5" font-family="Helvetica,sans-Serif" font-size="10.00">net/socket/ip/tcp/ipv4</text>
<text text-anchor="middle" x="1993" y="-130.5" font-family="Helvetica,sans-Serif" font-size="10.00">/tls/SocketServer.h</text>
</a>
</g>
</g>
<!-- Node28&#45;&gt;Node30 -->
<g id="edge34" class="edge">
<title>Node28&#45;&gt;Node30</title>
<path fill="none" stroke="midnightblue" d="M1891.85,-186.13C1914.25,-175.8 1941.78,-163.11 1962.46,-153.58"/>
<polygon fill="midnightblue" stroke="midnightblue" points="1890.21,-183.03 1882.59,-190.4 1893.14,-189.39 1890.21,-183.03"/>
</g>
<!-- Node33 -->
<g id="node33" class="node">
<title>Node33</title>
<g id="a_node33"><a xlink:href="ip_2tcp_2ipv6_2tls_2_socket_server_8h.html" target="_top" xlink:title=" ">
<polygon fill="white" stroke="black" points="2066,-123.5 2066,-153.5 2176,-153.5 2176,-123.5 2066,-123.5"/>
<text text-anchor="start" x="2074" y="-141.5" font-family="Helvetica,sans-Serif" font-size="10.00">net/socket/ip/tcp/ipv6</text>
<text text-anchor="middle" x="2121" y="-130.5" font-family="Helvetica,sans-Serif" font-size="10.00">/tls/SocketServer.h</text>
</a>
</g>
</g>
<!-- Node28&#45;&gt;Node33 -->
<g id="edge37" class="edge">
<title>Node28&#45;&gt;Node33</title>
<path fill="none" stroke="midnightblue" d="M1916.54,-188.9C1962.11,-177.89 2022.53,-163.29 2065.86,-152.82"/>
<polygon fill="midnightblue" stroke="midnightblue" points="1915.66,-185.52 1906.76,-191.27 1917.3,-192.32 1915.66,-185.52"/>
</g>
<!-- Node31 -->
<g id="node31" class="node">
<title>Node31</title>
<g id="a_node31"><a xlink:href="tls_2_server_8h.html" target="_top" xlink:title=" ">
<polygon fill="white" stroke="black" points="1935,-62 1935,-81 2051,-81 2051,-62 1935,-62"/>
<text text-anchor="middle" x="1993" y="-69" font-family="Helvetica,sans-Serif" font-size="10.00">http/server/tls/Server.h</text>
</a>
</g>
</g>
<!-- Node30&#45;&gt;Node31 -->
<g id="edge35" class="edge">
<title>Node30&#45;&gt;Node31</title>
<path fill="none" stroke="midnightblue" d="M1993,-113.25C1993,-102.02 1993,-89.38 1993,-81.19"/>
<polygon fill="midnightblue" stroke="midnightblue" points="1989.5,-113.4 1993,-123.4 1996.5,-113.4 1989.5,-113.4"/>
</g>
<!-- Node32 -->
<g id="node32" class="node">
<title>Node32</title>
<g id="a_node32"><a xlink:href="tls_2_web_app_8h.html" target="_top" xlink:title=" ">
<polygon fill="white" stroke="black" points="1936.5,-0.5 1936.5,-19.5 2049.5,-19.5 2049.5,-0.5 1936.5,-0.5"/>
<text text-anchor="middle" x="1993" y="-7.5" font-family="Helvetica,sans-Serif" font-size="10.00">express/tls/WebApp.h</text>
</a>
</g>
</g>
<!-- Node31&#45;&gt;Node32 -->
<g id="edge36" class="edge">
<title>Node31&#45;&gt;Node32</title>
<path fill="none" stroke="midnightblue" d="M1993,-51.82C1993,-41 1993,-27.9 1993,-19.51"/>
<polygon fill="midnightblue" stroke="midnightblue" points="1989.5,-51.98 1993,-61.98 1996.5,-51.98 1989.5,-51.98"/>
</g>
<!-- Node33&#45;&gt;Node31 -->
<g id="edge38" class="edge">
<title>Node33&#45;&gt;Node31</title>
<path fill="none" stroke="midnightblue" d="M2084.18,-118.8C2059.64,-106.34 2028.56,-90.56 2009.75,-81.01"/>
<polygon fill="midnightblue" stroke="midnightblue" points="2082.72,-121.99 2093.23,-123.4 2085.89,-115.75 2082.72,-121.99"/>
</g>
<!-- Node35&#45;&gt;Node2 -->
<g id="edge42" class="edge">
<title>Node35&#45;&gt;Node2</title>
<path fill="none" stroke="midnightblue" d="M871.43,-320.13C849.19,-309.8 821.85,-297.11 801.32,-287.58"/>
<polygon fill="midnightblue" stroke="midnightblue" points="870.08,-323.36 880.62,-324.4 873.03,-317.01 870.08,-323.36"/>
</g>
<!-- Node35&#45;&gt;Node16 -->
<g id="edge41" class="edge">
<title>Node35&#45;&gt;Node16</title>
<path fill="none" stroke="midnightblue" d="M913.22,-314.4C914.06,-305.37 914.98,-295.41 915.7,-287.58"/>
<polygon fill="midnightblue" stroke="midnightblue" points="909.74,-314.12 912.3,-324.4 916.71,-314.76 909.74,-314.12"/>
</g>
<!-- Node35&#45;&gt;Node26 -->
<g id="edge43" class="edge">
<title>Node35&#45;&gt;Node26</title>
<path fill="none" stroke="midnightblue" d="M951.13,-320.13C973.69,-309.8 1001.42,-297.11 1022.25,-287.58"/>
<polygon fill="midnightblue" stroke="midnightblue" points="949.45,-317.05 941.81,-324.4 952.36,-323.42 949.45,-317.05"/>
</g>
<!-- Node36&#45;&gt;Node17 -->
<g id="edge45" class="edge">
<title>Node36&#45;&gt;Node17</title>
<path fill="none" stroke="midnightblue" d="M1291.28,-319.99C1269.72,-309.69 1243.31,-297.07 1223.45,-287.58"/>
<polygon fill="midnightblue" stroke="midnightblue" points="1289.96,-323.24 1300.49,-324.4 1292.98,-316.93 1289.96,-323.24"/>
</g>
<!-- Node36&#45;&gt;Node27 -->
<g id="edge49" class="edge">
<title>Node36&#45;&gt;Node27</title>
<path fill="none" stroke="midnightblue" d="M1330,-314.11C1330,-305.15 1330,-295.32 1330,-287.58"/>
<polygon fill="midnightblue" stroke="midnightblue" points="1326.5,-314.4 1330,-324.4 1333.5,-314.4 1326.5,-314.4"/>
</g>
<!-- Node37 -->
<g id="node37" class="node">
<title>Node37</title>
<g id="a_node37"><a xlink:href="stream_2_socket_server_8h.html" target="_top" xlink:title=" ">
<polygon fill="white" stroke="black" points="1402.5,-257.5 1402.5,-287.5 1531.5,-287.5 1531.5,-257.5 1402.5,-257.5"/>
<text text-anchor="start" x="1410.5" y="-275.5" font-family="Helvetica,sans-Serif" font-size="10.00">net/socket/stream/Socket</text>
<text text-anchor="middle" x="1467" y="-264.5" font-family="Helvetica,sans-Serif" font-size="10.00">Server.h</text>
</a>
</g>
</g>
<!-- Node36&#45;&gt;Node37 -->
<g id="edge46" class="edge">
<title>Node36&#45;&gt;Node37</title>
<path fill="none" stroke="midnightblue" d="M1369.01,-319.99C1390.72,-309.69 1417.33,-297.07 1437.33,-287.58"/>
<polygon fill="midnightblue" stroke="midnightblue" points="1367.26,-316.95 1359.73,-324.4 1370.26,-323.27 1367.26,-316.95"/>
</g>
<!-- Node37&#45;&gt;Node18 -->
<g id="edge47" class="edge">
<title>Node37&#45;&gt;Node18</title>
<path fill="none" stroke="midnightblue" d="M1449.7,-249.45C1442.21,-239.9 1433.66,-229 1427.04,-220.58"/>
<polygon fill="midnightblue" stroke="midnightblue" points="1447.01,-251.69 1455.93,-257.4 1452.51,-247.37 1447.01,-251.69"/>
</g>
<!-- Node37&#45;&gt;Node28 -->
<g id="edge48" class="edge">
<title>Node37&#45;&gt;Node28</title>
<path fill="none" stroke="midnightblue" d="M1541.74,-258.88C1616.76,-246.22 1730.54,-227.01 1797.46,-215.71"/>
<polygon fill="midnightblue" stroke="midnightblue" points="1541.15,-255.43 1531.87,-260.55 1542.32,-262.33 1541.15,-255.43"/>
</g>
<!-- Node39 -->
<g id="node39" class="node">
<title>Node39</title>
<g id="a_node39"><a xlink:href="_client_8h.html" target="_top" xlink:title=" ">
<polygon fill="white" stroke="black" points="566,-129 566,-148 662,-148 662,-129 566,-129"/>
<text text-anchor="middle" x="614" y="-136" font-family="Helvetica,sans-Serif" font-size="10.00">http/client/Client.h</text>
</a>
</g>
</g>
<!-- Node38&#45;&gt;Node39 -->
<g id="edge51" class="edge">
<title>Node38&#45;&gt;Node39</title>
<path fill="none" stroke="midnightblue" d="M671.26,-381.28C657.78,-324.34 624.56,-184.08 616.02,-148.05"/>
<polygon fill="midnightblue" stroke="midnightblue" points="667.9,-382.27 673.61,-391.2 674.71,-380.66 667.9,-382.27"/>
</g>
<!-- Node39&#45;&gt;Node7 -->
<g id="edge52" class="edge">
<title>Node39&#45;&gt;Node7</title>
<path fill="none" stroke="midnightblue" d="M572.96,-126.48C567.61,-125.21 562.19,-124.02 557,-123 442.9,-100.67 306.83,-84.59 237.51,-77.14"/>
<polygon fill="midnightblue" stroke="midnightblue" points="572.53,-129.98 583.08,-128.97 574.2,-123.18 572.53,-129.98"/>
</g>
<!-- Node39&#45;&gt;Node12 -->
<g id="edge53" class="edge">
<title>Node39&#45;&gt;Node12</title>
<path fill="none" stroke="midnightblue" d="M639.21,-123.96C663.2,-111.07 698.56,-92.07 718.94,-81.13"/>
<polygon fill="midnightblue" stroke="midnightblue" points="637.47,-120.92 630.32,-128.73 640.78,-127.08 637.47,-120.92"/>
</g>
<!-- Node41 -->
<g id="node41" class="node">
<title>Node41</title>
<g id="a_node41"><a xlink:href="_server_8h.html" target="_top" xlink:title=" ">
<polygon fill="white" stroke="black" points="1664,-129 1664,-148 1766,-148 1766,-129 1664,-129"/>
<text text-anchor="middle" x="1715" y="-136" font-family="Helvetica,sans-Serif" font-size="10.00">http/server/Server.h</text>
</a>
</g>
</g>
<!-- Node40&#45;&gt;Node41 -->
<g id="edge55" class="edge">
<title>Node40&#45;&gt;Node41</title>
<path fill="none" stroke="midnightblue" d="M1307.2,-388.5C1336.65,-379.5 1372.58,-367.69 1404,-355 1466.85,-329.61 1484.33,-325.18 1541,-288 1610.4,-242.47 1682.46,-172.3 1706.58,-148.07"/>
<polygon fill="midnightblue" stroke="midnightblue" points="1306.03,-385.2 1297.47,-391.45 1308.06,-391.9 1306.03,-385.2"/>
</g>
<!-- Node41&#45;&gt;Node22 -->
<g id="edge56" class="edge">
<title>Node41&#45;&gt;Node22</title>
<path fill="none" stroke="midnightblue" d="M1688.8,-124.19C1667.27,-113.26 1636.84,-97.81 1614.87,-86.65"/>
<polygon fill="midnightblue" stroke="midnightblue" points="1687.5,-127.46 1698,-128.87 1690.67,-121.22 1687.5,-127.46"/>
</g>
<!-- Node41&#45;&gt;Node31 -->
<g id="edge57" class="edge">
<title>Node41&#45;&gt;Node31</title>
<path fill="none" stroke="midnightblue" d="M1760.29,-126.51C1765.25,-125.32 1770.23,-124.13 1775,-123 1838.32,-108.01 1912.11,-91.02 1955.56,-81.06"/>
<polygon fill="midnightblue" stroke="midnightblue" points="1759.11,-123.19 1750.2,-128.93 1760.74,-130 1759.11,-123.19"/>
</g>
</g>
</svg>
