<?xml version="1.0" encoding="UTF-8" standalone="no"?>
<!DOCTYPE svg PUBLIC "-//W3C//DTD SVG 1.1//EN"
 "http://www.w3.org/Graphics/SVG/1.1/DTD/svg11.dtd">
<!-- Generated by graphviz version 2.43.0 (0)
 -->
<!-- Title: net/socket/stream/SocketProtocol.h Pages: 1 -->
<svg width="2710pt" height="441pt"
 viewBox="0.00 0.00 2710.00 441.00" xmlns="http://www.w3.org/2000/svg" xmlns:xlink="http://www.w3.org/1999/xlink">
<g id="graph0" class="graph" transform="scale(1 1) rotate(0) translate(4 437)">
<title>net/socket/stream/SocketProtocol.h</title>
<polygon fill="white" stroke="transparent" points="-4,4 -4,-437 2706,-437 2706,4 -4,4"/>
<!-- Node1 -->
<g id="node1" class="node">
<title>Node1</title>
<g id="a_node1"><a xlink:title=" ">
<polygon fill="#bfbfbf" stroke="black" points="2036.5,-402.5 2036.5,-432.5 2165.5,-432.5 2165.5,-402.5 2036.5,-402.5"/>
<text text-anchor="start" x="2044.5" y="-420.5" font-family="Helvetica,sans-Serif" font-size="10.00">net/socket/stream/Socket</text>
<text text-anchor="middle" x="2101" y="-409.5" font-family="Helvetica,sans-Serif" font-size="10.00">Protocol.h</text>
</a>
</g>
</g>
<!-- Node2 -->
<g id="node2" class="node">
<title>Node2</title>
<g id="a_node2"><a xlink:href="_socket_connection_8h.html" target="_top" xlink:title=" ">
<polygon fill="white" stroke="black" points="1207.5,-335.5 1207.5,-365.5 1336.5,-365.5 1336.5,-335.5 1207.5,-335.5"/>
<text text-anchor="start" x="1215.5" y="-353.5" font-family="Helvetica,sans-Serif" font-size="10.00">net/socket/stream/Socket</text>
<text text-anchor="middle" x="1272" y="-342.5" font-family="Helvetica,sans-Serif" font-size="10.00">Connection.h</text>
</a>
</g>
</g>
<!-- Node1&#45;&gt;Node2 -->
<g id="edge1" class="edge">
<title>Node1&#45;&gt;Node2</title>
<path fill="none" stroke="midnightblue" d="M2026,-410.62C1864.83,-397.98 1487.84,-368.42 1336.53,-356.56"/>
<polygon fill="midnightblue" stroke="midnightblue" points="2026.05,-414.13 2036.3,-411.43 2026.6,-407.16 2026.05,-414.13"/>
</g>
<!-- Node33 -->
<g id="node30" class="node">
<title>Node33</title>
<g id="a_node30"><a xlink:href="_socket_connection_base_8cpp.html" target="_top" xlink:title=" ">
<polygon fill="white" stroke="black" points="2246.5,-335.5 2246.5,-365.5 2375.5,-365.5 2375.5,-335.5 2246.5,-335.5"/>
<text text-anchor="start" x="2254.5" y="-353.5" font-family="Helvetica,sans-Serif" font-size="10.00">net/socket/stream/Socket</text>
<text text-anchor="middle" x="2311" y="-342.5" font-family="Helvetica,sans-Serif" font-size="10.00">ConnectionBase.cpp</text>
</a>
</g>
</g>
<!-- Node1&#45;&gt;Node33 -->
<g id="edge32" class="edge">
<title>Node1&#45;&gt;Node33</title>
<path fill="none" stroke="midnightblue" d="M2156.1,-399.44C2190.14,-388.91 2233.3,-375.55 2265.41,-365.61"/>
<polygon fill="midnightblue" stroke="midnightblue" points="2154.83,-396.18 2146.31,-402.48 2156.9,-402.86 2154.83,-396.18"/>
</g>
<!-- Node34 -->
<g id="node31" class="node">
<title>Node34</title>
<g id="a_node31"><a xlink:href="_socket_protocol_8cpp.html" target="_top" xlink:title=" ">
<polygon fill="white" stroke="black" points="2393.5,-335.5 2393.5,-365.5 2522.5,-365.5 2522.5,-335.5 2393.5,-335.5"/>
<text text-anchor="start" x="2401.5" y="-353.5" font-family="Helvetica,sans-Serif" font-size="10.00">net/socket/stream/Socket</text>
<text text-anchor="middle" x="2458" y="-342.5" font-family="Helvetica,sans-Serif" font-size="10.00">Protocol.cpp</text>
</a>
</g>
</g>
<!-- Node1&#45;&gt;Node34 -->
<g id="edge33" class="edge">
<title>Node1&#45;&gt;Node34</title>
<path fill="none" stroke="midnightblue" d="M2175.7,-403.64C2233.02,-393.67 2314.08,-379.35 2385,-366 2387.67,-365.5 2390.39,-364.98 2393.13,-364.45"/>
<polygon fill="midnightblue" stroke="midnightblue" points="2174.9,-400.23 2165.64,-405.39 2176.09,-407.12 2174.9,-400.23"/>
</g>
<!-- Node35 -->
<g id="node32" class="node">
<title>Node35</title>
<g id="a_node32"><a xlink:href="_client_context_8h.html" target="_top" xlink:title=" ">
<polygon fill="white" stroke="black" points="460,-207 460,-226 612,-226 612,-207 460,-207"/>
<text text-anchor="middle" x="536" y="-214" font-family="Helvetica,sans-Serif" font-size="10.00">web/http/client/ClientContext.h</text>
</a>
</g>
</g>
<!-- Node1&#45;&gt;Node35 -->
<g id="edge34" class="edge">
<title>Node1&#45;&gt;Node35</title>
<path fill="none" stroke="midnightblue" d="M2025.98,-414.53C1871.1,-409.98 1504.87,-396.68 1199,-366 992.55,-345.29 937.26,-353.26 737,-299 666.31,-279.84 587.01,-242.75 552.99,-226.03"/>
<polygon fill="midnightblue" stroke="midnightblue" points="2026.22,-418.04 2036.32,-414.83 2026.42,-411.05 2026.22,-418.04"/>
</g>
<!-- Node40 -->
<g id="node37" class="node">
<title>Node40</title>
<g id="a_node37"><a xlink:href="_h_t_t_p_server_context_8h.html" target="_top" xlink:title=" ">
<polygon fill="white" stroke="black" points="1885,-268.5 1885,-298.5 2027,-298.5 2027,-268.5 1885,-268.5"/>
<text text-anchor="start" x="1893" y="-286.5" font-family="Helvetica,sans-Serif" font-size="10.00">web/http/server/HTTPServer</text>
<text text-anchor="middle" x="1956" y="-275.5" font-family="Helvetica,sans-Serif" font-size="10.00">Context.h</text>
</a>
</g>
</g>
<!-- Node1&#45;&gt;Node40 -->
<g id="edge42" class="edge">
<title>Node1&#45;&gt;Node40</title>
<path fill="none" stroke="midnightblue" d="M2078.03,-395.59C2048.21,-368.44 1996.95,-321.78 1971.41,-298.52"/>
<polygon fill="midnightblue" stroke="midnightblue" points="2075.73,-398.23 2085.48,-402.37 2080.44,-393.05 2075.73,-398.23"/>
</g>
<!-- Node47 -->
<g id="node44" class="node">
<title>Node47</title>
<g id="a_node44"><a xlink:href="_w_s_context_8h.html" target="_top" xlink:title=" ">
<polygon fill="white" stroke="black" points="2115.5,-341 2115.5,-360 2228.5,-360 2228.5,-341 2115.5,-341"/>
<text text-anchor="middle" x="2172" y="-348" font-family="Helvetica,sans-Serif" font-size="10.00">web/ws/WSContext.h</text>
</a>
</g>
</g>
<!-- Node1&#45;&gt;Node47 -->
<g id="edge52" class="edge">
<title>Node1&#45;&gt;Node47</title>
<path fill="none" stroke="midnightblue" d="M2124.12,-395.34C2137.15,-383.4 2152.74,-369.14 2162.5,-360.19"/>
<polygon fill="midnightblue" stroke="midnightblue" points="2121.42,-393.06 2116.41,-402.4 2126.15,-398.22 2121.42,-393.06"/>
</g>
<!-- Node3 -->
<g id="node3" class="node">
<title>Node3</title>
<g id="a_node3"><a xlink:href="legacy_2_socket_connection_8h.html" target="_top" xlink:title=" ">
<polygon fill="white" stroke="black" points="1208.5,-268.5 1208.5,-298.5 1335.5,-298.5 1335.5,-268.5 1208.5,-268.5"/>
<text text-anchor="start" x="1216.5" y="-286.5" font-family="Helvetica,sans-Serif" font-size="10.00">net/socket/stream/legacy</text>
<text text-anchor="middle" x="1272" y="-275.5" font-family="Helvetica,sans-Serif" font-size="10.00">/SocketConnection.h</text>
</a>
</g>
</g>
<!-- Node2&#45;&gt;Node3 -->
<g id="edge2" class="edge">
<title>Node2&#45;&gt;Node3</title>
<path fill="none" stroke="midnightblue" d="M1272,-325.11C1272,-316.15 1272,-306.32 1272,-298.58"/>
<polygon fill="midnightblue" stroke="midnightblue" points="1268.5,-325.4 1272,-335.4 1275.5,-325.4 1268.5,-325.4"/>
</g>
<!-- Node19 -->
<g id="node18" class="node">
<title>Node19</title>
<g id="a_node18"><a xlink:href="tls_2_socket_connection_8h.html" target="_top" xlink:title=" ">
<polygon fill="white" stroke="black" points="746.5,-268.5 746.5,-298.5 855.5,-298.5 855.5,-268.5 746.5,-268.5"/>
<text text-anchor="start" x="754.5" y="-286.5" font-family="Helvetica,sans-Serif" font-size="10.00">net/socket/stream/tls</text>
<text text-anchor="middle" x="801" y="-275.5" font-family="Helvetica,sans-Serif" font-size="10.00">/SocketConnection.h</text>
</a>
</g>
</g>
<!-- Node2&#45;&gt;Node19 -->
<g id="edge19" class="edge">
<title>Node2&#45;&gt;Node19</title>
<path fill="none" stroke="midnightblue" d="M1197.37,-339.2C1102.22,-326.07 939.97,-303.68 855.59,-292.03"/>
<polygon fill="midnightblue" stroke="midnightblue" points="1197.11,-342.7 1207.5,-340.6 1198.07,-335.76 1197.11,-342.7"/>
</g>
<!-- Node4 -->
<g id="node4" class="node">
<title>Node4</title>
<g id="a_node4"><a xlink:href="legacy_2_socket_connector_8h.html" target="_top" xlink:title=" ">
<polygon fill="white" stroke="black" points="1156.5,-201.5 1156.5,-231.5 1283.5,-231.5 1283.5,-201.5 1156.5,-201.5"/>
<text text-anchor="start" x="1164.5" y="-219.5" font-family="Helvetica,sans-Serif" font-size="10.00">net/socket/stream/legacy</text>
<text text-anchor="middle" x="1220" y="-208.5" font-family="Helvetica,sans-Serif" font-size="10.00">/SocketConnector.h</text>
</a>
</g>
</g>
<!-- Node3&#45;&gt;Node4 -->
<g id="edge3" class="edge">
<title>Node3&#45;&gt;Node4</title>
<path fill="none" stroke="midnightblue" d="M1254.36,-260.45C1246.72,-250.9 1238,-240 1231.26,-231.58"/>
<polygon fill="midnightblue" stroke="midnightblue" points="1251.74,-262.77 1260.72,-268.4 1257.2,-258.4 1251.74,-262.77"/>
</g>
<!-- Node11 -->
<g id="node11" class="node">
<title>Node11</title>
<g id="a_node11"><a xlink:href="legacy_2_socket_listener_8h.html" target="_top" xlink:title=" ">
<polygon fill="white" stroke="black" points="1322.5,-201.5 1322.5,-231.5 1449.5,-231.5 1449.5,-201.5 1322.5,-201.5"/>
<text text-anchor="start" x="1330.5" y="-219.5" font-family="Helvetica,sans-Serif" font-size="10.00">net/socket/stream/legacy</text>
<text text-anchor="middle" x="1386" y="-208.5" font-family="Helvetica,sans-Serif" font-size="10.00">/SocketListener.h</text>
</a>
</g>
</g>
<!-- Node3&#45;&gt;Node11 -->
<g id="edge11" class="edge">
<title>Node3&#45;&gt;Node11</title>
<path fill="none" stroke="midnightblue" d="M1305.68,-263.3C1323.52,-253.12 1345.04,-240.85 1361.31,-231.58"/>
<polygon fill="midnightblue" stroke="midnightblue" points="1303.69,-260.4 1296.74,-268.4 1307.16,-266.48 1303.69,-260.4"/>
</g>
<!-- Node5 -->
<g id="node5" class="node">
<title>Node5</title>
<g id="a_node5"><a xlink:href="stream_2legacy_2_socket_client_8h.html" target="_top" xlink:title=" ">
<polygon fill="white" stroke="black" points="1115.5,-134.5 1115.5,-164.5 1242.5,-164.5 1242.5,-134.5 1115.5,-134.5"/>
<text text-anchor="start" x="1123.5" y="-152.5" font-family="Helvetica,sans-Serif" font-size="10.00">net/socket/stream/legacy</text>
<text text-anchor="middle" x="1179" y="-141.5" font-family="Helvetica,sans-Serif" font-size="10.00">/SocketClient.h</text>
</a>
</g>
</g>
<!-- Node4&#45;&gt;Node5 -->
<g id="edge4" class="edge">
<title>Node4&#45;&gt;Node5</title>
<path fill="none" stroke="midnightblue" d="M1205.72,-192.87C1199.79,-183.46 1193.09,-172.83 1187.88,-164.58"/>
<polygon fill="midnightblue" stroke="midnightblue" points="1202.81,-194.81 1211.1,-201.4 1208.73,-191.07 1202.81,-194.81"/>
</g>
<!-- Node6 -->
<g id="node6" class="node">
<title>Node6</title>
<g id="a_node6"><a xlink:href="bluetooth_2l2cap_2_socket_client_8h.html" target="_top" xlink:title=" ">
<polygon fill="white" stroke="black" points="1273,-67.5 1273,-97.5 1383,-97.5 1383,-67.5 1273,-67.5"/>
<text text-anchor="start" x="1281" y="-85.5" font-family="Helvetica,sans-Serif" font-size="10.00">net/socket/bluetooth</text>
<text text-anchor="middle" x="1328" y="-74.5" font-family="Helvetica,sans-Serif" font-size="10.00">/l2cap/SocketClient.h</text>
</a>
</g>
</g>
<!-- Node5&#45;&gt;Node6 -->
<g id="edge5" class="edge">
<title>Node5&#45;&gt;Node6</title>
<path fill="none" stroke="midnightblue" d="M1220.79,-130.27C1244.52,-119.92 1273.78,-107.15 1295.73,-97.58"/>
<polygon fill="midnightblue" stroke="midnightblue" points="1219.1,-127.19 1211.33,-134.4 1221.9,-133.61 1219.1,-127.19"/>
</g>
<!-- Node7 -->
<g id="node7" class="node">
<title>Node7</title>
<g id="a_node7"><a xlink:href="bluetooth_2rfcomm_2legacy_2_socket_client_8h.html" target="_top" xlink:title=" ">
<polygon fill="white" stroke="black" points="1103,-67.5 1103,-97.5 1255,-97.5 1255,-67.5 1103,-67.5"/>
<text text-anchor="start" x="1111" y="-85.5" font-family="Helvetica,sans-Serif" font-size="10.00">net/socket/bluetooth</text>
<text text-anchor="middle" x="1179" y="-74.5" font-family="Helvetica,sans-Serif" font-size="10.00">/rfcomm/legacy/SocketClient.h</text>
</a>
</g>
</g>
<!-- Node5&#45;&gt;Node7 -->
<g id="edge6" class="edge">
<title>Node5&#45;&gt;Node7</title>
<path fill="none" stroke="midnightblue" d="M1179,-124.11C1179,-115.15 1179,-105.32 1179,-97.58"/>
<polygon fill="midnightblue" stroke="midnightblue" points="1175.5,-124.4 1179,-134.4 1182.5,-124.4 1175.5,-124.4"/>
</g>
<!-- Node8 -->
<g id="node8" class="node">
<title>Node8</title>
<g id="a_node8"><a xlink:href="ip_2tcp_2ipv4_2legacy_2_socket_client_8h.html" target="_top" xlink:title=" ">
<polygon fill="white" stroke="black" points="835,-67.5 835,-97.5 951,-97.5 951,-67.5 835,-67.5"/>
<text text-anchor="start" x="843" y="-85.5" font-family="Helvetica,sans-Serif" font-size="10.00">net/socket/ip/tcp/ipv4</text>
<text text-anchor="middle" x="893" y="-74.5" font-family="Helvetica,sans-Serif" font-size="10.00">/legacy/SocketClient.h</text>
</a>
</g>
</g>
<!-- Node5&#45;&gt;Node8 -->
<g id="edge7" class="edge">
<title>Node5&#45;&gt;Node8</title>
<path fill="none" stroke="midnightblue" d="M1107.54,-132.26C1059.28,-121.29 996.38,-107 951.18,-96.72"/>
<polygon fill="midnightblue" stroke="midnightblue" points="1106.77,-135.67 1117.29,-134.48 1108.32,-128.85 1106.77,-135.67"/>
</g>
<!-- Node10 -->
<g id="node10" class="node">
<title>Node10</title>
<g id="a_node10"><a xlink:href="ip_2tcp_2ipv6_2legacy_2_socket_client_8h.html" target="_top" xlink:title=" ">
<polygon fill="white" stroke="black" points="969,-67.5 969,-97.5 1085,-97.5 1085,-67.5 969,-67.5"/>
<text text-anchor="start" x="977" y="-85.5" font-family="Helvetica,sans-Serif" font-size="10.00">net/socket/ip/tcp/ipv6</text>
<text text-anchor="middle" x="1027" y="-74.5" font-family="Helvetica,sans-Serif" font-size="10.00">/legacy/SocketClient.h</text>
</a>
</g>
</g>
<!-- Node5&#45;&gt;Node10 -->
<g id="edge9" class="edge">
<title>Node5&#45;&gt;Node10</title>
<path fill="none" stroke="midnightblue" d="M1136.69,-130.41C1112.42,-120.03 1082.41,-107.2 1059.92,-97.58"/>
<polygon fill="midnightblue" stroke="midnightblue" points="1135.45,-133.68 1146.02,-134.4 1138.2,-127.25 1135.45,-133.68"/>
</g>
<!-- Node9 -->
<g id="node9" class="node">
<title>Node9</title>
<g id="a_node9"><a xlink:href="legacy_2_client_8h.html" target="_top" xlink:title=" ">
<polygon fill="white" stroke="black" points="837,-0.5 837,-30.5 949,-30.5 949,-0.5 837,-0.5"/>
<text text-anchor="start" x="845" y="-18.5" font-family="Helvetica,sans-Serif" font-size="10.00">web/http/client/legacy</text>
<text text-anchor="middle" x="893" y="-7.5" font-family="Helvetica,sans-Serif" font-size="10.00">/Client.h</text>
</a>
</g>
</g>
<!-- Node8&#45;&gt;Node9 -->
<g id="edge8" class="edge">
<title>Node8&#45;&gt;Node9</title>
<path fill="none" stroke="midnightblue" d="M893,-57.11C893,-48.15 893,-38.32 893,-30.58"/>
<polygon fill="midnightblue" stroke="midnightblue" points="889.5,-57.4 893,-67.4 896.5,-57.4 889.5,-57.4"/>
</g>
<!-- Node10&#45;&gt;Node9 -->
<g id="edge10" class="edge">
<title>Node10&#45;&gt;Node9</title>
<path fill="none" stroke="midnightblue" d="M988.85,-62.99C967.61,-52.69 941.59,-40.07 922.02,-30.58"/>
<polygon fill="midnightblue" stroke="midnightblue" points="987.4,-66.18 997.92,-67.4 990.45,-59.88 987.4,-66.18"/>
</g>
<!-- Node12 -->
<g id="node12" class="node">
<title>Node12</title>
<g id="a_node12"><a xlink:href="stream_2legacy_2_socket_server_8h.html" target="_top" xlink:title=" ">
<polygon fill="white" stroke="black" points="1546.5,-134.5 1546.5,-164.5 1673.5,-164.5 1673.5,-134.5 1546.5,-134.5"/>
<text text-anchor="start" x="1554.5" y="-152.5" font-family="Helvetica,sans-Serif" font-size="10.00">net/socket/stream/legacy</text>
<text text-anchor="middle" x="1610" y="-141.5" font-family="Helvetica,sans-Serif" font-size="10.00">/SocketServer.h</text>
</a>
</g>
</g>
<!-- Node11&#45;&gt;Node12 -->
<g id="edge12" class="edge">
<title>Node11&#45;&gt;Node12</title>
<path fill="none" stroke="midnightblue" d="M1444.31,-198.58C1480.69,-188.02 1526.97,-174.59 1561.37,-164.61"/>
<polygon fill="midnightblue" stroke="midnightblue" points="1442.96,-195.33 1434.33,-201.48 1444.91,-202.05 1442.96,-195.33"/>
</g>
<!-- Node13 -->
<g id="node13" class="node">
<title>Node13</title>
<g id="a_node13"><a xlink:href="bluetooth_2l2cap_2_socket_server_8h.html" target="_top" xlink:title=" ">
<polygon fill="white" stroke="black" points="1401.5,-67.5 1401.5,-97.5 1514.5,-97.5 1514.5,-67.5 1401.5,-67.5"/>
<text text-anchor="start" x="1409.5" y="-85.5" font-family="Helvetica,sans-Serif" font-size="10.00">net/socket/bluetooth</text>
<text text-anchor="middle" x="1458" y="-74.5" font-family="Helvetica,sans-Serif" font-size="10.00">/l2cap/SocketServer.h</text>
</a>
</g>
</g>
<!-- Node12&#45;&gt;Node13 -->
<g id="edge13" class="edge">
<title>Node12&#45;&gt;Node13</title>
<path fill="none" stroke="midnightblue" d="M1567.69,-130.41C1543.42,-120.03 1513.41,-107.2 1490.92,-97.58"/>
<polygon fill="midnightblue" stroke="midnightblue" points="1566.45,-133.68 1577.02,-134.4 1569.2,-127.25 1566.45,-133.68"/>
</g>
<!-- Node14 -->
<g id="node14" class="node">
<title>Node14</title>
<g id="a_node14"><a xlink:href="bluetooth_2rfcomm_2legacy_2_socket_server_8h.html" target="_top" xlink:title=" ">
<polygon fill="white" stroke="black" points="1533,-67.5 1533,-97.5 1687,-97.5 1687,-67.5 1533,-67.5"/>
<text text-anchor="start" x="1541" y="-85.5" font-family="Helvetica,sans-Serif" font-size="10.00">net/socket/bluetooth</text>
<text text-anchor="middle" x="1610" y="-74.5" font-family="Helvetica,sans-Serif" font-size="10.00">/rfcomm/legacy/SocketServer.h</text>
</a>
</g>
</g>
<!-- Node12&#45;&gt;Node14 -->
<g id="edge14" class="edge">
<title>Node12&#45;&gt;Node14</title>
<path fill="none" stroke="midnightblue" d="M1610,-124.11C1610,-115.15 1610,-105.32 1610,-97.58"/>
<polygon fill="midnightblue" stroke="midnightblue" points="1606.5,-124.4 1610,-134.4 1613.5,-124.4 1606.5,-124.4"/>
</g>
<!-- Node15 -->
<g id="node15" class="node">
<title>Node15</title>
<g id="a_node15"><a xlink:href="ip_2tcp_2ipv4_2legacy_2_socket_server_8h.html" target="_top" xlink:title=" ">
<polygon fill="white" stroke="black" points="1705,-67.5 1705,-97.5 1823,-97.5 1823,-67.5 1705,-67.5"/>
<text text-anchor="start" x="1713" y="-85.5" font-family="Helvetica,sans-Serif" font-size="10.00">net/socket/ip/tcp/ipv4</text>
<text text-anchor="middle" x="1764" y="-74.5" font-family="Helvetica,sans-Serif" font-size="10.00">/legacy/SocketServer.h</text>
</a>
</g>
</g>
<!-- Node12&#45;&gt;Node15 -->
<g id="edge15" class="edge">
<title>Node12&#45;&gt;Node15</title>
<path fill="none" stroke="midnightblue" d="M1652.87,-130.41C1677.45,-120.03 1707.86,-107.2 1730.65,-97.58"/>
<polygon fill="midnightblue" stroke="midnightblue" points="1651.27,-127.28 1643.42,-134.4 1653.99,-133.73 1651.27,-127.28"/>
</g>
<!-- Node18 -->
<g id="node17" class="node">
<title>Node18</title>
<g id="a_node17"><a xlink:href="ip_2tcp_2ipv6_2legacy_2_socket_server_8h.html" target="_top" xlink:title=" ">
<polygon fill="white" stroke="black" points="1879,-67.5 1879,-97.5 1997,-97.5 1997,-67.5 1879,-67.5"/>
<text text-anchor="start" x="1887" y="-85.5" font-family="Helvetica,sans-Serif" font-size="10.00">net/socket/ip/tcp/ipv6</text>
<text text-anchor="middle" x="1938" y="-74.5" font-family="Helvetica,sans-Serif" font-size="10.00">/legacy/SocketServer.h</text>
</a>
</g>
</g>
<!-- Node12&#45;&gt;Node18 -->
<g id="edge17" class="edge">
<title>Node12&#45;&gt;Node18</title>
<path fill="none" stroke="midnightblue" d="M1683.63,-133.91C1742.59,-122.22 1824.23,-106.05 1878.96,-95.2"/>
<polygon fill="midnightblue" stroke="midnightblue" points="1682.76,-130.51 1673.63,-135.89 1684.12,-137.38 1682.76,-130.51"/>
</g>
<!-- Node16 -->
<g id="node16" class="node">
<title>Node16</title>
<g id="a_node16"><a xlink:href="legacy_2_server_8h.html" target="_top" xlink:title=" ">
<polygon fill="white" stroke="red" points="1880,-0.5 1880,-30.5 1996,-30.5 1996,-0.5 1880,-0.5"/>
<text text-anchor="start" x="1888" y="-18.5" font-family="Helvetica,sans-Serif" font-size="10.00">web/http/server/legacy</text>
<text text-anchor="middle" x="1938" y="-7.5" font-family="Helvetica,sans-Serif" font-size="10.00">/Server.h</text>
</a>
</g>
</g>
<!-- Node15&#45;&gt;Node16 -->
<g id="edge16" class="edge">
<title>Node15&#45;&gt;Node16</title>
<path fill="none" stroke="midnightblue" d="M1811.33,-63.82C1839.3,-53.37 1874.23,-40.32 1900.32,-30.58"/>
<polygon fill="midnightblue" stroke="midnightblue" points="1809.9,-60.62 1801.76,-67.4 1812.35,-67.18 1809.9,-60.62"/>
</g>
<!-- Node18&#45;&gt;Node16 -->
<g id="edge18" class="edge">
<title>Node18&#45;&gt;Node16</title>
<path fill="none" stroke="midnightblue" d="M1938,-57.11C1938,-48.15 1938,-38.32 1938,-30.58"/>
<polygon fill="midnightblue" stroke="midnightblue" points="1934.5,-57.4 1938,-67.4 1941.5,-57.4 1934.5,-57.4"/>
</g>
<!-- Node20 -->
<g id="node19" class="node">
<title>Node20</title>
<g id="a_node19"><a xlink:href="tls_2_socket_connector_8h.html" target="_top" xlink:title=" ">
<polygon fill="white" stroke="black" points="256.5,-201.5 256.5,-231.5 365.5,-231.5 365.5,-201.5 256.5,-201.5"/>
<text text-anchor="start" x="264.5" y="-219.5" font-family="Helvetica,sans-Serif" font-size="10.00">net/socket/stream/tls</text>
<text text-anchor="middle" x="311" y="-208.5" font-family="Helvetica,sans-Serif" font-size="10.00">/SocketConnector.h</text>
</a>
</g>
</g>
<!-- Node19&#45;&gt;Node20 -->
<g id="edge20" class="edge">
<title>Node19&#45;&gt;Node20</title>
<path fill="none" stroke="midnightblue" d="M736.22,-273.91C638.94,-261 456.87,-236.85 365.8,-224.77"/>
<polygon fill="midnightblue" stroke="midnightblue" points="735.84,-277.39 746.22,-275.23 736.76,-270.45 735.84,-277.39"/>
</g>
<!-- Node26 -->
<g id="node25" class="node">
<title>Node26</title>
<g id="a_node25"><a xlink:href="tls_2_socket_listener_8h.html" target="_top" xlink:title=" ">
<polygon fill="white" stroke="black" points="746.5,-201.5 746.5,-231.5 855.5,-231.5 855.5,-201.5 746.5,-201.5"/>
<text text-anchor="start" x="754.5" y="-219.5" font-family="Helvetica,sans-Serif" font-size="10.00">net/socket/stream/tls</text>
<text text-anchor="middle" x="801" y="-208.5" font-family="Helvetica,sans-Serif" font-size="10.00">/SocketListener.h</text>
</a>
</g>
</g>
<!-- Node19&#45;&gt;Node26 -->
<g id="edge27" class="edge">
<title>Node19&#45;&gt;Node26</title>
<path fill="none" stroke="midnightblue" d="M801,-258.11C801,-249.15 801,-239.32 801,-231.58"/>
<polygon fill="midnightblue" stroke="midnightblue" points="797.5,-258.4 801,-268.4 804.5,-258.4 797.5,-258.4"/>
</g>
<!-- Node21 -->
<g id="node20" class="node">
<title>Node21</title>
<g id="a_node20"><a xlink:href="stream_2tls_2_socket_client_8h.html" target="_top" xlink:title=" ">
<polygon fill="white" stroke="black" points="120.5,-134.5 120.5,-164.5 229.5,-164.5 229.5,-134.5 120.5,-134.5"/>
<text text-anchor="start" x="128.5" y="-152.5" font-family="Helvetica,sans-Serif" font-size="10.00">net/socket/stream/tls</text>
<text text-anchor="middle" x="175" y="-141.5" font-family="Helvetica,sans-Serif" font-size="10.00">/SocketClient.h</text>
</a>
</g>
</g>
<!-- Node20&#45;&gt;Node21 -->
<g id="edge21" class="edge">
<title>Node20&#45;&gt;Node21</title>
<path fill="none" stroke="midnightblue" d="M272.28,-196.99C250.72,-186.69 224.31,-174.07 204.45,-164.58"/>
<polygon fill="midnightblue" stroke="midnightblue" points="270.96,-200.24 281.49,-201.4 273.98,-193.93 270.96,-200.24"/>
</g>
<!-- Node22 -->
<g id="node21" class="node">
<title>Node22</title>
<g id="a_node21"><a xlink:href="bluetooth_2rfcomm_2tls_2_socket_client_8h.html" target="_top" xlink:title=" ">
<polygon fill="white" stroke="black" points="256,-67.5 256,-97.5 390,-97.5 390,-67.5 256,-67.5"/>
<text text-anchor="start" x="264" y="-85.5" font-family="Helvetica,sans-Serif" font-size="10.00">net/socket/bluetooth</text>
<text text-anchor="middle" x="323" y="-74.5" font-family="Helvetica,sans-Serif" font-size="10.00">/rfcomm/tls/SocketClient.h</text>
</a>
</g>
</g>
<!-- Node21&#45;&gt;Node22 -->
<g id="edge22" class="edge">
<title>Node21&#45;&gt;Node22</title>
<path fill="none" stroke="midnightblue" d="M216.51,-130.27C240.08,-119.92 269.14,-107.15 290.95,-97.58"/>
<polygon fill="midnightblue" stroke="midnightblue" points="214.86,-127.17 207.11,-134.4 217.68,-133.58 214.86,-127.17"/>
</g>
<!-- Node23 -->
<g id="node22" class="node">
<title>Node23</title>
<g id="a_node22"><a xlink:href="ip_2tcp_2ipv4_2tls_2_socket_client_8h.html" target="_top" xlink:title=" ">
<polygon fill="white" stroke="black" points="0,-67.5 0,-97.5 110,-97.5 110,-67.5 0,-67.5"/>
<text text-anchor="start" x="8" y="-85.5" font-family="Helvetica,sans-Serif" font-size="10.00">net/socket/ip/tcp/ipv4</text>
<text text-anchor="middle" x="55" y="-74.5" font-family="Helvetica,sans-Serif" font-size="10.00">/tls/SocketClient.h</text>
</a>
</g>
</g>
<!-- Node21&#45;&gt;Node23 -->
<g id="edge23" class="edge">
<title>Node21&#45;&gt;Node23</title>
<path fill="none" stroke="midnightblue" d="M140.06,-129.57C121.18,-119.35 98.27,-106.94 80.99,-97.58"/>
<polygon fill="midnightblue" stroke="midnightblue" points="138.5,-132.71 148.96,-134.4 141.84,-126.56 138.5,-132.71"/>
</g>
<!-- Node25 -->
<g id="node24" class="node">
<title>Node25</title>
<g id="a_node24"><a xlink:href="ip_2tcp_2ipv6_2tls_2_socket_client_8h.html" target="_top" xlink:title=" ">
<polygon fill="white" stroke="black" points="128,-67.5 128,-97.5 238,-97.5 238,-67.5 128,-67.5"/>
<text text-anchor="start" x="136" y="-85.5" font-family="Helvetica,sans-Serif" font-size="10.00">net/socket/ip/tcp/ipv6</text>
<text text-anchor="middle" x="183" y="-74.5" font-family="Helvetica,sans-Serif" font-size="10.00">/tls/SocketClient.h</text>
</a>
</g>
</g>
<!-- Node21&#45;&gt;Node25 -->
<g id="edge25" class="edge">
<title>Node21&#45;&gt;Node25</title>
<path fill="none" stroke="midnightblue" d="M177.97,-124.4C179.08,-115.37 180.3,-105.41 181.27,-97.58"/>
<polygon fill="midnightblue" stroke="midnightblue" points="174.48,-124.04 176.74,-134.4 181.43,-124.9 174.48,-124.04"/>
</g>
<!-- Node24 -->
<g id="node23" class="node">
<title>Node24</title>
<g id="a_node23"><a xlink:href="tls_2_client_8h.html" target="_top" xlink:title=" ">
<polygon fill="white" stroke="black" points="136,-0.5 136,-30.5 230,-30.5 230,-0.5 136,-0.5"/>
<text text-anchor="start" x="144" y="-18.5" font-family="Helvetica,sans-Serif" font-size="10.00">web/http/client/tls</text>
<text text-anchor="middle" x="183" y="-7.5" font-family="Helvetica,sans-Serif" font-size="10.00">/Client.h</text>
</a>
</g>
</g>
<!-- Node23&#45;&gt;Node24 -->
<g id="edge24" class="edge">
<title>Node23&#45;&gt;Node24</title>
<path fill="none" stroke="midnightblue" d="M91.72,-62.85C111.96,-52.58 136.67,-40.03 155.28,-30.58"/>
<polygon fill="midnightblue" stroke="midnightblue" points="90.11,-59.75 82.77,-67.4 93.28,-65.99 90.11,-59.75"/>
</g>
<!-- Node25&#45;&gt;Node24 -->
<g id="edge26" class="edge">
<title>Node25&#45;&gt;Node24</title>
<path fill="none" stroke="midnightblue" d="M183,-57.11C183,-48.15 183,-38.32 183,-30.58"/>
<polygon fill="midnightblue" stroke="midnightblue" points="179.5,-57.4 183,-67.4 186.5,-57.4 179.5,-57.4"/>
</g>
<!-- Node27 -->
<g id="node26" class="node">
<title>Node27</title>
<g id="a_node26"><a xlink:href="stream_2tls_2_socket_server_8h.html" target="_top" xlink:title=" ">
<polygon fill="white" stroke="red" points="746.5,-134.5 746.5,-164.5 855.5,-164.5 855.5,-134.5 746.5,-134.5"/>
<text text-anchor="start" x="754.5" y="-152.5" font-family="Helvetica,sans-Serif" font-size="10.00">net/socket/stream/tls</text>
<text text-anchor="middle" x="801" y="-141.5" font-family="Helvetica,sans-Serif" font-size="10.00">/SocketServer.h</text>
</a>
</g>
</g>
<!-- Node26&#45;&gt;Node27 -->
<g id="edge28" class="edge">
<title>Node26&#45;&gt;Node27</title>
<path fill="none" stroke="midnightblue" d="M801,-191.11C801,-182.15 801,-172.32 801,-164.58"/>
<polygon fill="midnightblue" stroke="midnightblue" points="797.5,-191.4 801,-201.4 804.5,-191.4 797.5,-191.4"/>
</g>
<!-- Node28 -->
<g id="node27" class="node">
<title>Node28</title>
<g id="a_node27"><a xlink:href="bluetooth_2rfcomm_2tls_2_socket_server_8h.html" target="_top" xlink:title=" ">
<polygon fill="white" stroke="black" points="553,-67.5 553,-97.5 689,-97.5 689,-67.5 553,-67.5"/>
<text text-anchor="start" x="561" y="-85.5" font-family="Helvetica,sans-Serif" font-size="10.00">net/socket/bluetooth</text>
<text text-anchor="middle" x="621" y="-74.5" font-family="Helvetica,sans-Serif" font-size="10.00">/rfcomm/tls/SocketServer.h</text>
</a>
</g>
</g>
<!-- Node27&#45;&gt;Node28 -->
<g id="edge29" class="edge">
<title>Node27&#45;&gt;Node28</title>
<path fill="none" stroke="midnightblue" d="M752.41,-130.96C723.42,-120.48 687.09,-107.37 659.98,-97.58"/>
<polygon fill="midnightblue" stroke="midnightblue" points="751.35,-134.29 761.94,-134.4 753.73,-127.71 751.35,-134.29"/>
</g>
<!-- Node29 -->
<g id="node28" class="node">
<title>Node29</title>
<g id="a_node28"><a xlink:href="ip_2tcp_2ipv4_2tls_2_socket_server_8h.html" target="_top" xlink:title=" ">
<polygon fill="white" stroke="black" points="707,-67.5 707,-97.5 817,-97.5 817,-67.5 707,-67.5"/>
<text text-anchor="start" x="715" y="-85.5" font-family="Helvetica,sans-Serif" font-size="10.00">net/socket/ip/tcp/ipv4</text>
<text text-anchor="middle" x="762" y="-74.5" font-family="Helvetica,sans-Serif" font-size="10.00">/tls/SocketServer.h</text>
</a>
</g>
</g>
<!-- Node27&#45;&gt;Node29 -->
<g id="edge30" class="edge">
<title>Node27&#45;&gt;Node29</title>
<path fill="none" stroke="midnightblue" d="M787.25,-125.58C781.64,-116.24 775.35,-105.75 770.45,-97.58"/>
<polygon fill="midnightblue" stroke="midnightblue" points="784.39,-127.62 792.54,-134.4 790.39,-124.02 784.39,-127.62"/>
</g>
<!-- Node30 -->
<g id="node29" class="node">
<title>Node30</title>
<g id="a_node29"><a xlink:href="tls_2_server_8h.html" target="_top" xlink:title=" ">
<polygon fill="white" stroke="red" points="1366,-0.5 1366,-30.5 1464,-30.5 1464,-0.5 1366,-0.5"/>
<text text-anchor="start" x="1374" y="-18.5" font-family="Helvetica,sans-Serif" font-size="10.00">web/http/server/tls</text>
<text text-anchor="middle" x="1415" y="-7.5" font-family="Helvetica,sans-Serif" font-size="10.00">/Server.h</text>
</a>
</g>
</g>
<!-- Node29&#45;&gt;Node30 -->
<g id="edge31" class="edge">
<title>Node29&#45;&gt;Node30</title>
<path fill="none" stroke="midnightblue" d="M827.13,-66.97C1032.46,-35.69 1266.07,-22.85 1365.86,-18.43"/>
<polygon fill="midnightblue" stroke="midnightblue" points="826.42,-63.54 817.07,-68.52 827.48,-70.46 826.42,-63.54"/>
</g>
<!-- Node36 -->
<g id="node33" class="node">
<title>Node36</title>
<g id="a_node33"><a xlink:href="_client_context_8hpp.html" target="_top" xlink:title=" ">
<polygon fill="white" stroke="black" points="566,-140 566,-159 728,-159 728,-140 566,-140"/>
<text text-anchor="middle" x="647" y="-147" font-family="Helvetica,sans-Serif" font-size="10.00">web/http/client/ClientContext.hpp</text>
</a>
</g>
</g>
<!-- Node35&#45;&gt;Node36 -->
<g id="edge35" class="edge">
<title>Node35&#45;&gt;Node36</title>
<path fill="none" stroke="midnightblue" d="M559.71,-201.62C581.7,-188.74 613.74,-169.98 632.27,-159.13"/>
<polygon fill="midnightblue" stroke="midnightblue" points="557.83,-198.66 550.97,-206.73 561.37,-204.7 557.83,-198.66"/>
</g>
<!-- Node38 -->
<g id="node35" class="node">
<title>Node38</title>
<g id="a_node35"><a xlink:href="_client_context_factory_8h.html" target="_top" xlink:title=" ">
<polygon fill="white" stroke="black" points="404.5,-134.5 404.5,-164.5 547.5,-164.5 547.5,-134.5 404.5,-134.5"/>
<text text-anchor="start" x="412.5" y="-152.5" font-family="Helvetica,sans-Serif" font-size="10.00">web/http/client/ClientContext</text>
<text text-anchor="middle" x="476" y="-141.5" font-family="Helvetica,sans-Serif" font-size="10.00">Factory.h</text>
</a>
</g>
</g>
<!-- Node35&#45;&gt;Node38 -->
<g id="edge39" class="edge">
<title>Node35&#45;&gt;Node38</title>
<path fill="none" stroke="midnightblue" d="M521.05,-199.3C511.2,-188.63 498.43,-174.8 489.01,-164.59"/>
<polygon fill="midnightblue" stroke="midnightblue" points="518.55,-201.76 527.91,-206.73 523.7,-197.01 518.55,-201.76"/>
</g>
<!-- Node39 -->
<g id="node36" class="node">
<title>Node39</title>
<g id="a_node36"><a xlink:href="web_2http_2client_2_request_8cpp.html" target="_top" xlink:title=" ">
<polygon fill="white" stroke="black" points="247.5,-140 247.5,-159 386.5,-159 386.5,-140 247.5,-140"/>
<text text-anchor="middle" x="317" y="-147" font-family="Helvetica,sans-Serif" font-size="10.00">web/http/client/Request.cpp</text>
</a>
</g>
</g>
<!-- Node35&#45;&gt;Node39 -->
<g id="edge41" class="edge">
<title>Node35&#45;&gt;Node39</title>
<path fill="none" stroke="midnightblue" d="M497.29,-204.01C453.94,-191.15 384.7,-170.59 345.85,-159.06"/>
<polygon fill="midnightblue" stroke="midnightblue" points="496.34,-207.38 506.92,-206.87 498.33,-200.67 496.34,-207.38"/>
</g>
<!-- Node37 -->
<g id="node34" class="node">
<title>Node37</title>
<g id="a_node34"><a xlink:href="_client_8h.html" target="_top" xlink:title=" ">
<polygon fill="white" stroke="black" points="417.5,-73 417.5,-92 534.5,-92 534.5,-73 417.5,-73"/>
<text text-anchor="middle" x="476" y="-80" font-family="Helvetica,sans-Serif" font-size="10.00">web/http/client/Client.h</text>
</a>
</g>
</g>
<!-- Node36&#45;&gt;Node37 -->
<g id="edge36" class="edge">
<title>Node36&#45;&gt;Node37</title>
<path fill="none" stroke="midnightblue" d="M614.83,-136.27C580.89,-123.37 528.29,-103.38 498.53,-92.06"/>
<polygon fill="midnightblue" stroke="midnightblue" points="613.7,-139.59 624.29,-139.87 616.19,-133.04 613.7,-139.59"/>
</g>
<!-- Node37&#45;&gt;Node9 -->
<g id="edge37" class="edge">
<title>Node37&#45;&gt;Node9</title>
<path fill="none" stroke="midnightblue" d="M523.56,-70.94C530.41,-69.54 537.37,-68.18 544,-67 646.9,-48.6 767.8,-32.28 836.9,-23.45"/>
<polygon fill="midnightblue" stroke="midnightblue" points="522.75,-67.53 513.68,-73 524.18,-74.38 522.75,-67.53"/>
</g>
<!-- Node37&#45;&gt;Node24 -->
<g id="edge38" class="edge">
<title>Node37&#45;&gt;Node24</title>
<path fill="none" stroke="midnightblue" d="M427.59,-70.76C372.87,-58.62 284.38,-38.99 230.18,-26.97"/>
<polygon fill="midnightblue" stroke="midnightblue" points="426.87,-74.19 437.39,-72.94 428.39,-67.35 426.87,-74.19"/>
</g>
<!-- Node38&#45;&gt;Node37 -->
<g id="edge40" class="edge">
<title>Node38&#45;&gt;Node37</title>
<path fill="none" stroke="midnightblue" d="M476,-124.25C476,-113.02 476,-100.38 476,-92.19"/>
<polygon fill="midnightblue" stroke="midnightblue" points="472.5,-124.4 476,-134.4 479.5,-124.4 472.5,-124.4"/>
</g>
<!-- Node41 -->
<g id="node38" class="node">
<title>Node41</title>
<g id="a_node38"><a xlink:href="_h_t_t_p_server_context_8hpp.html" target="_top" xlink:title=" ">
<polygon fill="white" stroke="black" points="1550,-201.5 1550,-231.5 1692,-231.5 1692,-201.5 1550,-201.5"/>
<text text-anchor="start" x="1558" y="-219.5" font-family="Helvetica,sans-Serif" font-size="10.00">web/http/server/HTTPServer</text>
<text text-anchor="middle" x="1621" y="-208.5" font-family="Helvetica,sans-Serif" font-size="10.00">Context.hpp</text>
</a>
</g>
</g>
<!-- Node40&#45;&gt;Node41 -->
<g id="edge43" class="edge">
<title>Node40&#45;&gt;Node41</title>
<path fill="none" stroke="midnightblue" d="M1875.1,-266.8C1819.3,-255.98 1745.82,-241.72 1692.23,-231.32"/>
<polygon fill="midnightblue" stroke="midnightblue" points="1874.47,-270.25 1884.96,-268.72 1875.8,-263.37 1874.47,-270.25"/>
</g>
<!-- Node43 -->
<g id="node40" class="node">
<title>Node43</title>
<g id="a_node40"><a xlink:href="_h_t_t_p_server_context_factory_8h.html" target="_top" xlink:title=" ">
<polygon fill="white" stroke="black" points="1710,-201.5 1710,-231.5 1852,-231.5 1852,-201.5 1710,-201.5"/>
<text text-anchor="start" x="1718" y="-219.5" font-family="Helvetica,sans-Serif" font-size="10.00">web/http/server/HTTPServer</text>
<text text-anchor="middle" x="1781" y="-208.5" font-family="Helvetica,sans-Serif" font-size="10.00">ContextFactory.h</text>
</a>
</g>
</g>
<!-- Node40&#45;&gt;Node43 -->
<g id="edge47" class="edge">
<title>Node40&#45;&gt;Node43</title>
<path fill="none" stroke="midnightblue" d="M1908.4,-264.82C1880.27,-254.37 1845.14,-241.32 1818.9,-231.58"/>
<polygon fill="midnightblue" stroke="midnightblue" points="1907.43,-268.2 1918.03,-268.4 1909.87,-261.63 1907.43,-268.2"/>
</g>
<!-- Node44 -->
<g id="node41" class="node">
<title>Node44</title>
<g id="a_node41"><a xlink:href="web_2http_2server_2_response_8cpp.html" target="_top" xlink:title=" ">
<polygon fill="white" stroke="black" points="2125,-207 2125,-226 2275,-226 2275,-207 2125,-207"/>
<text text-anchor="middle" x="2200" y="-214" font-family="Helvetica,sans-Serif" font-size="10.00">web/http/server/Response.cpp</text>
</a>
</g>
</g>
<!-- Node40&#45;&gt;Node44 -->
<g id="edge49" class="edge">
<title>Node40&#45;&gt;Node44</title>
<path fill="none" stroke="midnightblue" d="M2018.57,-265.83C2066.33,-253.11 2130.16,-236.11 2167.98,-226.03"/>
<polygon fill="midnightblue" stroke="midnightblue" points="2017.41,-262.52 2008.64,-268.48 2019.21,-269.28 2017.41,-262.52"/>
</g>
<!-- Node45 -->
<g id="node42" class="node">
<title>Node45</title>
<g id="a_node42"><a xlink:href="express_2_response_8cpp.html" target="_top" xlink:title=" ">
<polygon fill="white" stroke="black" points="1870.5,-207 1870.5,-226 1987.5,-226 1987.5,-207 1870.5,-207"/>
<text text-anchor="middle" x="1929" y="-214" font-family="Helvetica,sans-Serif" font-size="10.00">express/Response.cpp</text>
</a>
</g>
</g>
<!-- Node40&#45;&gt;Node45 -->
<g id="edge50" class="edge">
<title>Node40&#45;&gt;Node45</title>
<path fill="none" stroke="midnightblue" d="M1946.21,-258.94C1941.48,-247.54 1936.08,-234.55 1932.61,-226.19"/>
<polygon fill="midnightblue" stroke="midnightblue" points="1943.07,-260.5 1950.14,-268.4 1949.54,-257.82 1943.07,-260.5"/>
</g>
<!-- Node46 -->
<g id="node43" class="node">
<title>Node46</title>
<g id="a_node43"><a xlink:href="_router_8cpp.html" target="_top" xlink:title=" ">
<polygon fill="white" stroke="black" points="2005.5,-207 2005.5,-226 2106.5,-226 2106.5,-207 2005.5,-207"/>
<text text-anchor="middle" x="2056" y="-214" font-family="Helvetica,sans-Serif" font-size="10.00">express/Router.cpp</text>
</a>
</g>
</g>
<!-- Node40&#45;&gt;Node46 -->
<g id="edge51" class="edge">
<title>Node40&#45;&gt;Node46</title>
<path fill="none" stroke="midnightblue" d="M1986.3,-262.81C2005.21,-250.51 2028.61,-235.3 2042.91,-226.01"/>
<polygon fill="midnightblue" stroke="midnightblue" points="1984.18,-260.01 1977.7,-268.4 1987.99,-265.88 1984.18,-260.01"/>
</g>
<!-- Node42 -->
<g id="node39" class="node">
<title>Node42</title>
<g id="a_node39"><a xlink:href="_server_8h.html" target="_top" xlink:title=" ">
<polygon fill="white" stroke="black" points="1740.5,-140 1740.5,-159 1863.5,-159 1863.5,-140 1740.5,-140"/>
<text text-anchor="middle" x="1802" y="-147" font-family="Helvetica,sans-Serif" font-size="10.00">web/http/server/Server.h</text>
</a>
</g>
</g>
<!-- Node41&#45;&gt;Node42 -->
<g id="edge44" class="edge">
<title>Node41&#45;&gt;Node42</title>
<path fill="none" stroke="midnightblue" d="M1669.88,-197.95C1705.04,-185.32 1750.9,-168.85 1778.31,-159.01"/>
<polygon fill="midnightblue" stroke="midnightblue" points="1668.5,-194.72 1660.27,-201.4 1670.87,-201.31 1668.5,-194.72"/>
</g>
<!-- Node42&#45;&gt;Node16 -->
<g id="edge45" class="edge">
<title>Node42&#45;&gt;Node16</title>
<path fill="none" stroke="midnightblue" d="M1873.77,-140.12C1925.73,-132.41 1989.61,-118.94 2006,-98 2024.85,-73.91 1990.66,-46.79 1964.29,-30.7"/>
<polygon fill="midnightblue" stroke="midnightblue" points="1872.95,-136.71 1863.55,-141.59 1873.95,-143.63 1872.95,-136.71"/>
</g>
<!-- Node42&#45;&gt;Node30 -->
<g id="edge46" class="edge">
<title>Node42&#45;&gt;Node30</title>
<path fill="none" stroke="midnightblue" d="M1816.93,-131.98C1831.27,-114.09 1848.5,-85.62 1832,-67 1807.94,-39.85 1569.31,-24.39 1464.23,-18.86"/>
<polygon fill="midnightblue" stroke="midnightblue" points="1814.08,-129.94 1810.29,-139.83 1819.42,-134.46 1814.08,-129.94"/>
</g>
<!-- Node43&#45;&gt;Node42 -->
<g id="edge48" class="edge">
<title>Node43&#45;&gt;Node42</title>
<path fill="none" stroke="midnightblue" d="M1788.72,-191.6C1792.38,-180.28 1796.52,-167.46 1799.19,-159.19"/>
<polygon fill="midnightblue" stroke="midnightblue" points="1785.3,-190.8 1785.56,-201.4 1791.96,-192.96 1785.3,-190.8"/>
</g>
<!-- Node48 -->
<g id="node45" class="node">
<title>Node48</title>
<g id="a_node45"><a xlink:href="client_2_w_s_context_8h.html" target="_top" xlink:title=" ">
<polygon fill="white" stroke="black" points="2261.5,-274 2261.5,-293 2400.5,-293 2400.5,-274 2261.5,-274"/>
<text text-anchor="middle" x="2331" y="-281" font-family="Helvetica,sans-Serif" font-size="10.00">web/ws/client/WSContext.h</text>
</a>
</g>
</g>
<!-- Node47&#45;&gt;Node48 -->
<g id="edge53" class="edge">
<title>Node47&#45;&gt;Node48</title>
<path fill="none" stroke="midnightblue" d="M2202.73,-336.94C2234.31,-324.03 2282.62,-304.28 2310.05,-293.06"/>
<polygon fill="midnightblue" stroke="midnightblue" points="2201.05,-333.84 2193.11,-340.87 2203.69,-340.32 2201.05,-333.84"/>
</g>
<!-- Node50 -->
<g id="node47" class="node">
<title>Node50</title>
<g id="a_node47"><a xlink:href="server_2_w_s_context_8h.html" target="_top" xlink:title=" ">
<polygon fill="white" stroke="black" points="2100.5,-274 2100.5,-293 2243.5,-293 2243.5,-274 2100.5,-274"/>
<text text-anchor="middle" x="2172" y="-281" font-family="Helvetica,sans-Serif" font-size="10.00">web/ws/server/WSContext.h</text>
</a>
</g>
</g>
<!-- Node47&#45;&gt;Node50 -->
<g id="edge55" class="edge">
<title>Node47&#45;&gt;Node50</title>
<path fill="none" stroke="midnightblue" d="M2172,-330.54C2172,-318.17 2172,-302.62 2172,-293.13"/>
<polygon fill="midnightblue" stroke="midnightblue" points="2168.5,-330.73 2172,-340.73 2175.5,-330.73 2168.5,-330.73"/>
</g>
<!-- Node52 -->
<g id="node49" class="node">
<title>Node52</title>
<g id="a_node49"><a xlink:href="_w_s_context_8cpp.html" target="_top" xlink:title=" ">
<polygon fill="white" stroke="black" points="2418.5,-274 2418.5,-293 2541.5,-293 2541.5,-274 2418.5,-274"/>
<text text-anchor="middle" x="2480" y="-281" font-family="Helvetica,sans-Serif" font-size="10.00">web/ws/WSContext.cpp</text>
</a>
</g>
</g>
<!-- Node47&#45;&gt;Node52 -->
<g id="edge58" class="edge">
<title>Node47&#45;&gt;Node52</title>
<path fill="none" stroke="midnightblue" d="M2220.3,-338.83C2226.26,-337.53 2232.27,-336.23 2238,-335 2275.77,-326.91 2380.07,-305.23 2438.66,-293.07"/>
<polygon fill="midnightblue" stroke="midnightblue" points="2219.4,-335.44 2210.37,-341 2220.89,-342.28 2219.4,-335.44"/>
</g>
<!-- Node53 -->
<g id="node50" class="node">
<title>Node53</title>
<g id="a_node50"><a xlink:href="_w_s_sub_protocol_8cpp.html" target="_top" xlink:title=" ">
<polygon fill="white" stroke="black" points="2560,-274 2560,-293 2702,-293 2702,-274 2560,-274"/>
<text text-anchor="middle" x="2631" y="-281" font-family="Helvetica,sans-Serif" font-size="10.00">web/ws/WSSubProtocol.cpp</text>
</a>
</g>
</g>
<!-- Node47&#45;&gt;Node53 -->
<g id="edge59" class="edge">
<title>Node47&#45;&gt;Node53</title>
<path fill="none" stroke="midnightblue" d="M2217.65,-338.84C2224.45,-337.44 2231.39,-336.1 2238,-335 2376.12,-311.95 2412.48,-319.5 2551,-299 2562.59,-297.29 2575.07,-295.16 2586.65,-293.07"/>
<polygon fill="midnightblue" stroke="midnightblue" points="2216.89,-335.42 2207.84,-340.93 2218.35,-342.27 2216.89,-335.42"/>
</g>
<!-- Node49 -->
<g id="node46" class="node">
<title>Node49</title>
<g id="a_node46"><a xlink:href="client_2_w_s_context_8cpp.html" target="_top" xlink:title=" ">
<polygon fill="white" stroke="black" points="2464.5,-207 2464.5,-226 2613.5,-226 2613.5,-207 2464.5,-207"/>
<text text-anchor="middle" x="2539" y="-214" font-family="Helvetica,sans-Serif" font-size="10.00">web/ws/client/WSContext.cpp</text>
</a>
</g>
</g>
<!-- Node48&#45;&gt;Node49 -->
<g id="edge54" class="edge">
<title>Node48&#45;&gt;Node49</title>
<path fill="none" stroke="midnightblue" d="M2368.29,-270.85C2409.49,-257.97 2474.85,-237.55 2511.6,-226.06"/>
<polygon fill="midnightblue" stroke="midnightblue" points="2367.12,-267.55 2358.62,-273.87 2369.21,-274.23 2367.12,-267.55"/>
</g>
<!-- Node50&#45;&gt;Node44 -->
<g id="edge56" class="edge">
<title>Node50&#45;&gt;Node44</title>
<path fill="none" stroke="midnightblue" d="M2179.84,-264.29C2185.22,-251.81 2192.11,-235.81 2196.28,-226.13"/>
<polygon fill="midnightblue" stroke="midnightblue" points="2176.52,-263.16 2175.78,-273.73 2182.95,-265.93 2176.52,-263.16"/>
</g>
<!-- Node51 -->
<g id="node48" class="node">
<title>Node51</title>
<g id="a_node48"><a xlink:href="server_2_w_s_context_8cpp.html" target="_top" xlink:title=" ">
<polygon fill="white" stroke="black" points="2293.5,-207 2293.5,-226 2446.5,-226 2446.5,-207 2293.5,-207"/>
<text text-anchor="middle" x="2370" y="-214" font-family="Helvetica,sans-Serif" font-size="10.00">web/ws/server/WSContext.cpp</text>
</a>
</g>
</g>
<!-- Node50&#45;&gt;Node51 -->
<g id="edge57" class="edge">
<title>Node50&#45;&gt;Node51</title>
<path fill="none" stroke="midnightblue" d="M2208,-270.68C2247.24,-257.8 2309.09,-237.5 2343.91,-226.06"/>
<polygon fill="midnightblue" stroke="midnightblue" points="2206.7,-267.42 2198.29,-273.87 2208.89,-274.07 2206.7,-267.42"/>
</g>
</g>
</svg>
