<?xml version="1.0" encoding="UTF-8" standalone="no"?>
<!DOCTYPE svg PUBLIC "-//W3C//DTD SVG 1.1//EN"
 "http://www.w3.org/Graphics/SVG/1.1/DTD/svg11.dtd">
<!-- Generated by graphviz version 2.43.0 (0)
 -->
<!-- Title: net/socket/tcp/SocketClient.h Pages: 1 -->
<svg width="533pt" height="140pt"
 viewBox="0.00 0.00 533.00 140.00" xmlns="http://www.w3.org/2000/svg" xmlns:xlink="http://www.w3.org/1999/xlink">
<g id="graph0" class="graph" transform="scale(1 1) rotate(0) translate(4 136)">
<title>net/socket/tcp/SocketClient.h</title>
<polygon fill="white" stroke="transparent" points="-4,4 -4,-136 529,-136 529,4 -4,4"/>
<!-- Node1 -->
<g id="node1" class="node">
<title>Node1</title>
<g id="a_node1"><a xlink:title=" ">
<polygon fill="#bfbfbf" stroke="black" points="184.5,-112.5 184.5,-131.5 330.5,-131.5 330.5,-112.5 184.5,-112.5"/>
<text text-anchor="middle" x="257.5" y="-119.5" font-family="Helvetica,sans-Serif" font-size="10.00">net/socket/tcp/SocketClient.h</text>
</a>
</g>
</g>
<!-- Node2 -->
<g id="node2" class="node">
<title>Node2</title>
<g id="a_node2"><a xlink:href="_logger_8h.html" target="_top" xlink:title=" ">
<polygon fill="white" stroke="black" points="0,-56.5 0,-75.5 53,-75.5 53,-56.5 0,-56.5"/>
<text text-anchor="middle" x="26.5" y="-63.5" font-family="Helvetica,sans-Serif" font-size="10.00">Logger.h</text>
</a>
</g>
</g>
<!-- Node1&#45;&gt;Node2 -->
<g id="edge1" class="edge">
<title>Node1&#45;&gt;Node2</title>
<path fill="none" stroke="midnightblue" d="M219.71,-112.49C182.46,-104.06 123.67,-90.63 63.31,-76.16"/>
<polygon fill="midnightblue" stroke="midnightblue" points="63.76,-72.67 53.22,-73.74 62.13,-79.48 63.76,-72.67"/>
</g>
<!-- Node3 -->
<g id="node3" class="node">
<title>Node3</title>
<g id="a_node3"><a xlink:href="_read_event_receiver_8h.html" target="_top" xlink:title=" ">
<polygon fill="white" stroke="black" points="71.5,-56.5 71.5,-75.5 183.5,-75.5 183.5,-56.5 71.5,-56.5"/>
<text text-anchor="middle" x="127.5" y="-63.5" font-family="Helvetica,sans-Serif" font-size="10.00">ReadEventReceiver.h</text>
</a>
</g>
</g>
<!-- Node1&#45;&gt;Node3 -->
<g id="edge2" class="edge">
<title>Node1&#45;&gt;Node3</title>
<path fill="none" stroke="midnightblue" d="M236.9,-112.44C215.51,-103.56 181.82,-89.56 157.48,-79.45"/>
<polygon fill="midnightblue" stroke="midnightblue" points="158.58,-76.12 148,-75.52 155.89,-82.58 158.58,-76.12"/>
</g>
<!-- Node5 -->
<g id="node5" class="node">
<title>Node5</title>
<g id="a_node5"><a xlink:href="_socket_8h.html" target="_top" xlink:title=" ">
<polygon fill="white" stroke="black" points="331.5,-56.5 331.5,-75.5 387.5,-75.5 387.5,-56.5 331.5,-56.5"/>
<text text-anchor="middle" x="359.5" y="-63.5" font-family="Helvetica,sans-Serif" font-size="10.00">Socket.h</text>
</a>
</g>
</g>
<!-- Node1&#45;&gt;Node5 -->
<g id="edge4" class="edge">
<title>Node1&#45;&gt;Node5</title>
<path fill="none" stroke="midnightblue" d="M273.89,-112.32C290.17,-103.7 315.37,-90.36 334.22,-80.39"/>
<polygon fill="midnightblue" stroke="midnightblue" points="335.95,-83.43 343.15,-75.65 332.68,-77.24 335.95,-83.43"/>
</g>
<!-- Node8 -->
<g id="node8" class="node">
<title>Node8</title>
<g id="a_node8"><a xlink:href="_write_event_receiver_8h.html" target="_top" xlink:title=" ">
<polygon fill="white" stroke="black" points="202,-56.5 202,-75.5 313,-75.5 313,-56.5 202,-56.5"/>
<text text-anchor="middle" x="257.5" y="-63.5" font-family="Helvetica,sans-Serif" font-size="10.00">WriteEventReceiver.h</text>
</a>
</g>
</g>
<!-- Node1&#45;&gt;Node8 -->
<g id="edge7" class="edge">
<title>Node1&#45;&gt;Node8</title>
<path fill="none" stroke="midnightblue" d="M257.5,-112.08C257.5,-105.01 257.5,-94.86 257.5,-85.99"/>
<polygon fill="midnightblue" stroke="midnightblue" points="261,-85.75 257.5,-75.75 254,-85.75 261,-85.75"/>
</g>
<!-- Node9 -->
<g id="node9" class="node">
<title>Node9</title>
<g id="a_node9"><a xlink:href="_singleshot_timer_8h.html" target="_top" xlink:title=" ">
<polygon fill="white" stroke="black" points="406,-56.5 406,-75.5 525,-75.5 525,-56.5 406,-56.5"/>
<text text-anchor="middle" x="465.5" y="-63.5" font-family="Helvetica,sans-Serif" font-size="10.00">timer/SingleshotTimer.h</text>
</a>
</g>
</g>
<!-- Node1&#45;&gt;Node9 -->
<g id="edge9" class="edge">
<title>Node1&#45;&gt;Node9</title>
<path fill="none" stroke="midnightblue" d="M290.46,-112.44C326.29,-103.14 383.66,-88.25 422.89,-78.06"/>
<polygon fill="midnightblue" stroke="midnightblue" points="423.9,-81.42 432.7,-75.52 422.14,-74.64 423.9,-81.42"/>
</g>
<!-- Node4 -->
<g id="node4" class="node">
<title>Node4</title>
<g id="a_node4"><a xlink:href="_event_receiver_8h.html" target="_top" xlink:title=" ">
<polygon fill="white" stroke="black" points="101,-0.5 101,-19.5 190,-19.5 190,-0.5 101,-0.5"/>
<text text-anchor="middle" x="145.5" y="-7.5" font-family="Helvetica,sans-Serif" font-size="10.00">EventReceiver.h</text>
</a>
</g>
</g>
<!-- Node3&#45;&gt;Node4 -->
<g id="edge3" class="edge">
<title>Node3&#45;&gt;Node4</title>
<path fill="none" stroke="midnightblue" d="M130.47,-56.08C132.88,-48.85 136.36,-38.41 139.37,-29.4"/>
<polygon fill="midnightblue" stroke="midnightblue" points="142.74,-30.34 142.58,-19.75 136.1,-28.13 142.74,-30.34"/>
</g>
<!-- Node6 -->
<g id="node6" class="node">
<title>Node6</title>
<g id="a_node6"><a xlink:href="_descriptor_8h.html" target="_top" xlink:title=" ">
<polygon fill="white" stroke="black" points="221,-0.5 221,-19.5 290,-19.5 290,-0.5 221,-0.5"/>
<text text-anchor="middle" x="255.5" y="-7.5" font-family="Helvetica,sans-Serif" font-size="10.00">Descriptor.h</text>
</a>
</g>
</g>
<!-- Node5&#45;&gt;Node6 -->
<g id="edge5" class="edge">
<title>Node5&#45;&gt;Node6</title>
<path fill="none" stroke="midnightblue" d="M342.79,-56.32C326.19,-47.7 300.5,-34.36 281.28,-24.39"/>
<polygon fill="midnightblue" stroke="midnightblue" points="282.66,-21.16 272.17,-19.65 279.43,-27.37 282.66,-21.16"/>
</g>
<!-- Node7 -->
<g id="node7" class="node">
<title>Node7</title>
<g id="a_node7"><a xlink:href="_inet_address_8h.html" target="_top" xlink:title=" ">
<polygon fill="white" stroke="black" points="308.5,-0.5 308.5,-19.5 418.5,-19.5 418.5,-0.5 308.5,-0.5"/>
<text text-anchor="middle" x="363.5" y="-7.5" font-family="Helvetica,sans-Serif" font-size="10.00">socket/InetAddress.h</text>
</a>
</g>
</g>
<!-- Node5&#45;&gt;Node7 -->
<g id="edge6" class="edge">
<title>Node5&#45;&gt;Node7</title>
<path fill="none" stroke="midnightblue" d="M360.16,-56.08C360.68,-49.01 361.44,-38.86 362.09,-29.99"/>
<polygon fill="midnightblue" stroke="midnightblue" points="365.6,-29.98 362.85,-19.75 358.62,-29.47 365.6,-29.98"/>
</g>
<!-- Node8&#45;&gt;Node4 -->
<g id="edge8" class="edge">
<title>Node8&#45;&gt;Node4</title>
<path fill="none" stroke="midnightblue" d="M239.51,-56.32C221.46,-47.62 193.45,-34.12 172.7,-24.11"/>
<polygon fill="midnightblue" stroke="midnightblue" points="173.98,-20.84 163.45,-19.65 170.94,-27.15 173.98,-20.84"/>
</g>
<!-- Node10 -->
<g id="node10" class="node">
<title>Node10</title>
<g id="a_node10"><a xlink:href="_timer_8h.html" target="_top" xlink:title=" ">
<polygon fill="white" stroke="black" points="441,-0.5 441,-19.5 490,-19.5 490,-0.5 441,-0.5"/>
<text text-anchor="middle" x="465.5" y="-7.5" font-family="Helvetica,sans-Serif" font-size="10.00">Timer.h</text>
</a>
</g>
</g>
<!-- Node9&#45;&gt;Node10 -->
<g id="edge10" class="edge">
<title>Node9&#45;&gt;Node10</title>
<path fill="none" stroke="midnightblue" d="M465.5,-56.08C465.5,-49.01 465.5,-38.86 465.5,-29.99"/>
<polygon fill="midnightblue" stroke="midnightblue" points="469,-29.75 465.5,-19.75 462,-29.75 469,-29.75"/>
</g>
</g>
</svg>
