<?xml version="1.0" encoding="UTF-8" standalone="no"?>
<!DOCTYPE svg PUBLIC "-//W3C//DTD SVG 1.1//EN"
 "http://www.w3.org/Graphics/SVG/1.1/DTD/svg11.dtd">
<!-- Generated by graphviz version 2.43.0 (0)
 -->
<!-- Title: net/socket/Socket.h Pages: 1 -->
<svg width="2198pt" height="408pt"
 viewBox="0.00 0.00 2198.00 408.00" xmlns="http://www.w3.org/2000/svg" xmlns:xlink="http://www.w3.org/1999/xlink">
<g id="graph0" class="graph" transform="scale(1 1) rotate(0) translate(4 404)">
<title>net/socket/Socket.h</title>
<polygon fill="white" stroke="transparent" points="-4,4 -4,-404 2194,-404 2194,4 -4,4"/>
<!-- Node1 -->
<g id="node1" class="node">
<title>Node1</title>
<g id="a_node1"><a xlink:title=" ">
<polygon fill="#bfbfbf" stroke="black" points="1043,-380.5 1043,-399.5 1147,-399.5 1147,-380.5 1043,-380.5"/>
<text text-anchor="middle" x="1095" y="-387.5" font-family="Helvetica,sans-Serif" font-size="10.00">net/socket/Socket.h</text>
</a>
</g>
</g>
<!-- Node2 -->
<g id="node2" class="node">
<title>Node2</title>
<g id="a_node2"><a xlink:href="bluetooth_2l2cap_2_socket_8h.html" target="_top" xlink:title=" ">
<polygon fill="white" stroke="black" points="761.5,-313.5 761.5,-343.5 866.5,-343.5 866.5,-313.5 761.5,-313.5"/>
<text text-anchor="start" x="769.5" y="-331.5" font-family="Helvetica,sans-Serif" font-size="10.00">net/socket/bluetooth</text>
<text text-anchor="middle" x="814" y="-320.5" font-family="Helvetica,sans-Serif" font-size="10.00">/l2cap/Socket.h</text>
</a>
</g>
</g>
<!-- Node1&#45;&gt;Node2 -->
<g id="edge1" class="edge">
<title>Node1&#45;&gt;Node2</title>
<path fill="none" stroke="midnightblue" d="M1044.76,-378.36C994.55,-367.73 917.68,-351.45 866.64,-340.65"/>
<polygon fill="midnightblue" stroke="midnightblue" points="1044.23,-381.83 1054.74,-380.48 1045.68,-374.98 1044.23,-381.83"/>
</g>
<!-- Node6 -->
<g id="node6" class="node">
<title>Node6</title>
<g id="a_node6"><a xlink:href="bluetooth_2rfcomm_2_socket_8h.html" target="_top" xlink:title=" ">
<polygon fill="white" stroke="black" points="392.5,-179.5 392.5,-209.5 497.5,-209.5 497.5,-179.5 392.5,-179.5"/>
<text text-anchor="start" x="400.5" y="-197.5" font-family="Helvetica,sans-Serif" font-size="10.00">net/socket/bluetooth</text>
<text text-anchor="middle" x="445" y="-186.5" font-family="Helvetica,sans-Serif" font-size="10.00">/rfcomm/Socket.h</text>
</a>
</g>
</g>
<!-- Node1&#45;&gt;Node6 -->
<g id="edge5" class="edge">
<title>Node1&#45;&gt;Node6</title>
<path fill="none" stroke="midnightblue" d="M1032.49,-385.45C963.05,-380.43 848.07,-368.94 752,-344 673.79,-323.7 655.56,-312.54 583,-277 540.27,-256.07 493.05,-226.74 466.41,-209.57"/>
<polygon fill="midnightblue" stroke="midnightblue" points="1032.59,-388.96 1042.81,-386.17 1033.08,-381.98 1032.59,-388.96"/>
</g>
<!-- Node12 -->
<g id="node12" class="node">
<title>Node12</title>
<g id="a_node12"><a xlink:href="ip_2tcp_2ipv4_2_socket_8h.html" target="_top" xlink:title=" ">
<polygon fill="white" stroke="black" points="1590,-179.5 1590,-209.5 1700,-209.5 1700,-179.5 1590,-179.5"/>
<text text-anchor="start" x="1598" y="-197.5" font-family="Helvetica,sans-Serif" font-size="10.00">net/socket/ip/tcp/ipv4</text>
<text text-anchor="middle" x="1645" y="-186.5" font-family="Helvetica,sans-Serif" font-size="10.00">/Socket.h</text>
</a>
</g>
</g>
<!-- Node1&#45;&gt;Node12 -->
<g id="edge11" class="edge">
<title>Node1&#45;&gt;Node12</title>
<path fill="none" stroke="midnightblue" d="M1128.89,-377.08C1225.35,-343.14 1501.06,-246.14 1604.84,-209.63"/>
<polygon fill="midnightblue" stroke="midnightblue" points="1127.61,-373.82 1119.34,-380.44 1129.94,-380.42 1127.61,-373.82"/>
</g>
<!-- Node24 -->
<g id="node24" class="node">
<title>Node24</title>
<g id="a_node24"><a xlink:href="ip_2tcp_2ipv6_2_socket_8h.html" target="_top" xlink:title=" ">
<polygon fill="white" stroke="black" points="1360,-179.5 1360,-209.5 1470,-209.5 1470,-179.5 1360,-179.5"/>
<text text-anchor="start" x="1368" y="-197.5" font-family="Helvetica,sans-Serif" font-size="10.00">net/socket/ip/tcp/ipv6</text>
<text text-anchor="middle" x="1415" y="-186.5" font-family="Helvetica,sans-Serif" font-size="10.00">/Socket.h</text>
</a>
</g>
</g>
<!-- Node1&#45;&gt;Node24 -->
<g id="edge23" class="edge">
<title>Node1&#45;&gt;Node24</title>
<path fill="none" stroke="midnightblue" d="M1120.43,-375.8C1159,-355.56 1234.32,-315.19 1296,-277 1331.98,-254.72 1372.32,-226.34 1395.58,-209.62"/>
<polygon fill="midnightblue" stroke="midnightblue" points="1118.69,-372.76 1111.45,-380.5 1121.93,-378.96 1118.69,-372.76"/>
</g>
<!-- Node30 -->
<g id="node30" class="node">
<title>Node30</title>
<g id="a_node30"><a xlink:href="_socket_connector_8h.html" target="_top" xlink:title=" ">
<polygon fill="white" stroke="black" points="1030.5,-313.5 1030.5,-343.5 1159.5,-343.5 1159.5,-313.5 1030.5,-313.5"/>
<text text-anchor="start" x="1038.5" y="-331.5" font-family="Helvetica,sans-Serif" font-size="10.00">net/socket/stream/Socket</text>
<text text-anchor="middle" x="1095" y="-320.5" font-family="Helvetica,sans-Serif" font-size="10.00">Connector.h</text>
</a>
</g>
</g>
<!-- Node1&#45;&gt;Node30 -->
<g id="edge33" class="edge">
<title>Node1&#45;&gt;Node30</title>
<path fill="none" stroke="midnightblue" d="M1095,-370.23C1095,-361.59 1095,-351.5 1095,-343.52"/>
<polygon fill="midnightblue" stroke="midnightblue" points="1091.5,-370.48 1095,-380.48 1098.5,-370.48 1091.5,-370.48"/>
</g>
<!-- Node3 -->
<g id="node3" class="node">
<title>Node3</title>
<g id="a_node3"><a xlink:href="bluetooth_2l2cap_2_socket_8cpp.html" target="_top" xlink:title=" ">
<polygon fill="white" stroke="black" points="592.5,-246.5 592.5,-276.5 697.5,-276.5 697.5,-246.5 592.5,-246.5"/>
<text text-anchor="start" x="600.5" y="-264.5" font-family="Helvetica,sans-Serif" font-size="10.00">net/socket/bluetooth</text>
<text text-anchor="middle" x="645" y="-253.5" font-family="Helvetica,sans-Serif" font-size="10.00">/l2cap/Socket.cpp</text>
</a>
</g>
</g>
<!-- Node2&#45;&gt;Node3 -->
<g id="edge2" class="edge">
<title>Node2&#45;&gt;Node3</title>
<path fill="none" stroke="midnightblue" d="M767.67,-309.68C740.57,-299.26 706.83,-286.28 681.6,-276.58"/>
<polygon fill="midnightblue" stroke="midnightblue" points="766.74,-313.07 777.33,-313.4 769.25,-306.54 766.74,-313.07"/>
</g>
<!-- Node4 -->
<g id="node4" class="node">
<title>Node4</title>
<g id="a_node4"><a xlink:href="bluetooth_2l2cap_2_socket_client_8h.html" target="_top" xlink:title=" ">
<polygon fill="white" stroke="black" points="620,-112.5 620,-142.5 730,-142.5 730,-112.5 620,-112.5"/>
<text text-anchor="start" x="628" y="-130.5" font-family="Helvetica,sans-Serif" font-size="10.00">net/socket/bluetooth</text>
<text text-anchor="middle" x="675" y="-119.5" font-family="Helvetica,sans-Serif" font-size="10.00">/l2cap/SocketClient.h</text>
</a>
</g>
</g>
<!-- Node2&#45;&gt;Node4 -->
<g id="edge3" class="edge">
<title>Node2&#45;&gt;Node4</title>
<path fill="none" stroke="midnightblue" d="M829.6,-304.71C839.04,-287.87 847.58,-264.72 838,-246 811.53,-194.3 750.54,-160.14 711.13,-142.58"/>
<polygon fill="midnightblue" stroke="midnightblue" points="826.55,-302.98 824.37,-313.35 832.54,-306.61 826.55,-302.98"/>
</g>
<!-- Node5 -->
<g id="node5" class="node">
<title>Node5</title>
<g id="a_node5"><a xlink:href="bluetooth_2l2cap_2_socket_server_8h.html" target="_top" xlink:title=" ">
<polygon fill="white" stroke="black" points="715.5,-246.5 715.5,-276.5 828.5,-276.5 828.5,-246.5 715.5,-246.5"/>
<text text-anchor="start" x="723.5" y="-264.5" font-family="Helvetica,sans-Serif" font-size="10.00">net/socket/bluetooth</text>
<text text-anchor="middle" x="772" y="-253.5" font-family="Helvetica,sans-Serif" font-size="10.00">/l2cap/SocketServer.h</text>
</a>
</g>
</g>
<!-- Node2&#45;&gt;Node5 -->
<g id="edge4" class="edge">
<title>Node2&#45;&gt;Node5</title>
<path fill="none" stroke="midnightblue" d="M799.38,-304.87C793.3,-295.46 786.43,-284.83 781.1,-276.58"/>
<polygon fill="midnightblue" stroke="midnightblue" points="796.52,-306.9 804.89,-313.4 802.4,-303.1 796.52,-306.9"/>
</g>
<!-- Node7 -->
<g id="node7" class="node">
<title>Node7</title>
<g id="a_node7"><a xlink:href="bluetooth_2rfcomm_2legacy_2_socket_client_8h.html" target="_top" xlink:title=" ">
<polygon fill="white" stroke="black" points="450,-112.5 450,-142.5 602,-142.5 602,-112.5 450,-112.5"/>
<text text-anchor="start" x="458" y="-130.5" font-family="Helvetica,sans-Serif" font-size="10.00">net/socket/bluetooth</text>
<text text-anchor="middle" x="526" y="-119.5" font-family="Helvetica,sans-Serif" font-size="10.00">/rfcomm/legacy/SocketClient.h</text>
</a>
</g>
</g>
<!-- Node6&#45;&gt;Node7 -->
<g id="edge6" class="edge">
<title>Node6&#45;&gt;Node7</title>
<path fill="none" stroke="midnightblue" d="M470.69,-172.88C483,-163.01 497.43,-151.43 508.46,-142.58"/>
<polygon fill="midnightblue" stroke="midnightblue" points="468.18,-170.41 462.58,-179.4 472.57,-175.87 468.18,-170.41"/>
</g>
<!-- Node8 -->
<g id="node8" class="node">
<title>Node8</title>
<g id="a_node8"><a xlink:href="bluetooth_2rfcomm_2legacy_2_socket_server_8h.html" target="_top" xlink:title=" ">
<polygon fill="white" stroke="black" points="0,-112.5 0,-142.5 154,-142.5 154,-112.5 0,-112.5"/>
<text text-anchor="start" x="8" y="-130.5" font-family="Helvetica,sans-Serif" font-size="10.00">net/socket/bluetooth</text>
<text text-anchor="middle" x="77" y="-119.5" font-family="Helvetica,sans-Serif" font-size="10.00">/rfcomm/legacy/SocketServer.h</text>
</a>
</g>
</g>
<!-- Node6&#45;&gt;Node8 -->
<g id="edge7" class="edge">
<title>Node6&#45;&gt;Node8</title>
<path fill="none" stroke="midnightblue" d="M382.08,-182.39C319.07,-171.26 221.99,-154.11 154.33,-142.16"/>
<polygon fill="midnightblue" stroke="midnightblue" points="381.82,-185.89 392.27,-184.19 383.04,-179 381.82,-185.89"/>
</g>
<!-- Node9 -->
<g id="node9" class="node">
<title>Node9</title>
<g id="a_node9"><a xlink:href="bluetooth_2rfcomm_2_socket_8cpp.html" target="_top" xlink:title=" ">
<polygon fill="white" stroke="black" points="172.5,-112.5 172.5,-142.5 277.5,-142.5 277.5,-112.5 172.5,-112.5"/>
<text text-anchor="start" x="180.5" y="-130.5" font-family="Helvetica,sans-Serif" font-size="10.00">net/socket/bluetooth</text>
<text text-anchor="middle" x="225" y="-119.5" font-family="Helvetica,sans-Serif" font-size="10.00">/rfcomm/Socket.cpp</text>
</a>
</g>
</g>
<!-- Node6&#45;&gt;Node9 -->
<g id="edge8" class="edge">
<title>Node6&#45;&gt;Node9</title>
<path fill="none" stroke="midnightblue" d="M387.73,-176.58C352,-166.02 306.54,-152.59 272.76,-142.61"/>
<polygon fill="midnightblue" stroke="midnightblue" points="386.95,-180 397.53,-179.48 388.94,-173.29 386.95,-180"/>
</g>
<!-- Node10 -->
<g id="node10" class="node">
<title>Node10</title>
<g id="a_node10"><a xlink:href="bluetooth_2rfcomm_2tls_2_socket_client_8h.html" target="_top" xlink:title=" ">
<polygon fill="white" stroke="black" points="748,-112.5 748,-142.5 882,-142.5 882,-112.5 748,-112.5"/>
<text text-anchor="start" x="756" y="-130.5" font-family="Helvetica,sans-Serif" font-size="10.00">net/socket/bluetooth</text>
<text text-anchor="middle" x="815" y="-119.5" font-family="Helvetica,sans-Serif" font-size="10.00">/rfcomm/tls/SocketClient.h</text>
</a>
</g>
</g>
<!-- Node6&#45;&gt;Node10 -->
<g id="edge9" class="edge">
<title>Node6&#45;&gt;Node10</title>
<path fill="none" stroke="midnightblue" d="M507.63,-183.09C567.19,-173.1 659.28,-157.45 739,-143 741.91,-142.47 744.88,-141.93 747.88,-141.38"/>
<polygon fill="midnightblue" stroke="midnightblue" points="506.91,-179.66 497.63,-184.76 508.07,-186.56 506.91,-179.66"/>
</g>
<!-- Node11 -->
<g id="node11" class="node">
<title>Node11</title>
<g id="a_node11"><a xlink:href="bluetooth_2rfcomm_2tls_2_socket_server_8h.html" target="_top" xlink:title=" ">
<polygon fill="white" stroke="black" points="296,-112.5 296,-142.5 432,-142.5 432,-112.5 296,-112.5"/>
<text text-anchor="start" x="304" y="-130.5" font-family="Helvetica,sans-Serif" font-size="10.00">net/socket/bluetooth</text>
<text text-anchor="middle" x="364" y="-119.5" font-family="Helvetica,sans-Serif" font-size="10.00">/rfcomm/tls/SocketServer.h</text>
</a>
</g>
</g>
<!-- Node6&#45;&gt;Node11 -->
<g id="edge10" class="edge">
<title>Node6&#45;&gt;Node11</title>
<path fill="none" stroke="midnightblue" d="M419.31,-172.88C407,-163.01 392.57,-151.43 381.54,-142.58"/>
<polygon fill="midnightblue" stroke="midnightblue" points="417.43,-175.87 427.42,-179.4 421.82,-170.41 417.43,-175.87"/>
</g>
<!-- Node13 -->
<g id="node13" class="node">
<title>Node13</title>
<g id="a_node13"><a xlink:href="ip_2tcp_2ipv4_2legacy_2_socket_client_8h.html" target="_top" xlink:title=" ">
<polygon fill="white" stroke="black" points="1034,-112.5 1034,-142.5 1150,-142.5 1150,-112.5 1034,-112.5"/>
<text text-anchor="start" x="1042" y="-130.5" font-family="Helvetica,sans-Serif" font-size="10.00">net/socket/ip/tcp/ipv4</text>
<text text-anchor="middle" x="1092" y="-119.5" font-family="Helvetica,sans-Serif" font-size="10.00">/legacy/SocketClient.h</text>
</a>
</g>
</g>
<!-- Node12&#45;&gt;Node13 -->
<g id="edge12" class="edge">
<title>Node12&#45;&gt;Node13</title>
<path fill="none" stroke="midnightblue" d="M1579.43,-187.59C1466.15,-177.22 1238.3,-155.66 1159,-143 1156.06,-142.53 1153.06,-142.02 1150.03,-141.47"/>
<polygon fill="midnightblue" stroke="midnightblue" points="1579.42,-191.1 1589.7,-188.52 1580.06,-184.13 1579.42,-191.1"/>
</g>
<!-- Node15 -->
<g id="node15" class="node">
<title>Node15</title>
<g id="a_node15"><a xlink:href="ip_2tcp_2ipv4_2legacy_2_socket_server_8h.html" target="_top" xlink:title=" ">
<polygon fill="white" stroke="black" points="1688,-112.5 1688,-142.5 1806,-142.5 1806,-112.5 1688,-112.5"/>
<text text-anchor="start" x="1696" y="-130.5" font-family="Helvetica,sans-Serif" font-size="10.00">net/socket/ip/tcp/ipv4</text>
<text text-anchor="middle" x="1747" y="-119.5" font-family="Helvetica,sans-Serif" font-size="10.00">/legacy/SocketServer.h</text>
</a>
</g>
</g>
<!-- Node12&#45;&gt;Node15 -->
<g id="edge14" class="edge">
<title>Node12&#45;&gt;Node15</title>
<path fill="none" stroke="midnightblue" d="M1675.58,-174.02C1691.45,-163.9 1710.48,-151.77 1724.91,-142.58"/>
<polygon fill="midnightblue" stroke="midnightblue" points="1673.68,-171.07 1667.13,-179.4 1677.45,-176.97 1673.68,-171.07"/>
</g>
<!-- Node18 -->
<g id="node18" class="node">
<title>Node18</title>
<g id="a_node18"><a xlink:href="ip_2tcp_2ipv4_2_socket_8cpp.html" target="_top" xlink:title=" ">
<polygon fill="white" stroke="black" points="1952,-112.5 1952,-142.5 2062,-142.5 2062,-112.5 1952,-112.5"/>
<text text-anchor="start" x="1960" y="-130.5" font-family="Helvetica,sans-Serif" font-size="10.00">net/socket/ip/tcp/ipv4</text>
<text text-anchor="middle" x="2007" y="-119.5" font-family="Helvetica,sans-Serif" font-size="10.00">/Socket.cpp</text>
</a>
</g>
</g>
<!-- Node12&#45;&gt;Node18 -->
<g id="edge17" class="edge">
<title>Node12&#45;&gt;Node18</title>
<path fill="none" stroke="midnightblue" d="M1710.26,-183.5C1770.76,-173.98 1863.2,-158.79 1943,-143 1945.91,-142.43 1948.88,-141.82 1951.88,-141.19"/>
<polygon fill="midnightblue" stroke="midnightblue" points="1709.43,-180.09 1700.09,-185.09 1710.51,-187 1709.43,-180.09"/>
</g>
<!-- Node19 -->
<g id="node19" class="node">
<title>Node19</title>
<g id="a_node19"><a xlink:href="ip_2tcp_2ipv4_2tls_2_socket_client_8h.html" target="_top" xlink:title=" ">
<polygon fill="white" stroke="black" points="1296,-112.5 1296,-142.5 1406,-142.5 1406,-112.5 1296,-112.5"/>
<text text-anchor="start" x="1304" y="-130.5" font-family="Helvetica,sans-Serif" font-size="10.00">net/socket/ip/tcp/ipv4</text>
<text text-anchor="middle" x="1351" y="-119.5" font-family="Helvetica,sans-Serif" font-size="10.00">/tls/SocketClient.h</text>
</a>
</g>
</g>
<!-- Node12&#45;&gt;Node19 -->
<g id="edge18" class="edge">
<title>Node12&#45;&gt;Node19</title>
<path fill="none" stroke="midnightblue" d="M1579.82,-179.31C1533.76,-169.25 1470.57,-155.4 1415,-143 1412.11,-142.36 1409.14,-141.69 1406.15,-141.02"/>
<polygon fill="midnightblue" stroke="midnightblue" points="1579.16,-182.75 1589.67,-181.46 1580.65,-175.91 1579.16,-182.75"/>
</g>
<!-- Node21 -->
<g id="node21" class="node">
<title>Node21</title>
<g id="a_node21"><a xlink:href="ip_2tcp_2ipv4_2tls_2_socket_server_8h.html" target="_top" xlink:title=" ">
<polygon fill="white" stroke="black" points="2080,-112.5 2080,-142.5 2190,-142.5 2190,-112.5 2080,-112.5"/>
<text text-anchor="start" x="2088" y="-130.5" font-family="Helvetica,sans-Serif" font-size="10.00">net/socket/ip/tcp/ipv4</text>
<text text-anchor="middle" x="2135" y="-119.5" font-family="Helvetica,sans-Serif" font-size="10.00">/tls/SocketServer.h</text>
</a>
</g>
</g>
<!-- Node12&#45;&gt;Node21 -->
<g id="edge20" class="edge">
<title>Node12&#45;&gt;Node21</title>
<path fill="none" stroke="midnightblue" d="M1710.21,-187.91C1794.06,-180.24 1944,-164.85 2071,-143 2073.92,-142.5 2076.91,-141.95 2079.92,-141.37"/>
<polygon fill="midnightblue" stroke="midnightblue" points="1709.72,-184.44 1700.07,-188.83 1710.35,-191.41 1709.72,-184.44"/>
</g>
<!-- Node14 -->
<g id="node14" class="node">
<title>Node14</title>
<g id="a_node14"><a xlink:href="legacy_2_client_8h.html" target="_top" xlink:title=" ">
<polygon fill="white" stroke="black" points="974.5,-56.5 974.5,-75.5 1075.5,-75.5 1075.5,-56.5 974.5,-56.5"/>
<text text-anchor="middle" x="1025" y="-63.5" font-family="Helvetica,sans-Serif" font-size="10.00">http/legacy/Client.h</text>
</a>
</g>
</g>
<!-- Node13&#45;&gt;Node14 -->
<g id="edge13" class="edge">
<title>Node13&#45;&gt;Node14</title>
<path fill="none" stroke="midnightblue" d="M1068.46,-105.6C1056.88,-95.32 1043.56,-83.48 1034.75,-75.66"/>
<polygon fill="midnightblue" stroke="midnightblue" points="1066.32,-108.38 1076.12,-112.4 1070.97,-103.14 1066.32,-108.38"/>
</g>
<!-- Node16 -->
<g id="node16" class="node">
<title>Node16</title>
<g id="a_node16"><a xlink:href="legacy_2_server_8h.html" target="_top" xlink:title=" ">
<polygon fill="white" stroke="black" points="1623,-56.5 1623,-75.5 1727,-75.5 1727,-56.5 1623,-56.5"/>
<text text-anchor="middle" x="1675" y="-63.5" font-family="Helvetica,sans-Serif" font-size="10.00">http/legacy/Server.h</text>
</a>
</g>
</g>
<!-- Node15&#45;&gt;Node16 -->
<g id="edge15" class="edge">
<title>Node15&#45;&gt;Node16</title>
<path fill="none" stroke="midnightblue" d="M1722.06,-105.89C1709.54,-95.54 1695.04,-83.56 1685.48,-75.66"/>
<polygon fill="midnightblue" stroke="midnightblue" points="1720,-108.73 1729.94,-112.4 1724.46,-103.33 1720,-108.73"/>
</g>
<!-- Node17 -->
<g id="node17" class="node">
<title>Node17</title>
<g id="a_node17"><a xlink:href="legacy_2_web_app_8h.html" target="_top" xlink:title=" ">
<polygon fill="white" stroke="black" points="1609.5,-0.5 1609.5,-19.5 1740.5,-19.5 1740.5,-0.5 1609.5,-0.5"/>
<text text-anchor="middle" x="1675" y="-7.5" font-family="Helvetica,sans-Serif" font-size="10.00">express/legacy/WebApp.h</text>
</a>
</g>
</g>
<!-- Node16&#45;&gt;Node17 -->
<g id="edge16" class="edge">
<title>Node16&#45;&gt;Node17</title>
<path fill="none" stroke="midnightblue" d="M1675,-45.8C1675,-36.91 1675,-26.78 1675,-19.75"/>
<polygon fill="midnightblue" stroke="midnightblue" points="1671.5,-46.08 1675,-56.08 1678.5,-46.08 1671.5,-46.08"/>
</g>
<!-- Node20 -->
<g id="node20" class="node">
<title>Node20</title>
<g id="a_node20"><a xlink:href="tls_2_client_8h.html" target="_top" xlink:title=" ">
<polygon fill="white" stroke="black" points="1245.5,-56.5 1245.5,-75.5 1328.5,-75.5 1328.5,-56.5 1245.5,-56.5"/>
<text text-anchor="middle" x="1287" y="-63.5" font-family="Helvetica,sans-Serif" font-size="10.00">http/tls/Client.h</text>
</a>
</g>
</g>
<!-- Node19&#45;&gt;Node20 -->
<g id="edge19" class="edge">
<title>Node19&#45;&gt;Node20</title>
<path fill="none" stroke="midnightblue" d="M1328.2,-105.3C1317.21,-95.09 1304.65,-83.41 1296.31,-75.66"/>
<polygon fill="midnightblue" stroke="midnightblue" points="1326.13,-108.15 1335.83,-112.4 1330.89,-103.03 1326.13,-108.15"/>
</g>
<!-- Node22 -->
<g id="node22" class="node">
<title>Node22</title>
<g id="a_node22"><a xlink:href="tls_2_server_8h.html" target="_top" xlink:title=" ">
<polygon fill="white" stroke="black" points="1964,-56.5 1964,-75.5 2050,-75.5 2050,-56.5 1964,-56.5"/>
<text text-anchor="middle" x="2007" y="-63.5" font-family="Helvetica,sans-Serif" font-size="10.00">http/tls/Server.h</text>
</a>
</g>
</g>
<!-- Node21&#45;&gt;Node22 -->
<g id="edge21" class="edge">
<title>Node21&#45;&gt;Node22</title>
<path fill="none" stroke="midnightblue" d="M2095.38,-108.08C2072.13,-97.28 2043.83,-84.12 2025.63,-75.66"/>
<polygon fill="midnightblue" stroke="midnightblue" points="2094.12,-111.36 2104.67,-112.4 2097.07,-105.01 2094.12,-111.36"/>
</g>
<!-- Node23 -->
<g id="node23" class="node">
<title>Node23</title>
<g id="a_node23"><a xlink:href="tls_2_web_app_8h.html" target="_top" xlink:title=" ">
<polygon fill="white" stroke="black" points="1950.5,-0.5 1950.5,-19.5 2063.5,-19.5 2063.5,-0.5 1950.5,-0.5"/>
<text text-anchor="middle" x="2007" y="-7.5" font-family="Helvetica,sans-Serif" font-size="10.00">express/tls/WebApp.h</text>
</a>
</g>
</g>
<!-- Node22&#45;&gt;Node23 -->
<g id="edge22" class="edge">
<title>Node22&#45;&gt;Node23</title>
<path fill="none" stroke="midnightblue" d="M2007,-45.8C2007,-36.91 2007,-26.78 2007,-19.75"/>
<polygon fill="midnightblue" stroke="midnightblue" points="2003.5,-46.08 2007,-56.08 2010.5,-46.08 2003.5,-46.08"/>
</g>
<!-- Node25 -->
<g id="node25" class="node">
<title>Node25</title>
<g id="a_node25"><a xlink:href="ip_2tcp_2ipv6_2legacy_2_socket_client_8h.html" target="_top" xlink:title=" ">
<polygon fill="white" stroke="black" points="900,-112.5 900,-142.5 1016,-142.5 1016,-112.5 900,-112.5"/>
<text text-anchor="start" x="908" y="-130.5" font-family="Helvetica,sans-Serif" font-size="10.00">net/socket/ip/tcp/ipv6</text>
<text text-anchor="middle" x="958" y="-119.5" font-family="Helvetica,sans-Serif" font-size="10.00">/legacy/SocketClient.h</text>
</a>
</g>
</g>
<!-- Node24&#45;&gt;Node25 -->
<g id="edge24" class="edge">
<title>Node24&#45;&gt;Node25</title>
<path fill="none" stroke="midnightblue" d="M1349.73,-185.73C1255.46,-174.38 1085.86,-153.51 1025,-143 1022.07,-142.49 1019.07,-141.95 1016.05,-141.38"/>
<polygon fill="midnightblue" stroke="midnightblue" points="1349.38,-189.21 1359.72,-186.93 1350.21,-182.26 1349.38,-189.21"/>
</g>
<!-- Node26 -->
<g id="node26" class="node">
<title>Node26</title>
<g id="a_node26"><a xlink:href="ip_2tcp_2ipv6_2legacy_2_socket_server_8h.html" target="_top" xlink:title=" ">
<polygon fill="white" stroke="black" points="1552,-112.5 1552,-142.5 1670,-142.5 1670,-112.5 1552,-112.5"/>
<text text-anchor="start" x="1560" y="-130.5" font-family="Helvetica,sans-Serif" font-size="10.00">net/socket/ip/tcp/ipv6</text>
<text text-anchor="middle" x="1611" y="-119.5" font-family="Helvetica,sans-Serif" font-size="10.00">/legacy/SocketServer.h</text>
</a>
</g>
</g>
<!-- Node24&#45;&gt;Node26 -->
<g id="edge26" class="edge">
<title>Node24&#45;&gt;Node26</title>
<path fill="none" stroke="midnightblue" d="M1467.08,-176.23C1498.79,-165.71 1538.78,-152.45 1568.55,-142.58"/>
<polygon fill="midnightblue" stroke="midnightblue" points="1465.92,-172.93 1457.53,-179.4 1468.12,-179.57 1465.92,-172.93"/>
</g>
<!-- Node27 -->
<g id="node27" class="node">
<title>Node27</title>
<g id="a_node27"><a xlink:href="ip_2tcp_2ipv6_2_socket_8cpp.html" target="_top" xlink:title=" ">
<polygon fill="white" stroke="black" points="1424,-112.5 1424,-142.5 1534,-142.5 1534,-112.5 1424,-112.5"/>
<text text-anchor="start" x="1432" y="-130.5" font-family="Helvetica,sans-Serif" font-size="10.00">net/socket/ip/tcp/ipv6</text>
<text text-anchor="middle" x="1479" y="-119.5" font-family="Helvetica,sans-Serif" font-size="10.00">/Socket.cpp</text>
</a>
</g>
</g>
<!-- Node24&#45;&gt;Node27 -->
<g id="edge28" class="edge">
<title>Node24&#45;&gt;Node27</title>
<path fill="none" stroke="midnightblue" d="M1436.15,-172.02C1445.68,-162.34 1456.67,-151.17 1465.14,-142.58"/>
<polygon fill="midnightblue" stroke="midnightblue" points="1433.41,-169.81 1428.89,-179.4 1438.4,-174.73 1433.41,-169.81"/>
</g>
<!-- Node28 -->
<g id="node28" class="node">
<title>Node28</title>
<g id="a_node28"><a xlink:href="ip_2tcp_2ipv6_2tls_2_socket_client_8h.html" target="_top" xlink:title=" ">
<polygon fill="white" stroke="black" points="1168,-112.5 1168,-142.5 1278,-142.5 1278,-112.5 1168,-112.5"/>
<text text-anchor="start" x="1176" y="-130.5" font-family="Helvetica,sans-Serif" font-size="10.00">net/socket/ip/tcp/ipv6</text>
<text text-anchor="middle" x="1223" y="-119.5" font-family="Helvetica,sans-Serif" font-size="10.00">/tls/SocketClient.h</text>
</a>
</g>
</g>
<!-- Node24&#45;&gt;Node28 -->
<g id="edge29" class="edge">
<title>Node24&#45;&gt;Node28</title>
<path fill="none" stroke="midnightblue" d="M1363.58,-176.09C1332.58,-165.6 1293.62,-152.41 1264.58,-142.58"/>
<polygon fill="midnightblue" stroke="midnightblue" points="1362.74,-179.5 1373.34,-179.4 1364.99,-172.87 1362.74,-179.5"/>
</g>
<!-- Node29 -->
<g id="node29" class="node">
<title>Node29</title>
<g id="a_node29"><a xlink:href="ip_2tcp_2ipv6_2tls_2_socket_server_8h.html" target="_top" xlink:title=" ">
<polygon fill="white" stroke="black" points="1824,-112.5 1824,-142.5 1934,-142.5 1934,-112.5 1824,-112.5"/>
<text text-anchor="start" x="1832" y="-130.5" font-family="Helvetica,sans-Serif" font-size="10.00">net/socket/ip/tcp/ipv6</text>
<text text-anchor="middle" x="1879" y="-119.5" font-family="Helvetica,sans-Serif" font-size="10.00">/tls/SocketServer.h</text>
</a>
</g>
</g>
<!-- Node24&#45;&gt;Node29 -->
<g id="edge31" class="edge">
<title>Node24&#45;&gt;Node29</title>
<path fill="none" stroke="midnightblue" d="M1480.6,-187.2C1560.08,-179.1 1697.9,-163.61 1815,-143 1817.92,-142.49 1820.9,-141.93 1823.91,-141.34"/>
<polygon fill="midnightblue" stroke="midnightblue" points="1479.85,-183.75 1470.25,-188.24 1480.55,-190.72 1479.85,-183.75"/>
</g>
<!-- Node25&#45;&gt;Node14 -->
<g id="edge25" class="edge">
<title>Node25&#45;&gt;Node14</title>
<path fill="none" stroke="midnightblue" d="M981.54,-105.6C993.12,-95.32 1006.44,-83.48 1015.25,-75.66"/>
<polygon fill="midnightblue" stroke="midnightblue" points="979.03,-103.14 973.88,-112.4 983.68,-108.38 979.03,-103.14"/>
</g>
<!-- Node26&#45;&gt;Node16 -->
<g id="edge27" class="edge">
<title>Node26&#45;&gt;Node16</title>
<path fill="none" stroke="midnightblue" d="M1633.8,-105.3C1644.79,-95.09 1657.35,-83.41 1665.69,-75.66"/>
<polygon fill="midnightblue" stroke="midnightblue" points="1631.11,-103.03 1626.17,-112.4 1635.87,-108.15 1631.11,-103.03"/>
</g>
<!-- Node28&#45;&gt;Node20 -->
<g id="edge30" class="edge">
<title>Node28&#45;&gt;Node20</title>
<path fill="none" stroke="midnightblue" d="M1245.8,-105.3C1256.79,-95.09 1269.35,-83.41 1277.69,-75.66"/>
<polygon fill="midnightblue" stroke="midnightblue" points="1243.11,-103.03 1238.17,-112.4 1247.87,-108.15 1243.11,-103.03"/>
</g>
<!-- Node29&#45;&gt;Node22 -->
<g id="edge32" class="edge">
<title>Node29&#45;&gt;Node22</title>
<path fill="none" stroke="midnightblue" d="M1918.62,-108.08C1941.87,-97.28 1970.17,-84.12 1988.37,-75.66"/>
<polygon fill="midnightblue" stroke="midnightblue" points="1916.93,-105.01 1909.33,-112.4 1919.88,-111.36 1916.93,-105.01"/>
</g>
<!-- Node31 -->
<g id="node31" class="node">
<title>Node31</title>
<g id="a_node31"><a xlink:href="legacy_2_socket_connector_8h.html" target="_top" xlink:title=" ">
<polygon fill="white" stroke="black" points="885.5,-246.5 885.5,-276.5 1012.5,-276.5 1012.5,-246.5 885.5,-246.5"/>
<text text-anchor="start" x="893.5" y="-264.5" font-family="Helvetica,sans-Serif" font-size="10.00">net/socket/stream/legacy</text>
<text text-anchor="middle" x="949" y="-253.5" font-family="Helvetica,sans-Serif" font-size="10.00">/SocketConnector.h</text>
</a>
</g>
</g>
<!-- Node30&#45;&gt;Node31 -->
<g id="edge34" class="edge">
<title>Node30&#45;&gt;Node31</title>
<path fill="none" stroke="midnightblue" d="M1054.05,-309.27C1030.8,-298.92 1002.13,-286.15 980.62,-276.58"/>
<polygon fill="midnightblue" stroke="midnightblue" points="1052.76,-312.53 1063.32,-313.4 1055.61,-306.13 1052.76,-312.53"/>
</g>
<!-- Node33 -->
<g id="node33" class="node">
<title>Node33</title>
<g id="a_node33"><a xlink:href="stream_2_socket_client_8h.html" target="_top" xlink:title=" ">
<polygon fill="white" stroke="black" points="1030.5,-246.5 1030.5,-276.5 1159.5,-276.5 1159.5,-246.5 1030.5,-246.5"/>
<text text-anchor="start" x="1038.5" y="-264.5" font-family="Helvetica,sans-Serif" font-size="10.00">net/socket/stream/Socket</text>
<text text-anchor="middle" x="1095" y="-253.5" font-family="Helvetica,sans-Serif" font-size="10.00">Client.h</text>
</a>
</g>
</g>
<!-- Node30&#45;&gt;Node33 -->
<g id="edge40" class="edge">
<title>Node30&#45;&gt;Node33</title>
<path fill="none" stroke="midnightblue" d="M1095,-303.11C1095,-294.15 1095,-284.32 1095,-276.58"/>
<polygon fill="midnightblue" stroke="midnightblue" points="1091.5,-303.4 1095,-313.4 1098.5,-303.4 1091.5,-303.4"/>
</g>
<!-- Node35 -->
<g id="node35" class="node">
<title>Node35</title>
<g id="a_node35"><a xlink:href="tls_2_socket_connector_8h.html" target="_top" xlink:title=" ">
<polygon fill="white" stroke="black" points="1177.5,-246.5 1177.5,-276.5 1286.5,-276.5 1286.5,-246.5 1177.5,-246.5"/>
<text text-anchor="start" x="1185.5" y="-264.5" font-family="Helvetica,sans-Serif" font-size="10.00">net/socket/stream/tls</text>
<text text-anchor="middle" x="1232" y="-253.5" font-family="Helvetica,sans-Serif" font-size="10.00">/SocketConnector.h</text>
</a>
</g>
</g>
<!-- Node30&#45;&gt;Node35 -->
<g id="edge46" class="edge">
<title>Node30&#45;&gt;Node35</title>
<path fill="none" stroke="midnightblue" d="M1134.01,-308.99C1155.72,-298.69 1182.33,-286.07 1202.33,-276.58"/>
<polygon fill="midnightblue" stroke="midnightblue" points="1132.26,-305.95 1124.73,-313.4 1135.26,-312.27 1132.26,-305.95"/>
</g>
<!-- Node32 -->
<g id="node32" class="node">
<title>Node32</title>
<g id="a_node32"><a xlink:href="stream_2legacy_2_socket_client_8h.html" target="_top" xlink:title=" ">
<polygon fill="white" stroke="black" points="889.5,-179.5 889.5,-209.5 1016.5,-209.5 1016.5,-179.5 889.5,-179.5"/>
<text text-anchor="start" x="897.5" y="-197.5" font-family="Helvetica,sans-Serif" font-size="10.00">net/socket/stream/legacy</text>
<text text-anchor="middle" x="953" y="-186.5" font-family="Helvetica,sans-Serif" font-size="10.00">/SocketClient.h</text>
</a>
</g>
</g>
<!-- Node31&#45;&gt;Node32 -->
<g id="edge35" class="edge">
<title>Node31&#45;&gt;Node32</title>
<path fill="none" stroke="midnightblue" d="M950.48,-236.4C951.04,-227.37 951.65,-217.41 952.13,-209.58"/>
<polygon fill="midnightblue" stroke="midnightblue" points="946.99,-236.2 949.87,-246.4 953.98,-236.63 946.99,-236.2"/>
</g>
<!-- Node32&#45;&gt;Node4 -->
<g id="edge36" class="edge">
<title>Node32&#45;&gt;Node4</title>
<path fill="none" stroke="midnightblue" d="M883.14,-177.17C835.78,-166.09 774.06,-151.66 730.15,-141.39"/>
<polygon fill="midnightblue" stroke="midnightblue" points="882.49,-180.61 893.02,-179.48 884.08,-173.79 882.49,-180.61"/>
</g>
<!-- Node32&#45;&gt;Node7 -->
<g id="edge37" class="edge">
<title>Node32&#45;&gt;Node7</title>
<path fill="none" stroke="midnightblue" d="M879.32,-183.11C810.01,-173.21 703.37,-157.7 611,-143 608.19,-142.55 605.33,-142.09 602.44,-141.62"/>
<polygon fill="midnightblue" stroke="midnightblue" points="878.88,-186.58 889.27,-184.52 879.87,-179.65 878.88,-186.58"/>
</g>
<!-- Node32&#45;&gt;Node13 -->
<g id="edge38" class="edge">
<title>Node32&#45;&gt;Node13</title>
<path fill="none" stroke="midnightblue" d="M992.28,-175.13C1014.37,-164.8 1041.51,-152.11 1061.9,-142.58"/>
<polygon fill="midnightblue" stroke="midnightblue" points="990.74,-171.99 983.16,-179.4 993.7,-178.33 990.74,-171.99"/>
</g>
<!-- Node32&#45;&gt;Node25 -->
<g id="edge39" class="edge">
<title>Node32&#45;&gt;Node25</title>
<path fill="none" stroke="midnightblue" d="M954.85,-169.4C955.55,-160.37 956.31,-150.41 956.92,-142.58"/>
<polygon fill="midnightblue" stroke="midnightblue" points="951.36,-169.16 954.08,-179.4 958.34,-169.69 951.36,-169.16"/>
</g>
<!-- Node33&#45;&gt;Node32 -->
<g id="edge41" class="edge">
<title>Node33&#45;&gt;Node32</title>
<path fill="none" stroke="midnightblue" d="M1054.87,-242.13C1032.31,-231.8 1004.58,-219.11 983.75,-209.58"/>
<polygon fill="midnightblue" stroke="midnightblue" points="1053.64,-245.42 1064.19,-246.4 1056.55,-239.05 1053.64,-245.42"/>
</g>
<!-- Node34 -->
<g id="node34" class="node">
<title>Node34</title>
<g id="a_node34"><a xlink:href="stream_2tls_2_socket_client_8h.html" target="_top" xlink:title=" ">
<polygon fill="white" stroke="black" points="1168.5,-179.5 1168.5,-209.5 1277.5,-209.5 1277.5,-179.5 1168.5,-179.5"/>
<text text-anchor="start" x="1176.5" y="-197.5" font-family="Helvetica,sans-Serif" font-size="10.00">net/socket/stream/tls</text>
<text text-anchor="middle" x="1223" y="-186.5" font-family="Helvetica,sans-Serif" font-size="10.00">/SocketClient.h</text>
</a>
</g>
</g>
<!-- Node33&#45;&gt;Node34 -->
<g id="edge42" class="edge">
<title>Node33&#45;&gt;Node34</title>
<path fill="none" stroke="midnightblue" d="M1131.72,-241.85C1151.96,-231.58 1176.67,-219.03 1195.28,-209.58"/>
<polygon fill="midnightblue" stroke="midnightblue" points="1130.11,-238.75 1122.77,-246.4 1133.28,-244.99 1130.11,-238.75"/>
</g>
<!-- Node34&#45;&gt;Node10 -->
<g id="edge43" class="edge">
<title>Node34&#45;&gt;Node10</title>
<path fill="none" stroke="midnightblue" d="M1158.27,-184.39C1091.28,-174.79 983.65,-158.88 891,-143 888.09,-142.5 885.11,-141.98 882.11,-141.45"/>
<polygon fill="midnightblue" stroke="midnightblue" points="1157.87,-187.87 1168.26,-185.82 1158.86,-180.94 1157.87,-187.87"/>
</g>
<!-- Node34&#45;&gt;Node19 -->
<g id="edge44" class="edge">
<title>Node34&#45;&gt;Node19</title>
<path fill="none" stroke="midnightblue" d="M1259.72,-174.85C1279.96,-164.58 1304.67,-152.03 1323.28,-142.58"/>
<polygon fill="midnightblue" stroke="midnightblue" points="1258.11,-171.75 1250.77,-179.4 1261.28,-177.99 1258.11,-171.75"/>
</g>
<!-- Node34&#45;&gt;Node28 -->
<g id="edge45" class="edge">
<title>Node34&#45;&gt;Node28</title>
<path fill="none" stroke="midnightblue" d="M1223,-169.11C1223,-160.15 1223,-150.32 1223,-142.58"/>
<polygon fill="midnightblue" stroke="midnightblue" points="1219.5,-169.4 1223,-179.4 1226.5,-169.4 1219.5,-169.4"/>
</g>
<!-- Node35&#45;&gt;Node34 -->
<g id="edge47" class="edge">
<title>Node35&#45;&gt;Node34</title>
<path fill="none" stroke="midnightblue" d="M1228.66,-236.4C1227.41,-227.37 1226.03,-217.41 1224.95,-209.58"/>
<polygon fill="midnightblue" stroke="midnightblue" points="1225.21,-236.97 1230.05,-246.4 1232.14,-236.01 1225.21,-236.97"/>
</g>
</g>
</svg>
