<?xml version="1.0" encoding="UTF-8" standalone="no"?>
<!DOCTYPE svg PUBLIC "-//W3C//DTD SVG 1.1//EN"
 "http://www.w3.org/Graphics/SVG/1.1/DTD/svg11.dtd">
<!-- Generated by graphviz version 2.43.0 (0)
 -->
<!-- Title: net/socket/sock_stream/SocketListener.h Pages: 1 -->
<svg width="844pt" height="352pt"
 viewBox="0.00 0.00 844.00 352.00" xmlns="http://www.w3.org/2000/svg" xmlns:xlink="http://www.w3.org/1999/xlink">
<g id="graph0" class="graph" transform="scale(1 1) rotate(0) translate(4 348)">
<title>net/socket/sock_stream/SocketListener.h</title>
<polygon fill="white" stroke="transparent" points="-4,4 -4,-348 840,-348 840,4 -4,4"/>
<!-- Node1 -->
<g id="node1" class="node">
<title>Node1</title>
<g id="a_node1"><a xlink:title=" ">
<polygon fill="#bfbfbf" stroke="black" points="379,-313.5 379,-343.5 501,-343.5 501,-313.5 379,-313.5"/>
<text text-anchor="start" x="387" y="-331.5" font-family="Helvetica,sans-Serif" font-size="10.00">net/socket/sock_stream</text>
<text text-anchor="middle" x="440" y="-320.5" font-family="Helvetica,sans-Serif" font-size="10.00">/SocketListener.h</text>
</a>
</g>
</g>
<!-- Node2 -->
<g id="node2" class="node">
<title>Node2</title>
<g id="a_node2"><a xlink:href="legacy_2_socket_listener_8h.html" target="_top" xlink:title=" ">
<polygon fill="white" stroke="black" points="237,-246.5 237,-276.5 361,-276.5 361,-246.5 237,-246.5"/>
<text text-anchor="start" x="245" y="-264.5" font-family="Helvetica,sans-Serif" font-size="10.00">net/socket/sock_stream</text>
<text text-anchor="middle" x="299" y="-253.5" font-family="Helvetica,sans-Serif" font-size="10.00">/legacy/SocketListener.h</text>
</a>
</g>
</g>
<!-- Node1&#45;&gt;Node2 -->
<g id="edge1" class="edge">
<title>Node1&#45;&gt;Node2</title>
<path fill="none" stroke="midnightblue" d="M400.15,-309.13C377.75,-298.8 350.22,-286.11 329.54,-276.58"/>
<polygon fill="midnightblue" stroke="midnightblue" points="398.86,-312.39 409.41,-313.4 401.79,-306.03 398.86,-312.39"/>
</g>
<!-- Node9 -->
<g id="node9" class="node">
<title>Node9</title>
<g id="a_node9"><a xlink:href="sock__stream_2_socket_server_8h.html" target="_top" xlink:title=" ">
<polygon fill="white" stroke="black" points="379,-246.5 379,-276.5 501,-276.5 501,-246.5 379,-246.5"/>
<text text-anchor="start" x="387" y="-264.5" font-family="Helvetica,sans-Serif" font-size="10.00">net/socket/sock_stream</text>
<text text-anchor="middle" x="440" y="-253.5" font-family="Helvetica,sans-Serif" font-size="10.00">/SocketServer.h</text>
</a>
</g>
</g>
<!-- Node1&#45;&gt;Node9 -->
<g id="edge9" class="edge">
<title>Node1&#45;&gt;Node9</title>
<path fill="none" stroke="midnightblue" d="M440,-303.11C440,-294.15 440,-284.32 440,-276.58"/>
<polygon fill="midnightblue" stroke="midnightblue" points="436.5,-303.4 440,-313.4 443.5,-303.4 436.5,-303.4"/>
</g>
<!-- Node16 -->
<g id="node16" class="node">
<title>Node16</title>
<g id="a_node16"><a xlink:href="tls_2_socket_listener_8h.html" target="_top" xlink:title=" ">
<polygon fill="white" stroke="black" points="519,-246.5 519,-276.5 641,-276.5 641,-246.5 519,-246.5"/>
<text text-anchor="start" x="527" y="-264.5" font-family="Helvetica,sans-Serif" font-size="10.00">net/socket/sock_stream</text>
<text text-anchor="middle" x="580" y="-253.5" font-family="Helvetica,sans-Serif" font-size="10.00">/tls/SocketListener.h</text>
</a>
</g>
</g>
<!-- Node1&#45;&gt;Node16 -->
<g id="edge18" class="edge">
<title>Node1&#45;&gt;Node16</title>
<path fill="none" stroke="midnightblue" d="M479.57,-309.13C501.81,-298.8 529.15,-286.11 549.68,-276.58"/>
<polygon fill="midnightblue" stroke="midnightblue" points="477.97,-306.01 470.38,-313.4 480.92,-312.36 477.97,-306.01"/>
</g>
<!-- Node3 -->
<g id="node3" class="node">
<title>Node3</title>
<g id="a_node3"><a xlink:href="sock__stream_2legacy_2_socket_server_8h.html" target="_top" xlink:title=" ">
<polygon fill="white" stroke="black" points="238,-179.5 238,-209.5 360,-209.5 360,-179.5 238,-179.5"/>
<text text-anchor="start" x="246" y="-197.5" font-family="Helvetica,sans-Serif" font-size="10.00">net/socket/sock_stream</text>
<text text-anchor="middle" x="299" y="-186.5" font-family="Helvetica,sans-Serif" font-size="10.00">/legacy/SocketServer.h</text>
</a>
</g>
</g>
<!-- Node2&#45;&gt;Node3 -->
<g id="edge2" class="edge">
<title>Node2&#45;&gt;Node3</title>
<path fill="none" stroke="midnightblue" d="M299,-236.11C299,-227.15 299,-217.32 299,-209.58"/>
<polygon fill="midnightblue" stroke="midnightblue" points="295.5,-236.4 299,-246.4 302.5,-236.4 295.5,-236.4"/>
</g>
<!-- Node4 -->
<g id="node4" class="node">
<title>Node4</title>
<g id="a_node4"><a xlink:href="bluetooth_2rfcomm_2legacy_2_socket_server_8h.html" target="_top" xlink:title=" ">
<polygon fill="white" stroke="black" points="0,-112.5 0,-142.5 154,-142.5 154,-112.5 0,-112.5"/>
<text text-anchor="start" x="8" y="-130.5" font-family="Helvetica,sans-Serif" font-size="10.00">net/socket/bluetooth</text>
<text text-anchor="middle" x="77" y="-119.5" font-family="Helvetica,sans-Serif" font-size="10.00">/rfcomm/legacy/SocketServer.h</text>
</a>
</g>
</g>
<!-- Node3&#45;&gt;Node4 -->
<g id="edge3" class="edge">
<title>Node3&#45;&gt;Node4</title>
<path fill="none" stroke="midnightblue" d="M241.21,-176.58C205.15,-166.02 159.28,-152.59 125.19,-142.61"/>
<polygon fill="midnightblue" stroke="midnightblue" points="240.52,-180.02 251.1,-179.48 242.49,-173.31 240.52,-180.02"/>
</g>
<!-- Node5 -->
<g id="node5" class="node">
<title>Node5</title>
<g id="a_node5"><a xlink:href="ip_2tcp_2ipv4_2legacy_2_socket_server_8h.html" target="_top" xlink:title=" ">
<polygon fill="white" stroke="black" points="172,-112.5 172,-142.5 290,-142.5 290,-112.5 172,-112.5"/>
<text text-anchor="start" x="180" y="-130.5" font-family="Helvetica,sans-Serif" font-size="10.00">net/socket/ip/tcp/ipv4</text>
<text text-anchor="middle" x="231" y="-119.5" font-family="Helvetica,sans-Serif" font-size="10.00">/legacy/SocketServer.h</text>
</a>
</g>
</g>
<!-- Node3&#45;&gt;Node5 -->
<g id="edge4" class="edge">
<title>Node3&#45;&gt;Node5</title>
<path fill="none" stroke="midnightblue" d="M276.83,-172.31C266.63,-162.56 254.81,-151.26 245.73,-142.58"/>
<polygon fill="midnightblue" stroke="midnightblue" points="274.6,-175.02 284.25,-179.4 279.43,-169.96 274.6,-175.02"/>
</g>
<!-- Node8 -->
<g id="node8" class="node">
<title>Node8</title>
<g id="a_node8"><a xlink:href="ip_2tcp_2ipv6_2legacy_2_socket_server_8h.html" target="_top" xlink:title=" ">
<polygon fill="white" stroke="black" points="308,-112.5 308,-142.5 426,-142.5 426,-112.5 308,-112.5"/>
<text text-anchor="start" x="316" y="-130.5" font-family="Helvetica,sans-Serif" font-size="10.00">net/socket/ip/tcp/ipv6</text>
<text text-anchor="middle" x="367" y="-119.5" font-family="Helvetica,sans-Serif" font-size="10.00">/legacy/SocketServer.h</text>
</a>
</g>
</g>
<!-- Node3&#45;&gt;Node8 -->
<g id="edge7" class="edge">
<title>Node3&#45;&gt;Node8</title>
<path fill="none" stroke="midnightblue" d="M321.17,-172.31C331.37,-162.56 343.19,-151.26 352.27,-142.58"/>
<polygon fill="midnightblue" stroke="midnightblue" points="318.57,-169.96 313.75,-179.4 323.4,-175.02 318.57,-169.96"/>
</g>
<!-- Node6 -->
<g id="node6" class="node">
<title>Node6</title>
<g id="a_node6"><a xlink:href="legacy_2_server_8h.html" target="_top" xlink:title=" ">
<polygon fill="white" stroke="black" points="247,-56.5 247,-75.5 351,-75.5 351,-56.5 247,-56.5"/>
<text text-anchor="middle" x="299" y="-63.5" font-family="Helvetica,sans-Serif" font-size="10.00">http/legacy/Server.h</text>
</a>
</g>
</g>
<!-- Node5&#45;&gt;Node6 -->
<g id="edge5" class="edge">
<title>Node5&#45;&gt;Node6</title>
<path fill="none" stroke="midnightblue" d="M254.89,-105.6C266.64,-95.32 280.16,-83.48 289.11,-75.66"/>
<polygon fill="midnightblue" stroke="midnightblue" points="252.34,-103.18 247.12,-112.4 256.95,-108.45 252.34,-103.18"/>
</g>
<!-- Node7 -->
<g id="node7" class="node">
<title>Node7</title>
<g id="a_node7"><a xlink:href="legacy_2_web_app_8h.html" target="_top" xlink:title=" ">
<polygon fill="white" stroke="black" points="233.5,-0.5 233.5,-19.5 364.5,-19.5 364.5,-0.5 233.5,-0.5"/>
<text text-anchor="middle" x="299" y="-7.5" font-family="Helvetica,sans-Serif" font-size="10.00">express/legacy/WebApp.h</text>
</a>
</g>
</g>
<!-- Node6&#45;&gt;Node7 -->
<g id="edge6" class="edge">
<title>Node6&#45;&gt;Node7</title>
<path fill="none" stroke="midnightblue" d="M299,-45.8C299,-36.91 299,-26.78 299,-19.75"/>
<polygon fill="midnightblue" stroke="midnightblue" points="295.5,-46.08 299,-56.08 302.5,-46.08 295.5,-46.08"/>
</g>
<!-- Node8&#45;&gt;Node6 -->
<g id="edge8" class="edge">
<title>Node8&#45;&gt;Node6</title>
<path fill="none" stroke="midnightblue" d="M343.11,-105.6C331.36,-95.32 317.84,-83.48 308.89,-75.66"/>
<polygon fill="midnightblue" stroke="midnightblue" points="341.05,-108.45 350.88,-112.4 345.66,-103.18 341.05,-108.45"/>
</g>
<!-- Node9&#45;&gt;Node3 -->
<g id="edge10" class="edge">
<title>Node9&#45;&gt;Node3</title>
<path fill="none" stroke="midnightblue" d="M400.15,-242.13C377.75,-231.8 350.22,-219.11 329.54,-209.58"/>
<polygon fill="midnightblue" stroke="midnightblue" points="398.86,-245.39 409.41,-246.4 401.79,-239.03 398.86,-245.39"/>
</g>
<!-- Node10 -->
<g id="node10" class="node">
<title>Node10</title>
<g id="a_node10"><a xlink:href="sock__stream_2tls_2_socket_server_8h.html" target="_top" xlink:title=" ">
<polygon fill="white" stroke="black" points="519,-179.5 519,-209.5 641,-209.5 641,-179.5 519,-179.5"/>
<text text-anchor="start" x="527" y="-197.5" font-family="Helvetica,sans-Serif" font-size="10.00">net/socket/sock_stream</text>
<text text-anchor="middle" x="580" y="-186.5" font-family="Helvetica,sans-Serif" font-size="10.00">/tls/SocketServer.h</text>
</a>
</g>
</g>
<!-- Node9&#45;&gt;Node10 -->
<g id="edge11" class="edge">
<title>Node9&#45;&gt;Node10</title>
<path fill="none" stroke="midnightblue" d="M479.57,-242.13C501.81,-231.8 529.15,-219.11 549.68,-209.58"/>
<polygon fill="midnightblue" stroke="midnightblue" points="477.97,-239.01 470.38,-246.4 480.92,-245.36 477.97,-239.01"/>
</g>
<!-- Node11 -->
<g id="node11" class="node">
<title>Node11</title>
<g id="a_node11"><a xlink:href="bluetooth_2rfcomm_2tls_2_socket_server_8h.html" target="_top" xlink:title=" ">
<polygon fill="white" stroke="black" points="444,-112.5 444,-142.5 580,-142.5 580,-112.5 444,-112.5"/>
<text text-anchor="start" x="452" y="-130.5" font-family="Helvetica,sans-Serif" font-size="10.00">net/socket/bluetooth</text>
<text text-anchor="middle" x="512" y="-119.5" font-family="Helvetica,sans-Serif" font-size="10.00">/rfcomm/tls/SocketServer.h</text>
</a>
</g>
</g>
<!-- Node10&#45;&gt;Node11 -->
<g id="edge12" class="edge">
<title>Node10&#45;&gt;Node11</title>
<path fill="none" stroke="midnightblue" d="M557.83,-172.31C547.63,-162.56 535.81,-151.26 526.73,-142.58"/>
<polygon fill="midnightblue" stroke="midnightblue" points="555.6,-175.02 565.25,-179.4 560.43,-169.96 555.6,-175.02"/>
</g>
<!-- Node12 -->
<g id="node12" class="node">
<title>Node12</title>
<g id="a_node12"><a xlink:href="ip_2tcp_2ipv4_2tls_2_socket_server_8h.html" target="_top" xlink:title=" ">
<polygon fill="white" stroke="black" points="598,-112.5 598,-142.5 708,-142.5 708,-112.5 598,-112.5"/>
<text text-anchor="start" x="606" y="-130.5" font-family="Helvetica,sans-Serif" font-size="10.00">net/socket/ip/tcp/ipv4</text>
<text text-anchor="middle" x="653" y="-119.5" font-family="Helvetica,sans-Serif" font-size="10.00">/tls/SocketServer.h</text>
</a>
</g>
</g>
<!-- Node10&#45;&gt;Node12 -->
<g id="edge13" class="edge">
<title>Node10&#45;&gt;Node12</title>
<path fill="none" stroke="midnightblue" d="M603.47,-172.6C614.5,-162.78 627.34,-151.34 637.19,-142.58"/>
<polygon fill="midnightblue" stroke="midnightblue" points="600.98,-170.13 595.84,-179.4 605.64,-175.36 600.98,-170.13"/>
</g>
<!-- Node15 -->
<g id="node15" class="node">
<title>Node15</title>
<g id="a_node15"><a xlink:href="ip_2tcp_2ipv6_2tls_2_socket_server_8h.html" target="_top" xlink:title=" ">
<polygon fill="white" stroke="black" points="726,-112.5 726,-142.5 836,-142.5 836,-112.5 726,-112.5"/>
<text text-anchor="start" x="734" y="-130.5" font-family="Helvetica,sans-Serif" font-size="10.00">net/socket/ip/tcp/ipv6</text>
<text text-anchor="middle" x="781" y="-119.5" font-family="Helvetica,sans-Serif" font-size="10.00">/tls/SocketServer.h</text>
</a>
</g>
</g>
<!-- Node10&#45;&gt;Node15 -->
<g id="edge16" class="edge">
<title>Node10&#45;&gt;Node15</title>
<path fill="none" stroke="midnightblue" d="M633.41,-176.23C665.93,-165.71 706.94,-152.45 737.47,-142.58"/>
<polygon fill="midnightblue" stroke="midnightblue" points="632.05,-172.99 623.61,-179.4 634.21,-179.65 632.05,-172.99"/>
</g>
<!-- Node13 -->
<g id="node13" class="node">
<title>Node13</title>
<g id="a_node13"><a xlink:href="tls_2_server_8h.html" target="_top" xlink:title=" ">
<polygon fill="white" stroke="black" points="674,-56.5 674,-75.5 760,-75.5 760,-56.5 674,-56.5"/>
<text text-anchor="middle" x="717" y="-63.5" font-family="Helvetica,sans-Serif" font-size="10.00">http/tls/Server.h</text>
</a>
</g>
</g>
<!-- Node12&#45;&gt;Node13 -->
<g id="edge14" class="edge">
<title>Node12&#45;&gt;Node13</title>
<path fill="none" stroke="midnightblue" d="M675.8,-105.3C686.79,-95.09 699.35,-83.41 707.69,-75.66"/>
<polygon fill="midnightblue" stroke="midnightblue" points="673.11,-103.03 668.17,-112.4 677.87,-108.15 673.11,-103.03"/>
</g>
<!-- Node14 -->
<g id="node14" class="node">
<title>Node14</title>
<g id="a_node14"><a xlink:href="tls_2_web_app_8h.html" target="_top" xlink:title=" ">
<polygon fill="white" stroke="black" points="660.5,-0.5 660.5,-19.5 773.5,-19.5 773.5,-0.5 660.5,-0.5"/>
<text text-anchor="middle" x="717" y="-7.5" font-family="Helvetica,sans-Serif" font-size="10.00">express/tls/WebApp.h</text>
</a>
</g>
</g>
<!-- Node13&#45;&gt;Node14 -->
<g id="edge15" class="edge">
<title>Node13&#45;&gt;Node14</title>
<path fill="none" stroke="midnightblue" d="M717,-45.8C717,-36.91 717,-26.78 717,-19.75"/>
<polygon fill="midnightblue" stroke="midnightblue" points="713.5,-46.08 717,-56.08 720.5,-46.08 713.5,-46.08"/>
</g>
<!-- Node15&#45;&gt;Node13 -->
<g id="edge17" class="edge">
<title>Node15&#45;&gt;Node13</title>
<path fill="none" stroke="midnightblue" d="M758.2,-105.3C747.21,-95.09 734.65,-83.41 726.31,-75.66"/>
<polygon fill="midnightblue" stroke="midnightblue" points="756.13,-108.15 765.83,-112.4 760.89,-103.03 756.13,-108.15"/>
</g>
<!-- Node16&#45;&gt;Node10 -->
<g id="edge19" class="edge">
<title>Node16&#45;&gt;Node10</title>
<path fill="none" stroke="midnightblue" d="M580,-236.11C580,-227.15 580,-217.32 580,-209.58"/>
<polygon fill="midnightblue" stroke="midnightblue" points="576.5,-236.4 580,-246.4 583.5,-236.4 576.5,-236.4"/>
</g>
</g>
</svg>
