<?xml version="1.0" encoding="UTF-8" standalone="no"?>
<!DOCTYPE svg PUBLIC "-//W3C//DTD SVG 1.1//EN"
 "http://www.w3.org/Graphics/SVG/1.1/DTD/svg11.dtd">
<!-- Generated by graphviz version 2.43.0 (0)
 -->
<!-- Title: web/ws/SubProtocolSelector.cpp Pages: 1 -->
<svg width="472pt" height="140pt"
 viewBox="0.00 0.00 471.50 140.00" xmlns="http://www.w3.org/2000/svg" xmlns:xlink="http://www.w3.org/1999/xlink">
<g id="graph0" class="graph" transform="scale(1 1) rotate(0) translate(4 136)">
<title>web/ws/SubProtocolSelector.cpp</title>
<polygon fill="white" stroke="transparent" points="-4,4 -4,-136 467.5,-136 467.5,4 -4,4"/>
<!-- Node1 -->
<g id="node1" class="node">
<title>Node1</title>
<g id="a_node1"><a xlink:title=" ">
<polygon fill="#bfbfbf" stroke="black" points="195,-112.5 195,-131.5 356,-131.5 356,-112.5 195,-112.5"/>
<text text-anchor="middle" x="275.5" y="-119.5" font-family="Helvetica,sans-Serif" font-size="10.00">web/ws/SubProtocolSelector.cpp</text>
</a>
</g>
</g>
<!-- Node2 -->
<g id="node2" class="node">
<title>Node2</title>
<g id="a_node2"><a xlink:href="_sub_protocol_selector_8h.html" target="_top" xlink:title=" ">
<polygon fill="white" stroke="black" points="0,-56.5 0,-75.5 113,-75.5 113,-56.5 0,-56.5"/>
<text text-anchor="middle" x="56.5" y="-63.5" font-family="Helvetica,sans-Serif" font-size="10.00">SubProtocolSelector.h</text>
</a>
</g>
</g>
<!-- Node1&#45;&gt;Node2 -->
<g id="edge1" class="edge">
<title>Node1&#45;&gt;Node2</title>
<path fill="none" stroke="midnightblue" d="M240.8,-112.44C202.92,-103.1 142.15,-88.12 100.84,-77.93"/>
<polygon fill="midnightblue" stroke="midnightblue" points="101.59,-74.51 91.04,-75.52 99.91,-81.31 101.59,-74.51"/>
</g>
<!-- Node3 -->
<g id="node3" class="node">
<title>Node3</title>
<g id="a_node3"><a xlink:href="_sub_protocol_interface_8h.html" target="_top" xlink:title=" ">
<polygon fill="white" stroke="black" points="131.5,-56.5 131.5,-75.5 247.5,-75.5 247.5,-56.5 131.5,-56.5"/>
<text text-anchor="middle" x="189.5" y="-63.5" font-family="Helvetica,sans-Serif" font-size="10.00">SubProtocolInterface.h</text>
</a>
</g>
</g>
<!-- Node1&#45;&gt;Node3 -->
<g id="edge2" class="edge">
<title>Node1&#45;&gt;Node3</title>
<path fill="none" stroke="midnightblue" d="M261.68,-112.32C248.27,-103.9 227.68,-90.97 211.91,-81.07"/>
<polygon fill="midnightblue" stroke="midnightblue" points="213.61,-78.01 203.28,-75.65 209.89,-83.94 213.61,-78.01"/>
</g>
<!-- Node4 -->
<g id="node4" class="node">
<title>Node4</title>
<g id="a_node4"><a xlink:href="_sub_protocol_8h.html" target="_top" xlink:title=" ">
<polygon fill="white" stroke="black" points="175,-0.5 175,-19.5 290,-19.5 290,-0.5 175,-0.5"/>
<text text-anchor="middle" x="232.5" y="-7.5" font-family="Helvetica,sans-Serif" font-size="10.00">web/ws/SubProtocol.h</text>
</a>
</g>
</g>
<!-- Node1&#45;&gt;Node4 -->
<g id="edge6" class="edge">
<title>Node1&#45;&gt;Node4</title>
<path fill="none" stroke="midnightblue" d="M273.58,-112.4C270.64,-99.77 264.49,-75.6 256.5,-56 252.7,-46.67 247.54,-36.75 242.97,-28.6"/>
<polygon fill="midnightblue" stroke="midnightblue" points="245.87,-26.62 237.84,-19.7 239.8,-30.11 245.87,-26.62"/>
</g>
<!-- Node5 -->
<g id="node5" class="node">
<title>Node5</title>
<g id="a_node5"><a xlink:href="_logger_8h.html" target="_top" xlink:title=" ">
<polygon fill="white" stroke="black" points="304,-56.5 304,-75.5 373,-75.5 373,-56.5 304,-56.5"/>
<text text-anchor="middle" x="338.5" y="-63.5" font-family="Helvetica,sans-Serif" font-size="10.00">log/Logger.h</text>
</a>
</g>
</g>
<!-- Node1&#45;&gt;Node5 -->
<g id="edge4" class="edge">
<title>Node1&#45;&gt;Node5</title>
<path fill="none" stroke="midnightblue" d="M285.62,-112.32C295.03,-104.26 309.24,-92.08 320.57,-82.37"/>
<polygon fill="midnightblue" stroke="midnightblue" points="322.88,-85 328.19,-75.83 318.32,-79.68 322.88,-85"/>
</g>
<!-- Node6 -->
<g id="node6" class="node">
<title>Node6</title>
<g id="a_node6"><a xlink:title=" ">
<polygon fill="white" stroke="#bfbfbf" points="391.5,-56.5 391.5,-75.5 463.5,-75.5 463.5,-56.5 391.5,-56.5"/>
<text text-anchor="middle" x="427.5" y="-63.5" font-family="Helvetica,sans-Serif" font-size="10.00">web/config.h</text>
</a>
</g>
</g>
<!-- Node1&#45;&gt;Node6 -->
<g id="edge5" class="edge">
<title>Node1&#45;&gt;Node6</title>
<path fill="none" stroke="midnightblue" d="M299.58,-112.44C325.04,-103.4 365.39,-89.06 393.96,-78.92"/>
<polygon fill="midnightblue" stroke="midnightblue" points="395.28,-82.16 403.53,-75.52 392.93,-75.57 395.28,-82.16"/>
</g>
<!-- Node3&#45;&gt;Node4 -->
<g id="edge3" class="edge">
<title>Node3&#45;&gt;Node4</title>
<path fill="none" stroke="midnightblue" d="M196.6,-56.08C202.74,-48.38 211.77,-37.03 219.24,-27.65"/>
<polygon fill="midnightblue" stroke="midnightblue" points="222.04,-29.75 225.53,-19.75 216.56,-25.39 222.04,-29.75"/>
</g>
</g>
</svg>
