<?xml version="1.0" encoding="UTF-8" standalone="no"?>
<!DOCTYPE svg PUBLIC "-//W3C//DTD SVG 1.1//EN"
 "http://www.w3.org/Graphics/SVG/1.1/DTD/svg11.dtd">
<!-- Generated by graphviz version 2.43.0 (0)
 -->
<!-- Title: web/websocket/SubProtocol.h Pages: 1 -->
<svg width="1079pt" height="229pt"
 viewBox="0.00 0.00 1078.50 229.00" xmlns="http://www.w3.org/2000/svg" xmlns:xlink="http://www.w3.org/1999/xlink">
<g id="graph0" class="graph" transform="scale(1 1) rotate(0) translate(4 225)">
<title>web/websocket/SubProtocol.h</title>
<polygon fill="white" stroke="transparent" points="-4,4 -4,-225 1074.5,-225 1074.5,4 -4,4"/>
<!-- Node1 -->
<g id="node1" class="node">
<title>Node1</title>
<g id="a_node1"><a xlink:title=" ">
<polygon fill="#bfbfbf" stroke="black" points="242,-201.5 242,-220.5 391,-220.5 391,-201.5 242,-201.5"/>
<text text-anchor="middle" x="316.5" y="-208.5" font-family="Helvetica,sans-Serif" font-size="10.00">web/websocket/SubProtocol.h</text>
</a>
</g>
</g>
<!-- Node2 -->
<g id="node2" class="node">
<title>Node2</title>
<g id="a_node2"><a xlink:href="client_2_sub_protocol_8h.html" target="_top" xlink:title=" ">
<polygon fill="white" stroke="black" points="129,-134.5 129,-164.5 240,-164.5 240,-134.5 129,-134.5"/>
<text text-anchor="start" x="137" y="-152.5" font-family="Helvetica,sans-Serif" font-size="10.00">web/websocket/client</text>
<text text-anchor="middle" x="184.5" y="-141.5" font-family="Helvetica,sans-Serif" font-size="10.00">/SubProtocol.h</text>
</a>
</g>
</g>
<!-- Node1&#45;&gt;Node2 -->
<g id="edge1" class="edge">
<title>Node1&#45;&gt;Node2</title>
<path fill="none" stroke="midnightblue" d="M288.39,-197.33C267.04,-187.7 237.67,-174.47 215.61,-164.52"/>
<polygon fill="midnightblue" stroke="midnightblue" points="287.03,-200.56 297.59,-201.48 289.91,-194.17 287.03,-200.56"/>
</g>
<!-- Node5 -->
<g id="node5" class="node">
<title>Node5</title>
<g id="a_node5"><a xlink:href="server_2_sub_protocol_8h.html" target="_top" xlink:title=" ">
<polygon fill="white" stroke="black" points="472,-134.5 472,-164.5 587,-164.5 587,-134.5 472,-134.5"/>
<text text-anchor="start" x="480" y="-152.5" font-family="Helvetica,sans-Serif" font-size="10.00">web/websocket/server</text>
<text text-anchor="middle" x="529.5" y="-141.5" font-family="Helvetica,sans-Serif" font-size="10.00">/SubProtocol.h</text>
</a>
</g>
</g>
<!-- Node1&#45;&gt;Node5 -->
<g id="edge4" class="edge">
<title>Node1&#45;&gt;Node5</title>
<path fill="none" stroke="midnightblue" d="M356.83,-198.73C391.59,-189.02 441.93,-174.96 479.3,-164.52"/>
<polygon fill="midnightblue" stroke="midnightblue" points="355.71,-195.41 347.02,-201.48 357.59,-202.16 355.71,-195.41"/>
</g>
<!-- Node3 -->
<g id="node3" class="node">
<title>Node3</title>
<g id="a_node3"><a xlink:href="web_2websocket_2client_2_socket_context_8cpp.html" target="_top" xlink:title=" ">
<polygon fill="white" stroke="black" points="0,-67.5 0,-97.5 111,-97.5 111,-67.5 0,-67.5"/>
<text text-anchor="start" x="8" y="-85.5" font-family="Helvetica,sans-Serif" font-size="10.00">web/websocket/client</text>
<text text-anchor="middle" x="55.5" y="-74.5" font-family="Helvetica,sans-Serif" font-size="10.00">/SocketContext.cpp</text>
</a>
</g>
</g>
<!-- Node2&#45;&gt;Node3 -->
<g id="edge2" class="edge">
<title>Node2&#45;&gt;Node3</title>
<path fill="none" stroke="midnightblue" d="M147.49,-129.85C127.1,-119.58 102.19,-107.03 83.44,-97.58"/>
<polygon fill="midnightblue" stroke="midnightblue" points="146,-133.02 156.51,-134.4 149.15,-126.77 146,-133.02"/>
</g>
<!-- Node4 -->
<g id="node4" class="node">
<title>Node4</title>
<g id="a_node4"><a xlink:href="client_2_sub_protocol_8cpp.html" target="_top" xlink:title=" ">
<polygon fill="white" stroke="black" points="129,-67.5 129,-97.5 240,-97.5 240,-67.5 129,-67.5"/>
<text text-anchor="start" x="137" y="-85.5" font-family="Helvetica,sans-Serif" font-size="10.00">web/websocket/client</text>
<text text-anchor="middle" x="184.5" y="-74.5" font-family="Helvetica,sans-Serif" font-size="10.00">/SubProtocol.cpp</text>
</a>
</g>
</g>
<!-- Node2&#45;&gt;Node4 -->
<g id="edge3" class="edge">
<title>Node2&#45;&gt;Node4</title>
<path fill="none" stroke="midnightblue" d="M184.5,-124.11C184.5,-115.15 184.5,-105.32 184.5,-97.58"/>
<polygon fill="midnightblue" stroke="midnightblue" points="181,-124.4 184.5,-134.4 188,-124.4 181,-124.4"/>
</g>
<!-- Node6 -->
<g id="node6" class="node">
<title>Node6</title>
<g id="a_node6"><a xlink:href="_channel_manager_8cpp.html" target="_top" xlink:title=" ">
<polygon fill="white" stroke="black" points="258,-67.5 258,-97.5 373,-97.5 373,-67.5 258,-67.5"/>
<text text-anchor="start" x="266" y="-85.5" font-family="Helvetica,sans-Serif" font-size="10.00">web/websocket/server</text>
<text text-anchor="middle" x="315.5" y="-74.5" font-family="Helvetica,sans-Serif" font-size="10.00">/ChannelManager.cpp</text>
</a>
</g>
</g>
<!-- Node5&#45;&gt;Node6 -->
<g id="edge5" class="edge">
<title>Node5&#45;&gt;Node6</title>
<path fill="none" stroke="midnightblue" d="M473.35,-131.44C438.66,-120.91 394.68,-107.55 361.96,-97.61"/>
<polygon fill="midnightblue" stroke="midnightblue" points="472.74,-134.92 483.33,-134.48 474.78,-128.22 472.74,-134.92"/>
</g>
<!-- Node7 -->
<g id="node7" class="node">
<title>Node7</title>
<g id="a_node7"><a xlink:href="web_2websocket_2server_2_socket_context_8cpp.html" target="_top" xlink:title=" ">
<polygon fill="white" stroke="black" points="391,-67.5 391,-97.5 506,-97.5 506,-67.5 391,-67.5"/>
<text text-anchor="start" x="399" y="-85.5" font-family="Helvetica,sans-Serif" font-size="10.00">web/websocket/server</text>
<text text-anchor="middle" x="448.5" y="-74.5" font-family="Helvetica,sans-Serif" font-size="10.00">/SocketContext.cpp</text>
</a>
</g>
</g>
<!-- Node5&#45;&gt;Node7 -->
<g id="edge6" class="edge">
<title>Node5&#45;&gt;Node7</title>
<path fill="none" stroke="midnightblue" d="M503.81,-127.88C491.5,-118.01 477.07,-106.43 466.04,-97.58"/>
<polygon fill="midnightblue" stroke="midnightblue" points="501.93,-130.87 511.92,-134.4 506.32,-125.41 501.93,-130.87"/>
</g>
<!-- Node8 -->
<g id="node8" class="node">
<title>Node8</title>
<g id="a_node8"><a xlink:href="websocket_2server_2_socket_context_upgrade_factory_8cpp.html" target="_top" xlink:title=" ">
<polygon fill="white" stroke="black" points="524.5,-67.5 524.5,-97.5 696.5,-97.5 696.5,-67.5 524.5,-67.5"/>
<text text-anchor="start" x="532.5" y="-85.5" font-family="Helvetica,sans-Serif" font-size="10.00">web/websocket/server</text>
<text text-anchor="middle" x="610.5" y="-74.5" font-family="Helvetica,sans-Serif" font-size="10.00">/SocketContextUpgradeFactory.cpp</text>
</a>
</g>
</g>
<!-- Node5&#45;&gt;Node8 -->
<g id="edge7" class="edge">
<title>Node5&#45;&gt;Node8</title>
<path fill="none" stroke="midnightblue" d="M555.19,-127.88C567.5,-118.01 581.93,-106.43 592.96,-97.58"/>
<polygon fill="midnightblue" stroke="midnightblue" points="552.68,-125.41 547.08,-134.4 557.07,-130.87 552.68,-125.41"/>
</g>
<!-- Node9 -->
<g id="node9" class="node">
<title>Node9</title>
<g id="a_node9"><a xlink:href="server_2_sub_protocol_8cpp.html" target="_top" xlink:title=" ">
<polygon fill="white" stroke="black" points="715,-67.5 715,-97.5 830,-97.5 830,-67.5 715,-67.5"/>
<text text-anchor="start" x="723" y="-85.5" font-family="Helvetica,sans-Serif" font-size="10.00">web/websocket/server</text>
<text text-anchor="middle" x="772.5" y="-74.5" font-family="Helvetica,sans-Serif" font-size="10.00">/SubProtocol.cpp</text>
</a>
</g>
</g>
<!-- Node5&#45;&gt;Node9 -->
<g id="edge8" class="edge">
<title>Node5&#45;&gt;Node9</title>
<path fill="none" stroke="midnightblue" d="M591.75,-131.85C631.36,-121.25 682.11,-107.68 719.75,-97.61"/>
<polygon fill="midnightblue" stroke="midnightblue" points="590.68,-128.51 581.93,-134.48 592.49,-135.27 590.68,-128.51"/>
</g>
<!-- Node10 -->
<g id="node10" class="node">
<title>Node10</title>
<g id="a_node10"><a xlink:href="_echo_8h.html" target="_top" xlink:title=" ">
<polygon fill="white" stroke="black" points="848.5,-67.5 848.5,-97.5 986.5,-97.5 986.5,-67.5 848.5,-67.5"/>
<text text-anchor="start" x="856.5" y="-85.5" font-family="Helvetica,sans-Serif" font-size="10.00">web/websocket/subprotocol</text>
<text text-anchor="middle" x="917.5" y="-74.5" font-family="Helvetica,sans-Serif" font-size="10.00">/server/echo/Echo.h</text>
</a>
</g>
</g>
<!-- Node5&#45;&gt;Node10 -->
<g id="edge9" class="edge">
<title>Node5&#45;&gt;Node10</title>
<path fill="none" stroke="midnightblue" d="M597.45,-137.88C660.31,-127.95 756.3,-112.51 839.5,-98 842.35,-97.5 845.26,-96.99 848.19,-96.47"/>
<polygon fill="midnightblue" stroke="midnightblue" points="596.6,-134.47 587.27,-139.48 597.69,-141.38 596.6,-134.47"/>
</g>
<!-- Node11 -->
<g id="node11" class="node">
<title>Node11</title>
<g id="a_node11"><a xlink:href="_echo_8cpp.html" target="_top" xlink:title=" ">
<polygon fill="white" stroke="black" points="768.5,-0.5 768.5,-30.5 906.5,-30.5 906.5,-0.5 768.5,-0.5"/>
<text text-anchor="start" x="776.5" y="-18.5" font-family="Helvetica,sans-Serif" font-size="10.00">web/websocket/subprotocol</text>
<text text-anchor="middle" x="837.5" y="-7.5" font-family="Helvetica,sans-Serif" font-size="10.00">/server/echo/Echo.cpp</text>
</a>
</g>
</g>
<!-- Node10&#45;&gt;Node11 -->
<g id="edge10" class="edge">
<title>Node10&#45;&gt;Node11</title>
<path fill="none" stroke="midnightblue" d="M892.13,-60.88C879.97,-51.01 865.72,-39.43 854.82,-30.58"/>
<polygon fill="midnightblue" stroke="midnightblue" points="890.17,-63.81 900.14,-67.4 894.59,-58.37 890.17,-63.81"/>
</g>
<!-- Node12 -->
<g id="node12" class="node">
<title>Node12</title>
<g id="a_node12"><a xlink:href="_echo_factory_8cpp.html" target="_top" xlink:title=" ">
<polygon fill="white" stroke="black" points="924.5,-0.5 924.5,-30.5 1070.5,-30.5 1070.5,-0.5 924.5,-0.5"/>
<text text-anchor="start" x="932.5" y="-18.5" font-family="Helvetica,sans-Serif" font-size="10.00">web/websocket/subprotocol</text>
<text text-anchor="middle" x="997.5" y="-7.5" font-family="Helvetica,sans-Serif" font-size="10.00">/server/echo/EchoFactory.cpp</text>
</a>
</g>
</g>
<!-- Node10&#45;&gt;Node12 -->
<g id="edge11" class="edge">
<title>Node10&#45;&gt;Node12</title>
<path fill="none" stroke="midnightblue" d="M942.87,-60.88C955.03,-51.01 969.28,-39.43 980.18,-30.58"/>
<polygon fill="midnightblue" stroke="midnightblue" points="940.41,-58.37 934.86,-67.4 944.83,-63.81 940.41,-58.37"/>
</g>
</g>
</svg>
