<?xml version="1.0" encoding="UTF-8" standalone="no"?>
<!DOCTYPE svg PUBLIC "-//W3C//DTD SVG 1.1//EN"
 "http://www.w3.org/Graphics/SVG/1.1/DTD/svg11.dtd">
<!-- Generated by graphviz version 2.43.0 (0)
 -->
<!-- Title: net/TimerEventDispatcher.h Pages: 1 -->
<svg width="1124pt" height="151pt"
 viewBox="0.00 0.00 1123.50 151.00" xmlns="http://www.w3.org/2000/svg" xmlns:xlink="http://www.w3.org/1999/xlink">
<g id="graph0" class="graph" transform="scale(1 1) rotate(0) translate(4 147)">
<title>net/TimerEventDispatcher.h</title>
<polygon fill="white" stroke="transparent" points="-4,4 -4,-147 1119.5,-147 1119.5,4 -4,4"/>
<!-- Node1 -->
<g id="node1" class="node">
<title>Node1</title>
<g id="a_node1"><a xlink:title=" ">
<polygon fill="#bfbfbf" stroke="black" points="831,-123.5 831,-142.5 969,-142.5 969,-123.5 831,-123.5"/>
<text text-anchor="middle" x="900" y="-130.5" font-family="Helvetica,sans-Serif" font-size="10.00">net/TimerEventDispatcher.h</text>
</a>
</g>
</g>
<!-- Node2 -->
<g id="node2" class="node">
<title>Node2</title>
<g id="a_node2"><a xlink:href="_event_loop_8h.html" target="_top" xlink:title=" ">
<polygon fill="white" stroke="black" points="619,-67.5 619,-86.5 707,-86.5 707,-67.5 619,-67.5"/>
<text text-anchor="middle" x="663" y="-74.5" font-family="Helvetica,sans-Serif" font-size="10.00">net/EventLoop.h</text>
</a>
</g>
</g>
<!-- Node1&#45;&gt;Node2 -->
<g id="edge1" class="edge">
<title>Node1&#45;&gt;Node2</title>
<path fill="none" stroke="midnightblue" d="M852.68,-121.22C807.89,-111.01 741.56,-95.9 700.38,-86.52"/>
<polygon fill="midnightblue" stroke="midnightblue" points="851.92,-124.63 862.45,-123.44 853.47,-117.81 851.92,-124.63"/>
</g>
<!-- Node9 -->
<g id="node9" class="node">
<title>Node9</title>
<g id="a_node9"><a xlink:href="_timer_8cpp.html" target="_top" xlink:title=" ">
<polygon fill="white" stroke="black" points="1014.5,-6 1014.5,-25 1115.5,-25 1115.5,-6 1014.5,-6"/>
<text text-anchor="middle" x="1065" y="-13" font-family="Helvetica,sans-Serif" font-size="10.00">net/timer/Timer.cpp</text>
</a>
</g>
</g>
<!-- Node1&#45;&gt;Node9 -->
<g id="edge10" class="edge">
<title>Node1&#45;&gt;Node9</title>
<path fill="none" stroke="midnightblue" d="M900.98,-112.95C902.7,-98.61 907.23,-79.36 919,-67 934.26,-50.98 990.5,-34.63 1028.56,-25.03"/>
<polygon fill="midnightblue" stroke="midnightblue" points="897.47,-112.93 900.12,-123.18 904.45,-113.51 897.47,-112.93"/>
</g>
<!-- Node11 -->
<g id="node11" class="node">
<title>Node11</title>
<g id="a_node11"><a xlink:href="_timer_event_dispatcher_8cpp.html" target="_top" xlink:title=" ">
<polygon fill="white" stroke="black" points="927.5,-67.5 927.5,-86.5 1076.5,-86.5 1076.5,-67.5 927.5,-67.5"/>
<text text-anchor="middle" x="1002" y="-74.5" font-family="Helvetica,sans-Serif" font-size="10.00">net/TimerEventDispatcher.cpp</text>
</a>
</g>
</g>
<!-- Node1&#45;&gt;Node11 -->
<g id="edge11" class="edge">
<title>Node1&#45;&gt;Node11</title>
<path fill="none" stroke="midnightblue" d="M925.33,-118.59C944.19,-108.61 969.38,-95.27 985.65,-86.65"/>
<polygon fill="midnightblue" stroke="midnightblue" points="923.59,-115.55 916.39,-123.32 926.86,-121.74 923.59,-115.55"/>
</g>
<!-- Node3 -->
<g id="node3" class="node">
<title>Node3</title>
<g id="a_node3"><a xlink:href="_accept_event_receiver_8cpp.html" target="_top" xlink:title=" ">
<polygon fill="white" stroke="black" points="0,-6 0,-25 146,-25 146,-6 0,-6"/>
<text text-anchor="middle" x="73" y="-13" font-family="Helvetica,sans-Serif" font-size="10.00">net/AcceptEventReceiver.cpp</text>
</a>
</g>
</g>
<!-- Node2&#45;&gt;Node3 -->
<g id="edge2" class="edge">
<title>Node2&#45;&gt;Node3</title>
<path fill="none" stroke="midnightblue" d="M608.66,-72.74C515.53,-66.8 319.55,-52.8 155,-31 142.67,-29.37 129.38,-27.2 117.15,-25.03"/>
<polygon fill="midnightblue" stroke="midnightblue" points="608.49,-76.23 618.69,-73.37 608.93,-69.25 608.49,-76.23"/>
</g>
<!-- Node4 -->
<g id="node4" class="node">
<title>Node4</title>
<g id="a_node4"><a xlink:href="_connect_event_receiver_8cpp.html" target="_top" xlink:title=" ">
<polygon fill="white" stroke="black" points="164,-6 164,-25 316,-25 316,-6 164,-6"/>
<text text-anchor="middle" x="240" y="-13" font-family="Helvetica,sans-Serif" font-size="10.00">net/ConnectEventReceiver.cpp</text>
</a>
</g>
</g>
<!-- Node2&#45;&gt;Node4 -->
<g id="edge3" class="edge">
<title>Node2&#45;&gt;Node4</title>
<path fill="none" stroke="midnightblue" d="M608.61,-69.38C541.75,-61.1 424.86,-46.16 325,-31 313.01,-29.18 300.1,-27.06 288.05,-25.01"/>
<polygon fill="midnightblue" stroke="midnightblue" points="608.55,-72.9 618.9,-70.65 609.41,-65.95 608.55,-72.9"/>
</g>
<!-- Node5 -->
<g id="node5" class="node">
<title>Node5</title>
<g id="a_node5"><a xlink:href="_event_loop_8cpp.html" target="_top" xlink:title=" ">
<polygon fill="white" stroke="black" points="334,-6 334,-25 432,-25 432,-6 334,-6"/>
<text text-anchor="middle" x="383" y="-13" font-family="Helvetica,sans-Serif" font-size="10.00">net/EventLoop.cpp</text>
</a>
</g>
</g>
<!-- Node2&#45;&gt;Node5 -->
<g id="edge4" class="edge">
<title>Node2&#45;&gt;Node5</title>
<path fill="none" stroke="midnightblue" d="M608.8,-65.72C563.76,-57.01 498.05,-43.91 441,-31 432.9,-29.17 424.2,-27.06 416.06,-25.04"/>
<polygon fill="midnightblue" stroke="midnightblue" points="608.17,-69.16 618.65,-67.62 609.49,-62.29 608.17,-69.16"/>
</g>
<!-- Node6 -->
<g id="node6" class="node">
<title>Node6</title>
<g id="a_node6"><a xlink:href="_exceptional_condition_event_receiver_8cpp.html" target="_top" xlink:title=" ">
<polygon fill="white" stroke="black" points="450.5,-0.5 450.5,-30.5 575.5,-30.5 575.5,-0.5 450.5,-0.5"/>
<text text-anchor="start" x="458.5" y="-18.5" font-family="Helvetica,sans-Serif" font-size="10.00">net/ExceptionalCondition</text>
<text text-anchor="middle" x="513" y="-7.5" font-family="Helvetica,sans-Serif" font-size="10.00">EventReceiver.cpp</text>
</a>
</g>
</g>
<!-- Node2&#45;&gt;Node6 -->
<g id="edge5" class="edge">
<title>Node2&#45;&gt;Node6</title>
<path fill="none" stroke="midnightblue" d="M632.04,-63.72C607.69,-54.06 573.76,-40.6 548.35,-30.52"/>
<polygon fill="midnightblue" stroke="midnightblue" points="630.92,-67.04 641.51,-67.48 633.5,-60.53 630.92,-67.04"/>
</g>
<!-- Node7 -->
<g id="node7" class="node">
<title>Node7</title>
<g id="a_node7"><a xlink:href="_read_event_receiver_8cpp.html" target="_top" xlink:title=" ">
<polygon fill="white" stroke="black" points="593.5,-6 593.5,-25 732.5,-25 732.5,-6 593.5,-6"/>
<text text-anchor="middle" x="663" y="-13" font-family="Helvetica,sans-Serif" font-size="10.00">net/ReadEventReceiver.cpp</text>
</a>
</g>
</g>
<!-- Node2&#45;&gt;Node7 -->
<g id="edge6" class="edge">
<title>Node2&#45;&gt;Node7</title>
<path fill="none" stroke="midnightblue" d="M663,-57.32C663,-46.5 663,-33.4 663,-25.01"/>
<polygon fill="midnightblue" stroke="midnightblue" points="659.5,-57.48 663,-67.48 666.5,-57.48 659.5,-57.48"/>
</g>
<!-- Node8 -->
<g id="node8" class="node">
<title>Node8</title>
<g id="a_node8"><a xlink:href="_s_node_c_8cpp.html" target="_top" xlink:title=" ">
<polygon fill="white" stroke="black" points="750.5,-6 750.5,-25 839.5,-25 839.5,-6 750.5,-6"/>
<text text-anchor="middle" x="795" y="-13" font-family="Helvetica,sans-Serif" font-size="10.00">net/SNodeC.cpp</text>
</a>
</g>
</g>
<!-- Node2&#45;&gt;Node8 -->
<g id="edge7" class="edge">
<title>Node2&#45;&gt;Node8</title>
<path fill="none" stroke="midnightblue" d="M691.11,-63.33C716.74,-51.78 753.89,-35.03 776.12,-25.01"/>
<polygon fill="midnightblue" stroke="midnightblue" points="689.59,-60.17 681.91,-67.48 692.47,-66.56 689.59,-60.17"/>
</g>
<!-- Node2&#45;&gt;Node9 -->
<g id="edge8" class="edge">
<title>Node2&#45;&gt;Node9</title>
<path fill="none" stroke="midnightblue" d="M717.24,-70.66C784.93,-63.59 904.06,-49.78 1005,-31 1013.96,-29.33 1023.58,-27.18 1032.44,-25.04"/>
<polygon fill="midnightblue" stroke="midnightblue" points="716.82,-67.19 707.24,-71.7 717.54,-74.15 716.82,-67.19"/>
</g>
<!-- Node10 -->
<g id="node10" class="node">
<title>Node10</title>
<g id="a_node10"><a xlink:href="_write_event_receiver_8cpp.html" target="_top" xlink:title=" ">
<polygon fill="white" stroke="black" points="858,-6 858,-25 996,-25 996,-6 858,-6"/>
<text text-anchor="middle" x="927" y="-13" font-family="Helvetica,sans-Serif" font-size="10.00">net/WriteEventReceiver.cpp</text>
</a>
</g>
</g>
<!-- Node2&#45;&gt;Node10 -->
<g id="edge9" class="edge">
<title>Node2&#45;&gt;Node10</title>
<path fill="none" stroke="midnightblue" d="M710.66,-65.26C761.87,-53.72 842.23,-35.61 889.25,-25.01"/>
<polygon fill="midnightblue" stroke="midnightblue" points="709.81,-61.86 700.82,-67.48 711.35,-68.69 709.81,-61.86"/>
</g>
</g>
</svg>
