<?xml version="1.0" encoding="UTF-8" standalone="no"?>
<!DOCTYPE svg PUBLIC "-//W3C//DTD SVG 1.1//EN"
 "http://www.w3.org/Graphics/SVG/1.1/DTD/svg11.dtd">
<!-- Generated by graphviz version 2.43.0 (0)
 -->
<!-- Title: net/TimerEventDispatcher.h Pages: 1 -->
<svg width="147pt" height="140pt"
 viewBox="0.00 0.00 147.00 140.00" xmlns="http://www.w3.org/2000/svg" xmlns:xlink="http://www.w3.org/1999/xlink">
<g id="graph0" class="graph" transform="scale(1 1) rotate(0) translate(4 136)">
<title>net/TimerEventDispatcher.h</title>
<polygon fill="white" stroke="transparent" points="-4,4 -4,-136 143,-136 143,4 -4,4"/>
<!-- Node1 -->
<g id="node1" class="node">
<title>Node1</title>
<g id="a_node1"><a xlink:title=" ">
<polygon fill="#bfbfbf" stroke="black" points="0,-112.5 0,-131.5 138,-131.5 138,-112.5 0,-112.5"/>
<text text-anchor="middle" x="69" y="-119.5" font-family="Helvetica,sans-Serif" font-size="10.00">net/TimerEventDispatcher.h</text>
</a>
</g>
</g>
<!-- Node2 -->
<g id="node2" class="node">
<title>Node2</title>
<g id="a_node2"><a xlink:href="_timeval_8h.html" target="_top" xlink:title=" ">
<polygon fill="white" stroke="black" points="39.5,-0.5 39.5,-19.5 98.5,-19.5 98.5,-0.5 39.5,-0.5"/>
<text text-anchor="middle" x="69" y="-7.5" font-family="Helvetica,sans-Serif" font-size="10.00">Timeval.h</text>
</a>
</g>
</g>
<!-- Node1&#45;&gt;Node2 -->
<g id="edge1" class="edge">
<title>Node1&#45;&gt;Node2</title>
<path fill="none" stroke="midnightblue" d="M65.66,-112.2C62.45,-103.24 57.82,-88.88 56,-76 53.76,-60.15 57.79,-42.34 61.94,-29.38"/>
<polygon fill="midnightblue" stroke="midnightblue" points="65.3,-30.37 65.32,-19.78 58.69,-28.05 65.3,-30.37"/>
</g>
<!-- Node3 -->
<g id="node3" class="node">
<title>Node3</title>
<g id="a_node3"><a xlink:href="_timer_8h.html" target="_top" xlink:title=" ">
<polygon fill="white" stroke="black" points="65,-56.5 65,-75.5 139,-75.5 139,-56.5 65,-56.5"/>
<text text-anchor="middle" x="102" y="-63.5" font-family="Helvetica,sans-Serif" font-size="10.00">timer/Timer.h</text>
</a>
</g>
</g>
<!-- Node1&#45;&gt;Node3 -->
<g id="edge2" class="edge">
<title>Node1&#45;&gt;Node3</title>
<path fill="none" stroke="midnightblue" d="M74.45,-112.08C79.01,-104.61 85.67,-93.72 91.29,-84.52"/>
<polygon fill="midnightblue" stroke="midnightblue" points="94.42,-86.11 96.65,-75.75 88.45,-82.46 94.42,-86.11"/>
</g>
<!-- Node3&#45;&gt;Node2 -->
<g id="edge3" class="edge">
<title>Node3&#45;&gt;Node2</title>
<path fill="none" stroke="midnightblue" d="M96.55,-56.08C91.99,-48.61 85.33,-37.72 79.71,-28.52"/>
<polygon fill="midnightblue" stroke="midnightblue" points="82.55,-26.46 74.35,-19.75 76.58,-30.11 82.55,-26.46"/>
</g>
</g>
</svg>
