<?xml version="1.0" encoding="UTF-8" standalone="no"?>
<!DOCTYPE svg PUBLIC "-//W3C//DTD SVG 1.1//EN"
 "http://www.w3.org/Graphics/SVG/1.1/DTD/svg11.dtd">
<!-- Generated by graphviz version 2.43.0 (0)
 -->
<!-- Title: net/WriteEventDispatcher.h Pages: 1 -->
<svg width="1183pt" height="140pt"
 viewBox="0.00 0.00 1183.00 140.00" xmlns="http://www.w3.org/2000/svg" xmlns:xlink="http://www.w3.org/1999/xlink">
<g id="graph0" class="graph" transform="scale(1 1) rotate(0) translate(4 136)">
<title>net/WriteEventDispatcher.h</title>
<polygon fill="white" stroke="transparent" points="-4,4 -4,-136 1179,-136 1179,4 -4,4"/>
<!-- Node1 -->
<g id="node1" class="node">
<title>Node1</title>
<g id="a_node1"><a xlink:title=" ">
<polygon fill="#bfbfbf" stroke="black" points="670,-112.5 670,-131.5 806,-131.5 806,-112.5 670,-112.5"/>
<text text-anchor="middle" x="738" y="-119.5" font-family="Helvetica,sans-Serif" font-size="10.00">net/WriteEventDispatcher.h</text>
</a>
</g>
</g>
<!-- Node2 -->
<g id="node2" class="node">
<title>Node2</title>
<g id="a_node2"><a xlink:href="_event_loop_8h.html" target="_top" xlink:title=" ">
<polygon fill="white" stroke="black" points="658,-56.5 658,-75.5 746,-75.5 746,-56.5 658,-56.5"/>
<text text-anchor="middle" x="702" y="-63.5" font-family="Helvetica,sans-Serif" font-size="10.00">net/EventLoop.h</text>
</a>
</g>
</g>
<!-- Node1&#45;&gt;Node2 -->
<g id="edge1" class="edge">
<title>Node1&#45;&gt;Node2</title>
<path fill="none" stroke="midnightblue" d="M726.38,-103.57C720.18,-94.27 712.83,-83.25 707.83,-75.75"/>
<polygon fill="midnightblue" stroke="midnightblue" points="723.6,-105.7 732.06,-112.08 729.42,-101.82 723.6,-105.7"/>
</g>
<!-- Node9 -->
<g id="node9" class="node">
<title>Node9</title>
<g id="a_node9"><a xlink:href="_write_event_receiver_8cpp.html" target="_top" xlink:title=" ">
<polygon fill="white" stroke="black" points="1037,-0.5 1037,-19.5 1175,-19.5 1175,-0.5 1037,-0.5"/>
<text text-anchor="middle" x="1106" y="-7.5" font-family="Helvetica,sans-Serif" font-size="10.00">net/WriteEventReceiver.cpp</text>
</a>
</g>
</g>
<!-- Node1&#45;&gt;Node9 -->
<g id="edge10" class="edge">
<title>Node1&#45;&gt;Node9</title>
<path fill="none" stroke="midnightblue" d="M776.44,-109.51C850.6,-87.34 1011.9,-39.13 1077.45,-19.53"/>
<polygon fill="midnightblue" stroke="midnightblue" points="775.15,-106.24 766.57,-112.46 777.15,-112.95 775.15,-106.24"/>
</g>
<!-- Node3 -->
<g id="node3" class="node">
<title>Node3</title>
<g id="a_node3"><a xlink:href="_accept_event_receiver_8cpp.html" target="_top" xlink:title=" ">
<polygon fill="white" stroke="black" points="0,-0.5 0,-19.5 146,-19.5 146,-0.5 0,-0.5"/>
<text text-anchor="middle" x="73" y="-7.5" font-family="Helvetica,sans-Serif" font-size="10.00">net/AcceptEventReceiver.cpp</text>
</a>
</g>
</g>
<!-- Node2&#45;&gt;Node3 -->
<g id="edge2" class="edge">
<title>Node2&#45;&gt;Node3</title>
<path fill="none" stroke="midnightblue" d="M647.65,-61.02C549.29,-53.71 335.24,-37.3 155,-20 152.15,-19.73 149.24,-19.44 146.31,-19.15"/>
<polygon fill="midnightblue" stroke="midnightblue" points="647.42,-64.51 657.65,-61.76 647.94,-57.53 647.42,-64.51"/>
</g>
<!-- Node4 -->
<g id="node4" class="node">
<title>Node4</title>
<g id="a_node4"><a xlink:href="_connect_event_receiver_8cpp.html" target="_top" xlink:title=" ">
<polygon fill="white" stroke="black" points="164,-0.5 164,-19.5 316,-19.5 316,-0.5 164,-0.5"/>
<text text-anchor="middle" x="240" y="-7.5" font-family="Helvetica,sans-Serif" font-size="10.00">net/ConnectEventReceiver.cpp</text>
</a>
</g>
</g>
<!-- Node2&#45;&gt;Node4 -->
<g id="edge3" class="edge">
<title>Node2&#45;&gt;Node4</title>
<path fill="none" stroke="midnightblue" d="M647.71,-58.65C564.61,-48.94 405.75,-30.37 312.76,-19.5"/>
<polygon fill="midnightblue" stroke="midnightblue" points="647.36,-62.14 657.7,-59.82 648.18,-55.18 647.36,-62.14"/>
</g>
<!-- Node5 -->
<g id="node5" class="node">
<title>Node5</title>
<g id="a_node5"><a xlink:href="_event_loop_8cpp.html" target="_top" xlink:title=" ">
<polygon fill="white" stroke="black" points="334,-0.5 334,-19.5 432,-19.5 432,-0.5 334,-0.5"/>
<text text-anchor="middle" x="383" y="-7.5" font-family="Helvetica,sans-Serif" font-size="10.00">net/EventLoop.cpp</text>
</a>
</g>
</g>
<!-- Node2&#45;&gt;Node5 -->
<g id="edge4" class="edge">
<title>Node2&#45;&gt;Node5</title>
<path fill="none" stroke="midnightblue" d="M647.87,-55.84C587.4,-45.6 490.38,-29.18 432.06,-19.3"/>
<polygon fill="midnightblue" stroke="midnightblue" points="647.54,-59.33 657.98,-57.55 648.7,-52.43 647.54,-59.33"/>
</g>
<!-- Node6 -->
<g id="node6" class="node">
<title>Node6</title>
<g id="a_node6"><a xlink:href="_out_of_band_event_receiver_8cpp.html" target="_top" xlink:title=" ">
<polygon fill="white" stroke="black" points="450,-0.5 450,-19.5 614,-19.5 614,-0.5 450,-0.5"/>
<text text-anchor="middle" x="532" y="-7.5" font-family="Helvetica,sans-Serif" font-size="10.00">net/OutOfBandEventReceiver.cpp</text>
</a>
</g>
</g>
<!-- Node2&#45;&gt;Node6 -->
<g id="edge5" class="edge">
<title>Node2&#45;&gt;Node6</title>
<path fill="none" stroke="midnightblue" d="M665.18,-53.3C633.15,-43.13 587.48,-28.62 558.81,-19.52"/>
<polygon fill="midnightblue" stroke="midnightblue" points="664.47,-56.75 675.06,-56.44 666.59,-50.08 664.47,-56.75"/>
</g>
<!-- Node7 -->
<g id="node7" class="node">
<title>Node7</title>
<g id="a_node7"><a xlink:href="_read_event_receiver_8cpp.html" target="_top" xlink:title=" ">
<polygon fill="white" stroke="black" points="632.5,-0.5 632.5,-19.5 771.5,-19.5 771.5,-0.5 632.5,-0.5"/>
<text text-anchor="middle" x="702" y="-7.5" font-family="Helvetica,sans-Serif" font-size="10.00">net/ReadEventReceiver.cpp</text>
</a>
</g>
</g>
<!-- Node2&#45;&gt;Node7 -->
<g id="edge6" class="edge">
<title>Node2&#45;&gt;Node7</title>
<path fill="none" stroke="midnightblue" d="M702,-45.8C702,-36.91 702,-26.78 702,-19.75"/>
<polygon fill="midnightblue" stroke="midnightblue" points="698.5,-46.08 702,-56.08 705.5,-46.08 698.5,-46.08"/>
</g>
<!-- Node8 -->
<g id="node8" class="node">
<title>Node8</title>
<g id="a_node8"><a xlink:href="_timer_8cpp.html" target="_top" xlink:title=" ">
<polygon fill="white" stroke="black" points="789.5,-0.5 789.5,-19.5 890.5,-19.5 890.5,-0.5 789.5,-0.5"/>
<text text-anchor="middle" x="840" y="-7.5" font-family="Helvetica,sans-Serif" font-size="10.00">net/timer/Timer.cpp</text>
</a>
</g>
</g>
<!-- Node2&#45;&gt;Node8 -->
<g id="edge7" class="edge">
<title>Node2&#45;&gt;Node8</title>
<path fill="none" stroke="midnightblue" d="M733.25,-52.77C759.17,-42.63 795.36,-28.47 818.24,-19.52"/>
<polygon fill="midnightblue" stroke="midnightblue" points="731.9,-49.54 723.87,-56.44 734.45,-56.06 731.9,-49.54"/>
</g>
<!-- Node2&#45;&gt;Node9 -->
<g id="edge8" class="edge">
<title>Node2&#45;&gt;Node9</title>
<path fill="none" stroke="midnightblue" d="M756.06,-57.77C830.21,-47.86 963.24,-30.08 1042.18,-19.53"/>
<polygon fill="midnightblue" stroke="midnightblue" points="755.45,-54.32 746,-59.12 756.38,-61.26 755.45,-54.32"/>
</g>
<!-- Node10 -->
<g id="node10" class="node">
<title>Node10</title>
<g id="a_node10"><a xlink:href="_web_app_8cpp.html" target="_top" xlink:title=" ">
<polygon fill="white" stroke="black" points="909,-0.5 909,-19.5 1019,-19.5 1019,-0.5 909,-0.5"/>
<text text-anchor="middle" x="964" y="-7.5" font-family="Helvetica,sans-Serif" font-size="10.00">express/WebApp.cpp</text>
</a>
</g>
</g>
<!-- Node2&#45;&gt;Node10 -->
<g id="edge9" class="edge">
<title>Node2&#45;&gt;Node10</title>
<path fill="none" stroke="midnightblue" d="M753.38,-54.41C802.9,-44.2 876.86,-28.96 922.68,-19.52"/>
<polygon fill="midnightblue" stroke="midnightblue" points="752.6,-51 743.51,-56.44 754.02,-57.85 752.6,-51"/>
</g>
</g>
</svg>
