<?xml version="1.0" encoding="UTF-8" standalone="no"?>
<!DOCTYPE svg PUBLIC "-//W3C//DTD SVG 1.1//EN"
 "http://www.w3.org/Graphics/SVG/1.1/DTD/svg11.dtd">
<!-- Generated by graphviz version 2.43.0 (0)
 -->
<!-- Title: net/WriteEventReceiver.h Pages: 1 -->
<svg width="1950pt" height="430pt"
 viewBox="0.00 0.00 1950.00 430.00" xmlns="http://www.w3.org/2000/svg" xmlns:xlink="http://www.w3.org/1999/xlink">
<g id="graph0" class="graph" transform="scale(1 1) rotate(0) translate(4 426)">
<title>net/WriteEventReceiver.h</title>
<polygon fill="white" stroke="transparent" points="-4,4 -4,-426 1946,-426 1946,4 -4,4"/>
<!-- Node1 -->
<g id="node1" class="node">
<title>Node1</title>
<g id="a_node1"><a xlink:title=" ">
<polygon fill="#bfbfbf" stroke="black" points="1274,-402.5 1274,-421.5 1402,-421.5 1402,-402.5 1274,-402.5"/>
<text text-anchor="middle" x="1338" y="-409.5" font-family="Helvetica,sans-Serif" font-size="10.00">net/WriteEventReceiver.h</text>
</a>
</g>
</g>
<!-- Node2 -->
<g id="node2" class="node">
<title>Node2</title>
<g id="a_node2"><a xlink:href="_pipe_source_8h.html" target="_top" xlink:title=" ">
<polygon fill="white" stroke="black" points="836.5,-341 836.5,-360 949.5,-360 949.5,-341 836.5,-341"/>
<text text-anchor="middle" x="893" y="-348" font-family="Helvetica,sans-Serif" font-size="10.00">net/pipe/PipeSource.h</text>
</a>
</g>
</g>
<!-- Node1&#45;&gt;Node2 -->
<g id="edge1" class="edge">
<title>Node1&#45;&gt;Node2</title>
<path fill="none" stroke="midnightblue" d="M1264.29,-401.14C1175.87,-389.32 1029.6,-369.76 949.59,-359.07"/>
<polygon fill="midnightblue" stroke="midnightblue" points="1263.87,-404.62 1274.24,-402.48 1264.79,-397.68 1263.87,-404.62"/>
</g>
<!-- Node5 -->
<g id="node5" class="node">
<title>Node5</title>
<g id="a_node5"><a xlink:href="_socket_writer_8h.html" target="_top" xlink:title=" ">
<polygon fill="white" stroke="black" points="1136.5,-335.5 1136.5,-365.5 1265.5,-365.5 1265.5,-335.5 1136.5,-335.5"/>
<text text-anchor="start" x="1144.5" y="-353.5" font-family="Helvetica,sans-Serif" font-size="10.00">net/socket/stream/Socket</text>
<text text-anchor="middle" x="1201" y="-342.5" font-family="Helvetica,sans-Serif" font-size="10.00">Writer.h</text>
</a>
</g>
</g>
<!-- Node1&#45;&gt;Node5 -->
<g id="edge4" class="edge">
<title>Node1&#45;&gt;Node5</title>
<path fill="none" stroke="midnightblue" d="M1309.13,-398.46C1286.94,-388.82 1256.29,-375.51 1233.29,-365.52"/>
<polygon fill="midnightblue" stroke="midnightblue" points="1307.8,-401.7 1318.37,-402.48 1310.59,-395.28 1307.8,-401.7"/>
</g>
<!-- Node32 -->
<g id="node32" class="node">
<title>Node32</title>
<g id="a_node32"><a xlink:href="tls_2_socket_reader_8h.html" target="_top" xlink:title=" ">
<polygon fill="white" stroke="black" points="1410.5,-268.5 1410.5,-298.5 1519.5,-298.5 1519.5,-268.5 1410.5,-268.5"/>
<text text-anchor="start" x="1418.5" y="-286.5" font-family="Helvetica,sans-Serif" font-size="10.00">net/socket/stream/tls</text>
<text text-anchor="middle" x="1465" y="-275.5" font-family="Helvetica,sans-Serif" font-size="10.00">/SocketReader.h</text>
</a>
</g>
</g>
<!-- Node1&#45;&gt;Node32 -->
<g id="edge31" class="edge">
<title>Node1&#45;&gt;Node32</title>
<path fill="none" stroke="midnightblue" d="M1360.91,-396.93C1373.42,-388.7 1388.8,-377.66 1401,-366 1423.11,-344.87 1444.08,-315.86 1455.67,-298.76"/>
<polygon fill="midnightblue" stroke="midnightblue" points="1358.92,-394.05 1352.39,-402.4 1362.7,-399.94 1358.92,-394.05"/>
</g>
<!-- Node33 -->
<g id="node33" class="node">
<title>Node33</title>
<g id="a_node33"><a xlink:href="_t_l_s_handshake_8h.html" target="_top" xlink:title=" ">
<polygon fill="white" stroke="black" points="1283.5,-335.5 1283.5,-365.5 1392.5,-365.5 1392.5,-335.5 1283.5,-335.5"/>
<text text-anchor="start" x="1291.5" y="-353.5" font-family="Helvetica,sans-Serif" font-size="10.00">net/socket/stream/tls</text>
<text text-anchor="middle" x="1338" y="-342.5" font-family="Helvetica,sans-Serif" font-size="10.00">/TLSHandshake.h</text>
</a>
</g>
</g>
<!-- Node1&#45;&gt;Node33 -->
<g id="edge33" class="edge">
<title>Node1&#45;&gt;Node33</title>
<path fill="none" stroke="midnightblue" d="M1338,-392.23C1338,-383.59 1338,-373.5 1338,-365.52"/>
<polygon fill="midnightblue" stroke="midnightblue" points="1334.5,-392.48 1338,-402.48 1341.5,-392.48 1334.5,-392.48"/>
</g>
<!-- Node35 -->
<g id="node35" class="node">
<title>Node35</title>
<g id="a_node35"><a xlink:href="_write_event_receiver_8cpp.html" target="_top" xlink:title=" ">
<polygon fill="white" stroke="black" points="1449,-341 1449,-360 1587,-360 1587,-341 1449,-341"/>
<text text-anchor="middle" x="1518" y="-348" font-family="Helvetica,sans-Serif" font-size="10.00">net/WriteEventReceiver.cpp</text>
</a>
</g>
</g>
<!-- Node1&#45;&gt;Node35 -->
<g id="edge39" class="edge">
<title>Node1&#45;&gt;Node35</title>
<path fill="none" stroke="midnightblue" d="M1373.6,-399.23C1408.59,-387.67 1461.14,-370.3 1492.26,-360.01"/>
<polygon fill="midnightblue" stroke="midnightblue" points="1372.19,-396.01 1363.79,-402.48 1374.38,-402.66 1372.19,-396.01"/>
</g>
<!-- Node3 -->
<g id="node3" class="node">
<title>Node3</title>
<g id="a_node3"><a xlink:href="_pipe_8cpp.html" target="_top" xlink:title=" ">
<polygon fill="white" stroke="black" points="721,-274 721,-293 813,-293 813,-274 721,-274"/>
<text text-anchor="middle" x="767" y="-281" font-family="Helvetica,sans-Serif" font-size="10.00">net/pipe/Pipe.cpp</text>
</a>
</g>
</g>
<!-- Node2&#45;&gt;Node3 -->
<g id="edge2" class="edge">
<title>Node2&#45;&gt;Node3</title>
<path fill="none" stroke="midnightblue" d="M867.36,-336.27C842.41,-323.4 805.2,-304.21 783.8,-293.17"/>
<polygon fill="midnightblue" stroke="midnightblue" points="865.78,-339.39 876.27,-340.87 868.99,-333.17 865.78,-339.39"/>
</g>
<!-- Node4 -->
<g id="node4" class="node">
<title>Node4</title>
<g id="a_node4"><a xlink:href="_pipe_source_8cpp.html" target="_top" xlink:title=" ">
<polygon fill="white" stroke="black" points="831.5,-274 831.5,-293 954.5,-293 954.5,-274 831.5,-274"/>
<text text-anchor="middle" x="893" y="-281" font-family="Helvetica,sans-Serif" font-size="10.00">net/pipe/PipeSource.cpp</text>
</a>
</g>
</g>
<!-- Node2&#45;&gt;Node4 -->
<g id="edge3" class="edge">
<title>Node2&#45;&gt;Node4</title>
<path fill="none" stroke="midnightblue" d="M893,-330.54C893,-318.17 893,-302.62 893,-293.13"/>
<polygon fill="midnightblue" stroke="midnightblue" points="889.5,-330.73 893,-340.73 896.5,-330.73 889.5,-330.73"/>
</g>
<!-- Node6 -->
<g id="node6" class="node">
<title>Node6</title>
<g id="a_node6"><a xlink:href="legacy_2_socket_writer_8h.html" target="_top" xlink:title=" ">
<polygon fill="white" stroke="black" points="972.5,-268.5 972.5,-298.5 1099.5,-298.5 1099.5,-268.5 972.5,-268.5"/>
<text text-anchor="start" x="980.5" y="-286.5" font-family="Helvetica,sans-Serif" font-size="10.00">net/socket/stream/legacy</text>
<text text-anchor="middle" x="1036" y="-275.5" font-family="Helvetica,sans-Serif" font-size="10.00">/SocketWriter.h</text>
</a>
</g>
</g>
<!-- Node5&#45;&gt;Node6 -->
<g id="edge5" class="edge">
<title>Node5&#45;&gt;Node6</title>
<path fill="none" stroke="midnightblue" d="M1155.77,-331.68C1129.31,-321.26 1096.37,-308.28 1071.73,-298.58"/>
<polygon fill="midnightblue" stroke="midnightblue" points="1154.61,-334.99 1165.2,-335.4 1157.18,-328.47 1154.61,-334.99"/>
</g>
<!-- Node20 -->
<g id="node20" class="node">
<title>Node20</title>
<g id="a_node20"><a xlink:href="tls_2_socket_writer_8h.html" target="_top" xlink:title=" ">
<polygon fill="white" stroke="black" points="1156.5,-268.5 1156.5,-298.5 1265.5,-298.5 1265.5,-268.5 1156.5,-268.5"/>
<text text-anchor="start" x="1164.5" y="-286.5" font-family="Helvetica,sans-Serif" font-size="10.00">net/socket/stream/tls</text>
<text text-anchor="middle" x="1211" y="-275.5" font-family="Helvetica,sans-Serif" font-size="10.00">/SocketWriter.h</text>
</a>
</g>
</g>
<!-- Node5&#45;&gt;Node20 -->
<g id="edge19" class="edge">
<title>Node5&#45;&gt;Node20</title>
<path fill="none" stroke="midnightblue" d="M1204.71,-325.4C1206.1,-316.37 1207.63,-306.41 1208.83,-298.58"/>
<polygon fill="midnightblue" stroke="midnightblue" points="1201.23,-324.98 1203.17,-335.4 1208.15,-326.04 1201.23,-324.98"/>
</g>
<!-- Node7 -->
<g id="node7" class="node">
<title>Node7</title>
<g id="a_node7"><a xlink:href="legacy_2_socket_connection_8h.html" target="_top" xlink:title=" ">
<polygon fill="white" stroke="black" points="764.5,-201.5 764.5,-231.5 891.5,-231.5 891.5,-201.5 764.5,-201.5"/>
<text text-anchor="start" x="772.5" y="-219.5" font-family="Helvetica,sans-Serif" font-size="10.00">net/socket/stream/legacy</text>
<text text-anchor="middle" x="828" y="-208.5" font-family="Helvetica,sans-Serif" font-size="10.00">/SocketConnection.h</text>
</a>
</g>
</g>
<!-- Node6&#45;&gt;Node7 -->
<g id="edge6" class="edge">
<title>Node6&#45;&gt;Node7</title>
<path fill="none" stroke="midnightblue" d="M981.42,-265.44C947.7,-254.91 904.96,-241.55 873.15,-231.61"/>
<polygon fill="midnightblue" stroke="midnightblue" points="980.53,-268.83 991.12,-268.48 982.62,-262.15 980.53,-268.83"/>
</g>
<!-- Node8 -->
<g id="node8" class="node">
<title>Node8</title>
<g id="a_node8"><a xlink:href="legacy_2_socket_connector_8h.html" target="_top" xlink:title=" ">
<polygon fill="white" stroke="black" points="473.5,-134.5 473.5,-164.5 600.5,-164.5 600.5,-134.5 473.5,-134.5"/>
<text text-anchor="start" x="481.5" y="-152.5" font-family="Helvetica,sans-Serif" font-size="10.00">net/socket/stream/legacy</text>
<text text-anchor="middle" x="537" y="-141.5" font-family="Helvetica,sans-Serif" font-size="10.00">/SocketConnector.h</text>
</a>
</g>
</g>
<!-- Node7&#45;&gt;Node8 -->
<g id="edge7" class="edge">
<title>Node7&#45;&gt;Node8</title>
<path fill="none" stroke="midnightblue" d="M755.24,-199.25C707.46,-188.58 645.58,-174.75 599.92,-164.55"/>
<polygon fill="midnightblue" stroke="midnightblue" points="754.69,-202.71 765.22,-201.48 756.22,-195.88 754.69,-202.71"/>
</g>
<!-- Node14 -->
<g id="node14" class="node">
<title>Node14</title>
<g id="a_node14"><a xlink:href="legacy_2_socket_listener_8h.html" target="_top" xlink:title=" ">
<polygon fill="white" stroke="black" points="764.5,-134.5 764.5,-164.5 891.5,-164.5 891.5,-134.5 764.5,-134.5"/>
<text text-anchor="start" x="772.5" y="-152.5" font-family="Helvetica,sans-Serif" font-size="10.00">net/socket/stream/legacy</text>
<text text-anchor="middle" x="828" y="-141.5" font-family="Helvetica,sans-Serif" font-size="10.00">/SocketListener.h</text>
</a>
</g>
</g>
<!-- Node7&#45;&gt;Node14 -->
<g id="edge13" class="edge">
<title>Node7&#45;&gt;Node14</title>
<path fill="none" stroke="midnightblue" d="M828,-191.11C828,-182.15 828,-172.32 828,-164.58"/>
<polygon fill="midnightblue" stroke="midnightblue" points="824.5,-191.4 828,-201.4 831.5,-191.4 824.5,-191.4"/>
</g>
<!-- Node9 -->
<g id="node9" class="node">
<title>Node9</title>
<g id="a_node9"><a xlink:href="stream_2legacy_2_socket_client_8h.html" target="_top" xlink:title=" ">
<polygon fill="white" stroke="black" points="259.5,-67.5 259.5,-97.5 386.5,-97.5 386.5,-67.5 259.5,-67.5"/>
<text text-anchor="start" x="267.5" y="-85.5" font-family="Helvetica,sans-Serif" font-size="10.00">net/socket/stream/legacy</text>
<text text-anchor="middle" x="323" y="-74.5" font-family="Helvetica,sans-Serif" font-size="10.00">/SocketClient.h</text>
</a>
</g>
</g>
<!-- Node8&#45;&gt;Node9 -->
<g id="edge8" class="edge">
<title>Node8&#45;&gt;Node9</title>
<path fill="none" stroke="midnightblue" d="M480.85,-131.44C446.16,-120.91 402.18,-107.55 369.46,-97.61"/>
<polygon fill="midnightblue" stroke="midnightblue" points="480.24,-134.92 490.83,-134.48 482.28,-128.22 480.24,-134.92"/>
</g>
<!-- Node10 -->
<g id="node10" class="node">
<title>Node10</title>
<g id="a_node10"><a xlink:href="bluetooth_2l2cap_2_socket_client_8h.html" target="_top" xlink:title=" ">
<polygon fill="white" stroke="black" points="268,-0.5 268,-30.5 378,-30.5 378,-0.5 268,-0.5"/>
<text text-anchor="start" x="276" y="-18.5" font-family="Helvetica,sans-Serif" font-size="10.00">net/socket/bluetooth</text>
<text text-anchor="middle" x="323" y="-7.5" font-family="Helvetica,sans-Serif" font-size="10.00">/l2cap/SocketClient.h</text>
</a>
</g>
</g>
<!-- Node9&#45;&gt;Node10 -->
<g id="edge9" class="edge">
<title>Node9&#45;&gt;Node10</title>
<path fill="none" stroke="midnightblue" d="M323,-57.11C323,-48.15 323,-38.32 323,-30.58"/>
<polygon fill="midnightblue" stroke="midnightblue" points="319.5,-57.4 323,-67.4 326.5,-57.4 319.5,-57.4"/>
</g>
<!-- Node11 -->
<g id="node11" class="node">
<title>Node11</title>
<g id="a_node11"><a xlink:href="bluetooth_2rfcomm_2legacy_2_socket_client_8h.html" target="_top" xlink:title=" ">
<polygon fill="white" stroke="black" points="396,-0.5 396,-30.5 548,-30.5 548,-0.5 396,-0.5"/>
<text text-anchor="start" x="404" y="-18.5" font-family="Helvetica,sans-Serif" font-size="10.00">net/socket/bluetooth</text>
<text text-anchor="middle" x="472" y="-7.5" font-family="Helvetica,sans-Serif" font-size="10.00">/rfcomm/legacy/SocketClient.h</text>
</a>
</g>
</g>
<!-- Node9&#45;&gt;Node11 -->
<g id="edge10" class="edge">
<title>Node9&#45;&gt;Node11</title>
<path fill="none" stroke="midnightblue" d="M364.79,-63.27C388.52,-52.92 417.78,-40.15 439.73,-30.58"/>
<polygon fill="midnightblue" stroke="midnightblue" points="363.1,-60.19 355.33,-67.4 365.9,-66.61 363.1,-60.19"/>
</g>
<!-- Node12 -->
<g id="node12" class="node">
<title>Node12</title>
<g id="a_node12"><a xlink:href="ip_2tcp_2ipv4_2legacy_2_socket_client_8h.html" target="_top" xlink:title=" ">
<polygon fill="white" stroke="black" points="0,-0.5 0,-30.5 116,-30.5 116,-0.5 0,-0.5"/>
<text text-anchor="start" x="8" y="-18.5" font-family="Helvetica,sans-Serif" font-size="10.00">net/socket/ip/tcp/ipv4</text>
<text text-anchor="middle" x="58" y="-7.5" font-family="Helvetica,sans-Serif" font-size="10.00">/legacy/SocketClient.h</text>
</a>
</g>
</g>
<!-- Node9&#45;&gt;Node12 -->
<g id="edge11" class="edge">
<title>Node9&#45;&gt;Node12</title>
<path fill="none" stroke="midnightblue" d="M255.94,-65.05C212.62,-54.43 156.83,-40.74 115.53,-30.61"/>
<polygon fill="midnightblue" stroke="midnightblue" points="255.28,-68.49 265.83,-67.48 256.95,-61.69 255.28,-68.49"/>
</g>
<!-- Node13 -->
<g id="node13" class="node">
<title>Node13</title>
<g id="a_node13"><a xlink:href="ip_2tcp_2ipv6_2legacy_2_socket_client_8h.html" target="_top" xlink:title=" ">
<polygon fill="white" stroke="black" points="134,-0.5 134,-30.5 250,-30.5 250,-0.5 134,-0.5"/>
<text text-anchor="start" x="142" y="-18.5" font-family="Helvetica,sans-Serif" font-size="10.00">net/socket/ip/tcp/ipv6</text>
<text text-anchor="middle" x="192" y="-7.5" font-family="Helvetica,sans-Serif" font-size="10.00">/legacy/SocketClient.h</text>
</a>
</g>
</g>
<!-- Node9&#45;&gt;Node13 -->
<g id="edge12" class="edge">
<title>Node9&#45;&gt;Node13</title>
<path fill="none" stroke="midnightblue" d="M285.42,-62.85C264.71,-52.58 239.41,-40.03 220.37,-30.58"/>
<polygon fill="midnightblue" stroke="midnightblue" points="284.06,-66.09 294.57,-67.4 287.17,-59.82 284.06,-66.09"/>
</g>
<!-- Node15 -->
<g id="node15" class="node">
<title>Node15</title>
<g id="a_node15"><a xlink:href="stream_2legacy_2_socket_server_8h.html" target="_top" xlink:title=" ">
<polygon fill="white" stroke="black" points="764.5,-67.5 764.5,-97.5 891.5,-97.5 891.5,-67.5 764.5,-67.5"/>
<text text-anchor="start" x="772.5" y="-85.5" font-family="Helvetica,sans-Serif" font-size="10.00">net/socket/stream/legacy</text>
<text text-anchor="middle" x="828" y="-74.5" font-family="Helvetica,sans-Serif" font-size="10.00">/SocketServer.h</text>
</a>
</g>
</g>
<!-- Node14&#45;&gt;Node15 -->
<g id="edge14" class="edge">
<title>Node14&#45;&gt;Node15</title>
<path fill="none" stroke="midnightblue" d="M828,-124.11C828,-115.15 828,-105.32 828,-97.58"/>
<polygon fill="midnightblue" stroke="midnightblue" points="824.5,-124.4 828,-134.4 831.5,-124.4 824.5,-124.4"/>
</g>
<!-- Node16 -->
<g id="node16" class="node">
<title>Node16</title>
<g id="a_node16"><a xlink:href="bluetooth_2l2cap_2_socket_server_8h.html" target="_top" xlink:title=" ">
<polygon fill="white" stroke="black" points="838.5,-0.5 838.5,-30.5 951.5,-30.5 951.5,-0.5 838.5,-0.5"/>
<text text-anchor="start" x="846.5" y="-18.5" font-family="Helvetica,sans-Serif" font-size="10.00">net/socket/bluetooth</text>
<text text-anchor="middle" x="895" y="-7.5" font-family="Helvetica,sans-Serif" font-size="10.00">/l2cap/SocketServer.h</text>
</a>
</g>
</g>
<!-- Node15&#45;&gt;Node16 -->
<g id="edge15" class="edge">
<title>Node15&#45;&gt;Node16</title>
<path fill="none" stroke="midnightblue" d="M849.84,-60.31C859.89,-50.56 871.54,-39.26 880.49,-30.58"/>
<polygon fill="midnightblue" stroke="midnightblue" points="847.28,-57.92 842.54,-67.4 852.15,-62.94 847.28,-57.92"/>
</g>
<!-- Node17 -->
<g id="node17" class="node">
<title>Node17</title>
<g id="a_node17"><a xlink:href="bluetooth_2rfcomm_2legacy_2_socket_server_8h.html" target="_top" xlink:title=" ">
<polygon fill="white" stroke="black" points="970,-0.5 970,-30.5 1124,-30.5 1124,-0.5 970,-0.5"/>
<text text-anchor="start" x="978" y="-18.5" font-family="Helvetica,sans-Serif" font-size="10.00">net/socket/bluetooth</text>
<text text-anchor="middle" x="1047" y="-7.5" font-family="Helvetica,sans-Serif" font-size="10.00">/rfcomm/legacy/SocketServer.h</text>
</a>
</g>
</g>
<!-- Node15&#45;&gt;Node17 -->
<g id="edge16" class="edge">
<title>Node15&#45;&gt;Node17</title>
<path fill="none" stroke="midnightblue" d="M885.01,-64.58C920.58,-54.02 965.83,-40.59 999.46,-30.61"/>
<polygon fill="midnightblue" stroke="midnightblue" points="883.84,-61.28 875.25,-67.48 885.83,-67.99 883.84,-61.28"/>
</g>
<!-- Node18 -->
<g id="node18" class="node">
<title>Node18</title>
<g id="a_node18"><a xlink:href="ip_2tcp_2ipv4_2legacy_2_socket_server_8h.html" target="_top" xlink:title=" ">
<polygon fill="white" stroke="black" points="566,-0.5 566,-30.5 684,-30.5 684,-0.5 566,-0.5"/>
<text text-anchor="start" x="574" y="-18.5" font-family="Helvetica,sans-Serif" font-size="10.00">net/socket/ip/tcp/ipv4</text>
<text text-anchor="middle" x="625" y="-7.5" font-family="Helvetica,sans-Serif" font-size="10.00">/legacy/SocketServer.h</text>
</a>
</g>
</g>
<!-- Node15&#45;&gt;Node18 -->
<g id="edge17" class="edge">
<title>Node15&#45;&gt;Node18</title>
<path fill="none" stroke="midnightblue" d="M774.06,-64.23C741.22,-53.71 699.8,-40.45 668.96,-30.58"/>
<polygon fill="midnightblue" stroke="midnightblue" points="773.36,-67.68 783.95,-67.4 775.5,-61.01 773.36,-67.68"/>
</g>
<!-- Node19 -->
<g id="node19" class="node">
<title>Node19</title>
<g id="a_node19"><a xlink:href="ip_2tcp_2ipv6_2legacy_2_socket_server_8h.html" target="_top" xlink:title=" ">
<polygon fill="white" stroke="black" points="702,-0.5 702,-30.5 820,-30.5 820,-0.5 702,-0.5"/>
<text text-anchor="start" x="710" y="-18.5" font-family="Helvetica,sans-Serif" font-size="10.00">net/socket/ip/tcp/ipv6</text>
<text text-anchor="middle" x="761" y="-7.5" font-family="Helvetica,sans-Serif" font-size="10.00">/legacy/SocketServer.h</text>
</a>
</g>
</g>
<!-- Node15&#45;&gt;Node19 -->
<g id="edge18" class="edge">
<title>Node15&#45;&gt;Node19</title>
<path fill="none" stroke="midnightblue" d="M806.16,-60.31C796.11,-50.56 784.46,-39.26 775.51,-30.58"/>
<polygon fill="midnightblue" stroke="midnightblue" points="803.85,-62.94 813.46,-67.4 808.72,-57.92 803.85,-62.94"/>
</g>
<!-- Node21 -->
<g id="node21" class="node">
<title>Node21</title>
<g id="a_node21"><a xlink:href="tls_2_socket_connection_8h.html" target="_top" xlink:title=" ">
<polygon fill="white" stroke="black" points="1353.5,-201.5 1353.5,-231.5 1462.5,-231.5 1462.5,-201.5 1353.5,-201.5"/>
<text text-anchor="start" x="1361.5" y="-219.5" font-family="Helvetica,sans-Serif" font-size="10.00">net/socket/stream/tls</text>
<text text-anchor="middle" x="1408" y="-208.5" font-family="Helvetica,sans-Serif" font-size="10.00">/SocketConnection.h</text>
</a>
</g>
</g>
<!-- Node20&#45;&gt;Node21 -->
<g id="edge20" class="edge">
<title>Node20&#45;&gt;Node21</title>
<path fill="none" stroke="midnightblue" d="M1263.35,-265.23C1295.22,-254.71 1335.41,-241.45 1365.34,-231.58"/>
<polygon fill="midnightblue" stroke="midnightblue" points="1262.15,-261.94 1253.75,-268.4 1264.34,-268.59 1262.15,-261.94"/>
</g>
<!-- Node22 -->
<g id="node22" class="node">
<title>Node22</title>
<g id="a_node22"><a xlink:href="tls_2_socket_connector_8h.html" target="_top" xlink:title=" ">
<polygon fill="white" stroke="black" points="1493.5,-134.5 1493.5,-164.5 1602.5,-164.5 1602.5,-134.5 1493.5,-134.5"/>
<text text-anchor="start" x="1501.5" y="-152.5" font-family="Helvetica,sans-Serif" font-size="10.00">net/socket/stream/tls</text>
<text text-anchor="middle" x="1548" y="-141.5" font-family="Helvetica,sans-Serif" font-size="10.00">/SocketConnector.h</text>
</a>
</g>
</g>
<!-- Node21&#45;&gt;Node22 -->
<g id="edge21" class="edge">
<title>Node21&#45;&gt;Node22</title>
<path fill="none" stroke="midnightblue" d="M1447.57,-197.13C1469.81,-186.8 1497.15,-174.11 1517.68,-164.58"/>
<polygon fill="midnightblue" stroke="midnightblue" points="1445.97,-194.01 1438.38,-201.4 1448.92,-200.36 1445.97,-194.01"/>
</g>
<!-- Node27 -->
<g id="node27" class="node">
<title>Node27</title>
<g id="a_node27"><a xlink:href="tls_2_socket_listener_8h.html" target="_top" xlink:title=" ">
<polygon fill="white" stroke="black" points="1296.5,-134.5 1296.5,-164.5 1405.5,-164.5 1405.5,-134.5 1296.5,-134.5"/>
<text text-anchor="start" x="1304.5" y="-152.5" font-family="Helvetica,sans-Serif" font-size="10.00">net/socket/stream/tls</text>
<text text-anchor="middle" x="1351" y="-141.5" font-family="Helvetica,sans-Serif" font-size="10.00">/SocketListener.h</text>
</a>
</g>
</g>
<!-- Node21&#45;&gt;Node27 -->
<g id="edge26" class="edge">
<title>Node21&#45;&gt;Node27</title>
<path fill="none" stroke="midnightblue" d="M1388.91,-193.74C1380.48,-184.12 1370.81,-173.09 1363.34,-164.58"/>
<polygon fill="midnightblue" stroke="midnightblue" points="1386.41,-196.18 1395.63,-201.4 1391.67,-191.57 1386.41,-196.18"/>
</g>
<!-- Node23 -->
<g id="node23" class="node">
<title>Node23</title>
<g id="a_node23"><a xlink:href="stream_2tls_2_socket_client_8h.html" target="_top" xlink:title=" ">
<polygon fill="white" stroke="black" points="1634.5,-67.5 1634.5,-97.5 1743.5,-97.5 1743.5,-67.5 1634.5,-67.5"/>
<text text-anchor="start" x="1642.5" y="-85.5" font-family="Helvetica,sans-Serif" font-size="10.00">net/socket/stream/tls</text>
<text text-anchor="middle" x="1689" y="-74.5" font-family="Helvetica,sans-Serif" font-size="10.00">/SocketClient.h</text>
</a>
</g>
</g>
<!-- Node22&#45;&gt;Node23 -->
<g id="edge22" class="edge">
<title>Node22&#45;&gt;Node23</title>
<path fill="none" stroke="midnightblue" d="M1587.85,-130.13C1610.25,-119.8 1637.78,-107.11 1658.46,-97.58"/>
<polygon fill="midnightblue" stroke="midnightblue" points="1586.21,-127.03 1578.59,-134.4 1589.14,-133.39 1586.21,-127.03"/>
</g>
<!-- Node24 -->
<g id="node24" class="node">
<title>Node24</title>
<g id="a_node24"><a xlink:href="bluetooth_2rfcomm_2tls_2_socket_client_8h.html" target="_top" xlink:title=" ">
<polygon fill="white" stroke="black" points="1552,-0.5 1552,-30.5 1686,-30.5 1686,-0.5 1552,-0.5"/>
<text text-anchor="start" x="1560" y="-18.5" font-family="Helvetica,sans-Serif" font-size="10.00">net/socket/bluetooth</text>
<text text-anchor="middle" x="1619" y="-7.5" font-family="Helvetica,sans-Serif" font-size="10.00">/rfcomm/tls/SocketClient.h</text>
</a>
</g>
</g>
<!-- Node23&#45;&gt;Node24 -->
<g id="edge23" class="edge">
<title>Node23&#45;&gt;Node24</title>
<path fill="none" stroke="midnightblue" d="M1666.18,-60.31C1655.68,-50.56 1643.51,-39.26 1634.16,-30.58"/>
<polygon fill="midnightblue" stroke="midnightblue" points="1664.1,-63.16 1673.81,-67.4 1668.86,-58.03 1664.1,-63.16"/>
</g>
<!-- Node25 -->
<g id="node25" class="node">
<title>Node25</title>
<g id="a_node25"><a xlink:href="ip_2tcp_2ipv4_2tls_2_socket_client_8h.html" target="_top" xlink:title=" ">
<polygon fill="white" stroke="black" points="1704,-0.5 1704,-30.5 1814,-30.5 1814,-0.5 1704,-0.5"/>
<text text-anchor="start" x="1712" y="-18.5" font-family="Helvetica,sans-Serif" font-size="10.00">net/socket/ip/tcp/ipv4</text>
<text text-anchor="middle" x="1759" y="-7.5" font-family="Helvetica,sans-Serif" font-size="10.00">/tls/SocketClient.h</text>
</a>
</g>
</g>
<!-- Node23&#45;&gt;Node25 -->
<g id="edge24" class="edge">
<title>Node23&#45;&gt;Node25</title>
<path fill="none" stroke="midnightblue" d="M1711.82,-60.31C1722.32,-50.56 1734.49,-39.26 1743.84,-30.58"/>
<polygon fill="midnightblue" stroke="midnightblue" points="1709.14,-58.03 1704.19,-67.4 1713.9,-63.16 1709.14,-58.03"/>
</g>
<!-- Node26 -->
<g id="node26" class="node">
<title>Node26</title>
<g id="a_node26"><a xlink:href="ip_2tcp_2ipv6_2tls_2_socket_client_8h.html" target="_top" xlink:title=" ">
<polygon fill="white" stroke="black" points="1832,-0.5 1832,-30.5 1942,-30.5 1942,-0.5 1832,-0.5"/>
<text text-anchor="start" x="1840" y="-18.5" font-family="Helvetica,sans-Serif" font-size="10.00">net/socket/ip/tcp/ipv6</text>
<text text-anchor="middle" x="1887" y="-7.5" font-family="Helvetica,sans-Serif" font-size="10.00">/tls/SocketClient.h</text>
</a>
</g>
</g>
<!-- Node23&#45;&gt;Node26 -->
<g id="edge25" class="edge">
<title>Node23&#45;&gt;Node26</title>
<path fill="none" stroke="midnightblue" d="M1741.61,-64.23C1773.64,-53.71 1814.04,-40.45 1844.12,-30.58"/>
<polygon fill="midnightblue" stroke="midnightblue" points="1740.37,-60.95 1731.96,-67.4 1742.56,-67.6 1740.37,-60.95"/>
</g>
<!-- Node28 -->
<g id="node28" class="node">
<title>Node28</title>
<g id="a_node28"><a xlink:href="stream_2tls_2_socket_server_8h.html" target="_top" xlink:title=" ">
<polygon fill="white" stroke="black" points="1296.5,-67.5 1296.5,-97.5 1405.5,-97.5 1405.5,-67.5 1296.5,-67.5"/>
<text text-anchor="start" x="1304.5" y="-85.5" font-family="Helvetica,sans-Serif" font-size="10.00">net/socket/stream/tls</text>
<text text-anchor="middle" x="1351" y="-74.5" font-family="Helvetica,sans-Serif" font-size="10.00">/SocketServer.h</text>
</a>
</g>
</g>
<!-- Node27&#45;&gt;Node28 -->
<g id="edge27" class="edge">
<title>Node27&#45;&gt;Node28</title>
<path fill="none" stroke="midnightblue" d="M1351,-124.11C1351,-115.15 1351,-105.32 1351,-97.58"/>
<polygon fill="midnightblue" stroke="midnightblue" points="1347.5,-124.4 1351,-134.4 1354.5,-124.4 1347.5,-124.4"/>
</g>
<!-- Node29 -->
<g id="node29" class="node">
<title>Node29</title>
<g id="a_node29"><a xlink:href="bluetooth_2rfcomm_2tls_2_socket_server_8h.html" target="_top" xlink:title=" ">
<polygon fill="white" stroke="black" points="1142,-0.5 1142,-30.5 1278,-30.5 1278,-0.5 1142,-0.5"/>
<text text-anchor="start" x="1150" y="-18.5" font-family="Helvetica,sans-Serif" font-size="10.00">net/socket/bluetooth</text>
<text text-anchor="middle" x="1210" y="-7.5" font-family="Helvetica,sans-Serif" font-size="10.00">/rfcomm/tls/SocketServer.h</text>
</a>
</g>
</g>
<!-- Node28&#45;&gt;Node29 -->
<g id="edge28" class="edge">
<title>Node28&#45;&gt;Node29</title>
<path fill="none" stroke="midnightblue" d="M1311.15,-63.13C1288.75,-52.8 1261.22,-40.11 1240.54,-30.58"/>
<polygon fill="midnightblue" stroke="midnightblue" points="1309.86,-66.39 1320.41,-67.4 1312.79,-60.03 1309.86,-66.39"/>
</g>
<!-- Node30 -->
<g id="node30" class="node">
<title>Node30</title>
<g id="a_node30"><a xlink:href="ip_2tcp_2ipv4_2tls_2_socket_server_8h.html" target="_top" xlink:title=" ">
<polygon fill="white" stroke="black" points="1296,-0.5 1296,-30.5 1406,-30.5 1406,-0.5 1296,-0.5"/>
<text text-anchor="start" x="1304" y="-18.5" font-family="Helvetica,sans-Serif" font-size="10.00">net/socket/ip/tcp/ipv4</text>
<text text-anchor="middle" x="1351" y="-7.5" font-family="Helvetica,sans-Serif" font-size="10.00">/tls/SocketServer.h</text>
</a>
</g>
</g>
<!-- Node28&#45;&gt;Node30 -->
<g id="edge29" class="edge">
<title>Node28&#45;&gt;Node30</title>
<path fill="none" stroke="midnightblue" d="M1351,-57.11C1351,-48.15 1351,-38.32 1351,-30.58"/>
<polygon fill="midnightblue" stroke="midnightblue" points="1347.5,-57.4 1351,-67.4 1354.5,-57.4 1347.5,-57.4"/>
</g>
<!-- Node31 -->
<g id="node31" class="node">
<title>Node31</title>
<g id="a_node31"><a xlink:href="ip_2tcp_2ipv6_2tls_2_socket_server_8h.html" target="_top" xlink:title=" ">
<polygon fill="white" stroke="black" points="1424,-0.5 1424,-30.5 1534,-30.5 1534,-0.5 1424,-0.5"/>
<text text-anchor="start" x="1432" y="-18.5" font-family="Helvetica,sans-Serif" font-size="10.00">net/socket/ip/tcp/ipv6</text>
<text text-anchor="middle" x="1479" y="-7.5" font-family="Helvetica,sans-Serif" font-size="10.00">/tls/SocketServer.h</text>
</a>
</g>
</g>
<!-- Node28&#45;&gt;Node31 -->
<g id="edge30" class="edge">
<title>Node28&#45;&gt;Node31</title>
<path fill="none" stroke="midnightblue" d="M1387.72,-62.85C1407.96,-52.58 1432.67,-40.03 1451.28,-30.58"/>
<polygon fill="midnightblue" stroke="midnightblue" points="1386.11,-59.75 1378.77,-67.4 1389.28,-65.99 1386.11,-59.75"/>
</g>
<!-- Node32&#45;&gt;Node21 -->
<g id="edge32" class="edge">
<title>Node32&#45;&gt;Node21</title>
<path fill="none" stroke="midnightblue" d="M1445.91,-260.74C1437.48,-251.12 1427.81,-240.09 1420.34,-231.58"/>
<polygon fill="midnightblue" stroke="midnightblue" points="1443.41,-263.18 1452.63,-268.4 1448.67,-258.57 1443.41,-263.18"/>
</g>
<!-- Node33&#45;&gt;Node20 -->
<g id="edge37" class="edge">
<title>Node33&#45;&gt;Node20</title>
<path fill="none" stroke="midnightblue" d="M1301.3,-330.71C1281.27,-320.46 1256.88,-307.98 1238.5,-298.58"/>
<polygon fill="midnightblue" stroke="midnightblue" points="1299.95,-333.96 1310.44,-335.4 1303.14,-327.72 1299.95,-333.96"/>
</g>
<!-- Node33&#45;&gt;Node22 -->
<g id="edge34" class="edge">
<title>Node33&#45;&gt;Node22</title>
<path fill="none" stroke="midnightblue" d="M1402.85,-340.23C1451.45,-331.89 1512.32,-318.02 1529,-299 1562.58,-260.69 1555.88,-194 1550.89,-164.84"/>
<polygon fill="midnightblue" stroke="midnightblue" points="1401.98,-336.82 1392.69,-341.92 1403.13,-343.73 1401.98,-336.82"/>
</g>
<!-- Node33&#45;&gt;Node27 -->
<g id="edge35" class="edge">
<title>Node33&#45;&gt;Node27</title>
<path fill="none" stroke="midnightblue" d="M1273.52,-334.43C1219.68,-321.53 1151.04,-304.24 1147,-299 1138.59,-288.08 1140.1,-279.93 1147,-268 1179.21,-212.27 1249.01,-180.64 1297.95,-164.55"/>
<polygon fill="midnightblue" stroke="midnightblue" points="1272.85,-337.86 1283.39,-336.78 1274.47,-331.06 1272.85,-337.86"/>
</g>
<!-- Node33&#45;&gt;Node32 -->
<g id="edge36" class="edge">
<title>Node33&#45;&gt;Node32</title>
<path fill="none" stroke="midnightblue" d="M1374.7,-330.71C1394.73,-320.46 1419.12,-307.98 1437.5,-298.58"/>
<polygon fill="midnightblue" stroke="midnightblue" points="1372.86,-327.72 1365.56,-335.4 1376.05,-333.96 1372.86,-327.72"/>
</g>
<!-- Node34 -->
<g id="node34" class="node">
<title>Node34</title>
<g id="a_node34"><a xlink:href="_t_l_s_handshake_8cpp.html" target="_top" xlink:title=" ">
<polygon fill="white" stroke="black" points="1283.5,-268.5 1283.5,-298.5 1392.5,-298.5 1392.5,-268.5 1283.5,-268.5"/>
<text text-anchor="start" x="1291.5" y="-286.5" font-family="Helvetica,sans-Serif" font-size="10.00">net/socket/stream/tls</text>
<text text-anchor="middle" x="1338" y="-275.5" font-family="Helvetica,sans-Serif" font-size="10.00">/TLSHandshake.cpp</text>
</a>
</g>
</g>
<!-- Node33&#45;&gt;Node34 -->
<g id="edge38" class="edge">
<title>Node33&#45;&gt;Node34</title>
<path fill="none" stroke="midnightblue" d="M1338,-325.11C1338,-316.15 1338,-306.32 1338,-298.58"/>
<polygon fill="midnightblue" stroke="midnightblue" points="1334.5,-325.4 1338,-335.4 1341.5,-325.4 1334.5,-325.4"/>
</g>
</g>
</svg>
