<?xml version="1.0" encoding="UTF-8" standalone="no"?>
<!DOCTYPE svg PUBLIC "-//W3C//DTD SVG 1.1//EN"
 "http://www.w3.org/Graphics/SVG/1.1/DTD/svg11.dtd">
<!-- Generated by graphviz version 2.43.0 (0)
 -->
<!-- Title: net/WriteEventDispatcher.h Pages: 1 -->
<svg width="1013pt" height="140pt"
 viewBox="0.00 0.00 1013.00 140.00" xmlns="http://www.w3.org/2000/svg" xmlns:xlink="http://www.w3.org/1999/xlink">
<g id="graph0" class="graph" transform="scale(1 1) rotate(0) translate(4 136)">
<title>net/WriteEventDispatcher.h</title>
<polygon fill="white" stroke="transparent" points="-4,4 -4,-136 1009,-136 1009,4 -4,4"/>
<!-- Node1 -->
<g id="node1" class="node">
<title>Node1</title>
<g id="a_node1"><a xlink:title=" ">
<polygon fill="#bfbfbf" stroke="black" points="736,-112.5 736,-131.5 872,-131.5 872,-112.5 736,-112.5"/>
<text text-anchor="middle" x="804" y="-119.5" font-family="Helvetica,sans-Serif" font-size="10.00">net/WriteEventDispatcher.h</text>
</a>
</g>
</g>
<!-- Node2 -->
<g id="node2" class="node">
<title>Node2</title>
<g id="a_node2"><a xlink:href="_event_loop_8h.html" target="_top" xlink:title=" ">
<polygon fill="white" stroke="black" points="557,-56.5 557,-75.5 645,-75.5 645,-56.5 557,-56.5"/>
<text text-anchor="middle" x="601" y="-63.5" font-family="Helvetica,sans-Serif" font-size="10.00">net/EventLoop.h</text>
</a>
</g>
</g>
<!-- Node1&#45;&gt;Node2 -->
<g id="edge1" class="edge">
<title>Node1&#45;&gt;Node2</title>
<path fill="none" stroke="midnightblue" d="M762.01,-109.83C723.68,-99.63 667.85,-84.78 633.02,-75.52"/>
<polygon fill="midnightblue" stroke="midnightblue" points="761.27,-113.26 771.83,-112.44 763.07,-106.49 761.27,-113.26"/>
</g>
<!-- Node8 -->
<g id="node8" class="node">
<title>Node8</title>
<g id="a_node8"><a xlink:href="_write_event_receiver_8cpp.html" target="_top" xlink:title=" ">
<polygon fill="white" stroke="black" points="867,-0.5 867,-19.5 1005,-19.5 1005,-0.5 867,-0.5"/>
<text text-anchor="middle" x="936" y="-7.5" font-family="Helvetica,sans-Serif" font-size="10.00">net/WriteEventReceiver.cpp</text>
</a>
</g>
</g>
<!-- Node1&#45;&gt;Node8 -->
<g id="edge10" class="edge">
<title>Node1&#45;&gt;Node8</title>
<path fill="none" stroke="midnightblue" d="M805.14,-102.1C806.95,-87.84 811.51,-68.63 823,-56 840.19,-37.1 866.38,-26.01 889.21,-19.58"/>
<polygon fill="midnightblue" stroke="midnightblue" points="801.64,-101.99 804.21,-112.26 808.61,-102.63 801.64,-101.99"/>
</g>
<!-- Node10 -->
<g id="node10" class="node">
<title>Node10</title>
<g id="a_node10"><a xlink:href="_write_event_dispatcher_8cpp.html" target="_top" xlink:title=" ">
<polygon fill="white" stroke="black" points="832,-56.5 832,-75.5 978,-75.5 978,-56.5 832,-56.5"/>
<text text-anchor="middle" x="905" y="-63.5" font-family="Helvetica,sans-Serif" font-size="10.00">net/WriteEventDispatcher.cpp</text>
</a>
</g>
</g>
<!-- Node1&#45;&gt;Node10 -->
<g id="edge9" class="edge">
<title>Node1&#45;&gt;Node10</title>
<path fill="none" stroke="midnightblue" d="M829.08,-107.59C847.76,-97.61 872.7,-84.27 888.81,-75.65"/>
<polygon fill="midnightblue" stroke="midnightblue" points="827.4,-104.52 820.23,-112.32 830.7,-110.7 827.4,-104.52"/>
</g>
<!-- Node3 -->
<g id="node3" class="node">
<title>Node3</title>
<g id="a_node3"><a xlink:href="_accept_event_receiver_8cpp.html" target="_top" xlink:title=" ">
<polygon fill="white" stroke="black" points="0,-0.5 0,-19.5 146,-19.5 146,-0.5 0,-0.5"/>
<text text-anchor="middle" x="73" y="-7.5" font-family="Helvetica,sans-Serif" font-size="10.00">net/AcceptEventReceiver.cpp</text>
</a>
</g>
</g>
<!-- Node2&#45;&gt;Node3 -->
<g id="edge2" class="edge">
<title>Node2&#45;&gt;Node3</title>
<path fill="none" stroke="midnightblue" d="M546.93,-59.7C463.01,-51.44 296.35,-34.89 155,-20 152.15,-19.7 149.25,-19.39 146.31,-19.08"/>
<polygon fill="midnightblue" stroke="midnightblue" points="546.7,-63.19 556.99,-60.69 547.38,-56.23 546.7,-63.19"/>
</g>
<!-- Node4 -->
<g id="node4" class="node">
<title>Node4</title>
<g id="a_node4"><a xlink:href="_event_loop_8cpp.html" target="_top" xlink:title=" ">
<polygon fill="white" stroke="black" points="164,-0.5 164,-19.5 262,-19.5 262,-0.5 164,-0.5"/>
<text text-anchor="middle" x="213" y="-7.5" font-family="Helvetica,sans-Serif" font-size="10.00">net/EventLoop.cpp</text>
</a>
</g>
</g>
<!-- Node2&#45;&gt;Node4 -->
<g id="edge3" class="edge">
<title>Node2&#45;&gt;Node4</title>
<path fill="none" stroke="midnightblue" d="M546.85,-57.93C481.44,-49.31 368.08,-34.15 271,-20 268.08,-19.57 265.07,-19.13 262.04,-18.67"/>
<polygon fill="midnightblue" stroke="midnightblue" points="546.56,-61.42 556.93,-59.25 547.47,-54.48 546.56,-61.42"/>
</g>
<!-- Node5 -->
<g id="node5" class="node">
<title>Node5</title>
<g id="a_node5"><a xlink:href="_out_of_band_event_receiver_8cpp.html" target="_top" xlink:title=" ">
<polygon fill="white" stroke="black" points="280,-0.5 280,-19.5 444,-19.5 444,-0.5 280,-0.5"/>
<text text-anchor="middle" x="362" y="-7.5" font-family="Helvetica,sans-Serif" font-size="10.00">net/OutOfBandEventReceiver.cpp</text>
</a>
</g>
</g>
<!-- Node2&#45;&gt;Node5 -->
<g id="edge4" class="edge">
<title>Node2&#45;&gt;Node5</title>
<path fill="none" stroke="midnightblue" d="M553.28,-54.22C508.11,-44.01 441.23,-28.9 399.69,-19.52"/>
<polygon fill="midnightblue" stroke="midnightblue" points="552.6,-57.65 563.13,-56.44 554.15,-50.83 552.6,-57.65"/>
</g>
<!-- Node6 -->
<g id="node6" class="node">
<title>Node6</title>
<g id="a_node6"><a xlink:href="_read_event_receiver_8cpp.html" target="_top" xlink:title=" ">
<polygon fill="white" stroke="black" points="462.5,-0.5 462.5,-19.5 601.5,-19.5 601.5,-0.5 462.5,-0.5"/>
<text text-anchor="middle" x="532" y="-7.5" font-family="Helvetica,sans-Serif" font-size="10.00">net/ReadEventReceiver.cpp</text>
</a>
</g>
</g>
<!-- Node2&#45;&gt;Node6 -->
<g id="edge5" class="edge">
<title>Node2&#45;&gt;Node6</title>
<path fill="none" stroke="midnightblue" d="M581.96,-50.1C569.54,-40.38 553.76,-28.03 543.29,-19.83"/>
<polygon fill="midnightblue" stroke="midnightblue" points="579.88,-52.92 589.91,-56.32 584.2,-47.4 579.88,-52.92"/>
</g>
<!-- Node7 -->
<g id="node7" class="node">
<title>Node7</title>
<g id="a_node7"><a xlink:href="_timer_8cpp.html" target="_top" xlink:title=" ">
<polygon fill="white" stroke="black" points="619.5,-0.5 619.5,-19.5 720.5,-19.5 720.5,-0.5 619.5,-0.5"/>
<text text-anchor="middle" x="670" y="-7.5" font-family="Helvetica,sans-Serif" font-size="10.00">net/timer/Timer.cpp</text>
</a>
</g>
</g>
<!-- Node2&#45;&gt;Node7 -->
<g id="edge6" class="edge">
<title>Node2&#45;&gt;Node7</title>
<path fill="none" stroke="midnightblue" d="M620.04,-50.1C632.46,-40.38 648.24,-28.03 658.71,-19.83"/>
<polygon fill="midnightblue" stroke="midnightblue" points="617.8,-47.4 612.09,-56.32 622.12,-52.92 617.8,-47.4"/>
</g>
<!-- Node2&#45;&gt;Node8 -->
<g id="edge7" class="edge">
<title>Node2&#45;&gt;Node8</title>
<path fill="none" stroke="midnightblue" d="M655.25,-56.26C718.1,-46.12 820.97,-29.54 883.2,-19.51"/>
<polygon fill="midnightblue" stroke="midnightblue" points="654.46,-52.84 645.14,-57.88 655.57,-59.75 654.46,-52.84"/>
</g>
<!-- Node9 -->
<g id="node9" class="node">
<title>Node9</title>
<g id="a_node9"><a xlink:href="_web_app_8cpp.html" target="_top" xlink:title=" ">
<polygon fill="white" stroke="black" points="739,-0.5 739,-19.5 849,-19.5 849,-0.5 739,-0.5"/>
<text text-anchor="middle" x="794" y="-7.5" font-family="Helvetica,sans-Serif" font-size="10.00">express/WebApp.cpp</text>
</a>
</g>
</g>
<!-- Node2&#45;&gt;Node9 -->
<g id="edge8" class="edge">
<title>Node2&#45;&gt;Node9</title>
<path fill="none" stroke="midnightblue" d="M641.39,-53.7C677.82,-43.51 730.59,-28.74 763.56,-19.52"/>
<polygon fill="midnightblue" stroke="midnightblue" points="640.27,-50.38 631.58,-56.44 642.15,-57.12 640.27,-50.38"/>
</g>
</g>
</svg>
