<?xml version="1.0" encoding="UTF-8" standalone="no"?>
<!DOCTYPE svg PUBLIC "-//W3C//DTD SVG 1.1//EN"
 "http://www.w3.org/Graphics/SVG/1.1/DTD/svg11.dtd">
<!-- Generated by graphviz version 2.43.0 (0)
 -->
<!-- Title: net/socket/bluetooth/rfcomm/legacy/SocketClient.h Pages: 1 -->
<svg width="1013pt" height="486pt"
 viewBox="0.00 0.00 1013.00 486.00" xmlns="http://www.w3.org/2000/svg" xmlns:xlink="http://www.w3.org/1999/xlink">
<g id="graph0" class="graph" transform="scale(1 1) rotate(0) translate(4 482)">
<title>net/socket/bluetooth/rfcomm/legacy/SocketClient.h</title>
<polygon fill="white" stroke="transparent" points="-4,4 -4,-482 1009,-482 1009,4 -4,4"/>
<!-- Node1 -->
<g id="node1" class="node">
<title>Node1</title>
<g id="a_node1"><a xlink:title=" ">
<polygon fill="#bfbfbf" stroke="black" points="626.5,-447.5 626.5,-477.5 778.5,-477.5 778.5,-447.5 626.5,-447.5"/>
<text text-anchor="start" x="634.5" y="-465.5" font-family="Helvetica,sans-Serif" font-size="10.00">net/socket/bluetooth</text>
<text text-anchor="middle" x="702.5" y="-454.5" font-family="Helvetica,sans-Serif" font-size="10.00">/rfcomm/legacy/SocketClient.h</text>
</a>
</g>
</g>
<!-- Node2 -->
<g id="node2" class="node">
<title>Node2</title>
<g id="a_node2"><a xlink:href="socket_2bluetooth_2rfcomm_2_socket_8h.html" target="_top" xlink:title=" ">
<polygon fill="white" stroke="black" points="583,-380.5 583,-410.5 688,-410.5 688,-380.5 583,-380.5"/>
<text text-anchor="start" x="591" y="-398.5" font-family="Helvetica,sans-Serif" font-size="10.00">net/socket/bluetooth</text>
<text text-anchor="middle" x="635.5" y="-387.5" font-family="Helvetica,sans-Serif" font-size="10.00">/rfcomm/Socket.h</text>
</a>
</g>
</g>
<!-- Node1&#45;&gt;Node2 -->
<g id="edge1" class="edge">
<title>Node1&#45;&gt;Node2</title>
<path fill="none" stroke="midnightblue" d="M687.96,-447.4C679.01,-438.71 667.36,-427.4 657.31,-417.66"/>
<polygon fill="midnightblue" stroke="midnightblue" points="659.62,-415.03 650.01,-410.58 654.75,-420.05 659.62,-415.03"/>
</g>
<!-- Node8 -->
<g id="node8" class="node">
<title>Node8</title>
<g id="a_node8"><a xlink:href="stream_2legacy_2_socket_client_8h.html" target="_top" xlink:title=" ">
<polygon fill="white" stroke="black" points="706,-380.5 706,-410.5 833,-410.5 833,-380.5 706,-380.5"/>
<text text-anchor="start" x="714" y="-398.5" font-family="Helvetica,sans-Serif" font-size="10.00">net/socket/stream/legacy</text>
<text text-anchor="middle" x="769.5" y="-387.5" font-family="Helvetica,sans-Serif" font-size="10.00">/SocketClient.h</text>
</a>
</g>
</g>
<!-- Node1&#45;&gt;Node8 -->
<g id="edge7" class="edge">
<title>Node1&#45;&gt;Node8</title>
<path fill="none" stroke="midnightblue" d="M717.04,-447.4C725.99,-438.71 737.64,-427.4 747.69,-417.66"/>
<polygon fill="midnightblue" stroke="midnightblue" points="750.25,-420.05 754.99,-410.58 745.38,-415.03 750.25,-420.05"/>
</g>
<!-- Node3 -->
<g id="node3" class="node">
<title>Node3</title>
<g id="a_node3"><a xlink:href="socket_2_socket_8h.html" target="_top" xlink:title=" ">
<polygon fill="white" stroke="black" points="583.5,-319 583.5,-338 687.5,-338 687.5,-319 583.5,-319"/>
<text text-anchor="middle" x="635.5" y="-326" font-family="Helvetica,sans-Serif" font-size="10.00">net/socket/Socket.h</text>
</a>
</g>
</g>
<!-- Node2&#45;&gt;Node3 -->
<g id="edge2" class="edge">
<title>Node2&#45;&gt;Node3</title>
<path fill="none" stroke="midnightblue" d="M635.5,-380.4C635.5,-371.06 635.5,-358.71 635.5,-348.52"/>
<polygon fill="midnightblue" stroke="midnightblue" points="639,-348.19 635.5,-338.19 632,-348.19 639,-348.19"/>
</g>
<!-- Node6 -->
<g id="node6" class="node">
<title>Node6</title>
<g id="a_node6"><a xlink:href="_rf_comm_address_8h.html" target="_top" xlink:title=" ">
<polygon fill="white" stroke="black" points="424,-313.5 424,-343.5 565,-343.5 565,-313.5 424,-313.5"/>
<text text-anchor="start" x="432" y="-331.5" font-family="Helvetica,sans-Serif" font-size="10.00">net/socket/bluetooth</text>
<text text-anchor="middle" x="494.5" y="-320.5" font-family="Helvetica,sans-Serif" font-size="10.00">/address/RfCommAddress.h</text>
</a>
</g>
</g>
<!-- Node2&#45;&gt;Node6 -->
<g id="edge5" class="edge">
<title>Node2&#45;&gt;Node6</title>
<path fill="none" stroke="midnightblue" d="M604.91,-380.4C584.21,-370.86 556.68,-358.16 534.28,-347.84"/>
<polygon fill="midnightblue" stroke="midnightblue" points="535.58,-344.58 525.04,-343.58 532.65,-350.94 535.58,-344.58"/>
</g>
<!-- Node4 -->
<g id="node4" class="node">
<title>Node4</title>
<g id="a_node4"><a xlink:href="_descriptor_8h.html" target="_top" xlink:title=" ">
<polygon fill="white" stroke="black" points="587.5,-252 587.5,-271 673.5,-271 673.5,-252 587.5,-252"/>
<text text-anchor="middle" x="630.5" y="-259" font-family="Helvetica,sans-Serif" font-size="10.00">net/Descriptor.h</text>
</a>
</g>
</g>
<!-- Node3&#45;&gt;Node4 -->
<g id="edge3" class="edge">
<title>Node3&#45;&gt;Node4</title>
<path fill="none" stroke="midnightblue" d="M634.83,-318.73C634.09,-309.18 632.89,-293.62 631.94,-281.28"/>
<polygon fill="midnightblue" stroke="midnightblue" points="635.42,-280.83 631.16,-271.13 628.44,-281.37 635.42,-280.83"/>
</g>
<!-- Node5 -->
<g id="node5" class="node">
<title>Node5</title>
<g id="a_node5"><a xlink:href="system_2_socket_8h.html" target="_top" xlink:title=" ">
<polygon fill="white" stroke="black" points="822.5,-118 822.5,-137 928.5,-137 928.5,-118 822.5,-118"/>
<text text-anchor="middle" x="875.5" y="-125" font-family="Helvetica,sans-Serif" font-size="10.00">net/system/socket.h</text>
</a>
</g>
</g>
<!-- Node3&#45;&gt;Node5 -->
<g id="edge4" class="edge">
<title>Node3&#45;&gt;Node5</title>
<path fill="none" stroke="midnightblue" d="M671.79,-318.96C726.08,-306.05 822.74,-282.47 828.5,-277 847.51,-258.93 864.7,-182.96 871.91,-147.23"/>
<polygon fill="midnightblue" stroke="midnightblue" points="875.39,-147.65 873.89,-137.17 868.53,-146.3 875.39,-147.65"/>
</g>
<!-- Node7 -->
<g id="node7" class="node">
<title>Node7</title>
<g id="a_node7"><a xlink:href="_socket_address_8h.html" target="_top" xlink:title=" ">
<polygon fill="white" stroke="black" points="424.5,-252 424.5,-271 564.5,-271 564.5,-252 424.5,-252"/>
<text text-anchor="middle" x="494.5" y="-259" font-family="Helvetica,sans-Serif" font-size="10.00">net/socket/SocketAddress.h</text>
</a>
</g>
</g>
<!-- Node6&#45;&gt;Node7 -->
<g id="edge6" class="edge">
<title>Node6&#45;&gt;Node7</title>
<path fill="none" stroke="midnightblue" d="M494.5,-313.4C494.5,-304.06 494.5,-291.71 494.5,-281.52"/>
<polygon fill="midnightblue" stroke="midnightblue" points="498,-281.19 494.5,-271.19 491,-281.19 498,-281.19"/>
</g>
<!-- Node9 -->
<g id="node9" class="node">
<title>Node9</title>
<g id="a_node9"><a xlink:href="stream_2_socket_client_8h.html" target="_top" xlink:title=" ">
<polygon fill="white" stroke="black" points="851,-313.5 851,-343.5 980,-343.5 980,-313.5 851,-313.5"/>
<text text-anchor="start" x="859" y="-331.5" font-family="Helvetica,sans-Serif" font-size="10.00">net/socket/stream/Socket</text>
<text text-anchor="middle" x="915.5" y="-320.5" font-family="Helvetica,sans-Serif" font-size="10.00">Client.h</text>
</a>
</g>
</g>
<!-- Node8&#45;&gt;Node9 -->
<g id="edge8" class="edge">
<title>Node8&#45;&gt;Node9</title>
<path fill="none" stroke="midnightblue" d="M801.18,-380.4C822.7,-370.81 851.37,-358.05 874.62,-347.7"/>
<polygon fill="midnightblue" stroke="midnightblue" points="876.17,-350.84 883.88,-343.58 873.32,-344.45 876.17,-350.84"/>
</g>
<!-- Node10 -->
<g id="node10" class="node">
<title>Node10</title>
<g id="a_node10"><a xlink:href="legacy_2_socket_connector_8h.html" target="_top" xlink:title=" ">
<polygon fill="white" stroke="black" points="706,-313.5 706,-343.5 833,-343.5 833,-313.5 706,-313.5"/>
<text text-anchor="start" x="714" y="-331.5" font-family="Helvetica,sans-Serif" font-size="10.00">net/socket/stream/legacy</text>
<text text-anchor="middle" x="769.5" y="-320.5" font-family="Helvetica,sans-Serif" font-size="10.00">/SocketConnector.h</text>
</a>
</g>
</g>
<!-- Node8&#45;&gt;Node10 -->
<g id="edge9" class="edge">
<title>Node8&#45;&gt;Node10</title>
<path fill="none" stroke="midnightblue" d="M769.5,-380.4C769.5,-372.64 769.5,-362.81 769.5,-353.86"/>
<polygon fill="midnightblue" stroke="midnightblue" points="773,-353.58 769.5,-343.58 766,-353.58 773,-353.58"/>
</g>
<!-- Node11 -->
<g id="node11" class="node">
<title>Node11</title>
<g id="a_node11"><a xlink:href="_socket_connector_8h.html" target="_top" xlink:title=" ">
<polygon fill="white" stroke="black" points="876,-179.5 876,-209.5 1005,-209.5 1005,-179.5 876,-179.5"/>
<text text-anchor="start" x="884" y="-197.5" font-family="Helvetica,sans-Serif" font-size="10.00">net/socket/stream/Socket</text>
<text text-anchor="middle" x="940.5" y="-186.5" font-family="Helvetica,sans-Serif" font-size="10.00">Connector.h</text>
</a>
</g>
</g>
<!-- Node10&#45;&gt;Node11 -->
<g id="edge10" class="edge">
<title>Node10&#45;&gt;Node11</title>
<path fill="none" stroke="midnightblue" d="M800.31,-313.49C818.87,-304.36 842.52,-291.47 861.5,-277 884.53,-259.44 907.15,-235.19 922.24,-217.71"/>
<polygon fill="midnightblue" stroke="midnightblue" points="925.21,-219.62 929.02,-209.73 919.88,-215.09 925.21,-219.62"/>
</g>
<!-- Node14 -->
<g id="node14" class="node">
<title>Node14</title>
<g id="a_node14"><a xlink:href="legacy_2_socket_connection_8h.html" target="_top" xlink:title=" ">
<polygon fill="white" stroke="black" points="692,-246.5 692,-276.5 819,-276.5 819,-246.5 692,-246.5"/>
<text text-anchor="start" x="700" y="-264.5" font-family="Helvetica,sans-Serif" font-size="10.00">net/socket/stream/legacy</text>
<text text-anchor="middle" x="755.5" y="-253.5" font-family="Helvetica,sans-Serif" font-size="10.00">/SocketConnection.h</text>
</a>
</g>
</g>
<!-- Node10&#45;&gt;Node14 -->
<g id="edge14" class="edge">
<title>Node10&#45;&gt;Node14</title>
<path fill="none" stroke="midnightblue" d="M766.46,-313.4C764.77,-305.56 762.63,-295.6 760.68,-286.57"/>
<polygon fill="midnightblue" stroke="midnightblue" points="764.06,-285.62 758.53,-276.58 757.22,-287.09 764.06,-285.62"/>
</g>
<!-- Node11&#45;&gt;Node5 -->
<g id="edge13" class="edge">
<title>Node11&#45;&gt;Node5</title>
<path fill="none" stroke="midnightblue" d="M926.4,-179.4C916.06,-169.06 902.02,-155.02 891.31,-144.31"/>
<polygon fill="midnightblue" stroke="midnightblue" points="893.74,-141.79 884.19,-137.19 888.79,-146.74 893.74,-141.79"/>
</g>
<!-- Node12 -->
<g id="node12" class="node">
<title>Node12</title>
<g id="a_node12"><a xlink:href="_connect_event_receiver_8h.html" target="_top" xlink:title=" ">
<polygon fill="white" stroke="black" points="853.5,-56.5 853.5,-75.5 995.5,-75.5 995.5,-56.5 853.5,-56.5"/>
<text text-anchor="middle" x="924.5" y="-63.5" font-family="Helvetica,sans-Serif" font-size="10.00">net/ConnectEventReceiver.h</text>
</a>
</g>
</g>
<!-- Node11&#45;&gt;Node12 -->
<g id="edge11" class="edge">
<title>Node11&#45;&gt;Node12</title>
<path fill="none" stroke="midnightblue" d="M941.02,-179.26C941.38,-162.92 941.24,-135.35 937.5,-112 936.07,-103.07 933.42,-93.4 930.89,-85.32"/>
<polygon fill="midnightblue" stroke="midnightblue" points="934.21,-84.21 927.74,-75.82 927.57,-86.41 934.21,-84.21"/>
</g>
<!-- Node13 -->
<g id="node13" class="node">
<title>Node13</title>
<g id="a_node13"><a xlink:href="_descriptor_event_receiver_8h.html" target="_top" xlink:title=" ">
<polygon fill="white" stroke="black" points="664.5,-0.5 664.5,-19.5 814.5,-19.5 814.5,-0.5 664.5,-0.5"/>
<text text-anchor="middle" x="739.5" y="-7.5" font-family="Helvetica,sans-Serif" font-size="10.00">net/DescriptorEventReceiver.h</text>
</a>
</g>
</g>
<!-- Node12&#45;&gt;Node13 -->
<g id="edge12" class="edge">
<title>Node12&#45;&gt;Node13</title>
<path fill="none" stroke="midnightblue" d="M895.19,-56.44C863.66,-47.24 813.37,-32.56 778.51,-22.39"/>
<polygon fill="midnightblue" stroke="midnightblue" points="779.26,-18.96 768.68,-19.52 777.3,-25.68 779.26,-18.96"/>
</g>
<!-- Node15 -->
<g id="node15" class="node">
<title>Node15</title>
<g id="a_node15"><a xlink:href="_socket_connection_t_8h.html" target="_top" xlink:title=" ">
<polygon fill="white" stroke="black" points="234,-179.5 234,-209.5 363,-209.5 363,-179.5 234,-179.5"/>
<text text-anchor="start" x="242" y="-197.5" font-family="Helvetica,sans-Serif" font-size="10.00">net/socket/stream/Socket</text>
<text text-anchor="middle" x="298.5" y="-186.5" font-family="Helvetica,sans-Serif" font-size="10.00">ConnectionT.h</text>
</a>
</g>
</g>
<!-- Node14&#45;&gt;Node15 -->
<g id="edge15" class="edge">
<title>Node14&#45;&gt;Node15</title>
<path fill="none" stroke="midnightblue" d="M691.84,-247.6C688.69,-247.04 685.56,-246.5 682.5,-246 575.51,-228.36 450.94,-212.9 373.39,-203.88"/>
<polygon fill="midnightblue" stroke="midnightblue" points="373.57,-200.38 363.24,-202.71 372.77,-207.33 373.57,-200.38"/>
</g>
<!-- Node20 -->
<g id="node20" class="node">
<title>Node20</title>
<g id="a_node20"><a xlink:href="legacy_2_socket_reader_8h.html" target="_top" xlink:title=" ">
<polygon fill="white" stroke="black" points="692,-179.5 692,-209.5 819,-209.5 819,-179.5 692,-179.5"/>
<text text-anchor="start" x="700" y="-197.5" font-family="Helvetica,sans-Serif" font-size="10.00">net/socket/stream/legacy</text>
<text text-anchor="middle" x="755.5" y="-186.5" font-family="Helvetica,sans-Serif" font-size="10.00">/SocketReader.h</text>
</a>
</g>
</g>
<!-- Node14&#45;&gt;Node20 -->
<g id="edge20" class="edge">
<title>Node14&#45;&gt;Node20</title>
<path fill="none" stroke="midnightblue" d="M755.5,-246.4C755.5,-238.64 755.5,-228.81 755.5,-219.86"/>
<polygon fill="midnightblue" stroke="midnightblue" points="759,-219.58 755.5,-209.58 752,-219.58 759,-219.58"/>
</g>
<!-- Node23 -->
<g id="node23" class="node">
<title>Node23</title>
<g id="a_node23"><a xlink:href="legacy_2_socket_writer_8h.html" target="_top" xlink:title=" ">
<polygon fill="white" stroke="black" points="547,-179.5 547,-209.5 674,-209.5 674,-179.5 547,-179.5"/>
<text text-anchor="start" x="555" y="-197.5" font-family="Helvetica,sans-Serif" font-size="10.00">net/socket/stream/legacy</text>
<text text-anchor="middle" x="610.5" y="-186.5" font-family="Helvetica,sans-Serif" font-size="10.00">/SocketWriter.h</text>
</a>
</g>
</g>
<!-- Node14&#45;&gt;Node23 -->
<g id="edge25" class="edge">
<title>Node14&#45;&gt;Node23</title>
<path fill="none" stroke="midnightblue" d="M724.04,-246.4C702.66,-236.81 674.19,-224.05 651.1,-213.7"/>
<polygon fill="midnightblue" stroke="midnightblue" points="652.46,-210.47 641.9,-209.58 649.59,-216.86 652.46,-210.47"/>
</g>
<!-- Node16 -->
<g id="node16" class="node">
<title>Node16</title>
<g id="a_node16"><a xlink:href="_logger_8h.html" target="_top" xlink:title=" ">
<polygon fill="white" stroke="black" points="0,-118 0,-137 69,-137 69,-118 0,-118"/>
<text text-anchor="middle" x="34.5" y="-125" font-family="Helvetica,sans-Serif" font-size="10.00">log/Logger.h</text>
</a>
</g>
</g>
<!-- Node15&#45;&gt;Node16 -->
<g id="edge16" class="edge">
<title>Node15&#45;&gt;Node16</title>
<path fill="none" stroke="midnightblue" d="M233.76,-180.5C189.47,-171.17 129.58,-157.69 77.5,-143 74.49,-142.15 71.38,-141.22 68.27,-140.24"/>
<polygon fill="midnightblue" stroke="midnightblue" points="69.07,-136.82 58.47,-137.06 66.9,-143.48 69.07,-136.82"/>
</g>
<!-- Node17 -->
<g id="node17" class="node">
<title>Node17</title>
<g id="a_node17"><a xlink:href="_socket_connection_8h.html" target="_top" xlink:title=" ">
<polygon fill="white" stroke="black" points="87,-112.5 87,-142.5 216,-142.5 216,-112.5 87,-112.5"/>
<text text-anchor="start" x="95" y="-130.5" font-family="Helvetica,sans-Serif" font-size="10.00">net/socket/stream/Socket</text>
<text text-anchor="middle" x="151.5" y="-119.5" font-family="Helvetica,sans-Serif" font-size="10.00">Connection.h</text>
</a>
</g>
</g>
<!-- Node15&#45;&gt;Node17 -->
<g id="edge17" class="edge">
<title>Node15&#45;&gt;Node17</title>
<path fill="none" stroke="midnightblue" d="M266.6,-179.4C244.93,-169.81 216.07,-157.05 192.66,-146.7"/>
<polygon fill="midnightblue" stroke="midnightblue" points="193.9,-143.42 183.33,-142.58 191.06,-149.82 193.9,-143.42"/>
</g>
<!-- Node18 -->
<g id="node18" class="node">
<title>Node18</title>
<g id="a_node18"><a xlink:href="net_2socket_2stream_2_socket_context_8h.html" target="_top" xlink:title=" ">
<polygon fill="white" stroke="black" points="234,-112.5 234,-142.5 363,-142.5 363,-112.5 234,-112.5"/>
<text text-anchor="start" x="242" y="-130.5" font-family="Helvetica,sans-Serif" font-size="10.00">net/socket/stream/Socket</text>
<text text-anchor="middle" x="298.5" y="-119.5" font-family="Helvetica,sans-Serif" font-size="10.00">Context.h</text>
</a>
</g>
</g>
<!-- Node15&#45;&gt;Node18 -->
<g id="edge18" class="edge">
<title>Node15&#45;&gt;Node18</title>
<path fill="none" stroke="midnightblue" d="M298.5,-179.4C298.5,-171.64 298.5,-161.81 298.5,-152.86"/>
<polygon fill="midnightblue" stroke="midnightblue" points="302,-152.58 298.5,-142.58 295,-152.58 302,-152.58"/>
</g>
<!-- Node19 -->
<g id="node19" class="node">
<title>Node19</title>
<g id="a_node19"><a xlink:href="net_2socket_2stream_2_socket_context_factory_8h.html" target="_top" xlink:title=" ">
<polygon fill="white" stroke="black" points="381,-112.5 381,-142.5 510,-142.5 510,-112.5 381,-112.5"/>
<text text-anchor="start" x="389" y="-130.5" font-family="Helvetica,sans-Serif" font-size="10.00">net/socket/stream/Socket</text>
<text text-anchor="middle" x="445.5" y="-119.5" font-family="Helvetica,sans-Serif" font-size="10.00">ContextFactory.h</text>
</a>
</g>
</g>
<!-- Node15&#45;&gt;Node19 -->
<g id="edge19" class="edge">
<title>Node15&#45;&gt;Node19</title>
<path fill="none" stroke="midnightblue" d="M330.4,-179.4C352.07,-169.81 380.93,-157.05 404.34,-146.7"/>
<polygon fill="midnightblue" stroke="midnightblue" points="405.94,-149.82 413.67,-142.58 403.1,-143.42 405.94,-149.82"/>
</g>
<!-- Node20&#45;&gt;Node5 -->
<g id="edge24" class="edge">
<title>Node20&#45;&gt;Node5</title>
<path fill="none" stroke="midnightblue" d="M781.54,-179.4C802.13,-168.24 830.67,-152.78 850.88,-141.83"/>
<polygon fill="midnightblue" stroke="midnightblue" points="852.67,-144.85 859.79,-137.01 849.33,-138.69 852.67,-144.85"/>
</g>
<!-- Node21 -->
<g id="node21" class="node">
<title>Node21</title>
<g id="a_node21"><a xlink:href="_socket_reader_8h.html" target="_top" xlink:title=" ">
<polygon fill="white" stroke="black" points="675,-112.5 675,-142.5 804,-142.5 804,-112.5 675,-112.5"/>
<text text-anchor="start" x="683" y="-130.5" font-family="Helvetica,sans-Serif" font-size="10.00">net/socket/stream/Socket</text>
<text text-anchor="middle" x="739.5" y="-119.5" font-family="Helvetica,sans-Serif" font-size="10.00">Reader.h</text>
</a>
</g>
</g>
<!-- Node20&#45;&gt;Node21 -->
<g id="edge21" class="edge">
<title>Node20&#45;&gt;Node21</title>
<path fill="none" stroke="midnightblue" d="M752.03,-179.4C750.1,-171.56 747.65,-161.6 745.42,-152.57"/>
<polygon fill="midnightblue" stroke="midnightblue" points="748.75,-151.45 742.96,-142.58 741.96,-153.12 748.75,-151.45"/>
</g>
<!-- Node22 -->
<g id="node22" class="node">
<title>Node22</title>
<g id="a_node22"><a xlink:href="_read_event_receiver_8h.html" target="_top" xlink:title=" ">
<polygon fill="white" stroke="black" points="675.5,-56.5 675.5,-75.5 803.5,-75.5 803.5,-56.5 675.5,-56.5"/>
<text text-anchor="middle" x="739.5" y="-63.5" font-family="Helvetica,sans-Serif" font-size="10.00">net/ReadEventReceiver.h</text>
</a>
</g>
</g>
<!-- Node21&#45;&gt;Node22 -->
<g id="edge22" class="edge">
<title>Node21&#45;&gt;Node22</title>
<path fill="none" stroke="midnightblue" d="M739.5,-112.4C739.5,-104.47 739.5,-94.46 739.5,-85.86"/>
<polygon fill="midnightblue" stroke="midnightblue" points="743,-85.66 739.5,-75.66 736,-85.66 743,-85.66"/>
</g>
<!-- Node22&#45;&gt;Node13 -->
<g id="edge23" class="edge">
<title>Node22&#45;&gt;Node13</title>
<path fill="none" stroke="midnightblue" d="M739.5,-56.08C739.5,-49.01 739.5,-38.86 739.5,-29.99"/>
<polygon fill="midnightblue" stroke="midnightblue" points="743,-29.75 739.5,-19.75 736,-29.75 743,-29.75"/>
</g>
<!-- Node23&#45;&gt;Node5 -->
<g id="edge29" class="edge">
<title>Node23&#45;&gt;Node5</title>
<path fill="none" stroke="midnightblue" d="M667.67,-179.48C716.62,-167.47 786.1,-150.43 830.99,-139.42"/>
<polygon fill="midnightblue" stroke="midnightblue" points="831.85,-142.81 840.73,-137.03 830.18,-136.01 831.85,-142.81"/>
</g>
<!-- Node24 -->
<g id="node24" class="node">
<title>Node24</title>
<g id="a_node24"><a xlink:href="_socket_writer_8h.html" target="_top" xlink:title=" ">
<polygon fill="white" stroke="black" points="528,-112.5 528,-142.5 657,-142.5 657,-112.5 528,-112.5"/>
<text text-anchor="start" x="536" y="-130.5" font-family="Helvetica,sans-Serif" font-size="10.00">net/socket/stream/Socket</text>
<text text-anchor="middle" x="592.5" y="-119.5" font-family="Helvetica,sans-Serif" font-size="10.00">Writer.h</text>
</a>
</g>
</g>
<!-- Node23&#45;&gt;Node24 -->
<g id="edge26" class="edge">
<title>Node23&#45;&gt;Node24</title>
<path fill="none" stroke="midnightblue" d="M606.59,-179.4C604.4,-171.47 601.6,-161.38 599.08,-152.27"/>
<polygon fill="midnightblue" stroke="midnightblue" points="602.44,-151.28 596.4,-142.58 595.69,-153.15 602.44,-151.28"/>
</g>
<!-- Node25 -->
<g id="node25" class="node">
<title>Node25</title>
<g id="a_node25"><a xlink:href="_write_event_receiver_8h.html" target="_top" xlink:title=" ">
<polygon fill="white" stroke="black" points="529.5,-56.5 529.5,-75.5 657.5,-75.5 657.5,-56.5 529.5,-56.5"/>
<text text-anchor="middle" x="593.5" y="-63.5" font-family="Helvetica,sans-Serif" font-size="10.00">net/WriteEventReceiver.h</text>
</a>
</g>
</g>
<!-- Node24&#45;&gt;Node25 -->
<g id="edge27" class="edge">
<title>Node24&#45;&gt;Node25</title>
<path fill="none" stroke="midnightblue" d="M592.74,-112.4C592.87,-104.47 593.04,-94.46 593.18,-85.86"/>
<polygon fill="midnightblue" stroke="midnightblue" points="596.69,-85.72 593.35,-75.66 589.69,-85.6 596.69,-85.72"/>
</g>
<!-- Node25&#45;&gt;Node13 -->
<g id="edge28" class="edge">
<title>Node25&#45;&gt;Node13</title>
<path fill="none" stroke="midnightblue" d="M616.63,-56.44C640.98,-47.44 679.51,-33.19 706.92,-23.05"/>
<polygon fill="midnightblue" stroke="midnightblue" points="708.31,-26.27 716.47,-19.52 705.88,-19.7 708.31,-26.27"/>
</g>
</g>
</svg>
