<?xml version="1.0" encoding="UTF-8" standalone="no"?>
<!DOCTYPE svg PUBLIC "-//W3C//DTD SVG 1.1//EN"
 "http://www.w3.org/Graphics/SVG/1.1/DTD/svg11.dtd">
<!-- Generated by graphviz version 2.43.0 (0)
 -->
<!-- Title: net/socket/bluetooth/rfcomm/legacy/SocketServer.h Pages: 1 -->
<svg width="997pt" height="486pt"
 viewBox="0.00 0.00 996.50 486.00" xmlns="http://www.w3.org/2000/svg" xmlns:xlink="http://www.w3.org/1999/xlink">
<g id="graph0" class="graph" transform="scale(1 1) rotate(0) translate(4 482)">
<title>net/socket/bluetooth/rfcomm/legacy/SocketServer.h</title>
<polygon fill="white" stroke="transparent" points="-4,4 -4,-482 992.5,-482 992.5,4 -4,4"/>
<!-- Node1 -->
<g id="node1" class="node">
<title>Node1</title>
<g id="a_node1"><a xlink:title=" ">
<polygon fill="#bfbfbf" stroke="black" points="192,-447.5 192,-477.5 346,-477.5 346,-447.5 192,-447.5"/>
<text text-anchor="start" x="200" y="-465.5" font-family="Helvetica,sans-Serif" font-size="10.00">net/socket/bluetooth</text>
<text text-anchor="middle" x="269" y="-454.5" font-family="Helvetica,sans-Serif" font-size="10.00">/rfcomm/legacy/SocketServer.h</text>
</a>
</g>
</g>
<!-- Node2 -->
<g id="node2" class="node">
<title>Node2</title>
<g id="a_node2"><a xlink:href="socket_2bluetooth_2rfcomm_2_socket_8h.html" target="_top" xlink:title=" ">
<polygon fill="white" stroke="black" points="140.5,-380.5 140.5,-410.5 245.5,-410.5 245.5,-380.5 140.5,-380.5"/>
<text text-anchor="start" x="148.5" y="-398.5" font-family="Helvetica,sans-Serif" font-size="10.00">net/socket/bluetooth</text>
<text text-anchor="middle" x="193" y="-387.5" font-family="Helvetica,sans-Serif" font-size="10.00">/rfcomm/Socket.h</text>
</a>
</g>
</g>
<!-- Node1&#45;&gt;Node2 -->
<g id="edge1" class="edge">
<title>Node1&#45;&gt;Node2</title>
<path fill="none" stroke="midnightblue" d="M252.51,-447.4C242.15,-438.54 228.62,-426.96 217.07,-417.09"/>
<polygon fill="midnightblue" stroke="midnightblue" points="219.33,-414.42 209.46,-410.58 214.78,-419.74 219.33,-414.42"/>
</g>
<!-- Node7 -->
<g id="node7" class="node">
<title>Node7</title>
<g id="a_node7"><a xlink:href="stream_2legacy_2_socket_server_8h.html" target="_top" xlink:title=" ">
<polygon fill="white" stroke="black" points="282.5,-380.5 282.5,-410.5 409.5,-410.5 409.5,-380.5 282.5,-380.5"/>
<text text-anchor="start" x="290.5" y="-398.5" font-family="Helvetica,sans-Serif" font-size="10.00">net/socket/stream/legacy</text>
<text text-anchor="middle" x="346" y="-387.5" font-family="Helvetica,sans-Serif" font-size="10.00">/SocketServer.h</text>
</a>
</g>
</g>
<!-- Node1&#45;&gt;Node7 -->
<g id="edge6" class="edge">
<title>Node1&#45;&gt;Node7</title>
<path fill="none" stroke="midnightblue" d="M285.71,-447.4C296.2,-438.54 309.92,-426.96 321.61,-417.09"/>
<polygon fill="midnightblue" stroke="midnightblue" points="323.94,-419.7 329.32,-410.58 319.43,-414.35 323.94,-419.7"/>
</g>
<!-- Node3 -->
<g id="node3" class="node">
<title>Node3</title>
<g id="a_node3"><a xlink:href="socket_2_socket_8h.html" target="_top" xlink:title=" ">
<polygon fill="white" stroke="black" points="0,-319 0,-338 104,-338 104,-319 0,-319"/>
<text text-anchor="middle" x="52" y="-326" font-family="Helvetica,sans-Serif" font-size="10.00">net/socket/Socket.h</text>
</a>
</g>
</g>
<!-- Node2&#45;&gt;Node3 -->
<g id="edge2" class="edge">
<title>Node2&#45;&gt;Node3</title>
<path fill="none" stroke="midnightblue" d="M162.41,-380.4C137.77,-369.04 103.45,-353.22 79.64,-342.24"/>
<polygon fill="midnightblue" stroke="midnightblue" points="81,-339.02 70.45,-338.01 78.07,-345.37 81,-339.02"/>
</g>
<!-- Node5 -->
<g id="node5" class="node">
<title>Node5</title>
<g id="a_node5"><a xlink:href="_rf_comm_address_8h.html" target="_top" xlink:title=" ">
<polygon fill="white" stroke="black" points="122.5,-313.5 122.5,-343.5 263.5,-343.5 263.5,-313.5 122.5,-313.5"/>
<text text-anchor="start" x="130.5" y="-331.5" font-family="Helvetica,sans-Serif" font-size="10.00">net/socket/bluetooth</text>
<text text-anchor="middle" x="193" y="-320.5" font-family="Helvetica,sans-Serif" font-size="10.00">/address/RfCommAddress.h</text>
</a>
</g>
</g>
<!-- Node2&#45;&gt;Node5 -->
<g id="edge4" class="edge">
<title>Node2&#45;&gt;Node5</title>
<path fill="none" stroke="midnightblue" d="M193,-380.4C193,-372.64 193,-362.81 193,-353.86"/>
<polygon fill="midnightblue" stroke="midnightblue" points="196.5,-353.58 193,-343.58 189.5,-353.58 196.5,-353.58"/>
</g>
<!-- Node4 -->
<g id="node4" class="node">
<title>Node4</title>
<g id="a_node4"><a xlink:href="_descriptor_8h.html" target="_top" xlink:title=" ">
<polygon fill="white" stroke="black" points="9,-252 9,-271 95,-271 95,-252 9,-252"/>
<text text-anchor="middle" x="52" y="-259" font-family="Helvetica,sans-Serif" font-size="10.00">net/Descriptor.h</text>
</a>
</g>
</g>
<!-- Node3&#45;&gt;Node4 -->
<g id="edge3" class="edge">
<title>Node3&#45;&gt;Node4</title>
<path fill="none" stroke="midnightblue" d="M52,-318.73C52,-309.18 52,-293.62 52,-281.28"/>
<polygon fill="midnightblue" stroke="midnightblue" points="55.5,-281.13 52,-271.13 48.5,-281.13 55.5,-281.13"/>
</g>
<!-- Node6 -->
<g id="node6" class="node">
<title>Node6</title>
<g id="a_node6"><a xlink:href="_socket_address_8h.html" target="_top" xlink:title=" ">
<polygon fill="white" stroke="black" points="123,-252 123,-271 263,-271 263,-252 123,-252"/>
<text text-anchor="middle" x="193" y="-259" font-family="Helvetica,sans-Serif" font-size="10.00">net/socket/SocketAddress.h</text>
</a>
</g>
</g>
<!-- Node5&#45;&gt;Node6 -->
<g id="edge5" class="edge">
<title>Node5&#45;&gt;Node6</title>
<path fill="none" stroke="midnightblue" d="M193,-313.4C193,-304.06 193,-291.71 193,-281.52"/>
<polygon fill="midnightblue" stroke="midnightblue" points="196.5,-281.19 193,-271.19 189.5,-281.19 196.5,-281.19"/>
</g>
<!-- Node8 -->
<g id="node8" class="node">
<title>Node8</title>
<g id="a_node8"><a xlink:href="stream_2_socket_server_8h.html" target="_top" xlink:title=" ">
<polygon fill="white" stroke="black" points="281.5,-313.5 281.5,-343.5 410.5,-343.5 410.5,-313.5 281.5,-313.5"/>
<text text-anchor="start" x="289.5" y="-331.5" font-family="Helvetica,sans-Serif" font-size="10.00">net/socket/stream/Socket</text>
<text text-anchor="middle" x="346" y="-320.5" font-family="Helvetica,sans-Serif" font-size="10.00">Server.h</text>
</a>
</g>
</g>
<!-- Node7&#45;&gt;Node8 -->
<g id="edge7" class="edge">
<title>Node7&#45;&gt;Node8</title>
<path fill="none" stroke="midnightblue" d="M346,-380.4C346,-372.64 346,-362.81 346,-353.86"/>
<polygon fill="midnightblue" stroke="midnightblue" points="349.5,-353.58 346,-343.58 342.5,-353.58 349.5,-353.58"/>
</g>
<!-- Node9 -->
<g id="node9" class="node">
<title>Node9</title>
<g id="a_node9"><a xlink:href="legacy_2_socket_listener_8h.html" target="_top" xlink:title=" ">
<polygon fill="white" stroke="black" points="428.5,-313.5 428.5,-343.5 555.5,-343.5 555.5,-313.5 428.5,-313.5"/>
<text text-anchor="start" x="436.5" y="-331.5" font-family="Helvetica,sans-Serif" font-size="10.00">net/socket/stream/legacy</text>
<text text-anchor="middle" x="492" y="-320.5" font-family="Helvetica,sans-Serif" font-size="10.00">/SocketListener.h</text>
</a>
</g>
</g>
<!-- Node7&#45;&gt;Node9 -->
<g id="edge8" class="edge">
<title>Node7&#45;&gt;Node9</title>
<path fill="none" stroke="midnightblue" d="M377.68,-380.4C399.2,-370.81 427.87,-358.05 451.12,-347.7"/>
<polygon fill="midnightblue" stroke="midnightblue" points="452.67,-350.84 460.38,-343.58 449.82,-344.45 452.67,-350.84"/>
</g>
<!-- Node10 -->
<g id="node10" class="node">
<title>Node10</title>
<g id="a_node10"><a xlink:href="_socket_listener_8h.html" target="_top" xlink:title=" ">
<polygon fill="white" stroke="black" points="281.5,-246.5 281.5,-276.5 410.5,-276.5 410.5,-246.5 281.5,-246.5"/>
<text text-anchor="start" x="289.5" y="-264.5" font-family="Helvetica,sans-Serif" font-size="10.00">net/socket/stream/Socket</text>
<text text-anchor="middle" x="346" y="-253.5" font-family="Helvetica,sans-Serif" font-size="10.00">Listener.h</text>
</a>
</g>
</g>
<!-- Node9&#45;&gt;Node10 -->
<g id="edge9" class="edge">
<title>Node9&#45;&gt;Node10</title>
<path fill="none" stroke="midnightblue" d="M460.32,-313.4C438.8,-303.81 410.13,-291.05 386.88,-280.7"/>
<polygon fill="midnightblue" stroke="midnightblue" points="388.18,-277.45 377.62,-276.58 385.33,-283.84 388.18,-277.45"/>
</g>
<!-- Node13 -->
<g id="node13" class="node">
<title>Node13</title>
<g id="a_node13"><a xlink:href="legacy_2_socket_connection_8h.html" target="_top" xlink:title=" ">
<polygon fill="white" stroke="black" points="511.5,-246.5 511.5,-276.5 638.5,-276.5 638.5,-246.5 511.5,-246.5"/>
<text text-anchor="start" x="519.5" y="-264.5" font-family="Helvetica,sans-Serif" font-size="10.00">net/socket/stream/legacy</text>
<text text-anchor="middle" x="575" y="-253.5" font-family="Helvetica,sans-Serif" font-size="10.00">/SocketConnection.h</text>
</a>
</g>
</g>
<!-- Node9&#45;&gt;Node13 -->
<g id="edge12" class="edge">
<title>Node9&#45;&gt;Node13</title>
<path fill="none" stroke="midnightblue" d="M510.01,-313.4C521.43,-304.45 536.39,-292.74 549.08,-282.8"/>
<polygon fill="midnightblue" stroke="midnightblue" points="551.31,-285.5 557.03,-276.58 546.99,-279.99 551.31,-285.5"/>
</g>
<!-- Node11 -->
<g id="node11" class="node">
<title>Node11</title>
<g id="a_node11"><a xlink:href="_accept_event_receiver_8h.html" target="_top" xlink:title=" ">
<polygon fill="white" stroke="black" points="367,-56.5 367,-75.5 503,-75.5 503,-56.5 367,-56.5"/>
<text text-anchor="middle" x="435" y="-63.5" font-family="Helvetica,sans-Serif" font-size="10.00">net/AcceptEventReceiver.h</text>
</a>
</g>
</g>
<!-- Node10&#45;&gt;Node11 -->
<g id="edge10" class="edge">
<title>Node10&#45;&gt;Node11</title>
<path fill="none" stroke="midnightblue" d="M327.16,-246.38C292.87,-218.98 226.94,-157.34 262,-112 274.41,-95.95 319.25,-84.56 360.17,-77.25"/>
<polygon fill="midnightblue" stroke="midnightblue" points="360.93,-80.67 370.19,-75.53 359.75,-73.78 360.93,-80.67"/>
</g>
<!-- Node12 -->
<g id="node12" class="node">
<title>Node12</title>
<g id="a_node12"><a xlink:href="_event_receiver_8h.html" target="_top" xlink:title=" ">
<polygon fill="white" stroke="black" points="724.5,-0.5 724.5,-19.5 829.5,-19.5 829.5,-0.5 724.5,-0.5"/>
<text text-anchor="middle" x="777" y="-7.5" font-family="Helvetica,sans-Serif" font-size="10.00">net/EventReceiver.h</text>
</a>
</g>
</g>
<!-- Node11&#45;&gt;Node12 -->
<g id="edge11" class="edge">
<title>Node11&#45;&gt;Node12</title>
<path fill="none" stroke="midnightblue" d="M489.19,-56.44C550.42,-46.78 649.94,-31.06 714.43,-20.88"/>
<polygon fill="midnightblue" stroke="midnightblue" points="715.13,-24.31 724.47,-19.29 714.04,-17.4 715.13,-24.31"/>
</g>
<!-- Node14 -->
<g id="node14" class="node">
<title>Node14</title>
<g id="a_node14"><a xlink:href="_socket_connection_t_8h.html" target="_top" xlink:title=" ">
<polygon fill="white" stroke="black" points="437.5,-179.5 437.5,-209.5 566.5,-209.5 566.5,-179.5 437.5,-179.5"/>
<text text-anchor="start" x="445.5" y="-197.5" font-family="Helvetica,sans-Serif" font-size="10.00">net/socket/stream/Socket</text>
<text text-anchor="middle" x="502" y="-186.5" font-family="Helvetica,sans-Serif" font-size="10.00">ConnectionT.h</text>
</a>
</g>
</g>
<!-- Node13&#45;&gt;Node14 -->
<g id="edge13" class="edge">
<title>Node13&#45;&gt;Node14</title>
<path fill="none" stroke="midnightblue" d="M559.16,-246.4C549.31,-237.62 536.46,-226.18 525.44,-216.37"/>
<polygon fill="midnightblue" stroke="midnightblue" points="527.6,-213.61 517.81,-209.58 522.95,-218.84 527.6,-213.61"/>
</g>
<!-- Node18 -->
<g id="node18" class="node">
<title>Node18</title>
<g id="a_node18"><a xlink:href="legacy_2_socket_reader_8h.html" target="_top" xlink:title=" ">
<polygon fill="white" stroke="black" points="658.5,-179.5 658.5,-209.5 785.5,-209.5 785.5,-179.5 658.5,-179.5"/>
<text text-anchor="start" x="666.5" y="-197.5" font-family="Helvetica,sans-Serif" font-size="10.00">net/socket/stream/legacy</text>
<text text-anchor="middle" x="722" y="-186.5" font-family="Helvetica,sans-Serif" font-size="10.00">/SocketReader.h</text>
</a>
</g>
</g>
<!-- Node13&#45;&gt;Node18 -->
<g id="edge17" class="edge">
<title>Node13&#45;&gt;Node18</title>
<path fill="none" stroke="midnightblue" d="M606.9,-246.4C628.57,-236.81 657.43,-224.05 680.84,-213.7"/>
<polygon fill="midnightblue" stroke="midnightblue" points="682.44,-216.82 690.17,-209.58 679.6,-210.42 682.44,-216.82"/>
</g>
<!-- Node21 -->
<g id="node21" class="node">
<title>Node21</title>
<g id="a_node21"><a xlink:href="legacy_2_socket_writer_8h.html" target="_top" xlink:title=" ">
<polygon fill="white" stroke="black" points="841.5,-179.5 841.5,-209.5 968.5,-209.5 968.5,-179.5 841.5,-179.5"/>
<text text-anchor="start" x="849.5" y="-197.5" font-family="Helvetica,sans-Serif" font-size="10.00">net/socket/stream/legacy</text>
<text text-anchor="middle" x="905" y="-186.5" font-family="Helvetica,sans-Serif" font-size="10.00">/SocketWriter.h</text>
</a>
</g>
</g>
<!-- Node13&#45;&gt;Node21 -->
<g id="edge21" class="edge">
<title>Node13&#45;&gt;Node21</title>
<path fill="none" stroke="midnightblue" d="M638.63,-247.97C693.78,-237.1 773.6,-221.38 831.47,-209.98"/>
<polygon fill="midnightblue" stroke="midnightblue" points="832.15,-213.42 841.29,-208.05 830.8,-206.55 832.15,-213.42"/>
</g>
<!-- Node15 -->
<g id="node15" class="node">
<title>Node15</title>
<g id="a_node15"><a xlink:href="_socket_connection_8h.html" target="_top" xlink:title=" ">
<polygon fill="white" stroke="black" points="271.5,-112.5 271.5,-142.5 400.5,-142.5 400.5,-112.5 271.5,-112.5"/>
<text text-anchor="start" x="279.5" y="-130.5" font-family="Helvetica,sans-Serif" font-size="10.00">net/socket/stream/Socket</text>
<text text-anchor="middle" x="336" y="-119.5" font-family="Helvetica,sans-Serif" font-size="10.00">Connection.h</text>
</a>
</g>
</g>
<!-- Node14&#45;&gt;Node15 -->
<g id="edge14" class="edge">
<title>Node14&#45;&gt;Node15</title>
<path fill="none" stroke="midnightblue" d="M465.98,-179.4C441.18,-169.69 408.04,-156.71 381.43,-146.29"/>
<polygon fill="midnightblue" stroke="midnightblue" points="382.54,-142.96 371.95,-142.58 379.98,-149.48 382.54,-142.96"/>
</g>
<!-- Node16 -->
<g id="node16" class="node">
<title>Node16</title>
<g id="a_node16"><a xlink:href="net_2socket_2stream_2_socket_context_8h.html" target="_top" xlink:title=" ">
<polygon fill="white" stroke="black" points="418.5,-112.5 418.5,-142.5 547.5,-142.5 547.5,-112.5 418.5,-112.5"/>
<text text-anchor="start" x="426.5" y="-130.5" font-family="Helvetica,sans-Serif" font-size="10.00">net/socket/stream/Socket</text>
<text text-anchor="middle" x="483" y="-119.5" font-family="Helvetica,sans-Serif" font-size="10.00">Context.h</text>
</a>
</g>
</g>
<!-- Node14&#45;&gt;Node16 -->
<g id="edge15" class="edge">
<title>Node14&#45;&gt;Node16</title>
<path fill="none" stroke="midnightblue" d="M497.88,-179.4C495.56,-171.47 492.61,-161.38 489.95,-152.27"/>
<polygon fill="midnightblue" stroke="midnightblue" points="493.28,-151.19 487.11,-142.58 486.56,-153.16 493.28,-151.19"/>
</g>
<!-- Node17 -->
<g id="node17" class="node">
<title>Node17</title>
<g id="a_node17"><a xlink:href="net_2socket_2stream_2_socket_context_factory_8h.html" target="_top" xlink:title=" ">
<polygon fill="white" stroke="black" points="565.5,-112.5 565.5,-142.5 694.5,-142.5 694.5,-112.5 565.5,-112.5"/>
<text text-anchor="start" x="573.5" y="-130.5" font-family="Helvetica,sans-Serif" font-size="10.00">net/socket/stream/Socket</text>
<text text-anchor="middle" x="630" y="-119.5" font-family="Helvetica,sans-Serif" font-size="10.00">ContextFactory.h</text>
</a>
</g>
</g>
<!-- Node14&#45;&gt;Node17 -->
<g id="edge16" class="edge">
<title>Node14&#45;&gt;Node17</title>
<path fill="none" stroke="midnightblue" d="M529.77,-179.4C548.39,-169.94 573.11,-157.39 593.34,-147.12"/>
<polygon fill="midnightblue" stroke="midnightblue" points="594.95,-150.23 602.28,-142.58 591.78,-143.98 594.95,-150.23"/>
</g>
<!-- Node19 -->
<g id="node19" class="node">
<title>Node19</title>
<g id="a_node19"><a xlink:href="_socket_reader_8h.html" target="_top" xlink:title=" ">
<polygon fill="white" stroke="black" points="712.5,-112.5 712.5,-142.5 841.5,-142.5 841.5,-112.5 712.5,-112.5"/>
<text text-anchor="start" x="720.5" y="-130.5" font-family="Helvetica,sans-Serif" font-size="10.00">net/socket/stream/Socket</text>
<text text-anchor="middle" x="777" y="-119.5" font-family="Helvetica,sans-Serif" font-size="10.00">Reader.h</text>
</a>
</g>
</g>
<!-- Node18&#45;&gt;Node19 -->
<g id="edge18" class="edge">
<title>Node18&#45;&gt;Node19</title>
<path fill="none" stroke="midnightblue" d="M733.93,-179.4C741.14,-170.88 750.48,-159.85 758.61,-150.23"/>
<polygon fill="midnightblue" stroke="midnightblue" points="761.3,-152.47 765.09,-142.58 755.96,-147.95 761.3,-152.47"/>
</g>
<!-- Node20 -->
<g id="node20" class="node">
<title>Node20</title>
<g id="a_node20"><a xlink:href="_read_event_receiver_8h.html" target="_top" xlink:title=" ">
<polygon fill="white" stroke="black" points="713,-56.5 713,-75.5 841,-75.5 841,-56.5 713,-56.5"/>
<text text-anchor="middle" x="777" y="-63.5" font-family="Helvetica,sans-Serif" font-size="10.00">net/ReadEventReceiver.h</text>
</a>
</g>
</g>
<!-- Node19&#45;&gt;Node20 -->
<g id="edge19" class="edge">
<title>Node19&#45;&gt;Node20</title>
<path fill="none" stroke="midnightblue" d="M777,-112.4C777,-104.47 777,-94.46 777,-85.86"/>
<polygon fill="midnightblue" stroke="midnightblue" points="780.5,-85.66 777,-75.66 773.5,-85.66 780.5,-85.66"/>
</g>
<!-- Node20&#45;&gt;Node12 -->
<g id="edge20" class="edge">
<title>Node20&#45;&gt;Node12</title>
<path fill="none" stroke="midnightblue" d="M777,-56.08C777,-49.01 777,-38.86 777,-29.99"/>
<polygon fill="midnightblue" stroke="midnightblue" points="780.5,-29.75 777,-19.75 773.5,-29.75 780.5,-29.75"/>
</g>
<!-- Node22 -->
<g id="node22" class="node">
<title>Node22</title>
<g id="a_node22"><a xlink:href="_socket_writer_8h.html" target="_top" xlink:title=" ">
<polygon fill="white" stroke="black" points="859.5,-112.5 859.5,-142.5 988.5,-142.5 988.5,-112.5 859.5,-112.5"/>
<text text-anchor="start" x="867.5" y="-130.5" font-family="Helvetica,sans-Serif" font-size="10.00">net/socket/stream/Socket</text>
<text text-anchor="middle" x="924" y="-119.5" font-family="Helvetica,sans-Serif" font-size="10.00">Writer.h</text>
</a>
</g>
</g>
<!-- Node21&#45;&gt;Node22 -->
<g id="edge22" class="edge">
<title>Node21&#45;&gt;Node22</title>
<path fill="none" stroke="midnightblue" d="M909.12,-179.4C911.44,-171.47 914.39,-161.38 917.05,-152.27"/>
<polygon fill="midnightblue" stroke="midnightblue" points="920.44,-153.16 919.89,-142.58 913.72,-151.19 920.44,-153.16"/>
</g>
<!-- Node23 -->
<g id="node23" class="node">
<title>Node23</title>
<g id="a_node23"><a xlink:href="_write_event_receiver_8h.html" target="_top" xlink:title=" ">
<polygon fill="white" stroke="black" points="859,-56.5 859,-75.5 987,-75.5 987,-56.5 859,-56.5"/>
<text text-anchor="middle" x="923" y="-63.5" font-family="Helvetica,sans-Serif" font-size="10.00">net/WriteEventReceiver.h</text>
</a>
</g>
</g>
<!-- Node22&#45;&gt;Node23 -->
<g id="edge23" class="edge">
<title>Node22&#45;&gt;Node23</title>
<path fill="none" stroke="midnightblue" d="M923.76,-112.4C923.63,-104.47 923.46,-94.46 923.32,-85.86"/>
<polygon fill="midnightblue" stroke="midnightblue" points="926.81,-85.6 923.15,-75.66 919.81,-85.72 926.81,-85.6"/>
</g>
<!-- Node23&#45;&gt;Node12 -->
<g id="edge24" class="edge">
<title>Node23&#45;&gt;Node12</title>
<path fill="none" stroke="midnightblue" d="M899.87,-56.44C875.52,-47.44 836.99,-33.19 809.58,-23.05"/>
<polygon fill="midnightblue" stroke="midnightblue" points="810.62,-19.7 800.03,-19.52 808.19,-26.27 810.62,-19.7"/>
</g>
</g>
</svg>
