<?xml version="1.0" encoding="UTF-8" standalone="no"?>
<!DOCTYPE svg PUBLIC "-//W3C//DTD SVG 1.1//EN"
 "http://www.w3.org/Graphics/SVG/1.1/DTD/svg11.dtd">
<!-- Generated by graphviz version 2.43.0 (0)
 -->
<!-- Title: web::http::server::Response::send Pages: 1 -->
<svg width="842pt" height="280pt"
 viewBox="0.00 0.00 842.00 279.50" xmlns="http://www.w3.org/2000/svg" xmlns:xlink="http://www.w3.org/1999/xlink">
<g id="graph0" class="graph" transform="scale(1 1) rotate(0) translate(4 275.5)">
<title>web::http::server::Response::send</title>
<polygon fill="white" stroke="transparent" points="-4,4 -4,-275.5 838,-275.5 838,4 -4,4"/>
<!-- Node1 -->
<g id="node1" class="node">
<title>Node1</title>
<g id="a_node1"><a xlink:title=" ">
<polygon fill="#bfbfbf" stroke="black" points="0,-0.5 0,-30.5 96,-30.5 96,-0.5 0,-0.5"/>
<text text-anchor="start" x="8" y="-18.5" font-family="Helvetica,sans-Serif" font-size="10.00">web::http::server::</text>
<text text-anchor="middle" x="48" y="-7.5" font-family="Helvetica,sans-Serif" font-size="10.00">Response::send</text>
</a>
</g>
</g>
<!-- Node2 -->
<g id="node2" class="node">
<title>Node2</title>
<g id="a_node2"><a xlink:href="classweb_1_1http_1_1server_1_1_response.html#ad13e93ee083ee9e780a4478a86fdefec" target="_top" xlink:title=" ">
<polygon fill="white" stroke="black" points="132,-22.5 132,-52.5 228,-52.5 228,-22.5 132,-22.5"/>
<text text-anchor="start" x="140" y="-40.5" font-family="Helvetica,sans-Serif" font-size="10.00">web::http::server::</text>
<text text-anchor="middle" x="180" y="-29.5" font-family="Helvetica,sans-Serif" font-size="10.00">Response::send</text>
</a>
</g>
</g>
<!-- Node1&#45;&gt;Node2 -->
<g id="edge1" class="edge">
<title>Node1&#45;&gt;Node2</title>
<path fill="none" stroke="midnightblue" d="M96.3,-23.5C104.65,-24.92 113.42,-26.4 122,-27.85"/>
<polygon fill="midnightblue" stroke="midnightblue" points="121.51,-31.32 131.95,-29.54 122.68,-24.42 121.51,-31.32"/>
</g>
<!-- Node10 -->
<g id="node10" class="node">
<title>Node10</title>
<g id="a_node10"><a xlink:href="classweb_1_1http_1_1server_1_1_response.html#a82301ce94e8418a2d0b9bc052207a178" target="_top" xlink:title=" ">
<polygon fill="white" stroke="black" points="577.5,-16.5 577.5,-46.5 673.5,-46.5 673.5,-16.5 577.5,-16.5"/>
<text text-anchor="start" x="585.5" y="-34.5" font-family="Helvetica,sans-Serif" font-size="10.00">web::http::server::</text>
<text text-anchor="middle" x="625.5" y="-23.5" font-family="Helvetica,sans-Serif" font-size="10.00">Response::set</text>
</a>
</g>
</g>
<!-- Node1&#45;&gt;Node10 -->
<g id="edge16" class="edge">
<title>Node1&#45;&gt;Node10</title>
<path fill="none" stroke="midnightblue" d="M96.4,-14.16C108.04,-13.89 120.47,-13.64 132,-13.5 174.66,-12.99 185.34,-12.53 228,-13.5 348.57,-16.24 489.6,-23.64 566.77,-28.06"/>
<polygon fill="midnightblue" stroke="midnightblue" points="567.04,-31.58 577.22,-28.66 567.44,-24.59 567.04,-31.58"/>
</g>
<!-- Node3 -->
<g id="node3" class="node">
<title>Node3</title>
<g id="a_node3"><a xlink:href="classweb_1_1http_1_1server_1_1_response.html#a6bdff1ff4fb13a952df7bfefd0b87667" target="_top" xlink:title=" ">
<polygon fill="white" stroke="black" points="264,-152.5 264,-182.5 368,-182.5 368,-152.5 264,-152.5"/>
<text text-anchor="start" x="272" y="-170.5" font-family="Helvetica,sans-Serif" font-size="10.00">web::http::server::</text>
<text text-anchor="middle" x="316" y="-159.5" font-family="Helvetica,sans-Serif" font-size="10.00">Response::enqueue</text>
</a>
</g>
</g>
<!-- Node2&#45;&gt;Node3 -->
<g id="edge2" class="edge">
<title>Node2&#45;&gt;Node3</title>
<path fill="none" stroke="midnightblue" d="M196.63,-52.67C220.13,-75.47 264.71,-118.71 291.94,-145.13"/>
<polygon fill="midnightblue" stroke="midnightblue" points="289.85,-147.98 299.47,-152.43 294.73,-142.95 289.85,-147.98"/>
</g>
<!-- Node2&#45;&gt;Node10 -->
<g id="edge15" class="edge">
<title>Node2&#45;&gt;Node10</title>
<path fill="none" stroke="midnightblue" d="M228.04,-36.86C309.96,-35.76 478.5,-33.48 567.13,-32.28"/>
<polygon fill="midnightblue" stroke="midnightblue" points="567.32,-35.77 577.27,-32.14 567.23,-28.77 567.32,-35.77"/>
</g>
<!-- Node4 -->
<g id="node4" class="node">
<title>Node4</title>
<g id="a_node4"><a xlink:href="classweb_1_1http_1_1server_1_1_h_t_t_p_server_context_base.html#ac7ffe34f726c39920f3e82493e2be32a" target="_top" xlink:title=" ">
<polygon fill="white" stroke="black" points="404,-230 404,-271 532,-271 532,-230 404,-230"/>
<text text-anchor="start" x="412" y="-259" font-family="Helvetica,sans-Serif" font-size="10.00">web::http::server::</text>
<text text-anchor="start" x="412" y="-248" font-family="Helvetica,sans-Serif" font-size="10.00">HTTPServerContextBase</text>
<text text-anchor="middle" x="468" y="-237" font-family="Helvetica,sans-Serif" font-size="10.00">::responseCompleted</text>
</a>
</g>
</g>
<!-- Node3&#45;&gt;Node4 -->
<g id="edge3" class="edge">
<title>Node3&#45;&gt;Node4</title>
<path fill="none" stroke="midnightblue" d="M340.25,-182.56C357.56,-193.55 381.91,-208.55 404,-220.5 407.02,-222.13 410.15,-223.77 413.32,-225.4"/>
<polygon fill="midnightblue" stroke="midnightblue" points="411.81,-228.56 422.31,-229.92 414.95,-222.3 411.81,-228.56"/>
</g>
<!-- Node5 -->
<g id="node5" class="node">
<title>Node5</title>
<g id="a_node5"><a xlink:href="classweb_1_1http_1_1server_1_1_response.html#a4fae387fd1d11b86260f4572bfebfce2" target="_top" xlink:title=" ">
<polygon fill="white" stroke="black" points="408.5,-180.5 408.5,-210.5 527.5,-210.5 527.5,-180.5 408.5,-180.5"/>
<text text-anchor="start" x="416.5" y="-198.5" font-family="Helvetica,sans-Serif" font-size="10.00">web::http::server::</text>
<text text-anchor="middle" x="468" y="-187.5" font-family="Helvetica,sans-Serif" font-size="10.00">Response::sendHeader</text>
</a>
</g>
</g>
<!-- Node3&#45;&gt;Node5 -->
<g id="edge4" class="edge">
<title>Node3&#45;&gt;Node5</title>
<path fill="none" stroke="midnightblue" d="M368.2,-170.62C381.72,-172.78 396.4,-175.47 410.2,-178.33"/>
<polygon fill="midnightblue" stroke="midnightblue" points="409.55,-181.77 420.06,-180.43 411.01,-174.92 409.55,-181.77"/>
</g>
<!-- Node13 -->
<g id="node13" class="node">
<title>Node13</title>
<g id="a_node13"><a xlink:href="classweb_1_1http_1_1server_1_1_h_t_t_p_server_context_base.html#ad0a467534cbc842bb17fcd7a9bf3837c" target="_top" xlink:title=" ">
<polygon fill="white" stroke="black" points="404,-120 404,-161 532,-161 532,-120 404,-120"/>
<text text-anchor="start" x="412" y="-149" font-family="Helvetica,sans-Serif" font-size="10.00">web::http::server::</text>
<text text-anchor="start" x="412" y="-138" font-family="Helvetica,sans-Serif" font-size="10.00">HTTPServerContextBase</text>
<text text-anchor="middle" x="468" y="-127" font-family="Helvetica,sans-Serif" font-size="10.00">::sendResponseData</text>
</a>
</g>
</g>
<!-- Node3&#45;&gt;Node13 -->
<g id="edge13" class="edge">
<title>Node3&#45;&gt;Node13</title>
<path fill="none" stroke="midnightblue" d="M368.2,-158.28C376.44,-156.8 385.1,-155.24 393.73,-153.69"/>
<polygon fill="midnightblue" stroke="midnightblue" points="394.6,-157.09 403.82,-151.87 393.36,-150.2 394.6,-157.09"/>
</g>
<!-- Node14 -->
<g id="node14" class="node">
<title>Node14</title>
<g id="a_node14"><a xlink:href="classweb_1_1http_1_1server_1_1_h_t_t_p_server_context_base.html#a154e94e54b84409f8a1f52a9ab50ae75" target="_top" xlink:title=" ">
<polygon fill="white" stroke="black" points="404,-60 404,-101 532,-101 532,-60 404,-60"/>
<text text-anchor="start" x="412" y="-89" font-family="Helvetica,sans-Serif" font-size="10.00">web::http::server::</text>
<text text-anchor="start" x="412" y="-78" font-family="Helvetica,sans-Serif" font-size="10.00">HTTPServerContextBase</text>
<text text-anchor="middle" x="468" y="-67" font-family="Helvetica,sans-Serif" font-size="10.00">::terminateConnection</text>
</a>
</g>
</g>
<!-- Node3&#45;&gt;Node14 -->
<g id="edge14" class="edge">
<title>Node3&#45;&gt;Node14</title>
<path fill="none" stroke="midnightblue" d="M338.3,-152.37C355.61,-140.37 380.86,-123.51 404,-110.5 406.85,-108.9 409.8,-107.3 412.8,-105.72"/>
<polygon fill="midnightblue" stroke="midnightblue" points="414.57,-108.74 421.88,-101.07 411.38,-102.51 414.57,-108.74"/>
</g>
<!-- Node5&#45;&gt;Node3 -->
<g id="edge7" class="edge">
<title>Node5&#45;&gt;Node3</title>
<path fill="none" stroke="midnightblue" d="M408.48,-191.18C396.98,-189.24 384.93,-186.98 373.5,-184.61"/>
<polygon fill="midnightblue" stroke="midnightblue" points="374.15,-181.17 363.64,-182.51 372.69,-188.02 374.15,-181.17"/>
</g>
<!-- Node6 -->
<g id="node6" class="node">
<title>Node6</title>
<g id="a_node6"><a xlink:href="classweb_1_1http_1_1server_1_1_response.html#aa9a6f2cbf1a4f186db94f9a2d5d6da08" target="_top" xlink:title=" ">
<polygon fill="white" stroke="black" points="577.5,-229.5 577.5,-259.5 673.5,-259.5 673.5,-229.5 577.5,-229.5"/>
<text text-anchor="start" x="585.5" y="-247.5" font-family="Helvetica,sans-Serif" font-size="10.00">web::http::server::</text>
<text text-anchor="middle" x="625.5" y="-236.5" font-family="Helvetica,sans-Serif" font-size="10.00">Response::cookie</text>
</a>
</g>
</g>
<!-- Node5&#45;&gt;Node6 -->
<g id="edge5" class="edge">
<title>Node5&#45;&gt;Node6</title>
<path fill="none" stroke="midnightblue" d="M516.92,-210.6C532.96,-215.66 551,-221.34 567.65,-226.59"/>
<polygon fill="midnightblue" stroke="midnightblue" points="566.68,-229.95 577.27,-229.62 568.78,-223.27 566.68,-229.95"/>
</g>
<!-- Node8 -->
<g id="node8" class="node">
<title>Node8</title>
<g id="a_node8"><a xlink:href="classweb_1_1http_1_1_status_code.html#ad3c635f1cb778cdb4a2e23332ebda277" target="_top" xlink:title=" ">
<polygon fill="white" stroke="black" points="568,-180.5 568,-210.5 683,-210.5 683,-180.5 568,-180.5"/>
<text text-anchor="start" x="576" y="-198.5" font-family="Helvetica,sans-Serif" font-size="10.00">web::http::StatusCode</text>
<text text-anchor="middle" x="625.5" y="-187.5" font-family="Helvetica,sans-Serif" font-size="10.00">::reason</text>
</a>
</g>
</g>
<!-- Node5&#45;&gt;Node8 -->
<g id="edge8" class="edge">
<title>Node5&#45;&gt;Node8</title>
<path fill="none" stroke="midnightblue" d="M527.79,-195.5C537.55,-195.5 547.75,-195.5 557.69,-195.5"/>
<polygon fill="midnightblue" stroke="midnightblue" points="557.94,-199 567.94,-195.5 557.94,-192 557.94,-199"/>
</g>
<!-- Node5&#45;&gt;Node10 -->
<g id="edge10" class="edge">
<title>Node5&#45;&gt;Node10</title>
<path fill="none" stroke="midnightblue" d="M516.52,-180.35C522.03,-177.54 527.34,-174.28 532,-170.5 552.47,-153.92 590.5,-90.82 610.84,-55.61"/>
<polygon fill="midnightblue" stroke="midnightblue" points="613.9,-57.31 615.84,-46.89 607.83,-53.82 613.9,-57.31"/>
</g>
<!-- Node12 -->
<g id="node12" class="node">
<title>Node12</title>
<g id="a_node12"><a xlink:href="namespacehttputils.html#a01539c1af68e4d072d3507ae44c0b02a" target="_top" xlink:title=" ">
<polygon fill="white" stroke="black" points="570,-142 570,-161 681,-161 681,-142 570,-142"/>
<text text-anchor="middle" x="625.5" y="-149" font-family="Helvetica,sans-Serif" font-size="10.00">httputils::to_http_date</text>
</a>
</g>
</g>
<!-- Node5&#45;&gt;Node12 -->
<g id="edge12" class="edge">
<title>Node5&#45;&gt;Node12</title>
<path fill="none" stroke="midnightblue" d="M522.08,-180.48C541.23,-175.06 562.61,-169.01 580.87,-163.85"/>
<polygon fill="midnightblue" stroke="midnightblue" points="581.98,-167.17 590.65,-161.08 580.07,-160.43 581.98,-167.17"/>
</g>
<!-- Node7 -->
<g id="node7" class="node">
<title>Node7</title>
<g id="a_node7"><a xlink:href="namespaceweb_1_1ws_1_1subprotocol_1_1echo_1_1server.html#af4a384a2fa866309df7f32586621f0b6" target="_top" xlink:title=" ">
<polygon fill="white" stroke="black" points="721.5,-229.5 721.5,-259.5 831.5,-259.5 831.5,-229.5 721.5,-229.5"/>
<text text-anchor="start" x="729.5" y="-247.5" font-family="Helvetica,sans-Serif" font-size="10.00">web::ws::subprotocol</text>
<text text-anchor="middle" x="776.5" y="-236.5" font-family="Helvetica,sans-Serif" font-size="10.00">::echo::server::name</text>
</a>
</g>
</g>
<!-- Node6&#45;&gt;Node7 -->
<g id="edge6" class="edge">
<title>Node6&#45;&gt;Node7</title>
<path fill="none" stroke="midnightblue" d="M673.64,-244.5C685.62,-244.5 698.69,-244.5 711.35,-244.5"/>
<polygon fill="midnightblue" stroke="midnightblue" points="711.39,-248 721.39,-244.5 711.39,-241 711.39,-248"/>
</g>
<!-- Node9 -->
<g id="node9" class="node">
<title>Node9</title>
<g id="a_node9"><a xlink:href="classweb_1_1http_1_1_status_code.html#a7128168d2becba8d8bfd0e47ab2854ff" target="_top" xlink:title=" ">
<polygon fill="white" stroke="black" points="719,-180.5 719,-210.5 834,-210.5 834,-180.5 719,-180.5"/>
<text text-anchor="start" x="727" y="-198.5" font-family="Helvetica,sans-Serif" font-size="10.00">web::http::StatusCode</text>
<text text-anchor="middle" x="776.5" y="-187.5" font-family="Helvetica,sans-Serif" font-size="10.00">::contains</text>
</a>
</g>
</g>
<!-- Node8&#45;&gt;Node9 -->
<g id="edge9" class="edge">
<title>Node8&#45;&gt;Node9</title>
<path fill="none" stroke="midnightblue" d="M683.26,-195.5C691.56,-195.5 700.17,-195.5 708.65,-195.5"/>
<polygon fill="midnightblue" stroke="midnightblue" points="708.9,-199 718.9,-195.5 708.9,-192 708.9,-199"/>
</g>
<!-- Node11 -->
<g id="node11" class="node">
<title>Node11</title>
<g id="a_node11"><a xlink:href="namespacehttputils.html#a87e2c03071ddffa8a616ea13d641aafc" target="_top" xlink:title=" ">
<polygon fill="white" stroke="black" points="729.5,-22 729.5,-41 823.5,-41 823.5,-22 729.5,-22"/>
<text text-anchor="middle" x="776.5" y="-29" font-family="Helvetica,sans-Serif" font-size="10.00">httputils::ci_comp</text>
</a>
</g>
</g>
<!-- Node10&#45;&gt;Node11 -->
<g id="edge11" class="edge">
<title>Node10&#45;&gt;Node11</title>
<path fill="none" stroke="midnightblue" d="M673.64,-31.5C688.12,-31.5 704.2,-31.5 719.23,-31.5"/>
<polygon fill="midnightblue" stroke="midnightblue" points="719.43,-35 729.43,-31.5 719.43,-28 719.43,-35"/>
</g>
</g>
</svg>
