<?xml version="1.0" encoding="UTF-8" standalone="no"?>
<!DOCTYPE svg PUBLIC "-//W3C//DTD SVG 1.1//EN"
 "http://www.w3.org/Graphics/SVG/1.1/DTD/svg11.dtd">
<!-- Generated by graphviz version 2.43.0 (0)
 -->
<!-- Title: net::WriteEventReceiver::writeTimeout Pages: 1 -->
<svg width="685pt" height="88pt"
 viewBox="0.00 0.00 685.00 88.00" xmlns="http://www.w3.org/2000/svg" xmlns:xlink="http://www.w3.org/1999/xlink">
<g id="graph0" class="graph" transform="scale(1 1) rotate(0) translate(4 84)">
<title>net::WriteEventReceiver::writeTimeout</title>
<polygon fill="white" stroke="transparent" points="-4,4 -4,-84 681,-84 681,4 -4,4"/>
<!-- Node1 -->
<g id="node1" class="node">
<title>Node1</title>
<g id="a_node1"><a xlink:title=" ">
<polygon fill="#bfbfbf" stroke="black" points="0,-24.5 0,-54.5 123,-54.5 123,-24.5 0,-24.5"/>
<text text-anchor="start" x="8" y="-42.5" font-family="Helvetica,sans-Serif" font-size="10.00">net::WriteEventReceiver</text>
<text text-anchor="middle" x="61.5" y="-31.5" font-family="Helvetica,sans-Serif" font-size="10.00">::writeTimeout</text>
</a>
</g>
</g>
<!-- Node2 -->
<g id="node2" class="node">
<title>Node2</title>
<g id="a_node2"><a xlink:href="classnet_1_1_descriptor_event_receiver.html#a71d48a9e0030918589d901b834e07327" target="_top" xlink:title=" ">
<polygon fill="white" stroke="black" points="159,-24.5 159,-54.5 305,-54.5 305,-24.5 159,-24.5"/>
<text text-anchor="start" x="167" y="-42.5" font-family="Helvetica,sans-Serif" font-size="10.00">net::DescriptorEventReceiver</text>
<text text-anchor="middle" x="232" y="-31.5" font-family="Helvetica,sans-Serif" font-size="10.00">::disable</text>
</a>
</g>
</g>
<!-- Node1&#45;&gt;Node2 -->
<g id="edge1" class="edge">
<title>Node1&#45;&gt;Node2</title>
<path fill="none" stroke="midnightblue" d="M123.33,-39.5C131.6,-39.5 140.19,-39.5 148.76,-39.5"/>
<polygon fill="midnightblue" stroke="midnightblue" points="148.78,-43 158.78,-39.5 148.78,-36 148.78,-43"/>
</g>
<!-- Node3 -->
<g id="node3" class="node">
<title>Node3</title>
<g id="a_node3"><a xlink:href="classnet_1_1_descriptor_event_dispatcher.html#a0f682135c09bd279cd315a0bdf885473" target="_top" xlink:title=" ">
<polygon fill="white" stroke="black" points="341,-24.5 341,-54.5 495,-54.5 495,-24.5 341,-24.5"/>
<text text-anchor="start" x="349" y="-42.5" font-family="Helvetica,sans-Serif" font-size="10.00">net::DescriptorEventDispatcher</text>
<text text-anchor="middle" x="418" y="-31.5" font-family="Helvetica,sans-Serif" font-size="10.00">::disable</text>
</a>
</g>
</g>
<!-- Node2&#45;&gt;Node3 -->
<g id="edge2" class="edge">
<title>Node2&#45;&gt;Node3</title>
<path fill="none" stroke="midnightblue" d="M305.19,-39.5C313.5,-39.5 322.03,-39.5 330.49,-39.5"/>
<polygon fill="midnightblue" stroke="midnightblue" points="330.77,-43 340.77,-39.5 330.77,-36 330.77,-43"/>
</g>
<!-- Node4 -->
<g id="node4" class="node">
<title>Node4</title>
<g id="a_node4"><a xlink:href="classnet_1_1_descriptor_event_receiver.html#a916b81700981f60b692e0e673536d120" target="_top" xlink:title=" ">
<polygon fill="white" stroke="black" points="531,-49.5 531,-79.5 677,-79.5 677,-49.5 531,-49.5"/>
<text text-anchor="start" x="539" y="-67.5" font-family="Helvetica,sans-Serif" font-size="10.00">net::DescriptorEventReceiver</text>
<text text-anchor="middle" x="604" y="-56.5" font-family="Helvetica,sans-Serif" font-size="10.00">::disabled</text>
</a>
</g>
</g>
<!-- Node3&#45;&gt;Node4 -->
<g id="edge3" class="edge">
<title>Node3&#45;&gt;Node4</title>
<path fill="none" stroke="midnightblue" d="M495.17,-49.85C503.62,-51 512.26,-52.17 520.79,-53.33"/>
<polygon fill="midnightblue" stroke="midnightblue" points="520.35,-56.8 530.73,-54.68 521.29,-49.87 520.35,-56.8"/>
</g>
<!-- Node5 -->
<g id="node5" class="node">
<title>Node5</title>
<g id="a_node5"><a xlink:href="classnet_1_1_descriptor_event_receiver.html#a58562b1da4bc4f87bc7c51eb04db62a4" target="_top" xlink:title=" ">
<polygon fill="white" stroke="black" points="531,-0.5 531,-30.5 677,-30.5 677,-0.5 531,-0.5"/>
<text text-anchor="start" x="539" y="-18.5" font-family="Helvetica,sans-Serif" font-size="10.00">net::DescriptorEventReceiver</text>
<text text-anchor="middle" x="604" y="-7.5" font-family="Helvetica,sans-Serif" font-size="10.00">::isEnabled</text>
</a>
</g>
</g>
<!-- Node3&#45;&gt;Node5 -->
<g id="edge4" class="edge">
<title>Node3&#45;&gt;Node5</title>
<path fill="none" stroke="midnightblue" d="M495.17,-29.57C503.62,-28.46 512.26,-27.34 520.79,-26.22"/>
<polygon fill="midnightblue" stroke="midnightblue" points="521.27,-29.69 530.73,-24.93 520.36,-22.75 521.27,-29.69"/>
</g>
</g>
</svg>
