<?xml version="1.0" encoding="UTF-8" standalone="no"?>
<!DOCTYPE svg PUBLIC "-//W3C//DTD SVG 1.1//EN"
 "http://www.w3.org/Graphics/SVG/1.1/DTD/svg11.dtd">
<!-- Generated by graphviz version 2.43.0 (0)
 -->
<!-- Title: net::ReadEventReceiver::disable Pages: 1 -->
<svg width="303pt" height="198pt"
 viewBox="0.00 0.00 303.00 197.50" xmlns="http://www.w3.org/2000/svg" xmlns:xlink="http://www.w3.org/1999/xlink">
<g id="graph0" class="graph" transform="scale(1 1) rotate(0) translate(4 193.5)">
<title>net::ReadEventReceiver::disable</title>
<polygon fill="white" stroke="transparent" points="-4,4 -4,-193.5 299,-193.5 299,4 -4,4"/>
<!-- Node1 -->
<g id="node1" class="node">
<title>Node1</title>
<g id="a_node1"><a xlink:title=" ">
<polygon fill="#bfbfbf" stroke="black" points="171,-85 171,-115 295,-115 295,-85 171,-85"/>
<text text-anchor="start" x="179" y="-103" font-family="Helvetica,sans-Serif" font-size="10.00">net::ReadEventReceiver</text>
<text text-anchor="middle" x="233" y="-92" font-family="Helvetica,sans-Serif" font-size="10.00">::disable</text>
</a>
</g>
</g>
<!-- Node2 -->
<g id="node2" class="node">
<title>Node2</title>
<g id="a_node2"><a xlink:href="classnet_1_1socket_1_1stream_1_1_socket_connection.html#ad80107c21f19c407619fc28425db1d40" target="_top" xlink:title=" ">
<polygon fill="white" stroke="black" points="1.5,-159 1.5,-189 133.5,-189 133.5,-159 1.5,-159"/>
<text text-anchor="start" x="9.5" y="-177" font-family="Helvetica,sans-Serif" font-size="10.00">net::socket::stream</text>
<text text-anchor="middle" x="67.5" y="-166" font-family="Helvetica,sans-Serif" font-size="10.00">::SocketConnection::close</text>
</a>
</g>
</g>
<!-- Node1&#45;&gt;Node2 -->
<g id="edge1" class="edge">
<title>Node1&#45;&gt;Node2</title>
<path fill="none" stroke="midnightblue" d="M195.86,-120.04C177.84,-129.67 155.56,-141.04 135,-150 127.91,-153.09 120.28,-156.11 112.81,-158.91"/>
<polygon fill="midnightblue" stroke="midnightblue" points="197.72,-123.02 204.86,-115.19 194.4,-116.86 197.72,-123.02"/>
</g>
<!-- Node3 -->
<g id="node3" class="node">
<title>Node3</title>
<g id="a_node3"><a xlink:href="classnet_1_1socket_1_1stream_1_1tls_1_1_socket_reader.html#a66094f94e4c20714c159432dac407b1c" target="_top" xlink:title=" ">
<polygon fill="white" stroke="black" points="4.5,-110 4.5,-140 130.5,-140 130.5,-110 4.5,-110"/>
<text text-anchor="start" x="12.5" y="-128" font-family="Helvetica,sans-Serif" font-size="10.00">net::socket::stream</text>
<text text-anchor="middle" x="67.5" y="-117" font-family="Helvetica,sans-Serif" font-size="10.00">::tls::SocketReader::read</text>
</a>
</g>
</g>
<!-- Node1&#45;&gt;Node3 -->
<g id="edge2" class="edge">
<title>Node1&#45;&gt;Node3</title>
<path fill="none" stroke="midnightblue" d="M160.75,-110.89C150.75,-112.42 140.55,-113.98 130.74,-115.48"/>
<polygon fill="midnightblue" stroke="midnightblue" points="161.3,-114.35 170.65,-109.38 160.24,-107.43 161.3,-114.35"/>
</g>
<!-- Node4 -->
<g id="node4" class="node">
<title>Node4</title>
<g id="a_node4"><a xlink:href="classnet_1_1socket_1_1stream_1_1_socket_reader.html#ab61867e53c7aeaf9c51cfaa19ddd060b" target="_top" xlink:title=" ">
<polygon fill="white" stroke="black" points="0,-61 0,-91 135,-91 135,-61 0,-61"/>
<text text-anchor="start" x="8" y="-79" font-family="Helvetica,sans-Serif" font-size="10.00">net::socket::stream</text>
<text text-anchor="middle" x="67.5" y="-68" font-family="Helvetica,sans-Serif" font-size="10.00">::SocketReader::readEvent</text>
</a>
</g>
</g>
<!-- Node1&#45;&gt;Node4 -->
<g id="edge3" class="edge">
<title>Node1&#45;&gt;Node4</title>
<path fill="none" stroke="midnightblue" d="M160.75,-89.54C152.24,-88.29 143.57,-87.02 135.12,-85.78"/>
<polygon fill="midnightblue" stroke="midnightblue" points="160.25,-93.01 170.65,-91 161.27,-86.08 160.25,-93.01"/>
</g>
<!-- Node5 -->
<g id="node5" class="node">
<title>Node5</title>
<g id="a_node5"><a xlink:href="classnet_1_1socket_1_1stream_1_1tls_1_1_t_l_s_handshake.html#a35bcd6ef7b0b5581fcc7cb56873edb30" target="_top" xlink:title=" ">
<polygon fill="white" stroke="black" points="14,-0.5 14,-41.5 121,-41.5 121,-0.5 14,-0.5"/>
<text text-anchor="start" x="22" y="-29.5" font-family="Helvetica,sans-Serif" font-size="10.00">net::socket::stream</text>
<text text-anchor="start" x="22" y="-18.5" font-family="Helvetica,sans-Serif" font-size="10.00">::tls::TLSHandshake</text>
<text text-anchor="middle" x="67.5" y="-7.5" font-family="Helvetica,sans-Serif" font-size="10.00">::readEvent</text>
</a>
</g>
</g>
<!-- Node1&#45;&gt;Node5 -->
<g id="edge4" class="edge">
<title>Node1&#45;&gt;Node5</title>
<path fill="none" stroke="midnightblue" d="M192.56,-80.22C174.99,-71.48 154.01,-61.13 135,-52 127.88,-48.58 120.31,-45 112.92,-41.53"/>
<polygon fill="midnightblue" stroke="midnightblue" points="191.43,-83.57 201.94,-84.9 194.55,-77.31 191.43,-83.57"/>
</g>
</g>
</svg>
