<?xml version="1.0" encoding="UTF-8" standalone="no"?>
<!DOCTYPE svg PUBLIC "-//W3C//DTD SVG 1.1//EN"
 "http://www.w3.org/Graphics/SVG/1.1/DTD/svg11.dtd">
<!-- Generated by graphviz version 2.43.0 (0)
 -->
<!-- Title: web::websocket::SocketContext::getRemoteAddressAsString Pages: 1 -->
<svg width="519pt" height="50pt"
 viewBox="0.00 0.00 519.00 50.00" xmlns="http://www.w3.org/2000/svg" xmlns:xlink="http://www.w3.org/1999/xlink">
<g id="graph0" class="graph" transform="scale(1 1) rotate(0) translate(4 46)">
<title>web::websocket::SocketContext::getRemoteAddressAsString</title>
<polygon fill="white" stroke="transparent" points="-4,4 -4,-46 515,-46 515,4 -4,4"/>
<!-- Node1 -->
<g id="node1" class="node">
<title>Node1</title>
<g id="a_node1"><a xlink:title=" ">
<polygon fill="#bfbfbf" stroke="black" points="0,-6 0,-36 159,-36 159,-6 0,-6"/>
<text text-anchor="start" x="8" y="-24" font-family="Helvetica,sans-Serif" font-size="10.00">web::websocket::SocketContext</text>
<text text-anchor="middle" x="79.5" y="-13" font-family="Helvetica,sans-Serif" font-size="10.00">::getRemoteAddressAsString</text>
</a>
</g>
</g>
<!-- Node2 -->
<g id="node2" class="node">
<title>Node2</title>
<g id="a_node2"><a xlink:href="classnet_1_1socket_1_1stream_1_1_socket_context.html#a4fa47451b4cc95a47d3f80e46513e3ff" target="_top" xlink:title=" ">
<polygon fill="white" stroke="black" points="195,-0.5 195,-41.5 337,-41.5 337,-0.5 195,-0.5"/>
<text text-anchor="start" x="203" y="-29.5" font-family="Helvetica,sans-Serif" font-size="10.00">net::socket::stream</text>
<text text-anchor="start" x="203" y="-18.5" font-family="Helvetica,sans-Serif" font-size="10.00">::SocketContext::getRemote</text>
<text text-anchor="middle" x="266" y="-7.5" font-family="Helvetica,sans-Serif" font-size="10.00">AddressAsString</text>
</a>
</g>
</g>
<!-- Node1&#45;&gt;Node2 -->
<g id="edge1" class="edge">
<title>Node1&#45;&gt;Node2</title>
<path fill="none" stroke="midnightblue" d="M159.01,-21C167.45,-21 176.04,-21 184.5,-21"/>
<polygon fill="midnightblue" stroke="midnightblue" points="184.74,-24.5 194.74,-21 184.74,-17.5 184.74,-24.5"/>
</g>
<!-- Node3 -->
<g id="node3" class="node">
<title>Node3</title>
<g id="a_node3"><a xlink:href="classnet_1_1socket_1_1stream_1_1_socket_connection.html#a8df46c8bb8a3f943253c2625244043bc" target="_top" xlink:title=" ">
<polygon fill="white" stroke="black" points="373,-0.5 373,-41.5 511,-41.5 511,-0.5 373,-0.5"/>
<text text-anchor="start" x="381" y="-29.5" font-family="Helvetica,sans-Serif" font-size="10.00">net::socket::stream</text>
<text text-anchor="start" x="381" y="-18.5" font-family="Helvetica,sans-Serif" font-size="10.00">::SocketConnection::</text>
<text text-anchor="middle" x="442" y="-7.5" font-family="Helvetica,sans-Serif" font-size="10.00">getRemoteAddressAsString</text>
</a>
</g>
</g>
<!-- Node2&#45;&gt;Node3 -->
<g id="edge2" class="edge">
<title>Node2&#45;&gt;Node3</title>
<path fill="none" stroke="midnightblue" d="M337.02,-21C345.5,-21 354.21,-21 362.81,-21"/>
<polygon fill="midnightblue" stroke="midnightblue" points="362.82,-24.5 372.82,-21 362.82,-17.5 362.82,-24.5"/>
</g>
</g>
</svg>
