<?xml version="1.0" encoding="UTF-8" standalone="no"?>
<!DOCTYPE svg PUBLIC "-//W3C//DTD SVG 1.1//EN"
 "http://www.w3.org/Graphics/SVG/1.1/DTD/svg11.dtd">
<!-- Generated by graphviz version 2.43.0 (0)
 -->
<!-- Title: net::WriteEventReceiver::enable Pages: 1 -->
<svg width="520pt" height="231pt"
 viewBox="0.00 0.00 520.00 231.00" xmlns="http://www.w3.org/2000/svg" xmlns:xlink="http://www.w3.org/1999/xlink">
<g id="graph0" class="graph" transform="scale(1 1) rotate(0) translate(4 227)">
<title>net::WriteEventReceiver::enable</title>
<polygon fill="white" stroke="transparent" points="-4,4 -4,-227 516,-227 516,4 -4,4"/>
<!-- Node1 -->
<g id="node1" class="node">
<title>Node1</title>
<g id="a_node1"><a xlink:title=" ">
<polygon fill="#bfbfbf" stroke="black" points="389,-85 389,-115 512,-115 512,-85 389,-85"/>
<text text-anchor="start" x="397" y="-103" font-family="Helvetica,sans-Serif" font-size="10.00">net::WriteEventReceiver</text>
<text text-anchor="middle" x="450.5" y="-92" font-family="Helvetica,sans-Serif" font-size="10.00">::enable</text>
</a>
</g>
</g>
<!-- Node2 -->
<g id="node2" class="node">
<title>Node2</title>
<g id="a_node2"><a xlink:href="classnet_1_1socket_1_1stream_1_1_socket_client.html#abf1927a7dd92413fd8bbff997989dbc9" target="_top" xlink:title=" ">
<polygon fill="white" stroke="black" points="221,-159.5 221,-222.5 353,-222.5 353,-159.5 221,-159.5"/>
<text text-anchor="start" x="229" y="-210.5" font-family="Helvetica,sans-Serif" font-size="10.00">net::socket::stream</text>
<text text-anchor="start" x="229" y="-199.5" font-family="Helvetica,sans-Serif" font-size="10.00">::SocketClient&lt; legacy</text>
<text text-anchor="start" x="229" y="-188.5" font-family="Helvetica,sans-Serif" font-size="10.00">::SocketConnection&lt; net</text>
<text text-anchor="start" x="229" y="-177.5" font-family="Helvetica,sans-Serif" font-size="10.00">::socket::ipv4::tcp::Socket</text>
<text text-anchor="middle" x="287" y="-166.5" font-family="Helvetica,sans-Serif" font-size="10.00"> &gt; &gt;::connect</text>
</a>
</g>
</g>
<!-- Node1&#45;&gt;Node2 -->
<g id="edge1" class="edge">
<title>Node1&#45;&gt;Node2</title>
<path fill="none" stroke="midnightblue" d="M413.87,-120.07C393.44,-131.59 367.33,-146.3 344.19,-159.34"/>
<polygon fill="midnightblue" stroke="midnightblue" points="415.84,-122.99 422.83,-115.03 412.4,-116.89 415.84,-122.99"/>
</g>
<!-- Node3 -->
<g id="node3" class="node">
<title>Node3</title>
<g id="a_node3"><a xlink:href="classnet_1_1socket_1_1stream_1_1_socket_writer.html#aa7bdaa904aa90968afb56bbb4f671a6d" target="_top" xlink:title=" ">
<polygon fill="white" stroke="black" points="226,-110 226,-140 348,-140 348,-110 226,-110"/>
<text text-anchor="start" x="234" y="-128" font-family="Helvetica,sans-Serif" font-size="10.00">net::socket::stream</text>
<text text-anchor="middle" x="287" y="-117" font-family="Helvetica,sans-Serif" font-size="10.00">::SocketWriter::enqueue</text>
</a>
</g>
</g>
<!-- Node1&#45;&gt;Node3 -->
<g id="edge2" class="edge">
<title>Node1&#45;&gt;Node3</title>
<path fill="none" stroke="midnightblue" d="M378.78,-110.95C368.56,-112.53 358.12,-114.15 348.13,-115.69"/>
<polygon fill="midnightblue" stroke="midnightblue" points="379.56,-114.37 388.9,-109.38 378.49,-107.45 379.56,-114.37"/>
</g>
<!-- Node5 -->
<g id="node5" class="node">
<title>Node5</title>
<g id="a_node5"><a xlink:href="classnet_1_1socket_1_1stream_1_1tls_1_1_socket_reader.html#a2d1afe1a95aa96b9a3c442ce601af849" target="_top" xlink:title=" ">
<polygon fill="white" stroke="black" points="224,-61 224,-91 350,-91 350,-61 224,-61"/>
<text text-anchor="start" x="232" y="-79" font-family="Helvetica,sans-Serif" font-size="10.00">net::socket::stream</text>
<text text-anchor="middle" x="287" y="-68" font-family="Helvetica,sans-Serif" font-size="10.00">::tls::SocketReader::read</text>
</a>
</g>
</g>
<!-- Node1&#45;&gt;Node5 -->
<g id="edge4" class="edge">
<title>Node1&#45;&gt;Node5</title>
<path fill="none" stroke="midnightblue" d="M378.96,-89.52C369.32,-88.08 359.48,-86.62 350.01,-85.22"/>
<polygon fill="midnightblue" stroke="midnightblue" points="378.5,-92.99 388.9,-91 379.53,-86.06 378.5,-92.99"/>
</g>
<!-- Node6 -->
<g id="node6" class="node">
<title>Node6</title>
<g id="a_node6"><a xlink:href="classnet_1_1socket_1_1stream_1_1tls_1_1_socket_writer.html#a575092baf77eee53e0f52525230d01d8" target="_top" xlink:title=" ">
<polygon fill="white" stroke="black" points="236.5,-0.5 236.5,-41.5 337.5,-41.5 337.5,-0.5 236.5,-0.5"/>
<text text-anchor="start" x="244.5" y="-29.5" font-family="Helvetica,sans-Serif" font-size="10.00">net::socket::stream</text>
<text text-anchor="start" x="244.5" y="-18.5" font-family="Helvetica,sans-Serif" font-size="10.00">::tls::SocketWriter</text>
<text text-anchor="middle" x="287" y="-7.5" font-family="Helvetica,sans-Serif" font-size="10.00">::write</text>
</a>
</g>
</g>
<!-- Node1&#45;&gt;Node6 -->
<g id="edge5" class="edge">
<title>Node1&#45;&gt;Node6</title>
<path fill="none" stroke="midnightblue" d="M410.24,-80.29C392.75,-71.55 371.88,-61.2 353,-52 346.03,-48.61 338.63,-45.04 331.4,-41.58"/>
<polygon fill="midnightblue" stroke="midnightblue" points="409.06,-83.61 419.57,-84.95 412.19,-77.35 409.06,-83.61"/>
</g>
<!-- Node4 -->
<g id="node4" class="node">
<title>Node4</title>
<g id="a_node4"><a xlink:href="classnet_1_1socket_1_1stream_1_1_socket_connection.html#ab5931a0a52e2fbcdec5d8c3fba61eb2a" target="_top" xlink:title=" ">
<polygon fill="white" stroke="black" points="0,-88 0,-162 185,-162 185,-88 0,-88"/>
<text text-anchor="start" x="8" y="-150" font-family="Helvetica,sans-Serif" font-size="10.00">net::socket::stream</text>
<text text-anchor="start" x="8" y="-139" font-family="Helvetica,sans-Serif" font-size="10.00">::SocketConnection&lt;</text>
<text text-anchor="start" x="8" y="-128" font-family="Helvetica,sans-Serif" font-size="10.00"> legacy::SocketReader</text>
<text text-anchor="start" x="8" y="-117" font-family="Helvetica,sans-Serif" font-size="10.00">&lt; SocketT &gt;, legacy::SocketWriter</text>
<text text-anchor="start" x="8" y="-106" font-family="Helvetica,sans-Serif" font-size="10.00">&lt; SocketT &gt;, SocketT::SocketAddress</text>
<text text-anchor="middle" x="92.5" y="-95" font-family="Helvetica,sans-Serif" font-size="10.00"> &gt;::enqueue</text>
</a>
</g>
</g>
<!-- Node3&#45;&gt;Node4 -->
<g id="edge3" class="edge">
<title>Node3&#45;&gt;Node4</title>
<path fill="none" stroke="midnightblue" d="M215.72,-125C205.81,-125 195.5,-125 185.26,-125"/>
<polygon fill="midnightblue" stroke="midnightblue" points="215.88,-128.5 225.88,-125 215.88,-121.5 215.88,-128.5"/>
</g>
</g>
</svg>
