<?xml version="1.0" encoding="UTF-8" standalone="no"?>
<!DOCTYPE svg PUBLIC "-//W3C//DTD SVG 1.1//EN"
 "http://www.w3.org/Graphics/SVG/1.1/DTD/svg11.dtd">
<!-- Generated by graphviz version 2.43.0 (0)
 -->
<!-- Title: http::websocket::WSReceiver::reset Pages: 1 -->
<svg width="703pt" height="176pt"
 viewBox="0.00 0.00 703.00 176.00" xmlns="http://www.w3.org/2000/svg" xmlns:xlink="http://www.w3.org/1999/xlink">
<g id="graph0" class="graph" transform="scale(1 1) rotate(0) translate(4 172)">
<title>http::websocket::WSReceiver::reset</title>
<polygon fill="white" stroke="transparent" points="-4,4 -4,-172 699,-172 699,4 -4,4"/>
<!-- Node1 -->
<g id="node1" class="node">
<title>Node1</title>
<g id="a_node1"><a xlink:title=" ">
<polygon fill="#bfbfbf" stroke="black" points="547,-71.5 547,-101.5 695,-101.5 695,-71.5 547,-71.5"/>
<text text-anchor="start" x="555" y="-89.5" font-family="Helvetica,sans-Serif" font-size="10.00">http::websocket::WSReceiver</text>
<text text-anchor="middle" x="621" y="-78.5" font-family="Helvetica,sans-Serif" font-size="10.00">::reset</text>
</a>
</g>
</g>
<!-- Node2 -->
<g id="node2" class="node">
<title>Node2</title>
<g id="a_node2"><a xlink:href="classhttp_1_1websocket_1_1_w_s_receiver.html#acbc93dacf2a33e60e54abca43cf91cfe" target="_top" xlink:title=" ">
<polygon fill="white" stroke="black" points="363,-137.5 363,-167.5 511,-167.5 511,-137.5 363,-137.5"/>
<text text-anchor="start" x="371" y="-155.5" font-family="Helvetica,sans-Serif" font-size="10.00">http::websocket::WSReceiver</text>
<text text-anchor="middle" x="437" y="-144.5" font-family="Helvetica,sans-Serif" font-size="10.00">::readLength</text>
</a>
</g>
</g>
<!-- Node1&#45;&gt;Node2 -->
<g id="edge1" class="edge">
<title>Node1&#45;&gt;Node2</title>
<path fill="none" stroke="midnightblue" d="M568.57,-105.15C540.42,-115.36 505.99,-127.84 479.56,-137.43"/>
<polygon fill="midnightblue" stroke="midnightblue" points="570.04,-108.34 578.25,-101.64 567.65,-101.76 570.04,-108.34"/>
</g>
<!-- Node3 -->
<g id="node3" class="node">
<title>Node3</title>
<g id="a_node3"><a xlink:href="classhttp_1_1websocket_1_1_w_s_receiver.html#a42ba0580cd663e4cb2f898155058ea89" target="_top" xlink:title=" ">
<polygon fill="white" stroke="black" points="179,-71.5 179,-101.5 327,-101.5 327,-71.5 179,-71.5"/>
<text text-anchor="start" x="187" y="-89.5" font-family="Helvetica,sans-Serif" font-size="10.00">http::websocket::WSReceiver</text>
<text text-anchor="middle" x="253" y="-78.5" font-family="Helvetica,sans-Serif" font-size="10.00">::receive</text>
</a>
</g>
</g>
<!-- Node1&#45;&gt;Node3 -->
<g id="edge8" class="edge">
<title>Node1&#45;&gt;Node3</title>
<path fill="none" stroke="midnightblue" d="M536.6,-89.03C527.95,-89.22 519.3,-89.39 511,-89.5 445.23,-90.4 428.77,-90.4 363,-89.5 351.45,-89.34 339.22,-89.09 327.28,-88.79"/>
<polygon fill="midnightblue" stroke="midnightblue" points="536.8,-92.53 546.72,-88.79 536.64,-85.53 536.8,-92.53"/>
</g>
<!-- Node5 -->
<g id="node5" class="node">
<title>Node5</title>
<g id="a_node5"><a xlink:href="classhttp_1_1websocket_1_1_w_s_receiver.html#a5eb47e6caf837bc052deaff9e2add7d4" target="_top" xlink:title=" ">
<polygon fill="white" stroke="black" points="363,-49.5 363,-79.5 511,-79.5 511,-49.5 363,-49.5"/>
<text text-anchor="start" x="371" y="-67.5" font-family="Helvetica,sans-Serif" font-size="10.00">http::websocket::WSReceiver</text>
<text text-anchor="middle" x="437" y="-56.5" font-family="Helvetica,sans-Serif" font-size="10.00">::readMaskingKey</text>
</a>
</g>
</g>
<!-- Node1&#45;&gt;Node5 -->
<g id="edge4" class="edge">
<title>Node1&#45;&gt;Node5</title>
<path fill="none" stroke="midnightblue" d="M536.76,-76.44C528.2,-75.4 519.54,-74.36 511.09,-73.34"/>
<polygon fill="midnightblue" stroke="midnightblue" points="536.41,-79.92 546.76,-77.65 537.25,-72.97 536.41,-79.92"/>
</g>
<!-- Node6 -->
<g id="node6" class="node">
<title>Node6</title>
<g id="a_node6"><a xlink:href="classhttp_1_1websocket_1_1_w_s_receiver.html#a65eb7c7dc5695fd088028362b30321f5" target="_top" xlink:title=" ">
<polygon fill="white" stroke="black" points="363,-0.5 363,-30.5 511,-30.5 511,-0.5 363,-0.5"/>
<text text-anchor="start" x="371" y="-18.5" font-family="Helvetica,sans-Serif" font-size="10.00">http::websocket::WSReceiver</text>
<text text-anchor="middle" x="437" y="-7.5" font-family="Helvetica,sans-Serif" font-size="10.00">::readPayload</text>
</a>
</g>
</g>
<!-- Node1&#45;&gt;Node6 -->
<g id="edge6" class="edge">
<title>Node1&#45;&gt;Node6</title>
<path fill="none" stroke="midnightblue" d="M576.49,-67.32C556.65,-58.79 532.77,-48.81 511,-40.5 502.24,-37.16 492.81,-33.77 483.74,-30.62"/>
<polygon fill="midnightblue" stroke="midnightblue" points="575.31,-70.63 585.88,-71.38 578.09,-64.2 575.31,-70.63"/>
</g>
<!-- Node2&#45;&gt;Node3 -->
<g id="edge2" class="edge">
<title>Node2&#45;&gt;Node3</title>
<path fill="none" stroke="midnightblue" d="M384.57,-133.85C356.42,-123.64 321.99,-111.16 295.56,-101.57"/>
<polygon fill="midnightblue" stroke="midnightblue" points="383.65,-137.24 394.25,-137.36 386.04,-130.66 383.65,-137.24"/>
</g>
<!-- Node4 -->
<g id="node4" class="node">
<title>Node4</title>
<g id="a_node4"><a xlink:href="classhttp_1_1websocket_1_1_w_s_server_context.html#aabf1631b114b88d21c73b7827f4c2dc9" target="_top" xlink:title=" ">
<polygon fill="white" stroke="black" points="0,-71.5 0,-101.5 143,-101.5 143,-71.5 0,-71.5"/>
<text text-anchor="start" x="8" y="-89.5" font-family="Helvetica,sans-Serif" font-size="10.00">http::websocket::WSServer</text>
<text text-anchor="middle" x="71.5" y="-78.5" font-family="Helvetica,sans-Serif" font-size="10.00">Context::parseReceivedData</text>
</a>
</g>
</g>
<!-- Node3&#45;&gt;Node4 -->
<g id="edge3" class="edge">
<title>Node3&#45;&gt;Node4</title>
<path fill="none" stroke="midnightblue" d="M168.92,-86.5C160.3,-86.5 151.59,-86.5 143.12,-86.5"/>
<polygon fill="midnightblue" stroke="midnightblue" points="168.99,-90 178.99,-86.5 168.99,-83 168.99,-90"/>
</g>
<!-- Node5&#45;&gt;Node3 -->
<g id="edge5" class="edge">
<title>Node5&#45;&gt;Node3</title>
<path fill="none" stroke="midnightblue" d="M352.76,-74.56C344.2,-75.6 335.54,-76.64 327.09,-77.66"/>
<polygon fill="midnightblue" stroke="midnightblue" points="353.25,-78.03 362.76,-73.35 352.41,-71.08 353.25,-78.03"/>
</g>
<!-- Node6&#45;&gt;Node3 -->
<g id="edge7" class="edge">
<title>Node6&#45;&gt;Node3</title>
<path fill="none" stroke="midnightblue" d="M380.82,-33.94C374.79,-36.09 368.75,-38.31 363,-40.5 337.67,-50.17 309.48,-62.1 288.12,-71.38"/>
<polygon fill="midnightblue" stroke="midnightblue" points="381.99,-37.24 390.26,-30.62 379.67,-30.64 381.99,-37.24"/>
</g>
</g>
</svg>
