<?xml version="1.0" encoding="UTF-8" standalone="no"?>
<!DOCTYPE svg PUBLIC "-//W3C//DTD SVG 1.1//EN"
 "http://www.w3.org/Graphics/SVG/1.1/DTD/svg11.dtd">
<!-- Generated by graphviz version 2.43.0 (0)
 -->
<!-- Title: web::websocket::Transmitter::sendMessage Pages: 1 -->
<svg width="688pt" height="39pt"
 viewBox="0.00 0.00 688.00 39.00" xmlns="http://www.w3.org/2000/svg" xmlns:xlink="http://www.w3.org/1999/xlink">
<g id="graph0" class="graph" transform="scale(1 1) rotate(0) translate(4 35)">
<title>web::websocket::Transmitter::sendMessage</title>
<polygon fill="white" stroke="transparent" points="-4,4 -4,-35 684,-35 684,4 -4,4"/>
<!-- Node1 -->
<g id="node1" class="node">
<title>Node1</title>
<g id="a_node1"><a xlink:title=" ">
<polygon fill="#bfbfbf" stroke="black" points="0,-0.5 0,-30.5 143,-30.5 143,-0.5 0,-0.5"/>
<text text-anchor="start" x="8" y="-18.5" font-family="Helvetica,sans-Serif" font-size="10.00">web::websocket::Transmitter</text>
<text text-anchor="middle" x="71.5" y="-7.5" font-family="Helvetica,sans-Serif" font-size="10.00">::sendMessage</text>
</a>
</g>
</g>
<!-- Node2 -->
<g id="node2" class="node">
<title>Node2</title>
<g id="a_node2"><a xlink:href="classweb_1_1websocket_1_1_transmitter.html#ac36955b609bb42c6fcc3d340705c314a" target="_top" xlink:title=" ">
<polygon fill="white" stroke="black" points="179,-0.5 179,-30.5 322,-30.5 322,-0.5 179,-0.5"/>
<text text-anchor="start" x="187" y="-18.5" font-family="Helvetica,sans-Serif" font-size="10.00">web::websocket::Transmitter</text>
<text text-anchor="middle" x="250.5" y="-7.5" font-family="Helvetica,sans-Serif" font-size="10.00">::send</text>
</a>
</g>
</g>
<!-- Node1&#45;&gt;Node2 -->
<g id="edge1" class="edge">
<title>Node1&#45;&gt;Node2</title>
<path fill="none" stroke="midnightblue" d="M143.22,-15.5C151.57,-15.5 160.14,-15.5 168.62,-15.5"/>
<polygon fill="midnightblue" stroke="midnightblue" points="168.89,-19 178.89,-15.5 168.89,-12 168.89,-19"/>
</g>
<!-- Node3 -->
<g id="node3" class="node">
<title>Node3</title>
<g id="a_node3"><a xlink:href="classweb_1_1websocket_1_1_transmitter.html#acc7ddff3e835e0df3813f684fbf81317" target="_top" xlink:title=" ">
<polygon fill="white" stroke="black" points="358,-0.5 358,-30.5 501,-30.5 501,-0.5 358,-0.5"/>
<text text-anchor="start" x="366" y="-18.5" font-family="Helvetica,sans-Serif" font-size="10.00">web::websocket::Transmitter</text>
<text text-anchor="middle" x="429.5" y="-7.5" font-family="Helvetica,sans-Serif" font-size="10.00">::sendFrame</text>
</a>
</g>
</g>
<!-- Node2&#45;&gt;Node3 -->
<g id="edge2" class="edge">
<title>Node2&#45;&gt;Node3</title>
<path fill="none" stroke="midnightblue" d="M322.22,-15.5C330.57,-15.5 339.14,-15.5 347.62,-15.5"/>
<polygon fill="midnightblue" stroke="midnightblue" points="347.89,-19 357.89,-15.5 347.89,-12 347.89,-19"/>
</g>
<!-- Node4 -->
<g id="node4" class="node">
<title>Node4</title>
<g id="a_node4"><a xlink:href="classweb_1_1websocket_1_1_transmitter.html#a3be430380802c49bf9db324c11000f7b" target="_top" xlink:title=" ">
<polygon fill="white" stroke="black" points="537,-0.5 537,-30.5 680,-30.5 680,-0.5 537,-0.5"/>
<text text-anchor="start" x="545" y="-18.5" font-family="Helvetica,sans-Serif" font-size="10.00">web::websocket::Transmitter</text>
<text text-anchor="middle" x="608.5" y="-7.5" font-family="Helvetica,sans-Serif" font-size="10.00">::sendFrameData</text>
</a>
</g>
</g>
<!-- Node3&#45;&gt;Node4 -->
<g id="edge3" class="edge">
<title>Node3&#45;&gt;Node4</title>
<path fill="none" stroke="midnightblue" d="M501.22,-15.5C509.57,-15.5 518.14,-15.5 526.62,-15.5"/>
<polygon fill="midnightblue" stroke="midnightblue" points="526.89,-19 536.89,-15.5 526.89,-12 526.89,-19"/>
</g>
</g>
</svg>
