<?xml version="1.0" encoding="UTF-8" standalone="no"?>
<!DOCTYPE svg PUBLIC "-//W3C//DTD SVG 1.1//EN"
 "http://www.w3.org/Graphics/SVG/1.1/DTD/svg11.dtd">
<!-- Generated by graphviz version 2.43.0 (0)
 -->
<!-- Title: express::Router Pages: 1 -->
<svg width="655pt" height="841pt"
 viewBox="0.00 0.00 655.00 841.00" xmlns="http://www.w3.org/2000/svg" xmlns:xlink="http://www.w3.org/1999/xlink">
<g id="graph0" class="graph" transform="scale(1 1) rotate(0) translate(4 837)">
<title>express::Router</title>
<polygon fill="white" stroke="transparent" points="-4,4 -4,-837 651,-837 651,4 -4,4"/>
<!-- Node1 -->
<g id="node1" class="node">
<title>Node1</title>
<g id="a_node1"><a xlink:title=" ">
<polygon fill="#bfbfbf" stroke="black" points="131,-621.5 131,-832.5 226,-832.5 226,-621.5 131,-621.5"/>
<text text-anchor="middle" x="178.5" y="-820.5" font-family="Helvetica,sans-Serif" font-size="10.00">express::Router</text>
<polyline fill="none" stroke="black" points="131,-813.5 226,-813.5 "/>
<text text-anchor="start" x="139" y="-801.5" font-family="Helvetica,sans-Serif" font-size="10.00">&#45; reqestMap</text>
<text text-anchor="start" x="139" y="-790.5" font-family="Helvetica,sans-Serif" font-size="10.00">&#45; responseMap</text>
<text text-anchor="start" x="139" y="-779.5" font-family="Helvetica,sans-Serif" font-size="10.00">&#45; routerDispatcher</text>
<polyline fill="none" stroke="black" points="131,-772.5 226,-772.5 "/>
<text text-anchor="start" x="139" y="-760.5" font-family="Helvetica,sans-Serif" font-size="10.00">+ Router()</text>
<text text-anchor="start" x="139" y="-749.5" font-family="Helvetica,sans-Serif" font-size="10.00">+ Router()</text>
<text text-anchor="start" x="139" y="-738.5" font-family="Helvetica,sans-Serif" font-size="10.00">+ operator=()</text>
<text text-anchor="start" x="139" y="-727.5" font-family="Helvetica,sans-Serif" font-size="10.00">+ use()</text>
<text text-anchor="start" x="139" y="-716.5" font-family="Helvetica,sans-Serif" font-size="10.00">+ use()</text>
<text text-anchor="start" x="139" y="-705.5" font-family="Helvetica,sans-Serif" font-size="10.00">+ use()</text>
<text text-anchor="start" x="139" y="-694.5" font-family="Helvetica,sans-Serif" font-size="10.00">+ use()</text>
<text text-anchor="start" x="139" y="-683.5" font-family="Helvetica,sans-Serif" font-size="10.00">+ use()</text>
<text text-anchor="start" x="139" y="-672.5" font-family="Helvetica,sans-Serif" font-size="10.00">+ use()</text>
<text text-anchor="start" x="139" y="-661.5" font-family="Helvetica,sans-Serif" font-size="10.00">+ all()</text>
<text text-anchor="start" x="139" y="-650.5" font-family="Helvetica,sans-Serif" font-size="10.00">and 59 more...</text>
<text text-anchor="start" x="139" y="-639.5" font-family="Helvetica,sans-Serif" font-size="10.00"># dispatch()</text>
<text text-anchor="start" x="139" y="-628.5" font-family="Helvetica,sans-Serif" font-size="10.00"># completed()</text>
</a>
</g>
</g>
<!-- Node2 -->
<g id="node2" class="node">
<title>Node2</title>
<g id="a_node2"><a xlink:href="classexpress_1_1middleware_1_1_json_middleware.html" target="_top" xlink:title=" ">
<polygon fill="white" stroke="black" points="0,-471.5 0,-572.5 107,-572.5 107,-471.5 0,-471.5"/>
<text text-anchor="start" x="8" y="-560.5" font-family="Helvetica,sans-Serif" font-size="10.00">express::middleware</text>
<text text-anchor="middle" x="53.5" y="-549.5" font-family="Helvetica,sans-Serif" font-size="10.00">::JsonMiddleware</text>
<polyline fill="none" stroke="black" points="0,-542.5 107,-542.5 "/>
<text text-anchor="middle" x="53.5" y="-530.5" font-family="Helvetica,sans-Serif" font-size="10.00"> </text>
<polyline fill="none" stroke="black" points="0,-523.5 107,-523.5 "/>
<text text-anchor="start" x="8" y="-511.5" font-family="Helvetica,sans-Serif" font-size="10.00">+ JsonMiddleware()</text>
<text text-anchor="start" x="8" y="-500.5" font-family="Helvetica,sans-Serif" font-size="10.00">+ operator=()</text>
<text text-anchor="start" x="8" y="-489.5" font-family="Helvetica,sans-Serif" font-size="10.00"># JsonMiddleware()</text>
<text text-anchor="start" x="8" y="-478.5" font-family="Helvetica,sans-Serif" font-size="10.00"># instance()</text>
</a>
</g>
</g>
<!-- Node1&#45;&gt;Node2 -->
<g id="edge1" class="edge">
<title>Node1&#45;&gt;Node2</title>
<path fill="none" stroke="midnightblue" d="M125.5,-639.92C111.33,-616.91 96.49,-592.82 84,-572.53"/>
<polygon fill="none" stroke="midnightblue" points="122.66,-642 130.89,-648.68 128.62,-638.32 122.66,-642"/>
</g>
<!-- Node3 -->
<g id="node3" class="node">
<title>Node3</title>
<g id="a_node3"><a xlink:href="classexpress_1_1middleware_1_1_static_middleware.html" target="_top" xlink:title=" ">
<polygon fill="white" stroke="black" points="125,-471.5 125,-572.5 232,-572.5 232,-471.5 125,-471.5"/>
<text text-anchor="start" x="133" y="-560.5" font-family="Helvetica,sans-Serif" font-size="10.00">express::middleware</text>
<text text-anchor="middle" x="178.5" y="-549.5" font-family="Helvetica,sans-Serif" font-size="10.00">::StaticMiddleware</text>
<polyline fill="none" stroke="black" points="125,-542.5 232,-542.5 "/>
<text text-anchor="start" x="133" y="-530.5" font-family="Helvetica,sans-Serif" font-size="10.00"># root</text>
<polyline fill="none" stroke="black" points="125,-523.5 232,-523.5 "/>
<text text-anchor="start" x="133" y="-511.5" font-family="Helvetica,sans-Serif" font-size="10.00">+ StaticMiddleware()</text>
<text text-anchor="start" x="133" y="-500.5" font-family="Helvetica,sans-Serif" font-size="10.00">+ operator=()</text>
<text text-anchor="start" x="133" y="-489.5" font-family="Helvetica,sans-Serif" font-size="10.00"># StaticMiddleware()</text>
<text text-anchor="start" x="133" y="-478.5" font-family="Helvetica,sans-Serif" font-size="10.00"># instance()</text>
</a>
</g>
</g>
<!-- Node1&#45;&gt;Node3 -->
<g id="edge2" class="edge">
<title>Node1&#45;&gt;Node3</title>
<path fill="none" stroke="midnightblue" d="M178.5,-610.92C178.5,-597.5 178.5,-584.41 178.5,-572.6"/>
<polygon fill="none" stroke="midnightblue" points="175,-611.23 178.5,-621.23 182,-611.23 175,-611.23"/>
</g>
<!-- Node4 -->
<g id="node4" class="node">
<title>Node4</title>
<g id="a_node4"><a xlink:href="classexpress_1_1_web_app.html" target="_top" xlink:title=" ">
<polygon fill="white" stroke="black" points="250.5,-460.5 250.5,-583.5 344.5,-583.5 344.5,-460.5 250.5,-460.5"/>
<text text-anchor="middle" x="297.5" y="-571.5" font-family="Helvetica,sans-Serif" font-size="10.00">express::WebApp</text>
<polyline fill="none" stroke="black" points="250.5,-564.5 344.5,-564.5 "/>
<text text-anchor="start" x="258.5" y="-552.5" font-family="Helvetica,sans-Serif" font-size="10.00">&#45; initialized</text>
<polyline fill="none" stroke="black" points="250.5,-545.5 344.5,-545.5 "/>
<text text-anchor="start" x="258.5" y="-533.5" font-family="Helvetica,sans-Serif" font-size="10.00">+ init()</text>
<text text-anchor="start" x="258.5" y="-522.5" font-family="Helvetica,sans-Serif" font-size="10.00">+ start()</text>
<text text-anchor="start" x="258.5" y="-511.5" font-family="Helvetica,sans-Serif" font-size="10.00">+ stop()</text>
<text text-anchor="start" x="258.5" y="-500.5" font-family="Helvetica,sans-Serif" font-size="10.00"># WebApp()</text>
<text text-anchor="start" x="258.5" y="-489.5" font-family="Helvetica,sans-Serif" font-size="10.00"># WebApp()</text>
<text text-anchor="start" x="258.5" y="-478.5" font-family="Helvetica,sans-Serif" font-size="10.00"># listen()</text>
<text text-anchor="start" x="258.5" y="-467.5" font-family="Helvetica,sans-Serif" font-size="10.00"># listen()</text>
</a>
</g>
</g>
<!-- Node1&#45;&gt;Node4 -->
<g id="edge3" class="edge">
<title>Node1&#45;&gt;Node4</title>
<path fill="none" stroke="midnightblue" d="M231.13,-636.22C241.55,-618.44 252.26,-600.18 261.95,-583.65"/>
<polygon fill="none" stroke="midnightblue" points="228.08,-634.5 226.04,-644.89 234.12,-638.04 228.08,-634.5"/>
</g>
<!-- Node5 -->
<g id="node5" class="node">
<title>Node5</title>
<g id="a_node5"><a xlink:href="classexpress_1_1_web_app_t.html" target="_top" xlink:title=" ">
<polygon fill="white" stroke="black" points="221.5,-288.5 221.5,-422.5 373.5,-422.5 373.5,-288.5 221.5,-288.5"/>
<text text-anchor="middle" x="297.5" y="-410.5" font-family="Helvetica,sans-Serif" font-size="10.00">express::WebAppT&lt; ServerT &gt;</text>
<polyline fill="none" stroke="black" points="221.5,-403.5 373.5,-403.5 "/>
<text text-anchor="start" x="229.5" y="-391.5" font-family="Helvetica,sans-Serif" font-size="10.00"># server</text>
<text text-anchor="start" x="229.5" y="-380.5" font-family="Helvetica,sans-Serif" font-size="10.00"># _onConnect</text>
<text text-anchor="start" x="229.5" y="-369.5" font-family="Helvetica,sans-Serif" font-size="10.00"># _onDisconnect</text>
<polyline fill="none" stroke="black" points="221.5,-362.5 373.5,-362.5 "/>
<text text-anchor="start" x="229.5" y="-350.5" font-family="Helvetica,sans-Serif" font-size="10.00">+ WebAppT()</text>
<text text-anchor="start" x="229.5" y="-339.5" font-family="Helvetica,sans-Serif" font-size="10.00">+ WebAppT()</text>
<text text-anchor="start" x="229.5" y="-328.5" font-family="Helvetica,sans-Serif" font-size="10.00">+ listen()</text>
<text text-anchor="start" x="229.5" y="-317.5" font-family="Helvetica,sans-Serif" font-size="10.00">+ listen()</text>
<text text-anchor="start" x="229.5" y="-306.5" font-family="Helvetica,sans-Serif" font-size="10.00">+ onConnect()</text>
<text text-anchor="start" x="229.5" y="-295.5" font-family="Helvetica,sans-Serif" font-size="10.00">+ onDisconnect()</text>
</a>
</g>
</g>
<!-- Node4&#45;&gt;Node5 -->
<g id="edge4" class="edge">
<title>Node4&#45;&gt;Node5</title>
<path fill="none" stroke="midnightblue" d="M297.5,-450.02C297.5,-440.91 297.5,-431.6 297.5,-422.57"/>
<polygon fill="none" stroke="midnightblue" points="294,-450.21 297.5,-460.21 301,-450.21 294,-450.21"/>
</g>
<!-- Node6 -->
<g id="node6" class="node">
<title>Node6</title>
<g id="a_node6"><a xlink:href="classexpress_1_1_web_app_t.html" target="_top" xlink:title=" ">
<polygon fill="white" stroke="black" points="160,-95.5 160,-240.5 285,-240.5 285,-95.5 160,-95.5"/>
<text text-anchor="start" x="168" y="-228.5" font-family="Helvetica,sans-Serif" font-size="10.00">express::WebAppT&lt; http</text>
<text text-anchor="middle" x="222.5" y="-217.5" font-family="Helvetica,sans-Serif" font-size="10.00">::tls::Server &gt;</text>
<polyline fill="none" stroke="black" points="160,-210.5 285,-210.5 "/>
<text text-anchor="start" x="168" y="-198.5" font-family="Helvetica,sans-Serif" font-size="10.00"># server</text>
<text text-anchor="start" x="168" y="-187.5" font-family="Helvetica,sans-Serif" font-size="10.00"># _onConnect</text>
<text text-anchor="start" x="168" y="-176.5" font-family="Helvetica,sans-Serif" font-size="10.00"># _onDisconnect</text>
<polyline fill="none" stroke="black" points="160,-169.5 285,-169.5 "/>
<text text-anchor="start" x="168" y="-157.5" font-family="Helvetica,sans-Serif" font-size="10.00">+ WebAppT()</text>
<text text-anchor="start" x="168" y="-146.5" font-family="Helvetica,sans-Serif" font-size="10.00">+ WebAppT()</text>
<text text-anchor="start" x="168" y="-135.5" font-family="Helvetica,sans-Serif" font-size="10.00">+ listen()</text>
<text text-anchor="start" x="168" y="-124.5" font-family="Helvetica,sans-Serif" font-size="10.00">+ listen()</text>
<text text-anchor="start" x="168" y="-113.5" font-family="Helvetica,sans-Serif" font-size="10.00">+ onConnect()</text>
<text text-anchor="start" x="168" y="-102.5" font-family="Helvetica,sans-Serif" font-size="10.00">+ onDisconnect()</text>
</a>
</g>
</g>
<!-- Node4&#45;&gt;Node6 -->
<g id="edge15" class="edge">
<title>Node4&#45;&gt;Node6</title>
<path fill="none" stroke="midnightblue" d="M243.73,-461.86C233.03,-449.32 222.13,-435.94 212.5,-423 164.43,-358.41 137.95,-347.32 115.5,-270 114.14,-265.3 113.41,-263.42 115.5,-259 120.91,-247.58 127.79,-249.08 137.5,-241 144.78,-234.94 152.39,-228.56 159.94,-222.2"/>
<polygon fill="none" stroke="midnightblue" points="241.18,-464.26 250.35,-469.56 246.48,-459.7 241.18,-464.26"/>
</g>
<!-- Node8 -->
<g id="node8" class="node">
<title>Node8</title>
<g id="a_node8"><a xlink:href="classexpress_1_1_web_app_t.html" target="_top" xlink:title=" ">
<polygon fill="white" stroke="black" points="4,-95.5 4,-240.5 129,-240.5 129,-95.5 4,-95.5"/>
<text text-anchor="start" x="12" y="-228.5" font-family="Helvetica,sans-Serif" font-size="10.00">express::WebAppT&lt; http</text>
<text text-anchor="middle" x="66.5" y="-217.5" font-family="Helvetica,sans-Serif" font-size="10.00">::legacy::Server &gt;</text>
<polyline fill="none" stroke="black" points="4,-210.5 129,-210.5 "/>
<text text-anchor="start" x="12" y="-198.5" font-family="Helvetica,sans-Serif" font-size="10.00"># server</text>
<text text-anchor="start" x="12" y="-187.5" font-family="Helvetica,sans-Serif" font-size="10.00"># _onConnect</text>
<text text-anchor="start" x="12" y="-176.5" font-family="Helvetica,sans-Serif" font-size="10.00"># _onDisconnect</text>
<polyline fill="none" stroke="black" points="4,-169.5 129,-169.5 "/>
<text text-anchor="start" x="12" y="-157.5" font-family="Helvetica,sans-Serif" font-size="10.00">+ WebAppT()</text>
<text text-anchor="start" x="12" y="-146.5" font-family="Helvetica,sans-Serif" font-size="10.00">+ WebAppT()</text>
<text text-anchor="start" x="12" y="-135.5" font-family="Helvetica,sans-Serif" font-size="10.00">+ listen()</text>
<text text-anchor="start" x="12" y="-124.5" font-family="Helvetica,sans-Serif" font-size="10.00">+ listen()</text>
<text text-anchor="start" x="12" y="-113.5" font-family="Helvetica,sans-Serif" font-size="10.00">+ onConnect()</text>
<text text-anchor="start" x="12" y="-102.5" font-family="Helvetica,sans-Serif" font-size="10.00">+ onDisconnect()</text>
</a>
</g>
</g>
<!-- Node4&#45;&gt;Node8 -->
<g id="edge13" class="edge">
<title>Node4&#45;&gt;Node8</title>
<path fill="none" stroke="midnightblue" d="M242.05,-460.99C241.54,-460.65 241.02,-460.32 240.5,-460 192.4,-430.05 156.67,-464.88 118.5,-423 73.77,-373.93 63.33,-297.09 62.5,-240.76"/>
<polygon fill="none" stroke="midnightblue" points="240.08,-463.88 250.24,-466.86 244.15,-458.19 240.08,-463.88"/>
</g>
<!-- Node10 -->
<g id="node10" class="node">
<title>Node10</title>
<g id="a_node10"><a xlink:href="classexpress_1_1_web_app_t.html" target="_top" xlink:title=" ">
<polygon fill="white" stroke="black" points="522,-95.5 522,-240.5 647,-240.5 647,-95.5 522,-95.5"/>
<text text-anchor="start" x="530" y="-228.5" font-family="Helvetica,sans-Serif" font-size="10.00">express::WebAppT&lt; http</text>
<text text-anchor="middle" x="584.5" y="-217.5" font-family="Helvetica,sans-Serif" font-size="10.00">::tls::Server6 &gt;</text>
<polyline fill="none" stroke="black" points="522,-210.5 647,-210.5 "/>
<text text-anchor="start" x="530" y="-198.5" font-family="Helvetica,sans-Serif" font-size="10.00"># server</text>
<text text-anchor="start" x="530" y="-187.5" font-family="Helvetica,sans-Serif" font-size="10.00"># _onConnect</text>
<text text-anchor="start" x="530" y="-176.5" font-family="Helvetica,sans-Serif" font-size="10.00"># _onDisconnect</text>
<polyline fill="none" stroke="black" points="522,-169.5 647,-169.5 "/>
<text text-anchor="start" x="530" y="-157.5" font-family="Helvetica,sans-Serif" font-size="10.00">+ WebAppT()</text>
<text text-anchor="start" x="530" y="-146.5" font-family="Helvetica,sans-Serif" font-size="10.00">+ WebAppT()</text>
<text text-anchor="start" x="530" y="-135.5" font-family="Helvetica,sans-Serif" font-size="10.00">+ listen()</text>
<text text-anchor="start" x="530" y="-124.5" font-family="Helvetica,sans-Serif" font-size="10.00">+ listen()</text>
<text text-anchor="start" x="530" y="-113.5" font-family="Helvetica,sans-Serif" font-size="10.00">+ onConnect()</text>
<text text-anchor="start" x="530" y="-102.5" font-family="Helvetica,sans-Serif" font-size="10.00">+ onDisconnect()</text>
</a>
</g>
</g>
<!-- Node4&#45;&gt;Node10 -->
<g id="edge16" class="edge">
<title>Node4&#45;&gt;Node10</title>
<path fill="none" stroke="midnightblue" d="M354.33,-507.94C402.76,-494.17 471.36,-468.07 515.5,-423 567.2,-370.22 564.33,-342.09 580.5,-270 582.61,-260.58 584,-250.55 584.88,-240.6"/>
<polygon fill="none" stroke="midnightblue" points="353.33,-504.58 344.62,-510.61 355.19,-511.33 353.33,-504.58"/>
</g>
<!-- Node12 -->
<g id="node12" class="node">
<title>Node12</title>
<g id="a_node12"><a xlink:href="classexpress_1_1_web_app_t.html" target="_top" xlink:title=" ">
<polygon fill="white" stroke="black" points="310,-95.5 310,-240.5 435,-240.5 435,-95.5 310,-95.5"/>
<text text-anchor="start" x="318" y="-228.5" font-family="Helvetica,sans-Serif" font-size="10.00">express::WebAppT&lt; http</text>
<text text-anchor="middle" x="372.5" y="-217.5" font-family="Helvetica,sans-Serif" font-size="10.00">::legacy::Server6 &gt;</text>
<polyline fill="none" stroke="black" points="310,-210.5 435,-210.5 "/>
<text text-anchor="start" x="318" y="-198.5" font-family="Helvetica,sans-Serif" font-size="10.00"># server</text>
<text text-anchor="start" x="318" y="-187.5" font-family="Helvetica,sans-Serif" font-size="10.00"># _onConnect</text>
<text text-anchor="start" x="318" y="-176.5" font-family="Helvetica,sans-Serif" font-size="10.00"># _onDisconnect</text>
<polyline fill="none" stroke="black" points="310,-169.5 435,-169.5 "/>
<text text-anchor="start" x="318" y="-157.5" font-family="Helvetica,sans-Serif" font-size="10.00">+ WebAppT()</text>
<text text-anchor="start" x="318" y="-146.5" font-family="Helvetica,sans-Serif" font-size="10.00">+ WebAppT()</text>
<text text-anchor="start" x="318" y="-135.5" font-family="Helvetica,sans-Serif" font-size="10.00">+ listen()</text>
<text text-anchor="start" x="318" y="-124.5" font-family="Helvetica,sans-Serif" font-size="10.00">+ listen()</text>
<text text-anchor="start" x="318" y="-113.5" font-family="Helvetica,sans-Serif" font-size="10.00">+ onConnect()</text>
<text text-anchor="start" x="318" y="-102.5" font-family="Helvetica,sans-Serif" font-size="10.00">+ onDisconnect()</text>
</a>
</g>
</g>
<!-- Node4&#45;&gt;Node12 -->
<g id="edge14" class="edge">
<title>Node4&#45;&gt;Node12</title>
<path fill="none" stroke="midnightblue" d="M353.19,-488.8C418.22,-447.59 522.37,-369.49 565.5,-270 567.44,-265.51 568.35,-262.97 565.5,-259 551.01,-238.78 535.4,-250.72 512.5,-241 486.71,-230.06 459.13,-216.34 435.32,-203.82"/>
<polygon fill="none" stroke="midnightblue" points="351.3,-485.85 344.68,-494.12 355.01,-491.79 351.3,-485.85"/>
</g>
<!-- Node5&#45;&gt;Node6 -->
<g id="edge5" class="edge">
<title>Node5&#45;&gt;Node6</title>
<path fill="none" stroke="orange" d="M246.59,-279.25C245.12,-276.17 243.75,-273.08 242.5,-270 238.73,-260.73 235.65,-250.68 233.14,-240.64"/>
<polygon fill="orange" stroke="orange" points="243.59,-281.09 251.23,-288.44 249.84,-277.93 243.59,-281.09"/>
<text text-anchor="middle" x="287" y="-262" font-family="Helvetica,sans-Serif" font-size="10.00"> &lt; http::tls::Server &gt;</text>
</g>
<!-- Node5&#45;&gt;Node8 -->
<g id="edge7" class="edge">
<title>Node5&#45;&gt;Node8</title>
<path fill="none" stroke="orange" d="M212.01,-323C183.3,-309.64 152.5,-292 128.5,-270 119.17,-261.45 110.75,-251.18 103.33,-240.51"/>
<polygon fill="orange" stroke="orange" points="210.69,-326.25 221.25,-327.19 213.58,-319.87 210.69,-326.25"/>
<text text-anchor="middle" x="182" y="-262" font-family="Helvetica,sans-Serif" font-size="10.00"> &lt; http::legacy::Server &gt;</text>
</g>
<!-- Node5&#45;&gt;Node10 -->
<g id="edge9" class="edge">
<title>Node5&#45;&gt;Node10</title>
<path fill="none" stroke="orange" d="M382.58,-310.73C405.36,-298.23 429.71,-284.14 451.5,-270 475.21,-254.61 500.16,-236.29 521.95,-219.51"/>
<polygon fill="orange" stroke="orange" points="380.71,-307.77 373.6,-315.63 384.06,-313.92 380.71,-307.77"/>
<text text-anchor="middle" x="514.5" y="-262" font-family="Helvetica,sans-Serif" font-size="10.00"> &lt; http::tls::Server6 &gt;</text>
</g>
<!-- Node5&#45;&gt;Node12 -->
<g id="edge11" class="edge">
<title>Node5&#45;&gt;Node12</title>
<path fill="none" stroke="orange" d="M328.13,-278.75C333.24,-266.11 338.52,-253.03 343.59,-240.5"/>
<polygon fill="orange" stroke="orange" points="324.76,-277.73 324.26,-288.32 331.25,-280.36 324.76,-277.73"/>
<text text-anchor="middle" x="391.5" y="-262" font-family="Helvetica,sans-Serif" font-size="10.00"> &lt; http::legacy::Server6 &gt;</text>
</g>
<!-- Node7 -->
<g id="node7" class="node">
<title>Node7</title>
<g id="a_node7"><a xlink:href="classexpress_1_1tls_1_1_web_app.html" target="_top" xlink:title=" ">
<polygon fill="white" stroke="black" points="167.5,-0.5 167.5,-57.5 277.5,-57.5 277.5,-0.5 167.5,-0.5"/>
<text text-anchor="middle" x="222.5" y="-45.5" font-family="Helvetica,sans-Serif" font-size="10.00">express::tls::WebApp</text>
<polyline fill="none" stroke="black" points="167.5,-38.5 277.5,-38.5 "/>
<text text-anchor="middle" x="222.5" y="-26.5" font-family="Helvetica,sans-Serif" font-size="10.00"> </text>
<polyline fill="none" stroke="black" points="167.5,-19.5 277.5,-19.5 "/>
<text text-anchor="middle" x="222.5" y="-7.5" font-family="Helvetica,sans-Serif" font-size="10.00"> </text>
</a>
</g>
</g>
<!-- Node6&#45;&gt;Node7 -->
<g id="edge6" class="edge">
<title>Node6&#45;&gt;Node7</title>
<path fill="none" stroke="midnightblue" d="M222.5,-85.04C222.5,-75.31 222.5,-65.95 222.5,-57.8"/>
<polygon fill="none" stroke="midnightblue" points="219,-85.29 222.5,-95.29 226,-85.29 219,-85.29"/>
</g>
<!-- Node9 -->
<g id="node9" class="node">
<title>Node9</title>
<g id="a_node9"><a xlink:href="classexpress_1_1legacy_1_1_web_app.html" target="_top" xlink:title=" ">
<polygon fill="white" stroke="black" points="2.5,-0.5 2.5,-57.5 130.5,-57.5 130.5,-0.5 2.5,-0.5"/>
<text text-anchor="middle" x="66.5" y="-45.5" font-family="Helvetica,sans-Serif" font-size="10.00">express::legacy::WebApp</text>
<polyline fill="none" stroke="black" points="2.5,-38.5 130.5,-38.5 "/>
<text text-anchor="middle" x="66.5" y="-26.5" font-family="Helvetica,sans-Serif" font-size="10.00"> </text>
<polyline fill="none" stroke="black" points="2.5,-19.5 130.5,-19.5 "/>
<text text-anchor="middle" x="66.5" y="-7.5" font-family="Helvetica,sans-Serif" font-size="10.00"> </text>
</a>
</g>
</g>
<!-- Node8&#45;&gt;Node9 -->
<g id="edge8" class="edge">
<title>Node8&#45;&gt;Node9</title>
<path fill="none" stroke="midnightblue" d="M66.5,-85.04C66.5,-75.31 66.5,-65.95 66.5,-57.8"/>
<polygon fill="none" stroke="midnightblue" points="63,-85.29 66.5,-95.29 70,-85.29 63,-85.29"/>
</g>
<!-- Node11 -->
<g id="node11" class="node">
<title>Node11</title>
<g id="a_node11"><a xlink:href="classexpress_1_1tls_1_1_web_app6.html" target="_top" xlink:title=" ">
<polygon fill="white" stroke="black" points="526.5,-0.5 526.5,-57.5 642.5,-57.5 642.5,-0.5 526.5,-0.5"/>
<text text-anchor="middle" x="584.5" y="-45.5" font-family="Helvetica,sans-Serif" font-size="10.00">express::tls::WebApp6</text>
<polyline fill="none" stroke="black" points="526.5,-38.5 642.5,-38.5 "/>
<text text-anchor="middle" x="584.5" y="-26.5" font-family="Helvetica,sans-Serif" font-size="10.00"> </text>
<polyline fill="none" stroke="black" points="526.5,-19.5 642.5,-19.5 "/>
<text text-anchor="middle" x="584.5" y="-7.5" font-family="Helvetica,sans-Serif" font-size="10.00"> </text>
</a>
</g>
</g>
<!-- Node10&#45;&gt;Node11 -->
<g id="edge10" class="edge">
<title>Node10&#45;&gt;Node11</title>
<path fill="none" stroke="midnightblue" d="M584.5,-85.04C584.5,-75.31 584.5,-65.95 584.5,-57.8"/>
<polygon fill="none" stroke="midnightblue" points="581,-85.29 584.5,-95.29 588,-85.29 581,-85.29"/>
</g>
<!-- Node13 -->
<g id="node13" class="node">
<title>Node13</title>
<g id="a_node13"><a xlink:href="classexpress_1_1legacy_1_1_web_app6.html" target="_top" xlink:title=" ">
<polygon fill="white" stroke="black" points="305.5,-0.5 305.5,-57.5 439.5,-57.5 439.5,-0.5 305.5,-0.5"/>
<text text-anchor="middle" x="372.5" y="-45.5" font-family="Helvetica,sans-Serif" font-size="10.00">express::legacy::WebApp6</text>
<polyline fill="none" stroke="black" points="305.5,-38.5 439.5,-38.5 "/>
<text text-anchor="middle" x="372.5" y="-26.5" font-family="Helvetica,sans-Serif" font-size="10.00"> </text>
<polyline fill="none" stroke="black" points="305.5,-19.5 439.5,-19.5 "/>
<text text-anchor="middle" x="372.5" y="-7.5" font-family="Helvetica,sans-Serif" font-size="10.00"> </text>
</a>
</g>
</g>
<!-- Node12&#45;&gt;Node13 -->
<g id="edge12" class="edge">
<title>Node12&#45;&gt;Node13</title>
<path fill="none" stroke="midnightblue" d="M372.5,-85.04C372.5,-75.31 372.5,-65.95 372.5,-57.8"/>
<polygon fill="none" stroke="midnightblue" points="369,-85.29 372.5,-95.29 376,-85.29 369,-85.29"/>
</g>
</g>
</svg>
