<?xml version="1.0" encoding="UTF-8" standalone="no"?>
<!DOCTYPE svg PUBLIC "-//W3C//DTD SVG 1.1//EN"
 "http://www.w3.org/Graphics/SVG/1.1/DTD/svg11.dtd">
<!-- Generated by graphviz version 2.43.0 (0)
 -->
<!-- Title: net::socket::stream::SocketServer&lt; SocketListenerT &gt; Pages: 1 -->
<svg width="879pt" height="1227pt"
 viewBox="0.00 0.00 879.00 1227.00" xmlns="http://www.w3.org/2000/svg" xmlns:xlink="http://www.w3.org/1999/xlink">
<g id="graph0" class="graph" transform="scale(1 1) rotate(0) translate(4 1223)">
<title>net::socket::stream::SocketServer&lt; SocketListenerT &gt;</title>
<polygon fill="white" stroke="transparent" points="-4,4 -4,-1223 875,-1223 875,4 -4,4"/>
<!-- Node1 -->
<g id="node1" class="node">
<title>Node1</title>
<g id="a_node1"><a xlink:title=" ">
<polygon fill="#bfbfbf" stroke="black" points="286.5,-1018.5 286.5,-1218.5 457.5,-1218.5 457.5,-1018.5 286.5,-1018.5"/>
<text text-anchor="start" x="294.5" y="-1206.5" font-family="Helvetica,sans-Serif" font-size="10.00">net::socket::stream</text>
<text text-anchor="middle" x="372" y="-1195.5" font-family="Helvetica,sans-Serif" font-size="10.00">::SocketServer&lt; SocketListenerT &gt;</text>
<polyline fill="none" stroke="black" points="286.5,-1188.5 457.5,-1188.5 "/>
<text text-anchor="start" x="294.5" y="-1176.5" font-family="Helvetica,sans-Serif" font-size="10.00"># options</text>
<text text-anchor="start" x="294.5" y="-1165.5" font-family="Helvetica,sans-Serif" font-size="10.00">&#45; onConstruct</text>
<text text-anchor="start" x="294.5" y="-1154.5" font-family="Helvetica,sans-Serif" font-size="10.00">&#45; onDestruct</text>
<text text-anchor="start" x="294.5" y="-1143.5" font-family="Helvetica,sans-Serif" font-size="10.00">&#45; onConnect</text>
<text text-anchor="start" x="294.5" y="-1132.5" font-family="Helvetica,sans-Serif" font-size="10.00">&#45; onDisconnect</text>
<text text-anchor="start" x="294.5" y="-1121.5" font-family="Helvetica,sans-Serif" font-size="10.00">&#45; onRead</text>
<text text-anchor="start" x="294.5" y="-1110.5" font-family="Helvetica,sans-Serif" font-size="10.00">&#45; onReadError</text>
<text text-anchor="start" x="294.5" y="-1099.5" font-family="Helvetica,sans-Serif" font-size="10.00">&#45; onWriteError</text>
<polyline fill="none" stroke="black" points="286.5,-1092.5 457.5,-1092.5 "/>
<text text-anchor="start" x="294.5" y="-1080.5" font-family="Helvetica,sans-Serif" font-size="10.00">+ SocketServer()</text>
<text text-anchor="start" x="294.5" y="-1069.5" font-family="Helvetica,sans-Serif" font-size="10.00">+ SocketServer()</text>
<text text-anchor="start" x="294.5" y="-1058.5" font-family="Helvetica,sans-Serif" font-size="10.00">+ ~SocketServer()</text>
<text text-anchor="start" x="294.5" y="-1047.5" font-family="Helvetica,sans-Serif" font-size="10.00">+ listen()</text>
<text text-anchor="start" x="294.5" y="-1036.5" font-family="Helvetica,sans-Serif" font-size="10.00">+ listen()</text>
<text text-anchor="start" x="294.5" y="-1025.5" font-family="Helvetica,sans-Serif" font-size="10.00">+ listen()</text>
</a>
</g>
</g>
<!-- Node2 -->
<g id="node2" class="node">
<title>Node2</title>
<g id="a_node2"><a xlink:href="classnet_1_1socket_1_1stream_1_1_socket_server.html" target="_top" xlink:title=" ">
<polygon fill="white" stroke="black" points="0,-496.5 0,-718.5 150,-718.5 150,-496.5 0,-496.5"/>
<text text-anchor="start" x="8" y="-706.5" font-family="Helvetica,sans-Serif" font-size="10.00">net::socket::stream</text>
<text text-anchor="start" x="8" y="-695.5" font-family="Helvetica,sans-Serif" font-size="10.00">::SocketServer&lt; tls</text>
<text text-anchor="start" x="8" y="-684.5" font-family="Helvetica,sans-Serif" font-size="10.00">::SocketListener&lt; net</text>
<text text-anchor="middle" x="75" y="-673.5" font-family="Helvetica,sans-Serif" font-size="10.00">::socket::ipv6::tcp::Socket &gt; &gt;</text>
<polyline fill="none" stroke="black" points="0,-666.5 150,-666.5 "/>
<text text-anchor="start" x="8" y="-654.5" font-family="Helvetica,sans-Serif" font-size="10.00"># options</text>
<text text-anchor="start" x="8" y="-643.5" font-family="Helvetica,sans-Serif" font-size="10.00">&#45; onConstruct</text>
<text text-anchor="start" x="8" y="-632.5" font-family="Helvetica,sans-Serif" font-size="10.00">&#45; onDestruct</text>
<text text-anchor="start" x="8" y="-621.5" font-family="Helvetica,sans-Serif" font-size="10.00">&#45; onConnect</text>
<text text-anchor="start" x="8" y="-610.5" font-family="Helvetica,sans-Serif" font-size="10.00">&#45; onDisconnect</text>
<text text-anchor="start" x="8" y="-599.5" font-family="Helvetica,sans-Serif" font-size="10.00">&#45; onRead</text>
<text text-anchor="start" x="8" y="-588.5" font-family="Helvetica,sans-Serif" font-size="10.00">&#45; onReadError</text>
<text text-anchor="start" x="8" y="-577.5" font-family="Helvetica,sans-Serif" font-size="10.00">&#45; onWriteError</text>
<polyline fill="none" stroke="black" points="0,-570.5 150,-570.5 "/>
<text text-anchor="start" x="8" y="-558.5" font-family="Helvetica,sans-Serif" font-size="10.00">+ SocketServer()</text>
<text text-anchor="start" x="8" y="-547.5" font-family="Helvetica,sans-Serif" font-size="10.00">+ SocketServer()</text>
<text text-anchor="start" x="8" y="-536.5" font-family="Helvetica,sans-Serif" font-size="10.00">+ ~SocketServer()</text>
<text text-anchor="start" x="8" y="-525.5" font-family="Helvetica,sans-Serif" font-size="10.00">+ listen()</text>
<text text-anchor="start" x="8" y="-514.5" font-family="Helvetica,sans-Serif" font-size="10.00">+ listen()</text>
<text text-anchor="start" x="8" y="-503.5" font-family="Helvetica,sans-Serif" font-size="10.00">+ listen()</text>
</a>
</g>
</g>
<!-- Node1&#45;&gt;Node2 -->
<g id="edge1" class="edge">
<title>Node1&#45;&gt;Node2</title>
<path fill="none" stroke="orange" d="M276.18,-1104.61C211.85,-1090.5 131.38,-1061.1 89,-1000 32.59,-918.69 35.78,-803.34 49.05,-718.91"/>
<polygon fill="orange" stroke="orange" points="275.85,-1108.12 286.35,-1106.75 277.28,-1101.27 275.85,-1108.12"/>
<text text-anchor="start" x="89" y="-992" font-family="Helvetica,sans-Serif" font-size="10.00"> &lt; tls::SocketListener</text>
<text text-anchor="start" x="89" y="-981" font-family="Helvetica,sans-Serif" font-size="10.00">&lt; net::socket::ipv6::</text>
<text text-anchor="middle" x="136" y="-970" font-family="Helvetica,sans-Serif" font-size="10.00">tcp::Socket &gt; &gt;</text>
</g>
<!-- Node5 -->
<g id="node5" class="node">
<title>Node5</title>
<g id="a_node5"><a xlink:href="classnet_1_1socket_1_1stream_1_1_socket_server.html" target="_top" xlink:title=" ">
<polygon fill="white" stroke="black" points="386,-496.5 386,-718.5 536,-718.5 536,-496.5 386,-496.5"/>
<text text-anchor="start" x="394" y="-706.5" font-family="Helvetica,sans-Serif" font-size="10.00">net::socket::stream</text>
<text text-anchor="start" x="394" y="-695.5" font-family="Helvetica,sans-Serif" font-size="10.00">::SocketServer&lt; legacy</text>
<text text-anchor="start" x="394" y="-684.5" font-family="Helvetica,sans-Serif" font-size="10.00">::SocketListener&lt; net</text>
<text text-anchor="middle" x="461" y="-673.5" font-family="Helvetica,sans-Serif" font-size="10.00">::socket::ipv4::tcp::Socket &gt; &gt;</text>
<polyline fill="none" stroke="black" points="386,-666.5 536,-666.5 "/>
<text text-anchor="start" x="394" y="-654.5" font-family="Helvetica,sans-Serif" font-size="10.00"># options</text>
<text text-anchor="start" x="394" y="-643.5" font-family="Helvetica,sans-Serif" font-size="10.00">&#45; onConstruct</text>
<text text-anchor="start" x="394" y="-632.5" font-family="Helvetica,sans-Serif" font-size="10.00">&#45; onDestruct</text>
<text text-anchor="start" x="394" y="-621.5" font-family="Helvetica,sans-Serif" font-size="10.00">&#45; onConnect</text>
<text text-anchor="start" x="394" y="-610.5" font-family="Helvetica,sans-Serif" font-size="10.00">&#45; onDisconnect</text>
<text text-anchor="start" x="394" y="-599.5" font-family="Helvetica,sans-Serif" font-size="10.00">&#45; onRead</text>
<text text-anchor="start" x="394" y="-588.5" font-family="Helvetica,sans-Serif" font-size="10.00">&#45; onReadError</text>
<text text-anchor="start" x="394" y="-577.5" font-family="Helvetica,sans-Serif" font-size="10.00">&#45; onWriteError</text>
<polyline fill="none" stroke="black" points="386,-570.5 536,-570.5 "/>
<text text-anchor="start" x="394" y="-558.5" font-family="Helvetica,sans-Serif" font-size="10.00">+ SocketServer()</text>
<text text-anchor="start" x="394" y="-547.5" font-family="Helvetica,sans-Serif" font-size="10.00">+ SocketServer()</text>
<text text-anchor="start" x="394" y="-536.5" font-family="Helvetica,sans-Serif" font-size="10.00">+ ~SocketServer()</text>
<text text-anchor="start" x="394" y="-525.5" font-family="Helvetica,sans-Serif" font-size="10.00">+ listen()</text>
<text text-anchor="start" x="394" y="-514.5" font-family="Helvetica,sans-Serif" font-size="10.00">+ listen()</text>
<text text-anchor="start" x="394" y="-503.5" font-family="Helvetica,sans-Serif" font-size="10.00">+ listen()</text>
</a>
</g>
</g>
<!-- Node1&#45;&gt;Node5 -->
<g id="edge4" class="edge">
<title>Node1&#45;&gt;Node5</title>
<path fill="none" stroke="orange" d="M407,-1008.59C407.7,-1005.71 408.37,-1002.84 409,-1000 429.85,-906.12 443.46,-797.6 451.51,-718.66"/>
<polygon fill="orange" stroke="orange" points="403.56,-1007.91 404.51,-1018.46 410.35,-1009.62 403.56,-1007.91"/>
<text text-anchor="start" x="416" y="-992" font-family="Helvetica,sans-Serif" font-size="10.00"> &lt; legacy::SocketListener</text>
<text text-anchor="start" x="416" y="-981" font-family="Helvetica,sans-Serif" font-size="10.00">&lt; net::socket::ipv4::tcp</text>
<text text-anchor="middle" x="472" y="-970" font-family="Helvetica,sans-Serif" font-size="10.00">::Socket &gt; &gt;</text>
</g>
<!-- Node8 -->
<g id="node8" class="node">
<title>Node8</title>
<g id="a_node8"><a xlink:href="classnet_1_1socket_1_1stream_1_1_socket_server.html" target="_top" xlink:title=" ">
<polygon fill="white" stroke="black" points="231,-496.5 231,-718.5 381,-718.5 381,-496.5 231,-496.5"/>
<text text-anchor="start" x="239" y="-706.5" font-family="Helvetica,sans-Serif" font-size="10.00">net::socket::stream</text>
<text text-anchor="start" x="239" y="-695.5" font-family="Helvetica,sans-Serif" font-size="10.00">::SocketServer&lt; tls</text>
<text text-anchor="start" x="239" y="-684.5" font-family="Helvetica,sans-Serif" font-size="10.00">::SocketListener&lt; net</text>
<text text-anchor="middle" x="306" y="-673.5" font-family="Helvetica,sans-Serif" font-size="10.00">::socket::ipv4::tcp::Socket &gt; &gt;</text>
<polyline fill="none" stroke="black" points="231,-666.5 381,-666.5 "/>
<text text-anchor="start" x="239" y="-654.5" font-family="Helvetica,sans-Serif" font-size="10.00"># options</text>
<text text-anchor="start" x="239" y="-643.5" font-family="Helvetica,sans-Serif" font-size="10.00">&#45; onConstruct</text>
<text text-anchor="start" x="239" y="-632.5" font-family="Helvetica,sans-Serif" font-size="10.00">&#45; onDestruct</text>
<text text-anchor="start" x="239" y="-621.5" font-family="Helvetica,sans-Serif" font-size="10.00">&#45; onConnect</text>
<text text-anchor="start" x="239" y="-610.5" font-family="Helvetica,sans-Serif" font-size="10.00">&#45; onDisconnect</text>
<text text-anchor="start" x="239" y="-599.5" font-family="Helvetica,sans-Serif" font-size="10.00">&#45; onRead</text>
<text text-anchor="start" x="239" y="-588.5" font-family="Helvetica,sans-Serif" font-size="10.00">&#45; onReadError</text>
<text text-anchor="start" x="239" y="-577.5" font-family="Helvetica,sans-Serif" font-size="10.00">&#45; onWriteError</text>
<polyline fill="none" stroke="black" points="231,-570.5 381,-570.5 "/>
<text text-anchor="start" x="239" y="-558.5" font-family="Helvetica,sans-Serif" font-size="10.00">+ SocketServer()</text>
<text text-anchor="start" x="239" y="-547.5" font-family="Helvetica,sans-Serif" font-size="10.00">+ SocketServer()</text>
<text text-anchor="start" x="239" y="-536.5" font-family="Helvetica,sans-Serif" font-size="10.00">+ ~SocketServer()</text>
<text text-anchor="start" x="239" y="-525.5" font-family="Helvetica,sans-Serif" font-size="10.00">+ listen()</text>
<text text-anchor="start" x="239" y="-514.5" font-family="Helvetica,sans-Serif" font-size="10.00">+ listen()</text>
<text text-anchor="start" x="239" y="-503.5" font-family="Helvetica,sans-Serif" font-size="10.00">+ listen()</text>
</a>
</g>
</g>
<!-- Node1&#45;&gt;Node8 -->
<g id="edge7" class="edge">
<title>Node1&#45;&gt;Node8</title>
<path fill="none" stroke="orange" d="M317.28,-1008.55C316.45,-1005.69 315.69,-1002.84 315,-1000 292.5,-906.99 292.02,-797.91 296.15,-718.55"/>
<polygon fill="orange" stroke="orange" points="313.99,-1009.77 320.34,-1018.26 320.67,-1007.67 313.99,-1009.77"/>
<text text-anchor="start" x="315" y="-992" font-family="Helvetica,sans-Serif" font-size="10.00"> &lt; tls::SocketListener</text>
<text text-anchor="start" x="315" y="-981" font-family="Helvetica,sans-Serif" font-size="10.00">&lt; net::socket::ipv4::</text>
<text text-anchor="middle" x="362" y="-970" font-family="Helvetica,sans-Serif" font-size="10.00">tcp::Socket &gt; &gt;</text>
</g>
<!-- Node11 -->
<g id="node11" class="node">
<title>Node11</title>
<g id="a_node11"><a xlink:href="classnet_1_1socket_1_1stream_1_1_socket_server.html" target="_top" xlink:title=" ">
<polygon fill="white" stroke="black" points="490,-737.5 490,-948.5 642,-948.5 642,-737.5 490,-737.5"/>
<text text-anchor="start" x="498" y="-936.5" font-family="Helvetica,sans-Serif" font-size="10.00">net::socket::stream</text>
<text text-anchor="start" x="498" y="-925.5" font-family="Helvetica,sans-Serif" font-size="10.00">::SocketServer&lt; legacy</text>
<text text-anchor="middle" x="566" y="-914.5" font-family="Helvetica,sans-Serif" font-size="10.00">::SocketListener&lt; SocketT &gt; &gt;</text>
<polyline fill="none" stroke="black" points="490,-907.5 642,-907.5 "/>
<text text-anchor="start" x="498" y="-895.5" font-family="Helvetica,sans-Serif" font-size="10.00"># options</text>
<text text-anchor="start" x="498" y="-884.5" font-family="Helvetica,sans-Serif" font-size="10.00">&#45; onConstruct</text>
<text text-anchor="start" x="498" y="-873.5" font-family="Helvetica,sans-Serif" font-size="10.00">&#45; onDestruct</text>
<text text-anchor="start" x="498" y="-862.5" font-family="Helvetica,sans-Serif" font-size="10.00">&#45; onConnect</text>
<text text-anchor="start" x="498" y="-851.5" font-family="Helvetica,sans-Serif" font-size="10.00">&#45; onDisconnect</text>
<text text-anchor="start" x="498" y="-840.5" font-family="Helvetica,sans-Serif" font-size="10.00">&#45; onRead</text>
<text text-anchor="start" x="498" y="-829.5" font-family="Helvetica,sans-Serif" font-size="10.00">&#45; onReadError</text>
<text text-anchor="start" x="498" y="-818.5" font-family="Helvetica,sans-Serif" font-size="10.00">&#45; onWriteError</text>
<polyline fill="none" stroke="black" points="490,-811.5 642,-811.5 "/>
<text text-anchor="start" x="498" y="-799.5" font-family="Helvetica,sans-Serif" font-size="10.00">+ SocketServer()</text>
<text text-anchor="start" x="498" y="-788.5" font-family="Helvetica,sans-Serif" font-size="10.00">+ SocketServer()</text>
<text text-anchor="start" x="498" y="-777.5" font-family="Helvetica,sans-Serif" font-size="10.00">+ ~SocketServer()</text>
<text text-anchor="start" x="498" y="-766.5" font-family="Helvetica,sans-Serif" font-size="10.00">+ listen()</text>
<text text-anchor="start" x="498" y="-755.5" font-family="Helvetica,sans-Serif" font-size="10.00">+ listen()</text>
<text text-anchor="start" x="498" y="-744.5" font-family="Helvetica,sans-Serif" font-size="10.00">+ listen()</text>
</a>
</g>
</g>
<!-- Node1&#45;&gt;Node11 -->
<g id="edge10" class="edge">
<title>Node1&#45;&gt;Node11</title>
<path fill="none" stroke="orange" d="M466.45,-1072.79C495.81,-1054.3 525.33,-1030.06 544,-1000 553.52,-984.67 559.6,-966.87 563.37,-948.9"/>
<polygon fill="orange" stroke="orange" points="464.48,-1069.89 457.78,-1078.09 468.14,-1075.86 464.48,-1069.89"/>
<text text-anchor="start" x="559" y="-986.5" font-family="Helvetica,sans-Serif" font-size="10.00"> &lt; legacy::SocketListener</text>
<text text-anchor="middle" x="615" y="-975.5" font-family="Helvetica,sans-Serif" font-size="10.00">&lt; SocketT &gt; &gt;</text>
</g>
<!-- Node15 -->
<g id="node15" class="node">
<title>Node15</title>
<g id="a_node15"><a xlink:href="classnet_1_1socket_1_1stream_1_1_socket_server.html" target="_top" xlink:title=" ">
<polygon fill="white" stroke="black" points="642,-255.5 642,-477.5 792,-477.5 792,-255.5 642,-255.5"/>
<text text-anchor="start" x="650" y="-465.5" font-family="Helvetica,sans-Serif" font-size="10.00">net::socket::stream</text>
<text text-anchor="start" x="650" y="-454.5" font-family="Helvetica,sans-Serif" font-size="10.00">::SocketServer&lt; legacy</text>
<text text-anchor="start" x="650" y="-443.5" font-family="Helvetica,sans-Serif" font-size="10.00">::SocketListener&lt; net</text>
<text text-anchor="middle" x="717" y="-432.5" font-family="Helvetica,sans-Serif" font-size="10.00">::socket::ipv6::tcp::Socket &gt; &gt;</text>
<polyline fill="none" stroke="black" points="642,-425.5 792,-425.5 "/>
<text text-anchor="start" x="650" y="-413.5" font-family="Helvetica,sans-Serif" font-size="10.00"># options</text>
<text text-anchor="start" x="650" y="-402.5" font-family="Helvetica,sans-Serif" font-size="10.00">&#45; onConstruct</text>
<text text-anchor="start" x="650" y="-391.5" font-family="Helvetica,sans-Serif" font-size="10.00">&#45; onDestruct</text>
<text text-anchor="start" x="650" y="-380.5" font-family="Helvetica,sans-Serif" font-size="10.00">&#45; onConnect</text>
<text text-anchor="start" x="650" y="-369.5" font-family="Helvetica,sans-Serif" font-size="10.00">&#45; onDisconnect</text>
<text text-anchor="start" x="650" y="-358.5" font-family="Helvetica,sans-Serif" font-size="10.00">&#45; onRead</text>
<text text-anchor="start" x="650" y="-347.5" font-family="Helvetica,sans-Serif" font-size="10.00">&#45; onReadError</text>
<text text-anchor="start" x="650" y="-336.5" font-family="Helvetica,sans-Serif" font-size="10.00">&#45; onWriteError</text>
<polyline fill="none" stroke="black" points="642,-329.5 792,-329.5 "/>
<text text-anchor="start" x="650" y="-317.5" font-family="Helvetica,sans-Serif" font-size="10.00">+ SocketServer()</text>
<text text-anchor="start" x="650" y="-306.5" font-family="Helvetica,sans-Serif" font-size="10.00">+ SocketServer()</text>
<text text-anchor="start" x="650" y="-295.5" font-family="Helvetica,sans-Serif" font-size="10.00">+ ~SocketServer()</text>
<text text-anchor="start" x="650" y="-284.5" font-family="Helvetica,sans-Serif" font-size="10.00">+ listen()</text>
<text text-anchor="start" x="650" y="-273.5" font-family="Helvetica,sans-Serif" font-size="10.00">+ listen()</text>
<text text-anchor="start" x="650" y="-262.5" font-family="Helvetica,sans-Serif" font-size="10.00">+ listen()</text>
</a>
</g>
</g>
<!-- Node1&#45;&gt;Node15 -->
<g id="edge15" class="edge">
<title>Node1&#45;&gt;Node15</title>
<path fill="none" stroke="orange" d="M467.73,-1107.29C537.14,-1094.44 626.93,-1065.44 675,-1000 787.15,-847.34 767.47,-614.03 742.54,-477.54"/>
<polygon fill="orange" stroke="orange" points="466.89,-1103.88 457.65,-1109.07 468.11,-1110.77 466.89,-1103.88"/>
<text text-anchor="start" x="759" y="-851.5" font-family="Helvetica,sans-Serif" font-size="10.00"> &lt; legacy::SocketListener</text>
<text text-anchor="start" x="759" y="-840.5" font-family="Helvetica,sans-Serif" font-size="10.00">&lt; net::socket::ipv6::tcp</text>
<text text-anchor="middle" x="815" y="-829.5" font-family="Helvetica,sans-Serif" font-size="10.00">::Socket &gt; &gt;</text>
</g>
<!-- Node16 -->
<g id="node16" class="node">
<title>Node16</title>
<g id="a_node16"><a xlink:href="classnet_1_1socket_1_1stream_1_1_socket_server.html" target="_top" xlink:title=" ">
<polygon fill="white" stroke="black" points="121,-737.5 121,-948.5 273,-948.5 273,-737.5 121,-737.5"/>
<text text-anchor="start" x="129" y="-936.5" font-family="Helvetica,sans-Serif" font-size="10.00">net::socket::stream</text>
<text text-anchor="start" x="129" y="-925.5" font-family="Helvetica,sans-Serif" font-size="10.00">::SocketServer&lt; tls</text>
<text text-anchor="middle" x="197" y="-914.5" font-family="Helvetica,sans-Serif" font-size="10.00">::SocketListener&lt; SocketT &gt; &gt;</text>
<polyline fill="none" stroke="black" points="121,-907.5 273,-907.5 "/>
<text text-anchor="start" x="129" y="-895.5" font-family="Helvetica,sans-Serif" font-size="10.00"># options</text>
<text text-anchor="start" x="129" y="-884.5" font-family="Helvetica,sans-Serif" font-size="10.00">&#45; onConstruct</text>
<text text-anchor="start" x="129" y="-873.5" font-family="Helvetica,sans-Serif" font-size="10.00">&#45; onDestruct</text>
<text text-anchor="start" x="129" y="-862.5" font-family="Helvetica,sans-Serif" font-size="10.00">&#45; onConnect</text>
<text text-anchor="start" x="129" y="-851.5" font-family="Helvetica,sans-Serif" font-size="10.00">&#45; onDisconnect</text>
<text text-anchor="start" x="129" y="-840.5" font-family="Helvetica,sans-Serif" font-size="10.00">&#45; onRead</text>
<text text-anchor="start" x="129" y="-829.5" font-family="Helvetica,sans-Serif" font-size="10.00">&#45; onReadError</text>
<text text-anchor="start" x="129" y="-818.5" font-family="Helvetica,sans-Serif" font-size="10.00">&#45; onWriteError</text>
<polyline fill="none" stroke="black" points="121,-811.5 273,-811.5 "/>
<text text-anchor="start" x="129" y="-799.5" font-family="Helvetica,sans-Serif" font-size="10.00">+ SocketServer()</text>
<text text-anchor="start" x="129" y="-788.5" font-family="Helvetica,sans-Serif" font-size="10.00">+ SocketServer()</text>
<text text-anchor="start" x="129" y="-777.5" font-family="Helvetica,sans-Serif" font-size="10.00">+ ~SocketServer()</text>
<text text-anchor="start" x="129" y="-766.5" font-family="Helvetica,sans-Serif" font-size="10.00">+ listen()</text>
<text text-anchor="start" x="129" y="-755.5" font-family="Helvetica,sans-Serif" font-size="10.00">+ listen()</text>
<text text-anchor="start" x="129" y="-744.5" font-family="Helvetica,sans-Serif" font-size="10.00">+ listen()</text>
</a>
</g>
</g>
<!-- Node1&#45;&gt;Node16 -->
<g id="edge17" class="edge">
<title>Node1&#45;&gt;Node16</title>
<path fill="none" stroke="orange" d="M277.42,-1076.38C246.41,-1057.82 215.46,-1032.6 198,-1000 189.63,-984.36 185.47,-966.51 183.93,-948.61"/>
<polygon fill="orange" stroke="orange" points="275.75,-1079.46 286.15,-1081.44 279.25,-1073.4 275.75,-1079.46"/>
<text text-anchor="start" x="198" y="-986.5" font-family="Helvetica,sans-Serif" font-size="10.00"> &lt; tls::SocketListener</text>
<text text-anchor="middle" x="245" y="-975.5" font-family="Helvetica,sans-Serif" font-size="10.00">&lt; SocketT &gt; &gt;</text>
</g>
<!-- Node3 -->
<g id="node3" class="node">
<title>Node3</title>
<g id="a_node3"><a xlink:href="classnet_1_1socket_1_1stream_1_1tls_1_1_socket_server.html" target="_top" xlink:title=" ">
<polygon fill="white" stroke="black" points="35,-106.5 35,-196.5 139,-196.5 139,-106.5 35,-106.5"/>
<text text-anchor="start" x="43" y="-184.5" font-family="Helvetica,sans-Serif" font-size="10.00">net::socket::stream</text>
<text text-anchor="start" x="43" y="-173.5" font-family="Helvetica,sans-Serif" font-size="10.00">::tls::SocketServer</text>
<text text-anchor="start" x="43" y="-162.5" font-family="Helvetica,sans-Serif" font-size="10.00">&lt; net::socket::ipv6::</text>
<text text-anchor="middle" x="87" y="-151.5" font-family="Helvetica,sans-Serif" font-size="10.00">tcp::Socket &gt;</text>
<polyline fill="none" stroke="black" points="35,-144.5 139,-144.5 "/>
<text text-anchor="middle" x="87" y="-132.5" font-family="Helvetica,sans-Serif" font-size="10.00"> </text>
<polyline fill="none" stroke="black" points="35,-125.5 139,-125.5 "/>
<text text-anchor="middle" x="87" y="-113.5" font-family="Helvetica,sans-Serif" font-size="10.00"> </text>
</a>
</g>
</g>
<!-- Node2&#45;&gt;Node3 -->
<g id="edge2" class="edge">
<title>Node2&#45;&gt;Node3</title>
<path fill="none" stroke="midnightblue" d="M78.18,-486.03C80.7,-390.74 84.08,-263.06 85.83,-196.71"/>
<polygon fill="none" stroke="midnightblue" points="74.68,-486.22 77.91,-496.31 81.68,-486.41 74.68,-486.22"/>
</g>
<!-- Node4 -->
<g id="node4" class="node">
<title>Node4</title>
<g id="a_node4"><a xlink:href="classnet_1_1socket_1_1ipv6_1_1tcp_1_1tls_1_1_socket_server.html" target="_top" xlink:title=" ">
<polygon fill="white" stroke="black" points="31,-0.5 31,-68.5 143,-68.5 143,-0.5 31,-0.5"/>
<text text-anchor="start" x="39" y="-56.5" font-family="Helvetica,sans-Serif" font-size="10.00">net::socket::ipv6::</text>
<text text-anchor="middle" x="87" y="-45.5" font-family="Helvetica,sans-Serif" font-size="10.00">tcp::tls::SocketServer</text>
<polyline fill="none" stroke="black" points="31,-38.5 143,-38.5 "/>
<text text-anchor="middle" x="87" y="-26.5" font-family="Helvetica,sans-Serif" font-size="10.00"> </text>
<polyline fill="none" stroke="black" points="31,-19.5 143,-19.5 "/>
<text text-anchor="middle" x="87" y="-7.5" font-family="Helvetica,sans-Serif" font-size="10.00"> </text>
</a>
</g>
</g>
<!-- Node3&#45;&gt;Node4 -->
<g id="edge3" class="edge">
<title>Node3&#45;&gt;Node4</title>
<path fill="none" stroke="midnightblue" d="M87,-96.23C87,-86.8 87,-77.26 87,-68.62"/>
<polygon fill="none" stroke="midnightblue" points="83.5,-96.37 87,-106.37 90.5,-96.37 83.5,-96.37"/>
</g>
<!-- Node6 -->
<g id="node6" class="node">
<title>Node6</title>
<g id="a_node6"><a xlink:href="classnet_1_1socket_1_1stream_1_1legacy_1_1_socket_server.html" target="_top" xlink:title=" ">
<polygon fill="white" stroke="black" points="374,-106.5 374,-196.5 492,-196.5 492,-106.5 374,-106.5"/>
<text text-anchor="start" x="382" y="-184.5" font-family="Helvetica,sans-Serif" font-size="10.00">net::socket::stream</text>
<text text-anchor="start" x="382" y="-173.5" font-family="Helvetica,sans-Serif" font-size="10.00">::legacy::SocketServer</text>
<text text-anchor="start" x="382" y="-162.5" font-family="Helvetica,sans-Serif" font-size="10.00">&lt; net::socket::ipv4::tcp</text>
<text text-anchor="middle" x="433" y="-151.5" font-family="Helvetica,sans-Serif" font-size="10.00">::Socket &gt;</text>
<polyline fill="none" stroke="black" points="374,-144.5 492,-144.5 "/>
<text text-anchor="middle" x="433" y="-132.5" font-family="Helvetica,sans-Serif" font-size="10.00"> </text>
<polyline fill="none" stroke="black" points="374,-125.5 492,-125.5 "/>
<text text-anchor="middle" x="433" y="-113.5" font-family="Helvetica,sans-Serif" font-size="10.00"> </text>
</a>
</g>
</g>
<!-- Node5&#45;&gt;Node6 -->
<g id="edge5" class="edge">
<title>Node5&#45;&gt;Node6</title>
<path fill="none" stroke="midnightblue" d="M453.59,-486.32C447.71,-390.99 439.82,-263.12 435.73,-196.71"/>
<polygon fill="none" stroke="midnightblue" points="450.1,-486.54 454.2,-496.31 457.08,-486.11 450.1,-486.54"/>
</g>
<!-- Node7 -->
<g id="node7" class="node">
<title>Node7</title>
<g id="a_node7"><a xlink:href="classnet_1_1socket_1_1ipv4_1_1tcp_1_1legacy_1_1_socket_server.html" target="_top" xlink:title=" ">
<polygon fill="white" stroke="black" points="368,-0.5 368,-68.5 498,-68.5 498,-0.5 368,-0.5"/>
<text text-anchor="start" x="376" y="-56.5" font-family="Helvetica,sans-Serif" font-size="10.00">net::socket::ipv4::</text>
<text text-anchor="middle" x="433" y="-45.5" font-family="Helvetica,sans-Serif" font-size="10.00">tcp::legacy::SocketServer</text>
<polyline fill="none" stroke="black" points="368,-38.5 498,-38.5 "/>
<text text-anchor="middle" x="433" y="-26.5" font-family="Helvetica,sans-Serif" font-size="10.00"> </text>
<polyline fill="none" stroke="black" points="368,-19.5 498,-19.5 "/>
<text text-anchor="middle" x="433" y="-7.5" font-family="Helvetica,sans-Serif" font-size="10.00"> </text>
</a>
</g>
</g>
<!-- Node6&#45;&gt;Node7 -->
<g id="edge6" class="edge">
<title>Node6&#45;&gt;Node7</title>
<path fill="none" stroke="midnightblue" d="M433,-96.23C433,-86.8 433,-77.26 433,-68.62"/>
<polygon fill="none" stroke="midnightblue" points="429.5,-96.37 433,-106.37 436.5,-96.37 429.5,-96.37"/>
</g>
<!-- Node9 -->
<g id="node9" class="node">
<title>Node9</title>
<g id="a_node9"><a xlink:href="classnet_1_1socket_1_1stream_1_1tls_1_1_socket_server.html" target="_top" xlink:title=" ">
<polygon fill="white" stroke="black" points="204,-106.5 204,-196.5 308,-196.5 308,-106.5 204,-106.5"/>
<text text-anchor="start" x="212" y="-184.5" font-family="Helvetica,sans-Serif" font-size="10.00">net::socket::stream</text>
<text text-anchor="start" x="212" y="-173.5" font-family="Helvetica,sans-Serif" font-size="10.00">::tls::SocketServer</text>
<text text-anchor="start" x="212" y="-162.5" font-family="Helvetica,sans-Serif" font-size="10.00">&lt; net::socket::ipv4::</text>
<text text-anchor="middle" x="256" y="-151.5" font-family="Helvetica,sans-Serif" font-size="10.00">tcp::Socket &gt;</text>
<polyline fill="none" stroke="black" points="204,-144.5 308,-144.5 "/>
<text text-anchor="middle" x="256" y="-132.5" font-family="Helvetica,sans-Serif" font-size="10.00"> </text>
<polyline fill="none" stroke="black" points="204,-125.5 308,-125.5 "/>
<text text-anchor="middle" x="256" y="-113.5" font-family="Helvetica,sans-Serif" font-size="10.00"> </text>
</a>
</g>
</g>
<!-- Node8&#45;&gt;Node9 -->
<g id="edge8" class="edge">
<title>Node8&#45;&gt;Node9</title>
<path fill="none" stroke="midnightblue" d="M320.1,-486.32C325.3,-407.42 324.37,-302.93 297,-215 295.07,-208.8 292.33,-202.65 289.17,-196.74"/>
<polygon fill="none" stroke="midnightblue" points="316.61,-486.08 319.4,-496.3 323.59,-486.57 316.61,-486.08"/>
</g>
<!-- Node10 -->
<g id="node10" class="node">
<title>Node10</title>
<g id="a_node10"><a xlink:href="classnet_1_1socket_1_1ipv4_1_1tcp_1_1tls_1_1_socket_server.html" target="_top" xlink:title=" ">
<polygon fill="white" stroke="black" points="200,-0.5 200,-68.5 312,-68.5 312,-0.5 200,-0.5"/>
<text text-anchor="start" x="208" y="-56.5" font-family="Helvetica,sans-Serif" font-size="10.00">net::socket::ipv4::</text>
<text text-anchor="middle" x="256" y="-45.5" font-family="Helvetica,sans-Serif" font-size="10.00">tcp::tls::SocketServer</text>
<polyline fill="none" stroke="black" points="200,-38.5 312,-38.5 "/>
<text text-anchor="middle" x="256" y="-26.5" font-family="Helvetica,sans-Serif" font-size="10.00"> </text>
<polyline fill="none" stroke="black" points="200,-19.5 312,-19.5 "/>
<text text-anchor="middle" x="256" y="-7.5" font-family="Helvetica,sans-Serif" font-size="10.00"> </text>
</a>
</g>
</g>
<!-- Node9&#45;&gt;Node10 -->
<g id="edge9" class="edge">
<title>Node9&#45;&gt;Node10</title>
<path fill="none" stroke="midnightblue" d="M256,-96.23C256,-86.8 256,-77.26 256,-68.62"/>
<polygon fill="none" stroke="midnightblue" points="252.5,-96.37 256,-106.37 259.5,-96.37 252.5,-96.37"/>
</g>
<!-- Node12 -->
<g id="node12" class="node">
<title>Node12</title>
<g id="a_node12"><a xlink:href="classnet_1_1socket_1_1stream_1_1legacy_1_1_socket_server.html" target="_top" xlink:title=" ">
<polygon fill="white" stroke="black" points="508,-327 508,-406 624,-406 624,-327 508,-327"/>
<text text-anchor="start" x="516" y="-394" font-family="Helvetica,sans-Serif" font-size="10.00">net::socket::stream</text>
<text text-anchor="start" x="516" y="-383" font-family="Helvetica,sans-Serif" font-size="10.00">::legacy::SocketServer</text>
<text text-anchor="middle" x="566" y="-372" font-family="Helvetica,sans-Serif" font-size="10.00">&lt; SocketT &gt;</text>
<polyline fill="none" stroke="black" points="508,-365 624,-365 "/>
<text text-anchor="middle" x="566" y="-353" font-family="Helvetica,sans-Serif" font-size="10.00"> </text>
<polyline fill="none" stroke="black" points="508,-346 624,-346 "/>
<text text-anchor="middle" x="566" y="-334" font-family="Helvetica,sans-Serif" font-size="10.00"> </text>
</a>
</g>
</g>
<!-- Node11&#45;&gt;Node12 -->
<g id="edge11" class="edge">
<title>Node11&#45;&gt;Node12</title>
<path fill="none" stroke="midnightblue" d="M566,-727.02C566,-622.85 566,-475.38 566,-406.19"/>
<polygon fill="none" stroke="midnightblue" points="562.5,-727.28 566,-737.28 569.5,-727.28 562.5,-727.28"/>
</g>
<!-- Node12&#45;&gt;Node6 -->
<g id="edge14" class="edge">
<title>Node12&#45;&gt;Node6</title>
<path fill="none" stroke="orange" d="M534.19,-318.16C518.22,-294.06 498.75,-264.18 482,-237 473.99,-224.01 465.56,-209.7 457.99,-196.62"/>
<polygon fill="orange" stroke="orange" points="531.46,-320.37 539.9,-326.76 537.29,-316.5 531.46,-320.37"/>
<text text-anchor="start" x="482" y="-229" font-family="Helvetica,sans-Serif" font-size="10.00"> &lt; net::socket::ipv4</text>
<text text-anchor="middle" x="524.5" y="-218" font-family="Helvetica,sans-Serif" font-size="10.00">::tcp::Socket &gt;</text>
</g>
<!-- Node13 -->
<g id="node13" class="node">
<title>Node13</title>
<g id="a_node13"><a xlink:href="classnet_1_1socket_1_1ipv6_1_1tcp_1_1legacy_1_1_socket_server.html" target="_top" xlink:title=" ">
<polygon fill="white" stroke="black" points="510,-106.5 510,-196.5 640,-196.5 640,-106.5 510,-106.5"/>
<text text-anchor="start" x="518" y="-184.5" font-family="Helvetica,sans-Serif" font-size="10.00">net::socket::ipv6::</text>
<text text-anchor="start" x="518" y="-173.5" font-family="Helvetica,sans-Serif" font-size="10.00">tcp::legacy::SocketServer</text>
<text text-anchor="start" x="518" y="-162.5" font-family="Helvetica,sans-Serif" font-size="10.00">&lt; net::socket::ipv6::tcp</text>
<text text-anchor="middle" x="575" y="-151.5" font-family="Helvetica,sans-Serif" font-size="10.00">::Socket &gt;</text>
<polyline fill="none" stroke="black" points="510,-144.5 640,-144.5 "/>
<text text-anchor="middle" x="575" y="-132.5" font-family="Helvetica,sans-Serif" font-size="10.00"> </text>
<polyline fill="none" stroke="black" points="510,-125.5 640,-125.5 "/>
<text text-anchor="middle" x="575" y="-113.5" font-family="Helvetica,sans-Serif" font-size="10.00"> </text>
</a>
</g>
</g>
<!-- Node12&#45;&gt;Node13 -->
<g id="edge12" class="edge">
<title>Node12&#45;&gt;Node13</title>
<path fill="none" stroke="midnightblue" d="M568.07,-316.62C569.59,-280.47 571.66,-231.65 573.13,-196.67"/>
<polygon fill="none" stroke="midnightblue" points="564.56,-316.79 567.63,-326.93 571.55,-317.08 564.56,-316.79"/>
</g>
<!-- Node14 -->
<g id="node14" class="node">
<title>Node14</title>
<g id="a_node14"><a xlink:href="classnet_1_1socket_1_1stream_1_1legacy_1_1_socket_server.html" target="_top" xlink:title=" ">
<polygon fill="white" stroke="black" points="658,-106.5 658,-196.5 776,-196.5 776,-106.5 658,-106.5"/>
<text text-anchor="start" x="666" y="-184.5" font-family="Helvetica,sans-Serif" font-size="10.00">net::socket::stream</text>
<text text-anchor="start" x="666" y="-173.5" font-family="Helvetica,sans-Serif" font-size="10.00">::legacy::SocketServer</text>
<text text-anchor="start" x="666" y="-162.5" font-family="Helvetica,sans-Serif" font-size="10.00">&lt; net::socket::ipv6::tcp</text>
<text text-anchor="middle" x="717" y="-151.5" font-family="Helvetica,sans-Serif" font-size="10.00">::Socket &gt;</text>
<polyline fill="none" stroke="black" points="658,-144.5 776,-144.5 "/>
<text text-anchor="middle" x="717" y="-132.5" font-family="Helvetica,sans-Serif" font-size="10.00"> </text>
<polyline fill="none" stroke="black" points="658,-125.5 776,-125.5 "/>
<text text-anchor="middle" x="717" y="-113.5" font-family="Helvetica,sans-Serif" font-size="10.00"> </text>
</a>
</g>
</g>
<!-- Node12&#45;&gt;Node14 -->
<g id="edge13" class="edge">
<title>Node12&#45;&gt;Node14</title>
<path fill="none" stroke="orange" d="M578.32,-316.94C588.04,-285.49 604.03,-244.97 628,-215 630.71,-211.61 642.97,-202.58 657.56,-192.41"/>
<polygon fill="orange" stroke="orange" points="574.88,-316.23 575.38,-326.81 581.59,-318.22 574.88,-316.23"/>
<text text-anchor="start" x="628" y="-229" font-family="Helvetica,sans-Serif" font-size="10.00"> &lt; net::socket::ipv6</text>
<text text-anchor="middle" x="670.5" y="-218" font-family="Helvetica,sans-Serif" font-size="10.00">::tcp::Socket &gt;</text>
</g>
<!-- Node15&#45;&gt;Node14 -->
<g id="edge16" class="edge">
<title>Node15&#45;&gt;Node14</title>
<path fill="none" stroke="midnightblue" d="M717,-245.04C717,-227.77 717,-211 717,-196.58"/>
<polygon fill="none" stroke="midnightblue" points="713.5,-245.26 717,-255.26 720.5,-245.26 713.5,-245.26"/>
</g>
<!-- Node17 -->
<g id="node17" class="node">
<title>Node17</title>
<g id="a_node17"><a xlink:href="classnet_1_1socket_1_1stream_1_1tls_1_1_socket_server.html" target="_top" xlink:title=" ">
<polygon fill="white" stroke="black" points="146.5,-327 146.5,-406 247.5,-406 247.5,-327 146.5,-327"/>
<text text-anchor="start" x="154.5" y="-394" font-family="Helvetica,sans-Serif" font-size="10.00">net::socket::stream</text>
<text text-anchor="start" x="154.5" y="-383" font-family="Helvetica,sans-Serif" font-size="10.00">::tls::SocketServer</text>
<text text-anchor="middle" x="197" y="-372" font-family="Helvetica,sans-Serif" font-size="10.00">&lt; SocketT &gt;</text>
<polyline fill="none" stroke="black" points="146.5,-365 247.5,-365 "/>
<text text-anchor="middle" x="197" y="-353" font-family="Helvetica,sans-Serif" font-size="10.00"> </text>
<polyline fill="none" stroke="black" points="146.5,-346 247.5,-346 "/>
<text text-anchor="middle" x="197" y="-334" font-family="Helvetica,sans-Serif" font-size="10.00"> </text>
</a>
</g>
</g>
<!-- Node16&#45;&gt;Node17 -->
<g id="edge18" class="edge">
<title>Node16&#45;&gt;Node17</title>
<path fill="none" stroke="midnightblue" d="M197,-727.02C197,-622.85 197,-475.38 197,-406.19"/>
<polygon fill="none" stroke="midnightblue" points="193.5,-727.28 197,-737.28 200.5,-727.28 193.5,-727.28"/>
</g>
<!-- Node17&#45;&gt;Node3 -->
<g id="edge19" class="edge">
<title>Node17&#45;&gt;Node3</title>
<path fill="none" stroke="orange" d="M164.24,-318.36C148.65,-294.65 130.51,-265.04 117,-237 110.85,-224.24 105.28,-209.87 100.66,-196.65"/>
<polygon fill="orange" stroke="orange" points="161.4,-320.42 169.85,-326.82 167.23,-316.55 161.4,-320.42"/>
<text text-anchor="start" x="117" y="-229" font-family="Helvetica,sans-Serif" font-size="10.00"> &lt; net::socket::ipv6</text>
<text text-anchor="middle" x="159.5" y="-218" font-family="Helvetica,sans-Serif" font-size="10.00">::tcp::Socket &gt;</text>
</g>
<!-- Node17&#45;&gt;Node9 -->
<g id="edge20" class="edge">
<title>Node17&#45;&gt;Node9</title>
<path fill="none" stroke="orange" d="M195.64,-316.6C196.3,-286.45 199.91,-247.47 212,-215 214.31,-208.78 217.4,-202.61 220.88,-196.7"/>
<polygon fill="orange" stroke="orange" points="192.14,-316.83 195.52,-326.87 199.13,-316.91 192.14,-316.83"/>
<text text-anchor="start" x="212" y="-229" font-family="Helvetica,sans-Serif" font-size="10.00"> &lt; net::socket::ipv4</text>
<text text-anchor="middle" x="254.5" y="-218" font-family="Helvetica,sans-Serif" font-size="10.00">::tcp::Socket &gt;</text>
</g>
</g>
</svg>
