<?xml version="1.0" encoding="UTF-8" standalone="no"?>
<!DOCTYPE svg PUBLIC "-//W3C//DTD SVG 1.1//EN"
 "http://www.w3.org/Graphics/SVG/1.1/DTD/svg11.dtd">
<!-- Generated by graphviz version 2.43.0 (0)
 -->
<!-- Title: net::socket::stream::SocketListener::listen Pages: 1 -->
<svg width="832pt" height="392pt"
 viewBox="0.00 0.00 832.00 392.00" xmlns="http://www.w3.org/2000/svg" xmlns:xlink="http://www.w3.org/1999/xlink">
<g id="graph0" class="graph" transform="scale(1 1) rotate(0) translate(4 388)">
<title>net::socket::stream::SocketListener::listen</title>
<polygon fill="white" stroke="transparent" points="-4,4 -4,-388 828,-388 828,4 -4,4"/>
<!-- Node1 -->
<g id="node1" class="node">
<title>Node1</title>
<g id="a_node1"><a xlink:title=" ">
<polygon fill="#bfbfbf" stroke="black" points="0,-240.5 0,-270.5 117,-270.5 117,-240.5 0,-240.5"/>
<text text-anchor="start" x="8" y="-258.5" font-family="Helvetica,sans-Serif" font-size="10.00">net::socket::stream</text>
<text text-anchor="middle" x="58.5" y="-247.5" font-family="Helvetica,sans-Serif" font-size="10.00">::SocketListener::listen</text>
</a>
</g>
</g>
<!-- Node2 -->
<g id="node2" class="node">
<title>Node2</title>
<g id="a_node2"><a xlink:href="classnet_1_1socket_1_1_socket.html#a1ce7ef4ad82e2035af1c9f9d752112b8" target="_top" xlink:title=" ">
<polygon fill="white" stroke="black" points="179,-353.5 179,-383.5 281,-383.5 281,-353.5 179,-353.5"/>
<text text-anchor="start" x="187" y="-371.5" font-family="Helvetica,sans-Serif" font-size="10.00">net::socket::Socket</text>
<text text-anchor="middle" x="230" y="-360.5" font-family="Helvetica,sans-Serif" font-size="10.00">::bind</text>
</a>
</g>
</g>
<!-- Node1&#45;&gt;Node2 -->
<g id="edge1" class="edge">
<title>Node1&#45;&gt;Node2</title>
<path fill="none" stroke="midnightblue" d="M73.42,-270.77C90.65,-288.92 121.56,-319.18 153,-338.5 159.4,-342.43 166.4,-346.02 173.48,-349.24"/>
<polygon fill="midnightblue" stroke="midnightblue" points="172.57,-352.66 183.14,-353.4 175.34,-346.23 172.57,-352.66"/>
</g>
<!-- Node3 -->
<g id="node3" class="node">
<title>Node3</title>
<g id="a_node3"><a xlink:href="classnet_1_1_descriptor.html#a70ccc1e4f6af5cda015bd319f9a90096" target="_top" xlink:title=" ">
<polygon fill="white" stroke="black" points="364,-315 364,-334 476,-334 476,-315 364,-315"/>
<text text-anchor="middle" x="420" y="-322" font-family="Helvetica,sans-Serif" font-size="10.00">net::Descriptor::getFd</text>
</a>
</g>
</g>
<!-- Node1&#45;&gt;Node3 -->
<g id="edge16" class="edge">
<title>Node1&#45;&gt;Node3</title>
<path fill="none" stroke="midnightblue" d="M81.41,-270.65C99.67,-282.41 126.83,-297.94 153,-305.5 219.44,-324.69 298.91,-327.96 353.58,-327.35"/>
<polygon fill="midnightblue" stroke="midnightblue" points="353.89,-330.84 363.83,-327.18 353.78,-323.84 353.89,-330.84"/>
</g>
<!-- Node4 -->
<g id="node4" class="node">
<title>Node4</title>
<g id="a_node4"><a xlink:href="classnet_1_1socket_1_1stream_1_1_socket_listener.html#aa49e2120be428c40170df2777137e653" target="_top" xlink:title=" ">
<polygon fill="white" stroke="black" points="165.5,-265.5 165.5,-295.5 294.5,-295.5 294.5,-265.5 165.5,-265.5"/>
<text text-anchor="start" x="173.5" y="-283.5" font-family="Helvetica,sans-Serif" font-size="10.00">net::socket::stream</text>
<text text-anchor="middle" x="230" y="-272.5" font-family="Helvetica,sans-Serif" font-size="10.00">::SocketListener::destruct</text>
</a>
</g>
</g>
<!-- Node1&#45;&gt;Node4 -->
<g id="edge3" class="edge">
<title>Node1&#45;&gt;Node4</title>
<path fill="none" stroke="midnightblue" d="M117.36,-264.03C129.54,-265.83 142.55,-267.75 155.23,-269.62"/>
<polygon fill="midnightblue" stroke="midnightblue" points="154.9,-273.11 165.3,-271.11 155.92,-266.18 154.9,-273.11"/>
</g>
<!-- Node5 -->
<g id="node5" class="node">
<title>Node5</title>
<g id="a_node5"><a xlink:href="classnet_1_1_accept_event_receiver.html#a0f8ecc3e4adde9711df97e146eba2b97" target="_top" xlink:title=" ">
<polygon fill="white" stroke="black" points="164.5,-167.5 164.5,-197.5 295.5,-197.5 295.5,-167.5 164.5,-167.5"/>
<text text-anchor="start" x="172.5" y="-185.5" font-family="Helvetica,sans-Serif" font-size="10.00">net::AcceptEventReceiver</text>
<text text-anchor="middle" x="230" y="-174.5" font-family="Helvetica,sans-Serif" font-size="10.00">::enable</text>
</a>
</g>
</g>
<!-- Node1&#45;&gt;Node5 -->
<g id="edge4" class="edge">
<title>Node1&#45;&gt;Node5</title>
<path fill="none" stroke="midnightblue" d="M85.98,-240.5C104.41,-230.4 129.77,-217.21 153,-207.5 158.42,-205.23 164.12,-203.04 169.86,-200.94"/>
<polygon fill="midnightblue" stroke="midnightblue" points="171.26,-204.16 179.53,-197.53 168.93,-197.56 171.26,-204.16"/>
</g>
<!-- Node15 -->
<g id="node15" class="node">
<title>Node15</title>
<g id="a_node15"><a xlink:href="classnet_1_1socket_1_1_socket.html#aac90834a58b6cc4329e89061a10bdffa" target="_top" xlink:title=" ">
<polygon fill="white" stroke="black" points="179,-44.5 179,-74.5 281,-74.5 281,-44.5 179,-44.5"/>
<text text-anchor="start" x="187" y="-62.5" font-family="Helvetica,sans-Serif" font-size="10.00">net::socket::Socket</text>
<text text-anchor="middle" x="230" y="-51.5" font-family="Helvetica,sans-Serif" font-size="10.00">::open</text>
</a>
</g>
</g>
<!-- Node1&#45;&gt;Node15 -->
<g id="edge17" class="edge">
<title>Node1&#45;&gt;Node15</title>
<path fill="none" stroke="midnightblue" d="M72.52,-240.45C102.04,-206.31 174.2,-122.87 209.25,-82.34"/>
<polygon fill="midnightblue" stroke="midnightblue" points="212.04,-84.46 215.94,-74.61 206.75,-79.88 212.04,-84.46"/>
</g>
<!-- Node18 -->
<g id="node18" class="node">
<title>Node18</title>
<g id="a_node18"><a xlink:href="classnet_1_1socket_1_1stream_1_1_socket_listener.html#a31d10dd0fe920ee20fce4b6fd3aee70a" target="_top" xlink:title=" ">
<polygon fill="white" stroke="black" points="153,-216.5 153,-246.5 307,-246.5 307,-216.5 153,-216.5"/>
<text text-anchor="start" x="161" y="-234.5" font-family="Helvetica,sans-Serif" font-size="10.00">net::socket::stream</text>
<text text-anchor="middle" x="230" y="-223.5" font-family="Helvetica,sans-Serif" font-size="10.00">::SocketListener::reuseAddress</text>
</a>
</g>
</g>
<!-- Node1&#45;&gt;Node18 -->
<g id="edge20" class="edge">
<title>Node1&#45;&gt;Node18</title>
<path fill="none" stroke="midnightblue" d="M117.36,-247.31C125.56,-246.15 134.14,-244.93 142.74,-243.71"/>
<polygon fill="midnightblue" stroke="midnightblue" points="143.41,-247.15 152.82,-242.29 142.43,-240.22 143.41,-247.15"/>
</g>
<!-- Node2&#45;&gt;Node3 -->
<g id="edge2" class="edge">
<title>Node2&#45;&gt;Node3</title>
<path fill="none" stroke="midnightblue" d="M281.38,-356.71C308.29,-350.41 341.32,-342.68 368.28,-336.37"/>
<polygon fill="midnightblue" stroke="midnightblue" points="369.35,-339.71 378.29,-334.03 367.76,-332.9 369.35,-339.71"/>
</g>
<!-- Node6 -->
<g id="node6" class="node">
<title>Node6</title>
<g id="a_node6"><a xlink:href="classnet_1_1_descriptor_event_dispatcher.html#a19937845694dd2919c15556102670b42" target="_top" xlink:title=" ">
<polygon fill="white" stroke="black" points="343,-263.5 343,-293.5 497,-293.5 497,-263.5 343,-263.5"/>
<text text-anchor="start" x="351" y="-281.5" font-family="Helvetica,sans-Serif" font-size="10.00">net::DescriptorEventDispatcher</text>
<text text-anchor="middle" x="420" y="-270.5" font-family="Helvetica,sans-Serif" font-size="10.00">::enable</text>
</a>
</g>
</g>
<!-- Node5&#45;&gt;Node6 -->
<g id="edge5" class="edge">
<title>Node5&#45;&gt;Node6</title>
<path fill="none" stroke="midnightblue" d="M289.22,-197.55C295.49,-200.35 301.56,-203.64 307,-207.5 328.45,-222.73 321.46,-239.39 343,-254.5 345.13,-255.99 347.36,-257.4 349.66,-258.72"/>
<polygon fill="midnightblue" stroke="midnightblue" points="348.33,-261.97 358.83,-263.4 351.51,-255.73 348.33,-261.97"/>
</g>
<!-- Node10 -->
<g id="node10" class="node">
<title>Node10</title>
<g id="a_node10"><a xlink:href="classnet_1_1_event_loop.html#ace10fc7540ecf33dbd7efeb50f2a6a4d" target="_top" xlink:title=" ">
<polygon fill="white" stroke="black" points="344.5,-214.5 344.5,-244.5 495.5,-244.5 495.5,-214.5 344.5,-214.5"/>
<text text-anchor="start" x="352.5" y="-232.5" font-family="Helvetica,sans-Serif" font-size="10.00">net::EventLoop::getReadEvent</text>
<text text-anchor="middle" x="420" y="-221.5" font-family="Helvetica,sans-Serif" font-size="10.00">Dispatcher</text>
</a>
</g>
</g>
<!-- Node5&#45;&gt;Node10 -->
<g id="edge9" class="edge">
<title>Node5&#45;&gt;Node10</title>
<path fill="none" stroke="midnightblue" d="M291,-197.5C309.49,-202.12 330,-207.25 349.09,-212.02"/>
<polygon fill="midnightblue" stroke="midnightblue" points="348.37,-215.45 358.92,-214.48 350.07,-208.66 348.37,-215.45"/>
</g>
<!-- Node11 -->
<g id="node11" class="node">
<title>Node11</title>
<g id="a_node11"><a xlink:href="classnet_1_1_event_loop.html#a6d8bfd6fa03bb6bf423035ab190657ef" target="_top" xlink:title=" ">
<polygon fill="white" stroke="black" points="357.5,-176 357.5,-195 482.5,-195 482.5,-176 357.5,-176"/>
<text text-anchor="middle" x="420" y="-183" font-family="Helvetica,sans-Serif" font-size="10.00">net::EventLoop::instance</text>
</a>
</g>
</g>
<!-- Node5&#45;&gt;Node11 -->
<g id="edge10" class="edge">
<title>Node5&#45;&gt;Node11</title>
<path fill="none" stroke="midnightblue" d="M295.7,-183.53C312.24,-183.8 330.12,-184.08 346.99,-184.35"/>
<polygon fill="midnightblue" stroke="midnightblue" points="347.3,-187.86 357.35,-184.52 347.41,-180.86 347.3,-187.86"/>
</g>
<!-- Node12 -->
<g id="node12" class="node">
<title>Node12</title>
<g id="a_node12"><a xlink:href="classnet_1_1_accept_event_receiver.html#a90d906c330f05b859bc4204899393813" target="_top" xlink:title=" ">
<polygon fill="white" stroke="black" points="354.5,-126.5 354.5,-156.5 485.5,-156.5 485.5,-126.5 354.5,-126.5"/>
<text text-anchor="start" x="362.5" y="-144.5" font-family="Helvetica,sans-Serif" font-size="10.00">net::AcceptEventReceiver</text>
<text text-anchor="middle" x="420" y="-133.5" font-family="Helvetica,sans-Serif" font-size="10.00">::setTimeout</text>
</a>
</g>
</g>
<!-- Node5&#45;&gt;Node12 -->
<g id="edge11" class="edge">
<title>Node5&#45;&gt;Node12</title>
<path fill="none" stroke="midnightblue" d="M295.7,-168.39C311.36,-164.98 328.22,-161.3 344.29,-157.79"/>
<polygon fill="midnightblue" stroke="midnightblue" points="345.16,-161.19 354.18,-155.64 343.67,-154.35 345.16,-161.19"/>
</g>
<!-- Node14 -->
<g id="node14" class="node">
<title>Node14</title>
<g id="a_node14"><a xlink:href="classnet_1_1_event_receiver.html#ad2da553049435ab5f08b0fe24b5bd210" target="_top" xlink:title=" ">
<polygon fill="white" stroke="black" points="723,-120.5 723,-150.5 824,-150.5 824,-120.5 723,-120.5"/>
<text text-anchor="start" x="731" y="-138.5" font-family="Helvetica,sans-Serif" font-size="10.00">net::EventReceiver</text>
<text text-anchor="middle" x="773.5" y="-127.5" font-family="Helvetica,sans-Serif" font-size="10.00">::timeout</text>
</a>
</g>
</g>
<!-- Node5&#45;&gt;Node14 -->
<g id="edge15" class="edge">
<title>Node5&#45;&gt;Node14</title>
<path fill="none" stroke="midnightblue" d="M249.82,-167.35C271.01,-151.36 307.18,-127.14 343,-117.5 471.29,-82.97 628.84,-105.17 712.93,-121.89"/>
<polygon fill="midnightblue" stroke="midnightblue" points="712.31,-125.34 722.81,-123.9 713.71,-118.48 712.31,-125.34"/>
</g>
<!-- Node7 -->
<g id="node7" class="node">
<title>Node7</title>
<g id="a_node7"><a xlink:href="classnet_1_1_descriptor_event_dispatcher_1_1_event_receiver_list.html#a9adfbbdd59d16428d8fba87f40040cea" target="_top" xlink:title=" ">
<polygon fill="white" stroke="black" points="533,-312.5 533,-342.5 687,-342.5 687,-312.5 533,-312.5"/>
<text text-anchor="start" x="541" y="-330.5" font-family="Helvetica,sans-Serif" font-size="10.00">net::DescriptorEventDispatcher</text>
<text text-anchor="middle" x="610" y="-319.5" font-family="Helvetica,sans-Serif" font-size="10.00">::EventReceiverList::contains</text>
</a>
</g>
</g>
<!-- Node6&#45;&gt;Node7 -->
<g id="edge6" class="edge">
<title>Node6&#45;&gt;Node7</title>
<path fill="none" stroke="midnightblue" d="M478.68,-293.53C498.53,-298.71 520.94,-304.55 541.5,-309.91"/>
<polygon fill="midnightblue" stroke="midnightblue" points="540.87,-313.36 551.43,-312.49 542.63,-306.58 540.87,-313.36"/>
</g>
<!-- Node8 -->
<g id="node8" class="node">
<title>Node8</title>
<g id="a_node8"><a xlink:href="classnet_1_1_event_receiver.html#adf048bdc2dfce2b01f4c1bfff4beaa6b" target="_top" xlink:title=" ">
<polygon fill="white" stroke="black" points="559.5,-263.5 559.5,-293.5 660.5,-293.5 660.5,-263.5 559.5,-263.5"/>
<text text-anchor="start" x="567.5" y="-281.5" font-family="Helvetica,sans-Serif" font-size="10.00">net::EventReceiver</text>
<text text-anchor="middle" x="610" y="-270.5" font-family="Helvetica,sans-Serif" font-size="10.00">::enabled</text>
</a>
</g>
</g>
<!-- Node6&#45;&gt;Node8 -->
<g id="edge7" class="edge">
<title>Node6&#45;&gt;Node8</title>
<path fill="none" stroke="midnightblue" d="M497.2,-278.5C514.56,-278.5 532.76,-278.5 549.32,-278.5"/>
<polygon fill="midnightblue" stroke="midnightblue" points="549.4,-282 559.4,-278.5 549.4,-275 549.4,-282"/>
</g>
<!-- Node9 -->
<g id="node9" class="node">
<title>Node9</title>
<g id="a_node9"><a xlink:href="classnet_1_1_event_receiver.html#ac4e3a75a2849d0d8b1fc4ba2b754c8e3" target="_top" xlink:title=" ">
<polygon fill="white" stroke="black" points="559.5,-214.5 559.5,-244.5 660.5,-244.5 660.5,-214.5 559.5,-214.5"/>
<text text-anchor="start" x="567.5" y="-232.5" font-family="Helvetica,sans-Serif" font-size="10.00">net::EventReceiver</text>
<text text-anchor="middle" x="610" y="-221.5" font-family="Helvetica,sans-Serif" font-size="10.00">::isEnabled</text>
</a>
</g>
</g>
<!-- Node6&#45;&gt;Node9 -->
<g id="edge8" class="edge">
<title>Node6&#45;&gt;Node9</title>
<path fill="none" stroke="midnightblue" d="M478.68,-263.47C501.16,-257.61 526.9,-250.9 549.54,-245"/>
<polygon fill="midnightblue" stroke="midnightblue" points="550.57,-248.35 559.36,-242.44 548.8,-241.57 550.57,-248.35"/>
</g>
<!-- Node13 -->
<g id="node13" class="node">
<title>Node13</title>
<g id="a_node13"><a xlink:href="classnet_1_1_event_receiver.html#a26d6a5c5cdd5300540a937c17f91fdcd" target="_top" xlink:title=" ">
<polygon fill="white" stroke="black" points="559.5,-164.5 559.5,-194.5 660.5,-194.5 660.5,-164.5 559.5,-164.5"/>
<text text-anchor="start" x="567.5" y="-182.5" font-family="Helvetica,sans-Serif" font-size="10.00">net::EventReceiver</text>
<text text-anchor="middle" x="610" y="-171.5" font-family="Helvetica,sans-Serif" font-size="10.00">::setTimeout</text>
</a>
</g>
</g>
<!-- Node12&#45;&gt;Node13 -->
<g id="edge12" class="edge">
<title>Node12&#45;&gt;Node13</title>
<path fill="none" stroke="midnightblue" d="M485.7,-154.58C506.32,-158.75 529.04,-163.34 549.3,-167.43"/>
<polygon fill="midnightblue" stroke="midnightblue" points="548.84,-170.91 559.33,-169.46 550.22,-164.05 548.84,-170.91"/>
</g>
<!-- Node12&#45;&gt;Node14 -->
<g id="edge14" class="edge">
<title>Node12&#45;&gt;Node14</title>
<path fill="none" stroke="midnightblue" d="M485.88,-140.39C550.71,-139.29 649.55,-137.6 712.58,-136.52"/>
<polygon fill="midnightblue" stroke="midnightblue" points="712.82,-140.02 722.76,-136.35 712.7,-133.02 712.82,-140.02"/>
</g>
<!-- Node13&#45;&gt;Node14 -->
<g id="edge13" class="edge">
<title>Node13&#45;&gt;Node14</title>
<path fill="none" stroke="midnightblue" d="M660.77,-165.94C677.28,-161.44 695.81,-156.39 712.97,-151.72"/>
<polygon fill="midnightblue" stroke="midnightblue" points="714.16,-155.02 722.89,-149.02 712.32,-148.27 714.16,-155.02"/>
</g>
<!-- Node16 -->
<g id="node16" class="node">
<title>Node16</title>
<g id="a_node16"><a xlink:href="classnet_1_1_descriptor.html#a01e69bf9beb6fdff859ac396edc4c160" target="_top" xlink:title=" ">
<polygon fill="white" stroke="black" points="363,-50 363,-69 477,-69 477,-50 363,-50"/>
<text text-anchor="middle" x="420" y="-57" font-family="Helvetica,sans-Serif" font-size="10.00">net::Descriptor::attach</text>
</a>
</g>
</g>
<!-- Node15&#45;&gt;Node16 -->
<g id="edge18" class="edge">
<title>Node15&#45;&gt;Node16</title>
<path fill="none" stroke="midnightblue" d="M281.38,-59.5C303.27,-59.5 329.21,-59.5 352.63,-59.5"/>
<polygon fill="midnightblue" stroke="midnightblue" points="352.85,-63 362.85,-59.5 352.85,-56 352.85,-63"/>
</g>
<!-- Node17 -->
<g id="node17" class="node">
<title>Node17</title>
<g id="a_node17"><a xlink:href="classnet_1_1socket_1_1_socket.html#a4e4cd3dbedb5348efdb2fddf09526657" target="_top" xlink:title=" ">
<polygon fill="white" stroke="black" points="369,-0.5 369,-30.5 471,-30.5 471,-0.5 369,-0.5"/>
<text text-anchor="start" x="377" y="-18.5" font-family="Helvetica,sans-Serif" font-size="10.00">net::socket::Socket</text>
<text text-anchor="middle" x="420" y="-7.5" font-family="Helvetica,sans-Serif" font-size="10.00">::create</text>
</a>
</g>
</g>
<!-- Node15&#45;&gt;Node17 -->
<g id="edge19" class="edge">
<title>Node15&#45;&gt;Node17</title>
<path fill="none" stroke="midnightblue" d="M281.38,-47.71C305.29,-42.11 334.04,-35.39 359.06,-29.53"/>
<polygon fill="midnightblue" stroke="midnightblue" points="359.87,-32.93 368.81,-27.25 358.27,-26.12 359.87,-32.93"/>
</g>
<!-- Node18&#45;&gt;Node3 -->
<g id="edge21" class="edge">
<title>Node18&#45;&gt;Node3</title>
<path fill="none" stroke="midnightblue" d="M289.22,-246.55C295.49,-249.35 301.56,-252.64 307,-256.5 328.45,-271.73 321.19,-288.79 343,-303.5 347.36,-306.44 352.12,-308.97 357.06,-311.14"/>
<polygon fill="midnightblue" stroke="midnightblue" points="356.15,-314.55 366.73,-314.91 358.69,-308.02 356.15,-314.55"/>
</g>
</g>
</svg>
