<?xml version="1.0" encoding="UTF-8" standalone="no"?>
<!DOCTYPE svg PUBLIC "-//W3C//DTD SVG 1.1//EN"
 "http://www.w3.org/Graphics/SVG/1.1/DTD/svg11.dtd">
<!-- Generated by graphviz version 2.43.0 (0)
 -->
<!-- Title: net::socket::stream::SocketConnector::connect Pages: 1 -->
<svg width="304pt" height="132pt"
 viewBox="0.00 0.00 304.00 132.00" xmlns="http://www.w3.org/2000/svg" xmlns:xlink="http://www.w3.org/1999/xlink">
<g id="graph0" class="graph" transform="scale(1 1) rotate(0) translate(4 128)">
<title>net::socket::stream::SocketConnector::connect</title>
<polygon fill="white" stroke="transparent" points="-4,4 -4,-128 300,-128 300,4 -4,4"/>
<!-- Node1 -->
<g id="node1" class="node">
<title>Node1</title>
<g id="a_node1"><a xlink:title=" ">
<polygon fill="#bfbfbf" stroke="black" points="157,-41 157,-71 296,-71 296,-41 157,-41"/>
<text text-anchor="start" x="165" y="-59" font-family="Helvetica,sans-Serif" font-size="10.00">net::socket::stream</text>
<text text-anchor="middle" x="226.5" y="-48" font-family="Helvetica,sans-Serif" font-size="10.00">::SocketConnector::connect</text>
</a>
</g>
</g>
<!-- Node1&#45;&gt;Node1 -->
<g id="edge1" class="edge">
<title>Node1&#45;&gt;Node1</title>
<path fill="none" stroke="midnightblue" d="M256,-81.46C252.34,-86.18 242.5,-89.5 226.5,-89.5 200.24,-89.5 190.6,-80.56 197.57,-71.16"/>
<polygon fill="midnightblue" stroke="midnightblue" points="259.47,-80.95 255.43,-71.16 252.48,-81.34 259.47,-80.95"/>
</g>
<!-- Node2 -->
<g id="node2" class="node">
<title>Node2</title>
<g id="a_node2"><a xlink:href="classnet_1_1socket_1_1stream_1_1_socket_client.html#ae7a025340b6583e374ef49855e404c70" target="_top" xlink:title=" ">
<polygon fill="white" stroke="black" points="0,-60.5 0,-123.5 121,-123.5 121,-60.5 0,-60.5"/>
<text text-anchor="start" x="8" y="-111.5" font-family="Helvetica,sans-Serif" font-size="10.00">net::socket::stream</text>
<text text-anchor="start" x="8" y="-100.5" font-family="Helvetica,sans-Serif" font-size="10.00">::SocketClient&lt; legacy</text>
<text text-anchor="start" x="8" y="-89.5" font-family="Helvetica,sans-Serif" font-size="10.00">::SocketConnector&lt; net</text>
<text text-anchor="start" x="8" y="-78.5" font-family="Helvetica,sans-Serif" font-size="10.00">::socket::ip::tcp::ipv4</text>
<text text-anchor="middle" x="60.5" y="-67.5" font-family="Helvetica,sans-Serif" font-size="10.00">::Socket &gt; &gt;::connect</text>
</a>
</g>
</g>
<!-- Node1&#45;&gt;Node2 -->
<g id="edge2" class="edge">
<title>Node1&#45;&gt;Node2</title>
<path fill="none" stroke="midnightblue" d="M147.11,-73.21C138.41,-75.12 129.65,-77.04 121.23,-78.89"/>
<polygon fill="midnightblue" stroke="midnightblue" points="147.88,-76.62 156.9,-71.06 146.38,-69.78 147.88,-76.62"/>
</g>
<!-- Node3 -->
<g id="node3" class="node">
<title>Node3</title>
<g id="a_node3"><a xlink:href="classnet_1_1socket_1_1stream_1_1tls_1_1_socket_connector.html#a55a34bcdd5d8379a2d645fc6b1b1124c" target="_top" xlink:title=" ">
<polygon fill="white" stroke="black" points="3,-0.5 3,-41.5 118,-41.5 118,-0.5 3,-0.5"/>
<text text-anchor="start" x="11" y="-29.5" font-family="Helvetica,sans-Serif" font-size="10.00">net::socket::stream</text>
<text text-anchor="start" x="11" y="-18.5" font-family="Helvetica,sans-Serif" font-size="10.00">::tls::SocketConnector</text>
<text text-anchor="middle" x="60.5" y="-7.5" font-family="Helvetica,sans-Serif" font-size="10.00">::connect</text>
</a>
</g>
</g>
<!-- Node1&#45;&gt;Node3 -->
<g id="edge3" class="edge">
<title>Node1&#45;&gt;Node3</title>
<path fill="none" stroke="midnightblue" d="M146.85,-39.22C137.17,-37.15 127.42,-35.07 118.15,-33.09"/>
<polygon fill="midnightblue" stroke="midnightblue" points="146.39,-42.7 156.9,-41.36 147.85,-35.85 146.39,-42.7"/>
</g>
</g>
</svg>
