<?xml version="1.0" encoding="UTF-8" standalone="no"?>
<!DOCTYPE svg PUBLIC "-//W3C//DTD SVG 1.1//EN"
 "http://www.w3.org/Graphics/SVG/1.1/DTD/svg11.dtd">
<!-- Generated by graphviz version 2.43.0 (0)
 -->
<!-- Title: net::socket::stream::tls::SocketListener::SocketListener Pages: 1 -->
<svg width="952pt" height="287pt"
 viewBox="0.00 0.00 952.00 286.50" xmlns="http://www.w3.org/2000/svg" xmlns:xlink="http://www.w3.org/1999/xlink">
<g id="graph0" class="graph" transform="scale(1 1) rotate(0) translate(4 282.5)">
<title>net::socket::stream::tls::SocketListener::SocketListener</title>
<polygon fill="white" stroke="transparent" points="-4,4 -4,-282.5 948,-282.5 948,4 -4,4"/>
<!-- Node1 -->
<g id="node1" class="node">
<title>Node1</title>
<g id="a_node1"><a xlink:title=" ">
<polygon fill="#bfbfbf" stroke="black" points="0,-99 0,-140 104,-140 104,-99 0,-99"/>
<text text-anchor="start" x="8" y="-128" font-family="Helvetica,sans-Serif" font-size="10.00">net::socket::stream</text>
<text text-anchor="start" x="8" y="-117" font-family="Helvetica,sans-Serif" font-size="10.00">::tls::SocketListener</text>
<text text-anchor="middle" x="52" y="-106" font-family="Helvetica,sans-Serif" font-size="10.00">::SocketListener</text>
</a>
</g>
</g>
<!-- Node2 -->
<g id="node2" class="node">
<title>Node2</title>
<g id="a_node2"><a xlink:href="classnet_1_1socket_1_1stream_1_1tls_1_1_t_l_s_handshake.html#a2c4876e61d8860846d4caa2195e46231" target="_top" xlink:title=" ">
<polygon fill="white" stroke="black" points="146,-159 146,-200 253,-200 253,-159 146,-159"/>
<text text-anchor="start" x="154" y="-188" font-family="Helvetica,sans-Serif" font-size="10.00">net::socket::stream</text>
<text text-anchor="start" x="154" y="-177" font-family="Helvetica,sans-Serif" font-size="10.00">::tls::TLSHandshake</text>
<text text-anchor="middle" x="199.5" y="-166" font-family="Helvetica,sans-Serif" font-size="10.00">::doHandshake</text>
</a>
</g>
</g>
<!-- Node1&#45;&gt;Node2 -->
<g id="edge1" class="edge">
<title>Node1&#45;&gt;Node2</title>
<path fill="none" stroke="midnightblue" d="M103.07,-140.15C114.62,-144.91 127.01,-150.02 138.92,-154.93"/>
<polygon fill="midnightblue" stroke="midnightblue" points="137.76,-158.24 148.33,-158.81 140.42,-151.77 137.76,-158.24"/>
</g>
<!-- Node13 -->
<g id="node13" class="node">
<title>Node13</title>
<g id="a_node13"><a xlink:href="classnet_1_1socket_1_1stream_1_1tls_1_1_socket_connection.html#ab2d1ac395884dd5197ddef41699b06c9" target="_top" xlink:title=" ">
<polygon fill="white" stroke="black" points="140,-99 140,-140 259,-140 259,-99 140,-99"/>
<text text-anchor="start" x="148" y="-128" font-family="Helvetica,sans-Serif" font-size="10.00">net::socket::stream</text>
<text text-anchor="start" x="148" y="-117" font-family="Helvetica,sans-Serif" font-size="10.00">::tls::SocketConnection</text>
<text text-anchor="middle" x="199.5" y="-106" font-family="Helvetica,sans-Serif" font-size="10.00">::setSSLError</text>
</a>
</g>
</g>
<!-- Node1&#45;&gt;Node13 -->
<g id="edge14" class="edge">
<title>Node1&#45;&gt;Node13</title>
<path fill="none" stroke="midnightblue" d="M104.3,-119.5C112.59,-119.5 121.29,-119.5 129.91,-119.5"/>
<polygon fill="midnightblue" stroke="midnightblue" points="129.97,-123 139.97,-119.5 129.97,-116 129.97,-123"/>
</g>
<!-- Node14 -->
<g id="node14" class="node">
<title>Node14</title>
<g id="a_node14"><a xlink:href="namespacenet_1_1socket_1_1stream_1_1tls.html#afde8379e5ec869b4670b8c7ed7392b2e" target="_top" xlink:title=" ">
<polygon fill="white" stroke="black" points="149,-49.5 149,-79.5 250,-79.5 250,-49.5 149,-49.5"/>
<text text-anchor="start" x="157" y="-67.5" font-family="Helvetica,sans-Serif" font-size="10.00">net::socket::stream</text>
<text text-anchor="middle" x="199.5" y="-56.5" font-family="Helvetica,sans-Serif" font-size="10.00">::tls::ssl_log</text>
</a>
</g>
</g>
<!-- Node1&#45;&gt;Node14 -->
<g id="edge15" class="edge">
<title>Node1&#45;&gt;Node14</title>
<path fill="none" stroke="midnightblue" d="M104.3,-100.11C118.79,-94.63 134.53,-88.68 148.92,-83.24"/>
<polygon fill="midnightblue" stroke="midnightblue" points="150.52,-86.38 158.63,-79.57 148.04,-79.83 150.52,-86.38"/>
</g>
<!-- Node3 -->
<g id="node3" class="node">
<title>Node3</title>
<g id="a_node3"><a xlink:href="classnet_1_1socket_1_1stream_1_1tls_1_1_t_l_s_handshake.html#ad0daae6842f143fcf3d1a7c6d667a160" target="_top" xlink:title=" ">
<polygon fill="white" stroke="black" points="296,-159 296,-200 403,-200 403,-159 296,-159"/>
<text text-anchor="start" x="304" y="-188" font-family="Helvetica,sans-Serif" font-size="10.00">net::socket::stream</text>
<text text-anchor="start" x="304" y="-177" font-family="Helvetica,sans-Serif" font-size="10.00">::tls::TLSHandshake</text>
<text text-anchor="middle" x="349.5" y="-166" font-family="Helvetica,sans-Serif" font-size="10.00">::TLSHandshake</text>
</a>
</g>
</g>
<!-- Node2&#45;&gt;Node3 -->
<g id="edge2" class="edge">
<title>Node2&#45;&gt;Node3</title>
<path fill="none" stroke="midnightblue" d="M253.1,-179.5C263.55,-179.5 274.62,-179.5 285.38,-179.5"/>
<polygon fill="midnightblue" stroke="midnightblue" points="285.57,-183 295.57,-179.5 285.57,-176 285.57,-183"/>
</g>
<!-- Node4 -->
<g id="node4" class="node">
<title>Node4</title>
<g id="a_node4"><a xlink:href="classnet_1_1_read_event_receiver.html#a5bd543f1a4fad51b303439d376e9632d" target="_top" xlink:title=" ">
<polygon fill="white" stroke="black" points="440,-140.5 440,-170.5 564,-170.5 564,-140.5 440,-140.5"/>
<text text-anchor="start" x="448" y="-158.5" font-family="Helvetica,sans-Serif" font-size="10.00">net::ReadEventReceiver</text>
<text text-anchor="middle" x="502" y="-147.5" font-family="Helvetica,sans-Serif" font-size="10.00">::enable</text>
</a>
</g>
</g>
<!-- Node3&#45;&gt;Node4 -->
<g id="edge3" class="edge">
<title>Node3&#45;&gt;Node4</title>
<path fill="none" stroke="midnightblue" d="M403.14,-171.11C411.76,-169.73 420.82,-168.29 429.8,-166.85"/>
<polygon fill="midnightblue" stroke="midnightblue" points="430.56,-170.28 439.88,-165.25 429.45,-163.37 430.56,-170.28"/>
</g>
<!-- Node11 -->
<g id="node11" class="node">
<title>Node11</title>
<g id="a_node11"><a xlink:href="classnet_1_1_write_event_receiver.html#affafcbc87e19820474b1b3520e597260" target="_top" xlink:title=" ">
<polygon fill="white" stroke="black" points="440.5,-189.5 440.5,-219.5 563.5,-219.5 563.5,-189.5 440.5,-189.5"/>
<text text-anchor="start" x="448.5" y="-207.5" font-family="Helvetica,sans-Serif" font-size="10.00">net::WriteEventReceiver</text>
<text text-anchor="middle" x="502" y="-196.5" font-family="Helvetica,sans-Serif" font-size="10.00">::enable</text>
</a>
</g>
</g>
<!-- Node3&#45;&gt;Node11 -->
<g id="edge10" class="edge">
<title>Node3&#45;&gt;Node11</title>
<path fill="none" stroke="midnightblue" d="M403.14,-188.24C411.98,-189.71 421.28,-191.26 430.48,-192.79"/>
<polygon fill="midnightblue" stroke="midnightblue" points="429.96,-196.25 440.4,-194.43 431.11,-189.34 429.96,-196.25"/>
</g>
<!-- Node5 -->
<g id="node5" class="node">
<title>Node5</title>
<g id="a_node5"><a xlink:href="classnet_1_1_descriptor_event_dispatcher.html#a73814f761935ca747c521b3ce46c2689" target="_top" xlink:title=" ">
<polygon fill="white" stroke="black" points="600,-187.5 600,-217.5 754,-217.5 754,-187.5 600,-187.5"/>
<text text-anchor="start" x="608" y="-205.5" font-family="Helvetica,sans-Serif" font-size="10.00">net::DescriptorEventDispatcher</text>
<text text-anchor="middle" x="677" y="-194.5" font-family="Helvetica,sans-Serif" font-size="10.00">::enable</text>
</a>
</g>
</g>
<!-- Node4&#45;&gt;Node5 -->
<g id="edge4" class="edge">
<title>Node4&#45;&gt;Node5</title>
<path fill="none" stroke="midnightblue" d="M558.21,-170.5C574.91,-175.04 593.41,-180.06 610.7,-184.76"/>
<polygon fill="midnightblue" stroke="midnightblue" points="610.15,-188.24 620.72,-187.48 611.98,-181.48 610.15,-188.24"/>
</g>
<!-- Node9 -->
<g id="node9" class="node">
<title>Node9</title>
<g id="a_node9"><a xlink:href="classnet_1_1_event_loop.html#ace10fc7540ecf33dbd7efeb50f2a6a4d" target="_top" xlink:title=" ">
<polygon fill="white" stroke="black" points="601.5,-99.5 601.5,-129.5 752.5,-129.5 752.5,-99.5 601.5,-99.5"/>
<text text-anchor="start" x="609.5" y="-117.5" font-family="Helvetica,sans-Serif" font-size="10.00">net::EventLoop::getReadEvent</text>
<text text-anchor="middle" x="677" y="-106.5" font-family="Helvetica,sans-Serif" font-size="10.00">Dispatcher</text>
</a>
</g>
</g>
<!-- Node4&#45;&gt;Node9 -->
<g id="edge8" class="edge">
<title>Node4&#45;&gt;Node9</title>
<path fill="none" stroke="midnightblue" d="M564.48,-140.93C576.82,-138.01 589.9,-134.91 602.6,-131.9"/>
<polygon fill="midnightblue" stroke="midnightblue" points="603.75,-135.22 612.67,-129.51 602.14,-128.41 603.75,-135.22"/>
</g>
<!-- Node10 -->
<g id="node10" class="node">
<title>Node10</title>
<g id="a_node10"><a xlink:href="classnet_1_1_event_loop.html#a6d8bfd6fa03bb6bf423035ab190657ef" target="_top" xlink:title=" ">
<polygon fill="white" stroke="black" points="614.5,-149 614.5,-168 739.5,-168 739.5,-149 614.5,-149"/>
<text text-anchor="middle" x="677" y="-156" font-family="Helvetica,sans-Serif" font-size="10.00">net::EventLoop::instance</text>
</a>
</g>
</g>
<!-- Node4&#45;&gt;Node10 -->
<g id="edge9" class="edge">
<title>Node4&#45;&gt;Node10</title>
<path fill="none" stroke="midnightblue" d="M564.48,-156.57C577.4,-156.79 591.14,-157.03 604.4,-157.26"/>
<polygon fill="midnightblue" stroke="midnightblue" points="604.37,-160.76 614.43,-157.43 604.49,-153.76 604.37,-160.76"/>
</g>
<!-- Node6 -->
<g id="node6" class="node">
<title>Node6</title>
<g id="a_node6"><a xlink:href="classnet_1_1_descriptor_event_dispatcher_1_1_descriptor_event_receiver_list.html#ab0128e4373c28e76fe9db7b286e50e38" target="_top" xlink:title=" ">
<polygon fill="white" stroke="black" points="790,-237 790,-278 944,-278 944,-237 790,-237"/>
<text text-anchor="start" x="798" y="-266" font-family="Helvetica,sans-Serif" font-size="10.00">net::DescriptorEventDispatcher</text>
<text text-anchor="start" x="798" y="-255" font-family="Helvetica,sans-Serif" font-size="10.00">::DescriptorEventReceiverList</text>
<text text-anchor="middle" x="867" y="-244" font-family="Helvetica,sans-Serif" font-size="10.00">::contains</text>
</a>
</g>
</g>
<!-- Node5&#45;&gt;Node6 -->
<g id="edge5" class="edge">
<title>Node5&#45;&gt;Node6</title>
<path fill="none" stroke="midnightblue" d="M729.37,-217.53C746.86,-222.64 766.84,-228.49 786.02,-234.1"/>
<polygon fill="midnightblue" stroke="midnightblue" points="785.08,-237.47 795.66,-236.92 787.05,-230.76 785.08,-237.47"/>
</g>
<!-- Node7 -->
<g id="node7" class="node">
<title>Node7</title>
<g id="a_node7"><a xlink:href="classnet_1_1_descriptor_event_receiver.html#a9e2301bbfa9bb03c4d15372b7a2dc6d1" target="_top" xlink:title=" ">
<polygon fill="white" stroke="black" points="794,-187.5 794,-217.5 940,-217.5 940,-187.5 794,-187.5"/>
<text text-anchor="start" x="802" y="-205.5" font-family="Helvetica,sans-Serif" font-size="10.00">net::DescriptorEventReceiver</text>
<text text-anchor="middle" x="867" y="-194.5" font-family="Helvetica,sans-Serif" font-size="10.00">::enabled</text>
</a>
</g>
</g>
<!-- Node5&#45;&gt;Node7 -->
<g id="edge6" class="edge">
<title>Node5&#45;&gt;Node7</title>
<path fill="none" stroke="midnightblue" d="M754.2,-202.5C763.94,-202.5 773.95,-202.5 783.79,-202.5"/>
<polygon fill="midnightblue" stroke="midnightblue" points="783.95,-206 793.95,-202.5 783.95,-199 783.95,-206"/>
</g>
<!-- Node8 -->
<g id="node8" class="node">
<title>Node8</title>
<g id="a_node8"><a xlink:href="classnet_1_1_descriptor_event_receiver.html#a58562b1da4bc4f87bc7c51eb04db62a4" target="_top" xlink:title=" ">
<polygon fill="white" stroke="black" points="794,-138.5 794,-168.5 940,-168.5 940,-138.5 794,-138.5"/>
<text text-anchor="start" x="802" y="-156.5" font-family="Helvetica,sans-Serif" font-size="10.00">net::DescriptorEventReceiver</text>
<text text-anchor="middle" x="867" y="-145.5" font-family="Helvetica,sans-Serif" font-size="10.00">::isEnabled</text>
</a>
</g>
</g>
<!-- Node5&#45;&gt;Node8 -->
<g id="edge7" class="edge">
<title>Node5&#45;&gt;Node8</title>
<path fill="none" stroke="midnightblue" d="M735.68,-187.47C755.53,-182.29 777.94,-176.45 798.5,-171.09"/>
<polygon fill="midnightblue" stroke="midnightblue" points="799.63,-174.42 808.43,-168.51 797.87,-167.64 799.63,-174.42"/>
</g>
<!-- Node11&#45;&gt;Node5 -->
<g id="edge11" class="edge">
<title>Node11&#45;&gt;Node5</title>
<path fill="none" stroke="midnightblue" d="M563.51,-203.8C571.91,-203.7 580.68,-203.6 589.44,-203.5"/>
<polygon fill="midnightblue" stroke="midnightblue" points="589.75,-207 599.71,-203.38 589.67,-200 589.75,-207"/>
</g>
<!-- Node11&#45;&gt;Node10 -->
<g id="edge13" class="edge">
<title>Node11&#45;&gt;Node10</title>
<path fill="none" stroke="midnightblue" d="M556.04,-189.46C570.3,-185.5 585.72,-181.27 600,-177.5 608.69,-175.2 617.97,-172.83 626.94,-170.56"/>
<polygon fill="midnightblue" stroke="midnightblue" points="628.05,-173.89 636.9,-168.07 626.34,-167.1 628.05,-173.89"/>
</g>
<!-- Node12 -->
<g id="node12" class="node">
<title>Node12</title>
<g id="a_node12"><a xlink:href="classnet_1_1_event_loop.html#a53697a464b99a65cde0a384bb896d5f3" target="_top" xlink:title=" ">
<polygon fill="white" stroke="black" points="614.5,-236.5 614.5,-266.5 739.5,-266.5 739.5,-236.5 614.5,-236.5"/>
<text text-anchor="start" x="622.5" y="-254.5" font-family="Helvetica,sans-Serif" font-size="10.00">net::EventLoop::getWrite</text>
<text text-anchor="middle" x="677" y="-243.5" font-family="Helvetica,sans-Serif" font-size="10.00">EventDispatcher</text>
</a>
</g>
</g>
<!-- Node11&#45;&gt;Node12 -->
<g id="edge12" class="edge">
<title>Node11&#45;&gt;Node12</title>
<path fill="none" stroke="midnightblue" d="M558.21,-219.5C574.91,-224.04 593.41,-229.06 610.7,-233.76"/>
<polygon fill="midnightblue" stroke="midnightblue" points="610.15,-237.24 620.72,-236.48 611.98,-230.48 610.15,-237.24"/>
</g>
<!-- Node15 -->
<g id="node15" class="node">
<title>Node15</title>
<g id="a_node15"><a xlink:href="namespacenet_1_1socket_1_1stream_1_1tls.html#a8269fee0934def60c31476602718cef3" target="_top" xlink:title=" ">
<polygon fill="white" stroke="black" points="299,-98.5 299,-128.5 400,-128.5 400,-98.5 299,-98.5"/>
<text text-anchor="start" x="307" y="-116.5" font-family="Helvetica,sans-Serif" font-size="10.00">net::socket::stream</text>
<text text-anchor="middle" x="349.5" y="-105.5" font-family="Helvetica,sans-Serif" font-size="10.00">::tls::ssl_log_error</text>
</a>
</g>
</g>
<!-- Node14&#45;&gt;Node15 -->
<g id="edge16" class="edge">
<title>Node14&#45;&gt;Node15</title>
<path fill="none" stroke="midnightblue" d="M246.11,-79.6C261.09,-84.56 277.91,-90.13 293.51,-95.29"/>
<polygon fill="midnightblue" stroke="midnightblue" points="292.44,-98.63 303.04,-98.45 294.64,-91.98 292.44,-98.63"/>
</g>
<!-- Node16 -->
<g id="node16" class="node">
<title>Node16</title>
<g id="a_node16"><a xlink:href="namespacenet_1_1socket_1_1stream_1_1tls.html#ae9b9d9cde7561dcf6b01f23652dfd447" target="_top" xlink:title=" ">
<polygon fill="white" stroke="black" points="299,-49.5 299,-79.5 400,-79.5 400,-49.5 299,-49.5"/>
<text text-anchor="start" x="307" y="-67.5" font-family="Helvetica,sans-Serif" font-size="10.00">net::socket::stream</text>
<text text-anchor="middle" x="349.5" y="-56.5" font-family="Helvetica,sans-Serif" font-size="10.00">::tls::ssl_log_info</text>
</a>
</g>
</g>
<!-- Node14&#45;&gt;Node16 -->
<g id="edge17" class="edge">
<title>Node14&#45;&gt;Node16</title>
<path fill="none" stroke="midnightblue" d="M250.19,-64.5C262.58,-64.5 276,-64.5 288.82,-64.5"/>
<polygon fill="midnightblue" stroke="midnightblue" points="288.94,-68 298.94,-64.5 288.94,-61 288.94,-68"/>
</g>
<!-- Node17 -->
<g id="node17" class="node">
<title>Node17</title>
<g id="a_node17"><a xlink:href="namespacenet_1_1socket_1_1stream_1_1tls.html#a1f99ab1ce84106de8264b2da5001dbed" target="_top" xlink:title=" ">
<polygon fill="white" stroke="black" points="295,-0.5 295,-30.5 404,-30.5 404,-0.5 295,-0.5"/>
<text text-anchor="start" x="303" y="-18.5" font-family="Helvetica,sans-Serif" font-size="10.00">net::socket::stream</text>
<text text-anchor="middle" x="349.5" y="-7.5" font-family="Helvetica,sans-Serif" font-size="10.00">::tls::ssl_log_warning</text>
</a>
</g>
</g>
<!-- Node14&#45;&gt;Node17 -->
<g id="edge18" class="edge">
<title>Node14&#45;&gt;Node17</title>
<path fill="none" stroke="midnightblue" d="M246.11,-49.4C261.09,-44.44 277.91,-38.87 293.51,-33.71"/>
<polygon fill="midnightblue" stroke="midnightblue" points="294.64,-37.02 303.04,-30.55 292.44,-30.37 294.64,-37.02"/>
</g>
</g>
</svg>
