<?xml version="1.0" encoding="UTF-8" standalone="no"?>
<!DOCTYPE svg PUBLIC "-//W3C//DTD SVG 1.1//EN"
 "http://www.w3.org/Graphics/SVG/1.1/DTD/svg11.dtd">
<!-- Generated by graphviz version 2.43.0 (0)
 -->
<!-- Title: net::socket::stream::legacy::SocketConnection&lt; SocketT &gt; Pages: 1 -->
<svg width="681pt" height="1643pt"
 viewBox="0.00 0.00 681.00 1643.00" xmlns="http://www.w3.org/2000/svg" xmlns:xlink="http://www.w3.org/1999/xlink">
<g id="graph0" class="graph" transform="scale(1 1) rotate(0) translate(4 1639)">
<title>net::socket::stream::legacy::SocketConnection&lt; SocketT &gt;</title>
<polygon fill="white" stroke="transparent" points="-4,4 -4,-1639 677,-1639 677,4 -4,4"/>
<!-- Node1 -->
<g id="node1" class="node">
<title>Node1</title>
<g id="a_node1"><a xlink:title=" ">
<polygon fill="#bfbfbf" stroke="black" points="237.5,-0.5 237.5,-79.5 374.5,-79.5 374.5,-0.5 237.5,-0.5"/>
<text text-anchor="start" x="245.5" y="-67.5" font-family="Helvetica,sans-Serif" font-size="10.00">net::socket::stream</text>
<text text-anchor="start" x="245.5" y="-56.5" font-family="Helvetica,sans-Serif" font-size="10.00">::legacy::SocketConnection</text>
<text text-anchor="middle" x="306" y="-45.5" font-family="Helvetica,sans-Serif" font-size="10.00">&lt; SocketT &gt;</text>
<polyline fill="none" stroke="black" points="237.5,-38.5 374.5,-38.5 "/>
<text text-anchor="middle" x="306" y="-26.5" font-family="Helvetica,sans-Serif" font-size="10.00"> </text>
<polyline fill="none" stroke="black" points="237.5,-19.5 374.5,-19.5 "/>
<text text-anchor="start" x="245.5" y="-7.5" font-family="Helvetica,sans-Serif" font-size="10.00">+ SocketConnection()</text>
</a>
</g>
</g>
<!-- Node2 -->
<g id="node2" class="node">
<title>Node2</title>
<g id="a_node2"><a xlink:href="classnet_1_1socket_1_1stream_1_1_socket_connection.html" target="_top" xlink:title=" ">
<polygon fill="white" stroke="black" points="209,-117.5 209,-361.5 403,-361.5 403,-117.5 209,-117.5"/>
<text text-anchor="start" x="217" y="-349.5" font-family="Helvetica,sans-Serif" font-size="10.00">net::socket::stream</text>
<text text-anchor="start" x="217" y="-338.5" font-family="Helvetica,sans-Serif" font-size="10.00">::SocketConnection&lt;</text>
<text text-anchor="start" x="217" y="-327.5" font-family="Helvetica,sans-Serif" font-size="10.00"> legacy::SocketReader</text>
<text text-anchor="start" x="217" y="-316.5" font-family="Helvetica,sans-Serif" font-size="10.00">&lt; SocketT &gt;, legacy::SocketWriter</text>
<text text-anchor="middle" x="306" y="-305.5" font-family="Helvetica,sans-Serif" font-size="10.00">&lt; SocketT &gt;, SocketT::SocketAddress &gt;</text>
<polyline fill="none" stroke="black" points="209,-298.5 403,-298.5 "/>
<text text-anchor="start" x="217" y="-286.5" font-family="Helvetica,sans-Serif" font-size="10.00">&#45; remoteAddress</text>
<text text-anchor="start" x="217" y="-275.5" font-family="Helvetica,sans-Serif" font-size="10.00">&#45; localAddress</text>
<text text-anchor="start" x="217" y="-264.5" font-family="Helvetica,sans-Serif" font-size="10.00">&#45; onDestruct</text>
<text text-anchor="start" x="217" y="-253.5" font-family="Helvetica,sans-Serif" font-size="10.00">&#45; onDisconnect</text>
<polyline fill="none" stroke="black" points="209,-246.5 403,-246.5 "/>
<text text-anchor="start" x="217" y="-234.5" font-family="Helvetica,sans-Serif" font-size="10.00">+ SocketConnection()</text>
<text text-anchor="start" x="217" y="-223.5" font-family="Helvetica,sans-Serif" font-size="10.00">+ SocketConnection()</text>
<text text-anchor="start" x="217" y="-212.5" font-family="Helvetica,sans-Serif" font-size="10.00">+ enqueue()</text>
<text text-anchor="start" x="217" y="-201.5" font-family="Helvetica,sans-Serif" font-size="10.00">+ enqueue()</text>
<text text-anchor="start" x="217" y="-190.5" font-family="Helvetica,sans-Serif" font-size="10.00">+ close()</text>
<text text-anchor="start" x="217" y="-179.5" font-family="Helvetica,sans-Serif" font-size="10.00">+ getRemoteAddress()</text>
<text text-anchor="start" x="217" y="-168.5" font-family="Helvetica,sans-Serif" font-size="10.00">+ setRemoteAddress()</text>
<text text-anchor="start" x="217" y="-157.5" font-family="Helvetica,sans-Serif" font-size="10.00">+ getLocalAddress()</text>
<text text-anchor="start" x="217" y="-146.5" font-family="Helvetica,sans-Serif" font-size="10.00">+ setLocalAddress()</text>
<text text-anchor="start" x="217" y="-135.5" font-family="Helvetica,sans-Serif" font-size="10.00"># ~SocketConnection()</text>
<text text-anchor="start" x="217" y="-124.5" font-family="Helvetica,sans-Serif" font-size="10.00">&#45; unobserved()</text>
</a>
</g>
</g>
<!-- Node2&#45;&gt;Node1 -->
<g id="edge1" class="edge">
<title>Node2&#45;&gt;Node1</title>
<path fill="none" stroke="midnightblue" d="M306,-107.31C306,-97.4 306,-87.99 306,-79.52"/>
<polygon fill="none" stroke="midnightblue" points="302.5,-107.36 306,-117.36 309.5,-107.36 302.5,-107.36"/>
</g>
<!-- Node3 -->
<g id="node3" class="node">
<title>Node3</title>
<g id="a_node3"><a xlink:href="classnet_1_1socket_1_1stream_1_1_socket_connection_base.html" target="_top" xlink:title=" ">
<polygon fill="white" stroke="black" points="0,-702.5 0,-880.5 140,-880.5 140,-702.5 0,-702.5"/>
<text text-anchor="start" x="8" y="-868.5" font-family="Helvetica,sans-Serif" font-size="10.00">net::socket::stream</text>
<text text-anchor="middle" x="70" y="-857.5" font-family="Helvetica,sans-Serif" font-size="10.00">::SocketConnectionBase</text>
<polyline fill="none" stroke="black" points="0,-850.5 140,-850.5 "/>
<text text-anchor="start" x="8" y="-838.5" font-family="Helvetica,sans-Serif" font-size="10.00">&#45; protocol</text>
<polyline fill="none" stroke="black" points="0,-831.5 140,-831.5 "/>
<text text-anchor="start" x="8" y="-819.5" font-family="Helvetica,sans-Serif" font-size="10.00">+ SocketConnectionBase()</text>
<text text-anchor="start" x="8" y="-808.5" font-family="Helvetica,sans-Serif" font-size="10.00">+ SocketConnectionBase()</text>
<text text-anchor="start" x="8" y="-797.5" font-family="Helvetica,sans-Serif" font-size="10.00">+ operator=()</text>
<text text-anchor="start" x="8" y="-786.5" font-family="Helvetica,sans-Serif" font-size="10.00">+ enqueue()</text>
<text text-anchor="start" x="8" y="-775.5" font-family="Helvetica,sans-Serif" font-size="10.00">+ enqueue()</text>
<text text-anchor="start" x="8" y="-764.5" font-family="Helvetica,sans-Serif" font-size="10.00">+ close()</text>
<text text-anchor="start" x="8" y="-753.5" font-family="Helvetica,sans-Serif" font-size="10.00">+ setContext()</text>
<text text-anchor="start" x="8" y="-742.5" font-family="Helvetica,sans-Serif" font-size="10.00">+ setContext()</text>
<text text-anchor="start" x="8" y="-731.5" font-family="Helvetica,sans-Serif" font-size="10.00">+ getContext()</text>
<text text-anchor="start" x="8" y="-720.5" font-family="Helvetica,sans-Serif" font-size="10.00">+ getContext()</text>
<text text-anchor="start" x="8" y="-709.5" font-family="Helvetica,sans-Serif" font-size="10.00"># ~SocketConnectionBase()</text>
</a>
</g>
</g>
<!-- Node3&#45;&gt;Node2 -->
<g id="edge2" class="edge">
<title>Node3&#45;&gt;Node2</title>
<path fill="none" stroke="midnightblue" d="M66.99,-691.76C68.49,-616.67 78.95,-512.7 119,-431 140.22,-387.72 175.06,-348.17 208.95,-316.45"/>
<polygon fill="none" stroke="midnightblue" points="63.48,-692.1 66.83,-702.15 70.48,-692.21 63.48,-692.1"/>
</g>
<!-- Node15 -->
<g id="node15" class="node">
<title>Node15</title>
<g id="a_node15"><a xlink:href="classnet_1_1socket_1_1stream_1_1_socket_connection.html" target="_top" xlink:title=" ">
<polygon fill="white" stroke="black" points="128.5,-431.5 128.5,-664.5 277.5,-664.5 277.5,-431.5 128.5,-431.5"/>
<text text-anchor="start" x="136.5" y="-652.5" font-family="Helvetica,sans-Serif" font-size="10.00">net::socket::stream</text>
<text text-anchor="start" x="136.5" y="-641.5" font-family="Helvetica,sans-Serif" font-size="10.00">::SocketConnection&lt;</text>
<text text-anchor="start" x="136.5" y="-630.5" font-family="Helvetica,sans-Serif" font-size="10.00"> SocketReaderT, SocketWriter</text>
<text text-anchor="middle" x="203" y="-619.5" font-family="Helvetica,sans-Serif" font-size="10.00">T, SocketAddressT &gt;</text>
<polyline fill="none" stroke="black" points="128.5,-612.5 277.5,-612.5 "/>
<text text-anchor="start" x="136.5" y="-600.5" font-family="Helvetica,sans-Serif" font-size="10.00">&#45; remoteAddress</text>
<text text-anchor="start" x="136.5" y="-589.5" font-family="Helvetica,sans-Serif" font-size="10.00">&#45; localAddress</text>
<text text-anchor="start" x="136.5" y="-578.5" font-family="Helvetica,sans-Serif" font-size="10.00">&#45; onDestruct</text>
<text text-anchor="start" x="136.5" y="-567.5" font-family="Helvetica,sans-Serif" font-size="10.00">&#45; onDisconnect</text>
<polyline fill="none" stroke="black" points="128.5,-560.5 277.5,-560.5 "/>
<text text-anchor="start" x="136.5" y="-548.5" font-family="Helvetica,sans-Serif" font-size="10.00">+ SocketConnection()</text>
<text text-anchor="start" x="136.5" y="-537.5" font-family="Helvetica,sans-Serif" font-size="10.00">+ SocketConnection()</text>
<text text-anchor="start" x="136.5" y="-526.5" font-family="Helvetica,sans-Serif" font-size="10.00">+ enqueue()</text>
<text text-anchor="start" x="136.5" y="-515.5" font-family="Helvetica,sans-Serif" font-size="10.00">+ enqueue()</text>
<text text-anchor="start" x="136.5" y="-504.5" font-family="Helvetica,sans-Serif" font-size="10.00">+ close()</text>
<text text-anchor="start" x="136.5" y="-493.5" font-family="Helvetica,sans-Serif" font-size="10.00">+ getRemoteAddress()</text>
<text text-anchor="start" x="136.5" y="-482.5" font-family="Helvetica,sans-Serif" font-size="10.00">+ setRemoteAddress()</text>
<text text-anchor="start" x="136.5" y="-471.5" font-family="Helvetica,sans-Serif" font-size="10.00">+ getLocalAddress()</text>
<text text-anchor="start" x="136.5" y="-460.5" font-family="Helvetica,sans-Serif" font-size="10.00">+ setLocalAddress()</text>
<text text-anchor="start" x="136.5" y="-449.5" font-family="Helvetica,sans-Serif" font-size="10.00"># ~SocketConnection()</text>
<text text-anchor="start" x="136.5" y="-438.5" font-family="Helvetica,sans-Serif" font-size="10.00">&#45; unobserved()</text>
</a>
</g>
</g>
<!-- Node3&#45;&gt;Node15 -->
<g id="edge17" class="edge">
<title>Node3&#45;&gt;Node15</title>
<path fill="none" stroke="midnightblue" d="M123.53,-693.3C128.73,-683.86 134.04,-674.21 139.33,-664.61"/>
<polygon fill="none" stroke="midnightblue" points="120.34,-691.84 118.58,-702.29 126.47,-695.22 120.34,-691.84"/>
</g>
<!-- Node4 -->
<g id="node4" class="node">
<title>Node4</title>
<g id="a_node4"><a xlink:href="classnet_1_1socket_1_1stream_1_1legacy_1_1_socket_reader.html" target="_top" xlink:title=" ">
<polygon fill="white" stroke="black" points="360.5,-503 360.5,-593 479.5,-593 479.5,-503 360.5,-503"/>
<text text-anchor="start" x="368.5" y="-581" font-family="Helvetica,sans-Serif" font-size="10.00">net::socket::stream</text>
<text text-anchor="start" x="368.5" y="-570" font-family="Helvetica,sans-Serif" font-size="10.00">::legacy::SocketReader</text>
<text text-anchor="middle" x="420" y="-559" font-family="Helvetica,sans-Serif" font-size="10.00">&lt; SocketT &gt;</text>
<polyline fill="none" stroke="black" points="360.5,-552 479.5,-552 "/>
<text text-anchor="middle" x="420" y="-540" font-family="Helvetica,sans-Serif" font-size="10.00"> </text>
<polyline fill="none" stroke="black" points="360.5,-533 479.5,-533 "/>
<text text-anchor="start" x="368.5" y="-521" font-family="Helvetica,sans-Serif" font-size="10.00">&#45; read()</text>
<text text-anchor="start" x="368.5" y="-510" font-family="Helvetica,sans-Serif" font-size="10.00">&#45; getError()</text>
</a>
</g>
</g>
<!-- Node4&#45;&gt;Node2 -->
<g id="edge3" class="edge">
<title>Node4&#45;&gt;Node2</title>
<path fill="none" stroke="midnightblue" d="M416.25,-492.88C412.65,-459.5 405.63,-416.29 392,-380 389.7,-373.87 387.12,-367.72 384.32,-361.6"/>
<polygon fill="none" stroke="midnightblue" points="412.77,-493.3 417.26,-502.9 419.74,-492.6 412.77,-493.3"/>
</g>
<!-- Node5 -->
<g id="node5" class="node">
<title>Node5</title>
<g id="a_node5"><a xlink:href="classnet_1_1socket_1_1stream_1_1_socket_reader.html" target="_top" xlink:title=" ">
<polygon fill="white" stroke="black" points="359,-719 359,-864 499,-864 499,-719 359,-719"/>
<text text-anchor="start" x="367" y="-852" font-family="Helvetica,sans-Serif" font-size="10.00">net::socket::stream</text>
<text text-anchor="middle" x="429" y="-841" font-family="Helvetica,sans-Serif" font-size="10.00">::SocketReader&lt; SocketT &gt;</text>
<polyline fill="none" stroke="black" points="359,-834 499,-834 "/>
<text text-anchor="start" x="367" y="-822" font-family="Helvetica,sans-Serif" font-size="10.00">&#45; onRead</text>
<text text-anchor="start" x="367" y="-811" font-family="Helvetica,sans-Serif" font-size="10.00">&#45; onError</text>
<text text-anchor="start" x="367" y="-800" font-family="Helvetica,sans-Serif" font-size="10.00">&#45; markShutdown</text>
<polyline fill="none" stroke="black" points="359,-793 499,-793 "/>
<text text-anchor="start" x="367" y="-781" font-family="Helvetica,sans-Serif" font-size="10.00"># SocketReader()</text>
<text text-anchor="start" x="367" y="-770" font-family="Helvetica,sans-Serif" font-size="10.00"># SocketReader()</text>
<text text-anchor="start" x="367" y="-759" font-family="Helvetica,sans-Serif" font-size="10.00"># shutdown()</text>
<text text-anchor="start" x="367" y="-748" font-family="Helvetica,sans-Serif" font-size="10.00">&#45; read()</text>
<text text-anchor="start" x="367" y="-737" font-family="Helvetica,sans-Serif" font-size="10.00">&#45; readEvent()</text>
<text text-anchor="start" x="367" y="-726" font-family="Helvetica,sans-Serif" font-size="10.00">&#45; getError()</text>
</a>
</g>
</g>
<!-- Node5&#45;&gt;Node4 -->
<g id="edge4" class="edge">
<title>Node5&#45;&gt;Node4</title>
<path fill="none" stroke="midnightblue" d="M425.94,-708.5C424.51,-669.9 422.85,-625.4 421.65,-593.22"/>
<polygon fill="none" stroke="midnightblue" points="422.45,-708.83 426.32,-718.7 429.45,-708.57 422.45,-708.83"/>
</g>
<!-- Node6 -->
<g id="node6" class="node">
<title>Node6</title>
<g id="a_node6"><a xlink:href="classnet_1_1stream_1_1_read_stream.html" target="_top" xlink:title=" ">
<polygon fill="white" stroke="black" points="330.5,-918.5 330.5,-1019.5 457.5,-1019.5 457.5,-918.5 330.5,-918.5"/>
<text text-anchor="middle" x="394" y="-1007.5" font-family="Helvetica,sans-Serif" font-size="10.00">net::stream::ReadStream</text>
<polyline fill="none" stroke="black" points="330.5,-1000.5 457.5,-1000.5 "/>
<text text-anchor="start" x="338.5" y="-988.5" font-family="Helvetica,sans-Serif" font-size="10.00"># writeStreams</text>
<polyline fill="none" stroke="black" points="330.5,-981.5 457.5,-981.5 "/>
<text text-anchor="start" x="338.5" y="-969.5" font-family="Helvetica,sans-Serif" font-size="10.00">+ ReadStream()</text>
<text text-anchor="start" x="338.5" y="-958.5" font-family="Helvetica,sans-Serif" font-size="10.00">+ ~ReadStream()</text>
<text text-anchor="start" x="338.5" y="-947.5" font-family="Helvetica,sans-Serif" font-size="10.00">+ pipe()</text>
<text text-anchor="start" x="338.5" y="-936.5" font-family="Helvetica,sans-Serif" font-size="10.00">+ unPipe()</text>
<text text-anchor="start" x="338.5" y="-925.5" font-family="Helvetica,sans-Serif" font-size="10.00">+ dispatch()</text>
</a>
</g>
</g>
<!-- Node6&#45;&gt;Node5 -->
<g id="edge5" class="edge">
<title>Node6&#45;&gt;Node5</title>
<path fill="none" stroke="midnightblue" d="M405.95,-908.08C408.77,-893.92 411.81,-878.68 414.73,-864.06"/>
<polygon fill="none" stroke="midnightblue" points="402.46,-907.69 403.94,-918.18 409.32,-909.06 402.46,-907.69"/>
</g>
<!-- Node7 -->
<g id="node7" class="node">
<title>Node7</title>
<g id="a_node7"><a xlink:href="classnet_1_1_read_event_receiver.html" target="_top" xlink:title=" ">
<polygon fill="white" stroke="black" points="387,-1057.5 387,-1191.5 511,-1191.5 511,-1057.5 387,-1057.5"/>
<text text-anchor="middle" x="449" y="-1179.5" font-family="Helvetica,sans-Serif" font-size="10.00">net::ReadEventReceiver</text>
<polyline fill="none" stroke="black" points="387,-1172.5 511,-1172.5 "/>
<text text-anchor="middle" x="449" y="-1160.5" font-family="Helvetica,sans-Serif" font-size="10.00"> </text>
<polyline fill="none" stroke="black" points="387,-1153.5 511,-1153.5 "/>
<text text-anchor="start" x="395" y="-1141.5" font-family="Helvetica,sans-Serif" font-size="10.00">+ setTimeout()</text>
<text text-anchor="start" x="395" y="-1130.5" font-family="Helvetica,sans-Serif" font-size="10.00">+ enable()</text>
<text text-anchor="start" x="395" y="-1119.5" font-family="Helvetica,sans-Serif" font-size="10.00">+ disable()</text>
<text text-anchor="start" x="395" y="-1108.5" font-family="Helvetica,sans-Serif" font-size="10.00">+ suspend()</text>
<text text-anchor="start" x="395" y="-1097.5" font-family="Helvetica,sans-Serif" font-size="10.00">+ resume()</text>
<text text-anchor="start" x="395" y="-1086.5" font-family="Helvetica,sans-Serif" font-size="10.00"># ReadEventReceiver()</text>
<text text-anchor="start" x="395" y="-1075.5" font-family="Helvetica,sans-Serif" font-size="10.00"># readEvent()</text>
<text text-anchor="start" x="395" y="-1064.5" font-family="Helvetica,sans-Serif" font-size="10.00"># dispatchEvent()</text>
</a>
</g>
</g>
<!-- Node7&#45;&gt;Node6 -->
<g id="edge6" class="edge">
<title>Node7&#45;&gt;Node6</title>
<path fill="none" stroke="midnightblue" d="M421.72,-1047.36C418.37,-1038.03 415.03,-1028.68 411.87,-1019.87"/>
<polygon fill="none" stroke="midnightblue" points="418.53,-1048.83 425.2,-1057.07 425.12,-1046.47 418.53,-1048.83"/>
</g>
<!-- Node8 -->
<g id="node8" class="node">
<title>Node8</title>
<g id="a_node8"><a xlink:href="classnet_1_1_event_receiver.html" target="_top" xlink:title=" ">
<polygon fill="white" stroke="black" points="468.5,-1229.5 468.5,-1539.5 569.5,-1539.5 569.5,-1229.5 468.5,-1229.5"/>
<text text-anchor="middle" x="519" y="-1527.5" font-family="Helvetica,sans-Serif" font-size="10.00">net::EventReceiver</text>
<polyline fill="none" stroke="black" points="468.5,-1520.5 569.5,-1520.5 "/>
<text text-anchor="start" x="476.5" y="-1508.5" font-family="Helvetica,sans-Serif" font-size="10.00"># fd</text>
<text text-anchor="start" x="476.5" y="-1497.5" font-family="Helvetica,sans-Serif" font-size="10.00">&#45; _enabled</text>
<text text-anchor="start" x="476.5" y="-1486.5" font-family="Helvetica,sans-Serif" font-size="10.00">&#45; _suspended</text>
<text text-anchor="start" x="476.5" y="-1475.5" font-family="Helvetica,sans-Serif" font-size="10.00">&#45; maxInactivity</text>
<polyline fill="none" stroke="black" points="468.5,-1468.5 569.5,-1468.5 "/>
<text text-anchor="start" x="476.5" y="-1456.5" font-family="Helvetica,sans-Serif" font-size="10.00">+ EventReceiver()</text>
<text text-anchor="start" x="476.5" y="-1445.5" font-family="Helvetica,sans-Serif" font-size="10.00">+ operator=()</text>
<text text-anchor="start" x="476.5" y="-1434.5" font-family="Helvetica,sans-Serif" font-size="10.00"># EventReceiver()</text>
<text text-anchor="start" x="476.5" y="-1423.5" font-family="Helvetica,sans-Serif" font-size="10.00"># ~EventReceiver()</text>
<text text-anchor="start" x="476.5" y="-1412.5" font-family="Helvetica,sans-Serif" font-size="10.00"># setTimeout()</text>
<text text-anchor="start" x="476.5" y="-1401.5" font-family="Helvetica,sans-Serif" font-size="10.00"># isEnabled()</text>
<text text-anchor="start" x="476.5" y="-1390.5" font-family="Helvetica,sans-Serif" font-size="10.00"># isSuspended()</text>
<text text-anchor="start" x="476.5" y="-1379.5" font-family="Helvetica,sans-Serif" font-size="10.00">&#45; dispatchEvent()</text>
<text text-anchor="start" x="476.5" y="-1368.5" font-family="Helvetica,sans-Serif" font-size="10.00">&#45; timeout()</text>
<text text-anchor="start" x="476.5" y="-1357.5" font-family="Helvetica,sans-Serif" font-size="10.00">&#45; enabled()</text>
<text text-anchor="start" x="476.5" y="-1346.5" font-family="Helvetica,sans-Serif" font-size="10.00">&#45; disabled()</text>
<text text-anchor="start" x="476.5" y="-1335.5" font-family="Helvetica,sans-Serif" font-size="10.00">&#45; suspended()</text>
<text text-anchor="start" x="476.5" y="-1324.5" font-family="Helvetica,sans-Serif" font-size="10.00">&#45; resumed()</text>
<text text-anchor="start" x="476.5" y="-1313.5" font-family="Helvetica,sans-Serif" font-size="10.00">&#45; getTimeout()</text>
<text text-anchor="start" x="476.5" y="-1302.5" font-family="Helvetica,sans-Serif" font-size="10.00">&#45; getLastTriggered()</text>
<text text-anchor="start" x="476.5" y="-1291.5" font-family="Helvetica,sans-Serif" font-size="10.00">&#45; triggered()</text>
<text text-anchor="start" x="476.5" y="-1280.5" font-family="Helvetica,sans-Serif" font-size="10.00">&#45; enable()</text>
<text text-anchor="start" x="476.5" y="-1269.5" font-family="Helvetica,sans-Serif" font-size="10.00">&#45; disable()</text>
<text text-anchor="start" x="476.5" y="-1258.5" font-family="Helvetica,sans-Serif" font-size="10.00">&#45; suspend()</text>
<text text-anchor="start" x="476.5" y="-1247.5" font-family="Helvetica,sans-Serif" font-size="10.00">&#45; resume()</text>
<text text-anchor="start" x="476.5" y="-1236.5" font-family="Helvetica,sans-Serif" font-size="10.00">&#45; unobserved()</text>
</a>
</g>
</g>
<!-- Node8&#45;&gt;Node7 -->
<g id="edge7" class="edge">
<title>Node8&#45;&gt;Node7</title>
<path fill="none" stroke="midnightblue" d="M474.52,-1219.55C471.89,-1209.87 469.34,-1200.47 466.93,-1191.59"/>
<polygon fill="none" stroke="midnightblue" points="471.17,-1220.59 477.17,-1229.32 477.93,-1218.76 471.17,-1220.59"/>
</g>
<!-- Node14 -->
<g id="node14" class="node">
<title>Node14</title>
<g id="a_node14"><a xlink:href="classnet_1_1_write_event_receiver.html" target="_top" xlink:title=" ">
<polygon fill="white" stroke="black" points="538.5,-1057.5 538.5,-1191.5 661.5,-1191.5 661.5,-1057.5 538.5,-1057.5"/>
<text text-anchor="middle" x="600" y="-1179.5" font-family="Helvetica,sans-Serif" font-size="10.00">net::WriteEventReceiver</text>
<polyline fill="none" stroke="black" points="538.5,-1172.5 661.5,-1172.5 "/>
<text text-anchor="middle" x="600" y="-1160.5" font-family="Helvetica,sans-Serif" font-size="10.00"> </text>
<polyline fill="none" stroke="black" points="538.5,-1153.5 661.5,-1153.5 "/>
<text text-anchor="start" x="546.5" y="-1141.5" font-family="Helvetica,sans-Serif" font-size="10.00">+ setTimeout()</text>
<text text-anchor="start" x="546.5" y="-1130.5" font-family="Helvetica,sans-Serif" font-size="10.00">+ enable()</text>
<text text-anchor="start" x="546.5" y="-1119.5" font-family="Helvetica,sans-Serif" font-size="10.00">+ disable()</text>
<text text-anchor="start" x="546.5" y="-1108.5" font-family="Helvetica,sans-Serif" font-size="10.00">+ suspend()</text>
<text text-anchor="start" x="546.5" y="-1097.5" font-family="Helvetica,sans-Serif" font-size="10.00">+ resume()</text>
<text text-anchor="start" x="546.5" y="-1086.5" font-family="Helvetica,sans-Serif" font-size="10.00"># WriteEventReceiver()</text>
<text text-anchor="start" x="546.5" y="-1075.5" font-family="Helvetica,sans-Serif" font-size="10.00"># writeEvent()</text>
<text text-anchor="start" x="546.5" y="-1064.5" font-family="Helvetica,sans-Serif" font-size="10.00"># dispatchEvent()</text>
</a>
</g>
</g>
<!-- Node8&#45;&gt;Node14 -->
<g id="edge14" class="edge">
<title>Node8&#45;&gt;Node14</title>
<path fill="none" stroke="midnightblue" d="M570.47,-1219.55C573.51,-1209.87 576.46,-1200.47 579.25,-1191.59"/>
<polygon fill="none" stroke="midnightblue" points="567.06,-1218.73 567.4,-1229.32 573.74,-1220.83 567.06,-1218.73"/>
</g>
<!-- Node9 -->
<g id="node9" class="node">
<title>Node9</title>
<g id="a_node9"><a xlink:href="classnet_1_1_observation_counter.html" target="_top" xlink:title=" ">
<polygon fill="white" stroke="black" points="457.5,-1577.5 457.5,-1634.5 580.5,-1634.5 580.5,-1577.5 457.5,-1577.5"/>
<text text-anchor="middle" x="519" y="-1622.5" font-family="Helvetica,sans-Serif" font-size="10.00">net::ObservationCounter</text>
<polyline fill="none" stroke="black" points="457.5,-1615.5 580.5,-1615.5 "/>
<text text-anchor="start" x="465.5" y="-1603.5" font-family="Helvetica,sans-Serif" font-size="10.00"># observationCounter</text>
<polyline fill="none" stroke="black" points="457.5,-1596.5 580.5,-1596.5 "/>
<text text-anchor="start" x="465.5" y="-1584.5" font-family="Helvetica,sans-Serif" font-size="10.00">+ isObserved()</text>
</a>
</g>
</g>
<!-- Node9&#45;&gt;Node8 -->
<g id="edge8" class="edge">
<title>Node9&#45;&gt;Node8</title>
<path fill="none" stroke="midnightblue" d="M519,-1566.99C519,-1558.78 519,-1549.62 519,-1539.89"/>
<polygon fill="none" stroke="midnightblue" points="515.5,-1567.2 519,-1577.2 522.5,-1567.2 515.5,-1567.2"/>
</g>
<!-- Node10 -->
<g id="node10" class="node">
<title>Node10</title>
<g id="a_node10"><a xlink:title=" ">
<polygon fill="white" stroke="#bfbfbf" points="475.5,-940.5 475.5,-997.5 528.5,-997.5 528.5,-940.5 475.5,-940.5"/>
<text text-anchor="middle" x="502" y="-985.5" font-family="Helvetica,sans-Serif" font-size="10.00">SocketT</text>
<polyline fill="none" stroke="#bfbfbf" points="475.5,-978.5 528.5,-978.5 "/>
<text text-anchor="middle" x="502" y="-966.5" font-family="Helvetica,sans-Serif" font-size="10.00"> </text>
<polyline fill="none" stroke="#bfbfbf" points="475.5,-959.5 528.5,-959.5 "/>
<text text-anchor="middle" x="502" y="-947.5" font-family="Helvetica,sans-Serif" font-size="10.00"> </text>
</a>
</g>
</g>
<!-- Node10&#45;&gt;Node5 -->
<g id="edge9" class="edge">
<title>Node10&#45;&gt;Node5</title>
<path fill="none" stroke="midnightblue" d="M486.53,-930.82C478.46,-911.41 468.3,-886.99 458.78,-864.09"/>
<polygon fill="none" stroke="midnightblue" points="483.36,-932.3 490.43,-940.19 489.82,-929.61 483.36,-932.3"/>
</g>
<!-- Node12 -->
<g id="node12" class="node">
<title>Node12</title>
<g id="a_node12"><a xlink:href="classnet_1_1socket_1_1stream_1_1_socket_writer.html" target="_top" xlink:title=" ">
<polygon fill="white" stroke="black" points="517,-713.5 517,-869.5 651,-869.5 651,-713.5 517,-713.5"/>
<text text-anchor="start" x="525" y="-857.5" font-family="Helvetica,sans-Serif" font-size="10.00">net::socket::stream</text>
<text text-anchor="middle" x="584" y="-846.5" font-family="Helvetica,sans-Serif" font-size="10.00">::SocketWriter&lt; SocketT &gt;</text>
<polyline fill="none" stroke="black" points="517,-839.5 651,-839.5 "/>
<text text-anchor="start" x="525" y="-827.5" font-family="Helvetica,sans-Serif" font-size="10.00">&#45; onError</text>
<text text-anchor="start" x="525" y="-816.5" font-family="Helvetica,sans-Serif" font-size="10.00">&#45; writeBuffer</text>
<text text-anchor="start" x="525" y="-805.5" font-family="Helvetica,sans-Serif" font-size="10.00">&#45; markShutdown</text>
<polyline fill="none" stroke="black" points="517,-798.5 651,-798.5 "/>
<text text-anchor="start" x="525" y="-786.5" font-family="Helvetica,sans-Serif" font-size="10.00"># SocketWriter()</text>
<text text-anchor="start" x="525" y="-775.5" font-family="Helvetica,sans-Serif" font-size="10.00"># SocketWriter()</text>
<text text-anchor="start" x="525" y="-764.5" font-family="Helvetica,sans-Serif" font-size="10.00"># enqueue()</text>
<text text-anchor="start" x="525" y="-753.5" font-family="Helvetica,sans-Serif" font-size="10.00"># shutdown()</text>
<text text-anchor="start" x="525" y="-742.5" font-family="Helvetica,sans-Serif" font-size="10.00">&#45; write()</text>
<text text-anchor="start" x="525" y="-731.5" font-family="Helvetica,sans-Serif" font-size="10.00">&#45; writeEvent()</text>
<text text-anchor="start" x="525" y="-720.5" font-family="Helvetica,sans-Serif" font-size="10.00">&#45; getError()</text>
</a>
</g>
</g>
<!-- Node10&#45;&gt;Node12 -->
<g id="edge15" class="edge">
<title>Node10&#45;&gt;Node12</title>
<path fill="none" stroke="midnightblue" d="M519.4,-930.77C527.71,-912.98 537.99,-890.98 547.88,-869.8"/>
<polygon fill="none" stroke="midnightblue" points="516.06,-929.65 514.99,-940.19 522.4,-932.61 516.06,-929.65"/>
</g>
<!-- Node11 -->
<g id="node11" class="node">
<title>Node11</title>
<g id="a_node11"><a xlink:href="classnet_1_1socket_1_1stream_1_1legacy_1_1_socket_writer.html" target="_top" xlink:title=" ">
<polygon fill="white" stroke="black" points="525.5,-503 525.5,-593 638.5,-593 638.5,-503 525.5,-503"/>
<text text-anchor="start" x="533.5" y="-581" font-family="Helvetica,sans-Serif" font-size="10.00">net::socket::stream</text>
<text text-anchor="start" x="533.5" y="-570" font-family="Helvetica,sans-Serif" font-size="10.00">::legacy::SocketWriter</text>
<text text-anchor="middle" x="582" y="-559" font-family="Helvetica,sans-Serif" font-size="10.00">&lt; SocketT &gt;</text>
<polyline fill="none" stroke="black" points="525.5,-552 638.5,-552 "/>
<text text-anchor="middle" x="582" y="-540" font-family="Helvetica,sans-Serif" font-size="10.00"> </text>
<polyline fill="none" stroke="black" points="525.5,-533 638.5,-533 "/>
<text text-anchor="start" x="533.5" y="-521" font-family="Helvetica,sans-Serif" font-size="10.00">&#45; write()</text>
<text text-anchor="start" x="533.5" y="-510" font-family="Helvetica,sans-Serif" font-size="10.00">&#45; getError()</text>
</a>
</g>
</g>
<!-- Node11&#45;&gt;Node2 -->
<g id="edge10" class="edge">
<title>Node11&#45;&gt;Node2</title>
<path fill="none" stroke="midnightblue" d="M541.26,-494.89C525.05,-474.64 505.99,-451.44 488,-431 461.25,-400.61 431.25,-368.47 403.43,-339.42"/>
<polygon fill="none" stroke="midnightblue" points="538.59,-497.15 547.56,-502.79 544.06,-492.79 538.59,-497.15"/>
</g>
<!-- Node12&#45;&gt;Node11 -->
<g id="edge11" class="edge">
<title>Node12&#45;&gt;Node11</title>
<path fill="none" stroke="midnightblue" d="M583.28,-703.03C582.97,-665.68 582.62,-623.73 582.36,-593.05"/>
<polygon fill="none" stroke="midnightblue" points="579.78,-703.45 583.36,-713.42 586.78,-703.4 579.78,-703.45"/>
</g>
<!-- Node13 -->
<g id="node13" class="node">
<title>Node13</title>
<g id="a_node13"><a xlink:href="classnet_1_1stream_1_1_write_stream.html" target="_top" xlink:title=" ">
<polygon fill="white" stroke="black" points="547,-918.5 547,-1019.5 673,-1019.5 673,-918.5 547,-918.5"/>
<text text-anchor="middle" x="610" y="-1007.5" font-family="Helvetica,sans-Serif" font-size="10.00">net::stream::WriteStream</text>
<polyline fill="none" stroke="black" points="547,-1000.5 673,-1000.5 "/>
<text text-anchor="start" x="555" y="-988.5" font-family="Helvetica,sans-Serif" font-size="10.00"># readStreams</text>
<polyline fill="none" stroke="black" points="547,-981.5 673,-981.5 "/>
<text text-anchor="start" x="555" y="-969.5" font-family="Helvetica,sans-Serif" font-size="10.00">+ WriteStream()</text>
<text text-anchor="start" x="555" y="-958.5" font-family="Helvetica,sans-Serif" font-size="10.00">+ ~WriteStream()</text>
<text text-anchor="start" x="555" y="-947.5" font-family="Helvetica,sans-Serif" font-size="10.00">+ enqueue()</text>
<text text-anchor="start" x="555" y="-936.5" font-family="Helvetica,sans-Serif" font-size="10.00">+ sourceStream()</text>
<text text-anchor="start" x="555" y="-925.5" font-family="Helvetica,sans-Serif" font-size="10.00">+ unSourceStream()</text>
</a>
</g>
</g>
<!-- Node13&#45;&gt;Node12 -->
<g id="edge12" class="edge">
<title>Node13&#45;&gt;Node12</title>
<path fill="none" stroke="midnightblue" d="M601.12,-908.03C599.29,-895.69 597.34,-882.53 595.43,-869.67"/>
<polygon fill="none" stroke="midnightblue" points="597.69,-908.8 602.62,-918.18 604.62,-907.77 597.69,-908.8"/>
</g>
<!-- Node14&#45;&gt;Node13 -->
<g id="edge13" class="edge">
<title>Node14&#45;&gt;Node13</title>
<path fill="none" stroke="midnightblue" d="M604.98,-1047.07C605.58,-1037.83 606.18,-1028.59 606.75,-1019.87"/>
<polygon fill="none" stroke="midnightblue" points="601.49,-1046.86 604.33,-1057.07 608.47,-1047.31 601.49,-1046.86"/>
</g>
<!-- Node15&#45;&gt;Node2 -->
<g id="edge16" class="edge">
<title>Node15&#45;&gt;Node2</title>
<path fill="none" stroke="orange" d="M204.25,-421.13C206.46,-407.04 209.6,-393.08 214,-380 216.08,-373.81 218.51,-367.64 221.2,-361.51"/>
<polygon fill="orange" stroke="orange" points="200.74,-421 202.81,-431.39 207.67,-421.97 200.74,-421"/>
<text text-anchor="start" x="214" y="-405" font-family="Helvetica,sans-Serif" font-size="10.00"> &lt; legacy::SocketReader</text>
<text text-anchor="start" x="214" y="-394" font-family="Helvetica,sans-Serif" font-size="10.00">&lt; SocketT &gt;, legacy::SocketWriter</text>
<text text-anchor="middle" x="303" y="-383" font-family="Helvetica,sans-Serif" font-size="10.00">&lt; SocketT &gt;, SocketT::SocketAddress &gt;</text>
</g>
<!-- Node16 -->
<g id="node16" class="node">
<title>Node16</title>
<g id="a_node16"><a xlink:title=" ">
<polygon fill="white" stroke="#bfbfbf" points="158.5,-763 158.5,-820 243.5,-820 243.5,-763 158.5,-763"/>
<text text-anchor="middle" x="201" y="-808" font-family="Helvetica,sans-Serif" font-size="10.00">SocketReaderT</text>
<polyline fill="none" stroke="#bfbfbf" points="158.5,-801 243.5,-801 "/>
<text text-anchor="middle" x="201" y="-789" font-family="Helvetica,sans-Serif" font-size="10.00"> </text>
<polyline fill="none" stroke="#bfbfbf" points="158.5,-782 243.5,-782 "/>
<text text-anchor="middle" x="201" y="-770" font-family="Helvetica,sans-Serif" font-size="10.00"> </text>
</a>
</g>
</g>
<!-- Node16&#45;&gt;Node15 -->
<g id="edge18" class="edge">
<title>Node16&#45;&gt;Node15</title>
<path fill="none" stroke="midnightblue" d="M201.31,-752.77C201.51,-728.88 201.78,-696.59 202.04,-664.76"/>
<polygon fill="none" stroke="midnightblue" points="197.81,-752.77 201.23,-762.8 204.81,-752.83 197.81,-752.77"/>
</g>
<!-- Node17 -->
<g id="node17" class="node">
<title>Node17</title>
<g id="a_node17"><a xlink:title=" ">
<polygon fill="white" stroke="#bfbfbf" points="261.5,-763 261.5,-820 340.5,-820 340.5,-763 261.5,-763"/>
<text text-anchor="middle" x="301" y="-808" font-family="Helvetica,sans-Serif" font-size="10.00">SocketWriterT</text>
<polyline fill="none" stroke="#bfbfbf" points="261.5,-801 340.5,-801 "/>
<text text-anchor="middle" x="301" y="-789" font-family="Helvetica,sans-Serif" font-size="10.00"> </text>
<polyline fill="none" stroke="#bfbfbf" points="261.5,-782 340.5,-782 "/>
<text text-anchor="middle" x="301" y="-770" font-family="Helvetica,sans-Serif" font-size="10.00"> </text>
</a>
</g>
</g>
<!-- Node17&#45;&gt;Node15 -->
<g id="edge19" class="edge">
<title>Node17&#45;&gt;Node15</title>
<path fill="none" stroke="midnightblue" d="M285.95,-753.41C276.23,-729.46 263.01,-696.88 249.98,-664.76"/>
<polygon fill="none" stroke="midnightblue" points="282.75,-754.85 289.76,-762.8 289.24,-752.21 282.75,-754.85"/>
</g>
</g>
</svg>
