<?xml version="1.0" encoding="UTF-8" standalone="no"?>
<!DOCTYPE svg PUBLIC "-//W3C//DTD SVG 1.1//EN"
 "http://www.w3.org/Graphics/SVG/1.1/DTD/svg11.dtd">
<!-- Generated by graphviz version 2.43.0 (0)
 -->
<!-- Title: net::pipe::PipeSource::writeEvent Pages: 1 -->
<svg width="556pt" height="235pt"
 viewBox="0.00 0.00 556.00 235.00" xmlns="http://www.w3.org/2000/svg" xmlns:xlink="http://www.w3.org/1999/xlink">
<g id="graph0" class="graph" transform="scale(1 1) rotate(0) translate(4 231)">
<title>net::pipe::PipeSource::writeEvent</title>
<polygon fill="white" stroke="transparent" points="-4,4 -4,-231 552,-231 552,4 -4,4"/>
<!-- Node1 -->
<g id="node1" class="node">
<title>Node1</title>
<g id="a_node1"><a xlink:title=" ">
<polygon fill="#bfbfbf" stroke="black" points="0,-75.5 0,-105.5 110,-105.5 110,-75.5 0,-75.5"/>
<text text-anchor="start" x="8" y="-93.5" font-family="Helvetica,sans-Serif" font-size="10.00">net::pipe::PipeSource</text>
<text text-anchor="middle" x="55" y="-82.5" font-family="Helvetica,sans-Serif" font-size="10.00">::writeEvent</text>
</a>
</g>
</g>
<!-- Node2 -->
<g id="node2" class="node">
<title>Node2</title>
<g id="a_node2"><a xlink:href="classnet_1_1_event_receiver.html#af99ad4621551f0d032b5eabb76b613a1" target="_top" xlink:title=" ">
<polygon fill="white" stroke="black" points="151.5,-146.5 151.5,-176.5 252.5,-176.5 252.5,-146.5 151.5,-146.5"/>
<text text-anchor="start" x="159.5" y="-164.5" font-family="Helvetica,sans-Serif" font-size="10.00">net::EventReceiver</text>
<text text-anchor="middle" x="202" y="-153.5" font-family="Helvetica,sans-Serif" font-size="10.00">::disable</text>
</a>
</g>
</g>
<!-- Node1&#45;&gt;Node2 -->
<g id="edge1" class="edge">
<title>Node1&#45;&gt;Node2</title>
<path fill="none" stroke="midnightblue" d="M86.75,-105.56C108.47,-116.19 137.78,-130.55 161.28,-142.05"/>
<polygon fill="midnightblue" stroke="midnightblue" points="159.77,-145.21 170.29,-146.46 162.85,-138.92 159.77,-145.21"/>
</g>
<!-- Node6 -->
<g id="node6" class="node">
<title>Node6</title>
<g id="a_node6"><a xlink:href="classnet_1_1_descriptor.html#a70ccc1e4f6af5cda015bd319f9a90096" target="_top" xlink:title=" ">
<polygon fill="white" stroke="black" points="146,-103 146,-122 258,-122 258,-103 146,-103"/>
<text text-anchor="middle" x="202" y="-110" font-family="Helvetica,sans-Serif" font-size="10.00">net::Descriptor::getFd</text>
</a>
</g>
</g>
<!-- Node1&#45;&gt;Node6 -->
<g id="edge5" class="edge">
<title>Node1&#45;&gt;Node6</title>
<path fill="none" stroke="midnightblue" d="M110.41,-98.75C118.72,-100.02 127.38,-101.33 135.9,-102.62"/>
<polygon fill="midnightblue" stroke="midnightblue" points="135.39,-106.09 145.81,-104.13 136.45,-99.17 135.39,-106.09"/>
</g>
<!-- Node7 -->
<g id="node7" class="node">
<title>Node7</title>
<g id="a_node7"><a xlink:href="classnet_1_1_event_receiver.html#a6c5065f83b6aad6a60f5369ccc5963b1" target="_top" xlink:title=" ">
<polygon fill="white" stroke="black" points="151.5,-53.5 151.5,-83.5 252.5,-83.5 252.5,-53.5 151.5,-53.5"/>
<text text-anchor="start" x="159.5" y="-71.5" font-family="Helvetica,sans-Serif" font-size="10.00">net::EventReceiver</text>
<text text-anchor="middle" x="202" y="-60.5" font-family="Helvetica,sans-Serif" font-size="10.00">::suspend</text>
</a>
</g>
</g>
<!-- Node1&#45;&gt;Node7 -->
<g id="edge6" class="edge">
<title>Node1&#45;&gt;Node7</title>
<path fill="none" stroke="midnightblue" d="M110.41,-82.25C120.41,-80.73 130.91,-79.13 141.06,-77.59"/>
<polygon fill="midnightblue" stroke="midnightblue" points="141.71,-81.04 151.08,-76.07 140.66,-74.11 141.71,-81.04"/>
</g>
<!-- Node12 -->
<g id="node12" class="node">
<title>Node12</title>
<g id="a_node12"><a xlink:href="namespacenet_1_1system.html#af737c60a4560162a640a1fa5e567009c" target="_top" xlink:title=" ">
<polygon fill="white" stroke="black" points="154.5,-15 154.5,-34 249.5,-34 249.5,-15 154.5,-15"/>
<text text-anchor="middle" x="202" y="-22" font-family="Helvetica,sans-Serif" font-size="10.00">net::system::write</text>
</a>
</g>
</g>
<!-- Node1&#45;&gt;Node12 -->
<g id="edge11" class="edge">
<title>Node1&#45;&gt;Node12</title>
<path fill="none" stroke="midnightblue" d="M82.27,-75.45C99.96,-65.66 123.98,-52.99 146,-43.5 150.81,-41.43 155.92,-39.42 161.02,-37.53"/>
<polygon fill="midnightblue" stroke="midnightblue" points="162.48,-40.72 170.72,-34.06 160.12,-34.13 162.48,-40.72"/>
</g>
<!-- Node3 -->
<g id="node3" class="node">
<title>Node3</title>
<g id="a_node3"><a xlink:href="classnet_1_1_event_dispatcher.html#a1298354d3ccafbd0c878852449af3799" target="_top" xlink:title=" ">
<polygon fill="white" stroke="black" points="294,-147.5 294,-177.5 403,-177.5 403,-147.5 294,-147.5"/>
<text text-anchor="start" x="302" y="-165.5" font-family="Helvetica,sans-Serif" font-size="10.00">net::EventDispatcher</text>
<text text-anchor="middle" x="348.5" y="-154.5" font-family="Helvetica,sans-Serif" font-size="10.00">::disable</text>
</a>
</g>
</g>
<!-- Node2&#45;&gt;Node3 -->
<g id="edge2" class="edge">
<title>Node2&#45;&gt;Node3</title>
<path fill="none" stroke="midnightblue" d="M252.73,-161.84C262.65,-161.91 273.2,-161.99 283.52,-162.06"/>
<polygon fill="midnightblue" stroke="midnightblue" points="283.7,-165.56 293.73,-162.13 283.75,-158.56 283.7,-165.56"/>
</g>
<!-- Node4 -->
<g id="node4" class="node">
<title>Node4</title>
<g id="a_node4"><a xlink:href="classnet_1_1_event_receiver.html#a26548a33372081c52eff4df128fa573f" target="_top" xlink:title=" ">
<polygon fill="white" stroke="black" points="443,-196.5 443,-226.5 544,-226.5 544,-196.5 443,-196.5"/>
<text text-anchor="start" x="451" y="-214.5" font-family="Helvetica,sans-Serif" font-size="10.00">net::EventReceiver</text>
<text text-anchor="middle" x="493.5" y="-203.5" font-family="Helvetica,sans-Serif" font-size="10.00">::disabled</text>
</a>
</g>
</g>
<!-- Node3&#45;&gt;Node4 -->
<g id="edge3" class="edge">
<title>Node3&#45;&gt;Node4</title>
<path fill="none" stroke="midnightblue" d="M393.57,-177.6C407.84,-182.49 423.83,-187.97 438.73,-193.07"/>
<polygon fill="midnightblue" stroke="midnightblue" points="437.73,-196.43 448.33,-196.36 440,-189.81 437.73,-196.43"/>
</g>
<!-- Node5 -->
<g id="node5" class="node">
<title>Node5</title>
<g id="a_node5"><a xlink:href="classnet_1_1_event_receiver.html#ac4e3a75a2849d0d8b1fc4ba2b754c8e3" target="_top" xlink:title=" ">
<polygon fill="white" stroke="black" points="443,-147.5 443,-177.5 544,-177.5 544,-147.5 443,-147.5"/>
<text text-anchor="start" x="451" y="-165.5" font-family="Helvetica,sans-Serif" font-size="10.00">net::EventReceiver</text>
<text text-anchor="middle" x="493.5" y="-154.5" font-family="Helvetica,sans-Serif" font-size="10.00">::isEnabled</text>
</a>
</g>
</g>
<!-- Node3&#45;&gt;Node5 -->
<g id="edge4" class="edge">
<title>Node3&#45;&gt;Node5</title>
<path fill="none" stroke="midnightblue" d="M403.15,-162.5C412.8,-162.5 422.91,-162.5 432.72,-162.5"/>
<polygon fill="midnightblue" stroke="midnightblue" points="432.8,-166 442.8,-162.5 432.8,-159 432.8,-166"/>
</g>
<!-- Node8 -->
<g id="node8" class="node">
<title>Node8</title>
<g id="a_node8"><a xlink:href="classnet_1_1_event_dispatcher.html#a3e9b28950b4c4738ba9f2d07515faf55" target="_top" xlink:title=" ">
<polygon fill="white" stroke="black" points="294,-51.5 294,-81.5 403,-81.5 403,-51.5 294,-51.5"/>
<text text-anchor="start" x="302" y="-69.5" font-family="Helvetica,sans-Serif" font-size="10.00">net::EventDispatcher</text>
<text text-anchor="middle" x="348.5" y="-58.5" font-family="Helvetica,sans-Serif" font-size="10.00">::suspend</text>
</a>
</g>
</g>
<!-- Node7&#45;&gt;Node8 -->
<g id="edge7" class="edge">
<title>Node7&#45;&gt;Node8</title>
<path fill="none" stroke="midnightblue" d="M252.73,-67.81C262.65,-67.67 273.2,-67.53 283.52,-67.39"/>
<polygon fill="midnightblue" stroke="midnightblue" points="283.78,-70.88 293.73,-67.24 283.68,-63.88 283.78,-70.88"/>
</g>
<!-- Node9 -->
<g id="node9" class="node">
<title>Node9</title>
<g id="a_node9"><a xlink:href="classnet_1_1_event_dispatcher_1_1_fd_set.html#a9f27047c523223dc325e32b003f350de" target="_top" xlink:title=" ">
<polygon fill="white" stroke="black" points="439,-98.5 439,-128.5 548,-128.5 548,-98.5 439,-98.5"/>
<text text-anchor="start" x="447" y="-116.5" font-family="Helvetica,sans-Serif" font-size="10.00">net::EventDispatcher</text>
<text text-anchor="middle" x="493.5" y="-105.5" font-family="Helvetica,sans-Serif" font-size="10.00">::FdSet::clr</text>
</a>
</g>
</g>
<!-- Node8&#45;&gt;Node9 -->
<g id="edge8" class="edge">
<title>Node8&#45;&gt;Node9</title>
<path fill="none" stroke="midnightblue" d="M395.14,-81.5C408.43,-85.87 423.09,-90.69 436.92,-95.23"/>
<polygon fill="midnightblue" stroke="midnightblue" points="436.21,-98.68 446.8,-98.48 438.4,-92.03 436.21,-98.68"/>
</g>
<!-- Node10 -->
<g id="node10" class="node">
<title>Node10</title>
<g id="a_node10"><a xlink:href="classnet_1_1_event_receiver.html#afdfa280e579e56b9acadb54465c65528" target="_top" xlink:title=" ">
<polygon fill="white" stroke="black" points="443,-49.5 443,-79.5 544,-79.5 544,-49.5 443,-49.5"/>
<text text-anchor="start" x="451" y="-67.5" font-family="Helvetica,sans-Serif" font-size="10.00">net::EventReceiver</text>
<text text-anchor="middle" x="493.5" y="-56.5" font-family="Helvetica,sans-Serif" font-size="10.00">::isSuspended</text>
</a>
</g>
</g>
<!-- Node8&#45;&gt;Node10 -->
<g id="edge9" class="edge">
<title>Node8&#45;&gt;Node10</title>
<path fill="none" stroke="midnightblue" d="M403.15,-65.75C412.8,-65.61 422.91,-65.47 432.72,-65.34"/>
<polygon fill="midnightblue" stroke="midnightblue" points="432.85,-68.83 442.8,-65.2 432.75,-61.84 432.85,-68.83"/>
</g>
<!-- Node11 -->
<g id="node11" class="node">
<title>Node11</title>
<g id="a_node11"><a xlink:href="classnet_1_1_event_receiver.html#a2736c19a5be98adb814b4d2b10d93e6a" target="_top" xlink:title=" ">
<polygon fill="white" stroke="black" points="443,-0.5 443,-30.5 544,-30.5 544,-0.5 443,-0.5"/>
<text text-anchor="start" x="451" y="-18.5" font-family="Helvetica,sans-Serif" font-size="10.00">net::EventReceiver</text>
<text text-anchor="middle" x="493.5" y="-7.5" font-family="Helvetica,sans-Serif" font-size="10.00">::suspended</text>
</a>
</g>
</g>
<!-- Node8&#45;&gt;Node11 -->
<g id="edge10" class="edge">
<title>Node8&#45;&gt;Node11</title>
<path fill="none" stroke="midnightblue" d="M391.63,-51.47C406.91,-46.02 424.36,-39.8 440.4,-34.08"/>
<polygon fill="midnightblue" stroke="midnightblue" points="441.93,-37.25 450.18,-30.59 439.58,-30.66 441.93,-37.25"/>
</g>
</g>
</svg>
