<?xml version="1.0" encoding="UTF-8" standalone="no"?>
<!DOCTYPE svg PUBLIC "-//W3C//DTD SVG 1.1//EN"
 "http://www.w3.org/Graphics/SVG/1.1/DTD/svg11.dtd">
<!-- Generated by graphviz version 2.43.0 (0)
 -->
<!-- Title: net::socket::InetAddress::getSockAddr Pages: 1 -->
<svg width="527pt" height="111pt"
 viewBox="0.00 0.00 527.00 110.50" xmlns="http://www.w3.org/2000/svg" xmlns:xlink="http://www.w3.org/1999/xlink">
<g id="graph0" class="graph" transform="scale(1 1) rotate(0) translate(4 106.5)">
<title>net::socket::InetAddress::getSockAddr</title>
<polygon fill="white" stroke="transparent" points="-4,4 -4,-106.5 523,-106.5 523,4 -4,4"/>
<!-- Node1 -->
<g id="node1" class="node">
<title>Node1</title>
<g id="a_node1"><a xlink:title=" ">
<polygon fill="#bfbfbf" stroke="black" points="395,-33 395,-63 519,-63 519,-33 395,-33"/>
<text text-anchor="start" x="403" y="-51" font-family="Helvetica,sans-Serif" font-size="10.00">net::socket::InetAddress</text>
<text text-anchor="middle" x="457" y="-40" font-family="Helvetica,sans-Serif" font-size="10.00">::getSockAddr</text>
</a>
</g>
</g>
<!-- Node2 -->
<g id="node2" class="node">
<title>Node2</title>
<g id="a_node2"><a xlink:href="classnet_1_1socket_1_1tcp_1_1_socket.html#ab5238da52b8b33365c852e80e5169613" target="_top" xlink:title=" ">
<polygon fill="white" stroke="black" points="215,-61 215,-91 337,-91 337,-61 215,-61"/>
<text text-anchor="start" x="223" y="-79" font-family="Helvetica,sans-Serif" font-size="10.00">net::socket::tcp::Socket</text>
<text text-anchor="middle" x="276" y="-68" font-family="Helvetica,sans-Serif" font-size="10.00">::bind</text>
</a>
</g>
</g>
<!-- Node1&#45;&gt;Node2 -->
<g id="edge1" class="edge">
<title>Node1&#45;&gt;Node2</title>
<path fill="none" stroke="midnightblue" d="M384.7,-59.15C368.97,-61.61 352.46,-64.2 337.22,-66.58"/>
<polygon fill="midnightblue" stroke="midnightblue" points="385.56,-62.56 394.9,-57.56 384.48,-55.65 385.56,-62.56"/>
</g>
<!-- Node4 -->
<g id="node4" class="node">
<title>Node4</title>
<g id="a_node4"><a xlink:href="classnet_1_1socket_1_1tcp_1_1_socket_client.html#a6876b877836632e71f827f347dcc12ea" target="_top" xlink:title=" ">
<polygon fill="white" stroke="black" points="193,-0.5 193,-41.5 359,-41.5 359,-0.5 193,-0.5"/>
<text text-anchor="start" x="201" y="-29.5" font-family="Helvetica,sans-Serif" font-size="10.00">net::socket::tcp::Socket</text>
<text text-anchor="start" x="201" y="-18.5" font-family="Helvetica,sans-Serif" font-size="10.00">Client&lt; legacy::SocketConnection</text>
<text text-anchor="middle" x="276" y="-7.5" font-family="Helvetica,sans-Serif" font-size="10.00"> &gt;::connect</text>
</a>
</g>
</g>
<!-- Node1&#45;&gt;Node4 -->
<g id="edge3" class="edge">
<title>Node1&#45;&gt;Node4</title>
<path fill="none" stroke="midnightblue" d="M385.01,-37.29C376.48,-36 367.71,-34.68 359.04,-33.37"/>
<polygon fill="midnightblue" stroke="midnightblue" points="384.49,-40.75 394.9,-38.78 385.53,-33.83 384.49,-40.75"/>
</g>
<!-- Node3 -->
<g id="node3" class="node">
<title>Node3</title>
<g id="a_node3"><a xlink:href="classnet_1_1socket_1_1tcp_1_1_socket_listener.html#ad383293eeb4b5470091f74e12a57e9c4" target="_top" xlink:title=" ">
<polygon fill="white" stroke="black" points="0,-50 0,-102 157,-102 157,-50 0,-50"/>
<text text-anchor="start" x="8" y="-90" font-family="Helvetica,sans-Serif" font-size="10.00">net::socket::tcp::Socket</text>
<text text-anchor="start" x="8" y="-79" font-family="Helvetica,sans-Serif" font-size="10.00">Listener&lt; net::socket</text>
<text text-anchor="start" x="8" y="-68" font-family="Helvetica,sans-Serif" font-size="10.00">::tcp::legacy::SocketConnection</text>
<text text-anchor="middle" x="78.5" y="-57" font-family="Helvetica,sans-Serif" font-size="10.00"> &gt;::listen</text>
</a>
</g>
</g>
<!-- Node2&#45;&gt;Node3 -->
<g id="edge2" class="edge">
<title>Node2&#45;&gt;Node3</title>
<path fill="none" stroke="midnightblue" d="M204.33,-76C189.03,-76 172.77,-76 157.22,-76"/>
<polygon fill="midnightblue" stroke="midnightblue" points="204.75,-79.5 214.75,-76 204.75,-72.5 204.75,-79.5"/>
</g>
</g>
</svg>
