<?xml version="1.0" encoding="UTF-8" standalone="no"?>
<!DOCTYPE svg PUBLIC "-//W3C//DTD SVG 1.1//EN"
 "http://www.w3.org/Graphics/SVG/1.1/DTD/svg11.dtd">
<!-- Generated by graphviz version 2.43.0 (0)
 -->
<!-- Title: web::ws::server::WSServerContext::messageStart Pages: 1 -->
<svg width="789pt" height="61pt"
 viewBox="0.00 0.00 789.00 61.00" xmlns="http://www.w3.org/2000/svg" xmlns:xlink="http://www.w3.org/1999/xlink">
<g id="graph0" class="graph" transform="scale(1 1) rotate(0) translate(4 57)">
<title>web::ws::server::WSServerContext::messageStart</title>
<polygon fill="white" stroke="transparent" points="-4,4 -4,-57 785,-57 785,4 -4,4"/>
<!-- Node1 -->
<g id="node1" class="node">
<title>Node1</title>
<g id="a_node1"><a xlink:title=" ">
<polygon fill="#bfbfbf" stroke="black" points="0,-22.5 0,-52.5 137,-52.5 137,-22.5 0,-22.5"/>
<text text-anchor="start" x="8" y="-40.5" font-family="Helvetica,sans-Serif" font-size="10.00">web::ws::server::WSServer</text>
<text text-anchor="middle" x="68.5" y="-29.5" font-family="Helvetica,sans-Serif" font-size="10.00">Context::messageStart</text>
</a>
</g>
</g>
<!-- Node2 -->
<g id="node2" class="node">
<title>Node2</title>
<g id="a_node2"><a xlink:href="classweb_1_1ws_1_1_w_s_transmitter.html#ae20c24db5a45a471e431a5fb5af95535" target="_top" xlink:title=" ">
<polygon fill="white" stroke="black" points="173,-22.5 173,-52.5 298,-52.5 298,-22.5 173,-22.5"/>
<text text-anchor="start" x="181" y="-40.5" font-family="Helvetica,sans-Serif" font-size="10.00">web::ws::WSTransmitter</text>
<text text-anchor="middle" x="235.5" y="-29.5" font-family="Helvetica,sans-Serif" font-size="10.00">::messageStart</text>
</a>
</g>
</g>
<!-- Node1&#45;&gt;Node2 -->
<g id="edge1" class="edge">
<title>Node1&#45;&gt;Node2</title>
<path fill="none" stroke="midnightblue" d="M137.09,-37.5C145.5,-37.5 154.13,-37.5 162.61,-37.5"/>
<polygon fill="midnightblue" stroke="midnightblue" points="162.85,-41 172.85,-37.5 162.85,-34 162.85,-41"/>
</g>
<!-- Node3 -->
<g id="node3" class="node">
<title>Node3</title>
<g id="a_node3"><a xlink:href="classweb_1_1ws_1_1_w_s_transmitter.html#a5197360706a9cb8aea70fdcee7e30b84" target="_top" xlink:title=" ">
<polygon fill="white" stroke="black" points="334,-0.5 334,-30.5 459,-30.5 459,-0.5 334,-0.5"/>
<text text-anchor="start" x="342" y="-18.5" font-family="Helvetica,sans-Serif" font-size="10.00">web::ws::WSTransmitter</text>
<text text-anchor="middle" x="396.5" y="-7.5" font-family="Helvetica,sans-Serif" font-size="10.00">::message</text>
</a>
</g>
</g>
<!-- Node2&#45;&gt;Node3 -->
<g id="edge2" class="edge">
<title>Node2&#45;&gt;Node3</title>
<path fill="none" stroke="midnightblue" d="M298.43,-28.93C306.67,-27.79 315.18,-26.61 323.58,-25.45"/>
<polygon fill="midnightblue" stroke="midnightblue" points="324.31,-28.88 333.74,-24.05 323.35,-21.95 324.31,-28.88"/>
</g>
<!-- Node4 -->
<g id="node4" class="node">
<title>Node4</title>
<g id="a_node4"><a xlink:href="classweb_1_1ws_1_1_w_s_transmitter.html#a81fb25984051fe6dcad677f2d775ef62" target="_top" xlink:title=" ">
<polygon fill="white" stroke="black" points="495,-22.5 495,-52.5 620,-52.5 620,-22.5 495,-22.5"/>
<text text-anchor="start" x="503" y="-40.5" font-family="Helvetica,sans-Serif" font-size="10.00">web::ws::WSTransmitter</text>
<text text-anchor="middle" x="557.5" y="-29.5" font-family="Helvetica,sans-Serif" font-size="10.00">::send</text>
</a>
</g>
</g>
<!-- Node2&#45;&gt;Node4 -->
<g id="edge8" class="edge">
<title>Node2&#45;&gt;Node4</title>
<path fill="none" stroke="midnightblue" d="M298.13,-39.68C310.03,-40.02 322.4,-40.32 334,-40.5 389.55,-41.35 403.45,-41.35 459,-40.5 467.34,-40.37 476.07,-40.18 484.75,-39.96"/>
<polygon fill="midnightblue" stroke="midnightblue" points="484.97,-43.45 494.87,-39.68 484.78,-36.46 484.97,-43.45"/>
</g>
<!-- Node3&#45;&gt;Node4 -->
<g id="edge3" class="edge">
<title>Node3&#45;&gt;Node4</title>
<path fill="none" stroke="midnightblue" d="M459.43,-17.47C467.95,-18.5 476.76,-19.68 485.43,-20.95"/>
<polygon fill="midnightblue" stroke="midnightblue" points="485.11,-24.44 495.52,-22.48 486.16,-17.52 485.11,-24.44"/>
</g>
<!-- Node4&#45;&gt;Node3 -->
<g id="edge4" class="edge">
<title>Node4&#45;&gt;Node3</title>
<path fill="none" stroke="midnightblue" d="M494.86,-35.57C486.28,-34.53 477.41,-33.34 468.68,-32.07"/>
<polygon fill="midnightblue" stroke="midnightblue" points="468.93,-28.56 458.52,-30.53 467.88,-35.49 468.93,-28.56"/>
</g>
<!-- Node5 -->
<g id="node5" class="node">
<title>Node5</title>
<g id="a_node5"><a xlink:href="classweb_1_1ws_1_1_w_s_transmitter.html#a63b7d9b116ac946f6a93b97e34a50c14" target="_top" xlink:title=" ">
<polygon fill="white" stroke="black" points="656,-22.5 656,-52.5 781,-52.5 781,-22.5 656,-22.5"/>
<text text-anchor="start" x="664" y="-40.5" font-family="Helvetica,sans-Serif" font-size="10.00">web::ws::WSTransmitter</text>
<text text-anchor="middle" x="718.5" y="-29.5" font-family="Helvetica,sans-Serif" font-size="10.00">::sendFrame</text>
</a>
</g>
</g>
<!-- Node4&#45;&gt;Node5 -->
<g id="edge5" class="edge">
<title>Node4&#45;&gt;Node5</title>
<path fill="none" stroke="midnightblue" d="M620.43,-30.9C628.67,-30.76 637.18,-30.72 645.58,-30.78"/>
<polygon fill="midnightblue" stroke="midnightblue" points="645.7,-34.28 655.74,-30.9 645.78,-27.28 645.7,-34.28"/>
</g>
<!-- Node5&#45;&gt;Node3 -->
<g id="edge6" class="edge">
<title>Node5&#45;&gt;Node3</title>
<path fill="none" stroke="midnightblue" d="M666.32,-22.44C651.51,-18.76 635.23,-15.35 620,-13.5 569.94,-7.43 513.08,-8.07 469.37,-10.16"/>
<polygon fill="midnightblue" stroke="midnightblue" points="468.93,-6.67 459.13,-10.68 469.29,-13.66 468.93,-6.67"/>
</g>
<!-- Node5&#45;&gt;Node4 -->
<g id="edge7" class="edge">
<title>Node5&#45;&gt;Node4</title>
<path fill="none" stroke="midnightblue" d="M655.74,-44.1C647.5,-44.24 638.99,-44.28 630.59,-44.22"/>
<polygon fill="midnightblue" stroke="midnightblue" points="630.47,-40.72 620.43,-44.1 630.39,-47.72 630.47,-40.72"/>
</g>
</g>
</svg>
