<?xml version="1.0" encoding="UTF-8" standalone="no"?>
<!DOCTYPE svg PUBLIC "-//W3C//DTD SVG 1.1//EN"
 "http://www.w3.org/Graphics/SVG/1.1/DTD/svg11.dtd">
<!-- Generated by graphviz version 2.43.0 (0)
 -->
<!-- Title: FileReader Pages: 1 -->
<svg width="221pt" height="711pt"
 viewBox="0.00 0.00 221.00 711.00" xmlns="http://www.w3.org/2000/svg" xmlns:xlink="http://www.w3.org/1999/xlink">
<g id="graph0" class="graph" transform="scale(1 1) rotate(0) translate(4 707)">
<title>FileReader</title>
<polygon fill="white" stroke="transparent" points="-4,4 -4,-707 217,-707 217,4 -4,4"/>
<!-- Node1 -->
<g id="node1" class="node">
<title>Node1</title>
<g id="a_node1"><a xlink:title=" ">
<polygon fill="#bfbfbf" stroke="black" points="76,-0.5 76,-123.5 155,-123.5 155,-0.5 76,-0.5"/>
<text text-anchor="middle" x="115.5" y="-111.5" font-family="Helvetica,sans-Serif" font-size="10.00">FileReader</text>
<polyline fill="none" stroke="black" points="76,-104.5 155,-104.5 "/>
<text text-anchor="start" x="84" y="-92.5" font-family="Helvetica,sans-Serif" font-size="10.00">&#45; junkRead</text>
<text text-anchor="start" x="84" y="-81.5" font-family="Helvetica,sans-Serif" font-size="10.00">&#45; onError</text>
<text text-anchor="start" x="84" y="-70.5" font-family="Helvetica,sans-Serif" font-size="10.00">&#45; stopped</text>
<polyline fill="none" stroke="black" points="76,-63.5 155,-63.5 "/>
<text text-anchor="start" x="84" y="-51.5" font-family="Helvetica,sans-Serif" font-size="10.00">+ disable()</text>
<text text-anchor="start" x="84" y="-40.5" font-family="Helvetica,sans-Serif" font-size="10.00">+ readEvent()</text>
<text text-anchor="start" x="84" y="-29.5" font-family="Helvetica,sans-Serif" font-size="10.00">+ read()</text>
<text text-anchor="start" x="84" y="-18.5" font-family="Helvetica,sans-Serif" font-size="10.00"># FileReader()</text>
<text text-anchor="start" x="84" y="-7.5" font-family="Helvetica,sans-Serif" font-size="10.00">&#45; unobserved()</text>
</a>
</g>
</g>
<!-- Node2 -->
<g id="node2" class="node">
<title>Node2</title>
<g id="a_node2"><a xlink:href="classnet_1_1_read_event_receiver.html" target="_top" xlink:title=" ">
<polygon fill="white" stroke="black" points="2.5,-160.5 2.5,-283.5 126.5,-283.5 126.5,-160.5 2.5,-160.5"/>
<text text-anchor="middle" x="64.5" y="-271.5" font-family="Helvetica,sans-Serif" font-size="10.00">net::ReadEventReceiver</text>
<polyline fill="none" stroke="black" points="2.5,-264.5 126.5,-264.5 "/>
<text text-anchor="middle" x="64.5" y="-252.5" font-family="Helvetica,sans-Serif" font-size="10.00"> </text>
<polyline fill="none" stroke="black" points="2.5,-245.5 126.5,-245.5 "/>
<text text-anchor="start" x="10.5" y="-233.5" font-family="Helvetica,sans-Serif" font-size="10.00">+ setTimeout()</text>
<text text-anchor="start" x="10.5" y="-222.5" font-family="Helvetica,sans-Serif" font-size="10.00">+ enable()</text>
<text text-anchor="start" x="10.5" y="-211.5" font-family="Helvetica,sans-Serif" font-size="10.00">+ disable()</text>
<text text-anchor="start" x="10.5" y="-200.5" font-family="Helvetica,sans-Serif" font-size="10.00">+ suspend()</text>
<text text-anchor="start" x="10.5" y="-189.5" font-family="Helvetica,sans-Serif" font-size="10.00">+ resume()</text>
<text text-anchor="start" x="10.5" y="-178.5" font-family="Helvetica,sans-Serif" font-size="10.00"># ReadEventReceiver()</text>
<text text-anchor="start" x="10.5" y="-167.5" font-family="Helvetica,sans-Serif" font-size="10.00"># readEvent()</text>
</a>
</g>
</g>
<!-- Node2&#45;&gt;Node1 -->
<g id="edge1" class="edge">
<title>Node2&#45;&gt;Node1</title>
<path fill="none" stroke="midnightblue" d="M87.19,-150.69C90.1,-141.7 93.05,-132.56 95.9,-123.73"/>
<polygon fill="none" stroke="midnightblue" points="83.81,-149.77 84.07,-160.36 90.47,-151.92 83.81,-149.77"/>
</g>
<!-- Node3 -->
<g id="node3" class="node">
<title>Node3</title>
<g id="a_node3"><a xlink:href="classnet_1_1_event_receiver.html" target="_top" xlink:title=" ">
<polygon fill="white" stroke="black" points="11,-320.5 11,-608.5 112,-608.5 112,-320.5 11,-320.5"/>
<text text-anchor="middle" x="61.5" y="-596.5" font-family="Helvetica,sans-Serif" font-size="10.00">net::EventReceiver</text>
<polyline fill="none" stroke="black" points="11,-589.5 112,-589.5 "/>
<text text-anchor="start" x="19" y="-577.5" font-family="Helvetica,sans-Serif" font-size="10.00">&#45; _enabled</text>
<text text-anchor="start" x="19" y="-566.5" font-family="Helvetica,sans-Serif" font-size="10.00">&#45; _suspended</text>
<text text-anchor="start" x="19" y="-555.5" font-family="Helvetica,sans-Serif" font-size="10.00">&#45; maxInactivity</text>
<polyline fill="none" stroke="black" points="11,-548.5 112,-548.5 "/>
<text text-anchor="start" x="19" y="-536.5" font-family="Helvetica,sans-Serif" font-size="10.00"># EventReceiver()</text>
<text text-anchor="start" x="19" y="-525.5" font-family="Helvetica,sans-Serif" font-size="10.00"># EventReceiver()</text>
<text text-anchor="start" x="19" y="-514.5" font-family="Helvetica,sans-Serif" font-size="10.00"># operator=()</text>
<text text-anchor="start" x="19" y="-503.5" font-family="Helvetica,sans-Serif" font-size="10.00"># ~EventReceiver()</text>
<text text-anchor="start" x="19" y="-492.5" font-family="Helvetica,sans-Serif" font-size="10.00"># setTimeout()</text>
<text text-anchor="start" x="19" y="-481.5" font-family="Helvetica,sans-Serif" font-size="10.00"># isEnabled()</text>
<text text-anchor="start" x="19" y="-470.5" font-family="Helvetica,sans-Serif" font-size="10.00"># isSuspended()</text>
<text text-anchor="start" x="19" y="-459.5" font-family="Helvetica,sans-Serif" font-size="10.00"># timeoutEvent()</text>
<text text-anchor="start" x="19" y="-448.5" font-family="Helvetica,sans-Serif" font-size="10.00">&#45; enabled()</text>
<text text-anchor="start" x="19" y="-437.5" font-family="Helvetica,sans-Serif" font-size="10.00">&#45; disabled()</text>
<text text-anchor="start" x="19" y="-426.5" font-family="Helvetica,sans-Serif" font-size="10.00">&#45; suspended()</text>
<text text-anchor="start" x="19" y="-415.5" font-family="Helvetica,sans-Serif" font-size="10.00">&#45; resumed()</text>
<text text-anchor="start" x="19" y="-404.5" font-family="Helvetica,sans-Serif" font-size="10.00">&#45; getTimeout()</text>
<text text-anchor="start" x="19" y="-393.5" font-family="Helvetica,sans-Serif" font-size="10.00">&#45; getLastTriggered()</text>
<text text-anchor="start" x="19" y="-382.5" font-family="Helvetica,sans-Serif" font-size="10.00">&#45; setLastTriggered()</text>
<text text-anchor="start" x="19" y="-371.5" font-family="Helvetica,sans-Serif" font-size="10.00">&#45; enable()</text>
<text text-anchor="start" x="19" y="-360.5" font-family="Helvetica,sans-Serif" font-size="10.00">&#45; disable()</text>
<text text-anchor="start" x="19" y="-349.5" font-family="Helvetica,sans-Serif" font-size="10.00">&#45; suspend()</text>
<text text-anchor="start" x="19" y="-338.5" font-family="Helvetica,sans-Serif" font-size="10.00">&#45; resume()</text>
<text text-anchor="start" x="19" y="-327.5" font-family="Helvetica,sans-Serif" font-size="10.00">&#45; unobserved()</text>
</a>
</g>
</g>
<!-- Node3&#45;&gt;Node2 -->
<g id="edge2" class="edge">
<title>Node3&#45;&gt;Node2</title>
<path fill="none" stroke="midnightblue" d="M63.41,-310.35C63.53,-301.12 63.64,-292.16 63.74,-283.73"/>
<polygon fill="none" stroke="midnightblue" points="59.91,-310.43 63.28,-320.47 66.91,-310.52 59.91,-310.43"/>
</g>
<!-- Node4 -->
<g id="node4" class="node">
<title>Node4</title>
<g id="a_node4"><a xlink:href="classnet_1_1_observation_counter.html" target="_top" xlink:title=" ">
<polygon fill="white" stroke="black" points="0,-645.5 0,-702.5 123,-702.5 123,-645.5 0,-645.5"/>
<text text-anchor="middle" x="61.5" y="-690.5" font-family="Helvetica,sans-Serif" font-size="10.00">net::ObservationCounter</text>
<polyline fill="none" stroke="black" points="0,-683.5 123,-683.5 "/>
<text text-anchor="start" x="8" y="-671.5" font-family="Helvetica,sans-Serif" font-size="10.00"># observationCounter</text>
<polyline fill="none" stroke="black" points="0,-664.5 123,-664.5 "/>
<text text-anchor="start" x="8" y="-652.5" font-family="Helvetica,sans-Serif" font-size="10.00">+ isObserved()</text>
</a>
</g>
</g>
<!-- Node4&#45;&gt;Node3 -->
<g id="edge3" class="edge">
<title>Node4&#45;&gt;Node3</title>
<path fill="none" stroke="midnightblue" d="M61.5,-635.38C61.5,-627.29 61.5,-618.28 61.5,-608.76"/>
<polygon fill="none" stroke="midnightblue" points="58,-635.45 61.5,-645.45 65,-635.45 58,-635.45"/>
</g>
<!-- Node5 -->
<g id="node5" class="node">
<title>Node5</title>
<g id="a_node5"><a xlink:href="class_file.html" target="_top" xlink:title=" ">
<polygon fill="white" stroke="black" points="151.5,-193.5 151.5,-250.5 183.5,-250.5 183.5,-193.5 151.5,-193.5"/>
<text text-anchor="middle" x="167.5" y="-238.5" font-family="Helvetica,sans-Serif" font-size="10.00">File</text>
<polyline fill="none" stroke="black" points="151.5,-231.5 183.5,-231.5 "/>
<text text-anchor="middle" x="167.5" y="-219.5" font-family="Helvetica,sans-Serif" font-size="10.00"> </text>
<polyline fill="none" stroke="black" points="151.5,-212.5 183.5,-212.5 "/>
<text text-anchor="middle" x="167.5" y="-200.5" font-family="Helvetica,sans-Serif" font-size="10.00"> </text>
</a>
</g>
</g>
<!-- Node5&#45;&gt;Node1 -->
<g id="edge4" class="edge">
<title>Node5&#45;&gt;Node1</title>
<path fill="none" stroke="midnightblue" d="M155.31,-183.95C149.39,-165.98 142.13,-143.92 135.44,-123.59"/>
<polygon fill="none" stroke="midnightblue" points="151.99,-185.07 158.44,-193.48 158.64,-182.89 151.99,-185.07"/>
</g>
<!-- Node6 -->
<g id="node6" class="node">
<title>Node6</title>
<g id="a_node6"><a xlink:href="classnet_1_1_descriptor.html" target="_top" xlink:title=" ">
<polygon fill="white" stroke="black" points="130,-397.5 130,-531.5 213,-531.5 213,-397.5 130,-397.5"/>
<text text-anchor="middle" x="171.5" y="-519.5" font-family="Helvetica,sans-Serif" font-size="10.00">net::Descriptor</text>
<polyline fill="none" stroke="black" points="130,-512.5 213,-512.5 "/>
<text text-anchor="start" x="138" y="-500.5" font-family="Helvetica,sans-Serif" font-size="10.00">+ none</text>
<text text-anchor="start" x="138" y="-489.5" font-family="Helvetica,sans-Serif" font-size="10.00">&#45; fd</text>
<polyline fill="none" stroke="black" points="130,-482.5 213,-482.5 "/>
<text text-anchor="start" x="138" y="-470.5" font-family="Helvetica,sans-Serif" font-size="10.00">+ Descriptor()</text>
<text text-anchor="start" x="138" y="-459.5" font-family="Helvetica,sans-Serif" font-size="10.00">+ operator=()</text>
<text text-anchor="start" x="138" y="-448.5" font-family="Helvetica,sans-Serif" font-size="10.00">+ ~Descriptor()</text>
<text text-anchor="start" x="138" y="-437.5" font-family="Helvetica,sans-Serif" font-size="10.00">+ open()</text>
<text text-anchor="start" x="138" y="-426.5" font-family="Helvetica,sans-Serif" font-size="10.00">+ getFd()</text>
<text text-anchor="start" x="138" y="-415.5" font-family="Helvetica,sans-Serif" font-size="10.00">+ dontClose()</text>
<text text-anchor="start" x="138" y="-404.5" font-family="Helvetica,sans-Serif" font-size="10.00"># Descriptor()</text>
</a>
</g>
</g>
<!-- Node6&#45;&gt;Node5 -->
<g id="edge5" class="edge">
<title>Node6&#45;&gt;Node5</title>
<path fill="none" stroke="midnightblue" d="M170.23,-387.38C169.46,-340.73 168.51,-283.8 167.96,-250.64"/>
<polygon fill="none" stroke="midnightblue" points="166.74,-387.52 170.4,-397.46 173.73,-387.41 166.74,-387.52"/>
</g>
</g>
</svg>
