<?xml version="1.0" encoding="UTF-8" standalone="no"?>
<!DOCTYPE svg PUBLIC "-//W3C//DTD SVG 1.1//EN"
 "http://www.w3.org/Graphics/SVG/1.1/DTD/svg11.dtd">
<!-- Generated by graphviz version 2.43.0 (0)
 -->
<!-- Title: http::tls::Client6 Pages: 1 -->
<svg width="207pt" height="475pt"
 viewBox="0.00 0.00 206.50 475.00" xmlns="http://www.w3.org/2000/svg" xmlns:xlink="http://www.w3.org/1999/xlink">
<g id="graph0" class="graph" transform="scale(1 1) rotate(0) translate(4 471)">
<title>http::tls::Client6</title>
<polygon fill="white" stroke="transparent" points="-4,4 -4,-471 202.5,-471 202.5,4 -4,4"/>
<!-- Node1 -->
<g id="node1" class="node">
<title>Node1</title>
<g id="a_node1"><a xlink:title=" ">
<polygon fill="#bfbfbf" stroke="black" points="29.5,-0.5 29.5,-57.5 115.5,-57.5 115.5,-0.5 29.5,-0.5"/>
<text text-anchor="middle" x="72.5" y="-45.5" font-family="Helvetica,sans-Serif" font-size="10.00">http::tls::Client6</text>
<polyline fill="none" stroke="black" points="29.5,-38.5 115.5,-38.5 "/>
<text text-anchor="middle" x="72.5" y="-26.5" font-family="Helvetica,sans-Serif" font-size="10.00"> </text>
<polyline fill="none" stroke="black" points="29.5,-19.5 115.5,-19.5 "/>
<text text-anchor="middle" x="72.5" y="-7.5" font-family="Helvetica,sans-Serif" font-size="10.00"> </text>
</a>
</g>
</g>
<!-- Node2 -->
<g id="node2" class="node">
<title>Node2</title>
<g id="a_node2"><a xlink:href="classhttp_1_1_client.html" target="_top" xlink:title=" ">
<polygon fill="white" stroke="black" points="18.5,-95.5 18.5,-262.5 126.5,-262.5 126.5,-95.5 18.5,-95.5"/>
<text text-anchor="start" x="26.5" y="-250.5" font-family="Helvetica,sans-Serif" font-size="10.00">http::Client&lt; net::</text>
<text text-anchor="start" x="26.5" y="-239.5" font-family="Helvetica,sans-Serif" font-size="10.00">socket::ip::tcp::ipv6</text>
<text text-anchor="middle" x="72.5" y="-228.5" font-family="Helvetica,sans-Serif" font-size="10.00">::tls::SocketClient &gt;</text>
<polyline fill="none" stroke="black" points="18.5,-221.5 126.5,-221.5 "/>
<text text-anchor="start" x="26.5" y="-209.5" font-family="Helvetica,sans-Serif" font-size="10.00"># onConnect</text>
<text text-anchor="start" x="26.5" y="-198.5" font-family="Helvetica,sans-Serif" font-size="10.00"># onRequestBegin</text>
<text text-anchor="start" x="26.5" y="-187.5" font-family="Helvetica,sans-Serif" font-size="10.00"># onResponseReady</text>
<text text-anchor="start" x="26.5" y="-176.5" font-family="Helvetica,sans-Serif" font-size="10.00"># onResponseError</text>
<text text-anchor="start" x="26.5" y="-165.5" font-family="Helvetica,sans-Serif" font-size="10.00"># onDisconnect</text>
<text text-anchor="start" x="26.5" y="-154.5" font-family="Helvetica,sans-Serif" font-size="10.00"># options</text>
<polyline fill="none" stroke="black" points="18.5,-147.5 126.5,-147.5 "/>
<text text-anchor="start" x="26.5" y="-135.5" font-family="Helvetica,sans-Serif" font-size="10.00">+ Client()</text>
<text text-anchor="start" x="26.5" y="-124.5" font-family="Helvetica,sans-Serif" font-size="10.00">+ connect()</text>
<text text-anchor="start" x="26.5" y="-113.5" font-family="Helvetica,sans-Serif" font-size="10.00">+ get()</text>
<text text-anchor="start" x="26.5" y="-102.5" font-family="Helvetica,sans-Serif" font-size="10.00">+ post()</text>
</a>
</g>
</g>
<!-- Node2&#45;&gt;Node1 -->
<g id="edge1" class="edge">
<title>Node2&#45;&gt;Node1</title>
<path fill="none" stroke="midnightblue" d="M72.5,-85.22C72.5,-75.23 72.5,-65.72 72.5,-57.51"/>
<polygon fill="none" stroke="midnightblue" points="69,-85.35 72.5,-95.35 76,-85.35 69,-85.35"/>
</g>
<!-- Node3 -->
<g id="node3" class="node">
<title>Node3</title>
<g id="a_node3"><a xlink:href="classhttp_1_1_client.html" target="_top" xlink:title=" ">
<polygon fill="white" stroke="black" points="0,-321.5 0,-466.5 145,-466.5 145,-321.5 0,-321.5"/>
<text text-anchor="middle" x="72.5" y="-454.5" font-family="Helvetica,sans-Serif" font-size="10.00">http::Client&lt; SocketClientT &gt;</text>
<polyline fill="none" stroke="black" points="0,-447.5 145,-447.5 "/>
<text text-anchor="start" x="8" y="-435.5" font-family="Helvetica,sans-Serif" font-size="10.00"># onConnect</text>
<text text-anchor="start" x="8" y="-424.5" font-family="Helvetica,sans-Serif" font-size="10.00"># onRequestBegin</text>
<text text-anchor="start" x="8" y="-413.5" font-family="Helvetica,sans-Serif" font-size="10.00"># onResponseReady</text>
<text text-anchor="start" x="8" y="-402.5" font-family="Helvetica,sans-Serif" font-size="10.00"># onResponseError</text>
<text text-anchor="start" x="8" y="-391.5" font-family="Helvetica,sans-Serif" font-size="10.00"># onDisconnect</text>
<text text-anchor="start" x="8" y="-380.5" font-family="Helvetica,sans-Serif" font-size="10.00"># options</text>
<polyline fill="none" stroke="black" points="0,-373.5 145,-373.5 "/>
<text text-anchor="start" x="8" y="-361.5" font-family="Helvetica,sans-Serif" font-size="10.00">+ Client()</text>
<text text-anchor="start" x="8" y="-350.5" font-family="Helvetica,sans-Serif" font-size="10.00">+ connect()</text>
<text text-anchor="start" x="8" y="-339.5" font-family="Helvetica,sans-Serif" font-size="10.00">+ get()</text>
<text text-anchor="start" x="8" y="-328.5" font-family="Helvetica,sans-Serif" font-size="10.00">+ post()</text>
</a>
</g>
</g>
<!-- Node3&#45;&gt;Node2 -->
<g id="edge2" class="edge">
<title>Node3&#45;&gt;Node2</title>
<path fill="none" stroke="orange" d="M72.5,-311.17C72.5,-295.3 72.5,-278.64 72.5,-262.74"/>
<polygon fill="orange" stroke="orange" points="69,-311.48 72.5,-321.48 76,-311.48 69,-311.48"/>
<text text-anchor="start" x="72.5" y="-295" font-family="Helvetica,sans-Serif" font-size="10.00"> &lt; net::socket::ip::</text>
<text text-anchor="middle" x="135.5" y="-284" font-family="Helvetica,sans-Serif" font-size="10.00">tcp::ipv6::tls::SocketClient &gt;</text>
</g>
</g>
</svg>
