<?xml version="1.0" encoding="UTF-8" standalone="no"?>
<!DOCTYPE svg PUBLIC "-//W3C//DTD SVG 1.1//EN"
 "http://www.w3.org/Graphics/SVG/1.1/DTD/svg11.dtd">
<!-- Generated by graphviz version 2.43.0 (0)
 -->
<!-- Title: net::ReadEventReceiver::suspend Pages: 1 -->
<svg width="294pt" height="100pt"
 viewBox="0.00 0.00 294.00 99.50" xmlns="http://www.w3.org/2000/svg" xmlns:xlink="http://www.w3.org/1999/xlink">
<g id="graph0" class="graph" transform="scale(1 1) rotate(0) translate(4 95.5)">
<title>net::ReadEventReceiver::suspend</title>
<polygon fill="white" stroke="transparent" points="-4,4 -4,-95.5 290,-95.5 290,4 -4,4"/>
<!-- Node1 -->
<g id="node1" class="node">
<title>Node1</title>
<g id="a_node1"><a xlink:title=" ">
<polygon fill="#bfbfbf" stroke="black" points="162,-33 162,-63 286,-63 286,-33 162,-33"/>
<text text-anchor="start" x="170" y="-51" font-family="Helvetica,sans-Serif" font-size="10.00">net::ReadEventReceiver</text>
<text text-anchor="middle" x="224" y="-40" font-family="Helvetica,sans-Serif" font-size="10.00">::suspend</text>
</a>
</g>
</g>
<!-- Node2 -->
<g id="node2" class="node">
<title>Node2</title>
<g id="a_node2"><a xlink:href="classnet_1_1socket_1_1stream_1_1tls_1_1_socket_reader.html#a66094f94e4c20714c159432dac407b1c" target="_top" xlink:title=" ">
<polygon fill="white" stroke="black" points="0,-61 0,-91 126,-91 126,-61 0,-61"/>
<text text-anchor="start" x="8" y="-79" font-family="Helvetica,sans-Serif" font-size="10.00">net::socket::stream</text>
<text text-anchor="middle" x="63" y="-68" font-family="Helvetica,sans-Serif" font-size="10.00">::tls::SocketReader::read</text>
</a>
</g>
</g>
<!-- Node1&#45;&gt;Node2 -->
<g id="edge1" class="edge">
<title>Node1&#45;&gt;Node2</title>
<path fill="none" stroke="midnightblue" d="M151.97,-60.51C143.37,-62.02 134.63,-63.56 126.17,-65.05"/>
<polygon fill="midnightblue" stroke="midnightblue" points="152.74,-63.93 161.98,-58.75 151.53,-57.03 152.74,-63.93"/>
</g>
<!-- Node3 -->
<g id="node3" class="node">
<title>Node3</title>
<g id="a_node3"><a xlink:href="classnet_1_1socket_1_1stream_1_1tls_1_1_t_l_s_handshake.html#a628b85b77d3318410d1f242586ae8971" target="_top" xlink:title=" ">
<polygon fill="white" stroke="black" points="9.5,-0.5 9.5,-41.5 116.5,-41.5 116.5,-0.5 9.5,-0.5"/>
<text text-anchor="start" x="17.5" y="-29.5" font-family="Helvetica,sans-Serif" font-size="10.00">net::socket::stream</text>
<text text-anchor="start" x="17.5" y="-18.5" font-family="Helvetica,sans-Serif" font-size="10.00">::tls::TLSHandshake</text>
<text text-anchor="middle" x="63" y="-7.5" font-family="Helvetica,sans-Serif" font-size="10.00">::timeout</text>
</a>
</g>
</g>
<!-- Node1&#45;&gt;Node3 -->
<g id="edge2" class="edge">
<title>Node1&#45;&gt;Node3</title>
<path fill="none" stroke="midnightblue" d="M152.04,-35.95C140.11,-33.93 127.92,-31.85 116.57,-29.93"/>
<polygon fill="midnightblue" stroke="midnightblue" points="151.54,-39.41 161.98,-37.64 152.71,-32.51 151.54,-39.41"/>
</g>
</g>
</svg>
