<?xml version="1.0" encoding="UTF-8" standalone="no"?>
<!DOCTYPE svg PUBLIC "-//W3C//DTD SVG 1.1//EN"
 "http://www.w3.org/Graphics/SVG/1.1/DTD/svg11.dtd">
<!-- Generated by graphviz version 2.43.0 (0)
 -->
<!-- Title: express::legacy::WebApp Pages: 1 -->
<svg width="432pt" height="1469pt"
 viewBox="0.00 0.00 432.00 1469.00" xmlns="http://www.w3.org/2000/svg" xmlns:xlink="http://www.w3.org/1999/xlink">
<g id="graph0" class="graph" transform="scale(1 1) rotate(0) translate(4 1465)">
<title>express::legacy::WebApp</title>
<polygon fill="white" stroke="transparent" points="-4,4 -4,-1465 428,-1465 428,4 -4,4"/>
<!-- Node1 -->
<g id="node1" class="node">
<title>Node1</title>
<g id="a_node1"><a xlink:title=" ">
<polygon fill="#bfbfbf" stroke="black" points="41.5,-0.5 41.5,-57.5 169.5,-57.5 169.5,-0.5 41.5,-0.5"/>
<text text-anchor="middle" x="105.5" y="-45.5" font-family="Helvetica,sans-Serif" font-size="10.00">express::legacy::WebApp</text>
<polyline fill="none" stroke="black" points="41.5,-38.5 169.5,-38.5 "/>
<text text-anchor="middle" x="105.5" y="-26.5" font-family="Helvetica,sans-Serif" font-size="10.00"> </text>
<polyline fill="none" stroke="black" points="41.5,-19.5 169.5,-19.5 "/>
<text text-anchor="middle" x="105.5" y="-7.5" font-family="Helvetica,sans-Serif" font-size="10.00"> </text>
</a>
</g>
</g>
<!-- Node2 -->
<g id="node2" class="node">
<title>Node2</title>
<g id="a_node2"><a xlink:href="classexpress_1_1_web_app_t.html" target="_top" xlink:title=" ">
<polygon fill="white" stroke="black" points="43,-95.5 43,-229.5 168,-229.5 168,-95.5 43,-95.5"/>
<text text-anchor="start" x="51" y="-217.5" font-family="Helvetica,sans-Serif" font-size="10.00">express::WebAppT&lt; http</text>
<text text-anchor="middle" x="105.5" y="-206.5" font-family="Helvetica,sans-Serif" font-size="10.00">::legacy::Server &gt;</text>
<polyline fill="none" stroke="black" points="43,-199.5 168,-199.5 "/>
<text text-anchor="start" x="51" y="-187.5" font-family="Helvetica,sans-Serif" font-size="10.00"># _onConnect</text>
<text text-anchor="start" x="51" y="-176.5" font-family="Helvetica,sans-Serif" font-size="10.00"># _onDisconnect</text>
<polyline fill="none" stroke="black" points="43,-169.5 168,-169.5 "/>
<text text-anchor="start" x="51" y="-157.5" font-family="Helvetica,sans-Serif" font-size="10.00">+ WebAppT()</text>
<text text-anchor="start" x="51" y="-146.5" font-family="Helvetica,sans-Serif" font-size="10.00">+ WebAppT()</text>
<text text-anchor="start" x="51" y="-135.5" font-family="Helvetica,sans-Serif" font-size="10.00">+ listen()</text>
<text text-anchor="start" x="51" y="-124.5" font-family="Helvetica,sans-Serif" font-size="10.00">+ listen()</text>
<text text-anchor="start" x="51" y="-113.5" font-family="Helvetica,sans-Serif" font-size="10.00">+ onConnect()</text>
<text text-anchor="start" x="51" y="-102.5" font-family="Helvetica,sans-Serif" font-size="10.00">+ onDisconnect()</text>
</a>
</g>
</g>
<!-- Node2&#45;&gt;Node1 -->
<g id="edge1" class="edge">
<title>Node2&#45;&gt;Node1</title>
<path fill="none" stroke="midnightblue" d="M105.5,-85.12C105.5,-75.36 105.5,-65.92 105.5,-57.7"/>
<polygon fill="none" stroke="midnightblue" points="102,-85.36 105.5,-95.36 109,-85.36 102,-85.36"/>
</g>
<!-- Node3 -->
<g id="node3" class="node">
<title>Node3</title>
<g id="a_node3"><a xlink:href="classexpress_1_1_web_app.html" target="_top" xlink:title=" ">
<polygon fill="white" stroke="black" points="0.5,-449.5 0.5,-572.5 94.5,-572.5 94.5,-449.5 0.5,-449.5"/>
<text text-anchor="middle" x="47.5" y="-560.5" font-family="Helvetica,sans-Serif" font-size="10.00">express::WebApp</text>
<polyline fill="none" stroke="black" points="0.5,-553.5 94.5,-553.5 "/>
<text text-anchor="start" x="8.5" y="-541.5" font-family="Helvetica,sans-Serif" font-size="10.00">&#45; initialized</text>
<polyline fill="none" stroke="black" points="0.5,-534.5 94.5,-534.5 "/>
<text text-anchor="start" x="8.5" y="-522.5" font-family="Helvetica,sans-Serif" font-size="10.00">+ init()</text>
<text text-anchor="start" x="8.5" y="-511.5" font-family="Helvetica,sans-Serif" font-size="10.00">+ start()</text>
<text text-anchor="start" x="8.5" y="-500.5" font-family="Helvetica,sans-Serif" font-size="10.00">+ stop()</text>
<text text-anchor="start" x="8.5" y="-489.5" font-family="Helvetica,sans-Serif" font-size="10.00"># WebApp()</text>
<text text-anchor="start" x="8.5" y="-478.5" font-family="Helvetica,sans-Serif" font-size="10.00"># WebApp()</text>
<text text-anchor="start" x="8.5" y="-467.5" font-family="Helvetica,sans-Serif" font-size="10.00"># listen()</text>
<text text-anchor="start" x="8.5" y="-456.5" font-family="Helvetica,sans-Serif" font-size="10.00"># listen()</text>
</a>
</g>
</g>
<!-- Node3&#45;&gt;Node2 -->
<g id="edge2" class="edge">
<title>Node3&#45;&gt;Node2</title>
<path fill="none" stroke="midnightblue" d="M23.81,-439.36C11.76,-392.3 2.97,-329.66 20.5,-277 26.02,-260.42 35.02,-244.3 45.14,-229.67"/>
<polygon fill="none" stroke="midnightblue" points="20.47,-440.4 26.43,-449.16 27.23,-438.59 20.47,-440.4"/>
</g>
<!-- Node11 -->
<g id="node11" class="node">
<title>Node11</title>
<g id="a_node11"><a xlink:href="classexpress_1_1_web_app_t.html" target="_top" xlink:title=" ">
<polygon fill="white" stroke="black" points="29.5,-277.5 29.5,-411.5 181.5,-411.5 181.5,-277.5 29.5,-277.5"/>
<text text-anchor="middle" x="105.5" y="-399.5" font-family="Helvetica,sans-Serif" font-size="10.00">express::WebAppT&lt; ServerT &gt;</text>
<polyline fill="none" stroke="black" points="29.5,-392.5 181.5,-392.5 "/>
<text text-anchor="start" x="37.5" y="-380.5" font-family="Helvetica,sans-Serif" font-size="10.00"># server</text>
<text text-anchor="start" x="37.5" y="-369.5" font-family="Helvetica,sans-Serif" font-size="10.00"># _onConnect</text>
<text text-anchor="start" x="37.5" y="-358.5" font-family="Helvetica,sans-Serif" font-size="10.00"># _onDisconnect</text>
<polyline fill="none" stroke="black" points="29.5,-351.5 181.5,-351.5 "/>
<text text-anchor="start" x="37.5" y="-339.5" font-family="Helvetica,sans-Serif" font-size="10.00">+ WebAppT()</text>
<text text-anchor="start" x="37.5" y="-328.5" font-family="Helvetica,sans-Serif" font-size="10.00">+ WebAppT()</text>
<text text-anchor="start" x="37.5" y="-317.5" font-family="Helvetica,sans-Serif" font-size="10.00">+ listen()</text>
<text text-anchor="start" x="37.5" y="-306.5" font-family="Helvetica,sans-Serif" font-size="10.00">+ listen()</text>
<text text-anchor="start" x="37.5" y="-295.5" font-family="Helvetica,sans-Serif" font-size="10.00">+ onConnect()</text>
<text text-anchor="start" x="37.5" y="-284.5" font-family="Helvetica,sans-Serif" font-size="10.00">+ onDisconnect()</text>
</a>
</g>
</g>
<!-- Node3&#45;&gt;Node11 -->
<g id="edge11" class="edge">
<title>Node3&#45;&gt;Node11</title>
<path fill="none" stroke="midnightblue" d="M72.32,-439.61C75.6,-430.31 78.95,-420.8 82.21,-411.57"/>
<polygon fill="none" stroke="midnightblue" points="68.96,-438.62 68.93,-449.21 75.56,-440.95 68.96,-438.62"/>
</g>
<!-- Node4 -->
<g id="node4" class="node">
<title>Node4</title>
<g id="a_node4"><a xlink:href="classexpress_1_1_router.html" target="_top" xlink:title=" ">
<polygon fill="white" stroke="black" points="0,-631.5 0,-842.5 95,-842.5 95,-631.5 0,-631.5"/>
<text text-anchor="middle" x="47.5" y="-830.5" font-family="Helvetica,sans-Serif" font-size="10.00">express::Router</text>
<polyline fill="none" stroke="black" points="0,-823.5 95,-823.5 "/>
<text text-anchor="start" x="8" y="-811.5" font-family="Helvetica,sans-Serif" font-size="10.00">&#45; reqestMap</text>
<text text-anchor="start" x="8" y="-800.5" font-family="Helvetica,sans-Serif" font-size="10.00">&#45; responseMap</text>
<text text-anchor="start" x="8" y="-789.5" font-family="Helvetica,sans-Serif" font-size="10.00">&#45; routerDispatcher</text>
<polyline fill="none" stroke="black" points="0,-782.5 95,-782.5 "/>
<text text-anchor="start" x="8" y="-770.5" font-family="Helvetica,sans-Serif" font-size="10.00">+ Router()</text>
<text text-anchor="start" x="8" y="-759.5" font-family="Helvetica,sans-Serif" font-size="10.00">+ Router()</text>
<text text-anchor="start" x="8" y="-748.5" font-family="Helvetica,sans-Serif" font-size="10.00">+ operator=()</text>
<text text-anchor="start" x="8" y="-737.5" font-family="Helvetica,sans-Serif" font-size="10.00">+ use()</text>
<text text-anchor="start" x="8" y="-726.5" font-family="Helvetica,sans-Serif" font-size="10.00">+ use()</text>
<text text-anchor="start" x="8" y="-715.5" font-family="Helvetica,sans-Serif" font-size="10.00">+ use()</text>
<text text-anchor="start" x="8" y="-704.5" font-family="Helvetica,sans-Serif" font-size="10.00">+ use()</text>
<text text-anchor="start" x="8" y="-693.5" font-family="Helvetica,sans-Serif" font-size="10.00">+ use()</text>
<text text-anchor="start" x="8" y="-682.5" font-family="Helvetica,sans-Serif" font-size="10.00">+ use()</text>
<text text-anchor="start" x="8" y="-671.5" font-family="Helvetica,sans-Serif" font-size="10.00">+ all()</text>
<text text-anchor="start" x="8" y="-660.5" font-family="Helvetica,sans-Serif" font-size="10.00">and 59 more...</text>
<text text-anchor="start" x="8" y="-649.5" font-family="Helvetica,sans-Serif" font-size="10.00"># dispatch()</text>
<text text-anchor="start" x="8" y="-638.5" font-family="Helvetica,sans-Serif" font-size="10.00"># completed()</text>
</a>
</g>
</g>
<!-- Node4&#45;&gt;Node3 -->
<g id="edge3" class="edge">
<title>Node4&#45;&gt;Node3</title>
<path fill="none" stroke="midnightblue" d="M47.5,-620.87C47.5,-604.25 47.5,-587.72 47.5,-572.75"/>
<polygon fill="none" stroke="midnightblue" points="44,-621.21 47.5,-631.21 51,-621.21 44,-621.21"/>
</g>
<!-- Node5 -->
<g id="node5" class="node">
<title>Node5</title>
<g id="a_node5"><a xlink:href="classhttp_1_1legacy_1_1_server.html" target="_top" xlink:title=" ">
<polygon fill="white" stroke="black" points="199.5,-316 199.5,-373 301.5,-373 301.5,-316 199.5,-316"/>
<text text-anchor="middle" x="250.5" y="-361" font-family="Helvetica,sans-Serif" font-size="10.00">http::legacy::Server</text>
<polyline fill="none" stroke="black" points="199.5,-354 301.5,-354 "/>
<text text-anchor="middle" x="250.5" y="-342" font-family="Helvetica,sans-Serif" font-size="10.00"> </text>
<polyline fill="none" stroke="black" points="199.5,-335 301.5,-335 "/>
<text text-anchor="middle" x="250.5" y="-323" font-family="Helvetica,sans-Serif" font-size="10.00"> </text>
</a>
</g>
</g>
<!-- Node5&#45;&gt;Node2 -->
<g id="edge4" class="edge">
<title>Node5&#45;&gt;Node2</title>
<path fill="none" stroke="#404040" d="M245.15,-315.98C240.22,-295.74 231.35,-268.32 216.5,-248 205.93,-233.54 192.21,-220.39 178.04,-208.99"/>
<polygon fill="none" stroke="#404040" points="177.69,-208.72 170.49,-208.22 168.19,-201.38 175.38,-201.88 177.69,-208.72"/>
<text text-anchor="middle" x="241.5" y="-251" font-family="Helvetica,sans-Serif" font-size="10.00"> #server</text>
</g>
<!-- Node6 -->
<g id="node6" class="node">
<title>Node6</title>
<g id="a_node6"><a xlink:href="classhttp_1_1_server.html" target="_top" xlink:title=" ">
<polygon fill="white" stroke="black" points="200.5,-460.5 200.5,-561.5 300.5,-561.5 300.5,-460.5 200.5,-460.5"/>
<text text-anchor="start" x="208.5" y="-549.5" font-family="Helvetica,sans-Serif" font-size="10.00">http::Server&lt; net::</text>
<text text-anchor="start" x="208.5" y="-538.5" font-family="Helvetica,sans-Serif" font-size="10.00">socket::tcp::legacy</text>
<text text-anchor="middle" x="250.5" y="-527.5" font-family="Helvetica,sans-Serif" font-size="10.00">::SocketServer &gt;</text>
<polyline fill="none" stroke="black" points="200.5,-520.5 300.5,-520.5 "/>
<text text-anchor="middle" x="250.5" y="-508.5" font-family="Helvetica,sans-Serif" font-size="10.00"> </text>
<polyline fill="none" stroke="black" points="200.5,-501.5 300.5,-501.5 "/>
<text text-anchor="start" x="208.5" y="-489.5" font-family="Helvetica,sans-Serif" font-size="10.00">+ Server()</text>
<text text-anchor="start" x="208.5" y="-478.5" font-family="Helvetica,sans-Serif" font-size="10.00">+ listen()</text>
<text text-anchor="start" x="208.5" y="-467.5" font-family="Helvetica,sans-Serif" font-size="10.00">+ listen()</text>
</a>
</g>
</g>
<!-- Node6&#45;&gt;Node5 -->
<g id="edge5" class="edge">
<title>Node6&#45;&gt;Node5</title>
<path fill="none" stroke="midnightblue" d="M250.5,-449.93C250.5,-423.64 250.5,-394.09 250.5,-373.15"/>
<polygon fill="none" stroke="midnightblue" points="247,-450.2 250.5,-460.2 254,-450.2 247,-450.2"/>
</g>
<!-- Node7 -->
<g id="node7" class="node">
<title>Node7</title>
<g id="a_node7"><a xlink:href="classnet_1_1socket_1_1tcp_1_1legacy_1_1_socket_server.html" target="_top" xlink:title=" ">
<polygon fill="white" stroke="black" points="136,-703 136,-771 255,-771 255,-703 136,-703"/>
<text text-anchor="start" x="144" y="-759" font-family="Helvetica,sans-Serif" font-size="10.00">net::socket::tcp::legacy</text>
<text text-anchor="middle" x="195.5" y="-748" font-family="Helvetica,sans-Serif" font-size="10.00">::SocketServer</text>
<polyline fill="none" stroke="black" points="136,-741 255,-741 "/>
<text text-anchor="middle" x="195.5" y="-729" font-family="Helvetica,sans-Serif" font-size="10.00"> </text>
<polyline fill="none" stroke="black" points="136,-722 255,-722 "/>
<text text-anchor="middle" x="195.5" y="-710" font-family="Helvetica,sans-Serif" font-size="10.00"> </text>
</a>
</g>
</g>
<!-- Node7&#45;&gt;Node6 -->
<g id="edge6" class="edge">
<title>Node7&#45;&gt;Node6</title>
<path fill="none" stroke="#404040" d="M203.62,-702.95C211.96,-668.98 225.14,-615.3 235.4,-573.5"/>
<polygon fill="none" stroke="#404040" points="235.42,-573.43 232.96,-566.65 238.28,-561.77 240.73,-568.55 235.42,-573.43"/>
<text text-anchor="middle" x="264" y="-599.5" font-family="Helvetica,sans-Serif" font-size="10.00"> #socketServer</text>
</g>
<!-- Node8 -->
<g id="node8" class="node">
<title>Node8</title>
<g id="a_node8"><a xlink:href="classnet_1_1socket_1_1tcp_1_1_socket_server.html" target="_top" xlink:title=" ">
<polygon fill="white" stroke="black" points="114,-880.5 114,-1146.5 277,-1146.5 277,-880.5 114,-880.5"/>
<text text-anchor="start" x="122" y="-1134.5" font-family="Helvetica,sans-Serif" font-size="10.00">net::socket::tcp::Socket</text>
<text text-anchor="middle" x="195.5" y="-1123.5" font-family="Helvetica,sans-Serif" font-size="10.00">Server&lt; legacy::SocketListener &gt;</text>
<polyline fill="none" stroke="black" points="114,-1116.5 277,-1116.5 "/>
<text text-anchor="start" x="122" y="-1104.5" font-family="Helvetica,sans-Serif" font-size="10.00"># options</text>
<text text-anchor="start" x="122" y="-1093.5" font-family="Helvetica,sans-Serif" font-size="10.00"># isDynamic</text>
<text text-anchor="start" x="122" y="-1082.5" font-family="Helvetica,sans-Serif" font-size="10.00"># lastAllocAddress</text>
<text text-anchor="start" x="122" y="-1071.5" font-family="Helvetica,sans-Serif" font-size="10.00">&#45; onConstruct</text>
<text text-anchor="start" x="122" y="-1060.5" font-family="Helvetica,sans-Serif" font-size="10.00">&#45; onDestruct</text>
<text text-anchor="start" x="122" y="-1049.5" font-family="Helvetica,sans-Serif" font-size="10.00">&#45; onConnect</text>
<text text-anchor="start" x="122" y="-1038.5" font-family="Helvetica,sans-Serif" font-size="10.00">&#45; onDisconnect</text>
<text text-anchor="start" x="122" y="-1027.5" font-family="Helvetica,sans-Serif" font-size="10.00">&#45; onRead</text>
<text text-anchor="start" x="122" y="-1016.5" font-family="Helvetica,sans-Serif" font-size="10.00">&#45; onReadError</text>
<text text-anchor="start" x="122" y="-1005.5" font-family="Helvetica,sans-Serif" font-size="10.00">&#45; onWriteError</text>
<polyline fill="none" stroke="black" points="114,-998.5 277,-998.5 "/>
<text text-anchor="start" x="122" y="-986.5" font-family="Helvetica,sans-Serif" font-size="10.00">+ operator new()</text>
<text text-anchor="start" x="122" y="-975.5" font-family="Helvetica,sans-Serif" font-size="10.00">+ operator delete()</text>
<text text-anchor="start" x="122" y="-964.5" font-family="Helvetica,sans-Serif" font-size="10.00">+ SocketServer()</text>
<text text-anchor="start" x="122" y="-953.5" font-family="Helvetica,sans-Serif" font-size="10.00">+ SocketServer()</text>
<text text-anchor="start" x="122" y="-942.5" font-family="Helvetica,sans-Serif" font-size="10.00">+ SocketServer()</text>
<text text-anchor="start" x="122" y="-931.5" font-family="Helvetica,sans-Serif" font-size="10.00">+ operator=()</text>
<text text-anchor="start" x="122" y="-920.5" font-family="Helvetica,sans-Serif" font-size="10.00">+ ~SocketServer()</text>
<text text-anchor="start" x="122" y="-909.5" font-family="Helvetica,sans-Serif" font-size="10.00">+ listen()</text>
<text text-anchor="start" x="122" y="-898.5" font-family="Helvetica,sans-Serif" font-size="10.00">+ listen()</text>
<text text-anchor="start" x="122" y="-887.5" font-family="Helvetica,sans-Serif" font-size="10.00">+ listen()</text>
</a>
</g>
</g>
<!-- Node8&#45;&gt;Node7 -->
<g id="edge7" class="edge">
<title>Node8&#45;&gt;Node7</title>
<path fill="none" stroke="midnightblue" d="M195.5,-870.03C195.5,-832.99 195.5,-796.46 195.5,-771.25"/>
<polygon fill="none" stroke="midnightblue" points="192,-870.48 195.5,-880.48 199,-870.48 192,-870.48"/>
</g>
<!-- Node9 -->
<g id="node9" class="node">
<title>Node9</title>
<g id="a_node9"><a xlink:href="classnet_1_1socket_1_1tcp_1_1_socket_server.html" target="_top" xlink:title=" ">
<polygon fill="white" stroke="black" points="128.5,-1194.5 128.5,-1460.5 262.5,-1460.5 262.5,-1194.5 128.5,-1194.5"/>
<text text-anchor="start" x="136.5" y="-1448.5" font-family="Helvetica,sans-Serif" font-size="10.00">net::socket::tcp::Socket</text>
<text text-anchor="middle" x="195.5" y="-1437.5" font-family="Helvetica,sans-Serif" font-size="10.00">Server&lt; SocketListenerT &gt;</text>
<polyline fill="none" stroke="black" points="128.5,-1430.5 262.5,-1430.5 "/>
<text text-anchor="start" x="136.5" y="-1418.5" font-family="Helvetica,sans-Serif" font-size="10.00"># options</text>
<text text-anchor="start" x="136.5" y="-1407.5" font-family="Helvetica,sans-Serif" font-size="10.00"># isDynamic</text>
<text text-anchor="start" x="136.5" y="-1396.5" font-family="Helvetica,sans-Serif" font-size="10.00"># lastAllocAddress</text>
<text text-anchor="start" x="136.5" y="-1385.5" font-family="Helvetica,sans-Serif" font-size="10.00">&#45; onConstruct</text>
<text text-anchor="start" x="136.5" y="-1374.5" font-family="Helvetica,sans-Serif" font-size="10.00">&#45; onDestruct</text>
<text text-anchor="start" x="136.5" y="-1363.5" font-family="Helvetica,sans-Serif" font-size="10.00">&#45; onConnect</text>
<text text-anchor="start" x="136.5" y="-1352.5" font-family="Helvetica,sans-Serif" font-size="10.00">&#45; onDisconnect</text>
<text text-anchor="start" x="136.5" y="-1341.5" font-family="Helvetica,sans-Serif" font-size="10.00">&#45; onRead</text>
<text text-anchor="start" x="136.5" y="-1330.5" font-family="Helvetica,sans-Serif" font-size="10.00">&#45; onReadError</text>
<text text-anchor="start" x="136.5" y="-1319.5" font-family="Helvetica,sans-Serif" font-size="10.00">&#45; onWriteError</text>
<polyline fill="none" stroke="black" points="128.5,-1312.5 262.5,-1312.5 "/>
<text text-anchor="start" x="136.5" y="-1300.5" font-family="Helvetica,sans-Serif" font-size="10.00">+ operator new()</text>
<text text-anchor="start" x="136.5" y="-1289.5" font-family="Helvetica,sans-Serif" font-size="10.00">+ operator delete()</text>
<text text-anchor="start" x="136.5" y="-1278.5" font-family="Helvetica,sans-Serif" font-size="10.00">+ SocketServer()</text>
<text text-anchor="start" x="136.5" y="-1267.5" font-family="Helvetica,sans-Serif" font-size="10.00">+ SocketServer()</text>
<text text-anchor="start" x="136.5" y="-1256.5" font-family="Helvetica,sans-Serif" font-size="10.00">+ SocketServer()</text>
<text text-anchor="start" x="136.5" y="-1245.5" font-family="Helvetica,sans-Serif" font-size="10.00">+ operator=()</text>
<text text-anchor="start" x="136.5" y="-1234.5" font-family="Helvetica,sans-Serif" font-size="10.00">+ ~SocketServer()</text>
<text text-anchor="start" x="136.5" y="-1223.5" font-family="Helvetica,sans-Serif" font-size="10.00">+ listen()</text>
<text text-anchor="start" x="136.5" y="-1212.5" font-family="Helvetica,sans-Serif" font-size="10.00">+ listen()</text>
<text text-anchor="start" x="136.5" y="-1201.5" font-family="Helvetica,sans-Serif" font-size="10.00">+ listen()</text>
</a>
</g>
</g>
<!-- Node9&#45;&gt;Node8 -->
<g id="edge8" class="edge">
<title>Node9&#45;&gt;Node8</title>
<path fill="none" stroke="orange" d="M195.5,-1184.16C195.5,-1171.62 195.5,-1158.97 195.5,-1146.52"/>
<polygon fill="orange" stroke="orange" points="192,-1184.18 195.5,-1194.18 199,-1184.18 192,-1184.18"/>
<text text-anchor="middle" x="256" y="-1168" font-family="Helvetica,sans-Serif" font-size="10.00"> &lt; legacy::SocketListener &gt;</text>
</g>
<!-- Node10 -->
<g id="node10" class="node">
<title>Node10</title>
<g id="a_node10"><a xlink:href="classhttp_1_1_server.html" target="_top" xlink:title=" ">
<polygon fill="white" stroke="black" points="273,-697.5 273,-776.5 424,-776.5 424,-697.5 273,-697.5"/>
<text text-anchor="middle" x="348.5" y="-764.5" font-family="Helvetica,sans-Serif" font-size="10.00">http::Server&lt; SocketServerT &gt;</text>
<polyline fill="none" stroke="black" points="273,-757.5 424,-757.5 "/>
<text text-anchor="start" x="281" y="-745.5" font-family="Helvetica,sans-Serif" font-size="10.00"># socketServer</text>
<polyline fill="none" stroke="black" points="273,-738.5 424,-738.5 "/>
<text text-anchor="start" x="281" y="-726.5" font-family="Helvetica,sans-Serif" font-size="10.00">+ Server()</text>
<text text-anchor="start" x="281" y="-715.5" font-family="Helvetica,sans-Serif" font-size="10.00">+ listen()</text>
<text text-anchor="start" x="281" y="-704.5" font-family="Helvetica,sans-Serif" font-size="10.00">+ listen()</text>
</a>
</g>
</g>
<!-- Node10&#45;&gt;Node6 -->
<g id="edge9" class="edge">
<title>Node10&#45;&gt;Node6</title>
<path fill="none" stroke="orange" d="M336.22,-687.59C328.09,-658.82 316.22,-622.01 301.5,-591 296.88,-581.27 291.25,-571.3 285.44,-561.87"/>
<polygon fill="orange" stroke="orange" points="332.9,-688.7 338.94,-697.41 339.64,-686.84 332.9,-688.7"/>
<text text-anchor="start" x="310.5" y="-605" font-family="Helvetica,sans-Serif" font-size="10.00"> &lt; net::socket::tcp</text>
<text text-anchor="middle" x="365" y="-594" font-family="Helvetica,sans-Serif" font-size="10.00">::legacy::SocketServer &gt;</text>
</g>
<!-- Node11&#45;&gt;Node2 -->
<g id="edge10" class="edge">
<title>Node11&#45;&gt;Node2</title>
<path fill="none" stroke="orange" d="M105.5,-267.16C105.5,-254.74 105.5,-241.96 105.5,-229.8"/>
<polygon fill="orange" stroke="orange" points="102,-267.5 105.5,-277.5 109,-267.5 102,-267.5"/>
<text text-anchor="middle" x="159" y="-251" font-family="Helvetica,sans-Serif" font-size="10.00"> &lt; http::legacy::Server &gt;</text>
</g>
</g>
</svg>
