<?xml version="1.0" encoding="UTF-8" standalone="no"?>
<!DOCTYPE svg PUBLIC "-//W3C//DTD SVG 1.1//EN"
 "http://www.w3.org/Graphics/SVG/1.1/DTD/svg11.dtd">
<!-- Generated by graphviz version 2.43.0 (0)
 -->
<!-- Title: net::socket::stream::SocketConnectionBase::close Pages: 1 -->
<svg width="497pt" height="100pt"
 viewBox="0.00 0.00 497.00 99.50" xmlns="http://www.w3.org/2000/svg" xmlns:xlink="http://www.w3.org/1999/xlink">
<g id="graph0" class="graph" transform="scale(1 1) rotate(0) translate(4 95.5)">
<title>net::socket::stream::SocketConnectionBase::close</title>
<polygon fill="white" stroke="transparent" points="-4,4 -4,-95.5 493,-95.5 493,4 -4,4"/>
<!-- Node1 -->
<g id="node1" class="node">
<title>Node1</title>
<g id="a_node1"><a xlink:title=" ">
<polygon fill="#bfbfbf" stroke="black" points="364,-27.5 364,-68.5 489,-68.5 489,-27.5 364,-27.5"/>
<text text-anchor="start" x="372" y="-56.5" font-family="Helvetica,sans-Serif" font-size="10.00">net::socket::stream</text>
<text text-anchor="start" x="372" y="-45.5" font-family="Helvetica,sans-Serif" font-size="10.00">::SocketConnectionBase</text>
<text text-anchor="middle" x="426.5" y="-34.5" font-family="Helvetica,sans-Serif" font-size="10.00">::close</text>
</a>
</g>
</g>
<!-- Node2 -->
<g id="node2" class="node">
<title>Node2</title>
<g id="a_node2"><a xlink:href="classnet_1_1socket_1_1stream_1_1_socket_protocol.html#ab617c6019d922f2475c50afcf4f08edd" target="_top" xlink:title=" ">
<polygon fill="white" stroke="black" points="209,-33 209,-63 328,-63 328,-33 209,-33"/>
<text text-anchor="start" x="217" y="-51" font-family="Helvetica,sans-Serif" font-size="10.00">net::socket::stream</text>
<text text-anchor="middle" x="268.5" y="-40" font-family="Helvetica,sans-Serif" font-size="10.00">::SocketProtocol::close</text>
</a>
</g>
</g>
<!-- Node1&#45;&gt;Node2 -->
<g id="edge1" class="edge">
<title>Node1&#45;&gt;Node2</title>
<path fill="none" stroke="midnightblue" d="M353.83,-48C345.24,-48 336.54,-48 328.16,-48"/>
<polygon fill="midnightblue" stroke="midnightblue" points="353.84,-51.5 363.84,-48 353.84,-44.5 353.84,-51.5"/>
</g>
<!-- Node3 -->
<g id="node3" class="node">
<title>Node3</title>
<g id="a_node3"><a xlink:href="classweb_1_1http_1_1client_1_1_client_context.html#a80e5531783a88a70fae4aef02b64f532" target="_top" xlink:title=" ">
<polygon fill="white" stroke="black" points="0,-61 0,-91 173,-91 173,-61 0,-61"/>
<text text-anchor="start" x="8" y="-79" font-family="Helvetica,sans-Serif" font-size="10.00">web::http::client::</text>
<text text-anchor="middle" x="86.5" y="-68" font-family="Helvetica,sans-Serif" font-size="10.00">ClientContext::terminateConnection</text>
</a>
</g>
</g>
<!-- Node2&#45;&gt;Node3 -->
<g id="edge2" class="edge">
<title>Node2&#45;&gt;Node3</title>
<path fill="none" stroke="midnightblue" d="M198.52,-58.73C190.17,-60.03 181.57,-61.37 173.02,-62.7"/>
<polygon fill="midnightblue" stroke="midnightblue" points="199.22,-62.16 208.56,-57.17 198.14,-55.25 199.22,-62.16"/>
</g>
<!-- Node4 -->
<g id="node4" class="node">
<title>Node4</title>
<g id="a_node4"><a xlink:href="classweb_1_1http_1_1server_1_1_h_t_t_p_server_context.html#af3521c5a3f2fc916ce1e862478423811" target="_top" xlink:title=" ">
<polygon fill="white" stroke="black" points="10.5,-0.5 10.5,-41.5 162.5,-41.5 162.5,-0.5 10.5,-0.5"/>
<text text-anchor="start" x="18.5" y="-29.5" font-family="Helvetica,sans-Serif" font-size="10.00">web::http::server::</text>
<text text-anchor="start" x="18.5" y="-18.5" font-family="Helvetica,sans-Serif" font-size="10.00">HTTPServerContext::terminate</text>
<text text-anchor="middle" x="86.5" y="-7.5" font-family="Helvetica,sans-Serif" font-size="10.00">Connection</text>
</a>
</g>
</g>
<!-- Node2&#45;&gt;Node4 -->
<g id="edge3" class="edge">
<title>Node2&#45;&gt;Node4</title>
<path fill="none" stroke="midnightblue" d="M198.42,-37.64C186.72,-35.88 174.51,-34.05 162.66,-32.27"/>
<polygon fill="midnightblue" stroke="midnightblue" points="198.15,-41.14 208.56,-39.16 199.19,-34.21 198.15,-41.14"/>
</g>
</g>
</svg>
