<?xml version="1.0" encoding="UTF-8" standalone="no"?>
<!DOCTYPE svg PUBLIC "-//W3C//DTD SVG 1.1//EN"
 "http://www.w3.org/Graphics/SVG/1.1/DTD/svg11.dtd">
<!-- Generated by graphviz version 2.43.0 (0)
 -->
<!-- Title: net::socket::stream::tls::SocketListener::listen Pages: 1 -->
<svg width="282pt" height="61pt"
 viewBox="0.00 0.00 282.00 61.00" xmlns="http://www.w3.org/2000/svg" xmlns:xlink="http://www.w3.org/1999/xlink">
<g id="graph0" class="graph" transform="scale(1 1) rotate(0) translate(4 57)">
<title>net::socket::stream::tls::SocketListener::listen</title>
<polygon fill="white" stroke="transparent" points="-4,4 -4,-57 278,-57 278,4 -4,4"/>
<!-- Node1 -->
<g id="node1" class="node">
<title>Node1</title>
<g id="a_node1"><a xlink:title=" ">
<polygon fill="#bfbfbf" stroke="black" points="170,-6 170,-47 274,-47 274,-6 170,-6"/>
<text text-anchor="start" x="178" y="-35" font-family="Helvetica,sans-Serif" font-size="10.00">net::socket::stream</text>
<text text-anchor="start" x="178" y="-24" font-family="Helvetica,sans-Serif" font-size="10.00">::tls::SocketListener</text>
<text text-anchor="middle" x="222" y="-13" font-family="Helvetica,sans-Serif" font-size="10.00">::listen</text>
</a>
</g>
</g>
<!-- Node2 -->
<g id="node2" class="node">
<title>Node2</title>
<g id="a_node2"><a xlink:href="classnet_1_1socket_1_1stream_1_1_socket_server.html#a8d23001b51925e0330f206aa8f82b850" target="_top" xlink:title=" ">
<polygon fill="white" stroke="black" points="0,-0.5 0,-52.5 134,-52.5 134,-0.5 0,-0.5"/>
<text text-anchor="start" x="8" y="-40.5" font-family="Helvetica,sans-Serif" font-size="10.00">net::socket::stream</text>
<text text-anchor="start" x="8" y="-29.5" font-family="Helvetica,sans-Serif" font-size="10.00">::SocketServer&lt; tls</text>
<text text-anchor="start" x="8" y="-18.5" font-family="Helvetica,sans-Serif" font-size="10.00">::SocketListener&lt; SocketT</text>
<text text-anchor="middle" x="67" y="-7.5" font-family="Helvetica,sans-Serif" font-size="10.00"> &gt; &gt;::listen</text>
</a>
</g>
</g>
<!-- Node1&#45;&gt;Node2 -->
<g id="edge1" class="edge">
<title>Node1&#45;&gt;Node2</title>
<path fill="none" stroke="midnightblue" d="M159.58,-26.5C151.23,-26.5 142.62,-26.5 134.18,-26.5"/>
<polygon fill="midnightblue" stroke="midnightblue" points="159.63,-30 169.63,-26.5 159.63,-23 159.63,-30"/>
</g>
</g>
</svg>
