<?xml version="1.0" encoding="UTF-8" standalone="no"?>
<!DOCTYPE svg PUBLIC "-//W3C//DTD SVG 1.1//EN"
 "http://www.w3.org/Graphics/SVG/1.1/DTD/svg11.dtd">
<!-- Generated by graphviz version 2.43.0 (0)
 -->
<!-- Title: net::socket::stream::SocketWriter::sendToPeer Pages: 1 -->
<svg width="701pt" height="137pt"
 viewBox="0.00 0.00 701.00 137.00" xmlns="http://www.w3.org/2000/svg" xmlns:xlink="http://www.w3.org/1999/xlink">
<g id="graph0" class="graph" transform="scale(1 1) rotate(0) translate(4 133)">
<title>net::socket::stream::SocketWriter::sendToPeer</title>
<polygon fill="white" stroke="transparent" points="-4,4 -4,-133 697,-133 697,4 -4,4"/>
<!-- Node1 -->
<g id="node1" class="node">
<title>Node1</title>
<g id="a_node1"><a xlink:title=" ">
<polygon fill="#bfbfbf" stroke="black" points="0,-74.5 0,-104.5 137,-104.5 137,-74.5 0,-74.5"/>
<text text-anchor="start" x="8" y="-92.5" font-family="Helvetica,sans-Serif" font-size="10.00">net::socket::stream</text>
<text text-anchor="middle" x="68.5" y="-81.5" font-family="Helvetica,sans-Serif" font-size="10.00">::SocketWriter::sendToPeer</text>
</a>
</g>
</g>
<!-- Node2 -->
<g id="node2" class="node">
<title>Node2</title>
<g id="a_node2"><a xlink:href="classnet_1_1_event_receiver.html#afdfa280e579e56b9acadb54465c65528" target="_top" xlink:title=" ">
<polygon fill="white" stroke="black" points="459,-98.5 459,-128.5 560,-128.5 560,-98.5 459,-98.5"/>
<text text-anchor="start" x="467" y="-116.5" font-family="Helvetica,sans-Serif" font-size="10.00">net::EventReceiver</text>
<text text-anchor="middle" x="509.5" y="-105.5" font-family="Helvetica,sans-Serif" font-size="10.00">::isSuspended</text>
</a>
</g>
</g>
<!-- Node1&#45;&gt;Node2 -->
<g id="edge1" class="edge">
<title>Node1&#45;&gt;Node2</title>
<path fill="none" stroke="midnightblue" d="M137.13,-93.2C222.36,-97.86 367.49,-105.79 448.79,-110.24"/>
<polygon fill="midnightblue" stroke="midnightblue" points="448.69,-113.74 458.86,-110.79 449.07,-106.75 448.69,-113.74"/>
</g>
<!-- Node3 -->
<g id="node3" class="node">
<title>Node3</title>
<g id="a_node3"><a xlink:href="classnet_1_1_event_receiver.html#a362118e6c25fc619e735a81a4b7cedcc" target="_top" xlink:title=" ">
<polygon fill="white" stroke="black" points="173,-52.5 173,-82.5 274,-82.5 274,-52.5 173,-52.5"/>
<text text-anchor="start" x="181" y="-70.5" font-family="Helvetica,sans-Serif" font-size="10.00">net::EventReceiver</text>
<text text-anchor="middle" x="223.5" y="-59.5" font-family="Helvetica,sans-Serif" font-size="10.00">::resume</text>
</a>
</g>
</g>
<!-- Node1&#45;&gt;Node3 -->
<g id="edge2" class="edge">
<title>Node1&#45;&gt;Node3</title>
<path fill="none" stroke="midnightblue" d="M137.05,-79.79C145.59,-78.56 154.28,-77.31 162.68,-76.1"/>
<polygon fill="midnightblue" stroke="midnightblue" points="163.37,-79.54 172.77,-74.65 162.37,-72.61 163.37,-79.54"/>
</g>
<!-- Node4 -->
<g id="node4" class="node">
<title>Node4</title>
<g id="a_node4"><a xlink:href="classnet_1_1_event_dispatcher.html#aaf73ad84d1839e2d02e9a02517cbfcfe" target="_top" xlink:title=" ">
<polygon fill="white" stroke="black" points="310,-51.5 310,-81.5 419,-81.5 419,-51.5 310,-51.5"/>
<text text-anchor="start" x="318" y="-69.5" font-family="Helvetica,sans-Serif" font-size="10.00">net::EventDispatcher</text>
<text text-anchor="middle" x="364.5" y="-58.5" font-family="Helvetica,sans-Serif" font-size="10.00">::resume</text>
</a>
</g>
</g>
<!-- Node3&#45;&gt;Node4 -->
<g id="edge3" class="edge">
<title>Node3&#45;&gt;Node4</title>
<path fill="none" stroke="midnightblue" d="M274.29,-67.14C282.49,-67.08 291.08,-67.02 299.57,-66.96"/>
<polygon fill="midnightblue" stroke="midnightblue" points="299.85,-70.46 309.82,-66.89 299.8,-63.46 299.85,-70.46"/>
</g>
<!-- Node4&#45;&gt;Node2 -->
<g id="edge4" class="edge">
<title>Node4&#45;&gt;Node2</title>
<path fill="none" stroke="midnightblue" d="M411.14,-81.5C424.43,-85.87 439.09,-90.69 452.92,-95.23"/>
<polygon fill="midnightblue" stroke="midnightblue" points="452.21,-98.68 462.8,-98.48 454.4,-92.03 452.21,-98.68"/>
</g>
<!-- Node5 -->
<g id="node5" class="node">
<title>Node5</title>
<g id="a_node5"><a xlink:href="classnet_1_1_event_receiver.html#a04e7ea6469a9ebc02f2065bdd4f41e0c" target="_top" xlink:title=" ">
<polygon fill="white" stroke="black" points="459,-49.5 459,-79.5 560,-79.5 560,-49.5 459,-49.5"/>
<text text-anchor="start" x="467" y="-67.5" font-family="Helvetica,sans-Serif" font-size="10.00">net::EventReceiver</text>
<text text-anchor="middle" x="509.5" y="-56.5" font-family="Helvetica,sans-Serif" font-size="10.00">::resumed</text>
</a>
</g>
</g>
<!-- Node4&#45;&gt;Node5 -->
<g id="edge5" class="edge">
<title>Node4&#45;&gt;Node5</title>
<path fill="none" stroke="midnightblue" d="M419.15,-65.75C428.8,-65.61 438.91,-65.47 448.72,-65.34"/>
<polygon fill="midnightblue" stroke="midnightblue" points="448.85,-68.83 458.8,-65.2 448.75,-61.84 448.85,-68.83"/>
</g>
<!-- Node7 -->
<g id="node7" class="node">
<title>Node7</title>
<g id="a_node7"><a xlink:href="classnet_1_1_event_dispatcher_1_1_fd_set.html#a14ec2efcdd604d1f7e9e3835fbf7c81d" target="_top" xlink:title=" ">
<polygon fill="white" stroke="black" points="455,-0.5 455,-30.5 564,-30.5 564,-0.5 455,-0.5"/>
<text text-anchor="start" x="463" y="-18.5" font-family="Helvetica,sans-Serif" font-size="10.00">net::EventDispatcher</text>
<text text-anchor="middle" x="509.5" y="-7.5" font-family="Helvetica,sans-Serif" font-size="10.00">::FdSet::set</text>
</a>
</g>
</g>
<!-- Node4&#45;&gt;Node7 -->
<g id="edge7" class="edge">
<title>Node4&#45;&gt;Node7</title>
<path fill="none" stroke="midnightblue" d="M407.63,-51.47C422.91,-46.02 440.36,-39.8 456.4,-34.08"/>
<polygon fill="midnightblue" stroke="midnightblue" points="457.93,-37.25 466.18,-30.59 455.58,-30.66 457.93,-37.25"/>
</g>
<!-- Node6 -->
<g id="node6" class="node">
<title>Node6</title>
<g id="a_node6"><a xlink:href="namespacenet_1_1system.html#a14577a3d4ff982622034e2060c35e19b" target="_top" xlink:title=" ">
<polygon fill="white" stroke="black" points="600,-55 600,-74 693,-74 693,-55 600,-55"/>
<text text-anchor="middle" x="646.5" y="-62" font-family="Helvetica,sans-Serif" font-size="10.00">net::system::time</text>
</a>
</g>
</g>
<!-- Node5&#45;&gt;Node6 -->
<g id="edge6" class="edge">
<title>Node5&#45;&gt;Node6</title>
<path fill="none" stroke="midnightblue" d="M560,-64.5C569.61,-64.5 579.74,-64.5 589.54,-64.5"/>
<polygon fill="midnightblue" stroke="midnightblue" points="589.59,-68 599.59,-64.5 589.59,-61 589.59,-68"/>
</g>
</g>
</svg>
