<?xml version="1.0" encoding="UTF-8" standalone="no"?>
<!DOCTYPE svg PUBLIC "-//W3C//DTD SVG 1.1//EN"
 "http://www.w3.org/Graphics/SVG/1.1/DTD/svg11.dtd">
<!-- Generated by graphviz version 2.43.0 (0)
 -->
<!-- Title: express::tls::WebApp6 Pages: 1 -->
<svg width="454pt" height="1930pt"
 viewBox="0.00 0.00 453.50 1930.00" xmlns="http://www.w3.org/2000/svg" xmlns:xlink="http://www.w3.org/1999/xlink">
<g id="graph0" class="graph" transform="scale(1 1) rotate(0) translate(4 1926)">
<title>express::tls::WebApp6</title>
<polygon fill="white" stroke="transparent" points="-4,4 -4,-1926 449.5,-1926 449.5,4 -4,4"/>
<!-- Node1 -->
<g id="node1" class="node">
<title>Node1</title>
<g id="a_node1"><a xlink:title=" ">
<polygon fill="#bfbfbf" stroke="black" points="55.5,-0.5 55.5,-57.5 171.5,-57.5 171.5,-0.5 55.5,-0.5"/>
<text text-anchor="middle" x="113.5" y="-45.5" font-family="Helvetica,sans-Serif" font-size="10.00">express::tls::WebApp6</text>
<polyline fill="none" stroke="black" points="55.5,-38.5 171.5,-38.5 "/>
<text text-anchor="middle" x="113.5" y="-26.5" font-family="Helvetica,sans-Serif" font-size="10.00"> </text>
<polyline fill="none" stroke="black" points="55.5,-19.5 171.5,-19.5 "/>
<text text-anchor="middle" x="113.5" y="-7.5" font-family="Helvetica,sans-Serif" font-size="10.00"> </text>
</a>
</g>
</g>
<!-- Node2 -->
<g id="node2" class="node">
<title>Node2</title>
<g id="a_node2"><a xlink:href="classexpress_1_1_web_app_t.html" target="_top" xlink:title=" ">
<polygon fill="white" stroke="black" points="51,-95.5 51,-229.5 176,-229.5 176,-95.5 51,-95.5"/>
<text text-anchor="start" x="59" y="-217.5" font-family="Helvetica,sans-Serif" font-size="10.00">express::WebAppT&lt; http</text>
<text text-anchor="middle" x="113.5" y="-206.5" font-family="Helvetica,sans-Serif" font-size="10.00">::tls::Server6 &gt;</text>
<polyline fill="none" stroke="black" points="51,-199.5 176,-199.5 "/>
<text text-anchor="start" x="59" y="-187.5" font-family="Helvetica,sans-Serif" font-size="10.00"># _onConnect</text>
<text text-anchor="start" x="59" y="-176.5" font-family="Helvetica,sans-Serif" font-size="10.00"># _onDisconnect</text>
<polyline fill="none" stroke="black" points="51,-169.5 176,-169.5 "/>
<text text-anchor="start" x="59" y="-157.5" font-family="Helvetica,sans-Serif" font-size="10.00">+ WebAppT()</text>
<text text-anchor="start" x="59" y="-146.5" font-family="Helvetica,sans-Serif" font-size="10.00">+ WebAppT()</text>
<text text-anchor="start" x="59" y="-135.5" font-family="Helvetica,sans-Serif" font-size="10.00">+ listen()</text>
<text text-anchor="start" x="59" y="-124.5" font-family="Helvetica,sans-Serif" font-size="10.00">+ listen()</text>
<text text-anchor="start" x="59" y="-113.5" font-family="Helvetica,sans-Serif" font-size="10.00">+ onConnect()</text>
<text text-anchor="start" x="59" y="-102.5" font-family="Helvetica,sans-Serif" font-size="10.00">+ onDisconnect()</text>
</a>
</g>
</g>
<!-- Node2&#45;&gt;Node1 -->
<g id="edge1" class="edge">
<title>Node2&#45;&gt;Node1</title>
<path fill="none" stroke="midnightblue" d="M113.5,-85.12C113.5,-75.36 113.5,-65.92 113.5,-57.7"/>
<polygon fill="none" stroke="midnightblue" points="110,-85.36 113.5,-95.36 117,-85.36 110,-85.36"/>
</g>
<!-- Node3 -->
<g id="node3" class="node">
<title>Node3</title>
<g id="a_node3"><a xlink:href="classexpress_1_1_web_app.html" target="_top" xlink:title=" ">
<polygon fill="white" stroke="black" points="7.5,-449.5 7.5,-572.5 101.5,-572.5 101.5,-449.5 7.5,-449.5"/>
<text text-anchor="middle" x="54.5" y="-560.5" font-family="Helvetica,sans-Serif" font-size="10.00">express::WebApp</text>
<polyline fill="none" stroke="black" points="7.5,-553.5 101.5,-553.5 "/>
<text text-anchor="start" x="15.5" y="-541.5" font-family="Helvetica,sans-Serif" font-size="10.00">&#45; initialized</text>
<polyline fill="none" stroke="black" points="7.5,-534.5 101.5,-534.5 "/>
<text text-anchor="start" x="15.5" y="-522.5" font-family="Helvetica,sans-Serif" font-size="10.00">+ init()</text>
<text text-anchor="start" x="15.5" y="-511.5" font-family="Helvetica,sans-Serif" font-size="10.00">+ start()</text>
<text text-anchor="start" x="15.5" y="-500.5" font-family="Helvetica,sans-Serif" font-size="10.00">+ stop()</text>
<text text-anchor="start" x="15.5" y="-489.5" font-family="Helvetica,sans-Serif" font-size="10.00"># WebApp()</text>
<text text-anchor="start" x="15.5" y="-478.5" font-family="Helvetica,sans-Serif" font-size="10.00"># WebApp()</text>
<text text-anchor="start" x="15.5" y="-467.5" font-family="Helvetica,sans-Serif" font-size="10.00"># listen()</text>
<text text-anchor="start" x="15.5" y="-456.5" font-family="Helvetica,sans-Serif" font-size="10.00"># listen()</text>
</a>
</g>
</g>
<!-- Node3&#45;&gt;Node2 -->
<g id="edge2" class="edge">
<title>Node3&#45;&gt;Node2</title>
<path fill="none" stroke="midnightblue" d="M31.27,-439.34C19.48,-392.28 10.97,-329.64 28.5,-277 34.02,-260.42 43.02,-244.3 53.14,-229.67"/>
<polygon fill="none" stroke="midnightblue" points="27.91,-440.35 33.83,-449.14 34.69,-438.58 27.91,-440.35"/>
</g>
<!-- Node17 -->
<g id="node17" class="node">
<title>Node17</title>
<g id="a_node17"><a xlink:href="classexpress_1_1_web_app_t.html" target="_top" xlink:title=" ">
<polygon fill="white" stroke="black" points="37.5,-277.5 37.5,-411.5 189.5,-411.5 189.5,-277.5 37.5,-277.5"/>
<text text-anchor="middle" x="113.5" y="-399.5" font-family="Helvetica,sans-Serif" font-size="10.00">express::WebAppT&lt; ServerT &gt;</text>
<polyline fill="none" stroke="black" points="37.5,-392.5 189.5,-392.5 "/>
<text text-anchor="start" x="45.5" y="-380.5" font-family="Helvetica,sans-Serif" font-size="10.00"># server</text>
<text text-anchor="start" x="45.5" y="-369.5" font-family="Helvetica,sans-Serif" font-size="10.00"># _onConnect</text>
<text text-anchor="start" x="45.5" y="-358.5" font-family="Helvetica,sans-Serif" font-size="10.00"># _onDisconnect</text>
<polyline fill="none" stroke="black" points="37.5,-351.5 189.5,-351.5 "/>
<text text-anchor="start" x="45.5" y="-339.5" font-family="Helvetica,sans-Serif" font-size="10.00">+ WebAppT()</text>
<text text-anchor="start" x="45.5" y="-328.5" font-family="Helvetica,sans-Serif" font-size="10.00">+ WebAppT()</text>
<text text-anchor="start" x="45.5" y="-317.5" font-family="Helvetica,sans-Serif" font-size="10.00">+ listen()</text>
<text text-anchor="start" x="45.5" y="-306.5" font-family="Helvetica,sans-Serif" font-size="10.00">+ listen()</text>
<text text-anchor="start" x="45.5" y="-295.5" font-family="Helvetica,sans-Serif" font-size="10.00">+ onConnect()</text>
<text text-anchor="start" x="45.5" y="-284.5" font-family="Helvetica,sans-Serif" font-size="10.00">+ onDisconnect()</text>
</a>
</g>
</g>
<!-- Node3&#45;&gt;Node17 -->
<g id="edge18" class="edge">
<title>Node3&#45;&gt;Node17</title>
<path fill="none" stroke="midnightblue" d="M79.75,-439.61C83.08,-430.31 86.49,-420.8 89.8,-411.57"/>
<polygon fill="none" stroke="midnightblue" points="76.38,-438.62 76.3,-449.21 82.97,-440.98 76.38,-438.62"/>
</g>
<!-- Node4 -->
<g id="node4" class="node">
<title>Node4</title>
<g id="a_node4"><a xlink:href="classexpress_1_1_router.html" target="_top" xlink:title=" ">
<polygon fill="white" stroke="black" points="7,-631.5 7,-842.5 102,-842.5 102,-631.5 7,-631.5"/>
<text text-anchor="middle" x="54.5" y="-830.5" font-family="Helvetica,sans-Serif" font-size="10.00">express::Router</text>
<polyline fill="none" stroke="black" points="7,-823.5 102,-823.5 "/>
<text text-anchor="start" x="15" y="-811.5" font-family="Helvetica,sans-Serif" font-size="10.00">&#45; reqestMap</text>
<text text-anchor="start" x="15" y="-800.5" font-family="Helvetica,sans-Serif" font-size="10.00">&#45; responseMap</text>
<text text-anchor="start" x="15" y="-789.5" font-family="Helvetica,sans-Serif" font-size="10.00">&#45; routerDispatcher</text>
<polyline fill="none" stroke="black" points="7,-782.5 102,-782.5 "/>
<text text-anchor="start" x="15" y="-770.5" font-family="Helvetica,sans-Serif" font-size="10.00">+ Router()</text>
<text text-anchor="start" x="15" y="-759.5" font-family="Helvetica,sans-Serif" font-size="10.00">+ Router()</text>
<text text-anchor="start" x="15" y="-748.5" font-family="Helvetica,sans-Serif" font-size="10.00">+ operator=()</text>
<text text-anchor="start" x="15" y="-737.5" font-family="Helvetica,sans-Serif" font-size="10.00">+ use()</text>
<text text-anchor="start" x="15" y="-726.5" font-family="Helvetica,sans-Serif" font-size="10.00">+ use()</text>
<text text-anchor="start" x="15" y="-715.5" font-family="Helvetica,sans-Serif" font-size="10.00">+ use()</text>
<text text-anchor="start" x="15" y="-704.5" font-family="Helvetica,sans-Serif" font-size="10.00">+ use()</text>
<text text-anchor="start" x="15" y="-693.5" font-family="Helvetica,sans-Serif" font-size="10.00">+ use()</text>
<text text-anchor="start" x="15" y="-682.5" font-family="Helvetica,sans-Serif" font-size="10.00">+ use()</text>
<text text-anchor="start" x="15" y="-671.5" font-family="Helvetica,sans-Serif" font-size="10.00">+ all()</text>
<text text-anchor="start" x="15" y="-660.5" font-family="Helvetica,sans-Serif" font-size="10.00">and 59 more...</text>
<text text-anchor="start" x="15" y="-649.5" font-family="Helvetica,sans-Serif" font-size="10.00"># dispatch()</text>
<text text-anchor="start" x="15" y="-638.5" font-family="Helvetica,sans-Serif" font-size="10.00"># completed()</text>
</a>
</g>
</g>
<!-- Node4&#45;&gt;Node3 -->
<g id="edge3" class="edge">
<title>Node4&#45;&gt;Node3</title>
<path fill="none" stroke="midnightblue" d="M54.5,-620.87C54.5,-604.25 54.5,-587.72 54.5,-572.75"/>
<polygon fill="none" stroke="midnightblue" points="51,-621.21 54.5,-631.21 58,-621.21 51,-621.21"/>
</g>
<!-- Node5 -->
<g id="node5" class="node">
<title>Node5</title>
<g id="a_node5"><a xlink:href="classhttp_1_1tls_1_1_server6.html" target="_top" xlink:title=" ">
<polygon fill="white" stroke="black" points="208,-316 208,-373 297,-373 297,-316 208,-316"/>
<text text-anchor="middle" x="252.5" y="-361" font-family="Helvetica,sans-Serif" font-size="10.00">http::tls::Server6</text>
<polyline fill="none" stroke="black" points="208,-354 297,-354 "/>
<text text-anchor="middle" x="252.5" y="-342" font-family="Helvetica,sans-Serif" font-size="10.00"> </text>
<polyline fill="none" stroke="black" points="208,-335 297,-335 "/>
<text text-anchor="middle" x="252.5" y="-323" font-family="Helvetica,sans-Serif" font-size="10.00"> </text>
</a>
</g>
</g>
<!-- Node5&#45;&gt;Node2 -->
<g id="edge4" class="edge">
<title>Node5&#45;&gt;Node2</title>
<path fill="none" stroke="#404040" d="M244.36,-315.85C237.6,-295.79 226.64,-268.67 211.5,-248 203.82,-237.53 194.62,-227.47 184.96,-218.19"/>
<polygon fill="none" stroke="#404040" points="184.81,-218.04 177.69,-216.89 176,-209.88 183.12,-211.03 184.81,-218.04"/>
<text text-anchor="middle" x="236.5" y="-251" font-family="Helvetica,sans-Serif" font-size="10.00"> #server</text>
</g>
<!-- Node6 -->
<g id="node6" class="node">
<title>Node6</title>
<g id="a_node6"><a xlink:href="classhttp_1_1_server.html" target="_top" xlink:title=" ">
<polygon fill="white" stroke="black" points="199,-460.5 199,-561.5 306,-561.5 306,-460.5 199,-460.5"/>
<text text-anchor="start" x="207" y="-549.5" font-family="Helvetica,sans-Serif" font-size="10.00">http::Server&lt; net::</text>
<text text-anchor="start" x="207" y="-538.5" font-family="Helvetica,sans-Serif" font-size="10.00">socket::ip::tcp::ipv6</text>
<text text-anchor="middle" x="252.5" y="-527.5" font-family="Helvetica,sans-Serif" font-size="10.00">::tls::SocketServer &gt;</text>
<polyline fill="none" stroke="black" points="199,-520.5 306,-520.5 "/>
<text text-anchor="middle" x="252.5" y="-508.5" font-family="Helvetica,sans-Serif" font-size="10.00"> </text>
<polyline fill="none" stroke="black" points="199,-501.5 306,-501.5 "/>
<text text-anchor="start" x="207" y="-489.5" font-family="Helvetica,sans-Serif" font-size="10.00">+ Server()</text>
<text text-anchor="start" x="207" y="-478.5" font-family="Helvetica,sans-Serif" font-size="10.00">+ listen()</text>
<text text-anchor="start" x="207" y="-467.5" font-family="Helvetica,sans-Serif" font-size="10.00">+ listen()</text>
</a>
</g>
</g>
<!-- Node6&#45;&gt;Node5 -->
<g id="edge5" class="edge">
<title>Node6&#45;&gt;Node5</title>
<path fill="none" stroke="midnightblue" d="M252.5,-449.93C252.5,-423.64 252.5,-394.09 252.5,-373.15"/>
<polygon fill="none" stroke="midnightblue" points="249,-450.2 252.5,-460.2 256,-450.2 249,-450.2"/>
</g>
<!-- Node7 -->
<g id="node7" class="node">
<title>Node7</title>
<g id="a_node7"><a xlink:href="classnet_1_1socket_1_1ip_1_1tcp_1_1ipv6_1_1tls_1_1_socket_server.html" target="_top" xlink:title=" ">
<polygon fill="white" stroke="black" points="145.5,-703 145.5,-771 267.5,-771 267.5,-703 145.5,-703"/>
<text text-anchor="start" x="153.5" y="-759" font-family="Helvetica,sans-Serif" font-size="10.00">net::socket::ip::tcp</text>
<text text-anchor="middle" x="206.5" y="-748" font-family="Helvetica,sans-Serif" font-size="10.00">::ipv6::tls::SocketServer</text>
<polyline fill="none" stroke="black" points="145.5,-741 267.5,-741 "/>
<text text-anchor="middle" x="206.5" y="-729" font-family="Helvetica,sans-Serif" font-size="10.00"> </text>
<polyline fill="none" stroke="black" points="145.5,-722 267.5,-722 "/>
<text text-anchor="middle" x="206.5" y="-710" font-family="Helvetica,sans-Serif" font-size="10.00"> </text>
</a>
</g>
</g>
<!-- Node7&#45;&gt;Node6 -->
<g id="edge6" class="edge">
<title>Node7&#45;&gt;Node6</title>
<path fill="none" stroke="#404040" d="M213.29,-702.95C220.25,-669.05 231.24,-615.53 239.82,-573.77"/>
<polygon fill="none" stroke="#404040" points="239.86,-573.53 237.15,-566.85 242.28,-561.77 244.99,-568.46 239.86,-573.53"/>
<text text-anchor="middle" x="269" y="-599.5" font-family="Helvetica,sans-Serif" font-size="10.00"> #socketServer</text>
</g>
<!-- Node8 -->
<g id="node8" class="node">
<title>Node8</title>
<g id="a_node8"><a xlink:href="classnet_1_1socket_1_1ip_1_1tcp_1_1_socket_server.html" target="_top" xlink:title=" ">
<polygon fill="white" stroke="black" points="144,-880.5 144,-981.5 269,-981.5 269,-880.5 144,-880.5"/>
<text text-anchor="start" x="152" y="-969.5" font-family="Helvetica,sans-Serif" font-size="10.00">net::socket::ip::tcp</text>
<text text-anchor="start" x="152" y="-958.5" font-family="Helvetica,sans-Serif" font-size="10.00">::SocketServer&lt; stream</text>
<text text-anchor="start" x="152" y="-947.5" font-family="Helvetica,sans-Serif" font-size="10.00">::tls::SocketServer&lt; ipv6</text>
<text text-anchor="middle" x="206.5" y="-936.5" font-family="Helvetica,sans-Serif" font-size="10.00">::Socket &gt; &gt;</text>
<polyline fill="none" stroke="black" points="144,-929.5 269,-929.5 "/>
<text text-anchor="middle" x="206.5" y="-917.5" font-family="Helvetica,sans-Serif" font-size="10.00"> </text>
<polyline fill="none" stroke="black" points="144,-910.5 269,-910.5 "/>
<text text-anchor="start" x="152" y="-898.5" font-family="Helvetica,sans-Serif" font-size="10.00">+ listen()</text>
<text text-anchor="start" x="152" y="-887.5" font-family="Helvetica,sans-Serif" font-size="10.00">+ listen()</text>
</a>
</g>
</g>
<!-- Node8&#45;&gt;Node7 -->
<g id="edge7" class="edge">
<title>Node8&#45;&gt;Node7</title>
<path fill="none" stroke="midnightblue" d="M206.5,-869.73C206.5,-837.14 206.5,-798.16 206.5,-771.09"/>
<polygon fill="none" stroke="midnightblue" points="203,-870.06 206.5,-880.06 210,-870.06 203,-870.06"/>
</g>
<!-- Node9 -->
<g id="node9" class="node">
<title>Node9</title>
<g id="a_node9"><a xlink:href="classnet_1_1socket_1_1stream_1_1tls_1_1_socket_server.html" target="_top" xlink:title=" ">
<polygon fill="white" stroke="black" points="85,-1046 85,-1125 186,-1125 186,-1046 85,-1046"/>
<text text-anchor="start" x="93" y="-1113" font-family="Helvetica,sans-Serif" font-size="10.00">net::socket::stream</text>
<text text-anchor="start" x="93" y="-1102" font-family="Helvetica,sans-Serif" font-size="10.00">::tls::SocketServer</text>
<text text-anchor="middle" x="135.5" y="-1091" font-family="Helvetica,sans-Serif" font-size="10.00">&lt; ipv6::Socket &gt;</text>
<polyline fill="none" stroke="black" points="85,-1084 186,-1084 "/>
<text text-anchor="middle" x="135.5" y="-1072" font-family="Helvetica,sans-Serif" font-size="10.00"> </text>
<polyline fill="none" stroke="black" points="85,-1065 186,-1065 "/>
<text text-anchor="middle" x="135.5" y="-1053" font-family="Helvetica,sans-Serif" font-size="10.00"> </text>
</a>
</g>
</g>
<!-- Node9&#45;&gt;Node8 -->
<g id="edge8" class="edge">
<title>Node9&#45;&gt;Node8</title>
<path fill="none" stroke="midnightblue" d="M157.97,-1036.24C166.05,-1018.87 175.18,-999.26 183.33,-981.77"/>
<polygon fill="none" stroke="midnightblue" points="154.65,-1035.08 153.6,-1045.62 160.99,-1038.03 154.65,-1035.08"/>
</g>
<!-- Node10 -->
<g id="node10" class="node">
<title>Node10</title>
<g id="a_node10"><a xlink:href="classnet_1_1socket_1_1stream_1_1_socket_server.html" target="_top" xlink:title=" ">
<polygon fill="white" stroke="black" points="0,-1276.5 0,-1476.5 115,-1476.5 115,-1276.5 0,-1276.5"/>
<text text-anchor="start" x="8" y="-1464.5" font-family="Helvetica,sans-Serif" font-size="10.00">net::socket::stream</text>
<text text-anchor="start" x="8" y="-1453.5" font-family="Helvetica,sans-Serif" font-size="10.00">::SocketServer&lt; tls</text>
<text text-anchor="start" x="8" y="-1442.5" font-family="Helvetica,sans-Serif" font-size="10.00">::SocketListener&lt; ipv6</text>
<text text-anchor="middle" x="57.5" y="-1431.5" font-family="Helvetica,sans-Serif" font-size="10.00">::Socket &gt; &gt;</text>
<polyline fill="none" stroke="black" points="0,-1424.5 115,-1424.5 "/>
<text text-anchor="start" x="8" y="-1412.5" font-family="Helvetica,sans-Serif" font-size="10.00">&#45; onConstruct</text>
<text text-anchor="start" x="8" y="-1401.5" font-family="Helvetica,sans-Serif" font-size="10.00">&#45; onDestruct</text>
<text text-anchor="start" x="8" y="-1390.5" font-family="Helvetica,sans-Serif" font-size="10.00">&#45; onConnect</text>
<text text-anchor="start" x="8" y="-1379.5" font-family="Helvetica,sans-Serif" font-size="10.00">&#45; onDisconnect</text>
<text text-anchor="start" x="8" y="-1368.5" font-family="Helvetica,sans-Serif" font-size="10.00">&#45; onRead</text>
<text text-anchor="start" x="8" y="-1357.5" font-family="Helvetica,sans-Serif" font-size="10.00">&#45; onReadError</text>
<text text-anchor="start" x="8" y="-1346.5" font-family="Helvetica,sans-Serif" font-size="10.00">&#45; onWriteError</text>
<text text-anchor="start" x="8" y="-1335.5" font-family="Helvetica,sans-Serif" font-size="10.00">&#45; options</text>
<polyline fill="none" stroke="black" points="0,-1328.5 115,-1328.5 "/>
<text text-anchor="start" x="8" y="-1316.5" font-family="Helvetica,sans-Serif" font-size="10.00">+ SocketServer()</text>
<text text-anchor="start" x="8" y="-1305.5" font-family="Helvetica,sans-Serif" font-size="10.00">+ SocketServer()</text>
<text text-anchor="start" x="8" y="-1294.5" font-family="Helvetica,sans-Serif" font-size="10.00">+ ~SocketServer()</text>
<text text-anchor="start" x="8" y="-1283.5" font-family="Helvetica,sans-Serif" font-size="10.00">+ listen()</text>
</a>
</g>
</g>
<!-- Node10&#45;&gt;Node9 -->
<g id="edge9" class="edge">
<title>Node10&#45;&gt;Node9</title>
<path fill="none" stroke="midnightblue" d="M73.21,-1266.26C78.67,-1237.24 85.69,-1206.14 94.5,-1178 100.06,-1160.22 108.14,-1141.32 115.65,-1125.34"/>
<polygon fill="none" stroke="midnightblue" points="69.71,-1265.96 71.34,-1276.43 76.59,-1267.23 69.71,-1265.96"/>
</g>
<!-- Node11 -->
<g id="node11" class="node">
<title>Node11</title>
<g id="a_node11"><a xlink:href="classnet_1_1socket_1_1stream_1_1_socket_server.html" target="_top" xlink:title=" ">
<polygon fill="white" stroke="black" points="24,-1743.5 24,-1921.5 195,-1921.5 195,-1743.5 24,-1743.5"/>
<text text-anchor="start" x="32" y="-1909.5" font-family="Helvetica,sans-Serif" font-size="10.00">net::socket::stream</text>
<text text-anchor="middle" x="109.5" y="-1898.5" font-family="Helvetica,sans-Serif" font-size="10.00">::SocketServer&lt; SocketListenerT &gt;</text>
<polyline fill="none" stroke="black" points="24,-1891.5 195,-1891.5 "/>
<text text-anchor="start" x="32" y="-1879.5" font-family="Helvetica,sans-Serif" font-size="10.00">&#45; onConstruct</text>
<text text-anchor="start" x="32" y="-1868.5" font-family="Helvetica,sans-Serif" font-size="10.00">&#45; onDestruct</text>
<text text-anchor="start" x="32" y="-1857.5" font-family="Helvetica,sans-Serif" font-size="10.00">&#45; onConnect</text>
<text text-anchor="start" x="32" y="-1846.5" font-family="Helvetica,sans-Serif" font-size="10.00">&#45; onDisconnect</text>
<text text-anchor="start" x="32" y="-1835.5" font-family="Helvetica,sans-Serif" font-size="10.00">&#45; onRead</text>
<text text-anchor="start" x="32" y="-1824.5" font-family="Helvetica,sans-Serif" font-size="10.00">&#45; onReadError</text>
<text text-anchor="start" x="32" y="-1813.5" font-family="Helvetica,sans-Serif" font-size="10.00">&#45; onWriteError</text>
<text text-anchor="start" x="32" y="-1802.5" font-family="Helvetica,sans-Serif" font-size="10.00">&#45; options</text>
<polyline fill="none" stroke="black" points="24,-1795.5 195,-1795.5 "/>
<text text-anchor="start" x="32" y="-1783.5" font-family="Helvetica,sans-Serif" font-size="10.00">+ SocketServer()</text>
<text text-anchor="start" x="32" y="-1772.5" font-family="Helvetica,sans-Serif" font-size="10.00">+ SocketServer()</text>
<text text-anchor="start" x="32" y="-1761.5" font-family="Helvetica,sans-Serif" font-size="10.00">+ ~SocketServer()</text>
<text text-anchor="start" x="32" y="-1750.5" font-family="Helvetica,sans-Serif" font-size="10.00">+ listen()</text>
</a>
</g>
</g>
<!-- Node11&#45;&gt;Node10 -->
<g id="edge10" class="edge">
<title>Node11&#45;&gt;Node10</title>
<path fill="none" stroke="orange" d="M51.19,-1733.98C50.2,-1730.99 49.3,-1727.99 48.5,-1725 26.77,-1643.35 31.5,-1547.08 40.25,-1476.6"/>
<polygon fill="orange" stroke="orange" points="47.95,-1735.29 54.66,-1743.49 54.52,-1732.89 47.95,-1735.29"/>
<text text-anchor="start" x="48.5" y="-1717" font-family="Helvetica,sans-Serif" font-size="10.00"> &lt; tls::SocketListener</text>
<text text-anchor="middle" x="95.5" y="-1706" font-family="Helvetica,sans-Serif" font-size="10.00">&lt; ipv6::Socket &gt; &gt;</text>
</g>
<!-- Node13 -->
<g id="node13" class="node">
<title>Node13</title>
<g id="a_node13"><a xlink:href="classnet_1_1socket_1_1stream_1_1_socket_server.html" target="_top" xlink:title=" ">
<polygon fill="white" stroke="black" points="85.5,-1495.5 85.5,-1684.5 237.5,-1684.5 237.5,-1495.5 85.5,-1495.5"/>
<text text-anchor="start" x="93.5" y="-1672.5" font-family="Helvetica,sans-Serif" font-size="10.00">net::socket::stream</text>
<text text-anchor="start" x="93.5" y="-1661.5" font-family="Helvetica,sans-Serif" font-size="10.00">::SocketServer&lt; tls</text>
<text text-anchor="middle" x="161.5" y="-1650.5" font-family="Helvetica,sans-Serif" font-size="10.00">::SocketListener&lt; SocketT &gt; &gt;</text>
<polyline fill="none" stroke="black" points="85.5,-1643.5 237.5,-1643.5 "/>
<text text-anchor="start" x="93.5" y="-1631.5" font-family="Helvetica,sans-Serif" font-size="10.00">&#45; onConstruct</text>
<text text-anchor="start" x="93.5" y="-1620.5" font-family="Helvetica,sans-Serif" font-size="10.00">&#45; onDestruct</text>
<text text-anchor="start" x="93.5" y="-1609.5" font-family="Helvetica,sans-Serif" font-size="10.00">&#45; onConnect</text>
<text text-anchor="start" x="93.5" y="-1598.5" font-family="Helvetica,sans-Serif" font-size="10.00">&#45; onDisconnect</text>
<text text-anchor="start" x="93.5" y="-1587.5" font-family="Helvetica,sans-Serif" font-size="10.00">&#45; onRead</text>
<text text-anchor="start" x="93.5" y="-1576.5" font-family="Helvetica,sans-Serif" font-size="10.00">&#45; onReadError</text>
<text text-anchor="start" x="93.5" y="-1565.5" font-family="Helvetica,sans-Serif" font-size="10.00">&#45; onWriteError</text>
<text text-anchor="start" x="93.5" y="-1554.5" font-family="Helvetica,sans-Serif" font-size="10.00">&#45; options</text>
<polyline fill="none" stroke="black" points="85.5,-1547.5 237.5,-1547.5 "/>
<text text-anchor="start" x="93.5" y="-1535.5" font-family="Helvetica,sans-Serif" font-size="10.00">+ SocketServer()</text>
<text text-anchor="start" x="93.5" y="-1524.5" font-family="Helvetica,sans-Serif" font-size="10.00">+ SocketServer()</text>
<text text-anchor="start" x="93.5" y="-1513.5" font-family="Helvetica,sans-Serif" font-size="10.00">+ ~SocketServer()</text>
<text text-anchor="start" x="93.5" y="-1502.5" font-family="Helvetica,sans-Serif" font-size="10.00">+ listen()</text>
</a>
</g>
</g>
<!-- Node11&#45;&gt;Node13 -->
<g id="edge13" class="edge">
<title>Node11&#45;&gt;Node13</title>
<path fill="none" stroke="orange" d="M144.44,-1733.53C145.17,-1730.67 145.86,-1727.82 146.5,-1725 149.42,-1712.1 151.79,-1698.37 153.7,-1684.8"/>
<polygon fill="orange" stroke="orange" points="141.03,-1732.75 141.81,-1743.31 147.79,-1734.57 141.03,-1732.75"/>
<text text-anchor="start" x="151.5" y="-1717" font-family="Helvetica,sans-Serif" font-size="10.00"> &lt; tls::SocketListener</text>
<text text-anchor="middle" x="198.5" y="-1706" font-family="Helvetica,sans-Serif" font-size="10.00">&lt; SocketT &gt; &gt;</text>
</g>
<!-- Node12 -->
<g id="node12" class="node">
<title>Node12</title>
<g id="a_node12"><a xlink:href="classnet_1_1socket_1_1stream_1_1tls_1_1_socket_server.html" target="_top" xlink:title=" ">
<polygon fill="white" stroke="black" points="104,-1178.5 104,-1257.5 205,-1257.5 205,-1178.5 104,-1178.5"/>
<text text-anchor="start" x="112" y="-1245.5" font-family="Helvetica,sans-Serif" font-size="10.00">net::socket::stream</text>
<text text-anchor="start" x="112" y="-1234.5" font-family="Helvetica,sans-Serif" font-size="10.00">::tls::SocketServer</text>
<text text-anchor="middle" x="154.5" y="-1223.5" font-family="Helvetica,sans-Serif" font-size="10.00">&lt; SocketT &gt;</text>
<polyline fill="none" stroke="black" points="104,-1216.5 205,-1216.5 "/>
<text text-anchor="middle" x="154.5" y="-1204.5" font-family="Helvetica,sans-Serif" font-size="10.00"> </text>
<polyline fill="none" stroke="black" points="104,-1197.5 205,-1197.5 "/>
<text text-anchor="middle" x="154.5" y="-1185.5" font-family="Helvetica,sans-Serif" font-size="10.00"> </text>
</a>
</g>
</g>
<!-- Node12&#45;&gt;Node9 -->
<g id="edge11" class="edge">
<title>Node12&#45;&gt;Node9</title>
<path fill="none" stroke="orange" d="M147.39,-1168.15C145.33,-1154.03 143.12,-1138.81 141.16,-1125.38"/>
<polygon fill="orange" stroke="orange" points="143.95,-1168.81 148.85,-1178.2 150.87,-1167.8 143.95,-1168.81"/>
<text text-anchor="middle" x="184.5" y="-1152" font-family="Helvetica,sans-Serif" font-size="10.00"> &lt; ipv6::Socket &gt;</text>
</g>
<!-- Node13&#45;&gt;Node12 -->
<g id="edge12" class="edge">
<title>Node13&#45;&gt;Node12</title>
<path fill="none" stroke="midnightblue" d="M159.53,-1485.1C158.1,-1409.38 156.24,-1311.05 155.23,-1257.65"/>
<polygon fill="none" stroke="midnightblue" points="156.04,-1485.22 159.72,-1495.16 163.03,-1485.09 156.04,-1485.22"/>
</g>
<!-- Node14 -->
<g id="node14" class="node">
<title>Node14</title>
<g id="a_node14"><a xlink:href="classnet_1_1socket_1_1ip_1_1tcp_1_1_socket_server.html" target="_top" xlink:title=" ">
<polygon fill="white" stroke="black" points="204.5,-1040.5 204.5,-1130.5 354.5,-1130.5 354.5,-1040.5 204.5,-1040.5"/>
<text text-anchor="start" x="212.5" y="-1118.5" font-family="Helvetica,sans-Serif" font-size="10.00">net::socket::ip::tcp</text>
<text text-anchor="start" x="212.5" y="-1107.5" font-family="Helvetica,sans-Serif" font-size="10.00">::SocketServer&lt; SocketServer</text>
<text text-anchor="middle" x="279.5" y="-1096.5" font-family="Helvetica,sans-Serif" font-size="10.00">Super &gt;</text>
<polyline fill="none" stroke="black" points="204.5,-1089.5 354.5,-1089.5 "/>
<text text-anchor="middle" x="279.5" y="-1077.5" font-family="Helvetica,sans-Serif" font-size="10.00"> </text>
<polyline fill="none" stroke="black" points="204.5,-1070.5 354.5,-1070.5 "/>
<text text-anchor="start" x="212.5" y="-1058.5" font-family="Helvetica,sans-Serif" font-size="10.00">+ listen()</text>
<text text-anchor="start" x="212.5" y="-1047.5" font-family="Helvetica,sans-Serif" font-size="10.00">+ listen()</text>
</a>
</g>
</g>
<!-- Node14&#45;&gt;Node8 -->
<g id="edge14" class="edge">
<title>Node14&#45;&gt;Node8</title>
<path fill="none" stroke="orange" d="M253.95,-1031.12C246.25,-1015.04 237.84,-997.46 230.26,-981.64"/>
<polygon fill="orange" stroke="orange" points="250.91,-1032.88 258.39,-1040.39 257.22,-1029.86 250.91,-1032.88"/>
<text text-anchor="start" x="250.5" y="-1014" font-family="Helvetica,sans-Serif" font-size="10.00"> &lt; stream::tls::SocketServer</text>
<text text-anchor="middle" x="312.5" y="-1003" font-family="Helvetica,sans-Serif" font-size="10.00">&lt; ipv6::Socket &gt; &gt;</text>
</g>
<!-- Node15 -->
<g id="node15" class="node">
<title>Node15</title>
<g id="a_node15"><a xlink:title=" ">
<polygon fill="white" stroke="#bfbfbf" points="229,-1189.5 229,-1246.5 330,-1246.5 330,-1189.5 229,-1189.5"/>
<text text-anchor="middle" x="279.5" y="-1234.5" font-family="Helvetica,sans-Serif" font-size="10.00">SocketServerSuper</text>
<polyline fill="none" stroke="#bfbfbf" points="229,-1227.5 330,-1227.5 "/>
<text text-anchor="middle" x="279.5" y="-1215.5" font-family="Helvetica,sans-Serif" font-size="10.00"> </text>
<polyline fill="none" stroke="#bfbfbf" points="229,-1208.5 330,-1208.5 "/>
<text text-anchor="middle" x="279.5" y="-1196.5" font-family="Helvetica,sans-Serif" font-size="10.00"> </text>
</a>
</g>
</g>
<!-- Node15&#45;&gt;Node14 -->
<g id="edge15" class="edge">
<title>Node15&#45;&gt;Node14</title>
<path fill="none" stroke="midnightblue" d="M279.5,-1179.23C279.5,-1164.02 279.5,-1146.36 279.5,-1130.57"/>
<polygon fill="none" stroke="midnightblue" points="276,-1179.32 279.5,-1189.32 283,-1179.32 276,-1179.32"/>
</g>
<!-- Node16 -->
<g id="node16" class="node">
<title>Node16</title>
<g id="a_node16"><a xlink:href="classhttp_1_1_server.html" target="_top" xlink:title=" ">
<polygon fill="white" stroke="black" points="286,-697.5 286,-776.5 437,-776.5 437,-697.5 286,-697.5"/>
<text text-anchor="middle" x="361.5" y="-764.5" font-family="Helvetica,sans-Serif" font-size="10.00">http::Server&lt; SocketServerT &gt;</text>
<polyline fill="none" stroke="black" points="286,-757.5 437,-757.5 "/>
<text text-anchor="start" x="294" y="-745.5" font-family="Helvetica,sans-Serif" font-size="10.00"># socketServer</text>
<polyline fill="none" stroke="black" points="286,-738.5 437,-738.5 "/>
<text text-anchor="start" x="294" y="-726.5" font-family="Helvetica,sans-Serif" font-size="10.00">+ Server()</text>
<text text-anchor="start" x="294" y="-715.5" font-family="Helvetica,sans-Serif" font-size="10.00">+ listen()</text>
<text text-anchor="start" x="294" y="-704.5" font-family="Helvetica,sans-Serif" font-size="10.00">+ listen()</text>
</a>
</g>
</g>
<!-- Node16&#45;&gt;Node6 -->
<g id="edge16" class="edge">
<title>Node16&#45;&gt;Node6</title>
<path fill="none" stroke="orange" d="M346.35,-687.55C336.56,-658.77 322.66,-621.96 306.5,-591 301.43,-581.28 295.38,-571.32 289.2,-561.89"/>
<polygon fill="orange" stroke="orange" points="343.14,-689 349.63,-697.38 349.78,-686.78 343.14,-689"/>
<text text-anchor="start" x="316.5" y="-605" font-family="Helvetica,sans-Serif" font-size="10.00"> &lt; net::socket::ip::</text>
<text text-anchor="middle" x="381" y="-594" font-family="Helvetica,sans-Serif" font-size="10.00">tcp::ipv6::tls::SocketServer &gt;</text>
</g>
<!-- Node17&#45;&gt;Node2 -->
<g id="edge17" class="edge">
<title>Node17&#45;&gt;Node2</title>
<path fill="none" stroke="orange" d="M113.5,-267.16C113.5,-254.74 113.5,-241.96 113.5,-229.8"/>
<polygon fill="orange" stroke="orange" points="110,-267.5 113.5,-277.5 117,-267.5 110,-267.5"/>
<text text-anchor="middle" x="160.5" y="-251" font-family="Helvetica,sans-Serif" font-size="10.00"> &lt; http::tls::Server6 &gt;</text>
</g>
</g>
</svg>
