<?xml version="1.0" encoding="UTF-8" standalone="no"?>
<!DOCTYPE svg PUBLIC "-//W3C//DTD SVG 1.1//EN"
 "http://www.w3.org/Graphics/SVG/1.1/DTD/svg11.dtd">
<!-- Generated by graphviz version 2.43.0 (0)
 -->
<!-- Title: net::socket::stream::legacy::SocketWriter&lt; SocketT &gt; Pages: 1 -->
<svg width="236pt" height="1378pt"
 viewBox="0.00 0.00 236.00 1378.00" xmlns="http://www.w3.org/2000/svg" xmlns:xlink="http://www.w3.org/1999/xlink">
<g id="graph0" class="graph" transform="scale(1 1) rotate(0) translate(4 1374)">
<title>net::socket::stream::legacy::SocketWriter&lt; SocketT &gt;</title>
<polygon fill="white" stroke="transparent" points="-4,4 -4,-1374 232,-1374 232,4 -4,4"/>
<!-- Node1 -->
<g id="node1" class="node">
<title>Node1</title>
<g id="a_node1"><a xlink:title=" ">
<polygon fill="#bfbfbf" stroke="black" points="74.5,-430.5 74.5,-520.5 187.5,-520.5 187.5,-430.5 74.5,-430.5"/>
<text text-anchor="start" x="82.5" y="-508.5" font-family="Helvetica,sans-Serif" font-size="10.00">net::socket::stream</text>
<text text-anchor="start" x="82.5" y="-497.5" font-family="Helvetica,sans-Serif" font-size="10.00">::legacy::SocketWriter</text>
<text text-anchor="middle" x="131" y="-486.5" font-family="Helvetica,sans-Serif" font-size="10.00">&lt; SocketT &gt;</text>
<polyline fill="none" stroke="black" points="74.5,-479.5 187.5,-479.5 "/>
<text text-anchor="middle" x="131" y="-467.5" font-family="Helvetica,sans-Serif" font-size="10.00"> </text>
<polyline fill="none" stroke="black" points="74.5,-460.5 187.5,-460.5 "/>
<text text-anchor="start" x="82.5" y="-448.5" font-family="Helvetica,sans-Serif" font-size="10.00">&#45; write()</text>
<text text-anchor="start" x="82.5" y="-437.5" font-family="Helvetica,sans-Serif" font-size="10.00">&#45; getError()</text>
</a>
</g>
</g>
<!-- Node7 -->
<g id="node7" class="node">
<title>Node7</title>
<g id="a_node7"><a xlink:href="classnet_1_1socket_1_1stream_1_1_socket_connection_t.html" target="_top" xlink:title=" ">
<polygon fill="white" stroke="black" points="34,-116.5 34,-393.5 228,-393.5 228,-116.5 34,-116.5"/>
<text text-anchor="start" x="42" y="-381.5" font-family="Helvetica,sans-Serif" font-size="10.00">net::socket::stream</text>
<text text-anchor="start" x="42" y="-370.5" font-family="Helvetica,sans-Serif" font-size="10.00">::SocketConnectionT</text>
<text text-anchor="start" x="42" y="-359.5" font-family="Helvetica,sans-Serif" font-size="10.00">&lt; legacy::SocketReader</text>
<text text-anchor="start" x="42" y="-348.5" font-family="Helvetica,sans-Serif" font-size="10.00">&lt; SocketT &gt;, legacy::SocketWriter</text>
<text text-anchor="middle" x="131" y="-337.5" font-family="Helvetica,sans-Serif" font-size="10.00">&lt; SocketT &gt;, SocketT::SocketAddress &gt;</text>
<polyline fill="none" stroke="black" points="34,-330.5 228,-330.5 "/>
<text text-anchor="start" x="42" y="-318.5" font-family="Helvetica,sans-Serif" font-size="10.00">&#45; localAddress</text>
<text text-anchor="start" x="42" y="-307.5" font-family="Helvetica,sans-Serif" font-size="10.00">&#45; remoteAddress</text>
<text text-anchor="start" x="42" y="-296.5" font-family="Helvetica,sans-Serif" font-size="10.00">&#45; onDisconnect</text>
<polyline fill="none" stroke="black" points="34,-289.5 228,-289.5 "/>
<text text-anchor="start" x="42" y="-277.5" font-family="Helvetica,sans-Serif" font-size="10.00">+ setTimeout()</text>
<text text-anchor="start" x="42" y="-266.5" font-family="Helvetica,sans-Serif" font-size="10.00">+ getRemoteAddress()</text>
<text text-anchor="start" x="42" y="-255.5" font-family="Helvetica,sans-Serif" font-size="10.00">+ getLocalAddress()</text>
<text text-anchor="start" x="42" y="-244.5" font-family="Helvetica,sans-Serif" font-size="10.00">+ getLocalAddressAsString()</text>
<text text-anchor="start" x="42" y="-233.5" font-family="Helvetica,sans-Serif" font-size="10.00">+ getRemoteAddressAsString()</text>
<text text-anchor="start" x="42" y="-222.5" font-family="Helvetica,sans-Serif" font-size="10.00">+ sendToPeer()</text>
<text text-anchor="start" x="42" y="-211.5" font-family="Helvetica,sans-Serif" font-size="10.00">+ sendToPeer()</text>
<text text-anchor="start" x="42" y="-200.5" font-family="Helvetica,sans-Serif" font-size="10.00">+ readFromPeer()</text>
<text text-anchor="start" x="42" y="-189.5" font-family="Helvetica,sans-Serif" font-size="10.00">+ close()</text>
<text text-anchor="start" x="42" y="-178.5" font-family="Helvetica,sans-Serif" font-size="10.00"># SocketConnectionT()</text>
<text text-anchor="start" x="42" y="-167.5" font-family="Helvetica,sans-Serif" font-size="10.00"># ~SocketConnectionT()</text>
<text text-anchor="start" x="42" y="-156.5" font-family="Helvetica,sans-Serif" font-size="10.00">&#45; SocketConnectionT()</text>
<text text-anchor="start" x="42" y="-145.5" font-family="Helvetica,sans-Serif" font-size="10.00">&#45; readEvent()</text>
<text text-anchor="start" x="42" y="-134.5" font-family="Helvetica,sans-Serif" font-size="10.00">&#45; writeEvent()</text>
<text text-anchor="start" x="42" y="-123.5" font-family="Helvetica,sans-Serif" font-size="10.00">&#45; unobserved()</text>
</a>
</g>
</g>
<!-- Node1&#45;&gt;Node7 -->
<g id="edge6" class="edge">
<title>Node1&#45;&gt;Node7</title>
<path fill="none" stroke="darkgreen" d="M131,-420.05C131,-411.71 131,-402.79 131,-393.59"/>
<polygon fill="none" stroke="darkgreen" points="127.5,-420.28 131,-430.28 134.5,-420.28 127.5,-420.28"/>
</g>
<!-- Node2 -->
<g id="node2" class="node">
<title>Node2</title>
<g id="a_node2"><a xlink:href="classnet_1_1socket_1_1stream_1_1_socket_writer.html" target="_top" xlink:title=" ">
<polygon fill="white" stroke="black" points="64,-557.5 64,-724.5 198,-724.5 198,-557.5 64,-557.5"/>
<text text-anchor="start" x="72" y="-712.5" font-family="Helvetica,sans-Serif" font-size="10.00">net::socket::stream</text>
<text text-anchor="middle" x="131" y="-701.5" font-family="Helvetica,sans-Serif" font-size="10.00">::SocketWriter&lt; SocketT &gt;</text>
<polyline fill="none" stroke="black" points="64,-694.5 198,-694.5 "/>
<text text-anchor="start" x="72" y="-682.5" font-family="Helvetica,sans-Serif" font-size="10.00">&#45; onError</text>
<text text-anchor="start" x="72" y="-671.5" font-family="Helvetica,sans-Serif" font-size="10.00">&#45; writeBuffer</text>
<text text-anchor="start" x="72" y="-660.5" font-family="Helvetica,sans-Serif" font-size="10.00">&#45; markShutdown</text>
<polyline fill="none" stroke="black" points="64,-653.5 198,-653.5 "/>
<text text-anchor="start" x="72" y="-641.5" font-family="Helvetica,sans-Serif" font-size="10.00"># SocketWriter()</text>
<text text-anchor="start" x="72" y="-630.5" font-family="Helvetica,sans-Serif" font-size="10.00"># ~SocketWriter()</text>
<text text-anchor="start" x="72" y="-619.5" font-family="Helvetica,sans-Serif" font-size="10.00"># sendToPeer()</text>
<text text-anchor="start" x="72" y="-608.5" font-family="Helvetica,sans-Serif" font-size="10.00"># shutdown()</text>
<text text-anchor="start" x="72" y="-597.5" font-family="Helvetica,sans-Serif" font-size="10.00"># doWrite()</text>
<text text-anchor="start" x="72" y="-586.5" font-family="Helvetica,sans-Serif" font-size="10.00">&#45; SocketWriter()</text>
<text text-anchor="start" x="72" y="-575.5" font-family="Helvetica,sans-Serif" font-size="10.00">&#45; write()</text>
<text text-anchor="start" x="72" y="-564.5" font-family="Helvetica,sans-Serif" font-size="10.00">&#45; getError()</text>
</a>
</g>
</g>
<!-- Node2&#45;&gt;Node1 -->
<g id="edge1" class="edge">
<title>Node2&#45;&gt;Node1</title>
<path fill="none" stroke="midnightblue" d="M131,-547.22C131,-537.99 131,-528.95 131,-520.58"/>
<polygon fill="none" stroke="midnightblue" points="127.5,-547.29 131,-557.29 134.5,-547.29 127.5,-547.29"/>
</g>
<!-- Node3 -->
<g id="node3" class="node">
<title>Node3</title>
<g id="a_node3"><a xlink:href="classnet_1_1_write_event_receiver.html" target="_top" xlink:title=" ">
<polygon fill="white" stroke="black" points="1.5,-761.5 1.5,-884.5 144.5,-884.5 144.5,-761.5 1.5,-761.5"/>
<text text-anchor="middle" x="73" y="-872.5" font-family="Helvetica,sans-Serif" font-size="10.00">net::WriteEventReceiver</text>
<polyline fill="none" stroke="black" points="1.5,-865.5 144.5,-865.5 "/>
<text text-anchor="middle" x="73" y="-853.5" font-family="Helvetica,sans-Serif" font-size="10.00"> </text>
<polyline fill="none" stroke="black" points="1.5,-846.5 144.5,-846.5 "/>
<text text-anchor="start" x="9.5" y="-834.5" font-family="Helvetica,sans-Serif" font-size="10.00"># WriteEventReceiver()</text>
<text text-anchor="start" x="9.5" y="-823.5" font-family="Helvetica,sans-Serif" font-size="10.00"># continueWriteImmediately()</text>
<text text-anchor="start" x="9.5" y="-812.5" font-family="Helvetica,sans-Serif" font-size="10.00">&#45; writeEvent()</text>
<text text-anchor="start" x="9.5" y="-801.5" font-family="Helvetica,sans-Serif" font-size="10.00">&#45; writeTimeout()</text>
<text text-anchor="start" x="9.5" y="-790.5" font-family="Helvetica,sans-Serif" font-size="10.00">&#45; dispatchEvent()</text>
<text text-anchor="start" x="9.5" y="-779.5" font-family="Helvetica,sans-Serif" font-size="10.00">&#45; timeoutEvent()</text>
<text text-anchor="start" x="9.5" y="-768.5" font-family="Helvetica,sans-Serif" font-size="10.00">&#45; continueImmediately()</text>
</a>
</g>
</g>
<!-- Node3&#45;&gt;Node2 -->
<g id="edge2" class="edge">
<title>Node3&#45;&gt;Node2</title>
<path fill="none" stroke="midnightblue" d="M95.71,-751.53C98.53,-742.76 101.44,-733.73 104.32,-724.79"/>
<polygon fill="none" stroke="midnightblue" points="92.29,-750.72 92.56,-761.31 98.95,-752.87 92.29,-750.72"/>
</g>
<!-- Node4 -->
<g id="node4" class="node">
<title>Node4</title>
<g id="a_node4"><a xlink:href="classnet_1_1_descriptor_event_receiver.html" target="_top" xlink:title=" ">
<polygon fill="white" stroke="black" points="0,-921.5 0,-1264.5 146,-1264.5 146,-921.5 0,-921.5"/>
<text text-anchor="middle" x="73" y="-1252.5" font-family="Helvetica,sans-Serif" font-size="10.00">net::DescriptorEventReceiver</text>
<polyline fill="none" stroke="black" points="0,-1245.5 146,-1245.5 "/>
<text text-anchor="start" x="8" y="-1233.5" font-family="Helvetica,sans-Serif" font-size="10.00">&#45; descriptorEventDispatcher</text>
<text text-anchor="start" x="8" y="-1222.5" font-family="Helvetica,sans-Serif" font-size="10.00">&#45; fd</text>
<text text-anchor="start" x="8" y="-1211.5" font-family="Helvetica,sans-Serif" font-size="10.00">&#45; _enabled</text>
<text text-anchor="start" x="8" y="-1200.5" font-family="Helvetica,sans-Serif" font-size="10.00">&#45; _suspended</text>
<text text-anchor="start" x="8" y="-1189.5" font-family="Helvetica,sans-Serif" font-size="10.00">&#45; maxInactivity</text>
<text text-anchor="start" x="8" y="-1178.5" font-family="Helvetica,sans-Serif" font-size="10.00">&#45; initialTimeout</text>
<polyline fill="none" stroke="black" points="0,-1171.5 146,-1171.5 "/>
<text text-anchor="start" x="8" y="-1159.5" font-family="Helvetica,sans-Serif" font-size="10.00">+ enable()</text>
<text text-anchor="start" x="8" y="-1148.5" font-family="Helvetica,sans-Serif" font-size="10.00">+ disable()</text>
<text text-anchor="start" x="8" y="-1137.5" font-family="Helvetica,sans-Serif" font-size="10.00">+ suspend()</text>
<text text-anchor="start" x="8" y="-1126.5" font-family="Helvetica,sans-Serif" font-size="10.00">+ resume()</text>
<text text-anchor="start" x="8" y="-1115.5" font-family="Helvetica,sans-Serif" font-size="10.00"># DescriptorEventReceiver()</text>
<text text-anchor="start" x="8" y="-1104.5" font-family="Helvetica,sans-Serif" font-size="10.00"># ~DescriptorEventReceiver()</text>
<text text-anchor="start" x="8" y="-1093.5" font-family="Helvetica,sans-Serif" font-size="10.00"># setTimeout()</text>
<text text-anchor="start" x="8" y="-1082.5" font-family="Helvetica,sans-Serif" font-size="10.00"># isEnabled()</text>
<text text-anchor="start" x="8" y="-1071.5" font-family="Helvetica,sans-Serif" font-size="10.00"># isSuspended()</text>
<text text-anchor="start" x="8" y="-1060.5" font-family="Helvetica,sans-Serif" font-size="10.00">&#45; DescriptorEventReceiver()</text>
<text text-anchor="start" x="8" y="-1049.5" font-family="Helvetica,sans-Serif" font-size="10.00">&#45; operator=()</text>
<text text-anchor="start" x="8" y="-1038.5" font-family="Helvetica,sans-Serif" font-size="10.00">&#45; dispatchEvent()</text>
<text text-anchor="start" x="8" y="-1027.5" font-family="Helvetica,sans-Serif" font-size="10.00">&#45; timeoutEvent()</text>
<text text-anchor="start" x="8" y="-1016.5" font-family="Helvetica,sans-Serif" font-size="10.00">&#45; continueImmediately()</text>
<text text-anchor="start" x="8" y="-1005.5" font-family="Helvetica,sans-Serif" font-size="10.00">&#45; enabled()</text>
<text text-anchor="start" x="8" y="-994.5" font-family="Helvetica,sans-Serif" font-size="10.00">&#45; disabled()</text>
<text text-anchor="start" x="8" y="-983.5" font-family="Helvetica,sans-Serif" font-size="10.00">&#45; suspended()</text>
<text text-anchor="start" x="8" y="-972.5" font-family="Helvetica,sans-Serif" font-size="10.00">&#45; resumed()</text>
<text text-anchor="start" x="8" y="-961.5" font-family="Helvetica,sans-Serif" font-size="10.00">&#45; getTimeout()</text>
<text text-anchor="start" x="8" y="-950.5" font-family="Helvetica,sans-Serif" font-size="10.00">&#45; getLastTriggered()</text>
<text text-anchor="start" x="8" y="-939.5" font-family="Helvetica,sans-Serif" font-size="10.00">&#45; triggered()</text>
<text text-anchor="start" x="8" y="-928.5" font-family="Helvetica,sans-Serif" font-size="10.00">&#45; unobserved()</text>
</a>
</g>
</g>
<!-- Node4&#45;&gt;Node3 -->
<g id="edge3" class="edge">
<title>Node4&#45;&gt;Node3</title>
<path fill="none" stroke="midnightblue" d="M73,-911C73,-901.77 73,-892.88 73,-884.54"/>
<polygon fill="none" stroke="midnightblue" points="69.5,-911.13 73,-921.13 76.5,-911.13 69.5,-911.13"/>
</g>
<!-- Node5 -->
<g id="node5" class="node">
<title>Node5</title>
<g id="a_node5"><a xlink:href="classnet_1_1_observation_counter.html" target="_top" xlink:title=" ">
<polygon fill="white" stroke="black" points="11.5,-1301.5 11.5,-1369.5 134.5,-1369.5 134.5,-1301.5 11.5,-1301.5"/>
<text text-anchor="middle" x="73" y="-1357.5" font-family="Helvetica,sans-Serif" font-size="10.00">net::ObservationCounter</text>
<polyline fill="none" stroke="black" points="11.5,-1350.5 134.5,-1350.5 "/>
<text text-anchor="start" x="19.5" y="-1338.5" font-family="Helvetica,sans-Serif" font-size="10.00"># observationCounter</text>
<text text-anchor="start" x="19.5" y="-1327.5" font-family="Helvetica,sans-Serif" font-size="10.00"># lastTriggered</text>
<polyline fill="none" stroke="black" points="11.5,-1320.5 134.5,-1320.5 "/>
<text text-anchor="start" x="19.5" y="-1308.5" font-family="Helvetica,sans-Serif" font-size="10.00">+ isObserved()</text>
</a>
</g>
</g>
<!-- Node5&#45;&gt;Node4 -->
<g id="edge4" class="edge">
<title>Node5&#45;&gt;Node4</title>
<path fill="none" stroke="midnightblue" d="M73,-1291.14C73,-1283.03 73,-1274.12 73,-1264.7"/>
<polygon fill="none" stroke="midnightblue" points="69.5,-1291.31 73,-1301.31 76.5,-1291.31 69.5,-1291.31"/>
</g>
<!-- Node6 -->
<g id="node6" class="node">
<title>Node6</title>
<g id="a_node6"><a xlink:title=" ">
<polygon fill="white" stroke="#bfbfbf" points="162.5,-794.5 162.5,-851.5 215.5,-851.5 215.5,-794.5 162.5,-794.5"/>
<text text-anchor="middle" x="189" y="-839.5" font-family="Helvetica,sans-Serif" font-size="10.00">SocketT</text>
<polyline fill="none" stroke="#bfbfbf" points="162.5,-832.5 215.5,-832.5 "/>
<text text-anchor="middle" x="189" y="-820.5" font-family="Helvetica,sans-Serif" font-size="10.00"> </text>
<polyline fill="none" stroke="#bfbfbf" points="162.5,-813.5 215.5,-813.5 "/>
<text text-anchor="middle" x="189" y="-801.5" font-family="Helvetica,sans-Serif" font-size="10.00"> </text>
</a>
</g>
</g>
<!-- Node6&#45;&gt;Node2 -->
<g id="edge5" class="edge">
<title>Node6&#45;&gt;Node2</title>
<path fill="none" stroke="midnightblue" d="M176.92,-784.51C171.31,-767.09 164.39,-745.62 157.65,-724.69"/>
<polygon fill="none" stroke="midnightblue" points="173.67,-785.82 180.06,-794.27 180.33,-783.68 173.67,-785.82"/>
</g>
<!-- Node8 -->
<g id="node8" class="node">
<title>Node8</title>
<g id="a_node8"><a xlink:href="classnet_1_1socket_1_1stream_1_1legacy_1_1_socket_connection.html" target="_top" xlink:title=" ">
<polygon fill="white" stroke="black" points="62.5,-0.5 62.5,-79.5 199.5,-79.5 199.5,-0.5 62.5,-0.5"/>
<text text-anchor="start" x="70.5" y="-67.5" font-family="Helvetica,sans-Serif" font-size="10.00">net::socket::stream</text>
<text text-anchor="start" x="70.5" y="-56.5" font-family="Helvetica,sans-Serif" font-size="10.00">::legacy::SocketConnection</text>
<text text-anchor="middle" x="131" y="-45.5" font-family="Helvetica,sans-Serif" font-size="10.00">&lt; SocketT &gt;</text>
<polyline fill="none" stroke="black" points="62.5,-38.5 199.5,-38.5 "/>
<text text-anchor="middle" x="131" y="-26.5" font-family="Helvetica,sans-Serif" font-size="10.00"> </text>
<polyline fill="none" stroke="black" points="62.5,-19.5 199.5,-19.5 "/>
<text text-anchor="start" x="70.5" y="-7.5" font-family="Helvetica,sans-Serif" font-size="10.00">+ SocketConnection()</text>
</a>
</g>
</g>
<!-- Node7&#45;&gt;Node8 -->
<g id="edge7" class="edge">
<title>Node7&#45;&gt;Node8</title>
<path fill="none" stroke="midnightblue" d="M131,-106.25C131,-96.68 131,-87.64 131,-79.51"/>
<polygon fill="none" stroke="midnightblue" points="127.5,-106.4 131,-116.4 134.5,-106.4 127.5,-106.4"/>
</g>
</g>
</svg>
