<?xml version="1.0" encoding="UTF-8" standalone="no"?>
<!DOCTYPE svg PUBLIC "-//W3C//DTD SVG 1.1//EN"
 "http://www.w3.org/Graphics/SVG/1.1/DTD/svg11.dtd">
<!-- Generated by graphviz version 2.43.0 (0)
 -->
<!-- Title: web::websocket::SubProtocolFactory&lt; SubProtocolT &gt; Pages: 1 -->
<svg width="290pt" height="570pt"
 viewBox="0.00 0.00 290.00 570.00" xmlns="http://www.w3.org/2000/svg" xmlns:xlink="http://www.w3.org/1999/xlink">
<g id="graph0" class="graph" transform="scale(1 1) rotate(0) translate(4 566)">
<title>web::websocket::SubProtocolFactory&lt; SubProtocolT &gt;</title>
<polygon fill="white" stroke="transparent" points="-4,4 -4,-566 286,-566 286,4 -4,4"/>
<!-- Node1 -->
<g id="node1" class="node">
<title>Node1</title>
<g id="a_node1"><a xlink:title=" ">
<polygon fill="#bfbfbf" stroke="black" points="30,-438.5 30,-561.5 177,-561.5 177,-438.5 30,-438.5"/>
<text text-anchor="start" x="38" y="-549.5" font-family="Helvetica,sans-Serif" font-size="10.00">web::websocket::SubProtocol</text>
<text text-anchor="middle" x="103.5" y="-538.5" font-family="Helvetica,sans-Serif" font-size="10.00">Factory&lt; SubProtocolT &gt;</text>
<polyline fill="none" stroke="black" points="30,-531.5 177,-531.5 "/>
<text text-anchor="middle" x="103.5" y="-519.5" font-family="Helvetica,sans-Serif" font-size="10.00"> </text>
<polyline fill="none" stroke="black" points="30,-512.5 177,-512.5 "/>
<text text-anchor="start" x="38" y="-500.5" font-family="Helvetica,sans-Serif" font-size="10.00">+ SubProtocolFactory()</text>
<text text-anchor="start" x="38" y="-489.5" font-family="Helvetica,sans-Serif" font-size="10.00">+ ~SubProtocolFactory()</text>
<text text-anchor="start" x="38" y="-478.5" font-family="Helvetica,sans-Serif" font-size="10.00">+ name()</text>
<text text-anchor="start" x="38" y="-467.5" font-family="Helvetica,sans-Serif" font-size="10.00">+ destroy()</text>
<text text-anchor="start" x="38" y="-456.5" font-family="Helvetica,sans-Serif" font-size="10.00">+ create()</text>
<text text-anchor="start" x="38" y="-445.5" font-family="Helvetica,sans-Serif" font-size="10.00">+ destroy()</text>
</a>
</g>
</g>
<!-- Node2 -->
<g id="node2" class="node">
<title>Node2</title>
<g id="a_node2"><a xlink:href="classweb_1_1websocket_1_1client_1_1_sub_protocol_interface.html" target="_top" xlink:title=" ">
<polygon fill="white" stroke="black" points="0,-278.5 0,-346.5 117,-346.5 117,-278.5 0,-278.5"/>
<text text-anchor="start" x="8" y="-334.5" font-family="Helvetica,sans-Serif" font-size="10.00">web::websocket::client</text>
<text text-anchor="middle" x="58.5" y="-323.5" font-family="Helvetica,sans-Serif" font-size="10.00">::SubProtocolInterface</text>
<polyline fill="none" stroke="black" points="0,-316.5 117,-316.5 "/>
<text text-anchor="middle" x="58.5" y="-304.5" font-family="Helvetica,sans-Serif" font-size="10.00"> </text>
<polyline fill="none" stroke="black" points="0,-297.5 117,-297.5 "/>
<text text-anchor="middle" x="58.5" y="-285.5" font-family="Helvetica,sans-Serif" font-size="10.00"> </text>
</a>
</g>
</g>
<!-- Node1&#45;&gt;Node2 -->
<g id="edge1" class="edge">
<title>Node1&#45;&gt;Node2</title>
<path fill="none" stroke="midnightblue" d="M86.38,-428.44C79.55,-400.29 72.02,-369.23 66.51,-346.51"/>
<polygon fill="none" stroke="midnightblue" points="83.01,-429.37 88.77,-438.26 89.81,-427.72 83.01,-429.37"/>
</g>
<!-- Node3 -->
<g id="node3" class="node">
<title>Node3</title>
<g id="a_node3"><a xlink:href="classweb_1_1websocket_1_1_sub_protocol_factory.html" target="_top" xlink:title=" ">
<polygon fill="white" stroke="black" points="135,-245.5 135,-379.5 282,-379.5 282,-245.5 135,-245.5"/>
<text text-anchor="start" x="143" y="-367.5" font-family="Helvetica,sans-Serif" font-size="10.00">web::websocket::SubProtocol</text>
<text text-anchor="start" x="143" y="-356.5" font-family="Helvetica,sans-Serif" font-size="10.00">Factory&lt; web::websocket</text>
<text text-anchor="middle" x="208.5" y="-345.5" font-family="Helvetica,sans-Serif" font-size="10.00">::server::SubProtocol &gt;</text>
<polyline fill="none" stroke="black" points="135,-338.5 282,-338.5 "/>
<text text-anchor="middle" x="208.5" y="-326.5" font-family="Helvetica,sans-Serif" font-size="10.00"> </text>
<polyline fill="none" stroke="black" points="135,-319.5 282,-319.5 "/>
<text text-anchor="start" x="143" y="-307.5" font-family="Helvetica,sans-Serif" font-size="10.00">+ SubProtocolFactory()</text>
<text text-anchor="start" x="143" y="-296.5" font-family="Helvetica,sans-Serif" font-size="10.00">+ ~SubProtocolFactory()</text>
<text text-anchor="start" x="143" y="-285.5" font-family="Helvetica,sans-Serif" font-size="10.00">+ name()</text>
<text text-anchor="start" x="143" y="-274.5" font-family="Helvetica,sans-Serif" font-size="10.00">+ destroy()</text>
<text text-anchor="start" x="143" y="-263.5" font-family="Helvetica,sans-Serif" font-size="10.00">+ destroy()</text>
<text text-anchor="start" x="143" y="-252.5" font-family="Helvetica,sans-Serif" font-size="10.00">+ create()</text>
</a>
</g>
</g>
<!-- Node1&#45;&gt;Node3 -->
<g id="edge2" class="edge">
<title>Node1&#45;&gt;Node3</title>
<path fill="none" stroke="orange" d="M142.92,-429.36C152.1,-413.13 161.86,-395.9 170.96,-379.82"/>
<polygon fill="orange" stroke="orange" points="139.76,-427.83 137.88,-438.26 145.85,-431.28 139.76,-427.83"/>
<text text-anchor="start" x="158.5" y="-412" font-family="Helvetica,sans-Serif" font-size="10.00"> &lt; web::websocket::server</text>
<text text-anchor="middle" x="217" y="-401" font-family="Helvetica,sans-Serif" font-size="10.00">::SubProtocol &gt;</text>
</g>
<!-- Node4 -->
<g id="node4" class="node">
<title>Node4</title>
<g id="a_node4"><a xlink:href="classweb_1_1websocket_1_1server_1_1_sub_protocol_factory.html" target="_top" xlink:title=" ">
<polygon fill="white" stroke="black" points="148,-139.5 148,-207.5 269,-207.5 269,-139.5 148,-139.5"/>
<text text-anchor="start" x="156" y="-195.5" font-family="Helvetica,sans-Serif" font-size="10.00">web::websocket::server</text>
<text text-anchor="middle" x="208.5" y="-184.5" font-family="Helvetica,sans-Serif" font-size="10.00">::SubProtocolFactory</text>
<polyline fill="none" stroke="black" points="148,-177.5 269,-177.5 "/>
<text text-anchor="middle" x="208.5" y="-165.5" font-family="Helvetica,sans-Serif" font-size="10.00"> </text>
<polyline fill="none" stroke="black" points="148,-158.5 269,-158.5 "/>
<text text-anchor="start" x="156" y="-146.5" font-family="Helvetica,sans-Serif" font-size="10.00">+ SubProtocolFactory()</text>
</a>
</g>
</g>
<!-- Node3&#45;&gt;Node4 -->
<g id="edge3" class="edge">
<title>Node3&#45;&gt;Node4</title>
<path fill="none" stroke="midnightblue" d="M208.5,-235.26C208.5,-225.56 208.5,-216.07 208.5,-207.58"/>
<polygon fill="none" stroke="midnightblue" points="205,-235.41 208.5,-245.41 212,-235.41 205,-235.41"/>
</g>
<!-- Node5 -->
<g id="node5" class="node">
<title>Node5</title>
<g id="a_node5"><a xlink:href="classweb_1_1websocket_1_1subprotocol_1_1echo_1_1server_1_1_echo_factory.html" target="_top" xlink:title=" ">
<polygon fill="white" stroke="black" points="136.5,-0.5 136.5,-101.5 280.5,-101.5 280.5,-0.5 136.5,-0.5"/>
<text text-anchor="start" x="144.5" y="-89.5" font-family="Helvetica,sans-Serif" font-size="10.00">web::websocket::subprotocol</text>
<text text-anchor="middle" x="208.5" y="-78.5" font-family="Helvetica,sans-Serif" font-size="10.00">::echo::server::EchoFactory</text>
<polyline fill="none" stroke="black" points="136.5,-71.5 280.5,-71.5 "/>
<text text-anchor="middle" x="208.5" y="-59.5" font-family="Helvetica,sans-Serif" font-size="10.00"> </text>
<polyline fill="none" stroke="black" points="136.5,-52.5 280.5,-52.5 "/>
<text text-anchor="start" x="144.5" y="-40.5" font-family="Helvetica,sans-Serif" font-size="10.00">&#45; destroy()</text>
<text text-anchor="start" x="144.5" y="-29.5" font-family="Helvetica,sans-Serif" font-size="10.00">&#45; name()</text>
<text text-anchor="start" x="144.5" y="-18.5" font-family="Helvetica,sans-Serif" font-size="10.00">&#45; create()</text>
<text text-anchor="start" x="144.5" y="-7.5" font-family="Helvetica,sans-Serif" font-size="10.00">&#45; destroy()</text>
</a>
</g>
</g>
<!-- Node4&#45;&gt;Node5 -->
<g id="edge4" class="edge">
<title>Node4&#45;&gt;Node5</title>
<path fill="none" stroke="midnightblue" d="M208.5,-129.15C208.5,-120.29 208.5,-110.91 208.5,-101.84"/>
<polygon fill="none" stroke="midnightblue" points="205,-129.25 208.5,-139.25 212,-129.25 205,-129.25"/>
</g>
</g>
</svg>
