<?xml version="1.0" encoding="UTF-8" standalone="no"?>
<!DOCTYPE svg PUBLIC "-//W3C//DTD SVG 1.1//EN"
 "http://www.w3.org/Graphics/SVG/1.1/DTD/svg11.dtd">
<!-- Generated by graphviz version 2.43.0 (0)
 -->
<!-- Title: http::Server&lt; SocketServerT, RequestT, ResponseT &gt; Pages: 1 -->
<svg width="1340pt" height="659pt"
 viewBox="0.00 0.00 1339.50 659.00" xmlns="http://www.w3.org/2000/svg" xmlns:xlink="http://www.w3.org/1999/xlink">
<g id="graph0" class="graph" transform="scale(1 1) rotate(0) translate(4 655)">
<title>http::Server&lt; SocketServerT, RequestT, ResponseT &gt;</title>
<polygon fill="white" stroke="transparent" points="-4,4 -4,-655 1335.5,-655 1335.5,4 -4,4"/>
<!-- Node1 -->
<g id="node1" class="node">
<title>Node1</title>
<g id="a_node1"><a xlink:title=" ">
<polygon fill="#bfbfbf" stroke="black" points="564.5,-560.5 564.5,-650.5 700.5,-650.5 700.5,-560.5 564.5,-560.5"/>
<text text-anchor="start" x="572.5" y="-638.5" font-family="Helvetica,sans-Serif" font-size="10.00">http::Server&lt; SocketServer</text>
<text text-anchor="middle" x="632.5" y="-627.5" font-family="Helvetica,sans-Serif" font-size="10.00">T, RequestT, ResponseT &gt;</text>
<polyline fill="none" stroke="black" points="564.5,-620.5 700.5,-620.5 "/>
<text text-anchor="start" x="572.5" y="-608.5" font-family="Helvetica,sans-Serif" font-size="10.00"># socketServer</text>
<polyline fill="none" stroke="black" points="564.5,-601.5 700.5,-601.5 "/>
<text text-anchor="start" x="572.5" y="-589.5" font-family="Helvetica,sans-Serif" font-size="10.00">+ Server()</text>
<text text-anchor="start" x="572.5" y="-578.5" font-family="Helvetica,sans-Serif" font-size="10.00">+ listen()</text>
<text text-anchor="start" x="572.5" y="-567.5" font-family="Helvetica,sans-Serif" font-size="10.00">+ listen()</text>
</a>
</g>
</g>
<!-- Node2 -->
<g id="node2" class="node">
<title>Node2</title>
<g id="a_node2"><a xlink:href="classhttp_1_1_server.html" target="_top" xlink:title=" ">
<polygon fill="white" stroke="black" points="0,-231 0,-343 159,-343 159,-231 0,-231"/>
<text text-anchor="start" x="8" y="-331" font-family="Helvetica,sans-Serif" font-size="10.00">http::Server&lt; net::</text>
<text text-anchor="start" x="8" y="-320" font-family="Helvetica,sans-Serif" font-size="10.00">socket::ip::tcp::ipv4</text>
<text text-anchor="start" x="8" y="-309" font-family="Helvetica,sans-Serif" font-size="10.00">::tls::SocketServer, express</text>
<text text-anchor="middle" x="79.5" y="-298" font-family="Helvetica,sans-Serif" font-size="10.00">::Request, express::Response &gt;</text>
<polyline fill="none" stroke="black" points="0,-291 159,-291 "/>
<text text-anchor="start" x="8" y="-279" font-family="Helvetica,sans-Serif" font-size="10.00"># socketServer</text>
<polyline fill="none" stroke="black" points="0,-272 159,-272 "/>
<text text-anchor="start" x="8" y="-260" font-family="Helvetica,sans-Serif" font-size="10.00">+ Server()</text>
<text text-anchor="start" x="8" y="-249" font-family="Helvetica,sans-Serif" font-size="10.00">+ listen()</text>
<text text-anchor="start" x="8" y="-238" font-family="Helvetica,sans-Serif" font-size="10.00">+ listen()</text>
</a>
</g>
</g>
<!-- Node1&#45;&gt;Node2 -->
<g id="edge1" class="edge">
<title>Node1&#45;&gt;Node2</title>
<path fill="none" stroke="orange" d="M554.27,-601.38C408.63,-594.77 107.77,-576.99 76.5,-542 28.67,-488.49 42.87,-400.36 59.56,-343.25"/>
<polygon fill="orange" stroke="orange" points="554.33,-604.89 564.48,-601.84 554.65,-597.89 554.33,-604.89"/>
<text text-anchor="start" x="76.5" y="-534" font-family="Helvetica,sans-Serif" font-size="10.00"> &lt; net::socket::ip::</text>
<text text-anchor="start" x="76.5" y="-523" font-family="Helvetica,sans-Serif" font-size="10.00">tcp::ipv4::tls::SocketServer,</text>
<text text-anchor="start" x="76.5" y="-512" font-family="Helvetica,sans-Serif" font-size="10.00"> express::Request, express</text>
<text text-anchor="middle" x="137.5" y="-501" font-family="Helvetica,sans-Serif" font-size="10.00">::Response &gt;</text>
</g>
<!-- Node4 -->
<g id="node4" class="node">
<title>Node4</title>
<g id="a_node4"><a xlink:href="classhttp_1_1_server.html" target="_top" xlink:title=" ">
<polygon fill="white" stroke="black" points="130,-367.5 130,-479.5 271,-479.5 271,-367.5 130,-367.5"/>
<text text-anchor="start" x="138" y="-467.5" font-family="Helvetica,sans-Serif" font-size="10.00">http::Server&lt; net::</text>
<text text-anchor="start" x="138" y="-456.5" font-family="Helvetica,sans-Serif" font-size="10.00">socket::ip::tcp::ipv4</text>
<text text-anchor="start" x="138" y="-445.5" font-family="Helvetica,sans-Serif" font-size="10.00">::tls::SocketServer, http</text>
<text text-anchor="middle" x="200.5" y="-434.5" font-family="Helvetica,sans-Serif" font-size="10.00">::Request, http::Response &gt;</text>
<polyline fill="none" stroke="black" points="130,-427.5 271,-427.5 "/>
<text text-anchor="start" x="138" y="-415.5" font-family="Helvetica,sans-Serif" font-size="10.00"># socketServer</text>
<polyline fill="none" stroke="black" points="130,-408.5 271,-408.5 "/>
<text text-anchor="start" x="138" y="-396.5" font-family="Helvetica,sans-Serif" font-size="10.00">+ Server()</text>
<text text-anchor="start" x="138" y="-385.5" font-family="Helvetica,sans-Serif" font-size="10.00">+ listen()</text>
<text text-anchor="start" x="138" y="-374.5" font-family="Helvetica,sans-Serif" font-size="10.00">+ listen()</text>
</a>
</g>
</g>
<!-- Node1&#45;&gt;Node4 -->
<g id="edge3" class="edge">
<title>Node1&#45;&gt;Node4</title>
<path fill="none" stroke="orange" d="M554.09,-602.85C449.07,-598.95 270.59,-585.87 224.5,-542 207.76,-526.07 201.02,-501.86 198.76,-479.55"/>
<polygon fill="orange" stroke="orange" points="554.21,-606.35 564.32,-603.21 554.45,-599.36 554.21,-606.35"/>
<text text-anchor="start" x="224.5" y="-528.5" font-family="Helvetica,sans-Serif" font-size="10.00"> &lt; net::socket::ip::</text>
<text text-anchor="start" x="224.5" y="-517.5" font-family="Helvetica,sans-Serif" font-size="10.00">tcp::ipv4::tls::SocketServer,</text>
<text text-anchor="middle" x="297" y="-506.5" font-family="Helvetica,sans-Serif" font-size="10.00"> http::Request, http::Response &gt;</text>
</g>
<!-- Node6 -->
<g id="node6" class="node">
<title>Node6</title>
<g id="a_node6"><a xlink:href="classhttp_1_1_server.html" target="_top" xlink:title=" ">
<polygon fill="white" stroke="black" points="329,-225.5 329,-348.5 466,-348.5 466,-225.5 329,-225.5"/>
<text text-anchor="start" x="337" y="-336.5" font-family="Helvetica,sans-Serif" font-size="10.00">http::Server&lt; net::</text>
<text text-anchor="start" x="337" y="-325.5" font-family="Helvetica,sans-Serif" font-size="10.00">socket::ip::tcp ::ipv6</text>
<text text-anchor="start" x="337" y="-314.5" font-family="Helvetica,sans-Serif" font-size="10.00">::legacy::SocketServer,</text>
<text text-anchor="start" x="337" y="-303.5" font-family="Helvetica,sans-Serif" font-size="10.00"> express::Request, express</text>
<text text-anchor="middle" x="397.5" y="-292.5" font-family="Helvetica,sans-Serif" font-size="10.00">::Response &gt;</text>
<polyline fill="none" stroke="black" points="329,-285.5 466,-285.5 "/>
<text text-anchor="start" x="337" y="-273.5" font-family="Helvetica,sans-Serif" font-size="10.00"># socketServer</text>
<polyline fill="none" stroke="black" points="329,-266.5 466,-266.5 "/>
<text text-anchor="start" x="337" y="-254.5" font-family="Helvetica,sans-Serif" font-size="10.00">+ Server()</text>
<text text-anchor="start" x="337" y="-243.5" font-family="Helvetica,sans-Serif" font-size="10.00">+ listen()</text>
<text text-anchor="start" x="337" y="-232.5" font-family="Helvetica,sans-Serif" font-size="10.00">+ listen()</text>
</a>
</g>
</g>
<!-- Node1&#45;&gt;Node6 -->
<g id="edge6" class="edge">
<title>Node1&#45;&gt;Node6</title>
<path fill="none" stroke="orange" d="M554.12,-594.3C492.56,-584.5 414.09,-567.39 394.5,-542 352.35,-487.35 362.86,-404.59 377.39,-348.52"/>
<polygon fill="orange" stroke="orange" points="553.81,-597.8 564.23,-595.87 554.88,-590.88 553.81,-597.8"/>
<text text-anchor="start" x="394.5" y="-534" font-family="Helvetica,sans-Serif" font-size="10.00"> &lt; net::socket::ip::</text>
<text text-anchor="start" x="394.5" y="-523" font-family="Helvetica,sans-Serif" font-size="10.00">tcp ::ipv6::legacy::</text>
<text text-anchor="start" x="394.5" y="-512" font-family="Helvetica,sans-Serif" font-size="10.00">SocketServer, express</text>
<text text-anchor="middle" x="466" y="-501" font-family="Helvetica,sans-Serif" font-size="10.00">::Request, express::Response &gt;</text>
</g>
<!-- Node8 -->
<g id="node8" class="node">
<title>Node8</title>
<g id="a_node8"><a xlink:href="classhttp_1_1_server.html" target="_top" xlink:title=" ">
<polygon fill="white" stroke="black" points="449,-367.5 449,-479.5 610,-479.5 610,-367.5 449,-367.5"/>
<text text-anchor="start" x="457" y="-467.5" font-family="Helvetica,sans-Serif" font-size="10.00">http::Server&lt; net::</text>
<text text-anchor="start" x="457" y="-456.5" font-family="Helvetica,sans-Serif" font-size="10.00">socket::ip::tcp ::ipv6</text>
<text text-anchor="start" x="457" y="-445.5" font-family="Helvetica,sans-Serif" font-size="10.00">::legacy::SocketServer,</text>
<text text-anchor="middle" x="529.5" y="-434.5" font-family="Helvetica,sans-Serif" font-size="10.00"> http::Request, http::Response &gt;</text>
<polyline fill="none" stroke="black" points="449,-427.5 610,-427.5 "/>
<text text-anchor="start" x="457" y="-415.5" font-family="Helvetica,sans-Serif" font-size="10.00"># socketServer</text>
<polyline fill="none" stroke="black" points="449,-408.5 610,-408.5 "/>
<text text-anchor="start" x="457" y="-396.5" font-family="Helvetica,sans-Serif" font-size="10.00">+ Server()</text>
<text text-anchor="start" x="457" y="-385.5" font-family="Helvetica,sans-Serif" font-size="10.00">+ listen()</text>
<text text-anchor="start" x="457" y="-374.5" font-family="Helvetica,sans-Serif" font-size="10.00">+ listen()</text>
</a>
</g>
</g>
<!-- Node1&#45;&gt;Node8 -->
<g id="edge8" class="edge">
<title>Node1&#45;&gt;Node8</title>
<path fill="none" stroke="orange" d="M566,-552.52C563.27,-549.13 560.75,-545.62 558.5,-542 546.92,-523.35 539.96,-500.34 535.78,-479.65"/>
<polygon fill="orange" stroke="orange" points="563.49,-554.97 572.69,-560.22 568.77,-550.37 563.49,-554.97"/>
<text text-anchor="start" x="558.5" y="-534" font-family="Helvetica,sans-Serif" font-size="10.00"> &lt; net::socket::ip::</text>
<text text-anchor="start" x="558.5" y="-523" font-family="Helvetica,sans-Serif" font-size="10.00">tcp ::ipv6::legacy::</text>
<text text-anchor="start" x="558.5" y="-512" font-family="Helvetica,sans-Serif" font-size="10.00">SocketServer, http::Request,</text>
<text text-anchor="middle" x="622" y="-501" font-family="Helvetica,sans-Serif" font-size="10.00"> http::Response &gt;</text>
</g>
<!-- Node10 -->
<g id="node10" class="node">
<title>Node10</title>
<g id="a_node10"><a xlink:href="classhttp_1_1_server.html" target="_top" xlink:title=" ">
<polygon fill="white" stroke="black" points="645,-225.5 645,-348.5 782,-348.5 782,-225.5 645,-225.5"/>
<text text-anchor="start" x="653" y="-336.5" font-family="Helvetica,sans-Serif" font-size="10.00">http::Server&lt; net::</text>
<text text-anchor="start" x="653" y="-325.5" font-family="Helvetica,sans-Serif" font-size="10.00">socket::ip::tcp::ipv4</text>
<text text-anchor="start" x="653" y="-314.5" font-family="Helvetica,sans-Serif" font-size="10.00">::legacy::SocketServer,</text>
<text text-anchor="start" x="653" y="-303.5" font-family="Helvetica,sans-Serif" font-size="10.00"> express::Request, express</text>
<text text-anchor="middle" x="713.5" y="-292.5" font-family="Helvetica,sans-Serif" font-size="10.00">::Response &gt;</text>
<polyline fill="none" stroke="black" points="645,-285.5 782,-285.5 "/>
<text text-anchor="start" x="653" y="-273.5" font-family="Helvetica,sans-Serif" font-size="10.00"># socketServer</text>
<polyline fill="none" stroke="black" points="645,-266.5 782,-266.5 "/>
<text text-anchor="start" x="653" y="-254.5" font-family="Helvetica,sans-Serif" font-size="10.00">+ Server()</text>
<text text-anchor="start" x="653" y="-243.5" font-family="Helvetica,sans-Serif" font-size="10.00">+ listen()</text>
<text text-anchor="start" x="653" y="-232.5" font-family="Helvetica,sans-Serif" font-size="10.00">+ listen()</text>
</a>
</g>
</g>
<!-- Node1&#45;&gt;Node10 -->
<g id="edge11" class="edge">
<title>Node1&#45;&gt;Node10</title>
<path fill="none" stroke="orange" d="M680.7,-551.56C682.49,-548.43 684.11,-545.23 685.5,-542 712.25,-479.86 717.07,-401.62 716.59,-348.51"/>
<polygon fill="orange" stroke="orange" points="677.63,-549.86 675.26,-560.19 683.55,-553.6 677.63,-549.86"/>
<text text-anchor="start" x="700.5" y="-534" font-family="Helvetica,sans-Serif" font-size="10.00"> &lt; net::socket::ip::</text>
<text text-anchor="start" x="700.5" y="-523" font-family="Helvetica,sans-Serif" font-size="10.00">tcp::ipv4::legacy::SocketServer,</text>
<text text-anchor="start" x="700.5" y="-512" font-family="Helvetica,sans-Serif" font-size="10.00"> express::Request, express</text>
<text text-anchor="middle" x="770.5" y="-501" font-family="Helvetica,sans-Serif" font-size="10.00">::Response &gt;</text>
</g>
<!-- Node12 -->
<g id="node12" class="node">
<title>Node12</title>
<g id="a_node12"><a xlink:href="classhttp_1_1_server.html" target="_top" xlink:title=" ">
<polygon fill="white" stroke="black" points="766,-367.5 766,-479.5 927,-479.5 927,-367.5 766,-367.5"/>
<text text-anchor="start" x="774" y="-467.5" font-family="Helvetica,sans-Serif" font-size="10.00">http::Server&lt; net::</text>
<text text-anchor="start" x="774" y="-456.5" font-family="Helvetica,sans-Serif" font-size="10.00">socket::ip::tcp::ipv4</text>
<text text-anchor="start" x="774" y="-445.5" font-family="Helvetica,sans-Serif" font-size="10.00">::legacy::SocketServer,</text>
<text text-anchor="middle" x="846.5" y="-434.5" font-family="Helvetica,sans-Serif" font-size="10.00"> http::Request, http::Response &gt;</text>
<polyline fill="none" stroke="black" points="766,-427.5 927,-427.5 "/>
<text text-anchor="start" x="774" y="-415.5" font-family="Helvetica,sans-Serif" font-size="10.00"># socketServer</text>
<polyline fill="none" stroke="black" points="766,-408.5 927,-408.5 "/>
<text text-anchor="start" x="774" y="-396.5" font-family="Helvetica,sans-Serif" font-size="10.00">+ Server()</text>
<text text-anchor="start" x="774" y="-385.5" font-family="Helvetica,sans-Serif" font-size="10.00">+ listen()</text>
<text text-anchor="start" x="774" y="-374.5" font-family="Helvetica,sans-Serif" font-size="10.00">+ listen()</text>
</a>
</g>
</g>
<!-- Node1&#45;&gt;Node12 -->
<g id="edge13" class="edge">
<title>Node1&#45;&gt;Node12</title>
<path fill="none" stroke="orange" d="M710.62,-591.99C765.35,-581.44 831.61,-564.47 848.5,-542 861.68,-524.47 863.44,-500.94 861.04,-479.55"/>
<polygon fill="orange" stroke="orange" points="709.73,-588.59 700.55,-593.88 711.02,-595.47 709.73,-588.59"/>
<text text-anchor="start" x="862.5" y="-528.5" font-family="Helvetica,sans-Serif" font-size="10.00"> &lt; net::socket::ip::</text>
<text text-anchor="start" x="862.5" y="-517.5" font-family="Helvetica,sans-Serif" font-size="10.00">tcp::ipv4::legacy::SocketServer,</text>
<text text-anchor="middle" x="935" y="-506.5" font-family="Helvetica,sans-Serif" font-size="10.00"> http::Request, http::Response &gt;</text>
</g>
<!-- Node14 -->
<g id="node14" class="node">
<title>Node14</title>
<g id="a_node14"><a xlink:href="classhttp_1_1_server.html" target="_top" xlink:title=" ">
<polygon fill="white" stroke="black" points="971,-367.5 971,-479.5 1112,-479.5 1112,-367.5 971,-367.5"/>
<text text-anchor="start" x="979" y="-467.5" font-family="Helvetica,sans-Serif" font-size="10.00">http::Server&lt; net::</text>
<text text-anchor="start" x="979" y="-456.5" font-family="Helvetica,sans-Serif" font-size="10.00">socket::ip::tcp::ipv6</text>
<text text-anchor="start" x="979" y="-445.5" font-family="Helvetica,sans-Serif" font-size="10.00">::tls::SocketServer, http</text>
<text text-anchor="middle" x="1041.5" y="-434.5" font-family="Helvetica,sans-Serif" font-size="10.00">::Request, http::Response &gt;</text>
<polyline fill="none" stroke="black" points="971,-427.5 1112,-427.5 "/>
<text text-anchor="start" x="979" y="-415.5" font-family="Helvetica,sans-Serif" font-size="10.00"># socketServer</text>
<polyline fill="none" stroke="black" points="971,-408.5 1112,-408.5 "/>
<text text-anchor="start" x="979" y="-396.5" font-family="Helvetica,sans-Serif" font-size="10.00">+ Server()</text>
<text text-anchor="start" x="979" y="-385.5" font-family="Helvetica,sans-Serif" font-size="10.00">+ listen()</text>
<text text-anchor="start" x="979" y="-374.5" font-family="Helvetica,sans-Serif" font-size="10.00">+ listen()</text>
</a>
</g>
</g>
<!-- Node1&#45;&gt;Node14 -->
<g id="edge16" class="edge">
<title>Node1&#45;&gt;Node14</title>
<path fill="none" stroke="orange" d="M710.93,-601.45C808.85,-596.01 968.72,-581.23 1011.5,-542 1028.72,-526.21 1036.65,-502.02 1040.11,-479.68"/>
<polygon fill="orange" stroke="orange" points="710.58,-597.96 700.78,-601.99 710.95,-604.95 710.58,-597.96"/>
<text text-anchor="start" x="1034.5" y="-528.5" font-family="Helvetica,sans-Serif" font-size="10.00"> &lt; net::socket::ip::</text>
<text text-anchor="start" x="1034.5" y="-517.5" font-family="Helvetica,sans-Serif" font-size="10.00">tcp::ipv6::tls::SocketServer,</text>
<text text-anchor="middle" x="1107" y="-506.5" font-family="Helvetica,sans-Serif" font-size="10.00"> http::Request, http::Response &gt;</text>
</g>
<!-- Node17 -->
<g id="node17" class="node">
<title>Node17</title>
<g id="a_node17"><a xlink:href="classhttp_1_1_server.html" target="_top" xlink:title=" ">
<polygon fill="white" stroke="black" points="1126,-231 1126,-343 1285,-343 1285,-231 1126,-231"/>
<text text-anchor="start" x="1134" y="-331" font-family="Helvetica,sans-Serif" font-size="10.00">http::Server&lt; net::</text>
<text text-anchor="start" x="1134" y="-320" font-family="Helvetica,sans-Serif" font-size="10.00">socket::ip::tcp::ipv6</text>
<text text-anchor="start" x="1134" y="-309" font-family="Helvetica,sans-Serif" font-size="10.00">::tls::SocketServer, express</text>
<text text-anchor="middle" x="1205.5" y="-298" font-family="Helvetica,sans-Serif" font-size="10.00">::Request, express::Response &gt;</text>
<polyline fill="none" stroke="black" points="1126,-291 1285,-291 "/>
<text text-anchor="start" x="1134" y="-279" font-family="Helvetica,sans-Serif" font-size="10.00"># socketServer</text>
<polyline fill="none" stroke="black" points="1126,-272 1285,-272 "/>
<text text-anchor="start" x="1134" y="-260" font-family="Helvetica,sans-Serif" font-size="10.00">+ Server()</text>
<text text-anchor="start" x="1134" y="-249" font-family="Helvetica,sans-Serif" font-size="10.00">+ listen()</text>
<text text-anchor="start" x="1134" y="-238" font-family="Helvetica,sans-Serif" font-size="10.00">+ listen()</text>
</a>
</g>
</g>
<!-- Node1&#45;&gt;Node17 -->
<g id="edge19" class="edge">
<title>Node1&#45;&gt;Node17</title>
<path fill="none" stroke="orange" d="M710.86,-601.03C855.15,-593.85 1151.13,-575.24 1183.5,-542 1233.99,-490.15 1228.96,-400.93 1218.73,-343.21"/>
<polygon fill="orange" stroke="orange" points="710.56,-597.54 700.74,-601.52 710.9,-604.53 710.56,-597.54"/>
<text text-anchor="start" x="1209.5" y="-534" font-family="Helvetica,sans-Serif" font-size="10.00"> &lt; net::socket::ip::</text>
<text text-anchor="start" x="1209.5" y="-523" font-family="Helvetica,sans-Serif" font-size="10.00">tcp::ipv6::tls::SocketServer,</text>
<text text-anchor="start" x="1209.5" y="-512" font-family="Helvetica,sans-Serif" font-size="10.00"> express::Request, express</text>
<text text-anchor="middle" x="1270.5" y="-501" font-family="Helvetica,sans-Serif" font-size="10.00">::Response &gt;</text>
</g>
<!-- Node3 -->
<g id="node3" class="node">
<title>Node3</title>
<g id="a_node3"><a xlink:href="classhttp_1_1tls_1_1_server.html" target="_top" xlink:title=" ">
<polygon fill="white" stroke="black" points="54,-0.5 54,-79.5 191,-79.5 191,-0.5 54,-0.5"/>
<text text-anchor="start" x="62" y="-67.5" font-family="Helvetica,sans-Serif" font-size="10.00">http::tls::Server&lt;</text>
<text text-anchor="start" x="62" y="-56.5" font-family="Helvetica,sans-Serif" font-size="10.00"> express::Request, express</text>
<text text-anchor="middle" x="122.5" y="-45.5" font-family="Helvetica,sans-Serif" font-size="10.00">::Response &gt;</text>
<polyline fill="none" stroke="black" points="54,-38.5 191,-38.5 "/>
<text text-anchor="middle" x="122.5" y="-26.5" font-family="Helvetica,sans-Serif" font-size="10.00"> </text>
<polyline fill="none" stroke="black" points="54,-19.5 191,-19.5 "/>
<text text-anchor="middle" x="122.5" y="-7.5" font-family="Helvetica,sans-Serif" font-size="10.00"> </text>
</a>
</g>
</g>
<!-- Node2&#45;&gt;Node3 -->
<g id="edge2" class="edge">
<title>Node2&#45;&gt;Node3</title>
<path fill="none" stroke="midnightblue" d="M90.95,-220.75C98.85,-175.77 109.07,-117.51 115.71,-79.7"/>
<polygon fill="none" stroke="midnightblue" points="87.49,-220.26 89.2,-230.71 94.38,-221.47 87.49,-220.26"/>
</g>
<!-- Node5 -->
<g id="node5" class="node">
<title>Node5</title>
<g id="a_node5"><a xlink:href="classhttp_1_1tls_1_1_server.html" target="_top" xlink:title=" ">
<polygon fill="white" stroke="black" points="124.5,-138.5 124.5,-206.5 240.5,-206.5 240.5,-138.5 124.5,-138.5"/>
<text text-anchor="start" x="132.5" y="-194.5" font-family="Helvetica,sans-Serif" font-size="10.00">http::tls::Server&lt;</text>
<text text-anchor="middle" x="182.5" y="-183.5" font-family="Helvetica,sans-Serif" font-size="10.00"> Request, Response &gt;</text>
<polyline fill="none" stroke="black" points="124.5,-176.5 240.5,-176.5 "/>
<text text-anchor="middle" x="182.5" y="-164.5" font-family="Helvetica,sans-Serif" font-size="10.00"> </text>
<polyline fill="none" stroke="black" points="124.5,-157.5 240.5,-157.5 "/>
<text text-anchor="middle" x="182.5" y="-145.5" font-family="Helvetica,sans-Serif" font-size="10.00"> </text>
</a>
</g>
</g>
<!-- Node4&#45;&gt;Node5 -->
<g id="edge4" class="edge">
<title>Node4&#45;&gt;Node5</title>
<path fill="none" stroke="midnightblue" d="M195.78,-357.18C192.29,-308.89 187.68,-245.12 184.91,-206.83"/>
<polygon fill="none" stroke="midnightblue" points="192.29,-357.52 196.51,-367.24 199.28,-357.01 192.29,-357.52"/>
</g>
<!-- Node5&#45;&gt;Node3 -->
<g id="edge5" class="edge">
<title>Node5&#45;&gt;Node3</title>
<path fill="none" stroke="orange" d="M162.82,-128.71C155.57,-112.93 147.4,-95.16 140.32,-79.77"/>
<polygon fill="orange" stroke="orange" points="159.85,-130.61 167.2,-138.23 166.21,-127.68 159.85,-130.61"/>
<text text-anchor="start" x="158.5" y="-112" font-family="Helvetica,sans-Serif" font-size="10.00"> &lt; express::Request,</text>
<text text-anchor="middle" x="207" y="-101" font-family="Helvetica,sans-Serif" font-size="10.00"> express::Response &gt;</text>
</g>
<!-- Node7 -->
<g id="node7" class="node">
<title>Node7</title>
<g id="a_node7"><a xlink:href="classhttp_1_1legacy_1_1_server6.html" target="_top" xlink:title=" ">
<polygon fill="white" stroke="black" points="354,-0.5 354,-79.5 497,-79.5 497,-0.5 354,-0.5"/>
<text text-anchor="start" x="362" y="-67.5" font-family="Helvetica,sans-Serif" font-size="10.00">http::legacy::Server6</text>
<text text-anchor="start" x="362" y="-56.5" font-family="Helvetica,sans-Serif" font-size="10.00">&lt; express::Request, express</text>
<text text-anchor="middle" x="425.5" y="-45.5" font-family="Helvetica,sans-Serif" font-size="10.00">::Response &gt;</text>
<polyline fill="none" stroke="black" points="354,-38.5 497,-38.5 "/>
<text text-anchor="middle" x="425.5" y="-26.5" font-family="Helvetica,sans-Serif" font-size="10.00"> </text>
<polyline fill="none" stroke="black" points="354,-19.5 497,-19.5 "/>
<text text-anchor="middle" x="425.5" y="-7.5" font-family="Helvetica,sans-Serif" font-size="10.00"> </text>
</a>
</g>
</g>
<!-- Node6&#45;&gt;Node7 -->
<g id="edge7" class="edge">
<title>Node6&#45;&gt;Node7</title>
<path fill="none" stroke="midnightblue" d="M405.57,-215.35C410.61,-171.26 416.91,-116.18 421.06,-79.86"/>
<polygon fill="none" stroke="midnightblue" points="402.08,-215.11 404.42,-225.44 409.03,-215.9 402.08,-215.11"/>
</g>
<!-- Node9 -->
<g id="node9" class="node">
<title>Node9</title>
<g id="a_node9"><a xlink:href="classhttp_1_1legacy_1_1_server6.html" target="_top" xlink:title=" ">
<polygon fill="white" stroke="black" points="432.5,-138.5 432.5,-206.5 554.5,-206.5 554.5,-138.5 432.5,-138.5"/>
<text text-anchor="start" x="440.5" y="-194.5" font-family="Helvetica,sans-Serif" font-size="10.00">http::legacy::Server6</text>
<text text-anchor="middle" x="493.5" y="-183.5" font-family="Helvetica,sans-Serif" font-size="10.00">&lt; Request, Response &gt;</text>
<polyline fill="none" stroke="black" points="432.5,-176.5 554.5,-176.5 "/>
<text text-anchor="middle" x="493.5" y="-164.5" font-family="Helvetica,sans-Serif" font-size="10.00"> </text>
<polyline fill="none" stroke="black" points="432.5,-157.5 554.5,-157.5 "/>
<text text-anchor="middle" x="493.5" y="-145.5" font-family="Helvetica,sans-Serif" font-size="10.00"> </text>
</a>
</g>
</g>
<!-- Node8&#45;&gt;Node9 -->
<g id="edge9" class="edge">
<title>Node8&#45;&gt;Node9</title>
<path fill="none" stroke="midnightblue" d="M520.06,-357.18C513.08,-308.89 503.86,-245.12 498.32,-206.83"/>
<polygon fill="none" stroke="midnightblue" points="516.62,-357.84 521.51,-367.24 523.54,-356.84 516.62,-357.84"/>
</g>
<!-- Node9&#45;&gt;Node7 -->
<g id="edge10" class="edge">
<title>Node9&#45;&gt;Node7</title>
<path fill="none" stroke="orange" d="M471.43,-129.15C463.16,-113.27 453.8,-95.31 445.7,-79.77"/>
<polygon fill="orange" stroke="orange" points="468.44,-130.98 476.16,-138.23 474.65,-127.75 468.44,-130.98"/>
<text text-anchor="start" x="466.5" y="-112" font-family="Helvetica,sans-Serif" font-size="10.00"> &lt; express::Request,</text>
<text text-anchor="middle" x="515" y="-101" font-family="Helvetica,sans-Serif" font-size="10.00"> express::Response &gt;</text>
</g>
<!-- Node11 -->
<g id="node11" class="node">
<title>Node11</title>
<g id="a_node11"><a xlink:href="classhttp_1_1legacy_1_1_server.html" target="_top" xlink:title=" ">
<polygon fill="white" stroke="black" points="674,-0.5 674,-79.5 817,-79.5 817,-0.5 674,-0.5"/>
<text text-anchor="start" x="682" y="-67.5" font-family="Helvetica,sans-Serif" font-size="10.00">http::legacy::Server</text>
<text text-anchor="start" x="682" y="-56.5" font-family="Helvetica,sans-Serif" font-size="10.00">&lt; express::Request, express</text>
<text text-anchor="middle" x="745.5" y="-45.5" font-family="Helvetica,sans-Serif" font-size="10.00">::Response &gt;</text>
<polyline fill="none" stroke="black" points="674,-38.5 817,-38.5 "/>
<text text-anchor="middle" x="745.5" y="-26.5" font-family="Helvetica,sans-Serif" font-size="10.00"> </text>
<polyline fill="none" stroke="black" points="674,-19.5 817,-19.5 "/>
<text text-anchor="middle" x="745.5" y="-7.5" font-family="Helvetica,sans-Serif" font-size="10.00"> </text>
</a>
</g>
</g>
<!-- Node10&#45;&gt;Node11 -->
<g id="edge12" class="edge">
<title>Node10&#45;&gt;Node11</title>
<path fill="none" stroke="midnightblue" d="M722.73,-215.35C728.49,-171.26 735.68,-116.18 740.42,-79.86"/>
<polygon fill="none" stroke="midnightblue" points="719.23,-215.07 721.41,-225.44 726.18,-215.98 719.23,-215.07"/>
</g>
<!-- Node13 -->
<g id="node13" class="node">
<title>Node13</title>
<g id="a_node13"><a xlink:href="classhttp_1_1legacy_1_1_server.html" target="_top" xlink:title=" ">
<polygon fill="white" stroke="black" points="759.5,-138.5 759.5,-206.5 881.5,-206.5 881.5,-138.5 759.5,-138.5"/>
<text text-anchor="start" x="767.5" y="-194.5" font-family="Helvetica,sans-Serif" font-size="10.00">http::legacy::Server</text>
<text text-anchor="middle" x="820.5" y="-183.5" font-family="Helvetica,sans-Serif" font-size="10.00">&lt; Request, Response &gt;</text>
<polyline fill="none" stroke="black" points="759.5,-176.5 881.5,-176.5 "/>
<text text-anchor="middle" x="820.5" y="-164.5" font-family="Helvetica,sans-Serif" font-size="10.00"> </text>
<polyline fill="none" stroke="black" points="759.5,-157.5 881.5,-157.5 "/>
<text text-anchor="middle" x="820.5" y="-145.5" font-family="Helvetica,sans-Serif" font-size="10.00"> </text>
</a>
</g>
</g>
<!-- Node12&#45;&gt;Node13 -->
<g id="edge14" class="edge">
<title>Node12&#45;&gt;Node13</title>
<path fill="none" stroke="midnightblue" d="M839.68,-357.18C834.64,-308.89 827.98,-245.12 823.98,-206.83"/>
<polygon fill="none" stroke="midnightblue" points="836.21,-357.66 840.73,-367.24 843.17,-356.93 836.21,-357.66"/>
</g>
<!-- Node13&#45;&gt;Node11 -->
<g id="edge15" class="edge">
<title>Node13&#45;&gt;Node11</title>
<path fill="none" stroke="orange" d="M796.16,-129.15C787.03,-113.27 776.71,-95.31 767.78,-79.77"/>
<polygon fill="orange" stroke="orange" points="793.36,-131.31 801.38,-138.23 799.43,-127.82 793.36,-131.31"/>
<text text-anchor="start" x="790.5" y="-112" font-family="Helvetica,sans-Serif" font-size="10.00"> &lt; express::Request,</text>
<text text-anchor="middle" x="839" y="-101" font-family="Helvetica,sans-Serif" font-size="10.00"> express::Response &gt;</text>
</g>
<!-- Node15 -->
<g id="node15" class="node">
<title>Node15</title>
<g id="a_node15"><a xlink:href="classhttp_1_1tls_1_1_server6.html" target="_top" xlink:title=" ">
<polygon fill="white" stroke="black" points="1010.5,-138.5 1010.5,-206.5 1132.5,-206.5 1132.5,-138.5 1010.5,-138.5"/>
<text text-anchor="start" x="1018.5" y="-194.5" font-family="Helvetica,sans-Serif" font-size="10.00">http::tls::Server6</text>
<text text-anchor="middle" x="1071.5" y="-183.5" font-family="Helvetica,sans-Serif" font-size="10.00">&lt; Request, Response &gt;</text>
<polyline fill="none" stroke="black" points="1010.5,-176.5 1132.5,-176.5 "/>
<text text-anchor="middle" x="1071.5" y="-164.5" font-family="Helvetica,sans-Serif" font-size="10.00"> </text>
<polyline fill="none" stroke="black" points="1010.5,-157.5 1132.5,-157.5 "/>
<text text-anchor="middle" x="1071.5" y="-145.5" font-family="Helvetica,sans-Serif" font-size="10.00"> </text>
</a>
</g>
</g>
<!-- Node14&#45;&gt;Node15 -->
<g id="edge17" class="edge">
<title>Node14&#45;&gt;Node15</title>
<path fill="none" stroke="midnightblue" d="M1049.37,-357.18C1055.19,-308.89 1062.87,-245.12 1067.48,-206.83"/>
<polygon fill="none" stroke="midnightblue" points="1045.88,-356.89 1048.16,-367.24 1052.83,-357.73 1045.88,-356.89"/>
</g>
<!-- Node16 -->
<g id="node16" class="node">
<title>Node16</title>
<g id="a_node16"><a xlink:href="classhttp_1_1tls_1_1_server6.html" target="_top" xlink:title=" ">
<polygon fill="white" stroke="black" points="1078,-0.5 1078,-79.5 1191,-79.5 1191,-0.5 1078,-0.5"/>
<text text-anchor="start" x="1086" y="-67.5" font-family="Helvetica,sans-Serif" font-size="10.00">http::tls::Server6</text>
<text text-anchor="start" x="1086" y="-56.5" font-family="Helvetica,sans-Serif" font-size="10.00">&lt; express::Request,</text>
<text text-anchor="middle" x="1134.5" y="-45.5" font-family="Helvetica,sans-Serif" font-size="10.00"> express::Response &gt;</text>
<polyline fill="none" stroke="black" points="1078,-38.5 1191,-38.5 "/>
<text text-anchor="middle" x="1134.5" y="-26.5" font-family="Helvetica,sans-Serif" font-size="10.00"> </text>
<polyline fill="none" stroke="black" points="1078,-19.5 1191,-19.5 "/>
<text text-anchor="middle" x="1134.5" y="-7.5" font-family="Helvetica,sans-Serif" font-size="10.00"> </text>
</a>
</g>
</g>
<!-- Node15&#45;&gt;Node16 -->
<g id="edge18" class="edge">
<title>Node15&#45;&gt;Node16</title>
<path fill="none" stroke="orange" d="M1081.69,-128.73C1084.85,-118.41 1088.78,-107.6 1093.5,-98 1096.51,-91.87 1100.17,-85.7 1104.05,-79.8"/>
<polygon fill="orange" stroke="orange" points="1078.3,-127.84 1078.89,-138.42 1085.03,-129.78 1078.3,-127.84"/>
<text text-anchor="start" x="1093.5" y="-112" font-family="Helvetica,sans-Serif" font-size="10.00"> &lt; express::Request,</text>
<text text-anchor="middle" x="1142" y="-101" font-family="Helvetica,sans-Serif" font-size="10.00"> express::Response &gt;</text>
</g>
<!-- Node17&#45;&gt;Node16 -->
<g id="edge20" class="edge">
<title>Node17&#45;&gt;Node16</title>
<path fill="none" stroke="midnightblue" d="M1211.05,-220.57C1211.65,-183.11 1207.89,-136.12 1190.5,-98 1187.56,-91.56 1183.57,-85.43 1179.07,-79.73"/>
<polygon fill="none" stroke="midnightblue" points="1207.54,-220.78 1210.77,-230.87 1214.54,-220.97 1207.54,-220.78"/>
</g>
</g>
</svg>
