<?xml version="1.0" encoding="UTF-8" standalone="no"?>
<!DOCTYPE svg PUBLIC "-//W3C//DTD SVG 1.1//EN"
 "http://www.w3.org/Graphics/SVG/1.1/DTD/svg11.dtd">
<!-- Generated by graphviz version 2.43.0 (0)
 -->
<!-- Title: express::WebApp::init Pages: 1 -->
<svg width="813pt" height="372pt"
 viewBox="0.00 0.00 813.00 371.50" xmlns="http://www.w3.org/2000/svg" xmlns:xlink="http://www.w3.org/1999/xlink">
<g id="graph0" class="graph" transform="scale(1 1) rotate(0) translate(4 367.5)">
<title>express::WebApp::init</title>
<polygon fill="white" stroke="transparent" points="-4,4 -4,-367.5 809,-367.5 809,4 -4,4"/>
<!-- Node1 -->
<g id="node1" class="node">
<title>Node1</title>
<g id="a_node1"><a xlink:title=" ">
<polygon fill="#bfbfbf" stroke="black" points="0,-82.5 0,-101.5 113,-101.5 113,-82.5 0,-82.5"/>
<text text-anchor="middle" x="56.5" y="-89.5" font-family="Helvetica,sans-Serif" font-size="10.00">express::WebApp::init</text>
</a>
</g>
</g>
<!-- Node2 -->
<g id="node2" class="node">
<title>Node2</title>
<g id="a_node2"><a xlink:href="classnet_1_1_event_loop.html#a333d383210a35e2c31140e5705c92412" target="_top" xlink:title=" ">
<polygon fill="white" stroke="black" points="149,-82.5 149,-101.5 250,-101.5 250,-82.5 149,-82.5"/>
<text text-anchor="middle" x="199.5" y="-89.5" font-family="Helvetica,sans-Serif" font-size="10.00">net::EventLoop::init</text>
</a>
</g>
</g>
<!-- Node1&#45;&gt;Node2 -->
<g id="edge1" class="edge">
<title>Node1&#45;&gt;Node2</title>
<path fill="none" stroke="midnightblue" d="M113.23,-92C121.55,-92 130.15,-92 138.55,-92"/>
<polygon fill="midnightblue" stroke="midnightblue" points="138.66,-95.5 148.66,-92 138.66,-88.5 138.66,-95.5"/>
</g>
<!-- Node3 -->
<g id="node3" class="node">
<title>Node3</title>
<g id="a_node3"><a xlink:href="classnet_1_1_event_loop.html#a67e1a11192cafa69c2dcb19fe8ca7e2a" target="_top" xlink:title=" ">
<polygon fill="white" stroke="black" points="286,-158 286,-188 441,-188 441,-158 286,-158"/>
<text text-anchor="start" x="294" y="-176" font-family="Helvetica,sans-Serif" font-size="10.00">net::EventLoop::getTickCounter</text>
<text text-anchor="middle" x="363.5" y="-165" font-family="Helvetica,sans-Serif" font-size="10.00">AsString</text>
</a>
</g>
</g>
<!-- Node2&#45;&gt;Node3 -->
<g id="edge2" class="edge">
<title>Node2&#45;&gt;Node3</title>
<path fill="none" stroke="midnightblue" d="M219.72,-101.61C245.05,-114.27 290.21,-136.85 322.97,-153.24"/>
<polygon fill="midnightblue" stroke="midnightblue" points="321.77,-156.55 332.28,-157.89 324.91,-150.29 321.77,-156.55"/>
</g>
<!-- Node15 -->
<g id="node15" class="node">
<title>Node15</title>
<g id="a_node15"><a xlink:href="class_logger.html#a9a1cee6606317c7baa7d06fe86916f72" target="_top" xlink:title=" ">
<polygon fill="white" stroke="black" points="331,-101.5 331,-120.5 396,-120.5 396,-101.5 331,-101.5"/>
<text text-anchor="middle" x="363.5" y="-108.5" font-family="Helvetica,sans-Serif" font-size="10.00">Logger::init</text>
</a>
</g>
</g>
<!-- Node2&#45;&gt;Node15 -->
<g id="edge14" class="edge">
<title>Node2&#45;&gt;Node15</title>
<path fill="none" stroke="midnightblue" d="M250.43,-97.86C272.96,-100.5 299.27,-103.58 320.73,-106.1"/>
<polygon fill="midnightblue" stroke="midnightblue" points="320.5,-109.6 330.84,-107.29 321.32,-102.65 320.5,-109.6"/>
</g>
<!-- Node17 -->
<g id="node17" class="node">
<title>Node17</title>
<g id="a_node17"><a xlink:href="class_logger.html#a969163c7aff5b8409d8dfb8175dd2b85" target="_top" xlink:title=" ">
<polygon fill="white" stroke="black" points="287,-63.5 287,-82.5 440,-82.5 440,-63.5 287,-63.5"/>
<text text-anchor="middle" x="363.5" y="-70.5" font-family="Helvetica,sans-Serif" font-size="10.00">Logger::setCustomFormatSpec</text>
</a>
</g>
</g>
<!-- Node2&#45;&gt;Node17 -->
<g id="edge16" class="edge">
<title>Node2&#45;&gt;Node17</title>
<path fill="none" stroke="midnightblue" d="M250.43,-86.14C258.8,-85.16 267.7,-84.12 276.68,-83.07"/>
<polygon fill="midnightblue" stroke="midnightblue" points="277.3,-86.52 286.82,-81.88 276.49,-79.56 277.3,-86.52"/>
</g>
<!-- Node18 -->
<g id="node18" class="node">
<title>Node18</title>
<g id="a_node18"><a xlink:href="classnet_1_1_event_loop.html#a14629599569baeed2b94108a82ec9a9c" target="_top" xlink:title=" ">
<polygon fill="white" stroke="black" points="298,-11.5 298,-30.5 429,-30.5 429,-11.5 298,-11.5"/>
<text text-anchor="middle" x="363.5" y="-18.5" font-family="Helvetica,sans-Serif" font-size="10.00">net::EventLoop::stoponsig</text>
</a>
</g>
</g>
<!-- Node2&#45;&gt;Node18 -->
<g id="edge17" class="edge">
<title>Node2&#45;&gt;Node18</title>
<path fill="none" stroke="midnightblue" d="M221.91,-82.41C239.18,-74.69 264.13,-63.58 286,-54 300.61,-47.6 316.82,-40.6 330.55,-34.69"/>
<polygon fill="midnightblue" stroke="midnightblue" points="332.24,-37.77 340.04,-30.61 329.47,-31.34 332.24,-37.77"/>
</g>
<!-- Node4 -->
<g id="node4" class="node">
<title>Node4</title>
<g id="a_node4"><a xlink:href="classnet_1_1_event_loop.html#a81ac233351625c5bd8ed1943d3f9daea" target="_top" xlink:title=" ">
<polygon fill="white" stroke="black" points="477,-218.5 477,-237.5 632,-237.5 632,-218.5 477,-218.5"/>
<text text-anchor="middle" x="554.5" y="-225.5" font-family="Helvetica,sans-Serif" font-size="10.00">net::EventLoop::getTickCounter</text>
</a>
</g>
</g>
<!-- Node3&#45;&gt;Node4 -->
<g id="edge3" class="edge">
<title>Node3&#45;&gt;Node4</title>
<path fill="none" stroke="midnightblue" d="M409.18,-188.05C429.74,-194.78 454.51,-202.62 477,-209 485.42,-211.39 494.4,-213.77 503.15,-216"/>
<polygon fill="midnightblue" stroke="midnightblue" points="502.32,-219.4 512.87,-218.44 504.03,-212.61 502.32,-219.4"/>
</g>
<!-- Node5 -->
<g id="node5" class="node">
<title>Node5</title>
<g id="a_node5"><a xlink:href="classnet_1_1_event_loop.html#a6d8bfd6fa03bb6bf423035ab190657ef" target="_top" xlink:title=" ">
<polygon fill="white" stroke="black" points="492,-180.5 492,-199.5 617,-199.5 617,-180.5 492,-180.5"/>
<text text-anchor="middle" x="554.5" y="-187.5" font-family="Helvetica,sans-Serif" font-size="10.00">net::EventLoop::instance</text>
</a>
</g>
</g>
<!-- Node3&#45;&gt;Node5 -->
<g id="edge4" class="edge">
<title>Node3&#45;&gt;Node5</title>
<path fill="none" stroke="midnightblue" d="M441.1,-179.89C454.56,-181.1 468.51,-182.36 481.83,-183.55"/>
<polygon fill="midnightblue" stroke="midnightblue" points="481.59,-187.05 491.86,-184.46 482.22,-180.07 481.59,-187.05"/>
</g>
<!-- Node6 -->
<g id="node6" class="node">
<title>Node6</title>
<g id="a_node6"><a xlink:href="classnet_1_1_event_loop.html#af391b0a968b89c98ae4c9c78449cd0d6" target="_top" xlink:title=" ">
<polygon fill="white" stroke="black" points="502.5,-142.5 502.5,-161.5 606.5,-161.5 606.5,-142.5 502.5,-142.5"/>
<text text-anchor="middle" x="554.5" y="-149.5" font-family="Helvetica,sans-Serif" font-size="10.00">net::EventLoop::tick</text>
</a>
</g>
</g>
<!-- Node3&#45;&gt;Node6 -->
<g id="edge5" class="edge">
<title>Node3&#45;&gt;Node6</title>
<path fill="none" stroke="midnightblue" d="M441.1,-164.49C458.13,-162.6 475.97,-160.61 492.29,-158.8"/>
<polygon fill="midnightblue" stroke="midnightblue" points="492.68,-162.28 502.23,-157.7 491.91,-155.32 492.68,-162.28"/>
</g>
<!-- Node7 -->
<g id="node7" class="node">
<title>Node7</title>
<g id="a_node7"><a xlink:href="classnet_1_1_timer_event_dispatcher.html#aeb3ab46e344b2a94c6348b58c747d9c8" target="_top" xlink:title=" ">
<polygon fill="white" stroke="black" points="669.5,-333 669.5,-363 803.5,-363 803.5,-333 669.5,-333"/>
<text text-anchor="start" x="677.5" y="-351" font-family="Helvetica,sans-Serif" font-size="10.00">net::TimerEventDispatcher</text>
<text text-anchor="middle" x="736.5" y="-340" font-family="Helvetica,sans-Serif" font-size="10.00">::dispatch</text>
</a>
</g>
</g>
<!-- Node6&#45;&gt;Node7 -->
<g id="edge6" class="edge">
<title>Node6&#45;&gt;Node7</title>
<path fill="none" stroke="midnightblue" d="M606.52,-156.47C616,-159.42 625.08,-163.99 632,-171 681.09,-220.7 621.41,-271.95 668,-324 668.77,-324.86 669.57,-325.68 670.4,-326.48"/>
<polygon fill="midnightblue" stroke="midnightblue" points="668.53,-329.47 678.56,-332.89 672.85,-323.96 668.53,-329.47"/>
</g>
<!-- Node8 -->
<g id="node8" class="node">
<title>Node8</title>
<g id="a_node8"><a xlink:href="classnet_1_1_event_dispatcher.html#aa2019533d729f53c76779a8d1a2421a4" target="_top" xlink:title=" ">
<polygon fill="white" stroke="black" points="677.5,-284 677.5,-314 795.5,-314 795.5,-284 677.5,-284"/>
<text text-anchor="start" x="685.5" y="-302" font-family="Helvetica,sans-Serif" font-size="10.00">net::EventDispatcher</text>
<text text-anchor="middle" x="736.5" y="-291" font-family="Helvetica,sans-Serif" font-size="10.00">::dispatchActiveEvents</text>
</a>
</g>
</g>
<!-- Node6&#45;&gt;Node8 -->
<g id="edge7" class="edge">
<title>Node6&#45;&gt;Node8</title>
<path fill="none" stroke="midnightblue" d="M606.77,-157.28C616.01,-160.19 624.93,-164.54 632,-171 668.1,-204 633.56,-240.27 668,-275 669.07,-276.08 670.19,-277.1 671.35,-278.09"/>
<polygon fill="midnightblue" stroke="midnightblue" points="669.4,-281 679.58,-283.93 673.45,-275.29 669.4,-281"/>
</g>
<!-- Node9 -->
<g id="node9" class="node">
<title>Node9</title>
<g id="a_node9"><a xlink:href="classnet_1_1_timer_event_dispatcher.html#ac567efc31026ba2cc249d882be0390ae" target="_top" xlink:title=" ">
<polygon fill="white" stroke="black" points="669.5,-235 669.5,-265 803.5,-265 803.5,-235 669.5,-235"/>
<text text-anchor="start" x="677.5" y="-253" font-family="Helvetica,sans-Serif" font-size="10.00">net::TimerEventDispatcher</text>
<text text-anchor="middle" x="736.5" y="-242" font-family="Helvetica,sans-Serif" font-size="10.00">::empty</text>
</a>
</g>
</g>
<!-- Node6&#45;&gt;Node9 -->
<g id="edge8" class="edge">
<title>Node6&#45;&gt;Node9</title>
<path fill="none" stroke="midnightblue" d="M606.8,-159.1C615.72,-161.86 624.52,-165.69 632,-171 655.82,-187.91 645.04,-207.94 668,-226 669.61,-227.27 671.3,-228.47 673.04,-229.62"/>
<polygon fill="midnightblue" stroke="midnightblue" points="671.73,-232.9 682.15,-234.84 675.22,-226.83 671.73,-232.9"/>
</g>
<!-- Node10 -->
<g id="node10" class="node">
<title>Node10</title>
<g id="a_node10"><a xlink:href="classnet_1_1_event_dispatcher.html#a8a510206b39b8bc6bf5aaac3143fb6a7" target="_top" xlink:title=" ">
<polygon fill="white" stroke="black" points="682,-186 682,-216 791,-216 791,-186 682,-186"/>
<text text-anchor="start" x="690" y="-204" font-family="Helvetica,sans-Serif" font-size="10.00">net::EventDispatcher</text>
<text text-anchor="middle" x="736.5" y="-193" font-family="Helvetica,sans-Serif" font-size="10.00">::getLargestFd</text>
</a>
</g>
</g>
<!-- Node6&#45;&gt;Node10 -->
<g id="edge9" class="edge">
<title>Node6&#45;&gt;Node10</title>
<path fill="none" stroke="midnightblue" d="M595.28,-161.57C607.12,-164.5 620.11,-167.8 632,-171 646.09,-174.79 661.2,-179.06 675.41,-183.16"/>
<polygon fill="midnightblue" stroke="midnightblue" points="674.49,-186.53 685.07,-185.96 676.44,-179.81 674.49,-186.53"/>
</g>
<!-- Node11 -->
<g id="node11" class="node">
<title>Node11</title>
<g id="a_node11"><a xlink:href="classnet_1_1_timer_event_dispatcher.html#abe13976ac74b218783f77a80f051baeb" target="_top" xlink:title=" ">
<polygon fill="white" stroke="black" points="669.5,-137 669.5,-167 803.5,-167 803.5,-137 669.5,-137"/>
<text text-anchor="start" x="677.5" y="-155" font-family="Helvetica,sans-Serif" font-size="10.00">net::TimerEventDispatcher</text>
<text text-anchor="middle" x="736.5" y="-144" font-family="Helvetica,sans-Serif" font-size="10.00">::getNextTimeout</text>
</a>
</g>
</g>
<!-- Node6&#45;&gt;Node11 -->
<g id="edge10" class="edge">
<title>Node6&#45;&gt;Node11</title>
<path fill="none" stroke="midnightblue" d="M606.6,-152C622.93,-152 641.39,-152 659.11,-152"/>
<polygon fill="midnightblue" stroke="midnightblue" points="659.45,-155.5 669.45,-152 659.45,-148.5 659.45,-155.5"/>
</g>
<!-- Node12 -->
<g id="node12" class="node">
<title>Node12</title>
<g id="a_node12"><a xlink:href="classnet_1_1_event_dispatcher.html#a0904f4b57133b7260d1fee1b685c9b7a" target="_top" xlink:title=" ">
<polygon fill="white" stroke="black" points="675,-88 675,-118 798,-118 798,-88 675,-88"/>
<text text-anchor="start" x="683" y="-106" font-family="Helvetica,sans-Serif" font-size="10.00">net::EventDispatcher</text>
<text text-anchor="middle" x="736.5" y="-95" font-family="Helvetica,sans-Serif" font-size="10.00">::observeEnabledEvents</text>
</a>
</g>
</g>
<!-- Node6&#45;&gt;Node12 -->
<g id="edge11" class="edge">
<title>Node6&#45;&gt;Node12</title>
<path fill="none" stroke="midnightblue" d="M590.63,-142.44C613.32,-136.26 643.53,-128.04 670.5,-120.7"/>
<polygon fill="midnightblue" stroke="midnightblue" points="671.53,-124.04 680.26,-118.04 669.69,-117.29 671.53,-124.04"/>
</g>
<!-- Node13 -->
<g id="node13" class="node">
<title>Node13</title>
<g id="a_node13"><a xlink:href="classnet_1_1_event_loop.html#a9e6b6ee96dc68dd5ed0bfb28b2b29f6d" target="_top" xlink:title=" ">
<polygon fill="white" stroke="black" points="683,-0.5 683,-19.5 790,-19.5 790,-0.5 683,-0.5"/>
<text text-anchor="middle" x="736.5" y="-7.5" font-family="Helvetica,sans-Serif" font-size="10.00">net::EventLoop::stop</text>
</a>
</g>
</g>
<!-- Node6&#45;&gt;Node13 -->
<g id="edge12" class="edge">
<title>Node6&#45;&gt;Node13</title>
<path fill="none" stroke="midnightblue" d="M606.8,-144.52C616.04,-141.27 624.95,-136.62 632,-130 666.73,-97.37 633.18,-61.53 668,-29 669.73,-27.38 671.6,-25.9 673.56,-24.54"/>
<polygon fill="midnightblue" stroke="midnightblue" points="675.72,-27.33 682.69,-19.35 672.26,-21.25 675.72,-27.33"/>
</g>
<!-- Node14 -->
<g id="node14" class="node">
<title>Node14</title>
<g id="a_node14"><a xlink:href="classnet_1_1_event_dispatcher.html#a0cac2e5483bd4542ad11211d36db4adc" target="_top" xlink:title=" ">
<polygon fill="white" stroke="black" points="668,-39 668,-69 805,-69 805,-39 668,-39"/>
<text text-anchor="start" x="676" y="-57" font-family="Helvetica,sans-Serif" font-size="10.00">net::EventDispatcher</text>
<text text-anchor="middle" x="736.5" y="-46" font-family="Helvetica,sans-Serif" font-size="10.00">::unobserveDisabledEvents</text>
</a>
</g>
</g>
<!-- Node6&#45;&gt;Node14 -->
<g id="edge13" class="edge">
<title>Node6&#45;&gt;Node14</title>
<path fill="none" stroke="midnightblue" d="M606.68,-142.51C615.62,-139.43 624.45,-135.37 632,-130 654.61,-113.92 646,-95.91 668,-79 670.32,-77.21 672.78,-75.55 675.34,-73.99"/>
<polygon fill="midnightblue" stroke="midnightblue" points="677.22,-76.96 684.34,-69.11 673.88,-70.8 677.22,-76.96"/>
</g>
<!-- Node16 -->
<g id="node16" class="node">
<title>Node16</title>
<g id="a_node16"><a xlink:href="class_logger.html#a4099b1ab1b90f7f041e8edec6b8debf2" target="_top" xlink:title=" ">
<polygon fill="white" stroke="black" points="510,-101.5 510,-120.5 599,-120.5 599,-101.5 510,-101.5"/>
<text text-anchor="middle" x="554.5" y="-108.5" font-family="Helvetica,sans-Serif" font-size="10.00">Logger::setLevel</text>
</a>
</g>
</g>
<!-- Node15&#45;&gt;Node16 -->
<g id="edge15" class="edge">
<title>Node15&#45;&gt;Node16</title>
<path fill="none" stroke="midnightblue" d="M396.13,-111C424.32,-111 466.17,-111 499.63,-111"/>
<polygon fill="midnightblue" stroke="midnightblue" points="499.72,-114.5 509.72,-111 499.72,-107.5 499.72,-114.5"/>
</g>
<!-- Node18&#45;&gt;Node13 -->
<g id="edge18" class="edge">
<title>Node18&#45;&gt;Node13</title>
<path fill="none" stroke="midnightblue" d="M429.12,-19.08C497.64,-17.05 605.14,-13.87 672.89,-11.86"/>
<polygon fill="midnightblue" stroke="midnightblue" points="673.1,-15.35 683,-11.56 672.9,-8.35 673.1,-15.35"/>
</g>
</g>
</svg>
