<?xml version="1.0" encoding="UTF-8" standalone="no"?>
<!DOCTYPE svg PUBLIC "-//W3C//DTD SVG 1.1//EN"
 "http://www.w3.org/Graphics/SVG/1.1/DTD/svg11.dtd">
<!-- Generated by graphviz version 2.43.0 (0)
 -->
<!-- Title: net::socket::stream::SocketContextFactory Pages: 1 -->
<svg width="729pt" height="984pt"
 viewBox="0.00 0.00 728.50 984.00" xmlns="http://www.w3.org/2000/svg" xmlns:xlink="http://www.w3.org/1999/xlink">
<g id="graph0" class="graph" transform="scale(1 1) rotate(0) translate(4 980)">
<title>net::socket::stream::SocketContextFactory</title>
<polygon fill="white" stroke="transparent" points="-4,4 -4,-980 724.5,-980 724.5,4 -4,4"/>
<!-- Node1 -->
<g id="node1" class="node">
<title>Node1</title>
<g id="a_node1"><a xlink:title=" ">
<polygon fill="#bfbfbf" stroke="black" points="294.5,-885.5 294.5,-975.5 429.5,-975.5 429.5,-885.5 294.5,-885.5"/>
<text text-anchor="start" x="302.5" y="-963.5" font-family="Helvetica,sans-Serif" font-size="10.00">net::socket::stream</text>
<text text-anchor="middle" x="362" y="-952.5" font-family="Helvetica,sans-Serif" font-size="10.00">::SocketContextFactory</text>
<polyline fill="none" stroke="black" points="294.5,-945.5 429.5,-945.5 "/>
<text text-anchor="middle" x="362" y="-933.5" font-family="Helvetica,sans-Serif" font-size="10.00"> </text>
<polyline fill="none" stroke="black" points="294.5,-926.5 429.5,-926.5 "/>
<text text-anchor="start" x="302.5" y="-914.5" font-family="Helvetica,sans-Serif" font-size="10.00">+ create()</text>
<text text-anchor="start" x="302.5" y="-903.5" font-family="Helvetica,sans-Serif" font-size="10.00"># SocketContextFactory()</text>
<text text-anchor="start" x="302.5" y="-892.5" font-family="Helvetica,sans-Serif" font-size="10.00"># ~SocketContextFactory()</text>
</a>
</g>
</g>
<!-- Node2 -->
<g id="node2" class="node">
<title>Node2</title>
<g id="a_node2"><a xlink:href="classweb_1_1http_1_1_socket_context_factory.html" target="_top" xlink:title=" ">
<polygon fill="white" stroke="black" points="0,-410.5 0,-544.5 138,-544.5 138,-410.5 0,-410.5"/>
<text text-anchor="start" x="8" y="-532.5" font-family="Helvetica,sans-Serif" font-size="10.00">web::http::SocketContext</text>
<text text-anchor="start" x="8" y="-521.5" font-family="Helvetica,sans-Serif" font-size="10.00">Factory&lt; web::http::client</text>
<text text-anchor="start" x="8" y="-510.5" font-family="Helvetica,sans-Serif" font-size="10.00">::SocketContext, RequestT,</text>
<text text-anchor="middle" x="69" y="-499.5" font-family="Helvetica,sans-Serif" font-size="10.00"> ResponseT &gt;</text>
<polyline fill="none" stroke="black" points="0,-492.5 138,-492.5 "/>
<text text-anchor="middle" x="69" y="-480.5" font-family="Helvetica,sans-Serif" font-size="10.00"> </text>
<polyline fill="none" stroke="black" points="0,-473.5 138,-473.5 "/>
<text text-anchor="start" x="8" y="-461.5" font-family="Helvetica,sans-Serif" font-size="10.00">+ SocketContextFactory()</text>
<text text-anchor="start" x="8" y="-450.5" font-family="Helvetica,sans-Serif" font-size="10.00">+ SocketContextFactory()</text>
<text text-anchor="start" x="8" y="-439.5" font-family="Helvetica,sans-Serif" font-size="10.00">+ ~SocketContextFactory()</text>
<text text-anchor="start" x="8" y="-428.5" font-family="Helvetica,sans-Serif" font-size="10.00">+ operator=()</text>
<text text-anchor="start" x="8" y="-417.5" font-family="Helvetica,sans-Serif" font-size="10.00">+ create()</text>
</a>
</g>
</g>
<!-- Node1&#45;&gt;Node2 -->
<g id="edge1" class="edge">
<title>Node1&#45;&gt;Node2</title>
<path fill="none" stroke="midnightblue" d="M284.52,-917.53C239,-906.67 183.59,-886.22 148,-848 70.99,-765.31 61.85,-626.61 64.11,-544.71"/>
<polygon fill="none" stroke="midnightblue" points="283.84,-920.97 294.37,-919.77 285.4,-914.14 283.84,-920.97"/>
</g>
<!-- Node4 -->
<g id="node4" class="node">
<title>Node4</title>
<g id="a_node4"><a xlink:href="classweb_1_1http_1_1_socket_context_factory.html" target="_top" xlink:title=" ">
<polygon fill="white" stroke="black" points="167,-410.5 167,-544.5 305,-544.5 305,-410.5 167,-410.5"/>
<text text-anchor="start" x="175" y="-532.5" font-family="Helvetica,sans-Serif" font-size="10.00">web::http::SocketContext</text>
<text text-anchor="start" x="175" y="-521.5" font-family="Helvetica,sans-Serif" font-size="10.00">Factory&lt; web::http::server</text>
<text text-anchor="start" x="175" y="-510.5" font-family="Helvetica,sans-Serif" font-size="10.00">::SocketContext, RequestT,</text>
<text text-anchor="middle" x="236" y="-499.5" font-family="Helvetica,sans-Serif" font-size="10.00"> ResponseT &gt;</text>
<polyline fill="none" stroke="black" points="167,-492.5 305,-492.5 "/>
<text text-anchor="middle" x="236" y="-480.5" font-family="Helvetica,sans-Serif" font-size="10.00"> </text>
<polyline fill="none" stroke="black" points="167,-473.5 305,-473.5 "/>
<text text-anchor="start" x="175" y="-461.5" font-family="Helvetica,sans-Serif" font-size="10.00">+ SocketContextFactory()</text>
<text text-anchor="start" x="175" y="-450.5" font-family="Helvetica,sans-Serif" font-size="10.00">+ SocketContextFactory()</text>
<text text-anchor="start" x="175" y="-439.5" font-family="Helvetica,sans-Serif" font-size="10.00">+ ~SocketContextFactory()</text>
<text text-anchor="start" x="175" y="-428.5" font-family="Helvetica,sans-Serif" font-size="10.00">+ operator=()</text>
<text text-anchor="start" x="175" y="-417.5" font-family="Helvetica,sans-Serif" font-size="10.00">+ create()</text>
</a>
</g>
</g>
<!-- Node1&#45;&gt;Node4 -->
<g id="edge3" class="edge">
<title>Node1&#45;&gt;Node4</title>
<path fill="none" stroke="midnightblue" d="M364.29,-875.42C366.98,-794.13 368.72,-644.78 348,-596 338.36,-573.3 322.22,-552.4 305.16,-534.7"/>
<polygon fill="none" stroke="midnightblue" points="360.8,-875.35 363.95,-885.46 367.79,-875.59 360.8,-875.35"/>
</g>
<!-- Node6 -->
<g id="node6" class="node">
<title>Node6</title>
<g id="a_node6"><a xlink:href="classweb_1_1http_1_1_socket_context_upgrade_factory.html" target="_top" xlink:title=" ">
<polygon fill="white" stroke="black" points="397,-377.5 397,-577.5 569,-577.5 569,-377.5 397,-377.5"/>
<text text-anchor="start" x="405" y="-565.5" font-family="Helvetica,sans-Serif" font-size="10.00">web::http::SocketContext</text>
<text text-anchor="start" x="405" y="-554.5" font-family="Helvetica,sans-Serif" font-size="10.00">UpgradeFactory&lt; Request,</text>
<text text-anchor="middle" x="483" y="-543.5" font-family="Helvetica,sans-Serif" font-size="10.00"> Response &gt;</text>
<polyline fill="none" stroke="black" points="397,-536.5 569,-536.5 "/>
<text text-anchor="start" x="405" y="-524.5" font-family="Helvetica,sans-Serif" font-size="10.00"># request</text>
<text text-anchor="start" x="405" y="-513.5" font-family="Helvetica,sans-Serif" font-size="10.00"># response</text>
<text text-anchor="start" x="405" y="-502.5" font-family="Helvetica,sans-Serif" font-size="10.00"># refCount</text>
<text text-anchor="start" x="405" y="-491.5" font-family="Helvetica,sans-Serif" font-size="10.00">&#45; role</text>
<polyline fill="none" stroke="black" points="397,-484.5 569,-484.5 "/>
<text text-anchor="start" x="405" y="-472.5" font-family="Helvetica,sans-Serif" font-size="10.00">+ name()</text>
<text text-anchor="start" x="405" y="-461.5" font-family="Helvetica,sans-Serif" font-size="10.00">+ prepare()</text>
<text text-anchor="start" x="405" y="-450.5" font-family="Helvetica,sans-Serif" font-size="10.00">+ getRole()</text>
<text text-anchor="start" x="405" y="-439.5" font-family="Helvetica,sans-Serif" font-size="10.00">+ destroy()</text>
<text text-anchor="start" x="405" y="-428.5" font-family="Helvetica,sans-Serif" font-size="10.00"># SocketContextUpgradeFactory()</text>
<text text-anchor="start" x="405" y="-417.5" font-family="Helvetica,sans-Serif" font-size="10.00"># ~SocketContextUpgradeFactory()</text>
<text text-anchor="start" x="405" y="-406.5" font-family="Helvetica,sans-Serif" font-size="10.00"># incRefCount()</text>
<text text-anchor="start" x="405" y="-395.5" font-family="Helvetica,sans-Serif" font-size="10.00"># decRefCount()</text>
<text text-anchor="start" x="405" y="-384.5" font-family="Helvetica,sans-Serif" font-size="10.00"># checkRefCount()</text>
</a>
</g>
</g>
<!-- Node1&#45;&gt;Node6 -->
<g id="edge5" class="edge">
<title>Node1&#45;&gt;Node6</title>
<path fill="none" stroke="midnightblue" d="M374.18,-875.58C374.8,-872.68 375.41,-869.81 376,-867 396.45,-769.49 391.66,-742.8 419,-647 425.48,-624.28 433.71,-600.31 442.09,-577.79"/>
<polygon fill="none" stroke="midnightblue" points="370.73,-874.97 372.02,-885.48 377.57,-876.46 370.73,-874.97"/>
</g>
<!-- Node11 -->
<g id="node11" class="node">
<title>Node11</title>
<g id="a_node11"><a xlink:href="classweb_1_1http_1_1_socket_context_factory.html" target="_top" xlink:title=" ">
<polygon fill="white" stroke="black" points="157,-686 157,-809 293,-809 293,-686 157,-686"/>
<text text-anchor="start" x="165" y="-797" font-family="Helvetica,sans-Serif" font-size="10.00">web::http::SocketContext</text>
<text text-anchor="start" x="165" y="-786" font-family="Helvetica,sans-Serif" font-size="10.00">Factory&lt; SocketContextT,</text>
<text text-anchor="middle" x="225" y="-775" font-family="Helvetica,sans-Serif" font-size="10.00"> RequestT, ResponseT &gt;</text>
<polyline fill="none" stroke="black" points="157,-768 293,-768 "/>
<text text-anchor="middle" x="225" y="-756" font-family="Helvetica,sans-Serif" font-size="10.00"> </text>
<polyline fill="none" stroke="black" points="157,-749 293,-749 "/>
<text text-anchor="start" x="165" y="-737" font-family="Helvetica,sans-Serif" font-size="10.00">+ SocketContextFactory()</text>
<text text-anchor="start" x="165" y="-726" font-family="Helvetica,sans-Serif" font-size="10.00">+ ~SocketContextFactory()</text>
<text text-anchor="start" x="165" y="-715" font-family="Helvetica,sans-Serif" font-size="10.00">+ SocketContextFactory()</text>
<text text-anchor="start" x="165" y="-704" font-family="Helvetica,sans-Serif" font-size="10.00">+ operator=()</text>
<text text-anchor="start" x="165" y="-693" font-family="Helvetica,sans-Serif" font-size="10.00">+ create()</text>
</a>
</g>
</g>
<!-- Node1&#45;&gt;Node11 -->
<g id="edge10" class="edge">
<title>Node1&#45;&gt;Node11</title>
<path fill="none" stroke="midnightblue" d="M322.44,-877.24C306.31,-855.93 287.56,-831.15 270.84,-809.06"/>
<polygon fill="none" stroke="midnightblue" points="319.66,-879.36 328.49,-885.22 325.24,-875.14 319.66,-879.36"/>
</g>
<!-- Node12 -->
<g id="node12" class="node">
<title>Node12</title>
<g id="a_node12"><a xlink:href="classweb_1_1http_1_1_socket_context_upgrade_factory.html" target="_top" xlink:title=" ">
<polygon fill="white" stroke="black" points="428,-647.5 428,-847.5 600,-847.5 600,-647.5 428,-647.5"/>
<text text-anchor="start" x="436" y="-835.5" font-family="Helvetica,sans-Serif" font-size="10.00">web::http::SocketContext</text>
<text text-anchor="start" x="436" y="-824.5" font-family="Helvetica,sans-Serif" font-size="10.00">UpgradeFactory&lt; RequestT,</text>
<text text-anchor="middle" x="514" y="-813.5" font-family="Helvetica,sans-Serif" font-size="10.00"> ResponseT &gt;</text>
<polyline fill="none" stroke="black" points="428,-806.5 600,-806.5 "/>
<text text-anchor="start" x="436" y="-794.5" font-family="Helvetica,sans-Serif" font-size="10.00"># request</text>
<text text-anchor="start" x="436" y="-783.5" font-family="Helvetica,sans-Serif" font-size="10.00"># response</text>
<text text-anchor="start" x="436" y="-772.5" font-family="Helvetica,sans-Serif" font-size="10.00"># refCount</text>
<text text-anchor="start" x="436" y="-761.5" font-family="Helvetica,sans-Serif" font-size="10.00">&#45; role</text>
<polyline fill="none" stroke="black" points="428,-754.5 600,-754.5 "/>
<text text-anchor="start" x="436" y="-742.5" font-family="Helvetica,sans-Serif" font-size="10.00">+ name()</text>
<text text-anchor="start" x="436" y="-731.5" font-family="Helvetica,sans-Serif" font-size="10.00">+ prepare()</text>
<text text-anchor="start" x="436" y="-720.5" font-family="Helvetica,sans-Serif" font-size="10.00">+ getRole()</text>
<text text-anchor="start" x="436" y="-709.5" font-family="Helvetica,sans-Serif" font-size="10.00">+ destroy()</text>
<text text-anchor="start" x="436" y="-698.5" font-family="Helvetica,sans-Serif" font-size="10.00"># SocketContextUpgradeFactory()</text>
<text text-anchor="start" x="436" y="-687.5" font-family="Helvetica,sans-Serif" font-size="10.00"># ~SocketContextUpgradeFactory()</text>
<text text-anchor="start" x="436" y="-676.5" font-family="Helvetica,sans-Serif" font-size="10.00"># incRefCount()</text>
<text text-anchor="start" x="436" y="-665.5" font-family="Helvetica,sans-Serif" font-size="10.00"># decRefCount()</text>
<text text-anchor="start" x="436" y="-654.5" font-family="Helvetica,sans-Serif" font-size="10.00"># checkRefCount()</text>
</a>
</g>
</g>
<!-- Node1&#45;&gt;Node12 -->
<g id="edge13" class="edge">
<title>Node1&#45;&gt;Node12</title>
<path fill="none" stroke="midnightblue" d="M405.68,-877.48C413.59,-868.06 422.08,-857.96 430.69,-847.71"/>
<polygon fill="none" stroke="midnightblue" points="402.93,-875.31 399.18,-885.22 408.29,-879.82 402.93,-875.31"/>
</g>
<!-- Node3 -->
<g id="node3" class="node">
<title>Node3</title>
<g id="a_node3"><a xlink:href="classweb_1_1http_1_1client_1_1_socket_context_factory.html" target="_top" xlink:title=" ">
<polygon fill="white" stroke="black" points="1,-183.5 1,-339.5 137,-339.5 137,-183.5 1,-183.5"/>
<text text-anchor="start" x="9" y="-327.5" font-family="Helvetica,sans-Serif" font-size="10.00">web::http::client::</text>
<text text-anchor="start" x="9" y="-316.5" font-family="Helvetica,sans-Serif" font-size="10.00">SocketContextFactory</text>
<text text-anchor="middle" x="69" y="-305.5" font-family="Helvetica,sans-Serif" font-size="10.00">&lt; RequestT, ResponseT &gt;</text>
<polyline fill="none" stroke="black" points="1,-298.5 137,-298.5 "/>
<text text-anchor="start" x="9" y="-286.5" font-family="Helvetica,sans-Serif" font-size="10.00">&#45; onResponseReady</text>
<text text-anchor="start" x="9" y="-275.5" font-family="Helvetica,sans-Serif" font-size="10.00">&#45; onResponseError</text>
<polyline fill="none" stroke="black" points="1,-268.5 137,-268.5 "/>
<text text-anchor="start" x="9" y="-256.5" font-family="Helvetica,sans-Serif" font-size="10.00">+ SocketContextFactory()</text>
<text text-anchor="start" x="9" y="-245.5" font-family="Helvetica,sans-Serif" font-size="10.00">+ ~SocketContextFactory()</text>
<text text-anchor="start" x="9" y="-234.5" font-family="Helvetica,sans-Serif" font-size="10.00">+ SocketContextFactory()</text>
<text text-anchor="start" x="9" y="-223.5" font-family="Helvetica,sans-Serif" font-size="10.00">+ operator=()</text>
<text text-anchor="start" x="9" y="-212.5" font-family="Helvetica,sans-Serif" font-size="10.00">+ setOnResponseReady()</text>
<text text-anchor="start" x="9" y="-201.5" font-family="Helvetica,sans-Serif" font-size="10.00">+ setOnResponseError()</text>
<text text-anchor="start" x="9" y="-190.5" font-family="Helvetica,sans-Serif" font-size="10.00">&#45; create()</text>
</a>
</g>
</g>
<!-- Node2&#45;&gt;Node3 -->
<g id="edge2" class="edge">
<title>Node2&#45;&gt;Node3</title>
<path fill="none" stroke="midnightblue" d="M69,-400.14C69,-380.5 69,-359.36 69,-339.68"/>
<polygon fill="none" stroke="midnightblue" points="65.5,-400.25 69,-410.25 72.5,-400.25 65.5,-400.25"/>
</g>
<!-- Node5 -->
<g id="node5" class="node">
<title>Node5</title>
<g id="a_node5"><a xlink:href="classweb_1_1http_1_1server_1_1_socket_context_factory.html" target="_top" xlink:title=" ">
<polygon fill="white" stroke="black" points="168,-194.5 168,-328.5 304,-328.5 304,-194.5 168,-194.5"/>
<text text-anchor="start" x="176" y="-316.5" font-family="Helvetica,sans-Serif" font-size="10.00">web::http::server::</text>
<text text-anchor="start" x="176" y="-305.5" font-family="Helvetica,sans-Serif" font-size="10.00">SocketContextFactory</text>
<text text-anchor="middle" x="236" y="-294.5" font-family="Helvetica,sans-Serif" font-size="10.00">&lt; RequestT, ResponseT &gt;</text>
<polyline fill="none" stroke="black" points="168,-287.5 304,-287.5 "/>
<text text-anchor="start" x="176" y="-275.5" font-family="Helvetica,sans-Serif" font-size="10.00">&#45; onRequestReady</text>
<polyline fill="none" stroke="black" points="168,-268.5 304,-268.5 "/>
<text text-anchor="start" x="176" y="-256.5" font-family="Helvetica,sans-Serif" font-size="10.00">+ SocketContextFactory()</text>
<text text-anchor="start" x="176" y="-245.5" font-family="Helvetica,sans-Serif" font-size="10.00">+ ~SocketContextFactory()</text>
<text text-anchor="start" x="176" y="-234.5" font-family="Helvetica,sans-Serif" font-size="10.00">+ SocketContextFactory()</text>
<text text-anchor="start" x="176" y="-223.5" font-family="Helvetica,sans-Serif" font-size="10.00">+ operator=()</text>
<text text-anchor="start" x="176" y="-212.5" font-family="Helvetica,sans-Serif" font-size="10.00">+ setOnRequestReady()</text>
<text text-anchor="start" x="176" y="-201.5" font-family="Helvetica,sans-Serif" font-size="10.00">&#45; create()</text>
</a>
</g>
</g>
<!-- Node4&#45;&gt;Node5 -->
<g id="edge4" class="edge">
<title>Node4&#45;&gt;Node5</title>
<path fill="none" stroke="midnightblue" d="M236,-400.07C236,-376.77 236,-351.37 236,-328.8"/>
<polygon fill="none" stroke="midnightblue" points="232.5,-400.25 236,-410.25 239.5,-400.25 232.5,-400.25"/>
</g>
<!-- Node7 -->
<g id="node7" class="node">
<title>Node7</title>
<g id="a_node7"><a xlink:href="classweb_1_1http_1_1client_1_1_socket_context_upgrade_factory.html" target="_top" xlink:title=" ">
<polygon fill="white" stroke="black" points="369,-211 369,-312 535,-312 535,-211 369,-211"/>
<text text-anchor="start" x="377" y="-300" font-family="Helvetica,sans-Serif" font-size="10.00">web::http::client::</text>
<text text-anchor="middle" x="452" y="-289" font-family="Helvetica,sans-Serif" font-size="10.00">SocketContextUpgradeFactory</text>
<polyline fill="none" stroke="black" points="369,-282 535,-282 "/>
<text text-anchor="middle" x="452" y="-270" font-family="Helvetica,sans-Serif" font-size="10.00"> </text>
<polyline fill="none" stroke="black" points="369,-263 535,-263 "/>
<text text-anchor="start" x="377" y="-251" font-family="Helvetica,sans-Serif" font-size="10.00">+ prepare()</text>
<text text-anchor="start" x="377" y="-240" font-family="Helvetica,sans-Serif" font-size="10.00">+ checkRefCount()</text>
<text text-anchor="start" x="377" y="-229" font-family="Helvetica,sans-Serif" font-size="10.00">+ link()</text>
<text text-anchor="start" x="377" y="-218" font-family="Helvetica,sans-Serif" font-size="10.00"># SocketContextUpgradeFactory()</text>
</a>
</g>
</g>
<!-- Node6&#45;&gt;Node7 -->
<g id="edge6" class="edge">
<title>Node6&#45;&gt;Node7</title>
<path fill="none" stroke="midnightblue" d="M467.17,-367.23C464.37,-347.92 461.59,-328.7 459.19,-312.1"/>
<polygon fill="none" stroke="midnightblue" points="463.74,-367.94 468.63,-377.33 470.66,-366.93 463.74,-367.94"/>
</g>
<!-- Node9 -->
<g id="node9" class="node">
<title>Node9</title>
<g id="a_node9"><a xlink:href="classweb_1_1http_1_1server_1_1_socket_context_upgrade_factory.html" target="_top" xlink:title=" ">
<polygon fill="white" stroke="black" points="554,-216.5 554,-306.5 720,-306.5 720,-216.5 554,-216.5"/>
<text text-anchor="start" x="562" y="-294.5" font-family="Helvetica,sans-Serif" font-size="10.00">web::http::server::</text>
<text text-anchor="middle" x="637" y="-283.5" font-family="Helvetica,sans-Serif" font-size="10.00">SocketContextUpgradeFactory</text>
<polyline fill="none" stroke="black" points="554,-276.5 720,-276.5 "/>
<text text-anchor="middle" x="637" y="-264.5" font-family="Helvetica,sans-Serif" font-size="10.00"> </text>
<polyline fill="none" stroke="black" points="554,-257.5 720,-257.5 "/>
<text text-anchor="start" x="562" y="-245.5" font-family="Helvetica,sans-Serif" font-size="10.00"># SocketContextUpgradeFactory()</text>
<text text-anchor="start" x="562" y="-234.5" font-family="Helvetica,sans-Serif" font-size="10.00"># checkRefCount()</text>
<text text-anchor="start" x="562" y="-223.5" font-family="Helvetica,sans-Serif" font-size="10.00"># link()</text>
</a>
</g>
</g>
<!-- Node6&#45;&gt;Node9 -->
<g id="edge8" class="edge">
<title>Node6&#45;&gt;Node9</title>
<path fill="none" stroke="midnightblue" d="M560.23,-369.17C576.18,-347.02 592.11,-324.88 605.29,-306.56"/>
<polygon fill="none" stroke="midnightblue" points="557.37,-367.17 554.36,-377.33 563.05,-371.26 557.37,-367.17"/>
</g>
<!-- Node8 -->
<g id="node8" class="node">
<title>Node8</title>
<g id="a_node8"><a xlink:href="classweb_1_1websocket_1_1client_1_1_socket_context_upgrade_factory.html" target="_top" xlink:title=" ">
<polygon fill="white" stroke="black" points="368.5,-0.5 368.5,-145.5 535.5,-145.5 535.5,-0.5 368.5,-0.5"/>
<text text-anchor="start" x="376.5" y="-133.5" font-family="Helvetica,sans-Serif" font-size="10.00">web::websocket::client</text>
<text text-anchor="middle" x="452" y="-122.5" font-family="Helvetica,sans-Serif" font-size="10.00">::SocketContextUpgradeFactory</text>
<polyline fill="none" stroke="black" points="368.5,-115.5 535.5,-115.5 "/>
<text text-anchor="middle" x="452" y="-103.5" font-family="Helvetica,sans-Serif" font-size="10.00"> </text>
<polyline fill="none" stroke="black" points="368.5,-96.5 535.5,-96.5 "/>
<text text-anchor="start" x="376.5" y="-84.5" font-family="Helvetica,sans-Serif" font-size="10.00">+ SocketContextUpgradeFactory()</text>
<text text-anchor="start" x="376.5" y="-73.5" font-family="Helvetica,sans-Serif" font-size="10.00">+ SocketContextUpgradeFactory()</text>
<text text-anchor="start" x="376.5" y="-62.5" font-family="Helvetica,sans-Serif" font-size="10.00">+ operator=()</text>
<text text-anchor="start" x="376.5" y="-51.5" font-family="Helvetica,sans-Serif" font-size="10.00">+ destroy()</text>
<text text-anchor="start" x="376.5" y="-40.5" font-family="Helvetica,sans-Serif" font-size="10.00">+ link()</text>
<text text-anchor="start" x="376.5" y="-29.5" font-family="Helvetica,sans-Serif" font-size="10.00">&#45; prepare()</text>
<text text-anchor="start" x="376.5" y="-18.5" font-family="Helvetica,sans-Serif" font-size="10.00">&#45; name()</text>
<text text-anchor="start" x="376.5" y="-7.5" font-family="Helvetica,sans-Serif" font-size="10.00">&#45; create()</text>
</a>
</g>
</g>
<!-- Node7&#45;&gt;Node8 -->
<g id="edge7" class="edge">
<title>Node7&#45;&gt;Node8</title>
<path fill="none" stroke="midnightblue" d="M452,-200.44C452,-182.94 452,-163.64 452,-145.5"/>
<polygon fill="none" stroke="midnightblue" points="448.5,-200.52 452,-210.52 455.5,-200.52 448.5,-200.52"/>
</g>
<!-- Node10 -->
<g id="node10" class="node">
<title>Node10</title>
<g id="a_node10"><a xlink:href="classweb_1_1websocket_1_1server_1_1_socket_context_upgrade_factory.html" target="_top" xlink:title=" ">
<polygon fill="white" stroke="black" points="553.5,-6 553.5,-140 720.5,-140 720.5,-6 553.5,-6"/>
<text text-anchor="start" x="561.5" y="-128" font-family="Helvetica,sans-Serif" font-size="10.00">web::websocket::server</text>
<text text-anchor="middle" x="637" y="-117" font-family="Helvetica,sans-Serif" font-size="10.00">::SocketContextUpgradeFactory</text>
<polyline fill="none" stroke="black" points="553.5,-110 720.5,-110 "/>
<text text-anchor="middle" x="637" y="-98" font-family="Helvetica,sans-Serif" font-size="10.00"> </text>
<polyline fill="none" stroke="black" points="553.5,-91 720.5,-91 "/>
<text text-anchor="start" x="561.5" y="-79" font-family="Helvetica,sans-Serif" font-size="10.00">+ SocketContextUpgradeFactory()</text>
<text text-anchor="start" x="561.5" y="-68" font-family="Helvetica,sans-Serif" font-size="10.00">+ SocketContextUpgradeFactory()</text>
<text text-anchor="start" x="561.5" y="-57" font-family="Helvetica,sans-Serif" font-size="10.00">+ operator=()</text>
<text text-anchor="start" x="561.5" y="-46" font-family="Helvetica,sans-Serif" font-size="10.00">+ destroy()</text>
<text text-anchor="start" x="561.5" y="-35" font-family="Helvetica,sans-Serif" font-size="10.00">+ link()</text>
<text text-anchor="start" x="561.5" y="-24" font-family="Helvetica,sans-Serif" font-size="10.00">&#45; name()</text>
<text text-anchor="start" x="561.5" y="-13" font-family="Helvetica,sans-Serif" font-size="10.00">&#45; create()</text>
</a>
</g>
</g>
<!-- Node9&#45;&gt;Node10 -->
<g id="edge9" class="edge">
<title>Node9&#45;&gt;Node10</title>
<path fill="none" stroke="midnightblue" d="M637,-206.13C637,-185.49 637,-161.76 637,-140.15"/>
<polygon fill="none" stroke="midnightblue" points="633.5,-206.3 637,-216.3 640.5,-206.3 633.5,-206.3"/>
</g>
<!-- Node11&#45;&gt;Node2 -->
<g id="edge11" class="edge">
<title>Node11&#45;&gt;Node2</title>
<path fill="none" stroke="orange" d="M149.3,-690.18C130.26,-672.56 111.66,-651.72 99,-629 84.73,-603.4 77.19,-572.01 73.22,-544.54"/>
<polygon fill="orange" stroke="orange" points="147.12,-692.93 156.9,-697.02 151.81,-687.73 147.12,-692.93"/>
<text text-anchor="start" x="99" y="-621" font-family="Helvetica,sans-Serif" font-size="10.00"> &lt; web::http::client</text>
<text text-anchor="start" x="99" y="-610" font-family="Helvetica,sans-Serif" font-size="10.00">::SocketContext, RequestT,</text>
<text text-anchor="middle" x="160" y="-599" font-family="Helvetica,sans-Serif" font-size="10.00"> ResponseT &gt;</text>
</g>
<!-- Node11&#45;&gt;Node4 -->
<g id="edge12" class="edge">
<title>Node11&#45;&gt;Node4</title>
<path fill="none" stroke="orange" d="M224.33,-675.51C224.4,-650.38 224.81,-621.92 226,-596 226.76,-579.33 228.05,-561.37 229.46,-544.62"/>
<polygon fill="orange" stroke="orange" points="220.83,-675.69 224.32,-685.69 227.83,-675.7 220.83,-675.69"/>
<text text-anchor="start" x="226" y="-621" font-family="Helvetica,sans-Serif" font-size="10.00"> &lt; web::http::server</text>
<text text-anchor="start" x="226" y="-610" font-family="Helvetica,sans-Serif" font-size="10.00">::SocketContext, RequestT,</text>
<text text-anchor="middle" x="287" y="-599" font-family="Helvetica,sans-Serif" font-size="10.00"> ResponseT &gt;</text>
</g>
<!-- Node12&#45;&gt;Node6 -->
<g id="edge14" class="edge">
<title>Node12&#45;&gt;Node6</title>
<path fill="none" stroke="orange" d="M501.39,-637.49C499.1,-617.67 496.72,-597.09 494.46,-577.57"/>
<polygon fill="orange" stroke="orange" points="497.92,-637.94 502.54,-647.47 504.87,-637.13 497.92,-637.94"/>
<text text-anchor="middle" x="555.5" y="-610" font-family="Helvetica,sans-Serif" font-size="10.00"> &lt; Request, Response &gt;</text>
</g>
</g>
</svg>
