<?xml version="1.0" encoding="UTF-8" standalone="no"?>
<!DOCTYPE svg PUBLIC "-//W3C//DTD SVG 1.1//EN"
 "http://www.w3.org/Graphics/SVG/1.1/DTD/svg11.dtd">
<!-- Generated by graphviz version 2.43.0 (0)
 -->
<!-- Title: net::Descriptor::getFd Pages: 1 -->
<svg width="307pt" height="618pt"
 viewBox="0.00 0.00 307.00 618.00" xmlns="http://www.w3.org/2000/svg" xmlns:xlink="http://www.w3.org/1999/xlink">
<g id="graph0" class="graph" transform="scale(1 1) rotate(0) translate(4 614)">
<title>net::Descriptor::getFd</title>
<polygon fill="white" stroke="transparent" points="-4,4 -4,-614 303,-614 303,4 -4,4"/>
<!-- Node1 -->
<g id="node1" class="node">
<title>Node1</title>
<g id="a_node1"><a xlink:title=" ">
<polygon fill="#bfbfbf" stroke="black" points="187,-262.5 187,-281.5 299,-281.5 299,-262.5 187,-262.5"/>
<text text-anchor="middle" x="243" y="-269.5" font-family="Helvetica,sans-Serif" font-size="10.00">net::Descriptor::getFd</text>
</a>
</g>
</g>
<!-- Node2 -->
<g id="node2" class="node">
<title>Node2</title>
<g id="a_node2"><a xlink:href="classnet_1_1socket_1_1stream_1_1_socket_listener.html#a3b30d5f8724c141508ce914c25a9ae7f" target="_top" xlink:title=" ">
<polygon fill="white" stroke="black" points="1,-546.5 1,-609.5 150,-609.5 150,-546.5 1,-546.5"/>
<text text-anchor="start" x="9" y="-597.5" font-family="Helvetica,sans-Serif" font-size="10.00">net::socket::stream</text>
<text text-anchor="start" x="9" y="-586.5" font-family="Helvetica,sans-Serif" font-size="10.00">::SocketListener&lt; net</text>
<text text-anchor="start" x="9" y="-575.5" font-family="Helvetica,sans-Serif" font-size="10.00">::socket::stream::tls</text>
<text text-anchor="start" x="9" y="-564.5" font-family="Helvetica,sans-Serif" font-size="10.00">::SocketConnection&lt; SocketT</text>
<text text-anchor="middle" x="75.5" y="-553.5" font-family="Helvetica,sans-Serif" font-size="10.00"> &gt; &gt;::acceptEvent</text>
</a>
</g>
</g>
<!-- Node1&#45;&gt;Node2 -->
<g id="edge1" class="edge">
<title>Node1&#45;&gt;Node2</title>
<path fill="none" stroke="midnightblue" d="M240.07,-291.81C234.49,-339.34 214.49,-461.51 151,-537 148.15,-540.39 144.94,-543.55 141.51,-546.48"/>
<polygon fill="midnightblue" stroke="midnightblue" points="243.57,-291.96 241.17,-281.64 236.61,-291.21 243.57,-291.96"/>
</g>
<!-- Node3 -->
<g id="node3" class="node">
<title>Node3</title>
<g id="a_node3"><a xlink:href="classnet_1_1socket_1_1_socket.html#a1ce7ef4ad82e2035af1c9f9d752112b8" target="_top" xlink:title=" ">
<polygon fill="white" stroke="black" points="9.5,-486.5 9.5,-527.5 141.5,-527.5 141.5,-486.5 9.5,-486.5"/>
<text text-anchor="start" x="17.5" y="-515.5" font-family="Helvetica,sans-Serif" font-size="10.00">net::socket::Socket</text>
<text text-anchor="start" x="17.5" y="-504.5" font-family="Helvetica,sans-Serif" font-size="10.00">&lt; net::socket::ip::address</text>
<text text-anchor="middle" x="75.5" y="-493.5" font-family="Helvetica,sans-Serif" font-size="10.00">::ipv6::InetAddress &gt;::bind</text>
</a>
</g>
</g>
<!-- Node1&#45;&gt;Node3 -->
<g id="edge2" class="edge">
<title>Node1&#45;&gt;Node3</title>
<path fill="none" stroke="midnightblue" d="M238.46,-291.45C230.21,-331.49 206.05,-423.84 151,-477 147.39,-480.49 143.32,-483.59 138.99,-486.34"/>
<polygon fill="midnightblue" stroke="midnightblue" points="241.9,-292.1 240.38,-281.62 235.03,-290.76 241.9,-292.1"/>
</g>
<!-- Node4 -->
<g id="node4" class="node">
<title>Node4</title>
<g id="a_node4"><a xlink:href="classnet_1_1socket_1_1stream_1_1_socket_connector.html#ab60d4ae33dd6f52f4bc3fd629bba4ddf" target="_top" xlink:title=" ">
<polygon fill="white" stroke="black" points="1,-404.5 1,-467.5 150,-467.5 150,-404.5 1,-404.5"/>
<text text-anchor="start" x="9" y="-455.5" font-family="Helvetica,sans-Serif" font-size="10.00">net::socket::stream</text>
<text text-anchor="start" x="9" y="-444.5" font-family="Helvetica,sans-Serif" font-size="10.00">::SocketConnector&lt; net</text>
<text text-anchor="start" x="9" y="-433.5" font-family="Helvetica,sans-Serif" font-size="10.00">::socket::stream::tls</text>
<text text-anchor="start" x="9" y="-422.5" font-family="Helvetica,sans-Serif" font-size="10.00">::SocketConnection&lt; SocketT</text>
<text text-anchor="middle" x="75.5" y="-411.5" font-family="Helvetica,sans-Serif" font-size="10.00"> &gt; &gt;::connect</text>
</a>
</g>
</g>
<!-- Node1&#45;&gt;Node4 -->
<g id="edge3" class="edge">
<title>Node1&#45;&gt;Node4</title>
<path fill="none" stroke="midnightblue" d="M231.78,-290.53C216.76,-316.45 186.64,-363.84 151,-395 147.22,-398.3 143.13,-401.45 138.88,-404.43"/>
<polygon fill="midnightblue" stroke="midnightblue" points="234.88,-292.15 236.77,-281.73 228.79,-288.7 234.88,-292.15"/>
</g>
<!-- Node5 -->
<g id="node5" class="node">
<title>Node5</title>
<g id="a_node5"><a xlink:href="classnet_1_1socket_1_1stream_1_1_socket_connector.html#acb928c04763dadc6adcb9c7d711d0348" target="_top" xlink:title=" ">
<polygon fill="white" stroke="black" points="1,-322.5 1,-385.5 150,-385.5 150,-322.5 1,-322.5"/>
<text text-anchor="start" x="9" y="-373.5" font-family="Helvetica,sans-Serif" font-size="10.00">net::socket::stream</text>
<text text-anchor="start" x="9" y="-362.5" font-family="Helvetica,sans-Serif" font-size="10.00">::SocketConnector&lt; net</text>
<text text-anchor="start" x="9" y="-351.5" font-family="Helvetica,sans-Serif" font-size="10.00">::socket::stream::tls</text>
<text text-anchor="start" x="9" y="-340.5" font-family="Helvetica,sans-Serif" font-size="10.00">::SocketConnection&lt; SocketT</text>
<text text-anchor="middle" x="75.5" y="-329.5" font-family="Helvetica,sans-Serif" font-size="10.00"> &gt; &gt;::connectEvent</text>
</a>
</g>
</g>
<!-- Node1&#45;&gt;Node5 -->
<g id="edge4" class="edge">
<title>Node1&#45;&gt;Node5</title>
<path fill="none" stroke="midnightblue" d="M213.46,-286.14C193.32,-296.12 165.52,-309.89 140.23,-322.42"/>
<polygon fill="midnightblue" stroke="midnightblue" points="215.28,-289.14 222.69,-281.57 212.18,-282.87 215.28,-289.14"/>
</g>
<!-- Node6 -->
<g id="node6" class="node">
<title>Node6</title>
<g id="a_node6"><a xlink:href="classnet_1_1socket_1_1stream_1_1_socket_listener.html#a65a56ae174b82842b81b1e7c2f1a5a34" target="_top" xlink:title=" ">
<polygon fill="white" stroke="black" points="1,-240.5 1,-303.5 150,-303.5 150,-240.5 1,-240.5"/>
<text text-anchor="start" x="9" y="-291.5" font-family="Helvetica,sans-Serif" font-size="10.00">net::socket::stream</text>
<text text-anchor="start" x="9" y="-280.5" font-family="Helvetica,sans-Serif" font-size="10.00">::SocketListener&lt; net</text>
<text text-anchor="start" x="9" y="-269.5" font-family="Helvetica,sans-Serif" font-size="10.00">::socket::stream::tls</text>
<text text-anchor="start" x="9" y="-258.5" font-family="Helvetica,sans-Serif" font-size="10.00">::SocketConnection&lt; SocketT</text>
<text text-anchor="middle" x="75.5" y="-247.5" font-family="Helvetica,sans-Serif" font-size="10.00"> &gt; &gt;::listen</text>
</a>
</g>
</g>
<!-- Node1&#45;&gt;Node6 -->
<g id="edge5" class="edge">
<title>Node1&#45;&gt;Node6</title>
<path fill="none" stroke="midnightblue" d="M176.8,-272C168.07,-272 159.08,-272 150.22,-272"/>
<polygon fill="midnightblue" stroke="midnightblue" points="176.89,-275.5 186.89,-272 176.89,-268.5 176.89,-275.5"/>
</g>
<!-- Node7 -->
<g id="node7" class="node">
<title>Node7</title>
<g id="a_node7"><a xlink:href="class_file_reader.html#a1ce08aad9d9f0b025576ee1e51009c9c" target="_top" xlink:title=" ">
<polygon fill="white" stroke="black" points="18.5,-202.5 18.5,-221.5 132.5,-221.5 132.5,-202.5 18.5,-202.5"/>
<text text-anchor="middle" x="75.5" y="-209.5" font-family="Helvetica,sans-Serif" font-size="10.00">FileReader::readEvent</text>
</a>
</g>
</g>
<!-- Node1&#45;&gt;Node7 -->
<g id="edge6" class="edge">
<title>Node1&#45;&gt;Node7</title>
<path fill="none" stroke="midnightblue" d="M214.02,-257.87C196.28,-249.29 172.67,-238.58 151,-231 140.92,-227.47 129.87,-224.3 119.43,-221.59"/>
<polygon fill="midnightblue" stroke="midnightblue" points="212.7,-261.12 223.22,-262.38 215.78,-254.83 212.7,-261.12"/>
</g>
<!-- Node8 -->
<g id="node8" class="node">
<title>Node8</title>
<g id="a_node8"><a xlink:href="classnet_1_1socket_1_1stream_1_1_socket_listener.html#a31d10dd0fe920ee20fce4b6fd3aee70a" target="_top" xlink:title=" ">
<polygon fill="white" stroke="black" points="1,-120.5 1,-183.5 150,-183.5 150,-120.5 1,-120.5"/>
<text text-anchor="start" x="9" y="-171.5" font-family="Helvetica,sans-Serif" font-size="10.00">net::socket::stream</text>
<text text-anchor="start" x="9" y="-160.5" font-family="Helvetica,sans-Serif" font-size="10.00">::SocketListener&lt; net</text>
<text text-anchor="start" x="9" y="-149.5" font-family="Helvetica,sans-Serif" font-size="10.00">::socket::stream::tls</text>
<text text-anchor="start" x="9" y="-138.5" font-family="Helvetica,sans-Serif" font-size="10.00">::SocketConnection&lt; SocketT</text>
<text text-anchor="middle" x="75.5" y="-127.5" font-family="Helvetica,sans-Serif" font-size="10.00"> &gt; &gt;::reuseAddress</text>
</a>
</g>
</g>
<!-- Node1&#45;&gt;Node8 -->
<g id="edge7" class="edge">
<title>Node1&#45;&gt;Node8</title>
<path fill="none" stroke="midnightblue" d="M224.93,-255.22C207.29,-238.36 178.53,-212.2 151,-193 146.4,-189.79 141.52,-186.63 136.55,-183.58"/>
<polygon fill="midnightblue" stroke="midnightblue" points="222.59,-257.82 232.21,-262.25 227.45,-252.78 222.59,-257.82"/>
</g>
<!-- Node9 -->
<g id="node9" class="node">
<title>Node9</title>
<g id="a_node9"><a xlink:href="classnet_1_1socket_1_1stream_1_1tls_1_1_socket_connection.html#a7ef6031f0b6f3dc25efa7f844bab63b9" target="_top" xlink:title=" ">
<polygon fill="white" stroke="black" points="16,-60.5 16,-101.5 135,-101.5 135,-60.5 16,-60.5"/>
<text text-anchor="start" x="24" y="-89.5" font-family="Helvetica,sans-Serif" font-size="10.00">net::socket::stream</text>
<text text-anchor="start" x="24" y="-78.5" font-family="Helvetica,sans-Serif" font-size="10.00">::tls::SocketConnection</text>
<text text-anchor="middle" x="75.5" y="-67.5" font-family="Helvetica,sans-Serif" font-size="10.00">::startSSL</text>
</a>
</g>
</g>
<!-- Node1&#45;&gt;Node9 -->
<g id="edge8" class="edge">
<title>Node1&#45;&gt;Node9</title>
<path fill="none" stroke="midnightblue" d="M235.87,-252.69C224.37,-219.39 196.54,-150.91 151,-111 146.28,-106.86 140.92,-103.26 135.29,-100.12"/>
<polygon fill="midnightblue" stroke="midnightblue" points="232.55,-253.8 239.03,-262.18 239.19,-251.59 232.55,-253.8"/>
</g>
<!-- Node10 -->
<g id="node10" class="node">
<title>Node10</title>
<g id="a_node10"><a xlink:href="classnet_1_1socket_1_1_socket.html#a1943874bf03dc9c9eb5b88e08bb5edd9" target="_top" xlink:title=" ">
<polygon fill="white" stroke="black" points="0,-0.5 0,-41.5 151,-41.5 151,-0.5 0,-0.5"/>
<text text-anchor="start" x="8" y="-29.5" font-family="Helvetica,sans-Serif" font-size="10.00">net::socket::Socket</text>
<text text-anchor="start" x="8" y="-18.5" font-family="Helvetica,sans-Serif" font-size="10.00">&lt; net::socket::ip::address</text>
<text text-anchor="middle" x="75.5" y="-7.5" font-family="Helvetica,sans-Serif" font-size="10.00">::ipv6::InetAddress &gt;::~Socket</text>
</a>
</g>
</g>
<!-- Node1&#45;&gt;Node10 -->
<g id="edge9" class="edge">
<title>Node1&#45;&gt;Node10</title>
<path fill="none" stroke="midnightblue" d="M239.11,-252.2C231.93,-209.71 209.4,-108.95 151,-51 147.44,-47.46 143.4,-44.33 139.1,-41.55"/>
<polygon fill="midnightblue" stroke="midnightblue" points="235.67,-252.8 240.69,-262.12 242.58,-251.7 235.67,-252.8"/>
</g>
</g>
</svg>
