<?xml version="1.0" encoding="UTF-8" standalone="no"?>
<!DOCTYPE svg PUBLIC "-//W3C//DTD SVG 1.1//EN"
 "http://www.w3.org/Graphics/SVG/1.1/DTD/svg11.dtd">
<!-- Generated by graphviz version 2.43.0 (0)
 -->
<!-- Title: net::socket::stream::tls::SocketReader::read Pages: 1 -->
<svg width="1144pt" height="822pt"
 viewBox="0.00 0.00 1144.00 821.50" xmlns="http://www.w3.org/2000/svg" xmlns:xlink="http://www.w3.org/1999/xlink">
<g id="graph0" class="graph" transform="scale(1 1) rotate(0) translate(4 817.5)">
<title>net::socket::stream::tls::SocketReader::read</title>
<polygon fill="white" stroke="transparent" points="-4,4 -4,-817.5 1140,-817.5 1140,4 -4,4"/>
<!-- Node1 -->
<g id="node1" class="node">
<title>Node1</title>
<g id="a_node1"><a xlink:title=" ">
<polygon fill="#bfbfbf" stroke="black" points="0,-262 0,-292 126,-292 126,-262 0,-262"/>
<text text-anchor="start" x="8" y="-280" font-family="Helvetica,sans-Serif" font-size="10.00">net::socket::stream</text>
<text text-anchor="middle" x="63" y="-269" font-family="Helvetica,sans-Serif" font-size="10.00">::tls::SocketReader::read</text>
</a>
</g>
</g>
<!-- Node2 -->
<g id="node2" class="node">
<title>Node2</title>
<g id="a_node2"><a xlink:href="classnet_1_1_read_event_receiver.html#a1aa12164e4a0363f8a61acdceb44cd0c" target="_top" xlink:title=" ">
<polygon fill="white" stroke="black" points="450,-285 450,-315 574,-315 574,-285 450,-285"/>
<text text-anchor="start" x="458" y="-303" font-family="Helvetica,sans-Serif" font-size="10.00">net::ReadEventReceiver</text>
<text text-anchor="middle" x="512" y="-292" font-family="Helvetica,sans-Serif" font-size="10.00">::disable</text>
</a>
</g>
</g>
<!-- Node1&#45;&gt;Node2 -->
<g id="edge1" class="edge">
<title>Node1&#45;&gt;Node2</title>
<path fill="none" stroke="midnightblue" d="M126.09,-286.98C137.98,-288.57 150.35,-290.02 162,-291 257.85,-299.05 368.98,-300.58 439.61,-300.58"/>
<polygon fill="midnightblue" stroke="midnightblue" points="439.73,-304.08 449.73,-300.57 439.73,-297.08 439.73,-304.08"/>
</g>
<!-- Node8 -->
<g id="node8" class="node">
<title>Node8</title>
<g id="a_node8"><a xlink:href="classnet_1_1socket_1_1stream_1_1tls_1_1_t_l_s_handshake.html#a2c4876e61d8860846d4caa2195e46231" target="_top" xlink:title=" ">
<polygon fill="white" stroke="black" points="162,-378.5 162,-419.5 269,-419.5 269,-378.5 162,-378.5"/>
<text text-anchor="start" x="170" y="-407.5" font-family="Helvetica,sans-Serif" font-size="10.00">net::socket::stream</text>
<text text-anchor="start" x="170" y="-396.5" font-family="Helvetica,sans-Serif" font-size="10.00">::tls::TLSHandshake</text>
<text text-anchor="middle" x="215.5" y="-385.5" font-family="Helvetica,sans-Serif" font-size="10.00">::doHandshake</text>
</a>
</g>
</g>
<!-- Node1&#45;&gt;Node8 -->
<g id="edge7" class="edge">
<title>Node1&#45;&gt;Node8</title>
<path fill="none" stroke="midnightblue" d="M82.76,-292.2C107.35,-312.14 150.92,-347.46 181.18,-371.99"/>
<polygon fill="midnightblue" stroke="midnightblue" points="178.98,-374.72 188.96,-378.29 183.39,-369.28 178.98,-374.72"/>
</g>
<!-- Node21 -->
<g id="node21" class="node">
<title>Node21</title>
<g id="a_node21"><a xlink:href="classnet_1_1_read_event_receiver.html#adcedf098e91620409d7c8e9863c9ffce" target="_top" xlink:title=" ">
<polygon fill="white" stroke="black" points="450,-202 450,-232 574,-232 574,-202 450,-202"/>
<text text-anchor="start" x="458" y="-220" font-family="Helvetica,sans-Serif" font-size="10.00">net::ReadEventReceiver</text>
<text text-anchor="middle" x="512" y="-209" font-family="Helvetica,sans-Serif" font-size="10.00">::resume</text>
</a>
</g>
</g>
<!-- Node1&#45;&gt;Node21 -->
<g id="edge35" class="edge">
<title>Node1&#45;&gt;Node21</title>
<path fill="none" stroke="midnightblue" d="M126.23,-280.02C196.92,-281.99 315.28,-280.81 414,-258 434.29,-253.31 455.73,-244.68 473.28,-236.54"/>
<polygon fill="midnightblue" stroke="midnightblue" points="475.07,-239.56 482.59,-232.1 472.06,-233.24 475.07,-239.56"/>
</g>
<!-- Node26 -->
<g id="node26" class="node">
<title>Node26</title>
<g id="a_node26"><a xlink:href="namespacenet_1_1socket_1_1stream_1_1tls.html#afde8379e5ec869b4670b8c7ed7392b2e" target="_top" xlink:title=" ">
<polygon fill="white" stroke="black" points="165,-218 165,-248 266,-248 266,-218 165,-218"/>
<text text-anchor="start" x="173" y="-236" font-family="Helvetica,sans-Serif" font-size="10.00">net::socket::stream</text>
<text text-anchor="middle" x="215.5" y="-225" font-family="Helvetica,sans-Serif" font-size="10.00">::tls::ssl_log</text>
</a>
</g>
</g>
<!-- Node1&#45;&gt;Node26 -->
<g id="edge42" class="edge">
<title>Node1&#45;&gt;Node26</title>
<path fill="none" stroke="midnightblue" d="M115.37,-261.98C128.13,-258.25 141.91,-254.22 155.02,-250.39"/>
<polygon fill="midnightblue" stroke="midnightblue" points="156.27,-253.67 164.89,-247.51 154.3,-246.95 156.27,-253.67"/>
</g>
<!-- Node29 -->
<g id="node29" class="node">
<title>Node29</title>
<g id="a_node29"><a xlink:href="classnet_1_1_read_event_receiver.html#a4a0eb84c0e1e30afb8fe0c4bc2d5e57c" target="_top" xlink:title=" ">
<polygon fill="white" stroke="black" points="450,-144 450,-174 574,-174 574,-144 450,-144"/>
<text text-anchor="start" x="458" y="-162" font-family="Helvetica,sans-Serif" font-size="10.00">net::ReadEventReceiver</text>
<text text-anchor="middle" x="512" y="-151" font-family="Helvetica,sans-Serif" font-size="10.00">::suspend</text>
</a>
</g>
</g>
<!-- Node1&#45;&gt;Node29 -->
<g id="edge45" class="edge">
<title>Node1&#45;&gt;Node29</title>
<path fill="none" stroke="midnightblue" d="M82.55,-261.83C101.58,-246.85 132.48,-224.05 162,-209 221.98,-178.42 238.62,-170.27 305,-159 349.27,-151.48 399.68,-151.34 439.55,-153.15"/>
<polygon fill="midnightblue" stroke="midnightblue" points="439.54,-156.65 449.71,-153.66 439.9,-149.66 439.54,-156.65"/>
</g>
<!-- Node3 -->
<g id="node3" class="node">
<title>Node3</title>
<g id="a_node3"><a xlink:href="classnet_1_1_descriptor_event_dispatcher.html#a0f682135c09bd279cd315a0bdf885473" target="_top" xlink:title=" ">
<polygon fill="white" stroke="black" points="610,-498 610,-528 764,-528 764,-498 610,-498"/>
<text text-anchor="start" x="618" y="-516" font-family="Helvetica,sans-Serif" font-size="10.00">net::DescriptorEventDispatcher</text>
<text text-anchor="middle" x="687" y="-505" font-family="Helvetica,sans-Serif" font-size="10.00">::disable</text>
</a>
</g>
</g>
<!-- Node2&#45;&gt;Node3 -->
<g id="edge2" class="edge">
<title>Node2&#45;&gt;Node3</title>
<path fill="none" stroke="midnightblue" d="M516.53,-315.26C525.59,-351.05 553.08,-440.93 610,-489 611.51,-490.27 613.08,-491.48 614.71,-492.62"/>
<polygon fill="midnightblue" stroke="midnightblue" points="612.9,-495.61 623.27,-497.81 616.53,-489.63 612.9,-495.61"/>
</g>
<!-- Node6 -->
<g id="node6" class="node">
<title>Node6</title>
<g id="a_node6"><a xlink:href="classnet_1_1_event_loop.html#ace10fc7540ecf33dbd7efeb50f2a6a4d" target="_top" xlink:title=" ">
<polygon fill="white" stroke="black" points="611.5,-236 611.5,-266 762.5,-266 762.5,-236 611.5,-236"/>
<text text-anchor="start" x="619.5" y="-254" font-family="Helvetica,sans-Serif" font-size="10.00">net::EventLoop::getReadEvent</text>
<text text-anchor="middle" x="687" y="-243" font-family="Helvetica,sans-Serif" font-size="10.00">Dispatcher</text>
</a>
</g>
</g>
<!-- Node2&#45;&gt;Node6 -->
<g id="edge5" class="edge">
<title>Node2&#45;&gt;Node6</title>
<path fill="none" stroke="midnightblue" d="M566.32,-284.9C584.24,-279.82 604.41,-274.11 623.01,-268.84"/>
<polygon fill="midnightblue" stroke="midnightblue" points="624.19,-272.14 632.86,-266.05 622.28,-265.41 624.19,-272.14"/>
</g>
<!-- Node7 -->
<g id="node7" class="node">
<title>Node7</title>
<g id="a_node7"><a xlink:href="classnet_1_1_event_loop.html#a6d8bfd6fa03bb6bf423035ab190657ef" target="_top" xlink:title=" ">
<polygon fill="white" stroke="black" points="814.5,-284.5 814.5,-303.5 939.5,-303.5 939.5,-284.5 814.5,-284.5"/>
<text text-anchor="middle" x="877" y="-291.5" font-family="Helvetica,sans-Serif" font-size="10.00">net::EventLoop::instance</text>
</a>
</g>
</g>
<!-- Node2&#45;&gt;Node7 -->
<g id="edge6" class="edge">
<title>Node2&#45;&gt;Node7</title>
<path fill="none" stroke="midnightblue" d="M574.17,-298.99C637.69,-297.94 736.99,-296.3 804.19,-295.19"/>
<polygon fill="midnightblue" stroke="midnightblue" points="804.34,-298.69 814.28,-295.02 804.22,-291.69 804.34,-298.69"/>
</g>
<!-- Node4 -->
<g id="node4" class="node">
<title>Node4</title>
<g id="a_node4"><a xlink:href="classnet_1_1_descriptor_event_receiver.html#a916b81700981f60b692e0e673536d120" target="_top" xlink:title=" ">
<polygon fill="white" stroke="black" points="804,-498 804,-528 950,-528 950,-498 804,-498"/>
<text text-anchor="start" x="812" y="-516" font-family="Helvetica,sans-Serif" font-size="10.00">net::DescriptorEventReceiver</text>
<text text-anchor="middle" x="877" y="-505" font-family="Helvetica,sans-Serif" font-size="10.00">::disabled</text>
</a>
</g>
</g>
<!-- Node3&#45;&gt;Node4 -->
<g id="edge3" class="edge">
<title>Node3&#45;&gt;Node4</title>
<path fill="none" stroke="midnightblue" d="M764.2,-513C773.94,-513 783.95,-513 793.79,-513"/>
<polygon fill="midnightblue" stroke="midnightblue" points="793.95,-516.5 803.95,-513 793.95,-509.5 793.95,-516.5"/>
</g>
<!-- Node5 -->
<g id="node5" class="node">
<title>Node5</title>
<g id="a_node5"><a xlink:href="classnet_1_1_descriptor_event_receiver.html#a58562b1da4bc4f87bc7c51eb04db62a4" target="_top" xlink:title=" ">
<polygon fill="white" stroke="black" points="804,-586 804,-616 950,-616 950,-586 804,-586"/>
<text text-anchor="start" x="812" y="-604" font-family="Helvetica,sans-Serif" font-size="10.00">net::DescriptorEventReceiver</text>
<text text-anchor="middle" x="877" y="-593" font-family="Helvetica,sans-Serif" font-size="10.00">::isEnabled</text>
</a>
</g>
</g>
<!-- Node3&#45;&gt;Node5 -->
<g id="edge4" class="edge">
<title>Node3&#45;&gt;Node5</title>
<path fill="none" stroke="midnightblue" d="M720.32,-528.13C751.89,-542.91 800.08,-565.46 834.48,-581.56"/>
<polygon fill="midnightblue" stroke="midnightblue" points="833.25,-584.85 843.79,-585.92 836.22,-578.51 833.25,-584.85"/>
</g>
<!-- Node9 -->
<g id="node9" class="node">
<title>Node9</title>
<g id="a_node9"><a xlink:href="classnet_1_1socket_1_1stream_1_1tls_1_1_t_l_s_handshake.html#ad0daae6842f143fcf3d1a7c6d667a160" target="_top" xlink:title=" ">
<polygon fill="white" stroke="black" points="306,-432.5 306,-473.5 413,-473.5 413,-432.5 306,-432.5"/>
<text text-anchor="start" x="314" y="-461.5" font-family="Helvetica,sans-Serif" font-size="10.00">net::socket::stream</text>
<text text-anchor="start" x="314" y="-450.5" font-family="Helvetica,sans-Serif" font-size="10.00">::tls::TLSHandshake</text>
<text text-anchor="middle" x="359.5" y="-439.5" font-family="Helvetica,sans-Serif" font-size="10.00">::TLSHandshake</text>
</a>
</g>
</g>
<!-- Node8&#45;&gt;Node9 -->
<g id="edge8" class="edge">
<title>Node8&#45;&gt;Node9</title>
<path fill="none" stroke="midnightblue" d="M269.38,-419.11C278.06,-422.41 287.14,-425.86 296.03,-429.24"/>
<polygon fill="midnightblue" stroke="midnightblue" points="294.99,-432.59 305.58,-432.88 297.48,-426.05 294.99,-432.59"/>
</g>
<!-- Node10 -->
<g id="node10" class="node">
<title>Node10</title>
<g id="a_node10"><a xlink:href="classnet_1_1_read_event_receiver.html#a76e7c2bb8c733ec5651f5dc7efd9d140" target="_top" xlink:title=" ">
<polygon fill="white" stroke="black" points="450,-482 450,-512 574,-512 574,-482 450,-482"/>
<text text-anchor="start" x="458" y="-500" font-family="Helvetica,sans-Serif" font-size="10.00">net::ReadEventReceiver</text>
<text text-anchor="middle" x="512" y="-489" font-family="Helvetica,sans-Serif" font-size="10.00">::enable</text>
</a>
</g>
</g>
<!-- Node9&#45;&gt;Node10 -->
<g id="edge9" class="edge">
<title>Node9&#45;&gt;Node10</title>
<path fill="none" stroke="midnightblue" d="M413.14,-468.39C425.04,-471.87 437.78,-475.59 450,-479.17"/>
<polygon fill="midnightblue" stroke="midnightblue" points="449.08,-482.54 459.66,-481.99 451.04,-475.82 449.08,-482.54"/>
</g>
<!-- Node14 -->
<g id="node14" class="node">
<title>Node14</title>
<g id="a_node14"><a xlink:href="classnet_1_1_read_event_receiver.html#aea825386993599725315eb7fb0719aa4" target="_top" xlink:title=" ">
<polygon fill="white" stroke="black" points="625,-449 625,-479 749,-479 749,-449 625,-449"/>
<text text-anchor="start" x="633" y="-467" font-family="Helvetica,sans-Serif" font-size="10.00">net::ReadEventReceiver</text>
<text text-anchor="middle" x="687" y="-456" font-family="Helvetica,sans-Serif" font-size="10.00">::setTimeout</text>
</a>
</g>
</g>
<!-- Node9&#45;&gt;Node14 -->
<g id="edge33" class="edge">
<title>Node9&#45;&gt;Node14</title>
<path fill="none" stroke="midnightblue" d="M413.16,-454.78C467.84,-456.63 553.74,-459.53 614.53,-461.58"/>
<polygon fill="midnightblue" stroke="midnightblue" points="614.71,-465.09 624.82,-461.93 614.94,-458.1 614.71,-465.09"/>
</g>
<!-- Node18 -->
<g id="node18" class="node">
<title>Node18</title>
<g id="a_node18"><a xlink:href="classnet_1_1_write_event_receiver.html#a817b5da7ef377a0ceb397410c8b39286" target="_top" xlink:title=" ">
<polygon fill="white" stroke="black" points="450.5,-558 450.5,-588 573.5,-588 573.5,-558 450.5,-558"/>
<text text-anchor="start" x="458.5" y="-576" font-family="Helvetica,sans-Serif" font-size="10.00">net::WriteEventReceiver</text>
<text text-anchor="middle" x="512" y="-565" font-family="Helvetica,sans-Serif" font-size="10.00">::enable</text>
</a>
</g>
</g>
<!-- Node9&#45;&gt;Node18 -->
<g id="edge23" class="edge">
<title>Node9&#45;&gt;Node18</title>
<path fill="none" stroke="midnightblue" d="M386.37,-473.63C413.64,-495.37 456.39,-529.46 484.06,-551.52"/>
<polygon fill="midnightblue" stroke="midnightblue" points="482.12,-554.45 492.12,-557.95 486.49,-548.98 482.12,-554.45"/>
</g>
<!-- Node20 -->
<g id="node20" class="node">
<title>Node20</title>
<g id="a_node20"><a xlink:href="classnet_1_1_write_event_receiver.html#ae87f05383b78fdd0047b691efc3c4e5c" target="_top" xlink:title=" ">
<polygon fill="white" stroke="black" points="625.5,-400 625.5,-430 748.5,-430 748.5,-400 625.5,-400"/>
<text text-anchor="start" x="633.5" y="-418" font-family="Helvetica,sans-Serif" font-size="10.00">net::WriteEventReceiver</text>
<text text-anchor="middle" x="687" y="-407" font-family="Helvetica,sans-Serif" font-size="10.00">::setTimeout</text>
</a>
</g>
</g>
<!-- Node9&#45;&gt;Node20 -->
<g id="edge34" class="edge">
<title>Node9&#45;&gt;Node20</title>
<path fill="none" stroke="midnightblue" d="M413.16,-446.85C468.01,-440.45 554.28,-430.38 615.1,-423.28"/>
<polygon fill="midnightblue" stroke="midnightblue" points="615.86,-426.71 625.39,-422.08 615.05,-419.76 615.86,-426.71"/>
</g>
<!-- Node10&#45;&gt;Node6 -->
<g id="edge14" class="edge">
<title>Node10&#45;&gt;Node6</title>
<path fill="none" stroke="midnightblue" d="M519.22,-481.65C532.72,-449.46 566.95,-373.35 610,-319 623.73,-301.67 642.15,-285.07 657.41,-272.6"/>
<polygon fill="midnightblue" stroke="midnightblue" points="659.89,-275.1 665.52,-266.13 655.52,-269.64 659.89,-275.1"/>
</g>
<!-- Node10&#45;&gt;Node7 -->
<g id="edge15" class="edge">
<title>Node10&#45;&gt;Node7</title>
<path fill="none" stroke="midnightblue" d="M519.17,-481.58C531.66,-452.4 562.86,-389.16 610,-357 641.23,-335.69 736.61,-316.51 804.2,-305.05"/>
<polygon fill="midnightblue" stroke="midnightblue" points="805.1,-308.45 814.38,-303.35 803.94,-301.55 805.1,-308.45"/>
</g>
<!-- Node11 -->
<g id="node11" class="node">
<title>Node11</title>
<g id="a_node11"><a xlink:href="classnet_1_1_descriptor_event_dispatcher.html#a73814f761935ca747c521b3ce46c2689" target="_top" xlink:title=" ">
<polygon fill="white" stroke="black" points="610,-586 610,-616 764,-616 764,-586 610,-586"/>
<text text-anchor="start" x="618" y="-604" font-family="Helvetica,sans-Serif" font-size="10.00">net::DescriptorEventDispatcher</text>
<text text-anchor="middle" x="687" y="-593" font-family="Helvetica,sans-Serif" font-size="10.00">::enable</text>
</a>
</g>
</g>
<!-- Node10&#45;&gt;Node11 -->
<g id="edge10" class="edge">
<title>Node10&#45;&gt;Node11</title>
<path fill="none" stroke="midnightblue" d="M529.86,-512.19C548.45,-528.36 579.75,-553.93 610,-571 617.03,-574.97 624.68,-578.65 632.34,-581.98"/>
<polygon fill="midnightblue" stroke="midnightblue" points="631.06,-585.24 641.64,-585.87 633.76,-578.78 631.06,-585.24"/>
</g>
<!-- Node10&#45;&gt;Node14 -->
<g id="edge16" class="edge">
<title>Node10&#45;&gt;Node14</title>
<path fill="none" stroke="midnightblue" d="M574.48,-485.27C587.48,-482.79 601.31,-480.15 614.64,-477.61"/>
<polygon fill="midnightblue" stroke="midnightblue" points="615.55,-481 624.72,-475.69 614.24,-474.13 615.55,-481"/>
</g>
<!-- Node17 -->
<g id="node17" class="node">
<title>Node17</title>
<g id="a_node17"><a xlink:href="classnet_1_1_descriptor_event_receiver.html#a5c50bcb3b0f114bc1c59ddc9315f4a4a" target="_top" xlink:title=" ">
<polygon fill="white" stroke="black" points="990,-454 990,-484 1136,-484 1136,-454 990,-454"/>
<text text-anchor="start" x="998" y="-472" font-family="Helvetica,sans-Serif" font-size="10.00">net::DescriptorEventReceiver</text>
<text text-anchor="middle" x="1063" y="-461" font-family="Helvetica,sans-Serif" font-size="10.00">::timeout</text>
</a>
</g>
</g>
<!-- Node10&#45;&gt;Node17 -->
<g id="edge22" class="edge">
<title>Node10&#45;&gt;Node17</title>
<path fill="none" stroke="midnightblue" d="M540.48,-512.12C559.4,-521.63 585.45,-533.03 610,-538 759.84,-568.37 807.25,-580.88 954,-538 985.54,-528.79 1016.62,-507.25 1037.29,-490.66"/>
<polygon fill="midnightblue" stroke="midnightblue" points="1039.72,-493.2 1045.21,-484.14 1035.26,-487.8 1039.72,-493.2"/>
</g>
<!-- Node11&#45;&gt;Node5 -->
<g id="edge13" class="edge">
<title>Node11&#45;&gt;Node5</title>
<path fill="none" stroke="midnightblue" d="M764.2,-601C773.94,-601 783.95,-601 793.79,-601"/>
<polygon fill="midnightblue" stroke="midnightblue" points="793.95,-604.5 803.95,-601 793.95,-597.5 793.95,-604.5"/>
</g>
<!-- Node12 -->
<g id="node12" class="node">
<title>Node12</title>
<g id="a_node12"><a xlink:href="classnet_1_1_descriptor_event_dispatcher_1_1_descriptor_event_receiver_list.html#a558f0d618cb8eda30f1442d32b7f8139" target="_top" xlink:title=" ">
<polygon fill="white" stroke="black" points="800,-684.5 800,-725.5 954,-725.5 954,-684.5 800,-684.5"/>
<text text-anchor="start" x="808" y="-713.5" font-family="Helvetica,sans-Serif" font-size="10.00">net::DescriptorEventDispatcher</text>
<text text-anchor="start" x="808" y="-702.5" font-family="Helvetica,sans-Serif" font-size="10.00">::DescriptorEventReceiverList</text>
<text text-anchor="middle" x="877" y="-691.5" font-family="Helvetica,sans-Serif" font-size="10.00">::contains</text>
</a>
</g>
</g>
<!-- Node11&#45;&gt;Node12 -->
<g id="edge11" class="edge">
<title>Node11&#45;&gt;Node12</title>
<path fill="none" stroke="midnightblue" d="M708.26,-616.26C730.11,-632.26 766.3,-657.46 800,-675 803.44,-676.79 807.01,-678.54 810.65,-680.24"/>
<polygon fill="midnightblue" stroke="midnightblue" points="809.23,-683.44 819.79,-684.35 812.1,-677.05 809.23,-683.44"/>
</g>
<!-- Node13 -->
<g id="node13" class="node">
<title>Node13</title>
<g id="a_node13"><a xlink:href="classnet_1_1_descriptor_event_receiver.html#a9e2301bbfa9bb03c4d15372b7a2dc6d1" target="_top" xlink:title=" ">
<polygon fill="white" stroke="black" points="804,-635 804,-665 950,-665 950,-635 804,-635"/>
<text text-anchor="start" x="812" y="-653" font-family="Helvetica,sans-Serif" font-size="10.00">net::DescriptorEventReceiver</text>
<text text-anchor="middle" x="877" y="-642" font-family="Helvetica,sans-Serif" font-size="10.00">::enabled</text>
</a>
</g>
</g>
<!-- Node11&#45;&gt;Node13 -->
<g id="edge12" class="edge">
<title>Node11&#45;&gt;Node13</title>
<path fill="none" stroke="midnightblue" d="M745.68,-616.03C765.53,-621.21 787.94,-627.05 808.5,-632.41"/>
<polygon fill="midnightblue" stroke="midnightblue" points="807.87,-635.86 818.43,-634.99 809.63,-629.08 807.87,-635.86"/>
</g>
<!-- Node14&#45;&gt;Node7 -->
<g id="edge18" class="edge">
<title>Node14&#45;&gt;Node7</title>
<path fill="none" stroke="midnightblue" d="M749.2,-450.17C754.57,-447.38 759.62,-444.03 764,-440 795.09,-411.38 774.3,-385.55 800,-352 813.41,-334.49 833.39,-319.52 849.49,-309.18"/>
<polygon fill="midnightblue" stroke="midnightblue" points="851.78,-311.88 858.45,-303.65 848.1,-305.93 851.78,-311.88"/>
</g>
<!-- Node15 -->
<g id="node15" class="node">
<title>Node15</title>
<g id="a_node15"><a xlink:href="classnet_1_1_descriptor_event_receiver.html#a912f6ef25e80dfc21ec9cea72c436535" target="_top" xlink:title=" ">
<polygon fill="white" stroke="black" points="804,-361 804,-391 950,-391 950,-361 804,-361"/>
<text text-anchor="start" x="812" y="-379" font-family="Helvetica,sans-Serif" font-size="10.00">net::DescriptorEventReceiver</text>
<text text-anchor="middle" x="877" y="-368" font-family="Helvetica,sans-Serif" font-size="10.00">::getTimeout</text>
</a>
</g>
</g>
<!-- Node14&#45;&gt;Node15 -->
<g id="edge17" class="edge">
<title>Node14&#45;&gt;Node15</title>
<path fill="none" stroke="midnightblue" d="M746.67,-448.93C752.73,-446.37 758.63,-443.41 764,-440 783.92,-427.36 780.16,-413.76 800,-401 803.17,-398.96 806.51,-397.08 809.97,-395.34"/>
<polygon fill="midnightblue" stroke="midnightblue" points="811.68,-398.4 819.31,-391.05 808.76,-392.04 811.68,-398.4"/>
</g>
<!-- Node16 -->
<g id="node16" class="node">
<title>Node16</title>
<g id="a_node16"><a xlink:href="classnet_1_1_descriptor_event_receiver.html#aaacb9788549456a2c4b510913d938044" target="_top" xlink:title=" ">
<polygon fill="white" stroke="black" points="804,-410 804,-440 950,-440 950,-410 804,-410"/>
<text text-anchor="start" x="812" y="-428" font-family="Helvetica,sans-Serif" font-size="10.00">net::DescriptorEventReceiver</text>
<text text-anchor="middle" x="877" y="-417" font-family="Helvetica,sans-Serif" font-size="10.00">::setTimeout</text>
</a>
</g>
</g>
<!-- Node14&#45;&gt;Node16 -->
<g id="edge19" class="edge">
<title>Node14&#45;&gt;Node16</title>
<path fill="none" stroke="midnightblue" d="M749.04,-451.34C763.37,-448.36 778.88,-445.15 793.97,-442.02"/>
<polygon fill="midnightblue" stroke="midnightblue" points="794.73,-445.43 803.81,-439.98 793.31,-438.58 794.73,-445.43"/>
</g>
<!-- Node14&#45;&gt;Node17 -->
<g id="edge21" class="edge">
<title>Node14&#45;&gt;Node17</title>
<path fill="none" stroke="midnightblue" d="M749.34,-464.82C812.15,-465.66 910.16,-466.97 979.69,-467.9"/>
<polygon fill="midnightblue" stroke="midnightblue" points="979.69,-471.4 989.73,-468.03 979.78,-464.4 979.69,-471.4"/>
</g>
<!-- Node16&#45;&gt;Node17 -->
<g id="edge20" class="edge">
<title>Node16&#45;&gt;Node17</title>
<path fill="none" stroke="midnightblue" d="M940.81,-440.02C956.41,-443.75 973.27,-447.78 989.3,-451.62"/>
<polygon fill="midnightblue" stroke="midnightblue" points="988.62,-455.05 999.16,-453.97 990.25,-448.24 988.62,-455.05"/>
</g>
<!-- Node18&#45;&gt;Node7 -->
<g id="edge26" class="edge">
<title>Node18&#45;&gt;Node7</title>
<path fill="none" stroke="midnightblue" d="M537.55,-557.79C550.14,-548.81 564.74,-536.4 574,-522 606.65,-471.21 567.39,-433.78 610,-391 660.15,-340.65 698.27,-375 764,-348 780.93,-341.05 783.63,-336.19 800,-328 814.15,-320.92 830.09,-313.68 843.7,-307.71"/>
<polygon fill="midnightblue" stroke="midnightblue" points="845.37,-310.8 853.15,-303.61 842.58,-304.38 845.37,-310.8"/>
</g>
<!-- Node18&#45;&gt;Node11 -->
<g id="edge24" class="edge">
<title>Node18&#45;&gt;Node11</title>
<path fill="none" stroke="midnightblue" d="M573.51,-582.79C582,-584.17 590.87,-585.6 599.73,-587.04"/>
<polygon fill="midnightblue" stroke="midnightblue" points="599.28,-590.51 609.71,-588.65 600.4,-583.6 599.28,-590.51"/>
</g>
<!-- Node18&#45;&gt;Node17 -->
<g id="edge32" class="edge">
<title>Node18&#45;&gt;Node17</title>
<path fill="none" stroke="midnightblue" d="M528.28,-588.04C587.44,-644.41 805.49,-834.99 954,-735 1036.19,-679.66 1055.86,-549.85 1060.54,-494.61"/>
<polygon fill="midnightblue" stroke="midnightblue" points="1064.06,-494.54 1061.31,-484.31 1057.08,-494.02 1064.06,-494.54"/>
</g>
<!-- Node19 -->
<g id="node19" class="node">
<title>Node19</title>
<g id="a_node19"><a xlink:href="classnet_1_1_event_loop.html#a53697a464b99a65cde0a384bb896d5f3" target="_top" xlink:title=" ">
<polygon fill="white" stroke="black" points="624.5,-783 624.5,-813 749.5,-813 749.5,-783 624.5,-783"/>
<text text-anchor="start" x="632.5" y="-801" font-family="Helvetica,sans-Serif" font-size="10.00">net::EventLoop::getWrite</text>
<text text-anchor="middle" x="687" y="-790" font-family="Helvetica,sans-Serif" font-size="10.00">EventDispatcher</text>
</a>
</g>
</g>
<!-- Node18&#45;&gt;Node19 -->
<g id="edge25" class="edge">
<title>Node18&#45;&gt;Node19</title>
<path fill="none" stroke="midnightblue" d="M516.55,-588.21C525.73,-624.35 553.59,-716.23 610,-768 614.11,-771.78 618.76,-775.1 623.68,-778.02"/>
<polygon fill="midnightblue" stroke="midnightblue" points="622.3,-781.25 632.77,-782.86 625.59,-775.07 622.3,-781.25"/>
</g>
<!-- Node18&#45;&gt;Node20 -->
<g id="edge27" class="edge">
<title>Node18&#45;&gt;Node20</title>
<path fill="none" stroke="midnightblue" d="M535.84,-557.88C548.38,-548.68 563.47,-536.02 574,-522 597.9,-490.17 580.54,-466.76 610,-440 611.98,-438.2 614.09,-436.53 616.3,-434.98"/>
<polygon fill="midnightblue" stroke="midnightblue" points="618.51,-437.74 625.27,-429.58 614.9,-431.74 618.51,-437.74"/>
</g>
<!-- Node20&#45;&gt;Node7 -->
<g id="edge29" class="edge">
<title>Node20&#45;&gt;Node7</title>
<path fill="none" stroke="midnightblue" d="M740.68,-399.87C749.07,-395.92 757.22,-391.03 764,-385 789.26,-362.54 773.97,-339.56 800,-318 805.15,-313.73 811.07,-310.22 817.29,-307.33"/>
<polygon fill="midnightblue" stroke="midnightblue" points="818.62,-310.56 826.54,-303.52 815.96,-304.09 818.62,-310.56"/>
</g>
<!-- Node20&#45;&gt;Node15 -->
<g id="edge28" class="edge">
<title>Node20&#45;&gt;Node15</title>
<path fill="none" stroke="midnightblue" d="M748.52,-402.45C762.96,-399.45 778.61,-396.2 793.84,-393.04"/>
<polygon fill="midnightblue" stroke="midnightblue" points="794.7,-396.44 803.78,-390.98 793.27,-389.59 794.7,-396.44"/>
</g>
<!-- Node20&#45;&gt;Node16 -->
<g id="edge30" class="edge">
<title>Node20&#45;&gt;Node16</title>
<path fill="none" stroke="midnightblue" d="M748.52,-418.22C762.82,-418.98 778.32,-419.8 793.41,-420.61"/>
<polygon fill="midnightblue" stroke="midnightblue" points="793.6,-424.12 803.78,-421.16 793.98,-417.13 793.6,-424.12"/>
</g>
<!-- Node20&#45;&gt;Node17 -->
<g id="edge31" class="edge">
<title>Node20&#45;&gt;Node17</title>
<path fill="none" stroke="midnightblue" d="M734.33,-399.84C744.45,-395.68 754.86,-390.72 764,-385 782.4,-373.49 779.77,-359.87 800,-352 863.79,-327.19 891.3,-324.55 954,-352 997.23,-370.93 1030.83,-416.63 1048.42,-444.99"/>
<polygon fill="midnightblue" stroke="midnightblue" points="1045.61,-447.11 1053.76,-453.88 1051.61,-443.51 1045.61,-447.11"/>
</g>
<!-- Node21&#45;&gt;Node6 -->
<g id="edge36" class="edge">
<title>Node21&#45;&gt;Node6</title>
<path fill="none" stroke="midnightblue" d="M574.48,-229.08C583.25,-230.81 592.4,-232.6 601.52,-234.4"/>
<polygon fill="midnightblue" stroke="midnightblue" points="600.9,-237.84 611.38,-236.34 602.25,-230.97 600.9,-237.84"/>
</g>
<!-- Node21&#45;&gt;Node7 -->
<g id="edge37" class="edge">
<title>Node21&#45;&gt;Node7</title>
<path fill="none" stroke="midnightblue" d="M574.22,-211.12C625.91,-208.1 701.31,-208.33 764,-227 799.5,-237.57 835.33,-261.96 856.6,-278.21"/>
<polygon fill="midnightblue" stroke="midnightblue" points="854.48,-281.01 864.52,-284.41 858.8,-275.49 854.48,-281.01"/>
</g>
<!-- Node22 -->
<g id="node22" class="node">
<title>Node22</title>
<g id="a_node22"><a xlink:href="classnet_1_1_descriptor_event_dispatcher.html#a2f3bda27d3e9b040956e69f7b07054e5" target="_top" xlink:title=" ">
<polygon fill="white" stroke="black" points="610,-110 610,-140 764,-140 764,-110 610,-110"/>
<text text-anchor="start" x="618" y="-128" font-family="Helvetica,sans-Serif" font-size="10.00">net::DescriptorEventDispatcher</text>
<text text-anchor="middle" x="687" y="-117" font-family="Helvetica,sans-Serif" font-size="10.00">::resume</text>
</a>
</g>
</g>
<!-- Node21&#45;&gt;Node22 -->
<g id="edge38" class="edge">
<title>Node21&#45;&gt;Node22</title>
<path fill="none" stroke="midnightblue" d="M541.57,-201.81C570.83,-186.25 616.46,-161.98 648.59,-144.9"/>
<polygon fill="midnightblue" stroke="midnightblue" points="650.49,-147.85 657.68,-140.06 647.21,-141.67 650.49,-147.85"/>
</g>
<!-- Node23 -->
<g id="node23" class="node">
<title>Node23</title>
<g id="a_node23"><a xlink:href="classnet_1_1_descriptor_event_receiver.html#a3ad5bcaaad4982927ce5ded44177f926" target="_top" xlink:title=" ">
<polygon fill="white" stroke="black" points="804,-88 804,-118 950,-118 950,-88 804,-88"/>
<text text-anchor="start" x="812" y="-106" font-family="Helvetica,sans-Serif" font-size="10.00">net::DescriptorEventReceiver</text>
<text text-anchor="middle" x="877" y="-95" font-family="Helvetica,sans-Serif" font-size="10.00">::isSuspended</text>
</a>
</g>
</g>
<!-- Node22&#45;&gt;Node23 -->
<g id="edge39" class="edge">
<title>Node22&#45;&gt;Node23</title>
<path fill="none" stroke="midnightblue" d="M764.2,-116.08C773.94,-114.94 783.95,-113.77 793.79,-112.62"/>
<polygon fill="midnightblue" stroke="midnightblue" points="794.43,-116.07 803.95,-111.43 793.61,-109.12 794.43,-116.07"/>
</g>
<!-- Node24 -->
<g id="node24" class="node">
<title>Node24</title>
<g id="a_node24"><a xlink:href="classnet_1_1_descriptor_event_receiver.html#ae25453a497e1efe0732c6607fbe1b98c" target="_top" xlink:title=" ">
<polygon fill="white" stroke="black" points="804,-176 804,-206 950,-206 950,-176 804,-176"/>
<text text-anchor="start" x="812" y="-194" font-family="Helvetica,sans-Serif" font-size="10.00">net::DescriptorEventReceiver</text>
<text text-anchor="middle" x="877" y="-183" font-family="Helvetica,sans-Serif" font-size="10.00">::resumed</text>
</a>
</g>
</g>
<!-- Node22&#45;&gt;Node24 -->
<g id="edge40" class="edge">
<title>Node22&#45;&gt;Node24</title>
<path fill="none" stroke="midnightblue" d="M728.06,-140.03C749.36,-147.93 776.04,-157.68 800,-166 806.35,-168.21 813.01,-170.47 819.64,-172.69"/>
<polygon fill="midnightblue" stroke="midnightblue" points="818.7,-176.07 829.29,-175.91 820.91,-169.43 818.7,-176.07"/>
</g>
<!-- Node25 -->
<g id="node25" class="node">
<title>Node25</title>
<g id="a_node25"><a xlink:href="classnet_1_1_fd_set.html#a602dbf99def6560bcc7a6bcb8384d549" target="_top" xlink:title=" ">
<polygon fill="white" stroke="black" points="836,-137.5 836,-156.5 918,-156.5 918,-137.5 836,-137.5"/>
<text text-anchor="middle" x="877" y="-144.5" font-family="Helvetica,sans-Serif" font-size="10.00">net::FdSet::set</text>
</a>
</g>
</g>
<!-- Node22&#45;&gt;Node25 -->
<g id="edge41" class="edge">
<title>Node22&#45;&gt;Node25</title>
<path fill="none" stroke="midnightblue" d="M764.2,-133.92C784.89,-136.34 806.79,-138.9 825.66,-141.11"/>
<polygon fill="midnightblue" stroke="midnightblue" points="825.47,-144.61 835.81,-142.3 826.28,-137.66 825.47,-144.61"/>
</g>
<!-- Node27 -->
<g id="node27" class="node">
<title>Node27</title>
<g id="a_node27"><a xlink:href="namespacenet_1_1socket_1_1stream_1_1tls.html#ae9b9d9cde7561dcf6b01f23652dfd447" target="_top" xlink:title=" ">
<polygon fill="white" stroke="black" points="309,-218 309,-248 410,-248 410,-218 309,-218"/>
<text text-anchor="start" x="317" y="-236" font-family="Helvetica,sans-Serif" font-size="10.00">net::socket::stream</text>
<text text-anchor="middle" x="359.5" y="-225" font-family="Helvetica,sans-Serif" font-size="10.00">::tls::ssl_log_info</text>
</a>
</g>
</g>
<!-- Node26&#45;&gt;Node27 -->
<g id="edge43" class="edge">
<title>Node26&#45;&gt;Node27</title>
<path fill="none" stroke="midnightblue" d="M266.16,-233C276.59,-233 287.69,-233 298.45,-233"/>
<polygon fill="midnightblue" stroke="midnightblue" points="298.62,-236.5 308.62,-233 298.62,-229.5 298.62,-236.5"/>
</g>
<!-- Node28 -->
<g id="node28" class="node">
<title>Node28</title>
<g id="a_node28"><a xlink:href="namespacenet_1_1socket_1_1stream_1_1tls.html#a1f99ab1ce84106de8264b2da5001dbed" target="_top" xlink:title=" ">
<polygon fill="white" stroke="black" points="305,-169 305,-199 414,-199 414,-169 305,-169"/>
<text text-anchor="start" x="313" y="-187" font-family="Helvetica,sans-Serif" font-size="10.00">net::socket::stream</text>
<text text-anchor="middle" x="359.5" y="-176" font-family="Helvetica,sans-Serif" font-size="10.00">::tls::ssl_log_warning</text>
</a>
</g>
</g>
<!-- Node26&#45;&gt;Node28 -->
<g id="edge44" class="edge">
<title>Node26&#45;&gt;Node28</title>
<path fill="none" stroke="midnightblue" d="M260.26,-217.9C274.44,-213.01 290.31,-207.53 305.1,-202.43"/>
<polygon fill="midnightblue" stroke="midnightblue" points="306.33,-205.71 314.64,-199.14 304.04,-199.09 306.33,-205.71"/>
</g>
<!-- Node29&#45;&gt;Node6 -->
<g id="edge46" class="edge">
<title>Node29&#45;&gt;Node6</title>
<path fill="none" stroke="midnightblue" d="M541.57,-174.19C570.83,-189.75 616.46,-214.02 648.59,-231.1"/>
<polygon fill="midnightblue" stroke="midnightblue" points="647.21,-234.33 657.68,-235.94 650.49,-228.15 647.21,-234.33"/>
</g>
<!-- Node29&#45;&gt;Node7 -->
<g id="edge47" class="edge">
<title>Node29&#45;&gt;Node7</title>
<path fill="none" stroke="midnightblue" d="M574.04,-161.88C626.46,-166.26 702.99,-177.29 764,-205 802.73,-222.59 839.77,-256.48 860.04,-276.98"/>
<polygon fill="midnightblue" stroke="midnightblue" points="857.72,-279.62 867.19,-284.37 862.75,-274.75 857.72,-279.62"/>
</g>
<!-- Node30 -->
<g id="node30" class="node">
<title>Node30</title>
<g id="a_node30"><a xlink:href="classnet_1_1_descriptor_event_dispatcher.html#a9eca4cac3e192e4ace05ec7b3c697298" target="_top" xlink:title=" ">
<polygon fill="white" stroke="black" points="610,-61 610,-91 764,-91 764,-61 610,-61"/>
<text text-anchor="start" x="618" y="-79" font-family="Helvetica,sans-Serif" font-size="10.00">net::DescriptorEventDispatcher</text>
<text text-anchor="middle" x="687" y="-68" font-family="Helvetica,sans-Serif" font-size="10.00">::suspend</text>
</a>
</g>
</g>
<!-- Node29&#45;&gt;Node30 -->
<g id="edge48" class="edge">
<title>Node29&#45;&gt;Node30</title>
<path fill="none" stroke="midnightblue" d="M534.51,-143.83C553.64,-130.86 582.72,-112.39 610,-100 614.15,-98.12 618.49,-96.32 622.91,-94.62"/>
<polygon fill="midnightblue" stroke="midnightblue" points="624.46,-97.78 632.64,-91.05 622.05,-91.2 624.46,-97.78"/>
</g>
<!-- Node30&#45;&gt;Node23 -->
<g id="edge50" class="edge">
<title>Node30&#45;&gt;Node23</title>
<path fill="none" stroke="midnightblue" d="M764.2,-86.94C773.94,-88.34 783.95,-89.78 793.79,-91.19"/>
<polygon fill="midnightblue" stroke="midnightblue" points="793.56,-94.7 803.95,-92.65 794.55,-87.77 793.56,-94.7"/>
</g>
<!-- Node31 -->
<g id="node31" class="node">
<title>Node31</title>
<g id="a_node31"><a xlink:href="classnet_1_1_fd_set.html#ad16f1e07bc68aa16c271a858d7510b95" target="_top" xlink:title=" ">
<polygon fill="white" stroke="black" points="837.5,-0.5 837.5,-19.5 916.5,-19.5 916.5,-0.5 837.5,-0.5"/>
<text text-anchor="middle" x="877" y="-7.5" font-family="Helvetica,sans-Serif" font-size="10.00">net::FdSet::clr</text>
</a>
</g>
</g>
<!-- Node30&#45;&gt;Node31 -->
<g id="edge49" class="edge">
<title>Node30&#45;&gt;Node31</title>
<path fill="none" stroke="midnightblue" d="M720.33,-60.89C742.44,-50.94 772.59,-38.12 800,-29 808.81,-26.07 818.33,-23.35 827.56,-20.94"/>
<polygon fill="midnightblue" stroke="midnightblue" points="828.56,-24.29 837.4,-18.44 826.85,-17.51 828.56,-24.29"/>
</g>
<!-- Node32 -->
<g id="node32" class="node">
<title>Node32</title>
<g id="a_node32"><a xlink:href="classnet_1_1_descriptor_event_receiver.html#ac6ed4bd7322cd45e14634a1d0d58eebc" target="_top" xlink:title=" ">
<polygon fill="white" stroke="black" points="804,-39 804,-69 950,-69 950,-39 804,-39"/>
<text text-anchor="start" x="812" y="-57" font-family="Helvetica,sans-Serif" font-size="10.00">net::DescriptorEventReceiver</text>
<text text-anchor="middle" x="877" y="-46" font-family="Helvetica,sans-Serif" font-size="10.00">::suspended</text>
</a>
</g>
</g>
<!-- Node30&#45;&gt;Node32 -->
<g id="edge51" class="edge">
<title>Node30&#45;&gt;Node32</title>
<path fill="none" stroke="midnightblue" d="M764.2,-67.08C773.94,-65.94 783.95,-64.77 793.79,-63.62"/>
<polygon fill="midnightblue" stroke="midnightblue" points="794.43,-67.07 803.95,-62.43 793.61,-60.12 794.43,-67.07"/>
</g>
</g>
</svg>
