<?xml version="1.0" encoding="UTF-8" standalone="no"?>
<!DOCTYPE svg PUBLIC "-//W3C//DTD SVG 1.1//EN"
 "http://www.w3.org/Graphics/SVG/1.1/DTD/svg11.dtd">
<!-- Generated by graphviz version 2.43.0 (0)
 -->
<!-- Title: net::socket::stream::tls::SocketWriter&lt; SocketT &gt; Pages: 1 -->
<svg width="217pt" height="1213pt"
 viewBox="0.00 0.00 216.50 1213.00" xmlns="http://www.w3.org/2000/svg" xmlns:xlink="http://www.w3.org/1999/xlink">
<g id="graph0" class="graph" transform="scale(1 1) rotate(0) translate(4 1209)">
<title>net::socket::stream::tls::SocketWriter&lt; SocketT &gt;</title>
<polygon fill="white" stroke="transparent" points="-4,4 -4,-1209 212.5,-1209 212.5,4 -4,4"/>
<!-- Node1 -->
<g id="node1" class="node">
<title>Node1</title>
<g id="a_node1"><a xlink:title=" ">
<polygon fill="#bfbfbf" stroke="black" points="64,-463.5 64,-542.5 165,-542.5 165,-463.5 64,-463.5"/>
<text text-anchor="start" x="72" y="-530.5" font-family="Helvetica,sans-Serif" font-size="10.00">net::socket::stream</text>
<text text-anchor="start" x="72" y="-519.5" font-family="Helvetica,sans-Serif" font-size="10.00">::tls::SocketWriter</text>
<text text-anchor="middle" x="114.5" y="-508.5" font-family="Helvetica,sans-Serif" font-size="10.00">&lt; SocketT &gt;</text>
<polyline fill="none" stroke="black" points="64,-501.5 165,-501.5 "/>
<text text-anchor="start" x="72" y="-489.5" font-family="Helvetica,sans-Serif" font-size="10.00"># ssl</text>
<polyline fill="none" stroke="black" points="64,-482.5 165,-482.5 "/>
<text text-anchor="start" x="72" y="-470.5" font-family="Helvetica,sans-Serif" font-size="10.00"># write()</text>
</a>
</g>
</g>
<!-- Node7 -->
<g id="node7" class="node">
<title>Node7</title>
<g id="a_node7"><a xlink:href="classnet_1_1socket_1_1stream_1_1_socket_connection.html" target="_top" xlink:title=" ">
<polygon fill="white" stroke="black" points="20.5,-182.5 20.5,-426.5 208.5,-426.5 208.5,-182.5 20.5,-182.5"/>
<text text-anchor="start" x="28.5" y="-414.5" font-family="Helvetica,sans-Serif" font-size="10.00">SocketConnection&lt; tls</text>
<text text-anchor="start" x="28.5" y="-403.5" font-family="Helvetica,sans-Serif" font-size="10.00">::SocketReader&lt; SocketT</text>
<text text-anchor="start" x="28.5" y="-392.5" font-family="Helvetica,sans-Serif" font-size="10.00"> &gt;, tls::SocketWriter&lt;</text>
<text text-anchor="middle" x="114.5" y="-381.5" font-family="Helvetica,sans-Serif" font-size="10.00"> SocketT &gt;, SocketT::SocketAddress &gt;</text>
<polyline fill="none" stroke="black" points="20.5,-374.5 208.5,-374.5 "/>
<text text-anchor="start" x="28.5" y="-362.5" font-family="Helvetica,sans-Serif" font-size="10.00">&#45; remoteAddress</text>
<text text-anchor="start" x="28.5" y="-351.5" font-family="Helvetica,sans-Serif" font-size="10.00">&#45; onDestruct</text>
<text text-anchor="start" x="28.5" y="-340.5" font-family="Helvetica,sans-Serif" font-size="10.00">&#45; onDisconnect</text>
<text text-anchor="start" x="28.5" y="-329.5" font-family="Helvetica,sans-Serif" font-size="10.00">&#45; isDynamic</text>
<text text-anchor="start" x="28.5" y="-318.5" font-family="Helvetica,sans-Serif" font-size="10.00">&#45; lastAllocAddress</text>
<polyline fill="none" stroke="black" points="20.5,-311.5 208.5,-311.5 "/>
<text text-anchor="start" x="28.5" y="-299.5" font-family="Helvetica,sans-Serif" font-size="10.00">+ operator new()</text>
<text text-anchor="start" x="28.5" y="-288.5" font-family="Helvetica,sans-Serif" font-size="10.00">+ operator delete()</text>
<text text-anchor="start" x="28.5" y="-277.5" font-family="Helvetica,sans-Serif" font-size="10.00">+ SocketConnection()</text>
<text text-anchor="start" x="28.5" y="-266.5" font-family="Helvetica,sans-Serif" font-size="10.00">+ SocketConnection()</text>
<text text-anchor="start" x="28.5" y="-255.5" font-family="Helvetica,sans-Serif" font-size="10.00">+ ~SocketConnection()</text>
<text text-anchor="start" x="28.5" y="-244.5" font-family="Helvetica,sans-Serif" font-size="10.00">+ enqueue()</text>
<text text-anchor="start" x="28.5" y="-233.5" font-family="Helvetica,sans-Serif" font-size="10.00">+ enqueue()</text>
<text text-anchor="start" x="28.5" y="-222.5" font-family="Helvetica,sans-Serif" font-size="10.00">+ end()</text>
<text text-anchor="start" x="28.5" y="-211.5" font-family="Helvetica,sans-Serif" font-size="10.00">+ getRemoteAddress()</text>
<text text-anchor="start" x="28.5" y="-200.5" font-family="Helvetica,sans-Serif" font-size="10.00">+ setRemoteAddress()</text>
<text text-anchor="start" x="28.5" y="-189.5" font-family="Helvetica,sans-Serif" font-size="10.00">&#45; unobserved()</text>
</a>
</g>
</g>
<!-- Node1&#45;&gt;Node7 -->
<g id="edge6" class="edge">
<title>Node1&#45;&gt;Node7</title>
<path fill="none" stroke="midnightblue" d="M114.5,-453.02C114.5,-444.72 114.5,-435.78 114.5,-426.56"/>
<polygon fill="none" stroke="midnightblue" points="111,-453.18 114.5,-463.18 118,-453.18 111,-453.18"/>
</g>
<!-- Node2 -->
<g id="node2" class="node">
<title>Node2</title>
<g id="a_node2"><a xlink:href="classnet_1_1socket_1_1stream_1_1_socket_writer.html" target="_top" xlink:title=" ">
<polygon fill="white" stroke="black" points="47.5,-579.5 47.5,-713.5 181.5,-713.5 181.5,-579.5 47.5,-579.5"/>
<text text-anchor="start" x="55.5" y="-701.5" font-family="Helvetica,sans-Serif" font-size="10.00">net::socket::stream</text>
<text text-anchor="middle" x="114.5" y="-690.5" font-family="Helvetica,sans-Serif" font-size="10.00">::SocketWriter&lt; SocketT &gt;</text>
<polyline fill="none" stroke="black" points="47.5,-683.5 181.5,-683.5 "/>
<text text-anchor="start" x="55.5" y="-671.5" font-family="Helvetica,sans-Serif" font-size="10.00">&#45; onError</text>
<text text-anchor="start" x="55.5" y="-660.5" font-family="Helvetica,sans-Serif" font-size="10.00">&#45; writeBuffer</text>
<polyline fill="none" stroke="black" points="47.5,-653.5 181.5,-653.5 "/>
<text text-anchor="start" x="55.5" y="-641.5" font-family="Helvetica,sans-Serif" font-size="10.00">+ SocketWriter()</text>
<text text-anchor="start" x="55.5" y="-630.5" font-family="Helvetica,sans-Serif" font-size="10.00">+ SocketWriter()</text>
<text text-anchor="start" x="55.5" y="-619.5" font-family="Helvetica,sans-Serif" font-size="10.00">+ ~SocketWriter()</text>
<text text-anchor="start" x="55.5" y="-608.5" font-family="Helvetica,sans-Serif" font-size="10.00">+ writeEvent()</text>
<text text-anchor="start" x="55.5" y="-597.5" font-family="Helvetica,sans-Serif" font-size="10.00">+ enqueue()</text>
<text text-anchor="start" x="55.5" y="-586.5" font-family="Helvetica,sans-Serif" font-size="10.00"># write()</text>
</a>
</g>
</g>
<!-- Node2&#45;&gt;Node1 -->
<g id="edge1" class="edge">
<title>Node2&#45;&gt;Node1</title>
<path fill="none" stroke="midnightblue" d="M114.5,-569.03C114.5,-559.95 114.5,-550.99 114.5,-542.76"/>
<polygon fill="none" stroke="midnightblue" points="111,-569.31 114.5,-579.31 118,-569.31 111,-569.31"/>
</g>
<!-- Node3 -->
<g id="node3" class="node">
<title>Node3</title>
<g id="a_node3"><a xlink:href="classnet_1_1_write_event_receiver.html" target="_top" xlink:title=" ">
<polygon fill="white" stroke="black" points="0,-750.5 0,-851.5 123,-851.5 123,-750.5 0,-750.5"/>
<text text-anchor="middle" x="61.5" y="-839.5" font-family="Helvetica,sans-Serif" font-size="10.00">net::WriteEventReceiver</text>
<polyline fill="none" stroke="black" points="0,-832.5 123,-832.5 "/>
<text text-anchor="middle" x="61.5" y="-820.5" font-family="Helvetica,sans-Serif" font-size="10.00"> </text>
<polyline fill="none" stroke="black" points="0,-813.5 123,-813.5 "/>
<text text-anchor="start" x="8" y="-801.5" font-family="Helvetica,sans-Serif" font-size="10.00">+ setTimeout()</text>
<text text-anchor="start" x="8" y="-790.5" font-family="Helvetica,sans-Serif" font-size="10.00">+ enable()</text>
<text text-anchor="start" x="8" y="-779.5" font-family="Helvetica,sans-Serif" font-size="10.00">+ disable()</text>
<text text-anchor="start" x="8" y="-768.5" font-family="Helvetica,sans-Serif" font-size="10.00"># WriteEventReceiver()</text>
<text text-anchor="start" x="8" y="-757.5" font-family="Helvetica,sans-Serif" font-size="10.00"># writeEvent()</text>
</a>
</g>
</g>
<!-- Node3&#45;&gt;Node2 -->
<g id="edge2" class="edge">
<title>Node3&#45;&gt;Node2</title>
<path fill="none" stroke="midnightblue" d="M82.02,-740.95C85.13,-732.02 88.35,-722.76 91.5,-713.69"/>
<polygon fill="none" stroke="midnightblue" points="78.68,-739.89 78.71,-750.49 85.3,-742.19 78.68,-739.89"/>
</g>
<!-- Node4 -->
<g id="node4" class="node">
<title>Node4</title>
<g id="a_node4"><a xlink:href="classnet_1_1_event_receiver.html" target="_top" xlink:title=" ">
<polygon fill="white" stroke="black" points="11,-888.5 11,-1110.5 112,-1110.5 112,-888.5 11,-888.5"/>
<text text-anchor="middle" x="61.5" y="-1098.5" font-family="Helvetica,sans-Serif" font-size="10.00">net::EventReceiver</text>
<polyline fill="none" stroke="black" points="11,-1091.5 112,-1091.5 "/>
<text text-anchor="start" x="19" y="-1079.5" font-family="Helvetica,sans-Serif" font-size="10.00">&#45; _enabled</text>
<text text-anchor="start" x="19" y="-1068.5" font-family="Helvetica,sans-Serif" font-size="10.00">&#45; maxInactivity</text>
<text text-anchor="start" x="19" y="-1057.5" font-family="Helvetica,sans-Serif" font-size="10.00">&#45; lastTriggered</text>
<polyline fill="none" stroke="black" points="11,-1050.5 112,-1050.5 "/>
<text text-anchor="start" x="19" y="-1038.5" font-family="Helvetica,sans-Serif" font-size="10.00"># EventReceiver()</text>
<text text-anchor="start" x="19" y="-1027.5" font-family="Helvetica,sans-Serif" font-size="10.00"># EventReceiver()</text>
<text text-anchor="start" x="19" y="-1016.5" font-family="Helvetica,sans-Serif" font-size="10.00"># operator=()</text>
<text text-anchor="start" x="19" y="-1005.5" font-family="Helvetica,sans-Serif" font-size="10.00"># ~EventReceiver()</text>
<text text-anchor="start" x="19" y="-994.5" font-family="Helvetica,sans-Serif" font-size="10.00"># setTimeout()</text>
<text text-anchor="start" x="19" y="-983.5" font-family="Helvetica,sans-Serif" font-size="10.00"># isEnabled()</text>
<text text-anchor="start" x="19" y="-972.5" font-family="Helvetica,sans-Serif" font-size="10.00">&#45; enabled()</text>
<text text-anchor="start" x="19" y="-961.5" font-family="Helvetica,sans-Serif" font-size="10.00">&#45; disabled()</text>
<text text-anchor="start" x="19" y="-950.5" font-family="Helvetica,sans-Serif" font-size="10.00">&#45; getTimeout()</text>
<text text-anchor="start" x="19" y="-939.5" font-family="Helvetica,sans-Serif" font-size="10.00">&#45; getLastTriggered()</text>
<text text-anchor="start" x="19" y="-928.5" font-family="Helvetica,sans-Serif" font-size="10.00">&#45; setLastTriggered()</text>
<text text-anchor="start" x="19" y="-917.5" font-family="Helvetica,sans-Serif" font-size="10.00">&#45; enable()</text>
<text text-anchor="start" x="19" y="-906.5" font-family="Helvetica,sans-Serif" font-size="10.00">&#45; disable()</text>
<text text-anchor="start" x="19" y="-895.5" font-family="Helvetica,sans-Serif" font-size="10.00">&#45; unobserved()</text>
</a>
</g>
</g>
<!-- Node4&#45;&gt;Node3 -->
<g id="edge3" class="edge">
<title>Node4&#45;&gt;Node3</title>
<path fill="none" stroke="midnightblue" d="M61.5,-878.34C61.5,-869.09 61.5,-860.11 61.5,-851.76"/>
<polygon fill="none" stroke="midnightblue" points="58,-878.47 61.5,-888.47 65,-878.47 58,-878.47"/>
</g>
<!-- Node5 -->
<g id="node5" class="node">
<title>Node5</title>
<g id="a_node5"><a xlink:href="classnet_1_1_observation_counter.html" target="_top" xlink:title=" ">
<polygon fill="white" stroke="black" points="0,-1147.5 0,-1204.5 123,-1204.5 123,-1147.5 0,-1147.5"/>
<text text-anchor="middle" x="61.5" y="-1192.5" font-family="Helvetica,sans-Serif" font-size="10.00">net::ObservationCounter</text>
<polyline fill="none" stroke="black" points="0,-1185.5 123,-1185.5 "/>
<text text-anchor="start" x="8" y="-1173.5" font-family="Helvetica,sans-Serif" font-size="10.00"># observationCounter</text>
<polyline fill="none" stroke="black" points="0,-1166.5 123,-1166.5 "/>
<text text-anchor="start" x="8" y="-1154.5" font-family="Helvetica,sans-Serif" font-size="10.00">+ isObserved()</text>
</a>
</g>
</g>
<!-- Node5&#45;&gt;Node4 -->
<g id="edge4" class="edge">
<title>Node5&#45;&gt;Node4</title>
<path fill="none" stroke="midnightblue" d="M61.5,-1137.2C61.5,-1129.08 61.5,-1120.1 61.5,-1110.75"/>
<polygon fill="none" stroke="midnightblue" points="58,-1137.35 61.5,-1147.35 65,-1137.35 58,-1137.35"/>
</g>
<!-- Node6 -->
<g id="node6" class="node">
<title>Node6</title>
<g id="a_node6"><a xlink:title=" ">
<polygon fill="white" stroke="#bfbfbf" points="141,-772.5 141,-829.5 194,-829.5 194,-772.5 141,-772.5"/>
<text text-anchor="middle" x="167.5" y="-817.5" font-family="Helvetica,sans-Serif" font-size="10.00">SocketT</text>
<polyline fill="none" stroke="#bfbfbf" points="141,-810.5 194,-810.5 "/>
<text text-anchor="middle" x="167.5" y="-798.5" font-family="Helvetica,sans-Serif" font-size="10.00"> </text>
<polyline fill="none" stroke="#bfbfbf" points="141,-791.5 194,-791.5 "/>
<text text-anchor="middle" x="167.5" y="-779.5" font-family="Helvetica,sans-Serif" font-size="10.00"> </text>
</a>
</g>
</g>
<!-- Node6&#45;&gt;Node2 -->
<g id="edge5" class="edge">
<title>Node6&#45;&gt;Node2</title>
<path fill="none" stroke="midnightblue" d="M154.5,-762.61C149.36,-747.81 143.29,-730.35 137.46,-713.56"/>
<polygon fill="none" stroke="midnightblue" points="151.31,-764.09 157.9,-772.38 157.93,-761.79 151.31,-764.09"/>
</g>
<!-- Node8 -->
<g id="node8" class="node">
<title>Node8</title>
<g id="a_node8"><a xlink:href="classnet_1_1socket_1_1stream_1_1tls_1_1_socket_connection.html" target="_top" xlink:title=" ">
<polygon fill="white" stroke="black" points="55,-0.5 55,-145.5 174,-145.5 174,-0.5 55,-0.5"/>
<text text-anchor="start" x="63" y="-133.5" font-family="Helvetica,sans-Serif" font-size="10.00">net::socket::stream</text>
<text text-anchor="start" x="63" y="-122.5" font-family="Helvetica,sans-Serif" font-size="10.00">::tls::SocketConnection</text>
<text text-anchor="middle" x="114.5" y="-111.5" font-family="Helvetica,sans-Serif" font-size="10.00">&lt; SocketT &gt;</text>
<polyline fill="none" stroke="black" points="55,-104.5 174,-104.5 "/>
<text text-anchor="start" x="63" y="-92.5" font-family="Helvetica,sans-Serif" font-size="10.00"># ssl</text>
<text text-anchor="start" x="63" y="-81.5" font-family="Helvetica,sans-Serif" font-size="10.00"># ctx</text>
<polyline fill="none" stroke="black" points="55,-74.5 174,-74.5 "/>
<text text-anchor="start" x="63" y="-62.5" font-family="Helvetica,sans-Serif" font-size="10.00">+ SocketConnection()</text>
<text text-anchor="start" x="63" y="-51.5" font-family="Helvetica,sans-Serif" font-size="10.00">+ setSSL_CTX()</text>
<text text-anchor="start" x="63" y="-40.5" font-family="Helvetica,sans-Serif" font-size="10.00">+ clearSSL_CTX()</text>
<text text-anchor="start" x="63" y="-29.5" font-family="Helvetica,sans-Serif" font-size="10.00">+ startSSL()</text>
<text text-anchor="start" x="63" y="-18.5" font-family="Helvetica,sans-Serif" font-size="10.00">+ stopSSL()</text>
<text text-anchor="start" x="63" y="-7.5" font-family="Helvetica,sans-Serif" font-size="10.00">+ getSSL()</text>
</a>
</g>
</g>
<!-- Node7&#45;&gt;Node8 -->
<g id="edge7" class="edge">
<title>Node7&#45;&gt;Node8</title>
<path fill="none" stroke="midnightblue" d="M114.5,-172.15C114.5,-163.14 114.5,-154.27 114.5,-145.77"/>
<polygon fill="none" stroke="midnightblue" points="111,-172.37 114.5,-182.37 118,-172.37 111,-172.37"/>
</g>
</g>
</svg>
