<?xml version="1.0" encoding="UTF-8" standalone="no"?>
<!DOCTYPE svg PUBLIC "-//W3C//DTD SVG 1.1//EN"
 "http://www.w3.org/Graphics/SVG/1.1/DTD/svg11.dtd">
<!-- Generated by graphviz version 2.43.0 (0)
 -->
<!-- Title: web::http::client::Request::enqueue Pages: 1 -->
<svg width="510pt" height="186pt"
 viewBox="0.00 0.00 510.00 186.00" xmlns="http://www.w3.org/2000/svg" xmlns:xlink="http://www.w3.org/1999/xlink">
<g id="graph0" class="graph" transform="scale(1 1) rotate(0) translate(4 182)">
<title>web::http::client::Request::enqueue</title>
<polygon fill="white" stroke="transparent" points="-4,4 -4,-182 506,-182 506,4 -4,4"/>
<!-- Node1 -->
<g id="node1" class="node">
<title>Node1</title>
<g id="a_node1"><a xlink:title=" ">
<polygon fill="#bfbfbf" stroke="black" points="406,-49.5 406,-79.5 502,-79.5 502,-49.5 406,-49.5"/>
<text text-anchor="start" x="414" y="-67.5" font-family="Helvetica,sans-Serif" font-size="10.00">web::http::client::</text>
<text text-anchor="middle" x="454" y="-56.5" font-family="Helvetica,sans-Serif" font-size="10.00">Request::enqueue</text>
</a>
</g>
</g>
<!-- Node2 -->
<g id="node2" class="node">
<title>Node2</title>
<g id="a_node2"><a xlink:href="classweb_1_1http_1_1client_1_1_request.html#a942bd7c41f6064e6ab44a541860f07de" target="_top" xlink:title=" ">
<polygon fill="white" stroke="black" points="266,-147.5 266,-177.5 362,-177.5 362,-147.5 266,-147.5"/>
<text text-anchor="start" x="274" y="-165.5" font-family="Helvetica,sans-Serif" font-size="10.00">web::http::client::</text>
<text text-anchor="middle" x="314" y="-154.5" font-family="Helvetica,sans-Serif" font-size="10.00">Request::enqueue</text>
</a>
</g>
</g>
<!-- Node1&#45;&gt;Node2 -->
<g id="edge1" class="edge">
<title>Node1&#45;&gt;Node2</title>
<path fill="none" stroke="midnightblue" d="M431.65,-87.01C415.75,-102.88 392.91,-123.82 370,-138.5 364.91,-141.76 359.31,-144.77 353.68,-147.49"/>
<polygon fill="midnightblue" stroke="midnightblue" points="434.35,-89.26 438.88,-79.68 429.36,-84.35 434.35,-89.26"/>
</g>
<!-- Node3 -->
<g id="node3" class="node">
<title>Node3</title>
<g id="a_node3"><a xlink:href="classweb_1_1http_1_1client_1_1_request.html#a224a48794f94fc2a9a29266cca1c604e" target="_top" xlink:title=" ">
<polygon fill="white" stroke="black" points="268,-98.5 268,-128.5 360,-128.5 360,-98.5 268,-98.5"/>
<text text-anchor="start" x="276" y="-116.5" font-family="Helvetica,sans-Serif" font-size="10.00">web::http::client::</text>
<text text-anchor="middle" x="314" y="-105.5" font-family="Helvetica,sans-Serif" font-size="10.00">Request::receive</text>
</a>
</g>
</g>
<!-- Node1&#45;&gt;Node3 -->
<g id="edge2" class="edge">
<title>Node1&#45;&gt;Node3</title>
<path fill="none" stroke="midnightblue" d="M400.8,-83.04C386.55,-88.1 371.28,-93.52 357.63,-98.36"/>
<polygon fill="midnightblue" stroke="midnightblue" points="402.22,-86.25 410.47,-79.6 399.87,-79.65 402.22,-86.25"/>
</g>
<!-- Node4 -->
<g id="node4" class="node">
<title>Node4</title>
<g id="a_node4"><a xlink:href="classweb_1_1http_1_1client_1_1_request.html#a30015053640f679106d122dc66ae6758" target="_top" xlink:title=" ">
<polygon fill="white" stroke="black" points="268,-49.5 268,-79.5 360,-79.5 360,-49.5 268,-49.5"/>
<text text-anchor="start" x="276" y="-67.5" font-family="Helvetica,sans-Serif" font-size="10.00">web::http::client::</text>
<text text-anchor="middle" x="314" y="-56.5" font-family="Helvetica,sans-Serif" font-size="10.00">Request::send</text>
</a>
</g>
</g>
<!-- Node1&#45;&gt;Node4 -->
<g id="edge3" class="edge">
<title>Node1&#45;&gt;Node4</title>
<path fill="none" stroke="midnightblue" d="M395.62,-64.5C383.74,-64.5 371.39,-64.5 360.03,-64.5"/>
<polygon fill="midnightblue" stroke="midnightblue" points="395.89,-68 405.89,-64.5 395.89,-61 395.89,-68"/>
</g>
<!-- Node8 -->
<g id="node8" class="node">
<title>Node8</title>
<g id="a_node8"><a xlink:href="classweb_1_1http_1_1client_1_1_request.html#af01f064a43a4ee0026ff35a265e8ada1" target="_top" xlink:title=" ">
<polygon fill="white" stroke="black" points="258,-0.5 258,-30.5 370,-30.5 370,-0.5 258,-0.5"/>
<text text-anchor="start" x="266" y="-18.5" font-family="Helvetica,sans-Serif" font-size="10.00">web::http::client::</text>
<text text-anchor="middle" x="314" y="-7.5" font-family="Helvetica,sans-Serif" font-size="10.00">Request::sendHeader</text>
</a>
</g>
</g>
<!-- Node1&#45;&gt;Node8 -->
<g id="edge7" class="edge">
<title>Node1&#45;&gt;Node8</title>
<path fill="none" stroke="midnightblue" d="M416.64,-45.56C402.41,-39.83 385.78,-33.72 370.13,-28.45"/>
<polygon fill="midnightblue" stroke="midnightblue" points="415.49,-48.87 426.06,-49.46 418.16,-42.4 415.49,-48.87"/>
</g>
<!-- Node5 -->
<g id="node5" class="node">
<title>Node5</title>
<g id="a_node5"><a xlink:href="classweb_1_1http_1_1client_1_1_request.html#a404be530def9c2fde1690e1253018909" target="_top" xlink:title=" ">
<polygon fill="white" stroke="black" points="130,-73.5 130,-103.5 222,-103.5 222,-73.5 130,-73.5"/>
<text text-anchor="start" x="138" y="-91.5" font-family="Helvetica,sans-Serif" font-size="10.00">web::http::client::</text>
<text text-anchor="middle" x="176" y="-80.5" font-family="Helvetica,sans-Serif" font-size="10.00">Request::send</text>
</a>
</g>
</g>
<!-- Node4&#45;&gt;Node5 -->
<g id="edge4" class="edge">
<title>Node4&#45;&gt;Node5</title>
<path fill="none" stroke="midnightblue" d="M257.53,-74.29C245.74,-76.37 233.43,-78.54 222.09,-80.54"/>
<polygon fill="midnightblue" stroke="midnightblue" points="258.47,-77.68 267.71,-72.49 257.26,-70.78 258.47,-77.68"/>
</g>
<!-- Node6 -->
<g id="node6" class="node">
<title>Node6</title>
<g id="a_node6"><a xlink:href="classweb_1_1http_1_1client_1_1_request.html#a6472d642f595b7434bf8377b343f893f" target="_top" xlink:title=" ">
<polygon fill="white" stroke="black" points="130,-24.5 130,-54.5 222,-54.5 222,-24.5 130,-24.5"/>
<text text-anchor="start" x="138" y="-42.5" font-family="Helvetica,sans-Serif" font-size="10.00">web::http::client::</text>
<text text-anchor="middle" x="176" y="-31.5" font-family="Helvetica,sans-Serif" font-size="10.00">Request::start</text>
</a>
</g>
</g>
<!-- Node4&#45;&gt;Node6 -->
<g id="edge5" class="edge">
<title>Node4&#45;&gt;Node6</title>
<path fill="none" stroke="midnightblue" d="M257.53,-54.3C245.74,-52.14 233.43,-49.87 222.09,-47.79"/>
<polygon fill="midnightblue" stroke="midnightblue" points="257.25,-57.81 267.71,-56.18 258.51,-50.93 257.25,-57.81"/>
</g>
<!-- Node7 -->
<g id="node7" class="node">
<title>Node7</title>
<g id="a_node7"><a xlink:href="classweb_1_1http_1_1client_1_1_request.html#ade3f2c0c18eb527560f212631a627a0d" target="_top" xlink:title=" ">
<polygon fill="white" stroke="black" points="0,-24.5 0,-54.5 94,-54.5 94,-24.5 0,-24.5"/>
<text text-anchor="start" x="8" y="-42.5" font-family="Helvetica,sans-Serif" font-size="10.00">web::http::client::</text>
<text text-anchor="middle" x="47" y="-31.5" font-family="Helvetica,sans-Serif" font-size="10.00">Request::upgrade</text>
</a>
</g>
</g>
<!-- Node6&#45;&gt;Node7 -->
<g id="edge6" class="edge">
<title>Node6&#45;&gt;Node7</title>
<path fill="none" stroke="midnightblue" d="M119.67,-39.5C111.2,-39.5 102.53,-39.5 94.27,-39.5"/>
<polygon fill="midnightblue" stroke="midnightblue" points="119.87,-43 129.87,-39.5 119.87,-36 119.87,-43"/>
</g>
<!-- Node8&#45;&gt;Node1 -->
<g id="edge8" class="edge">
<title>Node8&#45;&gt;Node1</title>
<path fill="none" stroke="midnightblue" d="M351.58,-34.53C368.23,-41.23 388.14,-48.43 405.89,-54.21"/>
<polygon fill="midnightblue" stroke="midnightblue" points="352.77,-31.23 342.19,-30.65 350.1,-37.7 352.77,-31.23"/>
</g>
</g>
</svg>
