<?xml version="1.0" encoding="UTF-8" standalone="no"?>
<!DOCTYPE svg PUBLIC "-//W3C//DTD SVG 1.1//EN"
 "http://www.w3.org/Graphics/SVG/1.1/DTD/svg11.dtd">
<!-- Generated by graphviz version 2.43.0 (0)
 -->
<!-- Title: web::http::server::Response::upgrade Pages: 1 -->
<svg width="1175pt" height="617pt"
 viewBox="0.00 0.00 1175.00 616.58" xmlns="http://www.w3.org/2000/svg" xmlns:xlink="http://www.w3.org/1999/xlink">
<g id="graph0" class="graph" transform="scale(1 1) rotate(0) translate(4 612.58)">
<title>web::http::server::Response::upgrade</title>
<polygon fill="white" stroke="transparent" points="-4,4 -4,-612.58 1171,-612.58 1171,4 -4,4"/>
<!-- Node1 -->
<g id="node1" class="node">
<title>Node1</title>
<g id="a_node1"><a xlink:title=" ">
<polygon fill="#bfbfbf" stroke="black" points="0,-249 0,-279 101,-279 101,-249 0,-249"/>
<text text-anchor="start" x="8" y="-267" font-family="Helvetica,sans-Serif" font-size="10.00">web::http::server::</text>
<text text-anchor="middle" x="50.5" y="-256" font-family="Helvetica,sans-Serif" font-size="10.00">Response::upgrade</text>
</a>
</g>
</g>
<!-- Node2 -->
<g id="node2" class="node">
<title>Node2</title>
<g id="a_node2"><a xlink:href="namespacehttputils.html#af566d4f31d97a3a84b373a94e6cf9594" target="_top" xlink:title=" ">
<polygon fill="white" stroke="black" points="1060,-472.5 1060,-491.5 1167,-491.5 1167,-472.5 1060,-472.5"/>
<text text-anchor="middle" x="1113.5" y="-479.5" font-family="Helvetica,sans-Serif" font-size="10.00">httputils::ci_contains</text>
</a>
</g>
</g>
<!-- Node1&#45;&gt;Node2 -->
<g id="edge1" class="edge">
<title>Node1&#45;&gt;Node2</title>
<path fill="none" stroke="midnightblue" d="M57.69,-279.31C85.37,-345.04 204.62,-600 389,-600 389,-600 389,-600 784.5,-600 891.28,-600 928.33,-628.43 1024,-581 1059.97,-563.17 1087.95,-523.79 1102.17,-500.43"/>
<polygon fill="midnightblue" stroke="midnightblue" points="1105.36,-501.9 1107.4,-491.51 1099.33,-498.36 1105.36,-501.9"/>
</g>
<!-- Node3 -->
<g id="node3" class="node">
<title>Node3</title>
<g id="a_node3"><a xlink:href="classweb_1_1http_1_1server_1_1_response.html#a761cba48efb6eed2fa816750670c03db" target="_top" xlink:title=" ">
<polygon fill="white" stroke="black" points="165.5,-356 165.5,-386 261.5,-386 261.5,-356 165.5,-356"/>
<text text-anchor="start" x="173.5" y="-374" font-family="Helvetica,sans-Serif" font-size="10.00">web::http::server::</text>
<text text-anchor="middle" x="213.5" y="-363" font-family="Helvetica,sans-Serif" font-size="10.00">Response::end</text>
</a>
</g>
</g>
<!-- Node1&#45;&gt;Node3 -->
<g id="edge2" class="edge">
<title>Node1&#45;&gt;Node3</title>
<path fill="none" stroke="midnightblue" d="M65.04,-279.07C80.91,-296 108.66,-323.4 137,-341 143.34,-344.94 150.29,-348.53 157.32,-351.75"/>
<polygon fill="midnightblue" stroke="midnightblue" points="156.35,-355.14 166.91,-355.91 159.13,-348.72 156.35,-355.14"/>
</g>
<!-- Node8 -->
<g id="node8" class="node">
<title>Node8</title>
<g id="a_node8"><a xlink:href="classweb_1_1http_1_1server_1_1_response.html#a82301ce94e8418a2d0b9bc052207a178" target="_top" xlink:title=" ">
<polygon fill="white" stroke="black" points="920.5,-350 920.5,-380 1016.5,-380 1016.5,-350 920.5,-350"/>
<text text-anchor="start" x="928.5" y="-368" font-family="Helvetica,sans-Serif" font-size="10.00">web::http::server::</text>
<text text-anchor="middle" x="968.5" y="-357" font-family="Helvetica,sans-Serif" font-size="10.00">Response::set</text>
</a>
</g>
</g>
<!-- Node1&#45;&gt;Node8 -->
<g id="edge25" class="edge">
<title>Node1&#45;&gt;Node8</title>
<path fill="none" stroke="midnightblue" d="M100.43,-279.01C165.62,-297.64 284.84,-327 389,-327 389,-327 389,-327 573,-327 693.51,-327 833.77,-344.79 910.35,-356.02"/>
<polygon fill="midnightblue" stroke="midnightblue" points="909.87,-359.49 920.28,-357.49 910.9,-352.56 909.87,-359.49"/>
</g>
<!-- Node15 -->
<g id="node15" class="node">
<title>Node15</title>
<g id="a_node15"><a xlink:href="classweb_1_1http_1_1server_1_1_request.html#ad39cdf1338eb6a4d187d5bb7fe416c09" target="_top" xlink:title=" ">
<polygon fill="white" stroke="black" points="342,-258 342,-288 438,-288 438,-258 342,-258"/>
<text text-anchor="start" x="350" y="-276" font-family="Helvetica,sans-Serif" font-size="10.00">web::http::server::</text>
<text text-anchor="middle" x="390" y="-265" font-family="Helvetica,sans-Serif" font-size="10.00">Request::header</text>
</a>
</g>
</g>
<!-- Node1&#45;&gt;Node15 -->
<g id="edge17" class="edge">
<title>Node1&#45;&gt;Node15</title>
<path fill="none" stroke="midnightblue" d="M101.2,-267.98C112.94,-268.78 125.4,-269.52 137,-270 203.66,-272.73 280.33,-273.28 331.42,-273.27"/>
<polygon fill="midnightblue" stroke="midnightblue" points="331.61,-276.77 341.6,-273.26 331.6,-269.77 331.61,-276.77"/>
</g>
<!-- Node17 -->
<g id="node17" class="node">
<title>Node17</title>
<g id="a_node17"><a xlink:href="classweb_1_1http_1_1server_1_1_socket_context_upgrade_factory_selector.html#a568eb6d1145d9494f8b903609a59f0f0" target="_top" xlink:title=" ">
<polygon fill="white" stroke="black" points="137.5,-219.5 137.5,-260.5 289.5,-260.5 289.5,-219.5 137.5,-219.5"/>
<text text-anchor="start" x="145.5" y="-248.5" font-family="Helvetica,sans-Serif" font-size="10.00">web::http::server::</text>
<text text-anchor="start" x="145.5" y="-237.5" font-family="Helvetica,sans-Serif" font-size="10.00">SocketContextUpgradeFactory</text>
<text text-anchor="middle" x="213.5" y="-226.5" font-family="Helvetica,sans-Serif" font-size="10.00">Selector::instance</text>
</a>
</g>
</g>
<!-- Node1&#45;&gt;Node17 -->
<g id="edge19" class="edge">
<title>Node1&#45;&gt;Node17</title>
<path fill="none" stroke="midnightblue" d="M101.12,-256.6C109.44,-255.36 118.29,-254.04 127.21,-252.71"/>
<polygon fill="midnightblue" stroke="midnightblue" points="127.92,-256.15 137.29,-251.21 126.89,-249.22 127.92,-256.15"/>
</g>
<!-- Node18 -->
<g id="node18" class="node">
<title>Node18</title>
<g id="a_node18"><a xlink:href="classweb_1_1http_1_1server_1_1_socket_context_upgrade_factory_selector.html#a0f3c3fc11f20bc704da83f07ad3fa2ff" target="_top" xlink:title=" ">
<polygon fill="white" stroke="black" points="137.5,-159.5 137.5,-200.5 289.5,-200.5 289.5,-159.5 137.5,-159.5"/>
<text text-anchor="start" x="145.5" y="-188.5" font-family="Helvetica,sans-Serif" font-size="10.00">web::http::server::</text>
<text text-anchor="start" x="145.5" y="-177.5" font-family="Helvetica,sans-Serif" font-size="10.00">SocketContextUpgradeFactory</text>
<text text-anchor="middle" x="213.5" y="-166.5" font-family="Helvetica,sans-Serif" font-size="10.00">Selector::select</text>
</a>
</g>
</g>
<!-- Node1&#45;&gt;Node18 -->
<g id="edge20" class="edge">
<title>Node1&#45;&gt;Node18</title>
<path fill="none" stroke="midnightblue" d="M72.99,-248.86C89.9,-237.34 114.31,-221.55 137,-210 140.51,-208.22 144.14,-206.46 147.84,-204.76"/>
<polygon fill="midnightblue" stroke="midnightblue" points="149.42,-207.89 157.13,-200.63 146.57,-201.5 149.42,-207.89"/>
</g>
<!-- Node21 -->
<g id="node21" class="node">
<title>Node21</title>
<g id="a_node21"><a xlink:href="classweb_1_1http_1_1server_1_1_response.html#ab0e29ec119bf92d286d94d12ff2071ba" target="_top" xlink:title=" ">
<polygon fill="white" stroke="black" points="165.5,-110 165.5,-140 261.5,-140 261.5,-110 165.5,-110"/>
<text text-anchor="start" x="173.5" y="-128" font-family="Helvetica,sans-Serif" font-size="10.00">web::http::server::</text>
<text text-anchor="middle" x="213.5" y="-117" font-family="Helvetica,sans-Serif" font-size="10.00">Response::status</text>
</a>
</g>
</g>
<!-- Node1&#45;&gt;Node21 -->
<g id="edge26" class="edge">
<title>Node1&#45;&gt;Node21</title>
<path fill="none" stroke="midnightblue" d="M59.01,-248.72C71.74,-224.36 99.84,-176.72 137,-150 142.65,-145.94 149,-142.51 155.56,-139.61"/>
<polygon fill="midnightblue" stroke="midnightblue" points="157.26,-142.7 165.25,-135.75 154.67,-136.2 157.26,-142.7"/>
</g>
<!-- Node22 -->
<g id="node22" class="node">
<title>Node22</title>
<g id="a_node22"><a xlink:href="classnet_1_1socket_1_1stream_1_1_socket_context.html#aee1c0a98c26ab9e3f95e08befdeb74f3" target="_top" xlink:title=" ">
<polygon fill="white" stroke="black" points="137,-49.5 137,-90.5 290,-90.5 290,-49.5 137,-49.5"/>
<text text-anchor="start" x="145" y="-78.5" font-family="Helvetica,sans-Serif" font-size="10.00">net::socket::stream</text>
<text text-anchor="start" x="145" y="-67.5" font-family="Helvetica,sans-Serif" font-size="10.00">::SocketContext::switchSocket</text>
<text text-anchor="middle" x="213.5" y="-56.5" font-family="Helvetica,sans-Serif" font-size="10.00">Context</text>
</a>
</g>
</g>
<!-- Node1&#45;&gt;Node22 -->
<g id="edge27" class="edge">
<title>Node1&#45;&gt;Node22</title>
<path fill="none" stroke="midnightblue" d="M55.61,-248.77C64.91,-217.06 90.45,-143.39 137,-101 138.88,-99.29 140.87,-97.67 142.94,-96.13"/>
<polygon fill="midnightblue" stroke="midnightblue" points="144.88,-99.04 151.28,-90.59 141.01,-93.2 144.88,-99.04"/>
</g>
<!-- Node4 -->
<g id="node4" class="node">
<title>Node4</title>
<g id="a_node4"><a xlink:href="classweb_1_1http_1_1server_1_1_response.html#ad13e93ee083ee9e780a4478a86fdefec" target="_top" xlink:title=" ">
<polygon fill="white" stroke="black" points="342,-356 342,-386 438,-386 438,-356 342,-356"/>
<text text-anchor="start" x="350" y="-374" font-family="Helvetica,sans-Serif" font-size="10.00">web::http::server::</text>
<text text-anchor="middle" x="390" y="-363" font-family="Helvetica,sans-Serif" font-size="10.00">Response::send</text>
</a>
</g>
</g>
<!-- Node3&#45;&gt;Node4 -->
<g id="edge3" class="edge">
<title>Node3&#45;&gt;Node4</title>
<path fill="none" stroke="midnightblue" d="M261.72,-371C283.25,-371 308.94,-371 331.58,-371"/>
<polygon fill="midnightblue" stroke="midnightblue" points="331.74,-374.5 341.74,-371 331.74,-367.5 331.74,-374.5"/>
</g>
<!-- Node5 -->
<g id="node5" class="node">
<title>Node5</title>
<g id="a_node5"><a xlink:href="classweb_1_1http_1_1server_1_1_response.html#a6bdff1ff4fb13a952df7bfefd0b87667" target="_top" xlink:title=" ">
<polygon fill="white" stroke="black" points="520,-419 520,-449 624,-449 624,-419 520,-419"/>
<text text-anchor="start" x="528" y="-437" font-family="Helvetica,sans-Serif" font-size="10.00">web::http::server::</text>
<text text-anchor="middle" x="572" y="-426" font-family="Helvetica,sans-Serif" font-size="10.00">Response::enqueue</text>
</a>
</g>
</g>
<!-- Node4&#45;&gt;Node5 -->
<g id="edge4" class="edge">
<title>Node4&#45;&gt;Node5</title>
<path fill="none" stroke="midnightblue" d="M434.11,-386.09C459.4,-394.94 491.54,-406.19 518.32,-415.56"/>
<polygon fill="midnightblue" stroke="midnightblue" points="517.33,-418.92 527.93,-418.92 519.64,-412.32 517.33,-418.92"/>
</g>
<!-- Node4&#45;&gt;Node8 -->
<g id="edge16" class="edge">
<title>Node4&#45;&gt;Node8</title>
<path fill="none" stroke="midnightblue" d="M438.18,-370.51C543.27,-369.42 796.31,-366.78 910.23,-365.6"/>
<polygon fill="midnightblue" stroke="midnightblue" points="910.52,-369.09 920.48,-365.49 910.44,-362.09 910.52,-369.09"/>
</g>
<!-- Node6 -->
<g id="node6" class="node">
<title>Node6</title>
<g id="a_node6"><a xlink:href="classweb_1_1http_1_1server_1_1_response.html#a4fae387fd1d11b86260f4572bfebfce2" target="_top" xlink:title=" ">
<polygon fill="white" stroke="black" points="724,-394 724,-424 843,-424 843,-394 724,-394"/>
<text text-anchor="start" x="732" y="-412" font-family="Helvetica,sans-Serif" font-size="10.00">web::http::server::</text>
<text text-anchor="middle" x="783.5" y="-401" font-family="Helvetica,sans-Serif" font-size="10.00">Response::sendHeader</text>
</a>
</g>
</g>
<!-- Node5&#45;&gt;Node6 -->
<g id="edge5" class="edge">
<title>Node5&#45;&gt;Node6</title>
<path fill="none" stroke="midnightblue" d="M624.25,-421.99C651.12,-417.84 684.42,-413.7 713.53,-410.84"/>
<polygon fill="midnightblue" stroke="midnightblue" points="714,-414.31 723.63,-409.89 713.34,-407.35 714,-414.31"/>
</g>
<!-- Node10 -->
<g id="node10" class="node">
<title>Node10</title>
<g id="a_node10"><a xlink:href="classnet_1_1socket_1_1stream_1_1_socket_context.html#aa62f437fffcdea88263e87b6997ff85c" target="_top" xlink:title=" ">
<polygon fill="white" stroke="black" points="710.5,-541 710.5,-571 856.5,-571 856.5,-541 710.5,-541"/>
<text text-anchor="start" x="718.5" y="-559" font-family="Helvetica,sans-Serif" font-size="10.00">net::socket::stream</text>
<text text-anchor="middle" x="783.5" y="-548" font-family="Helvetica,sans-Serif" font-size="10.00">::SocketContext::sendToPeer</text>
</a>
</g>
</g>
<!-- Node5&#45;&gt;Node10 -->
<g id="edge11" class="edge">
<title>Node5&#45;&gt;Node10</title>
<path fill="none" stroke="midnightblue" d="M586.6,-449.01C606.98,-470.59 647.6,-510.16 690,-532 693.73,-533.92 697.63,-535.7 701.63,-537.34"/>
<polygon fill="midnightblue" stroke="midnightblue" points="700.51,-540.66 711.1,-540.93 702.99,-534.11 700.51,-540.66"/>
</g>
<!-- Node12 -->
<g id="node12" class="node">
<title>Node12</title>
<g id="a_node12"><a xlink:href="classweb_1_1http_1_1server_1_1_socket_context.html#af02d72d4d627ffea40a714dec9b128d7" target="_top" xlink:title=" ">
<polygon fill="white" stroke="black" points="690,-492 690,-522 877,-522 877,-492 690,-492"/>
<text text-anchor="start" x="698" y="-510" font-family="Helvetica,sans-Serif" font-size="10.00">web::http::server::</text>
<text text-anchor="middle" x="783.5" y="-499" font-family="Helvetica,sans-Serif" font-size="10.00">SocketContext::sendToPeerCompleted</text>
</a>
</g>
</g>
<!-- Node5&#45;&gt;Node12 -->
<g id="edge13" class="edge">
<title>Node5&#45;&gt;Node12</title>
<path fill="none" stroke="midnightblue" d="M605.55,-449.11C628.76,-459.52 660.89,-473.18 690,-483 696.34,-485.14 702.97,-487.2 709.65,-489.15"/>
<polygon fill="midnightblue" stroke="midnightblue" points="708.87,-492.57 719.45,-491.93 710.79,-485.83 708.87,-492.57"/>
</g>
<!-- Node13 -->
<g id="node13" class="node">
<title>Node13</title>
<g id="a_node13"><a xlink:href="classweb_1_1http_1_1server_1_1_socket_context.html#a2ad61a6624a14517bdeae82a3a284d9b" target="_top" xlink:title=" ">
<polygon fill="white" stroke="black" points="694.5,-443 694.5,-473 872.5,-473 872.5,-443 694.5,-443"/>
<text text-anchor="start" x="702.5" y="-461" font-family="Helvetica,sans-Serif" font-size="10.00">web::http::server::</text>
<text text-anchor="middle" x="783.5" y="-450" font-family="Helvetica,sans-Serif" font-size="10.00">SocketContext::terminateConnection</text>
</a>
</g>
</g>
<!-- Node5&#45;&gt;Node13 -->
<g id="edge14" class="edge">
<title>Node5&#45;&gt;Node13</title>
<path fill="none" stroke="midnightblue" d="M624.25,-439.87C642.36,-441.95 663.39,-444.36 684.09,-446.73"/>
<polygon fill="midnightblue" stroke="midnightblue" points="683.88,-450.23 694.22,-447.89 684.68,-443.27 683.88,-450.23"/>
</g>
<!-- Node6&#45;&gt;Node5 -->
<g id="edge7" class="edge">
<title>Node6&#45;&gt;Node5</title>
<path fill="none" stroke="midnightblue" d="M723.63,-422.16C695.78,-426.28 662.54,-430.27 634.38,-432.88"/>
<polygon fill="midnightblue" stroke="midnightblue" points="633.9,-429.41 624.25,-433.78 634.52,-436.38 633.9,-429.41"/>
</g>
<!-- Node7 -->
<g id="node7" class="node">
<title>Node7</title>
<g id="a_node7"><a xlink:href="classweb_1_1http_1_1server_1_1_response.html#aa9a6f2cbf1a4f186db94f9a2d5d6da08" target="_top" xlink:title=" ">
<polygon fill="white" stroke="black" points="920.5,-438 920.5,-468 1016.5,-468 1016.5,-438 920.5,-438"/>
<text text-anchor="start" x="928.5" y="-456" font-family="Helvetica,sans-Serif" font-size="10.00">web::http::server::</text>
<text text-anchor="middle" x="968.5" y="-445" font-family="Helvetica,sans-Serif" font-size="10.00">Response::cookie</text>
</a>
</g>
</g>
<!-- Node6&#45;&gt;Node7 -->
<g id="edge6" class="edge">
<title>Node6&#45;&gt;Node7</title>
<path fill="none" stroke="midnightblue" d="M843.16,-423.1C864.73,-428.29 889.11,-434.15 910.52,-439.3"/>
<polygon fill="midnightblue" stroke="midnightblue" points="909.91,-442.75 920.46,-441.69 911.55,-435.95 909.91,-442.75"/>
</g>
<!-- Node6&#45;&gt;Node8 -->
<g id="edge8" class="edge">
<title>Node6&#45;&gt;Node8</title>
<path fill="none" stroke="midnightblue" d="M843.16,-394.9C864.73,-389.71 889.11,-383.85 910.52,-378.7"/>
<polygon fill="midnightblue" stroke="midnightblue" points="911.55,-382.05 920.46,-376.31 909.91,-375.25 911.55,-382.05"/>
</g>
<!-- Node9 -->
<g id="node9" class="node">
<title>Node9</title>
<g id="a_node9"><a xlink:href="namespacehttputils.html#a01539c1af68e4d072d3507ae44c0b02a" target="_top" xlink:title=" ">
<polygon fill="white" stroke="black" points="913,-399.5 913,-418.5 1024,-418.5 1024,-399.5 913,-399.5"/>
<text text-anchor="middle" x="968.5" y="-406.5" font-family="Helvetica,sans-Serif" font-size="10.00">httputils::to_http_date</text>
</a>
</g>
</g>
<!-- Node6&#45;&gt;Node9 -->
<g id="edge10" class="edge">
<title>Node6&#45;&gt;Node9</title>
<path fill="none" stroke="midnightblue" d="M843.16,-409C862.12,-409 883.26,-409 902.64,-409"/>
<polygon fill="midnightblue" stroke="midnightblue" points="902.9,-412.5 912.9,-409 902.9,-405.5 902.9,-412.5"/>
</g>
<!-- Node8&#45;&gt;Node2 -->
<g id="edge9" class="edge">
<title>Node8&#45;&gt;Node2</title>
<path fill="none" stroke="midnightblue" d="M1007.18,-380.02C1013.02,-382.98 1018.82,-386.32 1024,-390 1054.22,-411.46 1082.73,-444.15 1098.86,-464.23"/>
<polygon fill="midnightblue" stroke="midnightblue" points="1096.24,-466.56 1105.18,-472.24 1101.74,-462.22 1096.24,-466.56"/>
</g>
<!-- Node11 -->
<g id="node11" class="node">
<title>Node11</title>
<g id="a_node11"><a xlink:href="classnet_1_1socket_1_1stream_1_1_socket_connection.html#a4b368347b53c2853a0358c98810c15bd" target="_top" xlink:title=" ">
<polygon fill="white" stroke="black" points="914,-530.5 914,-571.5 1023,-571.5 1023,-530.5 914,-530.5"/>
<text text-anchor="start" x="922" y="-559.5" font-family="Helvetica,sans-Serif" font-size="10.00">net::socket::stream</text>
<text text-anchor="start" x="922" y="-548.5" font-family="Helvetica,sans-Serif" font-size="10.00">::SocketConnection::</text>
<text text-anchor="middle" x="968.5" y="-537.5" font-family="Helvetica,sans-Serif" font-size="10.00">sendToPeer</text>
</a>
</g>
</g>
<!-- Node10&#45;&gt;Node11 -->
<g id="edge12" class="edge">
<title>Node10&#45;&gt;Node11</title>
<path fill="none" stroke="midnightblue" d="M856.56,-554.03C872.09,-553.61 888.39,-553.16 903.58,-552.75"/>
<polygon fill="midnightblue" stroke="midnightblue" points="903.99,-556.24 913.89,-552.46 903.8,-549.24 903.99,-556.24"/>
</g>
<!-- Node14 -->
<g id="node14" class="node">
<title>Node14</title>
<g id="a_node14"><a xlink:href="namespacenet_1_1system.html#a5b804e9ab85ee96fb6af201078653816" target="_top" xlink:title=" ">
<polygon fill="white" stroke="black" points="919.5,-487.5 919.5,-506.5 1017.5,-506.5 1017.5,-487.5 919.5,-487.5"/>
<text text-anchor="middle" x="968.5" y="-494.5" font-family="Helvetica,sans-Serif" font-size="10.00">net::system::close</text>
</a>
</g>
</g>
<!-- Node13&#45;&gt;Node14 -->
<g id="edge15" class="edge">
<title>Node13&#45;&gt;Node14</title>
<path fill="none" stroke="midnightblue" d="M854.99,-473.02C874.19,-477.11 894.7,-481.48 912.87,-485.36"/>
<polygon fill="midnightblue" stroke="midnightblue" points="912.19,-488.79 922.7,-487.45 913.65,-481.95 912.19,-488.79"/>
</g>
<!-- Node16 -->
<g id="node16" class="node">
<title>Node16</title>
<g id="a_node16"><a xlink:href="namespacehttputils.html#a4dd60a8e2472042c70e00dec22ebf927" target="_top" xlink:title=" ">
<polygon fill="white" stroke="black" points="525,-241.5 525,-260.5 619,-260.5 619,-241.5 525,-241.5"/>
<text text-anchor="middle" x="572" y="-248.5" font-family="Helvetica,sans-Serif" font-size="10.00">httputils::to_lower</text>
</a>
</g>
</g>
<!-- Node15&#45;&gt;Node16 -->
<g id="edge18" class="edge">
<title>Node15&#45;&gt;Node16</title>
<path fill="none" stroke="midnightblue" d="M438.29,-267.22C461.72,-264.36 490.16,-260.88 514.7,-257.88"/>
<polygon fill="midnightblue" stroke="midnightblue" points="515.45,-261.32 524.96,-256.63 514.61,-254.37 515.45,-261.32"/>
</g>
<!-- Node18&#45;&gt;Node15 -->
<g id="edge21" class="edge">
<title>Node18&#45;&gt;Node15</title>
<path fill="none" stroke="midnightblue" d="M272.86,-200.67C278.8,-203.51 284.62,-206.63 290,-210 308.39,-221.53 308,-230.87 326,-243 331.53,-246.73 337.6,-250.25 343.72,-253.46"/>
<polygon fill="midnightblue" stroke="midnightblue" points="342.16,-256.6 352.67,-257.96 345.3,-250.34 342.16,-256.6"/>
</g>
<!-- Node18&#45;&gt;Node16 -->
<g id="edge24" class="edge">
<title>Node18&#45;&gt;Node16</title>
<path fill="none" stroke="midnightblue" d="M286.82,-200.55C299.81,-203.93 313.27,-207.23 326,-210 390.26,-223.99 464.9,-235.86 514.75,-243.17"/>
<polygon fill="midnightblue" stroke="midnightblue" points="514.29,-246.64 524.69,-244.62 515.29,-239.71 514.29,-246.64"/>
</g>
<!-- Node19 -->
<g id="node19" class="node">
<title>Node19</title>
<g id="a_node19"><a xlink:href="classweb_1_1http_1_1_socket_context_upgrade_factory_selector.html#a57f062efa9fe08c37fe67e32c7a85275" target="_top" xlink:title=" ">
<polygon fill="white" stroke="black" points="326,-159.5 326,-200.5 454,-200.5 454,-159.5 326,-159.5"/>
<text text-anchor="start" x="334" y="-188.5" font-family="Helvetica,sans-Serif" font-size="10.00">web::http::SocketContext</text>
<text text-anchor="start" x="334" y="-177.5" font-family="Helvetica,sans-Serif" font-size="10.00">UpgradeFactorySelector</text>
<text text-anchor="middle" x="390" y="-166.5" font-family="Helvetica,sans-Serif" font-size="10.00">::select</text>
</a>
</g>
</g>
<!-- Node18&#45;&gt;Node19 -->
<g id="edge22" class="edge">
<title>Node18&#45;&gt;Node19</title>
<path fill="none" stroke="midnightblue" d="M289.52,-180C298.21,-180 307.08,-180 315.75,-180"/>
<polygon fill="midnightblue" stroke="midnightblue" points="315.82,-183.5 325.82,-180 315.82,-176.5 315.82,-183.5"/>
</g>
<!-- Node20 -->
<g id="node20" class="node">
<title>Node20</title>
<g id="a_node20"><a xlink:href="namespacehttputils.html#a9e46abe5c20380871f3884c9176a424d" target="_top" xlink:title=" ">
<polygon fill="white" stroke="black" points="344,-121.5 344,-140.5 436,-140.5 436,-121.5 344,-121.5"/>
<text text-anchor="middle" x="390" y="-128.5" font-family="Helvetica,sans-Serif" font-size="10.00">httputils::str_split</text>
</a>
</g>
</g>
<!-- Node18&#45;&gt;Node20 -->
<g id="edge23" class="edge">
<title>Node18&#45;&gt;Node20</title>
<path fill="none" stroke="midnightblue" d="M287.75,-159.43C307.24,-153.96 327.69,-148.22 345.06,-143.34"/>
<polygon fill="midnightblue" stroke="midnightblue" points="346.23,-146.65 354.91,-140.57 344.34,-139.91 346.23,-146.65"/>
</g>
<!-- Node23 -->
<g id="node23" class="node">
<title>Node23</title>
<g id="a_node23"><a xlink:href="classnet_1_1socket_1_1stream_1_1_socket_context.html#a3faab6859b4ec2ee374f47bf7b45956a" target="_top" xlink:title=" ">
<polygon fill="white" stroke="black" points="333.5,-6 333.5,-36 446.5,-36 446.5,-6 333.5,-6"/>
<text text-anchor="start" x="341.5" y="-24" font-family="Helvetica,sans-Serif" font-size="10.00">net::socket::stream</text>
<text text-anchor="middle" x="390" y="-13" font-family="Helvetica,sans-Serif" font-size="10.00">::SocketContext::stop</text>
</a>
</g>
</g>
<!-- Node22&#45;&gt;Node23 -->
<g id="edge28" class="edge">
<title>Node22&#45;&gt;Node23</title>
<path fill="none" stroke="midnightblue" d="M287.75,-49.43C300.4,-45.88 313.47,-42.21 325.83,-38.74"/>
<polygon fill="midnightblue" stroke="midnightblue" points="326.89,-42.08 335.57,-36 325,-35.34 326.89,-42.08"/>
</g>
<!-- Node24 -->
<g id="node24" class="node">
<title>Node24</title>
<g id="a_node24"><a xlink:href="classnet_1_1socket_1_1stream_1_1_socket_connection.html#a49bd0dd83c73791519313b5e6c44a01a" target="_top" xlink:title=" ">
<polygon fill="white" stroke="black" points="335,-55.5 335,-96.5 445,-96.5 445,-55.5 335,-55.5"/>
<text text-anchor="start" x="343" y="-84.5" font-family="Helvetica,sans-Serif" font-size="10.00">net::socket::stream</text>
<text text-anchor="start" x="343" y="-73.5" font-family="Helvetica,sans-Serif" font-size="10.00">::SocketConnection::</text>
<text text-anchor="middle" x="390" y="-62.5" font-family="Helvetica,sans-Serif" font-size="10.00">switchSocketContext</text>
</a>
</g>
</g>
<!-- Node22&#45;&gt;Node24 -->
<g id="edge29" class="edge">
<title>Node22&#45;&gt;Node24</title>
<path fill="none" stroke="midnightblue" d="M290.02,-72.6C301.59,-72.99 313.43,-73.4 324.73,-73.79"/>
<polygon fill="midnightblue" stroke="midnightblue" points="324.8,-77.29 334.92,-74.14 325.05,-70.3 324.8,-77.29"/>
</g>
<!-- Node25 -->
<g id="node25" class="node">
<title>Node25</title>
<g id="a_node25"><a xlink:href="classnet_1_1socket_1_1stream_1_1_socket_context_factory.html#a9645b45969494e3b05878e60f992f231" target="_top" xlink:title=" ">
<polygon fill="white" stroke="black" points="511.5,-0.5 511.5,-41.5 632.5,-41.5 632.5,-0.5 511.5,-0.5"/>
<text text-anchor="start" x="519.5" y="-29.5" font-family="Helvetica,sans-Serif" font-size="10.00">net::socket::stream</text>
<text text-anchor="start" x="519.5" y="-18.5" font-family="Helvetica,sans-Serif" font-size="10.00">::SocketContextFactory</text>
<text text-anchor="middle" x="572" y="-7.5" font-family="Helvetica,sans-Serif" font-size="10.00">::create</text>
</a>
</g>
</g>
<!-- Node24&#45;&gt;Node25 -->
<g id="edge30" class="edge">
<title>Node24&#45;&gt;Node25</title>
<path fill="none" stroke="midnightblue" d="M445.01,-59.5C462.82,-54.06 482.88,-47.92 501.68,-42.18"/>
<polygon fill="midnightblue" stroke="midnightblue" points="502.83,-45.49 511.37,-39.22 500.78,-38.79 502.83,-45.49"/>
</g>
<!-- Node26 -->
<g id="node26" class="node">
<title>Node26</title>
<g id="a_node26"><a xlink:href="classnet_1_1socket_1_1stream_1_1_socket_context.html#a290c49df617dd40cac3d8a02d1b2f1ed" target="_top" xlink:title=" ">
<polygon fill="white" stroke="black" points="496,-110 496,-140 648,-140 648,-110 496,-110"/>
<text text-anchor="start" x="504" y="-128" font-family="Helvetica,sans-Serif" font-size="10.00">net::socket::stream</text>
<text text-anchor="middle" x="572" y="-117" font-family="Helvetica,sans-Serif" font-size="10.00">::SocketContext::onConnected</text>
</a>
</g>
</g>
<!-- Node24&#45;&gt;Node26 -->
<g id="edge31" class="edge">
<title>Node24&#45;&gt;Node26</title>
<path fill="none" stroke="midnightblue" d="M445.01,-90.7C464.23,-95.93 486.07,-101.88 506.11,-107.34"/>
<polygon fill="midnightblue" stroke="midnightblue" points="505.22,-110.72 515.79,-109.97 507.06,-103.97 505.22,-110.72"/>
</g>
<!-- Node27 -->
<g id="node27" class="node">
<title>Node27</title>
<g id="a_node27"><a xlink:href="classnet_1_1socket_1_1stream_1_1_socket_context.html#ad339df8a90ad418e867292edbbcd1ff3" target="_top" xlink:title=" ">
<polygon fill="white" stroke="black" points="490,-61 490,-91 654,-91 654,-61 490,-61"/>
<text text-anchor="start" x="498" y="-79" font-family="Helvetica,sans-Serif" font-size="10.00">net::socket::stream</text>
<text text-anchor="middle" x="572" y="-68" font-family="Helvetica,sans-Serif" font-size="10.00">::SocketContext::onDisconnected</text>
</a>
</g>
</g>
<!-- Node24&#45;&gt;Node27 -->
<g id="edge32" class="edge">
<title>Node24&#45;&gt;Node27</title>
<path fill="none" stroke="midnightblue" d="M445.01,-76C455.9,-76 467.63,-76 479.4,-76"/>
<polygon fill="midnightblue" stroke="midnightblue" points="479.74,-79.5 489.74,-76 479.74,-72.5 479.74,-79.5"/>
</g>
</g>
</svg>
