<?xml version="1.0" encoding="UTF-8" standalone="no"?>
<!DOCTYPE svg PUBLIC "-//W3C//DTD SVG 1.1//EN"
 "http://www.w3.org/Graphics/SVG/1.1/DTD/svg11.dtd">
<!-- Generated by graphviz version 2.43.0 (0)
 -->
<!-- Title: net::socket::stream::tls::TLSHandshake::TLSHandshake Pages: 1 -->
<svg width="806pt" height="149pt"
 viewBox="0.00 0.00 806.00 148.50" xmlns="http://www.w3.org/2000/svg" xmlns:xlink="http://www.w3.org/1999/xlink">
<g id="graph0" class="graph" transform="scale(1 1) rotate(0) translate(4 144.5)">
<title>net::socket::stream::tls::TLSHandshake::TLSHandshake</title>
<polygon fill="white" stroke="transparent" points="-4,4 -4,-144.5 802,-144.5 802,4 -4,4"/>
<!-- Node1 -->
<g id="node1" class="node">
<title>Node1</title>
<g id="a_node1"><a xlink:title=" ">
<polygon fill="#bfbfbf" stroke="black" points="0,-44 0,-85 107,-85 107,-44 0,-44"/>
<text text-anchor="start" x="8" y="-73" font-family="Helvetica,sans-Serif" font-size="10.00">net::socket::stream</text>
<text text-anchor="start" x="8" y="-62" font-family="Helvetica,sans-Serif" font-size="10.00">::tls::TLSHandshake</text>
<text text-anchor="middle" x="53.5" y="-51" font-family="Helvetica,sans-Serif" font-size="10.00">::TLSHandshake</text>
</a>
</g>
</g>
<!-- Node2 -->
<g id="node2" class="node">
<title>Node2</title>
<g id="a_node2"><a xlink:href="classnet_1_1_descriptor_event_receiver.html#a60717df80503a37fd4d3e7ce8dc3777d" target="_top" xlink:title=" ">
<polygon fill="white" stroke="black" points="143,-49.5 143,-79.5 289,-79.5 289,-49.5 143,-49.5"/>
<text text-anchor="start" x="151" y="-67.5" font-family="Helvetica,sans-Serif" font-size="10.00">net::DescriptorEventReceiver</text>
<text text-anchor="middle" x="216" y="-56.5" font-family="Helvetica,sans-Serif" font-size="10.00">::enable</text>
</a>
</g>
</g>
<!-- Node1&#45;&gt;Node2 -->
<g id="edge1" class="edge">
<title>Node1&#45;&gt;Node2</title>
<path fill="none" stroke="midnightblue" d="M107.05,-64.5C115.27,-64.5 123.92,-64.5 132.61,-64.5"/>
<polygon fill="midnightblue" stroke="midnightblue" points="132.8,-68 142.8,-64.5 132.8,-61 132.8,-68"/>
</g>
<!-- Node3 -->
<g id="node3" class="node">
<title>Node3</title>
<g id="a_node3"><a xlink:href="classnet_1_1_descriptor_event_dispatcher.html#a73814f761935ca747c521b3ce46c2689" target="_top" xlink:title=" ">
<polygon fill="white" stroke="black" points="325,-49.5 325,-79.5 479,-79.5 479,-49.5 325,-49.5"/>
<text text-anchor="start" x="333" y="-67.5" font-family="Helvetica,sans-Serif" font-size="10.00">net::DescriptorEventDispatcher</text>
<text text-anchor="middle" x="402" y="-56.5" font-family="Helvetica,sans-Serif" font-size="10.00">::enable</text>
</a>
</g>
</g>
<!-- Node2&#45;&gt;Node3 -->
<g id="edge2" class="edge">
<title>Node2&#45;&gt;Node3</title>
<path fill="none" stroke="midnightblue" d="M289.19,-64.5C297.5,-64.5 306.03,-64.5 314.49,-64.5"/>
<polygon fill="midnightblue" stroke="midnightblue" points="314.77,-68 324.77,-64.5 314.77,-61 314.77,-68"/>
</g>
<!-- Node4 -->
<g id="node4" class="node">
<title>Node4</title>
<g id="a_node4"><a xlink:href="classnet_1_1_descriptor_event_dispatcher_1_1_descriptor_event_receiver_list.html#ab0128e4373c28e76fe9db7b286e50e38" target="_top" xlink:title=" ">
<polygon fill="white" stroke="black" points="515,-99 515,-140 669,-140 669,-99 515,-99"/>
<text text-anchor="start" x="523" y="-128" font-family="Helvetica,sans-Serif" font-size="10.00">net::DescriptorEventDispatcher</text>
<text text-anchor="start" x="523" y="-117" font-family="Helvetica,sans-Serif" font-size="10.00">::DescriptorEventReceiverList</text>
<text text-anchor="middle" x="592" y="-106" font-family="Helvetica,sans-Serif" font-size="10.00">::contains</text>
</a>
</g>
</g>
<!-- Node3&#45;&gt;Node4 -->
<g id="edge3" class="edge">
<title>Node3&#45;&gt;Node4</title>
<path fill="none" stroke="midnightblue" d="M454.37,-79.53C471.86,-84.64 491.84,-90.49 511.02,-96.1"/>
<polygon fill="midnightblue" stroke="midnightblue" points="510.08,-99.47 520.66,-98.92 512.05,-92.76 510.08,-99.47"/>
</g>
<!-- Node5 -->
<g id="node5" class="node">
<title>Node5</title>
<g id="a_node5"><a xlink:href="classnet_1_1_descriptor_event_receiver.html#ad6c6020449f16e19ac508aeb87694efc" target="_top" xlink:title=" ">
<polygon fill="white" stroke="black" points="519,-49.5 519,-79.5 665,-79.5 665,-49.5 519,-49.5"/>
<text text-anchor="start" x="527" y="-67.5" font-family="Helvetica,sans-Serif" font-size="10.00">net::DescriptorEventReceiver</text>
<text text-anchor="middle" x="592" y="-56.5" font-family="Helvetica,sans-Serif" font-size="10.00">::enabled</text>
</a>
</g>
</g>
<!-- Node3&#45;&gt;Node5 -->
<g id="edge4" class="edge">
<title>Node3&#45;&gt;Node5</title>
<path fill="none" stroke="midnightblue" d="M479.2,-64.5C488.94,-64.5 498.95,-64.5 508.79,-64.5"/>
<polygon fill="midnightblue" stroke="midnightblue" points="508.95,-68 518.95,-64.5 508.95,-61 508.95,-68"/>
</g>
<!-- Node7 -->
<g id="node7" class="node">
<title>Node7</title>
<g id="a_node7"><a xlink:href="classnet_1_1_descriptor_event_receiver.html#a58562b1da4bc4f87bc7c51eb04db62a4" target="_top" xlink:title=" ">
<polygon fill="white" stroke="black" points="519,-0.5 519,-30.5 665,-30.5 665,-0.5 519,-0.5"/>
<text text-anchor="start" x="527" y="-18.5" font-family="Helvetica,sans-Serif" font-size="10.00">net::DescriptorEventReceiver</text>
<text text-anchor="middle" x="592" y="-7.5" font-family="Helvetica,sans-Serif" font-size="10.00">::isEnabled</text>
</a>
</g>
</g>
<!-- Node3&#45;&gt;Node7 -->
<g id="edge6" class="edge">
<title>Node3&#45;&gt;Node7</title>
<path fill="none" stroke="midnightblue" d="M460.68,-49.47C480.53,-44.29 502.94,-38.45 523.5,-33.09"/>
<polygon fill="midnightblue" stroke="midnightblue" points="524.63,-36.42 533.43,-30.51 522.87,-29.64 524.63,-36.42"/>
</g>
<!-- Node6 -->
<g id="node6" class="node">
<title>Node6</title>
<g id="a_node6"><a xlink:href="namespacenet_1_1system.html#a14577a3d4ff982622034e2060c35e19b" target="_top" xlink:title=" ">
<polygon fill="white" stroke="black" points="705,-55 705,-74 798,-74 798,-55 705,-55"/>
<text text-anchor="middle" x="751.5" y="-62" font-family="Helvetica,sans-Serif" font-size="10.00">net::system::time</text>
</a>
</g>
</g>
<!-- Node5&#45;&gt;Node6 -->
<g id="edge5" class="edge">
<title>Node5&#45;&gt;Node6</title>
<path fill="none" stroke="midnightblue" d="M665.3,-64.5C675.15,-64.5 685.15,-64.5 694.66,-64.5"/>
<polygon fill="midnightblue" stroke="midnightblue" points="694.75,-68 704.75,-64.5 694.75,-61 694.75,-68"/>
</g>
</g>
</svg>
