<?xml version="1.0" encoding="UTF-8" standalone="no"?>
<!DOCTYPE svg PUBLIC "-//W3C//DTD SVG 1.1//EN"
 "http://www.w3.org/Graphics/SVG/1.1/DTD/svg11.dtd">
<!-- Generated by graphviz version 2.43.0 (0)
 -->
<!-- Title: net::DescriptorEventReceiver::isSuspended Pages: 1 -->
<svg width="862pt" height="346pt"
 viewBox="0.00 0.00 862.00 346.00" xmlns="http://www.w3.org/2000/svg" xmlns:xlink="http://www.w3.org/1999/xlink">
<g id="graph0" class="graph" transform="scale(1 1) rotate(0) translate(4 342)">
<title>net::DescriptorEventReceiver::isSuspended</title>
<polygon fill="white" stroke="transparent" points="-4,4 -4,-342 858,-342 858,4 -4,4"/>
<!-- Node1 -->
<g id="node1" class="node">
<title>Node1</title>
<g id="a_node1"><a xlink:title=" ">
<polygon fill="#bfbfbf" stroke="black" points="708,-255.5 708,-285.5 854,-285.5 854,-255.5 708,-255.5"/>
<text text-anchor="start" x="716" y="-273.5" font-family="Helvetica,sans-Serif" font-size="10.00">net::DescriptorEventReceiver</text>
<text text-anchor="middle" x="781" y="-262.5" font-family="Helvetica,sans-Serif" font-size="10.00">::isSuspended</text>
</a>
</g>
</g>
<!-- Node2 -->
<g id="node2" class="node">
<title>Node2</title>
<g id="a_node2"><a xlink:href="classnet_1_1_descriptor_event_dispatcher.html#a2f3bda27d3e9b040956e69f7b07054e5" target="_top" xlink:title=" ">
<polygon fill="white" stroke="black" points="518,-255.5 518,-285.5 672,-285.5 672,-255.5 518,-255.5"/>
<text text-anchor="start" x="526" y="-273.5" font-family="Helvetica,sans-Serif" font-size="10.00">net::DescriptorEventDispatcher</text>
<text text-anchor="middle" x="595" y="-262.5" font-family="Helvetica,sans-Serif" font-size="10.00">::resume</text>
</a>
</g>
</g>
<!-- Node1&#45;&gt;Node2 -->
<g id="edge1" class="edge">
<title>Node1&#45;&gt;Node2</title>
<path fill="none" stroke="midnightblue" d="M697.59,-270.5C689.15,-270.5 680.6,-270.5 672.23,-270.5"/>
<polygon fill="midnightblue" stroke="midnightblue" points="697.81,-274 707.81,-270.5 697.81,-267 697.81,-274"/>
</g>
<!-- Node7 -->
<g id="node7" class="node">
<title>Node7</title>
<g id="a_node7"><a xlink:href="classnet_1_1stream_1_1_pipe_source.html#a4becdd0dff7d718d098238e4c6fa8ff4" target="_top" xlink:title=" ">
<polygon fill="white" stroke="black" points="168,-307.5 168,-337.5 290,-337.5 290,-307.5 168,-307.5"/>
<text text-anchor="start" x="176" y="-325.5" font-family="Helvetica,sans-Serif" font-size="10.00">net::stream::PipeSource</text>
<text text-anchor="middle" x="229" y="-314.5" font-family="Helvetica,sans-Serif" font-size="10.00">::send</text>
</a>
</g>
</g>
<!-- Node1&#45;&gt;Node7 -->
<g id="edge8" class="edge">
<title>Node1&#45;&gt;Node7</title>
<path fill="none" stroke="midnightblue" d="M710.05,-287.7C697.45,-290.33 684.38,-292.74 672,-294.5 536.49,-313.73 375.74,-319.75 290.36,-321.64"/>
<polygon fill="midnightblue" stroke="midnightblue" points="710.99,-291.08 720.04,-285.56 709.53,-284.24 710.99,-291.08"/>
</g>
<!-- Node9 -->
<g id="node9" class="node">
<title>Node9</title>
<g id="a_node9"><a xlink:href="classnet_1_1_descriptor_event_dispatcher.html#a9eca4cac3e192e4ace05ec7b3c697298" target="_top" xlink:title=" ">
<polygon fill="white" stroke="black" points="518,-173.5 518,-203.5 672,-203.5 672,-173.5 518,-173.5"/>
<text text-anchor="start" x="526" y="-191.5" font-family="Helvetica,sans-Serif" font-size="10.00">net::DescriptorEventDispatcher</text>
<text text-anchor="middle" x="595" y="-180.5" font-family="Helvetica,sans-Serif" font-size="10.00">::suspend</text>
</a>
</g>
</g>
<!-- Node1&#45;&gt;Node9 -->
<g id="edge9" class="edge">
<title>Node1&#45;&gt;Node9</title>
<path fill="none" stroke="midnightblue" d="M736.94,-251.31C704.28,-236.75 660,-217.02 629.85,-203.58"/>
<polygon fill="midnightblue" stroke="midnightblue" points="735.69,-254.59 746.25,-255.46 738.54,-248.19 735.69,-254.59"/>
</g>
<!-- Node3 -->
<g id="node3" class="node">
<title>Node3</title>
<g id="a_node3"><a xlink:href="classnet_1_1_descriptor_event_receiver.html#a7cba21365ece0cb800e9f12280e23cd4" target="_top" xlink:title=" ">
<polygon fill="white" stroke="black" points="336,-255.5 336,-285.5 482,-285.5 482,-255.5 336,-255.5"/>
<text text-anchor="start" x="344" y="-273.5" font-family="Helvetica,sans-Serif" font-size="10.00">net::DescriptorEventReceiver</text>
<text text-anchor="middle" x="409" y="-262.5" font-family="Helvetica,sans-Serif" font-size="10.00">::resume</text>
</a>
</g>
</g>
<!-- Node2&#45;&gt;Node3 -->
<g id="edge2" class="edge">
<title>Node2&#45;&gt;Node3</title>
<path fill="none" stroke="midnightblue" d="M507.56,-270.5C499.1,-270.5 490.57,-270.5 482.27,-270.5"/>
<polygon fill="midnightblue" stroke="midnightblue" points="507.83,-274 517.83,-270.5 507.83,-267 507.83,-274"/>
</g>
<!-- Node4 -->
<g id="node4" class="node">
<title>Node4</title>
<g id="a_node4"><a xlink:href="classnet_1_1socket_1_1stream_1_1tls_1_1_socket_connection.html#af1a4936b2d84a553285fbdf1de7dd716" target="_top" xlink:title=" ">
<polygon fill="white" stroke="black" points="169.5,-247 169.5,-288 288.5,-288 288.5,-247 169.5,-247"/>
<text text-anchor="start" x="177.5" y="-276" font-family="Helvetica,sans-Serif" font-size="10.00">net::socket::stream</text>
<text text-anchor="start" x="177.5" y="-265" font-family="Helvetica,sans-Serif" font-size="10.00">::tls::SocketConnection</text>
<text text-anchor="middle" x="229" y="-254" font-family="Helvetica,sans-Serif" font-size="10.00">::doSSLHandshake</text>
</a>
</g>
</g>
<!-- Node3&#45;&gt;Node4 -->
<g id="edge3" class="edge">
<title>Node3&#45;&gt;Node4</title>
<path fill="none" stroke="midnightblue" d="M325.84,-269.12C313.27,-268.9 300.53,-268.69 288.61,-268.49"/>
<polygon fill="midnightblue" stroke="midnightblue" points="325.8,-272.61 335.86,-269.28 325.92,-265.62 325.8,-272.61"/>
</g>
<!-- Node3&#45;&gt;Node7 -->
<g id="edge6" class="edge">
<title>Node3&#45;&gt;Node7</title>
<path fill="none" stroke="midnightblue" d="M346.9,-288.35C325.56,-294.58 301.84,-301.51 281.37,-307.49"/>
<polygon fill="midnightblue" stroke="midnightblue" points="347.9,-291.7 356.52,-285.54 345.93,-284.99 347.9,-291.7"/>
</g>
<!-- Node5 -->
<g id="node5" class="node">
<title>Node5</title>
<g id="a_node5"><a xlink:href="classnet_1_1socket_1_1stream_1_1tls_1_1_socket_connector.html#a4c8ddbd0f6bbaa2c3109f27ee3ba4884" target="_top" xlink:title=" ">
<polygon fill="white" stroke="black" points="3.5,-247 3.5,-288 118.5,-288 118.5,-247 3.5,-247"/>
<text text-anchor="start" x="11.5" y="-276" font-family="Helvetica,sans-Serif" font-size="10.00">net::socket::stream</text>
<text text-anchor="start" x="11.5" y="-265" font-family="Helvetica,sans-Serif" font-size="10.00">::tls::SocketConnector</text>
<text text-anchor="middle" x="61" y="-254" font-family="Helvetica,sans-Serif" font-size="10.00">::SocketConnector</text>
</a>
</g>
</g>
<!-- Node4&#45;&gt;Node5 -->
<g id="edge4" class="edge">
<title>Node4&#45;&gt;Node5</title>
<path fill="none" stroke="midnightblue" d="M159.26,-267.5C145.73,-267.5 131.68,-267.5 118.6,-267.5"/>
<polygon fill="midnightblue" stroke="midnightblue" points="159.47,-271 169.47,-267.5 159.47,-264 159.47,-271"/>
</g>
<!-- Node6 -->
<g id="node6" class="node">
<title>Node6</title>
<g id="a_node6"><a xlink:href="classnet_1_1socket_1_1stream_1_1tls_1_1_socket_listener.html#ad1d1eb7183eef5998ab8d47d86939560" target="_top" xlink:title=" ">
<polygon fill="white" stroke="black" points="9,-187 9,-228 113,-228 113,-187 9,-187"/>
<text text-anchor="start" x="17" y="-216" font-family="Helvetica,sans-Serif" font-size="10.00">net::socket::stream</text>
<text text-anchor="start" x="17" y="-205" font-family="Helvetica,sans-Serif" font-size="10.00">::tls::SocketListener</text>
<text text-anchor="middle" x="61" y="-194" font-family="Helvetica,sans-Serif" font-size="10.00">::SocketListener</text>
</a>
</g>
</g>
<!-- Node4&#45;&gt;Node6 -->
<g id="edge5" class="edge">
<title>Node4&#45;&gt;Node6</title>
<path fill="none" stroke="midnightblue" d="M161.05,-243.3C145.07,-237.52 128.26,-231.45 113.12,-225.98"/>
<polygon fill="midnightblue" stroke="midnightblue" points="160.28,-246.74 170.87,-246.85 162.66,-240.16 160.28,-246.74"/>
</g>
<!-- Node8 -->
<g id="node8" class="node">
<title>Node8</title>
<g id="a_node8"><a xlink:href="classnet_1_1stream_1_1_pipe_source.html#a7ee7bd9951740fd33fa2333deb87cff0" target="_top" xlink:title=" ">
<polygon fill="white" stroke="black" points="0,-307.5 0,-337.5 122,-337.5 122,-307.5 0,-307.5"/>
<text text-anchor="start" x="8" y="-325.5" font-family="Helvetica,sans-Serif" font-size="10.00">net::stream::PipeSource</text>
<text text-anchor="middle" x="61" y="-314.5" font-family="Helvetica,sans-Serif" font-size="10.00">::send</text>
</a>
</g>
</g>
<!-- Node7&#45;&gt;Node8 -->
<g id="edge7" class="edge">
<title>Node7&#45;&gt;Node8</title>
<path fill="none" stroke="midnightblue" d="M157.38,-322.5C145.63,-322.5 133.54,-322.5 122.08,-322.5"/>
<polygon fill="midnightblue" stroke="midnightblue" points="157.6,-326 167.6,-322.5 157.6,-319 157.6,-326"/>
</g>
<!-- Node10 -->
<g id="node10" class="node">
<title>Node10</title>
<g id="a_node10"><a xlink:href="classnet_1_1_descriptor_event_receiver.html#a582c1dc64913a0b118befb4c272cb460" target="_top" xlink:title=" ">
<polygon fill="white" stroke="black" points="336,-137.5 336,-167.5 482,-167.5 482,-137.5 336,-137.5"/>
<text text-anchor="start" x="344" y="-155.5" font-family="Helvetica,sans-Serif" font-size="10.00">net::DescriptorEventReceiver</text>
<text text-anchor="middle" x="409" y="-144.5" font-family="Helvetica,sans-Serif" font-size="10.00">::suspend</text>
</a>
</g>
</g>
<!-- Node9&#45;&gt;Node10 -->
<g id="edge10" class="edge">
<title>Node9&#45;&gt;Node10</title>
<path fill="none" stroke="midnightblue" d="M507.84,-171.64C499.28,-169.97 490.66,-168.28 482.27,-166.64"/>
<polygon fill="midnightblue" stroke="midnightblue" points="507.35,-175.11 517.83,-173.6 508.69,-168.24 507.35,-175.11"/>
</g>
<!-- Node10&#45;&gt;Node4 -->
<g id="edge11" class="edge">
<title>Node10&#45;&gt;Node4</title>
<path fill="none" stroke="midnightblue" d="M383.93,-174.48C362.88,-192.93 330.93,-219.14 300,-237.5 294.43,-240.81 288.43,-243.95 282.36,-246.86"/>
<polygon fill="midnightblue" stroke="midnightblue" points="386.27,-177.07 391.43,-167.82 381.63,-171.84 386.27,-177.07"/>
</g>
<!-- Node11 -->
<g id="node11" class="node">
<title>Node11</title>
<g id="a_node11"><a xlink:href="classnet_1_1stream_1_1_pipe_source.html#ade562b3d0a9540b9ea8664c111daa857" target="_top" xlink:title=" ">
<polygon fill="white" stroke="black" points="158,-99 158,-118 300,-118 300,-99 158,-99"/>
<text text-anchor="middle" x="229" y="-106" font-family="Helvetica,sans-Serif" font-size="10.00">net::stream::PipeSource::eof</text>
</a>
</g>
</g>
<!-- Node10&#45;&gt;Node11 -->
<g id="edge12" class="edge">
<title>Node10&#45;&gt;Node11</title>
<path fill="none" stroke="midnightblue" d="M337.31,-135.03C313.84,-129.22 288.59,-122.98 268.48,-118.01"/>
<polygon fill="midnightblue" stroke="midnightblue" points="336.69,-138.48 347.24,-137.48 338.37,-131.68 336.69,-138.48"/>
</g>
<!-- Node12 -->
<g id="node12" class="node">
<title>Node12</title>
<g id="a_node12"><a xlink:href="classnet_1_1stream_1_1_pipe_source.html#ab357b50bf7c272ee81131faea37a5f4b" target="_top" xlink:title=" ">
<polygon fill="white" stroke="black" points="168,-49.5 168,-79.5 290,-79.5 290,-49.5 168,-49.5"/>
<text text-anchor="start" x="176" y="-67.5" font-family="Helvetica,sans-Serif" font-size="10.00">net::stream::PipeSource</text>
<text text-anchor="middle" x="229" y="-56.5" font-family="Helvetica,sans-Serif" font-size="10.00">::PipeSource</text>
</a>
</g>
</g>
<!-- Node10&#45;&gt;Node12 -->
<g id="edge13" class="edge">
<title>Node10&#45;&gt;Node12</title>
<path fill="none" stroke="midnightblue" d="M376.52,-132.05C355.41,-118.86 326.69,-101.92 300,-89.5 292.4,-85.96 284.14,-82.61 276.05,-79.57"/>
<polygon fill="midnightblue" stroke="midnightblue" points="374.75,-135.07 385.08,-137.45 378.49,-129.15 374.75,-135.07"/>
</g>
<!-- Node13 -->
<g id="node13" class="node">
<title>Node13</title>
<g id="a_node13"><a xlink:href="classnet_1_1stream_1_1_pipe_sink.html#ac5d03738aa3630076fcf27b18b232b71" target="_top" xlink:title=" ">
<polygon fill="white" stroke="black" points="173.5,-0.5 173.5,-30.5 284.5,-30.5 284.5,-0.5 173.5,-0.5"/>
<text text-anchor="start" x="181.5" y="-18.5" font-family="Helvetica,sans-Serif" font-size="10.00">net::stream::PipeSink</text>
<text text-anchor="middle" x="229" y="-7.5" font-family="Helvetica,sans-Serif" font-size="10.00">::readEvent</text>
</a>
</g>
</g>
<!-- Node10&#45;&gt;Node13 -->
<g id="edge14" class="edge">
<title>Node10&#45;&gt;Node13</title>
<path fill="none" stroke="midnightblue" d="M391.23,-129.19C371.88,-103.83 337.83,-63.7 300,-39.5 294.7,-36.11 288.86,-33.13 282.89,-30.54"/>
<polygon fill="midnightblue" stroke="midnightblue" points="388.65,-131.58 397.44,-137.49 394.25,-127.39 388.65,-131.58"/>
</g>
<!-- Node14 -->
<g id="node14" class="node">
<title>Node14</title>
<g id="a_node14"><a xlink:href="classnet_1_1socket_1_1stream_1_1tls_1_1_t_l_s_handshake.html#a51f8b3260758a52e66e4b3aa74e424d7" target="_top" xlink:title=" ">
<polygon fill="white" stroke="black" points="175.5,-187 175.5,-228 282.5,-228 282.5,-187 175.5,-187"/>
<text text-anchor="start" x="183.5" y="-216" font-family="Helvetica,sans-Serif" font-size="10.00">net::socket::stream</text>
<text text-anchor="start" x="183.5" y="-205" font-family="Helvetica,sans-Serif" font-size="10.00">::tls::TLSHandshake</text>
<text text-anchor="middle" x="229" y="-194" font-family="Helvetica,sans-Serif" font-size="10.00">::timeoutEvent</text>
</a>
</g>
</g>
<!-- Node10&#45;&gt;Node14 -->
<g id="edge15" class="edge">
<title>Node10&#45;&gt;Node14</title>
<path fill="none" stroke="midnightblue" d="M349.65,-170.53C328.05,-177.2 303.7,-184.73 282.64,-191.24"/>
<polygon fill="midnightblue" stroke="midnightblue" points="350.84,-173.83 359.36,-167.53 348.77,-167.14 350.84,-173.83"/>
</g>
<!-- Node15 -->
<g id="node15" class="node">
<title>Node15</title>
<g id="a_node15"><a xlink:href="classnet_1_1stream_1_1_pipe_source.html#a18f1ac9bf60b45f9c00467afdfc4c376" target="_top" xlink:title=" ">
<polygon fill="white" stroke="black" points="168,-137.5 168,-167.5 290,-167.5 290,-137.5 168,-137.5"/>
<text text-anchor="start" x="176" y="-155.5" font-family="Helvetica,sans-Serif" font-size="10.00">net::stream::PipeSource</text>
<text text-anchor="middle" x="229" y="-144.5" font-family="Helvetica,sans-Serif" font-size="10.00">::writeEvent</text>
</a>
</g>
</g>
<!-- Node10&#45;&gt;Node15 -->
<g id="edge16" class="edge">
<title>Node10&#45;&gt;Node15</title>
<path fill="none" stroke="midnightblue" d="M325.85,-152.5C313.87,-152.5 301.72,-152.5 290.28,-152.5"/>
<polygon fill="midnightblue" stroke="midnightblue" points="325.86,-156 335.86,-152.5 325.86,-149 325.86,-156"/>
</g>
</g>
</svg>
