<?xml version="1.0" encoding="UTF-8" standalone="no"?>
<!DOCTYPE svg PUBLIC "-//W3C//DTD SVG 1.1//EN"
 "http://www.w3.org/Graphics/SVG/1.1/DTD/svg11.dtd">
<!-- Generated by graphviz version 2.43.0 (0)
 -->
<!-- Title: express::Response::sendFile Pages: 1 -->
<svg width="1095pt" height="329pt"
 viewBox="0.00 0.00 1095.00 329.00" xmlns="http://www.w3.org/2000/svg" xmlns:xlink="http://www.w3.org/1999/xlink">
<g id="graph0" class="graph" transform="scale(1 1) rotate(0) translate(4 325)">
<title>express::Response::sendFile</title>
<polygon fill="white" stroke="transparent" points="-4,4 -4,-325 1091,-325 1091,4 -4,4"/>
<!-- Node1 -->
<g id="node1" class="node">
<title>Node1</title>
<g id="a_node1"><a xlink:title=" ">
<polygon fill="#bfbfbf" stroke="black" points="0,-145.5 0,-175.5 107,-175.5 107,-145.5 0,-145.5"/>
<text text-anchor="start" x="8" y="-163.5" font-family="Helvetica,sans-Serif" font-size="10.00">express::Response::</text>
<text text-anchor="middle" x="53.5" y="-152.5" font-family="Helvetica,sans-Serif" font-size="10.00">sendFile</text>
</a>
</g>
</g>
<!-- Node2 -->
<g id="node2" class="node">
<title>Node2</title>
<g id="a_node2"><a xlink:href="class_mime_types.html#ad1da91efb5342e3334df442fa7f98ecf" target="_top" xlink:title=" ">
<polygon fill="white" stroke="black" points="143,-246 143,-265 269,-265 269,-246 143,-246"/>
<text text-anchor="middle" x="206" y="-253" font-family="Helvetica,sans-Serif" font-size="10.00">MimeTypes::contentType</text>
</a>
</g>
</g>
<!-- Node1&#45;&gt;Node2 -->
<g id="edge1" class="edge">
<title>Node1&#45;&gt;Node2</title>
<path fill="none" stroke="midnightblue" d="M68.41,-175.75C84.74,-192.81 113.37,-220.18 143,-236.5 146.93,-238.67 151.15,-240.62 155.46,-242.37"/>
<polygon fill="midnightblue" stroke="midnightblue" points="154.38,-245.71 164.98,-245.9 156.81,-239.14 154.38,-245.71"/>
</g>
<!-- Node3 -->
<g id="node3" class="node">
<title>Node3</title>
<g id="a_node3"><a xlink:href="classhttp_1_1_response.html#ad0b5aa3b88a9d72caf26d077d1572b2e" target="_top" xlink:title=" ">
<polygon fill="white" stroke="black" points="153.5,-208 153.5,-227 258.5,-227 258.5,-208 153.5,-208"/>
<text text-anchor="middle" x="206" y="-215" font-family="Helvetica,sans-Serif" font-size="10.00">http::Response::end</text>
</a>
</g>
</g>
<!-- Node1&#45;&gt;Node3 -->
<g id="edge2" class="edge">
<title>Node1&#45;&gt;Node3</title>
<path fill="none" stroke="midnightblue" d="M94.44,-175.63C117.95,-184.53 147.42,-195.69 170.02,-204.25"/>
<polygon fill="midnightblue" stroke="midnightblue" points="168.96,-207.59 179.56,-207.86 171.44,-201.05 168.96,-207.59"/>
</g>
<!-- Node5 -->
<g id="node5" class="node">
<title>Node5</title>
<g id="a_node5"><a xlink:href="classhttp_1_1_response.html#ab7c7ed32b83ebc98a71f3b0749060caf" target="_top" xlink:title=" ">
<polygon fill="white" stroke="black" points="458,-208 458,-227 584,-227 584,-208 458,-208"/>
<text text-anchor="middle" x="521" y="-215" font-family="Helvetica,sans-Serif" font-size="10.00">http::Response::enqueue</text>
</a>
</g>
</g>
<!-- Node1&#45;&gt;Node5 -->
<g id="edge20" class="edge">
<title>Node1&#45;&gt;Node5</title>
<path fill="none" stroke="midnightblue" d="M107.02,-164.46C178.51,-170.19 310.33,-181.93 422,-198.5 436.07,-200.59 451.19,-203.29 465.25,-206"/>
<polygon fill="midnightblue" stroke="midnightblue" points="464.77,-209.47 475.26,-207.96 466.12,-202.6 464.77,-209.47"/>
</g>
<!-- Node11 -->
<g id="node11" class="node">
<title>Node11</title>
<g id="a_node11"><a xlink:href="classhttp_1_1_server_context.html#aa3a20bdb1e4aab00435199eefd061b58" target="_top" xlink:title=" ">
<polygon fill="white" stroke="black" points="807,-126.5 807,-156.5 920,-156.5 920,-126.5 807,-126.5"/>
<text text-anchor="start" x="815" y="-144.5" font-family="Helvetica,sans-Serif" font-size="10.00">http::ServerContext</text>
<text text-anchor="middle" x="863.5" y="-133.5" font-family="Helvetica,sans-Serif" font-size="10.00">::terminateConnection</text>
</a>
</g>
</g>
<!-- Node1&#45;&gt;Node11 -->
<g id="edge26" class="edge">
<title>Node1&#45;&gt;Node11</title>
<path fill="none" stroke="midnightblue" d="M107.03,-155.28C168.29,-149.66 272.63,-141.5 362.5,-141.5 362.5,-141.5 362.5,-141.5 522,-141.5 617.45,-141.5 727.94,-141.5 796.54,-141.5"/>
<polygon fill="midnightblue" stroke="midnightblue" points="796.76,-145 806.76,-141.5 796.76,-138 796.76,-145"/>
</g>
<!-- Node19 -->
<g id="node19" class="node">
<title>Node19</title>
<g id="a_node19"><a xlink:href="namespacehttputils.html#a4a2597267a4c6fae315ab7b85273ea61" target="_top" xlink:title=" ">
<polygon fill="white" stroke="black" points="159,-82.5 159,-112.5 253,-112.5 253,-82.5 159,-82.5"/>
<text text-anchor="start" x="167" y="-100.5" font-family="Helvetica,sans-Serif" font-size="10.00">httputils::file_mod</text>
<text text-anchor="middle" x="206" y="-89.5" font-family="Helvetica,sans-Serif" font-size="10.00">_http_date</text>
</a>
</g>
</g>
<!-- Node1&#45;&gt;Node19 -->
<g id="edge21" class="edge">
<title>Node1&#45;&gt;Node19</title>
<path fill="none" stroke="midnightblue" d="M90.55,-145.41C111.23,-136.75 137.39,-125.8 159.48,-116.56"/>
<polygon fill="midnightblue" stroke="midnightblue" points="161.11,-119.67 168.99,-112.58 158.41,-113.21 161.11,-119.67"/>
</g>
<!-- Node20 -->
<g id="node20" class="node">
<title>Node20</title>
<g id="a_node20"><a xlink:href="class_file_reader.html#a999160194e3e2882fd6172bed06607b8" target="_top" xlink:title=" ">
<polygon fill="white" stroke="black" points="161.5,-44 161.5,-63 250.5,-63 250.5,-44 161.5,-44"/>
<text text-anchor="middle" x="206" y="-51" font-family="Helvetica,sans-Serif" font-size="10.00">FileReader::read</text>
</a>
</g>
</g>
<!-- Node1&#45;&gt;Node20 -->
<g id="edge22" class="edge">
<title>Node1&#45;&gt;Node20</title>
<path fill="none" stroke="midnightblue" d="M65.97,-145.16C81.4,-125.57 110.66,-91.88 143,-72.5 146.58,-70.35 150.43,-68.43 154.4,-66.71"/>
<polygon fill="midnightblue" stroke="midnightblue" points="155.72,-69.94 163.77,-63.05 153.18,-63.42 155.72,-69.94"/>
</g>
<!-- Node4 -->
<g id="node4" class="node">
<title>Node4</title>
<g id="a_node4"><a xlink:href="classhttp_1_1_response.html#aa3dad1589568fbc2ca2b00715b846c33" target="_top" xlink:title=" ">
<polygon fill="white" stroke="black" points="308.5,-208 308.5,-227 418.5,-227 418.5,-208 308.5,-208"/>
<text text-anchor="middle" x="363.5" y="-215" font-family="Helvetica,sans-Serif" font-size="10.00">http::Response::send</text>
</a>
</g>
</g>
<!-- Node3&#45;&gt;Node4 -->
<g id="edge3" class="edge">
<title>Node3&#45;&gt;Node4</title>
<path fill="none" stroke="midnightblue" d="M258.78,-217.5C271.33,-217.5 284.9,-217.5 297.95,-217.5"/>
<polygon fill="midnightblue" stroke="midnightblue" points="298.28,-221 308.28,-217.5 298.28,-214 298.28,-221"/>
</g>
<!-- Node4&#45;&gt;Node5 -->
<g id="edge4" class="edge">
<title>Node4&#45;&gt;Node5</title>
<path fill="none" stroke="midnightblue" d="M418.89,-217.5C428.25,-217.5 438.1,-217.5 447.85,-217.5"/>
<polygon fill="midnightblue" stroke="midnightblue" points="447.93,-221 457.93,-217.5 447.93,-214 447.93,-221"/>
</g>
<!-- Node6 -->
<g id="node6" class="node">
<title>Node6</title>
<g id="a_node6"><a xlink:href="classhttp_1_1_server_context.html#a6a9548722c09daceab14607ace200e60" target="_top" xlink:title=" ">
<polygon fill="white" stroke="black" points="636,-82.5 636,-112.5 746,-112.5 746,-82.5 636,-82.5"/>
<text text-anchor="start" x="644" y="-100.5" font-family="Helvetica,sans-Serif" font-size="10.00">http::ServerContext</text>
<text text-anchor="middle" x="691" y="-89.5" font-family="Helvetica,sans-Serif" font-size="10.00">::responseCompleted</text>
</a>
</g>
</g>
<!-- Node5&#45;&gt;Node6 -->
<g id="edge5" class="edge">
<title>Node5&#45;&gt;Node6</title>
<path fill="none" stroke="midnightblue" d="M535.46,-207.88C562.5,-188.57 623.92,-144.7 660.67,-118.45"/>
<polygon fill="midnightblue" stroke="midnightblue" points="662.9,-121.16 669,-112.5 658.83,-115.46 662.9,-121.16"/>
</g>
<!-- Node5&#45;&gt;Node11 -->
<g id="edge19" class="edge">
<title>Node5&#45;&gt;Node11</title>
<path fill="none" stroke="midnightblue" d="M564.78,-207.95C623.26,-194.9 728.69,-171.37 797.11,-156.1"/>
<polygon fill="midnightblue" stroke="midnightblue" points="797.93,-159.5 806.92,-153.9 796.4,-152.67 797.93,-159.5"/>
</g>
<!-- Node13 -->
<g id="node13" class="node">
<title>Node13</title>
<g id="a_node13"><a xlink:href="classhttp_1_1_response.html#ab97ab9c5d7ec9f18c116aa727851c834" target="_top" xlink:title=" ">
<polygon fill="white" stroke="black" points="620,-208 620,-227 762,-227 762,-208 620,-208"/>
<text text-anchor="middle" x="691" y="-215" font-family="Helvetica,sans-Serif" font-size="10.00">http::Response::sendHeader</text>
</a>
</g>
</g>
<!-- Node5&#45;&gt;Node13 -->
<g id="edge12" class="edge">
<title>Node5&#45;&gt;Node13</title>
<path fill="none" stroke="midnightblue" d="M584.08,-210.96C592.48,-210.8 601.19,-210.73 609.85,-210.76"/>
<polygon fill="midnightblue" stroke="midnightblue" points="609.94,-214.26 619.96,-210.83 609.99,-207.26 609.94,-214.26"/>
</g>
<!-- Node17 -->
<g id="node17" class="node">
<title>Node17</title>
<g id="a_node17"><a xlink:href="classhttp_1_1_server_context.html#ab8a806ab5b70b22e6be8764a32462049" target="_top" xlink:title=" ">
<polygon fill="white" stroke="black" points="636.5,-268.5 636.5,-298.5 745.5,-298.5 745.5,-268.5 636.5,-268.5"/>
<text text-anchor="start" x="644.5" y="-286.5" font-family="Helvetica,sans-Serif" font-size="10.00">http::ServerContext</text>
<text text-anchor="middle" x="691" y="-275.5" font-family="Helvetica,sans-Serif" font-size="10.00">::sendResponseData</text>
</a>
</g>
</g>
<!-- Node5&#45;&gt;Node17 -->
<g id="edge17" class="edge">
<title>Node5&#45;&gt;Node17</title>
<path fill="none" stroke="midnightblue" d="M546.43,-227.1C571.42,-236.91 610.9,-252.42 642.14,-264.7"/>
<polygon fill="midnightblue" stroke="midnightblue" points="640.96,-267.99 651.55,-268.39 643.52,-261.48 640.96,-267.99"/>
</g>
<!-- Node7 -->
<g id="node7" class="node">
<title>Node7</title>
<g id="a_node7"><a xlink:href="classhttp_1_1_request.html#a7047a3f15c3618a5f69bf2ef6cb619e4" target="_top" xlink:title=" ">
<polygon fill="white" stroke="black" points="811.5,-88 811.5,-107 915.5,-107 915.5,-88 811.5,-88"/>
<text text-anchor="middle" x="863.5" y="-95" font-family="Helvetica,sans-Serif" font-size="10.00">http::Request::reset</text>
</a>
</g>
</g>
<!-- Node6&#45;&gt;Node7 -->
<g id="edge6" class="edge">
<title>Node6&#45;&gt;Node7</title>
<path fill="none" stroke="midnightblue" d="M746.42,-97.5C763.93,-97.5 783.45,-97.5 801.42,-97.5"/>
<polygon fill="midnightblue" stroke="midnightblue" points="801.5,-101 811.5,-97.5 801.5,-94 801.5,-101"/>
</g>
<!-- Node8 -->
<g id="node8" class="node">
<title>Node8</title>
<g id="a_node8"><a xlink:href="classhttp_1_1_response.html#ac5f1738b8ba36fa0611b53d38a9fa697" target="_top" xlink:title=" ">
<polygon fill="white" stroke="black" points="808,-50 808,-69 919,-69 919,-50 808,-50"/>
<text text-anchor="middle" x="863.5" y="-57" font-family="Helvetica,sans-Serif" font-size="10.00">http::Response::reset</text>
</a>
</g>
</g>
<!-- Node6&#45;&gt;Node8 -->
<g id="edge7" class="edge">
<title>Node6&#45;&gt;Node8</title>
<path fill="none" stroke="midnightblue" d="M746.42,-85.37C766.68,-80.86 789.62,-75.74 809.73,-71.26"/>
<polygon fill="midnightblue" stroke="midnightblue" points="810.65,-74.64 819.65,-69.05 809.13,-67.81 810.65,-74.64"/>
</g>
<!-- Node9 -->
<g id="node9" class="node">
<title>Node9</title>
<g id="a_node9"><a xlink:href="classhttp_1_1_request_parser.html#a95e7cd0b181e5422f504ec0e5a82e02b" target="_top" xlink:title=" ">
<polygon fill="white" stroke="black" points="811.5,-0.5 811.5,-30.5 915.5,-30.5 915.5,-0.5 811.5,-0.5"/>
<text text-anchor="start" x="819.5" y="-18.5" font-family="Helvetica,sans-Serif" font-size="10.00">http::RequestParser</text>
<text text-anchor="middle" x="863.5" y="-7.5" font-family="Helvetica,sans-Serif" font-size="10.00">::reset</text>
</a>
</g>
</g>
<!-- Node6&#45;&gt;Node9 -->
<g id="edge8" class="edge">
<title>Node6&#45;&gt;Node9</title>
<path fill="none" stroke="midnightblue" d="M718.11,-82.29C739.29,-70.24 770.1,-53.35 798,-40.5 802.4,-38.47 807.02,-36.46 811.68,-34.51"/>
<polygon fill="midnightblue" stroke="midnightblue" points="813.3,-37.63 821.24,-30.62 810.65,-31.15 813.3,-37.63"/>
</g>
<!-- Node6&#45;&gt;Node11 -->
<g id="edge10" class="edge">
<title>Node6&#45;&gt;Node11</title>
<path fill="none" stroke="midnightblue" d="M746.42,-111.54C762.55,-115.71 780.38,-120.31 797.13,-124.63"/>
<polygon fill="midnightblue" stroke="midnightblue" points="796.29,-128.03 806.84,-127.14 798.04,-121.25 796.29,-128.03"/>
</g>
<!-- Node10 -->
<g id="node10" class="node">
<title>Node10</title>
<g id="a_node10"><a xlink:href="classhttp_1_1_parser.html#a1f2cb6f31093e582dae0c723e411b8dc" target="_top" xlink:title=" ">
<polygon fill="white" stroke="black" points="978.5,-6 978.5,-25 1073.5,-25 1073.5,-6 978.5,-6"/>
<text text-anchor="middle" x="1026" y="-13" font-family="Helvetica,sans-Serif" font-size="10.00">http::Parser::reset</text>
</a>
</g>
</g>
<!-- Node9&#45;&gt;Node10 -->
<g id="edge9" class="edge">
<title>Node9&#45;&gt;Node10</title>
<path fill="none" stroke="midnightblue" d="M915.72,-15.5C932.36,-15.5 950.92,-15.5 967.96,-15.5"/>
<polygon fill="midnightblue" stroke="midnightblue" points="968.34,-19 978.34,-15.5 968.34,-12 968.34,-19"/>
</g>
<!-- Node12 -->
<g id="node12" class="node">
<title>Node12</title>
<g id="a_node12"><a xlink:href="classnet_1_1socket_1_1tcp_1_1_socket_connection_base.html#a98d4c98f494259d64ad777ce2eb9b23b" target="_top" xlink:title=" ">
<polygon fill="white" stroke="black" points="965,-126.5 965,-156.5 1087,-156.5 1087,-126.5 965,-126.5"/>
<text text-anchor="start" x="973" y="-144.5" font-family="Helvetica,sans-Serif" font-size="10.00">net::socket::tcp::Socket</text>
<text text-anchor="middle" x="1026" y="-133.5" font-family="Helvetica,sans-Serif" font-size="10.00">ConnectionBase::end</text>
</a>
</g>
</g>
<!-- Node11&#45;&gt;Node12 -->
<g id="edge11" class="edge">
<title>Node11&#45;&gt;Node12</title>
<path fill="none" stroke="midnightblue" d="M920.18,-141.5C931.32,-141.5 943.15,-141.5 954.7,-141.5"/>
<polygon fill="midnightblue" stroke="midnightblue" points="954.76,-145 964.76,-141.5 954.76,-138 954.76,-145"/>
</g>
<!-- Node13&#45;&gt;Node5 -->
<g id="edge14" class="edge">
<title>Node13&#45;&gt;Node5</title>
<path fill="none" stroke="midnightblue" d="M619.96,-224.17C611.5,-224.27 602.84,-224.28 594.34,-224.19"/>
<polygon fill="midnightblue" stroke="midnightblue" points="594.13,-220.69 584.08,-224.04 594.03,-227.69 594.13,-220.69"/>
</g>
<!-- Node14 -->
<g id="node14" class="node">
<title>Node14</title>
<g id="a_node14"><a xlink:href="classhttp_1_1_response.html#a141e411058860a90cb0a0867fbb7ff7d" target="_top" xlink:title=" ">
<polygon fill="white" stroke="black" points="804.5,-252 804.5,-271 922.5,-271 922.5,-252 804.5,-252"/>
<text text-anchor="middle" x="863.5" y="-259" font-family="Helvetica,sans-Serif" font-size="10.00">http::Response::cookie</text>
</a>
</g>
</g>
<!-- Node13&#45;&gt;Node14 -->
<g id="edge13" class="edge">
<title>Node13&#45;&gt;Node14</title>
<path fill="none" stroke="midnightblue" d="M729,-227.05C754.47,-233.62 788.51,-242.4 815.84,-249.46"/>
<polygon fill="midnightblue" stroke="midnightblue" points="815.02,-252.86 825.58,-251.97 816.77,-246.08 815.02,-252.86"/>
</g>
<!-- Node15 -->
<g id="node15" class="node">
<title>Node15</title>
<g id="a_node15"><a xlink:href="class_status_code.html#a22c4b7005f5d2de069af37a191b97fa0" target="_top" xlink:title=" ">
<polygon fill="white" stroke="black" points="811.5,-214 811.5,-233 915.5,-233 915.5,-214 811.5,-214"/>
<text text-anchor="middle" x="863.5" y="-221" font-family="Helvetica,sans-Serif" font-size="10.00">StatusCode::reason</text>
</a>
</g>
</g>
<!-- Node13&#45;&gt;Node15 -->
<g id="edge15" class="edge">
<title>Node13&#45;&gt;Node15</title>
<path fill="none" stroke="midnightblue" d="M762.33,-219.98C775.16,-220.43 788.45,-220.89 801,-221.34"/>
<polygon fill="midnightblue" stroke="midnightblue" points="801.22,-224.85 811.34,-221.7 801.47,-217.85 801.22,-224.85"/>
</g>
<!-- Node16 -->
<g id="node16" class="node">
<title>Node16</title>
<g id="a_node16"><a xlink:href="namespacehttputils.html#a01539c1af68e4d072d3507ae44c0b02a" target="_top" xlink:title=" ">
<polygon fill="white" stroke="black" points="808,-176 808,-195 919,-195 919,-176 808,-176"/>
<text text-anchor="middle" x="863.5" y="-183" font-family="Helvetica,sans-Serif" font-size="10.00">httputils::to_http_date</text>
</a>
</g>
</g>
<!-- Node13&#45;&gt;Node16 -->
<g id="edge16" class="edge">
<title>Node13&#45;&gt;Node16</title>
<path fill="none" stroke="midnightblue" d="M742.69,-207.99C761.25,-204.5 782.44,-200.53 801.78,-196.9"/>
<polygon fill="midnightblue" stroke="midnightblue" points="802.52,-200.32 811.71,-195.03 801.23,-193.44 802.52,-200.32"/>
</g>
<!-- Node18 -->
<g id="node18" class="node">
<title>Node18</title>
<g id="a_node18"><a xlink:href="classnet_1_1socket_1_1tcp_1_1_socket_connection_base.html#ae9bcb371e35a78e0f31ec3b5c3ee31ba" target="_top" xlink:title=" ">
<polygon fill="white" stroke="black" points="798,-290.5 798,-320.5 929,-320.5 929,-290.5 798,-290.5"/>
<text text-anchor="start" x="806" y="-308.5" font-family="Helvetica,sans-Serif" font-size="10.00">net::socket::tcp::Socket</text>
<text text-anchor="middle" x="863.5" y="-297.5" font-family="Helvetica,sans-Serif" font-size="10.00">ConnectionBase::enqueue</text>
</a>
</g>
</g>
<!-- Node17&#45;&gt;Node18 -->
<g id="edge18" class="edge">
<title>Node17&#45;&gt;Node18</title>
<path fill="none" stroke="midnightblue" d="M745.95,-290.46C759.21,-292.17 773.66,-294.04 787.71,-295.85"/>
<polygon fill="midnightblue" stroke="midnightblue" points="787.49,-299.35 797.86,-297.16 788.39,-292.41 787.49,-299.35"/>
</g>
<!-- Node21 -->
<g id="node21" class="node">
<title>Node21</title>
<g id="a_node21"><a xlink:href="class_file_reader.html#af795e347158c081e975b994b1d45bae0" target="_top" xlink:title=" ">
<polygon fill="white" stroke="black" points="305,-25 305,-44 422,-44 422,-25 305,-25"/>
<text text-anchor="middle" x="363.5" y="-32" font-family="Helvetica,sans-Serif" font-size="10.00">FileReader::FileReader</text>
</a>
</g>
</g>
<!-- Node20&#45;&gt;Node21 -->
<g id="edge23" class="edge">
<title>Node20&#45;&gt;Node21</title>
<path fill="none" stroke="midnightblue" d="M250.73,-48.16C264.38,-46.49 279.77,-44.61 294.67,-42.79"/>
<polygon fill="midnightblue" stroke="midnightblue" points="295.37,-46.23 304.87,-41.54 294.52,-39.28 295.37,-46.23"/>
</g>
<!-- Node22 -->
<g id="node22" class="node">
<title>Node22</title>
<g id="a_node22"><a xlink:href="classnet_1_1_descriptor.html#aea3ee5904116b0c68d396dfe80838e3b" target="_top" xlink:title=" ">
<polygon fill="white" stroke="black" points="467,-44 467,-63 575,-63 575,-44 467,-44"/>
<text text-anchor="middle" x="521" y="-51" font-family="Helvetica,sans-Serif" font-size="10.00">net::Descriptor::open</text>
</a>
</g>
</g>
<!-- Node20&#45;&gt;Node22 -->
<g id="edge25" class="edge">
<title>Node20&#45;&gt;Node22</title>
<path fill="none" stroke="midnightblue" d="M250.52,-53.5C304.03,-53.5 395.28,-53.5 456.59,-53.5"/>
<polygon fill="midnightblue" stroke="midnightblue" points="456.91,-57 466.91,-53.5 456.91,-50 456.91,-57"/>
</g>
<!-- Node21&#45;&gt;Node22 -->
<g id="edge24" class="edge">
<title>Node21&#45;&gt;Node22</title>
<path fill="none" stroke="midnightblue" d="M422.4,-41.57C433.58,-42.94 445.33,-44.38 456.67,-45.76"/>
<polygon fill="midnightblue" stroke="midnightblue" points="456.58,-49.28 466.93,-47.02 457.43,-42.33 456.58,-49.28"/>
</g>
</g>
</svg>
