<?xml version="1.0" encoding="UTF-8" standalone="no"?>
<!DOCTYPE svg PUBLIC "-//W3C//DTD SVG 1.1//EN"
 "http://www.w3.org/Graphics/SVG/1.1/DTD/svg11.dtd">
<!-- Generated by graphviz version 2.43.0 (0)
 -->
<!-- Title: net::EventReceiver::isEnabled Pages: 1 -->
<svg width="494pt" height="176pt"
 viewBox="0.00 0.00 494.00 176.00" xmlns="http://www.w3.org/2000/svg" xmlns:xlink="http://www.w3.org/1999/xlink">
<g id="graph0" class="graph" transform="scale(1 1) rotate(0) translate(4 172)">
<title>net::EventReceiver::isEnabled</title>
<polygon fill="white" stroke="transparent" points="-4,4 -4,-172 490,-172 490,4 -4,4"/>
<!-- Node1 -->
<g id="node1" class="node">
<title>Node1</title>
<g id="a_node1"><a xlink:title=" ">
<polygon fill="#bfbfbf" stroke="black" points="385,-72 385,-102 486,-102 486,-72 385,-72"/>
<text text-anchor="start" x="393" y="-90" font-family="Helvetica,sans-Serif" font-size="10.00">net::EventReceiver</text>
<text text-anchor="middle" x="435.5" y="-79" font-family="Helvetica,sans-Serif" font-size="10.00">::isEnabled</text>
</a>
</g>
</g>
<!-- Node2 -->
<g id="node2" class="node">
<title>Node2</title>
<g id="a_node2"><a xlink:href="classnet_1_1_event_dispatcher.html#aa2899ea52c172f61cb5cda8f2b16d878" target="_top" xlink:title=" ">
<polygon fill="white" stroke="black" points="227,-126.5 227,-167.5 349,-167.5 349,-126.5 227,-126.5"/>
<text text-anchor="start" x="235" y="-155.5" font-family="Helvetica,sans-Serif" font-size="10.00">net::EventDispatcher</text>
<text text-anchor="start" x="235" y="-144.5" font-family="Helvetica,sans-Serif" font-size="10.00">&lt; ReadEventReceiver &gt;</text>
<text text-anchor="middle" x="288" y="-133.5" font-family="Helvetica,sans-Serif" font-size="10.00">::disable</text>
</a>
</g>
</g>
<!-- Node1&#45;&gt;Node2 -->
<g id="edge1" class="edge">
<title>Node1&#45;&gt;Node2</title>
<path fill="none" stroke="midnightblue" d="M388.27,-106.06C372.54,-112.55 354.9,-119.83 338.89,-126.42"/>
<polygon fill="midnightblue" stroke="midnightblue" points="389.87,-109.19 397.78,-102.14 387.21,-102.72 389.87,-109.19"/>
</g>
<!-- Node3 -->
<g id="node3" class="node">
<title>Node3</title>
<g id="a_node3"><a xlink:href="classnet_1_1_event_dispatcher.html#a5c2415b2b4c371fe2d668c60ed0bbabb" target="_top" xlink:title=" ">
<polygon fill="white" stroke="black" points="227,-66.5 227,-107.5 349,-107.5 349,-66.5 227,-66.5"/>
<text text-anchor="start" x="235" y="-95.5" font-family="Helvetica,sans-Serif" font-size="10.00">net::EventDispatcher</text>
<text text-anchor="start" x="235" y="-84.5" font-family="Helvetica,sans-Serif" font-size="10.00">&lt; ReadEventReceiver &gt;</text>
<text text-anchor="middle" x="288" y="-73.5" font-family="Helvetica,sans-Serif" font-size="10.00">::enable</text>
</a>
</g>
</g>
<!-- Node1&#45;&gt;Node3 -->
<g id="edge2" class="edge">
<title>Node1&#45;&gt;Node3</title>
<path fill="none" stroke="midnightblue" d="M374.66,-87C366.19,-87 357.48,-87 349,-87"/>
<polygon fill="midnightblue" stroke="midnightblue" points="374.83,-90.5 384.83,-87 374.83,-83.5 374.83,-90.5"/>
</g>
<!-- Node4 -->
<g id="node4" class="node">
<title>Node4</title>
<g id="a_node4"><a xlink:href="classnet_1_1socket_1_1stream_1_1_socket_writer.html#aa7bdaa904aa90968afb56bbb4f671a6d" target="_top" xlink:title=" ">
<polygon fill="white" stroke="black" points="227,-17 227,-47 349,-47 349,-17 227,-17"/>
<text text-anchor="start" x="235" y="-35" font-family="Helvetica,sans-Serif" font-size="10.00">net::socket::stream</text>
<text text-anchor="middle" x="288" y="-24" font-family="Helvetica,sans-Serif" font-size="10.00">::SocketWriter::enqueue</text>
</a>
</g>
</g>
<!-- Node1&#45;&gt;Node4 -->
<g id="edge3" class="edge">
<title>Node1&#45;&gt;Node4</title>
<path fill="none" stroke="midnightblue" d="M385.33,-68.42C366.89,-61.44 346.19,-53.62 328.71,-47.01"/>
<polygon fill="midnightblue" stroke="midnightblue" points="384.15,-71.71 394.74,-71.97 386.63,-65.16 384.15,-71.71"/>
</g>
<!-- Node5 -->
<g id="node5" class="node">
<title>Node5</title>
<g id="a_node5"><a xlink:href="classnet_1_1socket_1_1stream_1_1_socket_connection.html#ab5931a0a52e2fbcdec5d8c3fba61eb2a" target="_top" xlink:title=" ">
<polygon fill="white" stroke="black" points="0,-0.5 0,-63.5 191,-63.5 191,-0.5 0,-0.5"/>
<text text-anchor="start" x="8" y="-51.5" font-family="Helvetica,sans-Serif" font-size="10.00">net::socket::stream</text>
<text text-anchor="start" x="8" y="-40.5" font-family="Helvetica,sans-Serif" font-size="10.00">::SocketConnection&lt;</text>
<text text-anchor="start" x="8" y="-29.5" font-family="Helvetica,sans-Serif" font-size="10.00"> tls::SocketReader&lt; SocketT</text>
<text text-anchor="start" x="8" y="-18.5" font-family="Helvetica,sans-Serif" font-size="10.00"> &gt;, tls::SocketWriter&lt; SocketT</text>
<text text-anchor="middle" x="95.5" y="-7.5" font-family="Helvetica,sans-Serif" font-size="10.00"> &gt;, SocketT::SocketAddress &gt;::enqueue</text>
</a>
</g>
</g>
<!-- Node4&#45;&gt;Node5 -->
<g id="edge4" class="edge">
<title>Node4&#45;&gt;Node5</title>
<path fill="none" stroke="midnightblue" d="M216.88,-32C208.46,-32 199.76,-32 191.06,-32"/>
<polygon fill="midnightblue" stroke="midnightblue" points="216.99,-35.5 226.99,-32 216.99,-28.5 216.99,-35.5"/>
</g>
</g>
</svg>
