<?xml version="1.0" encoding="UTF-8" standalone="no"?>
<!DOCTYPE svg PUBLIC "-//W3C//DTD SVG 1.1//EN"
 "http://www.w3.org/Graphics/SVG/1.1/DTD/svg11.dtd">
<!-- Generated by graphviz version 2.43.0 (0)
 -->
<!-- Title: web::http::client::Request::enqueue Pages: 1 -->
<svg width="476pt" height="209pt"
 viewBox="0.00 0.00 476.00 209.00" xmlns="http://www.w3.org/2000/svg" xmlns:xlink="http://www.w3.org/1999/xlink">
<g id="graph0" class="graph" transform="scale(1 1) rotate(0) translate(4 205)">
<title>web::http::client::Request::enqueue</title>
<polygon fill="white" stroke="transparent" points="-4,4 -4,-205 472,-205 472,4 -4,4"/>
<!-- Node1 -->
<g id="node1" class="node">
<title>Node1</title>
<g id="a_node1"><a xlink:title=" ">
<polygon fill="#bfbfbf" stroke="black" points="0,-110 0,-140 96,-140 96,-110 0,-110"/>
<text text-anchor="start" x="8" y="-128" font-family="Helvetica,sans-Serif" font-size="10.00">web::http::client::</text>
<text text-anchor="middle" x="48" y="-117" font-family="Helvetica,sans-Serif" font-size="10.00">Request::enqueue</text>
</a>
</g>
</g>
<!-- Node2 -->
<g id="node2" class="node">
<title>Node2</title>
<g id="a_node2"><a xlink:href="classweb_1_1http_1_1client_1_1_socket_context_base.html#a88af522b6ce9a11f6f2064f4622f3557" target="_top" xlink:title=" ">
<polygon fill="white" stroke="black" points="155,-159.5 155,-200.5 298,-200.5 298,-159.5 155,-159.5"/>
<text text-anchor="start" x="163" y="-188.5" font-family="Helvetica,sans-Serif" font-size="10.00">web::http::client::</text>
<text text-anchor="start" x="163" y="-177.5" font-family="Helvetica,sans-Serif" font-size="10.00">SocketContextBase::request</text>
<text text-anchor="middle" x="226.5" y="-166.5" font-family="Helvetica,sans-Serif" font-size="10.00">Completed</text>
</a>
</g>
</g>
<!-- Node1&#45;&gt;Node2 -->
<g id="edge1" class="edge">
<title>Node1&#45;&gt;Node2</title>
<path fill="none" stroke="midnightblue" d="M96.3,-139.74C112.74,-144.86 131.63,-150.75 149.79,-156.41"/>
<polygon fill="midnightblue" stroke="midnightblue" points="148.9,-159.8 159.49,-159.43 150.99,-153.11 148.9,-159.8"/>
</g>
<!-- Node3 -->
<g id="node3" class="node">
<title>Node3</title>
<g id="a_node3"><a xlink:href="classweb_1_1http_1_1client_1_1_request.html#af01f064a43a4ee0026ff35a265e8ada1" target="_top" xlink:title=" ">
<polygon fill="white" stroke="black" points="170.5,-110 170.5,-140 282.5,-140 282.5,-110 170.5,-110"/>
<text text-anchor="start" x="178.5" y="-128" font-family="Helvetica,sans-Serif" font-size="10.00">web::http::client::</text>
<text text-anchor="middle" x="226.5" y="-117" font-family="Helvetica,sans-Serif" font-size="10.00">Request::sendHeader</text>
</a>
</g>
</g>
<!-- Node1&#45;&gt;Node3 -->
<g id="edge2" class="edge">
<title>Node1&#45;&gt;Node3</title>
<path fill="none" stroke="midnightblue" d="M96.3,-118.94C115.87,-118.23 138.89,-118.07 160.04,-118.45"/>
<polygon fill="midnightblue" stroke="midnightblue" points="160.16,-121.96 170.24,-118.69 160.33,-114.96 160.16,-121.96"/>
</g>
<!-- Node6 -->
<g id="node6" class="node">
<title>Node6</title>
<g id="a_node6"><a xlink:href="classweb_1_1http_1_1client_1_1_socket_context_base.html#a818292dd6d3f2e3df066bcaa9ef47517" target="_top" xlink:title=" ">
<polygon fill="white" stroke="black" points="132,-61 132,-91 321,-91 321,-61 132,-61"/>
<text text-anchor="start" x="140" y="-79" font-family="Helvetica,sans-Serif" font-size="10.00">web::http::client::</text>
<text text-anchor="middle" x="226.5" y="-68" font-family="Helvetica,sans-Serif" font-size="10.00">SocketContextBase::sendRequestData</text>
</a>
</g>
</g>
<!-- Node1&#45;&gt;Node6 -->
<g id="edge6" class="edge">
<title>Node1&#45;&gt;Node6</title>
<path fill="none" stroke="midnightblue" d="M96.31,-110.38C107.95,-106.89 120.4,-103.23 132,-100 139.63,-97.87 147.63,-95.71 155.61,-93.6"/>
<polygon fill="midnightblue" stroke="midnightblue" points="156.51,-96.98 165.3,-91.06 154.74,-90.21 156.51,-96.98"/>
</g>
<!-- Node7 -->
<g id="node7" class="node">
<title>Node7</title>
<g id="a_node7"><a xlink:href="classweb_1_1http_1_1client_1_1_socket_context_base.html#a1ae01046301a4e579a654f12ab31a13c" target="_top" xlink:title=" ">
<polygon fill="white" stroke="black" points="151,-0.5 151,-41.5 302,-41.5 302,-0.5 151,-0.5"/>
<text text-anchor="start" x="159" y="-29.5" font-family="Helvetica,sans-Serif" font-size="10.00">web::http::client::</text>
<text text-anchor="start" x="159" y="-18.5" font-family="Helvetica,sans-Serif" font-size="10.00">SocketContextBase::terminate</text>
<text text-anchor="middle" x="226.5" y="-7.5" font-family="Helvetica,sans-Serif" font-size="10.00">Connection</text>
</a>
</g>
</g>
<!-- Node1&#45;&gt;Node7 -->
<g id="edge7" class="edge">
<title>Node1&#45;&gt;Node7</title>
<path fill="none" stroke="midnightblue" d="M62.25,-109.89C77.54,-93.3 104.18,-66.9 132,-51 135.22,-49.16 138.58,-47.41 142.01,-45.76"/>
<polygon fill="midnightblue" stroke="midnightblue" points="143.58,-48.89 151.27,-41.6 140.71,-42.5 143.58,-48.89"/>
</g>
<!-- Node3&#45;&gt;Node1 -->
<g id="edge3" class="edge">
<title>Node3&#45;&gt;Node1</title>
<path fill="none" stroke="midnightblue" d="M170.24,-131.31C149.94,-131.88 126.93,-131.9 106.44,-131.37"/>
<polygon fill="midnightblue" stroke="midnightblue" points="106.4,-127.87 96.3,-131.06 106.19,-134.86 106.4,-127.87"/>
</g>
<!-- Node4 -->
<g id="node4" class="node">
<title>Node4</title>
<g id="a_node4"><a xlink:href="namespacehttputils.html#a01539c1af68e4d072d3507ae44c0b02a" target="_top" xlink:title=" ">
<polygon fill="white" stroke="black" points="357,-134.5 357,-153.5 468,-153.5 468,-134.5 357,-134.5"/>
<text text-anchor="middle" x="412.5" y="-141.5" font-family="Helvetica,sans-Serif" font-size="10.00">httputils::to_http_date</text>
</a>
</g>
</g>
<!-- Node3&#45;&gt;Node4 -->
<g id="edge4" class="edge">
<title>Node3&#45;&gt;Node4</title>
<path fill="none" stroke="midnightblue" d="M282.71,-130.7C302.9,-132.79 325.93,-135.16 346.87,-137.33"/>
<polygon fill="midnightblue" stroke="midnightblue" points="346.66,-140.82 356.97,-138.37 347.38,-133.86 346.66,-140.82"/>
</g>
<!-- Node5 -->
<g id="node5" class="node">
<title>Node5</title>
<g id="a_node5"><a xlink:href="namespacehttputils.html#a386473920285bded181a38ffac8fe833" target="_top" xlink:title=" ">
<polygon fill="white" stroke="black" points="360.5,-96.5 360.5,-115.5 464.5,-115.5 464.5,-96.5 360.5,-96.5"/>
<text text-anchor="middle" x="412.5" y="-103.5" font-family="Helvetica,sans-Serif" font-size="10.00">httputils::url_encode</text>
</a>
</g>
</g>
<!-- Node3&#45;&gt;Node5 -->
<g id="edge5" class="edge">
<title>Node3&#45;&gt;Node5</title>
<path fill="none" stroke="midnightblue" d="M282.71,-119.3C304,-117.1 328.44,-114.58 350.27,-112.32"/>
<polygon fill="midnightblue" stroke="midnightblue" points="350.83,-115.78 360.42,-111.27 350.11,-108.82 350.83,-115.78"/>
</g>
</g>
</svg>
