<?xml version="1.0" encoding="UTF-8" standalone="no"?>
<!DOCTYPE svg PUBLIC "-//W3C//DTD SVG 1.1//EN"
 "http://www.w3.org/Graphics/SVG/1.1/DTD/svg11.dtd">
<!-- Generated by graphviz version 2.43.0 (0)
 -->
<!-- Title: net::socket::stream::tls::SocketConnector&lt; SocketT &gt; Pages: 1 -->
<svg width="471pt" height="1740pt"
 viewBox="0.00 0.00 470.50 1740.00" xmlns="http://www.w3.org/2000/svg" xmlns:xlink="http://www.w3.org/1999/xlink">
<g id="graph0" class="graph" transform="scale(1 1) rotate(0) translate(4 1736)">
<title>net::socket::stream::tls::SocketConnector&lt; SocketT &gt;</title>
<polygon fill="white" stroke="transparent" points="-4,4 -4,-1736 466.5,-1736 466.5,4 -4,4"/>
<!-- Node1 -->
<g id="node1" class="node">
<title>Node1</title>
<g id="a_node1"><a xlink:title=" ">
<polygon fill="#bfbfbf" stroke="black" points="41,-0.5 41,-101.5 156,-101.5 156,-0.5 41,-0.5"/>
<text text-anchor="start" x="49" y="-89.5" font-family="Helvetica,sans-Serif" font-size="10.00">net::socket::stream</text>
<text text-anchor="start" x="49" y="-78.5" font-family="Helvetica,sans-Serif" font-size="10.00">::tls::SocketConnector</text>
<text text-anchor="middle" x="98.5" y="-67.5" font-family="Helvetica,sans-Serif" font-size="10.00">&lt; SocketT &gt;</text>
<polyline fill="none" stroke="black" points="41,-60.5 156,-60.5 "/>
<text text-anchor="start" x="49" y="-48.5" font-family="Helvetica,sans-Serif" font-size="10.00"># ctx</text>
<polyline fill="none" stroke="black" points="41,-41.5 156,-41.5 "/>
<text text-anchor="start" x="49" y="-29.5" font-family="Helvetica,sans-Serif" font-size="10.00">+ SocketConnector()</text>
<text text-anchor="start" x="49" y="-18.5" font-family="Helvetica,sans-Serif" font-size="10.00">+ ~SocketConnector()</text>
<text text-anchor="start" x="49" y="-7.5" font-family="Helvetica,sans-Serif" font-size="10.00">+ connect()</text>
</a>
</g>
</g>
<!-- Node2 -->
<g id="node2" class="node">
<title>Node2</title>
<g id="a_node2"><a xlink:href="classnet_1_1socket_1_1stream_1_1_socket_connector.html" target="_top" xlink:title=" ">
<polygon fill="white" stroke="black" points="30,-139.5 30,-394.5 167,-394.5 167,-139.5 30,-139.5"/>
<text text-anchor="start" x="38" y="-382.5" font-family="Helvetica,sans-Serif" font-size="10.00">net::socket::stream</text>
<text text-anchor="start" x="38" y="-371.5" font-family="Helvetica,sans-Serif" font-size="10.00">::SocketConnector&lt; stream</text>
<text text-anchor="start" x="38" y="-360.5" font-family="Helvetica,sans-Serif" font-size="10.00">::tls::SocketConnection</text>
<text text-anchor="middle" x="98.5" y="-349.5" font-family="Helvetica,sans-Serif" font-size="10.00">&lt; SocketT &gt; &gt;</text>
<polyline fill="none" stroke="black" points="30,-342.5 167,-342.5 "/>
<text text-anchor="start" x="38" y="-330.5" font-family="Helvetica,sans-Serif" font-size="10.00"># onError</text>
<text text-anchor="start" x="38" y="-319.5" font-family="Helvetica,sans-Serif" font-size="10.00"># socketProtocolFactory</text>
<text text-anchor="start" x="38" y="-308.5" font-family="Helvetica,sans-Serif" font-size="10.00"># options</text>
<text text-anchor="start" x="38" y="-297.5" font-family="Helvetica,sans-Serif" font-size="10.00"># onConnect</text>
<text text-anchor="start" x="38" y="-286.5" font-family="Helvetica,sans-Serif" font-size="10.00"># onDestruct</text>
<text text-anchor="start" x="38" y="-275.5" font-family="Helvetica,sans-Serif" font-size="10.00"># onConnected</text>
<text text-anchor="start" x="38" y="-264.5" font-family="Helvetica,sans-Serif" font-size="10.00"># onDisconnect</text>
<text text-anchor="start" x="38" y="-253.5" font-family="Helvetica,sans-Serif" font-size="10.00"># socketConnection</text>
<polyline fill="none" stroke="black" points="30,-246.5 167,-246.5 "/>
<text text-anchor="start" x="38" y="-234.5" font-family="Helvetica,sans-Serif" font-size="10.00">+ SocketConnector()</text>
<text text-anchor="start" x="38" y="-223.5" font-family="Helvetica,sans-Serif" font-size="10.00">+ SocketConnector()</text>
<text text-anchor="start" x="38" y="-212.5" font-family="Helvetica,sans-Serif" font-size="10.00">+ SocketConnector()</text>
<text text-anchor="start" x="38" y="-201.5" font-family="Helvetica,sans-Serif" font-size="10.00">+ operator=()</text>
<text text-anchor="start" x="38" y="-190.5" font-family="Helvetica,sans-Serif" font-size="10.00">+ ~SocketConnector()</text>
<text text-anchor="start" x="38" y="-179.5" font-family="Helvetica,sans-Serif" font-size="10.00">+ connect()</text>
<text text-anchor="start" x="38" y="-168.5" font-family="Helvetica,sans-Serif" font-size="10.00">&#45; connectEvent()</text>
<text text-anchor="start" x="38" y="-157.5" font-family="Helvetica,sans-Serif" font-size="10.00">&#45; unobserved()</text>
<text text-anchor="start" x="38" y="-146.5" font-family="Helvetica,sans-Serif" font-size="10.00">&#45; destruct()</text>
</a>
</g>
</g>
<!-- Node2&#45;&gt;Node1 -->
<g id="edge1" class="edge">
<title>Node2&#45;&gt;Node1</title>
<path fill="none" stroke="midnightblue" d="M98.5,-129.26C98.5,-119.68 98.5,-110.44 98.5,-101.89"/>
<polygon fill="none" stroke="midnightblue" points="95,-129.35 98.5,-139.35 102,-129.35 95,-129.35"/>
</g>
<!-- Node3 -->
<g id="node3" class="node">
<title>Node3</title>
<g id="a_node3"><a xlink:href="classnet_1_1_connect_event_receiver.html" target="_top" xlink:title=" ">
<polygon fill="white" stroke="black" points="147,-724.5 147,-803.5 284,-803.5 284,-724.5 147,-724.5"/>
<text text-anchor="middle" x="215.5" y="-791.5" font-family="Helvetica,sans-Serif" font-size="10.00">net::ConnectEventReceiver</text>
<polyline fill="none" stroke="black" points="147,-784.5 284,-784.5 "/>
<text text-anchor="middle" x="215.5" y="-772.5" font-family="Helvetica,sans-Serif" font-size="10.00"> </text>
<polyline fill="none" stroke="black" points="147,-765.5 284,-765.5 "/>
<text text-anchor="start" x="155" y="-753.5" font-family="Helvetica,sans-Serif" font-size="10.00"># ConnectEventReceiver()</text>
<text text-anchor="start" x="155" y="-742.5" font-family="Helvetica,sans-Serif" font-size="10.00"># connectEvent()</text>
<text text-anchor="start" x="155" y="-731.5" font-family="Helvetica,sans-Serif" font-size="10.00">&#45; dispatchEvent()</text>
</a>
</g>
</g>
<!-- Node3&#45;&gt;Node2 -->
<g id="edge2" class="edge">
<title>Node3&#45;&gt;Node2</title>
<path fill="none" stroke="midnightblue" d="M233.1,-714.62C255.49,-645.01 286.48,-513.87 244.5,-413 228.51,-374.58 196.83,-341.1 167.06,-316.02"/>
<polygon fill="none" stroke="midnightblue" points="229.68,-713.84 229.88,-724.43 236.33,-716.03 229.68,-713.84"/>
</g>
<!-- Node11 -->
<g id="node11" class="node">
<title>Node11</title>
<g id="a_node11"><a xlink:href="classnet_1_1socket_1_1stream_1_1_socket_connector.html" target="_top" xlink:title=" ">
<polygon fill="white" stroke="black" points="27,-453.5 27,-686.5 230,-686.5 230,-453.5 27,-453.5"/>
<text text-anchor="start" x="35" y="-674.5" font-family="Helvetica,sans-Serif" font-size="10.00">net::socket::stream</text>
<text text-anchor="middle" x="128.5" y="-663.5" font-family="Helvetica,sans-Serif" font-size="10.00">::SocketConnector&lt; SocketConnectionT &gt;</text>
<polyline fill="none" stroke="black" points="27,-656.5 230,-656.5 "/>
<text text-anchor="start" x="35" y="-644.5" font-family="Helvetica,sans-Serif" font-size="10.00"># onError</text>
<text text-anchor="start" x="35" y="-633.5" font-family="Helvetica,sans-Serif" font-size="10.00"># socketProtocolFactory</text>
<text text-anchor="start" x="35" y="-622.5" font-family="Helvetica,sans-Serif" font-size="10.00"># options</text>
<text text-anchor="start" x="35" y="-611.5" font-family="Helvetica,sans-Serif" font-size="10.00"># onConnect</text>
<text text-anchor="start" x="35" y="-600.5" font-family="Helvetica,sans-Serif" font-size="10.00"># onDestruct</text>
<text text-anchor="start" x="35" y="-589.5" font-family="Helvetica,sans-Serif" font-size="10.00"># onConnected</text>
<text text-anchor="start" x="35" y="-578.5" font-family="Helvetica,sans-Serif" font-size="10.00"># onDisconnect</text>
<text text-anchor="start" x="35" y="-567.5" font-family="Helvetica,sans-Serif" font-size="10.00"># socketConnection</text>
<polyline fill="none" stroke="black" points="27,-560.5 230,-560.5 "/>
<text text-anchor="start" x="35" y="-548.5" font-family="Helvetica,sans-Serif" font-size="10.00">+ SocketConnector()</text>
<text text-anchor="start" x="35" y="-537.5" font-family="Helvetica,sans-Serif" font-size="10.00">+ SocketConnector()</text>
<text text-anchor="start" x="35" y="-526.5" font-family="Helvetica,sans-Serif" font-size="10.00">+ SocketConnector()</text>
<text text-anchor="start" x="35" y="-515.5" font-family="Helvetica,sans-Serif" font-size="10.00">+ operator=()</text>
<text text-anchor="start" x="35" y="-504.5" font-family="Helvetica,sans-Serif" font-size="10.00">+ ~SocketConnector()</text>
<text text-anchor="start" x="35" y="-493.5" font-family="Helvetica,sans-Serif" font-size="10.00">+ connect()</text>
<text text-anchor="start" x="35" y="-482.5" font-family="Helvetica,sans-Serif" font-size="10.00">&#45; connectEvent()</text>
<text text-anchor="start" x="35" y="-471.5" font-family="Helvetica,sans-Serif" font-size="10.00">&#45; unobserved()</text>
<text text-anchor="start" x="35" y="-460.5" font-family="Helvetica,sans-Serif" font-size="10.00">&#45; destruct()</text>
</a>
</g>
</g>
<!-- Node3&#45;&gt;Node11 -->
<g id="edge11" class="edge">
<title>Node3&#45;&gt;Node11</title>
<path fill="none" stroke="midnightblue" d="M193.71,-714.92C189.73,-706.13 185.42,-696.63 180.99,-686.83"/>
<polygon fill="none" stroke="midnightblue" points="190.58,-716.48 197.89,-724.15 196.95,-713.59 190.58,-716.48"/>
</g>
<!-- Node4 -->
<g id="node4" class="node">
<title>Node4</title>
<g id="a_node4"><a xlink:href="classnet_1_1_descriptor_event_receiver.html" target="_top" xlink:title=" ">
<polygon fill="white" stroke="black" points="142.5,-841.5 142.5,-1162.5 288.5,-1162.5 288.5,-841.5 142.5,-841.5"/>
<text text-anchor="middle" x="215.5" y="-1150.5" font-family="Helvetica,sans-Serif" font-size="10.00">net::DescriptorEventReceiver</text>
<polyline fill="none" stroke="black" points="142.5,-1143.5 288.5,-1143.5 "/>
<text text-anchor="start" x="150.5" y="-1131.5" font-family="Helvetica,sans-Serif" font-size="10.00">&#45; fd</text>
<text text-anchor="start" x="150.5" y="-1120.5" font-family="Helvetica,sans-Serif" font-size="10.00">&#45; _enabled</text>
<text text-anchor="start" x="150.5" y="-1109.5" font-family="Helvetica,sans-Serif" font-size="10.00">&#45; _suspended</text>
<text text-anchor="start" x="150.5" y="-1098.5" font-family="Helvetica,sans-Serif" font-size="10.00">&#45; maxInactivity</text>
<text text-anchor="start" x="150.5" y="-1087.5" font-family="Helvetica,sans-Serif" font-size="10.00">&#45; initialTimeout</text>
<polyline fill="none" stroke="black" points="142.5,-1080.5 288.5,-1080.5 "/>
<text text-anchor="start" x="150.5" y="-1068.5" font-family="Helvetica,sans-Serif" font-size="10.00">+ DescriptorEventReceiver()</text>
<text text-anchor="start" x="150.5" y="-1057.5" font-family="Helvetica,sans-Serif" font-size="10.00">+ operator=()</text>
<text text-anchor="start" x="150.5" y="-1046.5" font-family="Helvetica,sans-Serif" font-size="10.00">+ enable()</text>
<text text-anchor="start" x="150.5" y="-1035.5" font-family="Helvetica,sans-Serif" font-size="10.00">+ disable()</text>
<text text-anchor="start" x="150.5" y="-1024.5" font-family="Helvetica,sans-Serif" font-size="10.00">+ suspend()</text>
<text text-anchor="start" x="150.5" y="-1013.5" font-family="Helvetica,sans-Serif" font-size="10.00">+ resume()</text>
<text text-anchor="start" x="150.5" y="-1002.5" font-family="Helvetica,sans-Serif" font-size="10.00"># DescriptorEventReceiver()</text>
<text text-anchor="start" x="150.5" y="-991.5" font-family="Helvetica,sans-Serif" font-size="10.00"># ~DescriptorEventReceiver()</text>
<text text-anchor="start" x="150.5" y="-980.5" font-family="Helvetica,sans-Serif" font-size="10.00"># setTimeout()</text>
<text text-anchor="start" x="150.5" y="-969.5" font-family="Helvetica,sans-Serif" font-size="10.00"># isEnabled()</text>
<text text-anchor="start" x="150.5" y="-958.5" font-family="Helvetica,sans-Serif" font-size="10.00"># isSuspended()</text>
<text text-anchor="start" x="150.5" y="-947.5" font-family="Helvetica,sans-Serif" font-size="10.00">&#45; dispatchEvent()</text>
<text text-anchor="start" x="150.5" y="-936.5" font-family="Helvetica,sans-Serif" font-size="10.00">&#45; timeoutEvent()</text>
<text text-anchor="start" x="150.5" y="-925.5" font-family="Helvetica,sans-Serif" font-size="10.00">&#45; enabled()</text>
<text text-anchor="start" x="150.5" y="-914.5" font-family="Helvetica,sans-Serif" font-size="10.00">&#45; disabled()</text>
<text text-anchor="start" x="150.5" y="-903.5" font-family="Helvetica,sans-Serif" font-size="10.00">&#45; suspended()</text>
<text text-anchor="start" x="150.5" y="-892.5" font-family="Helvetica,sans-Serif" font-size="10.00">&#45; resumed()</text>
<text text-anchor="start" x="150.5" y="-881.5" font-family="Helvetica,sans-Serif" font-size="10.00">&#45; getTimeout()</text>
<text text-anchor="start" x="150.5" y="-870.5" font-family="Helvetica,sans-Serif" font-size="10.00">&#45; getLastTriggered()</text>
<text text-anchor="start" x="150.5" y="-859.5" font-family="Helvetica,sans-Serif" font-size="10.00">&#45; triggered()</text>
<text text-anchor="start" x="150.5" y="-848.5" font-family="Helvetica,sans-Serif" font-size="10.00">&#45; unobserved()</text>
</a>
</g>
</g>
<!-- Node4&#45;&gt;Node3 -->
<g id="edge3" class="edge">
<title>Node4&#45;&gt;Node3</title>
<path fill="none" stroke="midnightblue" d="M215.5,-831.2C215.5,-821.29 215.5,-811.99 215.5,-803.67"/>
<polygon fill="none" stroke="midnightblue" points="212,-831.3 215.5,-841.3 219,-831.3 212,-831.3"/>
</g>
<!-- Node5 -->
<g id="node5" class="node">
<title>Node5</title>
<g id="a_node5"><a xlink:href="classnet_1_1_observation_counter.html" target="_top" xlink:title=" ">
<polygon fill="white" stroke="black" points="138,-1298.5 138,-1366.5 261,-1366.5 261,-1298.5 138,-1298.5"/>
<text text-anchor="middle" x="199.5" y="-1354.5" font-family="Helvetica,sans-Serif" font-size="10.00">net::ObservationCounter</text>
<polyline fill="none" stroke="black" points="138,-1347.5 261,-1347.5 "/>
<text text-anchor="start" x="146" y="-1335.5" font-family="Helvetica,sans-Serif" font-size="10.00"># observationCounter</text>
<text text-anchor="start" x="146" y="-1324.5" font-family="Helvetica,sans-Serif" font-size="10.00"># lastTriggered</text>
<polyline fill="none" stroke="black" points="138,-1317.5 261,-1317.5 "/>
<text text-anchor="start" x="146" y="-1305.5" font-family="Helvetica,sans-Serif" font-size="10.00">+ isObserved()</text>
</a>
</g>
</g>
<!-- Node5&#45;&gt;Node4 -->
<g id="edge4" class="edge">
<title>Node5&#45;&gt;Node4</title>
<path fill="none" stroke="midnightblue" d="M201.6,-1288.45C203.18,-1255.88 205.47,-1208.99 207.73,-1162.59"/>
<polygon fill="none" stroke="midnightblue" points="198.1,-1288.34 201.11,-1298.5 205.09,-1288.68 198.1,-1288.34"/>
</g>
<!-- Node6 -->
<g id="node6" class="node">
<title>Node6</title>
<g id="a_node6"><a xlink:href="classnet_1_1_descriptor_event_dispatcher.html" target="_top" xlink:title=" ">
<polygon fill="white" stroke="black" points="279.5,-1210.5 279.5,-1454.5 433.5,-1454.5 433.5,-1210.5 279.5,-1210.5"/>
<text text-anchor="middle" x="356.5" y="-1442.5" font-family="Helvetica,sans-Serif" font-size="10.00">net::DescriptorEventDispatcher</text>
<polyline fill="none" stroke="black" points="279.5,-1435.5 433.5,-1435.5 "/>
<text text-anchor="start" x="287.5" y="-1423.5" font-family="Helvetica,sans-Serif" font-size="10.00">&#45; enabledEventReceiver</text>
<text text-anchor="start" x="287.5" y="-1412.5" font-family="Helvetica,sans-Serif" font-size="10.00">&#45; observedEventReceiver</text>
<text text-anchor="start" x="287.5" y="-1401.5" font-family="Helvetica,sans-Serif" font-size="10.00">&#45; disabledEventReceiver</text>
<text text-anchor="start" x="287.5" y="-1390.5" font-family="Helvetica,sans-Serif" font-size="10.00">&#45; eventCounter</text>
<polyline fill="none" stroke="black" points="279.5,-1383.5 433.5,-1383.5 "/>
<text text-anchor="start" x="287.5" y="-1371.5" font-family="Helvetica,sans-Serif" font-size="10.00">+ DescriptorEventDispatcher()</text>
<text text-anchor="start" x="287.5" y="-1360.5" font-family="Helvetica,sans-Serif" font-size="10.00">+ DescriptorEventDispatcher()</text>
<text text-anchor="start" x="287.5" y="-1349.5" font-family="Helvetica,sans-Serif" font-size="10.00">+ operator=()</text>
<text text-anchor="start" x="287.5" y="-1338.5" font-family="Helvetica,sans-Serif" font-size="10.00">+ enable()</text>
<text text-anchor="start" x="287.5" y="-1327.5" font-family="Helvetica,sans-Serif" font-size="10.00">+ disable()</text>
<text text-anchor="start" x="287.5" y="-1316.5" font-family="Helvetica,sans-Serif" font-size="10.00">+ suspend()</text>
<text text-anchor="start" x="287.5" y="-1305.5" font-family="Helvetica,sans-Serif" font-size="10.00">+ resume()</text>
<text text-anchor="start" x="287.5" y="-1294.5" font-family="Helvetica,sans-Serif" font-size="10.00">+ getEventCounter()</text>
<text text-anchor="start" x="287.5" y="-1283.5" font-family="Helvetica,sans-Serif" font-size="10.00">&#45; getMaxFd()</text>
<text text-anchor="start" x="287.5" y="-1272.5" font-family="Helvetica,sans-Serif" font-size="10.00">&#45; getFdSet()</text>
<text text-anchor="start" x="287.5" y="-1261.5" font-family="Helvetica,sans-Serif" font-size="10.00">&#45; dispatchActiveEvents()</text>
<text text-anchor="start" x="287.5" y="-1250.5" font-family="Helvetica,sans-Serif" font-size="10.00">&#45; observeEnabledEvents()</text>
<text text-anchor="start" x="287.5" y="-1239.5" font-family="Helvetica,sans-Serif" font-size="10.00">&#45; unobserveDisabledEvents()</text>
<text text-anchor="start" x="287.5" y="-1228.5" font-family="Helvetica,sans-Serif" font-size="10.00">&#45; releaseUnobservedEvents()</text>
<text text-anchor="start" x="287.5" y="-1217.5" font-family="Helvetica,sans-Serif" font-size="10.00">&#45; disableObservedEvents()</text>
</a>
</g>
</g>
<!-- Node6&#45;&gt;Node4 -->
<g id="edge5" class="edge">
<title>Node6&#45;&gt;Node4</title>
<path fill="none" stroke="#404040" d="M304.4,-1210.11C299.32,-1198.29 294.11,-1186.14 288.88,-1173.95"/>
<polygon fill="none" stroke="#404040" points="288.8,-1173.78 282.76,-1169.84 284.07,-1162.75 290.11,-1166.69 288.8,-1173.78"/>
<text text-anchor="middle" x="355.5" y="-1184" font-family="Helvetica,sans-Serif" font-size="10.00"> &#45;descriptorEventDispatcher</text>
</g>
<!-- Node7 -->
<g id="node7" class="node">
<title>Node7</title>
<g id="a_node7"><a xlink:href="classnet_1_1_descriptor_event_dispatcher_1_1_descriptor_event_receiver_list.html" target="_top" xlink:title=" ">
<polygon fill="white" stroke="black" points="207.5,-1530 207.5,-1598 361.5,-1598 361.5,-1530 207.5,-1530"/>
<text text-anchor="start" x="215.5" y="-1586" font-family="Helvetica,sans-Serif" font-size="10.00">net::DescriptorEventDispatcher</text>
<text text-anchor="middle" x="284.5" y="-1575" font-family="Helvetica,sans-Serif" font-size="10.00">::DescriptorEventReceiverList</text>
<polyline fill="none" stroke="black" points="207.5,-1568 361.5,-1568 "/>
<text text-anchor="middle" x="284.5" y="-1556" font-family="Helvetica,sans-Serif" font-size="10.00"> </text>
<polyline fill="none" stroke="black" points="207.5,-1549 361.5,-1549 "/>
<text text-anchor="start" x="215.5" y="-1537" font-family="Helvetica,sans-Serif" font-size="10.00">+ contains()</text>
</a>
</g>
</g>
<!-- Node7&#45;&gt;Node6 -->
<g id="edge6" class="edge">
<title>Node7&#45;&gt;Node6</title>
<path fill="none" stroke="#404040" d="M281.28,-1529.63C280.52,-1512.47 280.99,-1491.36 285.5,-1473 286.04,-1470.82 286.61,-1468.63 287.22,-1466.44"/>
<polygon fill="none" stroke="#404040" points="287.3,-1466.21 285.24,-1459.3 290.82,-1454.74 292.88,-1461.65 287.3,-1466.21"/>
<text text-anchor="middle" x="346" y="-1476" font-family="Helvetica,sans-Serif" font-size="10.00"> &#45;unobservedEventReceiver</text>
</g>
<!-- Node8 -->
<g id="node8" class="node">
<title>Node8</title>
<g id="a_node8"><a xlink:title=" ">
<polygon fill="white" stroke="#bfbfbf" points="220.5,-1663.5 220.5,-1731.5 348.5,-1731.5 348.5,-1663.5 220.5,-1663.5"/>
<text text-anchor="start" x="228.5" y="-1719.5" font-family="Helvetica,sans-Serif" font-size="10.00">std::list&lt; DescriptorEvent</text>
<text text-anchor="middle" x="284.5" y="-1708.5" font-family="Helvetica,sans-Serif" font-size="10.00">Receiver * &gt;</text>
<polyline fill="none" stroke="#bfbfbf" points="220.5,-1701.5 348.5,-1701.5 "/>
<text text-anchor="middle" x="284.5" y="-1689.5" font-family="Helvetica,sans-Serif" font-size="10.00"> </text>
<polyline fill="none" stroke="#bfbfbf" points="220.5,-1682.5 348.5,-1682.5 "/>
<text text-anchor="middle" x="284.5" y="-1670.5" font-family="Helvetica,sans-Serif" font-size="10.00"> </text>
</a>
</g>
</g>
<!-- Node8&#45;&gt;Node7 -->
<g id="edge7" class="edge">
<title>Node8&#45;&gt;Node7</title>
<path fill="none" stroke="midnightblue" d="M284.5,-1653.12C284.5,-1635.23 284.5,-1614.83 284.5,-1598.17"/>
<polygon fill="none" stroke="midnightblue" points="281,-1653.32 284.5,-1663.32 288,-1653.32 281,-1653.32"/>
</g>
<!-- Node9 -->
<g id="node9" class="node">
<title>Node9</title>
<g id="a_node9"><a xlink:href="classnet_1_1_fd_set.html" target="_top" xlink:title=" ">
<polygon fill="white" stroke="black" points="394.5,-1502.5 394.5,-1625.5 462.5,-1625.5 462.5,-1502.5 394.5,-1502.5"/>
<text text-anchor="middle" x="428.5" y="-1613.5" font-family="Helvetica,sans-Serif" font-size="10.00">net::FdSet</text>
<polyline fill="none" stroke="black" points="394.5,-1606.5 462.5,-1606.5 "/>
<text text-anchor="start" x="402.5" y="-1594.5" font-family="Helvetica,sans-Serif" font-size="10.00"># registered</text>
<text text-anchor="start" x="402.5" y="-1583.5" font-family="Helvetica,sans-Serif" font-size="10.00"># active</text>
<polyline fill="none" stroke="black" points="394.5,-1576.5 462.5,-1576.5 "/>
<text text-anchor="start" x="402.5" y="-1564.5" font-family="Helvetica,sans-Serif" font-size="10.00">+ FdSet()</text>
<text text-anchor="start" x="402.5" y="-1553.5" font-family="Helvetica,sans-Serif" font-size="10.00">+ set()</text>
<text text-anchor="start" x="402.5" y="-1542.5" font-family="Helvetica,sans-Serif" font-size="10.00">+ clr()</text>
<text text-anchor="start" x="402.5" y="-1531.5" font-family="Helvetica,sans-Serif" font-size="10.00">+ isSet()</text>
<text text-anchor="start" x="402.5" y="-1520.5" font-family="Helvetica,sans-Serif" font-size="10.00">+ zero()</text>
<text text-anchor="start" x="402.5" y="-1509.5" font-family="Helvetica,sans-Serif" font-size="10.00">+ get()</text>
</a>
</g>
</g>
<!-- Node9&#45;&gt;Node6 -->
<g id="edge8" class="edge">
<title>Node9&#45;&gt;Node6</title>
<path fill="none" stroke="#404040" d="M414.57,-1502.25C412.05,-1492.43 409.32,-1482.4 406.5,-1473 405.82,-1470.74 405.12,-1468.46 404.41,-1466.16"/>
<polygon fill="none" stroke="#404040" points="404.38,-1466.05 398.76,-1461.53 400.76,-1454.6 406.38,-1459.12 404.38,-1466.05"/>
<text text-anchor="middle" x="424.5" y="-1476" font-family="Helvetica,sans-Serif" font-size="10.00"> &#45;fdSet</text>
</g>
<!-- Node10 -->
<g id="node10" class="node">
<title>Node10</title>
<g id="a_node10"><a xlink:title=" ">
<polygon fill="white" stroke="#bfbfbf" points="0,-730 0,-798 107,-798 107,-730 0,-730"/>
<text text-anchor="start" x="8" y="-786" font-family="Helvetica,sans-Serif" font-size="10.00">SocketConnectionT::</text>
<text text-anchor="middle" x="53.5" y="-775" font-family="Helvetica,sans-Serif" font-size="10.00">Socket</text>
<polyline fill="none" stroke="#bfbfbf" points="0,-768 107,-768 "/>
<text text-anchor="middle" x="53.5" y="-756" font-family="Helvetica,sans-Serif" font-size="10.00"> </text>
<polyline fill="none" stroke="#bfbfbf" points="0,-749 107,-749 "/>
<text text-anchor="middle" x="53.5" y="-737" font-family="Helvetica,sans-Serif" font-size="10.00"> </text>
</a>
</g>
</g>
<!-- Node10&#45;&gt;Node2 -->
<g id="edge9" class="edge">
<title>Node10&#45;&gt;Node2</title>
<path fill="none" stroke="midnightblue" d="M29.42,-720.65C24.5,-709.99 20.05,-698.35 17.5,-687 -5.32,-585.53 -3.81,-554.79 17.5,-453 21.56,-433.61 27.77,-413.77 34.99,-394.62"/>
<polygon fill="none" stroke="midnightblue" points="26.31,-722.26 33.83,-729.73 32.61,-719.21 26.31,-722.26"/>
</g>
<!-- Node10&#45;&gt;Node11 -->
<g id="edge12" class="edge">
<title>Node10&#45;&gt;Node11</title>
<path fill="none" stroke="midnightblue" d="M70.09,-720.54C74.1,-710.27 78.58,-698.79 83.23,-686.89"/>
<polygon fill="none" stroke="midnightblue" points="66.77,-719.41 66.39,-729.99 73.29,-721.95 66.77,-719.41"/>
</g>
<!-- Node11&#45;&gt;Node2 -->
<g id="edge10" class="edge">
<title>Node11&#45;&gt;Node2</title>
<path fill="none" stroke="orange" d="M100.49,-443.27C100.13,-440.49 99.8,-437.73 99.5,-435 98.07,-422.03 97.12,-408.46 96.51,-394.9"/>
<polygon fill="orange" stroke="orange" points="97.06,-443.98 101.92,-453.4 103.99,-443.01 97.06,-443.98"/>
<text text-anchor="start" x="99.5" y="-427" font-family="Helvetica,sans-Serif" font-size="10.00"> &lt; stream::tls::SocketConnection</text>
<text text-anchor="middle" x="172" y="-416" font-family="Helvetica,sans-Serif" font-size="10.00">&lt; SocketT &gt; &gt;</text>
</g>
</g>
</svg>
