<?xml version="1.0" encoding="UTF-8" standalone="no"?>
<!DOCTYPE svg PUBLIC "-//W3C//DTD SVG 1.1//EN"
 "http://www.w3.org/Graphics/SVG/1.1/DTD/svg11.dtd">
<!-- Generated by graphviz version 2.43.0 (0)
 -->
<!-- Title: http::server::Response::receive Pages: 1 -->
<svg width="599pt" height="186pt"
 viewBox="0.00 0.00 599.00 186.00" xmlns="http://www.w3.org/2000/svg" xmlns:xlink="http://www.w3.org/1999/xlink">
<g id="graph0" class="graph" transform="scale(1 1) rotate(0) translate(4 182)">
<title>http::server::Response::receive</title>
<polygon fill="white" stroke="transparent" points="-4,4 -4,-182 595,-182 595,4 -4,4"/>
<!-- Node1 -->
<g id="node1" class="node">
<title>Node1</title>
<g id="a_node1"><a xlink:title=" ">
<polygon fill="#bfbfbf" stroke="black" points="0,-98.5 0,-128.5 116,-128.5 116,-98.5 0,-98.5"/>
<text text-anchor="start" x="8" y="-116.5" font-family="Helvetica,sans-Serif" font-size="10.00">http::server::Response</text>
<text text-anchor="middle" x="58" y="-105.5" font-family="Helvetica,sans-Serif" font-size="10.00">::receive</text>
</a>
</g>
</g>
<!-- Node2 -->
<g id="node2" class="node">
<title>Node2</title>
<g id="a_node2"><a xlink:href="classhttp_1_1server_1_1_response.html#aa20e3fd615b677aeb0ec1bda57bf0f93" target="_top" xlink:title=" ">
<polygon fill="white" stroke="black" points="152,-98.5 152,-128.5 268,-128.5 268,-98.5 152,-98.5"/>
<text text-anchor="start" x="160" y="-116.5" font-family="Helvetica,sans-Serif" font-size="10.00">http::server::Response</text>
<text text-anchor="middle" x="210" y="-105.5" font-family="Helvetica,sans-Serif" font-size="10.00">::enqueue</text>
</a>
</g>
</g>
<!-- Node1&#45;&gt;Node2 -->
<g id="edge1" class="edge">
<title>Node1&#45;&gt;Node2</title>
<path fill="none" stroke="midnightblue" d="M116.14,-113.5C124.38,-113.5 132.92,-113.5 141.34,-113.5"/>
<polygon fill="midnightblue" stroke="midnightblue" points="141.53,-117 151.53,-113.5 141.53,-110 141.53,-117"/>
</g>
<!-- Node3 -->
<g id="node3" class="node">
<title>Node3</title>
<g id="a_node3"><a xlink:href="classhttp_1_1server_1_1_server_context_base.html#a71bb53bfd799395fb4a2111f8d8dd4e3" target="_top" xlink:title=" ">
<polygon fill="white" stroke="black" points="304,-147.5 304,-177.5 439,-177.5 439,-147.5 304,-147.5"/>
<text text-anchor="start" x="312" y="-165.5" font-family="Helvetica,sans-Serif" font-size="10.00">http::server::ServerContext</text>
<text text-anchor="middle" x="371.5" y="-154.5" font-family="Helvetica,sans-Serif" font-size="10.00">Base::responseCompleted</text>
</a>
</g>
</g>
<!-- Node2&#45;&gt;Node3 -->
<g id="edge2" class="edge">
<title>Node2&#45;&gt;Node3</title>
<path fill="none" stroke="midnightblue" d="M260.16,-128.6C276.45,-133.61 294.76,-139.23 311.71,-144.44"/>
<polygon fill="midnightblue" stroke="midnightblue" points="310.92,-147.86 321.51,-147.45 312.97,-141.17 310.92,-147.86"/>
</g>
<!-- Node4 -->
<g id="node4" class="node">
<title>Node4</title>
<g id="a_node4"><a xlink:href="classhttp_1_1server_1_1_response.html#a7f5f47752f963e945421d8e65ae05b87" target="_top" xlink:title=" ">
<polygon fill="white" stroke="black" points="313.5,-98.5 313.5,-128.5 429.5,-128.5 429.5,-98.5 313.5,-98.5"/>
<text text-anchor="start" x="321.5" y="-116.5" font-family="Helvetica,sans-Serif" font-size="10.00">http::server::Response</text>
<text text-anchor="middle" x="371.5" y="-105.5" font-family="Helvetica,sans-Serif" font-size="10.00">::sendHeader</text>
</a>
</g>
</g>
<!-- Node2&#45;&gt;Node4 -->
<g id="edge3" class="edge">
<title>Node2&#45;&gt;Node4</title>
<path fill="none" stroke="midnightblue" d="M268.13,-107C279.54,-106.74 291.62,-106.68 303.33,-106.83"/>
<polygon fill="midnightblue" stroke="midnightblue" points="303.44,-110.33 313.5,-107 303.56,-103.33 303.44,-110.33"/>
</g>
<!-- Node8 -->
<g id="node8" class="node">
<title>Node8</title>
<g id="a_node8"><a xlink:href="classhttp_1_1server_1_1_server_context_base.html#a8ed90a09a2dd6c4144eb60622cfbc8ee" target="_top" xlink:title=" ">
<polygon fill="white" stroke="black" points="304,-49.5 304,-79.5 439,-79.5 439,-49.5 304,-49.5"/>
<text text-anchor="start" x="312" y="-67.5" font-family="Helvetica,sans-Serif" font-size="10.00">http::server::ServerContext</text>
<text text-anchor="middle" x="371.5" y="-56.5" font-family="Helvetica,sans-Serif" font-size="10.00">Base::sendResponseData</text>
</a>
</g>
</g>
<!-- Node2&#45;&gt;Node8 -->
<g id="edge8" class="edge">
<title>Node2&#45;&gt;Node8</title>
<path fill="none" stroke="midnightblue" d="M260.16,-98.4C276.45,-93.39 294.76,-87.77 311.71,-82.56"/>
<polygon fill="midnightblue" stroke="midnightblue" points="312.97,-85.83 321.51,-79.55 310.92,-79.14 312.97,-85.83"/>
</g>
<!-- Node9 -->
<g id="node9" class="node">
<title>Node9</title>
<g id="a_node9"><a xlink:href="classhttp_1_1server_1_1_server_context_base.html#aea1bf43f8ad281b0f51cb1580f04447c" target="_top" xlink:title=" ">
<polygon fill="white" stroke="black" points="304,-0.5 304,-30.5 439,-30.5 439,-0.5 304,-0.5"/>
<text text-anchor="start" x="312" y="-18.5" font-family="Helvetica,sans-Serif" font-size="10.00">http::server::ServerContext</text>
<text text-anchor="middle" x="371.5" y="-7.5" font-family="Helvetica,sans-Serif" font-size="10.00">Base::terminateConnection</text>
</a>
</g>
</g>
<!-- Node2&#45;&gt;Node9 -->
<g id="edge9" class="edge">
<title>Node2&#45;&gt;Node9</title>
<path fill="none" stroke="midnightblue" d="M226.63,-98.39C244.23,-82.04 274.27,-56.1 304,-39.5 307.04,-37.8 310.22,-36.19 313.48,-34.66"/>
<polygon fill="midnightblue" stroke="midnightblue" points="315.04,-37.79 322.79,-30.57 312.23,-31.38 315.04,-37.79"/>
</g>
<!-- Node4&#45;&gt;Node2 -->
<g id="edge5" class="edge">
<title>Node4&#45;&gt;Node2</title>
<path fill="none" stroke="midnightblue" d="M313.5,-120C302.1,-120.26 290.02,-120.32 278.3,-120.18"/>
<polygon fill="midnightblue" stroke="midnightblue" points="278.19,-116.67 268.13,-120 278.07,-123.67 278.19,-116.67"/>
</g>
<!-- Node5 -->
<g id="node5" class="node">
<title>Node5</title>
<g id="a_node5"><a xlink:href="classhttp_1_1server_1_1_response.html#a8579450e1d1732bbbec2d350b86ebef9" target="_top" xlink:title=" ">
<polygon fill="white" stroke="black" points="475,-142.5 475,-172.5 591,-172.5 591,-142.5 475,-142.5"/>
<text text-anchor="start" x="483" y="-160.5" font-family="Helvetica,sans-Serif" font-size="10.00">http::server::Response</text>
<text text-anchor="middle" x="533" y="-149.5" font-family="Helvetica,sans-Serif" font-size="10.00">::cookie</text>
</a>
</g>
</g>
<!-- Node4&#45;&gt;Node5 -->
<g id="edge4" class="edge">
<title>Node4&#45;&gt;Node5</title>
<path fill="none" stroke="midnightblue" d="M426.94,-128.52C440.09,-132.15 454.26,-136.05 467.8,-139.79"/>
<polygon fill="midnightblue" stroke="midnightblue" points="466.96,-143.19 477.53,-142.47 468.82,-136.44 466.96,-143.19"/>
</g>
<!-- Node6 -->
<g id="node6" class="node">
<title>Node6</title>
<g id="a_node6"><a xlink:href="class_status_code.html#a22c4b7005f5d2de069af37a191b97fa0" target="_top" xlink:title=" ">
<polygon fill="white" stroke="black" points="481,-104 481,-123 585,-123 585,-104 481,-104"/>
<text text-anchor="middle" x="533" y="-111" font-family="Helvetica,sans-Serif" font-size="10.00">StatusCode::reason</text>
</a>
</g>
</g>
<!-- Node4&#45;&gt;Node6 -->
<g id="edge6" class="edge">
<title>Node4&#45;&gt;Node6</title>
<path fill="none" stroke="midnightblue" d="M429.63,-113.5C442.95,-113.5 457.19,-113.5 470.68,-113.5"/>
<polygon fill="midnightblue" stroke="midnightblue" points="470.83,-117 480.83,-113.5 470.83,-110 470.83,-117"/>
</g>
<!-- Node7 -->
<g id="node7" class="node">
<title>Node7</title>
<g id="a_node7"><a xlink:href="namespacehttputils.html#a01539c1af68e4d072d3507ae44c0b02a" target="_top" xlink:title=" ">
<polygon fill="white" stroke="black" points="477.5,-66 477.5,-85 588.5,-85 588.5,-66 477.5,-66"/>
<text text-anchor="middle" x="533" y="-73" font-family="Helvetica,sans-Serif" font-size="10.00">httputils::to_http_date</text>
</a>
</g>
</g>
<!-- Node4&#45;&gt;Node7 -->
<g id="edge7" class="edge">
<title>Node4&#45;&gt;Node7</title>
<path fill="none" stroke="midnightblue" d="M429.63,-99.89C446.66,-95.83 465.18,-91.42 481.74,-87.48"/>
<polygon fill="midnightblue" stroke="midnightblue" points="482.84,-90.81 491.76,-85.09 481.22,-84 482.84,-90.81"/>
</g>
</g>
</svg>
