<?xml version="1.0" encoding="UTF-8" standalone="no"?>
<!DOCTYPE svg PUBLIC "-//W3C//DTD SVG 1.1//EN"
 "http://www.w3.org/Graphics/SVG/1.1/DTD/svg11.dtd">
<!-- Generated by graphviz version 2.43.0 (0)
 -->
<!-- Title: express::Response Pages: 1 -->
<svg width="278pt" height="673pt"
 viewBox="0.00 0.00 277.50 673.00" xmlns="http://www.w3.org/2000/svg" xmlns:xlink="http://www.w3.org/1999/xlink">
<g id="graph0" class="graph" transform="scale(1 1) rotate(0) translate(4 669)">
<title>express::Response</title>
<polygon fill="white" stroke="transparent" points="-4,4 -4,-669 273.5,-669 273.5,4 -4,4"/>
<!-- Node1 -->
<g id="node1" class="node">
<title>Node1</title>
<g id="a_node1"><a xlink:title=" ">
<polygon fill="#bfbfbf" stroke="black" points="84.5,-0.5 84.5,-167.5 185.5,-167.5 185.5,-0.5 84.5,-0.5"/>
<text text-anchor="middle" x="135" y="-155.5" font-family="Helvetica,sans-Serif" font-size="10.00">express::Response</text>
<polyline fill="none" stroke="black" points="84.5,-148.5 185.5,-148.5 "/>
<text text-anchor="middle" x="135" y="-136.5" font-family="Helvetica,sans-Serif" font-size="10.00"> </text>
<polyline fill="none" stroke="black" points="84.5,-129.5 185.5,-129.5 "/>
<text text-anchor="start" x="92.5" y="-117.5" font-family="Helvetica,sans-Serif" font-size="10.00">+ Response()</text>
<text text-anchor="start" x="92.5" y="-106.5" font-family="Helvetica,sans-Serif" font-size="10.00">+ sendFile()</text>
<text text-anchor="start" x="92.5" y="-95.5" font-family="Helvetica,sans-Serif" font-size="10.00">+ download()</text>
<text text-anchor="start" x="92.5" y="-84.5" font-family="Helvetica,sans-Serif" font-size="10.00">+ download()</text>
<text text-anchor="start" x="92.5" y="-73.5" font-family="Helvetica,sans-Serif" font-size="10.00">+ redirect()</text>
<text text-anchor="start" x="92.5" y="-62.5" font-family="Helvetica,sans-Serif" font-size="10.00">+ redirect()</text>
<text text-anchor="start" x="92.5" y="-51.5" font-family="Helvetica,sans-Serif" font-size="10.00">+ sendStatus()</text>
<text text-anchor="start" x="92.5" y="-40.5" font-family="Helvetica,sans-Serif" font-size="10.00">+ reset()</text>
<text text-anchor="start" x="92.5" y="-29.5" font-family="Helvetica,sans-Serif" font-size="10.00"># pipe()</text>
<text text-anchor="start" x="92.5" y="-18.5" font-family="Helvetica,sans-Serif" font-size="10.00"># pipeEOF()</text>
<text text-anchor="start" x="92.5" y="-7.5" font-family="Helvetica,sans-Serif" font-size="10.00"># pipeError()</text>
</a>
</g>
</g>
<!-- Node2 -->
<g id="node2" class="node">
<title>Node2</title>
<g id="a_node2"><a xlink:href="classhttp_1_1_response.html" target="_top" xlink:title=" ">
<polygon fill="white" stroke="black" points="72.5,-205.5 72.5,-493.5 197.5,-493.5 197.5,-205.5 72.5,-205.5"/>
<text text-anchor="middle" x="135" y="-481.5" font-family="Helvetica,sans-Serif" font-size="10.00">http::Response</text>
<polyline fill="none" stroke="black" points="72.5,-474.5 197.5,-474.5 "/>
<text text-anchor="start" x="80.5" y="-462.5" font-family="Helvetica,sans-Serif" font-size="10.00"># connectionState</text>
<text text-anchor="start" x="80.5" y="-451.5" font-family="Helvetica,sans-Serif" font-size="10.00"># sendHeaderInProgress</text>
<text text-anchor="start" x="80.5" y="-440.5" font-family="Helvetica,sans-Serif" font-size="10.00"># headersSent</text>
<text text-anchor="start" x="80.5" y="-429.5" font-family="Helvetica,sans-Serif" font-size="10.00"># responseStatus</text>
<text text-anchor="start" x="80.5" y="-418.5" font-family="Helvetica,sans-Serif" font-size="10.00"># contentSent</text>
<text text-anchor="start" x="80.5" y="-407.5" font-family="Helvetica,sans-Serif" font-size="10.00"># contentLength</text>
<text text-anchor="start" x="80.5" y="-396.5" font-family="Helvetica,sans-Serif" font-size="10.00"># headers</text>
<text text-anchor="start" x="80.5" y="-385.5" font-family="Helvetica,sans-Serif" font-size="10.00"># cookies</text>
<polyline fill="none" stroke="black" points="72.5,-378.5 197.5,-378.5 "/>
<text text-anchor="start" x="80.5" y="-366.5" font-family="Helvetica,sans-Serif" font-size="10.00">+ send()</text>
<text text-anchor="start" x="80.5" y="-355.5" font-family="Helvetica,sans-Serif" font-size="10.00">+ send()</text>
<text text-anchor="start" x="80.5" y="-344.5" font-family="Helvetica,sans-Serif" font-size="10.00">+ end()</text>
<text text-anchor="start" x="80.5" y="-333.5" font-family="Helvetica,sans-Serif" font-size="10.00">+ status()</text>
<text text-anchor="start" x="80.5" y="-322.5" font-family="Helvetica,sans-Serif" font-size="10.00">+ append()</text>
<text text-anchor="start" x="80.5" y="-311.5" font-family="Helvetica,sans-Serif" font-size="10.00">+ set()</text>
<text text-anchor="start" x="80.5" y="-300.5" font-family="Helvetica,sans-Serif" font-size="10.00">+ set()</text>
<text text-anchor="start" x="80.5" y="-289.5" font-family="Helvetica,sans-Serif" font-size="10.00">+ cookie()</text>
<text text-anchor="start" x="80.5" y="-278.5" font-family="Helvetica,sans-Serif" font-size="10.00">+ clearCookie()</text>
<text text-anchor="start" x="80.5" y="-267.5" font-family="Helvetica,sans-Serif" font-size="10.00">+ type()</text>
<text text-anchor="start" x="80.5" y="-256.5" font-family="Helvetica,sans-Serif" font-size="10.00"># Response()</text>
<text text-anchor="start" x="80.5" y="-245.5" font-family="Helvetica,sans-Serif" font-size="10.00"># enqueue()</text>
<text text-anchor="start" x="80.5" y="-234.5" font-family="Helvetica,sans-Serif" font-size="10.00"># enqueue()</text>
<text text-anchor="start" x="80.5" y="-223.5" font-family="Helvetica,sans-Serif" font-size="10.00"># sendHeader()</text>
<text text-anchor="start" x="80.5" y="-212.5" font-family="Helvetica,sans-Serif" font-size="10.00"># reset()</text>
</a>
</g>
</g>
<!-- Node2&#45;&gt;Node1 -->
<g id="edge1" class="edge">
<title>Node2&#45;&gt;Node1</title>
<path fill="none" stroke="midnightblue" d="M135,-195.03C135,-185.71 135,-176.55 135,-167.73"/>
<polygon fill="none" stroke="midnightblue" points="131.5,-195.18 135,-205.18 138.5,-195.18 131.5,-195.18"/>
</g>
<!-- Node3 -->
<g id="node3" class="node">
<title>Node3</title>
<g id="a_node3"><a xlink:href="classnet_1_1stream_1_1_write_stream.html" target="_top" xlink:title=" ">
<polygon fill="white" stroke="black" points="0,-541.5 0,-664.5 126,-664.5 126,-541.5 0,-541.5"/>
<text text-anchor="middle" x="63" y="-652.5" font-family="Helvetica,sans-Serif" font-size="10.00">net::stream::WriteStream</text>
<polyline fill="none" stroke="black" points="0,-645.5 126,-645.5 "/>
<text text-anchor="start" x="8" y="-633.5" font-family="Helvetica,sans-Serif" font-size="10.00"># readStreams</text>
<polyline fill="none" stroke="black" points="0,-626.5 126,-626.5 "/>
<text text-anchor="start" x="8" y="-614.5" font-family="Helvetica,sans-Serif" font-size="10.00">+ WriteStream()</text>
<text text-anchor="start" x="8" y="-603.5" font-family="Helvetica,sans-Serif" font-size="10.00">+ ~WriteStream()</text>
<text text-anchor="start" x="8" y="-592.5" font-family="Helvetica,sans-Serif" font-size="10.00">+ pipe()</text>
<text text-anchor="start" x="8" y="-581.5" font-family="Helvetica,sans-Serif" font-size="10.00">+ pipeEOF()</text>
<text text-anchor="start" x="8" y="-570.5" font-family="Helvetica,sans-Serif" font-size="10.00">+ pipeError()</text>
<text text-anchor="start" x="8" y="-559.5" font-family="Helvetica,sans-Serif" font-size="10.00">+ sourceStream()</text>
<text text-anchor="start" x="8" y="-548.5" font-family="Helvetica,sans-Serif" font-size="10.00">+ unSourceStream()</text>
</a>
</g>
</g>
<!-- Node3&#45;&gt;Node2 -->
<g id="edge2" class="edge">
<title>Node3&#45;&gt;Node2</title>
<path fill="none" stroke="midnightblue" d="M83.16,-531.58C86.59,-519.6 90.26,-506.78 94,-493.7"/>
<polygon fill="none" stroke="midnightblue" points="79.72,-530.86 80.34,-541.44 86.45,-532.79 79.72,-530.86"/>
</g>
<!-- Node4 -->
<g id="node4" class="node">
<title>Node4</title>
<g id="a_node4"><a xlink:href="classhttp_1_1_server_context_base.html" target="_top" xlink:title=" ">
<polygon fill="white" stroke="black" points="144.5,-541.5 144.5,-664.5 269.5,-664.5 269.5,-541.5 144.5,-541.5"/>
<text text-anchor="middle" x="207" y="-652.5" font-family="Helvetica,sans-Serif" font-size="10.00">http::ServerContextBase</text>
<polyline fill="none" stroke="black" points="144.5,-645.5 269.5,-645.5 "/>
<text text-anchor="middle" x="207" y="-633.5" font-family="Helvetica,sans-Serif" font-size="10.00"> </text>
<polyline fill="none" stroke="black" points="144.5,-626.5 269.5,-626.5 "/>
<text text-anchor="start" x="152.5" y="-614.5" font-family="Helvetica,sans-Serif" font-size="10.00">+ ~ServerContextBase()</text>
<text text-anchor="start" x="152.5" y="-603.5" font-family="Helvetica,sans-Serif" font-size="10.00">+ receiveRequestData()</text>
<text text-anchor="start" x="152.5" y="-592.5" font-family="Helvetica,sans-Serif" font-size="10.00">+ sendResponseData()</text>
<text text-anchor="start" x="152.5" y="-581.5" font-family="Helvetica,sans-Serif" font-size="10.00">+ responseCompleted()</text>
<text text-anchor="start" x="152.5" y="-570.5" font-family="Helvetica,sans-Serif" font-size="10.00">+ terminateConnection()</text>
<text text-anchor="start" x="152.5" y="-559.5" font-family="Helvetica,sans-Serif" font-size="10.00">+ onWriteError()</text>
<text text-anchor="start" x="152.5" y="-548.5" font-family="Helvetica,sans-Serif" font-size="10.00">+ onReadError()</text>
</a>
</g>
</g>
<!-- Node4&#45;&gt;Node2 -->
<g id="edge3" class="edge">
<title>Node4&#45;&gt;Node2</title>
<path fill="none" stroke="#404040" d="M189.66,-541.44C186.44,-530.2 182.95,-518 179.34,-505.39"/>
<polygon fill="none" stroke="#404040" points="179.3,-505.24 173.8,-500.57 176,-493.7 181.49,-498.37 179.3,-505.24"/>
<text text-anchor="middle" x="218" y="-515" font-family="Helvetica,sans-Serif" font-size="10.00"> #serverContext</text>
</g>
</g>
</svg>
