<?xml version="1.0" encoding="UTF-8" standalone="no"?>
<!DOCTYPE svg PUBLIC "-//W3C//DTD SVG 1.1//EN"
 "http://www.w3.org/Graphics/SVG/1.1/DTD/svg11.dtd">
<!-- Generated by graphviz version 2.43.0 (0)
 -->
<!-- Title: web::http::server::SocketContextUpgradeFactorySelector::loadSocketContexts1 Pages: 1 -->
<svg width="770pt" height="165pt"
 viewBox="0.00 0.00 770.00 165.00" xmlns="http://www.w3.org/2000/svg" xmlns:xlink="http://www.w3.org/1999/xlink">
<g id="graph0" class="graph" transform="scale(1 1) rotate(0) translate(4 161)">
<title>web::http::server::SocketContextUpgradeFactorySelector::loadSocketContexts1</title>
<polygon fill="white" stroke="transparent" points="-4,4 -4,-161 766,-161 766,4 -4,4"/>
<!-- Node1 -->
<g id="node1" class="node">
<title>Node1</title>
<g id="a_node1"><a xlink:title=" ">
<polygon fill="#bfbfbf" stroke="black" points="0,-85 0,-126 152,-126 152,-85 0,-85"/>
<text text-anchor="start" x="8" y="-114" font-family="Helvetica,sans-Serif" font-size="10.00">web::http::server::</text>
<text text-anchor="start" x="8" y="-103" font-family="Helvetica,sans-Serif" font-size="10.00">SocketContextUpgradeFactory</text>
<text text-anchor="middle" x="76" y="-92" font-family="Helvetica,sans-Serif" font-size="10.00">Selector::loadSocketContexts1</text>
</a>
</g>
</g>
<!-- Node2 -->
<g id="node2" class="node">
<title>Node2</title>
<g id="a_node2"><a xlink:href="classweb_1_1http_1_1server_1_1_socket_context_upgrade_factory_selector.html#a568eb6d1145d9494f8b903609a59f0f0" target="_top" xlink:title=" ">
<polygon fill="white" stroke="black" points="378,-110 378,-151 530,-151 530,-110 378,-110"/>
<text text-anchor="start" x="386" y="-139" font-family="Helvetica,sans-Serif" font-size="10.00">web::http::server::</text>
<text text-anchor="start" x="386" y="-128" font-family="Helvetica,sans-Serif" font-size="10.00">SocketContextUpgradeFactory</text>
<text text-anchor="middle" x="454" y="-117" font-family="Helvetica,sans-Serif" font-size="10.00">Selector::instance</text>
</a>
</g>
</g>
<!-- Node1&#45;&gt;Node2 -->
<g id="edge1" class="edge">
<title>Node1&#45;&gt;Node2</title>
<path fill="none" stroke="midnightblue" d="M152.19,-110.5C214.43,-114.64 302.87,-120.52 367.74,-124.83"/>
<polygon fill="midnightblue" stroke="midnightblue" points="367.73,-128.34 377.94,-125.51 368.2,-121.35 367.73,-128.34"/>
</g>
<!-- Node4 -->
<g id="node4" class="node">
<title>Node4</title>
<g id="a_node4"><a xlink:href="classweb_1_1http_1_1server_1_1_socket_context_upgrade_factory_selector.html#a4a55eceeedab2cf8d57cf6759dfde295" target="_top" xlink:title=" ">
<polygon fill="white" stroke="black" points="188,-61 188,-102 340,-102 340,-61 188,-61"/>
<text text-anchor="start" x="196" y="-90" font-family="Helvetica,sans-Serif" font-size="10.00">web::http::server::</text>
<text text-anchor="start" x="196" y="-79" font-family="Helvetica,sans-Serif" font-size="10.00">SocketContextUpgradeFactory</text>
<text text-anchor="middle" x="264" y="-68" font-family="Helvetica,sans-Serif" font-size="10.00">Selector::loadSocketContexts</text>
</a>
</g>
</g>
<!-- Node1&#45;&gt;Node4 -->
<g id="edge3" class="edge">
<title>Node1&#45;&gt;Node4</title>
<path fill="none" stroke="midnightblue" d="M152.12,-95.81C160.6,-94.71 169.28,-93.59 177.87,-92.48"/>
<polygon fill="midnightblue" stroke="midnightblue" points="178.43,-95.94 187.9,-91.19 177.54,-89 178.43,-95.94"/>
</g>
<!-- Node3 -->
<g id="node3" class="node">
<title>Node3</title>
<g id="a_node3"><a xlink:href="classweb_1_1http_1_1server_1_1_socket_context_upgrade_factory_selector.html#a046e41c3bf519c243ab97f35b0d993b4" target="_top" xlink:title=" ">
<polygon fill="white" stroke="black" points="568,-104.5 568,-156.5 762,-156.5 762,-104.5 568,-104.5"/>
<text text-anchor="start" x="576" y="-144.5" font-family="Helvetica,sans-Serif" font-size="10.00">web::http::server::</text>
<text text-anchor="start" x="576" y="-133.5" font-family="Helvetica,sans-Serif" font-size="10.00">SocketContextUpgradeFactory</text>
<text text-anchor="start" x="576" y="-122.5" font-family="Helvetica,sans-Serif" font-size="10.00">Selector::SocketContextUpgradeFactory</text>
<text text-anchor="middle" x="665" y="-111.5" font-family="Helvetica,sans-Serif" font-size="10.00">Selector</text>
</a>
</g>
</g>
<!-- Node2&#45;&gt;Node3 -->
<g id="edge2" class="edge">
<title>Node2&#45;&gt;Node3</title>
<path fill="none" stroke="midnightblue" d="M530.16,-130.5C539.1,-130.5 548.35,-130.5 557.62,-130.5"/>
<polygon fill="midnightblue" stroke="midnightblue" points="557.67,-134 567.67,-130.5 557.67,-127 557.67,-134"/>
</g>
<!-- Node4&#45;&gt;Node2 -->
<g id="edge4" class="edge">
<title>Node4&#45;&gt;Node2</title>
<path fill="none" stroke="midnightblue" d="M340.11,-101.08C349.2,-103.45 358.54,-105.88 367.76,-108.28"/>
<polygon fill="midnightblue" stroke="midnightblue" points="367.14,-111.74 377.7,-110.87 368.91,-104.96 367.14,-111.74"/>
</g>
<!-- Node5 -->
<g id="node5" class="node">
<title>Node5</title>
<g id="a_node5"><a xlink:href="namespaceweb_1_1ws_1_1server.html#a0531e093c789edb6210d5d44ab092eb4" target="_top" xlink:title=" ">
<polygon fill="white" stroke="black" points="395,-72 395,-91 513,-91 513,-72 395,-72"/>
<text text-anchor="middle" x="454" y="-79" font-family="Helvetica,sans-Serif" font-size="10.00">web::ws::server::plugin</text>
</a>
</g>
</g>
<!-- Node4&#45;&gt;Node5 -->
<g id="edge5" class="edge">
<title>Node4&#45;&gt;Node5</title>
<path fill="none" stroke="midnightblue" d="M340.11,-81.5C354.76,-81.5 370.05,-81.5 384.47,-81.5"/>
<polygon fill="midnightblue" stroke="midnightblue" points="384.8,-85 394.8,-81.5 384.8,-78 384.8,-85"/>
</g>
<!-- Node6 -->
<g id="node6" class="node">
<title>Node6</title>
<g id="a_node6"><a xlink:href="classweb_1_1http_1_1server_1_1_socket_context_upgrade_factory_selector.html#a09ca0a7049847c0ea2f63e146c1f61c1" target="_top" xlink:title=" ">
<polygon fill="white" stroke="black" points="376,-0.5 376,-52.5 532,-52.5 532,-0.5 376,-0.5"/>
<text text-anchor="start" x="384" y="-40.5" font-family="Helvetica,sans-Serif" font-size="10.00">web::http::server::</text>
<text text-anchor="start" x="384" y="-29.5" font-family="Helvetica,sans-Serif" font-size="10.00">SocketContextUpgradeFactory</text>
<text text-anchor="start" x="384" y="-18.5" font-family="Helvetica,sans-Serif" font-size="10.00">Selector::registerSocketContext</text>
<text text-anchor="middle" x="454" y="-7.5" font-family="Helvetica,sans-Serif" font-size="10.00">UpgradeFactory</text>
</a>
</g>
</g>
<!-- Node4&#45;&gt;Node6 -->
<g id="edge6" class="edge">
<title>Node4&#45;&gt;Node6</title>
<path fill="none" stroke="midnightblue" d="M335.27,-60.94C345.31,-58.01 355.73,-54.96 366.04,-51.94"/>
<polygon fill="midnightblue" stroke="midnightblue" points="367.26,-55.23 375.88,-49.06 365.3,-48.51 367.26,-55.23"/>
</g>
</g>
</svg>
