<?xml version="1.0" encoding="UTF-8" standalone="no"?>
<!DOCTYPE svg PUBLIC "-//W3C//DTD SVG 1.1//EN"
 "http://www.w3.org/Graphics/SVG/1.1/DTD/svg11.dtd">
<!-- Generated by graphviz version 2.43.0 (0)
 -->
<!-- Title: net::socket::bluetooth::l2cap::SocketClient Pages: 1 -->
<svg width="318pt" height="985pt"
 viewBox="0.00 0.00 317.50 985.00" xmlns="http://www.w3.org/2000/svg" xmlns:xlink="http://www.w3.org/1999/xlink">
<g id="graph0" class="graph" transform="scale(1 1) rotate(0) translate(4 981)">
<title>net::socket::bluetooth::l2cap::SocketClient</title>
<polygon fill="white" stroke="transparent" points="-4,4 -4,-981 313.5,-981 313.5,4 -4,4"/>
<!-- Node1 -->
<g id="node1" class="node">
<title>Node1</title>
<g id="a_node1"><a xlink:title=" ">
<polygon fill="#bfbfbf" stroke="black" points="38,-0.5 38,-68.5 149,-68.5 149,-0.5 38,-0.5"/>
<text text-anchor="start" x="46" y="-56.5" font-family="Helvetica,sans-Serif" font-size="10.00">net::socket::bluetooth</text>
<text text-anchor="middle" x="93.5" y="-45.5" font-family="Helvetica,sans-Serif" font-size="10.00">::l2cap::SocketClient</text>
<polyline fill="none" stroke="black" points="38,-38.5 149,-38.5 "/>
<text text-anchor="middle" x="93.5" y="-26.5" font-family="Helvetica,sans-Serif" font-size="10.00"> </text>
<polyline fill="none" stroke="black" points="38,-19.5 149,-19.5 "/>
<text text-anchor="start" x="46" y="-7.5" font-family="Helvetica,sans-Serif" font-size="10.00">+ connect()</text>
</a>
</g>
</g>
<!-- Node2 -->
<g id="node2" class="node">
<title>Node2</title>
<g id="a_node2"><a xlink:href="classnet_1_1socket_1_1stream_1_1legacy_1_1_socket_client.html" target="_top" xlink:title=" ">
<polygon fill="white" stroke="black" points="37,-106.5 37,-185.5 150,-185.5 150,-106.5 37,-106.5"/>
<text text-anchor="start" x="45" y="-173.5" font-family="Helvetica,sans-Serif" font-size="10.00">net::socket::stream</text>
<text text-anchor="start" x="45" y="-162.5" font-family="Helvetica,sans-Serif" font-size="10.00">::legacy::SocketClient</text>
<text text-anchor="middle" x="93.5" y="-151.5" font-family="Helvetica,sans-Serif" font-size="10.00">&lt; l2cap::Socket &gt;</text>
<polyline fill="none" stroke="black" points="37,-144.5 150,-144.5 "/>
<text text-anchor="middle" x="93.5" y="-132.5" font-family="Helvetica,sans-Serif" font-size="10.00"> </text>
<polyline fill="none" stroke="black" points="37,-125.5 150,-125.5 "/>
<text text-anchor="middle" x="93.5" y="-113.5" font-family="Helvetica,sans-Serif" font-size="10.00"> </text>
</a>
</g>
</g>
<!-- Node2&#45;&gt;Node1 -->
<g id="edge1" class="edge">
<title>Node2&#45;&gt;Node1</title>
<path fill="none" stroke="midnightblue" d="M93.5,-96.38C93.5,-87.02 93.5,-77.41 93.5,-68.67"/>
<polygon fill="none" stroke="midnightblue" points="90,-96.39 93.5,-106.39 97,-96.39 90,-96.39"/>
</g>
<!-- Node3 -->
<g id="node3" class="node">
<title>Node3</title>
<g id="a_node3"><a xlink:href="classnet_1_1socket_1_1stream_1_1_socket_client.html" target="_top" xlink:title=" ">
<polygon fill="white" stroke="black" points="0,-331.5 0,-531.5 131,-531.5 131,-331.5 0,-331.5"/>
<text text-anchor="start" x="8" y="-519.5" font-family="Helvetica,sans-Serif" font-size="10.00">net::socket::stream</text>
<text text-anchor="start" x="8" y="-508.5" font-family="Helvetica,sans-Serif" font-size="10.00">::SocketClient&lt; legacy</text>
<text text-anchor="start" x="8" y="-497.5" font-family="Helvetica,sans-Serif" font-size="10.00">::SocketConnector&lt; l2cap</text>
<text text-anchor="middle" x="65.5" y="-486.5" font-family="Helvetica,sans-Serif" font-size="10.00">::Socket &gt; &gt;</text>
<polyline fill="none" stroke="black" points="0,-479.5 131,-479.5 "/>
<text text-anchor="start" x="8" y="-467.5" font-family="Helvetica,sans-Serif" font-size="10.00">&#45; onConstruct</text>
<text text-anchor="start" x="8" y="-456.5" font-family="Helvetica,sans-Serif" font-size="10.00">&#45; onDestruct</text>
<text text-anchor="start" x="8" y="-445.5" font-family="Helvetica,sans-Serif" font-size="10.00">&#45; onConnect</text>
<text text-anchor="start" x="8" y="-434.5" font-family="Helvetica,sans-Serif" font-size="10.00">&#45; onDisconnect</text>
<text text-anchor="start" x="8" y="-423.5" font-family="Helvetica,sans-Serif" font-size="10.00">&#45; onRead</text>
<text text-anchor="start" x="8" y="-412.5" font-family="Helvetica,sans-Serif" font-size="10.00">&#45; onReadError</text>
<text text-anchor="start" x="8" y="-401.5" font-family="Helvetica,sans-Serif" font-size="10.00">&#45; onWriteError</text>
<text text-anchor="start" x="8" y="-390.5" font-family="Helvetica,sans-Serif" font-size="10.00">&#45; options</text>
<polyline fill="none" stroke="black" points="0,-383.5 131,-383.5 "/>
<text text-anchor="start" x="8" y="-371.5" font-family="Helvetica,sans-Serif" font-size="10.00">+ SocketClient()</text>
<text text-anchor="start" x="8" y="-360.5" font-family="Helvetica,sans-Serif" font-size="10.00">+ SocketClient()</text>
<text text-anchor="start" x="8" y="-349.5" font-family="Helvetica,sans-Serif" font-size="10.00">+ ~SocketClient()</text>
<text text-anchor="start" x="8" y="-338.5" font-family="Helvetica,sans-Serif" font-size="10.00">+ connect()</text>
</a>
</g>
</g>
<!-- Node3&#45;&gt;Node2 -->
<g id="edge2" class="edge">
<title>Node3&#45;&gt;Node2</title>
<path fill="none" stroke="midnightblue" d="M76.29,-321.23C81.01,-273.41 86.25,-220.38 89.69,-185.53"/>
<polygon fill="none" stroke="midnightblue" points="72.79,-321.05 75.29,-331.35 79.76,-321.74 72.79,-321.05"/>
</g>
<!-- Node4 -->
<g id="node4" class="node">
<title>Node4</title>
<g id="a_node4"><a xlink:href="classnet_1_1socket_1_1stream_1_1_socket_client.html" target="_top" xlink:title=" ">
<polygon fill="white" stroke="black" points="43,-798.5 43,-976.5 222,-976.5 222,-798.5 43,-798.5"/>
<text text-anchor="start" x="51" y="-964.5" font-family="Helvetica,sans-Serif" font-size="10.00">net::socket::stream</text>
<text text-anchor="middle" x="132.5" y="-953.5" font-family="Helvetica,sans-Serif" font-size="10.00">::SocketClient&lt; SocketConnectorT &gt;</text>
<polyline fill="none" stroke="black" points="43,-946.5 222,-946.5 "/>
<text text-anchor="start" x="51" y="-934.5" font-family="Helvetica,sans-Serif" font-size="10.00">&#45; onConstruct</text>
<text text-anchor="start" x="51" y="-923.5" font-family="Helvetica,sans-Serif" font-size="10.00">&#45; onDestruct</text>
<text text-anchor="start" x="51" y="-912.5" font-family="Helvetica,sans-Serif" font-size="10.00">&#45; onConnect</text>
<text text-anchor="start" x="51" y="-901.5" font-family="Helvetica,sans-Serif" font-size="10.00">&#45; onDisconnect</text>
<text text-anchor="start" x="51" y="-890.5" font-family="Helvetica,sans-Serif" font-size="10.00">&#45; onRead</text>
<text text-anchor="start" x="51" y="-879.5" font-family="Helvetica,sans-Serif" font-size="10.00">&#45; onReadError</text>
<text text-anchor="start" x="51" y="-868.5" font-family="Helvetica,sans-Serif" font-size="10.00">&#45; onWriteError</text>
<text text-anchor="start" x="51" y="-857.5" font-family="Helvetica,sans-Serif" font-size="10.00">&#45; options</text>
<polyline fill="none" stroke="black" points="43,-850.5 222,-850.5 "/>
<text text-anchor="start" x="51" y="-838.5" font-family="Helvetica,sans-Serif" font-size="10.00">+ SocketClient()</text>
<text text-anchor="start" x="51" y="-827.5" font-family="Helvetica,sans-Serif" font-size="10.00">+ SocketClient()</text>
<text text-anchor="start" x="51" y="-816.5" font-family="Helvetica,sans-Serif" font-size="10.00">+ ~SocketClient()</text>
<text text-anchor="start" x="51" y="-805.5" font-family="Helvetica,sans-Serif" font-size="10.00">+ connect()</text>
</a>
</g>
</g>
<!-- Node4&#45;&gt;Node3 -->
<g id="edge3" class="edge">
<title>Node4&#45;&gt;Node3</title>
<path fill="none" stroke="orange" d="M59.71,-788.91C58.53,-785.96 57.46,-782.99 56.5,-780 30.64,-699.25 35.88,-602.46 45.87,-531.57"/>
<polygon fill="orange" stroke="orange" points="56.58,-790.51 63.79,-798.27 63,-787.71 56.58,-790.51"/>
<text text-anchor="start" x="56.5" y="-772" font-family="Helvetica,sans-Serif" font-size="10.00"> &lt; legacy::SocketConnector</text>
<text text-anchor="middle" x="118" y="-761" font-family="Helvetica,sans-Serif" font-size="10.00">&lt; l2cap::Socket &gt; &gt;</text>
</g>
<!-- Node6 -->
<g id="node6" class="node">
<title>Node6</title>
<g id="a_node6"><a xlink:href="classnet_1_1socket_1_1stream_1_1_socket_client.html" target="_top" xlink:title=" ">
<polygon fill="white" stroke="black" points="105.5,-550.5 105.5,-739.5 267.5,-739.5 267.5,-550.5 105.5,-550.5"/>
<text text-anchor="start" x="113.5" y="-727.5" font-family="Helvetica,sans-Serif" font-size="10.00">net::socket::stream</text>
<text text-anchor="start" x="113.5" y="-716.5" font-family="Helvetica,sans-Serif" font-size="10.00">::SocketClient&lt; legacy</text>
<text text-anchor="middle" x="186.5" y="-705.5" font-family="Helvetica,sans-Serif" font-size="10.00">::SocketConnector&lt; SocketT &gt; &gt;</text>
<polyline fill="none" stroke="black" points="105.5,-698.5 267.5,-698.5 "/>
<text text-anchor="start" x="113.5" y="-686.5" font-family="Helvetica,sans-Serif" font-size="10.00">&#45; onConstruct</text>
<text text-anchor="start" x="113.5" y="-675.5" font-family="Helvetica,sans-Serif" font-size="10.00">&#45; onDestruct</text>
<text text-anchor="start" x="113.5" y="-664.5" font-family="Helvetica,sans-Serif" font-size="10.00">&#45; onConnect</text>
<text text-anchor="start" x="113.5" y="-653.5" font-family="Helvetica,sans-Serif" font-size="10.00">&#45; onDisconnect</text>
<text text-anchor="start" x="113.5" y="-642.5" font-family="Helvetica,sans-Serif" font-size="10.00">&#45; onRead</text>
<text text-anchor="start" x="113.5" y="-631.5" font-family="Helvetica,sans-Serif" font-size="10.00">&#45; onReadError</text>
<text text-anchor="start" x="113.5" y="-620.5" font-family="Helvetica,sans-Serif" font-size="10.00">&#45; onWriteError</text>
<text text-anchor="start" x="113.5" y="-609.5" font-family="Helvetica,sans-Serif" font-size="10.00">&#45; options</text>
<polyline fill="none" stroke="black" points="105.5,-602.5 267.5,-602.5 "/>
<text text-anchor="start" x="113.5" y="-590.5" font-family="Helvetica,sans-Serif" font-size="10.00">+ SocketClient()</text>
<text text-anchor="start" x="113.5" y="-579.5" font-family="Helvetica,sans-Serif" font-size="10.00">+ SocketClient()</text>
<text text-anchor="start" x="113.5" y="-568.5" font-family="Helvetica,sans-Serif" font-size="10.00">+ ~SocketClient()</text>
<text text-anchor="start" x="113.5" y="-557.5" font-family="Helvetica,sans-Serif" font-size="10.00">+ connect()</text>
</a>
</g>
</g>
<!-- Node4&#45;&gt;Node6 -->
<g id="edge6" class="edge">
<title>Node4&#45;&gt;Node6</title>
<path fill="none" stroke="orange" d="M181.22,-788.58C182.06,-785.72 182.82,-782.85 183.5,-780 186.58,-767.1 188.44,-753.3 189.47,-739.64"/>
<polygon fill="orange" stroke="orange" points="177.81,-787.74 178.12,-798.33 184.49,-789.86 177.81,-787.74"/>
<text text-anchor="start" x="186.5" y="-772" font-family="Helvetica,sans-Serif" font-size="10.00"> &lt; legacy::SocketConnector</text>
<text text-anchor="middle" x="248" y="-761" font-family="Helvetica,sans-Serif" font-size="10.00">&lt; SocketT &gt; &gt;</text>
</g>
<!-- Node5 -->
<g id="node5" class="node">
<title>Node5</title>
<g id="a_node5"><a xlink:href="classnet_1_1socket_1_1stream_1_1legacy_1_1_socket_client.html" target="_top" xlink:title=" ">
<polygon fill="white" stroke="black" points="118,-233.5 118,-312.5 231,-312.5 231,-233.5 118,-233.5"/>
<text text-anchor="start" x="126" y="-300.5" font-family="Helvetica,sans-Serif" font-size="10.00">net::socket::stream</text>
<text text-anchor="start" x="126" y="-289.5" font-family="Helvetica,sans-Serif" font-size="10.00">::legacy::SocketClient</text>
<text text-anchor="middle" x="174.5" y="-278.5" font-family="Helvetica,sans-Serif" font-size="10.00">&lt; SocketT &gt;</text>
<polyline fill="none" stroke="black" points="118,-271.5 231,-271.5 "/>
<text text-anchor="middle" x="174.5" y="-259.5" font-family="Helvetica,sans-Serif" font-size="10.00"> </text>
<polyline fill="none" stroke="black" points="118,-252.5 231,-252.5 "/>
<text text-anchor="middle" x="174.5" y="-240.5" font-family="Helvetica,sans-Serif" font-size="10.00"> </text>
</a>
</g>
</g>
<!-- Node5&#45;&gt;Node2 -->
<g id="edge4" class="edge">
<title>Node5&#45;&gt;Node2</title>
<path fill="none" stroke="orange" d="M143.86,-224.72C135.49,-211.81 126.53,-197.98 118.52,-185.61"/>
<polygon fill="orange" stroke="orange" points="141.16,-226.99 149.54,-233.48 147.04,-223.18 141.16,-226.99"/>
<text text-anchor="middle" x="176.5" y="-207" font-family="Helvetica,sans-Serif" font-size="10.00"> &lt; l2cap::Socket &gt;</text>
</g>
<!-- Node6&#45;&gt;Node5 -->
<g id="edge5" class="edge">
<title>Node6&#45;&gt;Node5</title>
<path fill="none" stroke="midnightblue" d="M183.13,-540.1C180.67,-464.38 177.49,-366.05 175.75,-312.65"/>
<polygon fill="none" stroke="midnightblue" points="179.63,-540.27 183.46,-550.16 186.63,-540.05 179.63,-540.27"/>
</g>
</g>
</svg>
