<?xml version="1.0" encoding="UTF-8" standalone="no"?>
<!DOCTYPE svg PUBLIC "-//W3C//DTD SVG 1.1//EN"
 "http://www.w3.org/Graphics/SVG/1.1/DTD/svg11.dtd">
<!-- Generated by graphviz version 2.43.0 (0)
 -->
<!-- Title: net::FdSet::set Pages: 1 -->
<svg width="928pt" height="323pt"
 viewBox="0.00 0.00 928.00 322.50" xmlns="http://www.w3.org/2000/svg" xmlns:xlink="http://www.w3.org/1999/xlink">
<g id="graph0" class="graph" transform="scale(1 1) rotate(0) translate(4 318.5)">
<title>net::FdSet::set</title>
<polygon fill="white" stroke="transparent" points="-4,4 -4,-318.5 924,-318.5 924,4 -4,4"/>
<!-- Node1 -->
<g id="node1" class="node">
<title>Node1</title>
<g id="a_node1"><a xlink:title=" ">
<polygon fill="#bfbfbf" stroke="black" points="838,-84.5 838,-103.5 920,-103.5 920,-84.5 838,-84.5"/>
<text text-anchor="middle" x="879" y="-91.5" font-family="Helvetica,sans-Serif" font-size="10.00">net::FdSet::set</text>
</a>
</g>
</g>
<!-- Node2 -->
<g id="node2" class="node">
<title>Node2</title>
<g id="a_node2"><a xlink:href="classnet_1_1_descriptor_event_dispatcher.html#a2f3bda27d3e9b040956e69f7b07054e5" target="_top" xlink:title=" ">
<polygon fill="white" stroke="black" points="648,-161 648,-191 802,-191 802,-161 648,-161"/>
<text text-anchor="start" x="656" y="-179" font-family="Helvetica,sans-Serif" font-size="10.00">net::DescriptorEventDispatcher</text>
<text text-anchor="middle" x="725" y="-168" font-family="Helvetica,sans-Serif" font-size="10.00">::resume</text>
</a>
</g>
</g>
<!-- Node1&#45;&gt;Node2 -->
<g id="edge1" class="edge">
<title>Node1&#45;&gt;Node2</title>
<path fill="none" stroke="midnightblue" d="M851.27,-108.42C823.94,-123.16 781.67,-145.97 753.92,-160.94"/>
<polygon fill="midnightblue" stroke="midnightblue" points="853.13,-111.4 860.27,-103.57 849.8,-105.23 853.13,-111.4"/>
</g>
<!-- Node12 -->
<g id="node12" class="node">
<title>Node12</title>
<g id="a_node12"><a xlink:href="classnet_1_1_descriptor_event_dispatcher.html#a785c063c3aa24c4daf273661e01976d6" target="_top" xlink:title=" ">
<polygon fill="white" stroke="black" points="648,-33 648,-63 802,-63 802,-33 648,-33"/>
<text text-anchor="start" x="656" y="-51" font-family="Helvetica,sans-Serif" font-size="10.00">net::DescriptorEventDispatcher</text>
<text text-anchor="middle" x="725" y="-40" font-family="Helvetica,sans-Serif" font-size="10.00">::unobserveDisabledEvents</text>
</a>
</g>
</g>
<!-- Node1&#45;&gt;Node12 -->
<g id="edge11" class="edge">
<title>Node1&#45;&gt;Node12</title>
<path fill="none" stroke="midnightblue" d="M836.74,-81.51C817.91,-75.82 795.46,-69.02 775.71,-63.04"/>
<polygon fill="midnightblue" stroke="midnightblue" points="835.92,-84.92 846.51,-84.47 837.95,-78.22 835.92,-84.92"/>
</g>
<!-- Node3 -->
<g id="node3" class="node">
<title>Node3</title>
<g id="a_node3"><a xlink:href="classnet_1_1_accept_event_receiver.html#a8b9cae73b96d1f47edcc09539cd9eaed" target="_top" xlink:title=" ">
<polygon fill="white" stroke="black" points="478,-284 478,-314 609,-314 609,-284 478,-284"/>
<text text-anchor="start" x="486" y="-302" font-family="Helvetica,sans-Serif" font-size="10.00">net::AcceptEventReceiver</text>
<text text-anchor="middle" x="543.5" y="-291" font-family="Helvetica,sans-Serif" font-size="10.00">::resume</text>
</a>
</g>
</g>
<!-- Node2&#45;&gt;Node3 -->
<g id="edge2" class="edge">
<title>Node2&#45;&gt;Node3</title>
<path fill="none" stroke="midnightblue" d="M703.7,-198.38C682.63,-220.46 647.8,-253.89 612,-275 606.32,-278.35 600.1,-281.34 593.81,-283.98"/>
<polygon fill="midnightblue" stroke="midnightblue" points="706.26,-200.76 710.56,-191.08 701.16,-195.97 706.26,-200.76"/>
</g>
<!-- Node4 -->
<g id="node4" class="node">
<title>Node4</title>
<g id="a_node4"><a xlink:href="classnet_1_1_connect_event_receiver.html#aec4b72af2352c99cfad03271d3315cd7" target="_top" xlink:title=" ">
<polygon fill="white" stroke="black" points="475,-235 475,-265 612,-265 612,-235 475,-235"/>
<text text-anchor="start" x="483" y="-253" font-family="Helvetica,sans-Serif" font-size="10.00">net::ConnectEventReceiver</text>
<text text-anchor="middle" x="543.5" y="-242" font-family="Helvetica,sans-Serif" font-size="10.00">::resume</text>
</a>
</g>
</g>
<!-- Node2&#45;&gt;Node4 -->
<g id="edge3" class="edge">
<title>Node2&#45;&gt;Node4</title>
<path fill="none" stroke="midnightblue" d="M682.67,-195.38C661.67,-204.99 635.66,-216.53 612,-226 604.49,-229 596.45,-232.03 588.62,-234.87"/>
<polygon fill="midnightblue" stroke="midnightblue" points="684.32,-198.48 691.94,-191.12 681.39,-192.12 684.32,-198.48"/>
</g>
<!-- Node5 -->
<g id="node5" class="node">
<title>Node5</title>
<g id="a_node5"><a xlink:href="classnet_1_1_exceptional_condition_event_receiver.html#a8c4074c20ad1acc8704f3521bc585e83" target="_top" xlink:title=" ">
<polygon fill="white" stroke="black" points="479.5,-186 479.5,-216 607.5,-216 607.5,-186 479.5,-186"/>
<text text-anchor="start" x="487.5" y="-204" font-family="Helvetica,sans-Serif" font-size="10.00">net::ExceptionalCondition</text>
<text text-anchor="middle" x="543.5" y="-193" font-family="Helvetica,sans-Serif" font-size="10.00">EventReceiver::resume</text>
</a>
</g>
</g>
<!-- Node2&#45;&gt;Node5 -->
<g id="edge4" class="edge">
<title>Node2&#45;&gt;Node5</title>
<path fill="none" stroke="midnightblue" d="M637.78,-188.01C627.65,-189.42 617.46,-190.84 607.73,-192.19"/>
<polygon fill="midnightblue" stroke="midnightblue" points="638.45,-191.45 647.88,-186.6 637.49,-184.52 638.45,-191.45"/>
</g>
<!-- Node6 -->
<g id="node6" class="node">
<title>Node6</title>
<g id="a_node6"><a xlink:href="classnet_1_1_read_event_receiver.html#adcedf098e91620409d7c8e9863c9ffce" target="_top" xlink:title=" ">
<polygon fill="white" stroke="black" points="481.5,-137 481.5,-167 605.5,-167 605.5,-137 481.5,-137"/>
<text text-anchor="start" x="489.5" y="-155" font-family="Helvetica,sans-Serif" font-size="10.00">net::ReadEventReceiver</text>
<text text-anchor="middle" x="543.5" y="-144" font-family="Helvetica,sans-Serif" font-size="10.00">::resume</text>
</a>
</g>
</g>
<!-- Node2&#45;&gt;Node6 -->
<g id="edge5" class="edge">
<title>Node2&#45;&gt;Node6</title>
<path fill="none" stroke="midnightblue" d="M637.87,-164.48C626.94,-163.02 615.94,-161.55 605.51,-160.16"/>
<polygon fill="midnightblue" stroke="midnightblue" points="637.5,-167.97 647.88,-165.82 638.43,-161.03 637.5,-167.97"/>
</g>
<!-- Node8 -->
<g id="node8" class="node">
<title>Node8</title>
<g id="a_node8"><a xlink:href="classnet_1_1_write_event_receiver.html#a47246abfd43c39f6a5ca8e8dffaf407d" target="_top" xlink:title=" ">
<polygon fill="white" stroke="black" points="482,-88 482,-118 605,-118 605,-88 482,-88"/>
<text text-anchor="start" x="490" y="-106" font-family="Helvetica,sans-Serif" font-size="10.00">net::WriteEventReceiver</text>
<text text-anchor="middle" x="543.5" y="-95" font-family="Helvetica,sans-Serif" font-size="10.00">::resume</text>
</a>
</g>
</g>
<!-- Node2&#45;&gt;Node8 -->
<g id="edge7" class="edge">
<title>Node2&#45;&gt;Node8</title>
<path fill="none" stroke="midnightblue" d="M680.71,-156.84C660.01,-147.84 634.83,-137.11 612,-128 603.64,-124.66 594.65,-121.23 586.03,-118.01"/>
<polygon fill="midnightblue" stroke="midnightblue" points="679.31,-160.05 689.87,-160.85 682.11,-153.64 679.31,-160.05"/>
</g>
<!-- Node7 -->
<g id="node7" class="node">
<title>Node7</title>
<g id="a_node7"><a xlink:href="classnet_1_1socket_1_1stream_1_1tls_1_1_socket_reader.html#a66094f94e4c20714c159432dac407b1c" target="_top" xlink:title=" ">
<polygon fill="white" stroke="black" points="313,-148 313,-178 439,-178 439,-148 313,-148"/>
<text text-anchor="start" x="321" y="-166" font-family="Helvetica,sans-Serif" font-size="10.00">net::socket::stream</text>
<text text-anchor="middle" x="376" y="-155" font-family="Helvetica,sans-Serif" font-size="10.00">::tls::SocketReader::read</text>
</a>
</g>
</g>
<!-- Node6&#45;&gt;Node7 -->
<g id="edge6" class="edge">
<title>Node6&#45;&gt;Node7</title>
<path fill="none" stroke="midnightblue" d="M471.18,-156.74C460.47,-157.45 449.5,-158.18 439.01,-158.88"/>
<polygon fill="midnightblue" stroke="midnightblue" points="471.6,-160.22 481.34,-156.06 471.13,-153.24 471.6,-160.22"/>
</g>
<!-- Node9 -->
<g id="node9" class="node">
<title>Node9</title>
<g id="a_node9"><a xlink:href="classnet_1_1stream_1_1_pipe_source.html#a4becdd0dff7d718d098238e4c6fa8ff4" target="_top" xlink:title=" ">
<polygon fill="white" stroke="black" points="315,-99 315,-129 437,-129 437,-99 315,-99"/>
<text text-anchor="start" x="323" y="-117" font-family="Helvetica,sans-Serif" font-size="10.00">net::stream::PipeSource</text>
<text text-anchor="middle" x="376" y="-106" font-family="Helvetica,sans-Serif" font-size="10.00">::send</text>
</a>
</g>
</g>
<!-- Node8&#45;&gt;Node9 -->
<g id="edge8" class="edge">
<title>Node8&#45;&gt;Node9</title>
<path fill="none" stroke="midnightblue" d="M471.78,-107.7C460.24,-108.47 448.38,-109.26 437.13,-110"/>
<polygon fill="midnightblue" stroke="midnightblue" points="472.07,-111.19 481.81,-107.03 471.6,-104.2 472.07,-111.19"/>
</g>
<!-- Node11 -->
<g id="node11" class="node">
<title>Node11</title>
<g id="a_node11"><a xlink:href="classnet_1_1socket_1_1stream_1_1tls_1_1_socket_writer.html#a704f8cb843067a6670c454d88530cc8f" target="_top" xlink:title=" ">
<polygon fill="white" stroke="black" points="325.5,-38.5 325.5,-79.5 426.5,-79.5 426.5,-38.5 325.5,-38.5"/>
<text text-anchor="start" x="333.5" y="-67.5" font-family="Helvetica,sans-Serif" font-size="10.00">net::socket::stream</text>
<text text-anchor="start" x="333.5" y="-56.5" font-family="Helvetica,sans-Serif" font-size="10.00">::tls::SocketWriter</text>
<text text-anchor="middle" x="376" y="-45.5" font-family="Helvetica,sans-Serif" font-size="10.00">::write</text>
</a>
</g>
</g>
<!-- Node8&#45;&gt;Node11 -->
<g id="edge10" class="edge">
<title>Node8&#45;&gt;Node11</title>
<path fill="none" stroke="midnightblue" d="M475.9,-85.29C459.44,-80.92 442.09,-76.3 426.6,-72.19"/>
<polygon fill="midnightblue" stroke="midnightblue" points="475.44,-88.79 486.01,-87.98 477.24,-82.03 475.44,-88.79"/>
</g>
<!-- Node10 -->
<g id="node10" class="node">
<title>Node10</title>
<g id="a_node10"><a xlink:href="classnet_1_1stream_1_1_pipe_source.html#a7ee7bd9951740fd33fa2333deb87cff0" target="_top" xlink:title=" ">
<polygon fill="white" stroke="black" points="155,-99 155,-129 277,-129 277,-99 155,-99"/>
<text text-anchor="start" x="163" y="-117" font-family="Helvetica,sans-Serif" font-size="10.00">net::stream::PipeSource</text>
<text text-anchor="middle" x="216" y="-106" font-family="Helvetica,sans-Serif" font-size="10.00">::send</text>
</a>
</g>
</g>
<!-- Node9&#45;&gt;Node10 -->
<g id="edge9" class="edge">
<title>Node9&#45;&gt;Node10</title>
<path fill="none" stroke="midnightblue" d="M304.54,-114C295.35,-114 286.01,-114 277.02,-114"/>
<polygon fill="midnightblue" stroke="midnightblue" points="304.82,-117.5 314.82,-114 304.82,-110.5 304.82,-117.5"/>
</g>
<!-- Node13 -->
<g id="node13" class="node">
<title>Node13</title>
<g id="a_node13"><a xlink:href="classnet_1_1_event_loop.html#a7465cce1b49c9ebbb1b2676643ca676d" target="_top" xlink:title=" ">
<polygon fill="white" stroke="black" points="322,-0.5 322,-19.5 430,-19.5 430,-0.5 322,-0.5"/>
<text text-anchor="middle" x="376" y="-7.5" font-family="Helvetica,sans-Serif" font-size="10.00">net::EventLoop::start</text>
</a>
</g>
</g>
<!-- Node12&#45;&gt;Node13 -->
<g id="edge12" class="edge">
<title>Node12&#45;&gt;Node13</title>
<path fill="none" stroke="midnightblue" d="M637.7,-43.87C589.66,-40.96 528.85,-36.25 475,-29 457.14,-26.6 437.61,-23.01 420.73,-19.6"/>
<polygon fill="midnightblue" stroke="midnightblue" points="637.56,-47.37 647.75,-44.46 637.98,-40.38 637.56,-47.37"/>
</g>
<!-- Node16 -->
<g id="node16" class="node">
<title>Node16</title>
<g id="a_node16"><a xlink:href="classnet_1_1_event_loop.html#af391b0a968b89c98ae4c9c78449cd0d6" target="_top" xlink:title=" ">
<polygon fill="white" stroke="black" points="491.5,-0.5 491.5,-19.5 595.5,-19.5 595.5,-0.5 491.5,-0.5"/>
<text text-anchor="middle" x="543.5" y="-7.5" font-family="Helvetica,sans-Serif" font-size="10.00">net::EventLoop::tick</text>
</a>
</g>
</g>
<!-- Node12&#45;&gt;Node16 -->
<g id="edge15" class="edge">
<title>Node12&#45;&gt;Node16</title>
<path fill="none" stroke="midnightblue" d="M643.16,-30.89C624.69,-26.98 605.7,-22.96 589.38,-19.5"/>
<polygon fill="midnightblue" stroke="midnightblue" points="642.55,-34.33 653.06,-32.98 644,-27.49 642.55,-34.33"/>
</g>
<!-- Node14 -->
<g id="node14" class="node">
<title>Node14</title>
<g id="a_node14"><a xlink:href="classnet_1_1_s_node_c.html#ae564742b1a10574c836ae53b7634f4aa" target="_top" xlink:title=" ">
<polygon fill="white" stroke="black" points="166.5,-0.5 166.5,-19.5 265.5,-19.5 265.5,-0.5 166.5,-0.5"/>
<text text-anchor="middle" x="216" y="-7.5" font-family="Helvetica,sans-Serif" font-size="10.00">net::SNodeC::start</text>
</a>
</g>
</g>
<!-- Node13&#45;&gt;Node14 -->
<g id="edge13" class="edge">
<title>Node13&#45;&gt;Node14</title>
<path fill="none" stroke="midnightblue" d="M311.52,-10C296.24,-10 280.14,-10 265.65,-10"/>
<polygon fill="midnightblue" stroke="midnightblue" points="311.95,-13.5 321.95,-10 311.95,-6.5 311.95,-13.5"/>
</g>
<!-- Node15 -->
<g id="node15" class="node">
<title>Node15</title>
<g id="a_node15"><a xlink:href="classexpress_1_1_web_app.html#a85d9fab4fae0881f8484e07c58f3157a" target="_top" xlink:title=" ">
<polygon fill="white" stroke="black" points="0,-0.5 0,-19.5 119,-19.5 119,-0.5 0,-0.5"/>
<text text-anchor="middle" x="59.5" y="-7.5" font-family="Helvetica,sans-Serif" font-size="10.00">express::WebApp::start</text>
</a>
</g>
</g>
<!-- Node14&#45;&gt;Node15 -->
<g id="edge14" class="edge">
<title>Node14&#45;&gt;Node15</title>
<path fill="none" stroke="midnightblue" d="M156.1,-10C143.97,-10 131.2,-10 119.08,-10"/>
<polygon fill="midnightblue" stroke="midnightblue" points="156.12,-13.5 166.12,-10 156.12,-6.5 156.12,-13.5"/>
</g>
<!-- Node16&#45;&gt;Node13 -->
<g id="edge16" class="edge">
<title>Node16&#45;&gt;Node13</title>
<path fill="none" stroke="midnightblue" d="M481.24,-10C464.46,-10 446.41,-10 430.13,-10"/>
<polygon fill="midnightblue" stroke="midnightblue" points="481.49,-13.5 491.49,-10 481.49,-6.5 481.49,-13.5"/>
</g>
</g>
</svg>
