<?xml version="1.0" encoding="UTF-8" standalone="no"?>
<!DOCTYPE svg PUBLIC "-//W3C//DTD SVG 1.1//EN"
 "http://www.w3.org/Graphics/SVG/1.1/DTD/svg11.dtd">
<!-- Generated by graphviz version 2.43.0 (0)
 -->
<!-- Title: http::server::legacy::Server&lt; Request, Response &gt; Pages: 1 -->
<svg width="226pt" height="486pt"
 viewBox="0.00 0.00 226.00 486.00" xmlns="http://www.w3.org/2000/svg" xmlns:xlink="http://www.w3.org/1999/xlink">
<g id="graph0" class="graph" transform="scale(1 1) rotate(0) translate(4 482)">
<title>http::server::legacy::Server&lt; Request, Response &gt;</title>
<polygon fill="white" stroke="transparent" points="-4,4 -4,-482 222,-482 222,4 -4,4"/>
<!-- Node1 -->
<g id="node1" class="node">
<title>Node1</title>
<g id="a_node1"><a xlink:title=" ">
<polygon fill="#bfbfbf" stroke="black" points="0,-0.5 0,-68.5 156,-68.5 156,-0.5 0,-0.5"/>
<text text-anchor="start" x="8" y="-56.5" font-family="Helvetica,sans-Serif" font-size="10.00">http::server::legacy</text>
<text text-anchor="middle" x="78" y="-45.5" font-family="Helvetica,sans-Serif" font-size="10.00">::Server&lt; Request, Response &gt;</text>
<polyline fill="none" stroke="black" points="0,-38.5 156,-38.5 "/>
<text text-anchor="middle" x="78" y="-26.5" font-family="Helvetica,sans-Serif" font-size="10.00"> </text>
<polyline fill="none" stroke="black" points="0,-19.5 156,-19.5 "/>
<text text-anchor="middle" x="78" y="-7.5" font-family="Helvetica,sans-Serif" font-size="10.00"> </text>
</a>
</g>
</g>
<!-- Node2 -->
<g id="node2" class="node">
<title>Node2</title>
<g id="a_node2"><a xlink:href="classhttp_1_1server_1_1_server.html" target="_top" xlink:title=" ">
<polygon fill="white" stroke="black" points="6.5,-106.5 6.5,-262.5 149.5,-262.5 149.5,-106.5 6.5,-106.5"/>
<text text-anchor="start" x="14.5" y="-250.5" font-family="Helvetica,sans-Serif" font-size="10.00">http::server::Server</text>
<text text-anchor="start" x="14.5" y="-239.5" font-family="Helvetica,sans-Serif" font-size="10.00">&lt; net::socket::ip::tcp</text>
<text text-anchor="start" x="14.5" y="-228.5" font-family="Helvetica,sans-Serif" font-size="10.00">::ipv4::legacy::SocketServer,</text>
<text text-anchor="start" x="14.5" y="-217.5" font-family="Helvetica,sans-Serif" font-size="10.00"> http::server::Request, http</text>
<text text-anchor="middle" x="78" y="-206.5" font-family="Helvetica,sans-Serif" font-size="10.00">::server::Response &gt;</text>
<polyline fill="none" stroke="black" points="6.5,-199.5 149.5,-199.5 "/>
<text text-anchor="start" x="14.5" y="-187.5" font-family="Helvetica,sans-Serif" font-size="10.00"># socketServer</text>
<polyline fill="none" stroke="black" points="6.5,-180.5 149.5,-180.5 "/>
<text text-anchor="start" x="14.5" y="-168.5" font-family="Helvetica,sans-Serif" font-size="10.00">+ Server()</text>
<text text-anchor="start" x="14.5" y="-157.5" font-family="Helvetica,sans-Serif" font-size="10.00">+ listen()</text>
<text text-anchor="start" x="14.5" y="-146.5" font-family="Helvetica,sans-Serif" font-size="10.00">+ listen()</text>
<text text-anchor="start" x="14.5" y="-135.5" font-family="Helvetica,sans-Serif" font-size="10.00">+ onConnect()</text>
<text text-anchor="start" x="14.5" y="-124.5" font-family="Helvetica,sans-Serif" font-size="10.00">+ onConnected()</text>
<text text-anchor="start" x="14.5" y="-113.5" font-family="Helvetica,sans-Serif" font-size="10.00">+ onDisconnect()</text>
</a>
</g>
</g>
<!-- Node2&#45;&gt;Node1 -->
<g id="edge1" class="edge">
<title>Node2&#45;&gt;Node1</title>
<path fill="none" stroke="midnightblue" d="M78,-96.2C78,-86.43 78,-76.98 78,-68.57"/>
<polygon fill="none" stroke="midnightblue" points="74.5,-96.47 78,-106.47 81.5,-96.47 74.5,-96.47"/>
</g>
<!-- Node3 -->
<g id="node3" class="node">
<title>Node3</title>
<g id="a_node3"><a xlink:href="classhttp_1_1server_1_1_server.html" target="_top" xlink:title=" ">
<polygon fill="white" stroke="black" points="8,-343.5 8,-477.5 148,-477.5 148,-343.5 8,-343.5"/>
<text text-anchor="start" x="16" y="-465.5" font-family="Helvetica,sans-Serif" font-size="10.00">http::server::Server</text>
<text text-anchor="start" x="16" y="-454.5" font-family="Helvetica,sans-Serif" font-size="10.00">&lt; SocketServerT, RequestT,</text>
<text text-anchor="middle" x="78" y="-443.5" font-family="Helvetica,sans-Serif" font-size="10.00"> ResponseT &gt;</text>
<polyline fill="none" stroke="black" points="8,-436.5 148,-436.5 "/>
<text text-anchor="start" x="16" y="-424.5" font-family="Helvetica,sans-Serif" font-size="10.00"># socketServer</text>
<polyline fill="none" stroke="black" points="8,-417.5 148,-417.5 "/>
<text text-anchor="start" x="16" y="-405.5" font-family="Helvetica,sans-Serif" font-size="10.00">+ Server()</text>
<text text-anchor="start" x="16" y="-394.5" font-family="Helvetica,sans-Serif" font-size="10.00">+ listen()</text>
<text text-anchor="start" x="16" y="-383.5" font-family="Helvetica,sans-Serif" font-size="10.00">+ listen()</text>
<text text-anchor="start" x="16" y="-372.5" font-family="Helvetica,sans-Serif" font-size="10.00">+ onConnect()</text>
<text text-anchor="start" x="16" y="-361.5" font-family="Helvetica,sans-Serif" font-size="10.00">+ onConnected()</text>
<text text-anchor="start" x="16" y="-350.5" font-family="Helvetica,sans-Serif" font-size="10.00">+ onDisconnect()</text>
</a>
</g>
</g>
<!-- Node3&#45;&gt;Node2 -->
<g id="edge2" class="edge">
<title>Node3&#45;&gt;Node2</title>
<path fill="none" stroke="orange" d="M78,-332.94C78,-310.25 78,-285.4 78,-262.67"/>
<polygon fill="orange" stroke="orange" points="74.5,-333.2 78,-343.2 81.5,-333.2 74.5,-333.2"/>
<text text-anchor="start" x="78" y="-317" font-family="Helvetica,sans-Serif" font-size="10.00"> &lt; net::socket::ip::</text>
<text text-anchor="start" x="78" y="-306" font-family="Helvetica,sans-Serif" font-size="10.00">tcp::ipv4::legacy::SocketServer,</text>
<text text-anchor="start" x="78" y="-295" font-family="Helvetica,sans-Serif" font-size="10.00"> http::server::Request, http</text>
<text text-anchor="middle" x="148" y="-284" font-family="Helvetica,sans-Serif" font-size="10.00">::server::Response &gt;</text>
</g>
</g>
</svg>
