<?xml version="1.0" encoding="UTF-8" standalone="no"?>
<!DOCTYPE svg PUBLIC "-//W3C//DTD SVG 1.1//EN"
 "http://www.w3.org/Graphics/SVG/1.1/DTD/svg11.dtd">
<!-- Generated by graphviz version 2.43.0 (0)
 -->
<!-- Title: net::socket::stream::SocketConnectionBase::switchSocketProtocol Pages: 1 -->
<svg width="461pt" height="50pt"
 viewBox="0.00 0.00 461.00 50.00" xmlns="http://www.w3.org/2000/svg" xmlns:xlink="http://www.w3.org/1999/xlink">
<g id="graph0" class="graph" transform="scale(1 1) rotate(0) translate(4 46)">
<title>net::socket::stream::SocketConnectionBase::switchSocketProtocol</title>
<polygon fill="white" stroke="transparent" points="-4,4 -4,-46 457,-46 457,4 -4,4"/>
<!-- Node1 -->
<g id="node1" class="node">
<title>Node1</title>
<g id="a_node1"><a xlink:title=" ">
<polygon fill="#bfbfbf" stroke="black" points="328,-0.5 328,-41.5 453,-41.5 453,-0.5 328,-0.5"/>
<text text-anchor="start" x="336" y="-29.5" font-family="Helvetica,sans-Serif" font-size="10.00">net::socket::stream</text>
<text text-anchor="start" x="336" y="-18.5" font-family="Helvetica,sans-Serif" font-size="10.00">::SocketConnectionBase</text>
<text text-anchor="middle" x="390.5" y="-7.5" font-family="Helvetica,sans-Serif" font-size="10.00">::switchSocketProtocol</text>
</a>
</g>
</g>
<!-- Node2 -->
<g id="node2" class="node">
<title>Node2</title>
<g id="a_node2"><a xlink:href="classnet_1_1socket_1_1stream_1_1_socket_protocol.html#a8b9d3e21eef2569cc027b7b972b7e021" target="_top" xlink:title=" ">
<polygon fill="white" stroke="black" points="137,-0.5 137,-41.5 292,-41.5 292,-0.5 137,-0.5"/>
<text text-anchor="start" x="145" y="-29.5" font-family="Helvetica,sans-Serif" font-size="10.00">net::socket::stream</text>
<text text-anchor="start" x="145" y="-18.5" font-family="Helvetica,sans-Serif" font-size="10.00">::SocketProtocol::switchSocket</text>
<text text-anchor="middle" x="214.5" y="-7.5" font-family="Helvetica,sans-Serif" font-size="10.00">Protocol</text>
</a>
</g>
</g>
<!-- Node1&#45;&gt;Node2 -->
<g id="edge1" class="edge">
<title>Node1&#45;&gt;Node2</title>
<path fill="none" stroke="midnightblue" d="M317.53,-21C309.12,-21 300.53,-21 292.06,-21"/>
<polygon fill="midnightblue" stroke="midnightblue" points="317.66,-24.5 327.66,-21 317.66,-17.5 317.66,-24.5"/>
</g>
<!-- Node3 -->
<g id="node3" class="node">
<title>Node3</title>
<g id="a_node3"><a xlink:href="classweb_1_1http_1_1server_1_1_response.html#a42b3cac0c28b8e17a7e835d36a3197c9" target="_top" xlink:title=" ">
<polygon fill="white" stroke="black" points="0,-6 0,-36 101,-36 101,-6 0,-6"/>
<text text-anchor="start" x="8" y="-24" font-family="Helvetica,sans-Serif" font-size="10.00">web::http::server::</text>
<text text-anchor="middle" x="50.5" y="-13" font-family="Helvetica,sans-Serif" font-size="10.00">Response::upgrade</text>
</a>
</g>
</g>
<!-- Node2&#45;&gt;Node3 -->
<g id="edge2" class="edge">
<title>Node2&#45;&gt;Node3</title>
<path fill="none" stroke="midnightblue" d="M126.55,-21C117.86,-21 109.26,-21 101.16,-21"/>
<polygon fill="midnightblue" stroke="midnightblue" points="126.77,-24.5 136.77,-21 126.77,-17.5 126.77,-24.5"/>
</g>
</g>
</svg>
