<?xml version="1.0" encoding="UTF-8" standalone="no"?>
<!DOCTYPE svg PUBLIC "-//W3C//DTD SVG 1.1//EN"
 "http://www.w3.org/Graphics/SVG/1.1/DTD/svg11.dtd">
<!-- Generated by graphviz version 2.43.0 (0)
 -->
<!-- Title: web::ws::WSTransmitter::sendMessage Pages: 1 -->
<svg width="609pt" height="186pt"
 viewBox="0.00 0.00 609.00 186.00" xmlns="http://www.w3.org/2000/svg" xmlns:xlink="http://www.w3.org/1999/xlink">
<g id="graph0" class="graph" transform="scale(1 1) rotate(0) translate(4 182)">
<title>web::ws::WSTransmitter::sendMessage</title>
<polygon fill="white" stroke="transparent" points="-4,4 -4,-182 605,-182 605,4 -4,4"/>
<!-- Node1 -->
<g id="node1" class="node">
<title>Node1</title>
<g id="a_node1"><a xlink:title=" ">
<polygon fill="#bfbfbf" stroke="black" points="476,-73.5 476,-103.5 601,-103.5 601,-73.5 476,-73.5"/>
<text text-anchor="start" x="484" y="-91.5" font-family="Helvetica,sans-Serif" font-size="10.00">web::ws::WSTransmitter</text>
<text text-anchor="middle" x="538.5" y="-80.5" font-family="Helvetica,sans-Serif" font-size="10.00">::sendMessage</text>
</a>
</g>
</g>
<!-- Node2 -->
<g id="node2" class="node">
<title>Node2</title>
<g id="a_node2"><a xlink:href="classweb_1_1ws_1_1_w_s_context.html#a441de432ee71f2a778b28cf67f524b86" target="_top" xlink:title=" ">
<polygon fill="white" stroke="black" points="330,-73.5 330,-103.5 440,-103.5 440,-73.5 330,-73.5"/>
<text text-anchor="start" x="338" y="-91.5" font-family="Helvetica,sans-Serif" font-size="10.00">web::ws::WSContext</text>
<text text-anchor="middle" x="385" y="-80.5" font-family="Helvetica,sans-Serif" font-size="10.00">::sendMessage</text>
</a>
</g>
</g>
<!-- Node1&#45;&gt;Node2 -->
<g id="edge1" class="edge">
<title>Node1&#45;&gt;Node2</title>
<path fill="none" stroke="midnightblue" d="M465.84,-88.5C457.24,-88.5 448.56,-88.5 440.27,-88.5"/>
<polygon fill="midnightblue" stroke="midnightblue" points="465.88,-92 475.88,-88.5 465.88,-85 465.88,-92"/>
</g>
<!-- Node3 -->
<g id="node3" class="node">
<title>Node3</title>
<g id="a_node3"><a xlink:href="classweb_1_1ws_1_1_w_s_context.html#a0503ba5cdb54354ea335e5ce52959cad" target="_top" xlink:title=" ">
<polygon fill="white" stroke="black" points="174.5,-147.5 174.5,-177.5 284.5,-177.5 284.5,-147.5 174.5,-147.5"/>
<text text-anchor="start" x="182.5" y="-165.5" font-family="Helvetica,sans-Serif" font-size="10.00">web::ws::WSContext</text>
<text text-anchor="middle" x="229.5" y="-154.5" font-family="Helvetica,sans-Serif" font-size="10.00">::close</text>
</a>
</g>
</g>
<!-- Node2&#45;&gt;Node3 -->
<g id="edge2" class="edge">
<title>Node2&#45;&gt;Node3</title>
<path fill="none" stroke="midnightblue" d="M350.47,-108.66C333.79,-118.29 313.15,-129.62 294,-138.5 287.26,-141.62 280,-144.66 272.87,-147.47"/>
<polygon fill="midnightblue" stroke="midnightblue" points="352.42,-111.57 359.29,-103.51 348.89,-105.53 352.42,-111.57"/>
</g>
<!-- Node4 -->
<g id="node4" class="node">
<title>Node4</title>
<g id="a_node4"><a xlink:href="classweb_1_1ws_1_1_w_s_context.html#a06524a0d162d84f76f23cabd20fc03f6" target="_top" xlink:title=" ">
<polygon fill="white" stroke="black" points="174.5,-98.5 174.5,-128.5 284.5,-128.5 284.5,-98.5 174.5,-98.5"/>
<text text-anchor="start" x="182.5" y="-116.5" font-family="Helvetica,sans-Serif" font-size="10.00">web::ws::WSContext</text>
<text text-anchor="middle" x="229.5" y="-105.5" font-family="Helvetica,sans-Serif" font-size="10.00">::replyPong</text>
</a>
</g>
</g>
<!-- Node2&#45;&gt;Node4 -->
<g id="edge3" class="edge">
<title>Node2&#45;&gt;Node4</title>
<path fill="none" stroke="midnightblue" d="M319.75,-98.96C308.07,-100.87 296,-102.83 284.65,-104.68"/>
<polygon fill="midnightblue" stroke="midnightblue" points="320.57,-102.38 329.88,-97.31 319.45,-95.47 320.57,-102.38"/>
</g>
<!-- Node6 -->
<g id="node6" class="node">
<title>Node6</title>
<g id="a_node6"><a xlink:href="classweb_1_1ws_1_1_w_s_sub_protocol.html#af1f370877c6c161ec6883e03fe5a96b0" target="_top" xlink:title=" ">
<polygon fill="white" stroke="black" points="165,-49.5 165,-79.5 294,-79.5 294,-49.5 165,-49.5"/>
<text text-anchor="start" x="173" y="-67.5" font-family="Helvetica,sans-Serif" font-size="10.00">web::ws::WSSubProtocol</text>
<text text-anchor="middle" x="229.5" y="-56.5" font-family="Helvetica,sans-Serif" font-size="10.00">::sendMessage</text>
</a>
</g>
</g>
<!-- Node2&#45;&gt;Node6 -->
<g id="edge5" class="edge">
<title>Node2&#45;&gt;Node6</title>
<path fill="none" stroke="midnightblue" d="M319.97,-78.49C311.42,-77.15 302.65,-75.78 294.11,-74.45"/>
<polygon fill="midnightblue" stroke="midnightblue" points="319.46,-81.95 329.88,-80.04 320.54,-75.04 319.46,-81.95"/>
</g>
<!-- Node7 -->
<g id="node7" class="node">
<title>Node7</title>
<g id="a_node7"><a xlink:href="classweb_1_1ws_1_1_w_s_context.html#aa00ae0443366e1c9a197d7c410c31cbb" target="_top" xlink:title=" ">
<polygon fill="white" stroke="black" points="174.5,-0.5 174.5,-30.5 284.5,-30.5 284.5,-0.5 174.5,-0.5"/>
<text text-anchor="start" x="182.5" y="-18.5" font-family="Helvetica,sans-Serif" font-size="10.00">web::ws::WSContext</text>
<text text-anchor="middle" x="229.5" y="-7.5" font-family="Helvetica,sans-Serif" font-size="10.00">::sendPing</text>
</a>
</g>
</g>
<!-- Node2&#45;&gt;Node7 -->
<g id="edge6" class="edge">
<title>Node2&#45;&gt;Node7</title>
<path fill="none" stroke="midnightblue" d="M348.43,-68.31C332.07,-59.35 312.28,-48.94 294,-40.5 286.58,-37.07 278.54,-33.68 270.77,-30.55"/>
<polygon fill="midnightblue" stroke="midnightblue" points="347.18,-71.62 357.63,-73.4 350.57,-65.5 347.18,-71.62"/>
</g>
<!-- Node5 -->
<g id="node5" class="node">
<title>Node5</title>
<g id="a_node5"><a xlink:href="classweb_1_1ws_1_1_w_s_context.html#a415211cd219ff226115e0fd13ce7c6c1" target="_top" xlink:title=" ">
<polygon fill="white" stroke="black" points="9.5,-98.5 9.5,-128.5 119.5,-128.5 119.5,-98.5 9.5,-98.5"/>
<text text-anchor="start" x="17.5" y="-116.5" font-family="Helvetica,sans-Serif" font-size="10.00">web::ws::WSContext</text>
<text text-anchor="middle" x="64.5" y="-105.5" font-family="Helvetica,sans-Serif" font-size="10.00">::onMessageEnd</text>
</a>
</g>
</g>
<!-- Node4&#45;&gt;Node5 -->
<g id="edge4" class="edge">
<title>Node4&#45;&gt;Node5</title>
<path fill="none" stroke="midnightblue" d="M164.15,-113.5C149.38,-113.5 133.82,-113.5 119.54,-113.5"/>
<polygon fill="midnightblue" stroke="midnightblue" points="164.22,-117 174.22,-113.5 164.22,-110 164.22,-117"/>
</g>
<!-- Node8 -->
<g id="node8" class="node">
<title>Node8</title>
<g id="a_node8"><a xlink:href="classweb_1_1ws_1_1_w_s_sub_protocol.html#ab227609d19145affc1fb4c5acfa45d71" target="_top" xlink:title=" ">
<polygon fill="white" stroke="black" points="0,-0.5 0,-30.5 129,-30.5 129,-0.5 0,-0.5"/>
<text text-anchor="start" x="8" y="-18.5" font-family="Helvetica,sans-Serif" font-size="10.00">web::ws::WSSubProtocol</text>
<text text-anchor="middle" x="64.5" y="-7.5" font-family="Helvetica,sans-Serif" font-size="10.00">::sendPing</text>
</a>
</g>
</g>
<!-- Node7&#45;&gt;Node8 -->
<g id="edge7" class="edge">
<title>Node7&#45;&gt;Node8</title>
<path fill="none" stroke="midnightblue" d="M163.88,-15.5C152.45,-15.5 140.55,-15.5 129.14,-15.5"/>
<polygon fill="midnightblue" stroke="midnightblue" points="164.22,-19 174.22,-15.5 164.22,-12 164.22,-19"/>
</g>
</g>
</svg>
