<?xml version="1.0" encoding="UTF-8" standalone="no"?>
<!DOCTYPE svg PUBLIC "-//W3C//DTD SVG 1.1//EN"
 "http://www.w3.org/Graphics/SVG/1.1/DTD/svg11.dtd">
<!-- Generated by graphviz version 2.43.0 (0)
 -->
<!-- Title: net::EventDispatcher::observeEnabledEvents Pages: 1 -->
<svg width="766pt" height="78pt"
 viewBox="0.00 0.00 766.00 77.50" xmlns="http://www.w3.org/2000/svg" xmlns:xlink="http://www.w3.org/1999/xlink">
<g id="graph0" class="graph" transform="scale(1 1) rotate(0) translate(4 73.5)">
<title>net::EventDispatcher::observeEnabledEvents</title>
<polygon fill="white" stroke="transparent" points="-4,4 -4,-73.5 762,-73.5 762,4 -4,4"/>
<!-- Node1 -->
<g id="node1" class="node">
<title>Node1</title>
<g id="a_node1"><a xlink:title=" ">
<polygon fill="#bfbfbf" stroke="black" points="635,-25.5 635,-55.5 758,-55.5 758,-25.5 635,-25.5"/>
<text text-anchor="start" x="643" y="-43.5" font-family="Helvetica,sans-Serif" font-size="10.00">net::EventDispatcher</text>
<text text-anchor="middle" x="696.5" y="-32.5" font-family="Helvetica,sans-Serif" font-size="10.00">::observeEnabledEvents</text>
</a>
</g>
</g>
<!-- Node2 -->
<g id="node2" class="node">
<title>Node2</title>
<g id="a_node2"><a xlink:href="classnet_1_1_event_loop.html#a7465cce1b49c9ebbb1b2676643ca676d" target="_top" xlink:title=" ">
<polygon fill="white" stroke="black" points="327.5,-50 327.5,-69 435.5,-69 435.5,-50 327.5,-50"/>
<text text-anchor="middle" x="381.5" y="-57" font-family="Helvetica,sans-Serif" font-size="10.00">net::EventLoop::start</text>
</a>
</g>
</g>
<!-- Node1&#45;&gt;Node2 -->
<g id="edge1" class="edge">
<title>Node1&#45;&gt;Node2</title>
<path fill="none" stroke="midnightblue" d="M624.68,-44.8C567.24,-48.29 487.54,-53.12 435.5,-56.28"/>
<polygon fill="midnightblue" stroke="midnightblue" points="625.01,-48.29 634.78,-44.19 624.59,-41.3 625.01,-48.29"/>
</g>
<!-- Node4 -->
<g id="node4" class="node">
<title>Node4</title>
<g id="a_node4"><a xlink:href="classnet_1_1_event_loop.html#af391b0a968b89c98ae4c9c78449cd0d6" target="_top" xlink:title=" ">
<polygon fill="white" stroke="black" points="495,-12 495,-31 599,-31 599,-12 495,-12"/>
<text text-anchor="middle" x="547" y="-19" font-family="Helvetica,sans-Serif" font-size="10.00">net::EventLoop::tick</text>
</a>
</g>
</g>
<!-- Node1&#45;&gt;Node4 -->
<g id="edge3" class="edge">
<title>Node1&#45;&gt;Node4</title>
<path fill="none" stroke="midnightblue" d="M624.67,-31.38C616.11,-30.27 607.51,-29.17 599.31,-28.11"/>
<polygon fill="midnightblue" stroke="midnightblue" points="624.29,-34.86 634.65,-32.66 625.18,-27.91 624.29,-34.86"/>
</g>
<!-- Node3 -->
<g id="node3" class="node">
<title>Node3</title>
<g id="a_node3"><a xlink:href="classexpress_1_1_web_app.html#a85d9fab4fae0881f8484e07c58f3157a" target="_top" xlink:title=" ">
<polygon fill="white" stroke="black" points="149,-50 149,-69 268,-69 268,-50 149,-50"/>
<text text-anchor="middle" x="208.5" y="-57" font-family="Helvetica,sans-Serif" font-size="10.00">express::WebApp::start</text>
</a>
</g>
</g>
<!-- Node2&#45;&gt;Node3 -->
<g id="edge2" class="edge">
<title>Node2&#45;&gt;Node3</title>
<path fill="none" stroke="midnightblue" d="M317.03,-59.5C301.07,-59.5 284.01,-59.5 268.29,-59.5"/>
<polygon fill="midnightblue" stroke="midnightblue" points="317.33,-63 327.33,-59.5 317.33,-56 317.33,-63"/>
</g>
<!-- Node4&#45;&gt;Node2 -->
<g id="edge7" class="edge">
<title>Node4&#45;&gt;Node2</title>
<path fill="none" stroke="midnightblue" d="M494.82,-33.4C471.83,-38.74 445.09,-44.95 423.46,-49.98"/>
<polygon fill="midnightblue" stroke="midnightblue" points="495.79,-36.76 504.74,-31.09 494.21,-29.94 495.79,-36.76"/>
</g>
<!-- Node5 -->
<g id="node5" class="node">
<title>Node5</title>
<g id="a_node5"><a xlink:href="classnet_1_1_event_loop.html#a67e1a11192cafa69c2dcb19fe8ca7e2a" target="_top" xlink:title=" ">
<polygon fill="white" stroke="black" points="304,-0.5 304,-30.5 459,-30.5 459,-0.5 304,-0.5"/>
<text text-anchor="start" x="312" y="-18.5" font-family="Helvetica,sans-Serif" font-size="10.00">net::EventLoop::getTickCounter</text>
<text text-anchor="middle" x="381.5" y="-7.5" font-family="Helvetica,sans-Serif" font-size="10.00">AsString</text>
</a>
</g>
</g>
<!-- Node4&#45;&gt;Node5 -->
<g id="edge4" class="edge">
<title>Node4&#45;&gt;Node5</title>
<path fill="none" stroke="midnightblue" d="M484.69,-19.25C476.32,-18.94 467.65,-18.62 459.05,-18.31"/>
<polygon fill="midnightblue" stroke="midnightblue" points="484.59,-22.75 494.72,-19.62 484.85,-15.75 484.59,-22.75"/>
</g>
<!-- Node6 -->
<g id="node6" class="node">
<title>Node6</title>
<g id="a_node6"><a xlink:href="classnet_1_1_event_loop.html#a333d383210a35e2c31140e5705c92412" target="_top" xlink:title=" ">
<polygon fill="white" stroke="black" points="158,-6 158,-25 259,-25 259,-6 158,-6"/>
<text text-anchor="middle" x="208.5" y="-13" font-family="Helvetica,sans-Serif" font-size="10.00">net::EventLoop::init</text>
</a>
</g>
</g>
<!-- Node5&#45;&gt;Node6 -->
<g id="edge5" class="edge">
<title>Node5&#45;&gt;Node6</title>
<path fill="none" stroke="midnightblue" d="M293.23,-15.5C281.52,-15.5 269.86,-15.5 259.12,-15.5"/>
<polygon fill="midnightblue" stroke="midnightblue" points="293.5,-19 303.5,-15.5 293.5,-12 293.5,-19"/>
</g>
<!-- Node7 -->
<g id="node7" class="node">
<title>Node7</title>
<g id="a_node7"><a xlink:href="classexpress_1_1_web_app.html#a0a01439a0cc8dfc86ed14f1094826b7e" target="_top" xlink:title=" ">
<polygon fill="white" stroke="black" points="0,-6 0,-25 113,-25 113,-6 0,-6"/>
<text text-anchor="middle" x="56.5" y="-13" font-family="Helvetica,sans-Serif" font-size="10.00">express::WebApp::init</text>
</a>
</g>
</g>
<!-- Node6&#45;&gt;Node7 -->
<g id="edge6" class="edge">
<title>Node6&#45;&gt;Node7</title>
<path fill="none" stroke="midnightblue" d="M147.69,-15.5C136.31,-15.5 124.45,-15.5 113.2,-15.5"/>
<polygon fill="midnightblue" stroke="midnightblue" points="147.97,-19 157.97,-15.5 147.97,-12 147.97,-19"/>
</g>
</g>
</svg>
