<?xml version="1.0" encoding="UTF-8" standalone="no"?>
<!DOCTYPE svg PUBLIC "-//W3C//DTD SVG 1.1//EN"
 "http://www.w3.org/Graphics/SVG/1.1/DTD/svg11.dtd">
<!-- Generated by graphviz version 2.43.0 (0)
 -->
<!-- Title: net::socket::ip::tcp::SocketServer&lt; SocketServerSuper &gt; Pages: 1 -->
<svg width="670pt" height="493pt"
 viewBox="0.00 0.00 670.00 493.00" xmlns="http://www.w3.org/2000/svg" xmlns:xlink="http://www.w3.org/1999/xlink">
<g id="graph0" class="graph" transform="scale(1 1) rotate(0) translate(4 489)">
<title>net::socket::ip::tcp::SocketServer&lt; SocketServerSuper &gt;</title>
<polygon fill="white" stroke="transparent" points="-4,4 -4,-489 666,-489 666,4 -4,4"/>
<!-- Node1 -->
<g id="node1" class="node">
<title>Node1</title>
<g id="a_node1"><a xlink:title=" ">
<polygon fill="#bfbfbf" stroke="black" points="280,-299.5 280,-389.5 430,-389.5 430,-299.5 280,-299.5"/>
<text text-anchor="start" x="288" y="-377.5" font-family="Helvetica,sans-Serif" font-size="10.00">net::socket::ip::tcp</text>
<text text-anchor="start" x="288" y="-366.5" font-family="Helvetica,sans-Serif" font-size="10.00">::SocketServer&lt; SocketServer</text>
<text text-anchor="middle" x="355" y="-355.5" font-family="Helvetica,sans-Serif" font-size="10.00">Super &gt;</text>
<polyline fill="none" stroke="black" points="280,-348.5 430,-348.5 "/>
<text text-anchor="middle" x="355" y="-336.5" font-family="Helvetica,sans-Serif" font-size="10.00"> </text>
<polyline fill="none" stroke="black" points="280,-329.5 430,-329.5 "/>
<text text-anchor="start" x="288" y="-317.5" font-family="Helvetica,sans-Serif" font-size="10.00">+ listen()</text>
<text text-anchor="start" x="288" y="-306.5" font-family="Helvetica,sans-Serif" font-size="10.00">+ listen()</text>
</a>
</g>
</g>
<!-- Node3 -->
<g id="node3" class="node">
<title>Node3</title>
<g id="a_node3"><a xlink:href="classnet_1_1socket_1_1ip_1_1tcp_1_1_socket_server.html" target="_top" xlink:title=" ">
<polygon fill="white" stroke="black" points="0,-106.5 0,-218.5 164,-218.5 164,-106.5 0,-106.5"/>
<text text-anchor="start" x="8" y="-206.5" font-family="Helvetica,sans-Serif" font-size="10.00">net::socket::ip::tcp</text>
<text text-anchor="start" x="8" y="-195.5" font-family="Helvetica,sans-Serif" font-size="10.00">::SocketServer&lt; net::</text>
<text text-anchor="start" x="8" y="-184.5" font-family="Helvetica,sans-Serif" font-size="10.00">socket::stream::tls::SocketServer</text>
<text text-anchor="start" x="8" y="-173.5" font-family="Helvetica,sans-Serif" font-size="10.00">&lt; net::socket::ip::tcp::ipv6</text>
<text text-anchor="middle" x="82" y="-162.5" font-family="Helvetica,sans-Serif" font-size="10.00">::Socket &gt; &gt;</text>
<polyline fill="none" stroke="black" points="0,-155.5 164,-155.5 "/>
<text text-anchor="middle" x="82" y="-143.5" font-family="Helvetica,sans-Serif" font-size="10.00"> </text>
<polyline fill="none" stroke="black" points="0,-136.5 164,-136.5 "/>
<text text-anchor="start" x="8" y="-124.5" font-family="Helvetica,sans-Serif" font-size="10.00">+ listen()</text>
<text text-anchor="start" x="8" y="-113.5" font-family="Helvetica,sans-Serif" font-size="10.00">+ listen()</text>
</a>
</g>
</g>
<!-- Node1&#45;&gt;Node3 -->
<g id="edge2" class="edge">
<title>Node1&#45;&gt;Node3</title>
<path fill="none" stroke="orange" d="M269.94,-325.67C237.26,-316.06 200.91,-301.77 172,-281 149.15,-264.58 129.38,-240.71 114.24,-218.77"/>
<polygon fill="orange" stroke="orange" points="269.37,-329.15 279.95,-328.51 271.28,-322.41 269.37,-329.15"/>
<text text-anchor="start" x="172" y="-273" font-family="Helvetica,sans-Serif" font-size="10.00"> &lt; net::socket::stream</text>
<text text-anchor="start" x="172" y="-262" font-family="Helvetica,sans-Serif" font-size="10.00">::tls::SocketServer&lt;</text>
<text text-anchor="start" x="172" y="-251" font-family="Helvetica,sans-Serif" font-size="10.00"> net::socket::ip::tcp</text>
<text text-anchor="middle" x="220.5" y="-240" font-family="Helvetica,sans-Serif" font-size="10.00">::ipv6::Socket &gt; &gt;</text>
</g>
<!-- Node5 -->
<g id="node5" class="node">
<title>Node5</title>
<g id="a_node5"><a xlink:href="classnet_1_1socket_1_1ip_1_1tcp_1_1_socket_server.html" target="_top" xlink:title=" ">
<polygon fill="white" stroke="black" points="182,-106.5 182,-218.5 346,-218.5 346,-106.5 182,-106.5"/>
<text text-anchor="start" x="190" y="-206.5" font-family="Helvetica,sans-Serif" font-size="10.00">net::socket::ip::tcp</text>
<text text-anchor="start" x="190" y="-195.5" font-family="Helvetica,sans-Serif" font-size="10.00">::SocketServer&lt; net::</text>
<text text-anchor="start" x="190" y="-184.5" font-family="Helvetica,sans-Serif" font-size="10.00">socket::stream::tls::SocketServer</text>
<text text-anchor="start" x="190" y="-173.5" font-family="Helvetica,sans-Serif" font-size="10.00">&lt; net::socket::ip::tcp::ipv4</text>
<text text-anchor="middle" x="264" y="-162.5" font-family="Helvetica,sans-Serif" font-size="10.00">::Socket &gt; &gt;</text>
<polyline fill="none" stroke="black" points="182,-155.5 346,-155.5 "/>
<text text-anchor="middle" x="264" y="-143.5" font-family="Helvetica,sans-Serif" font-size="10.00"> </text>
<polyline fill="none" stroke="black" points="182,-136.5 346,-136.5 "/>
<text text-anchor="start" x="190" y="-124.5" font-family="Helvetica,sans-Serif" font-size="10.00">+ listen()</text>
<text text-anchor="start" x="190" y="-113.5" font-family="Helvetica,sans-Serif" font-size="10.00">+ listen()</text>
</a>
</g>
</g>
<!-- Node1&#45;&gt;Node5 -->
<g id="edge4" class="edge">
<title>Node1&#45;&gt;Node5</title>
<path fill="none" stroke="orange" d="M295.89,-291.64C293.36,-288.19 291.04,-284.64 289,-281 278.39,-262.08 272.27,-239.14 268.75,-218.57"/>
<polygon fill="orange" stroke="orange" points="293.15,-293.82 302.11,-299.48 298.64,-289.47 293.15,-293.82"/>
<text text-anchor="start" x="289" y="-273" font-family="Helvetica,sans-Serif" font-size="10.00"> &lt; net::socket::stream</text>
<text text-anchor="start" x="289" y="-262" font-family="Helvetica,sans-Serif" font-size="10.00">::tls::SocketServer&lt;</text>
<text text-anchor="start" x="289" y="-251" font-family="Helvetica,sans-Serif" font-size="10.00"> net::socket::ip::tcp</text>
<text text-anchor="middle" x="337.5" y="-240" font-family="Helvetica,sans-Serif" font-size="10.00">::ipv4::Socket &gt; &gt;</text>
</g>
<!-- Node7 -->
<g id="node7" class="node">
<title>Node7</title>
<g id="a_node7"><a xlink:href="classnet_1_1socket_1_1ip_1_1tcp_1_1_socket_server.html" target="_top" xlink:title=" ">
<polygon fill="white" stroke="black" points="364,-106.5 364,-218.5 504,-218.5 504,-106.5 364,-106.5"/>
<text text-anchor="start" x="372" y="-206.5" font-family="Helvetica,sans-Serif" font-size="10.00">net::socket::ip::tcp</text>
<text text-anchor="start" x="372" y="-195.5" font-family="Helvetica,sans-Serif" font-size="10.00">::SocketServer&lt; net::</text>
<text text-anchor="start" x="372" y="-184.5" font-family="Helvetica,sans-Serif" font-size="10.00">socket::stream::legacy</text>
<text text-anchor="start" x="372" y="-173.5" font-family="Helvetica,sans-Serif" font-size="10.00">::SocketServer&lt; net::socket</text>
<text text-anchor="middle" x="434" y="-162.5" font-family="Helvetica,sans-Serif" font-size="10.00">::ip::tcp::ipv4::Socket &gt; &gt;</text>
<polyline fill="none" stroke="black" points="364,-155.5 504,-155.5 "/>
<text text-anchor="middle" x="434" y="-143.5" font-family="Helvetica,sans-Serif" font-size="10.00"> </text>
<polyline fill="none" stroke="black" points="364,-136.5 504,-136.5 "/>
<text text-anchor="start" x="372" y="-124.5" font-family="Helvetica,sans-Serif" font-size="10.00">+ listen()</text>
<text text-anchor="start" x="372" y="-113.5" font-family="Helvetica,sans-Serif" font-size="10.00">+ listen()</text>
</a>
</g>
</g>
<!-- Node1&#45;&gt;Node7 -->
<g id="edge6" class="edge">
<title>Node1&#45;&gt;Node7</title>
<path fill="none" stroke="orange" d="M385.61,-290.08C387.14,-287.03 388.61,-283.99 390,-281 399.26,-261.04 408.06,-238.54 415.33,-218.61"/>
<polygon fill="orange" stroke="orange" points="382.37,-288.72 380.89,-299.21 388.59,-291.93 382.37,-288.72"/>
<text text-anchor="start" x="407" y="-273" font-family="Helvetica,sans-Serif" font-size="10.00"> &lt; net::socket::stream</text>
<text text-anchor="start" x="407" y="-262" font-family="Helvetica,sans-Serif" font-size="10.00">::legacy::SocketServer</text>
<text text-anchor="start" x="407" y="-251" font-family="Helvetica,sans-Serif" font-size="10.00">&lt; net::socket::ip::tcp</text>
<text text-anchor="middle" x="457" y="-240" font-family="Helvetica,sans-Serif" font-size="10.00">::ipv4::Socket &gt; &gt;</text>
</g>
<!-- Node9 -->
<g id="node9" class="node">
<title>Node9</title>
<g id="a_node9"><a xlink:href="classnet_1_1socket_1_1ip_1_1tcp_1_1_socket_server.html" target="_top" xlink:title=" ">
<polygon fill="white" stroke="black" points="522,-106.5 522,-218.5 662,-218.5 662,-106.5 522,-106.5"/>
<text text-anchor="start" x="530" y="-206.5" font-family="Helvetica,sans-Serif" font-size="10.00">net::socket::ip::tcp</text>
<text text-anchor="start" x="530" y="-195.5" font-family="Helvetica,sans-Serif" font-size="10.00">::SocketServer&lt; net::</text>
<text text-anchor="start" x="530" y="-184.5" font-family="Helvetica,sans-Serif" font-size="10.00">socket::stream::legacy</text>
<text text-anchor="start" x="530" y="-173.5" font-family="Helvetica,sans-Serif" font-size="10.00">::SocketServer&lt; net::socket</text>
<text text-anchor="middle" x="592" y="-162.5" font-family="Helvetica,sans-Serif" font-size="10.00">::ip::tcp::ipv6::Socket &gt; &gt;</text>
<polyline fill="none" stroke="black" points="522,-155.5 662,-155.5 "/>
<text text-anchor="middle" x="592" y="-143.5" font-family="Helvetica,sans-Serif" font-size="10.00"> </text>
<polyline fill="none" stroke="black" points="522,-136.5 662,-136.5 "/>
<text text-anchor="start" x="530" y="-124.5" font-family="Helvetica,sans-Serif" font-size="10.00">+ listen()</text>
<text text-anchor="start" x="530" y="-113.5" font-family="Helvetica,sans-Serif" font-size="10.00">+ listen()</text>
</a>
</g>
</g>
<!-- Node1&#45;&gt;Node9 -->
<g id="edge8" class="edge">
<title>Node1&#45;&gt;Node9</title>
<path fill="none" stroke="orange" d="M439.4,-319.97C464.11,-310.48 490.08,-297.71 511,-281 532.1,-264.14 549.91,-240.34 563.42,-218.56"/>
<polygon fill="orange" stroke="orange" points="438.17,-316.7 430.01,-323.46 440.6,-323.26 438.17,-316.7"/>
<text text-anchor="start" x="550" y="-273" font-family="Helvetica,sans-Serif" font-size="10.00"> &lt; net::socket::stream</text>
<text text-anchor="start" x="550" y="-262" font-family="Helvetica,sans-Serif" font-size="10.00">::legacy::SocketServer</text>
<text text-anchor="start" x="550" y="-251" font-family="Helvetica,sans-Serif" font-size="10.00">&lt; net::socket::ip::tcp</text>
<text text-anchor="middle" x="600" y="-240" font-family="Helvetica,sans-Serif" font-size="10.00">::ipv6::Socket &gt; &gt;</text>
</g>
<!-- Node2 -->
<g id="node2" class="node">
<title>Node2</title>
<g id="a_node2"><a xlink:title=" ">
<polygon fill="white" stroke="#bfbfbf" points="304.5,-427.5 304.5,-484.5 405.5,-484.5 405.5,-427.5 304.5,-427.5"/>
<text text-anchor="middle" x="355" y="-472.5" font-family="Helvetica,sans-Serif" font-size="10.00">SocketServerSuper</text>
<polyline fill="none" stroke="#bfbfbf" points="304.5,-465.5 405.5,-465.5 "/>
<text text-anchor="middle" x="355" y="-453.5" font-family="Helvetica,sans-Serif" font-size="10.00"> </text>
<polyline fill="none" stroke="#bfbfbf" points="304.5,-446.5 405.5,-446.5 "/>
<text text-anchor="middle" x="355" y="-434.5" font-family="Helvetica,sans-Serif" font-size="10.00"> </text>
</a>
</g>
</g>
<!-- Node2&#45;&gt;Node1 -->
<g id="edge1" class="edge">
<title>Node2&#45;&gt;Node1</title>
<path fill="none" stroke="midnightblue" d="M355,-417.31C355,-408.43 355,-398.88 355,-389.74"/>
<polygon fill="none" stroke="midnightblue" points="351.5,-417.37 355,-427.37 358.5,-417.37 351.5,-417.37"/>
</g>
<!-- Node4 -->
<g id="node4" class="node">
<title>Node4</title>
<g id="a_node4"><a xlink:href="classnet_1_1socket_1_1ip_1_1tcp_1_1ipv6_1_1tls_1_1_socket_server.html" target="_top" xlink:title=" ">
<polygon fill="white" stroke="black" points="21,-0.5 21,-68.5 143,-68.5 143,-0.5 21,-0.5"/>
<text text-anchor="start" x="29" y="-56.5" font-family="Helvetica,sans-Serif" font-size="10.00">net::socket::ip::tcp</text>
<text text-anchor="middle" x="82" y="-45.5" font-family="Helvetica,sans-Serif" font-size="10.00">::ipv6::tls::SocketServer</text>
<polyline fill="none" stroke="black" points="21,-38.5 143,-38.5 "/>
<text text-anchor="middle" x="82" y="-26.5" font-family="Helvetica,sans-Serif" font-size="10.00"> </text>
<polyline fill="none" stroke="black" points="21,-19.5 143,-19.5 "/>
<text text-anchor="middle" x="82" y="-7.5" font-family="Helvetica,sans-Serif" font-size="10.00"> </text>
</a>
</g>
</g>
<!-- Node3&#45;&gt;Node4 -->
<g id="edge3" class="edge">
<title>Node3&#45;&gt;Node4</title>
<path fill="none" stroke="midnightblue" d="M82,-95.96C82,-86.48 82,-77.08 82,-68.62"/>
<polygon fill="none" stroke="midnightblue" points="78.5,-96.23 82,-106.23 85.5,-96.23 78.5,-96.23"/>
</g>
<!-- Node6 -->
<g id="node6" class="node">
<title>Node6</title>
<g id="a_node6"><a xlink:href="classnet_1_1socket_1_1ip_1_1tcp_1_1ipv4_1_1tls_1_1_socket_server.html" target="_top" xlink:title=" ">
<polygon fill="white" stroke="black" points="203,-0.5 203,-68.5 325,-68.5 325,-0.5 203,-0.5"/>
<text text-anchor="start" x="211" y="-56.5" font-family="Helvetica,sans-Serif" font-size="10.00">net::socket::ip::tcp</text>
<text text-anchor="middle" x="264" y="-45.5" font-family="Helvetica,sans-Serif" font-size="10.00">::ipv4::tls::SocketServer</text>
<polyline fill="none" stroke="black" points="203,-38.5 325,-38.5 "/>
<text text-anchor="middle" x="264" y="-26.5" font-family="Helvetica,sans-Serif" font-size="10.00"> </text>
<polyline fill="none" stroke="black" points="203,-19.5 325,-19.5 "/>
<text text-anchor="middle" x="264" y="-7.5" font-family="Helvetica,sans-Serif" font-size="10.00"> </text>
</a>
</g>
</g>
<!-- Node5&#45;&gt;Node6 -->
<g id="edge5" class="edge">
<title>Node5&#45;&gt;Node6</title>
<path fill="none" stroke="midnightblue" d="M264,-95.96C264,-86.48 264,-77.08 264,-68.62"/>
<polygon fill="none" stroke="midnightblue" points="260.5,-96.23 264,-106.23 267.5,-96.23 260.5,-96.23"/>
</g>
<!-- Node8 -->
<g id="node8" class="node">
<title>Node8</title>
<g id="a_node8"><a xlink:href="classnet_1_1socket_1_1ip_1_1tcp_1_1ipv4_1_1legacy_1_1_socket_server.html" target="_top" xlink:title=" ">
<polygon fill="white" stroke="black" points="364,-0.5 364,-68.5 504,-68.5 504,-0.5 364,-0.5"/>
<text text-anchor="start" x="372" y="-56.5" font-family="Helvetica,sans-Serif" font-size="10.00">net::socket::ip::tcp</text>
<text text-anchor="middle" x="434" y="-45.5" font-family="Helvetica,sans-Serif" font-size="10.00">::ipv4::legacy::SocketServer</text>
<polyline fill="none" stroke="black" points="364,-38.5 504,-38.5 "/>
<text text-anchor="middle" x="434" y="-26.5" font-family="Helvetica,sans-Serif" font-size="10.00"> </text>
<polyline fill="none" stroke="black" points="364,-19.5 504,-19.5 "/>
<text text-anchor="middle" x="434" y="-7.5" font-family="Helvetica,sans-Serif" font-size="10.00"> </text>
</a>
</g>
</g>
<!-- Node7&#45;&gt;Node8 -->
<g id="edge7" class="edge">
<title>Node7&#45;&gt;Node8</title>
<path fill="none" stroke="midnightblue" d="M434,-95.96C434,-86.48 434,-77.08 434,-68.62"/>
<polygon fill="none" stroke="midnightblue" points="430.5,-96.23 434,-106.23 437.5,-96.23 430.5,-96.23"/>
</g>
<!-- Node10 -->
<g id="node10" class="node">
<title>Node10</title>
<g id="a_node10"><a xlink:href="classnet_1_1socket_1_1ip_1_1tcp_1_1ipv6_1_1legacy_1_1_socket_server.html" target="_top" xlink:title=" ">
<polygon fill="white" stroke="black" points="522,-0.5 522,-68.5 662,-68.5 662,-0.5 522,-0.5"/>
<text text-anchor="start" x="530" y="-56.5" font-family="Helvetica,sans-Serif" font-size="10.00">net::socket::ip::tcp</text>
<text text-anchor="middle" x="592" y="-45.5" font-family="Helvetica,sans-Serif" font-size="10.00">::ipv6::legacy::SocketServer</text>
<polyline fill="none" stroke="black" points="522,-38.5 662,-38.5 "/>
<text text-anchor="middle" x="592" y="-26.5" font-family="Helvetica,sans-Serif" font-size="10.00"> </text>
<polyline fill="none" stroke="black" points="522,-19.5 662,-19.5 "/>
<text text-anchor="middle" x="592" y="-7.5" font-family="Helvetica,sans-Serif" font-size="10.00"> </text>
</a>
</g>
</g>
<!-- Node9&#45;&gt;Node10 -->
<g id="edge9" class="edge">
<title>Node9&#45;&gt;Node10</title>
<path fill="none" stroke="midnightblue" d="M592,-95.96C592,-86.48 592,-77.08 592,-68.62"/>
<polygon fill="none" stroke="midnightblue" points="588.5,-96.23 592,-106.23 595.5,-96.23 588.5,-96.23"/>
</g>
</g>
</svg>
