<?xml version="1.0" encoding="UTF-8" standalone="no"?>
<!DOCTYPE svg PUBLIC "-//W3C//DTD SVG 1.1//EN"
 "http://www.w3.org/Graphics/SVG/1.1/DTD/svg11.dtd">
<!-- Generated by graphviz version 2.43.0 (0)
 -->
<!-- Title: net::WriteEventReceiver::enable Pages: 1 -->
<svg width="678pt" height="266pt"
 viewBox="0.00 0.00 678.00 266.00" xmlns="http://www.w3.org/2000/svg" xmlns:xlink="http://www.w3.org/1999/xlink">
<g id="graph0" class="graph" transform="scale(1 1) rotate(0) translate(4 262)">
<title>net::WriteEventReceiver::enable</title>
<polygon fill="white" stroke="transparent" points="-4,4 -4,-262 674,-262 674,4 -4,4"/>
<!-- Node1 -->
<g id="node1" class="node">
<title>Node1</title>
<g id="a_node1"><a xlink:title=" ">
<polygon fill="#bfbfbf" stroke="black" points="547,-156 547,-186 670,-186 670,-156 547,-156"/>
<text text-anchor="start" x="555" y="-174" font-family="Helvetica,sans-Serif" font-size="10.00">net::WriteEventReceiver</text>
<text text-anchor="middle" x="608.5" y="-163" font-family="Helvetica,sans-Serif" font-size="10.00">::enable</text>
</a>
</g>
</g>
<!-- Node2 -->
<g id="node2" class="node">
<title>Node2</title>
<g id="a_node2"><a xlink:href="classnet_1_1socket_1_1stream_1_1_socket_writer.html#ae16df4c60aae8709a438fb539a5547db" target="_top" xlink:title=" ">
<polygon fill="white" stroke="black" points="389,-211 389,-241 511,-241 511,-211 389,-211"/>
<text text-anchor="start" x="397" y="-229" font-family="Helvetica,sans-Serif" font-size="10.00">net::socket::stream</text>
<text text-anchor="middle" x="450" y="-218" font-family="Helvetica,sans-Serif" font-size="10.00">::SocketWriter::enqueue</text>
</a>
</g>
</g>
<!-- Node1&#45;&gt;Node2 -->
<g id="edge1" class="edge">
<title>Node1&#45;&gt;Node2</title>
<path fill="none" stroke="midnightblue" d="M555.16,-189.39C535.19,-196.41 512.68,-204.32 493.71,-210.99"/>
<polygon fill="midnightblue" stroke="midnightblue" points="556.46,-192.65 564.74,-186.03 554.14,-186.04 556.46,-192.65"/>
</g>
<!-- Node4 -->
<g id="node4" class="node">
<title>Node4</title>
<g id="a_node4"><a xlink:href="classnet_1_1socket_1_1stream_1_1tls_1_1_t_l_s_handshake.html#a35bcd6ef7b0b5581fcc7cb56873edb30" target="_top" xlink:title=" ">
<polygon fill="white" stroke="black" points="396.5,-150.5 396.5,-191.5 503.5,-191.5 503.5,-150.5 396.5,-150.5"/>
<text text-anchor="start" x="404.5" y="-179.5" font-family="Helvetica,sans-Serif" font-size="10.00">net::socket::stream</text>
<text text-anchor="start" x="404.5" y="-168.5" font-family="Helvetica,sans-Serif" font-size="10.00">::tls::TLSHandshake</text>
<text text-anchor="middle" x="450" y="-157.5" font-family="Helvetica,sans-Serif" font-size="10.00">::readEvent</text>
</a>
</g>
</g>
<!-- Node1&#45;&gt;Node4 -->
<g id="edge3" class="edge">
<title>Node1&#45;&gt;Node4</title>
<path fill="none" stroke="midnightblue" d="M536.84,-171C525.7,-171 514.35,-171 503.7,-171"/>
<polygon fill="midnightblue" stroke="midnightblue" points="536.99,-174.5 546.99,-171 536.99,-167.5 536.99,-174.5"/>
</g>
<!-- Node5 -->
<g id="node5" class="node">
<title>Node5</title>
<g id="a_node5"><a xlink:href="classnet_1_1socket_1_1stream_1_1tls_1_1_t_l_s_handshake.html#ad0daae6842f143fcf3d1a7c6d667a160" target="_top" xlink:title=" ">
<polygon fill="white" stroke="black" points="396.5,-90.5 396.5,-131.5 503.5,-131.5 503.5,-90.5 396.5,-90.5"/>
<text text-anchor="start" x="404.5" y="-119.5" font-family="Helvetica,sans-Serif" font-size="10.00">net::socket::stream</text>
<text text-anchor="start" x="404.5" y="-108.5" font-family="Helvetica,sans-Serif" font-size="10.00">::tls::TLSHandshake</text>
<text text-anchor="middle" x="450" y="-97.5" font-family="Helvetica,sans-Serif" font-size="10.00">::TLSHandshake</text>
</a>
</g>
</g>
<!-- Node1&#45;&gt;Node5 -->
<g id="edge4" class="edge">
<title>Node1&#45;&gt;Node5</title>
<path fill="none" stroke="midnightblue" d="M558.6,-152.25C541.19,-145.58 521.51,-138.03 503.79,-131.24"/>
<polygon fill="midnightblue" stroke="midnightblue" points="557.42,-155.55 568.01,-155.86 559.92,-149.01 557.42,-155.55"/>
</g>
<!-- Node3 -->
<g id="node3" class="node">
<title>Node3</title>
<g id="a_node3"><a xlink:href="classnet_1_1socket_1_1stream_1_1_socket_connection.html#a321fd72fbdb5a439d2d59a0b534c4954" target="_top" xlink:title=" ">
<polygon fill="white" stroke="black" points="162,-194.5 162,-257.5 353,-257.5 353,-194.5 162,-194.5"/>
<text text-anchor="start" x="170" y="-245.5" font-family="Helvetica,sans-Serif" font-size="10.00">net::socket::stream</text>
<text text-anchor="start" x="170" y="-234.5" font-family="Helvetica,sans-Serif" font-size="10.00">::SocketConnection&lt;</text>
<text text-anchor="start" x="170" y="-223.5" font-family="Helvetica,sans-Serif" font-size="10.00"> tls::SocketReader&lt; SocketT</text>
<text text-anchor="start" x="170" y="-212.5" font-family="Helvetica,sans-Serif" font-size="10.00"> &gt;, tls::SocketWriter&lt; SocketT</text>
<text text-anchor="middle" x="257.5" y="-201.5" font-family="Helvetica,sans-Serif" font-size="10.00"> &gt;, SocketT::SocketAddress &gt;::enqueue</text>
</a>
</g>
</g>
<!-- Node2&#45;&gt;Node3 -->
<g id="edge2" class="edge">
<title>Node2&#45;&gt;Node3</title>
<path fill="none" stroke="midnightblue" d="M378.88,-226C370.46,-226 361.76,-226 353.06,-226"/>
<polygon fill="midnightblue" stroke="midnightblue" points="378.99,-229.5 388.99,-226 378.99,-222.5 378.99,-229.5"/>
</g>
<!-- Node6 -->
<g id="node6" class="node">
<title>Node6</title>
<g id="a_node6"><a xlink:href="classnet_1_1socket_1_1stream_1_1tls_1_1_t_l_s_handshake.html#a2c4876e61d8860846d4caa2195e46231" target="_top" xlink:title=" ">
<polygon fill="white" stroke="black" points="204,-90.5 204,-131.5 311,-131.5 311,-90.5 204,-90.5"/>
<text text-anchor="start" x="212" y="-119.5" font-family="Helvetica,sans-Serif" font-size="10.00">net::socket::stream</text>
<text text-anchor="start" x="212" y="-108.5" font-family="Helvetica,sans-Serif" font-size="10.00">::tls::TLSHandshake</text>
<text text-anchor="middle" x="257.5" y="-97.5" font-family="Helvetica,sans-Serif" font-size="10.00">::doHandshake</text>
</a>
</g>
</g>
<!-- Node5&#45;&gt;Node6 -->
<g id="edge5" class="edge">
<title>Node5&#45;&gt;Node6</title>
<path fill="none" stroke="midnightblue" d="M386.25,-111C361.96,-111 334.46,-111 311.22,-111"/>
<polygon fill="midnightblue" stroke="midnightblue" points="386.44,-114.5 396.44,-111 386.44,-107.5 386.44,-114.5"/>
</g>
<!-- Node7 -->
<g id="node7" class="node">
<title>Node7</title>
<g id="a_node7"><a xlink:href="classnet_1_1socket_1_1stream_1_1tls_1_1_socket_reader.html#a66094f94e4c20714c159432dac407b1c" target="_top" xlink:title=" ">
<polygon fill="white" stroke="black" points="0,-181 0,-211 126,-211 126,-181 0,-181"/>
<text text-anchor="start" x="8" y="-199" font-family="Helvetica,sans-Serif" font-size="10.00">net::socket::stream</text>
<text text-anchor="middle" x="63" y="-188" font-family="Helvetica,sans-Serif" font-size="10.00">::tls::SocketReader::read</text>
</a>
</g>
</g>
<!-- Node6&#45;&gt;Node7 -->
<g id="edge6" class="edge">
<title>Node6&#45;&gt;Node7</title>
<path fill="none" stroke="midnightblue" d="M204.05,-135.81C180.33,-146.84 151.87,-159.84 126,-171 118.33,-174.31 110.07,-177.73 102.15,-180.95"/>
<polygon fill="midnightblue" stroke="midnightblue" points="205.65,-138.92 213.23,-131.52 202.69,-132.58 205.65,-138.92"/>
</g>
<!-- Node8 -->
<g id="node8" class="node">
<title>Node8</title>
<g id="a_node8"><a xlink:href="classnet_1_1socket_1_1stream_1_1tls_1_1_socket_connector.html#a03d3cd1d7ad33216ae0c58d3f88d8339" target="_top" xlink:title=" ">
<polygon fill="white" stroke="black" points="5.5,-120.5 5.5,-161.5 120.5,-161.5 120.5,-120.5 5.5,-120.5"/>
<text text-anchor="start" x="13.5" y="-149.5" font-family="Helvetica,sans-Serif" font-size="10.00">net::socket::stream</text>
<text text-anchor="start" x="13.5" y="-138.5" font-family="Helvetica,sans-Serif" font-size="10.00">::tls::SocketConnector</text>
<text text-anchor="middle" x="63" y="-127.5" font-family="Helvetica,sans-Serif" font-size="10.00">::SocketConnector</text>
</a>
</g>
</g>
<!-- Node6&#45;&gt;Node8 -->
<g id="edge7" class="edge">
<title>Node6&#45;&gt;Node8</title>
<path fill="none" stroke="midnightblue" d="M193.98,-120.74C170.36,-124.42 143.63,-128.59 120.59,-132.18"/>
<polygon fill="midnightblue" stroke="midnightblue" points="194.56,-124.2 203.9,-119.2 193.48,-117.28 194.56,-124.2"/>
</g>
<!-- Node9 -->
<g id="node9" class="node">
<title>Node9</title>
<g id="a_node9"><a xlink:href="classnet_1_1socket_1_1stream_1_1tls_1_1_socket_listener.html#a223629dd98eb1de0a0b9a431754e1d8f" target="_top" xlink:title=" ">
<polygon fill="white" stroke="black" points="11,-60.5 11,-101.5 115,-101.5 115,-60.5 11,-60.5"/>
<text text-anchor="start" x="19" y="-89.5" font-family="Helvetica,sans-Serif" font-size="10.00">net::socket::stream</text>
<text text-anchor="start" x="19" y="-78.5" font-family="Helvetica,sans-Serif" font-size="10.00">::tls::SocketListener</text>
<text text-anchor="middle" x="63" y="-67.5" font-family="Helvetica,sans-Serif" font-size="10.00">::SocketListener</text>
</a>
</g>
</g>
<!-- Node6&#45;&gt;Node9 -->
<g id="edge8" class="edge">
<title>Node6&#45;&gt;Node9</title>
<path fill="none" stroke="midnightblue" d="M193.96,-101.25C168.48,-97.28 139.39,-92.75 115.21,-88.98"/>
<polygon fill="midnightblue" stroke="midnightblue" points="193.48,-104.72 203.9,-102.8 194.56,-97.8 193.48,-104.72"/>
</g>
<!-- Node10 -->
<g id="node10" class="node">
<title>Node10</title>
<g id="a_node10"><a xlink:href="classnet_1_1socket_1_1stream_1_1tls_1_1_socket_writer.html#a704f8cb843067a6670c454d88530cc8f" target="_top" xlink:title=" ">
<polygon fill="white" stroke="black" points="12.5,-0.5 12.5,-41.5 113.5,-41.5 113.5,-0.5 12.5,-0.5"/>
<text text-anchor="start" x="20.5" y="-29.5" font-family="Helvetica,sans-Serif" font-size="10.00">net::socket::stream</text>
<text text-anchor="start" x="20.5" y="-18.5" font-family="Helvetica,sans-Serif" font-size="10.00">::tls::SocketWriter</text>
<text text-anchor="middle" x="63" y="-7.5" font-family="Helvetica,sans-Serif" font-size="10.00">::write</text>
</a>
</g>
</g>
<!-- Node6&#45;&gt;Node10 -->
<g id="edge9" class="edge">
<title>Node6&#45;&gt;Node10</title>
<path fill="none" stroke="midnightblue" d="M203.27,-86.11C173.29,-72.09 136.28,-54.8 107.96,-41.55"/>
<polygon fill="midnightblue" stroke="midnightblue" points="201.8,-89.29 212.34,-90.35 204.76,-82.95 201.8,-89.29"/>
</g>
</g>
</svg>
