<?xml version="1.0" encoding="UTF-8" standalone="no"?>
<!DOCTYPE svg PUBLIC "-//W3C//DTD SVG 1.1//EN"
 "http://www.w3.org/Graphics/SVG/1.1/DTD/svg11.dtd">
<!-- Generated by graphviz version 2.43.0 (0)
 -->
<!-- Title: net::socket::bluetooth::rfcomm::Socket Pages: 1 -->
<svg width="365pt" height="884pt"
 viewBox="0.00 0.00 364.50 884.00" xmlns="http://www.w3.org/2000/svg" xmlns:xlink="http://www.w3.org/1999/xlink">
<g id="graph0" class="graph" transform="scale(1 1) rotate(0) translate(4 880)">
<title>net::socket::bluetooth::rfcomm::Socket</title>
<polygon fill="white" stroke="transparent" points="-4,4 -4,-880 360.5,-880 360.5,4 -4,4"/>
<!-- Node1 -->
<g id="node1" class="node">
<title>Node1</title>
<g id="a_node1"><a xlink:title=" ">
<polygon fill="#bfbfbf" stroke="black" points="37,-0.5 37,-101.5 148,-101.5 148,-0.5 37,-0.5"/>
<text text-anchor="start" x="45" y="-89.5" font-family="Helvetica,sans-Serif" font-size="10.00">net::socket::bluetooth</text>
<text text-anchor="middle" x="92.5" y="-78.5" font-family="Helvetica,sans-Serif" font-size="10.00">::rfcomm::Socket</text>
<polyline fill="none" stroke="black" points="37,-71.5 148,-71.5 "/>
<text text-anchor="middle" x="92.5" y="-59.5" font-family="Helvetica,sans-Serif" font-size="10.00"> </text>
<polyline fill="none" stroke="black" points="37,-52.5 148,-52.5 "/>
<text text-anchor="start" x="45" y="-40.5" font-family="Helvetica,sans-Serif" font-size="10.00">+ Socket()</text>
<text text-anchor="start" x="45" y="-29.5" font-family="Helvetica,sans-Serif" font-size="10.00">+ Socket()</text>
<text text-anchor="start" x="45" y="-18.5" font-family="Helvetica,sans-Serif" font-size="10.00">+ operator=()</text>
<text text-anchor="start" x="45" y="-7.5" font-family="Helvetica,sans-Serif" font-size="10.00">+ open()</text>
</a>
</g>
</g>
<!-- Node2 -->
<g id="node2" class="node">
<title>Node2</title>
<g id="a_node2"><a xlink:href="classnet_1_1socket_1_1_socket.html" target="_top" xlink:title=" ">
<polygon fill="white" stroke="black" points="17,-139.5 17,-295.5 168,-295.5 168,-139.5 17,-139.5"/>
<text text-anchor="start" x="25" y="-283.5" font-family="Helvetica,sans-Serif" font-size="10.00">net::socket::Socket</text>
<text text-anchor="middle" x="92.5" y="-272.5" font-family="Helvetica,sans-Serif" font-size="10.00">&lt; address::RfCommAddress &gt;</text>
<polyline fill="none" stroke="black" points="17,-265.5 168,-265.5 "/>
<text text-anchor="middle" x="92.5" y="-253.5" font-family="Helvetica,sans-Serif" font-size="10.00"> </text>
<polyline fill="none" stroke="black" points="17,-246.5 168,-246.5 "/>
<text text-anchor="start" x="25" y="-234.5" font-family="Helvetica,sans-Serif" font-size="10.00">+ shutdown()</text>
<text text-anchor="start" x="25" y="-223.5" font-family="Helvetica,sans-Serif" font-size="10.00">+ Socket()</text>
<text text-anchor="start" x="25" y="-212.5" font-family="Helvetica,sans-Serif" font-size="10.00">+ Socket()</text>
<text text-anchor="start" x="25" y="-201.5" font-family="Helvetica,sans-Serif" font-size="10.00">+ operator=()</text>
<text text-anchor="start" x="25" y="-190.5" font-family="Helvetica,sans-Serif" font-size="10.00">+ ~Socket()</text>
<text text-anchor="start" x="25" y="-179.5" font-family="Helvetica,sans-Serif" font-size="10.00">+ open()</text>
<text text-anchor="start" x="25" y="-168.5" font-family="Helvetica,sans-Serif" font-size="10.00">+ bind()</text>
<text text-anchor="start" x="25" y="-157.5" font-family="Helvetica,sans-Serif" font-size="10.00">+ getBindAddress()</text>
<text text-anchor="start" x="25" y="-146.5" font-family="Helvetica,sans-Serif" font-size="10.00">+ setBindAddress()</text>
</a>
</g>
</g>
<!-- Node2&#45;&gt;Node1 -->
<g id="edge1" class="edge">
<title>Node2&#45;&gt;Node1</title>
<path fill="none" stroke="midnightblue" d="M92.5,-128.96C92.5,-119.66 92.5,-110.46 92.5,-101.82"/>
<polygon fill="none" stroke="midnightblue" points="89,-129.07 92.5,-139.07 96,-129.07 89,-129.07"/>
</g>
<!-- Node3 -->
<g id="node3" class="node">
<title>Node3</title>
<g id="a_node3"><a xlink:href="classnet_1_1_descriptor.html" target="_top" xlink:title=" ">
<polygon fill="white" stroke="black" points="0,-543 0,-677 83,-677 83,-543 0,-543"/>
<text text-anchor="middle" x="41.5" y="-665" font-family="Helvetica,sans-Serif" font-size="10.00">net::Descriptor</text>
<polyline fill="none" stroke="black" points="0,-658 83,-658 "/>
<text text-anchor="start" x="8" y="-646" font-family="Helvetica,sans-Serif" font-size="10.00">+ none</text>
<text text-anchor="start" x="8" y="-635" font-family="Helvetica,sans-Serif" font-size="10.00">&#45; fd</text>
<polyline fill="none" stroke="black" points="0,-628 83,-628 "/>
<text text-anchor="start" x="8" y="-616" font-family="Helvetica,sans-Serif" font-size="10.00">+ Descriptor()</text>
<text text-anchor="start" x="8" y="-605" font-family="Helvetica,sans-Serif" font-size="10.00">+ operator=()</text>
<text text-anchor="start" x="8" y="-594" font-family="Helvetica,sans-Serif" font-size="10.00">+ ~Descriptor()</text>
<text text-anchor="start" x="8" y="-583" font-family="Helvetica,sans-Serif" font-size="10.00">+ open()</text>
<text text-anchor="start" x="8" y="-572" font-family="Helvetica,sans-Serif" font-size="10.00">+ getFd()</text>
<text text-anchor="start" x="8" y="-561" font-family="Helvetica,sans-Serif" font-size="10.00">+ dontClose()</text>
<text text-anchor="start" x="8" y="-550" font-family="Helvetica,sans-Serif" font-size="10.00"># Descriptor()</text>
</a>
</g>
</g>
<!-- Node3&#45;&gt;Node2 -->
<g id="edge2" class="edge">
<title>Node3&#45;&gt;Node2</title>
<path fill="none" stroke="midnightblue" d="M32.61,-532.83C28.37,-479.2 26.64,-406.02 39.5,-343 42.72,-327.23 48.01,-310.99 54.03,-295.65"/>
<polygon fill="none" stroke="midnightblue" points="29.14,-533.28 33.46,-542.95 36.11,-532.69 29.14,-533.28"/>
</g>
<!-- Node7 -->
<g id="node7" class="node">
<title>Node7</title>
<g id="a_node7"><a xlink:href="classnet_1_1socket_1_1_socket.html" target="_top" xlink:title=" ">
<polygon fill="white" stroke="black" points="49,-343.5 49,-499.5 156,-499.5 156,-343.5 49,-343.5"/>
<text text-anchor="start" x="57" y="-487.5" font-family="Helvetica,sans-Serif" font-size="10.00">net::socket::Socket</text>
<text text-anchor="middle" x="102.5" y="-476.5" font-family="Helvetica,sans-Serif" font-size="10.00">&lt; SocketAddressT &gt;</text>
<polyline fill="none" stroke="black" points="49,-469.5 156,-469.5 "/>
<text text-anchor="start" x="57" y="-457.5" font-family="Helvetica,sans-Serif" font-size="10.00"># bindAddress</text>
<polyline fill="none" stroke="black" points="49,-450.5 156,-450.5 "/>
<text text-anchor="start" x="57" y="-438.5" font-family="Helvetica,sans-Serif" font-size="10.00">+ Socket()</text>
<text text-anchor="start" x="57" y="-427.5" font-family="Helvetica,sans-Serif" font-size="10.00">+ Socket()</text>
<text text-anchor="start" x="57" y="-416.5" font-family="Helvetica,sans-Serif" font-size="10.00">+ operator=()</text>
<text text-anchor="start" x="57" y="-405.5" font-family="Helvetica,sans-Serif" font-size="10.00">+ ~Socket()</text>
<text text-anchor="start" x="57" y="-394.5" font-family="Helvetica,sans-Serif" font-size="10.00">+ open()</text>
<text text-anchor="start" x="57" y="-383.5" font-family="Helvetica,sans-Serif" font-size="10.00">+ bind()</text>
<text text-anchor="start" x="57" y="-372.5" font-family="Helvetica,sans-Serif" font-size="10.00">+ shutdown()</text>
<text text-anchor="start" x="57" y="-361.5" font-family="Helvetica,sans-Serif" font-size="10.00">+ getBindAddress()</text>
<text text-anchor="start" x="57" y="-350.5" font-family="Helvetica,sans-Serif" font-size="10.00">+ setBindAddress()</text>
</a>
</g>
</g>
<!-- Node3&#45;&gt;Node7 -->
<g id="edge7" class="edge">
<title>Node3&#45;&gt;Node7</title>
<path fill="none" stroke="midnightblue" d="M66.25,-533.32C69.89,-522.2 73.64,-510.73 77.29,-499.59"/>
<polygon fill="none" stroke="midnightblue" points="62.87,-532.39 63.09,-542.98 69.53,-534.57 62.87,-532.39"/>
</g>
<!-- Node4 -->
<g id="node4" class="node">
<title>Node4</title>
<g id="a_node4"><a xlink:href="classnet_1_1socket_1_1bluetooth_1_1address_1_1_rf_comm_address.html" target="_top" xlink:title=" ">
<polygon fill="white" stroke="black" points="184,-354.5 184,-488.5 323,-488.5 323,-354.5 184,-354.5"/>
<text text-anchor="start" x="192" y="-476.5" font-family="Helvetica,sans-Serif" font-size="10.00">net::socket::bluetooth</text>
<text text-anchor="middle" x="253.5" y="-465.5" font-family="Helvetica,sans-Serif" font-size="10.00">::address::RfCommAddress</text>
<polyline fill="none" stroke="black" points="184,-458.5 323,-458.5 "/>
<text text-anchor="middle" x="253.5" y="-446.5" font-family="Helvetica,sans-Serif" font-size="10.00"> </text>
<polyline fill="none" stroke="black" points="184,-439.5 323,-439.5 "/>
<text text-anchor="start" x="192" y="-427.5" font-family="Helvetica,sans-Serif" font-size="10.00">+ RfCommAddress()</text>
<text text-anchor="start" x="192" y="-416.5" font-family="Helvetica,sans-Serif" font-size="10.00">+ RfCommAddress()</text>
<text text-anchor="start" x="192" y="-405.5" font-family="Helvetica,sans-Serif" font-size="10.00">+ RfCommAddress()</text>
<text text-anchor="start" x="192" y="-394.5" font-family="Helvetica,sans-Serif" font-size="10.00">+ RfCommAddress()</text>
<text text-anchor="start" x="192" y="-383.5" font-family="Helvetica,sans-Serif" font-size="10.00">+ channel()</text>
<text text-anchor="start" x="192" y="-372.5" font-family="Helvetica,sans-Serif" font-size="10.00">+ address()</text>
<text text-anchor="start" x="192" y="-361.5" font-family="Helvetica,sans-Serif" font-size="10.00">+ toString()</text>
</a>
</g>
</g>
<!-- Node4&#45;&gt;Node2 -->
<g id="edge3" class="edge">
<title>Node4&#45;&gt;Node2</title>
<path fill="none" stroke="#404040" d="M247.94,-354.31C244.6,-340.19 239.44,-325.95 231.5,-314 217.99,-293.66 198.53,-276.43 178.43,-262.45"/>
<polygon fill="none" stroke="#404040" points="178.19,-262.3 170.98,-262.3 168.21,-255.65 175.42,-255.64 178.19,-262.3"/>
<text text-anchor="middle" x="268" y="-317" font-family="Helvetica,sans-Serif" font-size="10.00"> #bindAddress</text>
</g>
<!-- Node5 -->
<g id="node5" class="node">
<title>Node5</title>
<g id="a_node5"><a xlink:href="classnet_1_1socket_1_1_socket_address.html" target="_top" xlink:title=" ">
<polygon fill="white" stroke="black" points="184.5,-537.5 184.5,-682.5 322.5,-682.5 322.5,-537.5 184.5,-537.5"/>
<text text-anchor="start" x="192.5" y="-670.5" font-family="Helvetica,sans-Serif" font-size="10.00">net::socket::SocketAddress</text>
<text text-anchor="middle" x="253.5" y="-659.5" font-family="Helvetica,sans-Serif" font-size="10.00">&lt; struct sockaddr_rc &gt;</text>
<polyline fill="none" stroke="black" points="184.5,-652.5 322.5,-652.5 "/>
<text text-anchor="start" x="192.5" y="-640.5" font-family="Helvetica,sans-Serif" font-size="10.00"># sockAddr</text>
<polyline fill="none" stroke="black" points="184.5,-633.5 322.5,-633.5 "/>
<text text-anchor="start" x="192.5" y="-621.5" font-family="Helvetica,sans-Serif" font-size="10.00">+ SocketAddress()</text>
<text text-anchor="start" x="192.5" y="-610.5" font-family="Helvetica,sans-Serif" font-size="10.00">+ SocketAddress()</text>
<text text-anchor="start" x="192.5" y="-599.5" font-family="Helvetica,sans-Serif" font-size="10.00">+ SocketAddress()</text>
<text text-anchor="start" x="192.5" y="-588.5" font-family="Helvetica,sans-Serif" font-size="10.00">+ operator=()</text>
<text text-anchor="start" x="192.5" y="-577.5" font-family="Helvetica,sans-Serif" font-size="10.00">+ operator=()</text>
<text text-anchor="start" x="192.5" y="-566.5" font-family="Helvetica,sans-Serif" font-size="10.00">+ getSockAddr()</text>
<text text-anchor="start" x="192.5" y="-555.5" font-family="Helvetica,sans-Serif" font-size="10.00">+ getSockAddrLen()</text>
<text text-anchor="start" x="192.5" y="-544.5" font-family="Helvetica,sans-Serif" font-size="10.00">+ toString()</text>
</a>
</g>
</g>
<!-- Node5&#45;&gt;Node4 -->
<g id="edge4" class="edge">
<title>Node5&#45;&gt;Node4</title>
<path fill="none" stroke="midnightblue" d="M253.5,-527.19C253.5,-514.31 253.5,-501.14 253.5,-488.68"/>
<polygon fill="none" stroke="midnightblue" points="250,-527.43 253.5,-537.43 257,-527.43 250,-527.43"/>
</g>
<!-- Node6 -->
<g id="node6" class="node">
<title>Node6</title>
<g id="a_node6"><a xlink:href="classnet_1_1socket_1_1_socket_address.html" target="_top" xlink:title=" ">
<polygon fill="white" stroke="black" points="184.5,-730.5 184.5,-875.5 322.5,-875.5 322.5,-730.5 184.5,-730.5"/>
<text text-anchor="start" x="192.5" y="-863.5" font-family="Helvetica,sans-Serif" font-size="10.00">net::socket::SocketAddress</text>
<text text-anchor="middle" x="253.5" y="-852.5" font-family="Helvetica,sans-Serif" font-size="10.00">&lt; SockAddrT &gt;</text>
<polyline fill="none" stroke="black" points="184.5,-845.5 322.5,-845.5 "/>
<text text-anchor="start" x="192.5" y="-833.5" font-family="Helvetica,sans-Serif" font-size="10.00"># sockAddr</text>
<polyline fill="none" stroke="black" points="184.5,-826.5 322.5,-826.5 "/>
<text text-anchor="start" x="192.5" y="-814.5" font-family="Helvetica,sans-Serif" font-size="10.00">+ SocketAddress()</text>
<text text-anchor="start" x="192.5" y="-803.5" font-family="Helvetica,sans-Serif" font-size="10.00">+ SocketAddress()</text>
<text text-anchor="start" x="192.5" y="-792.5" font-family="Helvetica,sans-Serif" font-size="10.00">+ SocketAddress()</text>
<text text-anchor="start" x="192.5" y="-781.5" font-family="Helvetica,sans-Serif" font-size="10.00">+ operator=()</text>
<text text-anchor="start" x="192.5" y="-770.5" font-family="Helvetica,sans-Serif" font-size="10.00">+ operator=()</text>
<text text-anchor="start" x="192.5" y="-759.5" font-family="Helvetica,sans-Serif" font-size="10.00">+ getSockAddr()</text>
<text text-anchor="start" x="192.5" y="-748.5" font-family="Helvetica,sans-Serif" font-size="10.00">+ getSockAddrLen()</text>
<text text-anchor="start" x="192.5" y="-737.5" font-family="Helvetica,sans-Serif" font-size="10.00">+ toString()</text>
</a>
</g>
</g>
<!-- Node6&#45;&gt;Node5 -->
<g id="edge5" class="edge">
<title>Node6&#45;&gt;Node5</title>
<path fill="none" stroke="orange" d="M253.5,-720.01C253.5,-707.62 253.5,-694.91 253.5,-682.75"/>
<polygon fill="orange" stroke="orange" points="250,-720.34 253.5,-730.34 257,-720.34 250,-720.34"/>
<text text-anchor="middle" x="305" y="-704" font-family="Helvetica,sans-Serif" font-size="10.00"> &lt; struct sockaddr_rc &gt;</text>
</g>
<!-- Node7&#45;&gt;Node2 -->
<g id="edge6" class="edge">
<title>Node7&#45;&gt;Node2</title>
<path fill="none" stroke="orange" d="M93.97,-333.25C93.8,-330.47 93.64,-327.71 93.5,-325 93.01,-315.49 92.67,-305.5 92.45,-295.6"/>
<polygon fill="orange" stroke="orange" points="90.49,-333.66 94.67,-343.4 97.48,-333.18 90.49,-333.66"/>
<text text-anchor="middle" x="162.5" y="-317" font-family="Helvetica,sans-Serif" font-size="10.00"> &lt; address::RfCommAddress &gt;</text>
</g>
</g>
</svg>
