<?xml version="1.0" encoding="UTF-8" standalone="no"?>
<!DOCTYPE svg PUBLIC "-//W3C//DTD SVG 1.1//EN"
 "http://www.w3.org/Graphics/SVG/1.1/DTD/svg11.dtd">
<!-- Generated by graphviz version 2.43.0 (0)
 -->
<!-- Title: net::socket::SocketAddress&lt; SockAddrT &gt; Pages: 1 -->
<svg width="317pt" height="442pt"
 viewBox="0.00 0.00 317.00 442.00" xmlns="http://www.w3.org/2000/svg" xmlns:xlink="http://www.w3.org/1999/xlink">
<g id="graph0" class="graph" transform="scale(1 1) rotate(0) translate(4 438)">
<title>net::socket::SocketAddress&lt; SockAddrT &gt;</title>
<polygon fill="white" stroke="transparent" points="-4,4 -4,-438 313,-438 313,4 -4,4"/>
<!-- Node1 -->
<g id="node1" class="node">
<title>Node1</title>
<g id="a_node1"><a xlink:title=" ">
<polygon fill="#bfbfbf" stroke="black" points="77,-354.5 77,-433.5 215,-433.5 215,-354.5 77,-354.5"/>
<text text-anchor="start" x="85" y="-421.5" font-family="Helvetica,sans-Serif" font-size="10.00">net::socket::SocketAddress</text>
<text text-anchor="middle" x="146" y="-410.5" font-family="Helvetica,sans-Serif" font-size="10.00">&lt; SockAddrT &gt;</text>
<polyline fill="none" stroke="black" points="77,-403.5 215,-403.5 "/>
<text text-anchor="start" x="85" y="-391.5" font-family="Helvetica,sans-Serif" font-size="10.00"># sockAddr</text>
<polyline fill="none" stroke="black" points="77,-384.5 215,-384.5 "/>
<text text-anchor="start" x="85" y="-372.5" font-family="Helvetica,sans-Serif" font-size="10.00">+ getSockAddr()</text>
<text text-anchor="start" x="85" y="-361.5" font-family="Helvetica,sans-Serif" font-size="10.00">+ getSockAddrLen()</text>
</a>
</g>
</g>
<!-- Node2 -->
<g id="node2" class="node">
<title>Node2</title>
<g id="a_node2"><a xlink:href="classnet_1_1socket_1_1_socket_address.html" target="_top" xlink:title=" ">
<polygon fill="white" stroke="black" points="0,-227.5 0,-306.5 138,-306.5 138,-227.5 0,-227.5"/>
<text text-anchor="start" x="8" y="-294.5" font-family="Helvetica,sans-Serif" font-size="10.00">net::socket::SocketAddress</text>
<text text-anchor="middle" x="69" y="-283.5" font-family="Helvetica,sans-Serif" font-size="10.00">&lt; struct sockaddr_in &gt;</text>
<polyline fill="none" stroke="black" points="0,-276.5 138,-276.5 "/>
<text text-anchor="start" x="8" y="-264.5" font-family="Helvetica,sans-Serif" font-size="10.00"># sockAddr</text>
<polyline fill="none" stroke="black" points="0,-257.5 138,-257.5 "/>
<text text-anchor="start" x="8" y="-245.5" font-family="Helvetica,sans-Serif" font-size="10.00">+ getSockAddr()</text>
<text text-anchor="start" x="8" y="-234.5" font-family="Helvetica,sans-Serif" font-size="10.00">+ getSockAddrLen()</text>
</a>
</g>
</g>
<!-- Node1&#45;&gt;Node2 -->
<g id="edge1" class="edge">
<title>Node1&#45;&gt;Node2</title>
<path fill="none" stroke="orange" d="M99.8,-346.12C97.36,-342.8 95.07,-339.41 93,-336 87.56,-327 83.1,-316.59 79.57,-306.66"/>
<polygon fill="orange" stroke="orange" points="97.21,-348.49 106.14,-354.2 102.72,-344.17 97.21,-348.49"/>
<text text-anchor="middle" x="144" y="-328" font-family="Helvetica,sans-Serif" font-size="10.00"> &lt; struct sockaddr_in &gt;</text>
</g>
<!-- Node4 -->
<g id="node4" class="node">
<title>Node4</title>
<g id="a_node4"><a xlink:href="classnet_1_1socket_1_1_socket_address.html" target="_top" xlink:title=" ">
<polygon fill="white" stroke="black" points="156,-227.5 156,-306.5 294,-306.5 294,-227.5 156,-227.5"/>
<text text-anchor="start" x="164" y="-294.5" font-family="Helvetica,sans-Serif" font-size="10.00">net::socket::SocketAddress</text>
<text text-anchor="middle" x="225" y="-283.5" font-family="Helvetica,sans-Serif" font-size="10.00">&lt; struct sockaddr_in6 &gt;</text>
<polyline fill="none" stroke="black" points="156,-276.5 294,-276.5 "/>
<text text-anchor="start" x="164" y="-264.5" font-family="Helvetica,sans-Serif" font-size="10.00"># sockAddr</text>
<polyline fill="none" stroke="black" points="156,-257.5 294,-257.5 "/>
<text text-anchor="start" x="164" y="-245.5" font-family="Helvetica,sans-Serif" font-size="10.00">+ getSockAddr()</text>
<text text-anchor="start" x="164" y="-234.5" font-family="Helvetica,sans-Serif" font-size="10.00">+ getSockAddrLen()</text>
</a>
</g>
</g>
<!-- Node1&#45;&gt;Node4 -->
<g id="edge3" class="edge">
<title>Node1&#45;&gt;Node4</title>
<path fill="none" stroke="orange" d="M188.11,-346.11C190.54,-342.77 192.87,-339.38 195,-336 200.71,-326.94 205.88,-316.61 210.24,-306.78"/>
<polygon fill="orange" stroke="orange" points="185.14,-344.23 181.85,-354.31 190.7,-348.48 185.14,-344.23"/>
<text text-anchor="middle" x="255.5" y="-328" font-family="Helvetica,sans-Serif" font-size="10.00"> &lt; struct sockaddr_in6 &gt;</text>
</g>
<!-- Node3 -->
<g id="node3" class="node">
<title>Node3</title>
<g id="a_node3"><a xlink:href="classnet_1_1socket_1_1ipv4_1_1_inet_address.html" target="_top" xlink:title=" ">
<polygon fill="white" stroke="black" points="21,-0.5 21,-189.5 117,-189.5 117,-0.5 21,-0.5"/>
<text text-anchor="start" x="29" y="-177.5" font-family="Helvetica,sans-Serif" font-size="10.00">net::socket::ipv4::</text>
<text text-anchor="middle" x="69" y="-166.5" font-family="Helvetica,sans-Serif" font-size="10.00">InetAddress</text>
<polyline fill="none" stroke="black" points="21,-159.5 117,-159.5 "/>
<text text-anchor="middle" x="69" y="-147.5" font-family="Helvetica,sans-Serif" font-size="10.00"> </text>
<polyline fill="none" stroke="black" points="21,-140.5 117,-140.5 "/>
<text text-anchor="start" x="29" y="-128.5" font-family="Helvetica,sans-Serif" font-size="10.00">+ InetAddress()</text>
<text text-anchor="start" x="29" y="-117.5" font-family="Helvetica,sans-Serif" font-size="10.00">+ InetAddress()</text>
<text text-anchor="start" x="29" y="-106.5" font-family="Helvetica,sans-Serif" font-size="10.00">+ InetAddress()</text>
<text text-anchor="start" x="29" y="-95.5" font-family="Helvetica,sans-Serif" font-size="10.00">+ InetAddress()</text>
<text text-anchor="start" x="29" y="-84.5" font-family="Helvetica,sans-Serif" font-size="10.00">+ InetAddress()</text>
<text text-anchor="start" x="29" y="-73.5" font-family="Helvetica,sans-Serif" font-size="10.00">+ InetAddress()</text>
<text text-anchor="start" x="29" y="-62.5" font-family="Helvetica,sans-Serif" font-size="10.00">+ port()</text>
<text text-anchor="start" x="29" y="-51.5" font-family="Helvetica,sans-Serif" font-size="10.00">+ host()</text>
<text text-anchor="start" x="29" y="-40.5" font-family="Helvetica,sans-Serif" font-size="10.00">+ ip()</text>
<text text-anchor="start" x="29" y="-29.5" font-family="Helvetica,sans-Serif" font-size="10.00">+ serv()</text>
<text text-anchor="start" x="29" y="-18.5" font-family="Helvetica,sans-Serif" font-size="10.00">+ operator=()</text>
<text text-anchor="start" x="29" y="-7.5" font-family="Helvetica,sans-Serif" font-size="10.00">+ getSockAddrIn()</text>
</a>
</g>
</g>
<!-- Node2&#45;&gt;Node3 -->
<g id="edge2" class="edge">
<title>Node2&#45;&gt;Node3</title>
<path fill="none" stroke="midnightblue" d="M69,-217.4C69,-208.58 69,-199.12 69,-189.51"/>
<polygon fill="none" stroke="midnightblue" points="65.5,-217.42 69,-227.42 72.5,-217.42 65.5,-217.42"/>
</g>
<!-- Node5 -->
<g id="node5" class="node">
<title>Node5</title>
<g id="a_node5"><a xlink:href="classnet_1_1socket_1_1ipv6_1_1_inet_address.html" target="_top" xlink:title=" ">
<polygon fill="white" stroke="black" points="174.5,-0.5 174.5,-189.5 275.5,-189.5 275.5,-0.5 174.5,-0.5"/>
<text text-anchor="start" x="182.5" y="-177.5" font-family="Helvetica,sans-Serif" font-size="10.00">net::socket::ipv6::</text>
<text text-anchor="middle" x="225" y="-166.5" font-family="Helvetica,sans-Serif" font-size="10.00">InetAddress</text>
<polyline fill="none" stroke="black" points="174.5,-159.5 275.5,-159.5 "/>
<text text-anchor="middle" x="225" y="-147.5" font-family="Helvetica,sans-Serif" font-size="10.00"> </text>
<polyline fill="none" stroke="black" points="174.5,-140.5 275.5,-140.5 "/>
<text text-anchor="start" x="182.5" y="-128.5" font-family="Helvetica,sans-Serif" font-size="10.00">+ InetAddress()</text>
<text text-anchor="start" x="182.5" y="-117.5" font-family="Helvetica,sans-Serif" font-size="10.00">+ InetAddress()</text>
<text text-anchor="start" x="182.5" y="-106.5" font-family="Helvetica,sans-Serif" font-size="10.00">+ InetAddress()</text>
<text text-anchor="start" x="182.5" y="-95.5" font-family="Helvetica,sans-Serif" font-size="10.00">+ InetAddress()</text>
<text text-anchor="start" x="182.5" y="-84.5" font-family="Helvetica,sans-Serif" font-size="10.00">+ InetAddress()</text>
<text text-anchor="start" x="182.5" y="-73.5" font-family="Helvetica,sans-Serif" font-size="10.00">+ InetAddress()</text>
<text text-anchor="start" x="182.5" y="-62.5" font-family="Helvetica,sans-Serif" font-size="10.00">+ port()</text>
<text text-anchor="start" x="182.5" y="-51.5" font-family="Helvetica,sans-Serif" font-size="10.00">+ host()</text>
<text text-anchor="start" x="182.5" y="-40.5" font-family="Helvetica,sans-Serif" font-size="10.00">+ ip()</text>
<text text-anchor="start" x="182.5" y="-29.5" font-family="Helvetica,sans-Serif" font-size="10.00">+ serv()</text>
<text text-anchor="start" x="182.5" y="-18.5" font-family="Helvetica,sans-Serif" font-size="10.00">+ operator=()</text>
<text text-anchor="start" x="182.5" y="-7.5" font-family="Helvetica,sans-Serif" font-size="10.00">+ getSockAddrIn6()</text>
</a>
</g>
</g>
<!-- Node4&#45;&gt;Node5 -->
<g id="edge4" class="edge">
<title>Node4&#45;&gt;Node5</title>
<path fill="none" stroke="midnightblue" d="M225,-217.4C225,-208.58 225,-199.12 225,-189.51"/>
<polygon fill="none" stroke="midnightblue" points="221.5,-217.42 225,-227.42 228.5,-217.42 221.5,-217.42"/>
</g>
</g>
</svg>
