<?xml version="1.0" encoding="UTF-8" standalone="no"?>
<!DOCTYPE svg PUBLIC "-//W3C//DTD SVG 1.1//EN"
 "http://www.w3.org/Graphics/SVG/1.1/DTD/svg11.dtd">
<!-- Generated by graphviz version 2.43.0 (0)
 -->
<!-- Title: net::AcceptEventReceiver::disable Pages: 1 -->
<svg width="466pt" height="151pt"
 viewBox="0.00 0.00 466.00 150.50" xmlns="http://www.w3.org/2000/svg" xmlns:xlink="http://www.w3.org/1999/xlink">
<g id="graph0" class="graph" transform="scale(1 1) rotate(0) translate(4 146.5)">
<title>net::AcceptEventReceiver::disable</title>
<polygon fill="white" stroke="transparent" points="-4,4 -4,-146.5 462,-146.5 462,4 -4,4"/>
<!-- Node1 -->
<g id="node1" class="node">
<title>Node1</title>
<g id="a_node1"><a xlink:title=" ">
<polygon fill="#bfbfbf" stroke="black" points="0,-39 0,-69 131,-69 131,-39 0,-39"/>
<text text-anchor="start" x="8" y="-57" font-family="Helvetica,sans-Serif" font-size="10.00">net::AcceptEventReceiver</text>
<text text-anchor="middle" x="65.5" y="-46" font-family="Helvetica,sans-Serif" font-size="10.00">::disable</text>
</a>
</g>
</g>
<!-- Node2 -->
<g id="node2" class="node">
<title>Node2</title>
<g id="a_node2"><a xlink:href="classnet_1_1_descriptor_event_dispatcher.html#a932691d58d6dc1a4c3ad5ebd652d9440" target="_top" xlink:title=" ">
<polygon fill="white" stroke="black" points="167,-88 167,-118 321,-118 321,-88 167,-88"/>
<text text-anchor="start" x="175" y="-106" font-family="Helvetica,sans-Serif" font-size="10.00">net::DescriptorEventDispatcher</text>
<text text-anchor="middle" x="244" y="-95" font-family="Helvetica,sans-Serif" font-size="10.00">::disable</text>
</a>
</g>
</g>
<!-- Node1&#45;&gt;Node2 -->
<g id="edge1" class="edge">
<title>Node1&#45;&gt;Node2</title>
<path fill="none" stroke="midnightblue" d="M120.9,-69.1C139.27,-74.2 159.95,-79.94 178.99,-85.23"/>
<polygon fill="midnightblue" stroke="midnightblue" points="178.21,-88.65 188.78,-87.95 180.08,-81.9 178.21,-88.65"/>
</g>
<!-- Node5 -->
<g id="node5" class="node">
<title>Node5</title>
<g id="a_node5"><a xlink:href="classnet_1_1_event_loop.html#ace10fc7540ecf33dbd7efeb50f2a6a4d" target="_top" xlink:title=" ">
<polygon fill="white" stroke="black" points="168.5,-39 168.5,-69 319.5,-69 319.5,-39 168.5,-39"/>
<text text-anchor="start" x="176.5" y="-57" font-family="Helvetica,sans-Serif" font-size="10.00">net::EventLoop::getReadEvent</text>
<text text-anchor="middle" x="244" y="-46" font-family="Helvetica,sans-Serif" font-size="10.00">Dispatcher</text>
</a>
</g>
</g>
<!-- Node1&#45;&gt;Node5 -->
<g id="edge4" class="edge">
<title>Node1&#45;&gt;Node5</title>
<path fill="none" stroke="midnightblue" d="M131.22,-54C140.01,-54 149.14,-54 158.22,-54"/>
<polygon fill="midnightblue" stroke="midnightblue" points="158.43,-57.5 168.43,-54 158.43,-50.5 158.43,-57.5"/>
</g>
<!-- Node6 -->
<g id="node6" class="node">
<title>Node6</title>
<g id="a_node6"><a xlink:href="classnet_1_1_event_loop.html#a6d8bfd6fa03bb6bf423035ab190657ef" target="_top" xlink:title=" ">
<polygon fill="white" stroke="black" points="181.5,-0.5 181.5,-19.5 306.5,-19.5 306.5,-0.5 181.5,-0.5"/>
<text text-anchor="middle" x="244" y="-7.5" font-family="Helvetica,sans-Serif" font-size="10.00">net::EventLoop::instance</text>
</a>
</g>
</g>
<!-- Node1&#45;&gt;Node6 -->
<g id="edge5" class="edge">
<title>Node1&#45;&gt;Node6</title>
<path fill="none" stroke="midnightblue" d="M126.75,-38.98C148.98,-33.44 173.85,-27.24 194.86,-22"/>
<polygon fill="midnightblue" stroke="midnightblue" points="195.99,-25.33 204.84,-19.51 194.29,-18.54 195.99,-25.33"/>
</g>
<!-- Node3 -->
<g id="node3" class="node">
<title>Node3</title>
<g id="a_node3"><a xlink:href="classnet_1_1_event_receiver.html#a26548a33372081c52eff4df128fa573f" target="_top" xlink:title=" ">
<polygon fill="white" stroke="black" points="357,-112 357,-142 458,-142 458,-112 357,-112"/>
<text text-anchor="start" x="365" y="-130" font-family="Helvetica,sans-Serif" font-size="10.00">net::EventReceiver</text>
<text text-anchor="middle" x="407.5" y="-119" font-family="Helvetica,sans-Serif" font-size="10.00">::disabled</text>
</a>
</g>
</g>
<!-- Node2&#45;&gt;Node3 -->
<g id="edge2" class="edge">
<title>Node2&#45;&gt;Node3</title>
<path fill="none" stroke="midnightblue" d="M321.02,-114.3C329.63,-115.58 338.31,-116.87 346.67,-118.11"/>
<polygon fill="midnightblue" stroke="midnightblue" points="346.27,-121.59 356.68,-119.6 347.3,-114.66 346.27,-121.59"/>
</g>
<!-- Node4 -->
<g id="node4" class="node">
<title>Node4</title>
<g id="a_node4"><a xlink:href="classnet_1_1_event_receiver.html#ac4e3a75a2849d0d8b1fc4ba2b754c8e3" target="_top" xlink:title=" ">
<polygon fill="white" stroke="black" points="357,-63 357,-93 458,-93 458,-63 357,-63"/>
<text text-anchor="start" x="365" y="-81" font-family="Helvetica,sans-Serif" font-size="10.00">net::EventReceiver</text>
<text text-anchor="middle" x="407.5" y="-70" font-family="Helvetica,sans-Serif" font-size="10.00">::isEnabled</text>
</a>
</g>
</g>
<!-- Node2&#45;&gt;Node4 -->
<g id="edge3" class="edge">
<title>Node2&#45;&gt;Node4</title>
<path fill="none" stroke="midnightblue" d="M321.02,-91.23C329.63,-89.9 338.31,-88.56 346.67,-87.26"/>
<polygon fill="midnightblue" stroke="midnightblue" points="347.33,-90.7 356.68,-85.71 346.26,-83.78 347.33,-90.7"/>
</g>
</g>
</svg>
