<?xml version="1.0" encoding="UTF-8" standalone="no"?>
<!DOCTYPE svg PUBLIC "-//W3C//DTD SVG 1.1//EN"
 "http://www.w3.org/Graphics/SVG/1.1/DTD/svg11.dtd">
<!-- Generated by graphviz version 2.43.0 (0)
 -->
<!-- Title: net::socket::Socket::bind Pages: 1 -->
<svg width="295pt" height="154pt"
 viewBox="0.00 0.00 295.00 154.00" xmlns="http://www.w3.org/2000/svg" xmlns:xlink="http://www.w3.org/1999/xlink">
<g id="graph0" class="graph" transform="scale(1 1) rotate(0) translate(4 150)">
<title>net::socket::Socket::bind</title>
<polygon fill="white" stroke="transparent" points="-4,4 -4,-150 291,-150 291,4 -4,4"/>
<!-- Node1 -->
<g id="node1" class="node">
<title>Node1</title>
<g id="a_node1"><a xlink:title=" ">
<polygon fill="#bfbfbf" stroke="black" points="185,-58 185,-88 287,-88 287,-58 185,-58"/>
<text text-anchor="start" x="193" y="-76" font-family="Helvetica,sans-Serif" font-size="10.00">net::socket::Socket</text>
<text text-anchor="middle" x="236" y="-65" font-family="Helvetica,sans-Serif" font-size="10.00">::bind</text>
</a>
</g>
</g>
<!-- Node1&#45;&gt;Node1 -->
<g id="edge1" class="edge">
<title>Node1&#45;&gt;Node1</title>
<path fill="none" stroke="midnightblue" d="M264.43,-98.46C260.9,-103.18 251.42,-106.5 236,-106.5 210.69,-106.5 201.39,-97.56 208.12,-88.16"/>
<polygon fill="midnightblue" stroke="midnightblue" points="267.91,-97.96 263.88,-88.16 260.92,-98.33 267.91,-97.96"/>
</g>
<!-- Node2 -->
<g id="node2" class="node">
<title>Node2</title>
<g id="a_node2"><a xlink:href="classnet_1_1socket_1_1stream_1_1_socket_connector.html#ab60d4ae33dd6f52f4bc3fd629bba4ddf" target="_top" xlink:title=" ">
<polygon fill="white" stroke="black" points="0,-82.5 0,-145.5 149,-145.5 149,-82.5 0,-82.5"/>
<text text-anchor="start" x="8" y="-133.5" font-family="Helvetica,sans-Serif" font-size="10.00">net::socket::stream</text>
<text text-anchor="start" x="8" y="-122.5" font-family="Helvetica,sans-Serif" font-size="10.00">::SocketConnector&lt; net</text>
<text text-anchor="start" x="8" y="-111.5" font-family="Helvetica,sans-Serif" font-size="10.00">::socket::stream::tls</text>
<text text-anchor="start" x="8" y="-100.5" font-family="Helvetica,sans-Serif" font-size="10.00">::SocketConnection&lt; SocketT</text>
<text text-anchor="middle" x="74.5" y="-89.5" font-family="Helvetica,sans-Serif" font-size="10.00"> &gt; &gt;::connect</text>
</a>
</g>
</g>
<!-- Node1&#45;&gt;Node2 -->
<g id="edge2" class="edge">
<title>Node1&#45;&gt;Node2</title>
<path fill="none" stroke="midnightblue" d="M175.14,-88.39C166.61,-90.58 157.76,-92.86 149.01,-95.1"/>
<polygon fill="midnightblue" stroke="midnightblue" points="176.16,-91.74 184.97,-85.86 174.41,-84.96 176.16,-91.74"/>
</g>
<!-- Node3 -->
<g id="node3" class="node">
<title>Node3</title>
<g id="a_node3"><a xlink:href="classnet_1_1socket_1_1stream_1_1_socket_listener.html#a65a56ae174b82842b81b1e7c2f1a5a34" target="_top" xlink:title=" ">
<polygon fill="white" stroke="black" points="0,-0.5 0,-63.5 149,-63.5 149,-0.5 0,-0.5"/>
<text text-anchor="start" x="8" y="-51.5" font-family="Helvetica,sans-Serif" font-size="10.00">net::socket::stream</text>
<text text-anchor="start" x="8" y="-40.5" font-family="Helvetica,sans-Serif" font-size="10.00">::SocketListener&lt; net</text>
<text text-anchor="start" x="8" y="-29.5" font-family="Helvetica,sans-Serif" font-size="10.00">::socket::stream::tls</text>
<text text-anchor="start" x="8" y="-18.5" font-family="Helvetica,sans-Serif" font-size="10.00">::SocketConnection&lt; SocketT</text>
<text text-anchor="middle" x="74.5" y="-7.5" font-family="Helvetica,sans-Serif" font-size="10.00"> &gt; &gt;::listen</text>
</a>
</g>
</g>
<!-- Node1&#45;&gt;Node3 -->
<g id="edge3" class="edge">
<title>Node1&#45;&gt;Node3</title>
<path fill="none" stroke="midnightblue" d="M175.14,-57.61C166.61,-55.42 157.76,-53.14 149.01,-50.9"/>
<polygon fill="midnightblue" stroke="midnightblue" points="174.41,-61.04 184.97,-60.14 176.16,-54.26 174.41,-61.04"/>
</g>
</g>
</svg>
