<?xml version="1.0" encoding="UTF-8" standalone="no"?>
<!DOCTYPE svg PUBLIC "-//W3C//DTD SVG 1.1//EN"
 "http://www.w3.org/Graphics/SVG/1.1/DTD/svg11.dtd">
<!-- Generated by graphviz version 2.43.0 (0)
 -->
<!-- Title: express::legacy::WebApp Pages: 1 -->
<svg width="592pt" height="1952pt"
 viewBox="0.00 0.00 591.50 1952.00" xmlns="http://www.w3.org/2000/svg" xmlns:xlink="http://www.w3.org/1999/xlink">
<g id="graph0" class="graph" transform="scale(1 1) rotate(0) translate(4 1948)">
<title>express::legacy::WebApp</title>
<polygon fill="white" stroke="transparent" points="-4,4 -4,-1948 587.5,-1948 587.5,4 -4,4"/>
<!-- Node1 -->
<g id="node1" class="node">
<title>Node1</title>
<g id="a_node1"><a xlink:title=" ">
<polygon fill="#bfbfbf" stroke="black" points="78.5,-0.5 78.5,-57.5 206.5,-57.5 206.5,-0.5 78.5,-0.5"/>
<text text-anchor="middle" x="142.5" y="-45.5" font-family="Helvetica,sans-Serif" font-size="10.00">express::legacy::WebApp</text>
<polyline fill="none" stroke="black" points="78.5,-38.5 206.5,-38.5 "/>
<text text-anchor="middle" x="142.5" y="-26.5" font-family="Helvetica,sans-Serif" font-size="10.00"> </text>
<polyline fill="none" stroke="black" points="78.5,-19.5 206.5,-19.5 "/>
<text text-anchor="middle" x="142.5" y="-7.5" font-family="Helvetica,sans-Serif" font-size="10.00"> </text>
</a>
</g>
</g>
<!-- Node2 -->
<g id="node2" class="node">
<title>Node2</title>
<g id="a_node2"><a xlink:href="classexpress_1_1_web_app_t.html" target="_top" xlink:title=" ">
<polygon fill="white" stroke="black" points="58.5,-95.5 58.5,-240.5 226.5,-240.5 226.5,-95.5 58.5,-95.5"/>
<text text-anchor="start" x="66.5" y="-228.5" font-family="Helvetica,sans-Serif" font-size="10.00">express::WebAppT&lt; http</text>
<text text-anchor="start" x="66.5" y="-217.5" font-family="Helvetica,sans-Serif" font-size="10.00">::legacy::Server&lt; express</text>
<text text-anchor="middle" x="142.5" y="-206.5" font-family="Helvetica,sans-Serif" font-size="10.00">::Request, express::Response &gt; &gt;</text>
<polyline fill="none" stroke="black" points="58.5,-199.5 226.5,-199.5 "/>
<text text-anchor="start" x="66.5" y="-187.5" font-family="Helvetica,sans-Serif" font-size="10.00"># _onConnect</text>
<text text-anchor="start" x="66.5" y="-176.5" font-family="Helvetica,sans-Serif" font-size="10.00"># _onDisconnect</text>
<polyline fill="none" stroke="black" points="58.5,-169.5 226.5,-169.5 "/>
<text text-anchor="start" x="66.5" y="-157.5" font-family="Helvetica,sans-Serif" font-size="10.00">+ WebAppT()</text>
<text text-anchor="start" x="66.5" y="-146.5" font-family="Helvetica,sans-Serif" font-size="10.00">+ WebAppT()</text>
<text text-anchor="start" x="66.5" y="-135.5" font-family="Helvetica,sans-Serif" font-size="10.00">+ listen()</text>
<text text-anchor="start" x="66.5" y="-124.5" font-family="Helvetica,sans-Serif" font-size="10.00">+ listen()</text>
<text text-anchor="start" x="66.5" y="-113.5" font-family="Helvetica,sans-Serif" font-size="10.00">+ onConnect()</text>
<text text-anchor="start" x="66.5" y="-102.5" font-family="Helvetica,sans-Serif" font-size="10.00">+ onDisconnect()</text>
</a>
</g>
</g>
<!-- Node2&#45;&gt;Node1 -->
<g id="edge1" class="edge">
<title>Node2&#45;&gt;Node1</title>
<path fill="none" stroke="midnightblue" d="M142.5,-85.04C142.5,-75.31 142.5,-65.95 142.5,-57.8"/>
<polygon fill="none" stroke="midnightblue" points="139,-85.29 142.5,-95.29 146,-85.29 139,-85.29"/>
</g>
<!-- Node3 -->
<g id="node3" class="node">
<title>Node3</title>
<g id="a_node3"><a xlink:href="classexpress_1_1_web_app.html" target="_top" xlink:title=" ">
<polygon fill="white" stroke="black" points="0.5,-503.5 0.5,-615.5 94.5,-615.5 94.5,-503.5 0.5,-503.5"/>
<text text-anchor="middle" x="47.5" y="-603.5" font-family="Helvetica,sans-Serif" font-size="10.00">express::WebApp</text>
<polyline fill="none" stroke="black" points="0.5,-596.5 94.5,-596.5 "/>
<text text-anchor="start" x="8.5" y="-584.5" font-family="Helvetica,sans-Serif" font-size="10.00">&#45; initialized</text>
<polyline fill="none" stroke="black" points="0.5,-577.5 94.5,-577.5 "/>
<text text-anchor="start" x="8.5" y="-565.5" font-family="Helvetica,sans-Serif" font-size="10.00">+ init()</text>
<text text-anchor="start" x="8.5" y="-554.5" font-family="Helvetica,sans-Serif" font-size="10.00">+ start()</text>
<text text-anchor="start" x="8.5" y="-543.5" font-family="Helvetica,sans-Serif" font-size="10.00">+ stop()</text>
<text text-anchor="start" x="8.5" y="-532.5" font-family="Helvetica,sans-Serif" font-size="10.00"># WebApp()</text>
<text text-anchor="start" x="8.5" y="-521.5" font-family="Helvetica,sans-Serif" font-size="10.00"># listen()</text>
<text text-anchor="start" x="8.5" y="-510.5" font-family="Helvetica,sans-Serif" font-size="10.00"># listen()</text>
</a>
</g>
</g>
<!-- Node3&#45;&gt;Node2 -->
<g id="edge2" class="edge">
<title>Node3&#45;&gt;Node2</title>
<path fill="none" stroke="midnightblue" d="M41.39,-493.18C38.69,-442.2 39.46,-370.17 57.5,-310 64.68,-286.04 76.89,-261.99 89.84,-240.71"/>
<polygon fill="none" stroke="midnightblue" points="37.91,-493.63 42,-503.41 44.9,-493.22 37.91,-493.63"/>
</g>
<!-- Node16 -->
<g id="node16" class="node">
<title>Node16</title>
<g id="a_node16"><a xlink:href="classexpress_1_1_web_app_t.html" target="_top" xlink:title=" ">
<polygon fill="white" stroke="black" points="66.5,-310.5 66.5,-444.5 218.5,-444.5 218.5,-310.5 66.5,-310.5"/>
<text text-anchor="middle" x="142.5" y="-432.5" font-family="Helvetica,sans-Serif" font-size="10.00">express::WebAppT&lt; ServerT &gt;</text>
<polyline fill="none" stroke="black" points="66.5,-425.5 218.5,-425.5 "/>
<text text-anchor="start" x="74.5" y="-413.5" font-family="Helvetica,sans-Serif" font-size="10.00"># server</text>
<text text-anchor="start" x="74.5" y="-402.5" font-family="Helvetica,sans-Serif" font-size="10.00"># _onConnect</text>
<text text-anchor="start" x="74.5" y="-391.5" font-family="Helvetica,sans-Serif" font-size="10.00"># _onDisconnect</text>
<polyline fill="none" stroke="black" points="66.5,-384.5 218.5,-384.5 "/>
<text text-anchor="start" x="74.5" y="-372.5" font-family="Helvetica,sans-Serif" font-size="10.00">+ WebAppT()</text>
<text text-anchor="start" x="74.5" y="-361.5" font-family="Helvetica,sans-Serif" font-size="10.00">+ WebAppT()</text>
<text text-anchor="start" x="74.5" y="-350.5" font-family="Helvetica,sans-Serif" font-size="10.00">+ listen()</text>
<text text-anchor="start" x="74.5" y="-339.5" font-family="Helvetica,sans-Serif" font-size="10.00">+ listen()</text>
<text text-anchor="start" x="74.5" y="-328.5" font-family="Helvetica,sans-Serif" font-size="10.00">+ onConnect()</text>
<text text-anchor="start" x="74.5" y="-317.5" font-family="Helvetica,sans-Serif" font-size="10.00">+ onDisconnect()</text>
</a>
</g>
</g>
<!-- Node3&#45;&gt;Node16 -->
<g id="edge19" class="edge">
<title>Node3&#45;&gt;Node16</title>
<path fill="none" stroke="midnightblue" d="M81.67,-493.76C90.11,-477.76 99.17,-460.6 107.64,-444.54"/>
<polygon fill="none" stroke="midnightblue" points="78.35,-492.55 76.78,-503.03 84.54,-495.82 78.35,-492.55"/>
</g>
<!-- Node4 -->
<g id="node4" class="node">
<title>Node4</title>
<g id="a_node4"><a xlink:href="classexpress_1_1_router.html" target="_top" xlink:title=" ">
<polygon fill="white" stroke="black" points="0,-653.5 0,-864.5 95,-864.5 95,-653.5 0,-653.5"/>
<text text-anchor="middle" x="47.5" y="-852.5" font-family="Helvetica,sans-Serif" font-size="10.00">express::Router</text>
<polyline fill="none" stroke="black" points="0,-845.5 95,-845.5 "/>
<text text-anchor="start" x="8" y="-833.5" font-family="Helvetica,sans-Serif" font-size="10.00">&#45; reqestMap</text>
<text text-anchor="start" x="8" y="-822.5" font-family="Helvetica,sans-Serif" font-size="10.00">&#45; responseMap</text>
<text text-anchor="start" x="8" y="-811.5" font-family="Helvetica,sans-Serif" font-size="10.00">&#45; routerDispatcher</text>
<polyline fill="none" stroke="black" points="0,-804.5 95,-804.5 "/>
<text text-anchor="start" x="8" y="-792.5" font-family="Helvetica,sans-Serif" font-size="10.00">+ Router()</text>
<text text-anchor="start" x="8" y="-781.5" font-family="Helvetica,sans-Serif" font-size="10.00">+ Router()</text>
<text text-anchor="start" x="8" y="-770.5" font-family="Helvetica,sans-Serif" font-size="10.00">+ operator=()</text>
<text text-anchor="start" x="8" y="-759.5" font-family="Helvetica,sans-Serif" font-size="10.00">+ use()</text>
<text text-anchor="start" x="8" y="-748.5" font-family="Helvetica,sans-Serif" font-size="10.00">+ use()</text>
<text text-anchor="start" x="8" y="-737.5" font-family="Helvetica,sans-Serif" font-size="10.00">+ use()</text>
<text text-anchor="start" x="8" y="-726.5" font-family="Helvetica,sans-Serif" font-size="10.00">+ use()</text>
<text text-anchor="start" x="8" y="-715.5" font-family="Helvetica,sans-Serif" font-size="10.00">+ use()</text>
<text text-anchor="start" x="8" y="-704.5" font-family="Helvetica,sans-Serif" font-size="10.00">+ use()</text>
<text text-anchor="start" x="8" y="-693.5" font-family="Helvetica,sans-Serif" font-size="10.00">+ all()</text>
<text text-anchor="start" x="8" y="-682.5" font-family="Helvetica,sans-Serif" font-size="10.00">and 59 more...</text>
<text text-anchor="start" x="8" y="-671.5" font-family="Helvetica,sans-Serif" font-size="10.00"># dispatch()</text>
<text text-anchor="start" x="8" y="-660.5" font-family="Helvetica,sans-Serif" font-size="10.00"># completed()</text>
</a>
</g>
</g>
<!-- Node4&#45;&gt;Node3 -->
<g id="edge3" class="edge">
<title>Node4&#45;&gt;Node3</title>
<path fill="none" stroke="midnightblue" d="M47.5,-643.42C47.5,-633.83 47.5,-624.45 47.5,-615.65"/>
<polygon fill="none" stroke="midnightblue" points="44,-643.47 47.5,-653.47 51,-643.47 44,-643.47"/>
</g>
<!-- Node5 -->
<g id="node5" class="node">
<title>Node5</title>
<g id="a_node5"><a xlink:href="classhttp_1_1legacy_1_1_server.html" target="_top" xlink:title=" ">
<polygon fill="white" stroke="black" points="237,-338 237,-417 380,-417 380,-338 237,-338"/>
<text text-anchor="start" x="245" y="-405" font-family="Helvetica,sans-Serif" font-size="10.00">http::legacy::Server</text>
<text text-anchor="start" x="245" y="-394" font-family="Helvetica,sans-Serif" font-size="10.00">&lt; express::Request, express</text>
<text text-anchor="middle" x="308.5" y="-383" font-family="Helvetica,sans-Serif" font-size="10.00">::Response &gt;</text>
<polyline fill="none" stroke="black" points="237,-376 380,-376 "/>
<text text-anchor="middle" x="308.5" y="-364" font-family="Helvetica,sans-Serif" font-size="10.00"> </text>
<polyline fill="none" stroke="black" points="237,-357 380,-357 "/>
<text text-anchor="middle" x="308.5" y="-345" font-family="Helvetica,sans-Serif" font-size="10.00"> </text>
</a>
</g>
</g>
<!-- Node5&#45;&gt;Node2 -->
<g id="edge4" class="edge">
<title>Node5&#45;&gt;Node2</title>
<path fill="none" stroke="#404040" d="M303.72,-337.86C299.15,-313.41 290.35,-282.15 273.5,-259 263.34,-245.04 250.32,-232.53 236.45,-221.59"/>
<polygon fill="none" stroke="#404040" points="236.32,-221.5 229.12,-221.08 226.74,-214.28 233.94,-214.69 236.32,-221.5"/>
<text text-anchor="middle" x="308.5" y="-273" font-family="Helvetica,sans-Serif" font-size="10.00"> #server</text>
</g>
<!-- Node6 -->
<g id="node6" class="node">
<title>Node6</title>
<g id="a_node6"><a xlink:href="classhttp_1_1_server.html" target="_top" xlink:title=" ">
<polygon fill="white" stroke="black" points="298,-697.5 298,-820.5 435,-820.5 435,-697.5 298,-697.5"/>
<text text-anchor="start" x="306" y="-808.5" font-family="Helvetica,sans-Serif" font-size="10.00">http::Server&lt; net::</text>
<text text-anchor="start" x="306" y="-797.5" font-family="Helvetica,sans-Serif" font-size="10.00">socket::ip::tcp::ipv4</text>
<text text-anchor="start" x="306" y="-786.5" font-family="Helvetica,sans-Serif" font-size="10.00">::legacy::SocketServer,</text>
<text text-anchor="start" x="306" y="-775.5" font-family="Helvetica,sans-Serif" font-size="10.00"> express::Request, express</text>
<text text-anchor="middle" x="366.5" y="-764.5" font-family="Helvetica,sans-Serif" font-size="10.00">::Response &gt;</text>
<polyline fill="none" stroke="black" points="298,-757.5 435,-757.5 "/>
<text text-anchor="middle" x="366.5" y="-745.5" font-family="Helvetica,sans-Serif" font-size="10.00"> </text>
<polyline fill="none" stroke="black" points="298,-738.5 435,-738.5 "/>
<text text-anchor="start" x="306" y="-726.5" font-family="Helvetica,sans-Serif" font-size="10.00">+ Server()</text>
<text text-anchor="start" x="306" y="-715.5" font-family="Helvetica,sans-Serif" font-size="10.00">+ listen()</text>
<text text-anchor="start" x="306" y="-704.5" font-family="Helvetica,sans-Serif" font-size="10.00">+ listen()</text>
</a>
</g>
</g>
<!-- Node6&#45;&gt;Node5 -->
<g id="edge5" class="edge">
<title>Node6&#45;&gt;Node5</title>
<path fill="none" stroke="midnightblue" d="M357.89,-687.28C350.31,-627.41 338.48,-539.38 325.5,-463 322.94,-447.95 319.72,-431.48 316.78,-417.11"/>
<polygon fill="none" stroke="midnightblue" points="354.44,-687.9 359.16,-697.38 361.39,-687.02 354.44,-687.9"/>
</g>
<!-- Node7 -->
<g id="node7" class="node">
<title>Node7</title>
<g id="a_node7"><a xlink:href="classnet_1_1socket_1_1ip_1_1tcp_1_1ipv4_1_1legacy_1_1_socket_server.html" target="_top" xlink:title=" ">
<polygon fill="white" stroke="black" points="90.5,-956.5 90.5,-1024.5 230.5,-1024.5 230.5,-956.5 90.5,-956.5"/>
<text text-anchor="start" x="98.5" y="-1012.5" font-family="Helvetica,sans-Serif" font-size="10.00">net::socket::ip::tcp</text>
<text text-anchor="middle" x="160.5" y="-1001.5" font-family="Helvetica,sans-Serif" font-size="10.00">::ipv4::legacy::SocketServer</text>
<polyline fill="none" stroke="black" points="90.5,-994.5 230.5,-994.5 "/>
<text text-anchor="middle" x="160.5" y="-982.5" font-family="Helvetica,sans-Serif" font-size="10.00"> </text>
<polyline fill="none" stroke="black" points="90.5,-975.5 230.5,-975.5 "/>
<text text-anchor="middle" x="160.5" y="-963.5" font-family="Helvetica,sans-Serif" font-size="10.00"> </text>
</a>
</g>
</g>
<!-- Node7&#45;&gt;Node6 -->
<g id="edge6" class="edge">
<title>Node7&#45;&gt;Node6</title>
<path fill="none" stroke="#404040" d="M169.9,-956.3C178.5,-926.95 190.73,-888.04 196.5,-883 228.21,-855.3 253.93,-887.53 289.5,-865 303.56,-856.09 315.9,-843.63 326.35,-830.38"/>
<polygon fill="none" stroke="#404040" points="326.45,-830.25 326.83,-823.05 333.62,-820.64 333.24,-827.84 326.45,-830.25"/>
<text text-anchor="middle" x="230" y="-902.5" font-family="Helvetica,sans-Serif" font-size="10.00"> #socketServer</text>
</g>
<!-- Node15 -->
<g id="node15" class="node">
<title>Node15</title>
<g id="a_node15"><a xlink:href="classhttp_1_1_server.html" target="_top" xlink:title=" ">
<polygon fill="white" stroke="black" points="119,-703 119,-815 280,-815 280,-703 119,-703"/>
<text text-anchor="start" x="127" y="-803" font-family="Helvetica,sans-Serif" font-size="10.00">http::Server&lt; net::</text>
<text text-anchor="start" x="127" y="-792" font-family="Helvetica,sans-Serif" font-size="10.00">socket::ip::tcp::ipv4</text>
<text text-anchor="start" x="127" y="-781" font-family="Helvetica,sans-Serif" font-size="10.00">::legacy::SocketServer,</text>
<text text-anchor="middle" x="199.5" y="-770" font-family="Helvetica,sans-Serif" font-size="10.00"> http::Request, http::Response &gt;</text>
<polyline fill="none" stroke="black" points="119,-763 280,-763 "/>
<text text-anchor="middle" x="199.5" y="-751" font-family="Helvetica,sans-Serif" font-size="10.00"> </text>
<polyline fill="none" stroke="black" points="119,-744 280,-744 "/>
<text text-anchor="start" x="127" y="-732" font-family="Helvetica,sans-Serif" font-size="10.00">+ Server()</text>
<text text-anchor="start" x="127" y="-721" font-family="Helvetica,sans-Serif" font-size="10.00">+ listen()</text>
<text text-anchor="start" x="127" y="-710" font-family="Helvetica,sans-Serif" font-size="10.00">+ listen()</text>
</a>
</g>
</g>
<!-- Node7&#45;&gt;Node15 -->
<g id="edge16" class="edge">
<title>Node7&#45;&gt;Node15</title>
<path fill="none" stroke="#404040" d="M127.31,-956.37C120.44,-947.53 114.18,-937.49 110.5,-927 104.03,-908.55 104.48,-901.6 110.5,-883 117.08,-862.67 128.43,-842.87 140.85,-825.32"/>
<polygon fill="none" stroke="#404040" points="141.15,-824.92 141.49,-817.71 148.27,-815.26 147.93,-822.46 141.15,-824.92"/>
<text text-anchor="middle" x="144" y="-902.5" font-family="Helvetica,sans-Serif" font-size="10.00"> #socketServer</text>
</g>
<!-- Node8 -->
<g id="node8" class="node">
<title>Node8</title>
<g id="a_node8"><a xlink:href="classnet_1_1socket_1_1stream_1_1legacy_1_1_socket_server.html" target="_top" xlink:title=" ">
<polygon fill="white" stroke="black" points="102.5,-1073.5 102.5,-1152.5 218.5,-1152.5 218.5,-1073.5 102.5,-1073.5"/>
<text text-anchor="start" x="110.5" y="-1140.5" font-family="Helvetica,sans-Serif" font-size="10.00">net::socket::stream</text>
<text text-anchor="start" x="110.5" y="-1129.5" font-family="Helvetica,sans-Serif" font-size="10.00">::legacy::SocketServer</text>
<text text-anchor="middle" x="160.5" y="-1118.5" font-family="Helvetica,sans-Serif" font-size="10.00">&lt; ipv4::Socket &gt;</text>
<polyline fill="none" stroke="black" points="102.5,-1111.5 218.5,-1111.5 "/>
<text text-anchor="middle" x="160.5" y="-1099.5" font-family="Helvetica,sans-Serif" font-size="10.00"> </text>
<polyline fill="none" stroke="black" points="102.5,-1092.5 218.5,-1092.5 "/>
<text text-anchor="middle" x="160.5" y="-1080.5" font-family="Helvetica,sans-Serif" font-size="10.00"> </text>
</a>
</g>
</g>
<!-- Node8&#45;&gt;Node7 -->
<g id="edge7" class="edge">
<title>Node8&#45;&gt;Node7</title>
<path fill="none" stroke="midnightblue" d="M160.5,-1063.03C160.5,-1050.09 160.5,-1036.43 160.5,-1024.55"/>
<polygon fill="none" stroke="midnightblue" points="157,-1063.21 160.5,-1073.21 164,-1063.21 157,-1063.21"/>
</g>
<!-- Node9 -->
<g id="node9" class="node">
<title>Node9</title>
<g id="a_node9"><a xlink:href="classnet_1_1socket_1_1stream_1_1_socket_server.html" target="_top" xlink:title=" ">
<polygon fill="white" stroke="black" points="76,-1298.5 76,-1498.5 195,-1498.5 195,-1298.5 76,-1298.5"/>
<text text-anchor="start" x="84" y="-1486.5" font-family="Helvetica,sans-Serif" font-size="10.00">net::socket::stream</text>
<text text-anchor="start" x="84" y="-1475.5" font-family="Helvetica,sans-Serif" font-size="10.00">::SocketServer&lt; legacy</text>
<text text-anchor="start" x="84" y="-1464.5" font-family="Helvetica,sans-Serif" font-size="10.00">::SocketListener&lt; ipv4</text>
<text text-anchor="middle" x="135.5" y="-1453.5" font-family="Helvetica,sans-Serif" font-size="10.00">::Socket &gt; &gt;</text>
<polyline fill="none" stroke="black" points="76,-1446.5 195,-1446.5 "/>
<text text-anchor="start" x="84" y="-1434.5" font-family="Helvetica,sans-Serif" font-size="10.00">&#45; onConstruct</text>
<text text-anchor="start" x="84" y="-1423.5" font-family="Helvetica,sans-Serif" font-size="10.00">&#45; onDestruct</text>
<text text-anchor="start" x="84" y="-1412.5" font-family="Helvetica,sans-Serif" font-size="10.00">&#45; onConnect</text>
<text text-anchor="start" x="84" y="-1401.5" font-family="Helvetica,sans-Serif" font-size="10.00">&#45; onDisconnect</text>
<text text-anchor="start" x="84" y="-1390.5" font-family="Helvetica,sans-Serif" font-size="10.00">&#45; onRead</text>
<text text-anchor="start" x="84" y="-1379.5" font-family="Helvetica,sans-Serif" font-size="10.00">&#45; onReadError</text>
<text text-anchor="start" x="84" y="-1368.5" font-family="Helvetica,sans-Serif" font-size="10.00">&#45; onWriteError</text>
<text text-anchor="start" x="84" y="-1357.5" font-family="Helvetica,sans-Serif" font-size="10.00">&#45; options</text>
<polyline fill="none" stroke="black" points="76,-1350.5 195,-1350.5 "/>
<text text-anchor="start" x="84" y="-1338.5" font-family="Helvetica,sans-Serif" font-size="10.00">+ SocketServer()</text>
<text text-anchor="start" x="84" y="-1327.5" font-family="Helvetica,sans-Serif" font-size="10.00">+ SocketServer()</text>
<text text-anchor="start" x="84" y="-1316.5" font-family="Helvetica,sans-Serif" font-size="10.00">+ ~SocketServer()</text>
<text text-anchor="start" x="84" y="-1305.5" font-family="Helvetica,sans-Serif" font-size="10.00">+ listen()</text>
</a>
</g>
</g>
<!-- Node9&#45;&gt;Node8 -->
<g id="edge8" class="edge">
<title>Node9&#45;&gt;Node8</title>
<path fill="none" stroke="midnightblue" d="M145.14,-1288.23C149.35,-1240.41 154.03,-1187.38 157.1,-1152.53"/>
<polygon fill="none" stroke="midnightblue" points="141.64,-1288.08 144.24,-1298.35 148.61,-1288.69 141.64,-1288.08"/>
</g>
<!-- Node10 -->
<g id="node10" class="node">
<title>Node10</title>
<g id="a_node10"><a xlink:href="classnet_1_1socket_1_1stream_1_1_socket_server.html" target="_top" xlink:title=" ">
<polygon fill="white" stroke="black" points="113,-1765.5 113,-1943.5 284,-1943.5 284,-1765.5 113,-1765.5"/>
<text text-anchor="start" x="121" y="-1931.5" font-family="Helvetica,sans-Serif" font-size="10.00">net::socket::stream</text>
<text text-anchor="middle" x="198.5" y="-1920.5" font-family="Helvetica,sans-Serif" font-size="10.00">::SocketServer&lt; SocketListenerT &gt;</text>
<polyline fill="none" stroke="black" points="113,-1913.5 284,-1913.5 "/>
<text text-anchor="start" x="121" y="-1901.5" font-family="Helvetica,sans-Serif" font-size="10.00">&#45; onConstruct</text>
<text text-anchor="start" x="121" y="-1890.5" font-family="Helvetica,sans-Serif" font-size="10.00">&#45; onDestruct</text>
<text text-anchor="start" x="121" y="-1879.5" font-family="Helvetica,sans-Serif" font-size="10.00">&#45; onConnect</text>
<text text-anchor="start" x="121" y="-1868.5" font-family="Helvetica,sans-Serif" font-size="10.00">&#45; onDisconnect</text>
<text text-anchor="start" x="121" y="-1857.5" font-family="Helvetica,sans-Serif" font-size="10.00">&#45; onRead</text>
<text text-anchor="start" x="121" y="-1846.5" font-family="Helvetica,sans-Serif" font-size="10.00">&#45; onReadError</text>
<text text-anchor="start" x="121" y="-1835.5" font-family="Helvetica,sans-Serif" font-size="10.00">&#45; onWriteError</text>
<text text-anchor="start" x="121" y="-1824.5" font-family="Helvetica,sans-Serif" font-size="10.00">&#45; options</text>
<polyline fill="none" stroke="black" points="113,-1817.5 284,-1817.5 "/>
<text text-anchor="start" x="121" y="-1805.5" font-family="Helvetica,sans-Serif" font-size="10.00">+ SocketServer()</text>
<text text-anchor="start" x="121" y="-1794.5" font-family="Helvetica,sans-Serif" font-size="10.00">+ SocketServer()</text>
<text text-anchor="start" x="121" y="-1783.5" font-family="Helvetica,sans-Serif" font-size="10.00">+ ~SocketServer()</text>
<text text-anchor="start" x="121" y="-1772.5" font-family="Helvetica,sans-Serif" font-size="10.00">+ listen()</text>
</a>
</g>
</g>
<!-- Node10&#45;&gt;Node9 -->
<g id="edge9" class="edge">
<title>Node10&#45;&gt;Node9</title>
<path fill="none" stroke="orange" d="M131.5,-1755.91C130.39,-1752.95 129.39,-1749.98 128.5,-1747 104.24,-1665.92 108.66,-1569.38 117.62,-1498.66"/>
<polygon fill="orange" stroke="orange" points="128.31,-1757.36 135.33,-1765.29 134.79,-1754.71 128.31,-1757.36"/>
<text text-anchor="start" x="128.5" y="-1739" font-family="Helvetica,sans-Serif" font-size="10.00"> &lt; legacy::SocketListener</text>
<text text-anchor="middle" x="184.5" y="-1728" font-family="Helvetica,sans-Serif" font-size="10.00">&lt; ipv4::Socket &gt; &gt;</text>
</g>
<!-- Node12 -->
<g id="node12" class="node">
<title>Node12</title>
<g id="a_node12"><a xlink:href="classnet_1_1socket_1_1stream_1_1_socket_server.html" target="_top" xlink:title=" ">
<polygon fill="white" stroke="black" points="174.5,-1517.5 174.5,-1706.5 326.5,-1706.5 326.5,-1517.5 174.5,-1517.5"/>
<text text-anchor="start" x="182.5" y="-1694.5" font-family="Helvetica,sans-Serif" font-size="10.00">net::socket::stream</text>
<text text-anchor="start" x="182.5" y="-1683.5" font-family="Helvetica,sans-Serif" font-size="10.00">::SocketServer&lt; legacy</text>
<text text-anchor="middle" x="250.5" y="-1672.5" font-family="Helvetica,sans-Serif" font-size="10.00">::SocketListener&lt; SocketT &gt; &gt;</text>
<polyline fill="none" stroke="black" points="174.5,-1665.5 326.5,-1665.5 "/>
<text text-anchor="start" x="182.5" y="-1653.5" font-family="Helvetica,sans-Serif" font-size="10.00">&#45; onConstruct</text>
<text text-anchor="start" x="182.5" y="-1642.5" font-family="Helvetica,sans-Serif" font-size="10.00">&#45; onDestruct</text>
<text text-anchor="start" x="182.5" y="-1631.5" font-family="Helvetica,sans-Serif" font-size="10.00">&#45; onConnect</text>
<text text-anchor="start" x="182.5" y="-1620.5" font-family="Helvetica,sans-Serif" font-size="10.00">&#45; onDisconnect</text>
<text text-anchor="start" x="182.5" y="-1609.5" font-family="Helvetica,sans-Serif" font-size="10.00">&#45; onRead</text>
<text text-anchor="start" x="182.5" y="-1598.5" font-family="Helvetica,sans-Serif" font-size="10.00">&#45; onReadError</text>
<text text-anchor="start" x="182.5" y="-1587.5" font-family="Helvetica,sans-Serif" font-size="10.00">&#45; onWriteError</text>
<text text-anchor="start" x="182.5" y="-1576.5" font-family="Helvetica,sans-Serif" font-size="10.00">&#45; options</text>
<polyline fill="none" stroke="black" points="174.5,-1569.5 326.5,-1569.5 "/>
<text text-anchor="start" x="182.5" y="-1557.5" font-family="Helvetica,sans-Serif" font-size="10.00">+ SocketServer()</text>
<text text-anchor="start" x="182.5" y="-1546.5" font-family="Helvetica,sans-Serif" font-size="10.00">+ SocketServer()</text>
<text text-anchor="start" x="182.5" y="-1535.5" font-family="Helvetica,sans-Serif" font-size="10.00">+ ~SocketServer()</text>
<text text-anchor="start" x="182.5" y="-1524.5" font-family="Helvetica,sans-Serif" font-size="10.00">+ listen()</text>
</a>
</g>
</g>
<!-- Node10&#45;&gt;Node12 -->
<g id="edge12" class="edge">
<title>Node10&#45;&gt;Node12</title>
<path fill="none" stroke="orange" d="M242.32,-1755.6C243.11,-1752.72 243.84,-1749.85 244.5,-1747 247.48,-1734.06 249.43,-1720.25 250.66,-1706.58"/>
<polygon fill="orange" stroke="orange" points="238.9,-1754.82 239.39,-1765.41 245.61,-1756.83 238.9,-1754.82"/>
<text text-anchor="start" x="247.5" y="-1739" font-family="Helvetica,sans-Serif" font-size="10.00"> &lt; legacy::SocketListener</text>
<text text-anchor="middle" x="303.5" y="-1728" font-family="Helvetica,sans-Serif" font-size="10.00">&lt; SocketT &gt; &gt;</text>
</g>
<!-- Node11 -->
<g id="node11" class="node">
<title>Node11</title>
<g id="a_node11"><a xlink:href="classnet_1_1socket_1_1stream_1_1legacy_1_1_socket_server.html" target="_top" xlink:title=" ">
<polygon fill="white" stroke="black" points="182.5,-1200.5 182.5,-1279.5 298.5,-1279.5 298.5,-1200.5 182.5,-1200.5"/>
<text text-anchor="start" x="190.5" y="-1267.5" font-family="Helvetica,sans-Serif" font-size="10.00">net::socket::stream</text>
<text text-anchor="start" x="190.5" y="-1256.5" font-family="Helvetica,sans-Serif" font-size="10.00">::legacy::SocketServer</text>
<text text-anchor="middle" x="240.5" y="-1245.5" font-family="Helvetica,sans-Serif" font-size="10.00">&lt; SocketT &gt;</text>
<polyline fill="none" stroke="black" points="182.5,-1238.5 298.5,-1238.5 "/>
<text text-anchor="middle" x="240.5" y="-1226.5" font-family="Helvetica,sans-Serif" font-size="10.00"> </text>
<polyline fill="none" stroke="black" points="182.5,-1219.5 298.5,-1219.5 "/>
<text text-anchor="middle" x="240.5" y="-1207.5" font-family="Helvetica,sans-Serif" font-size="10.00"> </text>
</a>
</g>
</g>
<!-- Node11&#45;&gt;Node8 -->
<g id="edge10" class="edge">
<title>Node11&#45;&gt;Node8</title>
<path fill="none" stroke="orange" d="M210.24,-1191.72C201.98,-1178.81 193.12,-1164.98 185.21,-1152.61"/>
<polygon fill="orange" stroke="orange" points="207.51,-1193.94 215.84,-1200.48 213.4,-1190.17 207.51,-1193.94"/>
<text text-anchor="middle" x="240.5" y="-1174" font-family="Helvetica,sans-Serif" font-size="10.00"> &lt; ipv4::Socket &gt;</text>
</g>
<!-- Node12&#45;&gt;Node11 -->
<g id="edge11" class="edge">
<title>Node12&#45;&gt;Node11</title>
<path fill="none" stroke="midnightblue" d="M247.69,-1507.1C245.65,-1431.38 242.99,-1333.05 241.54,-1279.65"/>
<polygon fill="none" stroke="midnightblue" points="244.19,-1507.25 247.96,-1517.16 251.19,-1507.06 244.19,-1507.25"/>
</g>
<!-- Node13 -->
<g id="node13" class="node">
<title>Node13</title>
<g id="a_node13"><a xlink:href="classhttp_1_1_server.html" target="_top" xlink:title=" ">
<polygon fill="white" stroke="black" points="260.5,-945.5 260.5,-1035.5 396.5,-1035.5 396.5,-945.5 260.5,-945.5"/>
<text text-anchor="start" x="268.5" y="-1023.5" font-family="Helvetica,sans-Serif" font-size="10.00">http::Server&lt; SocketServer</text>
<text text-anchor="middle" x="328.5" y="-1012.5" font-family="Helvetica,sans-Serif" font-size="10.00">T, RequestT, ResponseT &gt;</text>
<polyline fill="none" stroke="black" points="260.5,-1005.5 396.5,-1005.5 "/>
<text text-anchor="start" x="268.5" y="-993.5" font-family="Helvetica,sans-Serif" font-size="10.00"># socketServer</text>
<polyline fill="none" stroke="black" points="260.5,-986.5 396.5,-986.5 "/>
<text text-anchor="start" x="268.5" y="-974.5" font-family="Helvetica,sans-Serif" font-size="10.00">+ Server()</text>
<text text-anchor="start" x="268.5" y="-963.5" font-family="Helvetica,sans-Serif" font-size="10.00">+ listen()</text>
<text text-anchor="start" x="268.5" y="-952.5" font-family="Helvetica,sans-Serif" font-size="10.00">+ listen()</text>
</a>
</g>
</g>
<!-- Node13&#45;&gt;Node6 -->
<g id="edge13" class="edge">
<title>Node13&#45;&gt;Node6</title>
<path fill="none" stroke="orange" d="M405.16,-958.36C417.3,-950 428.23,-939.66 435.5,-927 454.86,-893.26 439.28,-853.03 418.06,-820.5"/>
<polygon fill="orange" stroke="orange" points="403.14,-955.5 396.59,-963.83 406.91,-961.4 403.14,-955.5"/>
<text text-anchor="start" x="443.5" y="-919" font-family="Helvetica,sans-Serif" font-size="10.00"> &lt; net::socket::ip::</text>
<text text-anchor="start" x="443.5" y="-908" font-family="Helvetica,sans-Serif" font-size="10.00">tcp::ipv4::legacy::SocketServer,</text>
<text text-anchor="start" x="443.5" y="-897" font-family="Helvetica,sans-Serif" font-size="10.00"> express::Request, express</text>
<text text-anchor="middle" x="513.5" y="-886" font-family="Helvetica,sans-Serif" font-size="10.00">::Response &gt;</text>
</g>
<!-- Node13&#45;&gt;Node15 -->
<g id="edge17" class="edge">
<title>Node13&#45;&gt;Node15</title>
<path fill="none" stroke="orange" d="M292.1,-936.78C290.15,-933.51 288.26,-930.23 286.5,-927 276.29,-908.3 276.89,-902.12 267.5,-883 256.43,-860.44 243.25,-836.12 231.47,-815.11"/>
<polygon fill="orange" stroke="orange" points="289.19,-938.72 297.42,-945.4 295.15,-935.05 289.19,-938.72"/>
<text text-anchor="start" x="286.5" y="-913.5" font-family="Helvetica,sans-Serif" font-size="10.00"> &lt; net::socket::ip::</text>
<text text-anchor="start" x="286.5" y="-902.5" font-family="Helvetica,sans-Serif" font-size="10.00">tcp::ipv4::legacy::SocketServer,</text>
<text text-anchor="middle" x="359" y="-891.5" font-family="Helvetica,sans-Serif" font-size="10.00"> http::Request, http::Response &gt;</text>
</g>
<!-- Node14 -->
<g id="node14" class="node">
<title>Node14</title>
<g id="a_node14"><a xlink:href="classhttp_1_1legacy_1_1_server.html" target="_top" xlink:title=" ">
<polygon fill="white" stroke="black" points="157.5,-525.5 157.5,-593.5 279.5,-593.5 279.5,-525.5 157.5,-525.5"/>
<text text-anchor="start" x="165.5" y="-581.5" font-family="Helvetica,sans-Serif" font-size="10.00">http::legacy::Server</text>
<text text-anchor="middle" x="218.5" y="-570.5" font-family="Helvetica,sans-Serif" font-size="10.00">&lt; Request, Response &gt;</text>
<polyline fill="none" stroke="black" points="157.5,-563.5 279.5,-563.5 "/>
<text text-anchor="middle" x="218.5" y="-551.5" font-family="Helvetica,sans-Serif" font-size="10.00"> </text>
<polyline fill="none" stroke="black" points="157.5,-544.5 279.5,-544.5 "/>
<text text-anchor="middle" x="218.5" y="-532.5" font-family="Helvetica,sans-Serif" font-size="10.00"> </text>
</a>
</g>
</g>
<!-- Node14&#45;&gt;Node5 -->
<g id="edge14" class="edge">
<title>Node14&#45;&gt;Node5</title>
<path fill="none" stroke="orange" d="M217.17,-515.1C218.13,-498.19 221.11,-479.05 228.5,-463 236.27,-446.12 248.78,-430.45 261.63,-417.32"/>
<polygon fill="orange" stroke="orange" points="213.66,-515.17 216.81,-525.29 220.66,-515.42 213.66,-515.17"/>
<text text-anchor="start" x="228.5" y="-477" font-family="Helvetica,sans-Serif" font-size="10.00"> &lt; express::Request,</text>
<text text-anchor="middle" x="277" y="-466" font-family="Helvetica,sans-Serif" font-size="10.00"> express::Response &gt;</text>
</g>
<!-- Node15&#45;&gt;Node14 -->
<g id="edge15" class="edge">
<title>Node15&#45;&gt;Node14</title>
<path fill="none" stroke="midnightblue" d="M205.77,-692.87C208.96,-659.63 212.72,-620.61 215.32,-593.59"/>
<polygon fill="none" stroke="midnightblue" points="202.27,-692.7 204.79,-702.99 209.23,-693.37 202.27,-692.7"/>
</g>
<!-- Node16&#45;&gt;Node2 -->
<g id="edge18" class="edge">
<title>Node16&#45;&gt;Node2</title>
<path fill="none" stroke="orange" d="M142.5,-300.24C142.5,-280.78 142.5,-259.92 142.5,-240.69"/>
<polygon fill="orange" stroke="orange" points="139,-300.28 142.5,-310.28 146,-300.28 139,-300.28"/>
<text text-anchor="start" x="142.5" y="-284" font-family="Helvetica,sans-Serif" font-size="10.00"> &lt; http::legacy::Server</text>
<text text-anchor="start" x="142.5" y="-273" font-family="Helvetica,sans-Serif" font-size="10.00">&lt; express::Request, express</text>
<text text-anchor="middle" x="206" y="-262" font-family="Helvetica,sans-Serif" font-size="10.00">::Response &gt; &gt;</text>
</g>
</g>
</svg>
