<?xml version="1.0" encoding="UTF-8" standalone="no"?>
<!DOCTYPE svg PUBLIC "-//W3C//DTD SVG 1.1//EN"
 "http://www.w3.org/Graphics/SVG/1.1/DTD/svg11.dtd">
<!-- Generated by graphviz version 2.43.0 (0)
 -->
<!-- Title: web::http::server::Response::send Pages: 1 -->
<svg width="584pt" height="222pt"
 viewBox="0.00 0.00 584.00 221.50" xmlns="http://www.w3.org/2000/svg" xmlns:xlink="http://www.w3.org/1999/xlink">
<g id="graph0" class="graph" transform="scale(1 1) rotate(0) translate(4 217.5)">
<title>web::http::server::Response::send</title>
<polygon fill="white" stroke="transparent" points="-4,4 -4,-217.5 580,-217.5 580,4 -4,4"/>
<!-- Node1 -->
<g id="node1" class="node">
<title>Node1</title>
<g id="a_node1"><a xlink:title=" ">
<polygon fill="#bfbfbf" stroke="black" points="480,-49.5 480,-79.5 576,-79.5 576,-49.5 480,-49.5"/>
<text text-anchor="start" x="488" y="-67.5" font-family="Helvetica,sans-Serif" font-size="10.00">web::http::server::</text>
<text text-anchor="middle" x="528" y="-56.5" font-family="Helvetica,sans-Serif" font-size="10.00">Response::send</text>
</a>
</g>
</g>
<!-- Node2 -->
<g id="node2" class="node">
<title>Node2</title>
<g id="a_node2"><a xlink:href="classweb_1_1http_1_1server_1_1_response.html#a761cba48efb6eed2fa816750670c03db" target="_top" xlink:title=" ">
<polygon fill="white" stroke="black" points="342.5,-98.5 342.5,-128.5 438.5,-128.5 438.5,-98.5 342.5,-98.5"/>
<text text-anchor="start" x="350.5" y="-116.5" font-family="Helvetica,sans-Serif" font-size="10.00">web::http::server::</text>
<text text-anchor="middle" x="390.5" y="-105.5" font-family="Helvetica,sans-Serif" font-size="10.00">Response::end</text>
</a>
</g>
</g>
<!-- Node1&#45;&gt;Node2 -->
<g id="edge1" class="edge">
<title>Node1&#45;&gt;Node2</title>
<path fill="none" stroke="midnightblue" d="M475.74,-83.04C461.75,-88.1 446.76,-93.52 433.36,-98.36"/>
<polygon fill="midnightblue" stroke="midnightblue" points="477.03,-86.29 485.24,-79.6 474.65,-79.71 477.03,-86.29"/>
</g>
<!-- Node8 -->
<g id="node8" class="node">
<title>Node8</title>
<g id="a_node8"><a xlink:href="classweb_1_1http_1_1server_1_1_response.html#a5128a20b904071c22a077b040c8ff138" target="_top" xlink:title=" ">
<polygon fill="white" stroke="black" points="342.5,-49.5 342.5,-79.5 438.5,-79.5 438.5,-49.5 342.5,-49.5"/>
<text text-anchor="start" x="350.5" y="-67.5" font-family="Helvetica,sans-Serif" font-size="10.00">web::http::server::</text>
<text text-anchor="middle" x="390.5" y="-56.5" font-family="Helvetica,sans-Serif" font-size="10.00">Response::send</text>
</a>
</g>
</g>
<!-- Node1&#45;&gt;Node8 -->
<g id="edge7" class="edge">
<title>Node1&#45;&gt;Node8</title>
<path fill="none" stroke="midnightblue" d="M469.83,-64.5C459.52,-64.5 448.88,-64.5 438.89,-64.5"/>
<polygon fill="midnightblue" stroke="midnightblue" points="469.99,-68 479.99,-64.5 469.99,-61 469.99,-68"/>
</g>
<!-- Node9 -->
<g id="node9" class="node">
<title>Node9</title>
<g id="a_node9"><a xlink:href="classexpress_1_1_response.html#a9049ec68cf5f6cb6d04c403267158d09" target="_top" xlink:title=" ">
<polygon fill="white" stroke="black" points="337,-0.5 337,-30.5 444,-30.5 444,-0.5 337,-0.5"/>
<text text-anchor="start" x="345" y="-18.5" font-family="Helvetica,sans-Serif" font-size="10.00">express::Response::</text>
<text text-anchor="middle" x="390.5" y="-7.5" font-family="Helvetica,sans-Serif" font-size="10.00">sendStatus</text>
</a>
</g>
</g>
<!-- Node1&#45;&gt;Node9 -->
<g id="edge8" class="edge">
<title>Node1&#45;&gt;Node9</title>
<path fill="none" stroke="midnightblue" d="M475.74,-45.96C461.75,-40.9 446.76,-35.48 433.36,-30.64"/>
<polygon fill="midnightblue" stroke="midnightblue" points="474.65,-49.29 485.24,-49.4 477.03,-42.71 474.65,-49.29"/>
</g>
<!-- Node3 -->
<g id="node3" class="node">
<title>Node3</title>
<g id="a_node3"><a xlink:href="classweb_1_1websocket_1_1server_1_1_socket_context_upgrade_factory.html#aa1b867500eb6b9273ce9ea4be9ddd124" target="_top" xlink:title=" ">
<polygon fill="white" stroke="black" points="143,-172 143,-213 301,-213 301,-172 143,-172"/>
<text text-anchor="start" x="151" y="-201" font-family="Helvetica,sans-Serif" font-size="10.00">web::websocket::server</text>
<text text-anchor="start" x="151" y="-190" font-family="Helvetica,sans-Serif" font-size="10.00">::SocketContextUpgradeFactory</text>
<text text-anchor="middle" x="222" y="-179" font-family="Helvetica,sans-Serif" font-size="10.00">::create</text>
</a>
</g>
</g>
<!-- Node2&#45;&gt;Node3 -->
<g id="edge2" class="edge">
<title>Node2&#45;&gt;Node3</title>
<path fill="none" stroke="midnightblue" d="M355.34,-133.86C339.15,-143.14 319.36,-153.94 301,-162.5 294.03,-165.75 286.6,-168.94 279.21,-171.96"/>
<polygon fill="midnightblue" stroke="midnightblue" points="357.52,-136.64 364.42,-128.61 354.02,-130.59 357.52,-136.64"/>
</g>
<!-- Node4 -->
<g id="node4" class="node">
<title>Node4</title>
<g id="a_node4"><a xlink:href="classexpress_1_1_response.html#a99b449a1fd984b6e263c8eb0fec03009" target="_top" xlink:title=" ">
<polygon fill="white" stroke="black" points="168.5,-122.5 168.5,-152.5 275.5,-152.5 275.5,-122.5 168.5,-122.5"/>
<text text-anchor="start" x="176.5" y="-140.5" font-family="Helvetica,sans-Serif" font-size="10.00">express::Response::</text>
<text text-anchor="middle" x="222" y="-129.5" font-family="Helvetica,sans-Serif" font-size="10.00">redirect</text>
</a>
</g>
</g>
<!-- Node2&#45;&gt;Node4 -->
<g id="edge3" class="edge">
<title>Node2&#45;&gt;Node4</title>
<path fill="none" stroke="midnightblue" d="M332.25,-121.75C313.9,-124.4 293.67,-127.31 275.65,-129.91"/>
<polygon fill="midnightblue" stroke="midnightblue" points="332.83,-125.2 342.23,-120.31 331.84,-118.28 332.83,-125.2"/>
</g>
<!-- Node5 -->
<g id="node5" class="node">
<title>Node5</title>
<g id="a_node5"><a xlink:href="classexpress_1_1_response.html#aa7a3b9c880c1af5b11e832f84eeda58c" target="_top" xlink:title=" ">
<polygon fill="white" stroke="black" points="168.5,-73.5 168.5,-103.5 275.5,-103.5 275.5,-73.5 168.5,-73.5"/>
<text text-anchor="start" x="176.5" y="-91.5" font-family="Helvetica,sans-Serif" font-size="10.00">express::Response::</text>
<text text-anchor="middle" x="222" y="-80.5" font-family="Helvetica,sans-Serif" font-size="10.00">sendFile</text>
</a>
</g>
</g>
<!-- Node2&#45;&gt;Node5 -->
<g id="edge4" class="edge">
<title>Node2&#45;&gt;Node5</title>
<path fill="none" stroke="midnightblue" d="M332.25,-104.9C313.9,-102.15 293.67,-99.11 275.65,-96.41"/>
<polygon fill="midnightblue" stroke="midnightblue" points="331.82,-108.38 342.23,-106.4 332.86,-101.46 331.82,-108.38"/>
</g>
<!-- Node7 -->
<g id="node7" class="node">
<title>Node7</title>
<g id="a_node7"><a xlink:href="classweb_1_1http_1_1server_1_1_response.html#afa792224c8bdb8edcb75514297931ece" target="_top" xlink:title=" ">
<polygon fill="white" stroke="black" points="171.5,-24.5 171.5,-54.5 272.5,-54.5 272.5,-24.5 171.5,-24.5"/>
<text text-anchor="start" x="179.5" y="-42.5" font-family="Helvetica,sans-Serif" font-size="10.00">web::http::server::</text>
<text text-anchor="middle" x="222" y="-31.5" font-family="Helvetica,sans-Serif" font-size="10.00">Response::upgrade</text>
</a>
</g>
</g>
<!-- Node2&#45;&gt;Node7 -->
<g id="edge6" class="edge">
<title>Node2&#45;&gt;Node7</title>
<path fill="none" stroke="midnightblue" d="M345.24,-93.97C342.43,-92.51 339.66,-91.01 337,-89.5 320.07,-79.86 318.47,-73.12 301,-64.5 292.07,-60.09 282.2,-56.23 272.56,-52.94"/>
<polygon fill="midnightblue" stroke="midnightblue" points="343.81,-97.16 354.33,-98.47 346.93,-90.89 343.81,-97.16"/>
</g>
<!-- Node6 -->
<g id="node6" class="node">
<title>Node6</title>
<g id="a_node6"><a xlink:href="classexpress_1_1_response.html#a9fe9c08eaaf312665cefdd87b0a47f54" target="_top" xlink:title=" ">
<polygon fill="white" stroke="black" points="0,-73.5 0,-103.5 107,-103.5 107,-73.5 0,-73.5"/>
<text text-anchor="start" x="8" y="-91.5" font-family="Helvetica,sans-Serif" font-size="10.00">express::Response::</text>
<text text-anchor="middle" x="53.5" y="-80.5" font-family="Helvetica,sans-Serif" font-size="10.00">download</text>
</a>
</g>
</g>
<!-- Node5&#45;&gt;Node6 -->
<g id="edge5" class="edge">
<title>Node5&#45;&gt;Node6</title>
<path fill="none" stroke="midnightblue" d="M158.04,-88.5C141.26,-88.5 123.29,-88.5 107.12,-88.5"/>
<polygon fill="midnightblue" stroke="midnightblue" points="158.32,-92 168.32,-88.5 158.32,-85 158.32,-92"/>
</g>
</g>
</svg>
