<?xml version="1.0" encoding="UTF-8" standalone="no"?>
<!DOCTYPE svg PUBLIC "-//W3C//DTD SVG 1.1//EN"
 "http://www.w3.org/Graphics/SVG/1.1/DTD/svg11.dtd">
<!-- Generated by graphviz version 2.43.0 (0)
 -->
<!-- Title: net::socket::stream::tls::SocketConnection&lt; SocketT &gt; Pages: 1 -->
<svg width="679pt" height="1592pt"
 viewBox="0.00 0.00 678.50 1592.00" xmlns="http://www.w3.org/2000/svg" xmlns:xlink="http://www.w3.org/1999/xlink">
<g id="graph0" class="graph" transform="scale(1 1) rotate(0) translate(4 1588)">
<title>net::socket::stream::tls::SocketConnection&lt; SocketT &gt;</title>
<polygon fill="white" stroke="transparent" points="-4,4 -4,-1588 674.5,-1588 674.5,4 -4,4"/>
<!-- Node1 -->
<g id="node1" class="node">
<title>Node1</title>
<g id="a_node1"><a xlink:title=" ">
<polygon fill="#bfbfbf" stroke="black" points="248.5,-0.5 248.5,-112.5 367.5,-112.5 367.5,-0.5 248.5,-0.5"/>
<text text-anchor="start" x="256.5" y="-100.5" font-family="Helvetica,sans-Serif" font-size="10.00">net::socket::stream</text>
<text text-anchor="start" x="256.5" y="-89.5" font-family="Helvetica,sans-Serif" font-size="10.00">::tls::SocketConnection</text>
<text text-anchor="middle" x="308" y="-78.5" font-family="Helvetica,sans-Serif" font-size="10.00">&lt; SocketT &gt;</text>
<polyline fill="none" stroke="black" points="248.5,-71.5 367.5,-71.5 "/>
<text text-anchor="start" x="256.5" y="-59.5" font-family="Helvetica,sans-Serif" font-size="10.00"># ssl</text>
<polyline fill="none" stroke="black" points="248.5,-52.5 367.5,-52.5 "/>
<text text-anchor="start" x="256.5" y="-40.5" font-family="Helvetica,sans-Serif" font-size="10.00">+ SocketConnection()</text>
<text text-anchor="start" x="256.5" y="-29.5" font-family="Helvetica,sans-Serif" font-size="10.00">+ startSSL()</text>
<text text-anchor="start" x="256.5" y="-18.5" font-family="Helvetica,sans-Serif" font-size="10.00">+ stopSSL()</text>
<text text-anchor="start" x="256.5" y="-7.5" font-family="Helvetica,sans-Serif" font-size="10.00">+ getSSL()</text>
</a>
</g>
</g>
<!-- Node2 -->
<g id="node2" class="node">
<title>Node2</title>
<g id="a_node2"><a xlink:href="classnet_1_1socket_1_1stream_1_1_socket_connection.html" target="_top" xlink:title=" ">
<polygon fill="white" stroke="black" points="233,-150.5 233,-438.5 383,-438.5 383,-150.5 233,-150.5"/>
<text text-anchor="start" x="241" y="-426.5" font-family="Helvetica,sans-Serif" font-size="10.00">net::socket::stream</text>
<text text-anchor="start" x="241" y="-415.5" font-family="Helvetica,sans-Serif" font-size="10.00">::SocketConnection&lt;</text>
<text text-anchor="start" x="241" y="-404.5" font-family="Helvetica,sans-Serif" font-size="10.00"> tls::SocketReader&lt; SocketT</text>
<text text-anchor="start" x="241" y="-393.5" font-family="Helvetica,sans-Serif" font-size="10.00"> &gt;, tls::SocketWriter&lt; SocketT</text>
<text text-anchor="middle" x="308" y="-382.5" font-family="Helvetica,sans-Serif" font-size="10.00"> &gt;, SocketT::SocketAddress &gt;</text>
<polyline fill="none" stroke="black" points="233,-375.5 383,-375.5 "/>
<text text-anchor="start" x="241" y="-363.5" font-family="Helvetica,sans-Serif" font-size="10.00">&#45; remoteAddress</text>
<text text-anchor="start" x="241" y="-352.5" font-family="Helvetica,sans-Serif" font-size="10.00">&#45; localAddress</text>
<text text-anchor="start" x="241" y="-341.5" font-family="Helvetica,sans-Serif" font-size="10.00">&#45; onDestruct</text>
<text text-anchor="start" x="241" y="-330.5" font-family="Helvetica,sans-Serif" font-size="10.00">&#45; onDisconnect</text>
<text text-anchor="start" x="241" y="-319.5" font-family="Helvetica,sans-Serif" font-size="10.00">&#45; isDynamic</text>
<text text-anchor="start" x="241" y="-308.5" font-family="Helvetica,sans-Serif" font-size="10.00">&#45; lastAllocAddress</text>
<polyline fill="none" stroke="black" points="233,-301.5 383,-301.5 "/>
<text text-anchor="start" x="241" y="-289.5" font-family="Helvetica,sans-Serif" font-size="10.00">+ operator new()</text>
<text text-anchor="start" x="241" y="-278.5" font-family="Helvetica,sans-Serif" font-size="10.00">+ operator delete()</text>
<text text-anchor="start" x="241" y="-267.5" font-family="Helvetica,sans-Serif" font-size="10.00">+ SocketConnection()</text>
<text text-anchor="start" x="241" y="-256.5" font-family="Helvetica,sans-Serif" font-size="10.00">+ SocketConnection()</text>
<text text-anchor="start" x="241" y="-245.5" font-family="Helvetica,sans-Serif" font-size="10.00">+ ~SocketConnection()</text>
<text text-anchor="start" x="241" y="-234.5" font-family="Helvetica,sans-Serif" font-size="10.00">+ enqueue()</text>
<text text-anchor="start" x="241" y="-223.5" font-family="Helvetica,sans-Serif" font-size="10.00">+ enqueue()</text>
<text text-anchor="start" x="241" y="-212.5" font-family="Helvetica,sans-Serif" font-size="10.00">+ end()</text>
<text text-anchor="start" x="241" y="-201.5" font-family="Helvetica,sans-Serif" font-size="10.00">+ getRemoteAddress()</text>
<text text-anchor="start" x="241" y="-190.5" font-family="Helvetica,sans-Serif" font-size="10.00">+ setRemoteAddress()</text>
<text text-anchor="start" x="241" y="-179.5" font-family="Helvetica,sans-Serif" font-size="10.00">+ getLocalAddress()</text>
<text text-anchor="start" x="241" y="-168.5" font-family="Helvetica,sans-Serif" font-size="10.00">+ setLocalAddress()</text>
<text text-anchor="start" x="241" y="-157.5" font-family="Helvetica,sans-Serif" font-size="10.00">&#45; unobserved()</text>
</a>
</g>
</g>
<!-- Node2&#45;&gt;Node1 -->
<g id="edge1" class="edge">
<title>Node2&#45;&gt;Node1</title>
<path fill="none" stroke="midnightblue" d="M308,-140.28C308,-130.64 308,-121.35 308,-112.69"/>
<polygon fill="none" stroke="midnightblue" points="304.5,-140.43 308,-150.43 311.5,-140.43 304.5,-140.43"/>
</g>
<!-- Node3 -->
<g id="node3" class="node">
<title>Node3</title>
<g id="a_node3"><a xlink:href="classnet_1_1socket_1_1stream_1_1_socket_connection_base.html" target="_top" xlink:title=" ">
<polygon fill="white" stroke="black" points="0,-823.5 0,-1001.5 140,-1001.5 140,-823.5 0,-823.5"/>
<text text-anchor="start" x="8" y="-989.5" font-family="Helvetica,sans-Serif" font-size="10.00">net::socket::stream</text>
<text text-anchor="middle" x="70" y="-978.5" font-family="Helvetica,sans-Serif" font-size="10.00">::SocketConnectionBase</text>
<polyline fill="none" stroke="black" points="0,-971.5 140,-971.5 "/>
<text text-anchor="start" x="8" y="-959.5" font-family="Helvetica,sans-Serif" font-size="10.00">&#45; protocol</text>
<polyline fill="none" stroke="black" points="0,-952.5 140,-952.5 "/>
<text text-anchor="start" x="8" y="-940.5" font-family="Helvetica,sans-Serif" font-size="10.00">+ SocketConnectionBase()</text>
<text text-anchor="start" x="8" y="-929.5" font-family="Helvetica,sans-Serif" font-size="10.00">+ SocketConnectionBase()</text>
<text text-anchor="start" x="8" y="-918.5" font-family="Helvetica,sans-Serif" font-size="10.00">+ operator=()</text>
<text text-anchor="start" x="8" y="-907.5" font-family="Helvetica,sans-Serif" font-size="10.00">+ ~SocketConnectionBase()</text>
<text text-anchor="start" x="8" y="-896.5" font-family="Helvetica,sans-Serif" font-size="10.00">+ enqueue()</text>
<text text-anchor="start" x="8" y="-885.5" font-family="Helvetica,sans-Serif" font-size="10.00">+ enqueue()</text>
<text text-anchor="start" x="8" y="-874.5" font-family="Helvetica,sans-Serif" font-size="10.00">+ end()</text>
<text text-anchor="start" x="8" y="-863.5" font-family="Helvetica,sans-Serif" font-size="10.00">+ setContext()</text>
<text text-anchor="start" x="8" y="-852.5" font-family="Helvetica,sans-Serif" font-size="10.00">+ setContext()</text>
<text text-anchor="start" x="8" y="-841.5" font-family="Helvetica,sans-Serif" font-size="10.00">+ getContext()</text>
<text text-anchor="start" x="8" y="-830.5" font-family="Helvetica,sans-Serif" font-size="10.00">+ getContext()</text>
</a>
</g>
</g>
<!-- Node3&#45;&gt;Node2 -->
<g id="edge2" class="edge">
<title>Node3&#45;&gt;Node2</title>
<path fill="none" stroke="midnightblue" d="M65.85,-813.14C65.96,-728.62 75.07,-605.35 119,-508 144.99,-450.4 192.24,-397.27 233,-358.55"/>
<polygon fill="none" stroke="midnightblue" points="62.35,-813.26 65.88,-823.25 69.35,-813.24 62.35,-813.26"/>
</g>
<!-- Node13 -->
<g id="node13" class="node">
<title>Node13</title>
<g id="a_node13"><a xlink:href="classnet_1_1socket_1_1stream_1_1_socket_connection.html" target="_top" xlink:title=" ">
<polygon fill="white" stroke="black" points="128.5,-508.5 128.5,-785.5 277.5,-785.5 277.5,-508.5 128.5,-508.5"/>
<text text-anchor="start" x="136.5" y="-773.5" font-family="Helvetica,sans-Serif" font-size="10.00">net::socket::stream</text>
<text text-anchor="start" x="136.5" y="-762.5" font-family="Helvetica,sans-Serif" font-size="10.00">::SocketConnection&lt;</text>
<text text-anchor="start" x="136.5" y="-751.5" font-family="Helvetica,sans-Serif" font-size="10.00"> SocketReaderT, SocketWriter</text>
<text text-anchor="middle" x="203" y="-740.5" font-family="Helvetica,sans-Serif" font-size="10.00">T, SocketAddressT &gt;</text>
<polyline fill="none" stroke="black" points="128.5,-733.5 277.5,-733.5 "/>
<text text-anchor="start" x="136.5" y="-721.5" font-family="Helvetica,sans-Serif" font-size="10.00">&#45; remoteAddress</text>
<text text-anchor="start" x="136.5" y="-710.5" font-family="Helvetica,sans-Serif" font-size="10.00">&#45; localAddress</text>
<text text-anchor="start" x="136.5" y="-699.5" font-family="Helvetica,sans-Serif" font-size="10.00">&#45; onDestruct</text>
<text text-anchor="start" x="136.5" y="-688.5" font-family="Helvetica,sans-Serif" font-size="10.00">&#45; onDisconnect</text>
<text text-anchor="start" x="136.5" y="-677.5" font-family="Helvetica,sans-Serif" font-size="10.00">&#45; isDynamic</text>
<text text-anchor="start" x="136.5" y="-666.5" font-family="Helvetica,sans-Serif" font-size="10.00">&#45; lastAllocAddress</text>
<polyline fill="none" stroke="black" points="128.5,-659.5 277.5,-659.5 "/>
<text text-anchor="start" x="136.5" y="-647.5" font-family="Helvetica,sans-Serif" font-size="10.00">+ operator new()</text>
<text text-anchor="start" x="136.5" y="-636.5" font-family="Helvetica,sans-Serif" font-size="10.00">+ operator delete()</text>
<text text-anchor="start" x="136.5" y="-625.5" font-family="Helvetica,sans-Serif" font-size="10.00">+ SocketConnection()</text>
<text text-anchor="start" x="136.5" y="-614.5" font-family="Helvetica,sans-Serif" font-size="10.00">+ SocketConnection()</text>
<text text-anchor="start" x="136.5" y="-603.5" font-family="Helvetica,sans-Serif" font-size="10.00">+ ~SocketConnection()</text>
<text text-anchor="start" x="136.5" y="-592.5" font-family="Helvetica,sans-Serif" font-size="10.00">+ enqueue()</text>
<text text-anchor="start" x="136.5" y="-581.5" font-family="Helvetica,sans-Serif" font-size="10.00">+ enqueue()</text>
<text text-anchor="start" x="136.5" y="-570.5" font-family="Helvetica,sans-Serif" font-size="10.00">+ end()</text>
<text text-anchor="start" x="136.5" y="-559.5" font-family="Helvetica,sans-Serif" font-size="10.00">+ getRemoteAddress()</text>
<text text-anchor="start" x="136.5" y="-548.5" font-family="Helvetica,sans-Serif" font-size="10.00">+ setRemoteAddress()</text>
<text text-anchor="start" x="136.5" y="-537.5" font-family="Helvetica,sans-Serif" font-size="10.00">+ getLocalAddress()</text>
<text text-anchor="start" x="136.5" y="-526.5" font-family="Helvetica,sans-Serif" font-size="10.00">+ setLocalAddress()</text>
<text text-anchor="start" x="136.5" y="-515.5" font-family="Helvetica,sans-Serif" font-size="10.00">&#45; unobserved()</text>
</a>
</g>
</g>
<!-- Node3&#45;&gt;Node13 -->
<g id="edge15" class="edge">
<title>Node3&#45;&gt;Node13</title>
<path fill="none" stroke="midnightblue" d="M119.11,-814.21C123.79,-804.93 128.59,-795.41 133.42,-785.85"/>
<polygon fill="none" stroke="midnightblue" points="115.85,-812.89 114.47,-823.39 122.1,-816.04 115.85,-812.89"/>
</g>
<!-- Node4 -->
<g id="node4" class="node">
<title>Node4</title>
<g id="a_node4"><a xlink:href="classnet_1_1socket_1_1stream_1_1tls_1_1_socket_reader.html" target="_top" xlink:title=" ">
<polygon fill="white" stroke="black" points="375.5,-607.5 375.5,-686.5 476.5,-686.5 476.5,-607.5 375.5,-607.5"/>
<text text-anchor="start" x="383.5" y="-674.5" font-family="Helvetica,sans-Serif" font-size="10.00">net::socket::stream</text>
<text text-anchor="start" x="383.5" y="-663.5" font-family="Helvetica,sans-Serif" font-size="10.00">::tls::SocketReader</text>
<text text-anchor="middle" x="426" y="-652.5" font-family="Helvetica,sans-Serif" font-size="10.00">&lt; SocketT &gt;</text>
<polyline fill="none" stroke="black" points="375.5,-645.5 476.5,-645.5 "/>
<text text-anchor="start" x="383.5" y="-633.5" font-family="Helvetica,sans-Serif" font-size="10.00"># ssl</text>
<polyline fill="none" stroke="black" points="375.5,-626.5 476.5,-626.5 "/>
<text text-anchor="start" x="383.5" y="-614.5" font-family="Helvetica,sans-Serif" font-size="10.00"># read()</text>
</a>
</g>
</g>
<!-- Node4&#45;&gt;Node2 -->
<g id="edge3" class="edge">
<title>Node4&#45;&gt;Node2</title>
<path fill="none" stroke="midnightblue" d="M422.49,-597.45C418.63,-558.62 410.75,-503.23 395,-457 391.56,-446.9 387.53,-436.68 383.12,-426.54"/>
<polygon fill="none" stroke="midnightblue" points="419.01,-597.82 423.43,-607.44 425.98,-597.16 419.01,-597.82"/>
</g>
<!-- Node5 -->
<g id="node5" class="node">
<title>Node5</title>
<g id="a_node5"><a xlink:href="classnet_1_1socket_1_1stream_1_1_socket_reader.html" target="_top" xlink:title=" ">
<polygon fill="white" stroke="black" points="359,-851 359,-974 499,-974 499,-851 359,-851"/>
<text text-anchor="start" x="367" y="-962" font-family="Helvetica,sans-Serif" font-size="10.00">net::socket::stream</text>
<text text-anchor="middle" x="429" y="-951" font-family="Helvetica,sans-Serif" font-size="10.00">::SocketReader&lt; SocketT &gt;</text>
<polyline fill="none" stroke="black" points="359,-944 499,-944 "/>
<text text-anchor="start" x="367" y="-932" font-family="Helvetica,sans-Serif" font-size="10.00">&#45; onRead</text>
<text text-anchor="start" x="367" y="-921" font-family="Helvetica,sans-Serif" font-size="10.00">&#45; onError</text>
<polyline fill="none" stroke="black" points="359,-914 499,-914 "/>
<text text-anchor="start" x="367" y="-902" font-family="Helvetica,sans-Serif" font-size="10.00"># SocketReader()</text>
<text text-anchor="start" x="367" y="-891" font-family="Helvetica,sans-Serif" font-size="10.00"># SocketReader()</text>
<text text-anchor="start" x="367" y="-880" font-family="Helvetica,sans-Serif" font-size="10.00"># ~SocketReader()</text>
<text text-anchor="start" x="367" y="-869" font-family="Helvetica,sans-Serif" font-size="10.00"># readEvent()</text>
<text text-anchor="start" x="367" y="-858" font-family="Helvetica,sans-Serif" font-size="10.00"># read()</text>
</a>
</g>
</g>
<!-- Node5&#45;&gt;Node4 -->
<g id="edge4" class="edge">
<title>Node5&#45;&gt;Node4</title>
<path fill="none" stroke="midnightblue" d="M428.19,-840.42C427.63,-791.05 426.9,-727.13 426.44,-686.84"/>
<polygon fill="none" stroke="midnightblue" points="424.69,-840.76 428.31,-850.72 431.69,-840.68 424.69,-840.76"/>
</g>
<!-- Node6 -->
<g id="node6" class="node">
<title>Node6</title>
<g id="a_node6"><a xlink:href="classnet_1_1_read_event_receiver.html" target="_top" xlink:title=" ">
<polygon fill="white" stroke="black" points="334,-1039.5 334,-1162.5 458,-1162.5 458,-1039.5 334,-1039.5"/>
<text text-anchor="middle" x="396" y="-1150.5" font-family="Helvetica,sans-Serif" font-size="10.00">net::ReadEventReceiver</text>
<polyline fill="none" stroke="black" points="334,-1143.5 458,-1143.5 "/>
<text text-anchor="middle" x="396" y="-1131.5" font-family="Helvetica,sans-Serif" font-size="10.00"> </text>
<polyline fill="none" stroke="black" points="334,-1124.5 458,-1124.5 "/>
<text text-anchor="start" x="342" y="-1112.5" font-family="Helvetica,sans-Serif" font-size="10.00">+ setTimeout()</text>
<text text-anchor="start" x="342" y="-1101.5" font-family="Helvetica,sans-Serif" font-size="10.00">+ enable()</text>
<text text-anchor="start" x="342" y="-1090.5" font-family="Helvetica,sans-Serif" font-size="10.00">+ disable()</text>
<text text-anchor="start" x="342" y="-1079.5" font-family="Helvetica,sans-Serif" font-size="10.00">+ suspend()</text>
<text text-anchor="start" x="342" y="-1068.5" font-family="Helvetica,sans-Serif" font-size="10.00">+ resume()</text>
<text text-anchor="start" x="342" y="-1057.5" font-family="Helvetica,sans-Serif" font-size="10.00"># ReadEventReceiver()</text>
<text text-anchor="start" x="342" y="-1046.5" font-family="Helvetica,sans-Serif" font-size="10.00"># readEvent()</text>
</a>
</g>
</g>
<!-- Node6&#45;&gt;Node5 -->
<g id="edge5" class="edge">
<title>Node6&#45;&gt;Node5</title>
<path fill="none" stroke="midnightblue" d="M408.48,-1029.46C411.71,-1011.22 415.15,-991.75 418.28,-974.07"/>
<polygon fill="none" stroke="midnightblue" points="405.01,-1028.99 406.71,-1039.45 411.9,-1030.21 405.01,-1028.99"/>
</g>
<!-- Node7 -->
<g id="node7" class="node">
<title>Node7</title>
<g id="a_node7"><a xlink:href="classnet_1_1_event_receiver.html" target="_top" xlink:title=" ">
<polygon fill="white" stroke="black" points="451.5,-1200.5 451.5,-1488.5 552.5,-1488.5 552.5,-1200.5 451.5,-1200.5"/>
<text text-anchor="middle" x="502" y="-1476.5" font-family="Helvetica,sans-Serif" font-size="10.00">net::EventReceiver</text>
<polyline fill="none" stroke="black" points="451.5,-1469.5 552.5,-1469.5 "/>
<text text-anchor="start" x="459.5" y="-1457.5" font-family="Helvetica,sans-Serif" font-size="10.00">&#45; _enabled</text>
<text text-anchor="start" x="459.5" y="-1446.5" font-family="Helvetica,sans-Serif" font-size="10.00">&#45; _suspended</text>
<text text-anchor="start" x="459.5" y="-1435.5" font-family="Helvetica,sans-Serif" font-size="10.00">&#45; maxInactivity</text>
<polyline fill="none" stroke="black" points="451.5,-1428.5 552.5,-1428.5 "/>
<text text-anchor="start" x="459.5" y="-1416.5" font-family="Helvetica,sans-Serif" font-size="10.00"># EventReceiver()</text>
<text text-anchor="start" x="459.5" y="-1405.5" font-family="Helvetica,sans-Serif" font-size="10.00"># EventReceiver()</text>
<text text-anchor="start" x="459.5" y="-1394.5" font-family="Helvetica,sans-Serif" font-size="10.00"># operator=()</text>
<text text-anchor="start" x="459.5" y="-1383.5" font-family="Helvetica,sans-Serif" font-size="10.00"># ~EventReceiver()</text>
<text text-anchor="start" x="459.5" y="-1372.5" font-family="Helvetica,sans-Serif" font-size="10.00"># setTimeout()</text>
<text text-anchor="start" x="459.5" y="-1361.5" font-family="Helvetica,sans-Serif" font-size="10.00"># isEnabled()</text>
<text text-anchor="start" x="459.5" y="-1350.5" font-family="Helvetica,sans-Serif" font-size="10.00"># isSuspended()</text>
<text text-anchor="start" x="459.5" y="-1339.5" font-family="Helvetica,sans-Serif" font-size="10.00"># timeoutEvent()</text>
<text text-anchor="start" x="459.5" y="-1328.5" font-family="Helvetica,sans-Serif" font-size="10.00">&#45; enabled()</text>
<text text-anchor="start" x="459.5" y="-1317.5" font-family="Helvetica,sans-Serif" font-size="10.00">&#45; disabled()</text>
<text text-anchor="start" x="459.5" y="-1306.5" font-family="Helvetica,sans-Serif" font-size="10.00">&#45; suspended()</text>
<text text-anchor="start" x="459.5" y="-1295.5" font-family="Helvetica,sans-Serif" font-size="10.00">&#45; resumed()</text>
<text text-anchor="start" x="459.5" y="-1284.5" font-family="Helvetica,sans-Serif" font-size="10.00">&#45; getTimeout()</text>
<text text-anchor="start" x="459.5" y="-1273.5" font-family="Helvetica,sans-Serif" font-size="10.00">&#45; getLastTriggered()</text>
<text text-anchor="start" x="459.5" y="-1262.5" font-family="Helvetica,sans-Serif" font-size="10.00">&#45; setLastTriggered()</text>
<text text-anchor="start" x="459.5" y="-1251.5" font-family="Helvetica,sans-Serif" font-size="10.00">&#45; enable()</text>
<text text-anchor="start" x="459.5" y="-1240.5" font-family="Helvetica,sans-Serif" font-size="10.00">&#45; disable()</text>
<text text-anchor="start" x="459.5" y="-1229.5" font-family="Helvetica,sans-Serif" font-size="10.00">&#45; suspend()</text>
<text text-anchor="start" x="459.5" y="-1218.5" font-family="Helvetica,sans-Serif" font-size="10.00">&#45; resume()</text>
<text text-anchor="start" x="459.5" y="-1207.5" font-family="Helvetica,sans-Serif" font-size="10.00">&#45; unobserved()</text>
</a>
</g>
</g>
<!-- Node7&#45;&gt;Node6 -->
<g id="edge6" class="edge">
<title>Node7&#45;&gt;Node6</title>
<path fill="none" stroke="midnightblue" d="M447.39,-1219.08C438.78,-1199.46 430.22,-1179.97 422.63,-1162.68"/>
<polygon fill="none" stroke="midnightblue" points="444.26,-1220.66 451.48,-1228.41 450.67,-1217.84 444.26,-1220.66"/>
</g>
<!-- Node12 -->
<g id="node12" class="node">
<title>Node12</title>
<g id="a_node12"><a xlink:href="classnet_1_1_write_event_receiver.html" target="_top" xlink:title=" ">
<polygon fill="white" stroke="black" points="547.5,-1039.5 547.5,-1162.5 670.5,-1162.5 670.5,-1039.5 547.5,-1039.5"/>
<text text-anchor="middle" x="609" y="-1150.5" font-family="Helvetica,sans-Serif" font-size="10.00">net::WriteEventReceiver</text>
<polyline fill="none" stroke="black" points="547.5,-1143.5 670.5,-1143.5 "/>
<text text-anchor="middle" x="609" y="-1131.5" font-family="Helvetica,sans-Serif" font-size="10.00"> </text>
<polyline fill="none" stroke="black" points="547.5,-1124.5 670.5,-1124.5 "/>
<text text-anchor="start" x="555.5" y="-1112.5" font-family="Helvetica,sans-Serif" font-size="10.00">+ setTimeout()</text>
<text text-anchor="start" x="555.5" y="-1101.5" font-family="Helvetica,sans-Serif" font-size="10.00">+ enable()</text>
<text text-anchor="start" x="555.5" y="-1090.5" font-family="Helvetica,sans-Serif" font-size="10.00">+ disable()</text>
<text text-anchor="start" x="555.5" y="-1079.5" font-family="Helvetica,sans-Serif" font-size="10.00">+ suspend()</text>
<text text-anchor="start" x="555.5" y="-1068.5" font-family="Helvetica,sans-Serif" font-size="10.00">+ resume()</text>
<text text-anchor="start" x="555.5" y="-1057.5" font-family="Helvetica,sans-Serif" font-size="10.00"># WriteEventReceiver()</text>
<text text-anchor="start" x="555.5" y="-1046.5" font-family="Helvetica,sans-Serif" font-size="10.00"># writeEvent()</text>
</a>
</g>
</g>
<!-- Node7&#45;&gt;Node12 -->
<g id="edge12" class="edge">
<title>Node7&#45;&gt;Node12</title>
<path fill="none" stroke="midnightblue" d="M556.6,-1220.26C565.48,-1200.22 574.32,-1180.27 582.14,-1162.62"/>
<polygon fill="none" stroke="midnightblue" points="553.37,-1218.91 552.52,-1229.47 559.77,-1221.74 553.37,-1218.91"/>
</g>
<!-- Node8 -->
<g id="node8" class="node">
<title>Node8</title>
<g id="a_node8"><a xlink:href="classnet_1_1_observation_counter.html" target="_top" xlink:title=" ">
<polygon fill="white" stroke="black" points="440.5,-1526.5 440.5,-1583.5 563.5,-1583.5 563.5,-1526.5 440.5,-1526.5"/>
<text text-anchor="middle" x="502" y="-1571.5" font-family="Helvetica,sans-Serif" font-size="10.00">net::ObservationCounter</text>
<polyline fill="none" stroke="black" points="440.5,-1564.5 563.5,-1564.5 "/>
<text text-anchor="start" x="448.5" y="-1552.5" font-family="Helvetica,sans-Serif" font-size="10.00"># observationCounter</text>
<polyline fill="none" stroke="black" points="440.5,-1545.5 563.5,-1545.5 "/>
<text text-anchor="start" x="448.5" y="-1533.5" font-family="Helvetica,sans-Serif" font-size="10.00">+ isObserved()</text>
</a>
</g>
</g>
<!-- Node8&#45;&gt;Node7 -->
<g id="edge7" class="edge">
<title>Node8&#45;&gt;Node7</title>
<path fill="none" stroke="midnightblue" d="M502,-1516.25C502,-1507.86 502,-1498.49 502,-1488.57"/>
<polygon fill="none" stroke="midnightblue" points="498.5,-1516.31 502,-1526.31 505.5,-1516.31 498.5,-1516.31"/>
</g>
<!-- Node9 -->
<g id="node9" class="node">
<title>Node9</title>
<g id="a_node9"><a xlink:title=" ">
<polygon fill="white" stroke="#bfbfbf" points="476.5,-1072.5 476.5,-1129.5 529.5,-1129.5 529.5,-1072.5 476.5,-1072.5"/>
<text text-anchor="middle" x="503" y="-1117.5" font-family="Helvetica,sans-Serif" font-size="10.00">SocketT</text>
<polyline fill="none" stroke="#bfbfbf" points="476.5,-1110.5 529.5,-1110.5 "/>
<text text-anchor="middle" x="503" y="-1098.5" font-family="Helvetica,sans-Serif" font-size="10.00"> </text>
<polyline fill="none" stroke="#bfbfbf" points="476.5,-1091.5 529.5,-1091.5 "/>
<text text-anchor="middle" x="503" y="-1079.5" font-family="Helvetica,sans-Serif" font-size="10.00"> </text>
</a>
</g>
</g>
<!-- Node9&#45;&gt;Node5 -->
<g id="edge8" class="edge">
<title>Node9&#45;&gt;Node5</title>
<path fill="none" stroke="midnightblue" d="M488.28,-1062.91C478.25,-1037.61 464.73,-1003.54 453.13,-974.32"/>
<polygon fill="none" stroke="midnightblue" points="485.14,-1064.48 492.08,-1072.48 491.65,-1061.9 485.14,-1064.48"/>
</g>
<!-- Node11 -->
<g id="node11" class="node">
<title>Node11</title>
<g id="a_node11"><a xlink:href="classnet_1_1socket_1_1stream_1_1_socket_writer.html" target="_top" xlink:title=" ">
<polygon fill="white" stroke="black" points="517,-845.5 517,-979.5 651,-979.5 651,-845.5 517,-845.5"/>
<text text-anchor="start" x="525" y="-967.5" font-family="Helvetica,sans-Serif" font-size="10.00">net::socket::stream</text>
<text text-anchor="middle" x="584" y="-956.5" font-family="Helvetica,sans-Serif" font-size="10.00">::SocketWriter&lt; SocketT &gt;</text>
<polyline fill="none" stroke="black" points="517,-949.5 651,-949.5 "/>
<text text-anchor="start" x="525" y="-937.5" font-family="Helvetica,sans-Serif" font-size="10.00">&#45; onError</text>
<text text-anchor="start" x="525" y="-926.5" font-family="Helvetica,sans-Serif" font-size="10.00">&#45; writeBuffer</text>
<polyline fill="none" stroke="black" points="517,-919.5 651,-919.5 "/>
<text text-anchor="start" x="525" y="-907.5" font-family="Helvetica,sans-Serif" font-size="10.00"># SocketWriter()</text>
<text text-anchor="start" x="525" y="-896.5" font-family="Helvetica,sans-Serif" font-size="10.00"># SocketWriter()</text>
<text text-anchor="start" x="525" y="-885.5" font-family="Helvetica,sans-Serif" font-size="10.00"># ~SocketWriter()</text>
<text text-anchor="start" x="525" y="-874.5" font-family="Helvetica,sans-Serif" font-size="10.00"># writeEvent()</text>
<text text-anchor="start" x="525" y="-863.5" font-family="Helvetica,sans-Serif" font-size="10.00"># enqueue()</text>
<text text-anchor="start" x="525" y="-852.5" font-family="Helvetica,sans-Serif" font-size="10.00"># write()</text>
</a>
</g>
</g>
<!-- Node9&#45;&gt;Node11 -->
<g id="edge13" class="edge">
<title>Node9&#45;&gt;Node11</title>
<path fill="none" stroke="midnightblue" d="M519.01,-1063.14C529.32,-1039.4 543.02,-1007.85 555.19,-979.84"/>
<polygon fill="none" stroke="midnightblue" points="515.73,-1061.91 514.95,-1072.48 522.15,-1064.7 515.73,-1061.91"/>
</g>
<!-- Node10 -->
<g id="node10" class="node">
<title>Node10</title>
<g id="a_node10"><a xlink:href="classnet_1_1socket_1_1stream_1_1tls_1_1_socket_writer.html" target="_top" xlink:title=" ">
<polygon fill="white" stroke="black" points="529.5,-607.5 529.5,-686.5 630.5,-686.5 630.5,-607.5 529.5,-607.5"/>
<text text-anchor="start" x="537.5" y="-674.5" font-family="Helvetica,sans-Serif" font-size="10.00">net::socket::stream</text>
<text text-anchor="start" x="537.5" y="-663.5" font-family="Helvetica,sans-Serif" font-size="10.00">::tls::SocketWriter</text>
<text text-anchor="middle" x="580" y="-652.5" font-family="Helvetica,sans-Serif" font-size="10.00">&lt; SocketT &gt;</text>
<polyline fill="none" stroke="black" points="529.5,-645.5 630.5,-645.5 "/>
<text text-anchor="start" x="537.5" y="-633.5" font-family="Helvetica,sans-Serif" font-size="10.00"># ssl</text>
<polyline fill="none" stroke="black" points="529.5,-626.5 630.5,-626.5 "/>
<text text-anchor="start" x="537.5" y="-614.5" font-family="Helvetica,sans-Serif" font-size="10.00"># write()</text>
</a>
</g>
</g>
<!-- Node10&#45;&gt;Node2 -->
<g id="edge9" class="edge">
<title>Node10&#45;&gt;Node2</title>
<path fill="none" stroke="midnightblue" d="M549.04,-598.76C530.96,-571.75 507.36,-537.49 485,-508 452.8,-465.53 415.25,-419.94 383.04,-381.92"/>
<polygon fill="none" stroke="midnightblue" points="546.25,-600.88 554.71,-607.26 552.07,-597 546.25,-600.88"/>
</g>
<!-- Node11&#45;&gt;Node10 -->
<g id="edge10" class="edge">
<title>Node11&#45;&gt;Node10</title>
<path fill="none" stroke="midnightblue" d="M582.84,-835.17C582.1,-786.57 581.18,-725.65 580.59,-686.77"/>
<polygon fill="none" stroke="midnightblue" points="579.34,-835.4 583,-845.35 586.34,-835.3 579.34,-835.4"/>
</g>
<!-- Node12&#45;&gt;Node11 -->
<g id="edge11" class="edge">
<title>Node12&#45;&gt;Node11</title>
<path fill="none" stroke="midnightblue" d="M599.54,-1029.41C597.34,-1013.05 595.02,-995.7 592.85,-979.54"/>
<polygon fill="none" stroke="midnightblue" points="596.09,-1030 600.88,-1039.45 603.02,-1029.07 596.09,-1030"/>
</g>
<!-- Node13&#45;&gt;Node2 -->
<g id="edge14" class="edge">
<title>Node13&#45;&gt;Node2</title>
<path fill="none" stroke="orange" d="M207.64,-498.17C209.96,-484.1 213.02,-470.18 217,-457 221.19,-443.14 226.72,-429.16 232.99,-415.53"/>
<polygon fill="orange" stroke="orange" points="204.12,-498.01 206.07,-508.43 211.04,-499.07 204.12,-498.01"/>
<text text-anchor="start" x="217" y="-482" font-family="Helvetica,sans-Serif" font-size="10.00"> &lt; tls::SocketReader</text>
<text text-anchor="start" x="217" y="-471" font-family="Helvetica,sans-Serif" font-size="10.00">&lt; SocketT &gt;, tls::SocketWriter</text>
<text text-anchor="middle" x="306" y="-460" font-family="Helvetica,sans-Serif" font-size="10.00">&lt; SocketT &gt;, SocketT::SocketAddress &gt;</text>
</g>
<!-- Node14 -->
<g id="node14" class="node">
<title>Node14</title>
<g id="a_node14"><a xlink:title=" ">
<polygon fill="white" stroke="#bfbfbf" points="158.5,-884 158.5,-941 243.5,-941 243.5,-884 158.5,-884"/>
<text text-anchor="middle" x="201" y="-929" font-family="Helvetica,sans-Serif" font-size="10.00">SocketReaderT</text>
<polyline fill="none" stroke="#bfbfbf" points="158.5,-922 243.5,-922 "/>
<text text-anchor="middle" x="201" y="-910" font-family="Helvetica,sans-Serif" font-size="10.00"> </text>
<polyline fill="none" stroke="#bfbfbf" points="158.5,-903 243.5,-903 "/>
<text text-anchor="middle" x="201" y="-891" font-family="Helvetica,sans-Serif" font-size="10.00"> </text>
</a>
</g>
</g>
<!-- Node14&#45;&gt;Node13 -->
<g id="edge16" class="edge">
<title>Node14&#45;&gt;Node13</title>
<path fill="none" stroke="midnightblue" d="M201.29,-873.57C201.47,-849.98 201.71,-818.04 201.96,-785.63"/>
<polygon fill="none" stroke="midnightblue" points="197.79,-873.77 201.21,-883.8 204.79,-873.83 197.79,-873.77"/>
</g>
<!-- Node15 -->
<g id="node15" class="node">
<title>Node15</title>
<g id="a_node15"><a xlink:title=" ">
<polygon fill="white" stroke="#bfbfbf" points="261.5,-884 261.5,-941 340.5,-941 340.5,-884 261.5,-884"/>
<text text-anchor="middle" x="301" y="-929" font-family="Helvetica,sans-Serif" font-size="10.00">SocketWriterT</text>
<polyline fill="none" stroke="#bfbfbf" points="261.5,-922 340.5,-922 "/>
<text text-anchor="middle" x="301" y="-910" font-family="Helvetica,sans-Serif" font-size="10.00"> </text>
<polyline fill="none" stroke="#bfbfbf" points="261.5,-903 340.5,-903 "/>
<text text-anchor="middle" x="301" y="-891" font-family="Helvetica,sans-Serif" font-size="10.00"> </text>
</a>
</g>
</g>
<!-- Node15&#45;&gt;Node13 -->
<g id="edge17" class="edge">
<title>Node15&#45;&gt;Node13</title>
<path fill="none" stroke="midnightblue" d="M287.13,-874.21C278.33,-850.55 266.35,-818.33 254.19,-785.63"/>
<polygon fill="none" stroke="midnightblue" points="283.93,-875.65 290.7,-883.8 290.49,-873.21 283.93,-875.65"/>
</g>
</g>
</svg>
