<?xml version="1.0" encoding="UTF-8" standalone="no"?>
<!DOCTYPE svg PUBLIC "-//W3C//DTD SVG 1.1//EN"
 "http://www.w3.org/Graphics/SVG/1.1/DTD/svg11.dtd">
<!-- Generated by graphviz version 2.43.0 (0)
 -->
<!-- Title: net::EventLoop::getWriteEventDispatcher Pages: 1 -->
<svg width="494pt" height="280pt"
 viewBox="0.00 0.00 494.00 280.00" xmlns="http://www.w3.org/2000/svg" xmlns:xlink="http://www.w3.org/1999/xlink">
<g id="graph0" class="graph" transform="scale(1 1) rotate(0) translate(4 276)">
<title>net::EventLoop::getWriteEventDispatcher</title>
<polygon fill="white" stroke="transparent" points="-4,4 -4,-276 490,-276 490,4 -4,4"/>
<!-- Node1 -->
<g id="node1" class="node">
<title>Node1</title>
<g id="a_node1"><a xlink:title=" ">
<polygon fill="#bfbfbf" stroke="black" points="361,-150 361,-180 486,-180 486,-150 361,-150"/>
<text text-anchor="start" x="369" y="-168" font-family="Helvetica,sans-Serif" font-size="10.00">net::EventLoop::getWrite</text>
<text text-anchor="middle" x="423.5" y="-157" font-family="Helvetica,sans-Serif" font-size="10.00">EventDispatcher</text>
</a>
</g>
</g>
<!-- Node2 -->
<g id="node2" class="node">
<title>Node2</title>
<g id="a_node2"><a xlink:href="classnet_1_1_write_event_receiver.html#a5fde8579d923d80afbd015935d1fdea9" target="_top" xlink:title=" ">
<polygon fill="white" stroke="black" points="202,-126 202,-156 325,-156 325,-126 202,-126"/>
<text text-anchor="start" x="210" y="-144" font-family="Helvetica,sans-Serif" font-size="10.00">net::WriteEventReceiver</text>
<text text-anchor="middle" x="263.5" y="-133" font-family="Helvetica,sans-Serif" font-size="10.00">::disable</text>
</a>
</g>
</g>
<!-- Node1&#45;&gt;Node2 -->
<g id="edge1" class="edge">
<title>Node1&#45;&gt;Node2</title>
<path fill="none" stroke="midnightblue" d="M350.91,-154.13C342.29,-152.82 333.54,-151.49 325.09,-150.2"/>
<polygon fill="midnightblue" stroke="midnightblue" points="350.55,-157.61 360.96,-155.65 351.6,-150.69 350.55,-157.61"/>
</g>
<!-- Node7 -->
<g id="node7" class="node">
<title>Node7</title>
<g id="a_node7"><a xlink:href="classnet_1_1_write_event_receiver.html#a5ca2e9b06ac5eef0a80e65520fb109ad" target="_top" xlink:title=" ">
<polygon fill="white" stroke="black" points="202,-178 202,-208 325,-208 325,-178 202,-178"/>
<text text-anchor="start" x="210" y="-196" font-family="Helvetica,sans-Serif" font-size="10.00">net::WriteEventReceiver</text>
<text text-anchor="middle" x="263.5" y="-185" font-family="Helvetica,sans-Serif" font-size="10.00">::enable</text>
</a>
</g>
</g>
<!-- Node1&#45;&gt;Node7 -->
<g id="edge6" class="edge">
<title>Node1&#45;&gt;Node7</title>
<path fill="none" stroke="midnightblue" d="M350.91,-177.69C342.29,-179.22 333.54,-180.76 325.09,-182.26"/>
<polygon fill="midnightblue" stroke="midnightblue" points="351.72,-181.1 360.96,-175.91 350.5,-174.2 351.72,-181.1"/>
</g>
<!-- Node3 -->
<g id="node3" class="node">
<title>Node3</title>
<g id="a_node3"><a xlink:href="classnet_1_1socket_1_1tcp_1_1_socket_client.html#a6876b877836632e71f827f347dcc12ea" target="_top" xlink:title=" ">
<polygon fill="white" stroke="black" points="0,-120.5 0,-161.5 166,-161.5 166,-120.5 0,-120.5"/>
<text text-anchor="start" x="8" y="-149.5" font-family="Helvetica,sans-Serif" font-size="10.00">net::socket::tcp::Socket</text>
<text text-anchor="start" x="8" y="-138.5" font-family="Helvetica,sans-Serif" font-size="10.00">Client&lt; legacy::SocketConnection</text>
<text text-anchor="middle" x="83" y="-127.5" font-family="Helvetica,sans-Serif" font-size="10.00"> &gt;::connect</text>
</a>
</g>
</g>
<!-- Node2&#45;&gt;Node3 -->
<g id="edge2" class="edge">
<title>Node2&#45;&gt;Node3</title>
<path fill="none" stroke="midnightblue" d="M191.52,-141C183.18,-141 174.61,-141 166.12,-141"/>
<polygon fill="midnightblue" stroke="midnightblue" points="191.57,-144.5 201.57,-141 191.57,-137.5 191.57,-144.5"/>
</g>
<!-- Node4 -->
<g id="node4" class="node">
<title>Node4</title>
<g id="a_node4"><a xlink:href="classnet_1_1socket_1_1tcp_1_1tls_1_1_socket_listener.html#aa2089ec6d0a95a32c05dc57e5470a72d" target="_top" xlink:title=" ">
<polygon fill="white" stroke="black" points="3.5,-181 3.5,-211 162.5,-211 162.5,-181 3.5,-181"/>
<text text-anchor="start" x="11.5" y="-199" font-family="Helvetica,sans-Serif" font-size="10.00">net::socket::tcp::tls</text>
<text text-anchor="middle" x="83" y="-188" font-family="Helvetica,sans-Serif" font-size="10.00">::SocketListener::SocketListener</text>
</a>
</g>
</g>
<!-- Node2&#45;&gt;Node4 -->
<g id="edge3" class="edge">
<title>Node2&#45;&gt;Node4</title>
<path fill="none" stroke="midnightblue" d="M204.81,-158.99C192.03,-162.96 178.56,-167.13 166,-171 155.47,-174.24 144.18,-177.7 133.45,-180.97"/>
<polygon fill="midnightblue" stroke="midnightblue" points="205.9,-162.32 214.41,-156.01 203.82,-155.63 205.9,-162.32"/>
</g>
<!-- Node5 -->
<g id="node5" class="node">
<title>Node5</title>
<g id="a_node5"><a xlink:href="classnet_1_1socket_1_1tcp_1_1_socket_writer.html#a4436523ff09395798ed1b3a3ff3911b5" target="_top" xlink:title=" ">
<polygon fill="white" stroke="black" points="22,-0.5 22,-41.5 144,-41.5 144,-0.5 22,-0.5"/>
<text text-anchor="start" x="30" y="-29.5" font-family="Helvetica,sans-Serif" font-size="10.00">net::socket::tcp::Socket</text>
<text text-anchor="start" x="30" y="-18.5" font-family="Helvetica,sans-Serif" font-size="10.00">Writer&lt; legacy::Socket</text>
<text text-anchor="middle" x="83" y="-7.5" font-family="Helvetica,sans-Serif" font-size="10.00"> &gt;::writeEvent</text>
</a>
</g>
</g>
<!-- Node2&#45;&gt;Node5 -->
<g id="edge4" class="edge">
<title>Node2&#45;&gt;Node5</title>
<path fill="none" stroke="midnightblue" d="M243,-118.24C224.81,-98.21 196.03,-69.44 166,-51 159.28,-46.88 151.91,-43.19 144.43,-39.93"/>
<polygon fill="midnightblue" stroke="midnightblue" points="240.63,-120.84 249.89,-125.97 245.85,-116.18 240.63,-120.84"/>
</g>
<!-- Node6 -->
<g id="node6" class="node">
<title>Node6</title>
<g id="a_node6"><a xlink:href="classnet_1_1socket_1_1tcp_1_1_socket_writer.html#a01a0f60c4c50c4beb63df7a3cd810dd1" target="_top" xlink:title=" ">
<polygon fill="white" stroke="black" points="22,-60.5 22,-101.5 144,-101.5 144,-60.5 22,-60.5"/>
<text text-anchor="start" x="30" y="-89.5" font-family="Helvetica,sans-Serif" font-size="10.00">net::socket::tcp::Socket</text>
<text text-anchor="start" x="30" y="-78.5" font-family="Helvetica,sans-Serif" font-size="10.00">Writer&lt; legacy::Socket</text>
<text text-anchor="middle" x="83" y="-67.5" font-family="Helvetica,sans-Serif" font-size="10.00"> &gt;::~SocketWriter</text>
</a>
</g>
</g>
<!-- Node2&#45;&gt;Node6 -->
<g id="edge5" class="edge">
<title>Node2&#45;&gt;Node6</title>
<path fill="none" stroke="midnightblue" d="M207.82,-122.62C187.69,-115.86 164.79,-108.16 144.21,-101.24"/>
<polygon fill="midnightblue" stroke="midnightblue" points="206.86,-125.99 217.46,-125.86 209.09,-119.36 206.86,-125.99"/>
</g>
<!-- Node7&#45;&gt;Node3 -->
<g id="edge7" class="edge">
<title>Node7&#45;&gt;Node3</title>
<path fill="none" stroke="midnightblue" d="M201.17,-175.13C186.11,-170.75 169.88,-166.02 154.44,-161.52"/>
<polygon fill="midnightblue" stroke="midnightblue" points="200.29,-178.52 210.87,-177.96 202.25,-171.8 200.29,-178.52"/>
</g>
<!-- Node7&#45;&gt;Node4 -->
<g id="edge9" class="edge">
<title>Node7&#45;&gt;Node4</title>
<path fill="none" stroke="midnightblue" d="M191.44,-194.19C181.97,-194.35 172.23,-194.52 162.65,-194.68"/>
<polygon fill="midnightblue" stroke="midnightblue" points="191.63,-197.69 201.57,-194.02 191.51,-190.69 191.63,-197.69"/>
</g>
<!-- Node8 -->
<g id="node8" class="node">
<title>Node8</title>
<g id="a_node8"><a xlink:href="classnet_1_1socket_1_1tcp_1_1_socket_writer.html#a7f3b27f9ba5ac8ce84fe788264300b11" target="_top" xlink:title=" ">
<polygon fill="white" stroke="black" points="22,-230.5 22,-271.5 144,-271.5 144,-230.5 22,-230.5"/>
<text text-anchor="start" x="30" y="-259.5" font-family="Helvetica,sans-Serif" font-size="10.00">net::socket::tcp::Socket</text>
<text text-anchor="start" x="30" y="-248.5" font-family="Helvetica,sans-Serif" font-size="10.00">Writer&lt; legacy::Socket</text>
<text text-anchor="middle" x="83" y="-237.5" font-family="Helvetica,sans-Serif" font-size="10.00"> &gt;::enqueue</text>
</a>
</g>
</g>
<!-- Node7&#45;&gt;Node8 -->
<g id="edge8" class="edge">
<title>Node7&#45;&gt;Node8</title>
<path fill="none" stroke="midnightblue" d="M206.54,-211.18C186.66,-217.64 164.21,-224.94 144,-231.5"/>
<polygon fill="midnightblue" stroke="midnightblue" points="207.64,-214.51 216.07,-208.09 205.48,-207.85 207.64,-214.51"/>
</g>
</g>
</svg>
