<?xml version="1.0" encoding="UTF-8" standalone="no"?>
<!DOCTYPE svg PUBLIC "-//W3C//DTD SVG 1.1//EN"
 "http://www.w3.org/Graphics/SVG/1.1/DTD/svg11.dtd">
<!-- Generated by graphviz version 2.43.0 (0)
 -->
<!-- Title: http::Request Pages: 1 -->
<svg width="119pt" height="413pt"
 viewBox="0.00 0.00 119.00 413.00" xmlns="http://www.w3.org/2000/svg" xmlns:xlink="http://www.w3.org/1999/xlink">
<g id="graph0" class="graph" transform="scale(1 1) rotate(0) translate(4 409)">
<title>http::Request</title>
<polygon fill="white" stroke="transparent" points="-4,4 -4,-409 115,-409 115,4 -4,4"/>
<!-- Node1 -->
<g id="node1" class="node">
<title>Node1</title>
<g id="a_node1"><a xlink:title=" ">
<polygon fill="#bfbfbf" stroke="black" points="12,-0.5 12,-233.5 99,-233.5 99,-0.5 12,-0.5"/>
<text text-anchor="middle" x="55.5" y="-221.5" font-family="Helvetica,sans-Serif" font-size="10.00">http::Request</text>
<polyline fill="none" stroke="black" points="12,-214.5 99,-214.5 "/>
<text text-anchor="start" x="20" y="-202.5" font-family="Helvetica,sans-Serif" font-size="10.00">+ method</text>
<text text-anchor="start" x="20" y="-191.5" font-family="Helvetica,sans-Serif" font-size="10.00">+ url</text>
<text text-anchor="start" x="20" y="-180.5" font-family="Helvetica,sans-Serif" font-size="10.00">+ httpVersion</text>
<text text-anchor="start" x="20" y="-169.5" font-family="Helvetica,sans-Serif" font-size="10.00">+ body</text>
<text text-anchor="start" x="20" y="-158.5" font-family="Helvetica,sans-Serif" font-size="10.00">+ contentLength</text>
<text text-anchor="start" x="20" y="-147.5" font-family="Helvetica,sans-Serif" font-size="10.00">+ keepAlive</text>
<text text-anchor="start" x="20" y="-136.5" font-family="Helvetica,sans-Serif" font-size="10.00"># queries</text>
<text text-anchor="start" x="20" y="-125.5" font-family="Helvetica,sans-Serif" font-size="10.00"># headers</text>
<text text-anchor="start" x="20" y="-114.5" font-family="Helvetica,sans-Serif" font-size="10.00"># cookies</text>
<text text-anchor="start" x="20" y="-103.5" font-family="Helvetica,sans-Serif" font-size="10.00"># nullstr</text>
<polyline fill="none" stroke="black" points="12,-96.5 99,-96.5 "/>
<text text-anchor="start" x="20" y="-84.5" font-family="Helvetica,sans-Serif" font-size="10.00">+ header()</text>
<text text-anchor="start" x="20" y="-73.5" font-family="Helvetica,sans-Serif" font-size="10.00">+ cookie()</text>
<text text-anchor="start" x="20" y="-62.5" font-family="Helvetica,sans-Serif" font-size="10.00">+ query()</text>
<text text-anchor="start" x="20" y="-51.5" font-family="Helvetica,sans-Serif" font-size="10.00">+ bodyLength()</text>
<text text-anchor="start" x="20" y="-40.5" font-family="Helvetica,sans-Serif" font-size="10.00"># Request()</text>
<text text-anchor="start" x="20" y="-29.5" font-family="Helvetica,sans-Serif" font-size="10.00"># ~Request()</text>
<text text-anchor="start" x="20" y="-18.5" font-family="Helvetica,sans-Serif" font-size="10.00"># extend()</text>
<text text-anchor="start" x="20" y="-7.5" font-family="Helvetica,sans-Serif" font-size="10.00"># reset()</text>
</a>
</g>
</g>
<!-- Node2 -->
<g id="node2" class="node">
<title>Node2</title>
<g id="a_node2"><a xlink:href="classutils_1_1_multible_attribute_injector.html" target="_top" xlink:title=" ">
<polygon fill="white" stroke="black" points="0,-270.5 0,-404.5 111,-404.5 111,-270.5 0,-270.5"/>
<text text-anchor="start" x="8" y="-392.5" font-family="Helvetica,sans-Serif" font-size="10.00">utils::MultibleAttribute</text>
<text text-anchor="middle" x="55.5" y="-381.5" font-family="Helvetica,sans-Serif" font-size="10.00">Injector</text>
<polyline fill="none" stroke="black" points="0,-374.5 111,-374.5 "/>
<text text-anchor="start" x="8" y="-362.5" font-family="Helvetica,sans-Serif" font-size="10.00">&#45; attributes</text>
<polyline fill="none" stroke="black" points="0,-355.5 111,-355.5 "/>
<text text-anchor="start" x="8" y="-343.5" font-family="Helvetica,sans-Serif" font-size="10.00">+ setAttribute()</text>
<text text-anchor="start" x="8" y="-332.5" font-family="Helvetica,sans-Serif" font-size="10.00">+ setAttribute()</text>
<text text-anchor="start" x="8" y="-321.5" font-family="Helvetica,sans-Serif" font-size="10.00">+ delAttribute()</text>
<text text-anchor="start" x="8" y="-310.5" font-family="Helvetica,sans-Serif" font-size="10.00">+ hasAttribute()</text>
<text text-anchor="start" x="8" y="-299.5" font-family="Helvetica,sans-Serif" font-size="10.00">+ getAttribute()</text>
<text text-anchor="start" x="8" y="-288.5" font-family="Helvetica,sans-Serif" font-size="10.00">+ getAttribute()</text>
<text text-anchor="start" x="8" y="-277.5" font-family="Helvetica,sans-Serif" font-size="10.00">+ reset()</text>
</a>
</g>
</g>
<!-- Node2&#45;&gt;Node1 -->
<g id="edge1" class="edge">
<title>Node2&#45;&gt;Node1</title>
<path fill="none" stroke="midnightblue" d="M55.5,-260.32C55.5,-251.65 55.5,-242.67 55.5,-233.63"/>
<polygon fill="none" stroke="midnightblue" points="52,-260.35 55.5,-270.35 59,-260.35 52,-260.35"/>
</g>
</g>
</svg>
