<?xml version="1.0" encoding="UTF-8" standalone="no"?>
<!DOCTYPE svg PUBLIC "-//W3C//DTD SVG 1.1//EN"
 "http://www.w3.org/Graphics/SVG/1.1/DTD/svg11.dtd">
<!-- Generated by graphviz version 2.43.0 (0)
 -->
<!-- Title: web::websocket::server::SocketContextUpgradeFactory::create Pages: 1 -->
<svg width="996pt" height="577pt"
 viewBox="0.00 0.00 996.00 576.50" xmlns="http://www.w3.org/2000/svg" xmlns:xlink="http://www.w3.org/1999/xlink">
<g id="graph0" class="graph" transform="scale(1 1) rotate(0) translate(4 572.5)">
<title>web::websocket::server::SocketContextUpgradeFactory::create</title>
<polygon fill="white" stroke="transparent" points="-4,4 -4,-572.5 992,-572.5 992,4 -4,4"/>
<!-- Node1 -->
<g id="node1" class="node">
<title>Node1</title>
<g id="a_node1"><a xlink:title=" ">
<polygon fill="#bfbfbf" stroke="black" points="0,-220 0,-261 158,-261 158,-220 0,-220"/>
<text text-anchor="start" x="8" y="-249" font-family="Helvetica,sans-Serif" font-size="10.00">web::websocket::server</text>
<text text-anchor="start" x="8" y="-238" font-family="Helvetica,sans-Serif" font-size="10.00">::SocketContextUpgradeFactory</text>
<text text-anchor="middle" x="79" y="-227" font-family="Helvetica,sans-Serif" font-size="10.00">::create</text>
</a>
</g>
</g>
<!-- Node2 -->
<g id="node2" class="node">
<title>Node2</title>
<g id="a_node2"><a xlink:href="classweb_1_1http_1_1server_1_1_socket_context_upgrade_factory.html#ad6da4e4f4825434741da9130a3d77e46" target="_top" xlink:title=" ">
<polygon fill="white" stroke="black" points="204.5,-467 204.5,-508 356.5,-508 356.5,-467 204.5,-467"/>
<text text-anchor="start" x="212.5" y="-496" font-family="Helvetica,sans-Serif" font-size="10.00">web::http::server::</text>
<text text-anchor="start" x="212.5" y="-485" font-family="Helvetica,sans-Serif" font-size="10.00">SocketContextUpgradeFactory</text>
<text text-anchor="middle" x="280.5" y="-474" font-family="Helvetica,sans-Serif" font-size="10.00">::checkRefCount</text>
</a>
</g>
</g>
<!-- Node1&#45;&gt;Node2 -->
<g id="edge1" class="edge">
<title>Node1&#45;&gt;Node2</title>
<path fill="none" stroke="midnightblue" d="M85.26,-261.03C97.24,-303.74 130.55,-402.71 194,-457.5 195.52,-458.81 197.1,-460.07 198.73,-461.27"/>
<polygon fill="midnightblue" stroke="midnightblue" points="196.97,-464.3 207.26,-466.83 200.8,-458.44 196.97,-464.3"/>
</g>
<!-- Node6 -->
<g id="node6" class="node">
<title>Node6</title>
<g id="a_node6"><a xlink:href="classweb_1_1websocket_1_1_sub_protocol_factory.html#a9d5db0f8fb69dfc1a70ecaa5ecad1cb4" target="_top" xlink:title=" ">
<polygon fill="white" stroke="black" points="207,-417.5 207,-447.5 354,-447.5 354,-417.5 207,-417.5"/>
<text text-anchor="start" x="215" y="-435.5" font-family="Helvetica,sans-Serif" font-size="10.00">web::websocket::SubProtocol</text>
<text text-anchor="middle" x="280.5" y="-424.5" font-family="Helvetica,sans-Serif" font-size="10.00">Factory::createSubProtocol</text>
</a>
</g>
</g>
<!-- Node1&#45;&gt;Node6 -->
<g id="edge5" class="edge">
<title>Node1&#45;&gt;Node6</title>
<path fill="none" stroke="midnightblue" d="M88.35,-261.28C103.76,-296.94 140.08,-369.67 194,-408.5 196.08,-410 198.25,-411.4 200.49,-412.72"/>
<polygon fill="midnightblue" stroke="midnightblue" points="198.95,-415.86 209.43,-417.38 202.18,-409.65 198.95,-415.86"/>
</g>
<!-- Node8 -->
<g id="node8" class="node">
<title>Node8</title>
<g id="a_node8"><a xlink:href="classweb_1_1websocket_1_1_sub_protocol_factory.html#a68b08cdb756aed797a03aebb0839d0f3" target="_top" xlink:title=" ">
<polygon fill="white" stroke="black" points="207,-368.5 207,-398.5 354,-398.5 354,-368.5 207,-368.5"/>
<text text-anchor="start" x="215" y="-386.5" font-family="Helvetica,sans-Serif" font-size="10.00">web::websocket::SubProtocol</text>
<text text-anchor="middle" x="280.5" y="-375.5" font-family="Helvetica,sans-Serif" font-size="10.00">Factory::deleteSubProtocol</text>
</a>
</g>
</g>
<!-- Node1&#45;&gt;Node8 -->
<g id="edge7" class="edge">
<title>Node1&#45;&gt;Node8</title>
<path fill="none" stroke="midnightblue" d="M94.54,-261.17C114.16,-287.57 151.58,-332.87 194,-358.5 197.57,-360.66 201.34,-362.64 205.23,-364.46"/>
<polygon fill="midnightblue" stroke="midnightblue" points="203.9,-367.7 214.47,-368.41 206.65,-361.26 203.9,-367.7"/>
</g>
<!-- Node9 -->
<g id="node9" class="node">
<title>Node9</title>
<g id="a_node9"><a xlink:href="classweb_1_1http_1_1_socket_context_upgrade_factory.html#a7875485748170715a85970d9b3cc306f" target="_top" xlink:title=" ">
<polygon fill="white" stroke="black" points="213,-308 213,-349 348,-349 348,-308 213,-308"/>
<text text-anchor="start" x="221" y="-337" font-family="Helvetica,sans-Serif" font-size="10.00">web::http::SocketContext</text>
<text text-anchor="start" x="221" y="-326" font-family="Helvetica,sans-Serif" font-size="10.00">UpgradeFactory&lt; Request,</text>
<text text-anchor="middle" x="280.5" y="-315" font-family="Helvetica,sans-Serif" font-size="10.00"> Response &gt;::incRefCount</text>
</a>
</g>
</g>
<!-- Node1&#45;&gt;Node9 -->
<g id="edge8" class="edge">
<title>Node1&#45;&gt;Node9</title>
<path fill="none" stroke="midnightblue" d="M117.4,-261.12C139.37,-272.83 167.87,-287.33 194,-298.5 198.47,-300.41 203.1,-302.29 207.79,-304.13"/>
<polygon fill="midnightblue" stroke="midnightblue" points="206.89,-307.54 217.48,-307.84 209.39,-301 206.89,-307.54"/>
</g>
<!-- Node10 -->
<g id="node10" class="node">
<title>Node10</title>
<g id="a_node10"><a xlink:href="classweb_1_1websocket_1_1server_1_1_sub_protocol_factory_selector.html#af5d7d529a2382d67ecb39abaf61f5f9b" target="_top" xlink:title=" ">
<polygon fill="white" stroke="black" points="208,-248 208,-289 353,-289 353,-248 208,-248"/>
<text text-anchor="start" x="216" y="-277" font-family="Helvetica,sans-Serif" font-size="10.00">web::websocket::server</text>
<text text-anchor="start" x="216" y="-266" font-family="Helvetica,sans-Serif" font-size="10.00">::SubProtocolFactorySelector</text>
<text text-anchor="middle" x="280.5" y="-255" font-family="Helvetica,sans-Serif" font-size="10.00">::instance</text>
</a>
</g>
</g>
<!-- Node1&#45;&gt;Node10 -->
<g id="edge9" class="edge">
<title>Node1&#45;&gt;Node10</title>
<path fill="none" stroke="midnightblue" d="M158.28,-251.49C171.32,-253.32 184.89,-255.22 198.01,-257.06"/>
<polygon fill="midnightblue" stroke="midnightblue" points="197.56,-260.53 207.95,-258.46 198.53,-253.6 197.56,-260.53"/>
</g>
<!-- Node11 -->
<g id="node11" class="node">
<title>Node11</title>
<g id="a_node11"><a xlink:href="classweb_1_1websocket_1_1_sub_protocol_factory_selector.html#a128338657a57f6a94a910e95daf91e27" target="_top" xlink:title=" ">
<polygon fill="white" stroke="black" points="207,-198.5 207,-228.5 354,-228.5 354,-198.5 207,-198.5"/>
<text text-anchor="start" x="215" y="-216.5" font-family="Helvetica,sans-Serif" font-size="10.00">web::websocket::SubProtocol</text>
<text text-anchor="middle" x="280.5" y="-205.5" font-family="Helvetica,sans-Serif" font-size="10.00">FactorySelector::select</text>
</a>
</g>
</g>
<!-- Node1&#45;&gt;Node11 -->
<g id="edge10" class="edge">
<title>Node1&#45;&gt;Node11</title>
<path fill="none" stroke="midnightblue" d="M158.28,-229.91C170.94,-228.19 184.08,-226.41 196.85,-224.69"/>
<polygon fill="midnightblue" stroke="midnightblue" points="197.54,-228.12 206.98,-223.31 196.6,-221.19 197.54,-228.12"/>
</g>
<!-- Node17 -->
<g id="node17" class="node">
<title>Node17</title>
<g id="a_node17"><a xlink:href="namespacebase64.html#a43968536c5e19d8c265e17d08fd91c3e" target="_top" xlink:title=" ">
<polygon fill="white" stroke="black" points="206,-160 206,-179 355,-179 355,-160 206,-160"/>
<text text-anchor="middle" x="280.5" y="-167" font-family="Helvetica,sans-Serif" font-size="10.00">base64::serverWebSocketKey</text>
</a>
</g>
</g>
<!-- Node1&#45;&gt;Node17 -->
<g id="edge16" class="edge">
<title>Node1&#45;&gt;Node17</title>
<path fill="none" stroke="midnightblue" d="M120.93,-219.9C142.31,-209.73 169.14,-197.88 194,-189.5 202.8,-186.53 212.26,-183.84 221.57,-181.47"/>
<polygon fill="midnightblue" stroke="midnightblue" points="222.68,-184.8 231.56,-179.02 221.02,-178 222.68,-184.8"/>
</g>
<!-- Node26 -->
<g id="node26" class="node">
<title>Node26</title>
<g id="a_node26"><a xlink:href="classweb_1_1websocket_1_1_sub_protocol.html#a3618c022ad69ac4fbc688f7d0e413123" target="_top" xlink:title=" ">
<polygon fill="white" stroke="black" points="207,-110.5 207,-140.5 354,-140.5 354,-110.5 207,-110.5"/>
<text text-anchor="start" x="215" y="-128.5" font-family="Helvetica,sans-Serif" font-size="10.00">web::websocket::SubProtocol</text>
<text text-anchor="middle" x="280.5" y="-117.5" font-family="Helvetica,sans-Serif" font-size="10.00">::setSocketContext</text>
</a>
</g>
</g>
<!-- Node1&#45;&gt;Node26 -->
<g id="edge25" class="edge">
<title>Node1&#45;&gt;Node26</title>
<path fill="none" stroke="midnightblue" d="M100.94,-219.83C122.58,-199.53 158.15,-169 194,-150.5 198.32,-148.27 202.88,-146.21 207.54,-144.31"/>
<polygon fill="midnightblue" stroke="midnightblue" points="209.11,-147.46 217.22,-140.64 206.63,-140.91 209.11,-147.46"/>
</g>
<!-- Node27 -->
<g id="node27" class="node">
<title>Node27</title>
<g id="a_node27"><a xlink:href="classweb_1_1websocket_1_1server_1_1_socket_context.html#a5509d1bfb5727c55c071bb18485b911a" target="_top" xlink:title=" ">
<polygon fill="white" stroke="black" points="194,-50 194,-91 367,-91 367,-50 194,-50"/>
<text text-anchor="start" x="202" y="-79" font-family="Helvetica,sans-Serif" font-size="10.00">web::websocket::server</text>
<text text-anchor="start" x="202" y="-68" font-family="Helvetica,sans-Serif" font-size="10.00">::SocketContext::setSocketContext</text>
<text text-anchor="middle" x="280.5" y="-57" font-family="Helvetica,sans-Serif" font-size="10.00">UpgradeFactory</text>
</a>
</g>
</g>
<!-- Node1&#45;&gt;Node27 -->
<g id="edge26" class="edge">
<title>Node1&#45;&gt;Node27</title>
<path fill="none" stroke="midnightblue" d="M91.67,-219.89C109.81,-189.59 147.58,-133.11 194,-100.5 196.35,-98.85 198.81,-97.28 201.33,-95.79"/>
<polygon fill="midnightblue" stroke="midnightblue" points="203.03,-98.85 210.17,-91.02 199.71,-92.69 203.03,-98.85"/>
</g>
<!-- Node28 -->
<g id="node28" class="node">
<title>Node28</title>
<g id="a_node28"><a xlink:href="classweb_1_1websocket_1_1_sub_protocol.html#a9fe9e7a3b4fed7b0e7457810bc225c07" target="_top" xlink:title=" ">
<polygon fill="white" stroke="black" points="207,-0.5 207,-30.5 354,-30.5 354,-0.5 207,-0.5"/>
<text text-anchor="start" x="215" y="-18.5" font-family="Helvetica,sans-Serif" font-size="10.00">web::websocket::SubProtocol</text>
<text text-anchor="middle" x="280.5" y="-7.5" font-family="Helvetica,sans-Serif" font-size="10.00">::setSubProtocolFactory</text>
</a>
</g>
</g>
<!-- Node1&#45;&gt;Node28 -->
<g id="edge27" class="edge">
<title>Node1&#45;&gt;Node28</title>
<path fill="none" stroke="midnightblue" d="M86.02,-219.76C98.89,-179.1 133,-88.69 194,-40.5 196.28,-38.7 198.68,-37.03 201.17,-35.49"/>
<polygon fill="midnightblue" stroke="midnightblue" points="202.88,-38.54 209.98,-30.67 199.52,-32.4 202.88,-38.54"/>
</g>
<!-- Node3 -->
<g id="node3" class="node">
<title>Node3</title>
<g id="a_node3"><a xlink:href="classweb_1_1http_1_1server_1_1_socket_context_upgrade_factory_selector.html#a568eb6d1145d9494f8b903609a59f0f0" target="_top" xlink:title=" ">
<polygon fill="white" stroke="black" points="403,-527 403,-568 555,-568 555,-527 403,-527"/>
<text text-anchor="start" x="411" y="-556" font-family="Helvetica,sans-Serif" font-size="10.00">web::http::server::</text>
<text text-anchor="start" x="411" y="-545" font-family="Helvetica,sans-Serif" font-size="10.00">SocketContextUpgradeFactory</text>
<text text-anchor="middle" x="479" y="-534" font-family="Helvetica,sans-Serif" font-size="10.00">Selector::instance</text>
</a>
</g>
</g>
<!-- Node2&#45;&gt;Node3 -->
<g id="edge2" class="edge">
<title>Node2&#45;&gt;Node3</title>
<path fill="none" stroke="midnightblue" d="M348.85,-508.06C365.57,-513.17 383.61,-518.68 400.76,-523.92"/>
<polygon fill="midnightblue" stroke="midnightblue" points="400.15,-527.39 410.74,-526.96 402.2,-520.69 400.15,-527.39"/>
</g>
<!-- Node4 -->
<g id="node4" class="node">
<title>Node4</title>
<g id="a_node4"><a xlink:href="classweb_1_1http_1_1_socket_context_upgrade_factory_selector.html#a95a372b68288705669f80c5721eff016" target="_top" xlink:title=" ">
<polygon fill="white" stroke="black" points="415,-467 415,-508 543,-508 543,-467 415,-467"/>
<text text-anchor="start" x="423" y="-496" font-family="Helvetica,sans-Serif" font-size="10.00">web::http::SocketContext</text>
<text text-anchor="start" x="423" y="-485" font-family="Helvetica,sans-Serif" font-size="10.00">UpgradeFactorySelector</text>
<text text-anchor="middle" x="479" y="-474" font-family="Helvetica,sans-Serif" font-size="10.00">::unload</text>
</a>
</g>
</g>
<!-- Node2&#45;&gt;Node4 -->
<g id="edge3" class="edge">
<title>Node2&#45;&gt;Node4</title>
<path fill="none" stroke="midnightblue" d="M356.63,-487.5C372.36,-487.5 388.93,-487.5 404.6,-487.5"/>
<polygon fill="midnightblue" stroke="midnightblue" points="404.75,-491 414.75,-487.5 404.75,-484 404.75,-491"/>
</g>
<!-- Node5 -->
<g id="node5" class="node">
<title>Node5</title>
<g id="a_node5"><a xlink:href="classnet_1_1_dynamic_loader.html#a5a9fa91333f04c4d646275617976f9c7" target="_top" xlink:title=" ">
<polygon fill="white" stroke="black" points="591,-472.5 591,-502.5 695,-502.5 695,-472.5 591,-472.5"/>
<text text-anchor="start" x="599" y="-490.5" font-family="Helvetica,sans-Serif" font-size="10.00">net::DynamicLoader</text>
<text text-anchor="middle" x="643" y="-479.5" font-family="Helvetica,sans-Serif" font-size="10.00">::dlCloseDelayed</text>
</a>
</g>
</g>
<!-- Node4&#45;&gt;Node5 -->
<g id="edge4" class="edge">
<title>Node4&#45;&gt;Node5</title>
<path fill="none" stroke="midnightblue" d="M543.1,-487.5C555.45,-487.5 568.39,-487.5 580.69,-487.5"/>
<polygon fill="midnightblue" stroke="midnightblue" points="580.84,-491 590.84,-487.5 580.84,-484 580.84,-491"/>
</g>
<!-- Node7 -->
<g id="node7" class="node">
<title>Node7</title>
<g id="a_node7"><a xlink:href="classweb_1_1websocket_1_1_sub_protocol_factory.html#a25eee3fc89fca13bbcbf838a999cb90c" target="_top" xlink:title=" ">
<polygon fill="white" stroke="black" points="405.5,-417.5 405.5,-447.5 552.5,-447.5 552.5,-417.5 405.5,-417.5"/>
<text text-anchor="start" x="413.5" y="-435.5" font-family="Helvetica,sans-Serif" font-size="10.00">web::websocket::SubProtocol</text>
<text text-anchor="middle" x="479" y="-424.5" font-family="Helvetica,sans-Serif" font-size="10.00">Factory::create</text>
</a>
</g>
</g>
<!-- Node6&#45;&gt;Node7 -->
<g id="edge6" class="edge">
<title>Node6&#45;&gt;Node7</title>
<path fill="none" stroke="midnightblue" d="M354.11,-432.5C367.44,-432.5 381.45,-432.5 395.05,-432.5"/>
<polygon fill="midnightblue" stroke="midnightblue" points="395.36,-436 405.36,-432.5 395.36,-429 395.36,-436"/>
</g>
<!-- Node12 -->
<g id="node12" class="node">
<title>Node12</title>
<g id="a_node12"><a xlink:href="classweb_1_1websocket_1_1_sub_protocol_factory_selector.html#acede132589364760936fe84cc98cb7a3" target="_top" xlink:title=" ">
<polygon fill="white" stroke="black" points="405.5,-247.5 405.5,-277.5 552.5,-277.5 552.5,-247.5 405.5,-247.5"/>
<text text-anchor="start" x="413.5" y="-265.5" font-family="Helvetica,sans-Serif" font-size="10.00">web::websocket::SubProtocol</text>
<text text-anchor="middle" x="479" y="-254.5" font-family="Helvetica,sans-Serif" font-size="10.00">FactorySelector::add</text>
</a>
</g>
</g>
<!-- Node11&#45;&gt;Node12 -->
<g id="edge11" class="edge">
<title>Node11&#45;&gt;Node12</title>
<path fill="none" stroke="midnightblue" d="M341.79,-228.53C362.73,-233.76 386.38,-239.65 408.03,-245.05"/>
<polygon fill="midnightblue" stroke="midnightblue" points="407.27,-248.47 417.82,-247.49 408.97,-241.68 407.27,-248.47"/>
</g>
<!-- Node16 -->
<g id="node16" class="node">
<title>Node16</title>
<g id="a_node16"><a xlink:href="classweb_1_1websocket_1_1_sub_protocol_factory_selector.html#a0a66f50d961d8a19be578ca6c61562d1" target="_top" xlink:title=" ">
<polygon fill="white" stroke="black" points="405.5,-198.5 405.5,-228.5 552.5,-228.5 552.5,-198.5 405.5,-198.5"/>
<text text-anchor="start" x="413.5" y="-216.5" font-family="Helvetica,sans-Serif" font-size="10.00">web::websocket::SubProtocol</text>
<text text-anchor="middle" x="479" y="-205.5" font-family="Helvetica,sans-Serif" font-size="10.00">FactorySelector::load</text>
</a>
</g>
</g>
<!-- Node11&#45;&gt;Node16 -->
<g id="edge15" class="edge">
<title>Node11&#45;&gt;Node16</title>
<path fill="none" stroke="midnightblue" d="M354.11,-213.5C367.44,-213.5 381.45,-213.5 395.05,-213.5"/>
<polygon fill="midnightblue" stroke="midnightblue" points="395.36,-217 405.36,-213.5 395.36,-210 395.36,-217"/>
</g>
<!-- Node13 -->
<g id="node13" class="node">
<title>Node13</title>
<g id="a_node13"><a xlink:href="classnet_1_1_dynamic_loader.html#a1aca5c1a857544608e2adf0edc27c82e" target="_top" xlink:title=" ">
<polygon fill="white" stroke="black" points="591,-247.5 591,-277.5 695,-277.5 695,-247.5 591,-247.5"/>
<text text-anchor="start" x="599" y="-265.5" font-family="Helvetica,sans-Serif" font-size="10.00">net::DynamicLoader</text>
<text text-anchor="middle" x="643" y="-254.5" font-family="Helvetica,sans-Serif" font-size="10.00">::dlClose</text>
</a>
</g>
</g>
<!-- Node12&#45;&gt;Node13 -->
<g id="edge12" class="edge">
<title>Node12&#45;&gt;Node13</title>
<path fill="none" stroke="midnightblue" d="M552.94,-262.5C562.22,-262.5 571.64,-262.5 580.7,-262.5"/>
<polygon fill="midnightblue" stroke="midnightblue" points="580.76,-266 590.76,-262.5 580.76,-259 580.76,-266"/>
</g>
<!-- Node14 -->
<g id="node14" class="node">
<title>Node14</title>
<g id="a_node14"><a xlink:href="classnet_1_1_dynamic_loader.html#a959fdd5a4fae487d1cef5c7141ff81ba" target="_top" xlink:title=" ">
<polygon fill="white" stroke="black" points="737,-247.5 737,-277.5 841,-277.5 841,-247.5 737,-247.5"/>
<text text-anchor="start" x="745" y="-265.5" font-family="Helvetica,sans-Serif" font-size="10.00">net::DynamicLoader</text>
<text text-anchor="middle" x="789" y="-254.5" font-family="Helvetica,sans-Serif" font-size="10.00">::execDlClose</text>
</a>
</g>
</g>
<!-- Node13&#45;&gt;Node14 -->
<g id="edge13" class="edge">
<title>Node13&#45;&gt;Node14</title>
<path fill="none" stroke="midnightblue" d="M695.17,-262.5C705.47,-262.5 716.38,-262.5 726.97,-262.5"/>
<polygon fill="midnightblue" stroke="midnightblue" points="726.99,-266 736.99,-262.5 726.99,-259 726.99,-266"/>
</g>
<!-- Node15 -->
<g id="node15" class="node">
<title>Node15</title>
<g id="a_node15"><a xlink:href="namespacenet_1_1system.html#afe90648ec3d910876576a7ce420635af" target="_top" xlink:title=" ">
<polygon fill="white" stroke="black" points="883,-253 883,-272 988,-272 988,-253 883,-253"/>
<text text-anchor="middle" x="935.5" y="-260" font-family="Helvetica,sans-Serif" font-size="10.00">net::system::dlclose</text>
</a>
</g>
</g>
<!-- Node14&#45;&gt;Node15 -->
<g id="edge14" class="edge">
<title>Node14&#45;&gt;Node15</title>
<path fill="none" stroke="midnightblue" d="M841.35,-262.5C851.45,-262.5 862.15,-262.5 872.55,-262.5"/>
<polygon fill="midnightblue" stroke="midnightblue" points="872.83,-266 882.83,-262.5 872.83,-259 872.83,-266"/>
</g>
<!-- Node18 -->
<g id="node18" class="node">
<title>Node18</title>
<g id="a_node18"><a xlink:href="namespacebase64.html#af19189e96ecbd4de55806b9b705f7374" target="_top" xlink:title=" ">
<polygon fill="white" stroke="black" points="418,-160 418,-179 540,-179 540,-160 418,-160"/>
<text text-anchor="middle" x="479" y="-167" font-family="Helvetica,sans-Serif" font-size="10.00">base64::base64_encode</text>
</a>
</g>
</g>
<!-- Node17&#45;&gt;Node18 -->
<g id="edge17" class="edge">
<title>Node17&#45;&gt;Node18</title>
<path fill="none" stroke="midnightblue" d="M355.23,-169.5C372.36,-169.5 390.56,-169.5 407.55,-169.5"/>
<polygon fill="midnightblue" stroke="midnightblue" points="407.95,-173 417.95,-169.5 407.95,-166 407.95,-173"/>
</g>
<!-- Node19 -->
<g id="node19" class="node">
<title>Node19</title>
<g id="a_node19"><a xlink:href="sha1_8cpp.html#afd6b87572914723bc6f531873250aeeb" target="_top" xlink:title=" ">
<polygon fill="white" stroke="black" points="460,-122 460,-141 498,-141 498,-122 460,-122"/>
<text text-anchor="middle" x="479" y="-129" font-family="Helvetica,sans-Serif" font-size="10.00">sha1</text>
</a>
</g>
</g>
<!-- Node17&#45;&gt;Node19 -->
<g id="edge18" class="edge">
<title>Node17&#45;&gt;Node19</title>
<path fill="none" stroke="midnightblue" d="M330.83,-159.96C368.26,-152.72 418.39,-143.03 449.42,-137.03"/>
<polygon fill="midnightblue" stroke="midnightblue" points="450.4,-140.4 459.55,-135.07 449.07,-133.53 450.4,-140.4"/>
</g>
<!-- Node20 -->
<g id="node20" class="node">
<title>Node20</title>
<g id="a_node20"><a xlink:href="class_s_h_a1.html#a89ba0f16575431b0942cbbcfb29107db" target="_top" xlink:title=" ">
<polygon fill="white" stroke="black" points="609.5,-160 609.5,-179 676.5,-179 676.5,-160 609.5,-160"/>
<text text-anchor="middle" x="643" y="-167" font-family="Helvetica,sans-Serif" font-size="10.00">SHA1::final</text>
</a>
</g>
</g>
<!-- Node19&#45;&gt;Node20 -->
<g id="edge19" class="edge">
<title>Node19&#45;&gt;Node20</title>
<path fill="none" stroke="midnightblue" d="M498.27,-135.79C522.64,-141.5 566.54,-151.8 599.43,-159.51"/>
<polygon fill="midnightblue" stroke="midnightblue" points="598.71,-162.94 609.25,-161.82 600.31,-156.13 598.71,-162.94"/>
</g>
<!-- Node24 -->
<g id="node24" class="node">
<title>Node24</title>
<g id="a_node24"><a xlink:href="sha1_8cpp.html#a8208ae2cb301a2a4cf551cd0557bb789" target="_top" xlink:title=" ">
<polygon fill="white" stroke="black" points="591.5,-122 591.5,-141 694.5,-141 694.5,-122 591.5,-122"/>
<text text-anchor="middle" x="643" y="-129" font-family="Helvetica,sans-Serif" font-size="10.00">transform_to_binary</text>
</a>
</g>
</g>
<!-- Node19&#45;&gt;Node24 -->
<g id="edge23" class="edge">
<title>Node19&#45;&gt;Node24</title>
<path fill="none" stroke="midnightblue" d="M498.27,-131.5C518.33,-131.5 551.61,-131.5 581.1,-131.5"/>
<polygon fill="midnightblue" stroke="midnightblue" points="581.35,-135 591.35,-131.5 581.35,-128 581.35,-135"/>
</g>
<!-- Node25 -->
<g id="node25" class="node">
<title>Node25</title>
<g id="a_node25"><a xlink:href="class_s_h_a1.html#aec3a46058baf8b4169389c89e3a0a2f4" target="_top" xlink:title=" ">
<polygon fill="white" stroke="black" points="604,-84 604,-103 682,-103 682,-84 604,-84"/>
<text text-anchor="middle" x="643" y="-91" font-family="Helvetica,sans-Serif" font-size="10.00">SHA1::update</text>
</a>
</g>
</g>
<!-- Node19&#45;&gt;Node25 -->
<g id="edge24" class="edge">
<title>Node19&#45;&gt;Node25</title>
<path fill="none" stroke="midnightblue" d="M498.27,-127.21C521.27,-121.82 561.65,-112.35 593.76,-104.81"/>
<polygon fill="midnightblue" stroke="midnightblue" points="594.93,-108.14 603.87,-102.44 593.33,-101.32 594.93,-108.14"/>
</g>
<!-- Node21 -->
<g id="node21" class="node">
<title>Node21</title>
<g id="a_node21"><a xlink:href="class_s_h_a1.html#ae2b7954449c67afe467c586ecb5cdef0" target="_top" xlink:title=" ">
<polygon fill="white" stroke="black" points="731,-198 731,-217 847,-217 847,-198 731,-198"/>
<text text-anchor="middle" x="789" y="-205" font-family="Helvetica,sans-Serif" font-size="10.00">SHA1::buffer_to_block</text>
</a>
</g>
</g>
<!-- Node20&#45;&gt;Node21 -->
<g id="edge20" class="edge">
<title>Node20&#45;&gt;Node21</title>
<path fill="none" stroke="midnightblue" d="M676.68,-178.12C696.02,-183.23 720.82,-189.77 742.1,-195.39"/>
<polygon fill="midnightblue" stroke="midnightblue" points="741.35,-198.81 751.92,-197.98 743.14,-192.04 741.35,-198.81"/>
</g>
<!-- Node22 -->
<g id="node22" class="node">
<title>Node22</title>
<g id="a_node22"><a xlink:href="class_s_h_a1.html#ab71aaf39ed956320054861a2fbfa454f" target="_top" xlink:title=" ">
<polygon fill="white" stroke="black" points="753.5,-160 753.5,-179 824.5,-179 824.5,-160 753.5,-160"/>
<text text-anchor="middle" x="789" y="-167" font-family="Helvetica,sans-Serif" font-size="10.00">SHA1::reset</text>
</a>
</g>
</g>
<!-- Node20&#45;&gt;Node22 -->
<g id="edge21" class="edge">
<title>Node20&#45;&gt;Node22</title>
<path fill="none" stroke="midnightblue" d="M676.68,-169.5C696.36,-169.5 721.7,-169.5 743.22,-169.5"/>
<polygon fill="midnightblue" stroke="midnightblue" points="743.45,-173 753.45,-169.5 743.45,-166 743.45,-173"/>
</g>
<!-- Node23 -->
<g id="node23" class="node">
<title>Node23</title>
<g id="a_node23"><a xlink:href="class_s_h_a1.html#a6e96e00e6bee105a4a1f8e5baf8a3b9c" target="_top" xlink:title=" ">
<polygon fill="white" stroke="black" points="744,-122 744,-141 834,-141 834,-122 744,-122"/>
<text text-anchor="middle" x="789" y="-129" font-family="Helvetica,sans-Serif" font-size="10.00">SHA1::transform</text>
</a>
</g>
</g>
<!-- Node20&#45;&gt;Node23 -->
<g id="edge22" class="edge">
<title>Node20&#45;&gt;Node23</title>
<path fill="none" stroke="midnightblue" d="M676.68,-160.88C696.02,-155.77 720.82,-149.23 742.1,-143.61"/>
<polygon fill="midnightblue" stroke="midnightblue" points="743.14,-146.96 751.92,-141.02 741.35,-140.19 743.14,-146.96"/>
</g>
</g>
</svg>
