<?xml version="1.0" encoding="UTF-8" standalone="no"?>
<!DOCTYPE svg PUBLIC "-//W3C//DTD SVG 1.1//EN"
 "http://www.w3.org/Graphics/SVG/1.1/DTD/svg11.dtd">
<!-- Generated by graphviz version 2.43.0 (0)
 -->
<!-- Title: http::Client&lt; SocketClientT &gt; Pages: 1 -->
<svg width="658pt" height="475pt"
 viewBox="0.00 0.00 658.00 475.00" xmlns="http://www.w3.org/2000/svg" xmlns:xlink="http://www.w3.org/1999/xlink">
<g id="graph0" class="graph" transform="scale(1 1) rotate(0) translate(4 471)">
<title>http::Client&lt; SocketClientT &gt;</title>
<polygon fill="white" stroke="transparent" points="-4,4 -4,-471 654,-471 654,4 -4,4"/>
<!-- Node1 -->
<g id="node1" class="node">
<title>Node1</title>
<g id="a_node1"><a xlink:title=" ">
<polygon fill="#bfbfbf" stroke="black" points="229.5,-321.5 229.5,-466.5 374.5,-466.5 374.5,-321.5 229.5,-321.5"/>
<text text-anchor="middle" x="302" y="-454.5" font-family="Helvetica,sans-Serif" font-size="10.00">http::Client&lt; SocketClientT &gt;</text>
<polyline fill="none" stroke="black" points="229.5,-447.5 374.5,-447.5 "/>
<text text-anchor="start" x="237.5" y="-435.5" font-family="Helvetica,sans-Serif" font-size="10.00"># onConnect</text>
<text text-anchor="start" x="237.5" y="-424.5" font-family="Helvetica,sans-Serif" font-size="10.00"># onRequestBegin</text>
<text text-anchor="start" x="237.5" y="-413.5" font-family="Helvetica,sans-Serif" font-size="10.00"># onResponseReady</text>
<text text-anchor="start" x="237.5" y="-402.5" font-family="Helvetica,sans-Serif" font-size="10.00"># onResponseError</text>
<text text-anchor="start" x="237.5" y="-391.5" font-family="Helvetica,sans-Serif" font-size="10.00"># onDisconnect</text>
<text text-anchor="start" x="237.5" y="-380.5" font-family="Helvetica,sans-Serif" font-size="10.00"># options</text>
<polyline fill="none" stroke="black" points="229.5,-373.5 374.5,-373.5 "/>
<text text-anchor="start" x="237.5" y="-361.5" font-family="Helvetica,sans-Serif" font-size="10.00">+ Client()</text>
<text text-anchor="start" x="237.5" y="-350.5" font-family="Helvetica,sans-Serif" font-size="10.00">+ connect()</text>
<text text-anchor="start" x="237.5" y="-339.5" font-family="Helvetica,sans-Serif" font-size="10.00">+ get()</text>
<text text-anchor="start" x="237.5" y="-328.5" font-family="Helvetica,sans-Serif" font-size="10.00">+ post()</text>
</a>
</g>
</g>
<!-- Node2 -->
<g id="node2" class="node">
<title>Node2</title>
<g id="a_node2"><a xlink:href="classhttp_1_1_client.html" target="_top" xlink:title=" ">
<polygon fill="white" stroke="black" points="0,-95.5 0,-262.5 122,-262.5 122,-95.5 0,-95.5"/>
<text text-anchor="start" x="8" y="-250.5" font-family="Helvetica,sans-Serif" font-size="10.00">http::Client&lt; net::</text>
<text text-anchor="start" x="8" y="-239.5" font-family="Helvetica,sans-Serif" font-size="10.00">socket::ip::tcp::ipv6</text>
<text text-anchor="middle" x="61" y="-228.5" font-family="Helvetica,sans-Serif" font-size="10.00">::legacy::SocketClient &gt;</text>
<polyline fill="none" stroke="black" points="0,-221.5 122,-221.5 "/>
<text text-anchor="start" x="8" y="-209.5" font-family="Helvetica,sans-Serif" font-size="10.00"># onConnect</text>
<text text-anchor="start" x="8" y="-198.5" font-family="Helvetica,sans-Serif" font-size="10.00"># onRequestBegin</text>
<text text-anchor="start" x="8" y="-187.5" font-family="Helvetica,sans-Serif" font-size="10.00"># onResponseReady</text>
<text text-anchor="start" x="8" y="-176.5" font-family="Helvetica,sans-Serif" font-size="10.00"># onResponseError</text>
<text text-anchor="start" x="8" y="-165.5" font-family="Helvetica,sans-Serif" font-size="10.00"># onDisconnect</text>
<text text-anchor="start" x="8" y="-154.5" font-family="Helvetica,sans-Serif" font-size="10.00"># options</text>
<polyline fill="none" stroke="black" points="0,-147.5 122,-147.5 "/>
<text text-anchor="start" x="8" y="-135.5" font-family="Helvetica,sans-Serif" font-size="10.00">+ Client()</text>
<text text-anchor="start" x="8" y="-124.5" font-family="Helvetica,sans-Serif" font-size="10.00">+ connect()</text>
<text text-anchor="start" x="8" y="-113.5" font-family="Helvetica,sans-Serif" font-size="10.00">+ get()</text>
<text text-anchor="start" x="8" y="-102.5" font-family="Helvetica,sans-Serif" font-size="10.00">+ post()</text>
</a>
</g>
</g>
<!-- Node1&#45;&gt;Node2 -->
<g id="edge1" class="edge">
<title>Node1&#45;&gt;Node2</title>
<path fill="none" stroke="orange" d="M219.19,-381.41C169.81,-369.99 110.25,-347.44 76,-303 67,-291.33 61.75,-277.1 58.88,-262.51"/>
<polygon fill="orange" stroke="orange" points="218.73,-384.89 229.24,-383.61 220.22,-378.05 218.73,-384.89"/>
<text text-anchor="start" x="76" y="-295" font-family="Helvetica,sans-Serif" font-size="10.00"> &lt; net::socket::ip::</text>
<text text-anchor="middle" x="148" y="-284" font-family="Helvetica,sans-Serif" font-size="10.00">tcp::ipv6::legacy::SocketClient &gt;</text>
</g>
<!-- Node4 -->
<g id="node4" class="node">
<title>Node4</title>
<g id="a_node4"><a xlink:href="classhttp_1_1_client.html" target="_top" xlink:title=" ">
<polygon fill="white" stroke="black" points="174,-95.5 174,-262.5 282,-262.5 282,-95.5 174,-95.5"/>
<text text-anchor="start" x="182" y="-250.5" font-family="Helvetica,sans-Serif" font-size="10.00">http::Client&lt; net::</text>
<text text-anchor="start" x="182" y="-239.5" font-family="Helvetica,sans-Serif" font-size="10.00">socket::ip::tcp::ipv6</text>
<text text-anchor="middle" x="228" y="-228.5" font-family="Helvetica,sans-Serif" font-size="10.00">::tls::SocketClient &gt;</text>
<polyline fill="none" stroke="black" points="174,-221.5 282,-221.5 "/>
<text text-anchor="start" x="182" y="-209.5" font-family="Helvetica,sans-Serif" font-size="10.00"># onConnect</text>
<text text-anchor="start" x="182" y="-198.5" font-family="Helvetica,sans-Serif" font-size="10.00"># onRequestBegin</text>
<text text-anchor="start" x="182" y="-187.5" font-family="Helvetica,sans-Serif" font-size="10.00"># onResponseReady</text>
<text text-anchor="start" x="182" y="-176.5" font-family="Helvetica,sans-Serif" font-size="10.00"># onResponseError</text>
<text text-anchor="start" x="182" y="-165.5" font-family="Helvetica,sans-Serif" font-size="10.00"># onDisconnect</text>
<text text-anchor="start" x="182" y="-154.5" font-family="Helvetica,sans-Serif" font-size="10.00"># options</text>
<polyline fill="none" stroke="black" points="174,-147.5 282,-147.5 "/>
<text text-anchor="start" x="182" y="-135.5" font-family="Helvetica,sans-Serif" font-size="10.00">+ Client()</text>
<text text-anchor="start" x="182" y="-124.5" font-family="Helvetica,sans-Serif" font-size="10.00">+ connect()</text>
<text text-anchor="start" x="182" y="-113.5" font-family="Helvetica,sans-Serif" font-size="10.00">+ get()</text>
<text text-anchor="start" x="182" y="-102.5" font-family="Helvetica,sans-Serif" font-size="10.00">+ post()</text>
</a>
</g>
</g>
<!-- Node1&#45;&gt;Node4 -->
<g id="edge3" class="edge">
<title>Node1&#45;&gt;Node4</title>
<path fill="none" stroke="orange" d="M232.82,-312.28C231.4,-309.22 230.12,-306.12 229,-303 224.45,-290.34 222.08,-276.46 221.09,-262.73"/>
<polygon fill="orange" stroke="orange" points="229.77,-314.01 237.43,-321.32 236.01,-310.83 229.77,-314.01"/>
<text text-anchor="start" x="229" y="-295" font-family="Helvetica,sans-Serif" font-size="10.00"> &lt; net::socket::ip::</text>
<text text-anchor="middle" x="292" y="-284" font-family="Helvetica,sans-Serif" font-size="10.00">tcp::ipv6::tls::SocketClient &gt;</text>
</g>
<!-- Node6 -->
<g id="node6" class="node">
<title>Node6</title>
<g id="a_node6"><a xlink:href="classhttp_1_1_client.html" target="_top" xlink:title=" ">
<polygon fill="white" stroke="black" points="323,-95.5 323,-262.5 431,-262.5 431,-95.5 323,-95.5"/>
<text text-anchor="start" x="331" y="-250.5" font-family="Helvetica,sans-Serif" font-size="10.00">http::Client&lt; net::</text>
<text text-anchor="start" x="331" y="-239.5" font-family="Helvetica,sans-Serif" font-size="10.00">socket::ip::tcp::ipv4</text>
<text text-anchor="middle" x="377" y="-228.5" font-family="Helvetica,sans-Serif" font-size="10.00">::tls::SocketClient &gt;</text>
<polyline fill="none" stroke="black" points="323,-221.5 431,-221.5 "/>
<text text-anchor="start" x="331" y="-209.5" font-family="Helvetica,sans-Serif" font-size="10.00"># onConnect</text>
<text text-anchor="start" x="331" y="-198.5" font-family="Helvetica,sans-Serif" font-size="10.00"># onRequestBegin</text>
<text text-anchor="start" x="331" y="-187.5" font-family="Helvetica,sans-Serif" font-size="10.00"># onResponseReady</text>
<text text-anchor="start" x="331" y="-176.5" font-family="Helvetica,sans-Serif" font-size="10.00"># onResponseError</text>
<text text-anchor="start" x="331" y="-165.5" font-family="Helvetica,sans-Serif" font-size="10.00"># onDisconnect</text>
<text text-anchor="start" x="331" y="-154.5" font-family="Helvetica,sans-Serif" font-size="10.00"># options</text>
<polyline fill="none" stroke="black" points="323,-147.5 431,-147.5 "/>
<text text-anchor="start" x="331" y="-135.5" font-family="Helvetica,sans-Serif" font-size="10.00">+ Client()</text>
<text text-anchor="start" x="331" y="-124.5" font-family="Helvetica,sans-Serif" font-size="10.00">+ connect()</text>
<text text-anchor="start" x="331" y="-113.5" font-family="Helvetica,sans-Serif" font-size="10.00">+ get()</text>
<text text-anchor="start" x="331" y="-102.5" font-family="Helvetica,sans-Serif" font-size="10.00">+ post()</text>
</a>
</g>
</g>
<!-- Node1&#45;&gt;Node6 -->
<g id="edge5" class="edge">
<title>Node1&#45;&gt;Node6</title>
<path fill="none" stroke="orange" d="M351.31,-312.21C352.63,-309.14 353.87,-306.06 355,-303 359.71,-290.29 363.43,-276.45 366.36,-262.79"/>
<polygon fill="orange" stroke="orange" points="348.09,-310.85 347.13,-321.4 354.46,-313.75 348.09,-310.85"/>
<text text-anchor="start" x="362" y="-295" font-family="Helvetica,sans-Serif" font-size="10.00"> &lt; net::socket::ip::</text>
<text text-anchor="middle" x="425" y="-284" font-family="Helvetica,sans-Serif" font-size="10.00">tcp::ipv4::tls::SocketClient &gt;</text>
</g>
<!-- Node8 -->
<g id="node8" class="node">
<title>Node8</title>
<g id="a_node8"><a xlink:href="classhttp_1_1_client.html" target="_top" xlink:title=" ">
<polygon fill="white" stroke="black" points="465,-95.5 465,-262.5 587,-262.5 587,-95.5 465,-95.5"/>
<text text-anchor="start" x="473" y="-250.5" font-family="Helvetica,sans-Serif" font-size="10.00">http::Client&lt; net::</text>
<text text-anchor="start" x="473" y="-239.5" font-family="Helvetica,sans-Serif" font-size="10.00">socket::ip::tcp::ipv4</text>
<text text-anchor="middle" x="526" y="-228.5" font-family="Helvetica,sans-Serif" font-size="10.00">::legacy::SocketClient &gt;</text>
<polyline fill="none" stroke="black" points="465,-221.5 587,-221.5 "/>
<text text-anchor="start" x="473" y="-209.5" font-family="Helvetica,sans-Serif" font-size="10.00"># onConnect</text>
<text text-anchor="start" x="473" y="-198.5" font-family="Helvetica,sans-Serif" font-size="10.00"># onRequestBegin</text>
<text text-anchor="start" x="473" y="-187.5" font-family="Helvetica,sans-Serif" font-size="10.00"># onResponseReady</text>
<text text-anchor="start" x="473" y="-176.5" font-family="Helvetica,sans-Serif" font-size="10.00"># onResponseError</text>
<text text-anchor="start" x="473" y="-165.5" font-family="Helvetica,sans-Serif" font-size="10.00"># onDisconnect</text>
<text text-anchor="start" x="473" y="-154.5" font-family="Helvetica,sans-Serif" font-size="10.00"># options</text>
<polyline fill="none" stroke="black" points="465,-147.5 587,-147.5 "/>
<text text-anchor="start" x="473" y="-135.5" font-family="Helvetica,sans-Serif" font-size="10.00">+ Client()</text>
<text text-anchor="start" x="473" y="-124.5" font-family="Helvetica,sans-Serif" font-size="10.00">+ connect()</text>
<text text-anchor="start" x="473" y="-113.5" font-family="Helvetica,sans-Serif" font-size="10.00">+ get()</text>
<text text-anchor="start" x="473" y="-102.5" font-family="Helvetica,sans-Serif" font-size="10.00">+ post()</text>
</a>
</g>
</g>
<!-- Node1&#45;&gt;Node8 -->
<g id="edge7" class="edge">
<title>Node1&#45;&gt;Node8</title>
<path fill="none" stroke="orange" d="M384.39,-371.32C422.08,-357.5 464.39,-335.84 492,-303 501.77,-291.38 508.74,-277.18 513.72,-262.6"/>
<polygon fill="orange" stroke="orange" points="383.18,-368.03 374.92,-374.66 385.52,-374.63 383.18,-368.03"/>
<text text-anchor="start" x="506" y="-295" font-family="Helvetica,sans-Serif" font-size="10.00"> &lt; net::socket::ip::</text>
<text text-anchor="middle" x="578" y="-284" font-family="Helvetica,sans-Serif" font-size="10.00">tcp::ipv4::legacy::SocketClient &gt;</text>
</g>
<!-- Node3 -->
<g id="node3" class="node">
<title>Node3</title>
<g id="a_node3"><a xlink:href="classhttp_1_1legacy_1_1_client6.html" target="_top" xlink:title=" ">
<polygon fill="white" stroke="black" points="9,-0.5 9,-57.5 113,-57.5 113,-0.5 9,-0.5"/>
<text text-anchor="middle" x="61" y="-45.5" font-family="Helvetica,sans-Serif" font-size="10.00">http::legacy::Client6</text>
<polyline fill="none" stroke="black" points="9,-38.5 113,-38.5 "/>
<text text-anchor="middle" x="61" y="-26.5" font-family="Helvetica,sans-Serif" font-size="10.00"> </text>
<polyline fill="none" stroke="black" points="9,-19.5 113,-19.5 "/>
<text text-anchor="middle" x="61" y="-7.5" font-family="Helvetica,sans-Serif" font-size="10.00"> </text>
</a>
</g>
</g>
<!-- Node2&#45;&gt;Node3 -->
<g id="edge2" class="edge">
<title>Node2&#45;&gt;Node3</title>
<path fill="none" stroke="midnightblue" d="M61,-85.22C61,-75.23 61,-65.72 61,-57.51"/>
<polygon fill="none" stroke="midnightblue" points="57.5,-85.35 61,-95.35 64.5,-85.35 57.5,-85.35"/>
</g>
<!-- Node5 -->
<g id="node5" class="node">
<title>Node5</title>
<g id="a_node5"><a xlink:href="classhttp_1_1tls_1_1_client6.html" target="_top" xlink:title=" ">
<polygon fill="white" stroke="black" points="185,-0.5 185,-57.5 271,-57.5 271,-0.5 185,-0.5"/>
<text text-anchor="middle" x="228" y="-45.5" font-family="Helvetica,sans-Serif" font-size="10.00">http::tls::Client6</text>
<polyline fill="none" stroke="black" points="185,-38.5 271,-38.5 "/>
<text text-anchor="middle" x="228" y="-26.5" font-family="Helvetica,sans-Serif" font-size="10.00"> </text>
<polyline fill="none" stroke="black" points="185,-19.5 271,-19.5 "/>
<text text-anchor="middle" x="228" y="-7.5" font-family="Helvetica,sans-Serif" font-size="10.00"> </text>
</a>
</g>
</g>
<!-- Node4&#45;&gt;Node5 -->
<g id="edge4" class="edge">
<title>Node4&#45;&gt;Node5</title>
<path fill="none" stroke="midnightblue" d="M228,-85.22C228,-75.23 228,-65.72 228,-57.51"/>
<polygon fill="none" stroke="midnightblue" points="224.5,-85.35 228,-95.35 231.5,-85.35 224.5,-85.35"/>
</g>
<!-- Node7 -->
<g id="node7" class="node">
<title>Node7</title>
<g id="a_node7"><a xlink:href="classhttp_1_1tls_1_1_client.html" target="_top" xlink:title=" ">
<polygon fill="white" stroke="black" points="336.5,-0.5 336.5,-57.5 417.5,-57.5 417.5,-0.5 336.5,-0.5"/>
<text text-anchor="middle" x="377" y="-45.5" font-family="Helvetica,sans-Serif" font-size="10.00">http::tls::Client</text>
<polyline fill="none" stroke="black" points="336.5,-38.5 417.5,-38.5 "/>
<text text-anchor="middle" x="377" y="-26.5" font-family="Helvetica,sans-Serif" font-size="10.00"> </text>
<polyline fill="none" stroke="black" points="336.5,-19.5 417.5,-19.5 "/>
<text text-anchor="middle" x="377" y="-7.5" font-family="Helvetica,sans-Serif" font-size="10.00"> </text>
</a>
</g>
</g>
<!-- Node6&#45;&gt;Node7 -->
<g id="edge6" class="edge">
<title>Node6&#45;&gt;Node7</title>
<path fill="none" stroke="midnightblue" d="M377,-85.22C377,-75.23 377,-65.72 377,-57.51"/>
<polygon fill="none" stroke="midnightblue" points="373.5,-85.35 377,-95.35 380.5,-85.35 373.5,-85.35"/>
</g>
<!-- Node9 -->
<g id="node9" class="node">
<title>Node9</title>
<g id="a_node9"><a xlink:href="classhttp_1_1legacy_1_1_client.html" target="_top" xlink:title=" ">
<polygon fill="white" stroke="black" points="476.5,-0.5 476.5,-57.5 575.5,-57.5 575.5,-0.5 476.5,-0.5"/>
<text text-anchor="middle" x="526" y="-45.5" font-family="Helvetica,sans-Serif" font-size="10.00">http::legacy::Client</text>
<polyline fill="none" stroke="black" points="476.5,-38.5 575.5,-38.5 "/>
<text text-anchor="middle" x="526" y="-26.5" font-family="Helvetica,sans-Serif" font-size="10.00"> </text>
<polyline fill="none" stroke="black" points="476.5,-19.5 575.5,-19.5 "/>
<text text-anchor="middle" x="526" y="-7.5" font-family="Helvetica,sans-Serif" font-size="10.00"> </text>
</a>
</g>
</g>
<!-- Node8&#45;&gt;Node9 -->
<g id="edge8" class="edge">
<title>Node8&#45;&gt;Node9</title>
<path fill="none" stroke="midnightblue" d="M526,-85.22C526,-75.23 526,-65.72 526,-57.51"/>
<polygon fill="none" stroke="midnightblue" points="522.5,-85.35 526,-95.35 529.5,-85.35 522.5,-85.35"/>
</g>
</g>
</svg>
