<?xml version="1.0" encoding="UTF-8" standalone="no"?>
<!DOCTYPE svg PUBLIC "-//W3C//DTD SVG 1.1//EN"
 "http://www.w3.org/Graphics/SVG/1.1/DTD/svg11.dtd">
<!-- Generated by graphviz version 2.43.0 (0)
 -->
<!-- Title: net::ConnectEventReceiver::enable Pages: 1 -->
<svg width="662pt" height="255pt"
 viewBox="0.00 0.00 662.00 255.10" xmlns="http://www.w3.org/2000/svg" xmlns:xlink="http://www.w3.org/1999/xlink">
<g id="graph0" class="graph" transform="scale(1 1) rotate(0) translate(4 251.1)">
<title>net::ConnectEventReceiver::enable</title>
<polygon fill="white" stroke="transparent" points="-4,4 -4,-251.1 658,-251.1 658,4 -4,4"/>
<!-- Node1 -->
<g id="node1" class="node">
<title>Node1</title>
<g id="a_node1"><a xlink:title=" ">
<polygon fill="#bfbfbf" stroke="black" points="0,-74.6 0,-104.6 137,-104.6 137,-74.6 0,-74.6"/>
<text text-anchor="start" x="8" y="-92.6" font-family="Helvetica,sans-Serif" font-size="10.00">net::ConnectEventReceiver</text>
<text text-anchor="middle" x="68.5" y="-81.6" font-family="Helvetica,sans-Serif" font-size="10.00">::enable</text>
</a>
</g>
</g>
<!-- Node2 -->
<g id="node2" class="node">
<title>Node2</title>
<g id="a_node2"><a xlink:href="classnet_1_1_descriptor_event_dispatcher.html#a19937845694dd2919c15556102670b42" target="_top" xlink:title=" ">
<polygon fill="white" stroke="black" points="173,-167.6 173,-197.6 327,-197.6 327,-167.6 173,-167.6"/>
<text text-anchor="start" x="181" y="-185.6" font-family="Helvetica,sans-Serif" font-size="10.00">net::DescriptorEventDispatcher</text>
<text text-anchor="middle" x="250" y="-174.6" font-family="Helvetica,sans-Serif" font-size="10.00">::enable</text>
</a>
</g>
</g>
<!-- Node1&#45;&gt;Node2 -->
<g id="edge1" class="edge">
<title>Node1&#45;&gt;Node2</title>
<path fill="none" stroke="midnightblue" d="M88.73,-104.85C108.79,-120.16 141.65,-143.58 173,-158.6 176.86,-160.45 180.9,-162.21 185.01,-163.86"/>
<polygon fill="midnightblue" stroke="midnightblue" points="184.12,-167.26 194.71,-167.53 186.6,-160.72 184.12,-167.26"/>
</g>
<!-- Node6 -->
<g id="node6" class="node">
<title>Node6</title>
<g id="a_node6"><a xlink:href="classnet_1_1_event_loop.html#a53697a464b99a65cde0a384bb896d5f3" target="_top" xlink:title=" ">
<polygon fill="white" stroke="black" points="187.5,-118.6 187.5,-148.6 312.5,-148.6 312.5,-118.6 187.5,-118.6"/>
<text text-anchor="start" x="195.5" y="-136.6" font-family="Helvetica,sans-Serif" font-size="10.00">net::EventLoop::getWrite</text>
<text text-anchor="middle" x="250" y="-125.6" font-family="Helvetica,sans-Serif" font-size="10.00">EventDispatcher</text>
</a>
</g>
</g>
<!-- Node1&#45;&gt;Node6 -->
<g id="edge5" class="edge">
<title>Node1&#45;&gt;Node6</title>
<path fill="none" stroke="midnightblue" d="M130.77,-104.62C145.85,-108.32 162.13,-112.31 177.64,-116.11"/>
<polygon fill="midnightblue" stroke="midnightblue" points="177.15,-119.6 187.7,-118.58 178.82,-112.8 177.15,-119.6"/>
</g>
<!-- Node7 -->
<g id="node7" class="node">
<title>Node7</title>
<g id="a_node7"><a xlink:href="classnet_1_1_event_loop.html#a6d8bfd6fa03bb6bf423035ab190657ef" target="_top" xlink:title=" ">
<polygon fill="white" stroke="black" points="187.5,-80.1 187.5,-99.1 312.5,-99.1 312.5,-80.1 187.5,-80.1"/>
<text text-anchor="middle" x="250" y="-87.1" font-family="Helvetica,sans-Serif" font-size="10.00">net::EventLoop::instance</text>
</a>
</g>
</g>
<!-- Node1&#45;&gt;Node7 -->
<g id="edge6" class="edge">
<title>Node1&#45;&gt;Node7</title>
<path fill="none" stroke="midnightblue" d="M137.11,-89.6C150.25,-89.6 164.07,-89.6 177.35,-89.6"/>
<polygon fill="midnightblue" stroke="midnightblue" points="177.37,-93.1 187.37,-89.6 177.37,-86.1 177.37,-93.1"/>
</g>
<!-- Node8 -->
<g id="node8" class="node">
<title>Node8</title>
<g id="a_node8"><a xlink:href="classnet_1_1_connect_event_receiver.html#a1d153fa642fdf38654551b5d985846e3" target="_top" xlink:title=" ">
<polygon fill="white" stroke="black" points="181.5,-30.6 181.5,-60.6 318.5,-60.6 318.5,-30.6 181.5,-30.6"/>
<text text-anchor="start" x="189.5" y="-48.6" font-family="Helvetica,sans-Serif" font-size="10.00">net::ConnectEventReceiver</text>
<text text-anchor="middle" x="250" y="-37.6" font-family="Helvetica,sans-Serif" font-size="10.00">::setTimeout</text>
</a>
</g>
</g>
<!-- Node1&#45;&gt;Node8 -->
<g id="edge7" class="edge">
<title>Node1&#45;&gt;Node8</title>
<path fill="none" stroke="midnightblue" d="M130.77,-74.58C145.85,-70.89 162.13,-66.9 177.64,-63.1"/>
<polygon fill="midnightblue" stroke="midnightblue" points="178.82,-66.41 187.7,-60.63 177.15,-59.61 178.82,-66.41"/>
</g>
<!-- Node10 -->
<g id="node10" class="node">
<title>Node10</title>
<g id="a_node10"><a xlink:href="classnet_1_1_event_receiver.html#ad2da553049435ab5f08b0fe24b5bd210" target="_top" xlink:title=" ">
<polygon fill="white" stroke="black" points="553,-24.6 553,-54.6 654,-54.6 654,-24.6 553,-24.6"/>
<text text-anchor="start" x="561" y="-42.6" font-family="Helvetica,sans-Serif" font-size="10.00">net::EventReceiver</text>
<text text-anchor="middle" x="603.5" y="-31.6" font-family="Helvetica,sans-Serif" font-size="10.00">::timeout</text>
</a>
</g>
</g>
<!-- Node1&#45;&gt;Node10 -->
<g id="edge11" class="edge">
<title>Node1&#45;&gt;Node10</title>
<path fill="none" stroke="midnightblue" d="M85.47,-74.48C104.55,-57.55 138.28,-31.12 173,-20.6 300.34,17.95 458.58,-6.4 542.95,-24.74"/>
<polygon fill="midnightblue" stroke="midnightblue" points="542.35,-28.19 552.87,-26.95 543.87,-21.36 542.35,-28.19"/>
</g>
<!-- Node3 -->
<g id="node3" class="node">
<title>Node3</title>
<g id="a_node3"><a xlink:href="classnet_1_1_descriptor_event_dispatcher_1_1_event_receiver_list.html#a9adfbbdd59d16428d8fba87f40040cea" target="_top" xlink:title=" ">
<polygon fill="white" stroke="black" points="363,-216.6 363,-246.6 517,-246.6 517,-216.6 363,-216.6"/>
<text text-anchor="start" x="371" y="-234.6" font-family="Helvetica,sans-Serif" font-size="10.00">net::DescriptorEventDispatcher</text>
<text text-anchor="middle" x="440" y="-223.6" font-family="Helvetica,sans-Serif" font-size="10.00">::EventReceiverList::contains</text>
</a>
</g>
</g>
<!-- Node2&#45;&gt;Node3 -->
<g id="edge2" class="edge">
<title>Node2&#45;&gt;Node3</title>
<path fill="none" stroke="midnightblue" d="M308.68,-197.64C328.53,-202.81 350.94,-208.65 371.5,-214.01"/>
<polygon fill="midnightblue" stroke="midnightblue" points="370.87,-217.46 381.43,-216.6 372.63,-210.69 370.87,-217.46"/>
</g>
<!-- Node4 -->
<g id="node4" class="node">
<title>Node4</title>
<g id="a_node4"><a xlink:href="classnet_1_1_event_receiver.html#adf048bdc2dfce2b01f4c1bfff4beaa6b" target="_top" xlink:title=" ">
<polygon fill="white" stroke="black" points="389.5,-167.6 389.5,-197.6 490.5,-197.6 490.5,-167.6 389.5,-167.6"/>
<text text-anchor="start" x="397.5" y="-185.6" font-family="Helvetica,sans-Serif" font-size="10.00">net::EventReceiver</text>
<text text-anchor="middle" x="440" y="-174.6" font-family="Helvetica,sans-Serif" font-size="10.00">::enabled</text>
</a>
</g>
</g>
<!-- Node2&#45;&gt;Node4 -->
<g id="edge3" class="edge">
<title>Node2&#45;&gt;Node4</title>
<path fill="none" stroke="midnightblue" d="M327.2,-182.6C344.56,-182.6 362.76,-182.6 379.32,-182.6"/>
<polygon fill="midnightblue" stroke="midnightblue" points="379.4,-186.1 389.4,-182.6 379.4,-179.1 379.4,-186.1"/>
</g>
<!-- Node5 -->
<g id="node5" class="node">
<title>Node5</title>
<g id="a_node5"><a xlink:href="classnet_1_1_event_receiver.html#ac4e3a75a2849d0d8b1fc4ba2b754c8e3" target="_top" xlink:title=" ">
<polygon fill="white" stroke="black" points="389.5,-118.6 389.5,-148.6 490.5,-148.6 490.5,-118.6 389.5,-118.6"/>
<text text-anchor="start" x="397.5" y="-136.6" font-family="Helvetica,sans-Serif" font-size="10.00">net::EventReceiver</text>
<text text-anchor="middle" x="440" y="-125.6" font-family="Helvetica,sans-Serif" font-size="10.00">::isEnabled</text>
</a>
</g>
</g>
<!-- Node2&#45;&gt;Node5 -->
<g id="edge4" class="edge">
<title>Node2&#45;&gt;Node5</title>
<path fill="none" stroke="midnightblue" d="M308.68,-167.57C331.16,-161.71 356.9,-155 379.54,-149.1"/>
<polygon fill="midnightblue" stroke="midnightblue" points="380.57,-152.45 389.36,-146.54 378.8,-145.68 380.57,-152.45"/>
</g>
<!-- Node9 -->
<g id="node9" class="node">
<title>Node9</title>
<g id="a_node9"><a xlink:href="classnet_1_1_event_receiver.html#a26d6a5c5cdd5300540a937c17f91fdcd" target="_top" xlink:title=" ">
<polygon fill="white" stroke="black" points="389.5,-68.6 389.5,-98.6 490.5,-98.6 490.5,-68.6 389.5,-68.6"/>
<text text-anchor="start" x="397.5" y="-86.6" font-family="Helvetica,sans-Serif" font-size="10.00">net::EventReceiver</text>
<text text-anchor="middle" x="440" y="-75.6" font-family="Helvetica,sans-Serif" font-size="10.00">::setTimeout</text>
</a>
</g>
</g>
<!-- Node8&#45;&gt;Node9 -->
<g id="edge8" class="edge">
<title>Node8&#45;&gt;Node9</title>
<path fill="none" stroke="midnightblue" d="M318.61,-59.27C338.51,-63.29 360.13,-67.66 379.48,-71.57"/>
<polygon fill="midnightblue" stroke="midnightblue" points="378.88,-75.02 389.37,-73.57 380.27,-68.16 378.88,-75.02"/>
</g>
<!-- Node8&#45;&gt;Node10 -->
<g id="edge10" class="edge">
<title>Node8&#45;&gt;Node10</title>
<path fill="none" stroke="midnightblue" d="M318.77,-44.45C383.69,-43.34 480.68,-41.68 542.77,-40.62"/>
<polygon fill="midnightblue" stroke="midnightblue" points="542.86,-44.12 552.8,-40.45 542.74,-37.12 542.86,-44.12"/>
</g>
<!-- Node9&#45;&gt;Node10 -->
<g id="edge9" class="edge">
<title>Node9&#45;&gt;Node10</title>
<path fill="none" stroke="midnightblue" d="M490.77,-70.04C507.28,-65.55 525.81,-60.5 542.97,-55.82"/>
<polygon fill="midnightblue" stroke="midnightblue" points="544.16,-59.13 552.89,-53.12 542.32,-52.37 544.16,-59.13"/>
</g>
</g>
</svg>
