<?xml version="1.0" encoding="UTF-8" standalone="no"?>
<!DOCTYPE svg PUBLIC "-//W3C//DTD SVG 1.1//EN"
 "http://www.w3.org/Graphics/SVG/1.1/DTD/svg11.dtd">
<!-- Generated by graphviz version 2.43.0 (0)
 -->
<!-- Title: net::EventLoop::getAcceptEventDispatcher Pages: 1 -->
<svg width="483pt" height="132pt"
 viewBox="0.00 0.00 483.00 132.00" xmlns="http://www.w3.org/2000/svg" xmlns:xlink="http://www.w3.org/1999/xlink">
<g id="graph0" class="graph" transform="scale(1 1) rotate(0) translate(4 128)">
<title>net::EventLoop::getAcceptEventDispatcher</title>
<polygon fill="white" stroke="transparent" points="-4,4 -4,-128 479,-128 479,4 -4,4"/>
<!-- Node1 -->
<g id="node1" class="node">
<title>Node1</title>
<g id="a_node1"><a xlink:title=" ">
<polygon fill="#bfbfbf" stroke="black" points="342,-46.5 342,-76.5 475,-76.5 475,-46.5 342,-46.5"/>
<text text-anchor="start" x="350" y="-64.5" font-family="Helvetica,sans-Serif" font-size="10.00">net::EventLoop::getAccept</text>
<text text-anchor="middle" x="408.5" y="-53.5" font-family="Helvetica,sans-Serif" font-size="10.00">EventDispatcher</text>
</a>
</g>
</g>
<!-- Node2 -->
<g id="node2" class="node">
<title>Node2</title>
<g id="a_node2"><a xlink:href="classnet_1_1_accept_event_receiver.html#a9d6b2c168ca3557cb6006f55d2249edb" target="_top" xlink:title=" ">
<polygon fill="white" stroke="black" points="175,-76.5 175,-106.5 306,-106.5 306,-76.5 175,-76.5"/>
<text text-anchor="start" x="183" y="-94.5" font-family="Helvetica,sans-Serif" font-size="10.00">net::AcceptEventReceiver</text>
<text text-anchor="middle" x="240.5" y="-83.5" font-family="Helvetica,sans-Serif" font-size="10.00">::disable</text>
</a>
</g>
</g>
<!-- Node1&#45;&gt;Node2 -->
<g id="edge1" class="edge">
<title>Node1&#45;&gt;Node2</title>
<path fill="none" stroke="midnightblue" d="M331.86,-75.17C323.25,-76.73 314.54,-78.3 306.09,-79.83"/>
<polygon fill="midnightblue" stroke="midnightblue" points="332.67,-78.58 341.89,-73.36 331.43,-71.69 332.67,-78.58"/>
</g>
<!-- Node4 -->
<g id="node4" class="node">
<title>Node4</title>
<g id="a_node4"><a xlink:href="classnet_1_1_accept_event_receiver.html#acf08cb8d27d63406f435612f721fca10" target="_top" xlink:title=" ">
<polygon fill="white" stroke="black" points="175,-22.5 175,-52.5 306,-52.5 306,-22.5 175,-22.5"/>
<text text-anchor="start" x="183" y="-40.5" font-family="Helvetica,sans-Serif" font-size="10.00">net::AcceptEventReceiver</text>
<text text-anchor="middle" x="240.5" y="-29.5" font-family="Helvetica,sans-Serif" font-size="10.00">::enable</text>
</a>
</g>
</g>
<!-- Node1&#45;&gt;Node4 -->
<g id="edge3" class="edge">
<title>Node1&#45;&gt;Node4</title>
<path fill="none" stroke="midnightblue" d="M331.86,-50.56C323.25,-49.32 314.54,-48.06 306.09,-46.84"/>
<polygon fill="midnightblue" stroke="midnightblue" points="331.49,-54.05 341.89,-52.01 332.5,-47.12 331.49,-54.05"/>
</g>
<!-- Node3 -->
<g id="node3" class="node">
<title>Node3</title>
<g id="a_node3"><a xlink:href="classnet_1_1socket_1_1tcp_1_1_socket_listener.html#a4e738d058409307e2b7ca373166c9801" target="_top" xlink:title=" ">
<polygon fill="white" stroke="black" points="0,-71.5 0,-123.5 139,-123.5 139,-71.5 0,-71.5"/>
<text text-anchor="start" x="8" y="-111.5" font-family="Helvetica,sans-Serif" font-size="10.00">net::socket::tcp::Socket</text>
<text text-anchor="start" x="8" y="-100.5" font-family="Helvetica,sans-Serif" font-size="10.00">Listener&lt; net::socket</text>
<text text-anchor="start" x="8" y="-89.5" font-family="Helvetica,sans-Serif" font-size="10.00">::tcp::tls::SocketConnection</text>
<text text-anchor="middle" x="69.5" y="-78.5" font-family="Helvetica,sans-Serif" font-size="10.00">&lt; SocketT &gt; &gt;::end</text>
</a>
</g>
</g>
<!-- Node2&#45;&gt;Node3 -->
<g id="edge2" class="edge">
<title>Node2&#45;&gt;Node3</title>
<path fill="none" stroke="midnightblue" d="M164.44,-94.16C156.01,-94.46 147.45,-94.77 139.11,-95.06"/>
<polygon fill="midnightblue" stroke="midnightblue" points="164.77,-97.66 174.64,-93.8 164.53,-90.66 164.77,-97.66"/>
</g>
<!-- Node5 -->
<g id="node5" class="node">
<title>Node5</title>
<g id="a_node5"><a xlink:href="classnet_1_1socket_1_1tcp_1_1_socket_listener.html#a9d4f4ff0ee3799e4f1cc7688f9829a9d" target="_top" xlink:title=" ">
<polygon fill="white" stroke="black" points="0,-0.5 0,-52.5 139,-52.5 139,-0.5 0,-0.5"/>
<text text-anchor="start" x="8" y="-40.5" font-family="Helvetica,sans-Serif" font-size="10.00">net::socket::tcp::Socket</text>
<text text-anchor="start" x="8" y="-29.5" font-family="Helvetica,sans-Serif" font-size="10.00">Listener&lt; net::socket</text>
<text text-anchor="start" x="8" y="-18.5" font-family="Helvetica,sans-Serif" font-size="10.00">::tcp::tls::SocketConnection</text>
<text text-anchor="middle" x="69.5" y="-7.5" font-family="Helvetica,sans-Serif" font-size="10.00">&lt; SocketT &gt; &gt;::listen</text>
</a>
</g>
</g>
<!-- Node4&#45;&gt;Node5 -->
<g id="edge4" class="edge">
<title>Node4&#45;&gt;Node5</title>
<path fill="none" stroke="midnightblue" d="M164.44,-32.61C156.01,-32.07 147.45,-31.51 139.11,-30.97"/>
<polygon fill="midnightblue" stroke="midnightblue" points="164.44,-36.12 174.64,-33.28 164.89,-29.14 164.44,-36.12"/>
</g>
</g>
</svg>
