<?xml version="1.0" encoding="UTF-8" standalone="no"?>
<!DOCTYPE svg PUBLIC "-//W3C//DTD SVG 1.1//EN"
 "http://www.w3.org/Graphics/SVG/1.1/DTD/svg11.dtd">
<!-- Generated by graphviz version 2.43.0 (0)
 -->
<!-- Title: net::ReadEventReceiver Pages: 1 -->
<svg width="802pt" height="1801pt"
 viewBox="0.00 0.00 801.50 1801.00" xmlns="http://www.w3.org/2000/svg" xmlns:xlink="http://www.w3.org/1999/xlink">
<g id="graph0" class="graph" transform="scale(1 1) rotate(0) translate(4 1797)">
<title>net::ReadEventReceiver</title>
<polygon fill="white" stroke="transparent" points="-4,4 -4,-1797 797.5,-1797 797.5,4 -4,4"/>
<!-- Node1 -->
<g id="node1" class="node">
<title>Node1</title>
<g id="a_node1"><a xlink:title=" ">
<polygon fill="#bfbfbf" stroke="black" points="341.5,-1226.5 341.5,-1360.5 465.5,-1360.5 465.5,-1226.5 341.5,-1226.5"/>
<text text-anchor="middle" x="403.5" y="-1348.5" font-family="Helvetica,sans-Serif" font-size="10.00">net::ReadEventReceiver</text>
<polyline fill="none" stroke="black" points="341.5,-1341.5 465.5,-1341.5 "/>
<text text-anchor="middle" x="403.5" y="-1329.5" font-family="Helvetica,sans-Serif" font-size="10.00"> </text>
<polyline fill="none" stroke="black" points="341.5,-1322.5 465.5,-1322.5 "/>
<text text-anchor="start" x="349.5" y="-1310.5" font-family="Helvetica,sans-Serif" font-size="10.00">+ setTimeout()</text>
<text text-anchor="start" x="349.5" y="-1299.5" font-family="Helvetica,sans-Serif" font-size="10.00">+ enable()</text>
<text text-anchor="start" x="349.5" y="-1288.5" font-family="Helvetica,sans-Serif" font-size="10.00">+ disable()</text>
<text text-anchor="start" x="349.5" y="-1277.5" font-family="Helvetica,sans-Serif" font-size="10.00">+ suspend()</text>
<text text-anchor="start" x="349.5" y="-1266.5" font-family="Helvetica,sans-Serif" font-size="10.00">+ resume()</text>
<text text-anchor="start" x="349.5" y="-1255.5" font-family="Helvetica,sans-Serif" font-size="10.00"># ReadEventReceiver()</text>
<text text-anchor="start" x="349.5" y="-1244.5" font-family="Helvetica,sans-Serif" font-size="10.00"># readEvent()</text>
<text text-anchor="start" x="349.5" y="-1233.5" font-family="Helvetica,sans-Serif" font-size="10.00"># dispatchEvent()</text>
</a>
</g>
</g>
<!-- Node4 -->
<g id="node4" class="node">
<title>Node4</title>
<g id="a_node4"><a xlink:href="class_file_reader.html" target="_top" xlink:title=" ">
<polygon fill="white" stroke="black" points="0,-977.5 0,-1089.5 85,-1089.5 85,-977.5 0,-977.5"/>
<text text-anchor="middle" x="42.5" y="-1077.5" font-family="Helvetica,sans-Serif" font-size="10.00">FileReader</text>
<polyline fill="none" stroke="black" points="0,-1070.5 85,-1070.5 "/>
<text text-anchor="start" x="8" y="-1058.5" font-family="Helvetica,sans-Serif" font-size="10.00">&#45; junkRead</text>
<text text-anchor="start" x="8" y="-1047.5" font-family="Helvetica,sans-Serif" font-size="10.00">&#45; onError</text>
<polyline fill="none" stroke="black" points="0,-1040.5 85,-1040.5 "/>
<text text-anchor="start" x="8" y="-1028.5" font-family="Helvetica,sans-Serif" font-size="10.00">+ ~FileReader()</text>
<text text-anchor="start" x="8" y="-1017.5" font-family="Helvetica,sans-Serif" font-size="10.00">+ readEvent()</text>
<text text-anchor="start" x="8" y="-1006.5" font-family="Helvetica,sans-Serif" font-size="10.00">+ read()</text>
<text text-anchor="start" x="8" y="-995.5" font-family="Helvetica,sans-Serif" font-size="10.00"># FileReader()</text>
<text text-anchor="start" x="8" y="-984.5" font-family="Helvetica,sans-Serif" font-size="10.00">&#45; unobserved()</text>
</a>
</g>
</g>
<!-- Node1&#45;&gt;Node4 -->
<g id="edge3" class="edge">
<title>Node1&#45;&gt;Node4</title>
<path fill="none" stroke="midnightblue" d="M331.04,-1291.07C262.79,-1285.87 161.96,-1267.64 99.5,-1208 67.28,-1177.24 53.26,-1127.98 47.16,-1089.8"/>
<polygon fill="none" stroke="midnightblue" points="331.06,-1294.58 341.28,-1291.78 331.54,-1287.6 331.06,-1294.58"/>
</g>
<!-- Node5 -->
<g id="node5" class="node">
<title>Node5</title>
<g id="a_node5"><a xlink:href="classnet_1_1socket_1_1stream_1_1_socket_connector.html" target="_top" xlink:title=" ">
<polygon fill="white" stroke="black" points="182,-878.5 182,-1188.5 385,-1188.5 385,-878.5 182,-878.5"/>
<text text-anchor="start" x="190" y="-1176.5" font-family="Helvetica,sans-Serif" font-size="10.00">net::socket::stream</text>
<text text-anchor="middle" x="283.5" y="-1165.5" font-family="Helvetica,sans-Serif" font-size="10.00">::SocketConnector&lt; SocketConnectionT &gt;</text>
<polyline fill="none" stroke="black" points="182,-1158.5 385,-1158.5 "/>
<text text-anchor="start" x="190" y="-1146.5" font-family="Helvetica,sans-Serif" font-size="10.00"># onError</text>
<text text-anchor="start" x="190" y="-1135.5" font-family="Helvetica,sans-Serif" font-size="10.00">&#45; onConstruct</text>
<text text-anchor="start" x="190" y="-1124.5" font-family="Helvetica,sans-Serif" font-size="10.00">&#45; onDestruct</text>
<text text-anchor="start" x="190" y="-1113.5" font-family="Helvetica,sans-Serif" font-size="10.00">&#45; onConnect</text>
<text text-anchor="start" x="190" y="-1102.5" font-family="Helvetica,sans-Serif" font-size="10.00">&#45; onDisconnect</text>
<text text-anchor="start" x="190" y="-1091.5" font-family="Helvetica,sans-Serif" font-size="10.00">&#45; onRead</text>
<text text-anchor="start" x="190" y="-1080.5" font-family="Helvetica,sans-Serif" font-size="10.00">&#45; onReadError</text>
<text text-anchor="start" x="190" y="-1069.5" font-family="Helvetica,sans-Serif" font-size="10.00">&#45; onWriteError</text>
<text text-anchor="start" x="190" y="-1058.5" font-family="Helvetica,sans-Serif" font-size="10.00">&#45; socketConnection</text>
<text text-anchor="start" x="190" y="-1047.5" font-family="Helvetica,sans-Serif" font-size="10.00">&#45; options</text>
<text text-anchor="start" x="190" y="-1036.5" font-family="Helvetica,sans-Serif" font-size="10.00">&#45; isDynamic</text>
<text text-anchor="start" x="190" y="-1025.5" font-family="Helvetica,sans-Serif" font-size="10.00">&#45; lastAllocAddress</text>
<polyline fill="none" stroke="black" points="182,-1018.5 385,-1018.5 "/>
<text text-anchor="start" x="190" y="-1006.5" font-family="Helvetica,sans-Serif" font-size="10.00"># operator new()</text>
<text text-anchor="start" x="190" y="-995.5" font-family="Helvetica,sans-Serif" font-size="10.00"># operator delete()</text>
<text text-anchor="start" x="190" y="-984.5" font-family="Helvetica,sans-Serif" font-size="10.00"># SocketConnector()</text>
<text text-anchor="start" x="190" y="-973.5" font-family="Helvetica,sans-Serif" font-size="10.00"># SocketConnector()</text>
<text text-anchor="start" x="190" y="-962.5" font-family="Helvetica,sans-Serif" font-size="10.00"># SocketConnector()</text>
<text text-anchor="start" x="190" y="-951.5" font-family="Helvetica,sans-Serif" font-size="10.00"># operator=()</text>
<text text-anchor="start" x="190" y="-940.5" font-family="Helvetica,sans-Serif" font-size="10.00"># ~SocketConnector()</text>
<text text-anchor="start" x="190" y="-929.5" font-family="Helvetica,sans-Serif" font-size="10.00"># connect()</text>
<text text-anchor="start" x="190" y="-918.5" font-family="Helvetica,sans-Serif" font-size="10.00">&#45; connectEvent()</text>
<text text-anchor="start" x="190" y="-907.5" font-family="Helvetica,sans-Serif" font-size="10.00">&#45; readEvent()</text>
<text text-anchor="start" x="190" y="-896.5" font-family="Helvetica,sans-Serif" font-size="10.00">&#45; unobserved()</text>
<text text-anchor="start" x="190" y="-885.5" font-family="Helvetica,sans-Serif" font-size="10.00">&#45; destruct()</text>
</a>
</g>
</g>
<!-- Node1&#45;&gt;Node5 -->
<g id="edge4" class="edge">
<title>Node1&#45;&gt;Node5</title>
<path fill="none" stroke="midnightblue" d="M368.43,-1217.1C364.2,-1208.01 359.78,-1198.5 355.26,-1188.79"/>
<polygon fill="none" stroke="midnightblue" points="365.36,-1218.8 372.75,-1226.39 371.71,-1215.85 365.36,-1218.8"/>
</g>
<!-- Node6 -->
<g id="node6" class="node">
<title>Node6</title>
<g id="a_node6"><a xlink:href="classnet_1_1socket_1_1stream_1_1_socket_connector.html" target="_top" xlink:title=" ">
<polygon fill="white" stroke="black" points="57,-487.5 57,-819.5 194,-819.5 194,-487.5 57,-487.5"/>
<text text-anchor="start" x="65" y="-807.5" font-family="Helvetica,sans-Serif" font-size="10.00">net::socket::stream</text>
<text text-anchor="start" x="65" y="-796.5" font-family="Helvetica,sans-Serif" font-size="10.00">::SocketConnector&lt; stream</text>
<text text-anchor="start" x="65" y="-785.5" font-family="Helvetica,sans-Serif" font-size="10.00">::legacy::SocketConnection</text>
<text text-anchor="middle" x="125.5" y="-774.5" font-family="Helvetica,sans-Serif" font-size="10.00">&lt; SocketT &gt; &gt;</text>
<polyline fill="none" stroke="black" points="57,-767.5 194,-767.5 "/>
<text text-anchor="start" x="65" y="-755.5" font-family="Helvetica,sans-Serif" font-size="10.00"># onError</text>
<text text-anchor="start" x="65" y="-744.5" font-family="Helvetica,sans-Serif" font-size="10.00">&#45; onConstruct</text>
<text text-anchor="start" x="65" y="-733.5" font-family="Helvetica,sans-Serif" font-size="10.00">&#45; onDestruct</text>
<text text-anchor="start" x="65" y="-722.5" font-family="Helvetica,sans-Serif" font-size="10.00">&#45; onConnect</text>
<text text-anchor="start" x="65" y="-711.5" font-family="Helvetica,sans-Serif" font-size="10.00">&#45; onDisconnect</text>
<text text-anchor="start" x="65" y="-700.5" font-family="Helvetica,sans-Serif" font-size="10.00">&#45; onRead</text>
<text text-anchor="start" x="65" y="-689.5" font-family="Helvetica,sans-Serif" font-size="10.00">&#45; onReadError</text>
<text text-anchor="start" x="65" y="-678.5" font-family="Helvetica,sans-Serif" font-size="10.00">&#45; onWriteError</text>
<text text-anchor="start" x="65" y="-667.5" font-family="Helvetica,sans-Serif" font-size="10.00">&#45; socketConnection</text>
<text text-anchor="start" x="65" y="-656.5" font-family="Helvetica,sans-Serif" font-size="10.00">&#45; options</text>
<text text-anchor="start" x="65" y="-645.5" font-family="Helvetica,sans-Serif" font-size="10.00">&#45; isDynamic</text>
<text text-anchor="start" x="65" y="-634.5" font-family="Helvetica,sans-Serif" font-size="10.00">&#45; lastAllocAddress</text>
<polyline fill="none" stroke="black" points="57,-627.5 194,-627.5 "/>
<text text-anchor="start" x="65" y="-615.5" font-family="Helvetica,sans-Serif" font-size="10.00"># operator new()</text>
<text text-anchor="start" x="65" y="-604.5" font-family="Helvetica,sans-Serif" font-size="10.00"># operator delete()</text>
<text text-anchor="start" x="65" y="-593.5" font-family="Helvetica,sans-Serif" font-size="10.00"># SocketConnector()</text>
<text text-anchor="start" x="65" y="-582.5" font-family="Helvetica,sans-Serif" font-size="10.00"># SocketConnector()</text>
<text text-anchor="start" x="65" y="-571.5" font-family="Helvetica,sans-Serif" font-size="10.00"># SocketConnector()</text>
<text text-anchor="start" x="65" y="-560.5" font-family="Helvetica,sans-Serif" font-size="10.00"># operator=()</text>
<text text-anchor="start" x="65" y="-549.5" font-family="Helvetica,sans-Serif" font-size="10.00"># ~SocketConnector()</text>
<text text-anchor="start" x="65" y="-538.5" font-family="Helvetica,sans-Serif" font-size="10.00"># connect()</text>
<text text-anchor="start" x="65" y="-527.5" font-family="Helvetica,sans-Serif" font-size="10.00">&#45; connectEvent()</text>
<text text-anchor="start" x="65" y="-516.5" font-family="Helvetica,sans-Serif" font-size="10.00">&#45; readEvent()</text>
<text text-anchor="start" x="65" y="-505.5" font-family="Helvetica,sans-Serif" font-size="10.00">&#45; unobserved()</text>
<text text-anchor="start" x="65" y="-494.5" font-family="Helvetica,sans-Serif" font-size="10.00">&#45; destruct()</text>
</a>
</g>
</g>
<!-- Node1&#45;&gt;Node6 -->
<g id="edge17" class="edge">
<title>Node1&#45;&gt;Node6</title>
<path fill="none" stroke="midnightblue" d="M331.36,-1280.19C278.34,-1267.1 209.37,-1240.8 172.5,-1189 97.07,-1083.04 89.94,-933.66 99.05,-819.75"/>
<polygon fill="none" stroke="midnightblue" points="330.86,-1283.67 341.4,-1282.56 332.47,-1276.86 330.86,-1283.67"/>
</g>
<!-- Node8 -->
<g id="node8" class="node">
<title>Node8</title>
<g id="a_node8"><a xlink:href="classnet_1_1socket_1_1stream_1_1_socket_connector.html" target="_top" xlink:title=" ">
<polygon fill="white" stroke="black" points="219,-487.5 219,-819.5 356,-819.5 356,-487.5 219,-487.5"/>
<text text-anchor="start" x="227" y="-807.5" font-family="Helvetica,sans-Serif" font-size="10.00">net::socket::stream</text>
<text text-anchor="start" x="227" y="-796.5" font-family="Helvetica,sans-Serif" font-size="10.00">::SocketConnector&lt; stream</text>
<text text-anchor="start" x="227" y="-785.5" font-family="Helvetica,sans-Serif" font-size="10.00">::tls::SocketConnection</text>
<text text-anchor="middle" x="287.5" y="-774.5" font-family="Helvetica,sans-Serif" font-size="10.00">&lt; SocketT &gt; &gt;</text>
<polyline fill="none" stroke="black" points="219,-767.5 356,-767.5 "/>
<text text-anchor="start" x="227" y="-755.5" font-family="Helvetica,sans-Serif" font-size="10.00"># onError</text>
<text text-anchor="start" x="227" y="-744.5" font-family="Helvetica,sans-Serif" font-size="10.00">&#45; onConstruct</text>
<text text-anchor="start" x="227" y="-733.5" font-family="Helvetica,sans-Serif" font-size="10.00">&#45; onDestruct</text>
<text text-anchor="start" x="227" y="-722.5" font-family="Helvetica,sans-Serif" font-size="10.00">&#45; onConnect</text>
<text text-anchor="start" x="227" y="-711.5" font-family="Helvetica,sans-Serif" font-size="10.00">&#45; onDisconnect</text>
<text text-anchor="start" x="227" y="-700.5" font-family="Helvetica,sans-Serif" font-size="10.00">&#45; onRead</text>
<text text-anchor="start" x="227" y="-689.5" font-family="Helvetica,sans-Serif" font-size="10.00">&#45; onReadError</text>
<text text-anchor="start" x="227" y="-678.5" font-family="Helvetica,sans-Serif" font-size="10.00">&#45; onWriteError</text>
<text text-anchor="start" x="227" y="-667.5" font-family="Helvetica,sans-Serif" font-size="10.00">&#45; socketConnection</text>
<text text-anchor="start" x="227" y="-656.5" font-family="Helvetica,sans-Serif" font-size="10.00">&#45; options</text>
<text text-anchor="start" x="227" y="-645.5" font-family="Helvetica,sans-Serif" font-size="10.00">&#45; isDynamic</text>
<text text-anchor="start" x="227" y="-634.5" font-family="Helvetica,sans-Serif" font-size="10.00">&#45; lastAllocAddress</text>
<polyline fill="none" stroke="black" points="219,-627.5 356,-627.5 "/>
<text text-anchor="start" x="227" y="-615.5" font-family="Helvetica,sans-Serif" font-size="10.00"># operator new()</text>
<text text-anchor="start" x="227" y="-604.5" font-family="Helvetica,sans-Serif" font-size="10.00"># operator delete()</text>
<text text-anchor="start" x="227" y="-593.5" font-family="Helvetica,sans-Serif" font-size="10.00"># SocketConnector()</text>
<text text-anchor="start" x="227" y="-582.5" font-family="Helvetica,sans-Serif" font-size="10.00"># SocketConnector()</text>
<text text-anchor="start" x="227" y="-571.5" font-family="Helvetica,sans-Serif" font-size="10.00"># SocketConnector()</text>
<text text-anchor="start" x="227" y="-560.5" font-family="Helvetica,sans-Serif" font-size="10.00"># operator=()</text>
<text text-anchor="start" x="227" y="-549.5" font-family="Helvetica,sans-Serif" font-size="10.00"># ~SocketConnector()</text>
<text text-anchor="start" x="227" y="-538.5" font-family="Helvetica,sans-Serif" font-size="10.00"># connect()</text>
<text text-anchor="start" x="227" y="-527.5" font-family="Helvetica,sans-Serif" font-size="10.00">&#45; connectEvent()</text>
<text text-anchor="start" x="227" y="-516.5" font-family="Helvetica,sans-Serif" font-size="10.00">&#45; readEvent()</text>
<text text-anchor="start" x="227" y="-505.5" font-family="Helvetica,sans-Serif" font-size="10.00">&#45; unobserved()</text>
<text text-anchor="start" x="227" y="-494.5" font-family="Helvetica,sans-Serif" font-size="10.00">&#45; destruct()</text>
</a>
</g>
</g>
<!-- Node1&#45;&gt;Node8 -->
<g id="edge18" class="edge">
<title>Node1&#45;&gt;Node8</title>
<path fill="none" stroke="midnightblue" d="M424.93,-1216.61C447.14,-1124.4 473.02,-965.36 429.5,-838 414.58,-794.35 384.61,-753.04 356.02,-720.71"/>
<polygon fill="none" stroke="midnightblue" points="421.5,-1215.87 422.52,-1226.42 428.3,-1217.54 421.5,-1215.87"/>
</g>
<!-- Node10 -->
<g id="node10" class="node">
<title>Node10</title>
<g id="a_node10"><a xlink:href="classnet_1_1socket_1_1stream_1_1_socket_reader.html" target="_top" xlink:title=" ">
<polygon fill="white" stroke="black" points="471.5,-972 471.5,-1095 611.5,-1095 611.5,-972 471.5,-972"/>
<text text-anchor="start" x="479.5" y="-1083" font-family="Helvetica,sans-Serif" font-size="10.00">net::socket::stream</text>
<text text-anchor="middle" x="541.5" y="-1072" font-family="Helvetica,sans-Serif" font-size="10.00">::SocketReader&lt; SocketT &gt;</text>
<polyline fill="none" stroke="black" points="471.5,-1065 611.5,-1065 "/>
<text text-anchor="start" x="479.5" y="-1053" font-family="Helvetica,sans-Serif" font-size="10.00">&#45; onRead</text>
<text text-anchor="start" x="479.5" y="-1042" font-family="Helvetica,sans-Serif" font-size="10.00">&#45; onError</text>
<polyline fill="none" stroke="black" points="471.5,-1035 611.5,-1035 "/>
<text text-anchor="start" x="479.5" y="-1023" font-family="Helvetica,sans-Serif" font-size="10.00"># SocketReader()</text>
<text text-anchor="start" x="479.5" y="-1012" font-family="Helvetica,sans-Serif" font-size="10.00"># SocketReader()</text>
<text text-anchor="start" x="479.5" y="-1001" font-family="Helvetica,sans-Serif" font-size="10.00">&#45; read()</text>
<text text-anchor="start" x="479.5" y="-990" font-family="Helvetica,sans-Serif" font-size="10.00">&#45; readEvent()</text>
<text text-anchor="start" x="479.5" y="-979" font-family="Helvetica,sans-Serif" font-size="10.00">&#45; getError()</text>
</a>
</g>
</g>
<!-- Node1&#45;&gt;Node10 -->
<g id="edge9" class="edge">
<title>Node1&#45;&gt;Node10</title>
<path fill="none" stroke="midnightblue" d="M452.2,-1217.27C454.02,-1214.15 455.79,-1211.06 457.5,-1208 477.99,-1171.34 498.58,-1128.93 514.25,-1095.21"/>
<polygon fill="none" stroke="midnightblue" points="449.08,-1215.68 446.98,-1226.06 455.09,-1219.25 449.08,-1215.68"/>
</g>
<!-- Node17 -->
<g id="node17" class="node">
<title>Node17</title>
<g id="a_node17"><a xlink:href="classnet_1_1socket_1_1stream_1_1tls_1_1_t_l_s_handshake.html" target="_top" xlink:title=" ">
<polygon fill="white" stroke="black" points="630,-955.5 630,-1111.5 737,-1111.5 737,-955.5 630,-955.5"/>
<text text-anchor="start" x="638" y="-1099.5" font-family="Helvetica,sans-Serif" font-size="10.00">net::socket::stream</text>
<text text-anchor="middle" x="683.5" y="-1088.5" font-family="Helvetica,sans-Serif" font-size="10.00">::tls::TLSHandshake</text>
<polyline fill="none" stroke="black" points="630,-1081.5 737,-1081.5 "/>
<text text-anchor="start" x="638" y="-1069.5" font-family="Helvetica,sans-Serif" font-size="10.00">&#45; ssl</text>
<text text-anchor="start" x="638" y="-1058.5" font-family="Helvetica,sans-Serif" font-size="10.00">&#45; onSuccess</text>
<text text-anchor="start" x="638" y="-1047.5" font-family="Helvetica,sans-Serif" font-size="10.00">&#45; onTimeout</text>
<text text-anchor="start" x="638" y="-1036.5" font-family="Helvetica,sans-Serif" font-size="10.00">&#45; onError</text>
<polyline fill="none" stroke="black" points="630,-1029.5 737,-1029.5 "/>
<text text-anchor="start" x="638" y="-1017.5" font-family="Helvetica,sans-Serif" font-size="10.00">+ TLSHandshake()</text>
<text text-anchor="start" x="638" y="-1006.5" font-family="Helvetica,sans-Serif" font-size="10.00">+ readEvent()</text>
<text text-anchor="start" x="638" y="-995.5" font-family="Helvetica,sans-Serif" font-size="10.00">+ writeEvent()</text>
<text text-anchor="start" x="638" y="-984.5" font-family="Helvetica,sans-Serif" font-size="10.00">+ timeoutEvent()</text>
<text text-anchor="start" x="638" y="-973.5" font-family="Helvetica,sans-Serif" font-size="10.00">+ unobserved()</text>
<text text-anchor="start" x="638" y="-962.5" font-family="Helvetica,sans-Serif" font-size="10.00">+ doHandshake()</text>
</a>
</g>
</g>
<!-- Node1&#45;&gt;Node17 -->
<g id="edge16" class="edge">
<title>Node1&#45;&gt;Node17</title>
<path fill="none" stroke="midnightblue" d="M475.37,-1273.08C522.06,-1257.22 581.32,-1230.52 620.5,-1189 640.78,-1167.51 654.9,-1138.62 664.55,-1111.64"/>
<polygon fill="none" stroke="midnightblue" points="474,-1269.84 465.61,-1276.3 476.2,-1276.49 474,-1269.84"/>
</g>
<!-- Node2 -->
<g id="node2" class="node">
<title>Node2</title>
<g id="a_node2"><a xlink:href="classnet_1_1_event_receiver.html" target="_top" xlink:title=" ">
<polygon fill="white" stroke="black" points="353,-1398.5 353,-1697.5 454,-1697.5 454,-1398.5 353,-1398.5"/>
<text text-anchor="middle" x="403.5" y="-1685.5" font-family="Helvetica,sans-Serif" font-size="10.00">net::EventReceiver</text>
<polyline fill="none" stroke="black" points="353,-1678.5 454,-1678.5 "/>
<text text-anchor="start" x="361" y="-1666.5" font-family="Helvetica,sans-Serif" font-size="10.00">&#45; _enabled</text>
<text text-anchor="start" x="361" y="-1655.5" font-family="Helvetica,sans-Serif" font-size="10.00">&#45; _suspended</text>
<text text-anchor="start" x="361" y="-1644.5" font-family="Helvetica,sans-Serif" font-size="10.00">&#45; maxInactivity</text>
<polyline fill="none" stroke="black" points="353,-1637.5 454,-1637.5 "/>
<text text-anchor="start" x="361" y="-1625.5" font-family="Helvetica,sans-Serif" font-size="10.00"># EventReceiver()</text>
<text text-anchor="start" x="361" y="-1614.5" font-family="Helvetica,sans-Serif" font-size="10.00"># EventReceiver()</text>
<text text-anchor="start" x="361" y="-1603.5" font-family="Helvetica,sans-Serif" font-size="10.00"># operator=()</text>
<text text-anchor="start" x="361" y="-1592.5" font-family="Helvetica,sans-Serif" font-size="10.00"># ~EventReceiver()</text>
<text text-anchor="start" x="361" y="-1581.5" font-family="Helvetica,sans-Serif" font-size="10.00"># setTimeout()</text>
<text text-anchor="start" x="361" y="-1570.5" font-family="Helvetica,sans-Serif" font-size="10.00"># isEnabled()</text>
<text text-anchor="start" x="361" y="-1559.5" font-family="Helvetica,sans-Serif" font-size="10.00"># isSuspended()</text>
<text text-anchor="start" x="361" y="-1548.5" font-family="Helvetica,sans-Serif" font-size="10.00">&#45; dispatchEvent()</text>
<text text-anchor="start" x="361" y="-1537.5" font-family="Helvetica,sans-Serif" font-size="10.00">&#45; timeoutEvent()</text>
<text text-anchor="start" x="361" y="-1526.5" font-family="Helvetica,sans-Serif" font-size="10.00">&#45; enabled()</text>
<text text-anchor="start" x="361" y="-1515.5" font-family="Helvetica,sans-Serif" font-size="10.00">&#45; disabled()</text>
<text text-anchor="start" x="361" y="-1504.5" font-family="Helvetica,sans-Serif" font-size="10.00">&#45; suspended()</text>
<text text-anchor="start" x="361" y="-1493.5" font-family="Helvetica,sans-Serif" font-size="10.00">&#45; resumed()</text>
<text text-anchor="start" x="361" y="-1482.5" font-family="Helvetica,sans-Serif" font-size="10.00">&#45; getTimeout()</text>
<text text-anchor="start" x="361" y="-1471.5" font-family="Helvetica,sans-Serif" font-size="10.00">&#45; getLastTriggered()</text>
<text text-anchor="start" x="361" y="-1460.5" font-family="Helvetica,sans-Serif" font-size="10.00">&#45; setLastTriggered()</text>
<text text-anchor="start" x="361" y="-1449.5" font-family="Helvetica,sans-Serif" font-size="10.00">&#45; enable()</text>
<text text-anchor="start" x="361" y="-1438.5" font-family="Helvetica,sans-Serif" font-size="10.00">&#45; disable()</text>
<text text-anchor="start" x="361" y="-1427.5" font-family="Helvetica,sans-Serif" font-size="10.00">&#45; suspend()</text>
<text text-anchor="start" x="361" y="-1416.5" font-family="Helvetica,sans-Serif" font-size="10.00">&#45; resume()</text>
<text text-anchor="start" x="361" y="-1405.5" font-family="Helvetica,sans-Serif" font-size="10.00">&#45; unobserved()</text>
</a>
</g>
</g>
<!-- Node2&#45;&gt;Node1 -->
<g id="edge1" class="edge">
<title>Node2&#45;&gt;Node1</title>
<path fill="none" stroke="midnightblue" d="M403.5,-1388.27C403.5,-1378.73 403.5,-1369.46 403.5,-1360.69"/>
<polygon fill="none" stroke="midnightblue" points="400,-1388.29 403.5,-1398.29 407,-1388.29 400,-1388.29"/>
</g>
<!-- Node3 -->
<g id="node3" class="node">
<title>Node3</title>
<g id="a_node3"><a xlink:href="classnet_1_1_observation_counter.html" target="_top" xlink:title=" ">
<polygon fill="white" stroke="black" points="342,-1735.5 342,-1792.5 465,-1792.5 465,-1735.5 342,-1735.5"/>
<text text-anchor="middle" x="403.5" y="-1780.5" font-family="Helvetica,sans-Serif" font-size="10.00">net::ObservationCounter</text>
<polyline fill="none" stroke="black" points="342,-1773.5 465,-1773.5 "/>
<text text-anchor="start" x="350" y="-1761.5" font-family="Helvetica,sans-Serif" font-size="10.00"># observationCounter</text>
<polyline fill="none" stroke="black" points="342,-1754.5 465,-1754.5 "/>
<text text-anchor="start" x="350" y="-1742.5" font-family="Helvetica,sans-Serif" font-size="10.00">+ isObserved()</text>
</a>
</g>
</g>
<!-- Node3&#45;&gt;Node2 -->
<g id="edge2" class="edge">
<title>Node3&#45;&gt;Node2</title>
<path fill="none" stroke="midnightblue" d="M403.5,-1725.41C403.5,-1717.03 403.5,-1707.65 403.5,-1697.7"/>
<polygon fill="none" stroke="midnightblue" points="400,-1725.46 403.5,-1735.46 407,-1725.46 400,-1725.46"/>
</g>
<!-- Node5&#45;&gt;Node6 -->
<g id="edge5" class="edge">
<title>Node5&#45;&gt;Node6</title>
<path fill="none" stroke="orange" d="M177.15,-883.01C173.29,-875.37 169.71,-867.68 166.5,-860 161.13,-847.16 156.44,-833.58 152.36,-819.75"/>
<polygon fill="orange" stroke="orange" points="174.08,-884.69 181.8,-891.95 180.29,-881.46 174.08,-884.69"/>
<text text-anchor="start" x="166.5" y="-852" font-family="Helvetica,sans-Serif" font-size="10.00"> &lt; stream::legacy::Socket</text>
<text text-anchor="middle" x="223.5" y="-841" font-family="Helvetica,sans-Serif" font-size="10.00">Connection&lt; SocketT &gt; &gt;</text>
</g>
<!-- Node5&#45;&gt;Node8 -->
<g id="edge7" class="edge">
<title>Node5&#45;&gt;Node8</title>
<path fill="none" stroke="orange" d="M284.22,-868.09C284.3,-857.91 284.39,-847.81 284.5,-838 284.57,-831.95 284.64,-825.78 284.71,-819.55"/>
<polygon fill="orange" stroke="orange" points="280.71,-868.26 284.13,-878.29 287.71,-868.32 280.71,-868.26"/>
<text text-anchor="start" x="284.5" y="-852" font-family="Helvetica,sans-Serif" font-size="10.00"> &lt; stream::tls::SocketConnection</text>
<text text-anchor="middle" x="357" y="-841" font-family="Helvetica,sans-Serif" font-size="10.00">&lt; SocketT &gt; &gt;</text>
</g>
<!-- Node7 -->
<g id="node7" class="node">
<title>Node7</title>
<g id="a_node7"><a xlink:href="classnet_1_1socket_1_1stream_1_1legacy_1_1_socket_connector.html" target="_top" xlink:title=" ">
<polygon fill="white" stroke="black" points="59,-271.5 59,-350.5 192,-350.5 192,-271.5 59,-271.5"/>
<text text-anchor="start" x="67" y="-338.5" font-family="Helvetica,sans-Serif" font-size="10.00">net::socket::stream</text>
<text text-anchor="start" x="67" y="-327.5" font-family="Helvetica,sans-Serif" font-size="10.00">::legacy::SocketConnector</text>
<text text-anchor="middle" x="125.5" y="-316.5" font-family="Helvetica,sans-Serif" font-size="10.00">&lt; SocketT &gt;</text>
<polyline fill="none" stroke="black" points="59,-309.5 192,-309.5 "/>
<text text-anchor="middle" x="125.5" y="-297.5" font-family="Helvetica,sans-Serif" font-size="10.00"> </text>
<polyline fill="none" stroke="black" points="59,-290.5 192,-290.5 "/>
<text text-anchor="middle" x="125.5" y="-278.5" font-family="Helvetica,sans-Serif" font-size="10.00"> </text>
</a>
</g>
</g>
<!-- Node6&#45;&gt;Node7 -->
<g id="edge6" class="edge">
<title>Node6&#45;&gt;Node7</title>
<path fill="none" stroke="midnightblue" d="M125.5,-477.07C125.5,-429.46 125.5,-382.39 125.5,-350.77"/>
<polygon fill="none" stroke="midnightblue" points="122,-477.24 125.5,-487.24 129,-477.24 122,-477.24"/>
</g>
<!-- Node9 -->
<g id="node9" class="node">
<title>Node9</title>
<g id="a_node9"><a xlink:href="classnet_1_1socket_1_1stream_1_1tls_1_1_socket_connector.html" target="_top" xlink:title=" ">
<polygon fill="white" stroke="black" points="230,-255 230,-367 345,-367 345,-255 230,-255"/>
<text text-anchor="start" x="238" y="-355" font-family="Helvetica,sans-Serif" font-size="10.00">net::socket::stream</text>
<text text-anchor="start" x="238" y="-344" font-family="Helvetica,sans-Serif" font-size="10.00">::tls::SocketConnector</text>
<text text-anchor="middle" x="287.5" y="-333" font-family="Helvetica,sans-Serif" font-size="10.00">&lt; SocketT &gt;</text>
<polyline fill="none" stroke="black" points="230,-326 345,-326 "/>
<text text-anchor="start" x="238" y="-314" font-family="Helvetica,sans-Serif" font-size="10.00"># ctx</text>
<text text-anchor="start" x="238" y="-303" font-family="Helvetica,sans-Serif" font-size="10.00"># sslErr</text>
<polyline fill="none" stroke="black" points="230,-296 345,-296 "/>
<text text-anchor="start" x="238" y="-284" font-family="Helvetica,sans-Serif" font-size="10.00"># SocketConnector()</text>
<text text-anchor="start" x="238" y="-273" font-family="Helvetica,sans-Serif" font-size="10.00"># ~SocketConnector()</text>
<text text-anchor="start" x="238" y="-262" font-family="Helvetica,sans-Serif" font-size="10.00"># connect()</text>
</a>
</g>
</g>
<!-- Node8&#45;&gt;Node9 -->
<g id="edge8" class="edge">
<title>Node8&#45;&gt;Node9</title>
<path fill="none" stroke="midnightblue" d="M287.5,-477.07C287.5,-437.08 287.5,-397.48 287.5,-367.09"/>
<polygon fill="none" stroke="midnightblue" points="284,-477.24 287.5,-487.24 291,-477.24 284,-477.24"/>
</g>
<!-- Node11 -->
<g id="node11" class="node">
<title>Node11</title>
<g id="a_node11"><a xlink:href="classnet_1_1socket_1_1stream_1_1legacy_1_1_socket_reader.html" target="_top" xlink:title=" ">
<polygon fill="white" stroke="black" points="456,-608.5 456,-698.5 575,-698.5 575,-608.5 456,-608.5"/>
<text text-anchor="start" x="464" y="-686.5" font-family="Helvetica,sans-Serif" font-size="10.00">net::socket::stream</text>
<text text-anchor="start" x="464" y="-675.5" font-family="Helvetica,sans-Serif" font-size="10.00">::legacy::SocketReader</text>
<text text-anchor="middle" x="515.5" y="-664.5" font-family="Helvetica,sans-Serif" font-size="10.00">&lt; SocketT &gt;</text>
<polyline fill="none" stroke="black" points="456,-657.5 575,-657.5 "/>
<text text-anchor="middle" x="515.5" y="-645.5" font-family="Helvetica,sans-Serif" font-size="10.00"> </text>
<polyline fill="none" stroke="black" points="456,-638.5 575,-638.5 "/>
<text text-anchor="start" x="464" y="-626.5" font-family="Helvetica,sans-Serif" font-size="10.00">&#45; read()</text>
<text text-anchor="start" x="464" y="-615.5" font-family="Helvetica,sans-Serif" font-size="10.00">&#45; getError()</text>
</a>
</g>
</g>
<!-- Node10&#45;&gt;Node11 -->
<g id="edge10" class="edge">
<title>Node10&#45;&gt;Node11</title>
<path fill="none" stroke="midnightblue" d="M536.63,-961.64C531.31,-884.39 522.98,-763.18 518.53,-698.55"/>
<polygon fill="none" stroke="midnightblue" points="533.14,-962.03 537.32,-971.77 540.13,-961.55 533.14,-962.03"/>
</g>
<!-- Node14 -->
<g id="node14" class="node">
<title>Node14</title>
<g id="a_node14"><a xlink:href="classnet_1_1socket_1_1stream_1_1tls_1_1_socket_reader.html" target="_top" xlink:title=" ">
<polygon fill="white" stroke="black" points="626,-603 626,-704 727,-704 727,-603 626,-603"/>
<text text-anchor="start" x="634" y="-692" font-family="Helvetica,sans-Serif" font-size="10.00">net::socket::stream</text>
<text text-anchor="start" x="634" y="-681" font-family="Helvetica,sans-Serif" font-size="10.00">::tls::SocketReader</text>
<text text-anchor="middle" x="676.5" y="-670" font-family="Helvetica,sans-Serif" font-size="10.00">&lt; SocketT &gt;</text>
<polyline fill="none" stroke="black" points="626,-663 727,-663 "/>
<text text-anchor="start" x="634" y="-651" font-family="Helvetica,sans-Serif" font-size="10.00"># ssl</text>
<text text-anchor="start" x="634" y="-640" font-family="Helvetica,sans-Serif" font-size="10.00"># sslErr</text>
<polyline fill="none" stroke="black" points="626,-633 727,-633 "/>
<text text-anchor="start" x="634" y="-621" font-family="Helvetica,sans-Serif" font-size="10.00">&#45; read()</text>
<text text-anchor="start" x="634" y="-610" font-family="Helvetica,sans-Serif" font-size="10.00">&#45; getError()</text>
</a>
</g>
</g>
<!-- Node10&#45;&gt;Node14 -->
<g id="edge13" class="edge">
<title>Node10&#45;&gt;Node14</title>
<path fill="none" stroke="midnightblue" d="M566.71,-961.92C593.5,-886.89 635.2,-770.15 658.74,-704.22"/>
<polygon fill="none" stroke="midnightblue" points="563.26,-961.17 563.19,-971.77 569.85,-963.53 563.26,-961.17"/>
</g>
<!-- Node12 -->
<g id="node12" class="node">
<title>Node12</title>
<g id="a_node12"><a xlink:href="classnet_1_1socket_1_1stream_1_1_socket_connection.html" target="_top" xlink:title=" ">
<polygon fill="white" stroke="black" points="393.5,-172.5 393.5,-449.5 587.5,-449.5 587.5,-172.5 393.5,-172.5"/>
<text text-anchor="start" x="401.5" y="-437.5" font-family="Helvetica,sans-Serif" font-size="10.00">SocketConnection&lt; legacy</text>
<text text-anchor="start" x="401.5" y="-426.5" font-family="Helvetica,sans-Serif" font-size="10.00">::SocketReader&lt; SocketT</text>
<text text-anchor="start" x="401.5" y="-415.5" font-family="Helvetica,sans-Serif" font-size="10.00"> &gt;, legacy::SocketWriter</text>
<text text-anchor="middle" x="490.5" y="-404.5" font-family="Helvetica,sans-Serif" font-size="10.00">&lt; SocketT &gt;, SocketT::SocketAddress &gt;</text>
<polyline fill="none" stroke="black" points="393.5,-397.5 587.5,-397.5 "/>
<text text-anchor="start" x="401.5" y="-385.5" font-family="Helvetica,sans-Serif" font-size="10.00">&#45; remoteAddress</text>
<text text-anchor="start" x="401.5" y="-374.5" font-family="Helvetica,sans-Serif" font-size="10.00">&#45; localAddress</text>
<text text-anchor="start" x="401.5" y="-363.5" font-family="Helvetica,sans-Serif" font-size="10.00">&#45; onDestruct</text>
<text text-anchor="start" x="401.5" y="-352.5" font-family="Helvetica,sans-Serif" font-size="10.00">&#45; onDisconnect</text>
<text text-anchor="start" x="401.5" y="-341.5" font-family="Helvetica,sans-Serif" font-size="10.00">&#45; isDynamic</text>
<text text-anchor="start" x="401.5" y="-330.5" font-family="Helvetica,sans-Serif" font-size="10.00">&#45; lastAllocAddress</text>
<polyline fill="none" stroke="black" points="393.5,-323.5 587.5,-323.5 "/>
<text text-anchor="start" x="401.5" y="-311.5" font-family="Helvetica,sans-Serif" font-size="10.00">+ operator new()</text>
<text text-anchor="start" x="401.5" y="-300.5" font-family="Helvetica,sans-Serif" font-size="10.00">+ operator delete()</text>
<text text-anchor="start" x="401.5" y="-289.5" font-family="Helvetica,sans-Serif" font-size="10.00">+ SocketConnection()</text>
<text text-anchor="start" x="401.5" y="-278.5" font-family="Helvetica,sans-Serif" font-size="10.00">+ SocketConnection()</text>
<text text-anchor="start" x="401.5" y="-267.5" font-family="Helvetica,sans-Serif" font-size="10.00">+ ~SocketConnection()</text>
<text text-anchor="start" x="401.5" y="-256.5" font-family="Helvetica,sans-Serif" font-size="10.00">+ enqueue()</text>
<text text-anchor="start" x="401.5" y="-245.5" font-family="Helvetica,sans-Serif" font-size="10.00">+ enqueue()</text>
<text text-anchor="start" x="401.5" y="-234.5" font-family="Helvetica,sans-Serif" font-size="10.00">+ end()</text>
<text text-anchor="start" x="401.5" y="-223.5" font-family="Helvetica,sans-Serif" font-size="10.00">+ getRemoteAddress()</text>
<text text-anchor="start" x="401.5" y="-212.5" font-family="Helvetica,sans-Serif" font-size="10.00">+ setRemoteAddress()</text>
<text text-anchor="start" x="401.5" y="-201.5" font-family="Helvetica,sans-Serif" font-size="10.00">+ getLocalAddress()</text>
<text text-anchor="start" x="401.5" y="-190.5" font-family="Helvetica,sans-Serif" font-size="10.00">+ setLocalAddress()</text>
<text text-anchor="start" x="401.5" y="-179.5" font-family="Helvetica,sans-Serif" font-size="10.00">&#45; unobserved()</text>
</a>
</g>
</g>
<!-- Node11&#45;&gt;Node12 -->
<g id="edge11" class="edge">
<title>Node11&#45;&gt;Node12</title>
<path fill="none" stroke="midnightblue" d="M511.52,-598.25C508.57,-558.17 504.43,-501.73 500.6,-449.54"/>
<polygon fill="none" stroke="midnightblue" points="508.03,-598.62 512.26,-608.33 515.02,-598.11 508.03,-598.62"/>
</g>
<!-- Node13 -->
<g id="node13" class="node">
<title>Node13</title>
<g id="a_node13"><a xlink:href="classnet_1_1socket_1_1stream_1_1legacy_1_1_socket_connection.html" target="_top" xlink:title=" ">
<polygon fill="white" stroke="black" points="422,-28 422,-107 559,-107 559,-28 422,-28"/>
<text text-anchor="start" x="430" y="-95" font-family="Helvetica,sans-Serif" font-size="10.00">net::socket::stream</text>
<text text-anchor="start" x="430" y="-84" font-family="Helvetica,sans-Serif" font-size="10.00">::legacy::SocketConnection</text>
<text text-anchor="middle" x="490.5" y="-73" font-family="Helvetica,sans-Serif" font-size="10.00">&lt; SocketT &gt;</text>
<polyline fill="none" stroke="black" points="422,-66 559,-66 "/>
<text text-anchor="middle" x="490.5" y="-54" font-family="Helvetica,sans-Serif" font-size="10.00"> </text>
<polyline fill="none" stroke="black" points="422,-47 559,-47 "/>
<text text-anchor="start" x="430" y="-35" font-family="Helvetica,sans-Serif" font-size="10.00">+ SocketConnection()</text>
</a>
</g>
</g>
<!-- Node12&#45;&gt;Node13 -->
<g id="edge12" class="edge">
<title>Node12&#45;&gt;Node13</title>
<path fill="none" stroke="midnightblue" d="M490.5,-162.28C490.5,-142 490.5,-122.78 490.5,-107.08"/>
<polygon fill="none" stroke="midnightblue" points="487,-162.32 490.5,-172.32 494,-162.32 487,-162.32"/>
</g>
<!-- Node15 -->
<g id="node15" class="node">
<title>Node15</title>
<g id="a_node15"><a xlink:href="classnet_1_1socket_1_1stream_1_1_socket_connection.html" target="_top" xlink:title=" ">
<polygon fill="white" stroke="black" points="605.5,-172.5 605.5,-449.5 793.5,-449.5 793.5,-172.5 605.5,-172.5"/>
<text text-anchor="start" x="613.5" y="-437.5" font-family="Helvetica,sans-Serif" font-size="10.00">SocketConnection&lt; tls</text>
<text text-anchor="start" x="613.5" y="-426.5" font-family="Helvetica,sans-Serif" font-size="10.00">::SocketReader&lt; SocketT</text>
<text text-anchor="start" x="613.5" y="-415.5" font-family="Helvetica,sans-Serif" font-size="10.00"> &gt;, tls::SocketWriter&lt;</text>
<text text-anchor="middle" x="699.5" y="-404.5" font-family="Helvetica,sans-Serif" font-size="10.00"> SocketT &gt;, SocketT::SocketAddress &gt;</text>
<polyline fill="none" stroke="black" points="605.5,-397.5 793.5,-397.5 "/>
<text text-anchor="start" x="613.5" y="-385.5" font-family="Helvetica,sans-Serif" font-size="10.00">&#45; remoteAddress</text>
<text text-anchor="start" x="613.5" y="-374.5" font-family="Helvetica,sans-Serif" font-size="10.00">&#45; localAddress</text>
<text text-anchor="start" x="613.5" y="-363.5" font-family="Helvetica,sans-Serif" font-size="10.00">&#45; onDestruct</text>
<text text-anchor="start" x="613.5" y="-352.5" font-family="Helvetica,sans-Serif" font-size="10.00">&#45; onDisconnect</text>
<text text-anchor="start" x="613.5" y="-341.5" font-family="Helvetica,sans-Serif" font-size="10.00">&#45; isDynamic</text>
<text text-anchor="start" x="613.5" y="-330.5" font-family="Helvetica,sans-Serif" font-size="10.00">&#45; lastAllocAddress</text>
<polyline fill="none" stroke="black" points="605.5,-323.5 793.5,-323.5 "/>
<text text-anchor="start" x="613.5" y="-311.5" font-family="Helvetica,sans-Serif" font-size="10.00">+ operator new()</text>
<text text-anchor="start" x="613.5" y="-300.5" font-family="Helvetica,sans-Serif" font-size="10.00">+ operator delete()</text>
<text text-anchor="start" x="613.5" y="-289.5" font-family="Helvetica,sans-Serif" font-size="10.00">+ SocketConnection()</text>
<text text-anchor="start" x="613.5" y="-278.5" font-family="Helvetica,sans-Serif" font-size="10.00">+ SocketConnection()</text>
<text text-anchor="start" x="613.5" y="-267.5" font-family="Helvetica,sans-Serif" font-size="10.00">+ ~SocketConnection()</text>
<text text-anchor="start" x="613.5" y="-256.5" font-family="Helvetica,sans-Serif" font-size="10.00">+ enqueue()</text>
<text text-anchor="start" x="613.5" y="-245.5" font-family="Helvetica,sans-Serif" font-size="10.00">+ enqueue()</text>
<text text-anchor="start" x="613.5" y="-234.5" font-family="Helvetica,sans-Serif" font-size="10.00">+ end()</text>
<text text-anchor="start" x="613.5" y="-223.5" font-family="Helvetica,sans-Serif" font-size="10.00">+ getRemoteAddress()</text>
<text text-anchor="start" x="613.5" y="-212.5" font-family="Helvetica,sans-Serif" font-size="10.00">+ setRemoteAddress()</text>
<text text-anchor="start" x="613.5" y="-201.5" font-family="Helvetica,sans-Serif" font-size="10.00">+ getLocalAddress()</text>
<text text-anchor="start" x="613.5" y="-190.5" font-family="Helvetica,sans-Serif" font-size="10.00">+ setLocalAddress()</text>
<text text-anchor="start" x="613.5" y="-179.5" font-family="Helvetica,sans-Serif" font-size="10.00">&#45; unobserved()</text>
</a>
</g>
</g>
<!-- Node14&#45;&gt;Node15 -->
<g id="edge14" class="edge">
<title>Node14&#45;&gt;Node15</title>
<path fill="none" stroke="midnightblue" d="M680.52,-592.96C683.2,-553.28 686.84,-499.44 690.21,-449.5"/>
<polygon fill="none" stroke="midnightblue" points="677.03,-592.78 679.84,-602.99 684.01,-593.25 677.03,-592.78"/>
</g>
<!-- Node16 -->
<g id="node16" class="node">
<title>Node16</title>
<g id="a_node16"><a xlink:href="classnet_1_1socket_1_1stream_1_1tls_1_1_socket_connection.html" target="_top" xlink:title=" ">
<polygon fill="white" stroke="black" points="640,-0.5 640,-134.5 759,-134.5 759,-0.5 640,-0.5"/>
<text text-anchor="start" x="648" y="-122.5" font-family="Helvetica,sans-Serif" font-size="10.00">net::socket::stream</text>
<text text-anchor="start" x="648" y="-111.5" font-family="Helvetica,sans-Serif" font-size="10.00">::tls::SocketConnection</text>
<text text-anchor="middle" x="699.5" y="-100.5" font-family="Helvetica,sans-Serif" font-size="10.00">&lt; SocketT &gt;</text>
<polyline fill="none" stroke="black" points="640,-93.5 759,-93.5 "/>
<text text-anchor="start" x="648" y="-81.5" font-family="Helvetica,sans-Serif" font-size="10.00"># ssl</text>
<text text-anchor="start" x="648" y="-70.5" font-family="Helvetica,sans-Serif" font-size="10.00"># sslErr</text>
<polyline fill="none" stroke="black" points="640,-63.5 759,-63.5 "/>
<text text-anchor="start" x="648" y="-51.5" font-family="Helvetica,sans-Serif" font-size="10.00">+ SocketConnection()</text>
<text text-anchor="start" x="648" y="-40.5" font-family="Helvetica,sans-Serif" font-size="10.00">+ startSSL()</text>
<text text-anchor="start" x="648" y="-29.5" font-family="Helvetica,sans-Serif" font-size="10.00">+ stopSSL()</text>
<text text-anchor="start" x="648" y="-18.5" font-family="Helvetica,sans-Serif" font-size="10.00">+ getSSL()</text>
<text text-anchor="start" x="648" y="-7.5" font-family="Helvetica,sans-Serif" font-size="10.00">+ setSSLError()</text>
</a>
</g>
</g>
<!-- Node15&#45;&gt;Node16 -->
<g id="edge15" class="edge">
<title>Node15&#45;&gt;Node16</title>
<path fill="none" stroke="midnightblue" d="M699.5,-162.31C699.5,-152.77 699.5,-143.47 699.5,-134.66"/>
<polygon fill="none" stroke="midnightblue" points="696,-162.32 699.5,-172.32 703,-162.32 696,-162.32"/>
</g>
</g>
</svg>
