<?xml version="1.0" encoding="UTF-8" standalone="no"?>
<!DOCTYPE svg PUBLIC "-//W3C//DTD SVG 1.1//EN"
 "http://www.w3.org/Graphics/SVG/1.1/DTD/svg11.dtd">
<!-- Generated by graphviz version 2.43.0 (0)
 -->
<!-- Title: net::socket::stream::legacy::SocketListener&lt; SocketT &gt; Pages: 1 -->
<svg width="280pt" height="1332pt"
 viewBox="0.00 0.00 280.02 1332.00" xmlns="http://www.w3.org/2000/svg" xmlns:xlink="http://www.w3.org/1999/xlink">
<g id="graph0" class="graph" transform="scale(1 1) rotate(0) translate(4 1328)">
<title>net::socket::stream::legacy::SocketListener&lt; SocketT &gt;</title>
<polygon fill="white" stroke="transparent" points="-4,4 -4,-1328 276.02,-1328 276.02,4 -4,4"/>
<!-- Node1 -->
<g id="node1" class="node">
<title>Node1</title>
<g id="a_node1"><a xlink:title=" ">
<polygon fill="#bfbfbf" stroke="black" points="53.52,-0.5 53.52,-79.5 175.52,-79.5 175.52,-0.5 53.52,-0.5"/>
<text text-anchor="start" x="61.52" y="-67.5" font-family="Helvetica,sans-Serif" font-size="10.00">net::socket::stream</text>
<text text-anchor="start" x="61.52" y="-56.5" font-family="Helvetica,sans-Serif" font-size="10.00">::legacy::SocketListener</text>
<text text-anchor="middle" x="114.52" y="-45.5" font-family="Helvetica,sans-Serif" font-size="10.00">&lt; SocketT &gt;</text>
<polyline fill="none" stroke="black" points="53.52,-38.5 175.52,-38.5 "/>
<text text-anchor="middle" x="114.52" y="-26.5" font-family="Helvetica,sans-Serif" font-size="10.00"> </text>
<polyline fill="none" stroke="black" points="53.52,-19.5 175.52,-19.5 "/>
<text text-anchor="middle" x="114.52" y="-7.5" font-family="Helvetica,sans-Serif" font-size="10.00"> </text>
</a>
</g>
</g>
<!-- Node2 -->
<g id="node2" class="node">
<title>Node2</title>
<g id="a_node2"><a xlink:href="classnet_1_1socket_1_1stream_1_1_socket_listener.html" target="_top" xlink:title=" ">
<polygon fill="white" stroke="black" points="46.02,-117.5 46.02,-394.5 183.02,-394.5 183.02,-117.5 46.02,-117.5"/>
<text text-anchor="start" x="54.02" y="-382.5" font-family="Helvetica,sans-Serif" font-size="10.00">net::socket::stream</text>
<text text-anchor="start" x="54.02" y="-371.5" font-family="Helvetica,sans-Serif" font-size="10.00">::SocketListener&lt; stream</text>
<text text-anchor="start" x="54.02" y="-360.5" font-family="Helvetica,sans-Serif" font-size="10.00">::legacy::SocketConnection</text>
<text text-anchor="middle" x="114.52" y="-349.5" font-family="Helvetica,sans-Serif" font-size="10.00">&lt; SocketT &gt; &gt;</text>
<polyline fill="none" stroke="black" points="46.02,-342.5 183.02,-342.5 "/>
<text text-anchor="start" x="54.02" y="-330.5" font-family="Helvetica,sans-Serif" font-size="10.00">&#45; onConstruct</text>
<text text-anchor="start" x="54.02" y="-319.5" font-family="Helvetica,sans-Serif" font-size="10.00">&#45; onDestruct</text>
<text text-anchor="start" x="54.02" y="-308.5" font-family="Helvetica,sans-Serif" font-size="10.00">&#45; onConnect</text>
<text text-anchor="start" x="54.02" y="-297.5" font-family="Helvetica,sans-Serif" font-size="10.00">&#45; onDisconnect</text>
<text text-anchor="start" x="54.02" y="-286.5" font-family="Helvetica,sans-Serif" font-size="10.00">&#45; onRead</text>
<text text-anchor="start" x="54.02" y="-275.5" font-family="Helvetica,sans-Serif" font-size="10.00">&#45; onReadError</text>
<text text-anchor="start" x="54.02" y="-264.5" font-family="Helvetica,sans-Serif" font-size="10.00">&#45; onWriteError</text>
<text text-anchor="start" x="54.02" y="-253.5" font-family="Helvetica,sans-Serif" font-size="10.00">&#45; options</text>
<polyline fill="none" stroke="black" points="46.02,-246.5 183.02,-246.5 "/>
<text text-anchor="start" x="54.02" y="-234.5" font-family="Helvetica,sans-Serif" font-size="10.00"># SocketListener()</text>
<text text-anchor="start" x="54.02" y="-223.5" font-family="Helvetica,sans-Serif" font-size="10.00"># SocketListener()</text>
<text text-anchor="start" x="54.02" y="-212.5" font-family="Helvetica,sans-Serif" font-size="10.00"># SocketListener()</text>
<text text-anchor="start" x="54.02" y="-201.5" font-family="Helvetica,sans-Serif" font-size="10.00"># operator=()</text>
<text text-anchor="start" x="54.02" y="-190.5" font-family="Helvetica,sans-Serif" font-size="10.00"># ~SocketListener()</text>
<text text-anchor="start" x="54.02" y="-179.5" font-family="Helvetica,sans-Serif" font-size="10.00"># listen()</text>
<text text-anchor="start" x="54.02" y="-168.5" font-family="Helvetica,sans-Serif" font-size="10.00">&#45; reuseAddress()</text>
<text text-anchor="start" x="54.02" y="-157.5" font-family="Helvetica,sans-Serif" font-size="10.00">&#45; acceptEvent()</text>
<text text-anchor="start" x="54.02" y="-146.5" font-family="Helvetica,sans-Serif" font-size="10.00">&#45; end()</text>
<text text-anchor="start" x="54.02" y="-135.5" font-family="Helvetica,sans-Serif" font-size="10.00">&#45; unobserved()</text>
<text text-anchor="start" x="54.02" y="-124.5" font-family="Helvetica,sans-Serif" font-size="10.00">&#45; destruct()</text>
</a>
</g>
</g>
<!-- Node2&#45;&gt;Node1 -->
<g id="edge1" class="edge">
<title>Node2&#45;&gt;Node1</title>
<path fill="none" stroke="midnightblue" d="M114.52,-107.28C114.52,-97.38 114.52,-88.02 114.52,-79.63"/>
<polygon fill="none" stroke="midnightblue" points="111.02,-107.35 114.52,-117.35 118.02,-107.35 111.02,-107.35"/>
</g>
<!-- Node3 -->
<g id="node3" class="node">
<title>Node3</title>
<g id="a_node3"><a xlink:href="classnet_1_1_accept_event_receiver.html" target="_top" xlink:title=" ">
<polygon fill="white" stroke="black" points="141.02,-746.5 141.02,-880.5 272.02,-880.5 272.02,-746.5 141.02,-746.5"/>
<text text-anchor="middle" x="206.52" y="-868.5" font-family="Helvetica,sans-Serif" font-size="10.00">net::AcceptEventReceiver</text>
<polyline fill="none" stroke="black" points="141.02,-861.5 272.02,-861.5 "/>
<text text-anchor="middle" x="206.52" y="-849.5" font-family="Helvetica,sans-Serif" font-size="10.00"> </text>
<polyline fill="none" stroke="black" points="141.02,-842.5 272.02,-842.5 "/>
<text text-anchor="start" x="149.02" y="-830.5" font-family="Helvetica,sans-Serif" font-size="10.00">+ setTimeout()</text>
<text text-anchor="start" x="149.02" y="-819.5" font-family="Helvetica,sans-Serif" font-size="10.00">+ enable()</text>
<text text-anchor="start" x="149.02" y="-808.5" font-family="Helvetica,sans-Serif" font-size="10.00">+ disable()</text>
<text text-anchor="start" x="149.02" y="-797.5" font-family="Helvetica,sans-Serif" font-size="10.00">+ suspend()</text>
<text text-anchor="start" x="149.02" y="-786.5" font-family="Helvetica,sans-Serif" font-size="10.00">+ resume()</text>
<text text-anchor="start" x="149.02" y="-775.5" font-family="Helvetica,sans-Serif" font-size="10.00"># AcceptEventReceiver()</text>
<text text-anchor="start" x="149.02" y="-764.5" font-family="Helvetica,sans-Serif" font-size="10.00"># acceptEvent()</text>
<text text-anchor="start" x="149.02" y="-753.5" font-family="Helvetica,sans-Serif" font-size="10.00"># dispatchEvent()</text>
</a>
</g>
</g>
<!-- Node3&#45;&gt;Node2 -->
<g id="edge2" class="edge">
<title>Node3&#45;&gt;Node2</title>
<path fill="none" stroke="midnightblue" d="M227.2,-736.24C245.73,-654.22 265.03,-521.02 229.52,-413 219.75,-383.27 201.9,-354.56 183.13,-330.04"/>
<polygon fill="none" stroke="midnightblue" points="223.73,-735.7 224.88,-746.23 230.55,-737.28 223.73,-735.7"/>
</g>
<!-- Node7 -->
<g id="node7" class="node">
<title>Node7</title>
<g id="a_node7"><a xlink:href="classnet_1_1socket_1_1stream_1_1_socket_listener.html" target="_top" xlink:title=" ">
<polygon fill="white" stroke="black" points="23.52,-453.5 23.52,-708.5 215.52,-708.5 215.52,-453.5 23.52,-453.5"/>
<text text-anchor="start" x="31.52" y="-696.5" font-family="Helvetica,sans-Serif" font-size="10.00">net::socket::stream</text>
<text text-anchor="middle" x="119.52" y="-685.5" font-family="Helvetica,sans-Serif" font-size="10.00">::SocketListener&lt; SocketConnectionT &gt;</text>
<polyline fill="none" stroke="black" points="23.52,-678.5 215.52,-678.5 "/>
<text text-anchor="start" x="31.52" y="-666.5" font-family="Helvetica,sans-Serif" font-size="10.00">&#45; onConstruct</text>
<text text-anchor="start" x="31.52" y="-655.5" font-family="Helvetica,sans-Serif" font-size="10.00">&#45; onDestruct</text>
<text text-anchor="start" x="31.52" y="-644.5" font-family="Helvetica,sans-Serif" font-size="10.00">&#45; onConnect</text>
<text text-anchor="start" x="31.52" y="-633.5" font-family="Helvetica,sans-Serif" font-size="10.00">&#45; onDisconnect</text>
<text text-anchor="start" x="31.52" y="-622.5" font-family="Helvetica,sans-Serif" font-size="10.00">&#45; onRead</text>
<text text-anchor="start" x="31.52" y="-611.5" font-family="Helvetica,sans-Serif" font-size="10.00">&#45; onReadError</text>
<text text-anchor="start" x="31.52" y="-600.5" font-family="Helvetica,sans-Serif" font-size="10.00">&#45; onWriteError</text>
<text text-anchor="start" x="31.52" y="-589.5" font-family="Helvetica,sans-Serif" font-size="10.00">&#45; options</text>
<polyline fill="none" stroke="black" points="23.52,-582.5 215.52,-582.5 "/>
<text text-anchor="start" x="31.52" y="-570.5" font-family="Helvetica,sans-Serif" font-size="10.00"># SocketListener()</text>
<text text-anchor="start" x="31.52" y="-559.5" font-family="Helvetica,sans-Serif" font-size="10.00"># SocketListener()</text>
<text text-anchor="start" x="31.52" y="-548.5" font-family="Helvetica,sans-Serif" font-size="10.00"># SocketListener()</text>
<text text-anchor="start" x="31.52" y="-537.5" font-family="Helvetica,sans-Serif" font-size="10.00"># operator=()</text>
<text text-anchor="start" x="31.52" y="-526.5" font-family="Helvetica,sans-Serif" font-size="10.00"># ~SocketListener()</text>
<text text-anchor="start" x="31.52" y="-515.5" font-family="Helvetica,sans-Serif" font-size="10.00"># listen()</text>
<text text-anchor="start" x="31.52" y="-504.5" font-family="Helvetica,sans-Serif" font-size="10.00">&#45; reuseAddress()</text>
<text text-anchor="start" x="31.52" y="-493.5" font-family="Helvetica,sans-Serif" font-size="10.00">&#45; acceptEvent()</text>
<text text-anchor="start" x="31.52" y="-482.5" font-family="Helvetica,sans-Serif" font-size="10.00">&#45; end()</text>
<text text-anchor="start" x="31.52" y="-471.5" font-family="Helvetica,sans-Serif" font-size="10.00">&#45; unobserved()</text>
<text text-anchor="start" x="31.52" y="-460.5" font-family="Helvetica,sans-Serif" font-size="10.00">&#45; destruct()</text>
</a>
</g>
</g>
<!-- Node3&#45;&gt;Node7 -->
<g id="edge7" class="edge">
<title>Node3&#45;&gt;Node7</title>
<path fill="none" stroke="midnightblue" d="M178.03,-737.03C174.57,-727.84 170.95,-718.27 167.3,-708.59"/>
<polygon fill="none" stroke="midnightblue" points="174.78,-738.33 181.59,-746.45 181.33,-735.86 174.78,-738.33"/>
</g>
<!-- Node4 -->
<g id="node4" class="node">
<title>Node4</title>
<g id="a_node4"><a xlink:href="classnet_1_1_event_receiver.html" target="_top" xlink:title=" ">
<polygon fill="white" stroke="black" points="156.02,-918.5 156.02,-1228.5 257.02,-1228.5 257.02,-918.5 156.02,-918.5"/>
<text text-anchor="middle" x="206.52" y="-1216.5" font-family="Helvetica,sans-Serif" font-size="10.00">net::EventReceiver</text>
<polyline fill="none" stroke="black" points="156.02,-1209.5 257.02,-1209.5 "/>
<text text-anchor="start" x="164.02" y="-1197.5" font-family="Helvetica,sans-Serif" font-size="10.00"># fd</text>
<text text-anchor="start" x="164.02" y="-1186.5" font-family="Helvetica,sans-Serif" font-size="10.00">&#45; _enabled</text>
<text text-anchor="start" x="164.02" y="-1175.5" font-family="Helvetica,sans-Serif" font-size="10.00">&#45; _suspended</text>
<text text-anchor="start" x="164.02" y="-1164.5" font-family="Helvetica,sans-Serif" font-size="10.00">&#45; maxInactivity</text>
<polyline fill="none" stroke="black" points="156.02,-1157.5 257.02,-1157.5 "/>
<text text-anchor="start" x="164.02" y="-1145.5" font-family="Helvetica,sans-Serif" font-size="10.00">+ EventReceiver()</text>
<text text-anchor="start" x="164.02" y="-1134.5" font-family="Helvetica,sans-Serif" font-size="10.00">+ operator=()</text>
<text text-anchor="start" x="164.02" y="-1123.5" font-family="Helvetica,sans-Serif" font-size="10.00"># EventReceiver()</text>
<text text-anchor="start" x="164.02" y="-1112.5" font-family="Helvetica,sans-Serif" font-size="10.00"># ~EventReceiver()</text>
<text text-anchor="start" x="164.02" y="-1101.5" font-family="Helvetica,sans-Serif" font-size="10.00"># setTimeout()</text>
<text text-anchor="start" x="164.02" y="-1090.5" font-family="Helvetica,sans-Serif" font-size="10.00"># isEnabled()</text>
<text text-anchor="start" x="164.02" y="-1079.5" font-family="Helvetica,sans-Serif" font-size="10.00"># isSuspended()</text>
<text text-anchor="start" x="164.02" y="-1068.5" font-family="Helvetica,sans-Serif" font-size="10.00">&#45; dispatchEvent()</text>
<text text-anchor="start" x="164.02" y="-1057.5" font-family="Helvetica,sans-Serif" font-size="10.00">&#45; timeout()</text>
<text text-anchor="start" x="164.02" y="-1046.5" font-family="Helvetica,sans-Serif" font-size="10.00">&#45; enabled()</text>
<text text-anchor="start" x="164.02" y="-1035.5" font-family="Helvetica,sans-Serif" font-size="10.00">&#45; disabled()</text>
<text text-anchor="start" x="164.02" y="-1024.5" font-family="Helvetica,sans-Serif" font-size="10.00">&#45; suspended()</text>
<text text-anchor="start" x="164.02" y="-1013.5" font-family="Helvetica,sans-Serif" font-size="10.00">&#45; resumed()</text>
<text text-anchor="start" x="164.02" y="-1002.5" font-family="Helvetica,sans-Serif" font-size="10.00">&#45; getTimeout()</text>
<text text-anchor="start" x="164.02" y="-991.5" font-family="Helvetica,sans-Serif" font-size="10.00">&#45; getLastTriggered()</text>
<text text-anchor="start" x="164.02" y="-980.5" font-family="Helvetica,sans-Serif" font-size="10.00">&#45; triggered()</text>
<text text-anchor="start" x="164.02" y="-969.5" font-family="Helvetica,sans-Serif" font-size="10.00">&#45; enable()</text>
<text text-anchor="start" x="164.02" y="-958.5" font-family="Helvetica,sans-Serif" font-size="10.00">&#45; disable()</text>
<text text-anchor="start" x="164.02" y="-947.5" font-family="Helvetica,sans-Serif" font-size="10.00">&#45; suspend()</text>
<text text-anchor="start" x="164.02" y="-936.5" font-family="Helvetica,sans-Serif" font-size="10.00">&#45; resume()</text>
<text text-anchor="start" x="164.02" y="-925.5" font-family="Helvetica,sans-Serif" font-size="10.00">&#45; unobserved()</text>
</a>
</g>
</g>
<!-- Node4&#45;&gt;Node3 -->
<g id="edge3" class="edge">
<title>Node4&#45;&gt;Node3</title>
<path fill="none" stroke="midnightblue" d="M206.52,-908.25C206.52,-898.67 206.52,-889.38 206.52,-880.59"/>
<polygon fill="none" stroke="midnightblue" points="203.02,-908.32 206.52,-918.32 210.02,-908.32 203.02,-908.32"/>
</g>
<!-- Node5 -->
<g id="node5" class="node">
<title>Node5</title>
<g id="a_node5"><a xlink:href="classnet_1_1_observation_counter.html" target="_top" xlink:title=" ">
<polygon fill="white" stroke="black" points="145.02,-1266.5 145.02,-1323.5 268.02,-1323.5 268.02,-1266.5 145.02,-1266.5"/>
<text text-anchor="middle" x="206.52" y="-1311.5" font-family="Helvetica,sans-Serif" font-size="10.00">net::ObservationCounter</text>
<polyline fill="none" stroke="black" points="145.02,-1304.5 268.02,-1304.5 "/>
<text text-anchor="start" x="153.02" y="-1292.5" font-family="Helvetica,sans-Serif" font-size="10.00"># observationCounter</text>
<polyline fill="none" stroke="black" points="145.02,-1285.5 268.02,-1285.5 "/>
<text text-anchor="start" x="153.02" y="-1273.5" font-family="Helvetica,sans-Serif" font-size="10.00">+ isObserved()</text>
</a>
</g>
</g>
<!-- Node5&#45;&gt;Node4 -->
<g id="edge4" class="edge">
<title>Node5&#45;&gt;Node4</title>
<path fill="none" stroke="midnightblue" d="M206.52,-1255.99C206.52,-1247.78 206.52,-1238.62 206.52,-1228.89"/>
<polygon fill="none" stroke="midnightblue" points="203.02,-1256.2 206.52,-1266.2 210.02,-1256.2 203.02,-1256.2"/>
</g>
<!-- Node6 -->
<g id="node6" class="node">
<title>Node6</title>
<g id="a_node6"><a xlink:title=" ">
<polygon fill="white" stroke="#bfbfbf" points="3.02,-785 3.02,-842 50.02,-842 50.02,-785 3.02,-785"/>
<text text-anchor="middle" x="26.52" y="-830" font-family="Helvetica,sans-Serif" font-size="10.00">Socket</text>
<polyline fill="none" stroke="#bfbfbf" points="3.02,-823 50.02,-823 "/>
<text text-anchor="middle" x="26.52" y="-811" font-family="Helvetica,sans-Serif" font-size="10.00"> </text>
<polyline fill="none" stroke="#bfbfbf" points="3.02,-804 50.02,-804 "/>
<text text-anchor="middle" x="26.52" y="-792" font-family="Helvetica,sans-Serif" font-size="10.00"> </text>
</a>
</g>
</g>
<!-- Node6&#45;&gt;Node2 -->
<g id="edge5" class="edge">
<title>Node6&#45;&gt;Node2</title>
<path fill="none" stroke="midnightblue" d="M18.8,-774.99C6.6,-708.86 -13.05,-567.69 14.52,-453 21.33,-424.68 32.95,-395.84 45.92,-369.31"/>
<polygon fill="none" stroke="midnightblue" points="15.38,-775.77 20.68,-784.94 22.26,-774.46 15.38,-775.77"/>
</g>
<!-- Node6&#45;&gt;Node7 -->
<g id="edge8" class="edge">
<title>Node6&#45;&gt;Node7</title>
<path fill="none" stroke="midnightblue" d="M41.57,-775.21C49.06,-756.64 58.6,-733 68.41,-708.68"/>
<polygon fill="none" stroke="midnightblue" points="38.24,-774.11 37.74,-784.7 44.73,-776.73 38.24,-774.11"/>
</g>
<!-- Node7&#45;&gt;Node2 -->
<g id="edge6" class="edge">
<title>Node7&#45;&gt;Node2</title>
<path fill="none" stroke="orange" d="M115.67,-443.29C115.62,-440.51 115.57,-437.74 115.52,-435 115.3,-421.87 115.13,-408.19 114.99,-394.51"/>
<polygon fill="orange" stroke="orange" points="112.17,-443.54 115.87,-453.47 119.17,-443.41 112.17,-443.54"/>
<text text-anchor="start" x="115.52" y="-427" font-family="Helvetica,sans-Serif" font-size="10.00"> &lt; stream::legacy::Socket</text>
<text text-anchor="middle" x="172.52" y="-416" font-family="Helvetica,sans-Serif" font-size="10.00">Connection&lt; SocketT &gt; &gt;</text>
</g>
</g>
</svg>
