<?xml version="1.0" encoding="UTF-8" standalone="no"?>
<!DOCTYPE svg PUBLIC "-//W3C//DTD SVG 1.1//EN"
 "http://www.w3.org/Graphics/SVG/1.1/DTD/svg11.dtd">
<!-- Generated by graphviz version 2.43.0 (0)
 -->
<!-- Title: net::EventLoop::init Pages: 1 -->
<svg width="580pt" height="104pt"
 viewBox="0.00 0.00 580.00 104.00" xmlns="http://www.w3.org/2000/svg" xmlns:xlink="http://www.w3.org/1999/xlink">
<g id="graph0" class="graph" transform="scale(1 1) rotate(0) translate(4 100)">
<title>net::EventLoop::init</title>
<polygon fill="white" stroke="transparent" points="-4,4 -4,-100 576,-100 576,4 -4,4"/>
<!-- Node1 -->
<g id="node1" class="node">
<title>Node1</title>
<g id="a_node1"><a xlink:title=" ">
<polygon fill="#bfbfbf" stroke="black" points="0,-19.5 0,-38.5 101,-38.5 101,-19.5 0,-19.5"/>
<text text-anchor="middle" x="50.5" y="-26.5" font-family="Helvetica,sans-Serif" font-size="10.00">net::EventLoop::init</text>
</a>
</g>
</g>
<!-- Node2 -->
<g id="node2" class="node">
<title>Node2</title>
<g id="a_node2"><a xlink:href="class_logger.html#a9a1cee6606317c7baa7d06fe86916f72" target="_top" xlink:title=" ">
<polygon fill="white" stroke="black" points="170,-38.5 170,-57.5 235,-57.5 235,-38.5 170,-38.5"/>
<text text-anchor="middle" x="202.5" y="-45.5" font-family="Helvetica,sans-Serif" font-size="10.00">Logger::init</text>
</a>
</g>
</g>
<!-- Node1&#45;&gt;Node2 -->
<g id="edge1" class="edge">
<title>Node1&#45;&gt;Node2</title>
<path fill="none" stroke="midnightblue" d="M101.03,-35.27C120.1,-37.69 141.65,-40.42 159.89,-42.73"/>
<polygon fill="midnightblue" stroke="midnightblue" points="159.57,-46.22 169.93,-44 160.45,-39.27 159.57,-46.22"/>
</g>
<!-- Node6 -->
<g id="node6" class="node">
<title>Node6</title>
<g id="a_node6"><a xlink:href="classnet_1_1_event_loop.html#a14629599569baeed2b94108a82ec9a9c" target="_top" xlink:title=" ">
<polygon fill="white" stroke="black" points="137,-0.5 137,-19.5 268,-19.5 268,-0.5 137,-0.5"/>
<text text-anchor="middle" x="202.5" y="-7.5" font-family="Helvetica,sans-Serif" font-size="10.00">net::EventLoop::stoponsig</text>
</a>
</g>
</g>
<!-- Node1&#45;&gt;Node6 -->
<g id="edge5" class="edge">
<title>Node1&#45;&gt;Node6</title>
<path fill="none" stroke="midnightblue" d="M101.03,-22.73C109.25,-21.68 117.93,-20.59 126.61,-19.49"/>
<polygon fill="midnightblue" stroke="midnightblue" points="127.29,-22.93 136.77,-18.2 126.41,-15.98 127.29,-22.93"/>
</g>
<!-- Node3 -->
<g id="node3" class="node">
<title>Node3</title>
<g id="a_node3"><a xlink:href="_logger_8cpp.html#aa28d3c19ad62ea5c21a37c9bc4b129da" target="_top" xlink:title=" ">
<polygon fill="white" stroke="black" points="316,-76.5 316,-95.5 399,-95.5 399,-76.5 316,-76.5"/>
<text text-anchor="middle" x="357.5" y="-83.5" font-family="Helvetica,sans-Serif" font-size="10.00">getTickCounter</text>
</a>
</g>
</g>
<!-- Node2&#45;&gt;Node3 -->
<g id="edge2" class="edge">
<title>Node2&#45;&gt;Node3</title>
<path fill="none" stroke="midnightblue" d="M235.2,-55.87C256.26,-61.1 284.32,-68.07 308.14,-73.99"/>
<polygon fill="midnightblue" stroke="midnightblue" points="307.51,-77.44 318.06,-76.45 309.2,-70.65 307.51,-77.44"/>
</g>
<!-- Node5 -->
<g id="node5" class="node">
<title>Node5</title>
<g id="a_node5"><a xlink:href="class_logger.html#a4099b1ab1b90f7f041e8edec6b8debf2" target="_top" xlink:title=" ">
<polygon fill="white" stroke="black" points="313,-38.5 313,-57.5 402,-57.5 402,-38.5 313,-38.5"/>
<text text-anchor="middle" x="357.5" y="-45.5" font-family="Helvetica,sans-Serif" font-size="10.00">Logger::setLevel</text>
</a>
</g>
</g>
<!-- Node2&#45;&gt;Node5 -->
<g id="edge4" class="edge">
<title>Node2&#45;&gt;Node5</title>
<path fill="none" stroke="midnightblue" d="M235.2,-48C254.71,-48 280.22,-48 302.8,-48"/>
<polygon fill="midnightblue" stroke="midnightblue" points="302.95,-51.5 312.95,-48 302.95,-44.5 302.95,-51.5"/>
</g>
<!-- Node4 -->
<g id="node4" class="node">
<title>Node4</title>
<g id="a_node4"><a xlink:href="classnet_1_1_event_loop.html#a6d8bfd6fa03bb6bf423035ab190657ef" target="_top" xlink:title=" ">
<polygon fill="white" stroke="black" points="447,-76.5 447,-95.5 572,-95.5 572,-76.5 447,-76.5"/>
<text text-anchor="middle" x="509.5" y="-83.5" font-family="Helvetica,sans-Serif" font-size="10.00">net::EventLoop::instance</text>
</a>
</g>
</g>
<!-- Node3&#45;&gt;Node4 -->
<g id="edge3" class="edge">
<title>Node3&#45;&gt;Node4</title>
<path fill="none" stroke="midnightblue" d="M399.09,-86C410.66,-86 423.63,-86 436.48,-86"/>
<polygon fill="midnightblue" stroke="midnightblue" points="436.73,-89.5 446.73,-86 436.73,-82.5 436.73,-89.5"/>
</g>
<!-- Node7 -->
<g id="node7" class="node">
<title>Node7</title>
<g id="a_node7"><a xlink:href="classnet_1_1_event_loop.html#a9e6b6ee96dc68dd5ed0bfb28b2b29f6d" target="_top" xlink:title=" ">
<polygon fill="white" stroke="black" points="304,-0.5 304,-19.5 411,-19.5 411,-0.5 304,-0.5"/>
<text text-anchor="middle" x="357.5" y="-7.5" font-family="Helvetica,sans-Serif" font-size="10.00">net::EventLoop::stop</text>
</a>
</g>
</g>
<!-- Node6&#45;&gt;Node7 -->
<g id="edge6" class="edge">
<title>Node6&#45;&gt;Node7</title>
<path fill="none" stroke="midnightblue" d="M268.39,-10C276.63,-10 285.06,-10 293.28,-10"/>
<polygon fill="midnightblue" stroke="midnightblue" points="293.55,-13.5 303.55,-10 293.55,-6.5 293.55,-13.5"/>
</g>
</g>
</svg>
