<?xml version="1.0" encoding="UTF-8" standalone="no"?>
<!DOCTYPE svg PUBLIC "-//W3C//DTD SVG 1.1//EN"
 "http://www.w3.org/Graphics/SVG/1.1/DTD/svg11.dtd">
<!-- Generated by graphviz version 2.43.0 (0)
 -->
<!-- Title: net::TimerEventDispatcher::remove Pages: 1 -->
<svg width="772pt" height="134pt"
 viewBox="0.00 0.00 772.00 134.00" xmlns="http://www.w3.org/2000/svg" xmlns:xlink="http://www.w3.org/1999/xlink">
<g id="graph0" class="graph" transform="scale(1 1) rotate(0) translate(4 130)">
<title>net::TimerEventDispatcher::remove</title>
<polygon fill="white" stroke="transparent" points="-4,4 -4,-130 768,-130 768,4 -4,4"/>
<!-- Node1 -->
<g id="node1" class="node">
<title>Node1</title>
<g id="a_node1"><a xlink:title=" ">
<polygon fill="#bfbfbf" stroke="black" points="630,-24.5 630,-54.5 764,-54.5 764,-24.5 630,-24.5"/>
<text text-anchor="start" x="638" y="-42.5" font-family="Helvetica,sans-Serif" font-size="10.00">net::TimerEventDispatcher</text>
<text text-anchor="middle" x="697" y="-31.5" font-family="Helvetica,sans-Serif" font-size="10.00">::remove</text>
</a>
</g>
</g>
<!-- Node2 -->
<g id="node2" class="node">
<title>Node2</title>
<g id="a_node2"><a xlink:href="classnet_1_1timer_1_1_timer.html#ae6fe55d757972df01126c19baed3f838" target="_top" xlink:title=" ">
<polygon fill="white" stroke="black" points="479.5,-49.5 479.5,-79.5 574.5,-79.5 574.5,-49.5 479.5,-49.5"/>
<text text-anchor="start" x="487.5" y="-67.5" font-family="Helvetica,sans-Serif" font-size="10.00">net::timer::Timer::</text>
<text text-anchor="middle" x="527" y="-56.5" font-family="Helvetica,sans-Serif" font-size="10.00">cancel</text>
</a>
</g>
</g>
<!-- Node1&#45;&gt;Node2 -->
<g id="edge1" class="edge">
<title>Node1&#45;&gt;Node2</title>
<path fill="none" stroke="midnightblue" d="M619.57,-50.87C604.2,-53.16 588.49,-55.5 574.52,-57.58"/>
<polygon fill="midnightblue" stroke="midnightblue" points="620.23,-54.31 629.6,-49.38 619.2,-47.39 620.23,-54.31"/>
</g>
<!-- Node5 -->
<g id="node5" class="node">
<title>Node5</title>
<g id="a_node5"><a xlink:href="classnet_1_1_timer_event_dispatcher.html#ab057c0a06962fe33146a1f8df9ac98b3" target="_top" xlink:title=" ">
<polygon fill="white" stroke="black" points="460,-0.5 460,-30.5 594,-30.5 594,-0.5 460,-0.5"/>
<text text-anchor="start" x="468" y="-18.5" font-family="Helvetica,sans-Serif" font-size="10.00">net::TimerEventDispatcher</text>
<text text-anchor="middle" x="527" y="-7.5" font-family="Helvetica,sans-Serif" font-size="10.00">::cancelAll</text>
</a>
</g>
</g>
<!-- Node1&#45;&gt;Node5 -->
<g id="edge4" class="edge">
<title>Node1&#45;&gt;Node5</title>
<path fill="none" stroke="midnightblue" d="M619.68,-28.6C611.17,-27.38 602.56,-26.15 594.19,-24.96"/>
<polygon fill="midnightblue" stroke="midnightblue" points="619.21,-32.07 629.6,-30.01 620.2,-25.14 619.21,-32.07"/>
</g>
<!-- Node3 -->
<g id="node3" class="node">
<title>Node3</title>
<g id="a_node3"><a xlink:href="classnet_1_1timer_1_1_interval_timer.html#a79eedf7f1ad9a85b9148d944a22af916" target="_top" xlink:title=" ">
<polygon fill="white" stroke="black" points="296.5,-95.5 296.5,-125.5 417.5,-125.5 417.5,-95.5 296.5,-95.5"/>
<text text-anchor="start" x="304.5" y="-113.5" font-family="Helvetica,sans-Serif" font-size="10.00">net::timer::IntervalTimer</text>
<text text-anchor="middle" x="357" y="-102.5" font-family="Helvetica,sans-Serif" font-size="10.00">::dispatch</text>
</a>
</g>
</g>
<!-- Node2&#45;&gt;Node3 -->
<g id="edge2" class="edge">
<title>Node2&#45;&gt;Node3</title>
<path fill="none" stroke="midnightblue" d="M469.31,-80.02C451.09,-85.01 430.95,-90.52 412.87,-95.48"/>
<polygon fill="midnightblue" stroke="midnightblue" points="470.48,-83.33 479.2,-77.31 468.63,-76.58 470.48,-83.33"/>
</g>
<!-- Node4 -->
<g id="node4" class="node">
<title>Node4</title>
<g id="a_node4"><a xlink:href="classnet_1_1timer_1_1_singleshot_timer.html#a9677ab72af238560395a4c12ceb700df" target="_top" xlink:title=" ">
<polygon fill="white" stroke="black" points="290,-46.5 290,-76.5 424,-76.5 424,-46.5 290,-46.5"/>
<text text-anchor="start" x="298" y="-64.5" font-family="Helvetica,sans-Serif" font-size="10.00">net::timer::SingleshotTimer</text>
<text text-anchor="middle" x="357" y="-53.5" font-family="Helvetica,sans-Serif" font-size="10.00">::dispatch</text>
</a>
</g>
</g>
<!-- Node2&#45;&gt;Node4 -->
<g id="edge3" class="edge">
<title>Node2&#45;&gt;Node4</title>
<path fill="none" stroke="midnightblue" d="M468.92,-63.48C454.48,-63.22 438.85,-62.94 424.01,-62.68"/>
<polygon fill="midnightblue" stroke="midnightblue" points="469.14,-66.99 479.2,-63.66 469.27,-59.99 469.14,-66.99"/>
</g>
<!-- Node6 -->
<g id="node6" class="node">
<title>Node6</title>
<g id="a_node6"><a xlink:href="classnet_1_1_event_loop.html#a7465cce1b49c9ebbb1b2676643ca676d" target="_top" xlink:title=" ">
<polygon fill="white" stroke="black" points="303,-6 303,-25 411,-25 411,-6 303,-6"/>
<text text-anchor="middle" x="357" y="-13" font-family="Helvetica,sans-Serif" font-size="10.00">net::EventLoop::start</text>
</a>
</g>
</g>
<!-- Node5&#45;&gt;Node6 -->
<g id="edge5" class="edge">
<title>Node5&#45;&gt;Node6</title>
<path fill="none" stroke="midnightblue" d="M449.35,-15.5C436.47,-15.5 423.36,-15.5 411.25,-15.5"/>
<polygon fill="midnightblue" stroke="midnightblue" points="449.6,-19 459.6,-15.5 449.6,-12 449.6,-19"/>
</g>
<!-- Node7 -->
<g id="node7" class="node">
<title>Node7</title>
<g id="a_node7"><a xlink:href="classnet_1_1_s_node_c.html#ae564742b1a10574c836ae53b7634f4aa" target="_top" xlink:title=" ">
<polygon fill="white" stroke="black" points="155,-6 155,-25 254,-25 254,-6 155,-6"/>
<text text-anchor="middle" x="204.5" y="-13" font-family="Helvetica,sans-Serif" font-size="10.00">net::SNodeC::start</text>
</a>
</g>
</g>
<!-- Node6&#45;&gt;Node7 -->
<g id="edge6" class="edge">
<title>Node6&#45;&gt;Node7</title>
<path fill="none" stroke="midnightblue" d="M292.71,-15.5C279.78,-15.5 266.37,-15.5 254.06,-15.5"/>
<polygon fill="midnightblue" stroke="midnightblue" points="292.94,-19 302.94,-15.5 292.94,-12 292.94,-19"/>
</g>
<!-- Node8 -->
<g id="node8" class="node">
<title>Node8</title>
<g id="a_node8"><a xlink:href="classexpress_1_1_web_app.html#a85d9fab4fae0881f8484e07c58f3157a" target="_top" xlink:title=" ">
<polygon fill="white" stroke="black" points="0,-6 0,-25 119,-25 119,-6 0,-6"/>
<text text-anchor="middle" x="59.5" y="-13" font-family="Helvetica,sans-Serif" font-size="10.00">express::WebApp::start</text>
</a>
</g>
</g>
<!-- Node7&#45;&gt;Node8 -->
<g id="edge7" class="edge">
<title>Node7&#45;&gt;Node8</title>
<path fill="none" stroke="midnightblue" d="M144.61,-15.5C136.23,-15.5 127.6,-15.5 119.22,-15.5"/>
<polygon fill="midnightblue" stroke="midnightblue" points="144.69,-19 154.69,-15.5 144.69,-12 144.69,-19"/>
</g>
</g>
</svg>
