<?xml version="1.0" encoding="UTF-8" standalone="no"?>
<!DOCTYPE svg PUBLIC "-//W3C//DTD SVG 1.1//EN"
 "http://www.w3.org/Graphics/SVG/1.1/DTD/svg11.dtd">
<!-- Generated by graphviz version 2.43.0 (0)
 -->
<!-- Title: net::socket::stream::tls::SocketListener::listen Pages: 1 -->
<svg width="926pt" height="332pt"
 viewBox="0.00 0.00 926.00 331.50" xmlns="http://www.w3.org/2000/svg" xmlns:xlink="http://www.w3.org/1999/xlink">
<g id="graph0" class="graph" transform="scale(1 1) rotate(0) translate(4 327.5)">
<title>net::socket::stream::tls::SocketListener::listen</title>
<polygon fill="white" stroke="transparent" points="-4,4 -4,-327.5 922,-327.5 922,4 -4,4"/>
<!-- Node1 -->
<g id="node1" class="node">
<title>Node1</title>
<g id="a_node1"><a xlink:title=" ">
<polygon fill="#bfbfbf" stroke="black" points="0,-194.5 0,-235.5 104,-235.5 104,-194.5 0,-194.5"/>
<text text-anchor="start" x="8" y="-223.5" font-family="Helvetica,sans-Serif" font-size="10.00">net::socket::stream</text>
<text text-anchor="start" x="8" y="-212.5" font-family="Helvetica,sans-Serif" font-size="10.00">::tls::SocketListener</text>
<text text-anchor="middle" x="52" y="-201.5" font-family="Helvetica,sans-Serif" font-size="10.00">::listen</text>
</a>
</g>
</g>
<!-- Node2 -->
<g id="node2" class="node">
<title>Node2</title>
<g id="a_node2"><a xlink:href="classnet_1_1socket_1_1stream_1_1_socket_listener.html#aa49e2120be428c40170df2777137e653" target="_top" xlink:title=" ">
<polygon fill="white" stroke="black" points="305.5,-293 305.5,-323 434.5,-323 434.5,-293 305.5,-293"/>
<text text-anchor="start" x="313.5" y="-311" font-family="Helvetica,sans-Serif" font-size="10.00">net::socket::stream</text>
<text text-anchor="middle" x="370" y="-300" font-family="Helvetica,sans-Serif" font-size="10.00">::SocketListener::destruct</text>
</a>
</g>
</g>
<!-- Node1&#45;&gt;Node2 -->
<g id="edge1" class="edge">
<title>Node1&#45;&gt;Node2</title>
<path fill="none" stroke="midnightblue" d="M104.12,-230.05C159.88,-246.46 249.08,-272.71 308.34,-290.15"/>
<polygon fill="midnightblue" stroke="midnightblue" points="307.37,-293.51 317.95,-292.98 309.35,-286.8 307.37,-293.51"/>
</g>
<!-- Node3 -->
<g id="node3" class="node">
<title>Node3</title>
<g id="a_node3"><a xlink:href="classnet_1_1socket_1_1stream_1_1_socket_listener.html#a6c6e16e3207d4cd604005508fde31f25" target="_top" xlink:title=" ">
<polygon fill="white" stroke="black" points="140,-178 140,-208 257,-208 257,-178 140,-178"/>
<text text-anchor="start" x="148" y="-196" font-family="Helvetica,sans-Serif" font-size="10.00">net::socket::stream</text>
<text text-anchor="middle" x="198.5" y="-185" font-family="Helvetica,sans-Serif" font-size="10.00">::SocketListener::listen</text>
</a>
</g>
</g>
<!-- Node1&#45;&gt;Node3 -->
<g id="edge2" class="edge">
<title>Node1&#45;&gt;Node3</title>
<path fill="none" stroke="midnightblue" d="M104.35,-207.18C112.63,-205.92 121.31,-204.6 129.9,-203.29"/>
<polygon fill="midnightblue" stroke="midnightblue" points="130.56,-206.73 139.92,-201.77 129.51,-199.81 130.56,-206.73"/>
</g>
<!-- Node3&#45;&gt;Node2 -->
<g id="edge6" class="edge">
<title>Node3&#45;&gt;Node2</title>
<path fill="none" stroke="midnightblue" d="M211.16,-208.11C227.42,-228.2 258.78,-263.54 293,-284 295.85,-285.7 298.83,-287.3 301.9,-288.79"/>
<polygon fill="midnightblue" stroke="midnightblue" points="300.74,-292.11 311.3,-292.96 303.58,-285.71 300.74,-292.11"/>
</g>
<!-- Node4 -->
<g id="node4" class="node">
<title>Node4</title>
<g id="a_node4"><a xlink:href="classnet_1_1socket_1_1_socket.html#a0963c70139a21e809af1dc8c4c280d85" target="_top" xlink:title=" ">
<polygon fill="white" stroke="black" points="319,-156 319,-186 421,-186 421,-156 319,-156"/>
<text text-anchor="start" x="327" y="-174" font-family="Helvetica,sans-Serif" font-size="10.00">net::socket::Socket</text>
<text text-anchor="middle" x="370" y="-163" font-family="Helvetica,sans-Serif" font-size="10.00">::bind</text>
</a>
</g>
</g>
<!-- Node3&#45;&gt;Node4 -->
<g id="edge3" class="edge">
<title>Node3&#45;&gt;Node4</title>
<path fill="none" stroke="midnightblue" d="M257.36,-185.49C273.88,-183.35 291.92,-181 308.59,-178.84"/>
<polygon fill="midnightblue" stroke="midnightblue" points="309.29,-182.28 318.76,-177.52 308.39,-175.34 309.29,-182.28"/>
</g>
<!-- Node6 -->
<g id="node6" class="node">
<title>Node6</title>
<g id="a_node6"><a xlink:href="classnet_1_1_descriptor.html#a70ccc1e4f6af5cda015bd319f9a90096" target="_top" xlink:title=" ">
<polygon fill="white" stroke="black" points="488,-205.5 488,-224.5 600,-224.5 600,-205.5 488,-205.5"/>
<text text-anchor="middle" x="544" y="-212.5" font-family="Helvetica,sans-Serif" font-size="10.00">net::Descriptor::getFd</text>
</a>
</g>
</g>
<!-- Node3&#45;&gt;Node6 -->
<g id="edge13" class="edge">
<title>Node3&#45;&gt;Node6</title>
<path fill="none" stroke="midnightblue" d="M257.38,-196.71C318.24,-200.6 413.81,-206.73 477.41,-210.8"/>
<polygon fill="midnightblue" stroke="midnightblue" points="477.52,-214.31 487.73,-211.46 477.97,-207.33 477.52,-214.31"/>
</g>
<!-- Node7 -->
<g id="node7" class="node">
<title>Node7</title>
<g id="a_node7"><a xlink:href="classnet_1_1_event_receiver.html#ab10662afda81b52b3a9ad0bf068e97a7" target="_top" xlink:title=" ">
<polygon fill="white" stroke="black" points="319.5,-107 319.5,-137 420.5,-137 420.5,-107 319.5,-107"/>
<text text-anchor="start" x="327.5" y="-125" font-family="Helvetica,sans-Serif" font-size="10.00">net::EventReceiver</text>
<text text-anchor="middle" x="370" y="-114" font-family="Helvetica,sans-Serif" font-size="10.00">::enable</text>
</a>
</g>
</g>
<!-- Node3&#45;&gt;Node7 -->
<g id="edge7" class="edge">
<title>Node3&#45;&gt;Node7</title>
<path fill="none" stroke="midnightblue" d="M226.78,-177.83C245.15,-167.98 270.11,-155.3 293,-146 298.34,-143.83 303.95,-141.73 309.61,-139.74"/>
<polygon fill="midnightblue" stroke="midnightblue" points="310.79,-143.03 319.13,-136.49 308.53,-136.41 310.79,-143.03"/>
</g>
<!-- Node13 -->
<g id="node13" class="node">
<title>Node13</title>
<g id="a_node13"><a xlink:href="namespacenet_1_1system.html#aab3b0579285d63e2dcf5c23eb55e4e04" target="_top" xlink:title=" ">
<polygon fill="white" stroke="black" points="321,-68.5 321,-87.5 419,-87.5 419,-68.5 321,-68.5"/>
<text text-anchor="middle" x="370" y="-75.5" font-family="Helvetica,sans-Serif" font-size="10.00">net::system::listen</text>
</a>
</g>
</g>
<!-- Node3&#45;&gt;Node13 -->
<g id="edge14" class="edge">
<title>Node3&#45;&gt;Node13</title>
<path fill="none" stroke="midnightblue" d="M209.99,-177.8C225.57,-156.42 256.9,-117.76 293,-97 298.57,-93.8 304.67,-91.13 310.92,-88.91"/>
<polygon fill="midnightblue" stroke="midnightblue" points="312.34,-92.13 320.81,-85.77 310.22,-85.46 312.34,-92.13"/>
</g>
<!-- Node14 -->
<g id="node14" class="node">
<title>Node14</title>
<g id="a_node14"><a xlink:href="classnet_1_1socket_1_1_socket.html#a9c34205743886e0d37cc3bc6ea77891b" target="_top" xlink:title=" ">
<polygon fill="white" stroke="black" points="319,-19 319,-49 421,-49 421,-19 319,-19"/>
<text text-anchor="start" x="327" y="-37" font-family="Helvetica,sans-Serif" font-size="10.00">net::socket::Socket</text>
<text text-anchor="middle" x="370" y="-26" font-family="Helvetica,sans-Serif" font-size="10.00">::open</text>
</a>
</g>
</g>
<!-- Node3&#45;&gt;Node14 -->
<g id="edge15" class="edge">
<title>Node3&#45;&gt;Node14</title>
<path fill="none" stroke="midnightblue" d="M206.12,-177.73C218.88,-150.02 249.53,-91.34 293,-59 298.05,-55.25 303.68,-52.04 309.55,-49.3"/>
<polygon fill="midnightblue" stroke="midnightblue" points="311.03,-52.47 318.9,-45.37 308.32,-46.02 311.03,-52.47"/>
</g>
<!-- Node17 -->
<g id="node17" class="node">
<title>Node17</title>
<g id="a_node17"><a xlink:href="classnet_1_1socket_1_1stream_1_1_socket_listener.html#a7e7dc036c566138eb9bdeed9d7487b22" target="_top" xlink:title=" ">
<polygon fill="white" stroke="black" points="293,-244 293,-274 447,-274 447,-244 293,-244"/>
<text text-anchor="start" x="301" y="-262" font-family="Helvetica,sans-Serif" font-size="10.00">net::socket::stream</text>
<text text-anchor="middle" x="370" y="-251" font-family="Helvetica,sans-Serif" font-size="10.00">::SocketListener::reuseAddress</text>
</a>
</g>
</g>
<!-- Node3&#45;&gt;Node17 -->
<g id="edge18" class="edge">
<title>Node3&#45;&gt;Node17</title>
<path fill="none" stroke="midnightblue" d="M238.39,-208.14C262.93,-217.7 294.83,-230.12 320.95,-240.29"/>
<polygon fill="midnightblue" stroke="midnightblue" points="319.71,-243.56 330.29,-243.93 322.25,-237.04 319.71,-243.56"/>
</g>
<!-- Node5 -->
<g id="node5" class="node">
<title>Node5</title>
<g id="a_node5"><a xlink:href="namespacenet_1_1system.html#ad4c7338a4b60fee8700cf34fa9fed5ab" target="_top" xlink:title=" ">
<polygon fill="white" stroke="black" points="498,-161.5 498,-180.5 590,-180.5 590,-161.5 498,-161.5"/>
<text text-anchor="middle" x="544" y="-168.5" font-family="Helvetica,sans-Serif" font-size="10.00">net::system::bind</text>
</a>
</g>
</g>
<!-- Node4&#45;&gt;Node5 -->
<g id="edge4" class="edge">
<title>Node4&#45;&gt;Node5</title>
<path fill="none" stroke="midnightblue" d="M421.21,-171C442,-171 466.19,-171 487.51,-171"/>
<polygon fill="midnightblue" stroke="midnightblue" points="487.71,-174.5 497.71,-171 487.71,-167.5 487.71,-174.5"/>
</g>
<!-- Node4&#45;&gt;Node6 -->
<g id="edge5" class="edge">
<title>Node4&#45;&gt;Node6</title>
<path fill="none" stroke="midnightblue" d="M421.21,-183.84C444.79,-189.88 472.74,-197.03 495.91,-202.95"/>
<polygon fill="midnightblue" stroke="midnightblue" points="495.3,-206.41 505.86,-205.5 497.04,-199.63 495.3,-206.41"/>
</g>
<!-- Node8 -->
<g id="node8" class="node">
<title>Node8</title>
<g id="a_node8"><a xlink:href="classnet_1_1_event_dispatcher.html#a77886ceee82c6438fa41a1b684ca3f92" target="_top" xlink:title=" ">
<polygon fill="white" stroke="black" points="489.5,-107 489.5,-137 598.5,-137 598.5,-107 489.5,-107"/>
<text text-anchor="start" x="497.5" y="-125" font-family="Helvetica,sans-Serif" font-size="10.00">net::EventDispatcher</text>
<text text-anchor="middle" x="544" y="-114" font-family="Helvetica,sans-Serif" font-size="10.00">::enable</text>
</a>
</g>
</g>
<!-- Node7&#45;&gt;Node8 -->
<g id="edge8" class="edge">
<title>Node7&#45;&gt;Node8</title>
<path fill="none" stroke="midnightblue" d="M420.75,-122C439,-122 459.91,-122 479.23,-122"/>
<polygon fill="midnightblue" stroke="midnightblue" points="479.46,-125.5 489.46,-122 479.46,-118.5 479.46,-125.5"/>
</g>
<!-- Node9 -->
<g id="node9" class="node">
<title>Node9</title>
<g id="a_node9"><a xlink:href="classnet_1_1_event_dispatcher_1_1_descriptor_event_receiver_list.html#a32f8cf5498c4ee8be2130989c544fcb3" target="_top" xlink:title=" ">
<polygon fill="white" stroke="black" points="641,-156.5 641,-197.5 789,-197.5 789,-156.5 641,-156.5"/>
<text text-anchor="start" x="649" y="-185.5" font-family="Helvetica,sans-Serif" font-size="10.00">net::EventDispatcher</text>
<text text-anchor="start" x="649" y="-174.5" font-family="Helvetica,sans-Serif" font-size="10.00">::DescriptorEventReceiverList</text>
<text text-anchor="middle" x="715" y="-163.5" font-family="Helvetica,sans-Serif" font-size="10.00">::contains</text>
</a>
</g>
</g>
<!-- Node8&#45;&gt;Node9 -->
<g id="edge9" class="edge">
<title>Node8&#45;&gt;Node9</title>
<path fill="none" stroke="midnightblue" d="M591.18,-137.03C606.54,-142.03 624.04,-147.72 640.92,-153.22"/>
<polygon fill="midnightblue" stroke="midnightblue" points="640.18,-156.66 650.77,-156.42 642.34,-150 640.18,-156.66"/>
</g>
<!-- Node10 -->
<g id="node10" class="node">
<title>Node10</title>
<g id="a_node10"><a xlink:href="classnet_1_1_event_receiver.html#adac554d5c7fbe4c68b843046869a7190" target="_top" xlink:title=" ">
<polygon fill="white" stroke="black" points="664.5,-107 664.5,-137 765.5,-137 765.5,-107 664.5,-107"/>
<text text-anchor="start" x="672.5" y="-125" font-family="Helvetica,sans-Serif" font-size="10.00">net::EventReceiver</text>
<text text-anchor="middle" x="715" y="-114" font-family="Helvetica,sans-Serif" font-size="10.00">::enabled</text>
</a>
</g>
</g>
<!-- Node8&#45;&gt;Node10 -->
<g id="edge10" class="edge">
<title>Node8&#45;&gt;Node10</title>
<path fill="none" stroke="midnightblue" d="M598.94,-122C616.54,-122 636.19,-122 654.2,-122"/>
<polygon fill="midnightblue" stroke="midnightblue" points="654.3,-125.5 664.3,-122 654.3,-118.5 654.3,-125.5"/>
</g>
<!-- Node12 -->
<g id="node12" class="node">
<title>Node12</title>
<g id="a_node12"><a xlink:href="classnet_1_1_event_receiver.html#ac4e3a75a2849d0d8b1fc4ba2b754c8e3" target="_top" xlink:title=" ">
<polygon fill="white" stroke="black" points="664.5,-58 664.5,-88 765.5,-88 765.5,-58 664.5,-58"/>
<text text-anchor="start" x="672.5" y="-76" font-family="Helvetica,sans-Serif" font-size="10.00">net::EventReceiver</text>
<text text-anchor="middle" x="715" y="-65" font-family="Helvetica,sans-Serif" font-size="10.00">::isEnabled</text>
</a>
</g>
</g>
<!-- Node8&#45;&gt;Node12 -->
<g id="edge12" class="edge">
<title>Node8&#45;&gt;Node12</title>
<path fill="none" stroke="midnightblue" d="M597.08,-106.9C615.34,-101.61 635.97,-95.62 654.76,-90.18"/>
<polygon fill="midnightblue" stroke="midnightblue" points="655.77,-93.53 664.4,-87.38 653.82,-86.8 655.77,-93.53"/>
</g>
<!-- Node11 -->
<g id="node11" class="node">
<title>Node11</title>
<g id="a_node11"><a xlink:href="namespacenet_1_1system.html#a14577a3d4ff982622034e2060c35e19b" target="_top" xlink:title=" ">
<polygon fill="white" stroke="black" points="825,-112.5 825,-131.5 918,-131.5 918,-112.5 825,-112.5"/>
<text text-anchor="middle" x="871.5" y="-119.5" font-family="Helvetica,sans-Serif" font-size="10.00">net::system::time</text>
</a>
</g>
</g>
<!-- Node10&#45;&gt;Node11 -->
<g id="edge11" class="edge">
<title>Node10&#45;&gt;Node11</title>
<path fill="none" stroke="midnightblue" d="M765.74,-122C781.29,-122 798.56,-122 814.52,-122"/>
<polygon fill="midnightblue" stroke="midnightblue" points="814.79,-125.5 824.79,-122 814.79,-118.5 814.79,-125.5"/>
</g>
<!-- Node15 -->
<g id="node15" class="node">
<title>Node15</title>
<g id="a_node15"><a xlink:href="classnet_1_1_descriptor.html#a0dfe1354c24136c4d50c21c8138f53dd" target="_top" xlink:title=" ">
<polygon fill="white" stroke="black" points="487,-0.5 487,-19.5 601,-19.5 601,-0.5 487,-0.5"/>
<text text-anchor="middle" x="544" y="-7.5" font-family="Helvetica,sans-Serif" font-size="10.00">net::Descriptor::attach</text>
</a>
</g>
</g>
<!-- Node14&#45;&gt;Node15 -->
<g id="edge16" class="edge">
<title>Node14&#45;&gt;Node15</title>
<path fill="none" stroke="midnightblue" d="M421.21,-26.99C438.61,-24.57 458.4,-21.81 476.88,-19.23"/>
<polygon fill="midnightblue" stroke="midnightblue" points="477.57,-22.66 486.99,-17.81 476.61,-15.73 477.57,-22.66"/>
</g>
<!-- Node16 -->
<g id="node16" class="node">
<title>Node16</title>
<g id="a_node16"><a xlink:href="classnet_1_1socket_1_1_socket.html#a4e4cd3dbedb5348efdb2fddf09526657" target="_top" xlink:title=" ">
<polygon fill="white" stroke="black" points="493,-39 493,-69 595,-69 595,-39 493,-39"/>
<text text-anchor="start" x="501" y="-57" font-family="Helvetica,sans-Serif" font-size="10.00">net::socket::Socket</text>
<text text-anchor="middle" x="544" y="-46" font-family="Helvetica,sans-Serif" font-size="10.00">::create</text>
</a>
</g>
</g>
<!-- Node14&#45;&gt;Node16 -->
<g id="edge17" class="edge">
<title>Node14&#45;&gt;Node16</title>
<path fill="none" stroke="midnightblue" d="M421.21,-39.84C440.47,-42.08 462.64,-44.66 482.74,-46.99"/>
<polygon fill="midnightblue" stroke="midnightblue" points="482.39,-50.48 492.73,-48.15 483.2,-43.52 482.39,-50.48"/>
</g>
<!-- Node17&#45;&gt;Node6 -->
<g id="edge19" class="edge">
<title>Node17&#45;&gt;Node6</title>
<path fill="none" stroke="midnightblue" d="M429.71,-243.98C451.37,-238.44 475.61,-232.24 496.09,-227"/>
<polygon fill="midnightblue" stroke="midnightblue" points="496.99,-230.38 505.82,-224.51 495.26,-223.6 496.99,-230.38"/>
</g>
<!-- Node18 -->
<g id="node18" class="node">
<title>Node18</title>
<g id="a_node18"><a xlink:href="namespacenet_1_1system.html#aca1d93ce7fa0324e4a51453fc527dc1c" target="_top" xlink:title=" ">
<polygon fill="white" stroke="black" points="483,-249.5 483,-268.5 605,-268.5 605,-249.5 483,-249.5"/>
<text text-anchor="middle" x="544" y="-256.5" font-family="Helvetica,sans-Serif" font-size="10.00">net::system::setsockopt</text>
</a>
</g>
</g>
<!-- Node17&#45;&gt;Node18 -->
<g id="edge20" class="edge">
<title>Node17&#45;&gt;Node18</title>
<path fill="none" stroke="midnightblue" d="M447.19,-259C455.69,-259 464.32,-259 472.73,-259"/>
<polygon fill="midnightblue" stroke="midnightblue" points="472.87,-262.5 482.87,-259 472.87,-255.5 472.87,-262.5"/>
</g>
</g>
</svg>
