<?xml version="1.0" encoding="UTF-8" standalone="no"?>
<!DOCTYPE svg PUBLIC "-//W3C//DTD SVG 1.1//EN"
 "http://www.w3.org/Graphics/SVG/1.1/DTD/svg11.dtd">
<!-- Generated by graphviz version 2.43.0 (0)
 -->
<!-- Title: net::ReadEventReceiver::disable Pages: 1 -->
<svg width="546pt" height="352pt"
 viewBox="0.00 0.00 546.00 351.50" xmlns="http://www.w3.org/2000/svg" xmlns:xlink="http://www.w3.org/1999/xlink">
<g id="graph0" class="graph" transform="scale(1 1) rotate(0) translate(4 347.5)">
<title>net::ReadEventReceiver::disable</title>
<polygon fill="white" stroke="transparent" points="-4,4 -4,-347.5 542,-347.5 542,4 -4,4"/>
<!-- Node1 -->
<g id="node1" class="node">
<title>Node1</title>
<g id="a_node1"><a xlink:title=" ">
<polygon fill="#bfbfbf" stroke="black" points="414,-143.5 414,-173.5 538,-173.5 538,-143.5 414,-143.5"/>
<text text-anchor="start" x="422" y="-161.5" font-family="Helvetica,sans-Serif" font-size="10.00">net::ReadEventReceiver</text>
<text text-anchor="middle" x="476" y="-150.5" font-family="Helvetica,sans-Serif" font-size="10.00">::disable</text>
</a>
</g>
</g>
<!-- Node2 -->
<g id="node2" class="node">
<title>Node2</title>
<g id="a_node2"><a xlink:href="classnet_1_1socket_1_1stream_1_1_socket_connection.html#a96cb510c89728888ae146c055ef1b05d" target="_top" xlink:title=" ">
<polygon fill="white" stroke="black" points="162,-280 162,-343 378,-343 378,-280 162,-280"/>
<text text-anchor="start" x="170" y="-331" font-family="Helvetica,sans-Serif" font-size="10.00">net::socket::stream</text>
<text text-anchor="start" x="170" y="-320" font-family="Helvetica,sans-Serif" font-size="10.00">::SocketConnection&lt;</text>
<text text-anchor="start" x="170" y="-309" font-family="Helvetica,sans-Serif" font-size="10.00"> legacy::SocketReader</text>
<text text-anchor="start" x="170" y="-298" font-family="Helvetica,sans-Serif" font-size="10.00">&lt; SocketT &gt;, legacy::SocketWriter</text>
<text text-anchor="middle" x="270" y="-287" font-family="Helvetica,sans-Serif" font-size="10.00">&lt; SocketT &gt;, SocketT::SocketAddress &gt;::end</text>
</a>
</g>
</g>
<!-- Node1&#45;&gt;Node2 -->
<g id="edge1" class="edge">
<title>Node1&#45;&gt;Node2</title>
<path fill="none" stroke="midnightblue" d="M458.77,-181.6C441.15,-205.27 411.07,-241.88 378,-265.5 370.68,-270.73 362.67,-275.53 354.43,-279.9"/>
<polygon fill="midnightblue" stroke="midnightblue" points="461.61,-183.64 464.68,-173.5 455.95,-179.52 461.61,-183.64"/>
</g>
<!-- Node3 -->
<g id="node3" class="node">
<title>Node3</title>
<g id="a_node3"><a xlink:href="classnet_1_1socket_1_1stream_1_1tls_1_1_socket_reader.html#a2d1afe1a95aa96b9a3c442ce601af849" target="_top" xlink:title=" ">
<polygon fill="white" stroke="black" points="0,-173.5 0,-203.5 126,-203.5 126,-173.5 0,-173.5"/>
<text text-anchor="start" x="8" y="-191.5" font-family="Helvetica,sans-Serif" font-size="10.00">net::socket::stream</text>
<text text-anchor="middle" x="63" y="-180.5" font-family="Helvetica,sans-Serif" font-size="10.00">::tls::SocketReader::read</text>
</a>
</g>
</g>
<!-- Node1&#45;&gt;Node3 -->
<g id="edge2" class="edge">
<title>Node1&#45;&gt;Node3</title>
<path fill="none" stroke="midnightblue" d="M454.23,-180.96C436.09,-198.79 408.02,-222.35 378,-232.5 287.05,-263.23 255.87,-252.61 162,-232.5 136.1,-226.95 108.78,-214.02 89.59,-203.61"/>
<polygon fill="midnightblue" stroke="midnightblue" points="456.83,-183.3 461.37,-173.72 451.85,-178.38 456.83,-183.3"/>
</g>
<!-- Node4 -->
<g id="node4" class="node">
<title>Node4</title>
<g id="a_node4"><a xlink:href="classnet_1_1socket_1_1stream_1_1_socket_connector.html#adff3d2097b204caf011c1e9536482d13" target="_top" xlink:title=" ">
<polygon fill="white" stroke="black" points="195.5,-160 195.5,-223 344.5,-223 344.5,-160 195.5,-160"/>
<text text-anchor="start" x="203.5" y="-211" font-family="Helvetica,sans-Serif" font-size="10.00">net::socket::stream</text>
<text text-anchor="start" x="203.5" y="-200" font-family="Helvetica,sans-Serif" font-size="10.00">::SocketConnector&lt; net</text>
<text text-anchor="start" x="203.5" y="-189" font-family="Helvetica,sans-Serif" font-size="10.00">::socket::stream::tls</text>
<text text-anchor="start" x="203.5" y="-178" font-family="Helvetica,sans-Serif" font-size="10.00">::SocketConnection&lt; SocketT</text>
<text text-anchor="middle" x="270" y="-167" font-family="Helvetica,sans-Serif" font-size="10.00"> &gt; &gt;::readEvent</text>
</a>
</g>
</g>
<!-- Node1&#45;&gt;Node4 -->
<g id="edge3" class="edge">
<title>Node1&#45;&gt;Node4</title>
<path fill="none" stroke="midnightblue" d="M403.68,-170.04C384.61,-173.12 363.97,-176.46 344.77,-179.57"/>
<polygon fill="midnightblue" stroke="midnightblue" points="404.48,-173.45 413.79,-168.4 403.36,-166.54 404.48,-173.45"/>
</g>
<!-- Node5 -->
<g id="node5" class="node">
<title>Node5</title>
<g id="a_node5"><a xlink:href="classnet_1_1socket_1_1stream_1_1_socket_reader.html#ab61867e53c7aeaf9c51cfaa19ddd060b" target="_top" xlink:title=" ">
<polygon fill="white" stroke="black" points="202.5,-110.5 202.5,-140.5 337.5,-140.5 337.5,-110.5 202.5,-110.5"/>
<text text-anchor="start" x="210.5" y="-128.5" font-family="Helvetica,sans-Serif" font-size="10.00">net::socket::stream</text>
<text text-anchor="middle" x="270" y="-117.5" font-family="Helvetica,sans-Serif" font-size="10.00">::SocketReader::readEvent</text>
</a>
</g>
</g>
<!-- Node1&#45;&gt;Node5 -->
<g id="edge4" class="edge">
<title>Node1&#45;&gt;Node5</title>
<path fill="none" stroke="midnightblue" d="M403.79,-146.98C382.38,-143.52 358.98,-139.73 337.86,-136.32"/>
<polygon fill="midnightblue" stroke="midnightblue" points="403.36,-150.46 413.79,-148.6 404.48,-143.55 403.36,-150.46"/>
</g>
<!-- Node6 -->
<g id="node6" class="node">
<title>Node6</title>
<g id="a_node6"><a xlink:href="classnet_1_1socket_1_1stream_1_1tls_1_1_socket_writer.html#a575092baf77eee53e0f52525230d01d8" target="_top" xlink:title=" ">
<polygon fill="white" stroke="black" points="219.5,-50 219.5,-91 320.5,-91 320.5,-50 219.5,-50"/>
<text text-anchor="start" x="227.5" y="-79" font-family="Helvetica,sans-Serif" font-size="10.00">net::socket::stream</text>
<text text-anchor="start" x="227.5" y="-68" font-family="Helvetica,sans-Serif" font-size="10.00">::tls::SocketWriter</text>
<text text-anchor="middle" x="270" y="-57" font-family="Helvetica,sans-Serif" font-size="10.00">::write</text>
</a>
</g>
</g>
<!-- Node1&#45;&gt;Node6 -->
<g id="edge6" class="edge">
<title>Node1&#45;&gt;Node6</title>
<path fill="none" stroke="midnightblue" d="M444.48,-137.9C425.88,-126.03 401.28,-111.53 378,-101.5 359.79,-93.66 339.01,-87.13 320.64,-82.11"/>
<polygon fill="midnightblue" stroke="midnightblue" points="442.81,-140.99 453.1,-143.49 446.61,-135.11 442.81,-140.99"/>
</g>
<!-- Node7 -->
<g id="node7" class="node">
<title>Node7</title>
<g id="a_node7"><a xlink:href="classnet_1_1socket_1_1stream_1_1_socket_reader.html#a82f6d53e477529bcb2d67a6f095d5512" target="_top" xlink:title=" ">
<polygon fill="white" stroke="black" points="190.5,-0.5 190.5,-30.5 349.5,-30.5 349.5,-0.5 190.5,-0.5"/>
<text text-anchor="start" x="198.5" y="-18.5" font-family="Helvetica,sans-Serif" font-size="10.00">net::socket::stream</text>
<text text-anchor="middle" x="270" y="-7.5" font-family="Helvetica,sans-Serif" font-size="10.00">::SocketReader::~SocketReader</text>
</a>
</g>
</g>
<!-- Node1&#45;&gt;Node7 -->
<g id="edge7" class="edge">
<title>Node1&#45;&gt;Node7</title>
<path fill="none" stroke="midnightblue" d="M461.7,-134.24C445.53,-107.11 415.68,-63.92 378,-40.5 369.33,-35.11 359.61,-30.88 349.66,-27.57"/>
<polygon fill="midnightblue" stroke="midnightblue" points="458.8,-136.21 466.84,-143.11 464.85,-132.7 458.8,-136.21"/>
</g>
<!-- Node5&#45;&gt;Node3 -->
<g id="edge5" class="edge">
<title>Node5&#45;&gt;Node3</title>
<path fill="none" stroke="midnightblue" d="M192.55,-141.98C182.22,-144.61 171.81,-147.47 162,-150.5 140.9,-157.02 117.86,-165.87 99.42,-173.38"/>
<polygon fill="midnightblue" stroke="midnightblue" points="193.54,-145.34 202.4,-139.53 191.85,-138.55 193.54,-145.34"/>
</g>
</g>
</svg>
