<?xml version="1.0" encoding="UTF-8" standalone="no"?>
<!DOCTYPE svg PUBLIC "-//W3C//DTD SVG 1.1//EN"
 "http://www.w3.org/Graphics/SVG/1.1/DTD/svg11.dtd">
<!-- Generated by graphviz version 2.43.0 (0)
 -->
<!-- Title: net::socket::stream::tls::SocketWriter&lt; SocketT &gt; Pages: 1 -->
<svg width="217pt" height="1400pt"
 viewBox="0.00 0.00 216.50 1400.00" xmlns="http://www.w3.org/2000/svg" xmlns:xlink="http://www.w3.org/1999/xlink">
<g id="graph0" class="graph" transform="scale(1 1) rotate(0) translate(4 1396)">
<title>net::socket::stream::tls::SocketWriter&lt; SocketT &gt;</title>
<polygon fill="white" stroke="transparent" points="-4,4 -4,-1396 212.5,-1396 212.5,4 -4,4"/>
<!-- Node1 -->
<g id="node1" class="node">
<title>Node1</title>
<g id="a_node1"><a xlink:title=" ">
<polygon fill="#bfbfbf" stroke="black" points="64,-485.5 64,-586.5 165,-586.5 165,-485.5 64,-485.5"/>
<text text-anchor="start" x="72" y="-574.5" font-family="Helvetica,sans-Serif" font-size="10.00">net::socket::stream</text>
<text text-anchor="start" x="72" y="-563.5" font-family="Helvetica,sans-Serif" font-size="10.00">::tls::SocketWriter</text>
<text text-anchor="middle" x="114.5" y="-552.5" font-family="Helvetica,sans-Serif" font-size="10.00">&lt; SocketT &gt;</text>
<polyline fill="none" stroke="black" points="64,-545.5 165,-545.5 "/>
<text text-anchor="start" x="72" y="-533.5" font-family="Helvetica,sans-Serif" font-size="10.00"># ssl</text>
<text text-anchor="start" x="72" y="-522.5" font-family="Helvetica,sans-Serif" font-size="10.00"># sslErr</text>
<polyline fill="none" stroke="black" points="64,-515.5 165,-515.5 "/>
<text text-anchor="start" x="72" y="-503.5" font-family="Helvetica,sans-Serif" font-size="10.00">&#45; write()</text>
<text text-anchor="start" x="72" y="-492.5" font-family="Helvetica,sans-Serif" font-size="10.00">&#45; getError()</text>
</a>
</g>
</g>
<!-- Node7 -->
<g id="node7" class="node">
<title>Node7</title>
<g id="a_node7"><a xlink:href="classnet_1_1socket_1_1stream_1_1_socket_connection.html" target="_top" xlink:title=" ">
<polygon fill="white" stroke="black" points="20.5,-171.5 20.5,-448.5 208.5,-448.5 208.5,-171.5 20.5,-171.5"/>
<text text-anchor="start" x="28.5" y="-436.5" font-family="Helvetica,sans-Serif" font-size="10.00">SocketConnection&lt; tls</text>
<text text-anchor="start" x="28.5" y="-425.5" font-family="Helvetica,sans-Serif" font-size="10.00">::SocketReader&lt; SocketT</text>
<text text-anchor="start" x="28.5" y="-414.5" font-family="Helvetica,sans-Serif" font-size="10.00"> &gt;, tls::SocketWriter&lt;</text>
<text text-anchor="middle" x="114.5" y="-403.5" font-family="Helvetica,sans-Serif" font-size="10.00"> SocketT &gt;, SocketT::SocketAddress &gt;</text>
<polyline fill="none" stroke="black" points="20.5,-396.5 208.5,-396.5 "/>
<text text-anchor="start" x="28.5" y="-384.5" font-family="Helvetica,sans-Serif" font-size="10.00">&#45; remoteAddress</text>
<text text-anchor="start" x="28.5" y="-373.5" font-family="Helvetica,sans-Serif" font-size="10.00">&#45; localAddress</text>
<text text-anchor="start" x="28.5" y="-362.5" font-family="Helvetica,sans-Serif" font-size="10.00">&#45; onDestruct</text>
<text text-anchor="start" x="28.5" y="-351.5" font-family="Helvetica,sans-Serif" font-size="10.00">&#45; onDisconnect</text>
<text text-anchor="start" x="28.5" y="-340.5" font-family="Helvetica,sans-Serif" font-size="10.00">&#45; isDynamic</text>
<text text-anchor="start" x="28.5" y="-329.5" font-family="Helvetica,sans-Serif" font-size="10.00">&#45; lastAllocAddress</text>
<polyline fill="none" stroke="black" points="20.5,-322.5 208.5,-322.5 "/>
<text text-anchor="start" x="28.5" y="-310.5" font-family="Helvetica,sans-Serif" font-size="10.00">+ operator new()</text>
<text text-anchor="start" x="28.5" y="-299.5" font-family="Helvetica,sans-Serif" font-size="10.00">+ operator delete()</text>
<text text-anchor="start" x="28.5" y="-288.5" font-family="Helvetica,sans-Serif" font-size="10.00">+ SocketConnection()</text>
<text text-anchor="start" x="28.5" y="-277.5" font-family="Helvetica,sans-Serif" font-size="10.00">+ SocketConnection()</text>
<text text-anchor="start" x="28.5" y="-266.5" font-family="Helvetica,sans-Serif" font-size="10.00">+ ~SocketConnection()</text>
<text text-anchor="start" x="28.5" y="-255.5" font-family="Helvetica,sans-Serif" font-size="10.00">+ enqueue()</text>
<text text-anchor="start" x="28.5" y="-244.5" font-family="Helvetica,sans-Serif" font-size="10.00">+ enqueue()</text>
<text text-anchor="start" x="28.5" y="-233.5" font-family="Helvetica,sans-Serif" font-size="10.00">+ close()</text>
<text text-anchor="start" x="28.5" y="-222.5" font-family="Helvetica,sans-Serif" font-size="10.00">+ getRemoteAddress()</text>
<text text-anchor="start" x="28.5" y="-211.5" font-family="Helvetica,sans-Serif" font-size="10.00">+ setRemoteAddress()</text>
<text text-anchor="start" x="28.5" y="-200.5" font-family="Helvetica,sans-Serif" font-size="10.00">+ getLocalAddress()</text>
<text text-anchor="start" x="28.5" y="-189.5" font-family="Helvetica,sans-Serif" font-size="10.00">+ setLocalAddress()</text>
<text text-anchor="start" x="28.5" y="-178.5" font-family="Helvetica,sans-Serif" font-size="10.00">&#45; unobserved()</text>
</a>
</g>
</g>
<!-- Node1&#45;&gt;Node7 -->
<g id="edge6" class="edge">
<title>Node1&#45;&gt;Node7</title>
<path fill="none" stroke="midnightblue" d="M114.5,-475.27C114.5,-466.84 114.5,-457.9 114.5,-448.72"/>
<polygon fill="none" stroke="midnightblue" points="111,-475.29 114.5,-485.29 118,-475.29 111,-475.29"/>
</g>
<!-- Node2 -->
<g id="node2" class="node">
<title>Node2</title>
<g id="a_node2"><a xlink:href="classnet_1_1socket_1_1stream_1_1_socket_writer.html" target="_top" xlink:title=" ">
<polygon fill="white" stroke="black" points="47.5,-623.5 47.5,-779.5 181.5,-779.5 181.5,-623.5 47.5,-623.5"/>
<text text-anchor="start" x="55.5" y="-767.5" font-family="Helvetica,sans-Serif" font-size="10.00">net::socket::stream</text>
<text text-anchor="middle" x="114.5" y="-756.5" font-family="Helvetica,sans-Serif" font-size="10.00">::SocketWriter&lt; SocketT &gt;</text>
<polyline fill="none" stroke="black" points="47.5,-749.5 181.5,-749.5 "/>
<text text-anchor="start" x="55.5" y="-737.5" font-family="Helvetica,sans-Serif" font-size="10.00">&#45; onError</text>
<text text-anchor="start" x="55.5" y="-726.5" font-family="Helvetica,sans-Serif" font-size="10.00">&#45; writeBuffer</text>
<text text-anchor="start" x="55.5" y="-715.5" font-family="Helvetica,sans-Serif" font-size="10.00">&#45; markShutdown</text>
<polyline fill="none" stroke="black" points="47.5,-708.5 181.5,-708.5 "/>
<text text-anchor="start" x="55.5" y="-696.5" font-family="Helvetica,sans-Serif" font-size="10.00"># SocketWriter()</text>
<text text-anchor="start" x="55.5" y="-685.5" font-family="Helvetica,sans-Serif" font-size="10.00"># SocketWriter()</text>
<text text-anchor="start" x="55.5" y="-674.5" font-family="Helvetica,sans-Serif" font-size="10.00"># enqueue()</text>
<text text-anchor="start" x="55.5" y="-663.5" font-family="Helvetica,sans-Serif" font-size="10.00"># shutdown()</text>
<text text-anchor="start" x="55.5" y="-652.5" font-family="Helvetica,sans-Serif" font-size="10.00">&#45; write()</text>
<text text-anchor="start" x="55.5" y="-641.5" font-family="Helvetica,sans-Serif" font-size="10.00">&#45; writeEvent()</text>
<text text-anchor="start" x="55.5" y="-630.5" font-family="Helvetica,sans-Serif" font-size="10.00">&#45; getError()</text>
</a>
</g>
</g>
<!-- Node2&#45;&gt;Node1 -->
<g id="edge1" class="edge">
<title>Node2&#45;&gt;Node1</title>
<path fill="none" stroke="midnightblue" d="M114.5,-612.9C114.5,-603.91 114.5,-595.02 114.5,-586.66"/>
<polygon fill="none" stroke="midnightblue" points="111,-613.06 114.5,-623.06 118,-613.06 111,-613.06"/>
</g>
<!-- Node3 -->
<g id="node3" class="node">
<title>Node3</title>
<g id="a_node3"><a xlink:href="classnet_1_1_write_event_receiver.html" target="_top" xlink:title=" ">
<polygon fill="white" stroke="black" points="0,-816.5 0,-950.5 123,-950.5 123,-816.5 0,-816.5"/>
<text text-anchor="middle" x="61.5" y="-938.5" font-family="Helvetica,sans-Serif" font-size="10.00">net::WriteEventReceiver</text>
<polyline fill="none" stroke="black" points="0,-931.5 123,-931.5 "/>
<text text-anchor="middle" x="61.5" y="-919.5" font-family="Helvetica,sans-Serif" font-size="10.00"> </text>
<polyline fill="none" stroke="black" points="0,-912.5 123,-912.5 "/>
<text text-anchor="start" x="8" y="-900.5" font-family="Helvetica,sans-Serif" font-size="10.00">+ setTimeout()</text>
<text text-anchor="start" x="8" y="-889.5" font-family="Helvetica,sans-Serif" font-size="10.00">+ enable()</text>
<text text-anchor="start" x="8" y="-878.5" font-family="Helvetica,sans-Serif" font-size="10.00">+ disable()</text>
<text text-anchor="start" x="8" y="-867.5" font-family="Helvetica,sans-Serif" font-size="10.00">+ suspend()</text>
<text text-anchor="start" x="8" y="-856.5" font-family="Helvetica,sans-Serif" font-size="10.00">+ resume()</text>
<text text-anchor="start" x="8" y="-845.5" font-family="Helvetica,sans-Serif" font-size="10.00"># WriteEventReceiver()</text>
<text text-anchor="start" x="8" y="-834.5" font-family="Helvetica,sans-Serif" font-size="10.00"># writeEvent()</text>
<text text-anchor="start" x="8" y="-823.5" font-family="Helvetica,sans-Serif" font-size="10.00"># dispatchEvent()</text>
</a>
</g>
</g>
<!-- Node3&#45;&gt;Node2 -->
<g id="edge2" class="edge">
<title>Node3&#45;&gt;Node2</title>
<path fill="none" stroke="midnightblue" d="M83.77,-806.87C86.41,-797.91 89.1,-788.76 91.75,-779.78"/>
<polygon fill="none" stroke="midnightblue" points="80.4,-805.92 80.93,-816.5 87.12,-807.89 80.4,-805.92"/>
</g>
<!-- Node4 -->
<g id="node4" class="node">
<title>Node4</title>
<g id="a_node4"><a xlink:href="classnet_1_1_event_receiver.html" target="_top" xlink:title=" ">
<polygon fill="white" stroke="black" points="11,-987.5 11,-1297.5 112,-1297.5 112,-987.5 11,-987.5"/>
<text text-anchor="middle" x="61.5" y="-1285.5" font-family="Helvetica,sans-Serif" font-size="10.00">net::EventReceiver</text>
<polyline fill="none" stroke="black" points="11,-1278.5 112,-1278.5 "/>
<text text-anchor="start" x="19" y="-1266.5" font-family="Helvetica,sans-Serif" font-size="10.00"># fd</text>
<text text-anchor="start" x="19" y="-1255.5" font-family="Helvetica,sans-Serif" font-size="10.00">&#45; _enabled</text>
<text text-anchor="start" x="19" y="-1244.5" font-family="Helvetica,sans-Serif" font-size="10.00">&#45; _suspended</text>
<text text-anchor="start" x="19" y="-1233.5" font-family="Helvetica,sans-Serif" font-size="10.00">&#45; maxInactivity</text>
<polyline fill="none" stroke="black" points="11,-1226.5 112,-1226.5 "/>
<text text-anchor="start" x="19" y="-1214.5" font-family="Helvetica,sans-Serif" font-size="10.00">+ EventReceiver()</text>
<text text-anchor="start" x="19" y="-1203.5" font-family="Helvetica,sans-Serif" font-size="10.00">+ operator=()</text>
<text text-anchor="start" x="19" y="-1192.5" font-family="Helvetica,sans-Serif" font-size="10.00"># EventReceiver()</text>
<text text-anchor="start" x="19" y="-1181.5" font-family="Helvetica,sans-Serif" font-size="10.00"># ~EventReceiver()</text>
<text text-anchor="start" x="19" y="-1170.5" font-family="Helvetica,sans-Serif" font-size="10.00"># setTimeout()</text>
<text text-anchor="start" x="19" y="-1159.5" font-family="Helvetica,sans-Serif" font-size="10.00"># isEnabled()</text>
<text text-anchor="start" x="19" y="-1148.5" font-family="Helvetica,sans-Serif" font-size="10.00"># isSuspended()</text>
<text text-anchor="start" x="19" y="-1137.5" font-family="Helvetica,sans-Serif" font-size="10.00">&#45; dispatchEvent()</text>
<text text-anchor="start" x="19" y="-1126.5" font-family="Helvetica,sans-Serif" font-size="10.00">&#45; timeout()</text>
<text text-anchor="start" x="19" y="-1115.5" font-family="Helvetica,sans-Serif" font-size="10.00">&#45; enabled()</text>
<text text-anchor="start" x="19" y="-1104.5" font-family="Helvetica,sans-Serif" font-size="10.00">&#45; disabled()</text>
<text text-anchor="start" x="19" y="-1093.5" font-family="Helvetica,sans-Serif" font-size="10.00">&#45; suspended()</text>
<text text-anchor="start" x="19" y="-1082.5" font-family="Helvetica,sans-Serif" font-size="10.00">&#45; resumed()</text>
<text text-anchor="start" x="19" y="-1071.5" font-family="Helvetica,sans-Serif" font-size="10.00">&#45; getTimeout()</text>
<text text-anchor="start" x="19" y="-1060.5" font-family="Helvetica,sans-Serif" font-size="10.00">&#45; getLastTriggered()</text>
<text text-anchor="start" x="19" y="-1049.5" font-family="Helvetica,sans-Serif" font-size="10.00">&#45; triggered()</text>
<text text-anchor="start" x="19" y="-1038.5" font-family="Helvetica,sans-Serif" font-size="10.00">&#45; enable()</text>
<text text-anchor="start" x="19" y="-1027.5" font-family="Helvetica,sans-Serif" font-size="10.00">&#45; disable()</text>
<text text-anchor="start" x="19" y="-1016.5" font-family="Helvetica,sans-Serif" font-size="10.00">&#45; suspend()</text>
<text text-anchor="start" x="19" y="-1005.5" font-family="Helvetica,sans-Serif" font-size="10.00">&#45; resume()</text>
<text text-anchor="start" x="19" y="-994.5" font-family="Helvetica,sans-Serif" font-size="10.00">&#45; unobserved()</text>
</a>
</g>
</g>
<!-- Node4&#45;&gt;Node3 -->
<g id="edge3" class="edge">
<title>Node4&#45;&gt;Node3</title>
<path fill="none" stroke="midnightblue" d="M61.5,-977.16C61.5,-968 61.5,-959.11 61.5,-950.7"/>
<polygon fill="none" stroke="midnightblue" points="58,-977.18 61.5,-987.18 65,-977.18 58,-977.18"/>
</g>
<!-- Node5 -->
<g id="node5" class="node">
<title>Node5</title>
<g id="a_node5"><a xlink:href="classnet_1_1_observation_counter.html" target="_top" xlink:title=" ">
<polygon fill="white" stroke="black" points="0,-1334.5 0,-1391.5 123,-1391.5 123,-1334.5 0,-1334.5"/>
<text text-anchor="middle" x="61.5" y="-1379.5" font-family="Helvetica,sans-Serif" font-size="10.00">net::ObservationCounter</text>
<polyline fill="none" stroke="black" points="0,-1372.5 123,-1372.5 "/>
<text text-anchor="start" x="8" y="-1360.5" font-family="Helvetica,sans-Serif" font-size="10.00"># observationCounter</text>
<polyline fill="none" stroke="black" points="0,-1353.5 123,-1353.5 "/>
<text text-anchor="start" x="8" y="-1341.5" font-family="Helvetica,sans-Serif" font-size="10.00">+ isObserved()</text>
</a>
</g>
</g>
<!-- Node5&#45;&gt;Node4 -->
<g id="edge4" class="edge">
<title>Node5&#45;&gt;Node4</title>
<path fill="none" stroke="midnightblue" d="M61.5,-1324.28C61.5,-1316.21 61.5,-1307.21 61.5,-1297.65"/>
<polygon fill="none" stroke="midnightblue" points="58,-1324.33 61.5,-1334.33 65,-1324.33 58,-1324.33"/>
</g>
<!-- Node6 -->
<g id="node6" class="node">
<title>Node6</title>
<g id="a_node6"><a xlink:title=" ">
<polygon fill="white" stroke="#bfbfbf" points="141,-855 141,-912 194,-912 194,-855 141,-855"/>
<text text-anchor="middle" x="167.5" y="-900" font-family="Helvetica,sans-Serif" font-size="10.00">SocketT</text>
<polyline fill="none" stroke="#bfbfbf" points="141,-893 194,-893 "/>
<text text-anchor="middle" x="167.5" y="-881" font-family="Helvetica,sans-Serif" font-size="10.00"> </text>
<polyline fill="none" stroke="#bfbfbf" points="141,-874 194,-874 "/>
<text text-anchor="middle" x="167.5" y="-862" font-family="Helvetica,sans-Serif" font-size="10.00"> </text>
</a>
</g>
</g>
<!-- Node6&#45;&gt;Node2 -->
<g id="edge5" class="edge">
<title>Node6&#45;&gt;Node2</title>
<path fill="none" stroke="midnightblue" d="M156.47,-845.04C150.89,-826.08 143.89,-802.32 137.22,-779.67"/>
<polygon fill="none" stroke="midnightblue" points="153.15,-846.17 159.33,-854.77 159.87,-844.19 153.15,-846.17"/>
</g>
<!-- Node8 -->
<g id="node8" class="node">
<title>Node8</title>
<g id="a_node8"><a xlink:href="classnet_1_1socket_1_1stream_1_1tls_1_1_socket_connection.html" target="_top" xlink:title=" ">
<polygon fill="white" stroke="black" points="55,-0.5 55,-134.5 174,-134.5 174,-0.5 55,-0.5"/>
<text text-anchor="start" x="63" y="-122.5" font-family="Helvetica,sans-Serif" font-size="10.00">net::socket::stream</text>
<text text-anchor="start" x="63" y="-111.5" font-family="Helvetica,sans-Serif" font-size="10.00">::tls::SocketConnection</text>
<text text-anchor="middle" x="114.5" y="-100.5" font-family="Helvetica,sans-Serif" font-size="10.00">&lt; SocketT &gt;</text>
<polyline fill="none" stroke="black" points="55,-93.5 174,-93.5 "/>
<text text-anchor="start" x="63" y="-81.5" font-family="Helvetica,sans-Serif" font-size="10.00"># ssl</text>
<text text-anchor="start" x="63" y="-70.5" font-family="Helvetica,sans-Serif" font-size="10.00"># sslErr</text>
<polyline fill="none" stroke="black" points="55,-63.5 174,-63.5 "/>
<text text-anchor="start" x="63" y="-51.5" font-family="Helvetica,sans-Serif" font-size="10.00">+ SocketConnection()</text>
<text text-anchor="start" x="63" y="-40.5" font-family="Helvetica,sans-Serif" font-size="10.00">+ getSSL()</text>
<text text-anchor="start" x="63" y="-29.5" font-family="Helvetica,sans-Serif" font-size="10.00"># startSSL()</text>
<text text-anchor="start" x="63" y="-18.5" font-family="Helvetica,sans-Serif" font-size="10.00"># stopSSL()</text>
<text text-anchor="start" x="63" y="-7.5" font-family="Helvetica,sans-Serif" font-size="10.00"># setSSLError()</text>
</a>
</g>
</g>
<!-- Node7&#45;&gt;Node8 -->
<g id="edge7" class="edge">
<title>Node7&#45;&gt;Node8</title>
<path fill="none" stroke="midnightblue" d="M114.5,-160.93C114.5,-151.92 114.5,-143.12 114.5,-134.76"/>
<polygon fill="none" stroke="midnightblue" points="111,-161.19 114.5,-171.19 118,-161.19 111,-161.19"/>
</g>
</g>
</svg>
