<?xml version="1.0" encoding="UTF-8" standalone="no"?>
<!DOCTYPE svg PUBLIC "-//W3C//DTD SVG 1.1//EN"
 "http://www.w3.org/Graphics/SVG/1.1/DTD/svg11.dtd">
<!-- Generated by graphviz version 2.43.0 (0)
 -->
<!-- Title: net::EventLoop::getConnectEventDispatcher Pages: 1 -->
<svg width="505pt" height="227pt"
 viewBox="0.00 0.00 505.00 226.50" xmlns="http://www.w3.org/2000/svg" xmlns:xlink="http://www.w3.org/1999/xlink">
<g id="graph0" class="graph" transform="scale(1 1) rotate(0) translate(4 222.5)">
<title>net::EventLoop::getConnectEventDispatcher</title>
<polygon fill="white" stroke="transparent" points="-4,4 -4,-222.5 501,-222.5 501,4 -4,4"/>
<!-- Node1 -->
<g id="node1" class="node">
<title>Node1</title>
<g id="a_node1"><a xlink:title=" ">
<polygon fill="#bfbfbf" stroke="black" points="358,-73.5 358,-103.5 497,-103.5 497,-73.5 358,-73.5"/>
<text text-anchor="start" x="366" y="-91.5" font-family="Helvetica,sans-Serif" font-size="10.00">net::EventLoop::getConnect</text>
<text text-anchor="middle" x="427.5" y="-80.5" font-family="Helvetica,sans-Serif" font-size="10.00">EventDispatcher</text>
</a>
</g>
</g>
<!-- Node2 -->
<g id="node2" class="node">
<title>Node2</title>
<g id="a_node2"><a xlink:href="classnet_1_1_connect_event_receiver.html#a8b2a4ec3db833c8990be7af55957726b" target="_top" xlink:title=" ">
<polygon fill="white" stroke="black" points="185,-155.5 185,-185.5 322,-185.5 322,-155.5 185,-155.5"/>
<text text-anchor="start" x="193" y="-173.5" font-family="Helvetica,sans-Serif" font-size="10.00">net::ConnectEventReceiver</text>
<text text-anchor="middle" x="253.5" y="-162.5" font-family="Helvetica,sans-Serif" font-size="10.00">::disable</text>
</a>
</g>
</g>
<!-- Node1&#45;&gt;Node2 -->
<g id="edge1" class="edge">
<title>Node1&#45;&gt;Node2</title>
<path fill="none" stroke="midnightblue" d="M385.83,-108C366.5,-117.26 343.07,-128.47 322,-138.5 310.41,-144.02 297.69,-150.06 286.44,-155.38"/>
<polygon fill="midnightblue" stroke="midnightblue" points="387.45,-111.1 394.96,-103.63 384.43,-104.79 387.45,-111.1"/>
</g>
<!-- Node4 -->
<g id="node4" class="node">
<title>Node4</title>
<g id="a_node4"><a xlink:href="classnet_1_1_connect_event_receiver.html#ae998f0efd7c6a8a9e61b27e8ed1b0451" target="_top" xlink:title=" ">
<polygon fill="white" stroke="black" points="185,-98.5 185,-128.5 322,-128.5 322,-98.5 185,-98.5"/>
<text text-anchor="start" x="193" y="-116.5" font-family="Helvetica,sans-Serif" font-size="10.00">net::ConnectEventReceiver</text>
<text text-anchor="middle" x="253.5" y="-105.5" font-family="Helvetica,sans-Serif" font-size="10.00">::enable</text>
</a>
</g>
</g>
<!-- Node1&#45;&gt;Node4 -->
<g id="edge3" class="edge">
<title>Node1&#45;&gt;Node4</title>
<path fill="none" stroke="midnightblue" d="M347.59,-99.97C339.07,-101.21 330.45,-102.46 322.08,-103.68"/>
<polygon fill="midnightblue" stroke="midnightblue" points="348.14,-103.43 357.53,-98.52 347.13,-96.5 348.14,-103.43"/>
</g>
<!-- Node6 -->
<g id="node6" class="node">
<title>Node6</title>
<g id="a_node6"><a xlink:href="classnet_1_1_connect_event_receiver.html#aec4b72af2352c99cfad03271d3315cd7" target="_top" xlink:title=" ">
<polygon fill="white" stroke="black" points="185,-49.5 185,-79.5 322,-79.5 322,-49.5 185,-49.5"/>
<text text-anchor="start" x="193" y="-67.5" font-family="Helvetica,sans-Serif" font-size="10.00">net::ConnectEventReceiver</text>
<text text-anchor="middle" x="253.5" y="-56.5" font-family="Helvetica,sans-Serif" font-size="10.00">::resume</text>
</a>
</g>
</g>
<!-- Node1&#45;&gt;Node6 -->
<g id="edge5" class="edge">
<title>Node1&#45;&gt;Node6</title>
<path fill="none" stroke="midnightblue" d="M347.59,-77.49C339.07,-76.3 330.45,-75.1 322.08,-73.93"/>
<polygon fill="midnightblue" stroke="midnightblue" points="347.14,-80.96 357.53,-78.88 348.11,-74.03 347.14,-80.96"/>
</g>
<!-- Node7 -->
<g id="node7" class="node">
<title>Node7</title>
<g id="a_node7"><a xlink:href="classnet_1_1_connect_event_receiver.html#a5c171075e7a3c573c56a32dc59049514" target="_top" xlink:title=" ">
<polygon fill="white" stroke="black" points="185,-0.5 185,-30.5 322,-30.5 322,-0.5 185,-0.5"/>
<text text-anchor="start" x="193" y="-18.5" font-family="Helvetica,sans-Serif" font-size="10.00">net::ConnectEventReceiver</text>
<text text-anchor="middle" x="253.5" y="-7.5" font-family="Helvetica,sans-Serif" font-size="10.00">::suspend</text>
</a>
</g>
</g>
<!-- Node1&#45;&gt;Node7 -->
<g id="edge6" class="edge">
<title>Node1&#45;&gt;Node7</title>
<path fill="none" stroke="midnightblue" d="M386.13,-69.09C366.87,-60.05 343.4,-49.36 322,-40.5 313.92,-37.15 305.21,-33.77 296.82,-30.61"/>
<polygon fill="midnightblue" stroke="midnightblue" points="384.68,-72.28 395.22,-73.38 387.67,-65.95 384.68,-72.28"/>
</g>
<!-- Node3 -->
<g id="node3" class="node">
<title>Node3</title>
<g id="a_node3"><a xlink:href="classnet_1_1socket_1_1stream_1_1_socket_connector.html#acb928c04763dadc6adcb9c7d711d0348" target="_top" xlink:title=" ">
<polygon fill="white" stroke="black" points="0,-155 0,-218 149,-218 149,-155 0,-155"/>
<text text-anchor="start" x="8" y="-206" font-family="Helvetica,sans-Serif" font-size="10.00">net::socket::stream</text>
<text text-anchor="start" x="8" y="-195" font-family="Helvetica,sans-Serif" font-size="10.00">::SocketConnector&lt; net</text>
<text text-anchor="start" x="8" y="-184" font-family="Helvetica,sans-Serif" font-size="10.00">::socket::stream::tls</text>
<text text-anchor="start" x="8" y="-173" font-family="Helvetica,sans-Serif" font-size="10.00">::SocketConnection&lt; SocketT</text>
<text text-anchor="middle" x="74.5" y="-162" font-family="Helvetica,sans-Serif" font-size="10.00"> &gt; &gt;::connectEvent</text>
</a>
</g>
</g>
<!-- Node2&#45;&gt;Node3 -->
<g id="edge2" class="edge">
<title>Node2&#45;&gt;Node3</title>
<path fill="none" stroke="midnightblue" d="M174.84,-177.52C166.27,-178.3 157.55,-179.08 149.03,-179.85"/>
<polygon fill="midnightblue" stroke="midnightblue" points="175.18,-181 184.83,-176.62 174.55,-174.03 175.18,-181"/>
</g>
<!-- Node5 -->
<g id="node5" class="node">
<title>Node5</title>
<g id="a_node5"><a xlink:href="classnet_1_1socket_1_1stream_1_1_socket_connector.html#ab60d4ae33dd6f52f4bc3fd629bba4ddf" target="_top" xlink:title=" ">
<polygon fill="white" stroke="black" points="0,-73 0,-136 149,-136 149,-73 0,-73"/>
<text text-anchor="start" x="8" y="-124" font-family="Helvetica,sans-Serif" font-size="10.00">net::socket::stream</text>
<text text-anchor="start" x="8" y="-113" font-family="Helvetica,sans-Serif" font-size="10.00">::SocketConnector&lt; net</text>
<text text-anchor="start" x="8" y="-102" font-family="Helvetica,sans-Serif" font-size="10.00">::socket::stream::tls</text>
<text text-anchor="start" x="8" y="-91" font-family="Helvetica,sans-Serif" font-size="10.00">::SocketConnection&lt; SocketT</text>
<text text-anchor="middle" x="74.5" y="-80" font-family="Helvetica,sans-Serif" font-size="10.00"> &gt; &gt;::connect</text>
</a>
</g>
</g>
<!-- Node4&#45;&gt;Node5 -->
<g id="edge4" class="edge">
<title>Node4&#45;&gt;Node5</title>
<path fill="none" stroke="midnightblue" d="M174.56,-109.54C166.08,-109.11 157.46,-108.67 149.03,-108.24"/>
<polygon fill="midnightblue" stroke="midnightblue" points="174.66,-113.05 184.83,-110.06 175.02,-106.06 174.66,-113.05"/>
</g>
</g>
</svg>
