<?xml version="1.0" encoding="UTF-8" standalone="no"?>
<!DOCTYPE svg PUBLIC "-//W3C//DTD SVG 1.1//EN"
 "http://www.w3.org/Graphics/SVG/1.1/DTD/svg11.dtd">
<!-- Generated by graphviz version 2.43.0 (0)
 -->
<!-- Title: net::ExceptionalConditionEventReceiver Pages: 1 -->
<svg width="356pt" height="1093pt"
 viewBox="0.00 0.00 355.50 1093.00" xmlns="http://www.w3.org/2000/svg" xmlns:xlink="http://www.w3.org/1999/xlink">
<g id="graph0" class="graph" transform="scale(1 1) rotate(0) translate(4 1089)">
<title>net::ExceptionalConditionEventReceiver</title>
<polygon fill="white" stroke="transparent" points="-4,4 -4,-1089 351.5,-1089 351.5,4 -4,4"/>
<!-- Node1 -->
<g id="node1" class="node">
<title>Node1</title>
<g id="a_node1"><a xlink:title=" ">
<polygon fill="#bfbfbf" stroke="black" points="0,-0.5 0,-145.5 170,-145.5 170,-0.5 0,-0.5"/>
<text text-anchor="start" x="8" y="-133.5" font-family="Helvetica,sans-Serif" font-size="10.00">net::ExceptionalCondition</text>
<text text-anchor="middle" x="85" y="-122.5" font-family="Helvetica,sans-Serif" font-size="10.00">EventReceiver</text>
<polyline fill="none" stroke="black" points="0,-115.5 170,-115.5 "/>
<text text-anchor="middle" x="85" y="-103.5" font-family="Helvetica,sans-Serif" font-size="10.00"> </text>
<polyline fill="none" stroke="black" points="0,-96.5 170,-96.5 "/>
<text text-anchor="start" x="8" y="-84.5" font-family="Helvetica,sans-Serif" font-size="10.00"># ExceptionalConditionEvent</text>
<text text-anchor="start" x="8" y="-73.5" font-family="Helvetica,sans-Serif" font-size="10.00">Receiver()</text>
<text text-anchor="start" x="8" y="-62.5" font-family="Helvetica,sans-Serif" font-size="10.00"># continueOutOfBandImmediately()</text>
<text text-anchor="start" x="8" y="-51.5" font-family="Helvetica,sans-Serif" font-size="10.00">&#45; outOfBandEvent()</text>
<text text-anchor="start" x="8" y="-40.5" font-family="Helvetica,sans-Serif" font-size="10.00">&#45; outOfBandTimeout()</text>
<text text-anchor="start" x="8" y="-29.5" font-family="Helvetica,sans-Serif" font-size="10.00">&#45; dispatchEvent()</text>
<text text-anchor="start" x="8" y="-18.5" font-family="Helvetica,sans-Serif" font-size="10.00">&#45; timeoutEvent()</text>
<text text-anchor="start" x="8" y="-7.5" font-family="Helvetica,sans-Serif" font-size="10.00">&#45; continueImmediately()</text>
</a>
</g>
</g>
<!-- Node2 -->
<g id="node2" class="node">
<title>Node2</title>
<g id="a_node2"><a xlink:href="classnet_1_1_event_receiver.html" target="_top" xlink:title=" ">
<polygon fill="white" stroke="black" points="25.5,-183.5 25.5,-515.5 144.5,-515.5 144.5,-183.5 25.5,-183.5"/>
<text text-anchor="middle" x="85" y="-503.5" font-family="Helvetica,sans-Serif" font-size="10.00">net::EventReceiver</text>
<polyline fill="none" stroke="black" points="25.5,-496.5 144.5,-496.5 "/>
<text text-anchor="start" x="33.5" y="-484.5" font-family="Helvetica,sans-Serif" font-size="10.00">&#45; fd</text>
<text text-anchor="start" x="33.5" y="-473.5" font-family="Helvetica,sans-Serif" font-size="10.00">&#45; _enabled</text>
<text text-anchor="start" x="33.5" y="-462.5" font-family="Helvetica,sans-Serif" font-size="10.00">&#45; _suspended</text>
<text text-anchor="start" x="33.5" y="-451.5" font-family="Helvetica,sans-Serif" font-size="10.00">&#45; maxInactivity</text>
<text text-anchor="start" x="33.5" y="-440.5" font-family="Helvetica,sans-Serif" font-size="10.00">&#45; initialTimeout</text>
<polyline fill="none" stroke="black" points="25.5,-433.5 144.5,-433.5 "/>
<text text-anchor="start" x="33.5" y="-421.5" font-family="Helvetica,sans-Serif" font-size="10.00">+ enable()</text>
<text text-anchor="start" x="33.5" y="-410.5" font-family="Helvetica,sans-Serif" font-size="10.00">+ disable()</text>
<text text-anchor="start" x="33.5" y="-399.5" font-family="Helvetica,sans-Serif" font-size="10.00">+ suspend()</text>
<text text-anchor="start" x="33.5" y="-388.5" font-family="Helvetica,sans-Serif" font-size="10.00">+ resume()</text>
<text text-anchor="start" x="33.5" y="-377.5" font-family="Helvetica,sans-Serif" font-size="10.00"># EventReceiver()</text>
<text text-anchor="start" x="33.5" y="-366.5" font-family="Helvetica,sans-Serif" font-size="10.00"># ~EventReceiver()</text>
<text text-anchor="start" x="33.5" y="-355.5" font-family="Helvetica,sans-Serif" font-size="10.00"># setTimeout()</text>
<text text-anchor="start" x="33.5" y="-344.5" font-family="Helvetica,sans-Serif" font-size="10.00"># isEnabled()</text>
<text text-anchor="start" x="33.5" y="-333.5" font-family="Helvetica,sans-Serif" font-size="10.00"># isSuspended()</text>
<text text-anchor="start" x="33.5" y="-322.5" font-family="Helvetica,sans-Serif" font-size="10.00">&#45; EventReceiver()</text>
<text text-anchor="start" x="33.5" y="-311.5" font-family="Helvetica,sans-Serif" font-size="10.00">&#45; operator=()</text>
<text text-anchor="start" x="33.5" y="-300.5" font-family="Helvetica,sans-Serif" font-size="10.00">&#45; dispatchEvent()</text>
<text text-anchor="start" x="33.5" y="-289.5" font-family="Helvetica,sans-Serif" font-size="10.00">&#45; timeoutEvent()</text>
<text text-anchor="start" x="33.5" y="-278.5" font-family="Helvetica,sans-Serif" font-size="10.00">&#45; continueImmediately()</text>
<text text-anchor="start" x="33.5" y="-267.5" font-family="Helvetica,sans-Serif" font-size="10.00">&#45; enabled()</text>
<text text-anchor="start" x="33.5" y="-256.5" font-family="Helvetica,sans-Serif" font-size="10.00">&#45; disabled()</text>
<text text-anchor="start" x="33.5" y="-245.5" font-family="Helvetica,sans-Serif" font-size="10.00">&#45; suspended()</text>
<text text-anchor="start" x="33.5" y="-234.5" font-family="Helvetica,sans-Serif" font-size="10.00">&#45; resumed()</text>
<text text-anchor="start" x="33.5" y="-223.5" font-family="Helvetica,sans-Serif" font-size="10.00">&#45; getTimeout()</text>
<text text-anchor="start" x="33.5" y="-212.5" font-family="Helvetica,sans-Serif" font-size="10.00">&#45; getLastTriggered()</text>
<text text-anchor="start" x="33.5" y="-201.5" font-family="Helvetica,sans-Serif" font-size="10.00">&#45; triggered()</text>
<text text-anchor="start" x="33.5" y="-190.5" font-family="Helvetica,sans-Serif" font-size="10.00">&#45; unobserved()</text>
</a>
</g>
</g>
<!-- Node2&#45;&gt;Node1 -->
<g id="edge1" class="edge">
<title>Node2&#45;&gt;Node1</title>
<path fill="none" stroke="midnightblue" d="M85,-173.26C85,-163.73 85,-154.46 85,-145.66"/>
<polygon fill="none" stroke="midnightblue" points="81.5,-173.28 85,-183.28 88.5,-173.28 81.5,-173.28"/>
</g>
<!-- Node3 -->
<g id="node3" class="node">
<title>Node3</title>
<g id="a_node3"><a xlink:href="classnet_1_1_observation_counter.html" target="_top" xlink:title=" ">
<polygon fill="white" stroke="black" points="7.5,-651.5 7.5,-719.5 130.5,-719.5 130.5,-651.5 7.5,-651.5"/>
<text text-anchor="middle" x="69" y="-707.5" font-family="Helvetica,sans-Serif" font-size="10.00">net::ObservationCounter</text>
<polyline fill="none" stroke="black" points="7.5,-700.5 130.5,-700.5 "/>
<text text-anchor="start" x="15.5" y="-688.5" font-family="Helvetica,sans-Serif" font-size="10.00"># observationCounter</text>
<text text-anchor="start" x="15.5" y="-677.5" font-family="Helvetica,sans-Serif" font-size="10.00"># lastTriggered</text>
<polyline fill="none" stroke="black" points="7.5,-670.5 130.5,-670.5 "/>
<text text-anchor="start" x="15.5" y="-658.5" font-family="Helvetica,sans-Serif" font-size="10.00">+ isObserved()</text>
</a>
</g>
</g>
<!-- Node3&#45;&gt;Node2 -->
<g id="edge2" class="edge">
<title>Node3&#45;&gt;Node2</title>
<path fill="none" stroke="midnightblue" d="M71.07,-641.24C72.63,-608.83 74.86,-562.24 77.08,-515.82"/>
<polygon fill="none" stroke="midnightblue" points="67.58,-641.1 70.59,-651.25 74.57,-641.43 67.58,-641.1"/>
</g>
<!-- Node4 -->
<g id="node4" class="node">
<title>Node4</title>
<g id="a_node4"><a xlink:href="classnet_1_1_event_dispatcher.html" target="_top" xlink:title=" ">
<polygon fill="white" stroke="black" points="148.5,-563.5 148.5,-807.5 291.5,-807.5 291.5,-563.5 148.5,-563.5"/>
<text text-anchor="middle" x="220" y="-795.5" font-family="Helvetica,sans-Serif" font-size="10.00">net::EventDispatcher</text>
<polyline fill="none" stroke="black" points="148.5,-788.5 291.5,-788.5 "/>
<text text-anchor="start" x="156.5" y="-776.5" font-family="Helvetica,sans-Serif" font-size="10.00">&#45; enabledEventReceiver</text>
<text text-anchor="start" x="156.5" y="-765.5" font-family="Helvetica,sans-Serif" font-size="10.00">&#45; observedEventReceiver</text>
<text text-anchor="start" x="156.5" y="-754.5" font-family="Helvetica,sans-Serif" font-size="10.00">&#45; disabledEventReceiver</text>
<text text-anchor="start" x="156.5" y="-743.5" font-family="Helvetica,sans-Serif" font-size="10.00">&#45; eventCounter</text>
<polyline fill="none" stroke="black" points="148.5,-736.5 291.5,-736.5 "/>
<text text-anchor="start" x="156.5" y="-724.5" font-family="Helvetica,sans-Serif" font-size="10.00">+ EventDispatcher()</text>
<text text-anchor="start" x="156.5" y="-713.5" font-family="Helvetica,sans-Serif" font-size="10.00">+ enable()</text>
<text text-anchor="start" x="156.5" y="-702.5" font-family="Helvetica,sans-Serif" font-size="10.00">+ disable()</text>
<text text-anchor="start" x="156.5" y="-691.5" font-family="Helvetica,sans-Serif" font-size="10.00">+ suspend()</text>
<text text-anchor="start" x="156.5" y="-680.5" font-family="Helvetica,sans-Serif" font-size="10.00">+ resume()</text>
<text text-anchor="start" x="156.5" y="-669.5" font-family="Helvetica,sans-Serif" font-size="10.00">+ getEventCounter()</text>
<text text-anchor="start" x="156.5" y="-658.5" font-family="Helvetica,sans-Serif" font-size="10.00">&#45; EventDispatcher()</text>
<text text-anchor="start" x="156.5" y="-647.5" font-family="Helvetica,sans-Serif" font-size="10.00">&#45; operator=()</text>
<text text-anchor="start" x="156.5" y="-636.5" font-family="Helvetica,sans-Serif" font-size="10.00">&#45; getMaxFd()</text>
<text text-anchor="start" x="156.5" y="-625.5" font-family="Helvetica,sans-Serif" font-size="10.00">&#45; getFdSet()</text>
<text text-anchor="start" x="156.5" y="-614.5" font-family="Helvetica,sans-Serif" font-size="10.00">&#45; dispatchActiveEvents()</text>
<text text-anchor="start" x="156.5" y="-603.5" font-family="Helvetica,sans-Serif" font-size="10.00">&#45; observeEnabledEvents()</text>
<text text-anchor="start" x="156.5" y="-592.5" font-family="Helvetica,sans-Serif" font-size="10.00">&#45; unobserveDisabledEvents()</text>
<text text-anchor="start" x="156.5" y="-581.5" font-family="Helvetica,sans-Serif" font-size="10.00">&#45; releaseUnobservedEvents()</text>
<text text-anchor="start" x="156.5" y="-570.5" font-family="Helvetica,sans-Serif" font-size="10.00">&#45; disableObservedEvents()</text>
</a>
</g>
</g>
<!-- Node4&#45;&gt;Node2 -->
<g id="edge3" class="edge">
<title>Node4&#45;&gt;Node2</title>
<path fill="none" stroke="#404040" d="M171.07,-563.45C163.95,-545.82 156.52,-527.46 149.15,-509.22"/>
<polygon fill="none" stroke="#404040" points="149.07,-509.02 143.12,-504.96 144.58,-497.9 150.53,-501.96 149.07,-509.02"/>
<text text-anchor="middle" x="221" y="-537" font-family="Helvetica,sans-Serif" font-size="10.00"> &#45;descriptorEventDispatcher</text>
</g>
<!-- Node5 -->
<g id="node5" class="node">
<title>Node5</title>
<g id="a_node5"><a xlink:href="classnet_1_1_event_dispatcher_1_1_descriptor_event_receiver_list.html" target="_top" xlink:title=" ">
<polygon fill="white" stroke="black" points="72,-888.5 72,-956.5 220,-956.5 220,-888.5 72,-888.5"/>
<text text-anchor="start" x="80" y="-944.5" font-family="Helvetica,sans-Serif" font-size="10.00">net::EventDispatcher</text>
<text text-anchor="middle" x="146" y="-933.5" font-family="Helvetica,sans-Serif" font-size="10.00">::DescriptorEventReceiverList</text>
<polyline fill="none" stroke="black" points="72,-926.5 220,-926.5 "/>
<text text-anchor="middle" x="146" y="-914.5" font-family="Helvetica,sans-Serif" font-size="10.00"> </text>
<polyline fill="none" stroke="black" points="72,-907.5 220,-907.5 "/>
<text text-anchor="start" x="80" y="-895.5" font-family="Helvetica,sans-Serif" font-size="10.00">+ contains()</text>
</a>
</g>
</g>
<!-- Node5&#45;&gt;Node4 -->
<g id="edge4" class="edge">
<title>Node5&#45;&gt;Node4</title>
<path fill="none" stroke="#404040" d="M142.1,-888.31C140.88,-869.72 140.96,-846.27 146,-826 146.57,-823.71 147.19,-821.41 147.85,-819.11"/>
<polygon fill="none" stroke="#404040" points="147.86,-819.06 145.85,-812.14 151.47,-807.62 153.48,-814.54 147.86,-819.06"/>
<text text-anchor="middle" x="206.5" y="-829" font-family="Helvetica,sans-Serif" font-size="10.00"> &#45;unobservedEventReceiver</text>
</g>
<!-- Node6 -->
<g id="node6" class="node">
<title>Node6</title>
<g id="a_node6"><a xlink:title=" ">
<polygon fill="white" stroke="#bfbfbf" points="77,-1027.5 77,-1084.5 215,-1084.5 215,-1027.5 77,-1027.5"/>
<text text-anchor="middle" x="146" y="-1072.5" font-family="Helvetica,sans-Serif" font-size="10.00">std::list&lt; EventReceiver * &gt;</text>
<polyline fill="none" stroke="#bfbfbf" points="77,-1065.5 215,-1065.5 "/>
<text text-anchor="middle" x="146" y="-1053.5" font-family="Helvetica,sans-Serif" font-size="10.00"> </text>
<polyline fill="none" stroke="#bfbfbf" points="77,-1046.5 215,-1046.5 "/>
<text text-anchor="middle" x="146" y="-1034.5" font-family="Helvetica,sans-Serif" font-size="10.00"> </text>
</a>
</g>
</g>
<!-- Node6&#45;&gt;Node5 -->
<g id="edge5" class="edge">
<title>Node6&#45;&gt;Node5</title>
<path fill="none" stroke="midnightblue" d="M146,-1017.25C146,-998.11 146,-975.07 146,-956.62"/>
<polygon fill="none" stroke="midnightblue" points="142.5,-1017.43 146,-1027.43 149.5,-1017.43 142.5,-1017.43"/>
</g>
<!-- Node7 -->
<g id="node7" class="node">
<title>Node7</title>
<g id="a_node7"><a xlink:href="classnet_1_1_event_dispatcher_1_1_fd_set.html" target="_top" xlink:title=" ">
<polygon fill="white" stroke="black" points="238.5,-855.5 238.5,-989.5 347.5,-989.5 347.5,-855.5 238.5,-855.5"/>
<text text-anchor="start" x="246.5" y="-977.5" font-family="Helvetica,sans-Serif" font-size="10.00">net::EventDispatcher</text>
<text text-anchor="middle" x="293" y="-966.5" font-family="Helvetica,sans-Serif" font-size="10.00">::FdSet</text>
<polyline fill="none" stroke="black" points="238.5,-959.5 347.5,-959.5 "/>
<text text-anchor="start" x="246.5" y="-947.5" font-family="Helvetica,sans-Serif" font-size="10.00"># registered</text>
<text text-anchor="start" x="246.5" y="-936.5" font-family="Helvetica,sans-Serif" font-size="10.00"># active</text>
<polyline fill="none" stroke="black" points="238.5,-929.5 347.5,-929.5 "/>
<text text-anchor="start" x="246.5" y="-917.5" font-family="Helvetica,sans-Serif" font-size="10.00">+ FdSet()</text>
<text text-anchor="start" x="246.5" y="-906.5" font-family="Helvetica,sans-Serif" font-size="10.00">+ set()</text>
<text text-anchor="start" x="246.5" y="-895.5" font-family="Helvetica,sans-Serif" font-size="10.00">+ clr()</text>
<text text-anchor="start" x="246.5" y="-884.5" font-family="Helvetica,sans-Serif" font-size="10.00">+ isSet()</text>
<text text-anchor="start" x="246.5" y="-873.5" font-family="Helvetica,sans-Serif" font-size="10.00">+ zero()</text>
<text text-anchor="start" x="246.5" y="-862.5" font-family="Helvetica,sans-Serif" font-size="10.00">+ get()</text>
</a>
</g>
</g>
<!-- Node7&#45;&gt;Node4 -->
<g id="edge6" class="edge">
<title>Node7&#45;&gt;Node4</title>
<path fill="none" stroke="#404040" d="M278.91,-855.46C276.47,-845.54 273.81,-835.46 271,-826 270.33,-823.73 269.63,-821.44 268.93,-819.14"/>
<polygon fill="none" stroke="#404040" points="268.88,-819 263.27,-814.48 265.28,-807.55 270.9,-812.07 268.88,-819"/>
<text text-anchor="middle" x="288" y="-829" font-family="Helvetica,sans-Serif" font-size="10.00"> &#45;fdSet</text>
</g>
</g>
</svg>
