<?xml version="1.0" encoding="UTF-8" standalone="no"?>
<!DOCTYPE svg PUBLIC "-//W3C//DTD SVG 1.1//EN"
 "http://www.w3.org/Graphics/SVG/1.1/DTD/svg11.dtd">
<!-- Generated by graphviz version 2.43.0 (0)
 -->
<!-- Title: net::AcceptEventReceiver Pages: 1 -->
<svg width="370pt" height="1332pt"
 viewBox="0.00 0.00 370.45 1332.00" xmlns="http://www.w3.org/2000/svg" xmlns:xlink="http://www.w3.org/1999/xlink">
<g id="graph0" class="graph" transform="scale(1 1) rotate(0) translate(4 1328)">
<title>net::AcceptEventReceiver</title>
<polygon fill="white" stroke="transparent" points="-4,4 -4,-1328 366.45,-1328 366.45,4 -4,4"/>
<!-- Node1 -->
<g id="node1" class="node">
<title>Node1</title>
<g id="a_node1"><a xlink:title=" ">
<polygon fill="#bfbfbf" stroke="black" points="129,-768.5 129,-847.5 260,-847.5 260,-768.5 129,-768.5"/>
<text text-anchor="middle" x="194.5" y="-835.5" font-family="Helvetica,sans-Serif" font-size="10.00">net::AcceptEventReceiver</text>
<polyline fill="none" stroke="black" points="129,-828.5 260,-828.5 "/>
<text text-anchor="middle" x="194.5" y="-816.5" font-family="Helvetica,sans-Serif" font-size="10.00"> </text>
<polyline fill="none" stroke="black" points="129,-809.5 260,-809.5 "/>
<text text-anchor="start" x="137" y="-797.5" font-family="Helvetica,sans-Serif" font-size="10.00"># AcceptEventReceiver()</text>
<text text-anchor="start" x="137" y="-786.5" font-family="Helvetica,sans-Serif" font-size="10.00"># acceptEvent()</text>
<text text-anchor="start" x="137" y="-775.5" font-family="Helvetica,sans-Serif" font-size="10.00">&#45; dispatchEvent()</text>
</a>
</g>
</g>
<!-- Node4 -->
<g id="node4" class="node">
<title>Node4</title>
<g id="a_node4"><a xlink:href="classnet_1_1socket_1_1stream_1_1_socket_listener.html" target="_top" xlink:title=" ">
<polygon fill="white" stroke="black" points="0,-139.5 0,-416.5 137,-416.5 137,-139.5 0,-139.5"/>
<text text-anchor="start" x="8" y="-404.5" font-family="Helvetica,sans-Serif" font-size="10.00">net::socket::stream</text>
<text text-anchor="start" x="8" y="-393.5" font-family="Helvetica,sans-Serif" font-size="10.00">::SocketListener&lt; stream</text>
<text text-anchor="start" x="8" y="-382.5" font-family="Helvetica,sans-Serif" font-size="10.00">::legacy::SocketConnection</text>
<text text-anchor="middle" x="68.5" y="-371.5" font-family="Helvetica,sans-Serif" font-size="10.00">&lt; SocketT &gt; &gt;</text>
<polyline fill="none" stroke="black" points="0,-364.5 137,-364.5 "/>
<text text-anchor="start" x="8" y="-352.5" font-family="Helvetica,sans-Serif" font-size="10.00">&#45; onConstruct</text>
<text text-anchor="start" x="8" y="-341.5" font-family="Helvetica,sans-Serif" font-size="10.00">&#45; onDestruct</text>
<text text-anchor="start" x="8" y="-330.5" font-family="Helvetica,sans-Serif" font-size="10.00">&#45; onConnect</text>
<text text-anchor="start" x="8" y="-319.5" font-family="Helvetica,sans-Serif" font-size="10.00">&#45; onDisconnect</text>
<text text-anchor="start" x="8" y="-308.5" font-family="Helvetica,sans-Serif" font-size="10.00">&#45; onRead</text>
<text text-anchor="start" x="8" y="-297.5" font-family="Helvetica,sans-Serif" font-size="10.00">&#45; onReadError</text>
<text text-anchor="start" x="8" y="-286.5" font-family="Helvetica,sans-Serif" font-size="10.00">&#45; onWriteError</text>
<text text-anchor="start" x="8" y="-275.5" font-family="Helvetica,sans-Serif" font-size="10.00">&#45; options</text>
<polyline fill="none" stroke="black" points="0,-268.5 137,-268.5 "/>
<text text-anchor="start" x="8" y="-256.5" font-family="Helvetica,sans-Serif" font-size="10.00">+ SocketListener()</text>
<text text-anchor="start" x="8" y="-245.5" font-family="Helvetica,sans-Serif" font-size="10.00">+ SocketListener()</text>
<text text-anchor="start" x="8" y="-234.5" font-family="Helvetica,sans-Serif" font-size="10.00">+ SocketListener()</text>
<text text-anchor="start" x="8" y="-223.5" font-family="Helvetica,sans-Serif" font-size="10.00">+ operator=()</text>
<text text-anchor="start" x="8" y="-212.5" font-family="Helvetica,sans-Serif" font-size="10.00">+ ~SocketListener()</text>
<text text-anchor="start" x="8" y="-201.5" font-family="Helvetica,sans-Serif" font-size="10.00">+ listen()</text>
<text text-anchor="start" x="8" y="-190.5" font-family="Helvetica,sans-Serif" font-size="10.00">&#45; reuseAddress()</text>
<text text-anchor="start" x="8" y="-179.5" font-family="Helvetica,sans-Serif" font-size="10.00">&#45; acceptEvent()</text>
<text text-anchor="start" x="8" y="-168.5" font-family="Helvetica,sans-Serif" font-size="10.00">&#45; end()</text>
<text text-anchor="start" x="8" y="-157.5" font-family="Helvetica,sans-Serif" font-size="10.00">&#45; unobserved()</text>
<text text-anchor="start" x="8" y="-146.5" font-family="Helvetica,sans-Serif" font-size="10.00">&#45; destruct()</text>
</a>
</g>
</g>
<!-- Node1&#45;&gt;Node4 -->
<g id="edge3" class="edge">
<title>Node1&#45;&gt;Node4</title>
<path fill="none" stroke="midnightblue" d="M120.69,-766.95C108.28,-756.87 97,-744.89 89.5,-731 37.74,-635.19 35.88,-510.6 45.05,-416.5"/>
<polygon fill="none" stroke="midnightblue" points="118.92,-770 128.98,-773.3 123.17,-764.44 118.92,-770"/>
</g>
<!-- Node6 -->
<g id="node6" class="node">
<title>Node6</title>
<g id="a_node6"><a xlink:href="classnet_1_1socket_1_1stream_1_1_socket_listener.html" target="_top" xlink:title=" ">
<polygon fill="white" stroke="black" points="165,-139.5 165,-416.5 292,-416.5 292,-139.5 165,-139.5"/>
<text text-anchor="start" x="173" y="-404.5" font-family="Helvetica,sans-Serif" font-size="10.00">net::socket::stream</text>
<text text-anchor="start" x="173" y="-393.5" font-family="Helvetica,sans-Serif" font-size="10.00">::SocketListener&lt; stream</text>
<text text-anchor="start" x="173" y="-382.5" font-family="Helvetica,sans-Serif" font-size="10.00">::tls::SocketConnection</text>
<text text-anchor="middle" x="228.5" y="-371.5" font-family="Helvetica,sans-Serif" font-size="10.00">&lt; SocketT &gt; &gt;</text>
<polyline fill="none" stroke="black" points="165,-364.5 292,-364.5 "/>
<text text-anchor="start" x="173" y="-352.5" font-family="Helvetica,sans-Serif" font-size="10.00">&#45; onConstruct</text>
<text text-anchor="start" x="173" y="-341.5" font-family="Helvetica,sans-Serif" font-size="10.00">&#45; onDestruct</text>
<text text-anchor="start" x="173" y="-330.5" font-family="Helvetica,sans-Serif" font-size="10.00">&#45; onConnect</text>
<text text-anchor="start" x="173" y="-319.5" font-family="Helvetica,sans-Serif" font-size="10.00">&#45; onDisconnect</text>
<text text-anchor="start" x="173" y="-308.5" font-family="Helvetica,sans-Serif" font-size="10.00">&#45; onRead</text>
<text text-anchor="start" x="173" y="-297.5" font-family="Helvetica,sans-Serif" font-size="10.00">&#45; onReadError</text>
<text text-anchor="start" x="173" y="-286.5" font-family="Helvetica,sans-Serif" font-size="10.00">&#45; onWriteError</text>
<text text-anchor="start" x="173" y="-275.5" font-family="Helvetica,sans-Serif" font-size="10.00">&#45; options</text>
<polyline fill="none" stroke="black" points="165,-268.5 292,-268.5 "/>
<text text-anchor="start" x="173" y="-256.5" font-family="Helvetica,sans-Serif" font-size="10.00">+ SocketListener()</text>
<text text-anchor="start" x="173" y="-245.5" font-family="Helvetica,sans-Serif" font-size="10.00">+ SocketListener()</text>
<text text-anchor="start" x="173" y="-234.5" font-family="Helvetica,sans-Serif" font-size="10.00">+ SocketListener()</text>
<text text-anchor="start" x="173" y="-223.5" font-family="Helvetica,sans-Serif" font-size="10.00">+ operator=()</text>
<text text-anchor="start" x="173" y="-212.5" font-family="Helvetica,sans-Serif" font-size="10.00">+ ~SocketListener()</text>
<text text-anchor="start" x="173" y="-201.5" font-family="Helvetica,sans-Serif" font-size="10.00">+ listen()</text>
<text text-anchor="start" x="173" y="-190.5" font-family="Helvetica,sans-Serif" font-size="10.00">&#45; reuseAddress()</text>
<text text-anchor="start" x="173" y="-179.5" font-family="Helvetica,sans-Serif" font-size="10.00">&#45; acceptEvent()</text>
<text text-anchor="start" x="173" y="-168.5" font-family="Helvetica,sans-Serif" font-size="10.00">&#45; end()</text>
<text text-anchor="start" x="173" y="-157.5" font-family="Helvetica,sans-Serif" font-size="10.00">&#45; unobserved()</text>
<text text-anchor="start" x="173" y="-146.5" font-family="Helvetica,sans-Serif" font-size="10.00">&#45; destruct()</text>
</a>
</g>
</g>
<!-- Node1&#45;&gt;Node6 -->
<g id="edge5" class="edge">
<title>Node1&#45;&gt;Node6</title>
<path fill="none" stroke="midnightblue" d="M268,-764.61C279.99,-754.9 291.18,-743.65 299.5,-731 368.04,-626.76 346.86,-581.01 360.5,-457 361.57,-447.28 363.86,-444.18 360.5,-435 346.53,-396.86 318.65,-361.63 292.1,-334.33"/>
<polygon fill="none" stroke="midnightblue" points="265.8,-761.88 260.03,-770.77 270.08,-767.42 265.8,-761.88"/>
</g>
<!-- Node8 -->
<g id="node8" class="node">
<title>Node8</title>
<g id="a_node8"><a xlink:href="classnet_1_1socket_1_1stream_1_1_socket_listener.html" target="_top" xlink:title=" ">
<polygon fill="white" stroke="black" points="98.5,-475.5 98.5,-730.5 290.5,-730.5 290.5,-475.5 98.5,-475.5"/>
<text text-anchor="start" x="106.5" y="-718.5" font-family="Helvetica,sans-Serif" font-size="10.00">net::socket::stream</text>
<text text-anchor="middle" x="194.5" y="-707.5" font-family="Helvetica,sans-Serif" font-size="10.00">::SocketListener&lt; SocketConnectionT &gt;</text>
<polyline fill="none" stroke="black" points="98.5,-700.5 290.5,-700.5 "/>
<text text-anchor="start" x="106.5" y="-688.5" font-family="Helvetica,sans-Serif" font-size="10.00">&#45; onConstruct</text>
<text text-anchor="start" x="106.5" y="-677.5" font-family="Helvetica,sans-Serif" font-size="10.00">&#45; onDestruct</text>
<text text-anchor="start" x="106.5" y="-666.5" font-family="Helvetica,sans-Serif" font-size="10.00">&#45; onConnect</text>
<text text-anchor="start" x="106.5" y="-655.5" font-family="Helvetica,sans-Serif" font-size="10.00">&#45; onDisconnect</text>
<text text-anchor="start" x="106.5" y="-644.5" font-family="Helvetica,sans-Serif" font-size="10.00">&#45; onRead</text>
<text text-anchor="start" x="106.5" y="-633.5" font-family="Helvetica,sans-Serif" font-size="10.00">&#45; onReadError</text>
<text text-anchor="start" x="106.5" y="-622.5" font-family="Helvetica,sans-Serif" font-size="10.00">&#45; onWriteError</text>
<text text-anchor="start" x="106.5" y="-611.5" font-family="Helvetica,sans-Serif" font-size="10.00">&#45; options</text>
<polyline fill="none" stroke="black" points="98.5,-604.5 290.5,-604.5 "/>
<text text-anchor="start" x="106.5" y="-592.5" font-family="Helvetica,sans-Serif" font-size="10.00">+ SocketListener()</text>
<text text-anchor="start" x="106.5" y="-581.5" font-family="Helvetica,sans-Serif" font-size="10.00">+ SocketListener()</text>
<text text-anchor="start" x="106.5" y="-570.5" font-family="Helvetica,sans-Serif" font-size="10.00">+ SocketListener()</text>
<text text-anchor="start" x="106.5" y="-559.5" font-family="Helvetica,sans-Serif" font-size="10.00">+ operator=()</text>
<text text-anchor="start" x="106.5" y="-548.5" font-family="Helvetica,sans-Serif" font-size="10.00">+ ~SocketListener()</text>
<text text-anchor="start" x="106.5" y="-537.5" font-family="Helvetica,sans-Serif" font-size="10.00">+ listen()</text>
<text text-anchor="start" x="106.5" y="-526.5" font-family="Helvetica,sans-Serif" font-size="10.00">&#45; reuseAddress()</text>
<text text-anchor="start" x="106.5" y="-515.5" font-family="Helvetica,sans-Serif" font-size="10.00">&#45; acceptEvent()</text>
<text text-anchor="start" x="106.5" y="-504.5" font-family="Helvetica,sans-Serif" font-size="10.00">&#45; end()</text>
<text text-anchor="start" x="106.5" y="-493.5" font-family="Helvetica,sans-Serif" font-size="10.00">&#45; unobserved()</text>
<text text-anchor="start" x="106.5" y="-482.5" font-family="Helvetica,sans-Serif" font-size="10.00">&#45; destruct()</text>
</a>
</g>
</g>
<!-- Node1&#45;&gt;Node8 -->
<g id="edge7" class="edge">
<title>Node1&#45;&gt;Node8</title>
<path fill="none" stroke="midnightblue" d="M194.5,-758.27C194.5,-749.71 194.5,-740.46 194.5,-730.89"/>
<polygon fill="none" stroke="midnightblue" points="191,-758.34 194.5,-768.34 198,-758.34 191,-758.34"/>
</g>
<!-- Node2 -->
<g id="node2" class="node">
<title>Node2</title>
<g id="a_node2"><a xlink:href="classnet_1_1_descriptor_event_receiver.html" target="_top" xlink:title=" ">
<polygon fill="white" stroke="black" points="121.5,-885.5 121.5,-1217.5 267.5,-1217.5 267.5,-885.5 121.5,-885.5"/>
<text text-anchor="middle" x="194.5" y="-1205.5" font-family="Helvetica,sans-Serif" font-size="10.00">net::DescriptorEventReceiver</text>
<polyline fill="none" stroke="black" points="121.5,-1198.5 267.5,-1198.5 "/>
<text text-anchor="start" x="129.5" y="-1186.5" font-family="Helvetica,sans-Serif" font-size="10.00">&#45; descriptorEventDispatcher</text>
<text text-anchor="start" x="129.5" y="-1175.5" font-family="Helvetica,sans-Serif" font-size="10.00">&#45; fd</text>
<text text-anchor="start" x="129.5" y="-1164.5" font-family="Helvetica,sans-Serif" font-size="10.00">&#45; _enabled</text>
<text text-anchor="start" x="129.5" y="-1153.5" font-family="Helvetica,sans-Serif" font-size="10.00">&#45; _suspended</text>
<text text-anchor="start" x="129.5" y="-1142.5" font-family="Helvetica,sans-Serif" font-size="10.00">&#45; maxInactivity</text>
<text text-anchor="start" x="129.5" y="-1131.5" font-family="Helvetica,sans-Serif" font-size="10.00">&#45; initialTimeout</text>
<polyline fill="none" stroke="black" points="121.5,-1124.5 267.5,-1124.5 "/>
<text text-anchor="start" x="129.5" y="-1112.5" font-family="Helvetica,sans-Serif" font-size="10.00">+ DescriptorEventReceiver()</text>
<text text-anchor="start" x="129.5" y="-1101.5" font-family="Helvetica,sans-Serif" font-size="10.00">+ operator=()</text>
<text text-anchor="start" x="129.5" y="-1090.5" font-family="Helvetica,sans-Serif" font-size="10.00">+ enable()</text>
<text text-anchor="start" x="129.5" y="-1079.5" font-family="Helvetica,sans-Serif" font-size="10.00">+ disable()</text>
<text text-anchor="start" x="129.5" y="-1068.5" font-family="Helvetica,sans-Serif" font-size="10.00">+ suspend()</text>
<text text-anchor="start" x="129.5" y="-1057.5" font-family="Helvetica,sans-Serif" font-size="10.00">+ resume()</text>
<text text-anchor="start" x="129.5" y="-1046.5" font-family="Helvetica,sans-Serif" font-size="10.00"># DescriptorEventReceiver()</text>
<text text-anchor="start" x="129.5" y="-1035.5" font-family="Helvetica,sans-Serif" font-size="10.00"># ~DescriptorEventReceiver()</text>
<text text-anchor="start" x="129.5" y="-1024.5" font-family="Helvetica,sans-Serif" font-size="10.00"># setTimeout()</text>
<text text-anchor="start" x="129.5" y="-1013.5" font-family="Helvetica,sans-Serif" font-size="10.00"># isEnabled()</text>
<text text-anchor="start" x="129.5" y="-1002.5" font-family="Helvetica,sans-Serif" font-size="10.00"># isSuspended()</text>
<text text-anchor="start" x="129.5" y="-991.5" font-family="Helvetica,sans-Serif" font-size="10.00">&#45; dispatchEvent()</text>
<text text-anchor="start" x="129.5" y="-980.5" font-family="Helvetica,sans-Serif" font-size="10.00">&#45; timeoutEvent()</text>
<text text-anchor="start" x="129.5" y="-969.5" font-family="Helvetica,sans-Serif" font-size="10.00">&#45; enabled()</text>
<text text-anchor="start" x="129.5" y="-958.5" font-family="Helvetica,sans-Serif" font-size="10.00">&#45; disabled()</text>
<text text-anchor="start" x="129.5" y="-947.5" font-family="Helvetica,sans-Serif" font-size="10.00">&#45; suspended()</text>
<text text-anchor="start" x="129.5" y="-936.5" font-family="Helvetica,sans-Serif" font-size="10.00">&#45; resumed()</text>
<text text-anchor="start" x="129.5" y="-925.5" font-family="Helvetica,sans-Serif" font-size="10.00">&#45; getTimeout()</text>
<text text-anchor="start" x="129.5" y="-914.5" font-family="Helvetica,sans-Serif" font-size="10.00">&#45; getLastTriggered()</text>
<text text-anchor="start" x="129.5" y="-903.5" font-family="Helvetica,sans-Serif" font-size="10.00">&#45; triggered()</text>
<text text-anchor="start" x="129.5" y="-892.5" font-family="Helvetica,sans-Serif" font-size="10.00">&#45; unobserved()</text>
</a>
</g>
</g>
<!-- Node2&#45;&gt;Node1 -->
<g id="edge1" class="edge">
<title>Node2&#45;&gt;Node1</title>
<path fill="none" stroke="midnightblue" d="M194.5,-875.27C194.5,-865.32 194.5,-856 194.5,-847.67"/>
<polygon fill="none" stroke="midnightblue" points="191,-875.41 194.5,-885.41 198,-875.41 191,-875.41"/>
</g>
<!-- Node3 -->
<g id="node3" class="node">
<title>Node3</title>
<g id="a_node3"><a xlink:href="classnet_1_1_observation_counter.html" target="_top" xlink:title=" ">
<polygon fill="white" stroke="black" points="133,-1255.5 133,-1323.5 256,-1323.5 256,-1255.5 133,-1255.5"/>
<text text-anchor="middle" x="194.5" y="-1311.5" font-family="Helvetica,sans-Serif" font-size="10.00">net::ObservationCounter</text>
<polyline fill="none" stroke="black" points="133,-1304.5 256,-1304.5 "/>
<text text-anchor="start" x="141" y="-1292.5" font-family="Helvetica,sans-Serif" font-size="10.00"># observationCounter</text>
<text text-anchor="start" x="141" y="-1281.5" font-family="Helvetica,sans-Serif" font-size="10.00"># lastTriggered</text>
<polyline fill="none" stroke="black" points="133,-1274.5 256,-1274.5 "/>
<text text-anchor="start" x="141" y="-1262.5" font-family="Helvetica,sans-Serif" font-size="10.00">+ isObserved()</text>
</a>
</g>
</g>
<!-- Node3&#45;&gt;Node2 -->
<g id="edge2" class="edge">
<title>Node3&#45;&gt;Node2</title>
<path fill="none" stroke="midnightblue" d="M194.5,-1245.2C194.5,-1236.73 194.5,-1227.39 194.5,-1217.53"/>
<polygon fill="none" stroke="midnightblue" points="191,-1245.44 194.5,-1255.44 198,-1245.44 191,-1245.44"/>
</g>
<!-- Node5 -->
<g id="node5" class="node">
<title>Node5</title>
<g id="a_node5"><a xlink:href="classnet_1_1socket_1_1stream_1_1legacy_1_1_socket_listener.html" target="_top" xlink:title=" ">
<polygon fill="white" stroke="black" points="7.5,-11.5 7.5,-90.5 129.5,-90.5 129.5,-11.5 7.5,-11.5"/>
<text text-anchor="start" x="15.5" y="-78.5" font-family="Helvetica,sans-Serif" font-size="10.00">net::socket::stream</text>
<text text-anchor="start" x="15.5" y="-67.5" font-family="Helvetica,sans-Serif" font-size="10.00">::legacy::SocketListener</text>
<text text-anchor="middle" x="68.5" y="-56.5" font-family="Helvetica,sans-Serif" font-size="10.00">&lt; SocketT &gt;</text>
<polyline fill="none" stroke="black" points="7.5,-49.5 129.5,-49.5 "/>
<text text-anchor="middle" x="68.5" y="-37.5" font-family="Helvetica,sans-Serif" font-size="10.00"> </text>
<polyline fill="none" stroke="black" points="7.5,-30.5 129.5,-30.5 "/>
<text text-anchor="middle" x="68.5" y="-18.5" font-family="Helvetica,sans-Serif" font-size="10.00"> </text>
</a>
</g>
</g>
<!-- Node4&#45;&gt;Node5 -->
<g id="edge4" class="edge">
<title>Node4&#45;&gt;Node5</title>
<path fill="none" stroke="midnightblue" d="M68.5,-129.06C68.5,-115.15 68.5,-102.04 68.5,-90.72"/>
<polygon fill="none" stroke="midnightblue" points="65,-129.31 68.5,-139.31 72,-129.31 65,-129.31"/>
</g>
<!-- Node7 -->
<g id="node7" class="node">
<title>Node7</title>
<g id="a_node7"><a xlink:href="classnet_1_1socket_1_1stream_1_1tls_1_1_socket_listener.html" target="_top" xlink:title=" ">
<polygon fill="white" stroke="black" points="176.5,-0.5 176.5,-101.5 280.5,-101.5 280.5,-0.5 176.5,-0.5"/>
<text text-anchor="start" x="184.5" y="-89.5" font-family="Helvetica,sans-Serif" font-size="10.00">net::socket::stream</text>
<text text-anchor="start" x="184.5" y="-78.5" font-family="Helvetica,sans-Serif" font-size="10.00">::tls::SocketListener</text>
<text text-anchor="middle" x="228.5" y="-67.5" font-family="Helvetica,sans-Serif" font-size="10.00">&lt; SocketT &gt;</text>
<polyline fill="none" stroke="black" points="176.5,-60.5 280.5,-60.5 "/>
<text text-anchor="start" x="184.5" y="-48.5" font-family="Helvetica,sans-Serif" font-size="10.00">&#45; ctx</text>
<polyline fill="none" stroke="black" points="176.5,-41.5 280.5,-41.5 "/>
<text text-anchor="start" x="184.5" y="-29.5" font-family="Helvetica,sans-Serif" font-size="10.00">+ SocketListener()</text>
<text text-anchor="start" x="184.5" y="-18.5" font-family="Helvetica,sans-Serif" font-size="10.00">+ ~SocketListener()</text>
<text text-anchor="start" x="184.5" y="-7.5" font-family="Helvetica,sans-Serif" font-size="10.00">+ listen()</text>
</a>
</g>
</g>
<!-- Node6&#45;&gt;Node7 -->
<g id="edge6" class="edge">
<title>Node6&#45;&gt;Node7</title>
<path fill="none" stroke="midnightblue" d="M228.5,-129.12C228.5,-119.47 228.5,-110.2 228.5,-101.64"/>
<polygon fill="none" stroke="midnightblue" points="225,-129.31 228.5,-139.31 232,-129.31 225,-129.31"/>
</g>
<!-- Node8&#45;&gt;Node4 -->
<g id="edge8" class="edge">
<title>Node8&#45;&gt;Node4</title>
<path fill="none" stroke="orange" d="M95.36,-466.26C94,-463.18 92.71,-460.09 91.5,-457 86.5,-444.23 82.54,-430.6 79.41,-416.77"/>
<polygon fill="orange" stroke="orange" points="92.25,-467.87 99.65,-475.46 98.6,-464.92 92.25,-467.87"/>
<text text-anchor="start" x="91.5" y="-449" font-family="Helvetica,sans-Serif" font-size="10.00"> &lt; stream::legacy::Socket</text>
<text text-anchor="middle" x="148.5" y="-438" font-family="Helvetica,sans-Serif" font-size="10.00">Connection&lt; SocketT &gt; &gt;</text>
</g>
<!-- Node8&#45;&gt;Node6 -->
<g id="edge9" class="edge">
<title>Node8&#45;&gt;Node6</title>
<path fill="none" stroke="orange" d="M208.89,-465.28C210.59,-449.16 212.32,-432.7 214.02,-416.56"/>
<polygon fill="orange" stroke="orange" points="205.41,-464.96 207.84,-475.27 212.37,-465.69 205.41,-464.96"/>
<text text-anchor="start" x="211.5" y="-449" font-family="Helvetica,sans-Serif" font-size="10.00"> &lt; stream::tls::SocketConnection</text>
<text text-anchor="middle" x="284" y="-438" font-family="Helvetica,sans-Serif" font-size="10.00">&lt; SocketT &gt; &gt;</text>
</g>
</g>
</svg>
