<?xml version="1.0" encoding="UTF-8" standalone="no"?>
<!DOCTYPE svg PUBLIC "-//W3C//DTD SVG 1.1//EN"
 "http://www.w3.org/Graphics/SVG/1.1/DTD/svg11.dtd">
<!-- Generated by graphviz version 2.43.0 (0)
 -->
<!-- Title: net::EventDispatcher::suspend Pages: 1 -->
<svg width="464pt" height="276pt"
 viewBox="0.00 0.00 464.00 275.50" xmlns="http://www.w3.org/2000/svg" xmlns:xlink="http://www.w3.org/1999/xlink">
<g id="graph0" class="graph" transform="scale(1 1) rotate(0) translate(4 271.5)">
<title>net::EventDispatcher::suspend</title>
<polygon fill="white" stroke="transparent" points="-4,4 -4,-271.5 460,-271.5 460,4 -4,4"/>
<!-- Node1 -->
<g id="node1" class="node">
<title>Node1</title>
<g id="a_node1"><a xlink:title=" ">
<polygon fill="#bfbfbf" stroke="black" points="347,-139 347,-169 456,-169 456,-139 347,-139"/>
<text text-anchor="start" x="355" y="-157" font-family="Helvetica,sans-Serif" font-size="10.00">net::EventDispatcher</text>
<text text-anchor="middle" x="401.5" y="-146" font-family="Helvetica,sans-Serif" font-size="10.00">::suspend</text>
</a>
</g>
</g>
<!-- Node2 -->
<g id="node2" class="node">
<title>Node2</title>
<g id="a_node2"><a xlink:href="classnet_1_1_accept_event_receiver.html#a2e545a73a02c79c8dda3a4745d464053" target="_top" xlink:title=" ">
<polygon fill="white" stroke="black" points="171,-237 171,-267 302,-267 302,-237 171,-237"/>
<text text-anchor="start" x="179" y="-255" font-family="Helvetica,sans-Serif" font-size="10.00">net::AcceptEventReceiver</text>
<text text-anchor="middle" x="236.5" y="-244" font-family="Helvetica,sans-Serif" font-size="10.00">::suspend</text>
</a>
</g>
</g>
<!-- Node1&#45;&gt;Node2 -->
<g id="edge1" class="edge">
<title>Node1&#45;&gt;Node2</title>
<path fill="none" stroke="midnightblue" d="M378.68,-176.07C361.56,-192.35 336.42,-214 311,-228 304.89,-231.37 298.22,-234.36 291.49,-236.98"/>
<polygon fill="midnightblue" stroke="midnightblue" points="381.22,-178.49 385.96,-169.02 376.35,-173.47 381.22,-178.49"/>
</g>
<!-- Node3 -->
<g id="node3" class="node">
<title>Node3</title>
<g id="a_node3"><a xlink:href="classnet_1_1_connect_event_receiver.html#a5c171075e7a3c573c56a32dc59049514" target="_top" xlink:title=" ">
<polygon fill="white" stroke="black" points="168,-188 168,-218 305,-218 305,-188 168,-188"/>
<text text-anchor="start" x="176" y="-206" font-family="Helvetica,sans-Serif" font-size="10.00">net::ConnectEventReceiver</text>
<text text-anchor="middle" x="236.5" y="-195" font-family="Helvetica,sans-Serif" font-size="10.00">::suspend</text>
</a>
</g>
</g>
<!-- Node1&#45;&gt;Node3 -->
<g id="edge2" class="edge">
<title>Node1&#45;&gt;Node3</title>
<path fill="none" stroke="midnightblue" d="M340.25,-172.11C322.92,-177.32 304.21,-182.95 287.57,-187.95"/>
<polygon fill="midnightblue" stroke="midnightblue" points="341.7,-175.33 350.26,-169.1 339.68,-168.63 341.7,-175.33"/>
</g>
<!-- Node4 -->
<g id="node4" class="node">
<title>Node4</title>
<g id="a_node4"><a xlink:href="classnet_1_1_out_of_band_event_receiver.html#a66690b3d00869f6bd760714f8ab2034b" target="_top" xlink:title=" ">
<polygon fill="white" stroke="black" points="162,-139 162,-169 311,-169 311,-139 162,-139"/>
<text text-anchor="start" x="170" y="-157" font-family="Helvetica,sans-Serif" font-size="10.00">net::OutOfBandEventReceiver</text>
<text text-anchor="middle" x="236.5" y="-146" font-family="Helvetica,sans-Serif" font-size="10.00">::suspend</text>
</a>
</g>
</g>
<!-- Node1&#45;&gt;Node4 -->
<g id="edge3" class="edge">
<title>Node1&#45;&gt;Node4</title>
<path fill="none" stroke="midnightblue" d="M336.6,-154C328.22,-154 319.58,-154 311.05,-154"/>
<polygon fill="midnightblue" stroke="midnightblue" points="336.68,-157.5 346.68,-154 336.68,-150.5 336.68,-157.5"/>
</g>
<!-- Node5 -->
<g id="node5" class="node">
<title>Node5</title>
<g id="a_node5"><a xlink:href="classnet_1_1_read_event_receiver.html#a4a0eb84c0e1e30afb8fe0c4bc2d5e57c" target="_top" xlink:title=" ">
<polygon fill="white" stroke="black" points="174.5,-90 174.5,-120 298.5,-120 298.5,-90 174.5,-90"/>
<text text-anchor="start" x="182.5" y="-108" font-family="Helvetica,sans-Serif" font-size="10.00">net::ReadEventReceiver</text>
<text text-anchor="middle" x="236.5" y="-97" font-family="Helvetica,sans-Serif" font-size="10.00">::suspend</text>
</a>
</g>
</g>
<!-- Node1&#45;&gt;Node5 -->
<g id="edge4" class="edge">
<title>Node1&#45;&gt;Node5</title>
<path fill="none" stroke="midnightblue" d="M340.25,-135.89C322.92,-130.68 304.21,-125.05 287.57,-120.05"/>
<polygon fill="midnightblue" stroke="midnightblue" points="339.68,-139.37 350.26,-138.9 341.7,-132.67 339.68,-139.37"/>
</g>
<!-- Node8 -->
<g id="node8" class="node">
<title>Node8</title>
<g id="a_node8"><a xlink:href="classnet_1_1_write_event_receiver.html#af791858dbdf22f63a0792a4baa1daf72" target="_top" xlink:title=" ">
<polygon fill="white" stroke="black" points="175,-41 175,-71 298,-71 298,-41 175,-41"/>
<text text-anchor="start" x="183" y="-59" font-family="Helvetica,sans-Serif" font-size="10.00">net::WriteEventReceiver</text>
<text text-anchor="middle" x="236.5" y="-48" font-family="Helvetica,sans-Serif" font-size="10.00">::suspend</text>
</a>
</g>
</g>
<!-- Node1&#45;&gt;Node8 -->
<g id="edge7" class="edge">
<title>Node1&#45;&gt;Node8</title>
<path fill="none" stroke="midnightblue" d="M378.27,-132.04C361.1,-116.07 336.09,-94.91 311,-81 304.28,-77.28 296.91,-73.97 289.51,-71.08"/>
<polygon fill="midnightblue" stroke="midnightblue" points="375.92,-134.63 385.58,-138.96 380.73,-129.55 375.92,-134.63"/>
</g>
<!-- Node6 -->
<g id="node6" class="node">
<title>Node6</title>
<g id="a_node6"><a xlink:href="classnet_1_1socket_1_1stream_1_1tls_1_1_socket_reader.html#a66094f94e4c20714c159432dac407b1c" target="_top" xlink:title=" ">
<polygon fill="white" stroke="black" points="0,-121 0,-151 126,-151 126,-121 0,-121"/>
<text text-anchor="start" x="8" y="-139" font-family="Helvetica,sans-Serif" font-size="10.00">net::socket::stream</text>
<text text-anchor="middle" x="63" y="-128" font-family="Helvetica,sans-Serif" font-size="10.00">::tls::SocketReader::read</text>
</a>
</g>
</g>
<!-- Node5&#45;&gt;Node6 -->
<g id="edge5" class="edge">
<title>Node5&#45;&gt;Node6</title>
<path fill="none" stroke="midnightblue" d="M164.08,-117.91C151.49,-120.19 138.47,-122.54 126.16,-124.76"/>
<polygon fill="midnightblue" stroke="midnightblue" points="164.85,-121.33 174.07,-116.1 163.61,-114.44 164.85,-121.33"/>
</g>
<!-- Node7 -->
<g id="node7" class="node">
<title>Node7</title>
<g id="a_node7"><a xlink:href="classnet_1_1socket_1_1stream_1_1tls_1_1_t_l_s_handshake.html#a628b85b77d3318410d1f242586ae8971" target="_top" xlink:title=" ">
<polygon fill="white" stroke="black" points="9.5,-60.5 9.5,-101.5 116.5,-101.5 116.5,-60.5 9.5,-60.5"/>
<text text-anchor="start" x="17.5" y="-89.5" font-family="Helvetica,sans-Serif" font-size="10.00">net::socket::stream</text>
<text text-anchor="start" x="17.5" y="-78.5" font-family="Helvetica,sans-Serif" font-size="10.00">::tls::TLSHandshake</text>
<text text-anchor="middle" x="63" y="-67.5" font-family="Helvetica,sans-Serif" font-size="10.00">::timeout</text>
</a>
</g>
</g>
<!-- Node5&#45;&gt;Node7 -->
<g id="edge6" class="edge">
<title>Node5&#45;&gt;Node7</title>
<path fill="none" stroke="midnightblue" d="M163.77,-94.96C147.92,-92.74 131.42,-90.43 116.5,-88.35"/>
<polygon fill="midnightblue" stroke="midnightblue" points="163.68,-98.48 174.07,-96.4 164.65,-91.55 163.68,-98.48"/>
</g>
<!-- Node8&#45;&gt;Node7 -->
<g id="edge8" class="edge">
<title>Node8&#45;&gt;Node7</title>
<path fill="none" stroke="midnightblue" d="M164.64,-66.33C148.53,-68.68 131.7,-71.13 116.51,-73.35"/>
<polygon fill="midnightblue" stroke="midnightblue" points="165.16,-69.79 174.55,-64.88 164.15,-62.86 165.16,-69.79"/>
</g>
<!-- Node9 -->
<g id="node9" class="node">
<title>Node9</title>
<g id="a_node9"><a xlink:href="classnet_1_1socket_1_1stream_1_1tls_1_1_socket_writer.html#a704f8cb843067a6670c454d88530cc8f" target="_top" xlink:title=" ">
<polygon fill="white" stroke="black" points="12.5,-0.5 12.5,-41.5 113.5,-41.5 113.5,-0.5 12.5,-0.5"/>
<text text-anchor="start" x="20.5" y="-29.5" font-family="Helvetica,sans-Serif" font-size="10.00">net::socket::stream</text>
<text text-anchor="start" x="20.5" y="-18.5" font-family="Helvetica,sans-Serif" font-size="10.00">::tls::SocketWriter</text>
<text text-anchor="middle" x="63" y="-7.5" font-family="Helvetica,sans-Serif" font-size="10.00">::write</text>
</a>
</g>
</g>
<!-- Node8&#45;&gt;Node9 -->
<g id="edge9" class="edge">
<title>Node8&#45;&gt;Node9</title>
<path fill="none" stroke="midnightblue" d="M164.61,-41.53C147.52,-38.04 129.62,-34.39 113.74,-31.15"/>
<polygon fill="midnightblue" stroke="midnightblue" points="164.05,-44.99 174.55,-43.56 165.45,-38.13 164.05,-44.99"/>
</g>
</g>
</svg>
