<?xml version="1.0" encoding="UTF-8" standalone="no"?>
<!DOCTYPE svg PUBLIC "-//W3C//DTD SVG 1.1//EN"
 "http://www.w3.org/Graphics/SVG/1.1/DTD/svg11.dtd">
<!-- Generated by graphviz version 2.43.0 (0)
 -->
<!-- Title: net::ReadEventReceiver::setTimeout Pages: 1 -->
<svg width="779pt" height="272pt"
 viewBox="0.00 0.00 779.00 271.50" xmlns="http://www.w3.org/2000/svg" xmlns:xlink="http://www.w3.org/1999/xlink">
<g id="graph0" class="graph" transform="scale(1 1) rotate(0) translate(4 267.5)">
<title>net::ReadEventReceiver::setTimeout</title>
<polygon fill="white" stroke="transparent" points="-4,4 -4,-267.5 775,-267.5 775,4 -4,4"/>
<!-- Node1 -->
<g id="node1" class="node">
<title>Node1</title>
<g id="a_node1"><a xlink:title=" ">
<polygon fill="#bfbfbf" stroke="black" points="647,-126 647,-156 771,-156 771,-126 647,-126"/>
<text text-anchor="start" x="655" y="-144" font-family="Helvetica,sans-Serif" font-size="10.00">net::ReadEventReceiver</text>
<text text-anchor="middle" x="709" y="-133" font-family="Helvetica,sans-Serif" font-size="10.00">::setTimeout</text>
</a>
</g>
</g>
<!-- Node2 -->
<g id="node2" class="node">
<title>Node2</title>
<g id="a_node2"><a xlink:href="classnet_1_1_read_event_receiver.html#a76e7c2bb8c733ec5651f5dc7efd9d140" target="_top" xlink:title=" ">
<polygon fill="white" stroke="black" points="487,-152 487,-182 611,-182 611,-152 487,-152"/>
<text text-anchor="start" x="495" y="-170" font-family="Helvetica,sans-Serif" font-size="10.00">net::ReadEventReceiver</text>
<text text-anchor="middle" x="549" y="-159" font-family="Helvetica,sans-Serif" font-size="10.00">::enable</text>
</a>
</g>
</g>
<!-- Node1&#45;&gt;Node2 -->
<g id="edge1" class="edge">
<title>Node1&#45;&gt;Node2</title>
<path fill="none" stroke="midnightblue" d="M636.91,-152.7C628.33,-154.11 619.61,-155.54 611.18,-156.93"/>
<polygon fill="midnightblue" stroke="midnightblue" points="637.61,-156.13 646.91,-151.05 636.48,-149.22 637.61,-156.13"/>
</g>
<!-- Node4 -->
<g id="node4" class="node">
<title>Node4</title>
<g id="a_node4"><a xlink:href="classnet_1_1socket_1_1stream_1_1tls_1_1_t_l_s_handshake.html#ad0daae6842f143fcf3d1a7c6d667a160" target="_top" xlink:title=" ">
<polygon fill="white" stroke="black" points="324.5,-90.5 324.5,-131.5 431.5,-131.5 431.5,-90.5 324.5,-90.5"/>
<text text-anchor="start" x="332.5" y="-119.5" font-family="Helvetica,sans-Serif" font-size="10.00">net::socket::stream</text>
<text text-anchor="start" x="332.5" y="-108.5" font-family="Helvetica,sans-Serif" font-size="10.00">::tls::TLSHandshake</text>
<text text-anchor="middle" x="378" y="-97.5" font-family="Helvetica,sans-Serif" font-size="10.00">::TLSHandshake</text>
</a>
</g>
</g>
<!-- Node1&#45;&gt;Node4 -->
<g id="edge10" class="edge">
<title>Node1&#45;&gt;Node4</title>
<path fill="none" stroke="midnightblue" d="M636.84,-134.51C575.12,-128.88 487.21,-120.87 431.64,-115.8"/>
<polygon fill="midnightblue" stroke="midnightblue" points="636.61,-138 646.89,-135.43 637.25,-131.03 636.61,-138"/>
</g>
<!-- Node3 -->
<g id="node3" class="node">
<title>Node3</title>
<g id="a_node3"><a xlink:href="classnet_1_1socket_1_1stream_1_1_socket_connector.html#acb928c04763dadc6adcb9c7d711d0348" target="_top" xlink:title=" ">
<polygon fill="white" stroke="black" points="305,-211 305,-263 451,-263 451,-211 305,-211"/>
<text text-anchor="start" x="313" y="-251" font-family="Helvetica,sans-Serif" font-size="10.00">net::socket::stream</text>
<text text-anchor="start" x="313" y="-240" font-family="Helvetica,sans-Serif" font-size="10.00">::SocketConnector&lt; stream</text>
<text text-anchor="start" x="313" y="-229" font-family="Helvetica,sans-Serif" font-size="10.00">::tls::SocketConnection</text>
<text text-anchor="middle" x="378" y="-218" font-family="Helvetica,sans-Serif" font-size="10.00">&lt; SocketT &gt; &gt;::connectEvent</text>
</a>
</g>
</g>
<!-- Node2&#45;&gt;Node3 -->
<g id="edge2" class="edge">
<title>Node2&#45;&gt;Node3</title>
<path fill="none" stroke="midnightblue" d="M502.33,-185.92C483.71,-193.63 461.89,-202.67 441.81,-210.98"/>
<polygon fill="midnightblue" stroke="midnightblue" points="503.85,-189.08 511.75,-182.02 501.17,-182.61 503.85,-189.08"/>
</g>
<!-- Node2&#45;&gt;Node4 -->
<g id="edge3" class="edge">
<title>Node2&#45;&gt;Node4</title>
<path fill="none" stroke="midnightblue" d="M492.96,-148.76C473.25,-142.23 451.1,-134.89 431.6,-128.43"/>
<polygon fill="midnightblue" stroke="midnightblue" points="492.12,-152.17 502.71,-151.99 494.32,-145.53 492.12,-152.17"/>
</g>
<!-- Node10 -->
<g id="node10" class="node">
<title>Node10</title>
<g id="a_node10"><a xlink:href="classnet_1_1socket_1_1stream_1_1tls_1_1_t_l_s_handshake.html#a4f9fdbda5c8978a21a402013f153cbca" target="_top" xlink:title=" ">
<polygon fill="white" stroke="black" points="324.5,-150.5 324.5,-191.5 431.5,-191.5 431.5,-150.5 324.5,-150.5"/>
<text text-anchor="start" x="332.5" y="-179.5" font-family="Helvetica,sans-Serif" font-size="10.00">net::socket::stream</text>
<text text-anchor="start" x="332.5" y="-168.5" font-family="Helvetica,sans-Serif" font-size="10.00">::tls::TLSHandshake</text>
<text text-anchor="middle" x="378" y="-157.5" font-family="Helvetica,sans-Serif" font-size="10.00">::writeEvent</text>
</a>
</g>
</g>
<!-- Node2&#45;&gt;Node10 -->
<g id="edge9" class="edge">
<title>Node2&#45;&gt;Node10</title>
<path fill="none" stroke="midnightblue" d="M476.63,-168.69C461.51,-169.05 445.82,-169.42 431.55,-169.76"/>
<polygon fill="midnightblue" stroke="midnightblue" points="477.07,-172.18 486.99,-168.44 476.91,-165.18 477.07,-172.18"/>
</g>
<!-- Node5 -->
<g id="node5" class="node">
<title>Node5</title>
<g id="a_node5"><a xlink:href="classnet_1_1socket_1_1stream_1_1tls_1_1_t_l_s_handshake.html#a2c4876e61d8860846d4caa2195e46231" target="_top" xlink:title=" ">
<polygon fill="white" stroke="black" points="162,-90.5 162,-131.5 269,-131.5 269,-90.5 162,-90.5"/>
<text text-anchor="start" x="170" y="-119.5" font-family="Helvetica,sans-Serif" font-size="10.00">net::socket::stream</text>
<text text-anchor="start" x="170" y="-108.5" font-family="Helvetica,sans-Serif" font-size="10.00">::tls::TLSHandshake</text>
<text text-anchor="middle" x="215.5" y="-97.5" font-family="Helvetica,sans-Serif" font-size="10.00">::doHandshake</text>
</a>
</g>
</g>
<!-- Node4&#45;&gt;Node5 -->
<g id="edge4" class="edge">
<title>Node4&#45;&gt;Node5</title>
<path fill="none" stroke="midnightblue" d="M314.28,-111C299.36,-111 283.59,-111 269.17,-111"/>
<polygon fill="midnightblue" stroke="midnightblue" points="314.45,-114.5 324.45,-111 314.45,-107.5 314.45,-114.5"/>
</g>
<!-- Node6 -->
<g id="node6" class="node">
<title>Node6</title>
<g id="a_node6"><a xlink:href="classnet_1_1socket_1_1stream_1_1tls_1_1_socket_reader.html#a66094f94e4c20714c159432dac407b1c" target="_top" xlink:title=" ">
<polygon fill="white" stroke="black" points="0,-181 0,-211 126,-211 126,-181 0,-181"/>
<text text-anchor="start" x="8" y="-199" font-family="Helvetica,sans-Serif" font-size="10.00">net::socket::stream</text>
<text text-anchor="middle" x="63" y="-188" font-family="Helvetica,sans-Serif" font-size="10.00">::tls::SocketReader::read</text>
</a>
</g>
</g>
<!-- Node5&#45;&gt;Node6 -->
<g id="edge5" class="edge">
<title>Node5&#45;&gt;Node6</title>
<path fill="none" stroke="midnightblue" d="M178.79,-137.76C163.08,-148.85 144.11,-161.35 126,-171 119.34,-174.55 112.07,-177.9 104.92,-180.94"/>
<polygon fill="midnightblue" stroke="midnightblue" points="181.06,-140.43 187.16,-131.77 176.99,-134.74 181.06,-140.43"/>
</g>
<!-- Node7 -->
<g id="node7" class="node">
<title>Node7</title>
<g id="a_node7"><a xlink:href="classnet_1_1socket_1_1stream_1_1tls_1_1_socket_connector.html#a03d3cd1d7ad33216ae0c58d3f88d8339" target="_top" xlink:title=" ">
<polygon fill="white" stroke="black" points="5.5,-120.5 5.5,-161.5 120.5,-161.5 120.5,-120.5 5.5,-120.5"/>
<text text-anchor="start" x="13.5" y="-149.5" font-family="Helvetica,sans-Serif" font-size="10.00">net::socket::stream</text>
<text text-anchor="start" x="13.5" y="-138.5" font-family="Helvetica,sans-Serif" font-size="10.00">::tls::SocketConnector</text>
<text text-anchor="middle" x="63" y="-127.5" font-family="Helvetica,sans-Serif" font-size="10.00">::SocketConnector</text>
</a>
</g>
</g>
<!-- Node5&#45;&gt;Node7 -->
<g id="edge6" class="edge">
<title>Node5&#45;&gt;Node7</title>
<path fill="none" stroke="midnightblue" d="M152.04,-123.45C141.65,-125.52 130.94,-127.66 120.71,-129.7"/>
<polygon fill="midnightblue" stroke="midnightblue" points="152.74,-126.88 161.86,-121.49 151.37,-120.02 152.74,-126.88"/>
</g>
<!-- Node8 -->
<g id="node8" class="node">
<title>Node8</title>
<g id="a_node8"><a xlink:href="classnet_1_1socket_1_1stream_1_1tls_1_1_socket_listener.html#a223629dd98eb1de0a0b9a431754e1d8f" target="_top" xlink:title=" ">
<polygon fill="white" stroke="black" points="11,-60.5 11,-101.5 115,-101.5 115,-60.5 11,-60.5"/>
<text text-anchor="start" x="19" y="-89.5" font-family="Helvetica,sans-Serif" font-size="10.00">net::socket::stream</text>
<text text-anchor="start" x="19" y="-78.5" font-family="Helvetica,sans-Serif" font-size="10.00">::tls::SocketListener</text>
<text text-anchor="middle" x="63" y="-67.5" font-family="Helvetica,sans-Serif" font-size="10.00">::SocketListener</text>
</a>
</g>
</g>
<!-- Node5&#45;&gt;Node8 -->
<g id="edge7" class="edge">
<title>Node5&#45;&gt;Node8</title>
<path fill="none" stroke="midnightblue" d="M151.74,-98.49C139.53,-96.06 126.87,-93.53 115.09,-91.18"/>
<polygon fill="midnightblue" stroke="midnightblue" points="151.37,-101.98 161.86,-100.51 152.74,-95.12 151.37,-101.98"/>
</g>
<!-- Node9 -->
<g id="node9" class="node">
<title>Node9</title>
<g id="a_node9"><a xlink:href="classnet_1_1socket_1_1stream_1_1tls_1_1_socket_writer.html#a704f8cb843067a6670c454d88530cc8f" target="_top" xlink:title=" ">
<polygon fill="white" stroke="black" points="12.5,-0.5 12.5,-41.5 113.5,-41.5 113.5,-0.5 12.5,-0.5"/>
<text text-anchor="start" x="20.5" y="-29.5" font-family="Helvetica,sans-Serif" font-size="10.00">net::socket::stream</text>
<text text-anchor="start" x="20.5" y="-18.5" font-family="Helvetica,sans-Serif" font-size="10.00">::tls::SocketWriter</text>
<text text-anchor="middle" x="63" y="-7.5" font-family="Helvetica,sans-Serif" font-size="10.00">::write</text>
</a>
</g>
</g>
<!-- Node5&#45;&gt;Node9 -->
<g id="edge8" class="edge">
<title>Node5&#45;&gt;Node9</title>
<path fill="none" stroke="midnightblue" d="M178.1,-84.58C162.41,-73.64 143.64,-61.17 126,-51 120.41,-47.77 114.41,-44.57 108.44,-41.53"/>
<polygon fill="midnightblue" stroke="midnightblue" points="176.29,-87.58 186.48,-90.47 180.31,-81.85 176.29,-87.58"/>
</g>
</g>
</svg>
