<?xml version="1.0" encoding="UTF-8" standalone="no"?>
<!DOCTYPE svg PUBLIC "-//W3C//DTD SVG 1.1//EN"
 "http://www.w3.org/Graphics/SVG/1.1/DTD/svg11.dtd">
<!-- Generated by graphviz version 2.43.0 (0)
 -->
<!-- Title: net::socket::stream::SocketReader&lt; SocketT &gt; Pages: 1 -->
<svg width="333pt" height="1210pt"
 viewBox="0.00 0.00 332.50 1210.00" xmlns="http://www.w3.org/2000/svg" xmlns:xlink="http://www.w3.org/1999/xlink">
<g id="graph0" class="graph" transform="scale(1 1) rotate(0) translate(4 1206)">
<title>net::socket::stream::SocketReader&lt; SocketT &gt;</title>
<polygon fill="white" stroke="transparent" points="-4,4 -4,-1206 328.5,-1206 328.5,4 -4,4"/>
<!-- Node1 -->
<g id="node1" class="node">
<title>Node1</title>
<g id="a_node1"><a xlink:title=" ">
<polygon fill="#bfbfbf" stroke="black" points="60.5,-0.5 60.5,-156.5 200.5,-156.5 200.5,-0.5 60.5,-0.5"/>
<text text-anchor="start" x="68.5" y="-144.5" font-family="Helvetica,sans-Serif" font-size="10.00">net::socket::stream</text>
<text text-anchor="middle" x="130.5" y="-133.5" font-family="Helvetica,sans-Serif" font-size="10.00">::SocketReader&lt; SocketT &gt;</text>
<polyline fill="none" stroke="black" points="60.5,-126.5 200.5,-126.5 "/>
<text text-anchor="start" x="68.5" y="-114.5" font-family="Helvetica,sans-Serif" font-size="10.00">&#45; onRead</text>
<text text-anchor="start" x="68.5" y="-103.5" font-family="Helvetica,sans-Serif" font-size="10.00">&#45; onError</text>
<text text-anchor="start" x="68.5" y="-92.5" font-family="Helvetica,sans-Serif" font-size="10.00">&#45; markShutdown</text>
<polyline fill="none" stroke="black" points="60.5,-85.5 200.5,-85.5 "/>
<text text-anchor="start" x="68.5" y="-73.5" font-family="Helvetica,sans-Serif" font-size="10.00"># SocketReader()</text>
<text text-anchor="start" x="68.5" y="-62.5" font-family="Helvetica,sans-Serif" font-size="10.00"># SocketReader()</text>
<text text-anchor="start" x="68.5" y="-51.5" font-family="Helvetica,sans-Serif" font-size="10.00"># ~SocketReader()</text>
<text text-anchor="start" x="68.5" y="-40.5" font-family="Helvetica,sans-Serif" font-size="10.00"># shutdown()</text>
<text text-anchor="start" x="68.5" y="-29.5" font-family="Helvetica,sans-Serif" font-size="10.00">&#45; read()</text>
<text text-anchor="start" x="68.5" y="-18.5" font-family="Helvetica,sans-Serif" font-size="10.00">&#45; readEvent()</text>
<text text-anchor="start" x="68.5" y="-7.5" font-family="Helvetica,sans-Serif" font-size="10.00">&#45; getError()</text>
</a>
</g>
</g>
<!-- Node2 -->
<g id="node2" class="node">
<title>Node2</title>
<g id="a_node2"><a xlink:href="classnet_1_1_read_event_receiver.html" target="_top" xlink:title=" ">
<polygon fill="white" stroke="black" points="15.5,-194.5 15.5,-273.5 139.5,-273.5 139.5,-194.5 15.5,-194.5"/>
<text text-anchor="middle" x="77.5" y="-261.5" font-family="Helvetica,sans-Serif" font-size="10.00">net::ReadEventReceiver</text>
<polyline fill="none" stroke="black" points="15.5,-254.5 139.5,-254.5 "/>
<text text-anchor="middle" x="77.5" y="-242.5" font-family="Helvetica,sans-Serif" font-size="10.00"> </text>
<polyline fill="none" stroke="black" points="15.5,-235.5 139.5,-235.5 "/>
<text text-anchor="start" x="23.5" y="-223.5" font-family="Helvetica,sans-Serif" font-size="10.00"># ReadEventReceiver()</text>
<text text-anchor="start" x="23.5" y="-212.5" font-family="Helvetica,sans-Serif" font-size="10.00"># readEvent()</text>
<text text-anchor="start" x="23.5" y="-201.5" font-family="Helvetica,sans-Serif" font-size="10.00">&#45; dispatchEvent()</text>
</a>
</g>
</g>
<!-- Node2&#45;&gt;Node1 -->
<g id="edge1" class="edge">
<title>Node2&#45;&gt;Node1</title>
<path fill="none" stroke="midnightblue" d="M94.15,-184.77C97.26,-175.77 100.58,-166.16 103.9,-156.55"/>
<polygon fill="none" stroke="midnightblue" points="90.83,-183.67 90.87,-194.27 97.45,-185.96 90.83,-183.67"/>
</g>
<!-- Node3 -->
<g id="node3" class="node">
<title>Node3</title>
<g id="a_node3"><a xlink:href="classnet_1_1_descriptor_event_receiver.html" target="_top" xlink:title=" ">
<polygon fill="white" stroke="black" points="4.5,-311.5 4.5,-632.5 150.5,-632.5 150.5,-311.5 4.5,-311.5"/>
<text text-anchor="middle" x="77.5" y="-620.5" font-family="Helvetica,sans-Serif" font-size="10.00">net::DescriptorEventReceiver</text>
<polyline fill="none" stroke="black" points="4.5,-613.5 150.5,-613.5 "/>
<text text-anchor="start" x="12.5" y="-601.5" font-family="Helvetica,sans-Serif" font-size="10.00">&#45; fd</text>
<text text-anchor="start" x="12.5" y="-590.5" font-family="Helvetica,sans-Serif" font-size="10.00">&#45; _enabled</text>
<text text-anchor="start" x="12.5" y="-579.5" font-family="Helvetica,sans-Serif" font-size="10.00">&#45; _suspended</text>
<text text-anchor="start" x="12.5" y="-568.5" font-family="Helvetica,sans-Serif" font-size="10.00">&#45; maxInactivity</text>
<text text-anchor="start" x="12.5" y="-557.5" font-family="Helvetica,sans-Serif" font-size="10.00">&#45; initialTimeout</text>
<polyline fill="none" stroke="black" points="4.5,-550.5 150.5,-550.5 "/>
<text text-anchor="start" x="12.5" y="-538.5" font-family="Helvetica,sans-Serif" font-size="10.00">+ DescriptorEventReceiver()</text>
<text text-anchor="start" x="12.5" y="-527.5" font-family="Helvetica,sans-Serif" font-size="10.00">+ operator=()</text>
<text text-anchor="start" x="12.5" y="-516.5" font-family="Helvetica,sans-Serif" font-size="10.00">+ enable()</text>
<text text-anchor="start" x="12.5" y="-505.5" font-family="Helvetica,sans-Serif" font-size="10.00">+ disable()</text>
<text text-anchor="start" x="12.5" y="-494.5" font-family="Helvetica,sans-Serif" font-size="10.00">+ suspend()</text>
<text text-anchor="start" x="12.5" y="-483.5" font-family="Helvetica,sans-Serif" font-size="10.00">+ resume()</text>
<text text-anchor="start" x="12.5" y="-472.5" font-family="Helvetica,sans-Serif" font-size="10.00"># DescriptorEventReceiver()</text>
<text text-anchor="start" x="12.5" y="-461.5" font-family="Helvetica,sans-Serif" font-size="10.00"># ~DescriptorEventReceiver()</text>
<text text-anchor="start" x="12.5" y="-450.5" font-family="Helvetica,sans-Serif" font-size="10.00"># setTimeout()</text>
<text text-anchor="start" x="12.5" y="-439.5" font-family="Helvetica,sans-Serif" font-size="10.00"># isEnabled()</text>
<text text-anchor="start" x="12.5" y="-428.5" font-family="Helvetica,sans-Serif" font-size="10.00"># isSuspended()</text>
<text text-anchor="start" x="12.5" y="-417.5" font-family="Helvetica,sans-Serif" font-size="10.00">&#45; dispatchEvent()</text>
<text text-anchor="start" x="12.5" y="-406.5" font-family="Helvetica,sans-Serif" font-size="10.00">&#45; timeoutEvent()</text>
<text text-anchor="start" x="12.5" y="-395.5" font-family="Helvetica,sans-Serif" font-size="10.00">&#45; enabled()</text>
<text text-anchor="start" x="12.5" y="-384.5" font-family="Helvetica,sans-Serif" font-size="10.00">&#45; disabled()</text>
<text text-anchor="start" x="12.5" y="-373.5" font-family="Helvetica,sans-Serif" font-size="10.00">&#45; suspended()</text>
<text text-anchor="start" x="12.5" y="-362.5" font-family="Helvetica,sans-Serif" font-size="10.00">&#45; resumed()</text>
<text text-anchor="start" x="12.5" y="-351.5" font-family="Helvetica,sans-Serif" font-size="10.00">&#45; getTimeout()</text>
<text text-anchor="start" x="12.5" y="-340.5" font-family="Helvetica,sans-Serif" font-size="10.00">&#45; getLastTriggered()</text>
<text text-anchor="start" x="12.5" y="-329.5" font-family="Helvetica,sans-Serif" font-size="10.00">&#45; triggered()</text>
<text text-anchor="start" x="12.5" y="-318.5" font-family="Helvetica,sans-Serif" font-size="10.00">&#45; unobserved()</text>
</a>
</g>
</g>
<!-- Node3&#45;&gt;Node2 -->
<g id="edge2" class="edge">
<title>Node3&#45;&gt;Node2</title>
<path fill="none" stroke="midnightblue" d="M77.5,-301.2C77.5,-291.29 77.5,-281.99 77.5,-273.67"/>
<polygon fill="none" stroke="midnightblue" points="74,-301.3 77.5,-311.3 81,-301.3 74,-301.3"/>
</g>
<!-- Node4 -->
<g id="node4" class="node">
<title>Node4</title>
<g id="a_node4"><a xlink:href="classnet_1_1_observation_counter.html" target="_top" xlink:title=" ">
<polygon fill="white" stroke="black" points="0,-763 0,-831 123,-831 123,-763 0,-763"/>
<text text-anchor="middle" x="61.5" y="-819" font-family="Helvetica,sans-Serif" font-size="10.00">net::ObservationCounter</text>
<polyline fill="none" stroke="black" points="0,-812 123,-812 "/>
<text text-anchor="start" x="8" y="-800" font-family="Helvetica,sans-Serif" font-size="10.00"># observationCounter</text>
<text text-anchor="start" x="8" y="-789" font-family="Helvetica,sans-Serif" font-size="10.00"># lastTriggered</text>
<polyline fill="none" stroke="black" points="0,-782 123,-782 "/>
<text text-anchor="start" x="8" y="-770" font-family="Helvetica,sans-Serif" font-size="10.00">+ isObserved()</text>
</a>
</g>
</g>
<!-- Node4&#45;&gt;Node3 -->
<g id="edge3" class="edge">
<title>Node4&#45;&gt;Node3</title>
<path fill="none" stroke="midnightblue" d="M63.64,-752.86C65.19,-721.54 67.39,-677.06 69.59,-632.76"/>
<polygon fill="none" stroke="midnightblue" points="60.14,-752.79 63.14,-762.95 67.13,-753.14 60.14,-752.79"/>
</g>
<!-- Node5 -->
<g id="node5" class="node">
<title>Node5</title>
<g id="a_node5"><a xlink:href="classnet_1_1_descriptor_event_dispatcher.html" target="_top" xlink:title=" ">
<polygon fill="white" stroke="black" points="141.5,-680.5 141.5,-913.5 295.5,-913.5 295.5,-680.5 141.5,-680.5"/>
<text text-anchor="middle" x="218.5" y="-901.5" font-family="Helvetica,sans-Serif" font-size="10.00">net::DescriptorEventDispatcher</text>
<polyline fill="none" stroke="black" points="141.5,-894.5 295.5,-894.5 "/>
<text text-anchor="start" x="149.5" y="-882.5" font-family="Helvetica,sans-Serif" font-size="10.00">&#45; enabledEventReceiver</text>
<text text-anchor="start" x="149.5" y="-871.5" font-family="Helvetica,sans-Serif" font-size="10.00">&#45; observedEventReceiver</text>
<text text-anchor="start" x="149.5" y="-860.5" font-family="Helvetica,sans-Serif" font-size="10.00">&#45; disabledEventReceiver</text>
<text text-anchor="start" x="149.5" y="-849.5" font-family="Helvetica,sans-Serif" font-size="10.00">&#45; eventCounter</text>
<polyline fill="none" stroke="black" points="141.5,-842.5 295.5,-842.5 "/>
<text text-anchor="start" x="149.5" y="-830.5" font-family="Helvetica,sans-Serif" font-size="10.00">+ DescriptorEventDispatcher()</text>
<text text-anchor="start" x="149.5" y="-819.5" font-family="Helvetica,sans-Serif" font-size="10.00">+ DescriptorEventDispatcher()</text>
<text text-anchor="start" x="149.5" y="-808.5" font-family="Helvetica,sans-Serif" font-size="10.00">+ operator=()</text>
<text text-anchor="start" x="149.5" y="-797.5" font-family="Helvetica,sans-Serif" font-size="10.00">+ enable()</text>
<text text-anchor="start" x="149.5" y="-786.5" font-family="Helvetica,sans-Serif" font-size="10.00">+ disable()</text>
<text text-anchor="start" x="149.5" y="-775.5" font-family="Helvetica,sans-Serif" font-size="10.00">+ suspend()</text>
<text text-anchor="start" x="149.5" y="-764.5" font-family="Helvetica,sans-Serif" font-size="10.00">+ resume()</text>
<text text-anchor="start" x="149.5" y="-753.5" font-family="Helvetica,sans-Serif" font-size="10.00">+ getEventCounter()</text>
<text text-anchor="start" x="149.5" y="-742.5" font-family="Helvetica,sans-Serif" font-size="10.00">&#45; getMaxFd()</text>
<text text-anchor="start" x="149.5" y="-731.5" font-family="Helvetica,sans-Serif" font-size="10.00">&#45; dispatchActiveEvents()</text>
<text text-anchor="start" x="149.5" y="-720.5" font-family="Helvetica,sans-Serif" font-size="10.00">&#45; observeEnabledEvents()</text>
<text text-anchor="start" x="149.5" y="-709.5" font-family="Helvetica,sans-Serif" font-size="10.00">&#45; unobserveDisabledEvents()</text>
<text text-anchor="start" x="149.5" y="-698.5" font-family="Helvetica,sans-Serif" font-size="10.00">&#45; releaseUnobservedEvents()</text>
<text text-anchor="start" x="149.5" y="-687.5" font-family="Helvetica,sans-Serif" font-size="10.00">&#45; disableObservedEvents()</text>
</a>
</g>
</g>
<!-- Node5&#45;&gt;Node3 -->
<g id="edge4" class="edge">
<title>Node5&#45;&gt;Node3</title>
<path fill="none" stroke="#404040" d="M167.99,-680.3C162.82,-668.45 157.49,-656.24 152.13,-643.96"/>
<polygon fill="none" stroke="#404040" points="152,-643.67 145.94,-639.77 147.2,-632.67 153.27,-636.57 152,-643.67"/>
<text text-anchor="middle" x="217.5" y="-654" font-family="Helvetica,sans-Serif" font-size="10.00"> &#45;descriptorEventDispatcher</text>
</g>
<!-- Node6 -->
<g id="node6" class="node">
<title>Node6</title>
<g id="a_node6"><a xlink:href="classnet_1_1_descriptor_event_dispatcher_1_1_descriptor_event_receiver_list.html" target="_top" xlink:title=" ">
<polygon fill="white" stroke="black" points="69.5,-994.5 69.5,-1062.5 223.5,-1062.5 223.5,-994.5 69.5,-994.5"/>
<text text-anchor="start" x="77.5" y="-1050.5" font-family="Helvetica,sans-Serif" font-size="10.00">net::DescriptorEventDispatcher</text>
<text text-anchor="middle" x="146.5" y="-1039.5" font-family="Helvetica,sans-Serif" font-size="10.00">::DescriptorEventReceiverList</text>
<polyline fill="none" stroke="black" points="69.5,-1032.5 223.5,-1032.5 "/>
<text text-anchor="middle" x="146.5" y="-1020.5" font-family="Helvetica,sans-Serif" font-size="10.00"> </text>
<polyline fill="none" stroke="black" points="69.5,-1013.5 223.5,-1013.5 "/>
<text text-anchor="start" x="77.5" y="-1001.5" font-family="Helvetica,sans-Serif" font-size="10.00">+ contains()</text>
</a>
</g>
</g>
<!-- Node6&#45;&gt;Node5 -->
<g id="edge5" class="edge">
<title>Node6&#45;&gt;Node5</title>
<path fill="none" stroke="#404040" d="M143.03,-994.3C142.03,-975.7 142.35,-952.25 147.5,-932 148.08,-929.7 148.71,-927.4 149.39,-925.1"/>
<polygon fill="none" stroke="#404040" points="149.41,-925.02 147.44,-918.08 153.09,-913.6 155.06,-920.54 149.41,-925.02"/>
<text text-anchor="middle" x="208" y="-935" font-family="Helvetica,sans-Serif" font-size="10.00"> &#45;unobservedEventReceiver</text>
</g>
<!-- Node7 -->
<g id="node7" class="node">
<title>Node7</title>
<g id="a_node7"><a xlink:title=" ">
<polygon fill="white" stroke="#bfbfbf" points="82.5,-1133.5 82.5,-1201.5 210.5,-1201.5 210.5,-1133.5 82.5,-1133.5"/>
<text text-anchor="start" x="90.5" y="-1189.5" font-family="Helvetica,sans-Serif" font-size="10.00">std::list&lt; DescriptorEvent</text>
<text text-anchor="middle" x="146.5" y="-1178.5" font-family="Helvetica,sans-Serif" font-size="10.00">Receiver * &gt;</text>
<polyline fill="none" stroke="#bfbfbf" points="82.5,-1171.5 210.5,-1171.5 "/>
<text text-anchor="middle" x="146.5" y="-1159.5" font-family="Helvetica,sans-Serif" font-size="10.00"> </text>
<polyline fill="none" stroke="#bfbfbf" points="82.5,-1152.5 210.5,-1152.5 "/>
<text text-anchor="middle" x="146.5" y="-1140.5" font-family="Helvetica,sans-Serif" font-size="10.00"> </text>
</a>
</g>
</g>
<!-- Node7&#45;&gt;Node6 -->
<g id="edge6" class="edge">
<title>Node7&#45;&gt;Node6</title>
<path fill="none" stroke="midnightblue" d="M146.5,-1123.17C146.5,-1103.66 146.5,-1080.99 146.5,-1062.83"/>
<polygon fill="none" stroke="midnightblue" points="143,-1123.34 146.5,-1133.34 150,-1123.34 143,-1123.34"/>
</g>
<!-- Node8 -->
<g id="node8" class="node">
<title>Node8</title>
<g id="a_node8"><a xlink:href="classnet_1_1_fd_set.html" target="_top" xlink:title=" ">
<polygon fill="white" stroke="black" points="256.5,-961.5 256.5,-1095.5 324.5,-1095.5 324.5,-961.5 256.5,-961.5"/>
<text text-anchor="middle" x="290.5" y="-1083.5" font-family="Helvetica,sans-Serif" font-size="10.00">net::FdSet</text>
<polyline fill="none" stroke="black" points="256.5,-1076.5 324.5,-1076.5 "/>
<text text-anchor="start" x="264.5" y="-1064.5" font-family="Helvetica,sans-Serif" font-size="10.00"># registered</text>
<text text-anchor="start" x="264.5" y="-1053.5" font-family="Helvetica,sans-Serif" font-size="10.00"># active</text>
<polyline fill="none" stroke="black" points="256.5,-1046.5 324.5,-1046.5 "/>
<text text-anchor="start" x="264.5" y="-1034.5" font-family="Helvetica,sans-Serif" font-size="10.00">+ FdSet()</text>
<text text-anchor="start" x="264.5" y="-1023.5" font-family="Helvetica,sans-Serif" font-size="10.00">+ set()</text>
<text text-anchor="start" x="264.5" y="-1012.5" font-family="Helvetica,sans-Serif" font-size="10.00">+ clr()</text>
<text text-anchor="start" x="264.5" y="-1001.5" font-family="Helvetica,sans-Serif" font-size="10.00">+ isSet()</text>
<text text-anchor="start" x="264.5" y="-990.5" font-family="Helvetica,sans-Serif" font-size="10.00">+ zero()</text>
<text text-anchor="start" x="264.5" y="-979.5" font-family="Helvetica,sans-Serif" font-size="10.00">+ prepare()</text>
<text text-anchor="start" x="264.5" y="-968.5" font-family="Helvetica,sans-Serif" font-size="10.00">+ get()</text>
</a>
</g>
</g>
<!-- Node8&#45;&gt;Node5 -->
<g id="edge7" class="edge">
<title>Node8&#45;&gt;Node5</title>
<path fill="none" stroke="#404040" d="M276.47,-961.45C274.02,-951.52 271.34,-941.45 268.5,-932 267.82,-929.73 267.12,-927.43 266.4,-925.13"/>
<polygon fill="none" stroke="#404040" points="266.34,-924.96 260.7,-920.46 262.68,-913.53 268.32,-918.02 266.34,-924.96"/>
<text text-anchor="middle" x="285.5" y="-935" font-family="Helvetica,sans-Serif" font-size="10.00"> &#45;fdSet</text>
</g>
<!-- Node9 -->
<g id="node9" class="node">
<title>Node9</title>
<g id="a_node9"><a xlink:title=" ">
<polygon fill="white" stroke="#bfbfbf" points="158,-205.5 158,-262.5 211,-262.5 211,-205.5 158,-205.5"/>
<text text-anchor="middle" x="184.5" y="-250.5" font-family="Helvetica,sans-Serif" font-size="10.00">SocketT</text>
<polyline fill="none" stroke="#bfbfbf" points="158,-243.5 211,-243.5 "/>
<text text-anchor="middle" x="184.5" y="-231.5" font-family="Helvetica,sans-Serif" font-size="10.00"> </text>
<polyline fill="none" stroke="#bfbfbf" points="158,-224.5 211,-224.5 "/>
<text text-anchor="middle" x="184.5" y="-212.5" font-family="Helvetica,sans-Serif" font-size="10.00"> </text>
</a>
</g>
</g>
<!-- Node9&#45;&gt;Node1 -->
<g id="edge8" class="edge">
<title>Node9&#45;&gt;Node1</title>
<path fill="none" stroke="midnightblue" d="M171.38,-195.71C167.22,-183.88 162.46,-170.34 157.68,-156.77"/>
<polygon fill="none" stroke="midnightblue" points="168.1,-196.93 174.72,-205.2 174.7,-194.61 168.1,-196.93"/>
</g>
</g>
</svg>
