<?xml version="1.0" encoding="UTF-8" standalone="no"?>
<!DOCTYPE svg PUBLIC "-//W3C//DTD SVG 1.1//EN"
 "http://www.w3.org/Graphics/SVG/1.1/DTD/svg11.dtd">
<!-- Generated by graphviz version 2.43.0 (0)
 -->
<!-- Title: net::socket::bluetooth::rfcomm::tls::SocketServer Pages: 1 -->
<svg width="257pt" height="985pt"
 viewBox="0.00 0.00 257.00 985.00" xmlns="http://www.w3.org/2000/svg" xmlns:xlink="http://www.w3.org/1999/xlink">
<g id="graph0" class="graph" transform="scale(1 1) rotate(0) translate(4 981)">
<title>net::socket::bluetooth::rfcomm::tls::SocketServer</title>
<polygon fill="white" stroke="transparent" points="-4,4 -4,-981 253,-981 253,4 -4,4"/>
<!-- Node1 -->
<g id="node1" class="node">
<title>Node1</title>
<g id="a_node1"><a xlink:title=" ">
<polygon fill="#bfbfbf" stroke="black" points="12.5,-0.5 12.5,-68.5 149.5,-68.5 149.5,-0.5 12.5,-0.5"/>
<text text-anchor="start" x="20.5" y="-56.5" font-family="Helvetica,sans-Serif" font-size="10.00">net::socket::bluetooth</text>
<text text-anchor="middle" x="81" y="-45.5" font-family="Helvetica,sans-Serif" font-size="10.00">::rfcomm::tls::SocketServer</text>
<polyline fill="none" stroke="black" points="12.5,-38.5 149.5,-38.5 "/>
<text text-anchor="middle" x="81" y="-26.5" font-family="Helvetica,sans-Serif" font-size="10.00"> </text>
<polyline fill="none" stroke="black" points="12.5,-19.5 149.5,-19.5 "/>
<text text-anchor="middle" x="81" y="-7.5" font-family="Helvetica,sans-Serif" font-size="10.00"> </text>
</a>
</g>
</g>
<!-- Node2 -->
<g id="node2" class="node">
<title>Node2</title>
<g id="a_node2"><a xlink:href="classnet_1_1socket_1_1stream_1_1tls_1_1_socket_server.html" target="_top" xlink:title=" ">
<polygon fill="white" stroke="black" points="29,-106.5 29,-185.5 133,-185.5 133,-106.5 29,-106.5"/>
<text text-anchor="start" x="37" y="-173.5" font-family="Helvetica,sans-Serif" font-size="10.00">net::socket::stream</text>
<text text-anchor="start" x="37" y="-162.5" font-family="Helvetica,sans-Serif" font-size="10.00">::tls::SocketServer</text>
<text text-anchor="middle" x="81" y="-151.5" font-family="Helvetica,sans-Serif" font-size="10.00">&lt; rfcomm::Socket &gt;</text>
<polyline fill="none" stroke="black" points="29,-144.5 133,-144.5 "/>
<text text-anchor="middle" x="81" y="-132.5" font-family="Helvetica,sans-Serif" font-size="10.00"> </text>
<polyline fill="none" stroke="black" points="29,-125.5 133,-125.5 "/>
<text text-anchor="middle" x="81" y="-113.5" font-family="Helvetica,sans-Serif" font-size="10.00"> </text>
</a>
</g>
</g>
<!-- Node2&#45;&gt;Node1 -->
<g id="edge1" class="edge">
<title>Node2&#45;&gt;Node1</title>
<path fill="none" stroke="midnightblue" d="M81,-96.38C81,-87.02 81,-77.41 81,-68.67"/>
<polygon fill="none" stroke="midnightblue" points="77.5,-96.39 81,-106.39 84.5,-96.39 77.5,-96.39"/>
</g>
<!-- Node3 -->
<g id="node3" class="node">
<title>Node3</title>
<g id="a_node3"><a xlink:href="classnet_1_1socket_1_1stream_1_1_socket_server.html" target="_top" xlink:title=" ">
<polygon fill="white" stroke="black" points="0,-331.5 0,-531.5 130,-531.5 130,-331.5 0,-331.5"/>
<text text-anchor="start" x="8" y="-519.5" font-family="Helvetica,sans-Serif" font-size="10.00">net::socket::stream</text>
<text text-anchor="start" x="8" y="-508.5" font-family="Helvetica,sans-Serif" font-size="10.00">::SocketServer&lt; tls</text>
<text text-anchor="start" x="8" y="-497.5" font-family="Helvetica,sans-Serif" font-size="10.00">::SocketListener&lt; rfcomm</text>
<text text-anchor="middle" x="65" y="-486.5" font-family="Helvetica,sans-Serif" font-size="10.00">::Socket &gt; &gt;</text>
<polyline fill="none" stroke="black" points="0,-479.5 130,-479.5 "/>
<text text-anchor="start" x="8" y="-467.5" font-family="Helvetica,sans-Serif" font-size="10.00">&#45; onConstruct</text>
<text text-anchor="start" x="8" y="-456.5" font-family="Helvetica,sans-Serif" font-size="10.00">&#45; onDestruct</text>
<text text-anchor="start" x="8" y="-445.5" font-family="Helvetica,sans-Serif" font-size="10.00">&#45; onConnect</text>
<text text-anchor="start" x="8" y="-434.5" font-family="Helvetica,sans-Serif" font-size="10.00">&#45; onDisconnect</text>
<text text-anchor="start" x="8" y="-423.5" font-family="Helvetica,sans-Serif" font-size="10.00">&#45; onRead</text>
<text text-anchor="start" x="8" y="-412.5" font-family="Helvetica,sans-Serif" font-size="10.00">&#45; onReadError</text>
<text text-anchor="start" x="8" y="-401.5" font-family="Helvetica,sans-Serif" font-size="10.00">&#45; onWriteError</text>
<text text-anchor="start" x="8" y="-390.5" font-family="Helvetica,sans-Serif" font-size="10.00">&#45; options</text>
<polyline fill="none" stroke="black" points="0,-383.5 130,-383.5 "/>
<text text-anchor="start" x="8" y="-371.5" font-family="Helvetica,sans-Serif" font-size="10.00">+ SocketServer()</text>
<text text-anchor="start" x="8" y="-360.5" font-family="Helvetica,sans-Serif" font-size="10.00">+ SocketServer()</text>
<text text-anchor="start" x="8" y="-349.5" font-family="Helvetica,sans-Serif" font-size="10.00">+ ~SocketServer()</text>
<text text-anchor="start" x="8" y="-338.5" font-family="Helvetica,sans-Serif" font-size="10.00">+ listen()</text>
</a>
</g>
</g>
<!-- Node3&#45;&gt;Node2 -->
<g id="edge2" class="edge">
<title>Node3&#45;&gt;Node2</title>
<path fill="none" stroke="midnightblue" d="M71.17,-321.23C73.87,-273.41 76.86,-220.38 78.83,-185.53"/>
<polygon fill="none" stroke="midnightblue" points="67.67,-321.16 70.6,-331.35 74.65,-321.56 67.67,-321.16"/>
</g>
<!-- Node4 -->
<g id="node4" class="node">
<title>Node4</title>
<g id="a_node4"><a xlink:href="classnet_1_1socket_1_1stream_1_1_socket_server.html" target="_top" xlink:title=" ">
<polygon fill="white" stroke="black" points="27.5,-798.5 27.5,-976.5 198.5,-976.5 198.5,-798.5 27.5,-798.5"/>
<text text-anchor="start" x="35.5" y="-964.5" font-family="Helvetica,sans-Serif" font-size="10.00">net::socket::stream</text>
<text text-anchor="middle" x="113" y="-953.5" font-family="Helvetica,sans-Serif" font-size="10.00">::SocketServer&lt; SocketListenerT &gt;</text>
<polyline fill="none" stroke="black" points="27.5,-946.5 198.5,-946.5 "/>
<text text-anchor="start" x="35.5" y="-934.5" font-family="Helvetica,sans-Serif" font-size="10.00">&#45; onConstruct</text>
<text text-anchor="start" x="35.5" y="-923.5" font-family="Helvetica,sans-Serif" font-size="10.00">&#45; onDestruct</text>
<text text-anchor="start" x="35.5" y="-912.5" font-family="Helvetica,sans-Serif" font-size="10.00">&#45; onConnect</text>
<text text-anchor="start" x="35.5" y="-901.5" font-family="Helvetica,sans-Serif" font-size="10.00">&#45; onDisconnect</text>
<text text-anchor="start" x="35.5" y="-890.5" font-family="Helvetica,sans-Serif" font-size="10.00">&#45; onRead</text>
<text text-anchor="start" x="35.5" y="-879.5" font-family="Helvetica,sans-Serif" font-size="10.00">&#45; onReadError</text>
<text text-anchor="start" x="35.5" y="-868.5" font-family="Helvetica,sans-Serif" font-size="10.00">&#45; onWriteError</text>
<text text-anchor="start" x="35.5" y="-857.5" font-family="Helvetica,sans-Serif" font-size="10.00">&#45; options</text>
<polyline fill="none" stroke="black" points="27.5,-850.5 198.5,-850.5 "/>
<text text-anchor="start" x="35.5" y="-838.5" font-family="Helvetica,sans-Serif" font-size="10.00">+ SocketServer()</text>
<text text-anchor="start" x="35.5" y="-827.5" font-family="Helvetica,sans-Serif" font-size="10.00">+ SocketServer()</text>
<text text-anchor="start" x="35.5" y="-816.5" font-family="Helvetica,sans-Serif" font-size="10.00">+ ~SocketServer()</text>
<text text-anchor="start" x="35.5" y="-805.5" font-family="Helvetica,sans-Serif" font-size="10.00">+ listen()</text>
</a>
</g>
</g>
<!-- Node4&#45;&gt;Node3 -->
<g id="edge3" class="edge">
<title>Node4&#45;&gt;Node3</title>
<path fill="none" stroke="orange" d="M52.73,-788.88C51.73,-785.92 50.81,-782.96 50,-780 27.69,-698.46 34.27,-602.17 44.81,-531.66"/>
<polygon fill="orange" stroke="orange" points="49.47,-790.13 56.24,-798.27 56.02,-787.68 49.47,-790.13"/>
<text text-anchor="start" x="50" y="-772" font-family="Helvetica,sans-Serif" font-size="10.00"> &lt; tls::SocketListener</text>
<text text-anchor="middle" x="98.5" y="-761" font-family="Helvetica,sans-Serif" font-size="10.00">&lt; rfcomm::Socket &gt; &gt;</text>
</g>
<!-- Node6 -->
<g id="node6" class="node">
<title>Node6</title>
<g id="a_node6"><a xlink:href="classnet_1_1socket_1_1stream_1_1_socket_server.html" target="_top" xlink:title=" ">
<polygon fill="white" stroke="black" points="89,-550.5 89,-739.5 241,-739.5 241,-550.5 89,-550.5"/>
<text text-anchor="start" x="97" y="-727.5" font-family="Helvetica,sans-Serif" font-size="10.00">net::socket::stream</text>
<text text-anchor="start" x="97" y="-716.5" font-family="Helvetica,sans-Serif" font-size="10.00">::SocketServer&lt; tls</text>
<text text-anchor="middle" x="165" y="-705.5" font-family="Helvetica,sans-Serif" font-size="10.00">::SocketListener&lt; SocketT &gt; &gt;</text>
<polyline fill="none" stroke="black" points="89,-698.5 241,-698.5 "/>
<text text-anchor="start" x="97" y="-686.5" font-family="Helvetica,sans-Serif" font-size="10.00">&#45; onConstruct</text>
<text text-anchor="start" x="97" y="-675.5" font-family="Helvetica,sans-Serif" font-size="10.00">&#45; onDestruct</text>
<text text-anchor="start" x="97" y="-664.5" font-family="Helvetica,sans-Serif" font-size="10.00">&#45; onConnect</text>
<text text-anchor="start" x="97" y="-653.5" font-family="Helvetica,sans-Serif" font-size="10.00">&#45; onDisconnect</text>
<text text-anchor="start" x="97" y="-642.5" font-family="Helvetica,sans-Serif" font-size="10.00">&#45; onRead</text>
<text text-anchor="start" x="97" y="-631.5" font-family="Helvetica,sans-Serif" font-size="10.00">&#45; onReadError</text>
<text text-anchor="start" x="97" y="-620.5" font-family="Helvetica,sans-Serif" font-size="10.00">&#45; onWriteError</text>
<text text-anchor="start" x="97" y="-609.5" font-family="Helvetica,sans-Serif" font-size="10.00">&#45; options</text>
<polyline fill="none" stroke="black" points="89,-602.5 241,-602.5 "/>
<text text-anchor="start" x="97" y="-590.5" font-family="Helvetica,sans-Serif" font-size="10.00">+ SocketServer()</text>
<text text-anchor="start" x="97" y="-579.5" font-family="Helvetica,sans-Serif" font-size="10.00">+ SocketServer()</text>
<text text-anchor="start" x="97" y="-568.5" font-family="Helvetica,sans-Serif" font-size="10.00">+ ~SocketServer()</text>
<text text-anchor="start" x="97" y="-557.5" font-family="Helvetica,sans-Serif" font-size="10.00">+ listen()</text>
</a>
</g>
</g>
<!-- Node4&#45;&gt;Node6 -->
<g id="edge6" class="edge">
<title>Node4&#45;&gt;Node6</title>
<path fill="none" stroke="orange" d="M148.92,-788.55C149.66,-785.68 150.36,-782.83 151,-780 153.93,-767.11 156.25,-753.39 158.08,-739.82"/>
<polygon fill="orange" stroke="orange" points="145.51,-787.78 146.25,-798.35 152.26,-789.62 145.51,-787.78"/>
<text text-anchor="start" x="155" y="-772" font-family="Helvetica,sans-Serif" font-size="10.00"> &lt; tls::SocketListener</text>
<text text-anchor="middle" x="202" y="-761" font-family="Helvetica,sans-Serif" font-size="10.00">&lt; SocketT &gt; &gt;</text>
</g>
<!-- Node5 -->
<g id="node5" class="node">
<title>Node5</title>
<g id="a_node5"><a xlink:href="classnet_1_1socket_1_1stream_1_1tls_1_1_socket_server.html" target="_top" xlink:title=" ">
<polygon fill="white" stroke="black" points="98.5,-233.5 98.5,-312.5 199.5,-312.5 199.5,-233.5 98.5,-233.5"/>
<text text-anchor="start" x="106.5" y="-300.5" font-family="Helvetica,sans-Serif" font-size="10.00">net::socket::stream</text>
<text text-anchor="start" x="106.5" y="-289.5" font-family="Helvetica,sans-Serif" font-size="10.00">::tls::SocketServer</text>
<text text-anchor="middle" x="149" y="-278.5" font-family="Helvetica,sans-Serif" font-size="10.00">&lt; SocketT &gt;</text>
<polyline fill="none" stroke="black" points="98.5,-271.5 199.5,-271.5 "/>
<text text-anchor="middle" x="149" y="-259.5" font-family="Helvetica,sans-Serif" font-size="10.00"> </text>
<polyline fill="none" stroke="black" points="98.5,-252.5 199.5,-252.5 "/>
<text text-anchor="middle" x="149" y="-240.5" font-family="Helvetica,sans-Serif" font-size="10.00"> </text>
</a>
</g>
</g>
<!-- Node5&#45;&gt;Node2 -->
<g id="edge4" class="edge">
<title>Node5&#45;&gt;Node2</title>
<path fill="none" stroke="orange" d="M123.07,-224.34C116.11,-211.54 108.67,-197.86 102,-185.61"/>
<polygon fill="orange" stroke="orange" points="120.19,-226.36 128.04,-233.48 126.34,-223.02 120.19,-226.36"/>
<text text-anchor="middle" x="162.5" y="-207" font-family="Helvetica,sans-Serif" font-size="10.00"> &lt; rfcomm::Socket &gt;</text>
</g>
<!-- Node6&#45;&gt;Node5 -->
<g id="edge5" class="edge">
<title>Node6&#45;&gt;Node5</title>
<path fill="none" stroke="midnightblue" d="M160.51,-540.1C157.23,-464.38 152.98,-366.05 150.67,-312.65"/>
<polygon fill="none" stroke="midnightblue" points="157.01,-540.32 160.94,-550.16 164.01,-540.01 157.01,-540.32"/>
</g>
</g>
</svg>
