<?xml version="1.0" encoding="UTF-8" standalone="no"?>
<!DOCTYPE svg PUBLIC "-//W3C//DTD SVG 1.1//EN"
 "http://www.w3.org/Graphics/SVG/1.1/DTD/svg11.dtd">
<!-- Generated by graphviz version 2.43.0 (0)
 -->
<!-- Title: net::socket::stream::tls::SocketConnector&lt; SocketT &gt; Pages: 1 -->
<svg width="297pt" height="1365pt"
 viewBox="0.00 0.00 296.50 1365.00" xmlns="http://www.w3.org/2000/svg" xmlns:xlink="http://www.w3.org/1999/xlink">
<g id="graph0" class="graph" transform="scale(1 1) rotate(0) translate(4 1361)">
<title>net::socket::stream::tls::SocketConnector&lt; SocketT &gt;</title>
<polygon fill="white" stroke="transparent" points="-4,4 -4,-1361 292.5,-1361 292.5,4 -4,4"/>
<!-- Node1 -->
<g id="node1" class="node">
<title>Node1</title>
<g id="a_node1"><a xlink:title=" ">
<polygon fill="#bfbfbf" stroke="black" points="41,-0.5 41,-112.5 156,-112.5 156,-0.5 41,-0.5"/>
<text text-anchor="start" x="49" y="-100.5" font-family="Helvetica,sans-Serif" font-size="10.00">net::socket::stream</text>
<text text-anchor="start" x="49" y="-89.5" font-family="Helvetica,sans-Serif" font-size="10.00">::tls::SocketConnector</text>
<text text-anchor="middle" x="98.5" y="-78.5" font-family="Helvetica,sans-Serif" font-size="10.00">&lt; SocketT &gt;</text>
<polyline fill="none" stroke="black" points="41,-71.5 156,-71.5 "/>
<text text-anchor="start" x="49" y="-59.5" font-family="Helvetica,sans-Serif" font-size="10.00">&#45; ctx</text>
<polyline fill="none" stroke="black" points="41,-52.5 156,-52.5 "/>
<text text-anchor="start" x="49" y="-40.5" font-family="Helvetica,sans-Serif" font-size="10.00">+ SocketConnector()</text>
<text text-anchor="start" x="49" y="-29.5" font-family="Helvetica,sans-Serif" font-size="10.00">+ ~SocketConnector()</text>
<text text-anchor="start" x="49" y="-18.5" font-family="Helvetica,sans-Serif" font-size="10.00">+ connect()</text>
<text text-anchor="start" x="49" y="-7.5" font-family="Helvetica,sans-Serif" font-size="10.00">&#45; connectEvent()</text>
</a>
</g>
</g>
<!-- Node2 -->
<g id="node2" class="node">
<title>Node2</title>
<g id="a_node2"><a xlink:href="classnet_1_1socket_1_1stream_1_1_socket_connector.html" target="_top" xlink:title=" ">
<polygon fill="white" stroke="black" points="30,-150.5 30,-438.5 167,-438.5 167,-150.5 30,-150.5"/>
<text text-anchor="start" x="38" y="-426.5" font-family="Helvetica,sans-Serif" font-size="10.00">net::socket::stream</text>
<text text-anchor="start" x="38" y="-415.5" font-family="Helvetica,sans-Serif" font-size="10.00">::SocketConnector&lt; stream</text>
<text text-anchor="start" x="38" y="-404.5" font-family="Helvetica,sans-Serif" font-size="10.00">::tls::SocketConnection</text>
<text text-anchor="middle" x="98.5" y="-393.5" font-family="Helvetica,sans-Serif" font-size="10.00">&lt; SocketT &gt; &gt;</text>
<polyline fill="none" stroke="black" points="30,-386.5 167,-386.5 "/>
<text text-anchor="start" x="38" y="-374.5" font-family="Helvetica,sans-Serif" font-size="10.00"># onError</text>
<text text-anchor="start" x="38" y="-363.5" font-family="Helvetica,sans-Serif" font-size="10.00">&#45; onConstruct</text>
<text text-anchor="start" x="38" y="-352.5" font-family="Helvetica,sans-Serif" font-size="10.00">&#45; onDestruct</text>
<text text-anchor="start" x="38" y="-341.5" font-family="Helvetica,sans-Serif" font-size="10.00">&#45; onConnect</text>
<text text-anchor="start" x="38" y="-330.5" font-family="Helvetica,sans-Serif" font-size="10.00">&#45; onDisconnect</text>
<text text-anchor="start" x="38" y="-319.5" font-family="Helvetica,sans-Serif" font-size="10.00">&#45; onRead</text>
<text text-anchor="start" x="38" y="-308.5" font-family="Helvetica,sans-Serif" font-size="10.00">&#45; onReadError</text>
<text text-anchor="start" x="38" y="-297.5" font-family="Helvetica,sans-Serif" font-size="10.00">&#45; onWriteError</text>
<text text-anchor="start" x="38" y="-286.5" font-family="Helvetica,sans-Serif" font-size="10.00">&#45; socketConnection</text>
<text text-anchor="start" x="38" y="-275.5" font-family="Helvetica,sans-Serif" font-size="10.00">&#45; options</text>
<polyline fill="none" stroke="black" points="30,-268.5 167,-268.5 "/>
<text text-anchor="start" x="38" y="-256.5" font-family="Helvetica,sans-Serif" font-size="10.00">+ SocketConnector()</text>
<text text-anchor="start" x="38" y="-245.5" font-family="Helvetica,sans-Serif" font-size="10.00">+ SocketConnector()</text>
<text text-anchor="start" x="38" y="-234.5" font-family="Helvetica,sans-Serif" font-size="10.00">+ SocketConnector()</text>
<text text-anchor="start" x="38" y="-223.5" font-family="Helvetica,sans-Serif" font-size="10.00">+ operator=()</text>
<text text-anchor="start" x="38" y="-212.5" font-family="Helvetica,sans-Serif" font-size="10.00">+ ~SocketConnector()</text>
<text text-anchor="start" x="38" y="-201.5" font-family="Helvetica,sans-Serif" font-size="10.00">+ connect()</text>
<text text-anchor="start" x="38" y="-190.5" font-family="Helvetica,sans-Serif" font-size="10.00"># tryToCompleteConnect()</text>
<text text-anchor="start" x="38" y="-179.5" font-family="Helvetica,sans-Serif" font-size="10.00">&#45; connectEvent()</text>
<text text-anchor="start" x="38" y="-168.5" font-family="Helvetica,sans-Serif" font-size="10.00">&#45; unobserved()</text>
<text text-anchor="start" x="38" y="-157.5" font-family="Helvetica,sans-Serif" font-size="10.00">&#45; destruct()</text>
</a>
</g>
</g>
<!-- Node2&#45;&gt;Node1 -->
<g id="edge1" class="edge">
<title>Node2&#45;&gt;Node1</title>
<path fill="none" stroke="midnightblue" d="M98.5,-140.28C98.5,-130.64 98.5,-121.35 98.5,-112.69"/>
<polygon fill="none" stroke="midnightblue" points="95,-140.43 98.5,-150.43 102,-140.43 95,-140.43"/>
</g>
<!-- Node3 -->
<g id="node3" class="node">
<title>Node3</title>
<g id="a_node3"><a xlink:href="classnet_1_1_connect_event_receiver.html" target="_top" xlink:title=" ">
<polygon fill="white" stroke="black" points="147,-801.5 147,-880.5 284,-880.5 284,-801.5 147,-801.5"/>
<text text-anchor="middle" x="215.5" y="-868.5" font-family="Helvetica,sans-Serif" font-size="10.00">net::ConnectEventReceiver</text>
<polyline fill="none" stroke="black" points="147,-861.5 284,-861.5 "/>
<text text-anchor="middle" x="215.5" y="-849.5" font-family="Helvetica,sans-Serif" font-size="10.00"> </text>
<polyline fill="none" stroke="black" points="147,-842.5 284,-842.5 "/>
<text text-anchor="start" x="155" y="-830.5" font-family="Helvetica,sans-Serif" font-size="10.00"># ConnectEventReceiver()</text>
<text text-anchor="start" x="155" y="-819.5" font-family="Helvetica,sans-Serif" font-size="10.00"># connectEvent()</text>
<text text-anchor="start" x="155" y="-808.5" font-family="Helvetica,sans-Serif" font-size="10.00">&#45; dispatchEvent()</text>
</a>
</g>
</g>
<!-- Node3&#45;&gt;Node2 -->
<g id="edge2" class="edge">
<title>Node3&#45;&gt;Node2</title>
<path fill="none" stroke="midnightblue" d="M232,-791.86C254.76,-717.33 288.3,-570.75 244.5,-457 228.68,-415.91 197.02,-378.77 167.22,-350.5"/>
<polygon fill="none" stroke="midnightblue" points="228.65,-790.86 229.01,-801.45 235.33,-792.95 228.65,-790.86"/>
</g>
<!-- Node7 -->
<g id="node7" class="node">
<title>Node7</title>
<g id="a_node7"><a xlink:href="classnet_1_1socket_1_1stream_1_1_socket_connector.html" target="_top" xlink:title=" ">
<polygon fill="white" stroke="black" points="27,-497.5 27,-763.5 230,-763.5 230,-497.5 27,-497.5"/>
<text text-anchor="start" x="35" y="-751.5" font-family="Helvetica,sans-Serif" font-size="10.00">net::socket::stream</text>
<text text-anchor="middle" x="128.5" y="-740.5" font-family="Helvetica,sans-Serif" font-size="10.00">::SocketConnector&lt; SocketConnectionT &gt;</text>
<polyline fill="none" stroke="black" points="27,-733.5 230,-733.5 "/>
<text text-anchor="start" x="35" y="-721.5" font-family="Helvetica,sans-Serif" font-size="10.00"># onError</text>
<text text-anchor="start" x="35" y="-710.5" font-family="Helvetica,sans-Serif" font-size="10.00">&#45; onConstruct</text>
<text text-anchor="start" x="35" y="-699.5" font-family="Helvetica,sans-Serif" font-size="10.00">&#45; onDestruct</text>
<text text-anchor="start" x="35" y="-688.5" font-family="Helvetica,sans-Serif" font-size="10.00">&#45; onConnect</text>
<text text-anchor="start" x="35" y="-677.5" font-family="Helvetica,sans-Serif" font-size="10.00">&#45; onDisconnect</text>
<text text-anchor="start" x="35" y="-666.5" font-family="Helvetica,sans-Serif" font-size="10.00">&#45; onRead</text>
<text text-anchor="start" x="35" y="-655.5" font-family="Helvetica,sans-Serif" font-size="10.00">&#45; onReadError</text>
<text text-anchor="start" x="35" y="-644.5" font-family="Helvetica,sans-Serif" font-size="10.00">&#45; onWriteError</text>
<text text-anchor="start" x="35" y="-633.5" font-family="Helvetica,sans-Serif" font-size="10.00">&#45; socketConnection</text>
<text text-anchor="start" x="35" y="-622.5" font-family="Helvetica,sans-Serif" font-size="10.00">&#45; options</text>
<polyline fill="none" stroke="black" points="27,-615.5 230,-615.5 "/>
<text text-anchor="start" x="35" y="-603.5" font-family="Helvetica,sans-Serif" font-size="10.00">+ SocketConnector()</text>
<text text-anchor="start" x="35" y="-592.5" font-family="Helvetica,sans-Serif" font-size="10.00">+ SocketConnector()</text>
<text text-anchor="start" x="35" y="-581.5" font-family="Helvetica,sans-Serif" font-size="10.00">+ SocketConnector()</text>
<text text-anchor="start" x="35" y="-570.5" font-family="Helvetica,sans-Serif" font-size="10.00">+ operator=()</text>
<text text-anchor="start" x="35" y="-559.5" font-family="Helvetica,sans-Serif" font-size="10.00">+ ~SocketConnector()</text>
<text text-anchor="start" x="35" y="-548.5" font-family="Helvetica,sans-Serif" font-size="10.00">+ connect()</text>
<text text-anchor="start" x="35" y="-537.5" font-family="Helvetica,sans-Serif" font-size="10.00"># tryToCompleteConnect()</text>
<text text-anchor="start" x="35" y="-526.5" font-family="Helvetica,sans-Serif" font-size="10.00">&#45; connectEvent()</text>
<text text-anchor="start" x="35" y="-515.5" font-family="Helvetica,sans-Serif" font-size="10.00">&#45; unobserved()</text>
<text text-anchor="start" x="35" y="-504.5" font-family="Helvetica,sans-Serif" font-size="10.00">&#45; destruct()</text>
</a>
</g>
</g>
<!-- Node3&#45;&gt;Node7 -->
<g id="edge7" class="edge">
<title>Node3&#45;&gt;Node7</title>
<path fill="none" stroke="midnightblue" d="M195.48,-792.02C191.8,-783.19 187.79,-773.6 183.64,-763.64"/>
<polygon fill="none" stroke="midnightblue" points="192.26,-793.39 199.34,-801.27 198.72,-790.69 192.26,-793.39"/>
</g>
<!-- Node4 -->
<g id="node4" class="node">
<title>Node4</title>
<g id="a_node4"><a xlink:href="classnet_1_1_descriptor_event_receiver.html" target="_top" xlink:title=" ">
<polygon fill="white" stroke="black" points="142.5,-918.5 142.5,-1250.5 288.5,-1250.5 288.5,-918.5 142.5,-918.5"/>
<text text-anchor="middle" x="215.5" y="-1238.5" font-family="Helvetica,sans-Serif" font-size="10.00">net::DescriptorEventReceiver</text>
<polyline fill="none" stroke="black" points="142.5,-1231.5 288.5,-1231.5 "/>
<text text-anchor="start" x="150.5" y="-1219.5" font-family="Helvetica,sans-Serif" font-size="10.00">&#45; descriptorEventDispatcher</text>
<text text-anchor="start" x="150.5" y="-1208.5" font-family="Helvetica,sans-Serif" font-size="10.00">&#45; fd</text>
<text text-anchor="start" x="150.5" y="-1197.5" font-family="Helvetica,sans-Serif" font-size="10.00">&#45; _enabled</text>
<text text-anchor="start" x="150.5" y="-1186.5" font-family="Helvetica,sans-Serif" font-size="10.00">&#45; _suspended</text>
<text text-anchor="start" x="150.5" y="-1175.5" font-family="Helvetica,sans-Serif" font-size="10.00">&#45; maxInactivity</text>
<text text-anchor="start" x="150.5" y="-1164.5" font-family="Helvetica,sans-Serif" font-size="10.00">&#45; initialTimeout</text>
<polyline fill="none" stroke="black" points="142.5,-1157.5 288.5,-1157.5 "/>
<text text-anchor="start" x="150.5" y="-1145.5" font-family="Helvetica,sans-Serif" font-size="10.00">+ DescriptorEventReceiver()</text>
<text text-anchor="start" x="150.5" y="-1134.5" font-family="Helvetica,sans-Serif" font-size="10.00">+ operator=()</text>
<text text-anchor="start" x="150.5" y="-1123.5" font-family="Helvetica,sans-Serif" font-size="10.00">+ enable()</text>
<text text-anchor="start" x="150.5" y="-1112.5" font-family="Helvetica,sans-Serif" font-size="10.00">+ disable()</text>
<text text-anchor="start" x="150.5" y="-1101.5" font-family="Helvetica,sans-Serif" font-size="10.00">+ suspend()</text>
<text text-anchor="start" x="150.5" y="-1090.5" font-family="Helvetica,sans-Serif" font-size="10.00">+ resume()</text>
<text text-anchor="start" x="150.5" y="-1079.5" font-family="Helvetica,sans-Serif" font-size="10.00"># DescriptorEventReceiver()</text>
<text text-anchor="start" x="150.5" y="-1068.5" font-family="Helvetica,sans-Serif" font-size="10.00"># ~DescriptorEventReceiver()</text>
<text text-anchor="start" x="150.5" y="-1057.5" font-family="Helvetica,sans-Serif" font-size="10.00"># setTimeout()</text>
<text text-anchor="start" x="150.5" y="-1046.5" font-family="Helvetica,sans-Serif" font-size="10.00"># isEnabled()</text>
<text text-anchor="start" x="150.5" y="-1035.5" font-family="Helvetica,sans-Serif" font-size="10.00"># isSuspended()</text>
<text text-anchor="start" x="150.5" y="-1024.5" font-family="Helvetica,sans-Serif" font-size="10.00">&#45; dispatchEvent()</text>
<text text-anchor="start" x="150.5" y="-1013.5" font-family="Helvetica,sans-Serif" font-size="10.00">&#45; timeoutEvent()</text>
<text text-anchor="start" x="150.5" y="-1002.5" font-family="Helvetica,sans-Serif" font-size="10.00">&#45; enabled()</text>
<text text-anchor="start" x="150.5" y="-991.5" font-family="Helvetica,sans-Serif" font-size="10.00">&#45; disabled()</text>
<text text-anchor="start" x="150.5" y="-980.5" font-family="Helvetica,sans-Serif" font-size="10.00">&#45; suspended()</text>
<text text-anchor="start" x="150.5" y="-969.5" font-family="Helvetica,sans-Serif" font-size="10.00">&#45; resumed()</text>
<text text-anchor="start" x="150.5" y="-958.5" font-family="Helvetica,sans-Serif" font-size="10.00">&#45; getTimeout()</text>
<text text-anchor="start" x="150.5" y="-947.5" font-family="Helvetica,sans-Serif" font-size="10.00">&#45; getLastTriggered()</text>
<text text-anchor="start" x="150.5" y="-936.5" font-family="Helvetica,sans-Serif" font-size="10.00">&#45; triggered()</text>
<text text-anchor="start" x="150.5" y="-925.5" font-family="Helvetica,sans-Serif" font-size="10.00">&#45; unobserved()</text>
</a>
</g>
</g>
<!-- Node4&#45;&gt;Node3 -->
<g id="edge3" class="edge">
<title>Node4&#45;&gt;Node3</title>
<path fill="none" stroke="midnightblue" d="M215.5,-908.27C215.5,-898.32 215.5,-889 215.5,-880.67"/>
<polygon fill="none" stroke="midnightblue" points="212,-908.41 215.5,-918.41 219,-908.41 212,-908.41"/>
</g>
<!-- Node5 -->
<g id="node5" class="node">
<title>Node5</title>
<g id="a_node5"><a xlink:href="classnet_1_1_observation_counter.html" target="_top" xlink:title=" ">
<polygon fill="white" stroke="black" points="154,-1288.5 154,-1356.5 277,-1356.5 277,-1288.5 154,-1288.5"/>
<text text-anchor="middle" x="215.5" y="-1344.5" font-family="Helvetica,sans-Serif" font-size="10.00">net::ObservationCounter</text>
<polyline fill="none" stroke="black" points="154,-1337.5 277,-1337.5 "/>
<text text-anchor="start" x="162" y="-1325.5" font-family="Helvetica,sans-Serif" font-size="10.00"># observationCounter</text>
<text text-anchor="start" x="162" y="-1314.5" font-family="Helvetica,sans-Serif" font-size="10.00"># lastTriggered</text>
<polyline fill="none" stroke="black" points="154,-1307.5 277,-1307.5 "/>
<text text-anchor="start" x="162" y="-1295.5" font-family="Helvetica,sans-Serif" font-size="10.00">+ isObserved()</text>
</a>
</g>
</g>
<!-- Node5&#45;&gt;Node4 -->
<g id="edge4" class="edge">
<title>Node5&#45;&gt;Node4</title>
<path fill="none" stroke="midnightblue" d="M215.5,-1278.2C215.5,-1269.73 215.5,-1260.39 215.5,-1250.53"/>
<polygon fill="none" stroke="midnightblue" points="212,-1278.44 215.5,-1288.44 219,-1278.44 212,-1278.44"/>
</g>
<!-- Node6 -->
<g id="node6" class="node">
<title>Node6</title>
<g id="a_node6"><a xlink:title=" ">
<polygon fill="white" stroke="#bfbfbf" points="0,-807 0,-875 107,-875 107,-807 0,-807"/>
<text text-anchor="start" x="8" y="-863" font-family="Helvetica,sans-Serif" font-size="10.00">SocketConnectionT::</text>
<text text-anchor="middle" x="53.5" y="-852" font-family="Helvetica,sans-Serif" font-size="10.00">Socket</text>
<polyline fill="none" stroke="#bfbfbf" points="0,-845 107,-845 "/>
<text text-anchor="middle" x="53.5" y="-833" font-family="Helvetica,sans-Serif" font-size="10.00"> </text>
<polyline fill="none" stroke="#bfbfbf" points="0,-826 107,-826 "/>
<text text-anchor="middle" x="53.5" y="-814" font-family="Helvetica,sans-Serif" font-size="10.00"> </text>
</a>
</g>
</g>
<!-- Node6&#45;&gt;Node2 -->
<g id="edge5" class="edge">
<title>Node6&#45;&gt;Node2</title>
<path fill="none" stroke="midnightblue" d="M30.09,-797.59C25.3,-786.93 20.98,-775.3 18.5,-764 -6.91,-648.09 -3.79,-613.55 18.5,-497 22.19,-477.68 27.71,-457.86 34.16,-438.54"/>
<polygon fill="none" stroke="midnightblue" points="26.94,-799.12 34.37,-806.67 33.27,-796.13 26.94,-799.12"/>
</g>
<!-- Node6&#45;&gt;Node7 -->
<g id="edge8" class="edge">
<title>Node6&#45;&gt;Node7</title>
<path fill="none" stroke="midnightblue" d="M68.78,-797.52C72.47,-787.25 76.62,-775.73 80.96,-763.67"/>
<polygon fill="none" stroke="midnightblue" points="65.48,-796.37 65.38,-806.96 72.06,-798.74 65.48,-796.37"/>
</g>
<!-- Node7&#45;&gt;Node2 -->
<g id="edge6" class="edge">
<title>Node7&#45;&gt;Node2</title>
<path fill="none" stroke="orange" d="M100.37,-487.16C100.06,-484.42 99.77,-481.7 99.5,-479 98.22,-466 97.33,-452.46 96.73,-438.88"/>
<polygon fill="orange" stroke="orange" points="96.9,-487.66 101.59,-497.15 103.85,-486.8 96.9,-487.66"/>
<text text-anchor="start" x="99.5" y="-471" font-family="Helvetica,sans-Serif" font-size="10.00"> &lt; stream::tls::SocketConnection</text>
<text text-anchor="middle" x="172" y="-460" font-family="Helvetica,sans-Serif" font-size="10.00">&lt; SocketT &gt; &gt;</text>
</g>
</g>
</svg>
