<?xml version="1.0" encoding="UTF-8" standalone="no"?>
<!DOCTYPE svg PUBLIC "-//W3C//DTD SVG 1.1//EN"
 "http://www.w3.org/Graphics/SVG/1.1/DTD/svg11.dtd">
<!-- Generated by graphviz version 2.43.0 (0)
 -->
<!-- Title: web::ws::WSContext::onReceiveFromPeer Pages: 1 -->
<svg width="573pt" height="372pt"
 viewBox="0.00 0.00 573.00 372.00" xmlns="http://www.w3.org/2000/svg" xmlns:xlink="http://www.w3.org/1999/xlink">
<g id="graph0" class="graph" transform="scale(1 1) rotate(0) translate(4 368)">
<title>web::ws::WSContext::onReceiveFromPeer</title>
<polygon fill="white" stroke="transparent" points="-4,4 -4,-368 569,-368 569,4 -4,4"/>
<!-- Node1 -->
<g id="node1" class="node">
<title>Node1</title>
<g id="a_node1"><a xlink:title=" ">
<polygon fill="#bfbfbf" stroke="black" points="0,-161.5 0,-191.5 112,-191.5 112,-161.5 0,-161.5"/>
<text text-anchor="start" x="8" y="-179.5" font-family="Helvetica,sans-Serif" font-size="10.00">web::ws::WSContext</text>
<text text-anchor="middle" x="56" y="-168.5" font-family="Helvetica,sans-Serif" font-size="10.00">::onReceiveFromPeer</text>
</a>
</g>
</g>
<!-- Node2 -->
<g id="node2" class="node">
<title>Node2</title>
<g id="a_node2"><a xlink:href="classweb_1_1ws_1_1_w_s_receiver.html#a0c38eef97caaa9090212d8f55ea8d401" target="_top" xlink:title=" ">
<polygon fill="white" stroke="black" points="148,-161.5 148,-191.5 263,-191.5 263,-161.5 148,-161.5"/>
<text text-anchor="start" x="156" y="-179.5" font-family="Helvetica,sans-Serif" font-size="10.00">web::ws::WSReceiver</text>
<text text-anchor="middle" x="205.5" y="-168.5" font-family="Helvetica,sans-Serif" font-size="10.00">::receive</text>
</a>
</g>
</g>
<!-- Node1&#45;&gt;Node2 -->
<g id="edge1" class="edge">
<title>Node1&#45;&gt;Node2</title>
<path fill="none" stroke="midnightblue" d="M112.34,-176.5C120.6,-176.5 129.18,-176.5 137.64,-176.5"/>
<polygon fill="midnightblue" stroke="midnightblue" points="137.86,-180 147.86,-176.5 137.86,-173 137.86,-180"/>
</g>
<!-- Node3 -->
<g id="node3" class="node">
<title>Node3</title>
<g id="a_node3"><a xlink:href="classweb_1_1ws_1_1_w_s_receiver.html#a8c521c89826ec9e728e7cb7e16eb145d" target="_top" xlink:title=" ">
<polygon fill="white" stroke="black" points="299,-333.5 299,-363.5 414,-363.5 414,-333.5 299,-333.5"/>
<text text-anchor="start" x="307" y="-351.5" font-family="Helvetica,sans-Serif" font-size="10.00">web::ws::WSReceiver</text>
<text text-anchor="middle" x="356.5" y="-340.5" font-family="Helvetica,sans-Serif" font-size="10.00">::begin</text>
</a>
</g>
</g>
<!-- Node2&#45;&gt;Node3 -->
<g id="edge2" class="edge">
<title>Node2&#45;&gt;Node3</title>
<path fill="none" stroke="midnightblue" d="M212.28,-191.62C224.23,-221.01 254.3,-286.32 299,-324.5 300.49,-325.77 302.06,-326.98 303.68,-328.14"/>
<polygon fill="midnightblue" stroke="midnightblue" points="301.87,-331.14 312.21,-333.45 305.57,-325.19 301.87,-331.14"/>
</g>
<!-- Node4 -->
<g id="node4" class="node">
<title>Node4</title>
<g id="a_node4"><a xlink:href="classweb_1_1ws_1_1_w_s_receiver.html#a6c088c509b1dde5368c7b3a26c78feac" target="_top" xlink:title=" ">
<polygon fill="white" stroke="black" points="299,-284.5 299,-314.5 414,-314.5 414,-284.5 299,-284.5"/>
<text text-anchor="start" x="307" y="-302.5" font-family="Helvetica,sans-Serif" font-size="10.00">web::ws::WSReceiver</text>
<text text-anchor="middle" x="356.5" y="-291.5" font-family="Helvetica,sans-Serif" font-size="10.00">::onMessageError</text>
</a>
</g>
</g>
<!-- Node2&#45;&gt;Node4 -->
<g id="edge3" class="edge">
<title>Node2&#45;&gt;Node4</title>
<path fill="none" stroke="midnightblue" d="M217.47,-191.79C233.37,-213.01 264.69,-251.5 299,-275.5 301.06,-276.94 303.23,-278.32 305.45,-279.64"/>
<polygon fill="midnightblue" stroke="midnightblue" points="303.83,-282.74 314.29,-284.42 307.15,-276.58 303.83,-282.74"/>
</g>
<!-- Node5 -->
<g id="node5" class="node">
<title>Node5</title>
<g id="a_node5"><a xlink:href="classweb_1_1ws_1_1_w_s_receiver.html#ae8ba1d162a1f740309d0259260b4c95e" target="_top" xlink:title=" ">
<polygon fill="white" stroke="black" points="299,-235.5 299,-265.5 414,-265.5 414,-235.5 299,-235.5"/>
<text text-anchor="start" x="307" y="-253.5" font-family="Helvetica,sans-Serif" font-size="10.00">web::ws::WSReceiver</text>
<text text-anchor="middle" x="356.5" y="-242.5" font-family="Helvetica,sans-Serif" font-size="10.00">::readELength</text>
</a>
</g>
</g>
<!-- Node2&#45;&gt;Node5 -->
<g id="edge4" class="edge">
<title>Node2&#45;&gt;Node5</title>
<path fill="none" stroke="midnightblue" d="M232.87,-191.61C251.19,-201.9 276.3,-215.57 299,-226.5 302.32,-228.1 305.77,-229.7 309.25,-231.28"/>
<polygon fill="midnightblue" stroke="midnightblue" points="307.94,-234.52 318.5,-235.37 310.78,-228.12 307.94,-234.52"/>
</g>
<!-- Node6 -->
<g id="node6" class="node">
<title>Node6</title>
<g id="a_node6"><a xlink:href="classweb_1_1ws_1_1_w_s_receiver.html#a0c383c057df0c409fcb4d33c8599ddfc" target="_top" xlink:title=" ">
<polygon fill="white" stroke="black" points="299,-186.5 299,-216.5 414,-216.5 414,-186.5 299,-186.5"/>
<text text-anchor="start" x="307" y="-204.5" font-family="Helvetica,sans-Serif" font-size="10.00">web::ws::WSReceiver</text>
<text text-anchor="middle" x="356.5" y="-193.5" font-family="Helvetica,sans-Serif" font-size="10.00">::readLength</text>
</a>
</g>
</g>
<!-- Node2&#45;&gt;Node6 -->
<g id="edge5" class="edge">
<title>Node2&#45;&gt;Node6</title>
<path fill="none" stroke="midnightblue" d="M263.26,-186.02C271.65,-187.43 280.36,-188.89 288.93,-190.33"/>
<polygon fill="midnightblue" stroke="midnightblue" points="288.46,-193.8 298.9,-192 289.62,-186.9 288.46,-193.8"/>
</g>
<!-- Node8 -->
<g id="node8" class="node">
<title>Node8</title>
<g id="a_node8"><a xlink:href="classweb_1_1ws_1_1_w_s_receiver.html#ae77dfdd5bb5bc3b5ba17d20b3e9e775b" target="_top" xlink:title=" ">
<polygon fill="white" stroke="black" points="450,-117.5 450,-147.5 565,-147.5 565,-117.5 450,-117.5"/>
<text text-anchor="start" x="458" y="-135.5" font-family="Helvetica,sans-Serif" font-size="10.00">web::ws::WSReceiver</text>
<text text-anchor="middle" x="507.5" y="-124.5" font-family="Helvetica,sans-Serif" font-size="10.00">::reset</text>
</a>
</g>
</g>
<!-- Node2&#45;&gt;Node8 -->
<g id="edge17" class="edge">
<title>Node2&#45;&gt;Node8</title>
<path fill="none" stroke="midnightblue" d="M215.23,-161.42C229.41,-138.63 259.85,-96.26 299,-79.5 345.98,-59.38 365.8,-62.5 414,-79.5 433.38,-86.33 432.38,-97.94 450,-108.5 452.61,-110.07 455.35,-111.58 458.14,-113.04"/>
<polygon fill="midnightblue" stroke="midnightblue" points="456.68,-116.22 467.2,-117.48 459.76,-109.93 456.68,-116.22"/>
</g>
<!-- Node9 -->
<g id="node9" class="node">
<title>Node9</title>
<g id="a_node9"><a xlink:href="classweb_1_1ws_1_1_w_s_receiver.html#a19caa0aaf45b725151be50901670edc3" target="_top" xlink:title=" ">
<polygon fill="white" stroke="black" points="299,-137.5 299,-167.5 414,-167.5 414,-137.5 299,-137.5"/>
<text text-anchor="start" x="307" y="-155.5" font-family="Helvetica,sans-Serif" font-size="10.00">web::ws::WSReceiver</text>
<text text-anchor="middle" x="356.5" y="-144.5" font-family="Helvetica,sans-Serif" font-size="10.00">::readMaskingKey</text>
</a>
</g>
</g>
<!-- Node2&#45;&gt;Node9 -->
<g id="edge8" class="edge">
<title>Node2&#45;&gt;Node9</title>
<path fill="none" stroke="midnightblue" d="M263.26,-167.36C271.65,-166.01 280.36,-164.6 288.93,-163.22"/>
<polygon fill="midnightblue" stroke="midnightblue" points="289.59,-166.66 298.9,-161.62 288.47,-159.75 289.59,-166.66"/>
</g>
<!-- Node10 -->
<g id="node10" class="node">
<title>Node10</title>
<g id="a_node10"><a xlink:href="classweb_1_1ws_1_1_w_s_receiver.html#a1a4d63074084fcf253a455a43183bd8e" target="_top" xlink:title=" ">
<polygon fill="white" stroke="black" points="299,-0.5 299,-30.5 414,-30.5 414,-0.5 299,-0.5"/>
<text text-anchor="start" x="307" y="-18.5" font-family="Helvetica,sans-Serif" font-size="10.00">web::ws::WSReceiver</text>
<text text-anchor="middle" x="356.5" y="-7.5" font-family="Helvetica,sans-Serif" font-size="10.00">::readOpcode</text>
</a>
</g>
</g>
<!-- Node2&#45;&gt;Node10 -->
<g id="edge11" class="edge">
<title>Node2&#45;&gt;Node10</title>
<path fill="none" stroke="midnightblue" d="M214.08,-161.42C227.91,-135.11 259.51,-80.28 299,-45.5 302.96,-42.01 307.4,-38.78 312,-35.84"/>
<polygon fill="midnightblue" stroke="midnightblue" points="314.14,-38.64 320.97,-30.54 310.58,-32.62 314.14,-38.64"/>
</g>
<!-- Node12 -->
<g id="node12" class="node">
<title>Node12</title>
<g id="a_node12"><a xlink:href="classweb_1_1ws_1_1_w_s_receiver.html#a53469bc7768beee3b7b6fbd83a65f93f" target="_top" xlink:title=" ">
<polygon fill="white" stroke="black" points="299,-88.5 299,-118.5 414,-118.5 414,-88.5 299,-88.5"/>
<text text-anchor="start" x="307" y="-106.5" font-family="Helvetica,sans-Serif" font-size="10.00">web::ws::WSReceiver</text>
<text text-anchor="middle" x="356.5" y="-95.5" font-family="Helvetica,sans-Serif" font-size="10.00">::readPayload</text>
</a>
</g>
</g>
<!-- Node2&#45;&gt;Node12 -->
<g id="edge13" class="edge">
<title>Node2&#45;&gt;Node12</title>
<path fill="none" stroke="midnightblue" d="M234.61,-161.34C252.83,-151.65 277.14,-138.99 299,-128.5 302.86,-126.65 306.89,-124.76 310.95,-122.9"/>
<polygon fill="midnightblue" stroke="midnightblue" points="312.72,-125.94 320.38,-118.63 309.83,-119.57 312.72,-125.94"/>
</g>
<!-- Node7 -->
<g id="node7" class="node">
<title>Node7</title>
<g id="a_node7"><a xlink:href="classweb_1_1ws_1_1_w_s_receiver.html#a57254ce1e2ddddc7fbd71f08b2097e11" target="_top" xlink:title=" ">
<polygon fill="white" stroke="black" points="450,-166.5 450,-196.5 565,-196.5 565,-166.5 450,-166.5"/>
<text text-anchor="start" x="458" y="-184.5" font-family="Helvetica,sans-Serif" font-size="10.00">web::ws::WSReceiver</text>
<text text-anchor="middle" x="507.5" y="-173.5" font-family="Helvetica,sans-Serif" font-size="10.00">::onMessageEnd</text>
</a>
</g>
</g>
<!-- Node6&#45;&gt;Node7 -->
<g id="edge6" class="edge">
<title>Node6&#45;&gt;Node7</title>
<path fill="none" stroke="midnightblue" d="M414.26,-193.88C422.65,-192.76 431.36,-191.59 439.93,-190.44"/>
<polygon fill="midnightblue" stroke="midnightblue" points="440.46,-193.9 449.9,-189.1 439.53,-186.96 440.46,-193.9"/>
</g>
<!-- Node6&#45;&gt;Node8 -->
<g id="edge7" class="edge">
<title>Node6&#45;&gt;Node8</title>
<path fill="none" stroke="midnightblue" d="M394.53,-186.43C401.07,-183.58 407.78,-180.54 414,-177.5 430.45,-169.47 433.61,-165.66 450,-157.5 453.78,-155.62 457.74,-153.72 461.72,-151.86"/>
<polygon fill="midnightblue" stroke="midnightblue" points="463.37,-154.96 471.01,-147.62 460.46,-148.59 463.37,-154.96"/>
</g>
<!-- Node9&#45;&gt;Node7 -->
<g id="edge9" class="edge">
<title>Node9&#45;&gt;Node7</title>
<path fill="none" stroke="midnightblue" d="M414.26,-163.55C422.65,-165.18 431.36,-166.88 439.93,-168.54"/>
<polygon fill="midnightblue" stroke="midnightblue" points="439.42,-172.01 449.9,-170.48 440.76,-165.14 439.42,-172.01"/>
</g>
<!-- Node9&#45;&gt;Node8 -->
<g id="edge10" class="edge">
<title>Node9&#45;&gt;Node8</title>
<path fill="none" stroke="midnightblue" d="M414.26,-144.88C422.65,-143.76 431.36,-142.59 439.93,-141.44"/>
<polygon fill="midnightblue" stroke="midnightblue" points="440.46,-144.9 449.9,-140.1 439.53,-137.96 440.46,-144.9"/>
</g>
<!-- Node11 -->
<g id="node11" class="node">
<title>Node11</title>
<g id="a_node11"><a xlink:href="classweb_1_1ws_1_1_w_s_receiver.html#a2fec9a0ab782afd825d62c35c7941e4a" target="_top" xlink:title=" ">
<polygon fill="white" stroke="black" points="450,-0.5 450,-30.5 565,-30.5 565,-0.5 450,-0.5"/>
<text text-anchor="start" x="458" y="-18.5" font-family="Helvetica,sans-Serif" font-size="10.00">web::ws::WSReceiver</text>
<text text-anchor="middle" x="507.5" y="-7.5" font-family="Helvetica,sans-Serif" font-size="10.00">::onMessageStart</text>
</a>
</g>
</g>
<!-- Node10&#45;&gt;Node11 -->
<g id="edge12" class="edge">
<title>Node10&#45;&gt;Node11</title>
<path fill="none" stroke="midnightblue" d="M414.26,-15.5C422.56,-15.5 431.17,-15.5 439.65,-15.5"/>
<polygon fill="midnightblue" stroke="midnightblue" points="439.9,-19 449.9,-15.5 439.9,-12 439.9,-19"/>
</g>
<!-- Node12&#45;&gt;Node7 -->
<g id="edge15" class="edge">
<title>Node12&#45;&gt;Node7</title>
<path fill="none" stroke="midnightblue" d="M395.28,-118.56C401.68,-121.58 408.14,-124.93 414,-128.5 431.54,-139.19 432.38,-146.94 450,-157.5 452.61,-159.07 455.35,-160.58 458.14,-162.04"/>
<polygon fill="midnightblue" stroke="midnightblue" points="456.68,-165.22 467.2,-166.48 459.76,-158.93 456.68,-165.22"/>
</g>
<!-- Node12&#45;&gt;Node8 -->
<g id="edge16" class="edge">
<title>Node12&#45;&gt;Node8</title>
<path fill="none" stroke="midnightblue" d="M414.26,-114.55C422.65,-116.18 431.36,-117.88 439.93,-119.54"/>
<polygon fill="midnightblue" stroke="midnightblue" points="439.42,-123.01 449.9,-121.48 440.76,-116.14 439.42,-123.01"/>
</g>
<!-- Node13 -->
<g id="node13" class="node">
<title>Node13</title>
<g id="a_node13"><a xlink:href="classweb_1_1ws_1_1_w_s_receiver.html#a520abf26ebb4a2c9a709f3e5cc9fb1a2" target="_top" xlink:title=" ">
<polygon fill="white" stroke="black" points="450,-68.5 450,-98.5 565,-98.5 565,-68.5 450,-68.5"/>
<text text-anchor="start" x="458" y="-86.5" font-family="Helvetica,sans-Serif" font-size="10.00">web::ws::WSReceiver</text>
<text text-anchor="middle" x="507.5" y="-75.5" font-family="Helvetica,sans-Serif" font-size="10.00">::onFrameReceived</text>
</a>
</g>
</g>
<!-- Node12&#45;&gt;Node13 -->
<g id="edge14" class="edge">
<title>Node12&#45;&gt;Node13</title>
<path fill="none" stroke="midnightblue" d="M414.26,-95.88C422.65,-94.76 431.36,-93.59 439.93,-92.44"/>
<polygon fill="midnightblue" stroke="midnightblue" points="440.46,-95.9 449.9,-91.1 439.53,-88.96 440.46,-95.9"/>
</g>
</g>
</svg>
