<?xml version="1.0" encoding="UTF-8" standalone="no"?>
<!DOCTYPE svg PUBLIC "-//W3C//DTD SVG 1.1//EN"
 "http://www.w3.org/Graphics/SVG/1.1/DTD/svg11.dtd">
<!-- Generated by graphviz version 2.43.0 (0)
 -->
<!-- Title: net::socket::stream::SocketWriter&lt; SocketT &gt; Pages: 1 -->
<svg width="370pt" height="1400pt"
 viewBox="0.00 0.00 370.00 1400.00" xmlns="http://www.w3.org/2000/svg" xmlns:xlink="http://www.w3.org/1999/xlink">
<g id="graph0" class="graph" transform="scale(1 1) rotate(0) translate(4 1396)">
<title>net::socket::stream::SocketWriter&lt; SocketT &gt;</title>
<polygon fill="white" stroke="transparent" points="-4,4 -4,-1396 366,-1396 366,4 -4,4"/>
<!-- Node1 -->
<g id="node1" class="node">
<title>Node1</title>
<g id="a_node1"><a xlink:title=" ">
<polygon fill="#bfbfbf" stroke="black" points="125,-634.5 125,-801.5 259,-801.5 259,-634.5 125,-634.5"/>
<text text-anchor="start" x="133" y="-789.5" font-family="Helvetica,sans-Serif" font-size="10.00">net::socket::stream</text>
<text text-anchor="middle" x="192" y="-778.5" font-family="Helvetica,sans-Serif" font-size="10.00">::SocketWriter&lt; SocketT &gt;</text>
<polyline fill="none" stroke="black" points="125,-771.5 259,-771.5 "/>
<text text-anchor="start" x="133" y="-759.5" font-family="Helvetica,sans-Serif" font-size="10.00">&#45; onError</text>
<text text-anchor="start" x="133" y="-748.5" font-family="Helvetica,sans-Serif" font-size="10.00">&#45; writeBuffer</text>
<text text-anchor="start" x="133" y="-737.5" font-family="Helvetica,sans-Serif" font-size="10.00">&#45; markShutdown</text>
<polyline fill="none" stroke="black" points="125,-730.5 259,-730.5 "/>
<text text-anchor="start" x="133" y="-718.5" font-family="Helvetica,sans-Serif" font-size="10.00"># SocketWriter()</text>
<text text-anchor="start" x="133" y="-707.5" font-family="Helvetica,sans-Serif" font-size="10.00"># SocketWriter()</text>
<text text-anchor="start" x="133" y="-696.5" font-family="Helvetica,sans-Serif" font-size="10.00"># ~SocketWriter()</text>
<text text-anchor="start" x="133" y="-685.5" font-family="Helvetica,sans-Serif" font-size="10.00"># enqueue()</text>
<text text-anchor="start" x="133" y="-674.5" font-family="Helvetica,sans-Serif" font-size="10.00"># shutdown()</text>
<text text-anchor="start" x="133" y="-663.5" font-family="Helvetica,sans-Serif" font-size="10.00">&#45; write()</text>
<text text-anchor="start" x="133" y="-652.5" font-family="Helvetica,sans-Serif" font-size="10.00">&#45; writeEvent()</text>
<text text-anchor="start" x="133" y="-641.5" font-family="Helvetica,sans-Serif" font-size="10.00">&#45; getError()</text>
</a>
</g>
</g>
<!-- Node6 -->
<g id="node6" class="node">
<title>Node6</title>
<g id="a_node6"><a xlink:href="classnet_1_1socket_1_1stream_1_1legacy_1_1_socket_writer.html" target="_top" xlink:title=" ">
<polygon fill="white" stroke="black" points="70.5,-496.5 70.5,-586.5 183.5,-586.5 183.5,-496.5 70.5,-496.5"/>
<text text-anchor="start" x="78.5" y="-574.5" font-family="Helvetica,sans-Serif" font-size="10.00">net::socket::stream</text>
<text text-anchor="start" x="78.5" y="-563.5" font-family="Helvetica,sans-Serif" font-size="10.00">::legacy::SocketWriter</text>
<text text-anchor="middle" x="127" y="-552.5" font-family="Helvetica,sans-Serif" font-size="10.00">&lt; SocketT &gt;</text>
<polyline fill="none" stroke="black" points="70.5,-545.5 183.5,-545.5 "/>
<text text-anchor="middle" x="127" y="-533.5" font-family="Helvetica,sans-Serif" font-size="10.00"> </text>
<polyline fill="none" stroke="black" points="70.5,-526.5 183.5,-526.5 "/>
<text text-anchor="start" x="78.5" y="-514.5" font-family="Helvetica,sans-Serif" font-size="10.00">&#45; write()</text>
<text text-anchor="start" x="78.5" y="-503.5" font-family="Helvetica,sans-Serif" font-size="10.00">&#45; getError()</text>
</a>
</g>
</g>
<!-- Node1&#45;&gt;Node6 -->
<g id="edge5" class="edge">
<title>Node1&#45;&gt;Node6</title>
<path fill="none" stroke="midnightblue" d="M157.63,-624.74C152.72,-611.56 147.87,-598.53 143.53,-586.86"/>
<polygon fill="none" stroke="midnightblue" points="154.44,-626.2 161.21,-634.35 161,-623.76 154.44,-626.2"/>
</g>
<!-- Node9 -->
<g id="node9" class="node">
<title>Node9</title>
<g id="a_node9"><a xlink:href="classnet_1_1socket_1_1stream_1_1tls_1_1_socket_writer.html" target="_top" xlink:title=" ">
<polygon fill="white" stroke="black" points="217,-485.5 217,-597.5 327,-597.5 327,-485.5 217,-485.5"/>
<text text-anchor="start" x="225" y="-585.5" font-family="Helvetica,sans-Serif" font-size="10.00">net::socket::stream</text>
<text text-anchor="start" x="225" y="-574.5" font-family="Helvetica,sans-Serif" font-size="10.00">::tls::SocketWriter</text>
<text text-anchor="middle" x="272" y="-563.5" font-family="Helvetica,sans-Serif" font-size="10.00">&lt; SocketT &gt;</text>
<polyline fill="none" stroke="black" points="217,-556.5 327,-556.5 "/>
<text text-anchor="start" x="225" y="-544.5" font-family="Helvetica,sans-Serif" font-size="10.00"># ssl</text>
<text text-anchor="start" x="225" y="-533.5" font-family="Helvetica,sans-Serif" font-size="10.00"># sslErr</text>
<polyline fill="none" stroke="black" points="217,-526.5 327,-526.5 "/>
<text text-anchor="start" x="225" y="-514.5" font-family="Helvetica,sans-Serif" font-size="10.00"># doSSLHandshake()</text>
<text text-anchor="start" x="225" y="-503.5" font-family="Helvetica,sans-Serif" font-size="10.00">&#45; write()</text>
<text text-anchor="start" x="225" y="-492.5" font-family="Helvetica,sans-Serif" font-size="10.00">&#45; getError()</text>
</a>
</g>
</g>
<!-- Node1&#45;&gt;Node9 -->
<g id="edge8" class="edge">
<title>Node1&#45;&gt;Node9</title>
<path fill="none" stroke="midnightblue" d="M234.14,-625.09C238.38,-615.84 242.58,-606.66 246.57,-597.97"/>
<polygon fill="none" stroke="midnightblue" points="230.88,-623.8 229.89,-634.35 237.24,-626.72 230.88,-623.8"/>
</g>
<!-- Node2 -->
<g id="node2" class="node">
<title>Node2</title>
<g id="a_node2"><a xlink:href="classnet_1_1_write_event_receiver.html" target="_top" xlink:title=" ">
<polygon fill="white" stroke="black" points="77.5,-838.5 77.5,-917.5 200.5,-917.5 200.5,-838.5 77.5,-838.5"/>
<text text-anchor="middle" x="139" y="-905.5" font-family="Helvetica,sans-Serif" font-size="10.00">net::WriteEventReceiver</text>
<polyline fill="none" stroke="black" points="77.5,-898.5 200.5,-898.5 "/>
<text text-anchor="middle" x="139" y="-886.5" font-family="Helvetica,sans-Serif" font-size="10.00"> </text>
<polyline fill="none" stroke="black" points="77.5,-879.5 200.5,-879.5 "/>
<text text-anchor="start" x="85.5" y="-867.5" font-family="Helvetica,sans-Serif" font-size="10.00"># WriteEventReceiver()</text>
<text text-anchor="start" x="85.5" y="-856.5" font-family="Helvetica,sans-Serif" font-size="10.00"># writeEvent()</text>
<text text-anchor="start" x="85.5" y="-845.5" font-family="Helvetica,sans-Serif" font-size="10.00">&#45; dispatchEvent()</text>
</a>
</g>
</g>
<!-- Node2&#45;&gt;Node1 -->
<g id="edge1" class="edge">
<title>Node2&#45;&gt;Node1</title>
<path fill="none" stroke="midnightblue" d="M155.16,-828.82C158.07,-820.14 161.18,-810.87 164.31,-801.53"/>
<polygon fill="none" stroke="midnightblue" points="151.83,-827.75 151.97,-838.35 158.46,-829.98 151.83,-827.75"/>
</g>
<!-- Node3 -->
<g id="node3" class="node">
<title>Node3</title>
<g id="a_node3"><a xlink:href="classnet_1_1_descriptor_event_receiver.html" target="_top" xlink:title=" ">
<polygon fill="white" stroke="black" points="66,-954.5 66,-1286.5 212,-1286.5 212,-954.5 66,-954.5"/>
<text text-anchor="middle" x="139" y="-1274.5" font-family="Helvetica,sans-Serif" font-size="10.00">net::DescriptorEventReceiver</text>
<polyline fill="none" stroke="black" points="66,-1267.5 212,-1267.5 "/>
<text text-anchor="start" x="74" y="-1255.5" font-family="Helvetica,sans-Serif" font-size="10.00">&#45; descriptorEventDispatcher</text>
<text text-anchor="start" x="74" y="-1244.5" font-family="Helvetica,sans-Serif" font-size="10.00">&#45; fd</text>
<text text-anchor="start" x="74" y="-1233.5" font-family="Helvetica,sans-Serif" font-size="10.00">&#45; _enabled</text>
<text text-anchor="start" x="74" y="-1222.5" font-family="Helvetica,sans-Serif" font-size="10.00">&#45; _suspended</text>
<text text-anchor="start" x="74" y="-1211.5" font-family="Helvetica,sans-Serif" font-size="10.00">&#45; maxInactivity</text>
<text text-anchor="start" x="74" y="-1200.5" font-family="Helvetica,sans-Serif" font-size="10.00">&#45; initialTimeout</text>
<polyline fill="none" stroke="black" points="66,-1193.5 212,-1193.5 "/>
<text text-anchor="start" x="74" y="-1181.5" font-family="Helvetica,sans-Serif" font-size="10.00">+ DescriptorEventReceiver()</text>
<text text-anchor="start" x="74" y="-1170.5" font-family="Helvetica,sans-Serif" font-size="10.00">+ operator=()</text>
<text text-anchor="start" x="74" y="-1159.5" font-family="Helvetica,sans-Serif" font-size="10.00">+ enable()</text>
<text text-anchor="start" x="74" y="-1148.5" font-family="Helvetica,sans-Serif" font-size="10.00">+ disable()</text>
<text text-anchor="start" x="74" y="-1137.5" font-family="Helvetica,sans-Serif" font-size="10.00">+ suspend()</text>
<text text-anchor="start" x="74" y="-1126.5" font-family="Helvetica,sans-Serif" font-size="10.00">+ resume()</text>
<text text-anchor="start" x="74" y="-1115.5" font-family="Helvetica,sans-Serif" font-size="10.00"># DescriptorEventReceiver()</text>
<text text-anchor="start" x="74" y="-1104.5" font-family="Helvetica,sans-Serif" font-size="10.00"># ~DescriptorEventReceiver()</text>
<text text-anchor="start" x="74" y="-1093.5" font-family="Helvetica,sans-Serif" font-size="10.00"># setTimeout()</text>
<text text-anchor="start" x="74" y="-1082.5" font-family="Helvetica,sans-Serif" font-size="10.00"># isEnabled()</text>
<text text-anchor="start" x="74" y="-1071.5" font-family="Helvetica,sans-Serif" font-size="10.00"># isSuspended()</text>
<text text-anchor="start" x="74" y="-1060.5" font-family="Helvetica,sans-Serif" font-size="10.00">&#45; dispatchEvent()</text>
<text text-anchor="start" x="74" y="-1049.5" font-family="Helvetica,sans-Serif" font-size="10.00">&#45; timeoutEvent()</text>
<text text-anchor="start" x="74" y="-1038.5" font-family="Helvetica,sans-Serif" font-size="10.00">&#45; enabled()</text>
<text text-anchor="start" x="74" y="-1027.5" font-family="Helvetica,sans-Serif" font-size="10.00">&#45; disabled()</text>
<text text-anchor="start" x="74" y="-1016.5" font-family="Helvetica,sans-Serif" font-size="10.00">&#45; suspended()</text>
<text text-anchor="start" x="74" y="-1005.5" font-family="Helvetica,sans-Serif" font-size="10.00">&#45; resumed()</text>
<text text-anchor="start" x="74" y="-994.5" font-family="Helvetica,sans-Serif" font-size="10.00">&#45; getTimeout()</text>
<text text-anchor="start" x="74" y="-983.5" font-family="Helvetica,sans-Serif" font-size="10.00">&#45; getLastTriggered()</text>
<text text-anchor="start" x="74" y="-972.5" font-family="Helvetica,sans-Serif" font-size="10.00">&#45; triggered()</text>
<text text-anchor="start" x="74" y="-961.5" font-family="Helvetica,sans-Serif" font-size="10.00">&#45; unobserved()</text>
</a>
</g>
</g>
<!-- Node3&#45;&gt;Node2 -->
<g id="edge2" class="edge">
<title>Node3&#45;&gt;Node2</title>
<path fill="none" stroke="midnightblue" d="M139,-944.23C139,-934.62 139,-925.62 139,-917.54"/>
<polygon fill="none" stroke="midnightblue" points="135.5,-944.44 139,-954.44 142.5,-944.44 135.5,-944.44"/>
</g>
<!-- Node4 -->
<g id="node4" class="node">
<title>Node4</title>
<g id="a_node4"><a xlink:href="classnet_1_1_observation_counter.html" target="_top" xlink:title=" ">
<polygon fill="white" stroke="black" points="77.5,-1323.5 77.5,-1391.5 200.5,-1391.5 200.5,-1323.5 77.5,-1323.5"/>
<text text-anchor="middle" x="139" y="-1379.5" font-family="Helvetica,sans-Serif" font-size="10.00">net::ObservationCounter</text>
<polyline fill="none" stroke="black" points="77.5,-1372.5 200.5,-1372.5 "/>
<text text-anchor="start" x="85.5" y="-1360.5" font-family="Helvetica,sans-Serif" font-size="10.00"># observationCounter</text>
<text text-anchor="start" x="85.5" y="-1349.5" font-family="Helvetica,sans-Serif" font-size="10.00"># lastTriggered</text>
<polyline fill="none" stroke="black" points="77.5,-1342.5 200.5,-1342.5 "/>
<text text-anchor="start" x="85.5" y="-1330.5" font-family="Helvetica,sans-Serif" font-size="10.00">+ isObserved()</text>
</a>
</g>
</g>
<!-- Node4&#45;&gt;Node3 -->
<g id="edge3" class="edge">
<title>Node4&#45;&gt;Node3</title>
<path fill="none" stroke="midnightblue" d="M139,-1313.1C139,-1304.94 139,-1295.99 139,-1286.53"/>
<polygon fill="none" stroke="midnightblue" points="135.5,-1313.33 139,-1323.33 142.5,-1313.33 135.5,-1313.33"/>
</g>
<!-- Node5 -->
<g id="node5" class="node">
<title>Node5</title>
<g id="a_node5"><a xlink:title=" ">
<polygon fill="white" stroke="#bfbfbf" points="218.5,-849.5 218.5,-906.5 271.5,-906.5 271.5,-849.5 218.5,-849.5"/>
<text text-anchor="middle" x="245" y="-894.5" font-family="Helvetica,sans-Serif" font-size="10.00">SocketT</text>
<polyline fill="none" stroke="#bfbfbf" points="218.5,-887.5 271.5,-887.5 "/>
<text text-anchor="middle" x="245" y="-875.5" font-family="Helvetica,sans-Serif" font-size="10.00"> </text>
<polyline fill="none" stroke="#bfbfbf" points="218.5,-868.5 271.5,-868.5 "/>
<text text-anchor="middle" x="245" y="-856.5" font-family="Helvetica,sans-Serif" font-size="10.00"> </text>
</a>
</g>
</g>
<!-- Node5&#45;&gt;Node1 -->
<g id="edge4" class="edge">
<title>Node5&#45;&gt;Node1</title>
<path fill="none" stroke="midnightblue" d="M232.51,-839.77C228.63,-828.19 224.18,-814.93 219.69,-801.54"/>
<polygon fill="none" stroke="midnightblue" points="229.27,-841.11 235.77,-849.48 235.91,-838.88 229.27,-841.11"/>
</g>
<!-- Node7 -->
<g id="node7" class="node">
<title>Node7</title>
<g id="a_node7"><a xlink:href="classnet_1_1socket_1_1stream_1_1_socket_connection.html" target="_top" xlink:title=" ">
<polygon fill="white" stroke="black" points="0,-215.5 0,-448.5 194,-448.5 194,-215.5 0,-215.5"/>
<text text-anchor="start" x="8" y="-436.5" font-family="Helvetica,sans-Serif" font-size="10.00">net::socket::stream</text>
<text text-anchor="start" x="8" y="-425.5" font-family="Helvetica,sans-Serif" font-size="10.00">::SocketConnection&lt;</text>
<text text-anchor="start" x="8" y="-414.5" font-family="Helvetica,sans-Serif" font-size="10.00"> legacy::SocketReader</text>
<text text-anchor="start" x="8" y="-403.5" font-family="Helvetica,sans-Serif" font-size="10.00">&lt; SocketT &gt;, legacy::SocketWriter</text>
<text text-anchor="middle" x="97" y="-392.5" font-family="Helvetica,sans-Serif" font-size="10.00">&lt; SocketT &gt;, SocketT::SocketAddress &gt;</text>
<polyline fill="none" stroke="black" points="0,-385.5 194,-385.5 "/>
<text text-anchor="start" x="8" y="-373.5" font-family="Helvetica,sans-Serif" font-size="10.00">&#45; remoteAddress</text>
<text text-anchor="start" x="8" y="-362.5" font-family="Helvetica,sans-Serif" font-size="10.00">&#45; localAddress</text>
<text text-anchor="start" x="8" y="-351.5" font-family="Helvetica,sans-Serif" font-size="10.00">&#45; onDisconnect</text>
<polyline fill="none" stroke="black" points="0,-344.5 194,-344.5 "/>
<text text-anchor="start" x="8" y="-332.5" font-family="Helvetica,sans-Serif" font-size="10.00">+ SocketConnection()</text>
<text text-anchor="start" x="8" y="-321.5" font-family="Helvetica,sans-Serif" font-size="10.00">+ enqueue()</text>
<text text-anchor="start" x="8" y="-310.5" font-family="Helvetica,sans-Serif" font-size="10.00">+ enqueue()</text>
<text text-anchor="start" x="8" y="-299.5" font-family="Helvetica,sans-Serif" font-size="10.00">+ close()</text>
<text text-anchor="start" x="8" y="-288.5" font-family="Helvetica,sans-Serif" font-size="10.00">+ getRemoteAddress()</text>
<text text-anchor="start" x="8" y="-277.5" font-family="Helvetica,sans-Serif" font-size="10.00">+ setRemoteAddress()</text>
<text text-anchor="start" x="8" y="-266.5" font-family="Helvetica,sans-Serif" font-size="10.00">+ getLocalAddress()</text>
<text text-anchor="start" x="8" y="-255.5" font-family="Helvetica,sans-Serif" font-size="10.00">+ setLocalAddress()</text>
<text text-anchor="start" x="8" y="-244.5" font-family="Helvetica,sans-Serif" font-size="10.00"># SocketConnection()</text>
<text text-anchor="start" x="8" y="-233.5" font-family="Helvetica,sans-Serif" font-size="10.00"># ~SocketConnection()</text>
<text text-anchor="start" x="8" y="-222.5" font-family="Helvetica,sans-Serif" font-size="10.00">&#45; unobserved()</text>
</a>
</g>
</g>
<!-- Node6&#45;&gt;Node7 -->
<g id="edge6" class="edge">
<title>Node6&#45;&gt;Node7</title>
<path fill="none" stroke="midnightblue" d="M119.19,-486.46C117.49,-474.69 115.62,-461.8 113.72,-448.66"/>
<polygon fill="none" stroke="midnightblue" points="115.74,-487.1 120.64,-496.49 122.67,-486.1 115.74,-487.1"/>
</g>
<!-- Node8 -->
<g id="node8" class="node">
<title>Node8</title>
<g id="a_node8"><a xlink:href="classnet_1_1socket_1_1stream_1_1legacy_1_1_socket_connection.html" target="_top" xlink:title=" ">
<polygon fill="white" stroke="black" points="28.5,-44.5 28.5,-134.5 165.5,-134.5 165.5,-44.5 28.5,-44.5"/>
<text text-anchor="start" x="36.5" y="-122.5" font-family="Helvetica,sans-Serif" font-size="10.00">net::socket::stream</text>
<text text-anchor="start" x="36.5" y="-111.5" font-family="Helvetica,sans-Serif" font-size="10.00">::legacy::SocketConnection</text>
<text text-anchor="middle" x="97" y="-100.5" font-family="Helvetica,sans-Serif" font-size="10.00">&lt; SocketT &gt;</text>
<polyline fill="none" stroke="black" points="28.5,-93.5 165.5,-93.5 "/>
<text text-anchor="start" x="36.5" y="-81.5" font-family="Helvetica,sans-Serif" font-size="10.00">&#45; onDestruct</text>
<polyline fill="none" stroke="black" points="28.5,-74.5 165.5,-74.5 "/>
<text text-anchor="start" x="36.5" y="-62.5" font-family="Helvetica,sans-Serif" font-size="10.00">+ SocketConnection()</text>
<text text-anchor="start" x="36.5" y="-51.5" font-family="Helvetica,sans-Serif" font-size="10.00"># ~SocketConnection()</text>
</a>
</g>
</g>
<!-- Node7&#45;&gt;Node8 -->
<g id="edge7" class="edge">
<title>Node7&#45;&gt;Node8</title>
<path fill="none" stroke="midnightblue" d="M97,-205.21C97,-179.83 97,-154.78 97,-134.59"/>
<polygon fill="none" stroke="midnightblue" points="93.5,-205.33 97,-215.33 100.5,-205.33 93.5,-205.33"/>
</g>
<!-- Node10 -->
<g id="node10" class="node">
<title>Node10</title>
<g id="a_node10"><a xlink:href="classnet_1_1socket_1_1stream_1_1_socket_connection.html" target="_top" xlink:title=" ">
<polygon fill="white" stroke="black" points="212,-215.5 212,-448.5 362,-448.5 362,-215.5 212,-215.5"/>
<text text-anchor="start" x="220" y="-436.5" font-family="Helvetica,sans-Serif" font-size="10.00">net::socket::stream</text>
<text text-anchor="start" x="220" y="-425.5" font-family="Helvetica,sans-Serif" font-size="10.00">::SocketConnection&lt;</text>
<text text-anchor="start" x="220" y="-414.5" font-family="Helvetica,sans-Serif" font-size="10.00"> tls::SocketReader&lt; SocketT</text>
<text text-anchor="start" x="220" y="-403.5" font-family="Helvetica,sans-Serif" font-size="10.00"> &gt;, tls::SocketWriter&lt; SocketT</text>
<text text-anchor="middle" x="287" y="-392.5" font-family="Helvetica,sans-Serif" font-size="10.00"> &gt;, SocketT::SocketAddress &gt;</text>
<polyline fill="none" stroke="black" points="212,-385.5 362,-385.5 "/>
<text text-anchor="start" x="220" y="-373.5" font-family="Helvetica,sans-Serif" font-size="10.00">&#45; remoteAddress</text>
<text text-anchor="start" x="220" y="-362.5" font-family="Helvetica,sans-Serif" font-size="10.00">&#45; localAddress</text>
<text text-anchor="start" x="220" y="-351.5" font-family="Helvetica,sans-Serif" font-size="10.00">&#45; onDisconnect</text>
<polyline fill="none" stroke="black" points="212,-344.5 362,-344.5 "/>
<text text-anchor="start" x="220" y="-332.5" font-family="Helvetica,sans-Serif" font-size="10.00">+ SocketConnection()</text>
<text text-anchor="start" x="220" y="-321.5" font-family="Helvetica,sans-Serif" font-size="10.00">+ enqueue()</text>
<text text-anchor="start" x="220" y="-310.5" font-family="Helvetica,sans-Serif" font-size="10.00">+ enqueue()</text>
<text text-anchor="start" x="220" y="-299.5" font-family="Helvetica,sans-Serif" font-size="10.00">+ close()</text>
<text text-anchor="start" x="220" y="-288.5" font-family="Helvetica,sans-Serif" font-size="10.00">+ getRemoteAddress()</text>
<text text-anchor="start" x="220" y="-277.5" font-family="Helvetica,sans-Serif" font-size="10.00">+ setRemoteAddress()</text>
<text text-anchor="start" x="220" y="-266.5" font-family="Helvetica,sans-Serif" font-size="10.00">+ getLocalAddress()</text>
<text text-anchor="start" x="220" y="-255.5" font-family="Helvetica,sans-Serif" font-size="10.00">+ setLocalAddress()</text>
<text text-anchor="start" x="220" y="-244.5" font-family="Helvetica,sans-Serif" font-size="10.00"># SocketConnection()</text>
<text text-anchor="start" x="220" y="-233.5" font-family="Helvetica,sans-Serif" font-size="10.00"># ~SocketConnection()</text>
<text text-anchor="start" x="220" y="-222.5" font-family="Helvetica,sans-Serif" font-size="10.00">&#45; unobserved()</text>
</a>
</g>
</g>
<!-- Node9&#45;&gt;Node10 -->
<g id="edge9" class="edge">
<title>Node9&#45;&gt;Node10</title>
<path fill="none" stroke="midnightblue" d="M276.72,-475.2C277.34,-466.63 277.99,-457.65 278.65,-448.54"/>
<polygon fill="none" stroke="midnightblue" points="273.21,-475.21 275.98,-485.44 280.19,-475.72 273.21,-475.21"/>
</g>
<!-- Node11 -->
<g id="node11" class="node">
<title>Node11</title>
<g id="a_node11"><a xlink:href="classnet_1_1socket_1_1stream_1_1tls_1_1_socket_connection.html" target="_top" xlink:title=" ">
<polygon fill="white" stroke="black" points="227.5,-0.5 227.5,-178.5 346.5,-178.5 346.5,-0.5 227.5,-0.5"/>
<text text-anchor="start" x="235.5" y="-166.5" font-family="Helvetica,sans-Serif" font-size="10.00">net::socket::stream</text>
<text text-anchor="start" x="235.5" y="-155.5" font-family="Helvetica,sans-Serif" font-size="10.00">::tls::SocketConnection</text>
<text text-anchor="middle" x="287" y="-144.5" font-family="Helvetica,sans-Serif" font-size="10.00">&lt; SocketT &gt;</text>
<polyline fill="none" stroke="black" points="227.5,-137.5 346.5,-137.5 "/>
<text text-anchor="start" x="235.5" y="-125.5" font-family="Helvetica,sans-Serif" font-size="10.00"># ssl</text>
<text text-anchor="start" x="235.5" y="-114.5" font-family="Helvetica,sans-Serif" font-size="10.00"># sslErr</text>
<text text-anchor="start" x="235.5" y="-103.5" font-family="Helvetica,sans-Serif" font-size="10.00">&#45; onDestruct</text>
<polyline fill="none" stroke="black" points="227.5,-96.5 346.5,-96.5 "/>
<text text-anchor="start" x="235.5" y="-84.5" font-family="Helvetica,sans-Serif" font-size="10.00">+ SocketConnection()</text>
<text text-anchor="start" x="235.5" y="-73.5" font-family="Helvetica,sans-Serif" font-size="10.00">+ getSSL()</text>
<text text-anchor="start" x="235.5" y="-62.5" font-family="Helvetica,sans-Serif" font-size="10.00"># ~SocketConnection()</text>
<text text-anchor="start" x="235.5" y="-51.5" font-family="Helvetica,sans-Serif" font-size="10.00"># startSSL()</text>
<text text-anchor="start" x="235.5" y="-40.5" font-family="Helvetica,sans-Serif" font-size="10.00"># doSSLHandshake()</text>
<text text-anchor="start" x="235.5" y="-29.5" font-family="Helvetica,sans-Serif" font-size="10.00"># doSSLHandshake()</text>
<text text-anchor="start" x="235.5" y="-18.5" font-family="Helvetica,sans-Serif" font-size="10.00"># stopSSL()</text>
<text text-anchor="start" x="235.5" y="-7.5" font-family="Helvetica,sans-Serif" font-size="10.00"># setSSLError()</text>
</a>
</g>
</g>
<!-- Node10&#45;&gt;Node11 -->
<g id="edge10" class="edge">
<title>Node10&#45;&gt;Node11</title>
<path fill="none" stroke="midnightblue" d="M287,-205.26C287,-196.34 287,-187.47 287,-178.83"/>
<polygon fill="none" stroke="midnightblue" points="283.5,-205.33 287,-215.33 290.5,-205.33 283.5,-205.33"/>
</g>
</g>
</svg>
