<?xml version="1.0" encoding="UTF-8" standalone="no"?>
<!DOCTYPE svg PUBLIC "-//W3C//DTD SVG 1.1//EN"
 "http://www.w3.org/Graphics/SVG/1.1/DTD/svg11.dtd">
<!-- Generated by graphviz version 2.43.0 (0)
 -->
<!-- Title: net::socket::bluetooth::address::RfCommAddress::toString Pages: 1 -->
<svg width="322pt" height="110pt"
 viewBox="0.00 0.00 322.00 110.00" xmlns="http://www.w3.org/2000/svg" xmlns:xlink="http://www.w3.org/1999/xlink">
<g id="graph0" class="graph" transform="scale(1 1) rotate(0) translate(4 106)">
<title>net::socket::bluetooth::address::RfCommAddress::toString</title>
<polygon fill="white" stroke="transparent" points="-4,4 -4,-106 318,-106 318,4 -4,4"/>
<!-- Node1 -->
<g id="node1" class="node">
<title>Node1</title>
<g id="a_node1"><a xlink:title=" ">
<polygon fill="#bfbfbf" stroke="black" points="0,-30.5 0,-71.5 139,-71.5 139,-30.5 0,-30.5"/>
<text text-anchor="start" x="8" y="-59.5" font-family="Helvetica,sans-Serif" font-size="10.00">net::socket::bluetooth</text>
<text text-anchor="start" x="8" y="-48.5" font-family="Helvetica,sans-Serif" font-size="10.00">::address::RfCommAddress</text>
<text text-anchor="middle" x="69.5" y="-37.5" font-family="Helvetica,sans-Serif" font-size="10.00">::toString</text>
</a>
</g>
</g>
<!-- Node2 -->
<g id="node2" class="node">
<title>Node2</title>
<g id="a_node2"><a xlink:href="classnet_1_1socket_1_1bluetooth_1_1address_1_1_rf_comm_address.html#a2f48a874e3cc6aa7a8d34946020a3db3" target="_top" xlink:title=" ">
<polygon fill="white" stroke="black" points="175,-60.5 175,-101.5 314,-101.5 314,-60.5 175,-60.5"/>
<text text-anchor="start" x="183" y="-89.5" font-family="Helvetica,sans-Serif" font-size="10.00">net::socket::bluetooth</text>
<text text-anchor="start" x="183" y="-78.5" font-family="Helvetica,sans-Serif" font-size="10.00">::address::RfCommAddress</text>
<text text-anchor="middle" x="244.5" y="-67.5" font-family="Helvetica,sans-Serif" font-size="10.00">::address</text>
</a>
</g>
</g>
<!-- Node1&#45;&gt;Node2 -->
<g id="edge1" class="edge">
<title>Node1&#45;&gt;Node2</title>
<path fill="none" stroke="midnightblue" d="M139.37,-62.94C147.77,-64.4 156.4,-65.9 164.92,-67.37"/>
<polygon fill="midnightblue" stroke="midnightblue" points="164.41,-70.84 174.87,-69.1 165.61,-63.94 164.41,-70.84"/>
</g>
<!-- Node3 -->
<g id="node3" class="node">
<title>Node3</title>
<g id="a_node3"><a xlink:href="classnet_1_1socket_1_1bluetooth_1_1address_1_1_rf_comm_address.html#ace1f6b89fc99010e4b19bf00c117dd3c" target="_top" xlink:title=" ">
<polygon fill="white" stroke="black" points="175,-0.5 175,-41.5 314,-41.5 314,-0.5 175,-0.5"/>
<text text-anchor="start" x="183" y="-29.5" font-family="Helvetica,sans-Serif" font-size="10.00">net::socket::bluetooth</text>
<text text-anchor="start" x="183" y="-18.5" font-family="Helvetica,sans-Serif" font-size="10.00">::address::RfCommAddress</text>
<text text-anchor="middle" x="244.5" y="-7.5" font-family="Helvetica,sans-Serif" font-size="10.00">::channel</text>
</a>
</g>
</g>
<!-- Node1&#45;&gt;Node3 -->
<g id="edge2" class="edge">
<title>Node1&#45;&gt;Node3</title>
<path fill="none" stroke="midnightblue" d="M139.37,-39.06C147.77,-37.6 156.4,-36.1 164.92,-34.63"/>
<polygon fill="midnightblue" stroke="midnightblue" points="165.61,-38.06 174.87,-32.9 164.41,-31.16 165.61,-38.06"/>
</g>
</g>
</svg>
