<?xml version="1.0" encoding="UTF-8" standalone="no"?>
<!DOCTYPE svg PUBLIC "-//W3C//DTD SVG 1.1//EN"
 "http://www.w3.org/Graphics/SVG/1.1/DTD/svg11.dtd">
<!-- Generated by graphviz version 2.43.0 (0)
 -->
<!-- Title: net::DynamicLoader::dlClose Pages: 1 -->
<svg width="873pt" height="245pt"
 viewBox="0.00 0.00 873.00 244.50" xmlns="http://www.w3.org/2000/svg" xmlns:xlink="http://www.w3.org/1999/xlink">
<g id="graph0" class="graph" transform="scale(1 1) rotate(0) translate(4 240.5)">
<title>net::DynamicLoader::dlClose</title>
<polygon fill="white" stroke="transparent" points="-4,4 -4,-240.5 869,-240.5 869,4 -4,4"/>
<!-- Node1 -->
<g id="node1" class="node">
<title>Node1</title>
<g id="a_node1"><a xlink:title=" ">
<polygon fill="#bfbfbf" stroke="black" points="761,-162 761,-192 865,-192 865,-162 761,-162"/>
<text text-anchor="start" x="769" y="-180" font-family="Helvetica,sans-Serif" font-size="10.00">net::DynamicLoader</text>
<text text-anchor="middle" x="813" y="-169" font-family="Helvetica,sans-Serif" font-size="10.00">::dlClose</text>
</a>
</g>
</g>
<!-- Node2 -->
<g id="node2" class="node">
<title>Node2</title>
<g id="a_node2"><a xlink:href="classweb_1_1websocket_1_1_sub_protocol_factory_selector.html#acede132589364760936fe84cc98cb7a3" target="_top" xlink:title=" ">
<polygon fill="white" stroke="black" points="578,-162 578,-192 725,-192 725,-162 578,-162"/>
<text text-anchor="start" x="586" y="-180" font-family="Helvetica,sans-Serif" font-size="10.00">web::websocket::SubProtocol</text>
<text text-anchor="middle" x="651.5" y="-169" font-family="Helvetica,sans-Serif" font-size="10.00">FactorySelector::add</text>
</a>
</g>
</g>
<!-- Node1&#45;&gt;Node2 -->
<g id="edge1" class="edge">
<title>Node1&#45;&gt;Node2</title>
<path fill="none" stroke="midnightblue" d="M750.4,-177C742.16,-177 733.65,-177 725.24,-177"/>
<polygon fill="midnightblue" stroke="midnightblue" points="750.66,-180.5 760.66,-177 750.66,-173.5 750.66,-180.5"/>
</g>
<!-- Node3 -->
<g id="node3" class="node">
<title>Node3</title>
<g id="a_node3"><a xlink:href="classweb_1_1websocket_1_1_sub_protocol_factory_selector.html#af574d40a7e9b0fe561747e793d75176d" target="_top" xlink:title=" ">
<polygon fill="white" stroke="black" points="395,-206 395,-236 542,-236 542,-206 395,-206"/>
<text text-anchor="start" x="403" y="-224" font-family="Helvetica,sans-Serif" font-size="10.00">web::websocket::SubProtocol</text>
<text text-anchor="middle" x="468.5" y="-213" font-family="Helvetica,sans-Serif" font-size="10.00">FactorySelector::load</text>
</a>
</g>
</g>
<!-- Node1&#45;&gt;Node3 -->
<g id="edge6" class="edge">
<title>Node1&#45;&gt;Node3</title>
<path fill="none" stroke="midnightblue" d="M756.56,-194.77C746.16,-197.57 735.32,-200.15 725,-202 663.92,-212.93 593.54,-217.59 542.13,-219.57"/>
<polygon fill="midnightblue" stroke="midnightblue" points="757.68,-198.09 766.36,-192.02 755.79,-191.35 757.68,-198.09"/>
</g>
<!-- Node7 -->
<g id="node7" class="node">
<title>Node7</title>
<g id="a_node7"><a xlink:href="classweb_1_1websocket_1_1_sub_protocol_factory_selector.html#a562695e0b6cbb6457d3f246cea729baf" target="_top" xlink:title=" ">
<polygon fill="white" stroke="black" points="578,-113 578,-143 725,-143 725,-113 578,-113"/>
<text text-anchor="start" x="586" y="-131" font-family="Helvetica,sans-Serif" font-size="10.00">web::websocket::SubProtocol</text>
<text text-anchor="middle" x="651.5" y="-120" font-family="Helvetica,sans-Serif" font-size="10.00">FactorySelector::unload</text>
</a>
</g>
</g>
<!-- Node1&#45;&gt;Node7 -->
<g id="edge7" class="edge">
<title>Node1&#45;&gt;Node7</title>
<path fill="none" stroke="midnightblue" d="M753.04,-158.89C736.08,-153.68 717.78,-148.05 701.49,-143.05"/>
<polygon fill="midnightblue" stroke="midnightblue" points="752.26,-162.31 762.84,-161.9 754.31,-155.62 752.26,-162.31"/>
</g>
<!-- Node2&#45;&gt;Node3 -->
<g id="edge2" class="edge">
<title>Node2&#45;&gt;Node3</title>
<path fill="none" stroke="midnightblue" d="M578.57,-194.49C562.93,-198.29 546.52,-202.28 531.31,-205.97"/>
<polygon fill="midnightblue" stroke="midnightblue" points="579.83,-197.78 588.72,-192.02 578.17,-190.98 579.83,-197.78"/>
</g>
<!-- Node4 -->
<g id="node4" class="node">
<title>Node4</title>
<g id="a_node4"><a xlink:href="classweb_1_1websocket_1_1_sub_protocol_factory_selector.html#a128338657a57f6a94a910e95daf91e27" target="_top" xlink:title=" ">
<polygon fill="white" stroke="black" points="395,-96 395,-126 542,-126 542,-96 395,-96"/>
<text text-anchor="start" x="403" y="-114" font-family="Helvetica,sans-Serif" font-size="10.00">web::websocket::SubProtocol</text>
<text text-anchor="middle" x="468.5" y="-103" font-family="Helvetica,sans-Serif" font-size="10.00">FactorySelector::select</text>
</a>
</g>
</g>
<!-- Node2&#45;&gt;Node4 -->
<g id="edge3" class="edge">
<title>Node2&#45;&gt;Node4</title>
<path fill="none" stroke="midnightblue" d="M592.65,-158.55C587.67,-156.75 582.73,-154.89 578,-153 561.57,-146.43 558.39,-142.67 542,-136 533.61,-132.59 524.57,-129.22 515.8,-126.12"/>
<polygon fill="midnightblue" stroke="midnightblue" points="591.64,-161.91 602.24,-161.93 593.97,-155.31 591.64,-161.91"/>
</g>
<!-- Node5 -->
<g id="node5" class="node">
<title>Node5</title>
<g id="a_node5"><a xlink:href="classweb_1_1websocket_1_1client_1_1_socket_context_upgrade_factory.html#a50cd0cebe5adce37efafe13712e4377b" target="_top" xlink:title=" ">
<polygon fill="white" stroke="black" points="201,-120.5 201,-161.5 359,-161.5 359,-120.5 201,-120.5"/>
<text text-anchor="start" x="209" y="-149.5" font-family="Helvetica,sans-Serif" font-size="10.00">web::websocket::client</text>
<text text-anchor="start" x="209" y="-138.5" font-family="Helvetica,sans-Serif" font-size="10.00">::SocketContextUpgradeFactory</text>
<text text-anchor="middle" x="280" y="-127.5" font-family="Helvetica,sans-Serif" font-size="10.00">::create</text>
</a>
</g>
</g>
<!-- Node4&#45;&gt;Node5 -->
<g id="edge4" class="edge">
<title>Node4&#45;&gt;Node5</title>
<path fill="none" stroke="midnightblue" d="M384.93,-124.28C376.41,-125.65 367.77,-127.04 359.3,-128.4"/>
<polygon fill="midnightblue" stroke="midnightblue" points="385.54,-127.73 394.86,-122.68 384.43,-120.82 385.54,-127.73"/>
</g>
<!-- Node6 -->
<g id="node6" class="node">
<title>Node6</title>
<g id="a_node6"><a xlink:href="classweb_1_1websocket_1_1server_1_1_socket_context_upgrade_factory.html#a2a71da6def86a7480f757aebc34b513a" target="_top" xlink:title=" ">
<polygon fill="white" stroke="black" points="201,-60.5 201,-101.5 359,-101.5 359,-60.5 201,-60.5"/>
<text text-anchor="start" x="209" y="-89.5" font-family="Helvetica,sans-Serif" font-size="10.00">web::websocket::server</text>
<text text-anchor="start" x="209" y="-78.5" font-family="Helvetica,sans-Serif" font-size="10.00">::SocketContextUpgradeFactory</text>
<text text-anchor="middle" x="280" y="-67.5" font-family="Helvetica,sans-Serif" font-size="10.00">::create</text>
</a>
</g>
</g>
<!-- Node4&#45;&gt;Node6 -->
<g id="edge5" class="edge">
<title>Node4&#45;&gt;Node6</title>
<path fill="none" stroke="midnightblue" d="M384.93,-97.72C376.41,-96.35 367.77,-94.96 359.3,-93.6"/>
<polygon fill="midnightblue" stroke="midnightblue" points="384.43,-101.18 394.86,-99.32 385.54,-94.27 384.43,-101.18"/>
</g>
<!-- Node8 -->
<g id="node8" class="node">
<title>Node8</title>
<g id="a_node8"><a xlink:href="classweb_1_1websocket_1_1client_1_1_sub_protocol_factory.html#abf50324ce158763cd920304df5f3716c" target="_top" xlink:title=" ">
<polygon fill="white" stroke="black" points="410,-145.5 410,-186.5 527,-186.5 527,-145.5 410,-145.5"/>
<text text-anchor="start" x="418" y="-174.5" font-family="Helvetica,sans-Serif" font-size="10.00">web::websocket::client</text>
<text text-anchor="start" x="418" y="-163.5" font-family="Helvetica,sans-Serif" font-size="10.00">::SubProtocolFactory::</text>
<text text-anchor="middle" x="468.5" y="-152.5" font-family="Helvetica,sans-Serif" font-size="10.00">deleteSubProtocol</text>
</a>
</g>
</g>
<!-- Node7&#45;&gt;Node8 -->
<g id="edge8" class="edge">
<title>Node7&#45;&gt;Node8</title>
<path fill="none" stroke="midnightblue" d="M568.8,-145.15C554.74,-148.1 540.4,-151.11 527.15,-153.9"/>
<polygon fill="midnightblue" stroke="midnightblue" points="569.9,-148.5 578.96,-143.02 568.46,-141.65 569.9,-148.5"/>
</g>
<!-- Node11 -->
<g id="node11" class="node">
<title>Node11</title>
<g id="a_node11"><a xlink:href="classweb_1_1websocket_1_1server_1_1_sub_protocol_factory.html#a294004863b58024ab8a8d1e61478fc7c" target="_top" xlink:title=" ">
<polygon fill="white" stroke="black" points="408,-35.5 408,-76.5 529,-76.5 529,-35.5 408,-35.5"/>
<text text-anchor="start" x="416" y="-64.5" font-family="Helvetica,sans-Serif" font-size="10.00">web::websocket::server</text>
<text text-anchor="start" x="416" y="-53.5" font-family="Helvetica,sans-Serif" font-size="10.00">::SubProtocolFactory::</text>
<text text-anchor="middle" x="468.5" y="-42.5" font-family="Helvetica,sans-Serif" font-size="10.00">deleteSubProtocol</text>
</a>
</g>
</g>
<!-- Node7&#45;&gt;Node11 -->
<g id="edge12" class="edge">
<title>Node7&#45;&gt;Node11</title>
<path fill="none" stroke="midnightblue" d="M603.21,-109.19C578,-99.16 546.95,-86.81 521.13,-76.54"/>
<polygon fill="midnightblue" stroke="midnightblue" points="601.97,-112.46 612.56,-112.91 604.56,-105.96 601.97,-112.46"/>
</g>
<!-- Node8&#45;&gt;Node5 -->
<g id="edge9" class="edge">
<title>Node8&#45;&gt;Node5</title>
<path fill="none" stroke="midnightblue" d="M399.8,-156.93C386.56,-155.15 372.57,-153.27 359.02,-151.46"/>
<polygon fill="midnightblue" stroke="midnightblue" points="399.39,-160.4 409.77,-158.26 400.32,-153.46 399.39,-160.4"/>
</g>
<!-- Node9 -->
<g id="node9" class="node">
<title>Node9</title>
<g id="a_node9"><a xlink:href="classweb_1_1websocket_1_1client_1_1_socket_context_upgrade_factory.html#a07eaf9621fc69f54352a224912a0ff21" target="_top" xlink:title=" ">
<polygon fill="white" stroke="black" points="201,-180.5 201,-221.5 359,-221.5 359,-180.5 201,-180.5"/>
<text text-anchor="start" x="209" y="-209.5" font-family="Helvetica,sans-Serif" font-size="10.00">web::websocket::client</text>
<text text-anchor="start" x="209" y="-198.5" font-family="Helvetica,sans-Serif" font-size="10.00">::SocketContextUpgradeFactory</text>
<text text-anchor="middle" x="280" y="-187.5" font-family="Helvetica,sans-Serif" font-size="10.00">::destroy</text>
</a>
</g>
</g>
<!-- Node8&#45;&gt;Node9 -->
<g id="edge10" class="edge">
<title>Node8&#45;&gt;Node9</title>
<path fill="none" stroke="midnightblue" d="M399.8,-178.7C386.56,-181.19 372.57,-183.82 359.02,-186.36"/>
<polygon fill="midnightblue" stroke="midnightblue" points="400.58,-182.12 409.77,-176.83 399.29,-175.24 400.58,-182.12"/>
</g>
<!-- Node10 -->
<g id="node10" class="node">
<title>Node10</title>
<g id="a_node10"><a xlink:href="classweb_1_1websocket_1_1client_1_1_socket_context.html#aa7bfba2d378450f899988056ba1708db" target="_top" xlink:title=" ">
<polygon fill="white" stroke="black" points="0,-186 0,-216 165,-216 165,-186 0,-186"/>
<text text-anchor="start" x="8" y="-204" font-family="Helvetica,sans-Serif" font-size="10.00">web::websocket::client</text>
<text text-anchor="middle" x="82.5" y="-193" font-family="Helvetica,sans-Serif" font-size="10.00">::SocketContext::~SocketContext</text>
</a>
</g>
</g>
<!-- Node9&#45;&gt;Node10 -->
<g id="edge11" class="edge">
<title>Node9&#45;&gt;Node10</title>
<path fill="none" stroke="midnightblue" d="M190.85,-201C182.25,-201 173.54,-201 165.01,-201"/>
<polygon fill="midnightblue" stroke="midnightblue" points="190.89,-204.5 200.89,-201 190.89,-197.5 190.89,-204.5"/>
</g>
<!-- Node11&#45;&gt;Node6 -->
<g id="edge13" class="edge">
<title>Node11&#45;&gt;Node6</title>
<path fill="none" stroke="midnightblue" d="M397.95,-65.32C385.26,-67.02 371.95,-68.81 359.03,-70.54"/>
<polygon fill="midnightblue" stroke="midnightblue" points="398.53,-68.78 407.98,-63.98 397.6,-61.84 398.53,-68.78"/>
</g>
<!-- Node12 -->
<g id="node12" class="node">
<title>Node12</title>
<g id="a_node12"><a xlink:href="classweb_1_1websocket_1_1server_1_1_socket_context_upgrade_factory.html#a9ae5d9918fed7c86427a2d9e9c4b27df" target="_top" xlink:title=" ">
<polygon fill="white" stroke="black" points="201,-0.5 201,-41.5 359,-41.5 359,-0.5 201,-0.5"/>
<text text-anchor="start" x="209" y="-29.5" font-family="Helvetica,sans-Serif" font-size="10.00">web::websocket::server</text>
<text text-anchor="start" x="209" y="-18.5" font-family="Helvetica,sans-Serif" font-size="10.00">::SocketContextUpgradeFactory</text>
<text text-anchor="middle" x="280" y="-7.5" font-family="Helvetica,sans-Serif" font-size="10.00">::destroy</text>
</a>
</g>
</g>
<!-- Node11&#45;&gt;Node12 -->
<g id="edge14" class="edge">
<title>Node11&#45;&gt;Node12</title>
<path fill="none" stroke="midnightblue" d="M397.95,-42.95C385.26,-40.57 371.95,-38.07 359.03,-35.64"/>
<polygon fill="midnightblue" stroke="midnightblue" points="397.5,-46.42 407.98,-44.83 398.79,-39.55 397.5,-46.42"/>
</g>
<!-- Node13 -->
<g id="node13" class="node">
<title>Node13</title>
<g id="a_node13"><a xlink:href="classweb_1_1websocket_1_1server_1_1_socket_context.html#aa9cf1585b84258e6b543a3186a30e32b" target="_top" xlink:title=" ">
<polygon fill="white" stroke="black" points="0,-6 0,-36 165,-36 165,-6 0,-6"/>
<text text-anchor="start" x="8" y="-24" font-family="Helvetica,sans-Serif" font-size="10.00">web::websocket::server</text>
<text text-anchor="middle" x="82.5" y="-13" font-family="Helvetica,sans-Serif" font-size="10.00">::SocketContext::~SocketContext</text>
</a>
</g>
</g>
<!-- Node12&#45;&gt;Node13 -->
<g id="edge15" class="edge">
<title>Node12&#45;&gt;Node13</title>
<path fill="none" stroke="midnightblue" d="M190.85,-21C182.25,-21 173.54,-21 165.01,-21"/>
<polygon fill="midnightblue" stroke="midnightblue" points="190.89,-24.5 200.89,-21 190.89,-17.5 190.89,-24.5"/>
</g>
</g>
</svg>
