<?xml version="1.0" encoding="UTF-8" standalone="no"?>
<!DOCTYPE svg PUBLIC "-//W3C//DTD SVG 1.1//EN"
 "http://www.w3.org/Graphics/SVG/1.1/DTD/svg11.dtd">
<!-- Generated by graphviz version 2.43.0 (0)
 -->
<!-- Title: net::ConnectEventReceiver::timeoutEvent Pages: 1 -->
<svg width="872pt" height="88pt"
 viewBox="0.00 0.00 872.00 88.00" xmlns="http://www.w3.org/2000/svg" xmlns:xlink="http://www.w3.org/1999/xlink">
<g id="graph0" class="graph" transform="scale(1 1) rotate(0) translate(4 84)">
<title>net::ConnectEventReceiver::timeoutEvent</title>
<polygon fill="white" stroke="transparent" points="-4,4 -4,-84 868,-84 868,4 -4,4"/>
<!-- Node1 -->
<g id="node1" class="node">
<title>Node1</title>
<g id="a_node1"><a xlink:title=" ">
<polygon fill="#bfbfbf" stroke="black" points="0,-24.5 0,-54.5 137,-54.5 137,-24.5 0,-24.5"/>
<text text-anchor="start" x="8" y="-42.5" font-family="Helvetica,sans-Serif" font-size="10.00">net::ConnectEventReceiver</text>
<text text-anchor="middle" x="68.5" y="-31.5" font-family="Helvetica,sans-Serif" font-size="10.00">::timeoutEvent</text>
</a>
</g>
</g>
<!-- Node2 -->
<g id="node2" class="node">
<title>Node2</title>
<g id="a_node2"><a xlink:href="classnet_1_1_connect_event_receiver.html#abe31640cd73e5a704e9ce63ea665b9d9" target="_top" xlink:title=" ">
<polygon fill="white" stroke="black" points="173,-24.5 173,-54.5 310,-54.5 310,-24.5 173,-24.5"/>
<text text-anchor="start" x="181" y="-42.5" font-family="Helvetica,sans-Serif" font-size="10.00">net::ConnectEventReceiver</text>
<text text-anchor="middle" x="241.5" y="-31.5" font-family="Helvetica,sans-Serif" font-size="10.00">::connectTimeout</text>
</a>
</g>
</g>
<!-- Node1&#45;&gt;Node2 -->
<g id="edge1" class="edge">
<title>Node1&#45;&gt;Node2</title>
<path fill="none" stroke="midnightblue" d="M137.08,-39.5C145.54,-39.5 154.24,-39.5 162.83,-39.5"/>
<polygon fill="midnightblue" stroke="midnightblue" points="162.85,-43 172.85,-39.5 162.85,-36 162.85,-43"/>
</g>
<!-- Node3 -->
<g id="node3" class="node">
<title>Node3</title>
<g id="a_node3"><a xlink:href="classnet_1_1_descriptor_event_receiver.html#a71d48a9e0030918589d901b834e07327" target="_top" xlink:title=" ">
<polygon fill="white" stroke="black" points="346,-24.5 346,-54.5 492,-54.5 492,-24.5 346,-24.5"/>
<text text-anchor="start" x="354" y="-42.5" font-family="Helvetica,sans-Serif" font-size="10.00">net::DescriptorEventReceiver</text>
<text text-anchor="middle" x="419" y="-31.5" font-family="Helvetica,sans-Serif" font-size="10.00">::disable</text>
</a>
</g>
</g>
<!-- Node2&#45;&gt;Node3 -->
<g id="edge2" class="edge">
<title>Node2&#45;&gt;Node3</title>
<path fill="none" stroke="midnightblue" d="M310.1,-39.5C318.5,-39.5 327.16,-39.5 335.75,-39.5"/>
<polygon fill="midnightblue" stroke="midnightblue" points="335.77,-43 345.77,-39.5 335.77,-36 335.77,-43"/>
</g>
<!-- Node4 -->
<g id="node4" class="node">
<title>Node4</title>
<g id="a_node4"><a xlink:href="classnet_1_1_descriptor_event_dispatcher.html#a0f682135c09bd279cd315a0bdf885473" target="_top" xlink:title=" ">
<polygon fill="white" stroke="black" points="528,-24.5 528,-54.5 682,-54.5 682,-24.5 528,-24.5"/>
<text text-anchor="start" x="536" y="-42.5" font-family="Helvetica,sans-Serif" font-size="10.00">net::DescriptorEventDispatcher</text>
<text text-anchor="middle" x="605" y="-31.5" font-family="Helvetica,sans-Serif" font-size="10.00">::disable</text>
</a>
</g>
</g>
<!-- Node3&#45;&gt;Node4 -->
<g id="edge3" class="edge">
<title>Node3&#45;&gt;Node4</title>
<path fill="none" stroke="midnightblue" d="M492.19,-39.5C500.5,-39.5 509.03,-39.5 517.49,-39.5"/>
<polygon fill="midnightblue" stroke="midnightblue" points="517.77,-43 527.77,-39.5 517.77,-36 517.77,-43"/>
</g>
<!-- Node5 -->
<g id="node5" class="node">
<title>Node5</title>
<g id="a_node5"><a xlink:href="classnet_1_1_descriptor_event_receiver.html#a916b81700981f60b692e0e673536d120" target="_top" xlink:title=" ">
<polygon fill="white" stroke="black" points="718,-49.5 718,-79.5 864,-79.5 864,-49.5 718,-49.5"/>
<text text-anchor="start" x="726" y="-67.5" font-family="Helvetica,sans-Serif" font-size="10.00">net::DescriptorEventReceiver</text>
<text text-anchor="middle" x="791" y="-56.5" font-family="Helvetica,sans-Serif" font-size="10.00">::disabled</text>
</a>
</g>
</g>
<!-- Node4&#45;&gt;Node5 -->
<g id="edge4" class="edge">
<title>Node4&#45;&gt;Node5</title>
<path fill="none" stroke="midnightblue" d="M682.17,-49.85C690.62,-51 699.26,-52.17 707.79,-53.33"/>
<polygon fill="midnightblue" stroke="midnightblue" points="707.35,-56.8 717.73,-54.68 708.29,-49.87 707.35,-56.8"/>
</g>
<!-- Node6 -->
<g id="node6" class="node">
<title>Node6</title>
<g id="a_node6"><a xlink:href="classnet_1_1_descriptor_event_receiver.html#a58562b1da4bc4f87bc7c51eb04db62a4" target="_top" xlink:title=" ">
<polygon fill="white" stroke="black" points="718,-0.5 718,-30.5 864,-30.5 864,-0.5 718,-0.5"/>
<text text-anchor="start" x="726" y="-18.5" font-family="Helvetica,sans-Serif" font-size="10.00">net::DescriptorEventReceiver</text>
<text text-anchor="middle" x="791" y="-7.5" font-family="Helvetica,sans-Serif" font-size="10.00">::isEnabled</text>
</a>
</g>
</g>
<!-- Node4&#45;&gt;Node6 -->
<g id="edge5" class="edge">
<title>Node4&#45;&gt;Node6</title>
<path fill="none" stroke="midnightblue" d="M682.17,-29.57C690.62,-28.46 699.26,-27.34 707.79,-26.22"/>
<polygon fill="midnightblue" stroke="midnightblue" points="708.27,-29.69 717.73,-24.93 707.36,-22.75 708.27,-29.69"/>
</g>
</g>
</svg>
