<?xml version="1.0" encoding="UTF-8" standalone="no"?>
<!DOCTYPE svg PUBLIC "-//W3C//DTD SVG 1.1//EN"
 "http://www.w3.org/Graphics/SVG/1.1/DTD/svg11.dtd">
<!-- Generated by graphviz version 2.43.0 (0)
 -->
<!-- Title: net::TimerEventDispatcher::getNextTimeout Pages: 1 -->
<svg width="807pt" height="83pt"
 viewBox="0.00 0.00 807.00 83.00" xmlns="http://www.w3.org/2000/svg" xmlns:xlink="http://www.w3.org/1999/xlink">
<g id="graph0" class="graph" transform="scale(1 1) rotate(0) translate(4 79)">
<title>net::TimerEventDispatcher::getNextTimeout</title>
<polygon fill="white" stroke="transparent" points="-4,4 -4,-79 803,-79 803,4 -4,4"/>
<!-- Node1 -->
<g id="node1" class="node">
<title>Node1</title>
<g id="a_node1"><a xlink:title=" ">
<polygon fill="#bfbfbf" stroke="black" points="665,-22.5 665,-52.5 799,-52.5 799,-22.5 665,-22.5"/>
<text text-anchor="start" x="673" y="-40.5" font-family="Helvetica,sans-Serif" font-size="10.00">net::TimerEventDispatcher</text>
<text text-anchor="middle" x="732" y="-29.5" font-family="Helvetica,sans-Serif" font-size="10.00">::getNextTimeout</text>
</a>
</g>
</g>
<!-- Node2 -->
<g id="node2" class="node">
<title>Node2</title>
<g id="a_node2"><a xlink:href="classnet_1_1_timer_event_dispatcher.html#ab057c0a06962fe33146a1f8df9ac98b3" target="_top" xlink:title=" ">
<polygon fill="white" stroke="black" points="495,-44.5 495,-74.5 629,-74.5 629,-44.5 495,-44.5"/>
<text text-anchor="start" x="503" y="-62.5" font-family="Helvetica,sans-Serif" font-size="10.00">net::TimerEventDispatcher</text>
<text text-anchor="middle" x="562" y="-51.5" font-family="Helvetica,sans-Serif" font-size="10.00">::cancelAll</text>
</a>
</g>
</g>
<!-- Node1&#45;&gt;Node2 -->
<g id="edge1" class="edge">
<title>Node1&#45;&gt;Node2</title>
<path fill="none" stroke="midnightblue" d="M654.68,-47.49C646.17,-48.61 637.56,-49.74 629.19,-50.83"/>
<polygon fill="midnightblue" stroke="midnightblue" points="655.14,-50.96 664.6,-46.19 654.23,-44.02 655.14,-50.96"/>
</g>
<!-- Node5 -->
<g id="node5" class="node">
<title>Node5</title>
<g id="a_node5"><a xlink:href="classnet_1_1_event_loop.html#af391b0a968b89c98ae4c9c78449cd0d6" target="_top" xlink:title=" ">
<polygon fill="white" stroke="black" points="510,-6 510,-25 614,-25 614,-6 510,-6"/>
<text text-anchor="middle" x="562" y="-13" font-family="Helvetica,sans-Serif" font-size="10.00">net::EventLoop::tick</text>
</a>
</g>
</g>
<!-- Node1&#45;&gt;Node5 -->
<g id="edge4" class="edge">
<title>Node1&#45;&gt;Node5</title>
<path fill="none" stroke="midnightblue" d="M654.68,-27.51C640.95,-25.71 626.95,-23.87 614.15,-22.2"/>
<polygon fill="midnightblue" stroke="midnightblue" points="654.23,-30.98 664.6,-28.81 655.14,-24.04 654.23,-30.98"/>
</g>
<!-- Node3 -->
<g id="node3" class="node">
<title>Node3</title>
<g id="a_node3"><a xlink:href="classnet_1_1_event_loop.html#a7465cce1b49c9ebbb1b2676643ca676d" target="_top" xlink:title=" ">
<polygon fill="white" stroke="black" points="327.5,-50 327.5,-69 435.5,-69 435.5,-50 327.5,-50"/>
<text text-anchor="middle" x="381.5" y="-57" font-family="Helvetica,sans-Serif" font-size="10.00">net::EventLoop::start</text>
</a>
</g>
</g>
<!-- Node2&#45;&gt;Node3 -->
<g id="edge2" class="edge">
<title>Node2&#45;&gt;Node3</title>
<path fill="none" stroke="midnightblue" d="M484.59,-59.5C468.05,-59.5 450.92,-59.5 435.51,-59.5"/>
<polygon fill="midnightblue" stroke="midnightblue" points="484.79,-63 494.79,-59.5 484.79,-56 484.79,-63"/>
</g>
<!-- Node4 -->
<g id="node4" class="node">
<title>Node4</title>
<g id="a_node4"><a xlink:href="classexpress_1_1_web_app.html#a85d9fab4fae0881f8484e07c58f3157a" target="_top" xlink:title=" ">
<polygon fill="white" stroke="black" points="149,-50 149,-69 268,-69 268,-50 149,-50"/>
<text text-anchor="middle" x="208.5" y="-57" font-family="Helvetica,sans-Serif" font-size="10.00">express::WebApp::start</text>
</a>
</g>
</g>
<!-- Node3&#45;&gt;Node4 -->
<g id="edge3" class="edge">
<title>Node3&#45;&gt;Node4</title>
<path fill="none" stroke="midnightblue" d="M317.03,-59.5C301.07,-59.5 284.01,-59.5 268.29,-59.5"/>
<polygon fill="midnightblue" stroke="midnightblue" points="317.33,-63 327.33,-59.5 317.33,-56 317.33,-63"/>
</g>
<!-- Node5&#45;&gt;Node3 -->
<g id="edge8" class="edge">
<title>Node5&#45;&gt;Node3</title>
<path fill="none" stroke="midnightblue" d="M512.44,-27.47C483.75,-34.54 447.92,-43.37 421.16,-49.97"/>
<polygon fill="midnightblue" stroke="midnightblue" points="513.4,-30.84 522.27,-25.05 511.72,-24.04 513.4,-30.84"/>
</g>
<!-- Node6 -->
<g id="node6" class="node">
<title>Node6</title>
<g id="a_node6"><a xlink:href="classnet_1_1_event_loop.html#a67e1a11192cafa69c2dcb19fe8ca7e2a" target="_top" xlink:title=" ">
<polygon fill="white" stroke="black" points="304,-0.5 304,-30.5 459,-30.5 459,-0.5 304,-0.5"/>
<text text-anchor="start" x="312" y="-18.5" font-family="Helvetica,sans-Serif" font-size="10.00">net::EventLoop::getTickCounter</text>
<text text-anchor="middle" x="381.5" y="-7.5" font-family="Helvetica,sans-Serif" font-size="10.00">AsString</text>
</a>
</g>
</g>
<!-- Node5&#45;&gt;Node6 -->
<g id="edge5" class="edge">
<title>Node5&#45;&gt;Node6</title>
<path fill="none" stroke="midnightblue" d="M499.64,-15.5C486.64,-15.5 472.77,-15.5 459.28,-15.5"/>
<polygon fill="midnightblue" stroke="midnightblue" points="499.85,-19 509.85,-15.5 499.85,-12 499.85,-19"/>
</g>
<!-- Node7 -->
<g id="node7" class="node">
<title>Node7</title>
<g id="a_node7"><a xlink:href="classnet_1_1_event_loop.html#a333d383210a35e2c31140e5705c92412" target="_top" xlink:title=" ">
<polygon fill="white" stroke="black" points="158,-6 158,-25 259,-25 259,-6 158,-6"/>
<text text-anchor="middle" x="208.5" y="-13" font-family="Helvetica,sans-Serif" font-size="10.00">net::EventLoop::init</text>
</a>
</g>
</g>
<!-- Node6&#45;&gt;Node7 -->
<g id="edge6" class="edge">
<title>Node6&#45;&gt;Node7</title>
<path fill="none" stroke="midnightblue" d="M293.23,-15.5C281.52,-15.5 269.86,-15.5 259.12,-15.5"/>
<polygon fill="midnightblue" stroke="midnightblue" points="293.5,-19 303.5,-15.5 293.5,-12 293.5,-19"/>
</g>
<!-- Node8 -->
<g id="node8" class="node">
<title>Node8</title>
<g id="a_node8"><a xlink:href="classexpress_1_1_web_app.html#a0a01439a0cc8dfc86ed14f1094826b7e" target="_top" xlink:title=" ">
<polygon fill="white" stroke="black" points="0,-6 0,-25 113,-25 113,-6 0,-6"/>
<text text-anchor="middle" x="56.5" y="-13" font-family="Helvetica,sans-Serif" font-size="10.00">express::WebApp::init</text>
</a>
</g>
</g>
<!-- Node7&#45;&gt;Node8 -->
<g id="edge7" class="edge">
<title>Node7&#45;&gt;Node8</title>
<path fill="none" stroke="midnightblue" d="M147.69,-15.5C136.31,-15.5 124.45,-15.5 113.2,-15.5"/>
<polygon fill="midnightblue" stroke="midnightblue" points="147.97,-19 157.97,-15.5 147.97,-12 147.97,-19"/>
</g>
</g>
</svg>
