<?xml version="1.0" encoding="UTF-8" standalone="no"?>
<!DOCTYPE svg PUBLIC "-//W3C//DTD SVG 1.1//EN"
 "http://www.w3.org/Graphics/SVG/1.1/DTD/svg11.dtd">
<!-- Generated by graphviz version 2.43.0 (0)
 -->
<!-- Title: http::server::Response::sendHeader Pages: 1 -->
<svg width="467pt" height="252pt"
 viewBox="0.00 0.00 467.00 251.50" xmlns="http://www.w3.org/2000/svg" xmlns:xlink="http://www.w3.org/1999/xlink">
<g id="graph0" class="graph" transform="scale(1 1) rotate(0) translate(4 247.5)">
<title>http::server::Response::sendHeader</title>
<polygon fill="white" stroke="transparent" points="-4,4 -4,-247.5 463,-247.5 463,4 -4,4"/>
<!-- Node1 -->
<g id="node1" class="node">
<title>Node1</title>
<g id="a_node1"><a xlink:title=" ">
<polygon fill="#bfbfbf" stroke="black" points="0,-93 0,-123 116,-123 116,-93 0,-93"/>
<text text-anchor="start" x="8" y="-111" font-family="Helvetica,sans-Serif" font-size="10.00">http::server::Response</text>
<text text-anchor="middle" x="58" y="-100" font-family="Helvetica,sans-Serif" font-size="10.00">::sendHeader</text>
</a>
</g>
</g>
<!-- Node2 -->
<g id="node2" class="node">
<title>Node2</title>
<g id="a_node2"><a xlink:href="classhttp_1_1server_1_1_response.html#a8579450e1d1732bbbec2d350b86ebef9" target="_top" xlink:title=" ">
<polygon fill="white" stroke="black" points="162,-164 162,-194 278,-194 278,-164 162,-164"/>
<text text-anchor="start" x="170" y="-182" font-family="Helvetica,sans-Serif" font-size="10.00">http::server::Response</text>
<text text-anchor="middle" x="220" y="-171" font-family="Helvetica,sans-Serif" font-size="10.00">::cookie</text>
</a>
</g>
</g>
<!-- Node1&#45;&gt;Node2 -->
<g id="edge1" class="edge">
<title>Node1&#45;&gt;Node2</title>
<path fill="none" stroke="midnightblue" d="M86.65,-123.11C104.93,-132.81 129.56,-145.36 152,-155 156.13,-156.78 160.45,-158.53 164.81,-160.24"/>
<polygon fill="midnightblue" stroke="midnightblue" points="163.78,-163.59 174.37,-163.89 166.27,-157.05 163.78,-163.59"/>
</g>
<!-- Node3 -->
<g id="node3" class="node">
<title>Node3</title>
<g id="a_node3"><a xlink:href="classhttp_1_1server_1_1_response.html#aa20e3fd615b677aeb0ec1bda57bf0f93" target="_top" xlink:title=" ">
<polygon fill="white" stroke="black" points="162,-115 162,-145 278,-145 278,-115 162,-115"/>
<text text-anchor="start" x="170" y="-133" font-family="Helvetica,sans-Serif" font-size="10.00">http::server::Response</text>
<text text-anchor="middle" x="220" y="-122" font-family="Helvetica,sans-Serif" font-size="10.00">::enqueue</text>
</a>
</g>
</g>
<!-- Node1&#45;&gt;Node3 -->
<g id="edge2" class="edge">
<title>Node1&#45;&gt;Node3</title>
<path fill="none" stroke="midnightblue" d="M116.31,-109.38C127.75,-110.7 139.87,-112.3 151.62,-114.06"/>
<polygon fill="midnightblue" stroke="midnightblue" points="151.4,-117.57 161.82,-115.64 152.47,-110.65 151.4,-117.57"/>
</g>
<!-- Node7 -->
<g id="node7" class="node">
<title>Node7</title>
<g id="a_node7"><a xlink:href="class_status_code.html#a2c0a74bc683dca68ad14fcf0a032df29" target="_top" xlink:title=" ">
<polygon fill="white" stroke="black" points="168,-76.5 168,-95.5 272,-95.5 272,-76.5 168,-76.5"/>
<text text-anchor="middle" x="220" y="-83.5" font-family="Helvetica,sans-Serif" font-size="10.00">StatusCode::reason</text>
</a>
</g>
</g>
<!-- Node1&#45;&gt;Node7 -->
<g id="edge7" class="edge">
<title>Node1&#45;&gt;Node7</title>
<path fill="none" stroke="midnightblue" d="M116.31,-100.12C129.75,-98.27 144.11,-96.3 157.71,-94.43"/>
<polygon fill="midnightblue" stroke="midnightblue" points="158.5,-97.85 167.93,-93.02 157.55,-90.92 158.5,-97.85"/>
</g>
<!-- Node9 -->
<g id="node9" class="node">
<title>Node9</title>
<g id="a_node9"><a xlink:href="classhttp_1_1server_1_1_response.html#a1a0019dc47bb70ca67fb78bd3e37384c" target="_top" xlink:title=" ">
<polygon fill="white" stroke="black" points="152,-38.5 152,-57.5 288,-57.5 288,-38.5 152,-38.5"/>
<text text-anchor="middle" x="220" y="-45.5" font-family="Helvetica,sans-Serif" font-size="10.00">http::server::Response::set</text>
</a>
</g>
</g>
<!-- Node1&#45;&gt;Node9 -->
<g id="edge9" class="edge">
<title>Node1&#45;&gt;Node9</title>
<path fill="none" stroke="midnightblue" d="M90.41,-92.85C108.23,-84.59 131.08,-74.54 152,-67 158.42,-64.69 165.27,-62.47 172.04,-60.42"/>
<polygon fill="midnightblue" stroke="midnightblue" points="173.24,-63.72 181.85,-57.54 171.27,-57 173.24,-63.72"/>
</g>
<!-- Node11 -->
<g id="node11" class="node">
<title>Node11</title>
<g id="a_node11"><a xlink:href="namespacehttputils.html#a01539c1af68e4d072d3507ae44c0b02a" target="_top" xlink:title=" ">
<polygon fill="white" stroke="black" points="164.5,-0.5 164.5,-19.5 275.5,-19.5 275.5,-0.5 164.5,-0.5"/>
<text text-anchor="middle" x="220" y="-7.5" font-family="Helvetica,sans-Serif" font-size="10.00">httputils::to_http_date</text>
</a>
</g>
</g>
<!-- Node1&#45;&gt;Node11 -->
<g id="edge11" class="edge">
<title>Node1&#45;&gt;Node11</title>
<path fill="none" stroke="midnightblue" d="M72.68,-92.98C89.64,-75.23 120.23,-45.96 152,-29 156.24,-26.74 160.79,-24.72 165.43,-22.92"/>
<polygon fill="midnightblue" stroke="midnightblue" points="166.78,-26.16 175.05,-19.54 164.46,-19.55 166.78,-26.16"/>
</g>
<!-- Node3&#45;&gt;Node1 -->
<g id="edge4" class="edge">
<title>Node3&#45;&gt;Node1</title>
<path fill="none" stroke="midnightblue" d="M161.82,-128.64C150.38,-127.32 138.26,-125.71 126.52,-123.96"/>
<polygon fill="midnightblue" stroke="midnightblue" points="126.73,-120.45 116.31,-122.38 125.66,-127.37 126.73,-120.45"/>
</g>
<!-- Node4 -->
<g id="node4" class="node">
<title>Node4</title>
<g id="a_node4"><a xlink:href="classhttp_1_1server_1_1_server_context_base.html#a71bb53bfd799395fb4a2111f8d8dd4e3" target="_top" xlink:title=" ">
<polygon fill="white" stroke="black" points="324,-213 324,-243 459,-243 459,-213 324,-213"/>
<text text-anchor="start" x="332" y="-231" font-family="Helvetica,sans-Serif" font-size="10.00">http::server::ServerContext</text>
<text text-anchor="middle" x="391.5" y="-220" font-family="Helvetica,sans-Serif" font-size="10.00">Base::responseCompleted</text>
</a>
</g>
</g>
<!-- Node3&#45;&gt;Node4 -->
<g id="edge3" class="edge">
<title>Node3&#45;&gt;Node4</title>
<path fill="none" stroke="midnightblue" d="M271.36,-145.07C277.25,-147.89 282.95,-151.18 288,-155 309.56,-171.29 302.35,-187.82 324,-204 325.84,-205.37 327.76,-206.67 329.75,-207.9"/>
<polygon fill="midnightblue" stroke="midnightblue" points="328.35,-211.13 338.8,-212.87 331.72,-204.99 328.35,-211.13"/>
</g>
<!-- Node5 -->
<g id="node5" class="node">
<title>Node5</title>
<g id="a_node5"><a xlink:href="classhttp_1_1server_1_1_server_context_base.html#a8ed90a09a2dd6c4144eb60622cfbc8ee" target="_top" xlink:title=" ">
<polygon fill="white" stroke="black" points="324,-164 324,-194 459,-194 459,-164 324,-164"/>
<text text-anchor="start" x="332" y="-182" font-family="Helvetica,sans-Serif" font-size="10.00">http::server::ServerContext</text>
<text text-anchor="middle" x="391.5" y="-171" font-family="Helvetica,sans-Serif" font-size="10.00">Base::sendResponseData</text>
</a>
</g>
</g>
<!-- Node3&#45;&gt;Node5 -->
<g id="edge5" class="edge">
<title>Node3&#45;&gt;Node5</title>
<path fill="none" stroke="midnightblue" d="M273.24,-145.1C290.8,-150.18 310.56,-155.89 328.78,-161.16"/>
<polygon fill="midnightblue" stroke="midnightblue" points="327.86,-164.53 338.43,-163.95 329.8,-157.81 327.86,-164.53"/>
</g>
<!-- Node6 -->
<g id="node6" class="node">
<title>Node6</title>
<g id="a_node6"><a xlink:href="classhttp_1_1server_1_1_server_context_base.html#aea1bf43f8ad281b0f51cb1580f04447c" target="_top" xlink:title=" ">
<polygon fill="white" stroke="black" points="324,-115 324,-145 459,-145 459,-115 324,-115"/>
<text text-anchor="start" x="332" y="-133" font-family="Helvetica,sans-Serif" font-size="10.00">http::server::ServerContext</text>
<text text-anchor="middle" x="391.5" y="-122" font-family="Helvetica,sans-Serif" font-size="10.00">Base::terminateConnection</text>
</a>
</g>
</g>
<!-- Node3&#45;&gt;Node6 -->
<g id="edge6" class="edge">
<title>Node3&#45;&gt;Node6</title>
<path fill="none" stroke="midnightblue" d="M278.38,-130C289.68,-130 301.69,-130 313.51,-130"/>
<polygon fill="midnightblue" stroke="midnightblue" points="313.81,-133.5 323.81,-130 313.81,-126.5 313.81,-133.5"/>
</g>
<!-- Node8 -->
<g id="node8" class="node">
<title>Node8</title>
<g id="a_node8"><a xlink:href="class_status_code.html#afa4b60d670754ca67188ea76031efd7c" target="_top" xlink:title=" ">
<polygon fill="white" stroke="black" points="336,-76.5 336,-95.5 447,-95.5 447,-76.5 336,-76.5"/>
<text text-anchor="middle" x="391.5" y="-83.5" font-family="Helvetica,sans-Serif" font-size="10.00">StatusCode::contains</text>
</a>
</g>
</g>
<!-- Node7&#45;&gt;Node8 -->
<g id="edge8" class="edge">
<title>Node7&#45;&gt;Node8</title>
<path fill="none" stroke="midnightblue" d="M272.32,-86C289.09,-86 307.96,-86 325.6,-86"/>
<polygon fill="midnightblue" stroke="midnightblue" points="325.82,-89.5 335.82,-86 325.82,-82.5 325.82,-89.5"/>
</g>
<!-- Node10 -->
<g id="node10" class="node">
<title>Node10</title>
<g id="a_node10"><a xlink:href="namespacehttputils.html#a87e2c03071ddffa8a616ea13d641aafc" target="_top" xlink:title=" ">
<polygon fill="white" stroke="black" points="344.5,-38.5 344.5,-57.5 438.5,-57.5 438.5,-38.5 344.5,-38.5"/>
<text text-anchor="middle" x="391.5" y="-45.5" font-family="Helvetica,sans-Serif" font-size="10.00">httputils::ci_comp</text>
</a>
</g>
</g>
<!-- Node9&#45;&gt;Node10 -->
<g id="edge10" class="edge">
<title>Node9&#45;&gt;Node10</title>
<path fill="none" stroke="midnightblue" d="M288.48,-48C303.56,-48 319.4,-48 333.98,-48"/>
<polygon fill="midnightblue" stroke="midnightblue" points="334.35,-51.5 344.35,-48 334.35,-44.5 334.35,-51.5"/>
</g>
</g>
</svg>
