<?xml version="1.0" encoding="UTF-8" standalone="no"?>
<!DOCTYPE svg PUBLIC "-//W3C//DTD SVG 1.1//EN"
 "http://www.w3.org/Graphics/SVG/1.1/DTD/svg11.dtd">
<!-- Generated by graphviz version 2.43.0 (0)
 -->
<!-- Title: net::socket::stream::tls::SocketConnector&lt; SocketT &gt; Pages: 1 -->
<svg width="378pt" height="1475pt"
 viewBox="0.00 0.00 378.23 1475.00" xmlns="http://www.w3.org/2000/svg" xmlns:xlink="http://www.w3.org/1999/xlink">
<g id="graph0" class="graph" transform="scale(1 1) rotate(0) translate(4 1471)">
<title>net::socket::stream::tls::SocketConnector&lt; SocketT &gt;</title>
<polygon fill="white" stroke="transparent" points="-4,4 -4,-1471 374.23,-1471 374.23,4 -4,4"/>
<!-- Node1 -->
<g id="node1" class="node">
<title>Node1</title>
<g id="a_node1"><a xlink:title=" ">
<polygon fill="#bfbfbf" stroke="black" points="133.73,-0.5 133.73,-112.5 248.73,-112.5 248.73,-0.5 133.73,-0.5"/>
<text text-anchor="start" x="141.73" y="-100.5" font-family="Helvetica,sans-Serif" font-size="10.00">net::socket::stream</text>
<text text-anchor="start" x="141.73" y="-89.5" font-family="Helvetica,sans-Serif" font-size="10.00">::tls::SocketConnector</text>
<text text-anchor="middle" x="191.23" y="-78.5" font-family="Helvetica,sans-Serif" font-size="10.00">&lt; SocketT &gt;</text>
<polyline fill="none" stroke="black" points="133.73,-71.5 248.73,-71.5 "/>
<text text-anchor="start" x="141.73" y="-59.5" font-family="Helvetica,sans-Serif" font-size="10.00"># ctx</text>
<text text-anchor="start" x="141.73" y="-48.5" font-family="Helvetica,sans-Serif" font-size="10.00"># sslErr</text>
<polyline fill="none" stroke="black" points="133.73,-41.5 248.73,-41.5 "/>
<text text-anchor="start" x="141.73" y="-29.5" font-family="Helvetica,sans-Serif" font-size="10.00"># SocketConnector()</text>
<text text-anchor="start" x="141.73" y="-18.5" font-family="Helvetica,sans-Serif" font-size="10.00"># ~SocketConnector()</text>
<text text-anchor="start" x="141.73" y="-7.5" font-family="Helvetica,sans-Serif" font-size="10.00"># connect()</text>
</a>
</g>
</g>
<!-- Node2 -->
<g id="node2" class="node">
<title>Node2</title>
<g id="a_node2"><a xlink:href="classnet_1_1socket_1_1stream_1_1_socket_connector.html" target="_top" xlink:title=" ">
<polygon fill="white" stroke="black" points="122.73,-150.5 122.73,-482.5 259.73,-482.5 259.73,-150.5 122.73,-150.5"/>
<text text-anchor="start" x="130.73" y="-470.5" font-family="Helvetica,sans-Serif" font-size="10.00">net::socket::stream</text>
<text text-anchor="start" x="130.73" y="-459.5" font-family="Helvetica,sans-Serif" font-size="10.00">::SocketConnector&lt; stream</text>
<text text-anchor="start" x="130.73" y="-448.5" font-family="Helvetica,sans-Serif" font-size="10.00">::tls::SocketConnection</text>
<text text-anchor="middle" x="191.23" y="-437.5" font-family="Helvetica,sans-Serif" font-size="10.00">&lt; SocketT &gt; &gt;</text>
<polyline fill="none" stroke="black" points="122.73,-430.5 259.73,-430.5 "/>
<text text-anchor="start" x="130.73" y="-418.5" font-family="Helvetica,sans-Serif" font-size="10.00"># onError</text>
<text text-anchor="start" x="130.73" y="-407.5" font-family="Helvetica,sans-Serif" font-size="10.00">&#45; onConstruct</text>
<text text-anchor="start" x="130.73" y="-396.5" font-family="Helvetica,sans-Serif" font-size="10.00">&#45; onDestruct</text>
<text text-anchor="start" x="130.73" y="-385.5" font-family="Helvetica,sans-Serif" font-size="10.00">&#45; onConnect</text>
<text text-anchor="start" x="130.73" y="-374.5" font-family="Helvetica,sans-Serif" font-size="10.00">&#45; onDisconnect</text>
<text text-anchor="start" x="130.73" y="-363.5" font-family="Helvetica,sans-Serif" font-size="10.00">&#45; onRead</text>
<text text-anchor="start" x="130.73" y="-352.5" font-family="Helvetica,sans-Serif" font-size="10.00">&#45; onReadError</text>
<text text-anchor="start" x="130.73" y="-341.5" font-family="Helvetica,sans-Serif" font-size="10.00">&#45; onWriteError</text>
<text text-anchor="start" x="130.73" y="-330.5" font-family="Helvetica,sans-Serif" font-size="10.00">&#45; socketConnection</text>
<text text-anchor="start" x="130.73" y="-319.5" font-family="Helvetica,sans-Serif" font-size="10.00">&#45; options</text>
<text text-anchor="start" x="130.73" y="-308.5" font-family="Helvetica,sans-Serif" font-size="10.00">&#45; isDynamic</text>
<text text-anchor="start" x="130.73" y="-297.5" font-family="Helvetica,sans-Serif" font-size="10.00">&#45; lastAllocAddress</text>
<polyline fill="none" stroke="black" points="122.73,-290.5 259.73,-290.5 "/>
<text text-anchor="start" x="130.73" y="-278.5" font-family="Helvetica,sans-Serif" font-size="10.00"># operator new()</text>
<text text-anchor="start" x="130.73" y="-267.5" font-family="Helvetica,sans-Serif" font-size="10.00"># operator delete()</text>
<text text-anchor="start" x="130.73" y="-256.5" font-family="Helvetica,sans-Serif" font-size="10.00"># SocketConnector()</text>
<text text-anchor="start" x="130.73" y="-245.5" font-family="Helvetica,sans-Serif" font-size="10.00"># SocketConnector()</text>
<text text-anchor="start" x="130.73" y="-234.5" font-family="Helvetica,sans-Serif" font-size="10.00"># SocketConnector()</text>
<text text-anchor="start" x="130.73" y="-223.5" font-family="Helvetica,sans-Serif" font-size="10.00"># operator=()</text>
<text text-anchor="start" x="130.73" y="-212.5" font-family="Helvetica,sans-Serif" font-size="10.00"># ~SocketConnector()</text>
<text text-anchor="start" x="130.73" y="-201.5" font-family="Helvetica,sans-Serif" font-size="10.00"># connect()</text>
<text text-anchor="start" x="130.73" y="-190.5" font-family="Helvetica,sans-Serif" font-size="10.00">&#45; connectEvent()</text>
<text text-anchor="start" x="130.73" y="-179.5" font-family="Helvetica,sans-Serif" font-size="10.00">&#45; readEvent()</text>
<text text-anchor="start" x="130.73" y="-168.5" font-family="Helvetica,sans-Serif" font-size="10.00">&#45; unobserved()</text>
<text text-anchor="start" x="130.73" y="-157.5" font-family="Helvetica,sans-Serif" font-size="10.00">&#45; destruct()</text>
</a>
</g>
</g>
<!-- Node2&#45;&gt;Node1 -->
<g id="edge1" class="edge">
<title>Node2&#45;&gt;Node1</title>
<path fill="none" stroke="midnightblue" d="M191.23,-140.12C191.23,-130.5 191.23,-121.28 191.23,-112.71"/>
<polygon fill="none" stroke="midnightblue" points="187.73,-140.28 191.23,-150.28 194.73,-140.28 187.73,-140.28"/>
</g>
<!-- Node3 -->
<g id="node3" class="node">
<title>Node3</title>
<g id="a_node3"><a xlink:href="classnet_1_1_connect_event_receiver.html" target="_top" xlink:title=" ">
<polygon fill="white" stroke="black" points="25.73,-889.5 25.73,-1023.5 162.73,-1023.5 162.73,-889.5 25.73,-889.5"/>
<text text-anchor="middle" x="94.23" y="-1011.5" font-family="Helvetica,sans-Serif" font-size="10.00">net::ConnectEventReceiver</text>
<polyline fill="none" stroke="black" points="25.73,-1004.5 162.73,-1004.5 "/>
<text text-anchor="middle" x="94.23" y="-992.5" font-family="Helvetica,sans-Serif" font-size="10.00"> </text>
<polyline fill="none" stroke="black" points="25.73,-985.5 162.73,-985.5 "/>
<text text-anchor="start" x="33.73" y="-973.5" font-family="Helvetica,sans-Serif" font-size="10.00">+ setTimeout()</text>
<text text-anchor="start" x="33.73" y="-962.5" font-family="Helvetica,sans-Serif" font-size="10.00">+ enable()</text>
<text text-anchor="start" x="33.73" y="-951.5" font-family="Helvetica,sans-Serif" font-size="10.00">+ disable()</text>
<text text-anchor="start" x="33.73" y="-940.5" font-family="Helvetica,sans-Serif" font-size="10.00">+ suspend()</text>
<text text-anchor="start" x="33.73" y="-929.5" font-family="Helvetica,sans-Serif" font-size="10.00">+ resume()</text>
<text text-anchor="start" x="33.73" y="-918.5" font-family="Helvetica,sans-Serif" font-size="10.00"># ConnectEventReceiver()</text>
<text text-anchor="start" x="33.73" y="-907.5" font-family="Helvetica,sans-Serif" font-size="10.00"># connectEvent()</text>
<text text-anchor="start" x="33.73" y="-896.5" font-family="Helvetica,sans-Serif" font-size="10.00"># dispatchEvent()</text>
</a>
</g>
</g>
<!-- Node3&#45;&gt;Node2 -->
<g id="edge2" class="edge">
<title>Node3&#45;&gt;Node2</title>
<path fill="none" stroke="midnightblue" d="M41.3,-880.21C36.8,-871.03 32.94,-861.53 30.23,-852 -7.55,-719.04 -12.21,-672.54 30.23,-541 48.59,-484.11 87.41,-429.49 122.32,-388.49"/>
<polygon fill="none" stroke="midnightblue" points="38.29,-882 46,-889.26 44.5,-878.78 38.29,-882"/>
</g>
<!-- Node8 -->
<g id="node8" class="node">
<title>Node8</title>
<g id="a_node8"><a xlink:href="classnet_1_1socket_1_1stream_1_1_socket_connector.html" target="_top" xlink:title=" ">
<polygon fill="white" stroke="black" points="39.73,-541.5 39.73,-851.5 242.73,-851.5 242.73,-541.5 39.73,-541.5"/>
<text text-anchor="start" x="47.73" y="-839.5" font-family="Helvetica,sans-Serif" font-size="10.00">net::socket::stream</text>
<text text-anchor="middle" x="141.23" y="-828.5" font-family="Helvetica,sans-Serif" font-size="10.00">::SocketConnector&lt; SocketConnectionT &gt;</text>
<polyline fill="none" stroke="black" points="39.73,-821.5 242.73,-821.5 "/>
<text text-anchor="start" x="47.73" y="-809.5" font-family="Helvetica,sans-Serif" font-size="10.00"># onError</text>
<text text-anchor="start" x="47.73" y="-798.5" font-family="Helvetica,sans-Serif" font-size="10.00">&#45; onConstruct</text>
<text text-anchor="start" x="47.73" y="-787.5" font-family="Helvetica,sans-Serif" font-size="10.00">&#45; onDestruct</text>
<text text-anchor="start" x="47.73" y="-776.5" font-family="Helvetica,sans-Serif" font-size="10.00">&#45; onConnect</text>
<text text-anchor="start" x="47.73" y="-765.5" font-family="Helvetica,sans-Serif" font-size="10.00">&#45; onDisconnect</text>
<text text-anchor="start" x="47.73" y="-754.5" font-family="Helvetica,sans-Serif" font-size="10.00">&#45; onRead</text>
<text text-anchor="start" x="47.73" y="-743.5" font-family="Helvetica,sans-Serif" font-size="10.00">&#45; onReadError</text>
<text text-anchor="start" x="47.73" y="-732.5" font-family="Helvetica,sans-Serif" font-size="10.00">&#45; onWriteError</text>
<text text-anchor="start" x="47.73" y="-721.5" font-family="Helvetica,sans-Serif" font-size="10.00">&#45; socketConnection</text>
<text text-anchor="start" x="47.73" y="-710.5" font-family="Helvetica,sans-Serif" font-size="10.00">&#45; options</text>
<text text-anchor="start" x="47.73" y="-699.5" font-family="Helvetica,sans-Serif" font-size="10.00">&#45; isDynamic</text>
<text text-anchor="start" x="47.73" y="-688.5" font-family="Helvetica,sans-Serif" font-size="10.00">&#45; lastAllocAddress</text>
<polyline fill="none" stroke="black" points="39.73,-681.5 242.73,-681.5 "/>
<text text-anchor="start" x="47.73" y="-669.5" font-family="Helvetica,sans-Serif" font-size="10.00"># operator new()</text>
<text text-anchor="start" x="47.73" y="-658.5" font-family="Helvetica,sans-Serif" font-size="10.00"># operator delete()</text>
<text text-anchor="start" x="47.73" y="-647.5" font-family="Helvetica,sans-Serif" font-size="10.00"># SocketConnector()</text>
<text text-anchor="start" x="47.73" y="-636.5" font-family="Helvetica,sans-Serif" font-size="10.00"># SocketConnector()</text>
<text text-anchor="start" x="47.73" y="-625.5" font-family="Helvetica,sans-Serif" font-size="10.00"># SocketConnector()</text>
<text text-anchor="start" x="47.73" y="-614.5" font-family="Helvetica,sans-Serif" font-size="10.00"># operator=()</text>
<text text-anchor="start" x="47.73" y="-603.5" font-family="Helvetica,sans-Serif" font-size="10.00"># ~SocketConnector()</text>
<text text-anchor="start" x="47.73" y="-592.5" font-family="Helvetica,sans-Serif" font-size="10.00"># connect()</text>
<text text-anchor="start" x="47.73" y="-581.5" font-family="Helvetica,sans-Serif" font-size="10.00">&#45; connectEvent()</text>
<text text-anchor="start" x="47.73" y="-570.5" font-family="Helvetica,sans-Serif" font-size="10.00">&#45; readEvent()</text>
<text text-anchor="start" x="47.73" y="-559.5" font-family="Helvetica,sans-Serif" font-size="10.00">&#45; unobserved()</text>
<text text-anchor="start" x="47.73" y="-548.5" font-family="Helvetica,sans-Serif" font-size="10.00">&#45; destruct()</text>
</a>
</g>
</g>
<!-- Node3&#45;&gt;Node8 -->
<g id="edge9" class="edge">
<title>Node3&#45;&gt;Node8</title>
<path fill="none" stroke="midnightblue" d="M108.07,-879.52C109.7,-870.61 111.39,-861.3 113.13,-851.79"/>
<polygon fill="none" stroke="midnightblue" points="104.62,-878.93 106.28,-889.39 111.51,-880.18 104.62,-878.93"/>
</g>
<!-- Node4 -->
<g id="node4" class="node">
<title>Node4</title>
<g id="a_node4"><a xlink:href="classnet_1_1_event_receiver.html" target="_top" xlink:title=" ">
<polygon fill="white" stroke="black" points="149.73,-1061.5 149.73,-1371.5 250.73,-1371.5 250.73,-1061.5 149.73,-1061.5"/>
<text text-anchor="middle" x="200.23" y="-1359.5" font-family="Helvetica,sans-Serif" font-size="10.00">net::EventReceiver</text>
<polyline fill="none" stroke="black" points="149.73,-1352.5 250.73,-1352.5 "/>
<text text-anchor="start" x="157.73" y="-1340.5" font-family="Helvetica,sans-Serif" font-size="10.00"># fd</text>
<text text-anchor="start" x="157.73" y="-1329.5" font-family="Helvetica,sans-Serif" font-size="10.00">&#45; _enabled</text>
<text text-anchor="start" x="157.73" y="-1318.5" font-family="Helvetica,sans-Serif" font-size="10.00">&#45; _suspended</text>
<text text-anchor="start" x="157.73" y="-1307.5" font-family="Helvetica,sans-Serif" font-size="10.00">&#45; maxInactivity</text>
<polyline fill="none" stroke="black" points="149.73,-1300.5 250.73,-1300.5 "/>
<text text-anchor="start" x="157.73" y="-1288.5" font-family="Helvetica,sans-Serif" font-size="10.00"># EventReceiver()</text>
<text text-anchor="start" x="157.73" y="-1277.5" font-family="Helvetica,sans-Serif" font-size="10.00"># EventReceiver()</text>
<text text-anchor="start" x="157.73" y="-1266.5" font-family="Helvetica,sans-Serif" font-size="10.00"># operator=()</text>
<text text-anchor="start" x="157.73" y="-1255.5" font-family="Helvetica,sans-Serif" font-size="10.00"># ~EventReceiver()</text>
<text text-anchor="start" x="157.73" y="-1244.5" font-family="Helvetica,sans-Serif" font-size="10.00"># setTimeout()</text>
<text text-anchor="start" x="157.73" y="-1233.5" font-family="Helvetica,sans-Serif" font-size="10.00"># isEnabled()</text>
<text text-anchor="start" x="157.73" y="-1222.5" font-family="Helvetica,sans-Serif" font-size="10.00"># isSuspended()</text>
<text text-anchor="start" x="157.73" y="-1211.5" font-family="Helvetica,sans-Serif" font-size="10.00">&#45; dispatchEvent()</text>
<text text-anchor="start" x="157.73" y="-1200.5" font-family="Helvetica,sans-Serif" font-size="10.00">&#45; timeoutEvent()</text>
<text text-anchor="start" x="157.73" y="-1189.5" font-family="Helvetica,sans-Serif" font-size="10.00">&#45; enabled()</text>
<text text-anchor="start" x="157.73" y="-1178.5" font-family="Helvetica,sans-Serif" font-size="10.00">&#45; disabled()</text>
<text text-anchor="start" x="157.73" y="-1167.5" font-family="Helvetica,sans-Serif" font-size="10.00">&#45; suspended()</text>
<text text-anchor="start" x="157.73" y="-1156.5" font-family="Helvetica,sans-Serif" font-size="10.00">&#45; resumed()</text>
<text text-anchor="start" x="157.73" y="-1145.5" font-family="Helvetica,sans-Serif" font-size="10.00">&#45; getTimeout()</text>
<text text-anchor="start" x="157.73" y="-1134.5" font-family="Helvetica,sans-Serif" font-size="10.00">&#45; getLastTriggered()</text>
<text text-anchor="start" x="157.73" y="-1123.5" font-family="Helvetica,sans-Serif" font-size="10.00">&#45; setLastTriggered()</text>
<text text-anchor="start" x="157.73" y="-1112.5" font-family="Helvetica,sans-Serif" font-size="10.00">&#45; enable()</text>
<text text-anchor="start" x="157.73" y="-1101.5" font-family="Helvetica,sans-Serif" font-size="10.00">&#45; disable()</text>
<text text-anchor="start" x="157.73" y="-1090.5" font-family="Helvetica,sans-Serif" font-size="10.00">&#45; suspend()</text>
<text text-anchor="start" x="157.73" y="-1079.5" font-family="Helvetica,sans-Serif" font-size="10.00">&#45; resume()</text>
<text text-anchor="start" x="157.73" y="-1068.5" font-family="Helvetica,sans-Serif" font-size="10.00">&#45; unobserved()</text>
</a>
</g>
</g>
<!-- Node4&#45;&gt;Node3 -->
<g id="edge3" class="edge">
<title>Node4&#45;&gt;Node3</title>
<path fill="none" stroke="midnightblue" d="M145.83,-1083.07C137.36,-1062.46 128.94,-1041.97 121.43,-1023.7"/>
<polygon fill="none" stroke="midnightblue" points="142.68,-1084.63 149.72,-1092.54 149.15,-1081.97 142.68,-1084.63"/>
</g>
<!-- Node6 -->
<g id="node6" class="node">
<title>Node6</title>
<g id="a_node6"><a xlink:href="classnet_1_1_read_event_receiver.html" target="_top" xlink:title=" ">
<polygon fill="white" stroke="black" points="246.23,-889.5 246.23,-1023.5 370.23,-1023.5 370.23,-889.5 246.23,-889.5"/>
<text text-anchor="middle" x="308.23" y="-1011.5" font-family="Helvetica,sans-Serif" font-size="10.00">net::ReadEventReceiver</text>
<polyline fill="none" stroke="black" points="246.23,-1004.5 370.23,-1004.5 "/>
<text text-anchor="middle" x="308.23" y="-992.5" font-family="Helvetica,sans-Serif" font-size="10.00"> </text>
<polyline fill="none" stroke="black" points="246.23,-985.5 370.23,-985.5 "/>
<text text-anchor="start" x="254.23" y="-973.5" font-family="Helvetica,sans-Serif" font-size="10.00">+ setTimeout()</text>
<text text-anchor="start" x="254.23" y="-962.5" font-family="Helvetica,sans-Serif" font-size="10.00">+ enable()</text>
<text text-anchor="start" x="254.23" y="-951.5" font-family="Helvetica,sans-Serif" font-size="10.00">+ disable()</text>
<text text-anchor="start" x="254.23" y="-940.5" font-family="Helvetica,sans-Serif" font-size="10.00">+ suspend()</text>
<text text-anchor="start" x="254.23" y="-929.5" font-family="Helvetica,sans-Serif" font-size="10.00">+ resume()</text>
<text text-anchor="start" x="254.23" y="-918.5" font-family="Helvetica,sans-Serif" font-size="10.00"># ReadEventReceiver()</text>
<text text-anchor="start" x="254.23" y="-907.5" font-family="Helvetica,sans-Serif" font-size="10.00"># readEvent()</text>
<text text-anchor="start" x="254.23" y="-896.5" font-family="Helvetica,sans-Serif" font-size="10.00"># dispatchEvent()</text>
</a>
</g>
</g>
<!-- Node4&#45;&gt;Node6 -->
<g id="edge6" class="edge">
<title>Node4&#45;&gt;Node6</title>
<path fill="none" stroke="midnightblue" d="M254.73,-1085.31C263.69,-1063.91 272.63,-1042.55 280.57,-1023.59"/>
<polygon fill="none" stroke="midnightblue" points="251.39,-1084.23 250.75,-1094.81 257.84,-1086.94 251.39,-1084.23"/>
</g>
<!-- Node5 -->
<g id="node5" class="node">
<title>Node5</title>
<g id="a_node5"><a xlink:href="classnet_1_1_observation_counter.html" target="_top" xlink:title=" ">
<polygon fill="white" stroke="black" points="138.73,-1409.5 138.73,-1466.5 261.73,-1466.5 261.73,-1409.5 138.73,-1409.5"/>
<text text-anchor="middle" x="200.23" y="-1454.5" font-family="Helvetica,sans-Serif" font-size="10.00">net::ObservationCounter</text>
<polyline fill="none" stroke="black" points="138.73,-1447.5 261.73,-1447.5 "/>
<text text-anchor="start" x="146.73" y="-1435.5" font-family="Helvetica,sans-Serif" font-size="10.00"># observationCounter</text>
<polyline fill="none" stroke="black" points="138.73,-1428.5 261.73,-1428.5 "/>
<text text-anchor="start" x="146.73" y="-1416.5" font-family="Helvetica,sans-Serif" font-size="10.00">+ isObserved()</text>
</a>
</g>
</g>
<!-- Node5&#45;&gt;Node4 -->
<g id="edge4" class="edge">
<title>Node5&#45;&gt;Node4</title>
<path fill="none" stroke="midnightblue" d="M200.23,-1398.99C200.23,-1390.78 200.23,-1381.62 200.23,-1371.89"/>
<polygon fill="none" stroke="midnightblue" points="196.73,-1399.2 200.23,-1409.2 203.73,-1399.2 196.73,-1399.2"/>
</g>
<!-- Node6&#45;&gt;Node2 -->
<g id="edge5" class="edge">
<title>Node6&#45;&gt;Node2</title>
<path fill="none" stroke="midnightblue" d="M311.3,-879.38C312.96,-787.82 309.34,-630.31 273.23,-501 269.46,-487.47 264.84,-473.66 259.74,-459.99"/>
<polygon fill="none" stroke="midnightblue" points="307.8,-879.32 311.09,-889.39 314.8,-879.46 307.8,-879.32"/>
</g>
<!-- Node6&#45;&gt;Node8 -->
<g id="edge10" class="edge">
<title>Node6&#45;&gt;Node8</title>
<path fill="none" stroke="midnightblue" d="M259.98,-880.95C253.94,-871.61 247.59,-861.81 241.1,-851.79"/>
<polygon fill="none" stroke="midnightblue" points="257.07,-882.9 265.44,-889.39 262.95,-879.1 257.07,-882.9"/>
</g>
<!-- Node7 -->
<g id="node7" class="node">
<title>Node7</title>
<g id="a_node7"><a xlink:title=" ">
<polygon fill="white" stroke="#bfbfbf" points="180.73,-928 180.73,-985 227.73,-985 227.73,-928 180.73,-928"/>
<text text-anchor="middle" x="204.23" y="-973" font-family="Helvetica,sans-Serif" font-size="10.00">Socket</text>
<polyline fill="none" stroke="#bfbfbf" points="180.73,-966 227.73,-966 "/>
<text text-anchor="middle" x="204.23" y="-954" font-family="Helvetica,sans-Serif" font-size="10.00"> </text>
<polyline fill="none" stroke="#bfbfbf" points="180.73,-947 227.73,-947 "/>
<text text-anchor="middle" x="204.23" y="-935" font-family="Helvetica,sans-Serif" font-size="10.00"> </text>
</a>
</g>
</g>
<!-- Node7&#45;&gt;Node2 -->
<g id="edge7" class="edge">
<title>Node7&#45;&gt;Node2</title>
<path fill="none" stroke="midnightblue" d="M222.92,-918.58C234.69,-894.57 248.22,-865.34 251.23,-852 285.62,-699.81 284.03,-654.7 257.23,-501 256.17,-494.91 254.93,-488.76 253.53,-482.59"/>
<polygon fill="none" stroke="midnightblue" points="219.65,-917.3 218.35,-927.82 225.92,-920.4 219.65,-917.3"/>
</g>
<!-- Node7&#45;&gt;Node8 -->
<g id="edge11" class="edge">
<title>Node7&#45;&gt;Node8</title>
<path fill="none" stroke="midnightblue" d="M195.07,-917.98C190.59,-899.63 184.87,-876.2 178.84,-851.5"/>
<polygon fill="none" stroke="midnightblue" points="191.72,-919.01 197.49,-927.89 198.52,-917.34 191.72,-919.01"/>
</g>
<!-- Node8&#45;&gt;Node2 -->
<g id="edge8" class="edge">
<title>Node8&#45;&gt;Node2</title>
<path fill="none" stroke="orange" d="M108.54,-531.06C109.04,-520.87 110.22,-510.78 112.23,-501 114.89,-488.09 118.51,-474.97 122.73,-461.99"/>
<polygon fill="orange" stroke="orange" points="105.03,-531.18 108.25,-541.28 112.03,-531.38 105.03,-531.18"/>
<text text-anchor="start" x="112.23" y="-515" font-family="Helvetica,sans-Serif" font-size="10.00"> &lt; stream::tls::SocketConnection</text>
<text text-anchor="middle" x="184.73" y="-504" font-family="Helvetica,sans-Serif" font-size="10.00">&lt; SocketT &gt; &gt;</text>
</g>
</g>
</svg>
