<?xml version="1.0" encoding="UTF-8" standalone="no"?>
<!DOCTYPE svg PUBLIC "-//W3C//DTD SVG 1.1//EN"
 "http://www.w3.org/Graphics/SVG/1.1/DTD/svg11.dtd">
<!-- Generated by graphviz version 2.43.0 (0)
 -->
<!-- Title: net::socket::stream::legacy::SocketConnection&lt; SocketT &gt; Pages: 1 -->
<svg width="691pt" height="1504pt"
 viewBox="0.00 0.00 691.00 1504.00" xmlns="http://www.w3.org/2000/svg" xmlns:xlink="http://www.w3.org/1999/xlink">
<g id="graph0" class="graph" transform="scale(1 1) rotate(0) translate(4 1500)">
<title>net::socket::stream::legacy::SocketConnection&lt; SocketT &gt;</title>
<polygon fill="white" stroke="transparent" points="-4,4 -4,-1500 687,-1500 687,4 -4,4"/>
<!-- Node1 -->
<g id="node1" class="node">
<title>Node1</title>
<g id="a_node1"><a xlink:title=" ">
<polygon fill="#bfbfbf" stroke="black" points="250,-0.5 250,-79.5 387,-79.5 387,-0.5 250,-0.5"/>
<text text-anchor="start" x="258" y="-67.5" font-family="Helvetica,sans-Serif" font-size="10.00">net::socket::stream</text>
<text text-anchor="start" x="258" y="-56.5" font-family="Helvetica,sans-Serif" font-size="10.00">::legacy::SocketConnection</text>
<text text-anchor="middle" x="318.5" y="-45.5" font-family="Helvetica,sans-Serif" font-size="10.00">&lt; SocketT &gt;</text>
<polyline fill="none" stroke="black" points="250,-38.5 387,-38.5 "/>
<text text-anchor="start" x="258" y="-26.5" font-family="Helvetica,sans-Serif" font-size="10.00">&#45; onDestruct</text>
<polyline fill="none" stroke="black" points="250,-19.5 387,-19.5 "/>
<text text-anchor="start" x="258" y="-7.5" font-family="Helvetica,sans-Serif" font-size="10.00">+ SocketConnection()</text>
</a>
</g>
</g>
<!-- Node2 -->
<g id="node2" class="node">
<title>Node2</title>
<g id="a_node2"><a xlink:href="classnet_1_1socket_1_1stream_1_1_socket_connection.html" target="_top" xlink:title=" ">
<polygon fill="white" stroke="black" points="221.5,-117.5 221.5,-361.5 415.5,-361.5 415.5,-117.5 221.5,-117.5"/>
<text text-anchor="start" x="229.5" y="-349.5" font-family="Helvetica,sans-Serif" font-size="10.00">net::socket::stream</text>
<text text-anchor="start" x="229.5" y="-338.5" font-family="Helvetica,sans-Serif" font-size="10.00">::SocketConnection&lt;</text>
<text text-anchor="start" x="229.5" y="-327.5" font-family="Helvetica,sans-Serif" font-size="10.00"> legacy::SocketReader</text>
<text text-anchor="start" x="229.5" y="-316.5" font-family="Helvetica,sans-Serif" font-size="10.00">&lt; SocketT &gt;, legacy::SocketWriter</text>
<text text-anchor="middle" x="318.5" y="-305.5" font-family="Helvetica,sans-Serif" font-size="10.00">&lt; SocketT &gt;, SocketT::SocketAddress &gt;</text>
<polyline fill="none" stroke="black" points="221.5,-298.5 415.5,-298.5 "/>
<text text-anchor="start" x="229.5" y="-286.5" font-family="Helvetica,sans-Serif" font-size="10.00">&#45; localAddress</text>
<text text-anchor="start" x="229.5" y="-275.5" font-family="Helvetica,sans-Serif" font-size="10.00">&#45; remoteAddress</text>
<text text-anchor="start" x="229.5" y="-264.5" font-family="Helvetica,sans-Serif" font-size="10.00">&#45; onDisconnect</text>
<polyline fill="none" stroke="black" points="221.5,-257.5 415.5,-257.5 "/>
<text text-anchor="start" x="229.5" y="-245.5" font-family="Helvetica,sans-Serif" font-size="10.00">+ setTimeout()</text>
<text text-anchor="start" x="229.5" y="-234.5" font-family="Helvetica,sans-Serif" font-size="10.00">+ getRemoteAddress()</text>
<text text-anchor="start" x="229.5" y="-223.5" font-family="Helvetica,sans-Serif" font-size="10.00">+ getLocalAddress()</text>
<text text-anchor="start" x="229.5" y="-212.5" font-family="Helvetica,sans-Serif" font-size="10.00">+ getLocalAddressAsString()</text>
<text text-anchor="start" x="229.5" y="-201.5" font-family="Helvetica,sans-Serif" font-size="10.00">+ getRemoteAddressAsString()</text>
<text text-anchor="start" x="229.5" y="-190.5" font-family="Helvetica,sans-Serif" font-size="10.00">+ enqueue()</text>
<text text-anchor="start" x="229.5" y="-179.5" font-family="Helvetica,sans-Serif" font-size="10.00">+ enqueue()</text>
<text text-anchor="start" x="229.5" y="-168.5" font-family="Helvetica,sans-Serif" font-size="10.00">+ close()</text>
<text text-anchor="start" x="229.5" y="-157.5" font-family="Helvetica,sans-Serif" font-size="10.00"># SocketConnection()</text>
<text text-anchor="start" x="229.5" y="-146.5" font-family="Helvetica,sans-Serif" font-size="10.00"># ~SocketConnection()</text>
<text text-anchor="start" x="229.5" y="-135.5" font-family="Helvetica,sans-Serif" font-size="10.00">&#45; SocketConnection()</text>
<text text-anchor="start" x="229.5" y="-124.5" font-family="Helvetica,sans-Serif" font-size="10.00">&#45; unobserved()</text>
</a>
</g>
</g>
<!-- Node2&#45;&gt;Node1 -->
<g id="edge1" class="edge">
<title>Node2&#45;&gt;Node1</title>
<path fill="none" stroke="midnightblue" d="M318.5,-107.31C318.5,-97.4 318.5,-87.99 318.5,-79.52"/>
<polygon fill="none" stroke="midnightblue" points="315,-107.36 318.5,-117.36 322,-107.36 315,-107.36"/>
</g>
<!-- Node3 -->
<g id="node3" class="node">
<title>Node3</title>
<g id="a_node3"><a xlink:href="classnet_1_1socket_1_1stream_1_1_socket_connection_base.html" target="_top" xlink:title=" ">
<polygon fill="white" stroke="black" points="0,-702.5 0,-902.5 153,-902.5 153,-702.5 0,-702.5"/>
<text text-anchor="start" x="8" y="-890.5" font-family="Helvetica,sans-Serif" font-size="10.00">net::socket::stream</text>
<text text-anchor="middle" x="76.5" y="-879.5" font-family="Helvetica,sans-Serif" font-size="10.00">::SocketConnectionBase</text>
<polyline fill="none" stroke="black" points="0,-872.5 153,-872.5 "/>
<text text-anchor="start" x="8" y="-860.5" font-family="Helvetica,sans-Serif" font-size="10.00"># socketProtocol</text>
<text text-anchor="start" x="8" y="-849.5" font-family="Helvetica,sans-Serif" font-size="10.00"># SocketProtocol</text>
<polyline fill="none" stroke="black" points="0,-842.5 153,-842.5 "/>
<text text-anchor="start" x="8" y="-830.5" font-family="Helvetica,sans-Serif" font-size="10.00">+ getSocketProtocol()</text>
<text text-anchor="start" x="8" y="-819.5" font-family="Helvetica,sans-Serif" font-size="10.00">+ getLocalAddressAsString()</text>
<text text-anchor="start" x="8" y="-808.5" font-family="Helvetica,sans-Serif" font-size="10.00">+ getRemoteAddressAsString()</text>
<text text-anchor="start" x="8" y="-797.5" font-family="Helvetica,sans-Serif" font-size="10.00">+ enqueue()</text>
<text text-anchor="start" x="8" y="-786.5" font-family="Helvetica,sans-Serif" font-size="10.00">+ enqueue()</text>
<text text-anchor="start" x="8" y="-775.5" font-family="Helvetica,sans-Serif" font-size="10.00">+ close()</text>
<text text-anchor="start" x="8" y="-764.5" font-family="Helvetica,sans-Serif" font-size="10.00">+ setTimeout()</text>
<text text-anchor="start" x="8" y="-753.5" font-family="Helvetica,sans-Serif" font-size="10.00"># SocketConnectionBase()</text>
<text text-anchor="start" x="8" y="-742.5" font-family="Helvetica,sans-Serif" font-size="10.00"># ~SocketConnectionBase()</text>
<text text-anchor="start" x="8" y="-731.5" font-family="Helvetica,sans-Serif" font-size="10.00"># switchSocketProtocol()</text>
<text text-anchor="start" x="8" y="-720.5" font-family="Helvetica,sans-Serif" font-size="10.00">&#45; SocketConnectionBase()</text>
<text text-anchor="start" x="8" y="-709.5" font-family="Helvetica,sans-Serif" font-size="10.00">&#45; operator=()</text>
</a>
</g>
</g>
<!-- Node3&#45;&gt;Node2 -->
<g id="edge2" class="edge">
<title>Node3&#45;&gt;Node2</title>
<path fill="none" stroke="midnightblue" d="M74.33,-691.94C76.97,-615.21 89.05,-512.28 129.5,-431 151.19,-387.41 186.67,-347.67 221.06,-315.89"/>
<polygon fill="none" stroke="midnightblue" points="70.83,-692.01 74.04,-702.11 77.83,-692.22 70.83,-692.01"/>
</g>
<!-- Node13 -->
<g id="node13" class="node">
<title>Node13</title>
<g id="a_node13"><a xlink:href="classnet_1_1socket_1_1stream_1_1_socket_connection.html" target="_top" xlink:title=" ">
<polygon fill="white" stroke="black" points="139,-431.5 139,-664.5 292,-664.5 292,-431.5 139,-431.5"/>
<text text-anchor="start" x="147" y="-652.5" font-family="Helvetica,sans-Serif" font-size="10.00">net::socket::stream</text>
<text text-anchor="start" x="147" y="-641.5" font-family="Helvetica,sans-Serif" font-size="10.00">::SocketConnection&lt;</text>
<text text-anchor="start" x="147" y="-630.5" font-family="Helvetica,sans-Serif" font-size="10.00"> SocketReaderT, SocketWriter</text>
<text text-anchor="middle" x="215.5" y="-619.5" font-family="Helvetica,sans-Serif" font-size="10.00">T, SocketAddressT &gt;</text>
<polyline fill="none" stroke="black" points="139,-612.5 292,-612.5 "/>
<text text-anchor="start" x="147" y="-600.5" font-family="Helvetica,sans-Serif" font-size="10.00">&#45; localAddress</text>
<text text-anchor="start" x="147" y="-589.5" font-family="Helvetica,sans-Serif" font-size="10.00">&#45; remoteAddress</text>
<text text-anchor="start" x="147" y="-578.5" font-family="Helvetica,sans-Serif" font-size="10.00">&#45; onDisconnect</text>
<polyline fill="none" stroke="black" points="139,-571.5 292,-571.5 "/>
<text text-anchor="start" x="147" y="-559.5" font-family="Helvetica,sans-Serif" font-size="10.00">+ setTimeout()</text>
<text text-anchor="start" x="147" y="-548.5" font-family="Helvetica,sans-Serif" font-size="10.00">+ getRemoteAddress()</text>
<text text-anchor="start" x="147" y="-537.5" font-family="Helvetica,sans-Serif" font-size="10.00">+ getLocalAddress()</text>
<text text-anchor="start" x="147" y="-526.5" font-family="Helvetica,sans-Serif" font-size="10.00">+ getLocalAddressAsString()</text>
<text text-anchor="start" x="147" y="-515.5" font-family="Helvetica,sans-Serif" font-size="10.00">+ getRemoteAddressAsString()</text>
<text text-anchor="start" x="147" y="-504.5" font-family="Helvetica,sans-Serif" font-size="10.00">+ enqueue()</text>
<text text-anchor="start" x="147" y="-493.5" font-family="Helvetica,sans-Serif" font-size="10.00">+ enqueue()</text>
<text text-anchor="start" x="147" y="-482.5" font-family="Helvetica,sans-Serif" font-size="10.00">+ close()</text>
<text text-anchor="start" x="147" y="-471.5" font-family="Helvetica,sans-Serif" font-size="10.00"># SocketConnection()</text>
<text text-anchor="start" x="147" y="-460.5" font-family="Helvetica,sans-Serif" font-size="10.00"># ~SocketConnection()</text>
<text text-anchor="start" x="147" y="-449.5" font-family="Helvetica,sans-Serif" font-size="10.00">&#45; SocketConnection()</text>
<text text-anchor="start" x="147" y="-438.5" font-family="Helvetica,sans-Serif" font-size="10.00">&#45; unobserved()</text>
</a>
</g>
</g>
<!-- Node3&#45;&gt;Node13 -->
<g id="edge15" class="edge">
<title>Node3&#45;&gt;Node13</title>
<path fill="none" stroke="midnightblue" d="M135.88,-693.63C141.18,-684 146.56,-674.22 151.9,-664.53"/>
<polygon fill="none" stroke="midnightblue" points="132.79,-691.98 131.04,-702.43 138.93,-695.36 132.79,-691.98"/>
</g>
<!-- Node4 -->
<g id="node4" class="node">
<title>Node4</title>
<g id="a_node4"><a xlink:href="classnet_1_1socket_1_1stream_1_1legacy_1_1_socket_reader.html" target="_top" xlink:title=" ">
<polygon fill="white" stroke="black" points="373,-503 373,-593 492,-593 492,-503 373,-503"/>
<text text-anchor="start" x="381" y="-581" font-family="Helvetica,sans-Serif" font-size="10.00">net::socket::stream</text>
<text text-anchor="start" x="381" y="-570" font-family="Helvetica,sans-Serif" font-size="10.00">::legacy::SocketReader</text>
<text text-anchor="middle" x="432.5" y="-559" font-family="Helvetica,sans-Serif" font-size="10.00">&lt; SocketT &gt;</text>
<polyline fill="none" stroke="black" points="373,-552 492,-552 "/>
<text text-anchor="middle" x="432.5" y="-540" font-family="Helvetica,sans-Serif" font-size="10.00"> </text>
<polyline fill="none" stroke="black" points="373,-533 492,-533 "/>
<text text-anchor="start" x="381" y="-521" font-family="Helvetica,sans-Serif" font-size="10.00">&#45; read()</text>
<text text-anchor="start" x="381" y="-510" font-family="Helvetica,sans-Serif" font-size="10.00">&#45; getError()</text>
</a>
</g>
</g>
<!-- Node4&#45;&gt;Node2 -->
<g id="edge3" class="edge">
<title>Node4&#45;&gt;Node2</title>
<path fill="none" stroke="midnightblue" d="M428.75,-492.88C425.15,-459.5 418.13,-416.29 404.5,-380 402.2,-373.87 399.62,-367.72 396.82,-361.6"/>
<polygon fill="none" stroke="midnightblue" points="425.27,-493.3 429.76,-502.9 432.24,-492.6 425.27,-493.3"/>
</g>
<!-- Node5 -->
<g id="node5" class="node">
<title>Node5</title>
<g id="a_node5"><a xlink:href="classnet_1_1socket_1_1stream_1_1_socket_reader.html" target="_top" xlink:title=" ">
<polygon fill="white" stroke="black" points="371.5,-724.5 371.5,-880.5 511.5,-880.5 511.5,-724.5 371.5,-724.5"/>
<text text-anchor="start" x="379.5" y="-868.5" font-family="Helvetica,sans-Serif" font-size="10.00">net::socket::stream</text>
<text text-anchor="middle" x="441.5" y="-857.5" font-family="Helvetica,sans-Serif" font-size="10.00">::SocketReader&lt; SocketT &gt;</text>
<polyline fill="none" stroke="black" points="371.5,-850.5 511.5,-850.5 "/>
<text text-anchor="start" x="379.5" y="-838.5" font-family="Helvetica,sans-Serif" font-size="10.00">&#45; onRead</text>
<text text-anchor="start" x="379.5" y="-827.5" font-family="Helvetica,sans-Serif" font-size="10.00">&#45; onError</text>
<text text-anchor="start" x="379.5" y="-816.5" font-family="Helvetica,sans-Serif" font-size="10.00">&#45; markShutdown</text>
<polyline fill="none" stroke="black" points="371.5,-809.5 511.5,-809.5 "/>
<text text-anchor="start" x="379.5" y="-797.5" font-family="Helvetica,sans-Serif" font-size="10.00"># SocketReader()</text>
<text text-anchor="start" x="379.5" y="-786.5" font-family="Helvetica,sans-Serif" font-size="10.00"># ~SocketReader()</text>
<text text-anchor="start" x="379.5" y="-775.5" font-family="Helvetica,sans-Serif" font-size="10.00"># shutdown()</text>
<text text-anchor="start" x="379.5" y="-764.5" font-family="Helvetica,sans-Serif" font-size="10.00">&#45; SocketReader()</text>
<text text-anchor="start" x="379.5" y="-753.5" font-family="Helvetica,sans-Serif" font-size="10.00">&#45; read()</text>
<text text-anchor="start" x="379.5" y="-742.5" font-family="Helvetica,sans-Serif" font-size="10.00">&#45; readEvent()</text>
<text text-anchor="start" x="379.5" y="-731.5" font-family="Helvetica,sans-Serif" font-size="10.00">&#45; getError()</text>
</a>
</g>
</g>
<!-- Node5&#45;&gt;Node4 -->
<g id="edge4" class="edge">
<title>Node5&#45;&gt;Node4</title>
<path fill="none" stroke="midnightblue" d="M438.39,-714.12C436.93,-673.25 435.26,-626.36 434.07,-593.01"/>
<polygon fill="none" stroke="midnightblue" points="434.9,-714.5 438.75,-724.37 441.89,-714.25 434.9,-714.5"/>
</g>
<!-- Node6 -->
<g id="node6" class="node">
<title>Node6</title>
<g id="a_node6"><a xlink:href="classnet_1_1_read_event_receiver.html" target="_top" xlink:title=" ">
<polygon fill="white" stroke="black" points="346.5,-940.5 346.5,-1019.5 470.5,-1019.5 470.5,-940.5 346.5,-940.5"/>
<text text-anchor="middle" x="408.5" y="-1007.5" font-family="Helvetica,sans-Serif" font-size="10.00">net::ReadEventReceiver</text>
<polyline fill="none" stroke="black" points="346.5,-1000.5 470.5,-1000.5 "/>
<text text-anchor="middle" x="408.5" y="-988.5" font-family="Helvetica,sans-Serif" font-size="10.00"> </text>
<polyline fill="none" stroke="black" points="346.5,-981.5 470.5,-981.5 "/>
<text text-anchor="start" x="354.5" y="-969.5" font-family="Helvetica,sans-Serif" font-size="10.00"># ReadEventReceiver()</text>
<text text-anchor="start" x="354.5" y="-958.5" font-family="Helvetica,sans-Serif" font-size="10.00"># readEvent()</text>
<text text-anchor="start" x="354.5" y="-947.5" font-family="Helvetica,sans-Serif" font-size="10.00">&#45; dispatchEvent()</text>
</a>
</g>
</g>
<!-- Node6&#45;&gt;Node5 -->
<g id="edge5" class="edge">
<title>Node6&#45;&gt;Node5</title>
<path fill="none" stroke="midnightblue" d="M417.67,-930.23C420.55,-914.91 423.8,-897.61 426.96,-880.82"/>
<polygon fill="none" stroke="midnightblue" points="414.15,-930.01 415.74,-940.49 421.03,-931.3 414.15,-930.01"/>
</g>
<!-- Node7 -->
<g id="node7" class="node">
<title>Node7</title>
<g id="a_node7"><a xlink:href="classnet_1_1_descriptor_event_receiver.html" target="_top" xlink:title=" ">
<polygon fill="white" stroke="black" points="441.5,-1057.5 441.5,-1389.5 587.5,-1389.5 587.5,-1057.5 441.5,-1057.5"/>
<text text-anchor="middle" x="514.5" y="-1377.5" font-family="Helvetica,sans-Serif" font-size="10.00">net::DescriptorEventReceiver</text>
<polyline fill="none" stroke="black" points="441.5,-1370.5 587.5,-1370.5 "/>
<text text-anchor="start" x="449.5" y="-1358.5" font-family="Helvetica,sans-Serif" font-size="10.00">&#45; descriptorEventDispatcher</text>
<text text-anchor="start" x="449.5" y="-1347.5" font-family="Helvetica,sans-Serif" font-size="10.00">&#45; fd</text>
<text text-anchor="start" x="449.5" y="-1336.5" font-family="Helvetica,sans-Serif" font-size="10.00">&#45; _enabled</text>
<text text-anchor="start" x="449.5" y="-1325.5" font-family="Helvetica,sans-Serif" font-size="10.00">&#45; _suspended</text>
<text text-anchor="start" x="449.5" y="-1314.5" font-family="Helvetica,sans-Serif" font-size="10.00">&#45; maxInactivity</text>
<text text-anchor="start" x="449.5" y="-1303.5" font-family="Helvetica,sans-Serif" font-size="10.00">&#45; initialTimeout</text>
<polyline fill="none" stroke="black" points="441.5,-1296.5 587.5,-1296.5 "/>
<text text-anchor="start" x="449.5" y="-1284.5" font-family="Helvetica,sans-Serif" font-size="10.00">+ enable()</text>
<text text-anchor="start" x="449.5" y="-1273.5" font-family="Helvetica,sans-Serif" font-size="10.00">+ disable()</text>
<text text-anchor="start" x="449.5" y="-1262.5" font-family="Helvetica,sans-Serif" font-size="10.00">+ suspend()</text>
<text text-anchor="start" x="449.5" y="-1251.5" font-family="Helvetica,sans-Serif" font-size="10.00">+ resume()</text>
<text text-anchor="start" x="449.5" y="-1240.5" font-family="Helvetica,sans-Serif" font-size="10.00"># DescriptorEventReceiver()</text>
<text text-anchor="start" x="449.5" y="-1229.5" font-family="Helvetica,sans-Serif" font-size="10.00"># ~DescriptorEventReceiver()</text>
<text text-anchor="start" x="449.5" y="-1218.5" font-family="Helvetica,sans-Serif" font-size="10.00"># setTimeout()</text>
<text text-anchor="start" x="449.5" y="-1207.5" font-family="Helvetica,sans-Serif" font-size="10.00"># isEnabled()</text>
<text text-anchor="start" x="449.5" y="-1196.5" font-family="Helvetica,sans-Serif" font-size="10.00"># isSuspended()</text>
<text text-anchor="start" x="449.5" y="-1185.5" font-family="Helvetica,sans-Serif" font-size="10.00">&#45; DescriptorEventReceiver()</text>
<text text-anchor="start" x="449.5" y="-1174.5" font-family="Helvetica,sans-Serif" font-size="10.00">&#45; operator=()</text>
<text text-anchor="start" x="449.5" y="-1163.5" font-family="Helvetica,sans-Serif" font-size="10.00">&#45; dispatchEvent()</text>
<text text-anchor="start" x="449.5" y="-1152.5" font-family="Helvetica,sans-Serif" font-size="10.00">&#45; timeoutEvent()</text>
<text text-anchor="start" x="449.5" y="-1141.5" font-family="Helvetica,sans-Serif" font-size="10.00">&#45; enabled()</text>
<text text-anchor="start" x="449.5" y="-1130.5" font-family="Helvetica,sans-Serif" font-size="10.00">&#45; disabled()</text>
<text text-anchor="start" x="449.5" y="-1119.5" font-family="Helvetica,sans-Serif" font-size="10.00">&#45; suspended()</text>
<text text-anchor="start" x="449.5" y="-1108.5" font-family="Helvetica,sans-Serif" font-size="10.00">&#45; resumed()</text>
<text text-anchor="start" x="449.5" y="-1097.5" font-family="Helvetica,sans-Serif" font-size="10.00">&#45; getTimeout()</text>
<text text-anchor="start" x="449.5" y="-1086.5" font-family="Helvetica,sans-Serif" font-size="10.00">&#45; getLastTriggered()</text>
<text text-anchor="start" x="449.5" y="-1075.5" font-family="Helvetica,sans-Serif" font-size="10.00">&#45; triggered()</text>
<text text-anchor="start" x="449.5" y="-1064.5" font-family="Helvetica,sans-Serif" font-size="10.00">&#45; unobserved()</text>
</a>
</g>
</g>
<!-- Node7&#45;&gt;Node6 -->
<g id="edge6" class="edge">
<title>Node7&#45;&gt;Node6</title>
<path fill="none" stroke="midnightblue" d="M438,-1048.2C433.48,-1037.91 429.24,-1028.26 425.47,-1019.67"/>
<polygon fill="none" stroke="midnightblue" points="434.82,-1049.66 442.04,-1057.41 441.22,-1046.85 434.82,-1049.66"/>
</g>
<!-- Node12 -->
<g id="node12" class="node">
<title>Node12</title>
<g id="a_node12"><a xlink:href="classnet_1_1_write_event_receiver.html" target="_top" xlink:title=" ">
<polygon fill="white" stroke="black" points="560,-940.5 560,-1019.5 683,-1019.5 683,-940.5 560,-940.5"/>
<text text-anchor="middle" x="621.5" y="-1007.5" font-family="Helvetica,sans-Serif" font-size="10.00">net::WriteEventReceiver</text>
<polyline fill="none" stroke="black" points="560,-1000.5 683,-1000.5 "/>
<text text-anchor="middle" x="621.5" y="-988.5" font-family="Helvetica,sans-Serif" font-size="10.00"> </text>
<polyline fill="none" stroke="black" points="560,-981.5 683,-981.5 "/>
<text text-anchor="start" x="568" y="-969.5" font-family="Helvetica,sans-Serif" font-size="10.00"># WriteEventReceiver()</text>
<text text-anchor="start" x="568" y="-958.5" font-family="Helvetica,sans-Serif" font-size="10.00"># writeEvent()</text>
<text text-anchor="start" x="568" y="-947.5" font-family="Helvetica,sans-Serif" font-size="10.00">&#45; dispatchEvent()</text>
</a>
</g>
</g>
<!-- Node7&#45;&gt;Node12 -->
<g id="edge12" class="edge">
<title>Node7&#45;&gt;Node12</title>
<path fill="none" stroke="midnightblue" d="M591.72,-1048.2C596.29,-1037.91 600.56,-1028.26 604.37,-1019.67"/>
<polygon fill="none" stroke="midnightblue" points="588.5,-1046.85 587.64,-1057.41 594.9,-1049.69 588.5,-1046.85"/>
</g>
<!-- Node8 -->
<g id="node8" class="node">
<title>Node8</title>
<g id="a_node8"><a xlink:href="classnet_1_1_observation_counter.html" target="_top" xlink:title=" ">
<polygon fill="white" stroke="black" points="453,-1427.5 453,-1495.5 576,-1495.5 576,-1427.5 453,-1427.5"/>
<text text-anchor="middle" x="514.5" y="-1483.5" font-family="Helvetica,sans-Serif" font-size="10.00">net::ObservationCounter</text>
<polyline fill="none" stroke="black" points="453,-1476.5 576,-1476.5 "/>
<text text-anchor="start" x="461" y="-1464.5" font-family="Helvetica,sans-Serif" font-size="10.00"># observationCounter</text>
<text text-anchor="start" x="461" y="-1453.5" font-family="Helvetica,sans-Serif" font-size="10.00"># lastTriggered</text>
<polyline fill="none" stroke="black" points="453,-1446.5 576,-1446.5 "/>
<text text-anchor="start" x="461" y="-1434.5" font-family="Helvetica,sans-Serif" font-size="10.00">+ isObserved()</text>
</a>
</g>
</g>
<!-- Node8&#45;&gt;Node7 -->
<g id="edge7" class="edge">
<title>Node8&#45;&gt;Node7</title>
<path fill="none" stroke="midnightblue" d="M514.5,-1417.2C514.5,-1408.73 514.5,-1399.39 514.5,-1389.53"/>
<polygon fill="none" stroke="midnightblue" points="511,-1417.44 514.5,-1427.44 518,-1417.44 511,-1417.44"/>
</g>
<!-- Node9 -->
<g id="node9" class="node">
<title>Node9</title>
<g id="a_node9"><a xlink:title=" ">
<polygon fill="white" stroke="#bfbfbf" points="489,-951.5 489,-1008.5 542,-1008.5 542,-951.5 489,-951.5"/>
<text text-anchor="middle" x="515.5" y="-996.5" font-family="Helvetica,sans-Serif" font-size="10.00">SocketT</text>
<polyline fill="none" stroke="#bfbfbf" points="489,-989.5 542,-989.5 "/>
<text text-anchor="middle" x="515.5" y="-977.5" font-family="Helvetica,sans-Serif" font-size="10.00"> </text>
<polyline fill="none" stroke="#bfbfbf" points="489,-970.5 542,-970.5 "/>
<text text-anchor="middle" x="515.5" y="-958.5" font-family="Helvetica,sans-Serif" font-size="10.00"> </text>
</a>
</g>
</g>
<!-- Node9&#45;&gt;Node5 -->
<g id="edge8" class="edge">
<title>Node9&#45;&gt;Node5</title>
<path fill="none" stroke="midnightblue" d="M499.8,-941.77C492.3,-923.98 483.02,-901.98 474.09,-880.8"/>
<polygon fill="none" stroke="midnightblue" points="496.66,-943.34 503.77,-951.19 503.11,-940.62 496.66,-943.34"/>
</g>
<!-- Node11 -->
<g id="node11" class="node">
<title>Node11</title>
<g id="a_node11"><a xlink:href="classnet_1_1socket_1_1stream_1_1_socket_writer.html" target="_top" xlink:title=" ">
<polygon fill="white" stroke="black" points="529.5,-719 529.5,-886 663.5,-886 663.5,-719 529.5,-719"/>
<text text-anchor="start" x="537.5" y="-874" font-family="Helvetica,sans-Serif" font-size="10.00">net::socket::stream</text>
<text text-anchor="middle" x="596.5" y="-863" font-family="Helvetica,sans-Serif" font-size="10.00">::SocketWriter&lt; SocketT &gt;</text>
<polyline fill="none" stroke="black" points="529.5,-856 663.5,-856 "/>
<text text-anchor="start" x="537.5" y="-844" font-family="Helvetica,sans-Serif" font-size="10.00">&#45; onError</text>
<text text-anchor="start" x="537.5" y="-833" font-family="Helvetica,sans-Serif" font-size="10.00">&#45; writeBuffer</text>
<text text-anchor="start" x="537.5" y="-822" font-family="Helvetica,sans-Serif" font-size="10.00">&#45; markShutdown</text>
<polyline fill="none" stroke="black" points="529.5,-815 663.5,-815 "/>
<text text-anchor="start" x="537.5" y="-803" font-family="Helvetica,sans-Serif" font-size="10.00"># SocketWriter()</text>
<text text-anchor="start" x="537.5" y="-792" font-family="Helvetica,sans-Serif" font-size="10.00"># ~SocketWriter()</text>
<text text-anchor="start" x="537.5" y="-781" font-family="Helvetica,sans-Serif" font-size="10.00"># enqueue()</text>
<text text-anchor="start" x="537.5" y="-770" font-family="Helvetica,sans-Serif" font-size="10.00"># shutdown()</text>
<text text-anchor="start" x="537.5" y="-759" font-family="Helvetica,sans-Serif" font-size="10.00">&#45; SocketWriter()</text>
<text text-anchor="start" x="537.5" y="-748" font-family="Helvetica,sans-Serif" font-size="10.00">&#45; write()</text>
<text text-anchor="start" x="537.5" y="-737" font-family="Helvetica,sans-Serif" font-size="10.00">&#45; writeEvent()</text>
<text text-anchor="start" x="537.5" y="-726" font-family="Helvetica,sans-Serif" font-size="10.00">&#45; getError()</text>
</a>
</g>
</g>
<!-- Node9&#45;&gt;Node11 -->
<g id="edge13" class="edge">
<title>Node9&#45;&gt;Node11</title>
<path fill="none" stroke="midnightblue" d="M532.57,-942.01C540.11,-925.67 549.31,-905.75 558.35,-886.17"/>
<polygon fill="none" stroke="midnightblue" points="529.35,-940.65 528.33,-951.19 535.7,-943.58 529.35,-940.65"/>
</g>
<!-- Node10 -->
<g id="node10" class="node">
<title>Node10</title>
<g id="a_node10"><a xlink:href="classnet_1_1socket_1_1stream_1_1legacy_1_1_socket_writer.html" target="_top" xlink:title=" ">
<polygon fill="white" stroke="black" points="538,-503 538,-593 651,-593 651,-503 538,-503"/>
<text text-anchor="start" x="546" y="-581" font-family="Helvetica,sans-Serif" font-size="10.00">net::socket::stream</text>
<text text-anchor="start" x="546" y="-570" font-family="Helvetica,sans-Serif" font-size="10.00">::legacy::SocketWriter</text>
<text text-anchor="middle" x="594.5" y="-559" font-family="Helvetica,sans-Serif" font-size="10.00">&lt; SocketT &gt;</text>
<polyline fill="none" stroke="black" points="538,-552 651,-552 "/>
<text text-anchor="middle" x="594.5" y="-540" font-family="Helvetica,sans-Serif" font-size="10.00"> </text>
<polyline fill="none" stroke="black" points="538,-533 651,-533 "/>
<text text-anchor="start" x="546" y="-521" font-family="Helvetica,sans-Serif" font-size="10.00">&#45; write()</text>
<text text-anchor="start" x="546" y="-510" font-family="Helvetica,sans-Serif" font-size="10.00">&#45; getError()</text>
</a>
</g>
</g>
<!-- Node10&#45;&gt;Node2 -->
<g id="edge9" class="edge">
<title>Node10&#45;&gt;Node2</title>
<path fill="none" stroke="midnightblue" d="M553.76,-494.89C537.55,-474.64 518.49,-451.44 500.5,-431 473.75,-400.61 443.75,-368.47 415.93,-339.42"/>
<polygon fill="none" stroke="midnightblue" points="551.09,-497.15 560.06,-502.79 556.56,-492.79 551.09,-497.15"/>
</g>
<!-- Node11&#45;&gt;Node10 -->
<g id="edge10" class="edge">
<title>Node11&#45;&gt;Node10</title>
<path fill="none" stroke="midnightblue" d="M595.76,-708.64C595.45,-669.19 595.1,-625.06 594.85,-593.21"/>
<polygon fill="none" stroke="midnightblue" points="592.27,-708.85 595.85,-718.82 599.27,-708.79 592.27,-708.85"/>
</g>
<!-- Node12&#45;&gt;Node11 -->
<g id="edge11" class="edge">
<title>Node12&#45;&gt;Node11</title>
<path fill="none" stroke="midnightblue" d="M614.57,-930.34C612.61,-916.62 610.43,-901.3 608.28,-886.18"/>
<polygon fill="none" stroke="midnightblue" points="611.14,-931.08 616.01,-940.49 618.07,-930.09 611.14,-931.08"/>
</g>
<!-- Node13&#45;&gt;Node2 -->
<g id="edge14" class="edge">
<title>Node13&#45;&gt;Node2</title>
<path fill="none" stroke="orange" d="M216.75,-421.13C218.96,-407.04 222.1,-393.08 226.5,-380 228.58,-373.81 231.01,-367.64 233.7,-361.51"/>
<polygon fill="orange" stroke="orange" points="213.24,-421 215.31,-431.39 220.17,-421.97 213.24,-421"/>
<text text-anchor="start" x="226.5" y="-405" font-family="Helvetica,sans-Serif" font-size="10.00"> &lt; legacy::SocketReader</text>
<text text-anchor="start" x="226.5" y="-394" font-family="Helvetica,sans-Serif" font-size="10.00">&lt; SocketT &gt;, legacy::SocketWriter</text>
<text text-anchor="middle" x="315.5" y="-383" font-family="Helvetica,sans-Serif" font-size="10.00">&lt; SocketT &gt;, SocketT::SocketAddress &gt;</text>
</g>
<!-- Node14 -->
<g id="node14" class="node">
<title>Node14</title>
<g id="a_node14"><a xlink:title=" ">
<polygon fill="white" stroke="#bfbfbf" points="171,-774 171,-831 256,-831 256,-774 171,-774"/>
<text text-anchor="middle" x="213.5" y="-819" font-family="Helvetica,sans-Serif" font-size="10.00">SocketReaderT</text>
<polyline fill="none" stroke="#bfbfbf" points="171,-812 256,-812 "/>
<text text-anchor="middle" x="213.5" y="-800" font-family="Helvetica,sans-Serif" font-size="10.00"> </text>
<polyline fill="none" stroke="#bfbfbf" points="171,-793 256,-793 "/>
<text text-anchor="middle" x="213.5" y="-781" font-family="Helvetica,sans-Serif" font-size="10.00"> </text>
</a>
</g>
</g>
<!-- Node14&#45;&gt;Node13 -->
<g id="edge16" class="edge">
<title>Node14&#45;&gt;Node13</title>
<path fill="none" stroke="midnightblue" d="M213.8,-763.69C214.01,-737.23 214.3,-700.37 214.58,-664.65"/>
<polygon fill="none" stroke="midnightblue" points="210.3,-763.97 213.72,-774 217.3,-764.03 210.3,-763.97"/>
</g>
<!-- Node15 -->
<g id="node15" class="node">
<title>Node15</title>
<g id="a_node15"><a xlink:title=" ">
<polygon fill="white" stroke="#bfbfbf" points="274,-774 274,-831 353,-831 353,-774 274,-774"/>
<text text-anchor="middle" x="313.5" y="-819" font-family="Helvetica,sans-Serif" font-size="10.00">SocketWriterT</text>
<polyline fill="none" stroke="#bfbfbf" points="274,-812 353,-812 "/>
<text text-anchor="middle" x="313.5" y="-800" font-family="Helvetica,sans-Serif" font-size="10.00"> </text>
<polyline fill="none" stroke="#bfbfbf" points="274,-793 353,-793 "/>
<text text-anchor="middle" x="313.5" y="-781" font-family="Helvetica,sans-Serif" font-size="10.00"> </text>
</a>
</g>
</g>
<!-- Node15&#45;&gt;Node13 -->
<g id="edge17" class="edge">
<title>Node15&#45;&gt;Node13</title>
<path fill="none" stroke="midnightblue" d="M299.1,-764.39C288.81,-737.89 274.37,-700.69 260.39,-664.65"/>
<polygon fill="none" stroke="midnightblue" points="295.94,-765.94 302.83,-774 302.47,-763.41 295.94,-765.94"/>
</g>
</g>
</svg>
