<?xml version="1.0" encoding="UTF-8" standalone="no"?>
<!DOCTYPE svg PUBLIC "-//W3C//DTD SVG 1.1//EN"
 "http://www.w3.org/Graphics/SVG/1.1/DTD/svg11.dtd">
<!-- Generated by graphviz version 2.43.0 (0)
 -->
<!-- Title: net::ConnectEventReceiver::setTimeout Pages: 1 -->
<svg width="443pt" height="149pt"
 viewBox="0.00 0.00 443.00 149.00" xmlns="http://www.w3.org/2000/svg" xmlns:xlink="http://www.w3.org/1999/xlink">
<g id="graph0" class="graph" transform="scale(1 1) rotate(0) translate(4 145)">
<title>net::ConnectEventReceiver::setTimeout</title>
<polygon fill="white" stroke="transparent" points="-4,4 -4,-145 439,-145 439,4 -4,4"/>
<!-- Node1 -->
<g id="node1" class="node">
<title>Node1</title>
<g id="a_node1"><a xlink:title=" ">
<polygon fill="#bfbfbf" stroke="black" points="0,-44.5 0,-74.5 137,-74.5 137,-44.5 0,-44.5"/>
<text text-anchor="start" x="8" y="-62.5" font-family="Helvetica,sans-Serif" font-size="10.00">net::ConnectEventReceiver</text>
<text text-anchor="middle" x="68.5" y="-51.5" font-family="Helvetica,sans-Serif" font-size="10.00">::setTimeout</text>
</a>
</g>
</g>
<!-- Node2 -->
<g id="node2" class="node">
<title>Node2</title>
<g id="a_node2"><a xlink:href="classnet_1_1_event_receiver.html#a42477f416cc319660c15318f674f7cda" target="_top" xlink:title=" ">
<polygon fill="white" stroke="black" points="185,-110.5 185,-140.5 286,-140.5 286,-110.5 185,-110.5"/>
<text text-anchor="start" x="193" y="-128.5" font-family="Helvetica,sans-Serif" font-size="10.00">net::EventReceiver</text>
<text text-anchor="middle" x="235.5" y="-117.5" font-family="Helvetica,sans-Serif" font-size="10.00">::getTimeout</text>
</a>
</g>
</g>
<!-- Node1&#45;&gt;Node2 -->
<g id="edge1" class="edge">
<title>Node1&#45;&gt;Node2</title>
<path fill="none" stroke="midnightblue" d="M107.35,-74.64C131.15,-84.16 162.03,-96.51 187.39,-106.66"/>
<polygon fill="midnightblue" stroke="midnightblue" points="186.24,-109.96 196.82,-110.43 188.84,-103.47 186.24,-109.96"/>
</g>
<!-- Node3 -->
<g id="node3" class="node">
<title>Node3</title>
<g id="a_node3"><a xlink:href="classnet_1_1_event_loop.html#a6d8bfd6fa03bb6bf423035ab190657ef" target="_top" xlink:title=" ">
<polygon fill="white" stroke="black" points="173,-72 173,-91 298,-91 298,-72 173,-72"/>
<text text-anchor="middle" x="235.5" y="-79" font-family="Helvetica,sans-Serif" font-size="10.00">net::EventLoop::instance</text>
</a>
</g>
</g>
<!-- Node1&#45;&gt;Node3 -->
<g id="edge2" class="edge">
<title>Node1&#45;&gt;Node3</title>
<path fill="none" stroke="midnightblue" d="M137.09,-68.51C145.6,-69.65 154.32,-70.81 162.89,-71.95"/>
<polygon fill="midnightblue" stroke="midnightblue" points="162.48,-75.43 172.85,-73.28 163.4,-68.49 162.48,-75.43"/>
</g>
<!-- Node4 -->
<g id="node4" class="node">
<title>Node4</title>
<g id="a_node4"><a xlink:href="classnet_1_1_event_receiver.html#a26d6a5c5cdd5300540a937c17f91fdcd" target="_top" xlink:title=" ">
<polygon fill="white" stroke="black" points="185,-22.5 185,-52.5 286,-52.5 286,-22.5 185,-22.5"/>
<text text-anchor="start" x="193" y="-40.5" font-family="Helvetica,sans-Serif" font-size="10.00">net::EventReceiver</text>
<text text-anchor="middle" x="235.5" y="-29.5" font-family="Helvetica,sans-Serif" font-size="10.00">::setTimeout</text>
</a>
</g>
</g>
<!-- Node1&#45;&gt;Node4 -->
<g id="edge3" class="edge">
<title>Node1&#45;&gt;Node4</title>
<path fill="none" stroke="midnightblue" d="M137.09,-50.49C149.6,-48.82 162.59,-47.09 174.85,-45.45"/>
<polygon fill="midnightblue" stroke="midnightblue" points="175.5,-48.9 184.95,-44.11 174.57,-41.96 175.5,-48.9"/>
</g>
<!-- Node5 -->
<g id="node5" class="node">
<title>Node5</title>
<g id="a_node5"><a xlink:href="classnet_1_1_event_receiver.html#ad2da553049435ab5f08b0fe24b5bd210" target="_top" xlink:title=" ">
<polygon fill="white" stroke="black" points="334,-0.5 334,-30.5 435,-30.5 435,-0.5 334,-0.5"/>
<text text-anchor="start" x="342" y="-18.5" font-family="Helvetica,sans-Serif" font-size="10.00">net::EventReceiver</text>
<text text-anchor="middle" x="384.5" y="-7.5" font-family="Helvetica,sans-Serif" font-size="10.00">::timeout</text>
</a>
</g>
</g>
<!-- Node1&#45;&gt;Node5 -->
<g id="edge5" class="edge">
<title>Node1&#45;&gt;Node5</title>
<path fill="none" stroke="midnightblue" d="M95.27,-44.39C115.61,-33.39 145.11,-19.42 173,-13.5 223.04,-2.88 281.28,-4.47 323.8,-8.09"/>
<polygon fill="midnightblue" stroke="midnightblue" points="323.71,-11.6 333.98,-9.03 324.34,-4.63 323.71,-11.6"/>
</g>
<!-- Node4&#45;&gt;Node5 -->
<g id="edge4" class="edge">
<title>Node4&#45;&gt;Node5</title>
<path fill="none" stroke="midnightblue" d="M286.27,-30.05C298.24,-28.26 311.16,-26.33 323.54,-24.47"/>
<polygon fill="midnightblue" stroke="midnightblue" points="324.41,-27.88 333.78,-22.94 323.38,-20.96 324.41,-27.88"/>
</g>
</g>
</svg>
