<?xml version="1.0" encoding="UTF-8" standalone="no"?>
<!DOCTYPE svg PUBLIC "-//W3C//DTD SVG 1.1//EN"
 "http://www.w3.org/Graphics/SVG/1.1/DTD/svg11.dtd">
<!-- Generated by graphviz version 2.43.0 (0)
 -->
<!-- Title: net::socket::stream::tls::SocketReader&lt; SocketT &gt; Pages: 1 -->
<svg width="217pt" height="1202pt"
 viewBox="0.00 0.00 217.00 1202.00" xmlns="http://www.w3.org/2000/svg" xmlns:xlink="http://www.w3.org/1999/xlink">
<g id="graph0" class="graph" transform="scale(1 1) rotate(0) translate(4 1198)">
<title>net::socket::stream::tls::SocketReader&lt; SocketT &gt;</title>
<polygon fill="white" stroke="transparent" points="-4,4 -4,-1198 213,-1198 213,4 -4,4"/>
<!-- Node1 -->
<g id="node1" class="node">
<title>Node1</title>
<g id="a_node1"><a xlink:title=" ">
<polygon fill="#bfbfbf" stroke="black" points="64.5,-463.5 64.5,-542.5 165.5,-542.5 165.5,-463.5 64.5,-463.5"/>
<text text-anchor="start" x="72.5" y="-530.5" font-family="Helvetica,sans-Serif" font-size="10.00">net::socket::stream</text>
<text text-anchor="start" x="72.5" y="-519.5" font-family="Helvetica,sans-Serif" font-size="10.00">::tls::SocketReader</text>
<text text-anchor="middle" x="115" y="-508.5" font-family="Helvetica,sans-Serif" font-size="10.00">&lt; SocketT &gt;</text>
<polyline fill="none" stroke="black" points="64.5,-501.5 165.5,-501.5 "/>
<text text-anchor="start" x="72.5" y="-489.5" font-family="Helvetica,sans-Serif" font-size="10.00"># ssl</text>
<polyline fill="none" stroke="black" points="64.5,-482.5 165.5,-482.5 "/>
<text text-anchor="start" x="72.5" y="-470.5" font-family="Helvetica,sans-Serif" font-size="10.00"># read()</text>
</a>
</g>
</g>
<!-- Node7 -->
<g id="node7" class="node">
<title>Node7</title>
<g id="a_node7"><a xlink:href="classnet_1_1socket_1_1stream_1_1_socket_connection.html" target="_top" xlink:title=" ">
<polygon fill="white" stroke="black" points="21,-149.5 21,-426.5 209,-426.5 209,-149.5 21,-149.5"/>
<text text-anchor="start" x="29" y="-414.5" font-family="Helvetica,sans-Serif" font-size="10.00">SocketConnection&lt; tls</text>
<text text-anchor="start" x="29" y="-403.5" font-family="Helvetica,sans-Serif" font-size="10.00">::SocketReader&lt; SocketT</text>
<text text-anchor="start" x="29" y="-392.5" font-family="Helvetica,sans-Serif" font-size="10.00"> &gt;, tls::SocketWriter&lt;</text>
<text text-anchor="middle" x="115" y="-381.5" font-family="Helvetica,sans-Serif" font-size="10.00"> SocketT &gt;, SocketT::SocketAddress &gt;</text>
<polyline fill="none" stroke="black" points="21,-374.5 209,-374.5 "/>
<text text-anchor="start" x="29" y="-362.5" font-family="Helvetica,sans-Serif" font-size="10.00">&#45; remoteAddress</text>
<text text-anchor="start" x="29" y="-351.5" font-family="Helvetica,sans-Serif" font-size="10.00">&#45; localAddress</text>
<text text-anchor="start" x="29" y="-340.5" font-family="Helvetica,sans-Serif" font-size="10.00">&#45; onDestruct</text>
<text text-anchor="start" x="29" y="-329.5" font-family="Helvetica,sans-Serif" font-size="10.00">&#45; onDisconnect</text>
<text text-anchor="start" x="29" y="-318.5" font-family="Helvetica,sans-Serif" font-size="10.00">&#45; isDynamic</text>
<text text-anchor="start" x="29" y="-307.5" font-family="Helvetica,sans-Serif" font-size="10.00">&#45; lastAllocAddress</text>
<polyline fill="none" stroke="black" points="21,-300.5 209,-300.5 "/>
<text text-anchor="start" x="29" y="-288.5" font-family="Helvetica,sans-Serif" font-size="10.00">+ operator new()</text>
<text text-anchor="start" x="29" y="-277.5" font-family="Helvetica,sans-Serif" font-size="10.00">+ operator delete()</text>
<text text-anchor="start" x="29" y="-266.5" font-family="Helvetica,sans-Serif" font-size="10.00">+ SocketConnection()</text>
<text text-anchor="start" x="29" y="-255.5" font-family="Helvetica,sans-Serif" font-size="10.00">+ SocketConnection()</text>
<text text-anchor="start" x="29" y="-244.5" font-family="Helvetica,sans-Serif" font-size="10.00">+ ~SocketConnection()</text>
<text text-anchor="start" x="29" y="-233.5" font-family="Helvetica,sans-Serif" font-size="10.00">+ enqueue()</text>
<text text-anchor="start" x="29" y="-222.5" font-family="Helvetica,sans-Serif" font-size="10.00">+ enqueue()</text>
<text text-anchor="start" x="29" y="-211.5" font-family="Helvetica,sans-Serif" font-size="10.00">+ end()</text>
<text text-anchor="start" x="29" y="-200.5" font-family="Helvetica,sans-Serif" font-size="10.00">+ getRemoteAddress()</text>
<text text-anchor="start" x="29" y="-189.5" font-family="Helvetica,sans-Serif" font-size="10.00">+ setRemoteAddress()</text>
<text text-anchor="start" x="29" y="-178.5" font-family="Helvetica,sans-Serif" font-size="10.00">+ getLocalAddress()</text>
<text text-anchor="start" x="29" y="-167.5" font-family="Helvetica,sans-Serif" font-size="10.00">+ setLocalAddress()</text>
<text text-anchor="start" x="29" y="-156.5" font-family="Helvetica,sans-Serif" font-size="10.00">&#45; unobserved()</text>
</a>
</g>
</g>
<!-- Node1&#45;&gt;Node7 -->
<g id="edge6" class="edge">
<title>Node1&#45;&gt;Node7</title>
<path fill="none" stroke="midnightblue" d="M115,-453.3C115,-445.01 115,-436.04 115,-426.73"/>
<polygon fill="none" stroke="midnightblue" points="111.5,-453.43 115,-463.43 118.5,-453.43 111.5,-453.43"/>
</g>
<!-- Node2 -->
<g id="node2" class="node">
<title>Node2</title>
<g id="a_node2"><a xlink:href="classnet_1_1socket_1_1stream_1_1_socket_reader.html" target="_top" xlink:title=" ">
<polygon fill="white" stroke="black" points="45,-579.5 45,-702.5 185,-702.5 185,-579.5 45,-579.5"/>
<text text-anchor="start" x="53" y="-690.5" font-family="Helvetica,sans-Serif" font-size="10.00">net::socket::stream</text>
<text text-anchor="middle" x="115" y="-679.5" font-family="Helvetica,sans-Serif" font-size="10.00">::SocketReader&lt; SocketT &gt;</text>
<polyline fill="none" stroke="black" points="45,-672.5 185,-672.5 "/>
<text text-anchor="start" x="53" y="-660.5" font-family="Helvetica,sans-Serif" font-size="10.00">&#45; onRead</text>
<text text-anchor="start" x="53" y="-649.5" font-family="Helvetica,sans-Serif" font-size="10.00">&#45; onError</text>
<polyline fill="none" stroke="black" points="45,-642.5 185,-642.5 "/>
<text text-anchor="start" x="53" y="-630.5" font-family="Helvetica,sans-Serif" font-size="10.00"># SocketReader()</text>
<text text-anchor="start" x="53" y="-619.5" font-family="Helvetica,sans-Serif" font-size="10.00"># SocketReader()</text>
<text text-anchor="start" x="53" y="-608.5" font-family="Helvetica,sans-Serif" font-size="10.00"># ~SocketReader()</text>
<text text-anchor="start" x="53" y="-597.5" font-family="Helvetica,sans-Serif" font-size="10.00"># readEvent()</text>
<text text-anchor="start" x="53" y="-586.5" font-family="Helvetica,sans-Serif" font-size="10.00"># read()</text>
</a>
</g>
</g>
<!-- Node2&#45;&gt;Node1 -->
<g id="edge1" class="edge">
<title>Node2&#45;&gt;Node1</title>
<path fill="none" stroke="midnightblue" d="M115,-568.91C115,-559.83 115,-550.82 115,-542.54"/>
<polygon fill="none" stroke="midnightblue" points="111.5,-569.16 115,-579.16 118.5,-569.16 111.5,-569.16"/>
</g>
<!-- Node3 -->
<g id="node3" class="node">
<title>Node3</title>
<g id="a_node3"><a xlink:href="classnet_1_1_read_event_receiver.html" target="_top" xlink:title=" ">
<polygon fill="white" stroke="black" points="0,-739.5 0,-840.5 124,-840.5 124,-739.5 0,-739.5"/>
<text text-anchor="middle" x="62" y="-828.5" font-family="Helvetica,sans-Serif" font-size="10.00">net::ReadEventReceiver</text>
<polyline fill="none" stroke="black" points="0,-821.5 124,-821.5 "/>
<text text-anchor="middle" x="62" y="-809.5" font-family="Helvetica,sans-Serif" font-size="10.00"> </text>
<polyline fill="none" stroke="black" points="0,-802.5 124,-802.5 "/>
<text text-anchor="start" x="8" y="-790.5" font-family="Helvetica,sans-Serif" font-size="10.00">+ setTimeout()</text>
<text text-anchor="start" x="8" y="-779.5" font-family="Helvetica,sans-Serif" font-size="10.00">+ enable()</text>
<text text-anchor="start" x="8" y="-768.5" font-family="Helvetica,sans-Serif" font-size="10.00">+ disable()</text>
<text text-anchor="start" x="8" y="-757.5" font-family="Helvetica,sans-Serif" font-size="10.00"># ReadEventReceiver()</text>
<text text-anchor="start" x="8" y="-746.5" font-family="Helvetica,sans-Serif" font-size="10.00"># readEvent()</text>
</a>
</g>
</g>
<!-- Node3&#45;&gt;Node2 -->
<g id="edge2" class="edge">
<title>Node3&#45;&gt;Node2</title>
<path fill="none" stroke="midnightblue" d="M83.38,-729.71C86.59,-720.8 89.9,-711.61 93.12,-702.67"/>
<polygon fill="none" stroke="midnightblue" points="80.04,-728.64 79.94,-739.23 86.63,-731.01 80.04,-728.64"/>
</g>
<!-- Node4 -->
<g id="node4" class="node">
<title>Node4</title>
<g id="a_node4"><a xlink:href="classnet_1_1_event_receiver.html" target="_top" xlink:title=" ">
<polygon fill="white" stroke="black" points="11.5,-877.5 11.5,-1099.5 112.5,-1099.5 112.5,-877.5 11.5,-877.5"/>
<text text-anchor="middle" x="62" y="-1087.5" font-family="Helvetica,sans-Serif" font-size="10.00">net::EventReceiver</text>
<polyline fill="none" stroke="black" points="11.5,-1080.5 112.5,-1080.5 "/>
<text text-anchor="start" x="19.5" y="-1068.5" font-family="Helvetica,sans-Serif" font-size="10.00">&#45; _enabled</text>
<text text-anchor="start" x="19.5" y="-1057.5" font-family="Helvetica,sans-Serif" font-size="10.00">&#45; maxInactivity</text>
<polyline fill="none" stroke="black" points="11.5,-1050.5 112.5,-1050.5 "/>
<text text-anchor="start" x="19.5" y="-1038.5" font-family="Helvetica,sans-Serif" font-size="10.00"># EventReceiver()</text>
<text text-anchor="start" x="19.5" y="-1027.5" font-family="Helvetica,sans-Serif" font-size="10.00"># EventReceiver()</text>
<text text-anchor="start" x="19.5" y="-1016.5" font-family="Helvetica,sans-Serif" font-size="10.00"># operator=()</text>
<text text-anchor="start" x="19.5" y="-1005.5" font-family="Helvetica,sans-Serif" font-size="10.00"># ~EventReceiver()</text>
<text text-anchor="start" x="19.5" y="-994.5" font-family="Helvetica,sans-Serif" font-size="10.00"># setTimeout()</text>
<text text-anchor="start" x="19.5" y="-983.5" font-family="Helvetica,sans-Serif" font-size="10.00"># isEnabled()</text>
<text text-anchor="start" x="19.5" y="-972.5" font-family="Helvetica,sans-Serif" font-size="10.00"># timeoutEvent()</text>
<text text-anchor="start" x="19.5" y="-961.5" font-family="Helvetica,sans-Serif" font-size="10.00">&#45; enabled()</text>
<text text-anchor="start" x="19.5" y="-950.5" font-family="Helvetica,sans-Serif" font-size="10.00">&#45; disabled()</text>
<text text-anchor="start" x="19.5" y="-939.5" font-family="Helvetica,sans-Serif" font-size="10.00">&#45; getTimeout()</text>
<text text-anchor="start" x="19.5" y="-928.5" font-family="Helvetica,sans-Serif" font-size="10.00">&#45; getLastTriggered()</text>
<text text-anchor="start" x="19.5" y="-917.5" font-family="Helvetica,sans-Serif" font-size="10.00">&#45; setLastTriggered()</text>
<text text-anchor="start" x="19.5" y="-906.5" font-family="Helvetica,sans-Serif" font-size="10.00">&#45; enable()</text>
<text text-anchor="start" x="19.5" y="-895.5" font-family="Helvetica,sans-Serif" font-size="10.00">&#45; disable()</text>
<text text-anchor="start" x="19.5" y="-884.5" font-family="Helvetica,sans-Serif" font-size="10.00">&#45; unobserved()</text>
</a>
</g>
</g>
<!-- Node4&#45;&gt;Node3 -->
<g id="edge3" class="edge">
<title>Node4&#45;&gt;Node3</title>
<path fill="none" stroke="midnightblue" d="M62,-867.34C62,-858.09 62,-849.11 62,-840.76"/>
<polygon fill="none" stroke="midnightblue" points="58.5,-867.47 62,-877.47 65.5,-867.47 58.5,-867.47"/>
</g>
<!-- Node5 -->
<g id="node5" class="node">
<title>Node5</title>
<g id="a_node5"><a xlink:href="classnet_1_1_observation_counter.html" target="_top" xlink:title=" ">
<polygon fill="white" stroke="black" points="0.5,-1136.5 0.5,-1193.5 123.5,-1193.5 123.5,-1136.5 0.5,-1136.5"/>
<text text-anchor="middle" x="62" y="-1181.5" font-family="Helvetica,sans-Serif" font-size="10.00">net::ObservationCounter</text>
<polyline fill="none" stroke="black" points="0.5,-1174.5 123.5,-1174.5 "/>
<text text-anchor="start" x="8.5" y="-1162.5" font-family="Helvetica,sans-Serif" font-size="10.00"># observationCounter</text>
<polyline fill="none" stroke="black" points="0.5,-1155.5 123.5,-1155.5 "/>
<text text-anchor="start" x="8.5" y="-1143.5" font-family="Helvetica,sans-Serif" font-size="10.00">+ isObserved()</text>
</a>
</g>
</g>
<!-- Node5&#45;&gt;Node4 -->
<g id="edge4" class="edge">
<title>Node5&#45;&gt;Node4</title>
<path fill="none" stroke="midnightblue" d="M62,-1126.2C62,-1118.08 62,-1109.1 62,-1099.75"/>
<polygon fill="none" stroke="midnightblue" points="58.5,-1126.35 62,-1136.35 65.5,-1126.35 58.5,-1126.35"/>
</g>
<!-- Node6 -->
<g id="node6" class="node">
<title>Node6</title>
<g id="a_node6"><a xlink:title=" ">
<polygon fill="white" stroke="#bfbfbf" points="142.5,-761.5 142.5,-818.5 195.5,-818.5 195.5,-761.5 142.5,-761.5"/>
<text text-anchor="middle" x="169" y="-806.5" font-family="Helvetica,sans-Serif" font-size="10.00">SocketT</text>
<polyline fill="none" stroke="#bfbfbf" points="142.5,-799.5 195.5,-799.5 "/>
<text text-anchor="middle" x="169" y="-787.5" font-family="Helvetica,sans-Serif" font-size="10.00"> </text>
<polyline fill="none" stroke="#bfbfbf" points="142.5,-780.5 195.5,-780.5 "/>
<text text-anchor="middle" x="169" y="-768.5" font-family="Helvetica,sans-Serif" font-size="10.00"> </text>
</a>
</g>
</g>
<!-- Node6&#45;&gt;Node2 -->
<g id="edge5" class="edge">
<title>Node6&#45;&gt;Node2</title>
<path fill="none" stroke="midnightblue" d="M155.24,-751.54C149.79,-736.7 143.38,-719.27 137.31,-702.72"/>
<polygon fill="none" stroke="midnightblue" points="152.11,-753.17 158.84,-761.35 158.68,-750.76 152.11,-753.17"/>
</g>
<!-- Node8 -->
<g id="node8" class="node">
<title>Node8</title>
<g id="a_node8"><a xlink:href="classnet_1_1socket_1_1stream_1_1tls_1_1_socket_connection.html" target="_top" xlink:title=" ">
<polygon fill="white" stroke="black" points="55.5,-0.5 55.5,-112.5 174.5,-112.5 174.5,-0.5 55.5,-0.5"/>
<text text-anchor="start" x="63.5" y="-100.5" font-family="Helvetica,sans-Serif" font-size="10.00">net::socket::stream</text>
<text text-anchor="start" x="63.5" y="-89.5" font-family="Helvetica,sans-Serif" font-size="10.00">::tls::SocketConnection</text>
<text text-anchor="middle" x="115" y="-78.5" font-family="Helvetica,sans-Serif" font-size="10.00">&lt; SocketT &gt;</text>
<polyline fill="none" stroke="black" points="55.5,-71.5 174.5,-71.5 "/>
<text text-anchor="start" x="63.5" y="-59.5" font-family="Helvetica,sans-Serif" font-size="10.00"># ssl</text>
<polyline fill="none" stroke="black" points="55.5,-52.5 174.5,-52.5 "/>
<text text-anchor="start" x="63.5" y="-40.5" font-family="Helvetica,sans-Serif" font-size="10.00">+ SocketConnection()</text>
<text text-anchor="start" x="63.5" y="-29.5" font-family="Helvetica,sans-Serif" font-size="10.00">+ startSSL()</text>
<text text-anchor="start" x="63.5" y="-18.5" font-family="Helvetica,sans-Serif" font-size="10.00">+ stopSSL()</text>
<text text-anchor="start" x="63.5" y="-7.5" font-family="Helvetica,sans-Serif" font-size="10.00">+ getSSL()</text>
</a>
</g>
</g>
<!-- Node7&#45;&gt;Node8 -->
<g id="edge7" class="edge">
<title>Node7&#45;&gt;Node8</title>
<path fill="none" stroke="midnightblue" d="M115,-139.05C115,-129.81 115,-120.87 115,-112.53"/>
<polygon fill="none" stroke="midnightblue" points="111.5,-139.19 115,-149.19 118.5,-139.19 111.5,-139.19"/>
</g>
</g>
</svg>
