<?xml version="1.0" encoding="UTF-8" standalone="no"?>
<!DOCTYPE svg PUBLIC "-//W3C//DTD SVG 1.1//EN"
 "http://www.w3.org/Graphics/SVG/1.1/DTD/svg11.dtd">
<!-- Generated by graphviz version 2.43.0 (0)
 -->
<!-- Title: web::http::StatusCode::contains Pages: 1 -->
<svg width="1203pt" height="217pt"
 viewBox="0.00 0.00 1203.00 216.50" xmlns="http://www.w3.org/2000/svg" xmlns:xlink="http://www.w3.org/1999/xlink">
<g id="graph0" class="graph" transform="scale(1 1) rotate(0) translate(4 212.5)">
<title>web::http::StatusCode::contains</title>
<polygon fill="white" stroke="transparent" points="-4,4 -4,-212.5 1199,-212.5 1199,4 -4,4"/>
<!-- Node1 -->
<g id="node1" class="node">
<title>Node1</title>
<g id="a_node1"><a xlink:title=" ">
<polygon fill="#bfbfbf" stroke="black" points="1080,-24.5 1080,-54.5 1195,-54.5 1195,-24.5 1080,-24.5"/>
<text text-anchor="start" x="1088" y="-42.5" font-family="Helvetica,sans-Serif" font-size="10.00">web::http::StatusCode</text>
<text text-anchor="middle" x="1137.5" y="-31.5" font-family="Helvetica,sans-Serif" font-size="10.00">::contains</text>
</a>
</g>
</g>
<!-- Node2 -->
<g id="node2" class="node">
<title>Node2</title>
<g id="a_node2"><a xlink:href="classweb_1_1http_1_1_status_code.html#ad3c635f1cb778cdb4a2e23332ebda277" target="_top" xlink:title=" ">
<polygon fill="white" stroke="black" points="929,-24.5 929,-54.5 1044,-54.5 1044,-24.5 929,-24.5"/>
<text text-anchor="start" x="937" y="-42.5" font-family="Helvetica,sans-Serif" font-size="10.00">web::http::StatusCode</text>
<text text-anchor="middle" x="986.5" y="-31.5" font-family="Helvetica,sans-Serif" font-size="10.00">::reason</text>
</a>
</g>
</g>
<!-- Node1&#45;&gt;Node2 -->
<g id="edge1" class="edge">
<title>Node1&#45;&gt;Node2</title>
<path fill="none" stroke="midnightblue" d="M1069.49,-39.5C1061.01,-39.5 1052.4,-39.5 1044.1,-39.5"/>
<polygon fill="midnightblue" stroke="midnightblue" points="1069.74,-43 1079.74,-39.5 1069.74,-36 1069.74,-43"/>
</g>
<!-- Node3 -->
<g id="node3" class="node">
<title>Node3</title>
<g id="a_node3"><a xlink:href="classweb_1_1http_1_1server_1_1_response.html#a4fae387fd1d11b86260f4572bfebfce2" target="_top" xlink:title=" ">
<polygon fill="white" stroke="black" points="774,-70.5 774,-100.5 893,-100.5 893,-70.5 774,-70.5"/>
<text text-anchor="start" x="782" y="-88.5" font-family="Helvetica,sans-Serif" font-size="10.00">web::http::server::</text>
<text text-anchor="middle" x="833.5" y="-77.5" font-family="Helvetica,sans-Serif" font-size="10.00">Response::sendHeader</text>
</a>
</g>
</g>
<!-- Node2&#45;&gt;Node3 -->
<g id="edge2" class="edge">
<title>Node2&#45;&gt;Node3</title>
<path fill="none" stroke="midnightblue" d="M926.44,-57.49C912.33,-61.79 897.41,-66.33 883.8,-70.48"/>
<polygon fill="midnightblue" stroke="midnightblue" points="927.51,-60.82 936.06,-54.56 925.47,-54.13 927.51,-60.82"/>
</g>
<!-- Node16 -->
<g id="node16" class="node">
<title>Node16</title>
<g id="a_node16"><a xlink:href="classexpress_1_1_response.html#a9049ec68cf5f6cb6d04c403267158d09" target="_top" xlink:title=" ">
<polygon fill="white" stroke="black" points="351,-0.5 351,-30.5 458,-30.5 458,-0.5 351,-0.5"/>
<text text-anchor="start" x="359" y="-18.5" font-family="Helvetica,sans-Serif" font-size="10.00">express::Response::</text>
<text text-anchor="middle" x="404.5" y="-7.5" font-family="Helvetica,sans-Serif" font-size="10.00">sendStatus</text>
</a>
</g>
</g>
<!-- Node2&#45;&gt;Node16 -->
<g id="edge17" class="edge">
<title>Node2&#45;&gt;Node16</title>
<path fill="none" stroke="midnightblue" d="M918.61,-36.73C802.03,-31.91 563.97,-22.06 458.18,-17.68"/>
<polygon fill="midnightblue" stroke="midnightblue" points="918.69,-40.24 928.83,-37.16 918.98,-33.24 918.69,-40.24"/>
</g>
<!-- Node4 -->
<g id="node4" class="node">
<title>Node4</title>
<g id="a_node4"><a xlink:href="classweb_1_1http_1_1server_1_1_response.html#a6bdff1ff4fb13a952df7bfefd0b87667" target="_top" xlink:title=" ">
<polygon fill="white" stroke="black" points="634,-70.5 634,-100.5 738,-100.5 738,-70.5 634,-70.5"/>
<text text-anchor="start" x="642" y="-88.5" font-family="Helvetica,sans-Serif" font-size="10.00">web::http::server::</text>
<text text-anchor="middle" x="686" y="-77.5" font-family="Helvetica,sans-Serif" font-size="10.00">Response::enqueue</text>
</a>
</g>
</g>
<!-- Node3&#45;&gt;Node4 -->
<g id="edge3" class="edge">
<title>Node3&#45;&gt;Node4</title>
<path fill="none" stroke="midnightblue" d="M763.66,-78.76C755.03,-78.72 746.32,-78.81 738.02,-79.02"/>
<polygon fill="midnightblue" stroke="midnightblue" points="763.7,-82.26 773.74,-78.86 763.78,-75.26 763.7,-82.26"/>
</g>
<!-- Node4&#45;&gt;Node3 -->
<g id="edge16" class="edge">
<title>Node4&#45;&gt;Node3</title>
<path fill="none" stroke="midnightblue" d="M748.2,-92.17C756.66,-92.29 765.33,-92.27 773.74,-92.14"/>
<polygon fill="midnightblue" stroke="midnightblue" points="748.09,-88.67 738.02,-91.98 747.95,-95.67 748.09,-88.67"/>
</g>
<!-- Node5 -->
<g id="node5" class="node">
<title>Node5</title>
<g id="a_node5"><a xlink:href="classweb_1_1http_1_1server_1_1_response.html#a9c5834911394dedb7faed2e52ceb7a1d" target="_top" xlink:title=" ">
<polygon fill="white" stroke="black" points="494,-144.5 494,-174.5 598,-174.5 598,-144.5 494,-144.5"/>
<text text-anchor="start" x="502" y="-162.5" font-family="Helvetica,sans-Serif" font-size="10.00">web::http::server::</text>
<text text-anchor="middle" x="546" y="-151.5" font-family="Helvetica,sans-Serif" font-size="10.00">Response::enqueue</text>
</a>
</g>
</g>
<!-- Node4&#45;&gt;Node5 -->
<g id="edge4" class="edge">
<title>Node4&#45;&gt;Node5</title>
<path fill="none" stroke="midnightblue" d="M650.86,-105.98C634.96,-115.3 615.69,-126.27 598,-135.5 592.27,-138.49 586.11,-141.53 580.12,-144.4"/>
<polygon fill="midnightblue" stroke="midnightblue" points="652.96,-108.81 659.8,-100.71 649.41,-102.78 652.96,-108.81"/>
</g>
<!-- Node6 -->
<g id="node6" class="node">
<title>Node6</title>
<g id="a_node6"><a xlink:href="classweb_1_1http_1_1server_1_1_response.html#a6693a2431a465a948bca9ba1593a1f20" target="_top" xlink:title=" ">
<polygon fill="white" stroke="black" points="497,-95.5 497,-125.5 595,-125.5 595,-95.5 497,-95.5"/>
<text text-anchor="start" x="505" y="-113.5" font-family="Helvetica,sans-Serif" font-size="10.00">web::http::server::</text>
<text text-anchor="middle" x="546" y="-102.5" font-family="Helvetica,sans-Serif" font-size="10.00">Response::receive</text>
</a>
</g>
</g>
<!-- Node4&#45;&gt;Node6 -->
<g id="edge5" class="edge">
<title>Node4&#45;&gt;Node6</title>
<path fill="none" stroke="midnightblue" d="M623.76,-96.59C614.2,-98.33 604.44,-100.09 595.23,-101.76"/>
<polygon fill="midnightblue" stroke="midnightblue" points="624.4,-100.04 633.61,-94.81 623.15,-93.15 624.4,-100.04"/>
</g>
<!-- Node7 -->
<g id="node7" class="node">
<title>Node7</title>
<g id="a_node7"><a xlink:href="classweb_1_1http_1_1server_1_1_response.html#ad13e93ee083ee9e780a4478a86fdefec" target="_top" xlink:title=" ">
<polygon fill="white" stroke="black" points="498,-46.5 498,-76.5 594,-76.5 594,-46.5 498,-46.5"/>
<text text-anchor="start" x="506" y="-64.5" font-family="Helvetica,sans-Serif" font-size="10.00">web::http::server::</text>
<text text-anchor="middle" x="546" y="-53.5" font-family="Helvetica,sans-Serif" font-size="10.00">Response::send</text>
</a>
</g>
</g>
<!-- Node4&#45;&gt;Node7 -->
<g id="edge6" class="edge">
<title>Node4&#45;&gt;Node7</title>
<path fill="none" stroke="midnightblue" d="M623.52,-74.81C613.72,-73.1 603.72,-71.36 594.32,-69.73"/>
<polygon fill="midnightblue" stroke="midnightblue" points="623.16,-78.3 633.61,-76.56 624.36,-71.4 623.16,-78.3"/>
</g>
<!-- Node8 -->
<g id="node8" class="node">
<title>Node8</title>
<g id="a_node8"><a xlink:href="classweb_1_1http_1_1server_1_1_response.html#a761cba48efb6eed2fa816750670c03db" target="_top" xlink:title=" ">
<polygon fill="white" stroke="black" points="356.5,-98.5 356.5,-128.5 452.5,-128.5 452.5,-98.5 356.5,-98.5"/>
<text text-anchor="start" x="364.5" y="-116.5" font-family="Helvetica,sans-Serif" font-size="10.00">web::http::server::</text>
<text text-anchor="middle" x="404.5" y="-105.5" font-family="Helvetica,sans-Serif" font-size="10.00">Response::end</text>
</a>
</g>
</g>
<!-- Node7&#45;&gt;Node8 -->
<g id="edge7" class="edge">
<title>Node7&#45;&gt;Node8</title>
<path fill="none" stroke="midnightblue" d="M494.84,-80.2C478.72,-86.21 461.08,-92.78 445.76,-98.49"/>
<polygon fill="midnightblue" stroke="midnightblue" points="496.5,-83.31 504.65,-76.54 494.06,-76.75 496.5,-83.31"/>
</g>
<!-- Node15 -->
<g id="node15" class="node">
<title>Node15</title>
<g id="a_node15"><a xlink:href="classweb_1_1http_1_1server_1_1_response.html#a5128a20b904071c22a077b040c8ff138" target="_top" xlink:title=" ">
<polygon fill="white" stroke="black" points="356.5,-49.5 356.5,-79.5 452.5,-79.5 452.5,-49.5 356.5,-49.5"/>
<text text-anchor="start" x="364.5" y="-67.5" font-family="Helvetica,sans-Serif" font-size="10.00">web::http::server::</text>
<text text-anchor="middle" x="404.5" y="-56.5" font-family="Helvetica,sans-Serif" font-size="10.00">Response::send</text>
</a>
</g>
</g>
<!-- Node7&#45;&gt;Node15 -->
<g id="edge14" class="edge">
<title>Node7&#45;&gt;Node15</title>
<path fill="none" stroke="midnightblue" d="M487.7,-62.73C476.05,-62.98 463.93,-63.24 452.68,-63.49"/>
<polygon fill="midnightblue" stroke="midnightblue" points="487.85,-66.23 497.77,-62.52 487.7,-59.23 487.85,-66.23"/>
</g>
<!-- Node7&#45;&gt;Node16 -->
<g id="edge15" class="edge">
<title>Node7&#45;&gt;Node16</title>
<path fill="none" stroke="midnightblue" d="M489.74,-43.28C476.99,-39.07 463.57,-34.65 451.28,-30.6"/>
<polygon fill="midnightblue" stroke="midnightblue" points="488.73,-46.63 499.32,-46.44 490.92,-39.98 488.73,-46.63"/>
</g>
<!-- Node9 -->
<g id="node9" class="node">
<title>Node9</title>
<g id="a_node9"><a xlink:href="classweb_1_1websocket_1_1server_1_1_socket_context.html#a317b7c58b283bdd09d4feaaf0255a4d5" target="_top" xlink:title=" ">
<polygon fill="white" stroke="black" points="194,-172.5 194,-202.5 315,-202.5 315,-172.5 194,-172.5"/>
<text text-anchor="start" x="202" y="-190.5" font-family="Helvetica,sans-Serif" font-size="10.00">web::websocket::server</text>
<text text-anchor="middle" x="254.5" y="-179.5" font-family="Helvetica,sans-Serif" font-size="10.00">::SocketContext::create</text>
</a>
</g>
</g>
<!-- Node8&#45;&gt;Node9 -->
<g id="edge8" class="edge">
<title>Node8&#45;&gt;Node9</title>
<path fill="none" stroke="midnightblue" d="M370.13,-133.72C353.78,-143.27 333.65,-154.52 315,-163.5 308.58,-166.59 301.65,-169.64 294.86,-172.47"/>
<polygon fill="midnightblue" stroke="midnightblue" points="371.95,-136.71 378.79,-128.62 368.4,-130.68 371.95,-136.71"/>
</g>
<!-- Node11 -->
<g id="node11" class="node">
<title>Node11</title>
<g id="a_node11"><a xlink:href="classexpress_1_1_response.html#a99b449a1fd984b6e263c8eb0fec03009" target="_top" xlink:title=" ">
<polygon fill="white" stroke="black" points="201,-123.5 201,-153.5 308,-153.5 308,-123.5 201,-123.5"/>
<text text-anchor="start" x="209" y="-141.5" font-family="Helvetica,sans-Serif" font-size="10.00">express::Response::</text>
<text text-anchor="middle" x="254.5" y="-130.5" font-family="Helvetica,sans-Serif" font-size="10.00">redirect</text>
</a>
</g>
</g>
<!-- Node8&#45;&gt;Node11 -->
<g id="edge10" class="edge">
<title>Node8&#45;&gt;Node11</title>
<path fill="none" stroke="midnightblue" d="M346.37,-123.15C333.81,-125.27 320.57,-127.51 308.19,-129.6"/>
<polygon fill="midnightblue" stroke="midnightblue" points="346.99,-126.6 356.26,-121.48 345.82,-119.69 346.99,-126.6"/>
</g>
<!-- Node12 -->
<g id="node12" class="node">
<title>Node12</title>
<g id="a_node12"><a xlink:href="classexpress_1_1_response.html#aa7a3b9c880c1af5b11e832f84eeda58c" target="_top" xlink:title=" ">
<polygon fill="white" stroke="black" points="201,-74.5 201,-104.5 308,-104.5 308,-74.5 201,-74.5"/>
<text text-anchor="start" x="209" y="-92.5" font-family="Helvetica,sans-Serif" font-size="10.00">express::Response::</text>
<text text-anchor="middle" x="254.5" y="-81.5" font-family="Helvetica,sans-Serif" font-size="10.00">sendFile</text>
</a>
</g>
</g>
<!-- Node8&#45;&gt;Node12 -->
<g id="edge11" class="edge">
<title>Node8&#45;&gt;Node12</title>
<path fill="none" stroke="midnightblue" d="M346.37,-104.24C333.81,-102.2 320.57,-100.05 308.19,-98.04"/>
<polygon fill="midnightblue" stroke="midnightblue" points="345.83,-107.69 356.26,-105.84 346.95,-100.78 345.83,-107.69"/>
</g>
<!-- Node14 -->
<g id="node14" class="node">
<title>Node14</title>
<g id="a_node14"><a xlink:href="classweb_1_1http_1_1server_1_1_response.html#afa792224c8bdb8edcb75514297931ece" target="_top" xlink:title=" ">
<polygon fill="white" stroke="black" points="204,-25.5 204,-55.5 305,-55.5 305,-25.5 204,-25.5"/>
<text text-anchor="start" x="212" y="-43.5" font-family="Helvetica,sans-Serif" font-size="10.00">web::http::server::</text>
<text text-anchor="middle" x="254.5" y="-32.5" font-family="Helvetica,sans-Serif" font-size="10.00">Response::upgrade</text>
</a>
</g>
</g>
<!-- Node8&#45;&gt;Node14 -->
<g id="edge13" class="edge">
<title>Node8&#45;&gt;Node14</title>
<path fill="none" stroke="midnightblue" d="M361.01,-93.91C357.59,-92.14 354.22,-90.33 351,-88.5 334.28,-79.01 332.01,-73.48 315,-64.5 308.99,-61.33 302.47,-58.31 296.02,-55.54"/>
<polygon fill="midnightblue" stroke="midnightblue" points="359.58,-97.11 370.08,-98.47 362.72,-90.86 359.58,-97.11"/>
</g>
<!-- Node10 -->
<g id="node10" class="node">
<title>Node10</title>
<g id="a_node10"><a xlink:href="classweb_1_1websocket_1_1server_1_1_socket_context_upgrade_factory.html#aa1b867500eb6b9273ce9ea4be9ddd124" target="_top" xlink:title=" ">
<polygon fill="white" stroke="black" points="0,-167 0,-208 158,-208 158,-167 0,-167"/>
<text text-anchor="start" x="8" y="-196" font-family="Helvetica,sans-Serif" font-size="10.00">web::websocket::server</text>
<text text-anchor="start" x="8" y="-185" font-family="Helvetica,sans-Serif" font-size="10.00">::SocketContextUpgradeFactory</text>
<text text-anchor="middle" x="79" y="-174" font-family="Helvetica,sans-Serif" font-size="10.00">::create</text>
</a>
</g>
</g>
<!-- Node9&#45;&gt;Node10 -->
<g id="edge9" class="edge">
<title>Node9&#45;&gt;Node10</title>
<path fill="none" stroke="midnightblue" d="M183.69,-187.5C175.31,-187.5 166.7,-187.5 158.2,-187.5"/>
<polygon fill="midnightblue" stroke="midnightblue" points="183.79,-191 193.79,-187.5 183.79,-184 183.79,-191"/>
</g>
<!-- Node13 -->
<g id="node13" class="node">
<title>Node13</title>
<g id="a_node13"><a xlink:href="classexpress_1_1_response.html#a9fe9c08eaaf312665cefdd87b0a47f54" target="_top" xlink:title=" ">
<polygon fill="white" stroke="black" points="25.5,-74.5 25.5,-104.5 132.5,-104.5 132.5,-74.5 25.5,-74.5"/>
<text text-anchor="start" x="33.5" y="-92.5" font-family="Helvetica,sans-Serif" font-size="10.00">express::Response::</text>
<text text-anchor="middle" x="79" y="-81.5" font-family="Helvetica,sans-Serif" font-size="10.00">download</text>
</a>
</g>
</g>
<!-- Node12&#45;&gt;Node13 -->
<g id="edge12" class="edge">
<title>Node12&#45;&gt;Node13</title>
<path fill="none" stroke="midnightblue" d="M190.87,-89.5C171.78,-89.5 151,-89.5 132.65,-89.5"/>
<polygon fill="midnightblue" stroke="midnightblue" points="190.97,-93 200.97,-89.5 190.97,-86 190.97,-93"/>
</g>
</g>
</svg>
