<?xml version="1.0" encoding="UTF-8" standalone="no"?>
<!DOCTYPE svg PUBLIC "-//W3C//DTD SVG 1.1//EN"
 "http://www.w3.org/Graphics/SVG/1.1/DTD/svg11.dtd">
<!-- Generated by graphviz version 2.43.0 (0)
 -->
<!-- Title: net::socket::stream::SocketConnectionBase Pages: 1 -->
<svg width="493pt" height="1021pt"
 viewBox="0.00 0.00 493.00 1021.00" xmlns="http://www.w3.org/2000/svg" xmlns:xlink="http://www.w3.org/1999/xlink">
<g id="graph0" class="graph" transform="scale(1 1) rotate(0) translate(4 1017)">
<title>net::socket::stream::SocketConnectionBase</title>
<polygon fill="white" stroke="transparent" points="-4,4 -4,-1017 489,-1017 489,4 -4,4"/>
<!-- Node1 -->
<g id="node1" class="node">
<title>Node1</title>
<g id="a_node1"><a xlink:title=" ">
<polygon fill="#bfbfbf" stroke="black" points="156,-834.5 156,-1012.5 296,-1012.5 296,-834.5 156,-834.5"/>
<text text-anchor="start" x="164" y="-1000.5" font-family="Helvetica,sans-Serif" font-size="10.00">net::socket::stream</text>
<text text-anchor="middle" x="226" y="-989.5" font-family="Helvetica,sans-Serif" font-size="10.00">::SocketConnectionBase</text>
<polyline fill="none" stroke="black" points="156,-982.5 296,-982.5 "/>
<text text-anchor="start" x="164" y="-970.5" font-family="Helvetica,sans-Serif" font-size="10.00">&#45; protocol</text>
<polyline fill="none" stroke="black" points="156,-963.5 296,-963.5 "/>
<text text-anchor="start" x="164" y="-951.5" font-family="Helvetica,sans-Serif" font-size="10.00">+ SocketConnectionBase()</text>
<text text-anchor="start" x="164" y="-940.5" font-family="Helvetica,sans-Serif" font-size="10.00">+ SocketConnectionBase()</text>
<text text-anchor="start" x="164" y="-929.5" font-family="Helvetica,sans-Serif" font-size="10.00">+ operator=()</text>
<text text-anchor="start" x="164" y="-918.5" font-family="Helvetica,sans-Serif" font-size="10.00">+ ~SocketConnectionBase()</text>
<text text-anchor="start" x="164" y="-907.5" font-family="Helvetica,sans-Serif" font-size="10.00">+ enqueue()</text>
<text text-anchor="start" x="164" y="-896.5" font-family="Helvetica,sans-Serif" font-size="10.00">+ enqueue()</text>
<text text-anchor="start" x="164" y="-885.5" font-family="Helvetica,sans-Serif" font-size="10.00">+ end()</text>
<text text-anchor="start" x="164" y="-874.5" font-family="Helvetica,sans-Serif" font-size="10.00">+ setContext()</text>
<text text-anchor="start" x="164" y="-863.5" font-family="Helvetica,sans-Serif" font-size="10.00">+ setContext()</text>
<text text-anchor="start" x="164" y="-852.5" font-family="Helvetica,sans-Serif" font-size="10.00">+ getContext()</text>
<text text-anchor="start" x="164" y="-841.5" font-family="Helvetica,sans-Serif" font-size="10.00">+ getContext()</text>
</a>
</g>
</g>
<!-- Node2 -->
<g id="node2" class="node">
<title>Node2</title>
<g id="a_node2"><a xlink:href="classnet_1_1socket_1_1stream_1_1_socket_connection.html" target="_top" xlink:title=" ">
<polygon fill="white" stroke="black" points="151.5,-519.5 151.5,-796.5 300.5,-796.5 300.5,-519.5 151.5,-519.5"/>
<text text-anchor="start" x="159.5" y="-784.5" font-family="Helvetica,sans-Serif" font-size="10.00">net::socket::stream</text>
<text text-anchor="start" x="159.5" y="-773.5" font-family="Helvetica,sans-Serif" font-size="10.00">::SocketConnection&lt;</text>
<text text-anchor="start" x="159.5" y="-762.5" font-family="Helvetica,sans-Serif" font-size="10.00"> SocketReaderT, SocketWriter</text>
<text text-anchor="middle" x="226" y="-751.5" font-family="Helvetica,sans-Serif" font-size="10.00">T, SocketAddressT &gt;</text>
<polyline fill="none" stroke="black" points="151.5,-744.5 300.5,-744.5 "/>
<text text-anchor="start" x="159.5" y="-732.5" font-family="Helvetica,sans-Serif" font-size="10.00">&#45; remoteAddress</text>
<text text-anchor="start" x="159.5" y="-721.5" font-family="Helvetica,sans-Serif" font-size="10.00">&#45; localAddress</text>
<text text-anchor="start" x="159.5" y="-710.5" font-family="Helvetica,sans-Serif" font-size="10.00">&#45; onDestruct</text>
<text text-anchor="start" x="159.5" y="-699.5" font-family="Helvetica,sans-Serif" font-size="10.00">&#45; onDisconnect</text>
<text text-anchor="start" x="159.5" y="-688.5" font-family="Helvetica,sans-Serif" font-size="10.00">&#45; isDynamic</text>
<text text-anchor="start" x="159.5" y="-677.5" font-family="Helvetica,sans-Serif" font-size="10.00">&#45; lastAllocAddress</text>
<polyline fill="none" stroke="black" points="151.5,-670.5 300.5,-670.5 "/>
<text text-anchor="start" x="159.5" y="-658.5" font-family="Helvetica,sans-Serif" font-size="10.00">+ operator new()</text>
<text text-anchor="start" x="159.5" y="-647.5" font-family="Helvetica,sans-Serif" font-size="10.00">+ operator delete()</text>
<text text-anchor="start" x="159.5" y="-636.5" font-family="Helvetica,sans-Serif" font-size="10.00">+ SocketConnection()</text>
<text text-anchor="start" x="159.5" y="-625.5" font-family="Helvetica,sans-Serif" font-size="10.00">+ SocketConnection()</text>
<text text-anchor="start" x="159.5" y="-614.5" font-family="Helvetica,sans-Serif" font-size="10.00">+ ~SocketConnection()</text>
<text text-anchor="start" x="159.5" y="-603.5" font-family="Helvetica,sans-Serif" font-size="10.00">+ enqueue()</text>
<text text-anchor="start" x="159.5" y="-592.5" font-family="Helvetica,sans-Serif" font-size="10.00">+ enqueue()</text>
<text text-anchor="start" x="159.5" y="-581.5" font-family="Helvetica,sans-Serif" font-size="10.00">+ end()</text>
<text text-anchor="start" x="159.5" y="-570.5" font-family="Helvetica,sans-Serif" font-size="10.00">+ getRemoteAddress()</text>
<text text-anchor="start" x="159.5" y="-559.5" font-family="Helvetica,sans-Serif" font-size="10.00">+ setRemoteAddress()</text>
<text text-anchor="start" x="159.5" y="-548.5" font-family="Helvetica,sans-Serif" font-size="10.00">+ getLocalAddress()</text>
<text text-anchor="start" x="159.5" y="-537.5" font-family="Helvetica,sans-Serif" font-size="10.00">+ setLocalAddress()</text>
<text text-anchor="start" x="159.5" y="-526.5" font-family="Helvetica,sans-Serif" font-size="10.00">&#45; unobserved()</text>
</a>
</g>
</g>
<!-- Node1&#45;&gt;Node2 -->
<g id="edge1" class="edge">
<title>Node1&#45;&gt;Node2</title>
<path fill="none" stroke="midnightblue" d="M226,-824.34C226,-815.34 226,-806.11 226,-796.85"/>
<polygon fill="none" stroke="midnightblue" points="222.5,-824.39 226,-834.39 229.5,-824.39 222.5,-824.39"/>
</g>
<!-- Node3 -->
<g id="node3" class="node">
<title>Node3</title>
<g id="a_node3"><a xlink:href="classnet_1_1socket_1_1stream_1_1_socket_connection.html" target="_top" xlink:title=" ">
<polygon fill="white" stroke="black" points="0,-161.5 0,-449.5 150,-449.5 150,-161.5 0,-161.5"/>
<text text-anchor="start" x="8" y="-437.5" font-family="Helvetica,sans-Serif" font-size="10.00">net::socket::stream</text>
<text text-anchor="start" x="8" y="-426.5" font-family="Helvetica,sans-Serif" font-size="10.00">::SocketConnection&lt;</text>
<text text-anchor="start" x="8" y="-415.5" font-family="Helvetica,sans-Serif" font-size="10.00"> tls::SocketReader&lt; SocketT</text>
<text text-anchor="start" x="8" y="-404.5" font-family="Helvetica,sans-Serif" font-size="10.00"> &gt;, tls::SocketWriter&lt; SocketT</text>
<text text-anchor="middle" x="75" y="-393.5" font-family="Helvetica,sans-Serif" font-size="10.00"> &gt;, SocketT::SocketAddress &gt;</text>
<polyline fill="none" stroke="black" points="0,-386.5 150,-386.5 "/>
<text text-anchor="start" x="8" y="-374.5" font-family="Helvetica,sans-Serif" font-size="10.00">&#45; remoteAddress</text>
<text text-anchor="start" x="8" y="-363.5" font-family="Helvetica,sans-Serif" font-size="10.00">&#45; localAddress</text>
<text text-anchor="start" x="8" y="-352.5" font-family="Helvetica,sans-Serif" font-size="10.00">&#45; onDestruct</text>
<text text-anchor="start" x="8" y="-341.5" font-family="Helvetica,sans-Serif" font-size="10.00">&#45; onDisconnect</text>
<text text-anchor="start" x="8" y="-330.5" font-family="Helvetica,sans-Serif" font-size="10.00">&#45; isDynamic</text>
<text text-anchor="start" x="8" y="-319.5" font-family="Helvetica,sans-Serif" font-size="10.00">&#45; lastAllocAddress</text>
<polyline fill="none" stroke="black" points="0,-312.5 150,-312.5 "/>
<text text-anchor="start" x="8" y="-300.5" font-family="Helvetica,sans-Serif" font-size="10.00">+ operator new()</text>
<text text-anchor="start" x="8" y="-289.5" font-family="Helvetica,sans-Serif" font-size="10.00">+ operator delete()</text>
<text text-anchor="start" x="8" y="-278.5" font-family="Helvetica,sans-Serif" font-size="10.00">+ SocketConnection()</text>
<text text-anchor="start" x="8" y="-267.5" font-family="Helvetica,sans-Serif" font-size="10.00">+ SocketConnection()</text>
<text text-anchor="start" x="8" y="-256.5" font-family="Helvetica,sans-Serif" font-size="10.00">+ ~SocketConnection()</text>
<text text-anchor="start" x="8" y="-245.5" font-family="Helvetica,sans-Serif" font-size="10.00">+ enqueue()</text>
<text text-anchor="start" x="8" y="-234.5" font-family="Helvetica,sans-Serif" font-size="10.00">+ enqueue()</text>
<text text-anchor="start" x="8" y="-223.5" font-family="Helvetica,sans-Serif" font-size="10.00">+ end()</text>
<text text-anchor="start" x="8" y="-212.5" font-family="Helvetica,sans-Serif" font-size="10.00">+ getRemoteAddress()</text>
<text text-anchor="start" x="8" y="-201.5" font-family="Helvetica,sans-Serif" font-size="10.00">+ setRemoteAddress()</text>
<text text-anchor="start" x="8" y="-190.5" font-family="Helvetica,sans-Serif" font-size="10.00">+ getLocalAddress()</text>
<text text-anchor="start" x="8" y="-179.5" font-family="Helvetica,sans-Serif" font-size="10.00">+ setLocalAddress()</text>
<text text-anchor="start" x="8" y="-168.5" font-family="Helvetica,sans-Serif" font-size="10.00">&#45; unobserved()</text>
</a>
</g>
</g>
<!-- Node1&#45;&gt;Node3 -->
<g id="edge7" class="edge">
<title>Node1&#45;&gt;Node3</title>
<path fill="none" stroke="midnightblue" d="M156.03,-825.43C150.82,-816.07 146.04,-806.51 142,-797 89.41,-673.1 93.33,-634.72 78,-501 76.1,-484.39 74.82,-466.93 73.99,-449.58"/>
<polygon fill="none" stroke="midnightblue" points="153.13,-827.41 161.14,-834.34 159.2,-823.92 153.13,-827.41"/>
</g>
<!-- Node5 -->
<g id="node5" class="node">
<title>Node5</title>
<g id="a_node5"><a xlink:href="classnet_1_1socket_1_1stream_1_1_socket_connection.html" target="_top" xlink:title=" ">
<polygon fill="white" stroke="black" points="291,-161.5 291,-449.5 485,-449.5 485,-161.5 291,-161.5"/>
<text text-anchor="start" x="299" y="-437.5" font-family="Helvetica,sans-Serif" font-size="10.00">net::socket::stream</text>
<text text-anchor="start" x="299" y="-426.5" font-family="Helvetica,sans-Serif" font-size="10.00">::SocketConnection&lt;</text>
<text text-anchor="start" x="299" y="-415.5" font-family="Helvetica,sans-Serif" font-size="10.00"> legacy::SocketReader</text>
<text text-anchor="start" x="299" y="-404.5" font-family="Helvetica,sans-Serif" font-size="10.00">&lt; SocketT &gt;, legacy::SocketWriter</text>
<text text-anchor="middle" x="388" y="-393.5" font-family="Helvetica,sans-Serif" font-size="10.00">&lt; SocketT &gt;, SocketT::SocketAddress &gt;</text>
<polyline fill="none" stroke="black" points="291,-386.5 485,-386.5 "/>
<text text-anchor="start" x="299" y="-374.5" font-family="Helvetica,sans-Serif" font-size="10.00">&#45; remoteAddress</text>
<text text-anchor="start" x="299" y="-363.5" font-family="Helvetica,sans-Serif" font-size="10.00">&#45; localAddress</text>
<text text-anchor="start" x="299" y="-352.5" font-family="Helvetica,sans-Serif" font-size="10.00">&#45; onDestruct</text>
<text text-anchor="start" x="299" y="-341.5" font-family="Helvetica,sans-Serif" font-size="10.00">&#45; onDisconnect</text>
<text text-anchor="start" x="299" y="-330.5" font-family="Helvetica,sans-Serif" font-size="10.00">&#45; isDynamic</text>
<text text-anchor="start" x="299" y="-319.5" font-family="Helvetica,sans-Serif" font-size="10.00">&#45; lastAllocAddress</text>
<polyline fill="none" stroke="black" points="291,-312.5 485,-312.5 "/>
<text text-anchor="start" x="299" y="-300.5" font-family="Helvetica,sans-Serif" font-size="10.00">+ operator new()</text>
<text text-anchor="start" x="299" y="-289.5" font-family="Helvetica,sans-Serif" font-size="10.00">+ operator delete()</text>
<text text-anchor="start" x="299" y="-278.5" font-family="Helvetica,sans-Serif" font-size="10.00">+ SocketConnection()</text>
<text text-anchor="start" x="299" y="-267.5" font-family="Helvetica,sans-Serif" font-size="10.00">+ SocketConnection()</text>
<text text-anchor="start" x="299" y="-256.5" font-family="Helvetica,sans-Serif" font-size="10.00">+ ~SocketConnection()</text>
<text text-anchor="start" x="299" y="-245.5" font-family="Helvetica,sans-Serif" font-size="10.00">+ enqueue()</text>
<text text-anchor="start" x="299" y="-234.5" font-family="Helvetica,sans-Serif" font-size="10.00">+ enqueue()</text>
<text text-anchor="start" x="299" y="-223.5" font-family="Helvetica,sans-Serif" font-size="10.00">+ end()</text>
<text text-anchor="start" x="299" y="-212.5" font-family="Helvetica,sans-Serif" font-size="10.00">+ getRemoteAddress()</text>
<text text-anchor="start" x="299" y="-201.5" font-family="Helvetica,sans-Serif" font-size="10.00">+ setRemoteAddress()</text>
<text text-anchor="start" x="299" y="-190.5" font-family="Helvetica,sans-Serif" font-size="10.00">+ getLocalAddress()</text>
<text text-anchor="start" x="299" y="-179.5" font-family="Helvetica,sans-Serif" font-size="10.00">+ setLocalAddress()</text>
<text text-anchor="start" x="299" y="-168.5" font-family="Helvetica,sans-Serif" font-size="10.00">&#45; unobserved()</text>
</a>
</g>
</g>
<!-- Node1&#45;&gt;Node5 -->
<g id="edge6" class="edge">
<title>Node1&#45;&gt;Node5</title>
<path fill="none" stroke="midnightblue" d="M302.09,-827.39C361.75,-746.14 439.72,-623.29 471,-501 475.34,-484.02 475.18,-466.6 472.04,-449.51"/>
<polygon fill="none" stroke="midnightblue" points="299.14,-825.5 296.01,-835.62 304.77,-829.66 299.14,-825.5"/>
</g>
<!-- Node2&#45;&gt;Node3 -->
<g id="edge2" class="edge">
<title>Node2&#45;&gt;Node3</title>
<path fill="none" stroke="orange" d="M144.67,-581.39C124.02,-557.71 104.25,-530.1 92,-501 85.23,-484.91 80.49,-467.42 77.25,-449.75"/>
<polygon fill="orange" stroke="orange" points="142.12,-583.79 151.39,-588.93 147.35,-579.14 142.12,-583.79"/>
<text text-anchor="start" x="92" y="-493" font-family="Helvetica,sans-Serif" font-size="10.00"> &lt; tls::SocketReader</text>
<text text-anchor="start" x="92" y="-482" font-family="Helvetica,sans-Serif" font-size="10.00">&lt; SocketT &gt;, tls::SocketWriter</text>
<text text-anchor="middle" x="181" y="-471" font-family="Helvetica,sans-Serif" font-size="10.00">&lt; SocketT &gt;, SocketT::SocketAddress &gt;</text>
</g>
<!-- Node2&#45;&gt;Node5 -->
<g id="edge4" class="edge">
<title>Node2&#45;&gt;Node5</title>
<path fill="none" stroke="orange" d="M274.97,-510.04C280.68,-495.68 286.73,-481.46 293,-468 295.82,-461.96 298.79,-455.84 301.88,-449.71"/>
<polygon fill="orange" stroke="orange" points="271.65,-508.9 271.26,-519.48 278.17,-511.45 271.65,-508.9"/>
<text text-anchor="start" x="293" y="-493" font-family="Helvetica,sans-Serif" font-size="10.00"> &lt; legacy::SocketReader</text>
<text text-anchor="start" x="293" y="-482" font-family="Helvetica,sans-Serif" font-size="10.00">&lt; SocketT &gt;, legacy::SocketWriter</text>
<text text-anchor="middle" x="382" y="-471" font-family="Helvetica,sans-Serif" font-size="10.00">&lt; SocketT &gt;, SocketT::SocketAddress &gt;</text>
</g>
<!-- Node4 -->
<g id="node4" class="node">
<title>Node4</title>
<g id="a_node4"><a xlink:href="classnet_1_1socket_1_1stream_1_1tls_1_1_socket_connection.html" target="_top" xlink:title=" ">
<polygon fill="white" stroke="black" points="15.5,-0.5 15.5,-123.5 134.5,-123.5 134.5,-0.5 15.5,-0.5"/>
<text text-anchor="start" x="23.5" y="-111.5" font-family="Helvetica,sans-Serif" font-size="10.00">net::socket::stream</text>
<text text-anchor="start" x="23.5" y="-100.5" font-family="Helvetica,sans-Serif" font-size="10.00">::tls::SocketConnection</text>
<text text-anchor="middle" x="75" y="-89.5" font-family="Helvetica,sans-Serif" font-size="10.00">&lt; SocketT &gt;</text>
<polyline fill="none" stroke="black" points="15.5,-82.5 134.5,-82.5 "/>
<text text-anchor="start" x="23.5" y="-70.5" font-family="Helvetica,sans-Serif" font-size="10.00"># ssl</text>
<text text-anchor="start" x="23.5" y="-59.5" font-family="Helvetica,sans-Serif" font-size="10.00"># sslErr</text>
<polyline fill="none" stroke="black" points="15.5,-52.5 134.5,-52.5 "/>
<text text-anchor="start" x="23.5" y="-40.5" font-family="Helvetica,sans-Serif" font-size="10.00">+ SocketConnection()</text>
<text text-anchor="start" x="23.5" y="-29.5" font-family="Helvetica,sans-Serif" font-size="10.00">+ startSSL()</text>
<text text-anchor="start" x="23.5" y="-18.5" font-family="Helvetica,sans-Serif" font-size="10.00">+ stopSSL()</text>
<text text-anchor="start" x="23.5" y="-7.5" font-family="Helvetica,sans-Serif" font-size="10.00">+ getSSL()</text>
</a>
</g>
</g>
<!-- Node3&#45;&gt;Node4 -->
<g id="edge3" class="edge">
<title>Node3&#45;&gt;Node4</title>
<path fill="none" stroke="midnightblue" d="M75,-151.18C75,-141.63 75,-132.37 75,-123.67"/>
<polygon fill="none" stroke="midnightblue" points="71.5,-151.23 75,-161.23 78.5,-151.23 71.5,-151.23"/>
</g>
<!-- Node6 -->
<g id="node6" class="node">
<title>Node6</title>
<g id="a_node6"><a xlink:href="classnet_1_1socket_1_1stream_1_1legacy_1_1_socket_connection.html" target="_top" xlink:title=" ">
<polygon fill="white" stroke="black" points="319.5,-22.5 319.5,-101.5 456.5,-101.5 456.5,-22.5 319.5,-22.5"/>
<text text-anchor="start" x="327.5" y="-89.5" font-family="Helvetica,sans-Serif" font-size="10.00">net::socket::stream</text>
<text text-anchor="start" x="327.5" y="-78.5" font-family="Helvetica,sans-Serif" font-size="10.00">::legacy::SocketConnection</text>
<text text-anchor="middle" x="388" y="-67.5" font-family="Helvetica,sans-Serif" font-size="10.00">&lt; SocketT &gt;</text>
<polyline fill="none" stroke="black" points="319.5,-60.5 456.5,-60.5 "/>
<text text-anchor="middle" x="388" y="-48.5" font-family="Helvetica,sans-Serif" font-size="10.00"> </text>
<polyline fill="none" stroke="black" points="319.5,-41.5 456.5,-41.5 "/>
<text text-anchor="start" x="327.5" y="-29.5" font-family="Helvetica,sans-Serif" font-size="10.00">+ SocketConnection()</text>
</a>
</g>
</g>
<!-- Node5&#45;&gt;Node6 -->
<g id="edge5" class="edge">
<title>Node5&#45;&gt;Node6</title>
<path fill="none" stroke="midnightblue" d="M388,-151.03C388,-132.85 388,-115.75 388,-101.53"/>
<polygon fill="none" stroke="midnightblue" points="384.5,-151.23 388,-161.23 391.5,-151.23 384.5,-151.23"/>
</g>
</g>
</svg>
