<?xml version="1.0" encoding="UTF-8" standalone="no"?>
<!DOCTYPE svg PUBLIC "-//W3C//DTD SVG 1.1//EN"
 "http://www.w3.org/Graphics/SVG/1.1/DTD/svg11.dtd">
<!-- Generated by graphviz version 2.43.0 (0)
 -->
<!-- Title: net::pipe::PipeSink::readEvent Pages: 1 -->
<svg width="545pt" height="249pt"
 viewBox="0.00 0.00 545.00 249.00" xmlns="http://www.w3.org/2000/svg" xmlns:xlink="http://www.w3.org/1999/xlink">
<g id="graph0" class="graph" transform="scale(1 1) rotate(0) translate(4 245)">
<title>net::pipe::PipeSink::readEvent</title>
<polygon fill="white" stroke="transparent" points="-4,4 -4,-245 541,-245 541,4 -4,4"/>
<!-- Node1 -->
<g id="node1" class="node">
<title>Node1</title>
<g id="a_node1"><a xlink:title=" ">
<polygon fill="#bfbfbf" stroke="black" points="0,-112.5 0,-142.5 99,-142.5 99,-112.5 0,-112.5"/>
<text text-anchor="start" x="8" y="-130.5" font-family="Helvetica,sans-Serif" font-size="10.00">net::pipe::PipeSink</text>
<text text-anchor="middle" x="49.5" y="-119.5" font-family="Helvetica,sans-Serif" font-size="10.00">::readEvent</text>
</a>
</g>
</g>
<!-- Node2 -->
<g id="node2" class="node">
<title>Node2</title>
<g id="a_node2"><a xlink:href="classnet_1_1_event_receiver.html#af99ad4621551f0d032b5eabb76b613a1" target="_top" xlink:title=" ">
<polygon fill="white" stroke="black" points="140.5,-175.5 140.5,-205.5 241.5,-205.5 241.5,-175.5 140.5,-175.5"/>
<text text-anchor="start" x="148.5" y="-193.5" font-family="Helvetica,sans-Serif" font-size="10.00">net::EventReceiver</text>
<text text-anchor="middle" x="191" y="-182.5" font-family="Helvetica,sans-Serif" font-size="10.00">::disable</text>
</a>
</g>
</g>
<!-- Node1&#45;&gt;Node2 -->
<g id="edge1" class="edge">
<title>Node1&#45;&gt;Node2</title>
<path fill="none" stroke="midnightblue" d="M83.91,-142.59C102.84,-151.14 126.72,-161.92 147.03,-171.09"/>
<polygon fill="midnightblue" stroke="midnightblue" points="145.82,-174.39 156.38,-175.31 148.7,-168.01 145.82,-174.39"/>
</g>
<!-- Node6 -->
<g id="node6" class="node">
<title>Node6</title>
<g id="a_node6"><a xlink:href="classnet_1_1_descriptor.html#a70ccc1e4f6af5cda015bd319f9a90096" target="_top" xlink:title=" ">
<polygon fill="white" stroke="black" points="135,-137 135,-156 247,-156 247,-137 135,-137"/>
<text text-anchor="middle" x="191" y="-144" font-family="Helvetica,sans-Serif" font-size="10.00">net::Descriptor::getFd</text>
</a>
</g>
</g>
<!-- Node1&#45;&gt;Node6 -->
<g id="edge5" class="edge">
<title>Node1&#45;&gt;Node6</title>
<path fill="none" stroke="midnightblue" d="M99.29,-134.15C107.54,-135.27 116.21,-136.45 124.79,-137.62"/>
<polygon fill="midnightblue" stroke="midnightblue" points="124.42,-141.1 134.8,-138.98 125.36,-134.16 124.42,-141.1"/>
</g>
<!-- Node7 -->
<g id="node7" class="node">
<title>Node7</title>
<g id="a_node7"><a xlink:href="namespacenet_1_1system.html#a4cc36b181c059e9e19c9247237452d47" target="_top" xlink:title=" ">
<polygon fill="white" stroke="black" points="144.5,-99 144.5,-118 237.5,-118 237.5,-99 144.5,-99"/>
<text text-anchor="middle" x="191" y="-106" font-family="Helvetica,sans-Serif" font-size="10.00">net::system::read</text>
</a>
</g>
</g>
<!-- Node1&#45;&gt;Node7 -->
<g id="edge6" class="edge">
<title>Node1&#45;&gt;Node7</title>
<path fill="none" stroke="midnightblue" d="M99.29,-120.85C110.59,-119.32 122.71,-117.67 134.28,-116.09"/>
<polygon fill="midnightblue" stroke="midnightblue" points="134.84,-119.54 144.28,-114.73 133.9,-112.61 134.84,-119.54"/>
</g>
<!-- Node8 -->
<g id="node8" class="node">
<title>Node8</title>
<g id="a_node8"><a xlink:href="classnet_1_1_event_receiver.html#a6c5065f83b6aad6a60f5369ccc5963b1" target="_top" xlink:title=" ">
<polygon fill="white" stroke="black" points="140.5,-49.5 140.5,-79.5 241.5,-79.5 241.5,-49.5 140.5,-49.5"/>
<text text-anchor="start" x="148.5" y="-67.5" font-family="Helvetica,sans-Serif" font-size="10.00">net::EventReceiver</text>
<text text-anchor="middle" x="191" y="-56.5" font-family="Helvetica,sans-Serif" font-size="10.00">::suspend</text>
</a>
</g>
</g>
<!-- Node1&#45;&gt;Node8 -->
<g id="edge7" class="edge">
<title>Node1&#45;&gt;Node8</title>
<path fill="none" stroke="midnightblue" d="M83.91,-112.41C102.84,-103.86 126.72,-93.08 147.03,-83.91"/>
<polygon fill="midnightblue" stroke="midnightblue" points="148.7,-86.99 156.38,-79.69 145.82,-80.61 148.7,-86.99"/>
</g>
<!-- Node3 -->
<g id="node3" class="node">
<title>Node3</title>
<g id="a_node3"><a xlink:href="classnet_1_1_event_dispatcher.html#a1298354d3ccafbd0c878852449af3799" target="_top" xlink:title=" ">
<polygon fill="white" stroke="black" points="283,-175.5 283,-205.5 392,-205.5 392,-175.5 283,-175.5"/>
<text text-anchor="start" x="291" y="-193.5" font-family="Helvetica,sans-Serif" font-size="10.00">net::EventDispatcher</text>
<text text-anchor="middle" x="337.5" y="-182.5" font-family="Helvetica,sans-Serif" font-size="10.00">::disable</text>
</a>
</g>
</g>
<!-- Node2&#45;&gt;Node3 -->
<g id="edge2" class="edge">
<title>Node2&#45;&gt;Node3</title>
<path fill="none" stroke="midnightblue" d="M241.73,-190.5C251.65,-190.5 262.2,-190.5 272.52,-190.5"/>
<polygon fill="midnightblue" stroke="midnightblue" points="272.73,-194 282.73,-190.5 272.73,-187 272.73,-194"/>
</g>
<!-- Node4 -->
<g id="node4" class="node">
<title>Node4</title>
<g id="a_node4"><a xlink:href="classnet_1_1_event_receiver.html#a26548a33372081c52eff4df128fa573f" target="_top" xlink:title=" ">
<polygon fill="white" stroke="black" points="432,-210.5 432,-240.5 533,-240.5 533,-210.5 432,-210.5"/>
<text text-anchor="start" x="440" y="-228.5" font-family="Helvetica,sans-Serif" font-size="10.00">net::EventReceiver</text>
<text text-anchor="middle" x="482.5" y="-217.5" font-family="Helvetica,sans-Serif" font-size="10.00">::disabled</text>
</a>
</g>
</g>
<!-- Node3&#45;&gt;Node4 -->
<g id="edge3" class="edge">
<title>Node3&#45;&gt;Node4</title>
<path fill="none" stroke="midnightblue" d="M392.15,-203.63C401.9,-206.02 412.12,-208.52 422.03,-210.94"/>
<polygon fill="midnightblue" stroke="midnightblue" points="421.25,-214.36 431.8,-213.33 422.91,-207.56 421.25,-214.36"/>
</g>
<!-- Node5 -->
<g id="node5" class="node">
<title>Node5</title>
<g id="a_node5"><a xlink:href="classnet_1_1_event_receiver.html#ac4e3a75a2849d0d8b1fc4ba2b754c8e3" target="_top" xlink:title=" ">
<polygon fill="white" stroke="black" points="432,-161.5 432,-191.5 533,-191.5 533,-161.5 432,-161.5"/>
<text text-anchor="start" x="440" y="-179.5" font-family="Helvetica,sans-Serif" font-size="10.00">net::EventReceiver</text>
<text text-anchor="middle" x="482.5" y="-168.5" font-family="Helvetica,sans-Serif" font-size="10.00">::isEnabled</text>
</a>
</g>
</g>
<!-- Node3&#45;&gt;Node5 -->
<g id="edge4" class="edge">
<title>Node3&#45;&gt;Node5</title>
<path fill="none" stroke="midnightblue" d="M392.15,-185.25C401.8,-184.3 411.91,-183.31 421.72,-182.35"/>
<polygon fill="midnightblue" stroke="midnightblue" points="422.18,-185.82 431.8,-181.37 421.5,-178.86 422.18,-185.82"/>
</g>
<!-- Node9 -->
<g id="node9" class="node">
<title>Node9</title>
<g id="a_node9"><a xlink:href="classnet_1_1_event_dispatcher.html#a3e9b28950b4c4738ba9f2d07515faf55" target="_top" xlink:title=" ">
<polygon fill="white" stroke="black" points="283,-49.5 283,-79.5 392,-79.5 392,-49.5 283,-49.5"/>
<text text-anchor="start" x="291" y="-67.5" font-family="Helvetica,sans-Serif" font-size="10.00">net::EventDispatcher</text>
<text text-anchor="middle" x="337.5" y="-56.5" font-family="Helvetica,sans-Serif" font-size="10.00">::suspend</text>
</a>
</g>
</g>
<!-- Node8&#45;&gt;Node9 -->
<g id="edge8" class="edge">
<title>Node8&#45;&gt;Node9</title>
<path fill="none" stroke="midnightblue" d="M241.73,-64.5C251.65,-64.5 262.2,-64.5 272.52,-64.5"/>
<polygon fill="midnightblue" stroke="midnightblue" points="272.73,-68 282.73,-64.5 272.73,-61 272.73,-68"/>
</g>
<!-- Node10 -->
<g id="node10" class="node">
<title>Node10</title>
<g id="a_node10"><a xlink:href="classnet_1_1_event_dispatcher_1_1_fd_set.html#a9f27047c523223dc325e32b003f350de" target="_top" xlink:title=" ">
<polygon fill="white" stroke="black" points="428,-98.5 428,-128.5 537,-128.5 537,-98.5 428,-98.5"/>
<text text-anchor="start" x="436" y="-116.5" font-family="Helvetica,sans-Serif" font-size="10.00">net::EventDispatcher</text>
<text text-anchor="middle" x="482.5" y="-105.5" font-family="Helvetica,sans-Serif" font-size="10.00">::FdSet::clr</text>
</a>
</g>
</g>
<!-- Node9&#45;&gt;Node10 -->
<g id="edge9" class="edge">
<title>Node9&#45;&gt;Node10</title>
<path fill="none" stroke="midnightblue" d="M382.57,-79.6C396.84,-84.49 412.83,-89.97 427.73,-95.07"/>
<polygon fill="midnightblue" stroke="midnightblue" points="426.73,-98.43 437.33,-98.36 429,-91.81 426.73,-98.43"/>
</g>
<!-- Node11 -->
<g id="node11" class="node">
<title>Node11</title>
<g id="a_node11"><a xlink:href="classnet_1_1_event_receiver.html#afdfa280e579e56b9acadb54465c65528" target="_top" xlink:title=" ">
<polygon fill="white" stroke="black" points="432,-49.5 432,-79.5 533,-79.5 533,-49.5 432,-49.5"/>
<text text-anchor="start" x="440" y="-67.5" font-family="Helvetica,sans-Serif" font-size="10.00">net::EventReceiver</text>
<text text-anchor="middle" x="482.5" y="-56.5" font-family="Helvetica,sans-Serif" font-size="10.00">::isSuspended</text>
</a>
</g>
</g>
<!-- Node9&#45;&gt;Node11 -->
<g id="edge10" class="edge">
<title>Node9&#45;&gt;Node11</title>
<path fill="none" stroke="midnightblue" d="M392.15,-64.5C401.8,-64.5 411.91,-64.5 421.72,-64.5"/>
<polygon fill="midnightblue" stroke="midnightblue" points="421.8,-68 431.8,-64.5 421.8,-61 421.8,-68"/>
</g>
<!-- Node12 -->
<g id="node12" class="node">
<title>Node12</title>
<g id="a_node12"><a xlink:href="classnet_1_1_event_receiver.html#a2736c19a5be98adb814b4d2b10d93e6a" target="_top" xlink:title=" ">
<polygon fill="white" stroke="black" points="432,-0.5 432,-30.5 533,-30.5 533,-0.5 432,-0.5"/>
<text text-anchor="start" x="440" y="-18.5" font-family="Helvetica,sans-Serif" font-size="10.00">net::EventReceiver</text>
<text text-anchor="middle" x="482.5" y="-7.5" font-family="Helvetica,sans-Serif" font-size="10.00">::suspended</text>
</a>
</g>
</g>
<!-- Node9&#45;&gt;Node12 -->
<g id="edge11" class="edge">
<title>Node9&#45;&gt;Node12</title>
<path fill="none" stroke="midnightblue" d="M382.57,-49.4C396.84,-44.51 412.83,-39.03 427.73,-33.93"/>
<polygon fill="midnightblue" stroke="midnightblue" points="429,-37.19 437.33,-30.64 426.73,-30.57 429,-37.19"/>
</g>
</g>
</svg>
