<?xml version="1.0" encoding="UTF-8" standalone="no"?>
<!DOCTYPE svg PUBLIC "-//W3C//DTD SVG 1.1//EN"
 "http://www.w3.org/Graphics/SVG/1.1/DTD/svg11.dtd">
<!-- Generated by graphviz version 2.43.0 (0)
 -->
<!-- Title: net::ConnectEventReceiver::enable Pages: 1 -->
<svg width="525pt" height="187pt"
 viewBox="0.00 0.00 525.00 187.00" xmlns="http://www.w3.org/2000/svg" xmlns:xlink="http://www.w3.org/1999/xlink">
<g id="graph0" class="graph" transform="scale(1 1) rotate(0) translate(4 183)">
<title>net::ConnectEventReceiver::enable</title>
<polygon fill="white" stroke="transparent" points="-4,4 -4,-183 521,-183 521,4 -4,4"/>
<!-- Node1 -->
<g id="node1" class="node">
<title>Node1</title>
<g id="a_node1"><a xlink:title=" ">
<polygon fill="#bfbfbf" stroke="black" points="0,-39 0,-69 137,-69 137,-39 0,-39"/>
<text text-anchor="start" x="8" y="-57" font-family="Helvetica,sans-Serif" font-size="10.00">net::ConnectEventReceiver</text>
<text text-anchor="middle" x="68.5" y="-46" font-family="Helvetica,sans-Serif" font-size="10.00">::enable</text>
</a>
</g>
</g>
<!-- Node2 -->
<g id="node2" class="node">
<title>Node2</title>
<g id="a_node2"><a xlink:href="classnet_1_1_descriptor_event_dispatcher.html#a73814f761935ca747c521b3ce46c2689" target="_top" xlink:title=" ">
<polygon fill="white" stroke="black" points="173,-88 173,-118 327,-118 327,-88 173,-88"/>
<text text-anchor="start" x="181" y="-106" font-family="Helvetica,sans-Serif" font-size="10.00">net::DescriptorEventDispatcher</text>
<text text-anchor="middle" x="250" y="-95" font-family="Helvetica,sans-Serif" font-size="10.00">::enable</text>
</a>
</g>
</g>
<!-- Node1&#45;&gt;Node2 -->
<g id="edge1" class="edge">
<title>Node1&#45;&gt;Node2</title>
<path fill="none" stroke="midnightblue" d="M124.82,-69.1C143.59,-74.23 164.73,-80 184.17,-85.3"/>
<polygon fill="midnightblue" stroke="midnightblue" points="183.29,-88.69 193.86,-87.95 185.14,-81.94 183.29,-88.69"/>
</g>
<!-- Node6 -->
<g id="node6" class="node">
<title>Node6</title>
<g id="a_node6"><a xlink:href="classnet_1_1_event_loop.html#a53697a464b99a65cde0a384bb896d5f3" target="_top" xlink:title=" ">
<polygon fill="white" stroke="black" points="187.5,-39 187.5,-69 312.5,-69 312.5,-39 187.5,-39"/>
<text text-anchor="start" x="195.5" y="-57" font-family="Helvetica,sans-Serif" font-size="10.00">net::EventLoop::getWrite</text>
<text text-anchor="middle" x="250" y="-46" font-family="Helvetica,sans-Serif" font-size="10.00">EventDispatcher</text>
</a>
</g>
</g>
<!-- Node1&#45;&gt;Node6 -->
<g id="edge5" class="edge">
<title>Node1&#45;&gt;Node6</title>
<path fill="none" stroke="midnightblue" d="M137.11,-54C150.25,-54 164.07,-54 177.35,-54"/>
<polygon fill="midnightblue" stroke="midnightblue" points="177.37,-57.5 187.37,-54 177.37,-50.5 177.37,-57.5"/>
</g>
<!-- Node7 -->
<g id="node7" class="node">
<title>Node7</title>
<g id="a_node7"><a xlink:href="classnet_1_1_event_loop.html#a6d8bfd6fa03bb6bf423035ab190657ef" target="_top" xlink:title=" ">
<polygon fill="white" stroke="black" points="187.5,-0.5 187.5,-19.5 312.5,-19.5 312.5,-0.5 187.5,-0.5"/>
<text text-anchor="middle" x="250" y="-7.5" font-family="Helvetica,sans-Serif" font-size="10.00">net::EventLoop::instance</text>
</a>
</g>
</g>
<!-- Node1&#45;&gt;Node7 -->
<g id="edge6" class="edge">
<title>Node1&#45;&gt;Node7</title>
<path fill="none" stroke="midnightblue" d="M130.77,-38.98C153.48,-33.41 178.9,-27.18 200.34,-21.93"/>
<polygon fill="midnightblue" stroke="midnightblue" points="201.31,-25.29 210.19,-19.51 199.65,-18.49 201.31,-25.29"/>
</g>
<!-- Node3 -->
<g id="node3" class="node">
<title>Node3</title>
<g id="a_node3"><a xlink:href="classnet_1_1_descriptor_event_dispatcher_1_1_descriptor_event_receiver_list.html#ab0128e4373c28e76fe9db7b286e50e38" target="_top" xlink:title=" ">
<polygon fill="white" stroke="black" points="363,-137.5 363,-178.5 517,-178.5 517,-137.5 363,-137.5"/>
<text text-anchor="start" x="371" y="-166.5" font-family="Helvetica,sans-Serif" font-size="10.00">net::DescriptorEventDispatcher</text>
<text text-anchor="start" x="371" y="-155.5" font-family="Helvetica,sans-Serif" font-size="10.00">::DescriptorEventReceiverList</text>
<text text-anchor="middle" x="440" y="-144.5" font-family="Helvetica,sans-Serif" font-size="10.00">::contains</text>
</a>
</g>
</g>
<!-- Node2&#45;&gt;Node3 -->
<g id="edge2" class="edge">
<title>Node2&#45;&gt;Node3</title>
<path fill="none" stroke="midnightblue" d="M302.37,-118.03C319.86,-123.14 339.84,-128.99 359.02,-134.6"/>
<polygon fill="midnightblue" stroke="midnightblue" points="358.08,-137.97 368.66,-137.42 360.05,-131.26 358.08,-137.97"/>
</g>
<!-- Node4 -->
<g id="node4" class="node">
<title>Node4</title>
<g id="a_node4"><a xlink:href="classnet_1_1_descriptor_event_receiver.html#a9e2301bbfa9bb03c4d15372b7a2dc6d1" target="_top" xlink:title=" ">
<polygon fill="white" stroke="black" points="367,-88 367,-118 513,-118 513,-88 367,-88"/>
<text text-anchor="start" x="375" y="-106" font-family="Helvetica,sans-Serif" font-size="10.00">net::DescriptorEventReceiver</text>
<text text-anchor="middle" x="440" y="-95" font-family="Helvetica,sans-Serif" font-size="10.00">::enabled</text>
</a>
</g>
</g>
<!-- Node2&#45;&gt;Node4 -->
<g id="edge3" class="edge">
<title>Node2&#45;&gt;Node4</title>
<path fill="none" stroke="midnightblue" d="M327.2,-103C336.94,-103 346.95,-103 356.79,-103"/>
<polygon fill="midnightblue" stroke="midnightblue" points="356.95,-106.5 366.95,-103 356.95,-99.5 356.95,-106.5"/>
</g>
<!-- Node5 -->
<g id="node5" class="node">
<title>Node5</title>
<g id="a_node5"><a xlink:href="classnet_1_1_descriptor_event_receiver.html#a58562b1da4bc4f87bc7c51eb04db62a4" target="_top" xlink:title=" ">
<polygon fill="white" stroke="black" points="367,-39 367,-69 513,-69 513,-39 367,-39"/>
<text text-anchor="start" x="375" y="-57" font-family="Helvetica,sans-Serif" font-size="10.00">net::DescriptorEventReceiver</text>
<text text-anchor="middle" x="440" y="-46" font-family="Helvetica,sans-Serif" font-size="10.00">::isEnabled</text>
</a>
</g>
</g>
<!-- Node2&#45;&gt;Node5 -->
<g id="edge4" class="edge">
<title>Node2&#45;&gt;Node5</title>
<path fill="none" stroke="midnightblue" d="M308.68,-87.97C328.53,-82.79 350.94,-76.95 371.5,-71.59"/>
<polygon fill="midnightblue" stroke="midnightblue" points="372.63,-74.92 381.43,-69.01 370.87,-68.14 372.63,-74.92"/>
</g>
</g>
</svg>
