<?xml version="1.0" encoding="UTF-8" standalone="no"?>
<!DOCTYPE svg PUBLIC "-//W3C//DTD SVG 1.1//EN"
 "http://www.w3.org/Graphics/SVG/1.1/DTD/svg11.dtd">
<!-- Generated by graphviz version 2.43.0 (0)
 -->
<!-- Title: web::websocket::SocketContext::onMessageError Pages: 1 -->
<svg width="686pt" height="50pt"
 viewBox="0.00 0.00 686.00 50.00" xmlns="http://www.w3.org/2000/svg" xmlns:xlink="http://www.w3.org/1999/xlink">
<g id="graph0" class="graph" transform="scale(1 1) rotate(0) translate(4 46)">
<title>web::websocket::SocketContext::onMessageError</title>
<polygon fill="white" stroke="transparent" points="-4,4 -4,-46 682,-46 682,4 -4,4"/>
<!-- Node1 -->
<g id="node1" class="node">
<title>Node1</title>
<g id="a_node1"><a xlink:title=" ">
<polygon fill="#bfbfbf" stroke="black" points="0,-6 0,-36 159,-36 159,-6 0,-6"/>
<text text-anchor="start" x="8" y="-24" font-family="Helvetica,sans-Serif" font-size="10.00">web::websocket::SocketContext</text>
<text text-anchor="middle" x="79.5" y="-13" font-family="Helvetica,sans-Serif" font-size="10.00">::onMessageError</text>
</a>
</g>
</g>
<!-- Node2 -->
<g id="node2" class="node">
<title>Node2</title>
<g id="a_node2"><a xlink:href="classweb_1_1websocket_1_1_socket_context.html#ac3cca075300c4abe73c871b4e402ed6f" target="_top" xlink:title=" ">
<polygon fill="white" stroke="black" points="195,-6 195,-36 354,-36 354,-6 195,-6"/>
<text text-anchor="start" x="203" y="-24" font-family="Helvetica,sans-Serif" font-size="10.00">web::websocket::SocketContext</text>
<text text-anchor="middle" x="274.5" y="-13" font-family="Helvetica,sans-Serif" font-size="10.00">::sendClose</text>
</a>
</g>
</g>
<!-- Node1&#45;&gt;Node2 -->
<g id="edge1" class="edge">
<title>Node1&#45;&gt;Node2</title>
<path fill="none" stroke="midnightblue" d="M159,-21C167.48,-21 176.14,-21 184.73,-21"/>
<polygon fill="midnightblue" stroke="midnightblue" points="184.76,-24.5 194.76,-21 184.76,-17.5 184.76,-24.5"/>
</g>
<!-- Node3 -->
<g id="node3" class="node">
<title>Node3</title>
<g id="a_node3"><a xlink:href="classnet_1_1socket_1_1stream_1_1_socket_context.html#afca303a1d0f6368e7a4d2f2ddea54939" target="_top" xlink:title=" ">
<polygon fill="white" stroke="black" points="390,-6 390,-36 533,-36 533,-6 390,-6"/>
<text text-anchor="start" x="398" y="-24" font-family="Helvetica,sans-Serif" font-size="10.00">net::socket::stream</text>
<text text-anchor="middle" x="461.5" y="-13" font-family="Helvetica,sans-Serif" font-size="10.00">::SocketContext::setTimeout</text>
</a>
</g>
</g>
<!-- Node2&#45;&gt;Node3 -->
<g id="edge2" class="edge">
<title>Node2&#45;&gt;Node3</title>
<path fill="none" stroke="midnightblue" d="M354.22,-21C362.61,-21 371.16,-21 379.57,-21"/>
<polygon fill="midnightblue" stroke="midnightblue" points="379.76,-24.5 389.76,-21 379.76,-17.5 379.76,-24.5"/>
</g>
<!-- Node4 -->
<g id="node4" class="node">
<title>Node4</title>
<g id="a_node4"><a xlink:href="classnet_1_1socket_1_1stream_1_1_socket_connection.html#a349bf62b99e408f09019434e7b8aa3c9" target="_top" xlink:title=" ">
<polygon fill="white" stroke="black" points="569,-0.5 569,-41.5 678,-41.5 678,-0.5 569,-0.5"/>
<text text-anchor="start" x="577" y="-29.5" font-family="Helvetica,sans-Serif" font-size="10.00">net::socket::stream</text>
<text text-anchor="start" x="577" y="-18.5" font-family="Helvetica,sans-Serif" font-size="10.00">::SocketConnection::</text>
<text text-anchor="middle" x="623.5" y="-7.5" font-family="Helvetica,sans-Serif" font-size="10.00">setTimeout</text>
</a>
</g>
</g>
<!-- Node3&#45;&gt;Node4 -->
<g id="edge3" class="edge">
<title>Node3&#45;&gt;Node4</title>
<path fill="none" stroke="midnightblue" d="M533.14,-21C541.6,-21 550.19,-21 558.54,-21"/>
<polygon fill="midnightblue" stroke="midnightblue" points="558.58,-24.5 568.58,-21 558.58,-17.5 558.58,-24.5"/>
</g>
</g>
</svg>
