<?xml version="1.0" encoding="UTF-8" standalone="no"?>
<!DOCTYPE svg PUBLIC "-//W3C//DTD SVG 1.1//EN"
 "http://www.w3.org/Graphics/SVG/1.1/DTD/svg11.dtd">
<!-- Generated by graphviz version 2.43.0 (0)
 -->
<!-- Title: net::FdSet::set Pages: 1 -->
<svg width="933pt" height="227pt"
 viewBox="0.00 0.00 933.00 227.00" xmlns="http://www.w3.org/2000/svg" xmlns:xlink="http://www.w3.org/1999/xlink">
<g id="graph0" class="graph" transform="scale(1 1) rotate(0) translate(4 223)">
<title>net::FdSet::set</title>
<polygon fill="white" stroke="transparent" points="-4,4 -4,-223 929,-223 929,4 -4,4"/>
<!-- Node1 -->
<g id="node1" class="node">
<title>Node1</title>
<g id="a_node1"><a xlink:title=" ">
<polygon fill="#bfbfbf" stroke="black" points="843,-59.5 843,-78.5 925,-78.5 925,-59.5 843,-59.5"/>
<text text-anchor="middle" x="884" y="-66.5" font-family="Helvetica,sans-Serif" font-size="10.00">net::FdSet::set</text>
</a>
</g>
</g>
<!-- Node2 -->
<g id="node2" class="node">
<title>Node2</title>
<g id="a_node2"><a xlink:href="classnet_1_1_descriptor_event_dispatcher.html#a2f3bda27d3e9b040956e69f7b07054e5" target="_top" xlink:title=" ">
<polygon fill="white" stroke="black" points="653,-79 653,-109 807,-109 807,-79 653,-79"/>
<text text-anchor="start" x="661" y="-97" font-family="Helvetica,sans-Serif" font-size="10.00">net::DescriptorEventDispatcher</text>
<text text-anchor="middle" x="730" y="-86" font-family="Helvetica,sans-Serif" font-size="10.00">::resume</text>
</a>
</g>
</g>
<!-- Node1&#45;&gt;Node2 -->
<g id="edge1" class="edge">
<title>Node1&#45;&gt;Node2</title>
<path fill="none" stroke="midnightblue" d="M832.57,-77.29C824.38,-78.64 815.74,-80.06 807.11,-81.48"/>
<polygon fill="midnightblue" stroke="midnightblue" points="833.37,-80.71 842.67,-75.63 832.23,-73.8 833.37,-80.71"/>
</g>
<!-- Node9 -->
<g id="node9" class="node">
<title>Node9</title>
<g id="a_node9"><a xlink:href="classnet_1_1_descriptor_event_dispatcher.html#a785c063c3aa24c4daf273661e01976d6" target="_top" xlink:title=" ">
<polygon fill="white" stroke="black" points="653,-30 653,-60 807,-60 807,-30 653,-30"/>
<text text-anchor="start" x="661" y="-48" font-family="Helvetica,sans-Serif" font-size="10.00">net::DescriptorEventDispatcher</text>
<text text-anchor="middle" x="730" y="-37" font-family="Helvetica,sans-Serif" font-size="10.00">::unobserveDisabledEvents</text>
</a>
</g>
</g>
<!-- Node1&#45;&gt;Node9 -->
<g id="edge8" class="edge">
<title>Node1&#45;&gt;Node9</title>
<path fill="none" stroke="midnightblue" d="M832.57,-61.04C824.38,-59.74 815.74,-58.38 807.11,-57.02"/>
<polygon fill="midnightblue" stroke="midnightblue" points="832.24,-64.53 842.67,-62.63 833.33,-57.61 832.24,-64.53"/>
</g>
<!-- Node3 -->
<g id="node3" class="node">
<title>Node3</title>
<g id="a_node3"><a xlink:href="classnet_1_1_descriptor_event_receiver.html#a7cba21365ece0cb800e9f12280e23cd4" target="_top" xlink:title=" ">
<polygon fill="white" stroke="black" points="471,-79 471,-109 617,-109 617,-79 471,-79"/>
<text text-anchor="start" x="479" y="-97" font-family="Helvetica,sans-Serif" font-size="10.00">net::DescriptorEventReceiver</text>
<text text-anchor="middle" x="544" y="-86" font-family="Helvetica,sans-Serif" font-size="10.00">::resume</text>
</a>
</g>
</g>
<!-- Node2&#45;&gt;Node3 -->
<g id="edge2" class="edge">
<title>Node2&#45;&gt;Node3</title>
<path fill="none" stroke="midnightblue" d="M642.56,-94C634.1,-94 625.57,-94 617.27,-94"/>
<polygon fill="midnightblue" stroke="midnightblue" points="642.83,-97.5 652.83,-94 642.83,-90.5 642.83,-97.5"/>
</g>
<!-- Node4 -->
<g id="node4" class="node">
<title>Node4</title>
<g id="a_node4"><a xlink:href="classnet_1_1socket_1_1stream_1_1tls_1_1_socket_connection.html#af1a4936b2d84a553285fbdf1de7dd716" target="_top" xlink:title=" ">
<polygon fill="white" stroke="black" points="314.5,-117.5 314.5,-158.5 433.5,-158.5 433.5,-117.5 314.5,-117.5"/>
<text text-anchor="start" x="322.5" y="-146.5" font-family="Helvetica,sans-Serif" font-size="10.00">net::socket::stream</text>
<text text-anchor="start" x="322.5" y="-135.5" font-family="Helvetica,sans-Serif" font-size="10.00">::tls::SocketConnection</text>
<text text-anchor="middle" x="374" y="-124.5" font-family="Helvetica,sans-Serif" font-size="10.00">::doSSLHandshake</text>
</a>
</g>
</g>
<!-- Node3&#45;&gt;Node4 -->
<g id="edge3" class="edge">
<title>Node3&#45;&gt;Node4</title>
<path fill="none" stroke="midnightblue" d="M475.64,-111.64C461.69,-115.29 447.11,-119.11 433.52,-122.67"/>
<polygon fill="midnightblue" stroke="midnightblue" points="476.87,-114.94 485.65,-109.02 475.09,-108.17 476.87,-114.94"/>
</g>
<!-- Node7 -->
<g id="node7" class="node">
<title>Node7</title>
<g id="a_node7"><a xlink:href="classnet_1_1stream_1_1_pipe_source.html#a4becdd0dff7d718d098238e4c6fa8ff4" target="_top" xlink:title=" ">
<polygon fill="white" stroke="black" points="313,-68 313,-98 435,-98 435,-68 313,-68"/>
<text text-anchor="start" x="321" y="-86" font-family="Helvetica,sans-Serif" font-size="10.00">net::stream::PipeSource</text>
<text text-anchor="middle" x="374" y="-75" font-family="Helvetica,sans-Serif" font-size="10.00">::send</text>
</a>
</g>
</g>
<!-- Node3&#45;&gt;Node7 -->
<g id="edge6" class="edge">
<title>Node3&#45;&gt;Node7</title>
<path fill="none" stroke="midnightblue" d="M460.67,-88.61C452.03,-88.04 443.37,-87.48 435.04,-86.93"/>
<polygon fill="midnightblue" stroke="midnightblue" points="460.57,-92.11 470.78,-89.27 461.03,-85.13 460.57,-92.11"/>
</g>
<!-- Node5 -->
<g id="node5" class="node">
<title>Node5</title>
<g id="a_node5"><a xlink:href="classnet_1_1socket_1_1stream_1_1tls_1_1_socket_connector.html#a2cd8b2f088efddcca08245fe3fa93633" target="_top" xlink:title=" ">
<polygon fill="white" stroke="black" points="158.5,-177.5 158.5,-218.5 273.5,-218.5 273.5,-177.5 158.5,-177.5"/>
<text text-anchor="start" x="166.5" y="-206.5" font-family="Helvetica,sans-Serif" font-size="10.00">net::socket::stream</text>
<text text-anchor="start" x="166.5" y="-195.5" font-family="Helvetica,sans-Serif" font-size="10.00">::tls::SocketConnector</text>
<text text-anchor="middle" x="216" y="-184.5" font-family="Helvetica,sans-Serif" font-size="10.00">::SocketConnector</text>
</a>
</g>
</g>
<!-- Node4&#45;&gt;Node5 -->
<g id="edge4" class="edge">
<title>Node4&#45;&gt;Node5</title>
<path fill="none" stroke="midnightblue" d="M309.92,-162.26C296.86,-167.29 283.21,-172.54 270.52,-177.42"/>
<polygon fill="midnightblue" stroke="midnightblue" points="311.24,-165.51 319.31,-158.65 308.72,-158.97 311.24,-165.51"/>
</g>
<!-- Node6 -->
<g id="node6" class="node">
<title>Node6</title>
<g id="a_node6"><a xlink:href="classnet_1_1socket_1_1stream_1_1tls_1_1_socket_listener.html#a93e99e375d17063a5220a7ddcd30cfb3" target="_top" xlink:title=" ">
<polygon fill="white" stroke="black" points="164,-117.5 164,-158.5 268,-158.5 268,-117.5 164,-117.5"/>
<text text-anchor="start" x="172" y="-146.5" font-family="Helvetica,sans-Serif" font-size="10.00">net::socket::stream</text>
<text text-anchor="start" x="172" y="-135.5" font-family="Helvetica,sans-Serif" font-size="10.00">::tls::SocketListener</text>
<text text-anchor="middle" x="216" y="-124.5" font-family="Helvetica,sans-Serif" font-size="10.00">::SocketListener</text>
</a>
</g>
</g>
<!-- Node4&#45;&gt;Node6 -->
<g id="edge5" class="edge">
<title>Node4&#45;&gt;Node6</title>
<path fill="none" stroke="midnightblue" d="M304.36,-138C292.2,-138 279.74,-138 268.17,-138"/>
<polygon fill="midnightblue" stroke="midnightblue" points="304.47,-141.5 314.47,-138 304.47,-134.5 304.47,-141.5"/>
</g>
<!-- Node8 -->
<g id="node8" class="node">
<title>Node8</title>
<g id="a_node8"><a xlink:href="classnet_1_1stream_1_1_pipe_source.html#a7ee7bd9951740fd33fa2333deb87cff0" target="_top" xlink:title=" ">
<polygon fill="white" stroke="black" points="155,-68 155,-98 277,-98 277,-68 155,-68"/>
<text text-anchor="start" x="163" y="-86" font-family="Helvetica,sans-Serif" font-size="10.00">net::stream::PipeSource</text>
<text text-anchor="middle" x="216" y="-75" font-family="Helvetica,sans-Serif" font-size="10.00">::send</text>
</a>
</g>
</g>
<!-- Node7&#45;&gt;Node8 -->
<g id="edge7" class="edge">
<title>Node7&#45;&gt;Node8</title>
<path fill="none" stroke="midnightblue" d="M302.46,-83C294.01,-83 285.44,-83 277.15,-83"/>
<polygon fill="midnightblue" stroke="midnightblue" points="302.69,-86.5 312.69,-83 302.69,-79.5 302.69,-86.5"/>
</g>
<!-- Node10 -->
<g id="node10" class="node">
<title>Node10</title>
<g id="a_node10"><a xlink:href="classnet_1_1_event_loop.html#a7465cce1b49c9ebbb1b2676643ca676d" target="_top" xlink:title=" ">
<polygon fill="white" stroke="black" points="320,-19.5 320,-38.5 428,-38.5 428,-19.5 320,-19.5"/>
<text text-anchor="middle" x="374" y="-26.5" font-family="Helvetica,sans-Serif" font-size="10.00">net::EventLoop::start</text>
</a>
</g>
</g>
<!-- Node9&#45;&gt;Node10 -->
<g id="edge9" class="edge">
<title>Node9&#45;&gt;Node10</title>
<path fill="none" stroke="midnightblue" d="M642.51,-41.09C575.55,-38.06 484.95,-33.97 428.25,-31.41"/>
<polygon fill="midnightblue" stroke="midnightblue" points="642.48,-44.59 652.62,-41.55 642.79,-37.6 642.48,-44.59"/>
</g>
<!-- Node13 -->
<g id="node13" class="node">
<title>Node13</title>
<g id="a_node13"><a xlink:href="classnet_1_1_event_loop.html#af391b0a968b89c98ae4c9c78449cd0d6" target="_top" xlink:title=" ">
<polygon fill="white" stroke="black" points="492,-0.5 492,-19.5 596,-19.5 596,-0.5 492,-0.5"/>
<text text-anchor="middle" x="544" y="-7.5" font-family="Helvetica,sans-Serif" font-size="10.00">net::EventLoop::tick</text>
</a>
</g>
</g>
<!-- Node9&#45;&gt;Node13 -->
<g id="edge12" class="edge">
<title>Node9&#45;&gt;Node13</title>
<path fill="none" stroke="midnightblue" d="M642.72,-28.59C626.4,-25.48 609.84,-22.33 595.11,-19.53"/>
<polygon fill="midnightblue" stroke="midnightblue" points="642.35,-32.08 652.83,-30.51 643.66,-25.2 642.35,-32.08"/>
</g>
<!-- Node11 -->
<g id="node11" class="node">
<title>Node11</title>
<g id="a_node11"><a xlink:href="classnet_1_1_s_node_c.html#ae564742b1a10574c836ae53b7634f4aa" target="_top" xlink:title=" ">
<polygon fill="white" stroke="black" points="166.5,-19.5 166.5,-38.5 265.5,-38.5 265.5,-19.5 166.5,-19.5"/>
<text text-anchor="middle" x="216" y="-26.5" font-family="Helvetica,sans-Serif" font-size="10.00">net::SNodeC::start</text>
</a>
</g>
</g>
<!-- Node10&#45;&gt;Node11 -->
<g id="edge10" class="edge">
<title>Node10&#45;&gt;Node11</title>
<path fill="none" stroke="midnightblue" d="M309.7,-29C294.98,-29 279.53,-29 265.56,-29"/>
<polygon fill="midnightblue" stroke="midnightblue" points="309.75,-32.5 319.75,-29 309.75,-25.5 309.75,-32.5"/>
</g>
<!-- Node12 -->
<g id="node12" class="node">
<title>Node12</title>
<g id="a_node12"><a xlink:href="classexpress_1_1_web_app.html#a85d9fab4fae0881f8484e07c58f3157a" target="_top" xlink:title=" ">
<polygon fill="white" stroke="black" points="0,-19.5 0,-38.5 119,-38.5 119,-19.5 0,-19.5"/>
<text text-anchor="middle" x="59.5" y="-26.5" font-family="Helvetica,sans-Serif" font-size="10.00">express::WebApp::start</text>
</a>
</g>
</g>
<!-- Node11&#45;&gt;Node12 -->
<g id="edge11" class="edge">
<title>Node11&#45;&gt;Node12</title>
<path fill="none" stroke="midnightblue" d="M156.1,-29C143.97,-29 131.2,-29 119.08,-29"/>
<polygon fill="midnightblue" stroke="midnightblue" points="156.12,-32.5 166.12,-29 156.12,-25.5 156.12,-32.5"/>
</g>
<!-- Node13&#45;&gt;Node10 -->
<g id="edge13" class="edge">
<title>Node13&#45;&gt;Node10</title>
<path fill="none" stroke="midnightblue" d="M481.54,-16.95C464,-18.94 445.03,-21.08 428.04,-23"/>
<polygon fill="midnightblue" stroke="midnightblue" points="482.14,-20.41 491.68,-15.8 481.35,-13.45 482.14,-20.41"/>
</g>
</g>
</svg>
