<?xml version="1.0" encoding="UTF-8" standalone="no"?>
<!DOCTYPE svg PUBLIC "-//W3C//DTD SVG 1.1//EN"
 "http://www.w3.org/Graphics/SVG/1.1/DTD/svg11.dtd">
<!-- Generated by graphviz version 2.43.0 (0)
 -->
<!-- Title: net::socket::ip::address::ipv4::InetAddress::InetAddress Pages: 1 -->
<svg width="327pt" height="116pt"
 viewBox="0.00 0.00 327.00 115.50" xmlns="http://www.w3.org/2000/svg" xmlns:xlink="http://www.w3.org/1999/xlink">
<g id="graph0" class="graph" transform="scale(1 1) rotate(0) translate(4 111.5)">
<title>net::socket::ip::address::ipv4::InetAddress::InetAddress</title>
<polygon fill="white" stroke="transparent" points="-4,4 -4,-111.5 323,-111.5 323,4 -4,4"/>
<!-- Node1 -->
<g id="node1" class="node">
<title>Node1</title>
<g id="a_node1"><a xlink:title=" ">
<polygon fill="#bfbfbf" stroke="black" points="0,-44.5 0,-74.5 158,-74.5 158,-44.5 0,-44.5"/>
<text text-anchor="start" x="8" y="-62.5" font-family="Helvetica,sans-Serif" font-size="10.00">net::socket::ip::address</text>
<text text-anchor="middle" x="79" y="-51.5" font-family="Helvetica,sans-Serif" font-size="10.00">::ipv4::InetAddress::InetAddress</text>
</a>
</g>
</g>
<!-- Node2 -->
<g id="node2" class="node">
<title>Node2</title>
<g id="a_node2"><a xlink:href="namespacenet_1_1system.html#a23a7628914457db800a7ac9af54a9a09" target="_top" xlink:title=" ">
<polygon fill="white" stroke="black" points="194,-88 194,-107 319,-107 319,-88 194,-88"/>
<text text-anchor="middle" x="256.5" y="-95" font-family="Helvetica,sans-Serif" font-size="10.00">net::system::freeaddrinfo</text>
</a>
</g>
</g>
<!-- Node1&#45;&gt;Node2 -->
<g id="edge1" class="edge">
<title>Node1&#45;&gt;Node2</title>
<path fill="none" stroke="midnightblue" d="M149.36,-74.52C166.74,-78.28 185.12,-82.26 201.62,-85.83"/>
<polygon fill="midnightblue" stroke="midnightblue" points="201.11,-89.3 211.62,-88 202.59,-82.46 201.11,-89.3"/>
</g>
<!-- Node3 -->
<g id="node3" class="node">
<title>Node3</title>
<g id="a_node3"><a xlink:href="namespacenet_1_1system.html#acfcf4c47faf4c22605d4d22401483e2d" target="_top" xlink:title=" ">
<polygon fill="white" stroke="black" points="195.5,-50 195.5,-69 317.5,-69 317.5,-50 195.5,-50"/>
<text text-anchor="middle" x="256.5" y="-57" font-family="Helvetica,sans-Serif" font-size="10.00">net::system::getaddrinfo</text>
</a>
</g>
</g>
<!-- Node1&#45;&gt;Node3 -->
<g id="edge2" class="edge">
<title>Node1&#45;&gt;Node3</title>
<path fill="none" stroke="midnightblue" d="M158.25,-59.5C167.19,-59.5 176.26,-59.5 185.08,-59.5"/>
<polygon fill="midnightblue" stroke="midnightblue" points="185.31,-63 195.31,-59.5 185.31,-56 185.31,-63"/>
</g>
<!-- Node4 -->
<g id="node4" class="node">
<title>Node4</title>
<g id="a_node4"><a xlink:href="classnet_1_1socket_1_1ip_1_1address_1_1ipv4_1_1_inet_address.html#ac9fd52422769a88bbb2d9e3241f1776d" target="_top" xlink:title=" ">
<polygon fill="white" stroke="black" points="195.5,-0.5 195.5,-30.5 317.5,-30.5 317.5,-0.5 195.5,-0.5"/>
<text text-anchor="start" x="203.5" y="-18.5" font-family="Helvetica,sans-Serif" font-size="10.00">net::socket::ip::address</text>
<text text-anchor="middle" x="256.5" y="-7.5" font-family="Helvetica,sans-Serif" font-size="10.00">::ipv4::InetAddress::port</text>
</a>
</g>
</g>
<!-- Node1&#45;&gt;Node4 -->
<g id="edge3" class="edge">
<title>Node1&#45;&gt;Node4</title>
<path fill="none" stroke="midnightblue" d="M139.91,-44.48C154.65,-40.78 170.56,-36.79 185.73,-32.99"/>
<polygon fill="midnightblue" stroke="midnightblue" points="186.72,-36.35 195.57,-30.53 185.01,-29.56 186.72,-36.35"/>
</g>
</g>
</svg>
