<?xml version="1.0" encoding="UTF-8" standalone="no"?>
<!DOCTYPE svg PUBLIC "-//W3C//DTD SVG 1.1//EN"
 "http://www.w3.org/Graphics/SVG/1.1/DTD/svg11.dtd">
<!-- Generated by graphviz version 2.43.0 (0)
 -->
<!-- Title: net::socket::stream::legacy::SocketWriter&lt; SocketT &gt; Pages: 1 -->
<svg width="333pt" height="1338pt"
 viewBox="0.00 0.00 332.50 1338.00" xmlns="http://www.w3.org/2000/svg" xmlns:xlink="http://www.w3.org/1999/xlink">
<g id="graph0" class="graph" transform="scale(1 1) rotate(0) translate(4 1334)">
<title>net::socket::stream::legacy::SocketWriter&lt; SocketT &gt;</title>
<polygon fill="white" stroke="transparent" points="-4,4 -4,-1334 328.5,-1334 328.5,4 -4,4"/>
<!-- Node1 -->
<g id="node1" class="node">
<title>Node1</title>
<g id="a_node1"><a xlink:title=" ">
<polygon fill="#bfbfbf" stroke="black" points="74,-0.5 74,-90.5 187,-90.5 187,-0.5 74,-0.5"/>
<text text-anchor="start" x="82" y="-78.5" font-family="Helvetica,sans-Serif" font-size="10.00">net::socket::stream</text>
<text text-anchor="start" x="82" y="-67.5" font-family="Helvetica,sans-Serif" font-size="10.00">::legacy::SocketWriter</text>
<text text-anchor="middle" x="130.5" y="-56.5" font-family="Helvetica,sans-Serif" font-size="10.00">&lt; SocketT &gt;</text>
<polyline fill="none" stroke="black" points="74,-49.5 187,-49.5 "/>
<text text-anchor="middle" x="130.5" y="-37.5" font-family="Helvetica,sans-Serif" font-size="10.00"> </text>
<polyline fill="none" stroke="black" points="74,-30.5 187,-30.5 "/>
<text text-anchor="start" x="82" y="-18.5" font-family="Helvetica,sans-Serif" font-size="10.00">&#45; write()</text>
<text text-anchor="start" x="82" y="-7.5" font-family="Helvetica,sans-Serif" font-size="10.00">&#45; getError()</text>
</a>
</g>
</g>
<!-- Node2 -->
<g id="node2" class="node">
<title>Node2</title>
<g id="a_node2"><a xlink:href="classnet_1_1socket_1_1stream_1_1_socket_writer.html" target="_top" xlink:title=" ">
<polygon fill="white" stroke="black" points="63.5,-128.5 63.5,-284.5 197.5,-284.5 197.5,-128.5 63.5,-128.5"/>
<text text-anchor="start" x="71.5" y="-272.5" font-family="Helvetica,sans-Serif" font-size="10.00">net::socket::stream</text>
<text text-anchor="middle" x="130.5" y="-261.5" font-family="Helvetica,sans-Serif" font-size="10.00">::SocketWriter&lt; SocketT &gt;</text>
<polyline fill="none" stroke="black" points="63.5,-254.5 197.5,-254.5 "/>
<text text-anchor="start" x="71.5" y="-242.5" font-family="Helvetica,sans-Serif" font-size="10.00">&#45; onError</text>
<text text-anchor="start" x="71.5" y="-231.5" font-family="Helvetica,sans-Serif" font-size="10.00">&#45; writeBuffer</text>
<text text-anchor="start" x="71.5" y="-220.5" font-family="Helvetica,sans-Serif" font-size="10.00">&#45; markShutdown</text>
<polyline fill="none" stroke="black" points="63.5,-213.5 197.5,-213.5 "/>
<text text-anchor="start" x="71.5" y="-201.5" font-family="Helvetica,sans-Serif" font-size="10.00"># SocketWriter()</text>
<text text-anchor="start" x="71.5" y="-190.5" font-family="Helvetica,sans-Serif" font-size="10.00"># SocketWriter()</text>
<text text-anchor="start" x="71.5" y="-179.5" font-family="Helvetica,sans-Serif" font-size="10.00"># enqueue()</text>
<text text-anchor="start" x="71.5" y="-168.5" font-family="Helvetica,sans-Serif" font-size="10.00"># shutdown()</text>
<text text-anchor="start" x="71.5" y="-157.5" font-family="Helvetica,sans-Serif" font-size="10.00">&#45; write()</text>
<text text-anchor="start" x="71.5" y="-146.5" font-family="Helvetica,sans-Serif" font-size="10.00">&#45; writeEvent()</text>
<text text-anchor="start" x="71.5" y="-135.5" font-family="Helvetica,sans-Serif" font-size="10.00">&#45; getError()</text>
</a>
</g>
</g>
<!-- Node2&#45;&gt;Node1 -->
<g id="edge1" class="edge">
<title>Node2&#45;&gt;Node1</title>
<path fill="none" stroke="midnightblue" d="M130.5,-118.3C130.5,-108.71 130.5,-99.26 130.5,-90.54"/>
<polygon fill="none" stroke="midnightblue" points="127,-118.33 130.5,-128.33 134,-118.33 127,-118.33"/>
</g>
<!-- Node3 -->
<g id="node3" class="node">
<title>Node3</title>
<g id="a_node3"><a xlink:href="classnet_1_1_write_event_receiver.html" target="_top" xlink:title=" ">
<polygon fill="white" stroke="black" points="16,-322.5 16,-401.5 139,-401.5 139,-322.5 16,-322.5"/>
<text text-anchor="middle" x="77.5" y="-389.5" font-family="Helvetica,sans-Serif" font-size="10.00">net::WriteEventReceiver</text>
<polyline fill="none" stroke="black" points="16,-382.5 139,-382.5 "/>
<text text-anchor="middle" x="77.5" y="-370.5" font-family="Helvetica,sans-Serif" font-size="10.00"> </text>
<polyline fill="none" stroke="black" points="16,-363.5 139,-363.5 "/>
<text text-anchor="start" x="24" y="-351.5" font-family="Helvetica,sans-Serif" font-size="10.00"># WriteEventReceiver()</text>
<text text-anchor="start" x="24" y="-340.5" font-family="Helvetica,sans-Serif" font-size="10.00"># writeEvent()</text>
<text text-anchor="start" x="24" y="-329.5" font-family="Helvetica,sans-Serif" font-size="10.00">&#45; dispatchEvent()</text>
</a>
</g>
</g>
<!-- Node3&#45;&gt;Node2 -->
<g id="edge2" class="edge">
<title>Node3&#45;&gt;Node2</title>
<path fill="none" stroke="midnightblue" d="M94.15,-312.77C97.26,-303.77 100.58,-294.16 103.9,-284.55"/>
<polygon fill="none" stroke="midnightblue" points="90.83,-311.67 90.87,-322.27 97.45,-313.96 90.83,-311.67"/>
</g>
<!-- Node4 -->
<g id="node4" class="node">
<title>Node4</title>
<g id="a_node4"><a xlink:href="classnet_1_1_descriptor_event_receiver.html" target="_top" xlink:title=" ">
<polygon fill="white" stroke="black" points="4.5,-439.5 4.5,-760.5 150.5,-760.5 150.5,-439.5 4.5,-439.5"/>
<text text-anchor="middle" x="77.5" y="-748.5" font-family="Helvetica,sans-Serif" font-size="10.00">net::DescriptorEventReceiver</text>
<polyline fill="none" stroke="black" points="4.5,-741.5 150.5,-741.5 "/>
<text text-anchor="start" x="12.5" y="-729.5" font-family="Helvetica,sans-Serif" font-size="10.00">&#45; fd</text>
<text text-anchor="start" x="12.5" y="-718.5" font-family="Helvetica,sans-Serif" font-size="10.00">&#45; _enabled</text>
<text text-anchor="start" x="12.5" y="-707.5" font-family="Helvetica,sans-Serif" font-size="10.00">&#45; _suspended</text>
<text text-anchor="start" x="12.5" y="-696.5" font-family="Helvetica,sans-Serif" font-size="10.00">&#45; maxInactivity</text>
<text text-anchor="start" x="12.5" y="-685.5" font-family="Helvetica,sans-Serif" font-size="10.00">&#45; initialTimeout</text>
<polyline fill="none" stroke="black" points="4.5,-678.5 150.5,-678.5 "/>
<text text-anchor="start" x="12.5" y="-666.5" font-family="Helvetica,sans-Serif" font-size="10.00">+ DescriptorEventReceiver()</text>
<text text-anchor="start" x="12.5" y="-655.5" font-family="Helvetica,sans-Serif" font-size="10.00">+ operator=()</text>
<text text-anchor="start" x="12.5" y="-644.5" font-family="Helvetica,sans-Serif" font-size="10.00">+ enable()</text>
<text text-anchor="start" x="12.5" y="-633.5" font-family="Helvetica,sans-Serif" font-size="10.00">+ disable()</text>
<text text-anchor="start" x="12.5" y="-622.5" font-family="Helvetica,sans-Serif" font-size="10.00">+ suspend()</text>
<text text-anchor="start" x="12.5" y="-611.5" font-family="Helvetica,sans-Serif" font-size="10.00">+ resume()</text>
<text text-anchor="start" x="12.5" y="-600.5" font-family="Helvetica,sans-Serif" font-size="10.00"># DescriptorEventReceiver()</text>
<text text-anchor="start" x="12.5" y="-589.5" font-family="Helvetica,sans-Serif" font-size="10.00"># ~DescriptorEventReceiver()</text>
<text text-anchor="start" x="12.5" y="-578.5" font-family="Helvetica,sans-Serif" font-size="10.00"># setTimeout()</text>
<text text-anchor="start" x="12.5" y="-567.5" font-family="Helvetica,sans-Serif" font-size="10.00"># isEnabled()</text>
<text text-anchor="start" x="12.5" y="-556.5" font-family="Helvetica,sans-Serif" font-size="10.00"># isSuspended()</text>
<text text-anchor="start" x="12.5" y="-545.5" font-family="Helvetica,sans-Serif" font-size="10.00">&#45; dispatchEvent()</text>
<text text-anchor="start" x="12.5" y="-534.5" font-family="Helvetica,sans-Serif" font-size="10.00">&#45; timeoutEvent()</text>
<text text-anchor="start" x="12.5" y="-523.5" font-family="Helvetica,sans-Serif" font-size="10.00">&#45; enabled()</text>
<text text-anchor="start" x="12.5" y="-512.5" font-family="Helvetica,sans-Serif" font-size="10.00">&#45; disabled()</text>
<text text-anchor="start" x="12.5" y="-501.5" font-family="Helvetica,sans-Serif" font-size="10.00">&#45; suspended()</text>
<text text-anchor="start" x="12.5" y="-490.5" font-family="Helvetica,sans-Serif" font-size="10.00">&#45; resumed()</text>
<text text-anchor="start" x="12.5" y="-479.5" font-family="Helvetica,sans-Serif" font-size="10.00">&#45; getTimeout()</text>
<text text-anchor="start" x="12.5" y="-468.5" font-family="Helvetica,sans-Serif" font-size="10.00">&#45; getLastTriggered()</text>
<text text-anchor="start" x="12.5" y="-457.5" font-family="Helvetica,sans-Serif" font-size="10.00">&#45; triggered()</text>
<text text-anchor="start" x="12.5" y="-446.5" font-family="Helvetica,sans-Serif" font-size="10.00">&#45; unobserved()</text>
</a>
</g>
</g>
<!-- Node4&#45;&gt;Node3 -->
<g id="edge3" class="edge">
<title>Node4&#45;&gt;Node3</title>
<path fill="none" stroke="midnightblue" d="M77.5,-429.2C77.5,-419.29 77.5,-409.99 77.5,-401.67"/>
<polygon fill="none" stroke="midnightblue" points="74,-429.3 77.5,-439.3 81,-429.3 74,-429.3"/>
</g>
<!-- Node5 -->
<g id="node5" class="node">
<title>Node5</title>
<g id="a_node5"><a xlink:href="classnet_1_1_observation_counter.html" target="_top" xlink:title=" ">
<polygon fill="white" stroke="black" points="0,-891 0,-959 123,-959 123,-891 0,-891"/>
<text text-anchor="middle" x="61.5" y="-947" font-family="Helvetica,sans-Serif" font-size="10.00">net::ObservationCounter</text>
<polyline fill="none" stroke="black" points="0,-940 123,-940 "/>
<text text-anchor="start" x="8" y="-928" font-family="Helvetica,sans-Serif" font-size="10.00"># observationCounter</text>
<text text-anchor="start" x="8" y="-917" font-family="Helvetica,sans-Serif" font-size="10.00"># lastTriggered</text>
<polyline fill="none" stroke="black" points="0,-910 123,-910 "/>
<text text-anchor="start" x="8" y="-898" font-family="Helvetica,sans-Serif" font-size="10.00">+ isObserved()</text>
</a>
</g>
</g>
<!-- Node5&#45;&gt;Node4 -->
<g id="edge4" class="edge">
<title>Node5&#45;&gt;Node4</title>
<path fill="none" stroke="midnightblue" d="M63.64,-880.86C65.19,-849.54 67.39,-805.06 69.59,-760.76"/>
<polygon fill="none" stroke="midnightblue" points="60.14,-880.79 63.14,-890.95 67.13,-881.14 60.14,-880.79"/>
</g>
<!-- Node6 -->
<g id="node6" class="node">
<title>Node6</title>
<g id="a_node6"><a xlink:href="classnet_1_1_descriptor_event_dispatcher.html" target="_top" xlink:title=" ">
<polygon fill="white" stroke="black" points="141.5,-808.5 141.5,-1041.5 295.5,-1041.5 295.5,-808.5 141.5,-808.5"/>
<text text-anchor="middle" x="218.5" y="-1029.5" font-family="Helvetica,sans-Serif" font-size="10.00">net::DescriptorEventDispatcher</text>
<polyline fill="none" stroke="black" points="141.5,-1022.5 295.5,-1022.5 "/>
<text text-anchor="start" x="149.5" y="-1010.5" font-family="Helvetica,sans-Serif" font-size="10.00">&#45; enabledEventReceiver</text>
<text text-anchor="start" x="149.5" y="-999.5" font-family="Helvetica,sans-Serif" font-size="10.00">&#45; observedEventReceiver</text>
<text text-anchor="start" x="149.5" y="-988.5" font-family="Helvetica,sans-Serif" font-size="10.00">&#45; disabledEventReceiver</text>
<text text-anchor="start" x="149.5" y="-977.5" font-family="Helvetica,sans-Serif" font-size="10.00">&#45; eventCounter</text>
<polyline fill="none" stroke="black" points="141.5,-970.5 295.5,-970.5 "/>
<text text-anchor="start" x="149.5" y="-958.5" font-family="Helvetica,sans-Serif" font-size="10.00">+ DescriptorEventDispatcher()</text>
<text text-anchor="start" x="149.5" y="-947.5" font-family="Helvetica,sans-Serif" font-size="10.00">+ DescriptorEventDispatcher()</text>
<text text-anchor="start" x="149.5" y="-936.5" font-family="Helvetica,sans-Serif" font-size="10.00">+ operator=()</text>
<text text-anchor="start" x="149.5" y="-925.5" font-family="Helvetica,sans-Serif" font-size="10.00">+ enable()</text>
<text text-anchor="start" x="149.5" y="-914.5" font-family="Helvetica,sans-Serif" font-size="10.00">+ disable()</text>
<text text-anchor="start" x="149.5" y="-903.5" font-family="Helvetica,sans-Serif" font-size="10.00">+ suspend()</text>
<text text-anchor="start" x="149.5" y="-892.5" font-family="Helvetica,sans-Serif" font-size="10.00">+ resume()</text>
<text text-anchor="start" x="149.5" y="-881.5" font-family="Helvetica,sans-Serif" font-size="10.00">+ getEventCounter()</text>
<text text-anchor="start" x="149.5" y="-870.5" font-family="Helvetica,sans-Serif" font-size="10.00">&#45; getMaxFd()</text>
<text text-anchor="start" x="149.5" y="-859.5" font-family="Helvetica,sans-Serif" font-size="10.00">&#45; dispatchActiveEvents()</text>
<text text-anchor="start" x="149.5" y="-848.5" font-family="Helvetica,sans-Serif" font-size="10.00">&#45; observeEnabledEvents()</text>
<text text-anchor="start" x="149.5" y="-837.5" font-family="Helvetica,sans-Serif" font-size="10.00">&#45; unobserveDisabledEvents()</text>
<text text-anchor="start" x="149.5" y="-826.5" font-family="Helvetica,sans-Serif" font-size="10.00">&#45; releaseUnobservedEvents()</text>
<text text-anchor="start" x="149.5" y="-815.5" font-family="Helvetica,sans-Serif" font-size="10.00">&#45; disableObservedEvents()</text>
</a>
</g>
</g>
<!-- Node6&#45;&gt;Node4 -->
<g id="edge5" class="edge">
<title>Node6&#45;&gt;Node4</title>
<path fill="none" stroke="#404040" d="M167.99,-808.3C162.82,-796.45 157.49,-784.24 152.13,-771.96"/>
<polygon fill="none" stroke="#404040" points="152,-771.67 145.94,-767.77 147.2,-760.67 153.27,-764.57 152,-771.67"/>
<text text-anchor="middle" x="217.5" y="-782" font-family="Helvetica,sans-Serif" font-size="10.00"> &#45;descriptorEventDispatcher</text>
</g>
<!-- Node7 -->
<g id="node7" class="node">
<title>Node7</title>
<g id="a_node7"><a xlink:href="classnet_1_1_descriptor_event_dispatcher_1_1_descriptor_event_receiver_list.html" target="_top" xlink:title=" ">
<polygon fill="white" stroke="black" points="69.5,-1122.5 69.5,-1190.5 223.5,-1190.5 223.5,-1122.5 69.5,-1122.5"/>
<text text-anchor="start" x="77.5" y="-1178.5" font-family="Helvetica,sans-Serif" font-size="10.00">net::DescriptorEventDispatcher</text>
<text text-anchor="middle" x="146.5" y="-1167.5" font-family="Helvetica,sans-Serif" font-size="10.00">::DescriptorEventReceiverList</text>
<polyline fill="none" stroke="black" points="69.5,-1160.5 223.5,-1160.5 "/>
<text text-anchor="middle" x="146.5" y="-1148.5" font-family="Helvetica,sans-Serif" font-size="10.00"> </text>
<polyline fill="none" stroke="black" points="69.5,-1141.5 223.5,-1141.5 "/>
<text text-anchor="start" x="77.5" y="-1129.5" font-family="Helvetica,sans-Serif" font-size="10.00">+ contains()</text>
</a>
</g>
</g>
<!-- Node7&#45;&gt;Node6 -->
<g id="edge6" class="edge">
<title>Node7&#45;&gt;Node6</title>
<path fill="none" stroke="#404040" d="M143.03,-1122.3C142.03,-1103.7 142.35,-1080.25 147.5,-1060 148.08,-1057.7 148.71,-1055.4 149.39,-1053.1"/>
<polygon fill="none" stroke="#404040" points="149.41,-1053.02 147.44,-1046.08 153.09,-1041.6 155.06,-1048.54 149.41,-1053.02"/>
<text text-anchor="middle" x="208" y="-1063" font-family="Helvetica,sans-Serif" font-size="10.00"> &#45;unobservedEventReceiver</text>
</g>
<!-- Node8 -->
<g id="node8" class="node">
<title>Node8</title>
<g id="a_node8"><a xlink:title=" ">
<polygon fill="white" stroke="#bfbfbf" points="82.5,-1261.5 82.5,-1329.5 210.5,-1329.5 210.5,-1261.5 82.5,-1261.5"/>
<text text-anchor="start" x="90.5" y="-1317.5" font-family="Helvetica,sans-Serif" font-size="10.00">std::list&lt; DescriptorEvent</text>
<text text-anchor="middle" x="146.5" y="-1306.5" font-family="Helvetica,sans-Serif" font-size="10.00">Receiver * &gt;</text>
<polyline fill="none" stroke="#bfbfbf" points="82.5,-1299.5 210.5,-1299.5 "/>
<text text-anchor="middle" x="146.5" y="-1287.5" font-family="Helvetica,sans-Serif" font-size="10.00"> </text>
<polyline fill="none" stroke="#bfbfbf" points="82.5,-1280.5 210.5,-1280.5 "/>
<text text-anchor="middle" x="146.5" y="-1268.5" font-family="Helvetica,sans-Serif" font-size="10.00"> </text>
</a>
</g>
</g>
<!-- Node8&#45;&gt;Node7 -->
<g id="edge7" class="edge">
<title>Node8&#45;&gt;Node7</title>
<path fill="none" stroke="midnightblue" d="M146.5,-1251.17C146.5,-1231.66 146.5,-1208.99 146.5,-1190.83"/>
<polygon fill="none" stroke="midnightblue" points="143,-1251.34 146.5,-1261.34 150,-1251.34 143,-1251.34"/>
</g>
<!-- Node9 -->
<g id="node9" class="node">
<title>Node9</title>
<g id="a_node9"><a xlink:href="classnet_1_1_fd_set.html" target="_top" xlink:title=" ">
<polygon fill="white" stroke="black" points="256.5,-1089.5 256.5,-1223.5 324.5,-1223.5 324.5,-1089.5 256.5,-1089.5"/>
<text text-anchor="middle" x="290.5" y="-1211.5" font-family="Helvetica,sans-Serif" font-size="10.00">net::FdSet</text>
<polyline fill="none" stroke="black" points="256.5,-1204.5 324.5,-1204.5 "/>
<text text-anchor="start" x="264.5" y="-1192.5" font-family="Helvetica,sans-Serif" font-size="10.00"># registered</text>
<text text-anchor="start" x="264.5" y="-1181.5" font-family="Helvetica,sans-Serif" font-size="10.00"># active</text>
<polyline fill="none" stroke="black" points="256.5,-1174.5 324.5,-1174.5 "/>
<text text-anchor="start" x="264.5" y="-1162.5" font-family="Helvetica,sans-Serif" font-size="10.00">+ FdSet()</text>
<text text-anchor="start" x="264.5" y="-1151.5" font-family="Helvetica,sans-Serif" font-size="10.00">+ set()</text>
<text text-anchor="start" x="264.5" y="-1140.5" font-family="Helvetica,sans-Serif" font-size="10.00">+ clr()</text>
<text text-anchor="start" x="264.5" y="-1129.5" font-family="Helvetica,sans-Serif" font-size="10.00">+ isSet()</text>
<text text-anchor="start" x="264.5" y="-1118.5" font-family="Helvetica,sans-Serif" font-size="10.00">+ zero()</text>
<text text-anchor="start" x="264.5" y="-1107.5" font-family="Helvetica,sans-Serif" font-size="10.00">+ prepare()</text>
<text text-anchor="start" x="264.5" y="-1096.5" font-family="Helvetica,sans-Serif" font-size="10.00">+ get()</text>
</a>
</g>
</g>
<!-- Node9&#45;&gt;Node6 -->
<g id="edge8" class="edge">
<title>Node9&#45;&gt;Node6</title>
<path fill="none" stroke="#404040" d="M276.47,-1089.45C274.02,-1079.52 271.34,-1069.45 268.5,-1060 267.82,-1057.73 267.12,-1055.43 266.4,-1053.13"/>
<polygon fill="none" stroke="#404040" points="266.34,-1052.96 260.7,-1048.46 262.68,-1041.53 268.32,-1046.02 266.34,-1052.96"/>
<text text-anchor="middle" x="285.5" y="-1063" font-family="Helvetica,sans-Serif" font-size="10.00"> &#45;fdSet</text>
</g>
<!-- Node10 -->
<g id="node10" class="node">
<title>Node10</title>
<g id="a_node10"><a xlink:title=" ">
<polygon fill="white" stroke="#bfbfbf" points="157,-333.5 157,-390.5 210,-390.5 210,-333.5 157,-333.5"/>
<text text-anchor="middle" x="183.5" y="-378.5" font-family="Helvetica,sans-Serif" font-size="10.00">SocketT</text>
<polyline fill="none" stroke="#bfbfbf" points="157,-371.5 210,-371.5 "/>
<text text-anchor="middle" x="183.5" y="-359.5" font-family="Helvetica,sans-Serif" font-size="10.00"> </text>
<polyline fill="none" stroke="#bfbfbf" points="157,-352.5 210,-352.5 "/>
<text text-anchor="middle" x="183.5" y="-340.5" font-family="Helvetica,sans-Serif" font-size="10.00"> </text>
</a>
</g>
</g>
<!-- Node10&#45;&gt;Node2 -->
<g id="edge9" class="edge">
<title>Node10&#45;&gt;Node2</title>
<path fill="none" stroke="midnightblue" d="M170.62,-323.71C166.54,-311.88 161.86,-298.34 157.18,-284.77"/>
<polygon fill="none" stroke="midnightblue" points="167.33,-324.89 173.9,-333.2 173.95,-322.61 167.33,-324.89"/>
</g>
</g>
</svg>
