<?xml version="1.0" encoding="UTF-8" standalone="no"?>
<!DOCTYPE svg PUBLIC "-//W3C//DTD SVG 1.1//EN"
 "http://www.w3.org/Graphics/SVG/1.1/DTD/svg11.dtd">
<!-- Generated by graphviz version 2.43.0 (0)
 -->
<!-- Title: net::Descriptor::getFd Pages: 1 -->
<svg width="529pt" height="746pt"
 viewBox="0.00 0.00 529.00 745.50" xmlns="http://www.w3.org/2000/svg" xmlns:xlink="http://www.w3.org/1999/xlink">
<g id="graph0" class="graph" transform="scale(1 1) rotate(0) translate(4 741.5)">
<title>net::Descriptor::getFd</title>
<polygon fill="white" stroke="transparent" points="-4,4 -4,-741.5 525,-741.5 525,4 -4,4"/>
<!-- Node1 -->
<g id="node1" class="node">
<title>Node1</title>
<g id="a_node1"><a xlink:title=" ">
<polygon fill="#bfbfbf" stroke="black" points="409,-337.5 409,-356.5 521,-356.5 521,-337.5 409,-337.5"/>
<text text-anchor="middle" x="465" y="-344.5" font-family="Helvetica,sans-Serif" font-size="10.00">net::Descriptor::getFd</text>
</a>
</g>
</g>
<!-- Node2 -->
<g id="node2" class="node">
<title>Node2</title>
<g id="a_node2"><a xlink:href="classnet_1_1socket_1_1stream_1_1_socket_listener.html#a3b30d5f8724c141508ce914c25a9ae7f" target="_top" xlink:title=" ">
<polygon fill="white" stroke="black" points="229.5,-685 229.5,-737 370.5,-737 370.5,-685 229.5,-685"/>
<text text-anchor="start" x="237.5" y="-725" font-family="Helvetica,sans-Serif" font-size="10.00">net::socket::stream</text>
<text text-anchor="start" x="237.5" y="-714" font-family="Helvetica,sans-Serif" font-size="10.00">::SocketListener&lt; stream</text>
<text text-anchor="start" x="237.5" y="-703" font-family="Helvetica,sans-Serif" font-size="10.00">::tls::SocketConnection</text>
<text text-anchor="middle" x="300" y="-692" font-family="Helvetica,sans-Serif" font-size="10.00">&lt; SocketT &gt; &gt;::acceptEvent</text>
</a>
</g>
</g>
<!-- Node1&#45;&gt;Node2 -->
<g id="edge1" class="edge">
<title>Node1&#45;&gt;Node2</title>
<path fill="none" stroke="midnightblue" d="M463.86,-366.74C462.45,-421.89 451.38,-579.81 373,-675 370.07,-678.56 366.7,-681.8 363.05,-684.74"/>
<polygon fill="midnightblue" stroke="midnightblue" points="467.36,-366.65 464.03,-356.59 460.36,-366.53 467.36,-366.65"/>
</g>
<!-- Node3 -->
<g id="node3" class="node">
<title>Node3</title>
<g id="a_node3"><a xlink:href="classnet_1_1socket_1_1_socket.html#a1ce7ef4ad82e2035af1c9f9d752112b8" target="_top" xlink:title=" ">
<polygon fill="white" stroke="black" points="228.5,-624.5 228.5,-665.5 371.5,-665.5 371.5,-624.5 228.5,-624.5"/>
<text text-anchor="start" x="236.5" y="-653.5" font-family="Helvetica,sans-Serif" font-size="10.00">net::socket::Socket</text>
<text text-anchor="start" x="236.5" y="-642.5" font-family="Helvetica,sans-Serif" font-size="10.00">&lt; address::ipv4::InetAddress</text>
<text text-anchor="middle" x="300" y="-631.5" font-family="Helvetica,sans-Serif" font-size="10.00"> &gt;::bind</text>
</a>
</g>
</g>
<!-- Node1&#45;&gt;Node3 -->
<g id="edge2" class="edge">
<title>Node1&#45;&gt;Node3</title>
<path fill="none" stroke="midnightblue" d="M462.71,-366.85C458.54,-415.48 441.34,-541.89 373,-615 369.76,-618.46 366.07,-621.54 362.09,-624.27"/>
<polygon fill="midnightblue" stroke="midnightblue" points="466.22,-366.96 463.49,-356.72 459.24,-366.43 466.22,-366.96"/>
</g>
<!-- Node4 -->
<g id="node4" class="node">
<title>Node4</title>
<g id="a_node4"><a xlink:href="classnet_1_1socket_1_1stream_1_1_socket_connector.html#a6cb91480693e980d5e43b44d56b4fa3e" target="_top" xlink:title=" ">
<polygon fill="white" stroke="black" points="231.5,-553 231.5,-605 368.5,-605 368.5,-553 231.5,-553"/>
<text text-anchor="start" x="239.5" y="-593" font-family="Helvetica,sans-Serif" font-size="10.00">net::socket::stream</text>
<text text-anchor="start" x="239.5" y="-582" font-family="Helvetica,sans-Serif" font-size="10.00">::SocketConnector&lt; stream</text>
<text text-anchor="start" x="239.5" y="-571" font-family="Helvetica,sans-Serif" font-size="10.00">::tls::SocketConnection</text>
<text text-anchor="middle" x="300" y="-560" font-family="Helvetica,sans-Serif" font-size="10.00">&lt; SocketT &gt; &gt;::connect</text>
</a>
</g>
</g>
<!-- Node1&#45;&gt;Node4 -->
<g id="edge3" class="edge">
<title>Node1&#45;&gt;Node4</title>
<path fill="none" stroke="midnightblue" d="M459.69,-366.42C450.25,-404.9 424.37,-491.6 373,-544 369.89,-547.18 366.43,-550.1 362.75,-552.8"/>
<polygon fill="midnightblue" stroke="midnightblue" points="463.14,-367.05 462.01,-356.52 456.32,-365.46 463.14,-367.05"/>
</g>
<!-- Node5 -->
<g id="node5" class="node">
<title>Node5</title>
<g id="a_node5"><a xlink:href="classnet_1_1socket_1_1stream_1_1_socket_connector.html#acb928c04763dadc6adcb9c7d711d0348" target="_top" xlink:title=" ">
<polygon fill="white" stroke="black" points="227,-482 227,-534 373,-534 373,-482 227,-482"/>
<text text-anchor="start" x="235" y="-522" font-family="Helvetica,sans-Serif" font-size="10.00">net::socket::stream</text>
<text text-anchor="start" x="235" y="-511" font-family="Helvetica,sans-Serif" font-size="10.00">::SocketConnector&lt; stream</text>
<text text-anchor="start" x="235" y="-500" font-family="Helvetica,sans-Serif" font-size="10.00">::tls::SocketConnection</text>
<text text-anchor="middle" x="300" y="-489" font-family="Helvetica,sans-Serif" font-size="10.00">&lt; SocketT &gt; &gt;::connectEvent</text>
</a>
</g>
</g>
<!-- Node1&#45;&gt;Node5 -->
<g id="edge4" class="edge">
<title>Node1&#45;&gt;Node5</title>
<path fill="none" stroke="midnightblue" d="M454.32,-365.85C439.77,-392.64 410,-441.9 373,-473 369.28,-476.13 365.22,-479.06 361,-481.78"/>
<polygon fill="midnightblue" stroke="midnightblue" points="457.54,-367.25 459.13,-356.77 451.36,-363.97 457.54,-367.25"/>
</g>
<!-- Node6 -->
<g id="node6" class="node">
<title>Node6</title>
<g id="a_node6"><a xlink:href="classnet_1_1socket_1_1stream_1_1_socket_listener.html#a1f2d699a1d63343e7f2ef2cdd434da00" target="_top" xlink:title=" ">
<polygon fill="white" stroke="black" points="236.5,-411 236.5,-463 363.5,-463 363.5,-411 236.5,-411"/>
<text text-anchor="start" x="244.5" y="-451" font-family="Helvetica,sans-Serif" font-size="10.00">net::socket::stream</text>
<text text-anchor="start" x="244.5" y="-440" font-family="Helvetica,sans-Serif" font-size="10.00">::SocketListener&lt; stream</text>
<text text-anchor="start" x="244.5" y="-429" font-family="Helvetica,sans-Serif" font-size="10.00">::tls::SocketConnection</text>
<text text-anchor="middle" x="300" y="-418" font-family="Helvetica,sans-Serif" font-size="10.00">&lt; SocketT &gt; &gt;::end</text>
</a>
</g>
</g>
<!-- Node1&#45;&gt;Node6 -->
<g id="edge5" class="edge">
<title>Node1&#45;&gt;Node6</title>
<path fill="none" stroke="midnightblue" d="M440.36,-362.1C422.2,-373.5 396.34,-389.31 373,-402 367.51,-404.99 361.72,-408.01 355.91,-410.95"/>
<polygon fill="midnightblue" stroke="midnightblue" points="442.52,-364.87 449.11,-356.58 438.79,-358.96 442.52,-364.87"/>
</g>
<!-- Node7 -->
<g id="node7" class="node">
<title>Node7</title>
<g id="a_node7"><a xlink:href="classnet_1_1socket_1_1stream_1_1_socket_writer.html#aa7bdaa904aa90968afb56bbb4f671a6d" target="_top" xlink:title=" ">
<polygon fill="white" stroke="black" points="239,-362 239,-392 361,-392 361,-362 239,-362"/>
<text text-anchor="start" x="247" y="-380" font-family="Helvetica,sans-Serif" font-size="10.00">net::socket::stream</text>
<text text-anchor="middle" x="300" y="-369" font-family="Helvetica,sans-Serif" font-size="10.00">::SocketWriter::enqueue</text>
</a>
</g>
</g>
<!-- Node1&#45;&gt;Node7 -->
<g id="edge6" class="edge">
<title>Node1&#45;&gt;Node7</title>
<path fill="none" stroke="midnightblue" d="M401.9,-358.43C388.5,-360.9 374.36,-363.5 361.04,-365.95"/>
<polygon fill="midnightblue" stroke="midnightblue" points="402.78,-361.83 411.98,-356.57 401.51,-354.94 402.78,-361.83"/>
</g>
<!-- Node9 -->
<g id="node9" class="node">
<title>Node9</title>
<g id="a_node9"><a xlink:href="classnet_1_1socket_1_1stream_1_1_socket_listener.html#a65a56ae174b82842b81b1e7c2f1a5a34" target="_top" xlink:title=" ">
<polygon fill="white" stroke="black" points="236.5,-291 236.5,-343 363.5,-343 363.5,-291 236.5,-291"/>
<text text-anchor="start" x="244.5" y="-331" font-family="Helvetica,sans-Serif" font-size="10.00">net::socket::stream</text>
<text text-anchor="start" x="244.5" y="-320" font-family="Helvetica,sans-Serif" font-size="10.00">::SocketListener&lt; stream</text>
<text text-anchor="start" x="244.5" y="-309" font-family="Helvetica,sans-Serif" font-size="10.00">::tls::SocketConnection</text>
<text text-anchor="middle" x="300" y="-298" font-family="Helvetica,sans-Serif" font-size="10.00">&lt; SocketT &gt; &gt;::listen</text>
</a>
</g>
</g>
<!-- Node1&#45;&gt;Node9 -->
<g id="edge8" class="edge">
<title>Node1&#45;&gt;Node9</title>
<path fill="none" stroke="midnightblue" d="M402.06,-335.6C389.48,-333.29 376.25,-330.85 363.65,-328.53"/>
<polygon fill="midnightblue" stroke="midnightblue" points="401.51,-339.06 411.98,-337.43 402.78,-332.17 401.51,-339.06"/>
</g>
<!-- Node10 -->
<g id="node10" class="node">
<title>Node10</title>
<g id="a_node10"><a xlink:href="class_file_reader.html#a1ce08aad9d9f0b025576ee1e51009c9c" target="_top" xlink:title=" ">
<polygon fill="white" stroke="black" points="243,-252.5 243,-271.5 357,-271.5 357,-252.5 243,-252.5"/>
<text text-anchor="middle" x="300" y="-259.5" font-family="Helvetica,sans-Serif" font-size="10.00">FileReader::readEvent</text>
</a>
</g>
</g>
<!-- Node1&#45;&gt;Node10 -->
<g id="edge9" class="edge">
<title>Node1&#45;&gt;Node10</title>
<path fill="none" stroke="midnightblue" d="M445.55,-330.84C427.98,-316.21 400.25,-295.02 373,-282 364.22,-277.81 354.4,-274.35 344.91,-271.57"/>
<polygon fill="midnightblue" stroke="midnightblue" points="443.42,-333.63 453.31,-337.43 447.95,-328.29 443.42,-333.63"/>
</g>
<!-- Node11 -->
<g id="node11" class="node">
<title>Node11</title>
<g id="a_node11"><a xlink:href="classnet_1_1socket_1_1stream_1_1_socket_listener.html#a31d10dd0fe920ee20fce4b6fd3aee70a" target="_top" xlink:title=" ">
<polygon fill="white" stroke="black" points="227,-181 227,-233 373,-233 373,-181 227,-181"/>
<text text-anchor="start" x="235" y="-221" font-family="Helvetica,sans-Serif" font-size="10.00">net::socket::stream</text>
<text text-anchor="start" x="235" y="-210" font-family="Helvetica,sans-Serif" font-size="10.00">::SocketListener&lt; stream</text>
<text text-anchor="start" x="235" y="-199" font-family="Helvetica,sans-Serif" font-size="10.00">::tls::SocketConnection</text>
<text text-anchor="middle" x="300" y="-188" font-family="Helvetica,sans-Serif" font-size="10.00">&lt; SocketT &gt; &gt;::reuseAddress</text>
</a>
</g>
</g>
<!-- Node1&#45;&gt;Node11 -->
<g id="edge10" class="edge">
<title>Node1&#45;&gt;Node11</title>
<path fill="none" stroke="midnightblue" d="M451.66,-329.01C435.6,-306.62 405.71,-268.27 373,-243 368.47,-239.5 363.54,-236.19 358.46,-233.11"/>
<polygon fill="midnightblue" stroke="midnightblue" points="448.86,-331.11 457.48,-337.28 454.58,-327.09 448.86,-331.11"/>
</g>
<!-- Node12 -->
<g id="node12" class="node">
<title>Node12</title>
<g id="a_node12"><a xlink:href="classnet_1_1socket_1_1_socket.html#a9a80bf03183086700d7cafee4037e7c8" target="_top" xlink:title=" ">
<polygon fill="white" stroke="black" points="228.5,-120.5 228.5,-161.5 371.5,-161.5 371.5,-120.5 228.5,-120.5"/>
<text text-anchor="start" x="236.5" y="-149.5" font-family="Helvetica,sans-Serif" font-size="10.00">net::socket::Socket</text>
<text text-anchor="start" x="236.5" y="-138.5" font-family="Helvetica,sans-Serif" font-size="10.00">&lt; address::ipv4::InetAddress</text>
<text text-anchor="middle" x="300" y="-127.5" font-family="Helvetica,sans-Serif" font-size="10.00"> &gt;::shutdown</text>
</a>
</g>
</g>
<!-- Node1&#45;&gt;Node12 -->
<g id="edge11" class="edge">
<title>Node1&#45;&gt;Node12</title>
<path fill="none" stroke="midnightblue" d="M458.68,-327.62C448.04,-292.2 420.96,-216.58 373,-172 368.81,-168.11 364.06,-164.66 359.05,-161.61"/>
<polygon fill="midnightblue" stroke="midnightblue" points="455.32,-328.6 461.46,-337.24 462.05,-326.66 455.32,-328.6"/>
</g>
<!-- Node13 -->
<g id="node13" class="node">
<title>Node13</title>
<g id="a_node13"><a xlink:href="classnet_1_1socket_1_1stream_1_1tls_1_1_socket_connection.html#a7ef6031f0b6f3dc25efa7f844bab63b9" target="_top" xlink:title=" ">
<polygon fill="white" stroke="black" points="240.5,-60.5 240.5,-101.5 359.5,-101.5 359.5,-60.5 240.5,-60.5"/>
<text text-anchor="start" x="248.5" y="-89.5" font-family="Helvetica,sans-Serif" font-size="10.00">net::socket::stream</text>
<text text-anchor="start" x="248.5" y="-78.5" font-family="Helvetica,sans-Serif" font-size="10.00">::tls::SocketConnection</text>
<text text-anchor="middle" x="300" y="-67.5" font-family="Helvetica,sans-Serif" font-size="10.00">::startSSL</text>
</a>
</g>
</g>
<!-- Node1&#45;&gt;Node13 -->
<g id="edge12" class="edge">
<title>Node1&#45;&gt;Node13</title>
<path fill="none" stroke="midnightblue" d="M461.69,-327.46C455.46,-283.16 434.43,-174.1 373,-111 369.03,-106.92 364.43,-103.38 359.5,-100.3"/>
<polygon fill="midnightblue" stroke="midnightblue" points="458.23,-328.01 462.99,-337.48 465.17,-327.11 458.23,-328.01"/>
</g>
<!-- Node14 -->
<g id="node14" class="node">
<title>Node14</title>
<g id="a_node14"><a xlink:href="classnet_1_1socket_1_1_socket.html#a1943874bf03dc9c9eb5b88e08bb5edd9" target="_top" xlink:title=" ">
<polygon fill="white" stroke="black" points="228.5,-0.5 228.5,-41.5 371.5,-41.5 371.5,-0.5 228.5,-0.5"/>
<text text-anchor="start" x="236.5" y="-29.5" font-family="Helvetica,sans-Serif" font-size="10.00">net::socket::Socket</text>
<text text-anchor="start" x="236.5" y="-18.5" font-family="Helvetica,sans-Serif" font-size="10.00">&lt; address::ipv4::InetAddress</text>
<text text-anchor="middle" x="300" y="-7.5" font-family="Helvetica,sans-Serif" font-size="10.00"> &gt;::~Socket</text>
</a>
</g>
</g>
<!-- Node1&#45;&gt;Node14 -->
<g id="edge13" class="edge">
<title>Node1&#45;&gt;Node14</title>
<path fill="none" stroke="midnightblue" d="M463.48,-327.22C461.06,-275.24 447.58,-133.16 373,-51 369.81,-47.49 366.15,-44.38 362.21,-41.63"/>
<polygon fill="midnightblue" stroke="midnightblue" points="459.98,-327.54 463.86,-337.4 466.98,-327.28 459.98,-327.54"/>
</g>
<!-- Node8 -->
<g id="node8" class="node">
<title>Node8</title>
<g id="a_node8"><a xlink:href="classnet_1_1socket_1_1stream_1_1_socket_connection.html#ab5931a0a52e2fbcdec5d8c3fba61eb2a" target="_top" xlink:title=" ">
<polygon fill="white" stroke="black" points="0,-345.5 0,-408.5 191,-408.5 191,-345.5 0,-345.5"/>
<text text-anchor="start" x="8" y="-396.5" font-family="Helvetica,sans-Serif" font-size="10.00">net::socket::stream</text>
<text text-anchor="start" x="8" y="-385.5" font-family="Helvetica,sans-Serif" font-size="10.00">::SocketConnection&lt;</text>
<text text-anchor="start" x="8" y="-374.5" font-family="Helvetica,sans-Serif" font-size="10.00"> tls::SocketReader&lt; SocketT</text>
<text text-anchor="start" x="8" y="-363.5" font-family="Helvetica,sans-Serif" font-size="10.00"> &gt;, tls::SocketWriter&lt; SocketT</text>
<text text-anchor="middle" x="95.5" y="-352.5" font-family="Helvetica,sans-Serif" font-size="10.00"> &gt;, SocketT::SocketAddress &gt;::enqueue</text>
</a>
</g>
</g>
<!-- Node7&#45;&gt;Node8 -->
<g id="edge7" class="edge">
<title>Node7&#45;&gt;Node8</title>
<path fill="none" stroke="midnightblue" d="M228.45,-377C216.47,-377 203.86,-377 191.38,-377"/>
<polygon fill="midnightblue" stroke="midnightblue" points="228.79,-380.5 238.79,-377 228.79,-373.5 228.79,-380.5"/>
</g>
</g>
</svg>
