<?xml version="1.0" encoding="UTF-8" standalone="no"?>
<!DOCTYPE svg PUBLIC "-//W3C//DTD SVG 1.1//EN"
 "http://www.w3.org/Graphics/SVG/1.1/DTD/svg11.dtd">
<!-- Generated by graphviz version 2.43.0 (0)
 -->
<!-- Title: http::websocket::WSServerContext::onError Pages: 1 -->
<svg width="1094pt" height="39pt"
 viewBox="0.00 0.00 1094.00 39.00" xmlns="http://www.w3.org/2000/svg" xmlns:xlink="http://www.w3.org/1999/xlink">
<g id="graph0" class="graph" transform="scale(1 1) rotate(0) translate(4 35)">
<title>http::websocket::WSServerContext::onError</title>
<polygon fill="white" stroke="transparent" points="-4,4 -4,-35 1090,-35 1090,4 -4,4"/>
<!-- Node1 -->
<g id="node1" class="node">
<title>Node1</title>
<g id="a_node1"><a xlink:title=" ">
<polygon fill="#bfbfbf" stroke="black" points="0,-0.5 0,-30.5 137,-30.5 137,-0.5 0,-0.5"/>
<text text-anchor="start" x="8" y="-18.5" font-family="Helvetica,sans-Serif" font-size="10.00">http::websocket::WSServer</text>
<text text-anchor="middle" x="68.5" y="-7.5" font-family="Helvetica,sans-Serif" font-size="10.00">Context::onError</text>
</a>
</g>
</g>
<!-- Node2 -->
<g id="node2" class="node">
<title>Node2</title>
<g id="a_node2"><a xlink:href="classhttp_1_1websocket_1_1_w_s_server_context.html#a36fd90bda1f6190fe7a4c6afc4d04851" target="_top" xlink:title=" ">
<polygon fill="white" stroke="black" points="173,-0.5 173,-30.5 310,-30.5 310,-0.5 173,-0.5"/>
<text text-anchor="start" x="181" y="-18.5" font-family="Helvetica,sans-Serif" font-size="10.00">http::websocket::WSServer</text>
<text text-anchor="middle" x="241.5" y="-7.5" font-family="Helvetica,sans-Serif" font-size="10.00">Context::close</text>
</a>
</g>
</g>
<!-- Node1&#45;&gt;Node2 -->
<g id="edge1" class="edge">
<title>Node1&#45;&gt;Node2</title>
<path fill="none" stroke="midnightblue" d="M137.08,-15.5C145.54,-15.5 154.24,-15.5 162.83,-15.5"/>
<polygon fill="midnightblue" stroke="midnightblue" points="162.85,-19 172.85,-15.5 162.85,-12 162.85,-19"/>
</g>
<!-- Node3 -->
<g id="node3" class="node">
<title>Node3</title>
<g id="a_node3"><a xlink:href="classhttp_1_1websocket_1_1_w_s_transmitter.html#a5b038fcd05c9e21ec8d806120ce53059" target="_top" xlink:title=" ">
<polygon fill="white" stroke="black" points="346,-0.5 346,-30.5 504,-30.5 504,-0.5 346,-0.5"/>
<text text-anchor="start" x="354" y="-18.5" font-family="Helvetica,sans-Serif" font-size="10.00">http::websocket::WSTransmitter</text>
<text text-anchor="middle" x="425" y="-7.5" font-family="Helvetica,sans-Serif" font-size="10.00">::message</text>
</a>
</g>
</g>
<!-- Node2&#45;&gt;Node3 -->
<g id="edge2" class="edge">
<title>Node2&#45;&gt;Node3</title>
<path fill="none" stroke="midnightblue" d="M310.08,-15.5C318.49,-15.5 327.17,-15.5 335.83,-15.5"/>
<polygon fill="midnightblue" stroke="midnightblue" points="335.96,-19 345.96,-15.5 335.96,-12 335.96,-19"/>
</g>
<!-- Node4 -->
<g id="node4" class="node">
<title>Node4</title>
<g id="a_node4"><a xlink:href="classhttp_1_1websocket_1_1_w_s_transmitter.html#a3b8f72fd608d48ab5df8dbe145c9bd6c" target="_top" xlink:title=" ">
<polygon fill="white" stroke="black" points="540,-0.5 540,-30.5 698,-30.5 698,-0.5 540,-0.5"/>
<text text-anchor="start" x="548" y="-18.5" font-family="Helvetica,sans-Serif" font-size="10.00">http::websocket::WSTransmitter</text>
<text text-anchor="middle" x="619" y="-7.5" font-family="Helvetica,sans-Serif" font-size="10.00">::send</text>
</a>
</g>
</g>
<!-- Node3&#45;&gt;Node4 -->
<g id="edge3" class="edge">
<title>Node3&#45;&gt;Node4</title>
<path fill="none" stroke="midnightblue" d="M504.09,-8.86C512.6,-8.75 521.3,-8.73 529.92,-8.77"/>
<polygon fill="midnightblue" stroke="midnightblue" points="529.95,-12.27 539.98,-8.86 530.01,-5.27 529.95,-12.27"/>
</g>
<!-- Node4&#45;&gt;Node3 -->
<g id="edge4" class="edge">
<title>Node4&#45;&gt;Node3</title>
<path fill="none" stroke="midnightblue" d="M539.98,-22.14C531.47,-22.25 522.77,-22.27 514.15,-22.23"/>
<polygon fill="midnightblue" stroke="midnightblue" points="514.12,-18.73 504.09,-22.14 514.06,-25.73 514.12,-18.73"/>
</g>
<!-- Node5 -->
<g id="node5" class="node">
<title>Node5</title>
<g id="a_node5"><a xlink:href="classhttp_1_1websocket_1_1_w_s_transmitter.html#a56ac258cb30e42a663d95df7813a14d2" target="_top" xlink:title=" ">
<polygon fill="white" stroke="black" points="734,-0.5 734,-30.5 892,-30.5 892,-0.5 734,-0.5"/>
<text text-anchor="start" x="742" y="-18.5" font-family="Helvetica,sans-Serif" font-size="10.00">http::websocket::WSTransmitter</text>
<text text-anchor="middle" x="813" y="-7.5" font-family="Helvetica,sans-Serif" font-size="10.00">::sendFrame</text>
</a>
</g>
</g>
<!-- Node4&#45;&gt;Node5 -->
<g id="edge5" class="edge">
<title>Node4&#45;&gt;Node5</title>
<path fill="none" stroke="midnightblue" d="M698.09,-15.5C706.6,-15.5 715.3,-15.5 723.92,-15.5"/>
<polygon fill="midnightblue" stroke="midnightblue" points="723.98,-19 733.98,-15.5 723.98,-12 723.98,-19"/>
</g>
<!-- Node6 -->
<g id="node6" class="node">
<title>Node6</title>
<g id="a_node6"><a xlink:href="classhttp_1_1websocket_1_1_w_s_transmitter.html#a6c3b7a315d962d53cd232244a0f2da90" target="_top" xlink:title=" ">
<polygon fill="white" stroke="black" points="928,-0.5 928,-30.5 1086,-30.5 1086,-0.5 928,-0.5"/>
<text text-anchor="start" x="936" y="-18.5" font-family="Helvetica,sans-Serif" font-size="10.00">http::websocket::WSTransmitter</text>
<text text-anchor="middle" x="1007" y="-7.5" font-family="Helvetica,sans-Serif" font-size="10.00">::onFrameReady</text>
</a>
</g>
</g>
<!-- Node5&#45;&gt;Node6 -->
<g id="edge6" class="edge">
<title>Node5&#45;&gt;Node6</title>
<path fill="none" stroke="midnightblue" d="M892.09,-15.5C900.6,-15.5 909.3,-15.5 917.92,-15.5"/>
<polygon fill="midnightblue" stroke="midnightblue" points="917.98,-19 927.98,-15.5 917.98,-12 917.98,-19"/>
</g>
</g>
</svg>
