<?xml version="1.0" encoding="UTF-8" standalone="no"?>
<!DOCTYPE svg PUBLIC "-//W3C//DTD SVG 1.1//EN"
 "http://www.w3.org/Graphics/SVG/1.1/DTD/svg11.dtd">
<!-- Generated by graphviz version 2.43.0 (0)
 -->
<!-- Title: net::EventReceiver::isEnabled Pages: 1 -->
<svg width="505pt" height="258pt"
 viewBox="0.00 0.00 505.00 257.50" xmlns="http://www.w3.org/2000/svg" xmlns:xlink="http://www.w3.org/1999/xlink">
<g id="graph0" class="graph" transform="scale(1 1) rotate(0) translate(4 253.5)">
<title>net::EventReceiver::isEnabled</title>
<polygon fill="white" stroke="transparent" points="-4,4 -4,-253.5 501,-253.5 501,4 -4,4"/>
<!-- Node1 -->
<g id="node1" class="node">
<title>Node1</title>
<g id="a_node1"><a xlink:title=" ">
<polygon fill="#bfbfbf" stroke="black" points="396,-98.5 396,-128.5 497,-128.5 497,-98.5 396,-98.5"/>
<text text-anchor="start" x="404" y="-116.5" font-family="Helvetica,sans-Serif" font-size="10.00">net::EventReceiver</text>
<text text-anchor="middle" x="446.5" y="-105.5" font-family="Helvetica,sans-Serif" font-size="10.00">::isEnabled</text>
</a>
</g>
</g>
<!-- Node2 -->
<g id="node2" class="node">
<title>Node2</title>
<g id="a_node2"><a xlink:href="classnet_1_1_event_dispatcher.html#aa2899ea52c172f61cb5cda8f2b16d878" target="_top" xlink:title=" ">
<polygon fill="white" stroke="black" points="232.5,-208 232.5,-249 354.5,-249 354.5,-208 232.5,-208"/>
<text text-anchor="start" x="240.5" y="-237" font-family="Helvetica,sans-Serif" font-size="10.00">net::EventDispatcher</text>
<text text-anchor="start" x="240.5" y="-226" font-family="Helvetica,sans-Serif" font-size="10.00">&lt; ReadEventReceiver &gt;</text>
<text text-anchor="middle" x="293.5" y="-215" font-family="Helvetica,sans-Serif" font-size="10.00">::disable</text>
</a>
</g>
</g>
<!-- Node1&#45;&gt;Node2 -->
<g id="edge1" class="edge">
<title>Node1&#45;&gt;Node2</title>
<path fill="none" stroke="midnightblue" d="M426.6,-136.34C410.38,-154.87 385.63,-180.74 360,-198.5 355.17,-201.85 349.9,-204.98 344.53,-207.86"/>
<polygon fill="midnightblue" stroke="midnightblue" points="429.35,-138.51 433.21,-128.65 424.04,-133.95 429.35,-138.51"/>
</g>
<!-- Node3 -->
<g id="node3" class="node">
<title>Node3</title>
<g id="a_node3"><a xlink:href="classnet_1_1_event_dispatcher.html#a5c2415b2b4c371fe2d668c60ed0bbabb" target="_top" xlink:title=" ">
<polygon fill="white" stroke="black" points="232.5,-148 232.5,-189 354.5,-189 354.5,-148 232.5,-148"/>
<text text-anchor="start" x="240.5" y="-177" font-family="Helvetica,sans-Serif" font-size="10.00">net::EventDispatcher</text>
<text text-anchor="start" x="240.5" y="-166" font-family="Helvetica,sans-Serif" font-size="10.00">&lt; ReadEventReceiver &gt;</text>
<text text-anchor="middle" x="293.5" y="-155" font-family="Helvetica,sans-Serif" font-size="10.00">::enable</text>
</a>
</g>
</g>
<!-- Node1&#45;&gt;Node3 -->
<g id="edge2" class="edge">
<title>Node1&#45;&gt;Node3</title>
<path fill="none" stroke="midnightblue" d="M394.74,-131.99C380.69,-137.11 365.35,-142.69 351,-147.92"/>
<polygon fill="midnightblue" stroke="midnightblue" points="396.04,-135.24 404.24,-128.53 393.64,-128.66 396.04,-135.24"/>
</g>
<!-- Node4 -->
<g id="node4" class="node">
<title>Node4</title>
<g id="a_node4"><a xlink:href="classnet_1_1socket_1_1stream_1_1_socket_writer.html#aa7bdaa904aa90968afb56bbb4f671a6d" target="_top" xlink:title=" ">
<polygon fill="white" stroke="black" points="232.5,-98.5 232.5,-128.5 354.5,-128.5 354.5,-98.5 232.5,-98.5"/>
<text text-anchor="start" x="240.5" y="-116.5" font-family="Helvetica,sans-Serif" font-size="10.00">net::socket::stream</text>
<text text-anchor="middle" x="293.5" y="-105.5" font-family="Helvetica,sans-Serif" font-size="10.00">::SocketWriter::enqueue</text>
</a>
</g>
</g>
<!-- Node1&#45;&gt;Node4 -->
<g id="edge3" class="edge">
<title>Node1&#45;&gt;Node4</title>
<path fill="none" stroke="midnightblue" d="M385.59,-113.5C375.38,-113.5 364.77,-113.5 354.56,-113.5"/>
<polygon fill="midnightblue" stroke="midnightblue" points="385.64,-117 395.64,-113.5 385.64,-110 385.64,-117"/>
</g>
<!-- Node6 -->
<g id="node6" class="node">
<title>Node6</title>
<g id="a_node6"><a xlink:href="classnet_1_1socket_1_1stream_1_1_socket_reader.html#afa1c473218f5caf4affc4060f475f2d9" target="_top" xlink:title=" ">
<polygon fill="white" stroke="black" points="227,-49.5 227,-79.5 360,-79.5 360,-49.5 227,-49.5"/>
<text text-anchor="start" x="235" y="-67.5" font-family="Helvetica,sans-Serif" font-size="10.00">net::socket::stream</text>
<text text-anchor="middle" x="293.5" y="-56.5" font-family="Helvetica,sans-Serif" font-size="10.00">::SocketReader::shutdown</text>
</a>
</g>
</g>
<!-- Node1&#45;&gt;Node6 -->
<g id="edge5" class="edge">
<title>Node1&#45;&gt;Node6</title>
<path fill="none" stroke="midnightblue" d="M389.23,-95.24C373.31,-90.07 356.16,-84.51 340.88,-79.55"/>
<polygon fill="midnightblue" stroke="midnightblue" points="388.37,-98.64 398.96,-98.4 390.53,-91.98 388.37,-98.64"/>
</g>
<!-- Node7 -->
<g id="node7" class="node">
<title>Node7</title>
<g id="a_node7"><a xlink:href="classnet_1_1socket_1_1stream_1_1_socket_writer.html#a5f00bdf49b2913b580bcde09606a4089" target="_top" xlink:title=" ">
<polygon fill="white" stroke="black" points="230,-0.5 230,-30.5 357,-30.5 357,-0.5 230,-0.5"/>
<text text-anchor="start" x="238" y="-18.5" font-family="Helvetica,sans-Serif" font-size="10.00">net::socket::stream</text>
<text text-anchor="middle" x="293.5" y="-7.5" font-family="Helvetica,sans-Serif" font-size="10.00">::SocketWriter::shutdown</text>
</a>
</g>
</g>
<!-- Node1&#45;&gt;Node7 -->
<g id="edge6" class="edge">
<title>Node1&#45;&gt;Node7</title>
<path fill="none" stroke="midnightblue" d="M423.55,-91.02C407.18,-75.25 383.66,-54.54 360,-40.5 353.82,-36.83 347.02,-33.53 340.2,-30.62"/>
<polygon fill="midnightblue" stroke="midnightblue" points="421.39,-93.81 430.97,-98.32 426.29,-88.82 421.39,-93.81"/>
</g>
<!-- Node5 -->
<g id="node5" class="node">
<title>Node5</title>
<g id="a_node5"><a xlink:href="classnet_1_1socket_1_1stream_1_1_socket_connection.html#ab5931a0a52e2fbcdec5d8c3fba61eb2a" target="_top" xlink:title=" ">
<polygon fill="white" stroke="black" points="0,-82 0,-145 191,-145 191,-82 0,-82"/>
<text text-anchor="start" x="8" y="-133" font-family="Helvetica,sans-Serif" font-size="10.00">net::socket::stream</text>
<text text-anchor="start" x="8" y="-122" font-family="Helvetica,sans-Serif" font-size="10.00">::SocketConnection&lt;</text>
<text text-anchor="start" x="8" y="-111" font-family="Helvetica,sans-Serif" font-size="10.00"> tls::SocketReader&lt; SocketT</text>
<text text-anchor="start" x="8" y="-100" font-family="Helvetica,sans-Serif" font-size="10.00"> &gt;, tls::SocketWriter&lt; SocketT</text>
<text text-anchor="middle" x="95.5" y="-89" font-family="Helvetica,sans-Serif" font-size="10.00"> &gt;, SocketT::SocketAddress &gt;::enqueue</text>
</a>
</g>
</g>
<!-- Node4&#45;&gt;Node5 -->
<g id="edge4" class="edge">
<title>Node4&#45;&gt;Node5</title>
<path fill="none" stroke="midnightblue" d="M222.07,-113.5C212.04,-113.5 201.58,-113.5 191.17,-113.5"/>
<polygon fill="midnightblue" stroke="midnightblue" points="222.36,-117 232.36,-113.5 222.36,-110 222.36,-117"/>
</g>
</g>
</svg>
