<?xml version="1.0" encoding="UTF-8" standalone="no"?>
<!DOCTYPE svg PUBLIC "-//W3C//DTD SVG 1.1//EN"
 "http://www.w3.org/Graphics/SVG/1.1/DTD/svg11.dtd">
<!-- Generated by graphviz version 2.43.0 (0)
 -->
<!-- Title: net::socket::tcp::SocketListener&lt; SocketConnectionT &gt; Pages: 1 -->
<svg width="360pt" height="1321pt"
 viewBox="0.00 0.00 360.00 1321.00" xmlns="http://www.w3.org/2000/svg" xmlns:xlink="http://www.w3.org/1999/xlink">
<g id="graph0" class="graph" transform="scale(1 1) rotate(0) translate(4 1317)">
<title>net::socket::tcp::SocketListener&lt; SocketConnectionT &gt;</title>
<polygon fill="white" stroke="transparent" points="-4,4 -4,-1317 356,-1317 356,4 -4,4"/>
<!-- Node1 -->
<g id="node1" class="node">
<title>Node1</title>
<g id="a_node1"><a xlink:title=" ">
<polygon fill="#bfbfbf" stroke="black" points="83.5,-497.5 83.5,-785.5 238.5,-785.5 238.5,-497.5 83.5,-497.5"/>
<text text-anchor="start" x="91.5" y="-773.5" font-family="Helvetica,sans-Serif" font-size="10.00">net::socket::tcp::Socket</text>
<text text-anchor="middle" x="161" y="-762.5" font-family="Helvetica,sans-Serif" font-size="10.00">Listener&lt; SocketConnectionT &gt;</text>
<polyline fill="none" stroke="black" points="83.5,-755.5 238.5,-755.5 "/>
<text text-anchor="start" x="91.5" y="-743.5" font-family="Helvetica,sans-Serif" font-size="10.00"># options</text>
<text text-anchor="start" x="91.5" y="-732.5" font-family="Helvetica,sans-Serif" font-size="10.00"># isDynamic</text>
<text text-anchor="start" x="91.5" y="-721.5" font-family="Helvetica,sans-Serif" font-size="10.00"># lastAllocAddress</text>
<text text-anchor="start" x="91.5" y="-710.5" font-family="Helvetica,sans-Serif" font-size="10.00">&#45; onConstruct</text>
<text text-anchor="start" x="91.5" y="-699.5" font-family="Helvetica,sans-Serif" font-size="10.00">&#45; onDestruct</text>
<text text-anchor="start" x="91.5" y="-688.5" font-family="Helvetica,sans-Serif" font-size="10.00">&#45; onConnect</text>
<text text-anchor="start" x="91.5" y="-677.5" font-family="Helvetica,sans-Serif" font-size="10.00">&#45; onDisconnect</text>
<text text-anchor="start" x="91.5" y="-666.5" font-family="Helvetica,sans-Serif" font-size="10.00">&#45; onRead</text>
<text text-anchor="start" x="91.5" y="-655.5" font-family="Helvetica,sans-Serif" font-size="10.00">&#45; onReadError</text>
<text text-anchor="start" x="91.5" y="-644.5" font-family="Helvetica,sans-Serif" font-size="10.00">&#45; onWriteError</text>
<polyline fill="none" stroke="black" points="83.5,-637.5 238.5,-637.5 "/>
<text text-anchor="start" x="91.5" y="-625.5" font-family="Helvetica,sans-Serif" font-size="10.00">+ operator new()</text>
<text text-anchor="start" x="91.5" y="-614.5" font-family="Helvetica,sans-Serif" font-size="10.00">+ operator delete()</text>
<text text-anchor="start" x="91.5" y="-603.5" font-family="Helvetica,sans-Serif" font-size="10.00">+ SocketListener()</text>
<text text-anchor="start" x="91.5" y="-592.5" font-family="Helvetica,sans-Serif" font-size="10.00">+ SocketListener()</text>
<text text-anchor="start" x="91.5" y="-581.5" font-family="Helvetica,sans-Serif" font-size="10.00">+ SocketListener()</text>
<text text-anchor="start" x="91.5" y="-570.5" font-family="Helvetica,sans-Serif" font-size="10.00">+ operator=()</text>
<text text-anchor="start" x="91.5" y="-559.5" font-family="Helvetica,sans-Serif" font-size="10.00">+ ~SocketListener()</text>
<text text-anchor="start" x="91.5" y="-548.5" font-family="Helvetica,sans-Serif" font-size="10.00">+ listen()</text>
<text text-anchor="start" x="91.5" y="-537.5" font-family="Helvetica,sans-Serif" font-size="10.00">+ reuseAddress()</text>
<text text-anchor="start" x="91.5" y="-526.5" font-family="Helvetica,sans-Serif" font-size="10.00">+ acceptEvent()</text>
<text text-anchor="start" x="91.5" y="-515.5" font-family="Helvetica,sans-Serif" font-size="10.00">+ end()</text>
<text text-anchor="start" x="91.5" y="-504.5" font-family="Helvetica,sans-Serif" font-size="10.00">&#45; unobserved()</text>
</a>
</g>
</g>
<!-- Node7 -->
<g id="node7" class="node">
<title>Node7</title>
<g id="a_node7"><a xlink:href="classnet_1_1socket_1_1tcp_1_1_socket_listener.html" target="_top" xlink:title=" ">
<polygon fill="white" stroke="black" points="0,-139.5 0,-438.5 148,-438.5 148,-139.5 0,-139.5"/>
<text text-anchor="start" x="8" y="-426.5" font-family="Helvetica,sans-Serif" font-size="10.00">net::socket::tcp::Socket</text>
<text text-anchor="start" x="8" y="-415.5" font-family="Helvetica,sans-Serif" font-size="10.00">Listener&lt; net::socket</text>
<text text-anchor="middle" x="74" y="-404.5" font-family="Helvetica,sans-Serif" font-size="10.00">::tcp::tls::SocketConnection &gt;</text>
<polyline fill="none" stroke="black" points="0,-397.5 148,-397.5 "/>
<text text-anchor="start" x="8" y="-385.5" font-family="Helvetica,sans-Serif" font-size="10.00"># options</text>
<text text-anchor="start" x="8" y="-374.5" font-family="Helvetica,sans-Serif" font-size="10.00"># isDynamic</text>
<text text-anchor="start" x="8" y="-363.5" font-family="Helvetica,sans-Serif" font-size="10.00"># lastAllocAddress</text>
<text text-anchor="start" x="8" y="-352.5" font-family="Helvetica,sans-Serif" font-size="10.00">&#45; onConstruct</text>
<text text-anchor="start" x="8" y="-341.5" font-family="Helvetica,sans-Serif" font-size="10.00">&#45; onDestruct</text>
<text text-anchor="start" x="8" y="-330.5" font-family="Helvetica,sans-Serif" font-size="10.00">&#45; onConnect</text>
<text text-anchor="start" x="8" y="-319.5" font-family="Helvetica,sans-Serif" font-size="10.00">&#45; onDisconnect</text>
<text text-anchor="start" x="8" y="-308.5" font-family="Helvetica,sans-Serif" font-size="10.00">&#45; onRead</text>
<text text-anchor="start" x="8" y="-297.5" font-family="Helvetica,sans-Serif" font-size="10.00">&#45; onReadError</text>
<text text-anchor="start" x="8" y="-286.5" font-family="Helvetica,sans-Serif" font-size="10.00">&#45; onWriteError</text>
<polyline fill="none" stroke="black" points="0,-279.5 148,-279.5 "/>
<text text-anchor="start" x="8" y="-267.5" font-family="Helvetica,sans-Serif" font-size="10.00">+ operator new()</text>
<text text-anchor="start" x="8" y="-256.5" font-family="Helvetica,sans-Serif" font-size="10.00">+ operator delete()</text>
<text text-anchor="start" x="8" y="-245.5" font-family="Helvetica,sans-Serif" font-size="10.00">+ SocketListener()</text>
<text text-anchor="start" x="8" y="-234.5" font-family="Helvetica,sans-Serif" font-size="10.00">+ SocketListener()</text>
<text text-anchor="start" x="8" y="-223.5" font-family="Helvetica,sans-Serif" font-size="10.00">+ SocketListener()</text>
<text text-anchor="start" x="8" y="-212.5" font-family="Helvetica,sans-Serif" font-size="10.00">+ operator=()</text>
<text text-anchor="start" x="8" y="-201.5" font-family="Helvetica,sans-Serif" font-size="10.00">+ ~SocketListener()</text>
<text text-anchor="start" x="8" y="-190.5" font-family="Helvetica,sans-Serif" font-size="10.00">+ listen()</text>
<text text-anchor="start" x="8" y="-179.5" font-family="Helvetica,sans-Serif" font-size="10.00">+ reuseAddress()</text>
<text text-anchor="start" x="8" y="-168.5" font-family="Helvetica,sans-Serif" font-size="10.00">+ acceptEvent()</text>
<text text-anchor="start" x="8" y="-157.5" font-family="Helvetica,sans-Serif" font-size="10.00">+ end()</text>
<text text-anchor="start" x="8" y="-146.5" font-family="Helvetica,sans-Serif" font-size="10.00">&#45; unobserved()</text>
</a>
</g>
</g>
<!-- Node1&#45;&gt;Node7 -->
<g id="edge6" class="edge">
<title>Node1&#45;&gt;Node7</title>
<path fill="none" stroke="orange" d="M107.23,-487.55C106.46,-484.68 105.72,-481.83 105,-479 101.69,-465.95 98.66,-452.29 95.89,-438.55"/>
<polygon fill="orange" stroke="orange" points="103.9,-488.65 109.94,-497.35 110.65,-486.78 103.9,-488.65"/>
<text text-anchor="start" x="105" y="-471" font-family="Helvetica,sans-Serif" font-size="10.00"> &lt; net::socket::tcp</text>
<text text-anchor="middle" x="161" y="-460" font-family="Helvetica,sans-Serif" font-size="10.00">::tls::SocketConnection &gt;</text>
</g>
<!-- Node9 -->
<g id="node9" class="node">
<title>Node9</title>
<g id="a_node9"><a xlink:href="classnet_1_1socket_1_1tcp_1_1_socket_listener.html" target="_top" xlink:title=" ">
<polygon fill="white" stroke="black" points="166,-139.5 166,-438.5 332,-438.5 332,-139.5 166,-139.5"/>
<text text-anchor="start" x="174" y="-426.5" font-family="Helvetica,sans-Serif" font-size="10.00">net::socket::tcp::Socket</text>
<text text-anchor="start" x="174" y="-415.5" font-family="Helvetica,sans-Serif" font-size="10.00">Listener&lt; net::socket</text>
<text text-anchor="middle" x="249" y="-404.5" font-family="Helvetica,sans-Serif" font-size="10.00">::tcp::legacy::SocketConnection &gt;</text>
<polyline fill="none" stroke="black" points="166,-397.5 332,-397.5 "/>
<text text-anchor="start" x="174" y="-385.5" font-family="Helvetica,sans-Serif" font-size="10.00"># options</text>
<text text-anchor="start" x="174" y="-374.5" font-family="Helvetica,sans-Serif" font-size="10.00"># isDynamic</text>
<text text-anchor="start" x="174" y="-363.5" font-family="Helvetica,sans-Serif" font-size="10.00"># lastAllocAddress</text>
<text text-anchor="start" x="174" y="-352.5" font-family="Helvetica,sans-Serif" font-size="10.00">&#45; onConstruct</text>
<text text-anchor="start" x="174" y="-341.5" font-family="Helvetica,sans-Serif" font-size="10.00">&#45; onDestruct</text>
<text text-anchor="start" x="174" y="-330.5" font-family="Helvetica,sans-Serif" font-size="10.00">&#45; onConnect</text>
<text text-anchor="start" x="174" y="-319.5" font-family="Helvetica,sans-Serif" font-size="10.00">&#45; onDisconnect</text>
<text text-anchor="start" x="174" y="-308.5" font-family="Helvetica,sans-Serif" font-size="10.00">&#45; onRead</text>
<text text-anchor="start" x="174" y="-297.5" font-family="Helvetica,sans-Serif" font-size="10.00">&#45; onReadError</text>
<text text-anchor="start" x="174" y="-286.5" font-family="Helvetica,sans-Serif" font-size="10.00">&#45; onWriteError</text>
<polyline fill="none" stroke="black" points="166,-279.5 332,-279.5 "/>
<text text-anchor="start" x="174" y="-267.5" font-family="Helvetica,sans-Serif" font-size="10.00">+ operator new()</text>
<text text-anchor="start" x="174" y="-256.5" font-family="Helvetica,sans-Serif" font-size="10.00">+ operator delete()</text>
<text text-anchor="start" x="174" y="-245.5" font-family="Helvetica,sans-Serif" font-size="10.00">+ SocketListener()</text>
<text text-anchor="start" x="174" y="-234.5" font-family="Helvetica,sans-Serif" font-size="10.00">+ SocketListener()</text>
<text text-anchor="start" x="174" y="-223.5" font-family="Helvetica,sans-Serif" font-size="10.00">+ SocketListener()</text>
<text text-anchor="start" x="174" y="-212.5" font-family="Helvetica,sans-Serif" font-size="10.00">+ operator=()</text>
<text text-anchor="start" x="174" y="-201.5" font-family="Helvetica,sans-Serif" font-size="10.00">+ ~SocketListener()</text>
<text text-anchor="start" x="174" y="-190.5" font-family="Helvetica,sans-Serif" font-size="10.00">+ listen()</text>
<text text-anchor="start" x="174" y="-179.5" font-family="Helvetica,sans-Serif" font-size="10.00">+ reuseAddress()</text>
<text text-anchor="start" x="174" y="-168.5" font-family="Helvetica,sans-Serif" font-size="10.00">+ acceptEvent()</text>
<text text-anchor="start" x="174" y="-157.5" font-family="Helvetica,sans-Serif" font-size="10.00">+ end()</text>
<text text-anchor="start" x="174" y="-146.5" font-family="Helvetica,sans-Serif" font-size="10.00">&#45; unobserved()</text>
</a>
</g>
</g>
<!-- Node1&#45;&gt;Node9 -->
<g id="edge8" class="edge">
<title>Node1&#45;&gt;Node9</title>
<path fill="none" stroke="orange" d="M214.75,-487.55C215.52,-484.68 216.28,-481.83 217,-479 220.34,-465.94 223.43,-452.29 226.26,-438.55"/>
<polygon fill="orange" stroke="orange" points="211.33,-486.77 212.02,-497.34 218.07,-488.65 211.33,-486.77"/>
<text text-anchor="start" x="222" y="-471" font-family="Helvetica,sans-Serif" font-size="10.00"> &lt; net::socket::tcp</text>
<text text-anchor="middle" x="287" y="-460" font-family="Helvetica,sans-Serif" font-size="10.00">::legacy::SocketConnection &gt;</text>
</g>
<!-- Node2 -->
<g id="node2" class="node">
<title>Node2</title>
<g id="a_node2"><a xlink:href="classnet_1_1_accept_event_receiver.html" target="_top" xlink:title=" ">
<polygon fill="white" stroke="black" points="23.5,-840 23.5,-941 154.5,-941 154.5,-840 23.5,-840"/>
<text text-anchor="middle" x="89" y="-929" font-family="Helvetica,sans-Serif" font-size="10.00">net::AcceptEventReceiver</text>
<polyline fill="none" stroke="black" points="23.5,-922 154.5,-922 "/>
<text text-anchor="middle" x="89" y="-910" font-family="Helvetica,sans-Serif" font-size="10.00"> </text>
<polyline fill="none" stroke="black" points="23.5,-903 154.5,-903 "/>
<text text-anchor="start" x="31.5" y="-891" font-family="Helvetica,sans-Serif" font-size="10.00">+ setTimeout()</text>
<text text-anchor="start" x="31.5" y="-880" font-family="Helvetica,sans-Serif" font-size="10.00">+ enable()</text>
<text text-anchor="start" x="31.5" y="-869" font-family="Helvetica,sans-Serif" font-size="10.00">+ disable()</text>
<text text-anchor="start" x="31.5" y="-858" font-family="Helvetica,sans-Serif" font-size="10.00"># AcceptEventReceiver()</text>
<text text-anchor="start" x="31.5" y="-847" font-family="Helvetica,sans-Serif" font-size="10.00"># acceptEvent()</text>
</a>
</g>
</g>
<!-- Node2&#45;&gt;Node1 -->
<g id="edge1" class="edge">
<title>Node2&#45;&gt;Node1</title>
<path fill="none" stroke="midnightblue" d="M106.31,-830.12C110.3,-816.43 114.72,-801.28 119.25,-785.71"/>
<polygon fill="none" stroke="midnightblue" points="102.92,-829.23 103.48,-839.81 109.64,-831.19 102.92,-829.23"/>
</g>
<!-- Node3 -->
<g id="node3" class="node">
<title>Node3</title>
<g id="a_node3"><a xlink:href="classnet_1_1_event_receiver.html" target="_top" xlink:title=" ">
<polygon fill="white" stroke="black" points="38.5,-995.5 38.5,-1217.5 139.5,-1217.5 139.5,-995.5 38.5,-995.5"/>
<text text-anchor="middle" x="89" y="-1205.5" font-family="Helvetica,sans-Serif" font-size="10.00">net::EventReceiver</text>
<polyline fill="none" stroke="black" points="38.5,-1198.5 139.5,-1198.5 "/>
<text text-anchor="start" x="46.5" y="-1186.5" font-family="Helvetica,sans-Serif" font-size="10.00">&#45; _enabled</text>
<text text-anchor="start" x="46.5" y="-1175.5" font-family="Helvetica,sans-Serif" font-size="10.00">&#45; maxInactivity</text>
<text text-anchor="start" x="46.5" y="-1164.5" font-family="Helvetica,sans-Serif" font-size="10.00">&#45; lastTriggered</text>
<polyline fill="none" stroke="black" points="38.5,-1157.5 139.5,-1157.5 "/>
<text text-anchor="start" x="46.5" y="-1145.5" font-family="Helvetica,sans-Serif" font-size="10.00"># EventReceiver()</text>
<text text-anchor="start" x="46.5" y="-1134.5" font-family="Helvetica,sans-Serif" font-size="10.00"># EventReceiver()</text>
<text text-anchor="start" x="46.5" y="-1123.5" font-family="Helvetica,sans-Serif" font-size="10.00"># operator=()</text>
<text text-anchor="start" x="46.5" y="-1112.5" font-family="Helvetica,sans-Serif" font-size="10.00"># ~EventReceiver()</text>
<text text-anchor="start" x="46.5" y="-1101.5" font-family="Helvetica,sans-Serif" font-size="10.00"># setTimeout()</text>
<text text-anchor="start" x="46.5" y="-1090.5" font-family="Helvetica,sans-Serif" font-size="10.00"># isEnabled()</text>
<text text-anchor="start" x="46.5" y="-1079.5" font-family="Helvetica,sans-Serif" font-size="10.00">&#45; enabled()</text>
<text text-anchor="start" x="46.5" y="-1068.5" font-family="Helvetica,sans-Serif" font-size="10.00">&#45; disabled()</text>
<text text-anchor="start" x="46.5" y="-1057.5" font-family="Helvetica,sans-Serif" font-size="10.00">&#45; getTimeout()</text>
<text text-anchor="start" x="46.5" y="-1046.5" font-family="Helvetica,sans-Serif" font-size="10.00">&#45; getLastTriggered()</text>
<text text-anchor="start" x="46.5" y="-1035.5" font-family="Helvetica,sans-Serif" font-size="10.00">&#45; setLastTriggered()</text>
<text text-anchor="start" x="46.5" y="-1024.5" font-family="Helvetica,sans-Serif" font-size="10.00">&#45; enable()</text>
<text text-anchor="start" x="46.5" y="-1013.5" font-family="Helvetica,sans-Serif" font-size="10.00">&#45; disable()</text>
<text text-anchor="start" x="46.5" y="-1002.5" font-family="Helvetica,sans-Serif" font-size="10.00">&#45; unobserved()</text>
</a>
</g>
</g>
<!-- Node3&#45;&gt;Node2 -->
<g id="edge2" class="edge">
<title>Node3&#45;&gt;Node2</title>
<path fill="none" stroke="midnightblue" d="M89,-985.12C89,-969.6 89,-954.46 89,-941.03"/>
<polygon fill="none" stroke="midnightblue" points="85.5,-985.37 89,-995.37 92.5,-985.37 85.5,-985.37"/>
</g>
<!-- Node4 -->
<g id="node4" class="node">
<title>Node4</title>
<g id="a_node4"><a xlink:href="classnet_1_1_observation_counter.html" target="_top" xlink:title=" ">
<polygon fill="white" stroke="black" points="27.5,-1255.5 27.5,-1312.5 150.5,-1312.5 150.5,-1255.5 27.5,-1255.5"/>
<text text-anchor="middle" x="89" y="-1300.5" font-family="Helvetica,sans-Serif" font-size="10.00">net::ObservationCounter</text>
<polyline fill="none" stroke="black" points="27.5,-1293.5 150.5,-1293.5 "/>
<text text-anchor="start" x="35.5" y="-1281.5" font-family="Helvetica,sans-Serif" font-size="10.00"># observationCounter</text>
<polyline fill="none" stroke="black" points="27.5,-1274.5 150.5,-1274.5 "/>
<text text-anchor="start" x="35.5" y="-1262.5" font-family="Helvetica,sans-Serif" font-size="10.00">+ isObserved()</text>
</a>
</g>
</g>
<!-- Node4&#45;&gt;Node3 -->
<g id="edge3" class="edge">
<title>Node4&#45;&gt;Node3</title>
<path fill="none" stroke="midnightblue" d="M89,-1245.07C89,-1236.66 89,-1227.34 89,-1217.63"/>
<polygon fill="none" stroke="midnightblue" points="85.5,-1245.19 89,-1255.19 92.5,-1245.19 85.5,-1245.19"/>
</g>
<!-- Node5 -->
<g id="node5" class="node">
<title>Node5</title>
<g id="a_node5"><a xlink:href="classnet_1_1socket_1_1tcp_1_1_socket.html" target="_top" xlink:title=" ">
<polygon fill="white" stroke="black" points="173,-823.5 173,-957.5 295,-957.5 295,-823.5 173,-823.5"/>
<text text-anchor="middle" x="234" y="-945.5" font-family="Helvetica,sans-Serif" font-size="10.00">net::socket::tcp::Socket</text>
<polyline fill="none" stroke="black" points="173,-938.5 295,-938.5 "/>
<text text-anchor="start" x="181" y="-926.5" font-family="Helvetica,sans-Serif" font-size="10.00"># localAddress</text>
<polyline fill="none" stroke="black" points="173,-919.5 295,-919.5 "/>
<text text-anchor="start" x="181" y="-907.5" font-family="Helvetica,sans-Serif" font-size="10.00">+ Socket()</text>
<text text-anchor="start" x="181" y="-896.5" font-family="Helvetica,sans-Serif" font-size="10.00">+ Socket()</text>
<text text-anchor="start" x="181" y="-885.5" font-family="Helvetica,sans-Serif" font-size="10.00">+ operator=()</text>
<text text-anchor="start" x="181" y="-874.5" font-family="Helvetica,sans-Serif" font-size="10.00">+ ~Socket()</text>
<text text-anchor="start" x="181" y="-863.5" font-family="Helvetica,sans-Serif" font-size="10.00">+ open()</text>
<text text-anchor="start" x="181" y="-852.5" font-family="Helvetica,sans-Serif" font-size="10.00">+ bind()</text>
<text text-anchor="start" x="181" y="-841.5" font-family="Helvetica,sans-Serif" font-size="10.00">+ getLocalAddress()</text>
<text text-anchor="start" x="181" y="-830.5" font-family="Helvetica,sans-Serif" font-size="10.00">+ setLocalAddress()</text>
</a>
</g>
</g>
<!-- Node5&#45;&gt;Node1 -->
<g id="edge4" class="edge">
<title>Node5&#45;&gt;Node1</title>
<path fill="none" stroke="midnightblue" d="M211.59,-813.68C208.92,-804.64 206.13,-795.21 203.3,-785.61"/>
<polygon fill="none" stroke="midnightblue" points="208.25,-814.71 214.44,-823.31 214.96,-812.73 208.25,-814.71"/>
</g>
<!-- Node6 -->
<g id="node6" class="node">
<title>Node6</title>
<g id="a_node6"><a xlink:href="classnet_1_1_descriptor.html" target="_top" xlink:title=" ">
<polygon fill="white" stroke="black" points="192.5,-1039.5 192.5,-1173.5 275.5,-1173.5 275.5,-1039.5 192.5,-1039.5"/>
<text text-anchor="middle" x="234" y="-1161.5" font-family="Helvetica,sans-Serif" font-size="10.00">net::Descriptor</text>
<polyline fill="none" stroke="black" points="192.5,-1154.5 275.5,-1154.5 "/>
<text text-anchor="start" x="200.5" y="-1142.5" font-family="Helvetica,sans-Serif" font-size="10.00">+ none</text>
<text text-anchor="start" x="200.5" y="-1131.5" font-family="Helvetica,sans-Serif" font-size="10.00">&#45; fd</text>
<polyline fill="none" stroke="black" points="192.5,-1124.5 275.5,-1124.5 "/>
<text text-anchor="start" x="200.5" y="-1112.5" font-family="Helvetica,sans-Serif" font-size="10.00">+ Descriptor()</text>
<text text-anchor="start" x="200.5" y="-1101.5" font-family="Helvetica,sans-Serif" font-size="10.00">+ operator=()</text>
<text text-anchor="start" x="200.5" y="-1090.5" font-family="Helvetica,sans-Serif" font-size="10.00">+ ~Descriptor()</text>
<text text-anchor="start" x="200.5" y="-1079.5" font-family="Helvetica,sans-Serif" font-size="10.00">+ open()</text>
<text text-anchor="start" x="200.5" y="-1068.5" font-family="Helvetica,sans-Serif" font-size="10.00">+ getFd()</text>
<text text-anchor="start" x="200.5" y="-1057.5" font-family="Helvetica,sans-Serif" font-size="10.00">+ dontClose()</text>
<text text-anchor="start" x="200.5" y="-1046.5" font-family="Helvetica,sans-Serif" font-size="10.00"># Descriptor()</text>
</a>
</g>
</g>
<!-- Node6&#45;&gt;Node5 -->
<g id="edge5" class="edge">
<title>Node6&#45;&gt;Node5</title>
<path fill="none" stroke="midnightblue" d="M234,-1029.07C234,-1005.77 234,-980.37 234,-957.8"/>
<polygon fill="none" stroke="midnightblue" points="230.5,-1029.25 234,-1039.25 237.5,-1029.25 230.5,-1029.25"/>
</g>
<!-- Node8 -->
<g id="node8" class="node">
<title>Node8</title>
<g id="a_node8"><a xlink:href="classnet_1_1socket_1_1tcp_1_1tls_1_1_socket_listener.html" target="_top" xlink:title=" ">
<polygon fill="white" stroke="black" points="22.5,-0.5 22.5,-101.5 125.5,-101.5 125.5,-0.5 22.5,-0.5"/>
<text text-anchor="start" x="30.5" y="-89.5" font-family="Helvetica,sans-Serif" font-size="10.00">net::socket::tcp::tls</text>
<text text-anchor="middle" x="74" y="-78.5" font-family="Helvetica,sans-Serif" font-size="10.00">::SocketListener</text>
<polyline fill="none" stroke="black" points="22.5,-71.5 125.5,-71.5 "/>
<text text-anchor="start" x="30.5" y="-59.5" font-family="Helvetica,sans-Serif" font-size="10.00">&#45; ctx</text>
<text text-anchor="start" x="30.5" y="-48.5" font-family="Helvetica,sans-Serif" font-size="10.00">&#45; sslErr</text>
<polyline fill="none" stroke="black" points="22.5,-41.5 125.5,-41.5 "/>
<text text-anchor="start" x="30.5" y="-29.5" font-family="Helvetica,sans-Serif" font-size="10.00">+ SocketListener()</text>
<text text-anchor="start" x="30.5" y="-18.5" font-family="Helvetica,sans-Serif" font-size="10.00">+ ~SocketListener()</text>
<text text-anchor="start" x="30.5" y="-7.5" font-family="Helvetica,sans-Serif" font-size="10.00">+ listen()</text>
</a>
</g>
</g>
<!-- Node7&#45;&gt;Node8 -->
<g id="edge7" class="edge">
<title>Node7&#45;&gt;Node8</title>
<path fill="none" stroke="midnightblue" d="M74,-129.08C74,-119.49 74,-110.32 74,-101.85"/>
<polygon fill="none" stroke="midnightblue" points="70.5,-129.21 74,-139.21 77.5,-129.21 70.5,-129.21"/>
</g>
<!-- Node10 -->
<g id="node10" class="node">
<title>Node10</title>
<g id="a_node10"><a xlink:href="classnet_1_1socket_1_1tcp_1_1legacy_1_1_socket_listener.html" target="_top" xlink:title=" ">
<polygon fill="white" stroke="black" points="189.5,-17 189.5,-85 308.5,-85 308.5,-17 189.5,-17"/>
<text text-anchor="start" x="197.5" y="-73" font-family="Helvetica,sans-Serif" font-size="10.00">net::socket::tcp::legacy</text>
<text text-anchor="middle" x="249" y="-62" font-family="Helvetica,sans-Serif" font-size="10.00">::SocketListener</text>
<polyline fill="none" stroke="black" points="189.5,-55 308.5,-55 "/>
<text text-anchor="middle" x="249" y="-43" font-family="Helvetica,sans-Serif" font-size="10.00"> </text>
<polyline fill="none" stroke="black" points="189.5,-36 308.5,-36 "/>
<text text-anchor="middle" x="249" y="-24" font-family="Helvetica,sans-Serif" font-size="10.00"> </text>
</a>
</g>
</g>
<!-- Node9&#45;&gt;Node10 -->
<g id="edge9" class="edge">
<title>Node9&#45;&gt;Node10</title>
<path fill="none" stroke="midnightblue" d="M249,-128.99C249,-112.8 249,-97.78 249,-85.39"/>
<polygon fill="none" stroke="midnightblue" points="245.5,-129.21 249,-139.21 252.5,-129.21 245.5,-129.21"/>
</g>
</g>
</svg>
