<?xml version="1.0" encoding="UTF-8" standalone="no"?>
<!DOCTYPE svg PUBLIC "-//W3C//DTD SVG 1.1//EN"
 "http://www.w3.org/Graphics/SVG/1.1/DTD/svg11.dtd">
<!-- Generated by graphviz version 2.43.0 (0)
 -->
<!-- Title: net::DescriptorEventReceiver::isEnabled Pages: 1 -->
<svg width="1161pt" height="832pt"
 viewBox="0.00 0.00 1161.00 831.50" xmlns="http://www.w3.org/2000/svg" xmlns:xlink="http://www.w3.org/1999/xlink">
<g id="graph0" class="graph" transform="scale(1 1) rotate(0) translate(4 827.5)">
<title>net::DescriptorEventReceiver::isEnabled</title>
<polygon fill="white" stroke="transparent" points="-4,4 -4,-827.5 1157,-827.5 1157,4 -4,4"/>
<!-- Node1 -->
<g id="node1" class="node">
<title>Node1</title>
<g id="a_node1"><a xlink:title=" ">
<polygon fill="#bfbfbf" stroke="black" points="1007,-180 1007,-210 1153,-210 1153,-180 1007,-180"/>
<text text-anchor="start" x="1015" y="-198" font-family="Helvetica,sans-Serif" font-size="10.00">net::DescriptorEventReceiver</text>
<text text-anchor="middle" x="1080" y="-187" font-family="Helvetica,sans-Serif" font-size="10.00">::isEnabled</text>
</a>
</g>
</g>
<!-- Node2 -->
<g id="node2" class="node">
<title>Node2</title>
<g id="a_node2"><a xlink:href="classnet_1_1_descriptor_event_dispatcher.html#a0f682135c09bd279cd315a0bdf885473" target="_top" xlink:title=" ">
<polygon fill="white" stroke="black" points="817,-454 817,-484 971,-484 971,-454 817,-454"/>
<text text-anchor="start" x="825" y="-472" font-family="Helvetica,sans-Serif" font-size="10.00">net::DescriptorEventDispatcher</text>
<text text-anchor="middle" x="894" y="-461" font-family="Helvetica,sans-Serif" font-size="10.00">::disable</text>
</a>
</g>
</g>
<!-- Node1&#45;&gt;Node2 -->
<g id="edge1" class="edge">
<title>Node1&#45;&gt;Node2</title>
<path fill="none" stroke="midnightblue" d="M1063.21,-218.51C1026.38,-273.36 935.56,-408.61 905.12,-453.93"/>
<polygon fill="midnightblue" stroke="midnightblue" points="1066.18,-220.37 1068.85,-210.12 1060.36,-216.47 1066.18,-220.37"/>
</g>
<!-- Node5 -->
<g id="node5" class="node">
<title>Node5</title>
<g id="a_node5"><a xlink:href="classnet_1_1socket_1_1stream_1_1tls_1_1_socket_connection.html#af1a4936b2d84a553285fbdf1de7dd716" target="_top" xlink:title=" ">
<polygon fill="white" stroke="black" points="151,-300.5 151,-341.5 270,-341.5 270,-300.5 151,-300.5"/>
<text text-anchor="start" x="159" y="-329.5" font-family="Helvetica,sans-Serif" font-size="10.00">net::socket::stream</text>
<text text-anchor="start" x="159" y="-318.5" font-family="Helvetica,sans-Serif" font-size="10.00">::tls::SocketConnection</text>
<text text-anchor="middle" x="210.5" y="-307.5" font-family="Helvetica,sans-Serif" font-size="10.00">::doSSLHandshake</text>
</a>
</g>
</g>
<!-- Node1&#45;&gt;Node5 -->
<g id="edge15" class="edge">
<title>Node1&#45;&gt;Node5</title>
<path fill="none" stroke="midnightblue" d="M1044.72,-215.19C980.93,-250.79 838.68,-321 709,-321 709,-321 709,-321 527,-321 437.44,-321 333.59,-321 270.23,-321"/>
<polygon fill="midnightblue" stroke="midnightblue" points="1046.57,-218.16 1053.55,-210.2 1043.13,-212.07 1046.57,-218.16"/>
</g>
<!-- Node16 -->
<g id="node16" class="node">
<title>Node16</title>
<g id="a_node16"><a xlink:href="classnet_1_1_descriptor_event_dispatcher.html#a73814f761935ca747c521b3ce46c2689" target="_top" xlink:title=" ">
<polygon fill="white" stroke="black" points="817,-202 817,-232 971,-232 971,-202 817,-202"/>
<text text-anchor="start" x="825" y="-220" font-family="Helvetica,sans-Serif" font-size="10.00">net::DescriptorEventDispatcher</text>
<text text-anchor="middle" x="894" y="-209" font-family="Helvetica,sans-Serif" font-size="10.00">::enable</text>
</a>
</g>
</g>
<!-- Node1&#45;&gt;Node16 -->
<g id="edge16" class="edge">
<title>Node1&#45;&gt;Node16</title>
<path fill="none" stroke="midnightblue" d="M996.86,-204.82C988.33,-205.84 979.69,-206.87 971.23,-207.89"/>
<polygon fill="midnightblue" stroke="midnightblue" points="997.29,-208.29 1006.81,-203.63 996.46,-201.34 997.29,-208.29"/>
</g>
<!-- Node20 -->
<g id="node20" class="node">
<title>Node20</title>
<g id="a_node20"><a xlink:href="classnet_1_1socket_1_1stream_1_1_socket_writer.html#ae16df4c60aae8709a438fb539a5547db" target="_top" xlink:title=" ">
<polygon fill="white" stroke="black" points="467,-6 467,-36 589,-36 589,-6 467,-6"/>
<text text-anchor="start" x="475" y="-24" font-family="Helvetica,sans-Serif" font-size="10.00">net::socket::stream</text>
<text text-anchor="middle" x="528" y="-13" font-family="Helvetica,sans-Serif" font-size="10.00">::SocketWriter::enqueue</text>
</a>
</g>
</g>
<!-- Node1&#45;&gt;Node20 -->
<g id="edge31" class="edge">
<title>Node1&#45;&gt;Node20</title>
<path fill="none" stroke="midnightblue" d="M996.51,-188.2C944.17,-182.32 875.52,-171.71 817,-153 714.01,-120.07 698.8,-86.62 599,-45 591.53,-41.88 583.5,-38.85 575.63,-36.04"/>
<polygon fill="midnightblue" stroke="midnightblue" points="996.44,-191.71 1006.76,-189.31 997.19,-184.75 996.44,-191.71"/>
</g>
<!-- Node28 -->
<g id="node28" class="node">
<title>Node28</title>
<g id="a_node28"><a xlink:href="classnet_1_1socket_1_1stream_1_1_socket_reader.html#afa1c473218f5caf4affc4060f475f2d9" target="_top" xlink:title=" ">
<polygon fill="white" stroke="black" points="827.5,-114 827.5,-144 960.5,-144 960.5,-114 827.5,-114"/>
<text text-anchor="start" x="835.5" y="-132" font-family="Helvetica,sans-Serif" font-size="10.00">net::socket::stream</text>
<text text-anchor="middle" x="894" y="-121" font-family="Helvetica,sans-Serif" font-size="10.00">::SocketReader::shutdown</text>
</a>
</g>
</g>
<!-- Node1&#45;&gt;Node28 -->
<g id="edge32" class="edge">
<title>Node1&#45;&gt;Node28</title>
<path fill="none" stroke="midnightblue" d="M1027.01,-176.35C998.55,-166.14 963.74,-153.66 937.02,-144.07"/>
<polygon fill="midnightblue" stroke="midnightblue" points="1026.19,-179.78 1036.79,-179.86 1028.56,-173.19 1026.19,-179.78"/>
</g>
<!-- Node29 -->
<g id="node29" class="node">
<title>Node29</title>
<g id="a_node29"><a xlink:href="classnet_1_1socket_1_1stream_1_1_socket_writer.html#a5f00bdf49b2913b580bcde09606a4089" target="_top" xlink:title=" ">
<polygon fill="white" stroke="black" points="830.5,-65 830.5,-95 957.5,-95 957.5,-65 830.5,-65"/>
<text text-anchor="start" x="838.5" y="-83" font-family="Helvetica,sans-Serif" font-size="10.00">net::socket::stream</text>
<text text-anchor="middle" x="894" y="-72" font-family="Helvetica,sans-Serif" font-size="10.00">::SocketWriter::shutdown</text>
</a>
</g>
</g>
<!-- Node1&#45;&gt;Node29 -->
<g id="edge33" class="edge">
<title>Node1&#45;&gt;Node29</title>
<path fill="none" stroke="midnightblue" d="M1057.8,-172.66C1037.31,-152.22 1004.52,-122.45 971,-104 964.94,-100.66 958.35,-97.72 951.66,-95.13"/>
<polygon fill="midnightblue" stroke="midnightblue" points="1055.51,-175.32 1065.03,-179.99 1060.5,-170.41 1055.51,-175.32"/>
</g>
<!-- Node3 -->
<g id="node3" class="node">
<title>Node3</title>
<g id="a_node3"><a xlink:href="classnet_1_1_descriptor_event_receiver.html#a71d48a9e0030918589d901b834e07327" target="_top" xlink:title=" ">
<polygon fill="white" stroke="black" points="635,-558 635,-588 781,-588 781,-558 635,-558"/>
<text text-anchor="start" x="643" y="-576" font-family="Helvetica,sans-Serif" font-size="10.00">net::DescriptorEventReceiver</text>
<text text-anchor="middle" x="708" y="-565" font-family="Helvetica,sans-Serif" font-size="10.00">::disable</text>
</a>
</g>
</g>
<!-- Node2&#45;&gt;Node3 -->
<g id="edge2" class="edge">
<title>Node2&#45;&gt;Node3</title>
<path fill="none" stroke="midnightblue" d="M857.17,-489.25C821.58,-509.37 767.83,-539.75 735.79,-557.86"/>
<polygon fill="midnightblue" stroke="midnightblue" points="859.26,-492.09 866.24,-484.12 855.82,-486 859.26,-492.09"/>
</g>
<!-- Node4 -->
<g id="node4" class="node">
<title>Node4</title>
<g id="a_node4"><a xlink:href="classnet_1_1socket_1_1stream_1_1_socket_connection.html#ad80107c21f19c407619fc28425db1d40" target="_top" xlink:title=" ">
<polygon fill="white" stroke="black" points="462,-646 462,-676 594,-676 594,-646 462,-646"/>
<text text-anchor="start" x="470" y="-664" font-family="Helvetica,sans-Serif" font-size="10.00">net::socket::stream</text>
<text text-anchor="middle" x="528" y="-653" font-family="Helvetica,sans-Serif" font-size="10.00">::SocketConnection::close</text>
</a>
</g>
</g>
<!-- Node3&#45;&gt;Node4 -->
<g id="edge3" class="edge">
<title>Node3&#45;&gt;Node4</title>
<path fill="none" stroke="midnightblue" d="M671.43,-593.12C650.56,-604.67 623.55,-619.17 599,-631 588.4,-636.11 576.71,-641.29 565.97,-645.88"/>
<polygon fill="midnightblue" stroke="midnightblue" points="673.23,-596.13 680.26,-588.21 669.82,-590.01 673.23,-596.13"/>
</g>
<!-- Node3&#45;&gt;Node5 -->
<g id="edge4" class="edge">
<title>Node3&#45;&gt;Node5</title>
<path fill="none" stroke="midnightblue" d="M659.89,-591.32C607.87,-608.53 522.77,-627.59 457,-598 335.7,-543.42 250.05,-396 221.71,-341.56"/>
<polygon fill="midnightblue" stroke="midnightblue" points="661.2,-594.57 669.53,-588.03 658.93,-587.95 661.2,-594.57"/>
</g>
<!-- Node8 -->
<g id="node8" class="node">
<title>Node8</title>
<g id="a_node8"><a xlink:href="classnet_1_1socket_1_1stream_1_1_socket_listener.html#a1f2d699a1d63343e7f2ef2cdd434da00" target="_top" xlink:title=" ">
<polygon fill="white" stroke="black" points="473,-558 473,-588 583,-588 583,-558 473,-558"/>
<text text-anchor="start" x="481" y="-576" font-family="Helvetica,sans-Serif" font-size="10.00">net::socket::stream</text>
<text text-anchor="middle" x="528" y="-565" font-family="Helvetica,sans-Serif" font-size="10.00">::SocketListener::end</text>
</a>
</g>
</g>
<!-- Node3&#45;&gt;Node8 -->
<g id="edge7" class="edge">
<title>Node3&#45;&gt;Node8</title>
<path fill="none" stroke="midnightblue" d="M624.67,-573C610.6,-573 596.3,-573 583.2,-573"/>
<polygon fill="midnightblue" stroke="midnightblue" points="624.86,-576.5 634.86,-573 624.86,-569.5 624.86,-576.5"/>
</g>
<!-- Node9 -->
<g id="node9" class="node">
<title>Node9</title>
<g id="a_node9"><a xlink:href="classnet_1_1stream_1_1_pipe_source.html#ade562b3d0a9540b9ea8664c111daa857" target="_top" xlink:title=" ">
<polygon fill="white" stroke="black" points="457,-519.5 457,-538.5 599,-538.5 599,-519.5 457,-519.5"/>
<text text-anchor="middle" x="528" y="-526.5" font-family="Helvetica,sans-Serif" font-size="10.00">net::stream::PipeSource::eof</text>
</a>
</g>
</g>
<!-- Node3&#45;&gt;Node9 -->
<g id="edge8" class="edge">
<title>Node3&#45;&gt;Node9</title>
<path fill="none" stroke="midnightblue" d="M636.31,-555.53C612.84,-549.72 587.59,-543.48 567.48,-538.51"/>
<polygon fill="midnightblue" stroke="midnightblue" points="635.69,-558.98 646.24,-557.98 637.37,-552.18 635.69,-558.98"/>
</g>
<!-- Node10 -->
<g id="node10" class="node">
<title>Node10</title>
<g id="a_node10"><a xlink:href="classnet_1_1socket_1_1stream_1_1_socket_reader.html#ab61867e53c7aeaf9c51cfaa19ddd060b" target="_top" xlink:title=" ">
<polygon fill="white" stroke="black" points="460.5,-470 460.5,-500 595.5,-500 595.5,-470 460.5,-470"/>
<text text-anchor="start" x="468.5" y="-488" font-family="Helvetica,sans-Serif" font-size="10.00">net::socket::stream</text>
<text text-anchor="middle" x="528" y="-477" font-family="Helvetica,sans-Serif" font-size="10.00">::SocketReader::readEvent</text>
</a>
</g>
</g>
<!-- Node3&#45;&gt;Node10 -->
<g id="edge9" class="edge">
<title>Node3&#45;&gt;Node10</title>
<path fill="none" stroke="midnightblue" d="M675.52,-552.55C654.41,-539.36 625.69,-522.42 599,-510 591.4,-506.46 583.14,-503.11 575.05,-500.07"/>
<polygon fill="midnightblue" stroke="midnightblue" points="673.75,-555.57 684.08,-557.95 677.49,-549.65 673.75,-555.57"/>
</g>
<!-- Node11 -->
<g id="node11" class="node">
<title>Node11</title>
<g id="a_node11"><a xlink:href="classnet_1_1socket_1_1stream_1_1tls_1_1_t_l_s_handshake.html#a35bcd6ef7b0b5581fcc7cb56873edb30" target="_top" xlink:title=" ">
<polygon fill="white" stroke="black" points="474.5,-409.5 474.5,-450.5 581.5,-450.5 581.5,-409.5 474.5,-409.5"/>
<text text-anchor="start" x="482.5" y="-438.5" font-family="Helvetica,sans-Serif" font-size="10.00">net::socket::stream</text>
<text text-anchor="start" x="482.5" y="-427.5" font-family="Helvetica,sans-Serif" font-size="10.00">::tls::TLSHandshake</text>
<text text-anchor="middle" x="528" y="-416.5" font-family="Helvetica,sans-Serif" font-size="10.00">::readEvent</text>
</a>
</g>
</g>
<!-- Node3&#45;&gt;Node11 -->
<g id="edge10" class="edge">
<title>Node3&#45;&gt;Node11</title>
<path fill="none" stroke="midnightblue" d="M689.14,-549.7C669.29,-525.07 635.24,-486.34 599,-461 593.55,-457.19 587.56,-453.69 581.45,-450.52"/>
<polygon fill="midnightblue" stroke="midnightblue" points="686.59,-552.12 695.54,-557.78 692.07,-547.77 686.59,-552.12"/>
</g>
<!-- Node12 -->
<g id="node12" class="node">
<title>Node12</title>
<g id="a_node12"><a xlink:href="classnet_1_1stream_1_1_pipe_sink.html#ac5d03738aa3630076fcf27b18b232b71" target="_top" xlink:title=" ">
<polygon fill="white" stroke="black" points="472.5,-793 472.5,-823 583.5,-823 583.5,-793 472.5,-793"/>
<text text-anchor="start" x="480.5" y="-811" font-family="Helvetica,sans-Serif" font-size="10.00">net::stream::PipeSink</text>
<text text-anchor="middle" x="528" y="-800" font-family="Helvetica,sans-Serif" font-size="10.00">::readEvent</text>
</a>
</g>
</g>
<!-- Node3&#45;&gt;Node12 -->
<g id="edge11" class="edge">
<title>Node3&#45;&gt;Node12</title>
<path fill="none" stroke="midnightblue" d="M700.83,-598.06C688.76,-641.96 657.9,-732.96 599,-784 594.44,-787.95 589.19,-791.27 583.66,-794.04"/>
<polygon fill="midnightblue" stroke="midnightblue" points="704.26,-598.77 703.44,-588.21 697.5,-596.98 704.26,-598.77"/>
</g>
<!-- Node13 -->
<g id="node13" class="node">
<title>Node13</title>
<g id="a_node13"><a xlink:href="classnet_1_1socket_1_1stream_1_1_socket_writer.html#aa5212806acd0460108b81ad5fc14807d" target="_top" xlink:title=" ">
<polygon fill="white" stroke="black" points="462.5,-744 462.5,-774 593.5,-774 593.5,-744 462.5,-744"/>
<text text-anchor="start" x="470.5" y="-762" font-family="Helvetica,sans-Serif" font-size="10.00">net::socket::stream</text>
<text text-anchor="middle" x="528" y="-751" font-family="Helvetica,sans-Serif" font-size="10.00">::SocketWriter::writeEvent</text>
</a>
</g>
</g>
<!-- Node3&#45;&gt;Node13 -->
<g id="edge12" class="edge">
<title>Node3&#45;&gt;Node13</title>
<path fill="none" stroke="midnightblue" d="M696.65,-597.95C680.75,-633.36 647.01,-698.01 599,-735 594.52,-738.45 589.52,-741.42 584.3,-743.98"/>
<polygon fill="midnightblue" stroke="midnightblue" points="700.04,-598.94 700.84,-588.37 693.63,-596.13 700.04,-598.94"/>
</g>
<!-- Node14 -->
<g id="node14" class="node">
<title>Node14</title>
<g id="a_node14"><a xlink:href="classnet_1_1socket_1_1stream_1_1tls_1_1_t_l_s_handshake.html#a4f9fdbda5c8978a21a402013f153cbca" target="_top" xlink:title=" ">
<polygon fill="white" stroke="black" points="474.5,-349.5 474.5,-390.5 581.5,-390.5 581.5,-349.5 474.5,-349.5"/>
<text text-anchor="start" x="482.5" y="-378.5" font-family="Helvetica,sans-Serif" font-size="10.00">net::socket::stream</text>
<text text-anchor="start" x="482.5" y="-367.5" font-family="Helvetica,sans-Serif" font-size="10.00">::tls::TLSHandshake</text>
<text text-anchor="middle" x="528" y="-356.5" font-family="Helvetica,sans-Serif" font-size="10.00">::writeEvent</text>
</a>
</g>
</g>
<!-- Node3&#45;&gt;Node14 -->
<g id="edge13" class="edge">
<title>Node3&#45;&gt;Node14</title>
<path fill="none" stroke="midnightblue" d="M697.38,-548.44C681.83,-511.61 647.89,-441.92 599,-400 593.78,-395.52 587.79,-391.63 581.57,-388.26"/>
<polygon fill="midnightblue" stroke="midnightblue" points="694.23,-550 701.28,-557.91 700.71,-547.33 694.23,-550"/>
</g>
<!-- Node15 -->
<g id="node15" class="node">
<title>Node15</title>
<g id="a_node15"><a xlink:href="classnet_1_1stream_1_1_pipe_source.html#a18f1ac9bf60b45f9c00467afdfc4c376" target="_top" xlink:title=" ">
<polygon fill="white" stroke="black" points="467,-695 467,-725 589,-725 589,-695 467,-695"/>
<text text-anchor="start" x="475" y="-713" font-family="Helvetica,sans-Serif" font-size="10.00">net::stream::PipeSource</text>
<text text-anchor="middle" x="528" y="-702" font-family="Helvetica,sans-Serif" font-size="10.00">::writeEvent</text>
</a>
</g>
</g>
<!-- Node3&#45;&gt;Node15 -->
<g id="edge14" class="edge">
<title>Node3&#45;&gt;Node15</title>
<path fill="none" stroke="midnightblue" d="M690.23,-596.31C670.88,-621.67 636.83,-661.8 599,-686 593.7,-689.39 587.86,-692.37 581.89,-694.96"/>
<polygon fill="midnightblue" stroke="midnightblue" points="693.25,-598.11 696.44,-588.01 687.65,-593.92 693.25,-598.11"/>
</g>
<!-- Node6 -->
<g id="node6" class="node">
<title>Node6</title>
<g id="a_node6"><a xlink:href="classnet_1_1socket_1_1stream_1_1tls_1_1_socket_connector.html#a4c8ddbd0f6bbaa2c3109f27ee3ba4884" target="_top" xlink:title=" ">
<polygon fill="white" stroke="black" points="0,-330.5 0,-371.5 115,-371.5 115,-330.5 0,-330.5"/>
<text text-anchor="start" x="8" y="-359.5" font-family="Helvetica,sans-Serif" font-size="10.00">net::socket::stream</text>
<text text-anchor="start" x="8" y="-348.5" font-family="Helvetica,sans-Serif" font-size="10.00">::tls::SocketConnector</text>
<text text-anchor="middle" x="57.5" y="-337.5" font-family="Helvetica,sans-Serif" font-size="10.00">::SocketConnector</text>
</a>
</g>
</g>
<!-- Node5&#45;&gt;Node6 -->
<g id="edge5" class="edge">
<title>Node5&#45;&gt;Node6</title>
<path fill="none" stroke="midnightblue" d="M140.8,-334.65C132.31,-336.34 123.71,-338.05 115.42,-339.69"/>
<polygon fill="midnightblue" stroke="midnightblue" points="141.56,-338.07 150.69,-332.68 140.2,-331.2 141.56,-338.07"/>
</g>
<!-- Node7 -->
<g id="node7" class="node">
<title>Node7</title>
<g id="a_node7"><a xlink:href="classnet_1_1socket_1_1stream_1_1tls_1_1_socket_listener.html#ad1d1eb7183eef5998ab8d47d86939560" target="_top" xlink:title=" ">
<polygon fill="white" stroke="black" points="5.5,-270.5 5.5,-311.5 109.5,-311.5 109.5,-270.5 5.5,-270.5"/>
<text text-anchor="start" x="13.5" y="-299.5" font-family="Helvetica,sans-Serif" font-size="10.00">net::socket::stream</text>
<text text-anchor="start" x="13.5" y="-288.5" font-family="Helvetica,sans-Serif" font-size="10.00">::tls::SocketListener</text>
<text text-anchor="middle" x="57.5" y="-277.5" font-family="Helvetica,sans-Serif" font-size="10.00">::SocketListener</text>
</a>
</g>
</g>
<!-- Node5&#45;&gt;Node7 -->
<g id="edge6" class="edge">
<title>Node5&#45;&gt;Node7</title>
<path fill="none" stroke="midnightblue" d="M140.71,-307.33C130.23,-305.25 119.57,-303.13 109.55,-301.14"/>
<polygon fill="midnightblue" stroke="midnightblue" points="140.2,-310.8 150.69,-309.32 141.56,-303.93 140.2,-310.8"/>
</g>
<!-- Node17 -->
<g id="node17" class="node">
<title>Node17</title>
<g id="a_node17"><a xlink:href="classnet_1_1_descriptor_event_receiver.html#a60717df80503a37fd4d3e7ce8dc3777d" target="_top" xlink:title=" ">
<polygon fill="white" stroke="black" points="635,-202 635,-232 781,-232 781,-202 635,-202"/>
<text text-anchor="start" x="643" y="-220" font-family="Helvetica,sans-Serif" font-size="10.00">net::DescriptorEventReceiver</text>
<text text-anchor="middle" x="708" y="-209" font-family="Helvetica,sans-Serif" font-size="10.00">::enable</text>
</a>
</g>
</g>
<!-- Node16&#45;&gt;Node17 -->
<g id="edge17" class="edge">
<title>Node16&#45;&gt;Node17</title>
<path fill="none" stroke="midnightblue" d="M806.56,-217C798.1,-217 789.57,-217 781.27,-217"/>
<polygon fill="midnightblue" stroke="midnightblue" points="806.83,-220.5 816.83,-217 806.83,-213.5 806.83,-220.5"/>
</g>
<!-- Node17&#45;&gt;Node11 -->
<g id="edge26" class="edge">
<title>Node17&#45;&gt;Node11</title>
<path fill="none" stroke="midnightblue" d="M698.29,-241.61C683.49,-280.21 649.99,-355.16 599,-400 593.84,-404.54 587.88,-408.47 581.67,-411.86"/>
<polygon fill="midnightblue" stroke="midnightblue" points="701.59,-242.78 701.8,-232.19 695.03,-240.33 701.59,-242.78"/>
</g>
<!-- Node17&#45;&gt;Node14 -->
<g id="edge30" class="edge">
<title>Node17&#45;&gt;Node14</title>
<path fill="none" stroke="midnightblue" d="M681.57,-238.86C647.3,-268.32 586.7,-320.4 553.11,-349.27"/>
<polygon fill="midnightblue" stroke="midnightblue" points="683.98,-241.4 689.28,-232.23 679.42,-236.09 683.98,-241.4"/>
</g>
<!-- Node18 -->
<g id="node18" class="node">
<title>Node18</title>
<g id="a_node18"><a xlink:href="classnet_1_1socket_1_1stream_1_1_socket_connector.html#a5516c61a39874898d273d7dfd63c97b5" target="_top" xlink:title=" ">
<polygon fill="white" stroke="black" points="458.5,-202 458.5,-232 597.5,-232 597.5,-202 458.5,-202"/>
<text text-anchor="start" x="466.5" y="-220" font-family="Helvetica,sans-Serif" font-size="10.00">net::socket::stream</text>
<text text-anchor="middle" x="528" y="-209" font-family="Helvetica,sans-Serif" font-size="10.00">::SocketConnector::connect</text>
</a>
</g>
</g>
<!-- Node17&#45;&gt;Node18 -->
<g id="edge18" class="edge">
<title>Node17&#45;&gt;Node18</title>
<path fill="none" stroke="midnightblue" d="M624.66,-217C615.57,-217 606.39,-217 597.5,-217"/>
<polygon fill="midnightblue" stroke="midnightblue" points="624.86,-220.5 634.86,-217 624.86,-213.5 624.86,-220.5"/>
</g>
<!-- Node17&#45;&gt;Node20 -->
<g id="edge20" class="edge">
<title>Node17&#45;&gt;Node20</title>
<path fill="none" stroke="midnightblue" d="M645.8,-196.7C641.82,-193.87 638.15,-190.65 635,-187 592.45,-137.72 643.11,-92.89 599,-45 595.87,-41.6 592.23,-38.68 588.29,-36.17"/>
<polygon fill="midnightblue" stroke="midnightblue" points="644,-199.7 654.35,-201.99 647.69,-193.75 644,-199.7"/>
</g>
<!-- Node22 -->
<g id="node22" class="node">
<title>Node22</title>
<g id="a_node22"><a xlink:href="classnet_1_1socket_1_1stream_1_1_socket_listener.html#a7eb787e1fd50bf4109e53d899cb392fb" target="_top" xlink:title=" ">
<polygon fill="white" stroke="black" points="469.5,-153 469.5,-183 586.5,-183 586.5,-153 469.5,-153"/>
<text text-anchor="start" x="477.5" y="-171" font-family="Helvetica,sans-Serif" font-size="10.00">net::socket::stream</text>
<text text-anchor="middle" x="528" y="-160" font-family="Helvetica,sans-Serif" font-size="10.00">::SocketListener::listen</text>
</a>
</g>
</g>
<!-- Node17&#45;&gt;Node22 -->
<g id="edge22" class="edge">
<title>Node17&#45;&gt;Node22</title>
<path fill="none" stroke="midnightblue" d="M642.26,-199.18C623.04,-193.89 602.19,-188.15 583.68,-183.05"/>
<polygon fill="midnightblue" stroke="midnightblue" points="641.57,-202.62 652.14,-201.9 643.43,-195.87 641.57,-202.62"/>
</g>
<!-- Node24 -->
<g id="node24" class="node">
<title>Node24</title>
<g id="a_node24"><a xlink:href="classnet_1_1stream_1_1_pipe_sink.html#a2bee8822639bd0477068ba90ff6b9428" target="_top" xlink:title=" ">
<polygon fill="white" stroke="black" points="472.5,-104 472.5,-134 583.5,-134 583.5,-104 472.5,-104"/>
<text text-anchor="start" x="480.5" y="-122" font-family="Helvetica,sans-Serif" font-size="10.00">net::stream::PipeSink</text>
<text text-anchor="middle" x="528" y="-111" font-family="Helvetica,sans-Serif" font-size="10.00">::PipeSink</text>
</a>
</g>
</g>
<!-- Node17&#45;&gt;Node24 -->
<g id="edge24" class="edge">
<title>Node17&#45;&gt;Node24</title>
<path fill="none" stroke="midnightblue" d="M652.36,-197.66C646.26,-194.51 640.33,-190.97 635,-187 614.73,-171.91 619.74,-157.43 599,-143 594.15,-139.63 588.78,-136.69 583.24,-134.14"/>
<polygon fill="midnightblue" stroke="midnightblue" points="650.85,-200.81 661.38,-201.98 653.87,-194.5 650.85,-200.81"/>
</g>
<!-- Node25 -->
<g id="node25" class="node">
<title>Node25</title>
<g id="a_node25"><a xlink:href="classnet_1_1stream_1_1_pipe_source.html#ab357b50bf7c272ee81131faea37a5f4b" target="_top" xlink:title=" ">
<polygon fill="white" stroke="black" points="467,-55 467,-85 589,-85 589,-55 467,-55"/>
<text text-anchor="start" x="475" y="-73" font-family="Helvetica,sans-Serif" font-size="10.00">net::stream::PipeSource</text>
<text text-anchor="middle" x="528" y="-62" font-family="Helvetica,sans-Serif" font-size="10.00">::PipeSource</text>
</a>
</g>
</g>
<!-- Node17&#45;&gt;Node25 -->
<g id="edge25" class="edge">
<title>Node17&#45;&gt;Node25</title>
<path fill="none" stroke="midnightblue" d="M647.24,-196.89C642.79,-194 638.63,-190.72 635,-187 604.06,-155.26 630.95,-124.72 599,-94 595.39,-90.53 591.25,-87.56 586.84,-85.01"/>
<polygon fill="midnightblue" stroke="midnightblue" points="645.67,-200.03 656.09,-201.97 649.16,-193.96 645.67,-200.03"/>
</g>
<!-- Node26 -->
<g id="node26" class="node">
<title>Node26</title>
<g id="a_node26"><a xlink:href="classnet_1_1socket_1_1stream_1_1tls_1_1_t_l_s_handshake.html#ad0daae6842f143fcf3d1a7c6d667a160" target="_top" xlink:title=" ">
<polygon fill="white" stroke="black" points="474.5,-251.5 474.5,-292.5 581.5,-292.5 581.5,-251.5 474.5,-251.5"/>
<text text-anchor="start" x="482.5" y="-280.5" font-family="Helvetica,sans-Serif" font-size="10.00">net::socket::stream</text>
<text text-anchor="start" x="482.5" y="-269.5" font-family="Helvetica,sans-Serif" font-size="10.00">::tls::TLSHandshake</text>
<text text-anchor="middle" x="528" y="-258.5" font-family="Helvetica,sans-Serif" font-size="10.00">::TLSHandshake</text>
</a>
</g>
</g>
<!-- Node17&#45;&gt;Node26 -->
<g id="edge27" class="edge">
<title>Node17&#45;&gt;Node26</title>
<path fill="none" stroke="midnightblue" d="M648.65,-235.03C627.05,-241.7 602.7,-249.23 581.64,-255.74"/>
<polygon fill="midnightblue" stroke="midnightblue" points="649.84,-238.33 658.36,-232.03 647.77,-231.64 649.84,-238.33"/>
</g>
<!-- Node19 -->
<g id="node19" class="node">
<title>Node19</title>
<g id="a_node19"><a xlink:href="classnet_1_1socket_1_1stream_1_1tls_1_1_socket_connector.html#af2d0a57c6c375da33966155082c5ecaa" target="_top" xlink:title=" ">
<polygon fill="white" stroke="black" points="306,-191.5 306,-232.5 421,-232.5 421,-191.5 306,-191.5"/>
<text text-anchor="start" x="314" y="-220.5" font-family="Helvetica,sans-Serif" font-size="10.00">net::socket::stream</text>
<text text-anchor="start" x="314" y="-209.5" font-family="Helvetica,sans-Serif" font-size="10.00">::tls::SocketConnector</text>
<text text-anchor="middle" x="363.5" y="-198.5" font-family="Helvetica,sans-Serif" font-size="10.00">::connect</text>
</a>
</g>
</g>
<!-- Node18&#45;&gt;Node19 -->
<g id="edge19" class="edge">
<title>Node18&#45;&gt;Node19</title>
<path fill="none" stroke="midnightblue" d="M447.95,-214.57C438.93,-214.29 429.88,-214.01 421.24,-213.75"/>
<polygon fill="midnightblue" stroke="midnightblue" points="447.98,-218.07 458.09,-214.88 448.2,-211.07 447.98,-218.07"/>
</g>
<!-- Node21 -->
<g id="node21" class="node">
<title>Node21</title>
<g id="a_node21"><a xlink:href="classnet_1_1socket_1_1stream_1_1_socket_connection.html#a321fd72fbdb5a439d2d59a0b534c4954" target="_top" xlink:title=" ">
<polygon fill="white" stroke="black" points="309,-0.5 309,-41.5 418,-41.5 418,-0.5 309,-0.5"/>
<text text-anchor="start" x="317" y="-29.5" font-family="Helvetica,sans-Serif" font-size="10.00">net::socket::stream</text>
<text text-anchor="start" x="317" y="-18.5" font-family="Helvetica,sans-Serif" font-size="10.00">::SocketConnection::</text>
<text text-anchor="middle" x="363.5" y="-7.5" font-family="Helvetica,sans-Serif" font-size="10.00">enqueue</text>
</a>
</g>
</g>
<!-- Node20&#45;&gt;Node21 -->
<g id="edge21" class="edge">
<title>Node20&#45;&gt;Node21</title>
<path fill="none" stroke="midnightblue" d="M456.69,-21C443.77,-21 430.47,-21 418.13,-21"/>
<polygon fill="midnightblue" stroke="midnightblue" points="456.95,-24.5 466.95,-21 456.95,-17.5 456.95,-24.5"/>
</g>
<!-- Node23 -->
<g id="node23" class="node">
<title>Node23</title>
<g id="a_node23"><a xlink:href="classnet_1_1socket_1_1stream_1_1tls_1_1_socket_listener.html#a107173c695006d15d5588c98e7fe2aca" target="_top" xlink:title=" ">
<polygon fill="white" stroke="black" points="311.5,-131.5 311.5,-172.5 415.5,-172.5 415.5,-131.5 311.5,-131.5"/>
<text text-anchor="start" x="319.5" y="-160.5" font-family="Helvetica,sans-Serif" font-size="10.00">net::socket::stream</text>
<text text-anchor="start" x="319.5" y="-149.5" font-family="Helvetica,sans-Serif" font-size="10.00">::tls::SocketListener</text>
<text text-anchor="middle" x="363.5" y="-138.5" font-family="Helvetica,sans-Serif" font-size="10.00">::listen</text>
</a>
</g>
</g>
<!-- Node22&#45;&gt;Node23 -->
<g id="edge23" class="edge">
<title>Node22&#45;&gt;Node23</title>
<path fill="none" stroke="midnightblue" d="M459.25,-161.33C444.64,-159.89 429.43,-158.39 415.58,-157.03"/>
<polygon fill="midnightblue" stroke="midnightblue" points="458.96,-164.82 469.25,-162.31 459.64,-157.85 458.96,-164.82"/>
</g>
<!-- Node27 -->
<g id="node27" class="node">
<title>Node27</title>
<g id="a_node27"><a xlink:href="classnet_1_1socket_1_1stream_1_1tls_1_1_t_l_s_handshake.html#a2c4876e61d8860846d4caa2195e46231" target="_top" xlink:title=" ">
<polygon fill="white" stroke="black" points="310,-251.5 310,-292.5 417,-292.5 417,-251.5 310,-251.5"/>
<text text-anchor="start" x="318" y="-280.5" font-family="Helvetica,sans-Serif" font-size="10.00">net::socket::stream</text>
<text text-anchor="start" x="318" y="-269.5" font-family="Helvetica,sans-Serif" font-size="10.00">::tls::TLSHandshake</text>
<text text-anchor="middle" x="363.5" y="-258.5" font-family="Helvetica,sans-Serif" font-size="10.00">::doHandshake</text>
</a>
</g>
</g>
<!-- Node26&#45;&gt;Node27 -->
<g id="edge28" class="edge">
<title>Node26&#45;&gt;Node27</title>
<path fill="none" stroke="midnightblue" d="M464.21,-272C448.7,-272 432.25,-272 417.27,-272"/>
<polygon fill="midnightblue" stroke="midnightblue" points="464.24,-275.5 474.24,-272 464.24,-268.5 464.24,-275.5"/>
</g>
<!-- Node27&#45;&gt;Node5 -->
<g id="edge29" class="edge">
<title>Node27&#45;&gt;Node5</title>
<path fill="none" stroke="midnightblue" d="M299.97,-292.29C290.12,-295.49 279.97,-298.78 270.21,-301.95"/>
<polygon fill="midnightblue" stroke="midnightblue" points="301.26,-295.55 309.69,-289.14 299.1,-288.9 301.26,-295.55"/>
</g>
</g>
</svg>
