<?xml version="1.0" encoding="UTF-8" standalone="no"?>
<!DOCTYPE svg PUBLIC "-//W3C//DTD SVG 1.1//EN"
 "http://www.w3.org/Graphics/SVG/1.1/DTD/svg11.dtd">
<!-- Generated by graphviz version 2.43.0 (0)
 -->
<!-- Title: net::EventLoop::getWriteEventDispatcher Pages: 1 -->
<svg width="765pt" height="325pt"
 viewBox="0.00 0.00 765.00 324.50" xmlns="http://www.w3.org/2000/svg" xmlns:xlink="http://www.w3.org/1999/xlink">
<g id="graph0" class="graph" transform="scale(1 1) rotate(0) translate(4 320.5)">
<title>net::EventLoop::getWriteEventDispatcher</title>
<polygon fill="white" stroke="transparent" points="-4,4 -4,-320.5 761,-320.5 761,4 -4,4"/>
<!-- Node1 -->
<g id="node1" class="node">
<title>Node1</title>
<g id="a_node1"><a xlink:title=" ">
<polygon fill="#bfbfbf" stroke="black" points="632,-121.5 632,-151.5 757,-151.5 757,-121.5 632,-121.5"/>
<text text-anchor="start" x="640" y="-139.5" font-family="Helvetica,sans-Serif" font-size="10.00">net::EventLoop::getWrite</text>
<text text-anchor="middle" x="694.5" y="-128.5" font-family="Helvetica,sans-Serif" font-size="10.00">EventDispatcher</text>
</a>
</g>
</g>
<!-- Node2 -->
<g id="node2" class="node">
<title>Node2</title>
<g id="a_node2"><a xlink:href="classnet_1_1_write_event_receiver.html#a5fde8579d923d80afbd015935d1fdea9" target="_top" xlink:title=" ">
<polygon fill="white" stroke="black" points="473,-154.5 473,-184.5 596,-184.5 596,-154.5 473,-154.5"/>
<text text-anchor="start" x="481" y="-172.5" font-family="Helvetica,sans-Serif" font-size="10.00">net::WriteEventReceiver</text>
<text text-anchor="middle" x="534.5" y="-161.5" font-family="Helvetica,sans-Serif" font-size="10.00">::disable</text>
</a>
</g>
</g>
<!-- Node1&#45;&gt;Node2 -->
<g id="edge1" class="edge">
<title>Node1&#45;&gt;Node2</title>
<path fill="none" stroke="midnightblue" d="M621.91,-151.45C613.29,-153.25 604.54,-155.08 596.09,-156.84"/>
<polygon fill="midnightblue" stroke="midnightblue" points="622.89,-154.82 631.96,-149.35 621.46,-147.97 622.89,-154.82"/>
</g>
<!-- Node7 -->
<g id="node7" class="node">
<title>Node7</title>
<g id="a_node7"><a xlink:href="classnet_1_1_write_event_receiver.html#a5ca2e9b06ac5eef0a80e65520fb109ad" target="_top" xlink:title=" ">
<polygon fill="white" stroke="black" points="473,-88.5 473,-118.5 596,-118.5 596,-88.5 473,-88.5"/>
<text text-anchor="start" x="481" y="-106.5" font-family="Helvetica,sans-Serif" font-size="10.00">net::WriteEventReceiver</text>
<text text-anchor="middle" x="534.5" y="-95.5" font-family="Helvetica,sans-Serif" font-size="10.00">::enable</text>
</a>
</g>
</g>
<!-- Node1&#45;&gt;Node7 -->
<g id="edge6" class="edge">
<title>Node1&#45;&gt;Node7</title>
<path fill="none" stroke="midnightblue" d="M621.91,-121.55C613.29,-119.75 604.54,-117.92 596.09,-116.16"/>
<polygon fill="midnightblue" stroke="midnightblue" points="621.46,-125.03 631.96,-123.65 622.89,-118.18 621.46,-125.03"/>
</g>
<!-- Node3 -->
<g id="node3" class="node">
<title>Node3</title>
<g id="a_node3"><a xlink:href="classnet_1_1socket_1_1stream_1_1_socket_client.html#abf1927a7dd92413fd8bbff997989dbc9" target="_top" xlink:title=" ">
<polygon fill="white" stroke="black" points="263,-72 263,-135 395,-135 395,-72 263,-72"/>
<text text-anchor="start" x="271" y="-123" font-family="Helvetica,sans-Serif" font-size="10.00">net::socket::stream</text>
<text text-anchor="start" x="271" y="-112" font-family="Helvetica,sans-Serif" font-size="10.00">::SocketClient&lt; legacy</text>
<text text-anchor="start" x="271" y="-101" font-family="Helvetica,sans-Serif" font-size="10.00">::SocketConnection&lt; net</text>
<text text-anchor="start" x="271" y="-90" font-family="Helvetica,sans-Serif" font-size="10.00">::socket::ipv4::tcp::Socket</text>
<text text-anchor="middle" x="329" y="-79" font-family="Helvetica,sans-Serif" font-size="10.00"> &gt; &gt;::connect</text>
</a>
</g>
</g>
<!-- Node2&#45;&gt;Node3 -->
<g id="edge2" class="edge">
<title>Node2&#45;&gt;Node3</title>
<path fill="none" stroke="midnightblue" d="M477.55,-151.35C452.03,-143.08 421.66,-133.23 395.13,-124.62"/>
<polygon fill="midnightblue" stroke="midnightblue" points="476.48,-154.69 487.07,-154.44 478.64,-148.03 476.48,-154.69"/>
</g>
<!-- Node4 -->
<g id="node4" class="node">
<title>Node4</title>
<g id="a_node4"><a xlink:href="classnet_1_1socket_1_1stream_1_1_socket_connection.html#a96cb510c89728888ae146c055ef1b05d" target="_top" xlink:title=" ">
<polygon fill="white" stroke="black" points="221,-253 221,-316 437,-316 437,-253 221,-253"/>
<text text-anchor="start" x="229" y="-304" font-family="Helvetica,sans-Serif" font-size="10.00">net::socket::stream</text>
<text text-anchor="start" x="229" y="-293" font-family="Helvetica,sans-Serif" font-size="10.00">::SocketConnection&lt;</text>
<text text-anchor="start" x="229" y="-282" font-family="Helvetica,sans-Serif" font-size="10.00"> legacy::SocketReader</text>
<text text-anchor="start" x="229" y="-271" font-family="Helvetica,sans-Serif" font-size="10.00">&lt; SocketT &gt;, legacy::SocketWriter</text>
<text text-anchor="middle" x="329" y="-260" font-family="Helvetica,sans-Serif" font-size="10.00">&lt; SocketT &gt;, SocketT::SocketAddress &gt;::end</text>
</a>
</g>
</g>
<!-- Node2&#45;&gt;Node4 -->
<g id="edge3" class="edge">
<title>Node2&#45;&gt;Node4</title>
<path fill="none" stroke="midnightblue" d="M509.04,-191.46C490.32,-207.44 463.32,-228.77 437,-243.5 431.1,-246.8 424.87,-249.95 418.52,-252.93"/>
<polygon fill="midnightblue" stroke="midnightblue" points="511.51,-193.95 516.78,-184.75 506.93,-188.66 511.51,-193.95"/>
</g>
<!-- Node5 -->
<g id="node5" class="node">
<title>Node5</title>
<g id="a_node5"><a xlink:href="classnet_1_1socket_1_1stream_1_1_socket_writer.html#aa5212806acd0460108b81ad5fc14807d" target="_top" xlink:title=" ">
<polygon fill="white" stroke="black" points="263.5,-203.5 263.5,-233.5 394.5,-233.5 394.5,-203.5 263.5,-203.5"/>
<text text-anchor="start" x="271.5" y="-221.5" font-family="Helvetica,sans-Serif" font-size="10.00">net::socket::stream</text>
<text text-anchor="middle" x="329" y="-210.5" font-family="Helvetica,sans-Serif" font-size="10.00">::SocketWriter::writeEvent</text>
</a>
</g>
</g>
<!-- Node2&#45;&gt;Node5 -->
<g id="edge4" class="edge">
<title>Node2&#45;&gt;Node5</title>
<path fill="none" stroke="midnightblue" d="M466.8,-187.08C456.82,-189.63 446.65,-192.17 437,-194.5 423.31,-197.81 408.59,-201.21 394.58,-204.37"/>
<polygon fill="midnightblue" stroke="midnightblue" points="467.87,-190.42 476.68,-184.55 466.13,-183.64 467.87,-190.42"/>
</g>
<!-- Node6 -->
<g id="node6" class="node">
<title>Node6</title>
<g id="a_node6"><a xlink:href="classnet_1_1socket_1_1stream_1_1_socket_writer.html#a87c77df771f6ae314164d6a6ef7da640" target="_top" xlink:title=" ">
<polygon fill="white" stroke="black" points="255.5,-154.5 255.5,-184.5 402.5,-184.5 402.5,-154.5 255.5,-154.5"/>
<text text-anchor="start" x="263.5" y="-172.5" font-family="Helvetica,sans-Serif" font-size="10.00">net::socket::stream</text>
<text text-anchor="middle" x="329" y="-161.5" font-family="Helvetica,sans-Serif" font-size="10.00">::SocketWriter::~SocketWriter</text>
</a>
</g>
</g>
<!-- Node2&#45;&gt;Node6 -->
<g id="edge5" class="edge">
<title>Node2&#45;&gt;Node6</title>
<path fill="none" stroke="midnightblue" d="M462.73,-169.5C443.36,-169.5 422.34,-169.5 402.85,-169.5"/>
<polygon fill="midnightblue" stroke="midnightblue" points="462.99,-173 472.99,-169.5 462.99,-166 462.99,-173"/>
</g>
<!-- Node7&#45;&gt;Node3 -->
<g id="edge7" class="edge">
<title>Node7&#45;&gt;Node3</title>
<path fill="none" stroke="midnightblue" d="M462.75,-103.5C440.83,-103.5 416.77,-103.5 395.24,-103.5"/>
<polygon fill="midnightblue" stroke="midnightblue" points="462.99,-107 472.99,-103.5 462.99,-100 462.99,-107"/>
</g>
<!-- Node8 -->
<g id="node8" class="node">
<title>Node8</title>
<g id="a_node8"><a xlink:href="classnet_1_1socket_1_1stream_1_1_socket_writer.html#aa7bdaa904aa90968afb56bbb4f671a6d" target="_top" xlink:title=" ">
<polygon fill="white" stroke="black" points="268,-22.5 268,-52.5 390,-52.5 390,-22.5 268,-22.5"/>
<text text-anchor="start" x="276" y="-40.5" font-family="Helvetica,sans-Serif" font-size="10.00">net::socket::stream</text>
<text text-anchor="middle" x="329" y="-29.5" font-family="Helvetica,sans-Serif" font-size="10.00">::SocketWriter::enqueue</text>
</a>
</g>
</g>
<!-- Node7&#45;&gt;Node8 -->
<g id="edge8" class="edge">
<title>Node7&#45;&gt;Node8</title>
<path fill="none" stroke="midnightblue" d="M492.3,-84.15C475.41,-76.7 455.51,-68.55 437,-62.5 422.04,-57.61 405.61,-53.28 390.21,-49.65"/>
<polygon fill="midnightblue" stroke="midnightblue" points="491.3,-87.53 501.86,-88.42 494.16,-81.15 491.3,-87.53"/>
</g>
<!-- Node9 -->
<g id="node9" class="node">
<title>Node9</title>
<g id="a_node9"><a xlink:href="classnet_1_1socket_1_1stream_1_1_socket_connection.html#ab5931a0a52e2fbcdec5d8c3fba61eb2a" target="_top" xlink:title=" ">
<polygon fill="white" stroke="black" points="0,-0.5 0,-74.5 185,-74.5 185,-0.5 0,-0.5"/>
<text text-anchor="start" x="8" y="-62.5" font-family="Helvetica,sans-Serif" font-size="10.00">net::socket::stream</text>
<text text-anchor="start" x="8" y="-51.5" font-family="Helvetica,sans-Serif" font-size="10.00">::SocketConnection&lt;</text>
<text text-anchor="start" x="8" y="-40.5" font-family="Helvetica,sans-Serif" font-size="10.00"> legacy::SocketReader</text>
<text text-anchor="start" x="8" y="-29.5" font-family="Helvetica,sans-Serif" font-size="10.00">&lt; SocketT &gt;, legacy::SocketWriter</text>
<text text-anchor="start" x="8" y="-18.5" font-family="Helvetica,sans-Serif" font-size="10.00">&lt; SocketT &gt;, SocketT::SocketAddress</text>
<text text-anchor="middle" x="92.5" y="-7.5" font-family="Helvetica,sans-Serif" font-size="10.00"> &gt;::enqueue</text>
</a>
</g>
</g>
<!-- Node8&#45;&gt;Node9 -->
<g id="edge9" class="edge">
<title>Node8&#45;&gt;Node9</title>
<path fill="none" stroke="midnightblue" d="M257.68,-37.5C234.95,-37.5 209.39,-37.5 185.34,-37.5"/>
<polygon fill="midnightblue" stroke="midnightblue" points="257.91,-41 267.91,-37.5 257.91,-34 257.91,-41"/>
</g>
</g>
</svg>
