<?xml version="1.0" encoding="UTF-8" standalone="no"?>
<!DOCTYPE svg PUBLIC "-//W3C//DTD SVG 1.1//EN"
 "http://www.w3.org/Graphics/SVG/1.1/DTD/svg11.dtd">
<!-- Generated by graphviz version 2.43.0 (0)
 -->
<!-- Title: web::http::server::SocketContext::sendToPeerCompleted Pages: 1 -->
<svg width="984pt" height="217pt"
 viewBox="0.00 0.00 984.00 216.50" xmlns="http://www.w3.org/2000/svg" xmlns:xlink="http://www.w3.org/1999/xlink">
<g id="graph0" class="graph" transform="scale(1 1) rotate(0) translate(4 212.5)">
<title>web::http::server::SocketContext::sendToPeerCompleted</title>
<polygon fill="white" stroke="transparent" points="-4,4 -4,-212.5 980,-212.5 980,4 -4,4"/>
<!-- Node1 -->
<g id="node1" class="node">
<title>Node1</title>
<g id="a_node1"><a xlink:title=" ">
<polygon fill="#bfbfbf" stroke="black" points="789,-49.5 789,-79.5 976,-79.5 976,-49.5 789,-49.5"/>
<text text-anchor="start" x="797" y="-67.5" font-family="Helvetica,sans-Serif" font-size="10.00">web::http::server::</text>
<text text-anchor="middle" x="882.5" y="-56.5" font-family="Helvetica,sans-Serif" font-size="10.00">SocketContext::sendToPeerCompleted</text>
</a>
</g>
</g>
<!-- Node2 -->
<g id="node2" class="node">
<title>Node2</title>
<g id="a_node2"><a xlink:href="classweb_1_1http_1_1server_1_1_response.html#a6bdff1ff4fb13a952df7bfefd0b87667" target="_top" xlink:title=" ">
<polygon fill="white" stroke="black" points="649,-49.5 649,-79.5 753,-79.5 753,-49.5 649,-49.5"/>
<text text-anchor="start" x="657" y="-67.5" font-family="Helvetica,sans-Serif" font-size="10.00">web::http::server::</text>
<text text-anchor="middle" x="701" y="-56.5" font-family="Helvetica,sans-Serif" font-size="10.00">Response::enqueue</text>
</a>
</g>
</g>
<!-- Node1&#45;&gt;Node2 -->
<g id="edge1" class="edge">
<title>Node1&#45;&gt;Node2</title>
<path fill="none" stroke="midnightblue" d="M778.62,-64.5C769.95,-64.5 761.45,-64.5 753.45,-64.5"/>
<polygon fill="midnightblue" stroke="midnightblue" points="778.86,-68 788.86,-64.5 778.86,-61 778.86,-68"/>
</g>
<!-- Node3 -->
<g id="node3" class="node">
<title>Node3</title>
<g id="a_node3"><a xlink:href="classweb_1_1http_1_1server_1_1_response.html#a9c5834911394dedb7faed2e52ceb7a1d" target="_top" xlink:title=" ">
<polygon fill="white" stroke="black" points="501.5,-147.5 501.5,-177.5 605.5,-177.5 605.5,-147.5 501.5,-147.5"/>
<text text-anchor="start" x="509.5" y="-165.5" font-family="Helvetica,sans-Serif" font-size="10.00">web::http::server::</text>
<text text-anchor="middle" x="553.5" y="-154.5" font-family="Helvetica,sans-Serif" font-size="10.00">Response::enqueue</text>
</a>
</g>
</g>
<!-- Node2&#45;&gt;Node3 -->
<g id="edge2" class="edge">
<title>Node2&#45;&gt;Node3</title>
<path fill="none" stroke="midnightblue" d="M677.11,-86.95C660.36,-102.55 636.53,-123.04 613,-137.5 607.17,-141.09 600.73,-144.4 594.32,-147.37"/>
<polygon fill="midnightblue" stroke="midnightblue" points="679.88,-89.16 684.74,-79.74 675.07,-84.07 679.88,-89.16"/>
</g>
<!-- Node4 -->
<g id="node4" class="node">
<title>Node4</title>
<g id="a_node4"><a xlink:href="classweb_1_1http_1_1server_1_1_response.html#a6693a2431a465a948bca9ba1593a1f20" target="_top" xlink:title=" ">
<polygon fill="white" stroke="black" points="504.5,-98.5 504.5,-128.5 602.5,-128.5 602.5,-98.5 504.5,-98.5"/>
<text text-anchor="start" x="512.5" y="-116.5" font-family="Helvetica,sans-Serif" font-size="10.00">web::http::server::</text>
<text text-anchor="middle" x="553.5" y="-105.5" font-family="Helvetica,sans-Serif" font-size="10.00">Response::receive</text>
</a>
</g>
</g>
<!-- Node2&#45;&gt;Node4 -->
<g id="edge3" class="edge">
<title>Node2&#45;&gt;Node4</title>
<path fill="none" stroke="midnightblue" d="M645.35,-82.91C630.12,-88.03 613.77,-93.54 599.19,-98.45"/>
<polygon fill="midnightblue" stroke="midnightblue" points="646.8,-86.11 655.16,-79.6 644.56,-79.48 646.8,-86.11"/>
</g>
<!-- Node5 -->
<g id="node5" class="node">
<title>Node5</title>
<g id="a_node5"><a xlink:href="classweb_1_1http_1_1server_1_1_response.html#ad13e93ee083ee9e780a4478a86fdefec" target="_top" xlink:title=" ">
<polygon fill="white" stroke="black" points="505.5,-49.5 505.5,-79.5 601.5,-79.5 601.5,-49.5 505.5,-49.5"/>
<text text-anchor="start" x="513.5" y="-67.5" font-family="Helvetica,sans-Serif" font-size="10.00">web::http::server::</text>
<text text-anchor="middle" x="553.5" y="-56.5" font-family="Helvetica,sans-Serif" font-size="10.00">Response::send</text>
</a>
</g>
</g>
<!-- Node2&#45;&gt;Node5 -->
<g id="edge4" class="edge">
<title>Node2&#45;&gt;Node5</title>
<path fill="none" stroke="midnightblue" d="M638.55,-64.5C626.3,-64.5 613.62,-64.5 601.93,-64.5"/>
<polygon fill="midnightblue" stroke="midnightblue" points="638.7,-68 648.7,-64.5 638.7,-61 638.7,-68"/>
</g>
<!-- Node15 -->
<g id="node15" class="node">
<title>Node15</title>
<g id="a_node15"><a xlink:href="classweb_1_1http_1_1server_1_1_response.html#a4fae387fd1d11b86260f4572bfebfce2" target="_top" xlink:title=" ">
<polygon fill="white" stroke="black" points="494,-0.5 494,-30.5 613,-30.5 613,-0.5 494,-0.5"/>
<text text-anchor="start" x="502" y="-18.5" font-family="Helvetica,sans-Serif" font-size="10.00">web::http::server::</text>
<text text-anchor="middle" x="553.5" y="-7.5" font-family="Helvetica,sans-Serif" font-size="10.00">Response::sendHeader</text>
</a>
</g>
</g>
<!-- Node2&#45;&gt;Node15 -->
<g id="edge14" class="edge">
<title>Node2&#45;&gt;Node15</title>
<path fill="none" stroke="midnightblue" d="M662.19,-45.76C647.26,-40.04 629.74,-33.93 613.23,-28.64"/>
<polygon fill="midnightblue" stroke="midnightblue" points="661.01,-49.06 671.6,-49.46 663.57,-42.54 661.01,-49.06"/>
</g>
<!-- Node6 -->
<g id="node6" class="node">
<title>Node6</title>
<g id="a_node6"><a xlink:href="classweb_1_1http_1_1server_1_1_response.html#a761cba48efb6eed2fa816750670c03db" target="_top" xlink:title=" ">
<polygon fill="white" stroke="black" points="356.5,-98.5 356.5,-128.5 452.5,-128.5 452.5,-98.5 356.5,-98.5"/>
<text text-anchor="start" x="364.5" y="-116.5" font-family="Helvetica,sans-Serif" font-size="10.00">web::http::server::</text>
<text text-anchor="middle" x="404.5" y="-105.5" font-family="Helvetica,sans-Serif" font-size="10.00">Response::end</text>
</a>
</g>
</g>
<!-- Node5&#45;&gt;Node6 -->
<g id="edge5" class="edge">
<title>Node5&#45;&gt;Node6</title>
<path fill="none" stroke="midnightblue" d="M497.28,-82.91C481.9,-88.03 465.38,-93.54 450.65,-98.45"/>
<polygon fill="midnightblue" stroke="midnightblue" points="498.82,-86.08 507.2,-79.6 496.6,-79.44 498.82,-86.08"/>
</g>
<!-- Node13 -->
<g id="node13" class="node">
<title>Node13</title>
<g id="a_node13"><a xlink:href="classweb_1_1http_1_1server_1_1_response.html#a5128a20b904071c22a077b040c8ff138" target="_top" xlink:title=" ">
<polygon fill="white" stroke="black" points="356.5,-49.5 356.5,-79.5 452.5,-79.5 452.5,-49.5 356.5,-49.5"/>
<text text-anchor="start" x="364.5" y="-67.5" font-family="Helvetica,sans-Serif" font-size="10.00">web::http::server::</text>
<text text-anchor="middle" x="404.5" y="-56.5" font-family="Helvetica,sans-Serif" font-size="10.00">Response::send</text>
</a>
</g>
</g>
<!-- Node5&#45;&gt;Node13 -->
<g id="edge12" class="edge">
<title>Node5&#45;&gt;Node13</title>
<path fill="none" stroke="midnightblue" d="M495.13,-64.5C481.1,-64.5 466.23,-64.5 452.73,-64.5"/>
<polygon fill="midnightblue" stroke="midnightblue" points="495.18,-68 505.18,-64.5 495.18,-61 495.18,-68"/>
</g>
<!-- Node14 -->
<g id="node14" class="node">
<title>Node14</title>
<g id="a_node14"><a xlink:href="classexpress_1_1_response.html#a9049ec68cf5f6cb6d04c403267158d09" target="_top" xlink:title=" ">
<polygon fill="white" stroke="black" points="351,-0.5 351,-30.5 458,-30.5 458,-0.5 351,-0.5"/>
<text text-anchor="start" x="359" y="-18.5" font-family="Helvetica,sans-Serif" font-size="10.00">express::Response::</text>
<text text-anchor="middle" x="404.5" y="-7.5" font-family="Helvetica,sans-Serif" font-size="10.00">sendStatus</text>
</a>
</g>
</g>
<!-- Node5&#45;&gt;Node14 -->
<g id="edge13" class="edge">
<title>Node5&#45;&gt;Node14</title>
<path fill="none" stroke="midnightblue" d="M497.28,-46.09C481.9,-40.97 465.38,-35.46 450.65,-30.55"/>
<polygon fill="midnightblue" stroke="midnightblue" points="496.6,-49.56 507.2,-49.4 498.82,-42.92 496.6,-49.56"/>
</g>
<!-- Node7 -->
<g id="node7" class="node">
<title>Node7</title>
<g id="a_node7"><a xlink:href="classweb_1_1websocket_1_1server_1_1_socket_context.html#a317b7c58b283bdd09d4feaaf0255a4d5" target="_top" xlink:title=" ">
<polygon fill="white" stroke="black" points="194,-172.5 194,-202.5 315,-202.5 315,-172.5 194,-172.5"/>
<text text-anchor="start" x="202" y="-190.5" font-family="Helvetica,sans-Serif" font-size="10.00">web::websocket::server</text>
<text text-anchor="middle" x="254.5" y="-179.5" font-family="Helvetica,sans-Serif" font-size="10.00">::SocketContext::create</text>
</a>
</g>
</g>
<!-- Node6&#45;&gt;Node7 -->
<g id="edge6" class="edge">
<title>Node6&#45;&gt;Node7</title>
<path fill="none" stroke="midnightblue" d="M370.13,-133.72C353.78,-143.27 333.65,-154.52 315,-163.5 308.58,-166.59 301.65,-169.64 294.86,-172.47"/>
<polygon fill="midnightblue" stroke="midnightblue" points="371.95,-136.71 378.79,-128.62 368.4,-130.68 371.95,-136.71"/>
</g>
<!-- Node9 -->
<g id="node9" class="node">
<title>Node9</title>
<g id="a_node9"><a xlink:href="classexpress_1_1_response.html#a99b449a1fd984b6e263c8eb0fec03009" target="_top" xlink:title=" ">
<polygon fill="white" stroke="black" points="201,-123.5 201,-153.5 308,-153.5 308,-123.5 201,-123.5"/>
<text text-anchor="start" x="209" y="-141.5" font-family="Helvetica,sans-Serif" font-size="10.00">express::Response::</text>
<text text-anchor="middle" x="254.5" y="-130.5" font-family="Helvetica,sans-Serif" font-size="10.00">redirect</text>
</a>
</g>
</g>
<!-- Node6&#45;&gt;Node9 -->
<g id="edge8" class="edge">
<title>Node6&#45;&gt;Node9</title>
<path fill="none" stroke="midnightblue" d="M346.37,-123.15C333.81,-125.27 320.57,-127.51 308.19,-129.6"/>
<polygon fill="midnightblue" stroke="midnightblue" points="346.99,-126.6 356.26,-121.48 345.82,-119.69 346.99,-126.6"/>
</g>
<!-- Node10 -->
<g id="node10" class="node">
<title>Node10</title>
<g id="a_node10"><a xlink:href="classexpress_1_1_response.html#aa7a3b9c880c1af5b11e832f84eeda58c" target="_top" xlink:title=" ">
<polygon fill="white" stroke="black" points="201,-74.5 201,-104.5 308,-104.5 308,-74.5 201,-74.5"/>
<text text-anchor="start" x="209" y="-92.5" font-family="Helvetica,sans-Serif" font-size="10.00">express::Response::</text>
<text text-anchor="middle" x="254.5" y="-81.5" font-family="Helvetica,sans-Serif" font-size="10.00">sendFile</text>
</a>
</g>
</g>
<!-- Node6&#45;&gt;Node10 -->
<g id="edge9" class="edge">
<title>Node6&#45;&gt;Node10</title>
<path fill="none" stroke="midnightblue" d="M346.37,-104.24C333.81,-102.2 320.57,-100.05 308.19,-98.04"/>
<polygon fill="midnightblue" stroke="midnightblue" points="345.83,-107.69 356.26,-105.84 346.95,-100.78 345.83,-107.69"/>
</g>
<!-- Node12 -->
<g id="node12" class="node">
<title>Node12</title>
<g id="a_node12"><a xlink:href="classweb_1_1http_1_1server_1_1_response.html#afa792224c8bdb8edcb75514297931ece" target="_top" xlink:title=" ">
<polygon fill="white" stroke="black" points="204,-25.5 204,-55.5 305,-55.5 305,-25.5 204,-25.5"/>
<text text-anchor="start" x="212" y="-43.5" font-family="Helvetica,sans-Serif" font-size="10.00">web::http::server::</text>
<text text-anchor="middle" x="254.5" y="-32.5" font-family="Helvetica,sans-Serif" font-size="10.00">Response::upgrade</text>
</a>
</g>
</g>
<!-- Node6&#45;&gt;Node12 -->
<g id="edge11" class="edge">
<title>Node6&#45;&gt;Node12</title>
<path fill="none" stroke="midnightblue" d="M361.01,-93.91C357.59,-92.14 354.22,-90.33 351,-88.5 334.28,-79.01 332.01,-73.48 315,-64.5 308.99,-61.33 302.47,-58.31 296.02,-55.54"/>
<polygon fill="midnightblue" stroke="midnightblue" points="359.58,-97.11 370.08,-98.47 362.72,-90.86 359.58,-97.11"/>
</g>
<!-- Node8 -->
<g id="node8" class="node">
<title>Node8</title>
<g id="a_node8"><a xlink:href="classweb_1_1websocket_1_1server_1_1_socket_context_upgrade_factory.html#aa1b867500eb6b9273ce9ea4be9ddd124" target="_top" xlink:title=" ">
<polygon fill="white" stroke="black" points="0,-167 0,-208 158,-208 158,-167 0,-167"/>
<text text-anchor="start" x="8" y="-196" font-family="Helvetica,sans-Serif" font-size="10.00">web::websocket::server</text>
<text text-anchor="start" x="8" y="-185" font-family="Helvetica,sans-Serif" font-size="10.00">::SocketContextUpgradeFactory</text>
<text text-anchor="middle" x="79" y="-174" font-family="Helvetica,sans-Serif" font-size="10.00">::create</text>
</a>
</g>
</g>
<!-- Node7&#45;&gt;Node8 -->
<g id="edge7" class="edge">
<title>Node7&#45;&gt;Node8</title>
<path fill="none" stroke="midnightblue" d="M183.69,-187.5C175.31,-187.5 166.7,-187.5 158.2,-187.5"/>
<polygon fill="midnightblue" stroke="midnightblue" points="183.79,-191 193.79,-187.5 183.79,-184 183.79,-191"/>
</g>
<!-- Node11 -->
<g id="node11" class="node">
<title>Node11</title>
<g id="a_node11"><a xlink:href="classexpress_1_1_response.html#a9fe9c08eaaf312665cefdd87b0a47f54" target="_top" xlink:title=" ">
<polygon fill="white" stroke="black" points="25.5,-74.5 25.5,-104.5 132.5,-104.5 132.5,-74.5 25.5,-74.5"/>
<text text-anchor="start" x="33.5" y="-92.5" font-family="Helvetica,sans-Serif" font-size="10.00">express::Response::</text>
<text text-anchor="middle" x="79" y="-81.5" font-family="Helvetica,sans-Serif" font-size="10.00">download</text>
</a>
</g>
</g>
<!-- Node10&#45;&gt;Node11 -->
<g id="edge10" class="edge">
<title>Node10&#45;&gt;Node11</title>
<path fill="none" stroke="midnightblue" d="M190.87,-89.5C171.78,-89.5 151,-89.5 132.65,-89.5"/>
<polygon fill="midnightblue" stroke="midnightblue" points="190.97,-93 200.97,-89.5 190.97,-86 190.97,-93"/>
</g>
<!-- Node15&#45;&gt;Node2 -->
<g id="edge15" class="edge">
<title>Node15&#45;&gt;Node2</title>
<path fill="none" stroke="midnightblue" d="M592.6,-34.35C609.74,-40.91 630.24,-47.96 648.7,-53.71"/>
<polygon fill="midnightblue" stroke="midnightblue" points="593.52,-30.95 582.94,-30.56 590.97,-37.47 593.52,-30.95"/>
</g>
</g>
</svg>
