<?xml version="1.0" encoding="UTF-8" standalone="no"?>
<!DOCTYPE svg PUBLIC "-//W3C//DTD SVG 1.1//EN"
 "http://www.w3.org/Graphics/SVG/1.1/DTD/svg11.dtd">
<!-- Generated by graphviz version 2.43.0 (0)
 -->
<!-- Title: web::http::client::Request::enqueue Pages: 1 -->
<svg width="471pt" height="209pt"
 viewBox="0.00 0.00 471.00 209.00" xmlns="http://www.w3.org/2000/svg" xmlns:xlink="http://www.w3.org/1999/xlink">
<g id="graph0" class="graph" transform="scale(1 1) rotate(0) translate(4 205)">
<title>web::http::client::Request::enqueue</title>
<polygon fill="white" stroke="transparent" points="-4,4 -4,-205 467,-205 467,4 -4,4"/>
<!-- Node1 -->
<g id="node1" class="node">
<title>Node1</title>
<g id="a_node1"><a xlink:title=" ">
<polygon fill="#bfbfbf" stroke="black" points="0,-110 0,-140 96,-140 96,-110 0,-110"/>
<text text-anchor="start" x="8" y="-128" font-family="Helvetica,sans-Serif" font-size="10.00">web::http::client::</text>
<text text-anchor="middle" x="48" y="-117" font-family="Helvetica,sans-Serif" font-size="10.00">Request::enqueue</text>
</a>
</g>
</g>
<!-- Node2 -->
<g id="node2" class="node">
<title>Node2</title>
<g id="a_node2"><a xlink:href="classweb_1_1http_1_1client_1_1_client_context_base.html#a92897b3bfddef1762b93b59e54204ab6" target="_top" xlink:title=" ">
<polygon fill="white" stroke="black" points="155.5,-159.5 155.5,-200.5 292.5,-200.5 292.5,-159.5 155.5,-159.5"/>
<text text-anchor="start" x="163.5" y="-188.5" font-family="Helvetica,sans-Serif" font-size="10.00">web::http::client::</text>
<text text-anchor="start" x="163.5" y="-177.5" font-family="Helvetica,sans-Serif" font-size="10.00">ClientContextBase::request</text>
<text text-anchor="middle" x="224" y="-166.5" font-family="Helvetica,sans-Serif" font-size="10.00">Completed</text>
</a>
</g>
</g>
<!-- Node1&#45;&gt;Node2 -->
<g id="edge1" class="edge">
<title>Node1&#45;&gt;Node2</title>
<path fill="none" stroke="midnightblue" d="M96.09,-139.88C112.14,-144.96 130.5,-150.76 148.18,-156.35"/>
<polygon fill="midnightblue" stroke="midnightblue" points="147.32,-159.75 157.91,-159.43 149.43,-153.07 147.32,-159.75"/>
</g>
<!-- Node3 -->
<g id="node3" class="node">
<title>Node3</title>
<g id="a_node3"><a xlink:href="classweb_1_1http_1_1client_1_1_request.html#af01f064a43a4ee0026ff35a265e8ada1" target="_top" xlink:title=" ">
<polygon fill="white" stroke="black" points="168,-110 168,-140 280,-140 280,-110 168,-110"/>
<text text-anchor="start" x="176" y="-128" font-family="Helvetica,sans-Serif" font-size="10.00">web::http::client::</text>
<text text-anchor="middle" x="224" y="-117" font-family="Helvetica,sans-Serif" font-size="10.00">Request::sendHeader</text>
</a>
</g>
</g>
<!-- Node1&#45;&gt;Node3 -->
<g id="edge2" class="edge">
<title>Node1&#45;&gt;Node3</title>
<path fill="none" stroke="midnightblue" d="M96.09,-118.93C115.03,-118.24 137.19,-118.07 157.65,-118.44"/>
<polygon fill="midnightblue" stroke="midnightblue" points="157.78,-121.94 167.85,-118.67 157.93,-114.94 157.78,-121.94"/>
</g>
<!-- Node7 -->
<g id="node7" class="node">
<title>Node7</title>
<g id="a_node7"><a xlink:href="classweb_1_1http_1_1client_1_1_client_context_base.html#ac141853f48c2a11c75536bec4044e9e5" target="_top" xlink:title=" ">
<polygon fill="white" stroke="black" points="132,-61 132,-91 316,-91 316,-61 132,-61"/>
<text text-anchor="start" x="140" y="-79" font-family="Helvetica,sans-Serif" font-size="10.00">web::http::client::</text>
<text text-anchor="middle" x="224" y="-68" font-family="Helvetica,sans-Serif" font-size="10.00">ClientContextBase::sendRequestData</text>
</a>
</g>
</g>
<!-- Node1&#45;&gt;Node7 -->
<g id="edge7" class="edge">
<title>Node1&#45;&gt;Node7</title>
<path fill="none" stroke="midnightblue" d="M96.32,-110.44C107.96,-106.94 120.41,-103.27 132,-100 139.41,-97.91 147.17,-95.77 154.91,-93.68"/>
<polygon fill="midnightblue" stroke="midnightblue" points="155.91,-97.04 164.66,-91.06 154.1,-90.28 155.91,-97.04"/>
</g>
<!-- Node8 -->
<g id="node8" class="node">
<title>Node8</title>
<g id="a_node8"><a xlink:href="classweb_1_1http_1_1client_1_1_client_context_base.html#a726fc0f8b72ccdaab38a086912c33c03" target="_top" xlink:title=" ">
<polygon fill="white" stroke="black" points="151,-0.5 151,-41.5 297,-41.5 297,-0.5 151,-0.5"/>
<text text-anchor="start" x="159" y="-29.5" font-family="Helvetica,sans-Serif" font-size="10.00">web::http::client::</text>
<text text-anchor="start" x="159" y="-18.5" font-family="Helvetica,sans-Serif" font-size="10.00">ClientContextBase::terminate</text>
<text text-anchor="middle" x="224" y="-7.5" font-family="Helvetica,sans-Serif" font-size="10.00">Connection</text>
</a>
</g>
</g>
<!-- Node1&#45;&gt;Node8 -->
<g id="edge8" class="edge">
<title>Node1&#45;&gt;Node8</title>
<path fill="none" stroke="midnightblue" d="M62.27,-109.93C77.58,-93.38 104.24,-67.01 132,-51 135.21,-49.15 138.56,-47.39 141.99,-45.72"/>
<polygon fill="midnightblue" stroke="midnightblue" points="143.57,-48.84 151.23,-41.52 140.68,-42.47 143.57,-48.84"/>
</g>
<!-- Node3&#45;&gt;Node1 -->
<g id="edge3" class="edge">
<title>Node3&#45;&gt;Node1</title>
<path fill="none" stroke="midnightblue" d="M167.85,-131.33C148.2,-131.87 126.03,-131.89 106.21,-131.39"/>
<polygon fill="midnightblue" stroke="midnightblue" points="106.19,-127.88 96.09,-131.07 105.97,-134.88 106.19,-127.88"/>
</g>
<!-- Node4 -->
<g id="node4" class="node">
<title>Node4</title>
<g id="a_node4"><a xlink:href="namespaceweb_1_1ws_1_1subprotocol_1_1echo_1_1server.html#af4a384a2fa866309df7f32586621f0b6" target="_top" xlink:title=" ">
<polygon fill="white" stroke="black" points="352.5,-154 352.5,-184 462.5,-184 462.5,-154 352.5,-154"/>
<text text-anchor="start" x="360.5" y="-172" font-family="Helvetica,sans-Serif" font-size="10.00">web::ws::subprotocol</text>
<text text-anchor="middle" x="407.5" y="-161" font-family="Helvetica,sans-Serif" font-size="10.00">::echo::server::name</text>
</a>
</g>
</g>
<!-- Node3&#45;&gt;Node4 -->
<g id="edge4" class="edge">
<title>Node3&#45;&gt;Node4</title>
<path fill="none" stroke="midnightblue" d="M280.44,-138.44C300.06,-143.2 322.29,-148.59 342.56,-153.5"/>
<polygon fill="midnightblue" stroke="midnightblue" points="341.79,-156.91 352.33,-155.87 343.44,-150.11 341.79,-156.91"/>
</g>
<!-- Node5 -->
<g id="node5" class="node">
<title>Node5</title>
<g id="a_node5"><a xlink:href="namespacehttputils.html#a01539c1af68e4d072d3507ae44c0b02a" target="_top" xlink:title=" ">
<polygon fill="white" stroke="black" points="352,-115.5 352,-134.5 463,-134.5 463,-115.5 352,-115.5"/>
<text text-anchor="middle" x="407.5" y="-122.5" font-family="Helvetica,sans-Serif" font-size="10.00">httputils::to_http_date</text>
</a>
</g>
</g>
<!-- Node3&#45;&gt;Node5 -->
<g id="edge5" class="edge">
<title>Node3&#45;&gt;Node5</title>
<path fill="none" stroke="midnightblue" d="M280.44,-125C299.71,-125 321.49,-125 341.45,-125"/>
<polygon fill="midnightblue" stroke="midnightblue" points="341.71,-128.5 351.71,-125 341.71,-121.5 341.71,-128.5"/>
</g>
<!-- Node6 -->
<g id="node6" class="node">
<title>Node6</title>
<g id="a_node6"><a xlink:href="namespacehttputils.html#a386473920285bded181a38ffac8fe833" target="_top" xlink:title=" ">
<polygon fill="white" stroke="black" points="355.5,-77.5 355.5,-96.5 459.5,-96.5 459.5,-77.5 355.5,-77.5"/>
<text text-anchor="middle" x="407.5" y="-84.5" font-family="Helvetica,sans-Serif" font-size="10.00">httputils::url_encode</text>
</a>
</g>
</g>
<!-- Node3&#45;&gt;Node6 -->
<g id="edge6" class="edge">
<title>Node3&#45;&gt;Node6</title>
<path fill="none" stroke="midnightblue" d="M280.44,-113.39C302.77,-108.72 328.48,-103.33 350.83,-98.65"/>
<polygon fill="midnightblue" stroke="midnightblue" points="351.77,-102.03 360.84,-96.56 350.34,-95.18 351.77,-102.03"/>
</g>
</g>
</svg>
