<?xml version="1.0" encoding="UTF-8" standalone="no"?>
<!DOCTYPE svg PUBLIC "-//W3C//DTD SVG 1.1//EN"
 "http://www.w3.org/Graphics/SVG/1.1/DTD/svg11.dtd">
<!-- Generated by graphviz version 2.43.0 (0)
 -->
<!-- Title: net::ReadEventReceiver::resume Pages: 1 -->
<svg width="504pt" height="166pt"
 viewBox="0.00 0.00 504.00 165.50" xmlns="http://www.w3.org/2000/svg" xmlns:xlink="http://www.w3.org/1999/xlink">
<g id="graph0" class="graph" transform="scale(1 1) rotate(0) translate(4 161.5)">
<title>net::ReadEventReceiver::resume</title>
<polygon fill="white" stroke="transparent" points="-4,4 -4,-161.5 500,-161.5 500,4 -4,4"/>
<!-- Node1 -->
<g id="node1" class="node">
<title>Node1</title>
<g id="a_node1"><a xlink:title=" ">
<polygon fill="#bfbfbf" stroke="black" points="0,-83 0,-113 124,-113 124,-83 0,-83"/>
<text text-anchor="start" x="8" y="-101" font-family="Helvetica,sans-Serif" font-size="10.00">net::ReadEventReceiver</text>
<text text-anchor="middle" x="62" y="-90" font-family="Helvetica,sans-Serif" font-size="10.00">::resume</text>
</a>
</g>
</g>
<!-- Node2 -->
<g id="node2" class="node">
<title>Node2</title>
<g id="a_node2"><a xlink:href="classnet_1_1_event_loop.html#ace10fc7540ecf33dbd7efeb50f2a6a4d" target="_top" xlink:title=" ">
<polygon fill="white" stroke="black" points="161.5,-127 161.5,-157 312.5,-157 312.5,-127 161.5,-127"/>
<text text-anchor="start" x="169.5" y="-145" font-family="Helvetica,sans-Serif" font-size="10.00">net::EventLoop::getReadEvent</text>
<text text-anchor="middle" x="237" y="-134" font-family="Helvetica,sans-Serif" font-size="10.00">Dispatcher</text>
</a>
</g>
</g>
<!-- Node1&#45;&gt;Node2 -->
<g id="edge1" class="edge">
<title>Node1&#45;&gt;Node2</title>
<path fill="none" stroke="midnightblue" d="M122.05,-113.02C136.59,-116.72 152.27,-120.71 167.22,-124.51"/>
<polygon fill="midnightblue" stroke="midnightblue" points="166.37,-127.9 176.92,-126.97 168.09,-121.12 166.37,-127.9"/>
</g>
<!-- Node3 -->
<g id="node3" class="node">
<title>Node3</title>
<g id="a_node3"><a xlink:href="classnet_1_1_event_loop.html#a6d8bfd6fa03bb6bf423035ab190657ef" target="_top" xlink:title=" ">
<polygon fill="white" stroke="black" points="174.5,-88.5 174.5,-107.5 299.5,-107.5 299.5,-88.5 174.5,-88.5"/>
<text text-anchor="middle" x="237" y="-95.5" font-family="Helvetica,sans-Serif" font-size="10.00">net::EventLoop::instance</text>
</a>
</g>
</g>
<!-- Node1&#45;&gt;Node3 -->
<g id="edge2" class="edge">
<title>Node1&#45;&gt;Node3</title>
<path fill="none" stroke="midnightblue" d="M124.48,-98C137.4,-98 151.14,-98 164.4,-98"/>
<polygon fill="midnightblue" stroke="midnightblue" points="164.43,-101.5 174.43,-98 164.43,-94.5 164.43,-101.5"/>
</g>
<!-- Node4 -->
<g id="node4" class="node">
<title>Node4</title>
<g id="a_node4"><a xlink:href="classnet_1_1_descriptor_event_dispatcher.html#a2f3bda27d3e9b040956e69f7b07054e5" target="_top" xlink:title=" ">
<polygon fill="white" stroke="black" points="160,-39 160,-69 314,-69 314,-39 160,-39"/>
<text text-anchor="start" x="168" y="-57" font-family="Helvetica,sans-Serif" font-size="10.00">net::DescriptorEventDispatcher</text>
<text text-anchor="middle" x="237" y="-46" font-family="Helvetica,sans-Serif" font-size="10.00">::resume</text>
</a>
</g>
</g>
<!-- Node1&#45;&gt;Node4 -->
<g id="edge3" class="edge">
<title>Node1&#45;&gt;Node4</title>
<path fill="none" stroke="midnightblue" d="M122.05,-82.98C136.59,-79.28 152.27,-75.29 167.22,-71.49"/>
<polygon fill="midnightblue" stroke="midnightblue" points="168.09,-74.88 176.92,-69.03 166.37,-68.1 168.09,-74.88"/>
</g>
<!-- Node5 -->
<g id="node5" class="node">
<title>Node5</title>
<g id="a_node5"><a xlink:href="classnet_1_1_descriptor_event_receiver.html#a3ad5bcaaad4982927ce5ded44177f926" target="_top" xlink:title=" ">
<polygon fill="white" stroke="black" points="350,-88 350,-118 496,-118 496,-88 350,-88"/>
<text text-anchor="start" x="358" y="-106" font-family="Helvetica,sans-Serif" font-size="10.00">net::DescriptorEventReceiver</text>
<text text-anchor="middle" x="423" y="-95" font-family="Helvetica,sans-Serif" font-size="10.00">::isSuspended</text>
</a>
</g>
</g>
<!-- Node4&#45;&gt;Node5 -->
<g id="edge4" class="edge">
<title>Node4&#45;&gt;Node5</title>
<path fill="none" stroke="midnightblue" d="M294.46,-69.03C313.88,-74.21 335.81,-80.05 355.93,-85.41"/>
<polygon fill="midnightblue" stroke="midnightblue" points="355.09,-88.8 365.65,-87.99 356.89,-82.04 355.09,-88.8"/>
</g>
<!-- Node6 -->
<g id="node6" class="node">
<title>Node6</title>
<g id="a_node6"><a xlink:href="classnet_1_1_descriptor_event_receiver.html#ae25453a497e1efe0732c6607fbe1b98c" target="_top" xlink:title=" ">
<polygon fill="white" stroke="black" points="350,-39 350,-69 496,-69 496,-39 350,-39"/>
<text text-anchor="start" x="358" y="-57" font-family="Helvetica,sans-Serif" font-size="10.00">net::DescriptorEventReceiver</text>
<text text-anchor="middle" x="423" y="-46" font-family="Helvetica,sans-Serif" font-size="10.00">::resumed</text>
</a>
</g>
</g>
<!-- Node4&#45;&gt;Node6 -->
<g id="edge5" class="edge">
<title>Node4&#45;&gt;Node6</title>
<path fill="none" stroke="midnightblue" d="M314.17,-54C322.53,-54 331.08,-54 339.51,-54"/>
<polygon fill="midnightblue" stroke="midnightblue" points="339.73,-57.5 349.73,-54 339.73,-50.5 339.73,-57.5"/>
</g>
<!-- Node7 -->
<g id="node7" class="node">
<title>Node7</title>
<g id="a_node7"><a xlink:href="classnet_1_1_fd_set.html#a602dbf99def6560bcc7a6bcb8384d549" target="_top" xlink:title=" ">
<polygon fill="white" stroke="black" points="382,-0.5 382,-19.5 464,-19.5 464,-0.5 382,-0.5"/>
<text text-anchor="middle" x="423" y="-7.5" font-family="Helvetica,sans-Serif" font-size="10.00">net::FdSet::set</text>
</a>
</g>
</g>
<!-- Node4&#45;&gt;Node7 -->
<g id="edge6" class="edge">
<title>Node4&#45;&gt;Node7</title>
<path fill="none" stroke="midnightblue" d="M300.81,-38.98C324.19,-33.39 350.38,-27.13 372.41,-21.86"/>
<polygon fill="midnightblue" stroke="midnightblue" points="373.31,-25.24 382.22,-19.51 371.68,-18.43 373.31,-25.24"/>
</g>
</g>
</svg>
