<?xml version="1.0" encoding="UTF-8" standalone="no"?>
<!DOCTYPE svg PUBLIC "-//W3C//DTD SVG 1.1//EN"
 "http://www.w3.org/Graphics/SVG/1.1/DTD/svg11.dtd">
<!-- Generated by graphviz version 2.43.0 (0)
 -->
<!-- Title: web::http::server::SocketContextUpgradeFactorySelector::select Pages: 1 -->
<svg width="354pt" height="160pt"
 viewBox="0.00 0.00 354.00 159.50" xmlns="http://www.w3.org/2000/svg" xmlns:xlink="http://www.w3.org/1999/xlink">
<g id="graph0" class="graph" transform="scale(1 1) rotate(0) translate(4 155.5)">
<title>web::http::server::SocketContextUpgradeFactorySelector::select</title>
<polygon fill="white" stroke="transparent" points="-4,4 -4,-155.5 350,-155.5 350,4 -4,4"/>
<!-- Node1 -->
<g id="node1" class="node">
<title>Node1</title>
<g id="a_node1"><a xlink:title=" ">
<polygon fill="#bfbfbf" stroke="black" points="194,-50 194,-91 346,-91 346,-50 194,-50"/>
<text text-anchor="start" x="202" y="-79" font-family="Helvetica,sans-Serif" font-size="10.00">web::http::server::</text>
<text text-anchor="start" x="202" y="-68" font-family="Helvetica,sans-Serif" font-size="10.00">SocketContextUpgradeFactory</text>
<text text-anchor="middle" x="270" y="-57" font-family="Helvetica,sans-Serif" font-size="10.00">Selector::select</text>
</a>
</g>
</g>
<!-- Node2 -->
<g id="node2" class="node">
<title>Node2</title>
<g id="a_node2"><a xlink:href="classweb_1_1websocket_1_1server_1_1_socket_context_upgrade_factory.html#a0e87c72833963a7536f80aa6366bf122" target="_top" xlink:title=" ">
<polygon fill="white" stroke="black" points="0,-110 0,-151 158,-151 158,-110 0,-110"/>
<text text-anchor="start" x="8" y="-139" font-family="Helvetica,sans-Serif" font-size="10.00">web::websocket::server</text>
<text text-anchor="start" x="8" y="-128" font-family="Helvetica,sans-Serif" font-size="10.00">::SocketContextUpgradeFactory</text>
<text text-anchor="middle" x="79" y="-117" font-family="Helvetica,sans-Serif" font-size="10.00">::attach</text>
</a>
</g>
</g>
<!-- Node1&#45;&gt;Node2 -->
<g id="edge1" class="edge">
<title>Node1&#45;&gt;Node2</title>
<path fill="none" stroke="midnightblue" d="M194.62,-94.11C178.12,-99.35 160.77,-104.86 144.69,-109.96"/>
<polygon fill="midnightblue" stroke="midnightblue" points="195.75,-97.43 204.22,-91.06 193.63,-90.75 195.75,-97.43"/>
</g>
<!-- Node3 -->
<g id="node3" class="node">
<title>Node3</title>
<g id="a_node3"><a xlink:href="classweb_1_1http_1_1server_1_1_socket_context_upgrade_factory_selector.html#ad5d03faad242385443563a5e99abe7eb" target="_top" xlink:title=" ">
<polygon fill="white" stroke="black" points="3,-50 3,-91 155,-91 155,-50 3,-50"/>
<text text-anchor="start" x="11" y="-79" font-family="Helvetica,sans-Serif" font-size="10.00">web::http::server::</text>
<text text-anchor="start" x="11" y="-68" font-family="Helvetica,sans-Serif" font-size="10.00">SocketContextUpgradeFactory</text>
<text text-anchor="middle" x="79" y="-57" font-family="Helvetica,sans-Serif" font-size="10.00">Selector::select</text>
</a>
</g>
</g>
<!-- Node1&#45;&gt;Node3 -->
<g id="edge2" class="edge">
<title>Node1&#45;&gt;Node3</title>
<path fill="none" stroke="midnightblue" d="M183.59,-70.5C174.15,-70.5 164.59,-70.5 155.29,-70.5"/>
<polygon fill="midnightblue" stroke="midnightblue" points="183.76,-74 193.76,-70.5 183.76,-67 183.76,-74"/>
</g>
<!-- Node4 -->
<g id="node4" class="node">
<title>Node4</title>
<g id="a_node4"><a xlink:href="classweb_1_1http_1_1server_1_1_response.html#afa792224c8bdb8edcb75514297931ece" target="_top" xlink:title=" ">
<polygon fill="white" stroke="black" points="28.5,-0.5 28.5,-30.5 129.5,-30.5 129.5,-0.5 28.5,-0.5"/>
<text text-anchor="start" x="36.5" y="-18.5" font-family="Helvetica,sans-Serif" font-size="10.00">web::http::server::</text>
<text text-anchor="middle" x="79" y="-7.5" font-family="Helvetica,sans-Serif" font-size="10.00">Response::upgrade</text>
</a>
</g>
</g>
<!-- Node1&#45;&gt;Node4 -->
<g id="edge3" class="edge">
<title>Node1&#45;&gt;Node4</title>
<path fill="none" stroke="midnightblue" d="M188.61,-47.11C168.58,-41.28 147.69,-35.2 129.65,-29.95"/>
<polygon fill="midnightblue" stroke="midnightblue" points="187.77,-50.51 198.35,-49.94 189.73,-43.79 187.77,-50.51"/>
</g>
</g>
</svg>
