<?xml version="1.0" encoding="UTF-8" standalone="no"?>
<!DOCTYPE svg PUBLIC "-//W3C//DTD SVG 1.1//EN"
 "http://www.w3.org/Graphics/SVG/1.1/DTD/svg11.dtd">
<!-- Generated by graphviz version 2.43.0 (0)
 -->
<!-- Title: net::socket::stream::SocketConnector&lt; SocketConnectionT &gt; Pages: 1 -->
<svg width="275pt" height="887pt"
 viewBox="0.00 0.00 274.50 887.00" xmlns="http://www.w3.org/2000/svg" xmlns:xlink="http://www.w3.org/1999/xlink">
<g id="graph0" class="graph" transform="scale(1 1) rotate(0) translate(4 883)">
<title>net::socket::stream::SocketConnector&lt; SocketConnectionT &gt;</title>
<polygon fill="white" stroke="transparent" points="-4,4 -4,-883 270.5,-883 270.5,4 -4,4"/>
<!-- Node1 -->
<g id="node1" class="node">
<title>Node1</title>
<g id="a_node1"><a xlink:title=" ">
<polygon fill="#bfbfbf" stroke="black" points="41.5,-0.5 41.5,-266.5 244.5,-266.5 244.5,-0.5 41.5,-0.5"/>
<text text-anchor="start" x="49.5" y="-254.5" font-family="Helvetica,sans-Serif" font-size="10.00">net::socket::stream</text>
<text text-anchor="middle" x="143" y="-243.5" font-family="Helvetica,sans-Serif" font-size="10.00">::SocketConnector&lt; SocketConnectionT &gt;</text>
<polyline fill="none" stroke="black" points="41.5,-236.5 244.5,-236.5 "/>
<text text-anchor="start" x="49.5" y="-224.5" font-family="Helvetica,sans-Serif" font-size="10.00"># onError</text>
<text text-anchor="start" x="49.5" y="-213.5" font-family="Helvetica,sans-Serif" font-size="10.00">&#45; onConstruct</text>
<text text-anchor="start" x="49.5" y="-202.5" font-family="Helvetica,sans-Serif" font-size="10.00">&#45; onDestruct</text>
<text text-anchor="start" x="49.5" y="-191.5" font-family="Helvetica,sans-Serif" font-size="10.00">&#45; onConnect</text>
<text text-anchor="start" x="49.5" y="-180.5" font-family="Helvetica,sans-Serif" font-size="10.00">&#45; onDisconnect</text>
<text text-anchor="start" x="49.5" y="-169.5" font-family="Helvetica,sans-Serif" font-size="10.00">&#45; onRead</text>
<text text-anchor="start" x="49.5" y="-158.5" font-family="Helvetica,sans-Serif" font-size="10.00">&#45; onReadError</text>
<text text-anchor="start" x="49.5" y="-147.5" font-family="Helvetica,sans-Serif" font-size="10.00">&#45; onWriteError</text>
<text text-anchor="start" x="49.5" y="-136.5" font-family="Helvetica,sans-Serif" font-size="10.00">&#45; socketConnection</text>
<text text-anchor="start" x="49.5" y="-125.5" font-family="Helvetica,sans-Serif" font-size="10.00">&#45; options</text>
<polyline fill="none" stroke="black" points="41.5,-118.5 244.5,-118.5 "/>
<text text-anchor="start" x="49.5" y="-106.5" font-family="Helvetica,sans-Serif" font-size="10.00">+ SocketConnector()</text>
<text text-anchor="start" x="49.5" y="-95.5" font-family="Helvetica,sans-Serif" font-size="10.00">+ SocketConnector()</text>
<text text-anchor="start" x="49.5" y="-84.5" font-family="Helvetica,sans-Serif" font-size="10.00">+ SocketConnector()</text>
<text text-anchor="start" x="49.5" y="-73.5" font-family="Helvetica,sans-Serif" font-size="10.00">+ operator=()</text>
<text text-anchor="start" x="49.5" y="-62.5" font-family="Helvetica,sans-Serif" font-size="10.00">+ ~SocketConnector()</text>
<text text-anchor="start" x="49.5" y="-51.5" font-family="Helvetica,sans-Serif" font-size="10.00">+ connect()</text>
<text text-anchor="start" x="49.5" y="-40.5" font-family="Helvetica,sans-Serif" font-size="10.00"># tryToCompleteConnect()</text>
<text text-anchor="start" x="49.5" y="-29.5" font-family="Helvetica,sans-Serif" font-size="10.00">&#45; connectEvent()</text>
<text text-anchor="start" x="49.5" y="-18.5" font-family="Helvetica,sans-Serif" font-size="10.00">&#45; unobserved()</text>
<text text-anchor="start" x="49.5" y="-7.5" font-family="Helvetica,sans-Serif" font-size="10.00">&#45; destruct()</text>
</a>
</g>
</g>
<!-- Node2 -->
<g id="node2" class="node">
<title>Node2</title>
<g id="a_node2"><a xlink:href="classnet_1_1_connect_event_receiver.html" target="_top" xlink:title=" ">
<polygon fill="white" stroke="black" points="4.5,-303.5 4.5,-437.5 141.5,-437.5 141.5,-303.5 4.5,-303.5"/>
<text text-anchor="middle" x="73" y="-425.5" font-family="Helvetica,sans-Serif" font-size="10.00">net::ConnectEventReceiver</text>
<polyline fill="none" stroke="black" points="4.5,-418.5 141.5,-418.5 "/>
<text text-anchor="middle" x="73" y="-406.5" font-family="Helvetica,sans-Serif" font-size="10.00"> </text>
<polyline fill="none" stroke="black" points="4.5,-399.5 141.5,-399.5 "/>
<text text-anchor="start" x="12.5" y="-387.5" font-family="Helvetica,sans-Serif" font-size="10.00">+ setTimeout()</text>
<text text-anchor="start" x="12.5" y="-376.5" font-family="Helvetica,sans-Serif" font-size="10.00">+ enable()</text>
<text text-anchor="start" x="12.5" y="-365.5" font-family="Helvetica,sans-Serif" font-size="10.00">+ disable()</text>
<text text-anchor="start" x="12.5" y="-354.5" font-family="Helvetica,sans-Serif" font-size="10.00">+ suspend()</text>
<text text-anchor="start" x="12.5" y="-343.5" font-family="Helvetica,sans-Serif" font-size="10.00">+ resume()</text>
<text text-anchor="start" x="12.5" y="-332.5" font-family="Helvetica,sans-Serif" font-size="10.00"># ConnectEventReceiver()</text>
<text text-anchor="start" x="12.5" y="-321.5" font-family="Helvetica,sans-Serif" font-size="10.00"># connectEvent()</text>
<text text-anchor="start" x="12.5" y="-310.5" font-family="Helvetica,sans-Serif" font-size="10.00">&#45; dispatchEvent()</text>
</a>
</g>
</g>
<!-- Node2&#45;&gt;Node1 -->
<g id="edge1" class="edge">
<title>Node2&#45;&gt;Node1</title>
<path fill="none" stroke="midnightblue" d="M95.56,-293.78C98.14,-285.1 100.83,-276.07 103.56,-266.92"/>
<polygon fill="none" stroke="midnightblue" points="92.19,-292.83 92.69,-303.41 98.89,-294.83 92.19,-292.83"/>
</g>
<!-- Node3 -->
<g id="node3" class="node">
<title>Node3</title>
<g id="a_node3"><a xlink:href="classnet_1_1_descriptor_event_receiver.html" target="_top" xlink:title=" ">
<polygon fill="white" stroke="black" points="0,-474.5 0,-784.5 146,-784.5 146,-474.5 0,-474.5"/>
<text text-anchor="middle" x="73" y="-772.5" font-family="Helvetica,sans-Serif" font-size="10.00">net::DescriptorEventReceiver</text>
<polyline fill="none" stroke="black" points="0,-765.5 146,-765.5 "/>
<text text-anchor="start" x="8" y="-753.5" font-family="Helvetica,sans-Serif" font-size="10.00"># fd</text>
<text text-anchor="start" x="8" y="-742.5" font-family="Helvetica,sans-Serif" font-size="10.00">&#45; _enabled</text>
<text text-anchor="start" x="8" y="-731.5" font-family="Helvetica,sans-Serif" font-size="10.00">&#45; _suspended</text>
<text text-anchor="start" x="8" y="-720.5" font-family="Helvetica,sans-Serif" font-size="10.00">&#45; maxInactivity</text>
<polyline fill="none" stroke="black" points="0,-713.5 146,-713.5 "/>
<text text-anchor="start" x="8" y="-701.5" font-family="Helvetica,sans-Serif" font-size="10.00">+ DescriptorEventReceiver()</text>
<text text-anchor="start" x="8" y="-690.5" font-family="Helvetica,sans-Serif" font-size="10.00">+ operator=()</text>
<text text-anchor="start" x="8" y="-679.5" font-family="Helvetica,sans-Serif" font-size="10.00"># DescriptorEventReceiver()</text>
<text text-anchor="start" x="8" y="-668.5" font-family="Helvetica,sans-Serif" font-size="10.00"># ~DescriptorEventReceiver()</text>
<text text-anchor="start" x="8" y="-657.5" font-family="Helvetica,sans-Serif" font-size="10.00"># setTimeout()</text>
<text text-anchor="start" x="8" y="-646.5" font-family="Helvetica,sans-Serif" font-size="10.00"># isEnabled()</text>
<text text-anchor="start" x="8" y="-635.5" font-family="Helvetica,sans-Serif" font-size="10.00"># isSuspended()</text>
<text text-anchor="start" x="8" y="-624.5" font-family="Helvetica,sans-Serif" font-size="10.00">&#45; dispatchEvent()</text>
<text text-anchor="start" x="8" y="-613.5" font-family="Helvetica,sans-Serif" font-size="10.00">&#45; timeout()</text>
<text text-anchor="start" x="8" y="-602.5" font-family="Helvetica,sans-Serif" font-size="10.00">&#45; enabled()</text>
<text text-anchor="start" x="8" y="-591.5" font-family="Helvetica,sans-Serif" font-size="10.00">&#45; disabled()</text>
<text text-anchor="start" x="8" y="-580.5" font-family="Helvetica,sans-Serif" font-size="10.00">&#45; suspended()</text>
<text text-anchor="start" x="8" y="-569.5" font-family="Helvetica,sans-Serif" font-size="10.00">&#45; resumed()</text>
<text text-anchor="start" x="8" y="-558.5" font-family="Helvetica,sans-Serif" font-size="10.00">&#45; getTimeout()</text>
<text text-anchor="start" x="8" y="-547.5" font-family="Helvetica,sans-Serif" font-size="10.00">&#45; getLastTriggered()</text>
<text text-anchor="start" x="8" y="-536.5" font-family="Helvetica,sans-Serif" font-size="10.00">&#45; triggered()</text>
<text text-anchor="start" x="8" y="-525.5" font-family="Helvetica,sans-Serif" font-size="10.00">&#45; enable()</text>
<text text-anchor="start" x="8" y="-514.5" font-family="Helvetica,sans-Serif" font-size="10.00">&#45; disable()</text>
<text text-anchor="start" x="8" y="-503.5" font-family="Helvetica,sans-Serif" font-size="10.00">&#45; suspend()</text>
<text text-anchor="start" x="8" y="-492.5" font-family="Helvetica,sans-Serif" font-size="10.00">&#45; resume()</text>
<text text-anchor="start" x="8" y="-481.5" font-family="Helvetica,sans-Serif" font-size="10.00">&#45; unobserved()</text>
</a>
</g>
</g>
<!-- Node3&#45;&gt;Node2 -->
<g id="edge2" class="edge">
<title>Node3&#45;&gt;Node2</title>
<path fill="none" stroke="midnightblue" d="M73,-464.16C73,-455 73,-446.11 73,-437.7"/>
<polygon fill="none" stroke="midnightblue" points="69.5,-464.18 73,-474.18 76.5,-464.18 69.5,-464.18"/>
</g>
<!-- Node4 -->
<g id="node4" class="node">
<title>Node4</title>
<g id="a_node4"><a xlink:href="classnet_1_1_observation_counter.html" target="_top" xlink:title=" ">
<polygon fill="white" stroke="black" points="11.5,-821.5 11.5,-878.5 134.5,-878.5 134.5,-821.5 11.5,-821.5"/>
<text text-anchor="middle" x="73" y="-866.5" font-family="Helvetica,sans-Serif" font-size="10.00">net::ObservationCounter</text>
<polyline fill="none" stroke="black" points="11.5,-859.5 134.5,-859.5 "/>
<text text-anchor="start" x="19.5" y="-847.5" font-family="Helvetica,sans-Serif" font-size="10.00"># observationCounter</text>
<polyline fill="none" stroke="black" points="11.5,-840.5 134.5,-840.5 "/>
<text text-anchor="start" x="19.5" y="-828.5" font-family="Helvetica,sans-Serif" font-size="10.00">+ isObserved()</text>
</a>
</g>
</g>
<!-- Node4&#45;&gt;Node3 -->
<g id="edge3" class="edge">
<title>Node4&#45;&gt;Node3</title>
<path fill="none" stroke="midnightblue" d="M73,-811.28C73,-803.21 73,-794.21 73,-784.65"/>
<polygon fill="none" stroke="midnightblue" points="69.5,-811.33 73,-821.33 76.5,-811.33 69.5,-811.33"/>
</g>
<!-- Node5 -->
<g id="node5" class="node">
<title>Node5</title>
<g id="a_node5"><a xlink:title=" ">
<polygon fill="white" stroke="#bfbfbf" points="159.5,-336.5 159.5,-404.5 266.5,-404.5 266.5,-336.5 159.5,-336.5"/>
<text text-anchor="start" x="167.5" y="-392.5" font-family="Helvetica,sans-Serif" font-size="10.00">SocketConnectionT::</text>
<text text-anchor="middle" x="213" y="-381.5" font-family="Helvetica,sans-Serif" font-size="10.00">Socket</text>
<polyline fill="none" stroke="#bfbfbf" points="159.5,-374.5 266.5,-374.5 "/>
<text text-anchor="middle" x="213" y="-362.5" font-family="Helvetica,sans-Serif" font-size="10.00"> </text>
<polyline fill="none" stroke="#bfbfbf" points="159.5,-355.5 266.5,-355.5 "/>
<text text-anchor="middle" x="213" y="-343.5" font-family="Helvetica,sans-Serif" font-size="10.00"> </text>
</a>
</g>
</g>
<!-- Node5&#45;&gt;Node1 -->
<g id="edge4" class="edge">
<title>Node5&#45;&gt;Node1</title>
<path fill="none" stroke="midnightblue" d="M200.21,-326.58C195.06,-309.26 188.8,-288.25 182.34,-266.57"/>
<polygon fill="none" stroke="midnightblue" points="196.91,-327.74 203.12,-336.33 203.62,-325.75 196.91,-327.74"/>
</g>
</g>
</svg>
