<?xml version="1.0" encoding="UTF-8" standalone="no"?>
<!DOCTYPE svg PUBLIC "-//W3C//DTD SVG 1.1//EN"
 "http://www.w3.org/Graphics/SVG/1.1/DTD/svg11.dtd">
<!-- Generated by graphviz version 2.43.0 (0)
 -->
<!-- Title: net::ConnectEventReceiver Pages: 1 -->
<svg width="373pt" height="1387pt"
 viewBox="0.00 0.00 373.38 1387.00" xmlns="http://www.w3.org/2000/svg" xmlns:xlink="http://www.w3.org/1999/xlink">
<g id="graph0" class="graph" transform="scale(1 1) rotate(0) translate(4 1383)">
<title>net::ConnectEventReceiver</title>
<polygon fill="white" stroke="transparent" points="-4,4 -4,-1383 369.38,-1383 369.38,4 -4,4"/>
<!-- Node1 -->
<g id="node1" class="node">
<title>Node1</title>
<g id="a_node1"><a xlink:title=" ">
<polygon fill="#bfbfbf" stroke="black" points="130,-801.5 130,-935.5 267,-935.5 267,-801.5 130,-801.5"/>
<text text-anchor="middle" x="198.5" y="-923.5" font-family="Helvetica,sans-Serif" font-size="10.00">net::ConnectEventReceiver</text>
<polyline fill="none" stroke="black" points="130,-916.5 267,-916.5 "/>
<text text-anchor="middle" x="198.5" y="-904.5" font-family="Helvetica,sans-Serif" font-size="10.00"> </text>
<polyline fill="none" stroke="black" points="130,-897.5 267,-897.5 "/>
<text text-anchor="start" x="138" y="-885.5" font-family="Helvetica,sans-Serif" font-size="10.00">+ setTimeout()</text>
<text text-anchor="start" x="138" y="-874.5" font-family="Helvetica,sans-Serif" font-size="10.00">+ enable()</text>
<text text-anchor="start" x="138" y="-863.5" font-family="Helvetica,sans-Serif" font-size="10.00">+ disable()</text>
<text text-anchor="start" x="138" y="-852.5" font-family="Helvetica,sans-Serif" font-size="10.00">+ suspend()</text>
<text text-anchor="start" x="138" y="-841.5" font-family="Helvetica,sans-Serif" font-size="10.00">+ resume()</text>
<text text-anchor="start" x="138" y="-830.5" font-family="Helvetica,sans-Serif" font-size="10.00"># ConnectEventReceiver()</text>
<text text-anchor="start" x="138" y="-819.5" font-family="Helvetica,sans-Serif" font-size="10.00"># connectEvent()</text>
<text text-anchor="start" x="138" y="-808.5" font-family="Helvetica,sans-Serif" font-size="10.00"># dispatchEvent()</text>
</a>
</g>
</g>
<!-- Node4 -->
<g id="node4" class="node">
<title>Node4</title>
<g id="a_node4"><a xlink:href="classnet_1_1socket_1_1stream_1_1_socket_connector.html" target="_top" xlink:title=" ">
<polygon fill="white" stroke="black" points="97,-497.5 97,-763.5 300,-763.5 300,-497.5 97,-497.5"/>
<text text-anchor="start" x="105" y="-751.5" font-family="Helvetica,sans-Serif" font-size="10.00">net::socket::stream</text>
<text text-anchor="middle" x="198.5" y="-740.5" font-family="Helvetica,sans-Serif" font-size="10.00">::SocketConnector&lt; SocketConnectionT &gt;</text>
<polyline fill="none" stroke="black" points="97,-733.5 300,-733.5 "/>
<text text-anchor="start" x="105" y="-721.5" font-family="Helvetica,sans-Serif" font-size="10.00"># onError</text>
<text text-anchor="start" x="105" y="-710.5" font-family="Helvetica,sans-Serif" font-size="10.00">&#45; onConstruct</text>
<text text-anchor="start" x="105" y="-699.5" font-family="Helvetica,sans-Serif" font-size="10.00">&#45; onDestruct</text>
<text text-anchor="start" x="105" y="-688.5" font-family="Helvetica,sans-Serif" font-size="10.00">&#45; onConnect</text>
<text text-anchor="start" x="105" y="-677.5" font-family="Helvetica,sans-Serif" font-size="10.00">&#45; onDisconnect</text>
<text text-anchor="start" x="105" y="-666.5" font-family="Helvetica,sans-Serif" font-size="10.00">&#45; onRead</text>
<text text-anchor="start" x="105" y="-655.5" font-family="Helvetica,sans-Serif" font-size="10.00">&#45; onReadError</text>
<text text-anchor="start" x="105" y="-644.5" font-family="Helvetica,sans-Serif" font-size="10.00">&#45; onWriteError</text>
<text text-anchor="start" x="105" y="-633.5" font-family="Helvetica,sans-Serif" font-size="10.00">&#45; socketConnection</text>
<text text-anchor="start" x="105" y="-622.5" font-family="Helvetica,sans-Serif" font-size="10.00">&#45; options</text>
<polyline fill="none" stroke="black" points="97,-615.5 300,-615.5 "/>
<text text-anchor="start" x="105" y="-603.5" font-family="Helvetica,sans-Serif" font-size="10.00"># SocketConnector()</text>
<text text-anchor="start" x="105" y="-592.5" font-family="Helvetica,sans-Serif" font-size="10.00"># SocketConnector()</text>
<text text-anchor="start" x="105" y="-581.5" font-family="Helvetica,sans-Serif" font-size="10.00"># SocketConnector()</text>
<text text-anchor="start" x="105" y="-570.5" font-family="Helvetica,sans-Serif" font-size="10.00"># operator=()</text>
<text text-anchor="start" x="105" y="-559.5" font-family="Helvetica,sans-Serif" font-size="10.00"># ~SocketConnector()</text>
<text text-anchor="start" x="105" y="-548.5" font-family="Helvetica,sans-Serif" font-size="10.00"># connect()</text>
<text text-anchor="start" x="105" y="-537.5" font-family="Helvetica,sans-Serif" font-size="10.00">&#45; connectEvent()</text>
<text text-anchor="start" x="105" y="-526.5" font-family="Helvetica,sans-Serif" font-size="10.00">&#45; readEvent()</text>
<text text-anchor="start" x="105" y="-515.5" font-family="Helvetica,sans-Serif" font-size="10.00">&#45; unobserved()</text>
<text text-anchor="start" x="105" y="-504.5" font-family="Helvetica,sans-Serif" font-size="10.00">&#45; destruct()</text>
</a>
</g>
</g>
<!-- Node1&#45;&gt;Node4 -->
<g id="edge3" class="edge">
<title>Node1&#45;&gt;Node4</title>
<path fill="none" stroke="midnightblue" d="M198.5,-791.24C198.5,-782.4 198.5,-773.2 198.5,-763.87"/>
<polygon fill="none" stroke="midnightblue" points="195,-791.45 198.5,-801.45 202,-791.45 195,-791.45"/>
</g>
<!-- Node5 -->
<g id="node5" class="node">
<title>Node5</title>
<g id="a_node5"><a xlink:href="classnet_1_1socket_1_1stream_1_1_socket_connector.html" target="_top" xlink:title=" ">
<polygon fill="white" stroke="black" points="0,-150.5 0,-438.5 137,-438.5 137,-150.5 0,-150.5"/>
<text text-anchor="start" x="8" y="-426.5" font-family="Helvetica,sans-Serif" font-size="10.00">net::socket::stream</text>
<text text-anchor="start" x="8" y="-415.5" font-family="Helvetica,sans-Serif" font-size="10.00">::SocketConnector&lt; stream</text>
<text text-anchor="start" x="8" y="-404.5" font-family="Helvetica,sans-Serif" font-size="10.00">::legacy::SocketConnection</text>
<text text-anchor="middle" x="68.5" y="-393.5" font-family="Helvetica,sans-Serif" font-size="10.00">&lt; SocketT &gt; &gt;</text>
<polyline fill="none" stroke="black" points="0,-386.5 137,-386.5 "/>
<text text-anchor="start" x="8" y="-374.5" font-family="Helvetica,sans-Serif" font-size="10.00"># onError</text>
<text text-anchor="start" x="8" y="-363.5" font-family="Helvetica,sans-Serif" font-size="10.00">&#45; onConstruct</text>
<text text-anchor="start" x="8" y="-352.5" font-family="Helvetica,sans-Serif" font-size="10.00">&#45; onDestruct</text>
<text text-anchor="start" x="8" y="-341.5" font-family="Helvetica,sans-Serif" font-size="10.00">&#45; onConnect</text>
<text text-anchor="start" x="8" y="-330.5" font-family="Helvetica,sans-Serif" font-size="10.00">&#45; onDisconnect</text>
<text text-anchor="start" x="8" y="-319.5" font-family="Helvetica,sans-Serif" font-size="10.00">&#45; onRead</text>
<text text-anchor="start" x="8" y="-308.5" font-family="Helvetica,sans-Serif" font-size="10.00">&#45; onReadError</text>
<text text-anchor="start" x="8" y="-297.5" font-family="Helvetica,sans-Serif" font-size="10.00">&#45; onWriteError</text>
<text text-anchor="start" x="8" y="-286.5" font-family="Helvetica,sans-Serif" font-size="10.00">&#45; socketConnection</text>
<text text-anchor="start" x="8" y="-275.5" font-family="Helvetica,sans-Serif" font-size="10.00">&#45; options</text>
<polyline fill="none" stroke="black" points="0,-268.5 137,-268.5 "/>
<text text-anchor="start" x="8" y="-256.5" font-family="Helvetica,sans-Serif" font-size="10.00"># SocketConnector()</text>
<text text-anchor="start" x="8" y="-245.5" font-family="Helvetica,sans-Serif" font-size="10.00"># SocketConnector()</text>
<text text-anchor="start" x="8" y="-234.5" font-family="Helvetica,sans-Serif" font-size="10.00"># SocketConnector()</text>
<text text-anchor="start" x="8" y="-223.5" font-family="Helvetica,sans-Serif" font-size="10.00"># operator=()</text>
<text text-anchor="start" x="8" y="-212.5" font-family="Helvetica,sans-Serif" font-size="10.00"># ~SocketConnector()</text>
<text text-anchor="start" x="8" y="-201.5" font-family="Helvetica,sans-Serif" font-size="10.00"># connect()</text>
<text text-anchor="start" x="8" y="-190.5" font-family="Helvetica,sans-Serif" font-size="10.00">&#45; connectEvent()</text>
<text text-anchor="start" x="8" y="-179.5" font-family="Helvetica,sans-Serif" font-size="10.00">&#45; readEvent()</text>
<text text-anchor="start" x="8" y="-168.5" font-family="Helvetica,sans-Serif" font-size="10.00">&#45; unobserved()</text>
<text text-anchor="start" x="8" y="-157.5" font-family="Helvetica,sans-Serif" font-size="10.00">&#45; destruct()</text>
</a>
</g>
</g>
<!-- Node1&#45;&gt;Node5 -->
<g id="edge8" class="edge">
<title>Node1&#45;&gt;Node5</title>
<path fill="none" stroke="midnightblue" d="M122.35,-811.86C108.37,-797.88 95.65,-781.74 87.5,-764 40.84,-662.37 38.78,-534.91 46.9,-438.6"/>
<polygon fill="none" stroke="midnightblue" points="120.11,-814.57 129.75,-818.97 124.96,-809.52 120.11,-814.57"/>
</g>
<!-- Node7 -->
<g id="node7" class="node">
<title>Node7</title>
<g id="a_node7"><a xlink:href="classnet_1_1socket_1_1stream_1_1_socket_connector.html" target="_top" xlink:title=" ">
<polygon fill="white" stroke="black" points="162,-150.5 162,-438.5 299,-438.5 299,-150.5 162,-150.5"/>
<text text-anchor="start" x="170" y="-426.5" font-family="Helvetica,sans-Serif" font-size="10.00">net::socket::stream</text>
<text text-anchor="start" x="170" y="-415.5" font-family="Helvetica,sans-Serif" font-size="10.00">::SocketConnector&lt; stream</text>
<text text-anchor="start" x="170" y="-404.5" font-family="Helvetica,sans-Serif" font-size="10.00">::tls::SocketConnection</text>
<text text-anchor="middle" x="230.5" y="-393.5" font-family="Helvetica,sans-Serif" font-size="10.00">&lt; SocketT &gt; &gt;</text>
<polyline fill="none" stroke="black" points="162,-386.5 299,-386.5 "/>
<text text-anchor="start" x="170" y="-374.5" font-family="Helvetica,sans-Serif" font-size="10.00"># onError</text>
<text text-anchor="start" x="170" y="-363.5" font-family="Helvetica,sans-Serif" font-size="10.00">&#45; onConstruct</text>
<text text-anchor="start" x="170" y="-352.5" font-family="Helvetica,sans-Serif" font-size="10.00">&#45; onDestruct</text>
<text text-anchor="start" x="170" y="-341.5" font-family="Helvetica,sans-Serif" font-size="10.00">&#45; onConnect</text>
<text text-anchor="start" x="170" y="-330.5" font-family="Helvetica,sans-Serif" font-size="10.00">&#45; onDisconnect</text>
<text text-anchor="start" x="170" y="-319.5" font-family="Helvetica,sans-Serif" font-size="10.00">&#45; onRead</text>
<text text-anchor="start" x="170" y="-308.5" font-family="Helvetica,sans-Serif" font-size="10.00">&#45; onReadError</text>
<text text-anchor="start" x="170" y="-297.5" font-family="Helvetica,sans-Serif" font-size="10.00">&#45; onWriteError</text>
<text text-anchor="start" x="170" y="-286.5" font-family="Helvetica,sans-Serif" font-size="10.00">&#45; socketConnection</text>
<text text-anchor="start" x="170" y="-275.5" font-family="Helvetica,sans-Serif" font-size="10.00">&#45; options</text>
<polyline fill="none" stroke="black" points="162,-268.5 299,-268.5 "/>
<text text-anchor="start" x="170" y="-256.5" font-family="Helvetica,sans-Serif" font-size="10.00"># SocketConnector()</text>
<text text-anchor="start" x="170" y="-245.5" font-family="Helvetica,sans-Serif" font-size="10.00"># SocketConnector()</text>
<text text-anchor="start" x="170" y="-234.5" font-family="Helvetica,sans-Serif" font-size="10.00"># SocketConnector()</text>
<text text-anchor="start" x="170" y="-223.5" font-family="Helvetica,sans-Serif" font-size="10.00"># operator=()</text>
<text text-anchor="start" x="170" y="-212.5" font-family="Helvetica,sans-Serif" font-size="10.00"># ~SocketConnector()</text>
<text text-anchor="start" x="170" y="-201.5" font-family="Helvetica,sans-Serif" font-size="10.00"># connect()</text>
<text text-anchor="start" x="170" y="-190.5" font-family="Helvetica,sans-Serif" font-size="10.00">&#45; connectEvent()</text>
<text text-anchor="start" x="170" y="-179.5" font-family="Helvetica,sans-Serif" font-size="10.00">&#45; readEvent()</text>
<text text-anchor="start" x="170" y="-168.5" font-family="Helvetica,sans-Serif" font-size="10.00">&#45; unobserved()</text>
<text text-anchor="start" x="170" y="-157.5" font-family="Helvetica,sans-Serif" font-size="10.00">&#45; destruct()</text>
</a>
</g>
</g>
<!-- Node1&#45;&gt;Node7 -->
<g id="edge9" class="edge">
<title>Node1&#45;&gt;Node7</title>
<path fill="none" stroke="midnightblue" d="M274.52,-808.22C287.55,-794.94 299.7,-779.99 308.5,-764 370.71,-650.99 351.22,-607.42 363.5,-479 364.43,-469.27 366.8,-466.2 363.5,-457 350.25,-420.08 324.51,-385.56 299.18,-358"/>
<polygon fill="none" stroke="midnightblue" points="271.88,-805.92 267.21,-815.43 276.79,-810.9 271.88,-805.92"/>
</g>
<!-- Node2 -->
<g id="node2" class="node">
<title>Node2</title>
<g id="a_node2"><a xlink:href="classnet_1_1_event_receiver.html" target="_top" xlink:title=" ">
<polygon fill="white" stroke="black" points="148,-973.5 148,-1283.5 249,-1283.5 249,-973.5 148,-973.5"/>
<text text-anchor="middle" x="198.5" y="-1271.5" font-family="Helvetica,sans-Serif" font-size="10.00">net::EventReceiver</text>
<polyline fill="none" stroke="black" points="148,-1264.5 249,-1264.5 "/>
<text text-anchor="start" x="156" y="-1252.5" font-family="Helvetica,sans-Serif" font-size="10.00"># fd</text>
<text text-anchor="start" x="156" y="-1241.5" font-family="Helvetica,sans-Serif" font-size="10.00">&#45; _enabled</text>
<text text-anchor="start" x="156" y="-1230.5" font-family="Helvetica,sans-Serif" font-size="10.00">&#45; _suspended</text>
<text text-anchor="start" x="156" y="-1219.5" font-family="Helvetica,sans-Serif" font-size="10.00">&#45; maxInactivity</text>
<polyline fill="none" stroke="black" points="148,-1212.5 249,-1212.5 "/>
<text text-anchor="start" x="156" y="-1200.5" font-family="Helvetica,sans-Serif" font-size="10.00">+ EventReceiver()</text>
<text text-anchor="start" x="156" y="-1189.5" font-family="Helvetica,sans-Serif" font-size="10.00">+ operator=()</text>
<text text-anchor="start" x="156" y="-1178.5" font-family="Helvetica,sans-Serif" font-size="10.00"># EventReceiver()</text>
<text text-anchor="start" x="156" y="-1167.5" font-family="Helvetica,sans-Serif" font-size="10.00"># ~EventReceiver()</text>
<text text-anchor="start" x="156" y="-1156.5" font-family="Helvetica,sans-Serif" font-size="10.00"># setTimeout()</text>
<text text-anchor="start" x="156" y="-1145.5" font-family="Helvetica,sans-Serif" font-size="10.00"># isEnabled()</text>
<text text-anchor="start" x="156" y="-1134.5" font-family="Helvetica,sans-Serif" font-size="10.00"># isSuspended()</text>
<text text-anchor="start" x="156" y="-1123.5" font-family="Helvetica,sans-Serif" font-size="10.00">&#45; dispatchEvent()</text>
<text text-anchor="start" x="156" y="-1112.5" font-family="Helvetica,sans-Serif" font-size="10.00">&#45; timeout()</text>
<text text-anchor="start" x="156" y="-1101.5" font-family="Helvetica,sans-Serif" font-size="10.00">&#45; enabled()</text>
<text text-anchor="start" x="156" y="-1090.5" font-family="Helvetica,sans-Serif" font-size="10.00">&#45; disabled()</text>
<text text-anchor="start" x="156" y="-1079.5" font-family="Helvetica,sans-Serif" font-size="10.00">&#45; suspended()</text>
<text text-anchor="start" x="156" y="-1068.5" font-family="Helvetica,sans-Serif" font-size="10.00">&#45; resumed()</text>
<text text-anchor="start" x="156" y="-1057.5" font-family="Helvetica,sans-Serif" font-size="10.00">&#45; getTimeout()</text>
<text text-anchor="start" x="156" y="-1046.5" font-family="Helvetica,sans-Serif" font-size="10.00">&#45; getLastTriggered()</text>
<text text-anchor="start" x="156" y="-1035.5" font-family="Helvetica,sans-Serif" font-size="10.00">&#45; triggered()</text>
<text text-anchor="start" x="156" y="-1024.5" font-family="Helvetica,sans-Serif" font-size="10.00">&#45; enable()</text>
<text text-anchor="start" x="156" y="-1013.5" font-family="Helvetica,sans-Serif" font-size="10.00">&#45; disable()</text>
<text text-anchor="start" x="156" y="-1002.5" font-family="Helvetica,sans-Serif" font-size="10.00">&#45; suspend()</text>
<text text-anchor="start" x="156" y="-991.5" font-family="Helvetica,sans-Serif" font-size="10.00">&#45; resume()</text>
<text text-anchor="start" x="156" y="-980.5" font-family="Helvetica,sans-Serif" font-size="10.00">&#45; unobserved()</text>
</a>
</g>
</g>
<!-- Node2&#45;&gt;Node1 -->
<g id="edge1" class="edge">
<title>Node2&#45;&gt;Node1</title>
<path fill="none" stroke="midnightblue" d="M198.5,-963.25C198.5,-953.67 198.5,-944.38 198.5,-935.59"/>
<polygon fill="none" stroke="midnightblue" points="195,-963.32 198.5,-973.32 202,-963.32 195,-963.32"/>
</g>
<!-- Node3 -->
<g id="node3" class="node">
<title>Node3</title>
<g id="a_node3"><a xlink:href="classnet_1_1_observation_counter.html" target="_top" xlink:title=" ">
<polygon fill="white" stroke="black" points="137,-1321.5 137,-1378.5 260,-1378.5 260,-1321.5 137,-1321.5"/>
<text text-anchor="middle" x="198.5" y="-1366.5" font-family="Helvetica,sans-Serif" font-size="10.00">net::ObservationCounter</text>
<polyline fill="none" stroke="black" points="137,-1359.5 260,-1359.5 "/>
<text text-anchor="start" x="145" y="-1347.5" font-family="Helvetica,sans-Serif" font-size="10.00"># observationCounter</text>
<polyline fill="none" stroke="black" points="137,-1340.5 260,-1340.5 "/>
<text text-anchor="start" x="145" y="-1328.5" font-family="Helvetica,sans-Serif" font-size="10.00">+ isObserved()</text>
</a>
</g>
</g>
<!-- Node3&#45;&gt;Node2 -->
<g id="edge2" class="edge">
<title>Node3&#45;&gt;Node2</title>
<path fill="none" stroke="midnightblue" d="M198.5,-1310.99C198.5,-1302.78 198.5,-1293.62 198.5,-1283.89"/>
<polygon fill="none" stroke="midnightblue" points="195,-1311.2 198.5,-1321.2 202,-1311.2 195,-1311.2"/>
</g>
<!-- Node4&#45;&gt;Node5 -->
<g id="edge4" class="edge">
<title>Node4&#45;&gt;Node5</title>
<path fill="none" stroke="orange" d="M100.34,-488.25C98.99,-485.17 97.71,-482.09 96.5,-479 91.5,-466.25 87.39,-452.67 84.01,-438.9"/>
<polygon fill="orange" stroke="orange" points="97.21,-489.84 104.56,-497.47 103.58,-486.92 97.21,-489.84"/>
<text text-anchor="start" x="96.5" y="-471" font-family="Helvetica,sans-Serif" font-size="10.00"> &lt; stream::legacy::Socket</text>
<text text-anchor="middle" x="153.5" y="-460" font-family="Helvetica,sans-Serif" font-size="10.00">Connection&lt; SocketT &gt; &gt;</text>
</g>
<!-- Node4&#45;&gt;Node7 -->
<g id="edge6" class="edge">
<title>Node4&#45;&gt;Node7</title>
<path fill="none" stroke="orange" d="M212.11,-487.48C213.66,-471.31 215.24,-454.83 216.79,-438.65"/>
<polygon fill="orange" stroke="orange" points="208.62,-487.21 211.15,-497.49 215.59,-487.87 208.62,-487.21"/>
<text text-anchor="start" x="214.5" y="-471" font-family="Helvetica,sans-Serif" font-size="10.00"> &lt; stream::tls::SocketConnection</text>
<text text-anchor="middle" x="287" y="-460" font-family="Helvetica,sans-Serif" font-size="10.00">&lt; SocketT &gt; &gt;</text>
</g>
<!-- Node6 -->
<g id="node6" class="node">
<title>Node6</title>
<g id="a_node6"><a xlink:href="classnet_1_1socket_1_1stream_1_1legacy_1_1_socket_connector.html" target="_top" xlink:title=" ">
<polygon fill="white" stroke="black" points="2,-17 2,-96 135,-96 135,-17 2,-17"/>
<text text-anchor="start" x="10" y="-84" font-family="Helvetica,sans-Serif" font-size="10.00">net::socket::stream</text>
<text text-anchor="start" x="10" y="-73" font-family="Helvetica,sans-Serif" font-size="10.00">::legacy::SocketConnector</text>
<text text-anchor="middle" x="68.5" y="-62" font-family="Helvetica,sans-Serif" font-size="10.00">&lt; SocketT &gt;</text>
<polyline fill="none" stroke="black" points="2,-55 135,-55 "/>
<text text-anchor="middle" x="68.5" y="-43" font-family="Helvetica,sans-Serif" font-size="10.00"> </text>
<polyline fill="none" stroke="black" points="2,-36 135,-36 "/>
<text text-anchor="middle" x="68.5" y="-24" font-family="Helvetica,sans-Serif" font-size="10.00"> </text>
</a>
</g>
</g>
<!-- Node5&#45;&gt;Node6 -->
<g id="edge5" class="edge">
<title>Node5&#45;&gt;Node6</title>
<path fill="none" stroke="midnightblue" d="M68.5,-140.25C68.5,-124.09 68.5,-108.89 68.5,-96.04"/>
<polygon fill="none" stroke="midnightblue" points="65,-140.43 68.5,-150.43 72,-140.43 65,-140.43"/>
</g>
<!-- Node8 -->
<g id="node8" class="node">
<title>Node8</title>
<g id="a_node8"><a xlink:href="classnet_1_1socket_1_1stream_1_1tls_1_1_socket_connector.html" target="_top" xlink:title=" ">
<polygon fill="white" stroke="black" points="173,-0.5 173,-112.5 288,-112.5 288,-0.5 173,-0.5"/>
<text text-anchor="start" x="181" y="-100.5" font-family="Helvetica,sans-Serif" font-size="10.00">net::socket::stream</text>
<text text-anchor="start" x="181" y="-89.5" font-family="Helvetica,sans-Serif" font-size="10.00">::tls::SocketConnector</text>
<text text-anchor="middle" x="230.5" y="-78.5" font-family="Helvetica,sans-Serif" font-size="10.00">&lt; SocketT &gt;</text>
<polyline fill="none" stroke="black" points="173,-71.5 288,-71.5 "/>
<text text-anchor="start" x="181" y="-59.5" font-family="Helvetica,sans-Serif" font-size="10.00"># ctx</text>
<text text-anchor="start" x="181" y="-48.5" font-family="Helvetica,sans-Serif" font-size="10.00"># sslErr</text>
<polyline fill="none" stroke="black" points="173,-41.5 288,-41.5 "/>
<text text-anchor="start" x="181" y="-29.5" font-family="Helvetica,sans-Serif" font-size="10.00"># SocketConnector()</text>
<text text-anchor="start" x="181" y="-18.5" font-family="Helvetica,sans-Serif" font-size="10.00"># ~SocketConnector()</text>
<text text-anchor="start" x="181" y="-7.5" font-family="Helvetica,sans-Serif" font-size="10.00"># connect()</text>
</a>
</g>
</g>
<!-- Node7&#45;&gt;Node8 -->
<g id="edge7" class="edge">
<title>Node7&#45;&gt;Node8</title>
<path fill="none" stroke="midnightblue" d="M230.5,-140.28C230.5,-130.64 230.5,-121.35 230.5,-112.69"/>
<polygon fill="none" stroke="midnightblue" points="227,-140.43 230.5,-150.43 234,-140.43 227,-140.43"/>
</g>
</g>
</svg>
