<?xml version="1.0" encoding="UTF-8" standalone="no"?>
<!DOCTYPE svg PUBLIC "-//W3C//DTD SVG 1.1//EN"
 "http://www.w3.org/Graphics/SVG/1.1/DTD/svg11.dtd">
<!-- Generated by graphviz version 2.43.0 (0)
 -->
<!-- Title: net::EventDispatcher::unobserveDisabledEventReceiver Pages: 1 -->
<svg width="617pt" height="53pt"
 viewBox="0.00 0.00 617.00 52.50" xmlns="http://www.w3.org/2000/svg" xmlns:xlink="http://www.w3.org/1999/xlink">
<g id="graph0" class="graph" transform="scale(1 1) rotate(0) translate(4 48.5)">
<title>net::EventDispatcher::unobserveDisabledEventReceiver</title>
<polygon fill="white" stroke="transparent" points="-4,4 -4,-48.5 613,-48.5 613,4 -4,4"/>
<!-- Node1 -->
<g id="node1" class="node">
<title>Node1</title>
<g id="a_node1"><a xlink:title=" ">
<polygon fill="#bfbfbf" stroke="black" points="439,-14 439,-44 609,-44 609,-14 439,-14"/>
<text text-anchor="start" x="447" y="-32" font-family="Helvetica,sans-Serif" font-size="10.00">net::EventDispatcher</text>
<text text-anchor="middle" x="524" y="-21" font-family="Helvetica,sans-Serif" font-size="10.00">::unobserveDisabledEventReceiver</text>
</a>
</g>
</g>
<!-- Node2 -->
<g id="node2" class="node">
<title>Node2</title>
<g id="a_node2"><a xlink:href="classnet_1_1_event_loop.html#a7465cce1b49c9ebbb1b2676643ca676d" target="_top" xlink:title=" ">
<polygon fill="white" stroke="black" points="155,-19.5 155,-38.5 263,-38.5 263,-19.5 155,-19.5"/>
<text text-anchor="middle" x="209" y="-26.5" font-family="Helvetica,sans-Serif" font-size="10.00">net::EventLoop::start</text>
</a>
</g>
</g>
<!-- Node1&#45;&gt;Node2 -->
<g id="edge1" class="edge">
<title>Node1&#45;&gt;Node2</title>
<path fill="none" stroke="midnightblue" d="M428.42,-29C374.38,-29 308.59,-29 263.43,-29"/>
<polygon fill="midnightblue" stroke="midnightblue" points="428.71,-32.5 438.71,-29 428.71,-25.5 428.71,-32.5"/>
</g>
<!-- Node4 -->
<g id="node4" class="node">
<title>Node4</title>
<g id="a_node4"><a xlink:href="classnet_1_1_event_loop.html#af391b0a968b89c98ae4c9c78449cd0d6" target="_top" xlink:title=" ">
<polygon fill="white" stroke="black" points="299,-0.5 299,-19.5 403,-19.5 403,-0.5 299,-0.5"/>
<text text-anchor="middle" x="351" y="-7.5" font-family="Helvetica,sans-Serif" font-size="10.00">net::EventLoop::tick</text>
</a>
</g>
</g>
<!-- Node1&#45;&gt;Node4 -->
<g id="edge3" class="edge">
<title>Node1&#45;&gt;Node4</title>
<path fill="none" stroke="midnightblue" d="M428.81,-18.53C420.03,-17.56 411.37,-16.6 403.21,-15.69"/>
<polygon fill="midnightblue" stroke="midnightblue" points="428.43,-22.01 438.75,-19.64 429.2,-15.06 428.43,-22.01"/>
</g>
<!-- Node3 -->
<g id="node3" class="node">
<title>Node3</title>
<g id="a_node3"><a xlink:href="classexpress_1_1_web_app.html#a85d9fab4fae0881f8484e07c58f3157a" target="_top" xlink:title=" ">
<polygon fill="white" stroke="black" points="0,-19.5 0,-38.5 119,-38.5 119,-19.5 0,-19.5"/>
<text text-anchor="middle" x="59.5" y="-26.5" font-family="Helvetica,sans-Serif" font-size="10.00">express::WebApp::start</text>
</a>
</g>
</g>
<!-- Node2&#45;&gt;Node3 -->
<g id="edge2" class="edge">
<title>Node2&#45;&gt;Node3</title>
<path fill="none" stroke="midnightblue" d="M144.58,-29C136.14,-29 127.52,-29 119.17,-29"/>
<polygon fill="midnightblue" stroke="midnightblue" points="144.75,-32.5 154.75,-29 144.75,-25.5 144.75,-32.5"/>
</g>
<!-- Node4&#45;&gt;Node2 -->
<g id="edge4" class="edge">
<title>Node4&#45;&gt;Node2</title>
<path fill="none" stroke="midnightblue" d="M288.5,-18.35C280.07,-19.49 271.47,-20.66 263.21,-21.78"/>
<polygon fill="midnightblue" stroke="midnightblue" points="289.23,-21.78 298.66,-16.97 288.28,-14.84 289.23,-21.78"/>
</g>
</g>
</svg>
