<?xml version="1.0" encoding="UTF-8" standalone="no"?>
<!DOCTYPE svg PUBLIC "-//W3C//DTD SVG 1.1//EN"
 "http://www.w3.org/Graphics/SVG/1.1/DTD/svg11.dtd">
<!-- Generated by graphviz version 2.43.0 (0)
 -->
<!-- Title: net::DescriptorEventDispatcher::observeEnabledEvents Pages: 1 -->
<svg width="736pt" height="53pt"
 viewBox="0.00 0.00 736.00 52.50" xmlns="http://www.w3.org/2000/svg" xmlns:xlink="http://www.w3.org/1999/xlink">
<g id="graph0" class="graph" transform="scale(1 1) rotate(0) translate(4 48.5)">
<title>net::DescriptorEventDispatcher::observeEnabledEvents</title>
<polygon fill="white" stroke="transparent" points="-4,4 -4,-48.5 732,-48.5 732,4 -4,4"/>
<!-- Node1 -->
<g id="node1" class="node">
<title>Node1</title>
<g id="a_node1"><a xlink:title=" ">
<polygon fill="#bfbfbf" stroke="black" points="574,-14 574,-44 728,-44 728,-14 574,-14"/>
<text text-anchor="start" x="582" y="-32" font-family="Helvetica,sans-Serif" font-size="10.00">net::DescriptorEventDispatcher</text>
<text text-anchor="middle" x="651" y="-21" font-family="Helvetica,sans-Serif" font-size="10.00">::observeEnabledEvents</text>
</a>
</g>
</g>
<!-- Node2 -->
<g id="node2" class="node">
<title>Node2</title>
<g id="a_node2"><a xlink:href="classnet_1_1_event_loop.html#a7465cce1b49c9ebbb1b2676643ca676d" target="_top" xlink:title=" ">
<polygon fill="white" stroke="black" points="290,-19.5 290,-38.5 398,-38.5 398,-19.5 290,-19.5"/>
<text text-anchor="middle" x="344" y="-26.5" font-family="Helvetica,sans-Serif" font-size="10.00">net::EventLoop::start</text>
</a>
</g>
</g>
<!-- Node1&#45;&gt;Node2 -->
<g id="edge1" class="edge">
<title>Node1&#45;&gt;Node2</title>
<path fill="none" stroke="midnightblue" d="M563.7,-29C510.45,-29 443.84,-29 398.21,-29"/>
<polygon fill="midnightblue" stroke="midnightblue" points="563.82,-32.5 573.82,-29 563.82,-25.5 563.82,-32.5"/>
</g>
<!-- Node5 -->
<g id="node5" class="node">
<title>Node5</title>
<g id="a_node5"><a xlink:href="classnet_1_1_event_loop.html#af391b0a968b89c98ae4c9c78449cd0d6" target="_top" xlink:title=" ">
<polygon fill="white" stroke="black" points="434,-0.5 434,-19.5 538,-19.5 538,-0.5 434,-0.5"/>
<text text-anchor="middle" x="486" y="-7.5" font-family="Helvetica,sans-Serif" font-size="10.00">net::EventLoop::tick</text>
</a>
</g>
</g>
<!-- Node1&#45;&gt;Node5 -->
<g id="edge4" class="edge">
<title>Node1&#45;&gt;Node5</title>
<path fill="none" stroke="midnightblue" d="M563.81,-18.95C555.02,-17.93 546.3,-16.91 538.07,-15.95"/>
<polygon fill="midnightblue" stroke="midnightblue" points="563.41,-22.43 573.75,-20.11 564.22,-15.48 563.41,-22.43"/>
</g>
<!-- Node3 -->
<g id="node3" class="node">
<title>Node3</title>
<g id="a_node3"><a xlink:href="classnet_1_1_s_node_c.html#ae564742b1a10574c836ae53b7634f4aa" target="_top" xlink:title=" ">
<polygon fill="white" stroke="black" points="155,-19.5 155,-38.5 254,-38.5 254,-19.5 155,-19.5"/>
<text text-anchor="middle" x="204.5" y="-26.5" font-family="Helvetica,sans-Serif" font-size="10.00">net::SNodeC::start</text>
</a>
</g>
</g>
<!-- Node2&#45;&gt;Node3 -->
<g id="edge2" class="edge">
<title>Node2&#45;&gt;Node3</title>
<path fill="none" stroke="midnightblue" d="M279.77,-29C271.12,-29 262.35,-29 254.02,-29"/>
<polygon fill="midnightblue" stroke="midnightblue" points="279.84,-32.5 289.84,-29 279.84,-25.5 279.84,-32.5"/>
</g>
<!-- Node4 -->
<g id="node4" class="node">
<title>Node4</title>
<g id="a_node4"><a xlink:href="classexpress_1_1_web_app.html#a85d9fab4fae0881f8484e07c58f3157a" target="_top" xlink:title=" ">
<polygon fill="white" stroke="black" points="0,-19.5 0,-38.5 119,-38.5 119,-19.5 0,-19.5"/>
<text text-anchor="middle" x="59.5" y="-26.5" font-family="Helvetica,sans-Serif" font-size="10.00">express::WebApp::start</text>
</a>
</g>
</g>
<!-- Node3&#45;&gt;Node4 -->
<g id="edge3" class="edge">
<title>Node3&#45;&gt;Node4</title>
<path fill="none" stroke="midnightblue" d="M144.61,-29C136.23,-29 127.6,-29 119.22,-29"/>
<polygon fill="midnightblue" stroke="midnightblue" points="144.69,-32.5 154.69,-29 144.69,-25.5 144.69,-32.5"/>
</g>
<!-- Node5&#45;&gt;Node2 -->
<g id="edge5" class="edge">
<title>Node5&#45;&gt;Node2</title>
<path fill="none" stroke="midnightblue" d="M423.5,-18.35C415.07,-19.49 406.47,-20.66 398.21,-21.78"/>
<polygon fill="midnightblue" stroke="midnightblue" points="424.23,-21.78 433.66,-16.97 423.28,-14.84 424.23,-21.78"/>
</g>
</g>
</svg>
