<?xml version="1.0" encoding="UTF-8" standalone="no"?>
<!DOCTYPE svg PUBLIC "-//W3C//DTD SVG 1.1//EN"
 "http://www.w3.org/Graphics/SVG/1.1/DTD/svg11.dtd">
<!-- Generated by graphviz version 2.43.0 (0)
 -->
<!-- Title: http::server::HTTPServerContext&lt; RequestT, ResponseT &gt; Pages: 1 -->
<svg width="175pt" height="623pt"
 viewBox="0.00 0.00 175.00 623.00" xmlns="http://www.w3.org/2000/svg" xmlns:xlink="http://www.w3.org/1999/xlink">
<g id="graph0" class="graph" transform="scale(1 1) rotate(0) translate(4 619)">
<title>http::server::HTTPServerContext&lt; RequestT, ResponseT &gt;</title>
<polygon fill="white" stroke="transparent" points="-4,4 -4,-619 171,-619 171,4 -4,4"/>
<!-- Node1 -->
<g id="node1" class="node">
<title>Node1</title>
<g id="a_node1"><a xlink:title=" ">
<polygon fill="#bfbfbf" stroke="black" points="0,-0.5 0,-211.5 167,-211.5 167,-0.5 0,-0.5"/>
<text text-anchor="start" x="8" y="-199.5" font-family="Helvetica,sans-Serif" font-size="10.00">http::server::HTTPServer</text>
<text text-anchor="middle" x="83.5" y="-188.5" font-family="Helvetica,sans-Serif" font-size="10.00">Context&lt; RequestT, ResponseT &gt;</text>
<polyline fill="none" stroke="black" points="0,-181.5 167,-181.5 "/>
<text text-anchor="start" x="8" y="-169.5" font-family="Helvetica,sans-Serif" font-size="10.00">&#45; onRequestReady</text>
<text text-anchor="start" x="8" y="-158.5" font-family="Helvetica,sans-Serif" font-size="10.00">&#45; parser</text>
<text text-anchor="start" x="8" y="-147.5" font-family="Helvetica,sans-Serif" font-size="10.00">&#45; requestContexts</text>
<text text-anchor="start" x="8" y="-136.5" font-family="Helvetica,sans-Serif" font-size="10.00">&#45; requestInProgress</text>
<text text-anchor="start" x="8" y="-125.5" font-family="Helvetica,sans-Serif" font-size="10.00">&#45; connectionTerminated</text>
<polyline fill="none" stroke="black" points="0,-118.5 167,-118.5 "/>
<text text-anchor="start" x="8" y="-106.5" font-family="Helvetica,sans-Serif" font-size="10.00">+ HTTPServerContext()</text>
<text text-anchor="start" x="8" y="-95.5" font-family="Helvetica,sans-Serif" font-size="10.00">+ ~HTTPServerContext()</text>
<text text-anchor="start" x="8" y="-84.5" font-family="Helvetica,sans-Serif" font-size="10.00">+ parseReceivedData()</text>
<text text-anchor="start" x="8" y="-73.5" font-family="Helvetica,sans-Serif" font-size="10.00">+ onReadError()</text>
<text text-anchor="start" x="8" y="-62.5" font-family="Helvetica,sans-Serif" font-size="10.00">+ sendResponseData()</text>
<text text-anchor="start" x="8" y="-51.5" font-family="Helvetica,sans-Serif" font-size="10.00">+ onWriteError()</text>
<text text-anchor="start" x="8" y="-40.5" font-family="Helvetica,sans-Serif" font-size="10.00">+ responseCompleted()</text>
<text text-anchor="start" x="8" y="-29.5" font-family="Helvetica,sans-Serif" font-size="10.00">+ terminateConnection()</text>
<text text-anchor="start" x="8" y="-18.5" font-family="Helvetica,sans-Serif" font-size="10.00">&#45; requestParsed()</text>
<text text-anchor="start" x="8" y="-7.5" font-family="Helvetica,sans-Serif" font-size="10.00">&#45; reset()</text>
</a>
</g>
</g>
<!-- Node2 -->
<g id="node2" class="node">
<title>Node2</title>
<g id="a_node2"><a xlink:href="classhttp_1_1server_1_1_h_t_t_p_server_context_base.html" target="_top" xlink:title=" ">
<polygon fill="white" stroke="black" points="20,-248.5 20,-338.5 147,-338.5 147,-248.5 20,-248.5"/>
<text text-anchor="start" x="28" y="-326.5" font-family="Helvetica,sans-Serif" font-size="10.00">http::server::HTTPServer</text>
<text text-anchor="middle" x="83.5" y="-315.5" font-family="Helvetica,sans-Serif" font-size="10.00">ContextBase</text>
<polyline fill="none" stroke="black" points="20,-308.5 147,-308.5 "/>
<text text-anchor="middle" x="83.5" y="-296.5" font-family="Helvetica,sans-Serif" font-size="10.00"> </text>
<polyline fill="none" stroke="black" points="20,-289.5 147,-289.5 "/>
<text text-anchor="start" x="28" y="-277.5" font-family="Helvetica,sans-Serif" font-size="10.00">+ sendResponseData()</text>
<text text-anchor="start" x="28" y="-266.5" font-family="Helvetica,sans-Serif" font-size="10.00">+ responseCompleted()</text>
<text text-anchor="start" x="28" y="-255.5" font-family="Helvetica,sans-Serif" font-size="10.00">+ terminateConnection()</text>
</a>
</g>
</g>
<!-- Node2&#45;&gt;Node1 -->
<g id="edge1" class="edge">
<title>Node2&#45;&gt;Node1</title>
<path fill="none" stroke="midnightblue" d="M83.5,-237.82C83.5,-229.51 83.5,-220.7 83.5,-211.74"/>
<polygon fill="none" stroke="midnightblue" points="80,-238.07 83.5,-248.07 87,-238.07 80,-238.07"/>
</g>
<!-- Node3 -->
<g id="node3" class="node">
<title>Node3</title>
<g id="a_node3"><a xlink:href="classhttp_1_1server_1_1_server_context.html" target="_top" xlink:title=" ">
<polygon fill="white" stroke="black" points="16,-375.5 16,-465.5 151,-465.5 151,-375.5 16,-375.5"/>
<text text-anchor="middle" x="83.5" y="-453.5" font-family="Helvetica,sans-Serif" font-size="10.00">http::server::ServerContext</text>
<polyline fill="none" stroke="black" points="16,-446.5 151,-446.5 "/>
<text text-anchor="start" x="24" y="-434.5" font-family="Helvetica,sans-Serif" font-size="10.00">&#45; markedForDelete</text>
<polyline fill="none" stroke="black" points="16,-427.5 151,-427.5 "/>
<text text-anchor="start" x="24" y="-415.5" font-family="Helvetica,sans-Serif" font-size="10.00">+ ~ServerContext()</text>
<text text-anchor="start" x="24" y="-404.5" font-family="Helvetica,sans-Serif" font-size="10.00">+ upgrade()</text>
<text text-anchor="start" x="24" y="-393.5" font-family="Helvetica,sans-Serif" font-size="10.00"># receiveData()</text>
<text text-anchor="start" x="24" y="-382.5" font-family="Helvetica,sans-Serif" font-size="10.00"># parseReceivedData()</text>
</a>
</g>
</g>
<!-- Node3&#45;&gt;Node2 -->
<g id="edge2" class="edge">
<title>Node3&#45;&gt;Node2</title>
<path fill="none" stroke="midnightblue" d="M83.5,-365.16C83.5,-356.28 83.5,-347.18 83.5,-338.59"/>
<polygon fill="none" stroke="midnightblue" points="80,-365.43 83.5,-375.43 87,-365.43 80,-365.43"/>
</g>
<!-- Node4 -->
<g id="node4" class="node">
<title>Node4</title>
<g id="a_node4"><a xlink:href="classnet_1_1socket_1_1stream_1_1_socket_protocol.html" target="_top" xlink:title=" ">
<polygon fill="white" stroke="black" points="21,-502.5 21,-614.5 146,-614.5 146,-502.5 21,-502.5"/>
<text text-anchor="start" x="29" y="-602.5" font-family="Helvetica,sans-Serif" font-size="10.00">net::socket::stream</text>
<text text-anchor="middle" x="83.5" y="-591.5" font-family="Helvetica,sans-Serif" font-size="10.00">::SocketProtocol</text>
<polyline fill="none" stroke="black" points="21,-584.5 146,-584.5 "/>
<text text-anchor="start" x="29" y="-572.5" font-family="Helvetica,sans-Serif" font-size="10.00"># socketConnection</text>
<polyline fill="none" stroke="black" points="21,-565.5 146,-565.5 "/>
<text text-anchor="start" x="29" y="-553.5" font-family="Helvetica,sans-Serif" font-size="10.00">+ ~SocketProtocol()</text>
<text text-anchor="start" x="29" y="-542.5" font-family="Helvetica,sans-Serif" font-size="10.00">+ receiveData()</text>
<text text-anchor="start" x="29" y="-531.5" font-family="Helvetica,sans-Serif" font-size="10.00">+ onWriteError()</text>
<text text-anchor="start" x="29" y="-520.5" font-family="Helvetica,sans-Serif" font-size="10.00">+ onReadError()</text>
<text text-anchor="start" x="29" y="-509.5" font-family="Helvetica,sans-Serif" font-size="10.00"># setSocketConnection()</text>
</a>
</g>
</g>
<!-- Node4&#45;&gt;Node3 -->
<g id="edge3" class="edge">
<title>Node4&#45;&gt;Node3</title>
<path fill="none" stroke="midnightblue" d="M83.5,-492.08C83.5,-483.07 83.5,-474.01 83.5,-465.51"/>
<polygon fill="none" stroke="midnightblue" points="80,-492.18 83.5,-502.18 87,-492.18 80,-492.18"/>
</g>
</g>
</svg>
