<?xml version="1.0" encoding="UTF-8" standalone="no"?>
<!DOCTYPE svg PUBLIC "-//W3C//DTD SVG 1.1//EN"
 "http://www.w3.org/Graphics/SVG/1.1/DTD/svg11.dtd">
<!-- Generated by graphviz version 2.43.0 (0)
 -->
<!-- Title: net::socket::ipv6::tcp::legacy::SocketClient Pages: 1 -->
<svg width="326pt" height="1161pt"
 viewBox="0.00 0.00 326.00 1161.00" xmlns="http://www.w3.org/2000/svg" xmlns:xlink="http://www.w3.org/1999/xlink">
<g id="graph0" class="graph" transform="scale(1 1) rotate(0) translate(4 1157)">
<title>net::socket::ipv6::tcp::legacy::SocketClient</title>
<polygon fill="white" stroke="transparent" points="-4,4 -4,-1157 322,-1157 322,4 -4,4"/>
<!-- Node1 -->
<g id="node1" class="node">
<title>Node1</title>
<g id="a_node1"><a xlink:title=" ">
<polygon fill="#bfbfbf" stroke="black" points="30.5,-0.5 30.5,-68.5 157.5,-68.5 157.5,-0.5 30.5,-0.5"/>
<text text-anchor="start" x="38.5" y="-56.5" font-family="Helvetica,sans-Serif" font-size="10.00">net::socket::ipv6::</text>
<text text-anchor="middle" x="94" y="-45.5" font-family="Helvetica,sans-Serif" font-size="10.00">tcp::legacy::SocketClient</text>
<polyline fill="none" stroke="black" points="30.5,-38.5 157.5,-38.5 "/>
<text text-anchor="middle" x="94" y="-26.5" font-family="Helvetica,sans-Serif" font-size="10.00"> </text>
<polyline fill="none" stroke="black" points="30.5,-19.5 157.5,-19.5 "/>
<text text-anchor="middle" x="94" y="-7.5" font-family="Helvetica,sans-Serif" font-size="10.00"> </text>
</a>
</g>
</g>
<!-- Node2 -->
<g id="node2" class="node">
<title>Node2</title>
<g id="a_node2"><a xlink:href="classnet_1_1socket_1_1stream_1_1legacy_1_1_socket_client.html" target="_top" xlink:title=" ">
<polygon fill="white" stroke="black" points="35,-106.5 35,-196.5 153,-196.5 153,-106.5 35,-106.5"/>
<text text-anchor="start" x="43" y="-184.5" font-family="Helvetica,sans-Serif" font-size="10.00">net::socket::stream</text>
<text text-anchor="start" x="43" y="-173.5" font-family="Helvetica,sans-Serif" font-size="10.00">::legacy::SocketClient</text>
<text text-anchor="start" x="43" y="-162.5" font-family="Helvetica,sans-Serif" font-size="10.00">&lt; net::socket::ipv6::tcp</text>
<text text-anchor="middle" x="94" y="-151.5" font-family="Helvetica,sans-Serif" font-size="10.00">::legacy::Socket &gt;</text>
<polyline fill="none" stroke="black" points="35,-144.5 153,-144.5 "/>
<text text-anchor="middle" x="94" y="-132.5" font-family="Helvetica,sans-Serif" font-size="10.00"> </text>
<polyline fill="none" stroke="black" points="35,-125.5 153,-125.5 "/>
<text text-anchor="middle" x="94" y="-113.5" font-family="Helvetica,sans-Serif" font-size="10.00"> </text>
</a>
</g>
</g>
<!-- Node2&#45;&gt;Node1 -->
<g id="edge1" class="edge">
<title>Node2&#45;&gt;Node1</title>
<path fill="none" stroke="midnightblue" d="M94,-96.23C94,-86.8 94,-77.26 94,-68.62"/>
<polygon fill="none" stroke="midnightblue" points="90.5,-96.37 94,-106.37 97.5,-96.37 90.5,-96.37"/>
</g>
<!-- Node3 -->
<g id="node3" class="node">
<title>Node3</title>
<g id="a_node3"><a xlink:href="classnet_1_1socket_1_1stream_1_1_socket_client.html" target="_top" xlink:title=" ">
<polygon fill="white" stroke="black" points="0,-353.5 0,-608.5 130,-608.5 130,-353.5 0,-353.5"/>
<text text-anchor="start" x="8" y="-596.5" font-family="Helvetica,sans-Serif" font-size="10.00">net::socket::stream</text>
<text text-anchor="start" x="8" y="-585.5" font-family="Helvetica,sans-Serif" font-size="10.00">::SocketClient&lt; legacy</text>
<text text-anchor="start" x="8" y="-574.5" font-family="Helvetica,sans-Serif" font-size="10.00">::SocketConnection&lt; net</text>
<text text-anchor="start" x="8" y="-563.5" font-family="Helvetica,sans-Serif" font-size="10.00">::socket::ipv6::tcp::legacy</text>
<text text-anchor="middle" x="65" y="-552.5" font-family="Helvetica,sans-Serif" font-size="10.00">::Socket &gt; &gt;</text>
<polyline fill="none" stroke="black" points="0,-545.5 130,-545.5 "/>
<text text-anchor="start" x="8" y="-533.5" font-family="Helvetica,sans-Serif" font-size="10.00"># options</text>
<text text-anchor="start" x="8" y="-522.5" font-family="Helvetica,sans-Serif" font-size="10.00"># isDynamic</text>
<text text-anchor="start" x="8" y="-511.5" font-family="Helvetica,sans-Serif" font-size="10.00"># lastAllocAddress</text>
<text text-anchor="start" x="8" y="-500.5" font-family="Helvetica,sans-Serif" font-size="10.00">&#45; onConstruct</text>
<text text-anchor="start" x="8" y="-489.5" font-family="Helvetica,sans-Serif" font-size="10.00">&#45; onDestruct</text>
<text text-anchor="start" x="8" y="-478.5" font-family="Helvetica,sans-Serif" font-size="10.00">&#45; onConnect</text>
<text text-anchor="start" x="8" y="-467.5" font-family="Helvetica,sans-Serif" font-size="10.00">&#45; onDisconnect</text>
<text text-anchor="start" x="8" y="-456.5" font-family="Helvetica,sans-Serif" font-size="10.00">&#45; onRead</text>
<text text-anchor="start" x="8" y="-445.5" font-family="Helvetica,sans-Serif" font-size="10.00">&#45; onReadError</text>
<text text-anchor="start" x="8" y="-434.5" font-family="Helvetica,sans-Serif" font-size="10.00">&#45; onWriteError</text>
<polyline fill="none" stroke="black" points="0,-427.5 130,-427.5 "/>
<text text-anchor="start" x="8" y="-415.5" font-family="Helvetica,sans-Serif" font-size="10.00">+ operator new()</text>
<text text-anchor="start" x="8" y="-404.5" font-family="Helvetica,sans-Serif" font-size="10.00">+ operator delete()</text>
<text text-anchor="start" x="8" y="-393.5" font-family="Helvetica,sans-Serif" font-size="10.00">+ SocketClient()</text>
<text text-anchor="start" x="8" y="-382.5" font-family="Helvetica,sans-Serif" font-size="10.00">+ SocketClient()</text>
<text text-anchor="start" x="8" y="-371.5" font-family="Helvetica,sans-Serif" font-size="10.00">+ ~SocketClient()</text>
<text text-anchor="start" x="8" y="-360.5" font-family="Helvetica,sans-Serif" font-size="10.00">+ connect()</text>
</a>
</g>
</g>
<!-- Node3&#45;&gt;Node2 -->
<g id="edge2" class="edge">
<title>Node3&#45;&gt;Node2</title>
<path fill="none" stroke="midnightblue" d="M77.11,-343.28C81.75,-290.79 86.74,-234.48 90.08,-196.75"/>
<polygon fill="none" stroke="midnightblue" points="73.61,-343.11 76.21,-353.38 80.58,-343.73 73.61,-343.11"/>
</g>
<!-- Node4 -->
<g id="node4" class="node">
<title>Node4</title>
<g id="a_node4"><a xlink:href="classnet_1_1socket_1_1stream_1_1_socket_client.html" target="_top" xlink:title=" ">
<polygon fill="white" stroke="black" points="42.5,-930.5 42.5,-1152.5 225.5,-1152.5 225.5,-930.5 42.5,-930.5"/>
<text text-anchor="start" x="50.5" y="-1140.5" font-family="Helvetica,sans-Serif" font-size="10.00">net::socket::stream</text>
<text text-anchor="middle" x="134" y="-1129.5" font-family="Helvetica,sans-Serif" font-size="10.00">::SocketClient&lt; SocketConnectionT &gt;</text>
<polyline fill="none" stroke="black" points="42.5,-1122.5 225.5,-1122.5 "/>
<text text-anchor="start" x="50.5" y="-1110.5" font-family="Helvetica,sans-Serif" font-size="10.00"># options</text>
<text text-anchor="start" x="50.5" y="-1099.5" font-family="Helvetica,sans-Serif" font-size="10.00"># isDynamic</text>
<text text-anchor="start" x="50.5" y="-1088.5" font-family="Helvetica,sans-Serif" font-size="10.00"># lastAllocAddress</text>
<text text-anchor="start" x="50.5" y="-1077.5" font-family="Helvetica,sans-Serif" font-size="10.00">&#45; onConstruct</text>
<text text-anchor="start" x="50.5" y="-1066.5" font-family="Helvetica,sans-Serif" font-size="10.00">&#45; onDestruct</text>
<text text-anchor="start" x="50.5" y="-1055.5" font-family="Helvetica,sans-Serif" font-size="10.00">&#45; onConnect</text>
<text text-anchor="start" x="50.5" y="-1044.5" font-family="Helvetica,sans-Serif" font-size="10.00">&#45; onDisconnect</text>
<text text-anchor="start" x="50.5" y="-1033.5" font-family="Helvetica,sans-Serif" font-size="10.00">&#45; onRead</text>
<text text-anchor="start" x="50.5" y="-1022.5" font-family="Helvetica,sans-Serif" font-size="10.00">&#45; onReadError</text>
<text text-anchor="start" x="50.5" y="-1011.5" font-family="Helvetica,sans-Serif" font-size="10.00">&#45; onWriteError</text>
<polyline fill="none" stroke="black" points="42.5,-1004.5 225.5,-1004.5 "/>
<text text-anchor="start" x="50.5" y="-992.5" font-family="Helvetica,sans-Serif" font-size="10.00">+ operator new()</text>
<text text-anchor="start" x="50.5" y="-981.5" font-family="Helvetica,sans-Serif" font-size="10.00">+ operator delete()</text>
<text text-anchor="start" x="50.5" y="-970.5" font-family="Helvetica,sans-Serif" font-size="10.00">+ SocketClient()</text>
<text text-anchor="start" x="50.5" y="-959.5" font-family="Helvetica,sans-Serif" font-size="10.00">+ SocketClient()</text>
<text text-anchor="start" x="50.5" y="-948.5" font-family="Helvetica,sans-Serif" font-size="10.00">+ ~SocketClient()</text>
<text text-anchor="start" x="50.5" y="-937.5" font-family="Helvetica,sans-Serif" font-size="10.00">+ connect()</text>
</a>
</g>
</g>
<!-- Node4&#45;&gt;Node3 -->
<g id="edge3" class="edge">
<title>Node4&#45;&gt;Node3</title>
<path fill="none" stroke="orange" d="M58.76,-920.94C57.76,-917.96 56.83,-914.98 56,-912 28.24,-812.77 33.02,-695.57 43.33,-608.61"/>
<polygon fill="orange" stroke="orange" points="55.51,-922.22 62.23,-930.41 62.08,-919.82 55.51,-922.22"/>
<text text-anchor="start" x="56" y="-904" font-family="Helvetica,sans-Serif" font-size="10.00"> &lt; legacy::SocketConnection</text>
<text text-anchor="start" x="56" y="-893" font-family="Helvetica,sans-Serif" font-size="10.00">&lt; net::socket::ipv6::tcp</text>
<text text-anchor="middle" x="119.5" y="-882" font-family="Helvetica,sans-Serif" font-size="10.00">::legacy::Socket &gt; &gt;</text>
</g>
<!-- Node6 -->
<g id="node6" class="node">
<title>Node6</title>
<g id="a_node6"><a xlink:href="classnet_1_1socket_1_1stream_1_1_socket_client.html" target="_top" xlink:title=" ">
<polygon fill="white" stroke="black" points="105.5,-627.5 105.5,-860.5 272.5,-860.5 272.5,-627.5 105.5,-627.5"/>
<text text-anchor="start" x="113.5" y="-848.5" font-family="Helvetica,sans-Serif" font-size="10.00">net::socket::stream</text>
<text text-anchor="start" x="113.5" y="-837.5" font-family="Helvetica,sans-Serif" font-size="10.00">::SocketClient&lt; legacy</text>
<text text-anchor="middle" x="189" y="-826.5" font-family="Helvetica,sans-Serif" font-size="10.00">::SocketConnection&lt; SocketT &gt; &gt;</text>
<polyline fill="none" stroke="black" points="105.5,-819.5 272.5,-819.5 "/>
<text text-anchor="start" x="113.5" y="-807.5" font-family="Helvetica,sans-Serif" font-size="10.00"># options</text>
<text text-anchor="start" x="113.5" y="-796.5" font-family="Helvetica,sans-Serif" font-size="10.00"># isDynamic</text>
<text text-anchor="start" x="113.5" y="-785.5" font-family="Helvetica,sans-Serif" font-size="10.00"># lastAllocAddress</text>
<text text-anchor="start" x="113.5" y="-774.5" font-family="Helvetica,sans-Serif" font-size="10.00">&#45; onConstruct</text>
<text text-anchor="start" x="113.5" y="-763.5" font-family="Helvetica,sans-Serif" font-size="10.00">&#45; onDestruct</text>
<text text-anchor="start" x="113.5" y="-752.5" font-family="Helvetica,sans-Serif" font-size="10.00">&#45; onConnect</text>
<text text-anchor="start" x="113.5" y="-741.5" font-family="Helvetica,sans-Serif" font-size="10.00">&#45; onDisconnect</text>
<text text-anchor="start" x="113.5" y="-730.5" font-family="Helvetica,sans-Serif" font-size="10.00">&#45; onRead</text>
<text text-anchor="start" x="113.5" y="-719.5" font-family="Helvetica,sans-Serif" font-size="10.00">&#45; onReadError</text>
<text text-anchor="start" x="113.5" y="-708.5" font-family="Helvetica,sans-Serif" font-size="10.00">&#45; onWriteError</text>
<polyline fill="none" stroke="black" points="105.5,-701.5 272.5,-701.5 "/>
<text text-anchor="start" x="113.5" y="-689.5" font-family="Helvetica,sans-Serif" font-size="10.00">+ operator new()</text>
<text text-anchor="start" x="113.5" y="-678.5" font-family="Helvetica,sans-Serif" font-size="10.00">+ operator delete()</text>
<text text-anchor="start" x="113.5" y="-667.5" font-family="Helvetica,sans-Serif" font-size="10.00">+ SocketClient()</text>
<text text-anchor="start" x="113.5" y="-656.5" font-family="Helvetica,sans-Serif" font-size="10.00">+ SocketClient()</text>
<text text-anchor="start" x="113.5" y="-645.5" font-family="Helvetica,sans-Serif" font-size="10.00">+ ~SocketClient()</text>
<text text-anchor="start" x="113.5" y="-634.5" font-family="Helvetica,sans-Serif" font-size="10.00">+ connect()</text>
</a>
</g>
</g>
<!-- Node4&#45;&gt;Node6 -->
<g id="edge6" class="edge">
<title>Node4&#45;&gt;Node6</title>
<path fill="none" stroke="orange" d="M185.09,-920.52C185.78,-917.67 186.42,-914.83 187,-912 190.37,-895.52 192.31,-877.94 193.3,-860.6"/>
<polygon fill="orange" stroke="orange" points="181.69,-919.67 182.53,-930.23 188.46,-921.46 181.69,-919.67"/>
<text text-anchor="start" x="191" y="-898.5" font-family="Helvetica,sans-Serif" font-size="10.00"> &lt; legacy::SocketConnection</text>
<text text-anchor="middle" x="254.5" y="-887.5" font-family="Helvetica,sans-Serif" font-size="10.00">&lt; SocketT &gt; &gt;</text>
</g>
<!-- Node5 -->
<g id="node5" class="node">
<title>Node5</title>
<g id="a_node5"><a xlink:href="classnet_1_1socket_1_1stream_1_1legacy_1_1_socket_client.html" target="_top" xlink:title=" ">
<polygon fill="white" stroke="black" points="119.5,-255.5 119.5,-334.5 232.5,-334.5 232.5,-255.5 119.5,-255.5"/>
<text text-anchor="start" x="127.5" y="-322.5" font-family="Helvetica,sans-Serif" font-size="10.00">net::socket::stream</text>
<text text-anchor="start" x="127.5" y="-311.5" font-family="Helvetica,sans-Serif" font-size="10.00">::legacy::SocketClient</text>
<text text-anchor="middle" x="176" y="-300.5" font-family="Helvetica,sans-Serif" font-size="10.00">&lt; SocketT &gt;</text>
<polyline fill="none" stroke="black" points="119.5,-293.5 232.5,-293.5 "/>
<text text-anchor="middle" x="176" y="-281.5" font-family="Helvetica,sans-Serif" font-size="10.00"> </text>
<polyline fill="none" stroke="black" points="119.5,-274.5 232.5,-274.5 "/>
<text text-anchor="middle" x="176" y="-262.5" font-family="Helvetica,sans-Serif" font-size="10.00"> </text>
</a>
</g>
</g>
<!-- Node5&#45;&gt;Node2 -->
<g id="edge4" class="edge">
<title>Node5&#45;&gt;Node2</title>
<path fill="none" stroke="orange" d="M148.52,-246.58C139.17,-230.45 128.76,-212.48 119.57,-196.62"/>
<polygon fill="orange" stroke="orange" points="145.55,-248.44 153.59,-255.33 151.61,-244.93 145.55,-248.44"/>
<text text-anchor="start" x="142" y="-229" font-family="Helvetica,sans-Serif" font-size="10.00"> &lt; net::socket::ipv6</text>
<text text-anchor="middle" x="192" y="-218" font-family="Helvetica,sans-Serif" font-size="10.00">::tcp::legacy::Socket &gt;</text>
</g>
<!-- Node6&#45;&gt;Node5 -->
<g id="edge5" class="edge">
<title>Node6&#45;&gt;Node5</title>
<path fill="none" stroke="midnightblue" d="M185.34,-617.29C182.57,-521.89 178.93,-396.88 177.12,-334.66"/>
<polygon fill="none" stroke="midnightblue" points="181.85,-617.41 185.64,-627.31 188.84,-617.21 181.85,-617.41"/>
</g>
</g>
</svg>
