<?xml version="1.0" encoding="UTF-8" standalone="no"?>
<!DOCTYPE svg PUBLIC "-//W3C//DTD SVG 1.1//EN"
 "http://www.w3.org/Graphics/SVG/1.1/DTD/svg11.dtd">
<!-- Generated by graphviz version 2.43.0 (0)
 -->
<!-- Title: net::socket::stream::legacy::SocketServer&lt; SocketT &gt; Pages: 1 -->
<svg width="297pt" height="983pt"
 viewBox="0.00 0.00 297.00 983.00" xmlns="http://www.w3.org/2000/svg" xmlns:xlink="http://www.w3.org/1999/xlink">
<g id="graph0" class="graph" transform="scale(1 1) rotate(0) translate(4 979)">
<title>net::socket::stream::legacy::SocketServer&lt; SocketT &gt;</title>
<polygon fill="white" stroke="transparent" points="-4,4 -4,-979 293,-979 293,4 -4,4"/>
<!-- Node1 -->
<g id="node1" class="node">
<title>Node1</title>
<g id="a_node1"><a xlink:title=" ">
<polygon fill="#bfbfbf" stroke="black" points="77,-255.5 77,-334.5 193,-334.5 193,-255.5 77,-255.5"/>
<text text-anchor="start" x="85" y="-322.5" font-family="Helvetica,sans-Serif" font-size="10.00">net::socket::stream</text>
<text text-anchor="start" x="85" y="-311.5" font-family="Helvetica,sans-Serif" font-size="10.00">::legacy::SocketServer</text>
<text text-anchor="middle" x="135" y="-300.5" font-family="Helvetica,sans-Serif" font-size="10.00">&lt; SocketT &gt;</text>
<polyline fill="none" stroke="black" points="77,-293.5 193,-293.5 "/>
<text text-anchor="middle" x="135" y="-281.5" font-family="Helvetica,sans-Serif" font-size="10.00"> </text>
<polyline fill="none" stroke="black" points="77,-274.5 193,-274.5 "/>
<text text-anchor="middle" x="135" y="-262.5" font-family="Helvetica,sans-Serif" font-size="10.00"> </text>
</a>
</g>
</g>
<!-- Node4 -->
<g id="node4" class="node">
<title>Node4</title>
<g id="a_node4"><a xlink:href="classnet_1_1socket_1_1stream_1_1legacy_1_1_socket_server.html" target="_top" xlink:title=" ">
<polygon fill="white" stroke="black" points="9,-106.5 9,-196.5 127,-196.5 127,-106.5 9,-106.5"/>
<text text-anchor="start" x="17" y="-184.5" font-family="Helvetica,sans-Serif" font-size="10.00">net::socket::stream</text>
<text text-anchor="start" x="17" y="-173.5" font-family="Helvetica,sans-Serif" font-size="10.00">::legacy::SocketServer</text>
<text text-anchor="start" x="17" y="-162.5" font-family="Helvetica,sans-Serif" font-size="10.00">&lt; net::socket::ipv6::tcp</text>
<text text-anchor="middle" x="68" y="-151.5" font-family="Helvetica,sans-Serif" font-size="10.00">::legacy::Socket &gt;</text>
<polyline fill="none" stroke="black" points="9,-144.5 127,-144.5 "/>
<text text-anchor="middle" x="68" y="-132.5" font-family="Helvetica,sans-Serif" font-size="10.00"> </text>
<polyline fill="none" stroke="black" points="9,-125.5 127,-125.5 "/>
<text text-anchor="middle" x="68" y="-113.5" font-family="Helvetica,sans-Serif" font-size="10.00"> </text>
</a>
</g>
</g>
<!-- Node1&#45;&gt;Node4 -->
<g id="edge3" class="edge">
<title>Node1&#45;&gt;Node4</title>
<path fill="none" stroke="orange" d="M85.76,-247C83.61,-243.75 81.67,-240.41 80,-237 73.95,-224.62 70.72,-210.08 69.04,-196.59"/>
<polygon fill="orange" stroke="orange" points="83.14,-249.33 91.86,-255.34 88.79,-245.2 83.14,-249.33"/>
<text text-anchor="start" x="80" y="-229" font-family="Helvetica,sans-Serif" font-size="10.00"> &lt; net::socket::ipv6</text>
<text text-anchor="middle" x="130" y="-218" font-family="Helvetica,sans-Serif" font-size="10.00">::tcp::legacy::Socket &gt;</text>
</g>
<!-- Node6 -->
<g id="node6" class="node">
<title>Node6</title>
<g id="a_node6"><a xlink:href="classnet_1_1socket_1_1stream_1_1legacy_1_1_socket_server.html" target="_top" xlink:title=" ">
<polygon fill="white" stroke="black" points="148,-106.5 148,-196.5 266,-196.5 266,-106.5 148,-106.5"/>
<text text-anchor="start" x="156" y="-184.5" font-family="Helvetica,sans-Serif" font-size="10.00">net::socket::stream</text>
<text text-anchor="start" x="156" y="-173.5" font-family="Helvetica,sans-Serif" font-size="10.00">::legacy::SocketServer</text>
<text text-anchor="start" x="156" y="-162.5" font-family="Helvetica,sans-Serif" font-size="10.00">&lt; net::socket::ipv4::tcp</text>
<text text-anchor="middle" x="207" y="-151.5" font-family="Helvetica,sans-Serif" font-size="10.00">::legacy::Socket &gt;</text>
<polyline fill="none" stroke="black" points="148,-144.5 266,-144.5 "/>
<text text-anchor="middle" x="207" y="-132.5" font-family="Helvetica,sans-Serif" font-size="10.00"> </text>
<polyline fill="none" stroke="black" points="148,-125.5 266,-125.5 "/>
<text text-anchor="middle" x="207" y="-113.5" font-family="Helvetica,sans-Serif" font-size="10.00"> </text>
</a>
</g>
</g>
<!-- Node1&#45;&gt;Node6 -->
<g id="edge5" class="edge">
<title>Node1&#45;&gt;Node6</title>
<path fill="none" stroke="orange" d="M174.19,-246.89C176.28,-243.62 178.24,-240.31 180,-237 186.65,-224.49 192.01,-210.06 196.15,-196.7"/>
<polygon fill="orange" stroke="orange" points="171.13,-245.16 168.41,-255.4 176.92,-249.1 171.13,-245.16"/>
<text text-anchor="start" x="189" y="-229" font-family="Helvetica,sans-Serif" font-size="10.00"> &lt; net::socket::ipv4</text>
<text text-anchor="middle" x="239" y="-218" font-family="Helvetica,sans-Serif" font-size="10.00">::tcp::legacy::Socket &gt;</text>
</g>
<!-- Node2 -->
<g id="node2" class="node">
<title>Node2</title>
<g id="a_node2"><a xlink:href="classnet_1_1socket_1_1stream_1_1_socket_server.html" target="_top" xlink:title=" ">
<polygon fill="white" stroke="black" points="59,-372.5 59,-649.5 211,-649.5 211,-372.5 59,-372.5"/>
<text text-anchor="start" x="67" y="-637.5" font-family="Helvetica,sans-Serif" font-size="10.00">net::socket::stream</text>
<text text-anchor="start" x="67" y="-626.5" font-family="Helvetica,sans-Serif" font-size="10.00">::SocketServer&lt; legacy</text>
<text text-anchor="middle" x="135" y="-615.5" font-family="Helvetica,sans-Serif" font-size="10.00">::SocketListener&lt; SocketT &gt; &gt;</text>
<polyline fill="none" stroke="black" points="59,-608.5 211,-608.5 "/>
<text text-anchor="start" x="67" y="-596.5" font-family="Helvetica,sans-Serif" font-size="10.00"># options</text>
<text text-anchor="start" x="67" y="-585.5" font-family="Helvetica,sans-Serif" font-size="10.00"># isDynamic</text>
<text text-anchor="start" x="67" y="-574.5" font-family="Helvetica,sans-Serif" font-size="10.00"># lastAllocAddress</text>
<text text-anchor="start" x="67" y="-563.5" font-family="Helvetica,sans-Serif" font-size="10.00">&#45; onConstruct</text>
<text text-anchor="start" x="67" y="-552.5" font-family="Helvetica,sans-Serif" font-size="10.00">&#45; onDestruct</text>
<text text-anchor="start" x="67" y="-541.5" font-family="Helvetica,sans-Serif" font-size="10.00">&#45; onConnect</text>
<text text-anchor="start" x="67" y="-530.5" font-family="Helvetica,sans-Serif" font-size="10.00">&#45; onDisconnect</text>
<text text-anchor="start" x="67" y="-519.5" font-family="Helvetica,sans-Serif" font-size="10.00">&#45; onRead</text>
<text text-anchor="start" x="67" y="-508.5" font-family="Helvetica,sans-Serif" font-size="10.00">&#45; onReadError</text>
<text text-anchor="start" x="67" y="-497.5" font-family="Helvetica,sans-Serif" font-size="10.00">&#45; onWriteError</text>
<polyline fill="none" stroke="black" points="59,-490.5 211,-490.5 "/>
<text text-anchor="start" x="67" y="-478.5" font-family="Helvetica,sans-Serif" font-size="10.00">+ operator new()</text>
<text text-anchor="start" x="67" y="-467.5" font-family="Helvetica,sans-Serif" font-size="10.00">+ operator delete()</text>
<text text-anchor="start" x="67" y="-456.5" font-family="Helvetica,sans-Serif" font-size="10.00">+ SocketServer()</text>
<text text-anchor="start" x="67" y="-445.5" font-family="Helvetica,sans-Serif" font-size="10.00">+ SocketServer()</text>
<text text-anchor="start" x="67" y="-434.5" font-family="Helvetica,sans-Serif" font-size="10.00">+ SocketServer()</text>
<text text-anchor="start" x="67" y="-423.5" font-family="Helvetica,sans-Serif" font-size="10.00">+ operator=()</text>
<text text-anchor="start" x="67" y="-412.5" font-family="Helvetica,sans-Serif" font-size="10.00">+ ~SocketServer()</text>
<text text-anchor="start" x="67" y="-401.5" font-family="Helvetica,sans-Serif" font-size="10.00">+ listen()</text>
<text text-anchor="start" x="67" y="-390.5" font-family="Helvetica,sans-Serif" font-size="10.00">+ listen()</text>
<text text-anchor="start" x="67" y="-379.5" font-family="Helvetica,sans-Serif" font-size="10.00">+ listen()</text>
</a>
</g>
</g>
<!-- Node2&#45;&gt;Node1 -->
<g id="edge1" class="edge">
<title>Node2&#45;&gt;Node1</title>
<path fill="none" stroke="midnightblue" d="M135,-362.28C135,-352.38 135,-343.02 135,-334.63"/>
<polygon fill="none" stroke="midnightblue" points="131.5,-362.35 135,-372.35 138.5,-362.35 131.5,-362.35"/>
</g>
<!-- Node3 -->
<g id="node3" class="node">
<title>Node3</title>
<g id="a_node3"><a xlink:href="classnet_1_1socket_1_1stream_1_1_socket_server.html" target="_top" xlink:title=" ">
<polygon fill="white" stroke="black" points="49.5,-708.5 49.5,-974.5 220.5,-974.5 220.5,-708.5 49.5,-708.5"/>
<text text-anchor="start" x="57.5" y="-962.5" font-family="Helvetica,sans-Serif" font-size="10.00">net::socket::stream</text>
<text text-anchor="middle" x="135" y="-951.5" font-family="Helvetica,sans-Serif" font-size="10.00">::SocketServer&lt; SocketListenerT &gt;</text>
<polyline fill="none" stroke="black" points="49.5,-944.5 220.5,-944.5 "/>
<text text-anchor="start" x="57.5" y="-932.5" font-family="Helvetica,sans-Serif" font-size="10.00"># options</text>
<text text-anchor="start" x="57.5" y="-921.5" font-family="Helvetica,sans-Serif" font-size="10.00"># isDynamic</text>
<text text-anchor="start" x="57.5" y="-910.5" font-family="Helvetica,sans-Serif" font-size="10.00"># lastAllocAddress</text>
<text text-anchor="start" x="57.5" y="-899.5" font-family="Helvetica,sans-Serif" font-size="10.00">&#45; onConstruct</text>
<text text-anchor="start" x="57.5" y="-888.5" font-family="Helvetica,sans-Serif" font-size="10.00">&#45; onDestruct</text>
<text text-anchor="start" x="57.5" y="-877.5" font-family="Helvetica,sans-Serif" font-size="10.00">&#45; onConnect</text>
<text text-anchor="start" x="57.5" y="-866.5" font-family="Helvetica,sans-Serif" font-size="10.00">&#45; onDisconnect</text>
<text text-anchor="start" x="57.5" y="-855.5" font-family="Helvetica,sans-Serif" font-size="10.00">&#45; onRead</text>
<text text-anchor="start" x="57.5" y="-844.5" font-family="Helvetica,sans-Serif" font-size="10.00">&#45; onReadError</text>
<text text-anchor="start" x="57.5" y="-833.5" font-family="Helvetica,sans-Serif" font-size="10.00">&#45; onWriteError</text>
<polyline fill="none" stroke="black" points="49.5,-826.5 220.5,-826.5 "/>
<text text-anchor="start" x="57.5" y="-814.5" font-family="Helvetica,sans-Serif" font-size="10.00">+ operator new()</text>
<text text-anchor="start" x="57.5" y="-803.5" font-family="Helvetica,sans-Serif" font-size="10.00">+ operator delete()</text>
<text text-anchor="start" x="57.5" y="-792.5" font-family="Helvetica,sans-Serif" font-size="10.00">+ SocketServer()</text>
<text text-anchor="start" x="57.5" y="-781.5" font-family="Helvetica,sans-Serif" font-size="10.00">+ SocketServer()</text>
<text text-anchor="start" x="57.5" y="-770.5" font-family="Helvetica,sans-Serif" font-size="10.00">+ SocketServer()</text>
<text text-anchor="start" x="57.5" y="-759.5" font-family="Helvetica,sans-Serif" font-size="10.00">+ operator=()</text>
<text text-anchor="start" x="57.5" y="-748.5" font-family="Helvetica,sans-Serif" font-size="10.00">+ ~SocketServer()</text>
<text text-anchor="start" x="57.5" y="-737.5" font-family="Helvetica,sans-Serif" font-size="10.00">+ listen()</text>
<text text-anchor="start" x="57.5" y="-726.5" font-family="Helvetica,sans-Serif" font-size="10.00">+ listen()</text>
<text text-anchor="start" x="57.5" y="-715.5" font-family="Helvetica,sans-Serif" font-size="10.00">+ listen()</text>
</a>
</g>
</g>
<!-- Node3&#45;&gt;Node2 -->
<g id="edge2" class="edge">
<title>Node3&#45;&gt;Node2</title>
<path fill="none" stroke="orange" d="M135,-698.28C135,-682.12 135,-665.66 135,-649.55"/>
<polygon fill="orange" stroke="orange" points="131.5,-698.31 135,-708.31 138.5,-698.31 131.5,-698.31"/>
<text text-anchor="start" x="135" y="-682" font-family="Helvetica,sans-Serif" font-size="10.00"> &lt; legacy::SocketListener</text>
<text text-anchor="middle" x="191" y="-671" font-family="Helvetica,sans-Serif" font-size="10.00">&lt; SocketT &gt; &gt;</text>
</g>
<!-- Node5 -->
<g id="node5" class="node">
<title>Node5</title>
<g id="a_node5"><a xlink:href="classnet_1_1socket_1_1ipv6_1_1tcp_1_1legacy_1_1_socket_server.html" target="_top" xlink:title=" ">
<polygon fill="white" stroke="black" points="0,-0.5 0,-68.5 130,-68.5 130,-0.5 0,-0.5"/>
<text text-anchor="start" x="8" y="-56.5" font-family="Helvetica,sans-Serif" font-size="10.00">net::socket::ipv6::</text>
<text text-anchor="middle" x="65" y="-45.5" font-family="Helvetica,sans-Serif" font-size="10.00">tcp::legacy::SocketServer</text>
<polyline fill="none" stroke="black" points="0,-38.5 130,-38.5 "/>
<text text-anchor="middle" x="65" y="-26.5" font-family="Helvetica,sans-Serif" font-size="10.00"> </text>
<polyline fill="none" stroke="black" points="0,-19.5 130,-19.5 "/>
<text text-anchor="middle" x="65" y="-7.5" font-family="Helvetica,sans-Serif" font-size="10.00"> </text>
</a>
</g>
</g>
<!-- Node4&#45;&gt;Node5 -->
<g id="edge4" class="edge">
<title>Node4&#45;&gt;Node5</title>
<path fill="none" stroke="midnightblue" d="M66.58,-96.23C66.34,-86.8 66.09,-77.26 65.86,-68.62"/>
<polygon fill="none" stroke="midnightblue" points="63.09,-96.46 66.85,-106.37 70.09,-96.28 63.09,-96.46"/>
</g>
<!-- Node7 -->
<g id="node7" class="node">
<title>Node7</title>
<g id="a_node7"><a xlink:href="classnet_1_1socket_1_1ipv4_1_1tcp_1_1legacy_1_1_socket_server.html" target="_top" xlink:title=" ">
<polygon fill="white" stroke="black" points="148,-0.5 148,-68.5 278,-68.5 278,-0.5 148,-0.5"/>
<text text-anchor="start" x="156" y="-56.5" font-family="Helvetica,sans-Serif" font-size="10.00">net::socket::ipv4::</text>
<text text-anchor="middle" x="213" y="-45.5" font-family="Helvetica,sans-Serif" font-size="10.00">tcp::legacy::SocketServer</text>
<polyline fill="none" stroke="black" points="148,-38.5 278,-38.5 "/>
<text text-anchor="middle" x="213" y="-26.5" font-family="Helvetica,sans-Serif" font-size="10.00"> </text>
<polyline fill="none" stroke="black" points="148,-19.5 278,-19.5 "/>
<text text-anchor="middle" x="213" y="-7.5" font-family="Helvetica,sans-Serif" font-size="10.00"> </text>
</a>
</g>
</g>
<!-- Node6&#45;&gt;Node7 -->
<g id="edge6" class="edge">
<title>Node6&#45;&gt;Node7</title>
<path fill="none" stroke="midnightblue" d="M209.83,-96.23C210.32,-86.8 210.82,-77.26 211.27,-68.62"/>
<polygon fill="none" stroke="midnightblue" points="206.33,-96.2 209.3,-106.37 213.32,-96.56 206.33,-96.2"/>
</g>
</g>
</svg>
