<?xml version="1.0" encoding="UTF-8" standalone="no"?>
<!DOCTYPE svg PUBLIC "-//W3C//DTD SVG 1.1//EN"
 "http://www.w3.org/Graphics/SVG/1.1/DTD/svg11.dtd">
<!-- Generated by graphviz version 2.43.0 (0)
 -->
<!-- Title: net::socket::stream::tls::SocketListener::listen Pages: 1 -->
<svg width="835pt" height="315pt"
 viewBox="0.00 0.00 835.00 315.00" xmlns="http://www.w3.org/2000/svg" xmlns:xlink="http://www.w3.org/1999/xlink">
<g id="graph0" class="graph" transform="scale(1 1) rotate(0) translate(4 311)">
<title>net::socket::stream::tls::SocketListener::listen</title>
<polygon fill="white" stroke="transparent" points="-4,4 -4,-311 831,-311 831,4 -4,4"/>
<!-- Node1 -->
<g id="node1" class="node">
<title>Node1</title>
<g id="a_node1"><a xlink:title=" ">
<polygon fill="#bfbfbf" stroke="black" points="0,-158 0,-199 104,-199 104,-158 0,-158"/>
<text text-anchor="start" x="8" y="-187" font-family="Helvetica,sans-Serif" font-size="10.00">net::socket::stream</text>
<text text-anchor="start" x="8" y="-176" font-family="Helvetica,sans-Serif" font-size="10.00">::tls::SocketListener</text>
<text text-anchor="middle" x="52" y="-165" font-family="Helvetica,sans-Serif" font-size="10.00">::listen</text>
</a>
</g>
</g>
<!-- Node2 -->
<g id="node2" class="node">
<title>Node2</title>
<g id="a_node2"><a xlink:href="classnet_1_1socket_1_1stream_1_1_socket_listener.html#ae0551fc5129850daef6aa0a167184696" target="_top" xlink:title=" ">
<polygon fill="white" stroke="black" points="140,-163.5 140,-193.5 257,-193.5 257,-163.5 140,-163.5"/>
<text text-anchor="start" x="148" y="-181.5" font-family="Helvetica,sans-Serif" font-size="10.00">net::socket::stream</text>
<text text-anchor="middle" x="198.5" y="-170.5" font-family="Helvetica,sans-Serif" font-size="10.00">::SocketListener::listen</text>
</a>
</g>
</g>
<!-- Node1&#45;&gt;Node2 -->
<g id="edge1" class="edge">
<title>Node1&#45;&gt;Node2</title>
<path fill="none" stroke="midnightblue" d="M104.35,-178.5C112.63,-178.5 121.31,-178.5 129.9,-178.5"/>
<polygon fill="midnightblue" stroke="midnightblue" points="129.92,-182 139.92,-178.5 129.92,-175 129.92,-182"/>
</g>
<!-- Node3 -->
<g id="node3" class="node">
<title>Node3</title>
<g id="a_node3"><a xlink:href="classnet_1_1socket_1_1_socket.html#a1ce7ef4ad82e2035af1c9f9d752112b8" target="_top" xlink:title=" ">
<polygon fill="white" stroke="black" points="319,-276.5 319,-306.5 421,-306.5 421,-276.5 319,-276.5"/>
<text text-anchor="start" x="327" y="-294.5" font-family="Helvetica,sans-Serif" font-size="10.00">net::socket::Socket</text>
<text text-anchor="middle" x="370" y="-283.5" font-family="Helvetica,sans-Serif" font-size="10.00">::bind</text>
</a>
</g>
</g>
<!-- Node2&#45;&gt;Node3 -->
<g id="edge2" class="edge">
<title>Node2&#45;&gt;Node3</title>
<path fill="none" stroke="midnightblue" d="M213.42,-193.77C230.65,-211.92 261.56,-242.18 293,-261.5 299.4,-265.43 306.4,-269.02 313.48,-272.24"/>
<polygon fill="midnightblue" stroke="midnightblue" points="312.57,-275.66 323.14,-276.4 315.34,-269.23 312.57,-275.66"/>
</g>
<!-- Node4 -->
<g id="node4" class="node">
<title>Node4</title>
<g id="a_node4"><a xlink:href="classnet_1_1_descriptor.html#a70ccc1e4f6af5cda015bd319f9a90096" target="_top" xlink:title=" ">
<polygon fill="white" stroke="black" points="504,-238 504,-257 616,-257 616,-238 504,-238"/>
<text text-anchor="middle" x="560" y="-245" font-family="Helvetica,sans-Serif" font-size="10.00">net::Descriptor::getFd</text>
</a>
</g>
</g>
<!-- Node2&#45;&gt;Node4 -->
<g id="edge10" class="edge">
<title>Node2&#45;&gt;Node4</title>
<path fill="none" stroke="midnightblue" d="M221.41,-193.65C239.67,-205.41 266.83,-220.94 293,-228.5 359.44,-247.69 438.91,-250.96 493.58,-250.35"/>
<polygon fill="midnightblue" stroke="midnightblue" points="493.89,-253.84 503.83,-250.18 493.78,-246.84 493.89,-253.84"/>
</g>
<!-- Node5 -->
<g id="node5" class="node">
<title>Node5</title>
<g id="a_node5"><a xlink:href="classnet_1_1socket_1_1stream_1_1_socket_listener.html#aa49e2120be428c40170df2777137e653" target="_top" xlink:title=" ">
<polygon fill="white" stroke="black" points="305.5,-188.5 305.5,-218.5 434.5,-218.5 434.5,-188.5 305.5,-188.5"/>
<text text-anchor="start" x="313.5" y="-206.5" font-family="Helvetica,sans-Serif" font-size="10.00">net::socket::stream</text>
<text text-anchor="middle" x="370" y="-195.5" font-family="Helvetica,sans-Serif" font-size="10.00">::SocketListener::destruct</text>
</a>
</g>
</g>
<!-- Node2&#45;&gt;Node5 -->
<g id="edge4" class="edge">
<title>Node2&#45;&gt;Node5</title>
<path fill="none" stroke="midnightblue" d="M257.36,-187.03C269.54,-188.83 282.55,-190.75 295.23,-192.62"/>
<polygon fill="midnightblue" stroke="midnightblue" points="294.9,-196.11 305.3,-194.11 295.92,-189.18 294.9,-196.11"/>
</g>
<!-- Node6 -->
<g id="node6" class="node">
<title>Node6</title>
<g id="a_node6"><a xlink:href="classnet_1_1_descriptor_event_receiver.html#a60717df80503a37fd4d3e7ce8dc3777d" target="_top" xlink:title=" ">
<polygon fill="white" stroke="black" points="297,-90.5 297,-120.5 443,-120.5 443,-90.5 297,-90.5"/>
<text text-anchor="start" x="305" y="-108.5" font-family="Helvetica,sans-Serif" font-size="10.00">net::DescriptorEventReceiver</text>
<text text-anchor="middle" x="370" y="-97.5" font-family="Helvetica,sans-Serif" font-size="10.00">::enable</text>
</a>
</g>
</g>
<!-- Node2&#45;&gt;Node6 -->
<g id="edge5" class="edge">
<title>Node2&#45;&gt;Node6</title>
<path fill="none" stroke="midnightblue" d="M225.98,-163.5C244.41,-153.4 269.77,-140.21 293,-130.5 298.42,-128.23 304.12,-126.04 309.86,-123.94"/>
<polygon fill="midnightblue" stroke="midnightblue" points="311.26,-127.16 319.53,-120.53 308.93,-120.56 311.26,-127.16"/>
</g>
<!-- Node11 -->
<g id="node11" class="node">
<title>Node11</title>
<g id="a_node11"><a xlink:href="classnet_1_1socket_1_1_socket.html#aac90834a58b6cc4329e89061a10bdffa" target="_top" xlink:title=" ">
<polygon fill="white" stroke="black" points="319,-41.5 319,-71.5 421,-71.5 421,-41.5 319,-41.5"/>
<text text-anchor="start" x="327" y="-59.5" font-family="Helvetica,sans-Serif" font-size="10.00">net::socket::Socket</text>
<text text-anchor="middle" x="370" y="-48.5" font-family="Helvetica,sans-Serif" font-size="10.00">::open</text>
</a>
</g>
</g>
<!-- Node2&#45;&gt;Node11 -->
<g id="edge11" class="edge">
<title>Node2&#45;&gt;Node11</title>
<path fill="none" stroke="midnightblue" d="M210.17,-163.5C225.96,-142.32 257.54,-103.77 293,-81.5 298.05,-78.33 303.54,-75.52 309.19,-73.04"/>
<polygon fill="midnightblue" stroke="midnightblue" points="310.82,-76.15 318.78,-69.17 308.2,-69.66 310.82,-76.15"/>
</g>
<!-- Node14 -->
<g id="node14" class="node">
<title>Node14</title>
<g id="a_node14"><a xlink:href="classnet_1_1socket_1_1stream_1_1_socket_listener.html#a31d10dd0fe920ee20fce4b6fd3aee70a" target="_top" xlink:title=" ">
<polygon fill="white" stroke="black" points="293,-139.5 293,-169.5 447,-169.5 447,-139.5 293,-139.5"/>
<text text-anchor="start" x="301" y="-157.5" font-family="Helvetica,sans-Serif" font-size="10.00">net::socket::stream</text>
<text text-anchor="middle" x="370" y="-146.5" font-family="Helvetica,sans-Serif" font-size="10.00">::SocketListener::reuseAddress</text>
</a>
</g>
</g>
<!-- Node2&#45;&gt;Node14 -->
<g id="edge14" class="edge">
<title>Node2&#45;&gt;Node14</title>
<path fill="none" stroke="midnightblue" d="M257.36,-170.31C265.56,-169.15 274.14,-167.93 282.74,-166.71"/>
<polygon fill="midnightblue" stroke="midnightblue" points="283.41,-170.15 292.82,-165.29 282.43,-163.22 283.41,-170.15"/>
</g>
<!-- Node3&#45;&gt;Node4 -->
<g id="edge3" class="edge">
<title>Node3&#45;&gt;Node4</title>
<path fill="none" stroke="midnightblue" d="M421.38,-279.71C448.29,-273.41 481.32,-265.68 508.28,-259.37"/>
<polygon fill="midnightblue" stroke="midnightblue" points="509.35,-262.71 518.29,-257.03 507.76,-255.9 509.35,-262.71"/>
</g>
<!-- Node7 -->
<g id="node7" class="node">
<title>Node7</title>
<g id="a_node7"><a xlink:href="classnet_1_1_descriptor_event_dispatcher.html#a73814f761935ca747c521b3ce46c2689" target="_top" xlink:title=" ">
<polygon fill="white" stroke="black" points="483,-90.5 483,-120.5 637,-120.5 637,-90.5 483,-90.5"/>
<text text-anchor="start" x="491" y="-108.5" font-family="Helvetica,sans-Serif" font-size="10.00">net::DescriptorEventDispatcher</text>
<text text-anchor="middle" x="560" y="-97.5" font-family="Helvetica,sans-Serif" font-size="10.00">::enable</text>
</a>
</g>
</g>
<!-- Node6&#45;&gt;Node7 -->
<g id="edge6" class="edge">
<title>Node6&#45;&gt;Node7</title>
<path fill="none" stroke="midnightblue" d="M443.15,-105.5C452.83,-105.5 462.84,-105.5 472.74,-105.5"/>
<polygon fill="midnightblue" stroke="midnightblue" points="472.99,-109 482.99,-105.5 472.99,-102 472.99,-109"/>
</g>
<!-- Node8 -->
<g id="node8" class="node">
<title>Node8</title>
<g id="a_node8"><a xlink:href="classnet_1_1_descriptor_event_dispatcher_1_1_descriptor_event_receiver_list.html#ab0128e4373c28e76fe9db7b286e50e38" target="_top" xlink:title=" ">
<polygon fill="white" stroke="black" points="673,-140 673,-181 827,-181 827,-140 673,-140"/>
<text text-anchor="start" x="681" y="-169" font-family="Helvetica,sans-Serif" font-size="10.00">net::DescriptorEventDispatcher</text>
<text text-anchor="start" x="681" y="-158" font-family="Helvetica,sans-Serif" font-size="10.00">::DescriptorEventReceiverList</text>
<text text-anchor="middle" x="750" y="-147" font-family="Helvetica,sans-Serif" font-size="10.00">::contains</text>
</a>
</g>
</g>
<!-- Node7&#45;&gt;Node8 -->
<g id="edge7" class="edge">
<title>Node7&#45;&gt;Node8</title>
<path fill="none" stroke="midnightblue" d="M612.37,-120.53C629.86,-125.64 649.84,-131.49 669.02,-137.1"/>
<polygon fill="midnightblue" stroke="midnightblue" points="668.08,-140.47 678.66,-139.92 670.05,-133.76 668.08,-140.47"/>
</g>
<!-- Node9 -->
<g id="node9" class="node">
<title>Node9</title>
<g id="a_node9"><a xlink:href="classnet_1_1_descriptor_event_receiver.html#ad6c6020449f16e19ac508aeb87694efc" target="_top" xlink:title=" ">
<polygon fill="white" stroke="black" points="677,-90.5 677,-120.5 823,-120.5 823,-90.5 677,-90.5"/>
<text text-anchor="start" x="685" y="-108.5" font-family="Helvetica,sans-Serif" font-size="10.00">net::DescriptorEventReceiver</text>
<text text-anchor="middle" x="750" y="-97.5" font-family="Helvetica,sans-Serif" font-size="10.00">::enabled</text>
</a>
</g>
</g>
<!-- Node7&#45;&gt;Node9 -->
<g id="edge8" class="edge">
<title>Node7&#45;&gt;Node9</title>
<path fill="none" stroke="midnightblue" d="M637.2,-105.5C646.94,-105.5 656.95,-105.5 666.79,-105.5"/>
<polygon fill="midnightblue" stroke="midnightblue" points="666.95,-109 676.95,-105.5 666.95,-102 666.95,-109"/>
</g>
<!-- Node10 -->
<g id="node10" class="node">
<title>Node10</title>
<g id="a_node10"><a xlink:href="classnet_1_1_descriptor_event_receiver.html#a58562b1da4bc4f87bc7c51eb04db62a4" target="_top" xlink:title=" ">
<polygon fill="white" stroke="black" points="677,-41.5 677,-71.5 823,-71.5 823,-41.5 677,-41.5"/>
<text text-anchor="start" x="685" y="-59.5" font-family="Helvetica,sans-Serif" font-size="10.00">net::DescriptorEventReceiver</text>
<text text-anchor="middle" x="750" y="-48.5" font-family="Helvetica,sans-Serif" font-size="10.00">::isEnabled</text>
</a>
</g>
</g>
<!-- Node7&#45;&gt;Node10 -->
<g id="edge9" class="edge">
<title>Node7&#45;&gt;Node10</title>
<path fill="none" stroke="midnightblue" d="M618.68,-90.47C638.53,-85.29 660.94,-79.45 681.5,-74.09"/>
<polygon fill="midnightblue" stroke="midnightblue" points="682.63,-77.42 691.43,-71.51 680.87,-70.64 682.63,-77.42"/>
</g>
<!-- Node12 -->
<g id="node12" class="node">
<title>Node12</title>
<g id="a_node12"><a xlink:href="classnet_1_1_descriptor.html#a0dfe1354c24136c4d50c21c8138f53dd" target="_top" xlink:title=" ">
<polygon fill="white" stroke="black" points="503,-50 503,-69 617,-69 617,-50 503,-50"/>
<text text-anchor="middle" x="560" y="-57" font-family="Helvetica,sans-Serif" font-size="10.00">net::Descriptor::attach</text>
</a>
</g>
</g>
<!-- Node11&#45;&gt;Node12 -->
<g id="edge12" class="edge">
<title>Node11&#45;&gt;Node12</title>
<path fill="none" stroke="midnightblue" d="M421.38,-57.3C443.27,-57.65 469.21,-58.07 492.63,-58.44"/>
<polygon fill="midnightblue" stroke="midnightblue" points="492.79,-61.94 502.85,-58.6 492.9,-54.94 492.79,-61.94"/>
</g>
<!-- Node13 -->
<g id="node13" class="node">
<title>Node13</title>
<g id="a_node13"><a xlink:href="classnet_1_1socket_1_1_socket.html#a4e4cd3dbedb5348efdb2fddf09526657" target="_top" xlink:title=" ">
<polygon fill="white" stroke="black" points="509,-0.5 509,-30.5 611,-30.5 611,-0.5 509,-0.5"/>
<text text-anchor="start" x="517" y="-18.5" font-family="Helvetica,sans-Serif" font-size="10.00">net::socket::Socket</text>
<text text-anchor="middle" x="560" y="-7.5" font-family="Helvetica,sans-Serif" font-size="10.00">::create</text>
</a>
</g>
</g>
<!-- Node11&#45;&gt;Node13 -->
<g id="edge13" class="edge">
<title>Node11&#45;&gt;Node13</title>
<path fill="none" stroke="midnightblue" d="M421.38,-45.51C445.18,-40.32 473.78,-34.08 498.73,-28.64"/>
<polygon fill="midnightblue" stroke="midnightblue" points="499.78,-32 508.81,-26.45 498.29,-25.16 499.78,-32"/>
</g>
<!-- Node14&#45;&gt;Node4 -->
<g id="edge15" class="edge">
<title>Node14&#45;&gt;Node4</title>
<path fill="none" stroke="midnightblue" d="M422.31,-169.6C430.69,-172.57 439.18,-175.9 447,-179.5 479.87,-194.64 515.14,-217.22 537.13,-232.15"/>
<polygon fill="midnightblue" stroke="midnightblue" points="535.2,-235.07 545.42,-237.85 539.16,-229.3 535.2,-235.07"/>
</g>
</g>
</svg>
