<?xml version="1.0" encoding="UTF-8" standalone="no"?>
<!DOCTYPE svg PUBLIC "-//W3C//DTD SVG 1.1//EN"
 "http://www.w3.org/Graphics/SVG/1.1/DTD/svg11.dtd">
<!-- Generated by graphviz version 2.43.0 (0)
 -->
<!-- Title: net::WriteEventReceiver::resume Pages: 1 -->
<svg width="458pt" height="166pt"
 viewBox="0.00 0.00 458.00 165.50" xmlns="http://www.w3.org/2000/svg" xmlns:xlink="http://www.w3.org/1999/xlink">
<g id="graph0" class="graph" transform="scale(1 1) rotate(0) translate(4 161.5)">
<title>net::WriteEventReceiver::resume</title>
<polygon fill="white" stroke="transparent" points="-4,4 -4,-161.5 454,-161.5 454,4 -4,4"/>
<!-- Node1 -->
<g id="node1" class="node">
<title>Node1</title>
<g id="a_node1"><a xlink:title=" ">
<polygon fill="#bfbfbf" stroke="black" points="0,-83 0,-113 123,-113 123,-83 0,-83"/>
<text text-anchor="start" x="8" y="-101" font-family="Helvetica,sans-Serif" font-size="10.00">net::WriteEventReceiver</text>
<text text-anchor="middle" x="61.5" y="-90" font-family="Helvetica,sans-Serif" font-size="10.00">::resume</text>
</a>
</g>
</g>
<!-- Node2 -->
<g id="node2" class="node">
<title>Node2</title>
<g id="a_node2"><a xlink:href="classnet_1_1_event_loop.html#a53697a464b99a65cde0a384bb896d5f3" target="_top" xlink:title=" ">
<polygon fill="white" stroke="black" points="173.5,-127 173.5,-157 298.5,-157 298.5,-127 173.5,-127"/>
<text text-anchor="start" x="181.5" y="-145" font-family="Helvetica,sans-Serif" font-size="10.00">net::EventLoop::getWrite</text>
<text text-anchor="middle" x="236" y="-134" font-family="Helvetica,sans-Serif" font-size="10.00">EventDispatcher</text>
</a>
</g>
</g>
<!-- Node1&#45;&gt;Node2 -->
<g id="edge1" class="edge">
<title>Node1&#45;&gt;Node2</title>
<path fill="none" stroke="midnightblue" d="M121.38,-113.02C135.74,-116.68 151.22,-120.63 165.99,-124.4"/>
<polygon fill="midnightblue" stroke="midnightblue" points="165.54,-127.89 176.09,-126.97 167.27,-121.11 165.54,-127.89"/>
</g>
<!-- Node3 -->
<g id="node3" class="node">
<title>Node3</title>
<g id="a_node3"><a xlink:href="classnet_1_1_event_loop.html#a6d8bfd6fa03bb6bf423035ab190657ef" target="_top" xlink:title=" ">
<polygon fill="white" stroke="black" points="173.5,-88.5 173.5,-107.5 298.5,-107.5 298.5,-88.5 173.5,-88.5"/>
<text text-anchor="middle" x="236" y="-95.5" font-family="Helvetica,sans-Serif" font-size="10.00">net::EventLoop::instance</text>
</a>
</g>
</g>
<!-- Node1&#45;&gt;Node3 -->
<g id="edge2" class="edge">
<title>Node1&#45;&gt;Node3</title>
<path fill="none" stroke="midnightblue" d="M123.32,-98C136.23,-98 149.97,-98 163.24,-98"/>
<polygon fill="midnightblue" stroke="midnightblue" points="163.28,-101.5 173.28,-98 163.28,-94.5 163.28,-101.5"/>
</g>
<!-- Node4 -->
<g id="node4" class="node">
<title>Node4</title>
<g id="a_node4"><a xlink:href="classnet_1_1_descriptor_event_dispatcher.html#a27c96ed8c97c9486b08536d204f9dc77" target="_top" xlink:title=" ">
<polygon fill="white" stroke="black" points="159,-39 159,-69 313,-69 313,-39 159,-39"/>
<text text-anchor="start" x="167" y="-57" font-family="Helvetica,sans-Serif" font-size="10.00">net::DescriptorEventDispatcher</text>
<text text-anchor="middle" x="236" y="-46" font-family="Helvetica,sans-Serif" font-size="10.00">::resume</text>
</a>
</g>
</g>
<!-- Node1&#45;&gt;Node4 -->
<g id="edge3" class="edge">
<title>Node1&#45;&gt;Node4</title>
<path fill="none" stroke="midnightblue" d="M121.38,-82.98C135.74,-79.32 151.22,-75.37 165.99,-71.6"/>
<polygon fill="midnightblue" stroke="midnightblue" points="167.27,-74.89 176.09,-69.03 165.54,-68.11 167.27,-74.89"/>
</g>
<!-- Node5 -->
<g id="node5" class="node">
<title>Node5</title>
<g id="a_node5"><a xlink:href="classnet_1_1_event_receiver.html#afdfa280e579e56b9acadb54465c65528" target="_top" xlink:title=" ">
<polygon fill="white" stroke="black" points="349,-88 349,-118 450,-118 450,-88 349,-88"/>
<text text-anchor="start" x="357" y="-106" font-family="Helvetica,sans-Serif" font-size="10.00">net::EventReceiver</text>
<text text-anchor="middle" x="399.5" y="-95" font-family="Helvetica,sans-Serif" font-size="10.00">::isSuspended</text>
</a>
</g>
</g>
<!-- Node4&#45;&gt;Node5 -->
<g id="edge4" class="edge">
<title>Node4&#45;&gt;Node5</title>
<path fill="none" stroke="midnightblue" d="M286.77,-69.1C303.28,-74.11 321.81,-79.73 338.97,-84.94"/>
<polygon fill="midnightblue" stroke="midnightblue" points="338.31,-88.39 348.89,-87.95 340.34,-81.7 338.31,-88.39"/>
</g>
<!-- Node6 -->
<g id="node6" class="node">
<title>Node6</title>
<g id="a_node6"><a xlink:href="classnet_1_1_event_receiver.html#a04e7ea6469a9ebc02f2065bdd4f41e0c" target="_top" xlink:title=" ">
<polygon fill="white" stroke="black" points="349,-39 349,-69 450,-69 450,-39 349,-39"/>
<text text-anchor="start" x="357" y="-57" font-family="Helvetica,sans-Serif" font-size="10.00">net::EventReceiver</text>
<text text-anchor="middle" x="399.5" y="-46" font-family="Helvetica,sans-Serif" font-size="10.00">::resumed</text>
</a>
</g>
</g>
<!-- Node4&#45;&gt;Node6 -->
<g id="edge5" class="edge">
<title>Node4&#45;&gt;Node6</title>
<path fill="none" stroke="midnightblue" d="M313.02,-54C321.63,-54 330.31,-54 338.67,-54"/>
<polygon fill="midnightblue" stroke="midnightblue" points="338.68,-57.5 348.68,-54 338.68,-50.5 338.68,-57.5"/>
</g>
<!-- Node7 -->
<g id="node7" class="node">
<title>Node7</title>
<g id="a_node7"><a xlink:href="classnet_1_1_fd_set.html#a602dbf99def6560bcc7a6bcb8384d549" target="_top" xlink:title=" ">
<polygon fill="white" stroke="black" points="358.5,-0.5 358.5,-19.5 440.5,-19.5 440.5,-0.5 358.5,-0.5"/>
<text text-anchor="middle" x="399.5" y="-7.5" font-family="Helvetica,sans-Serif" font-size="10.00">net::FdSet::set</text>
</a>
</g>
</g>
<!-- Node4&#45;&gt;Node7 -->
<g id="edge6" class="edge">
<title>Node4&#45;&gt;Node7</title>
<path fill="none" stroke="midnightblue" d="M292.13,-38.98C312.11,-33.54 334.43,-27.46 353.44,-22.28"/>
<polygon fill="midnightblue" stroke="midnightblue" points="354.62,-25.58 363.34,-19.58 352.77,-18.83 354.62,-25.58"/>
</g>
</g>
</svg>
