<?xml version="1.0" encoding="UTF-8" standalone="no"?>
<!DOCTYPE svg PUBLIC "-//W3C//DTD SVG 1.1//EN"
 "http://www.w3.org/Graphics/SVG/1.1/DTD/svg11.dtd">
<!-- Generated by graphviz version 2.43.0 (0)
 -->
<!-- Title: net::socket::stream::tls::SocketWriter&lt; SocketT &gt; Pages: 1 -->
<svg width="214pt" height="1433pt"
 viewBox="0.00 0.00 213.50 1433.00" xmlns="http://www.w3.org/2000/svg" xmlns:xlink="http://www.w3.org/1999/xlink">
<g id="graph0" class="graph" transform="scale(1 1) rotate(0) translate(4 1429)">
<title>net::socket::stream::tls::SocketWriter&lt; SocketT &gt;</title>
<polygon fill="white" stroke="transparent" points="-4,4 -4,-1429 209.5,-1429 209.5,4 -4,4"/>
<!-- Node1 -->
<g id="node1" class="node">
<title>Node1</title>
<g id="a_node1"><a xlink:title=" ">
<polygon fill="#bfbfbf" stroke="black" points="71,-507.5 71,-630.5 181,-630.5 181,-507.5 71,-507.5"/>
<text text-anchor="start" x="79" y="-618.5" font-family="Helvetica,sans-Serif" font-size="10.00">net::socket::stream</text>
<text text-anchor="start" x="79" y="-607.5" font-family="Helvetica,sans-Serif" font-size="10.00">::tls::SocketWriter</text>
<text text-anchor="middle" x="126" y="-596.5" font-family="Helvetica,sans-Serif" font-size="10.00">&lt; SocketT &gt;</text>
<polyline fill="none" stroke="black" points="71,-589.5 181,-589.5 "/>
<text text-anchor="start" x="79" y="-577.5" font-family="Helvetica,sans-Serif" font-size="10.00"># ssl</text>
<text text-anchor="start" x="79" y="-566.5" font-family="Helvetica,sans-Serif" font-size="10.00"># sslErr</text>
<polyline fill="none" stroke="black" points="71,-559.5 181,-559.5 "/>
<text text-anchor="start" x="79" y="-547.5" font-family="Helvetica,sans-Serif" font-size="10.00"># doSSLHandshake()</text>
<text text-anchor="start" x="79" y="-536.5" font-family="Helvetica,sans-Serif" font-size="10.00"># setSSLError()</text>
<text text-anchor="start" x="79" y="-525.5" font-family="Helvetica,sans-Serif" font-size="10.00">&#45; write()</text>
<text text-anchor="start" x="79" y="-514.5" font-family="Helvetica,sans-Serif" font-size="10.00">&#45; getError()</text>
</a>
</g>
</g>
<!-- Node7 -->
<g id="node7" class="node">
<title>Node7</title>
<g id="a_node7"><a xlink:href="classnet_1_1socket_1_1stream_1_1_socket_connection.html" target="_top" xlink:title=" ">
<polygon fill="white" stroke="black" points="49.5,-193.5 49.5,-470.5 202.5,-470.5 202.5,-193.5 49.5,-193.5"/>
<text text-anchor="start" x="57.5" y="-458.5" font-family="Helvetica,sans-Serif" font-size="10.00">net::socket::stream</text>
<text text-anchor="start" x="57.5" y="-447.5" font-family="Helvetica,sans-Serif" font-size="10.00">::SocketConnection&lt;</text>
<text text-anchor="start" x="57.5" y="-436.5" font-family="Helvetica,sans-Serif" font-size="10.00"> tls::SocketReader&lt; SocketT</text>
<text text-anchor="start" x="57.5" y="-425.5" font-family="Helvetica,sans-Serif" font-size="10.00"> &gt;, tls::SocketWriter&lt; SocketT</text>
<text text-anchor="middle" x="126" y="-414.5" font-family="Helvetica,sans-Serif" font-size="10.00"> &gt;, SocketT::SocketAddress &gt;</text>
<polyline fill="none" stroke="black" points="49.5,-407.5 202.5,-407.5 "/>
<text text-anchor="start" x="57.5" y="-395.5" font-family="Helvetica,sans-Serif" font-size="10.00">&#45; localAddress</text>
<text text-anchor="start" x="57.5" y="-384.5" font-family="Helvetica,sans-Serif" font-size="10.00">&#45; remoteAddress</text>
<text text-anchor="start" x="57.5" y="-373.5" font-family="Helvetica,sans-Serif" font-size="10.00">&#45; onDisconnect</text>
<polyline fill="none" stroke="black" points="49.5,-366.5 202.5,-366.5 "/>
<text text-anchor="start" x="57.5" y="-354.5" font-family="Helvetica,sans-Serif" font-size="10.00">+ setTimeout()</text>
<text text-anchor="start" x="57.5" y="-343.5" font-family="Helvetica,sans-Serif" font-size="10.00">+ getRemoteAddress()</text>
<text text-anchor="start" x="57.5" y="-332.5" font-family="Helvetica,sans-Serif" font-size="10.00">+ getLocalAddress()</text>
<text text-anchor="start" x="57.5" y="-321.5" font-family="Helvetica,sans-Serif" font-size="10.00">+ getLocalAddressAsString()</text>
<text text-anchor="start" x="57.5" y="-310.5" font-family="Helvetica,sans-Serif" font-size="10.00">+ getRemoteAddressAsString()</text>
<text text-anchor="start" x="57.5" y="-299.5" font-family="Helvetica,sans-Serif" font-size="10.00">+ enqueue()</text>
<text text-anchor="start" x="57.5" y="-288.5" font-family="Helvetica,sans-Serif" font-size="10.00">+ enqueue()</text>
<text text-anchor="start" x="57.5" y="-277.5" font-family="Helvetica,sans-Serif" font-size="10.00">+ doRead()</text>
<text text-anchor="start" x="57.5" y="-266.5" font-family="Helvetica,sans-Serif" font-size="10.00">+ close()</text>
<text text-anchor="start" x="57.5" y="-255.5" font-family="Helvetica,sans-Serif" font-size="10.00"># SocketConnection()</text>
<text text-anchor="start" x="57.5" y="-244.5" font-family="Helvetica,sans-Serif" font-size="10.00"># ~SocketConnection()</text>
<text text-anchor="start" x="57.5" y="-233.5" font-family="Helvetica,sans-Serif" font-size="10.00">&#45; SocketConnection()</text>
<text text-anchor="start" x="57.5" y="-222.5" font-family="Helvetica,sans-Serif" font-size="10.00">&#45; readEvent()</text>
<text text-anchor="start" x="57.5" y="-211.5" font-family="Helvetica,sans-Serif" font-size="10.00">&#45; writeEvent()</text>
<text text-anchor="start" x="57.5" y="-200.5" font-family="Helvetica,sans-Serif" font-size="10.00">&#45; unobserved()</text>
</a>
</g>
</g>
<!-- Node1&#45;&gt;Node7 -->
<g id="edge6" class="edge">
<title>Node1&#45;&gt;Node7</title>
<path fill="none" stroke="midnightblue" d="M126,-497.23C126,-488.65 126,-479.67 126,-470.53"/>
<polygon fill="none" stroke="midnightblue" points="122.5,-497.48 126,-507.48 129.5,-497.48 122.5,-497.48"/>
</g>
<!-- Node2 -->
<g id="node2" class="node">
<title>Node2</title>
<g id="a_node2"><a xlink:href="classnet_1_1socket_1_1stream_1_1_socket_writer.html" target="_top" xlink:title=" ">
<polygon fill="white" stroke="black" points="59,-667.5 59,-834.5 193,-834.5 193,-667.5 59,-667.5"/>
<text text-anchor="start" x="67" y="-822.5" font-family="Helvetica,sans-Serif" font-size="10.00">net::socket::stream</text>
<text text-anchor="middle" x="126" y="-811.5" font-family="Helvetica,sans-Serif" font-size="10.00">::SocketWriter&lt; SocketT &gt;</text>
<polyline fill="none" stroke="black" points="59,-804.5 193,-804.5 "/>
<text text-anchor="start" x="67" y="-792.5" font-family="Helvetica,sans-Serif" font-size="10.00">&#45; onError</text>
<text text-anchor="start" x="67" y="-781.5" font-family="Helvetica,sans-Serif" font-size="10.00">&#45; writeBuffer</text>
<text text-anchor="start" x="67" y="-770.5" font-family="Helvetica,sans-Serif" font-size="10.00">&#45; markShutdown</text>
<polyline fill="none" stroke="black" points="59,-763.5 193,-763.5 "/>
<text text-anchor="start" x="67" y="-751.5" font-family="Helvetica,sans-Serif" font-size="10.00"># SocketWriter()</text>
<text text-anchor="start" x="67" y="-740.5" font-family="Helvetica,sans-Serif" font-size="10.00"># ~SocketWriter()</text>
<text text-anchor="start" x="67" y="-729.5" font-family="Helvetica,sans-Serif" font-size="10.00"># enqueue()</text>
<text text-anchor="start" x="67" y="-718.5" font-family="Helvetica,sans-Serif" font-size="10.00"># shutdown()</text>
<text text-anchor="start" x="67" y="-707.5" font-family="Helvetica,sans-Serif" font-size="10.00"># doWrite()</text>
<text text-anchor="start" x="67" y="-696.5" font-family="Helvetica,sans-Serif" font-size="10.00">&#45; SocketWriter()</text>
<text text-anchor="start" x="67" y="-685.5" font-family="Helvetica,sans-Serif" font-size="10.00">&#45; write()</text>
<text text-anchor="start" x="67" y="-674.5" font-family="Helvetica,sans-Serif" font-size="10.00">&#45; getError()</text>
</a>
</g>
</g>
<!-- Node2&#45;&gt;Node1 -->
<g id="edge1" class="edge">
<title>Node2&#45;&gt;Node1</title>
<path fill="none" stroke="midnightblue" d="M126,-657.19C126,-648.17 126,-639.19 126,-630.61"/>
<polygon fill="none" stroke="midnightblue" points="122.5,-657.38 126,-667.38 129.5,-657.38 122.5,-657.38"/>
</g>
<!-- Node3 -->
<g id="node3" class="node">
<title>Node3</title>
<g id="a_node3"><a xlink:href="classnet_1_1_write_event_receiver.html" target="_top" xlink:title=" ">
<polygon fill="white" stroke="black" points="11.5,-871.5 11.5,-950.5 134.5,-950.5 134.5,-871.5 11.5,-871.5"/>
<text text-anchor="middle" x="73" y="-938.5" font-family="Helvetica,sans-Serif" font-size="10.00">net::WriteEventReceiver</text>
<polyline fill="none" stroke="black" points="11.5,-931.5 134.5,-931.5 "/>
<text text-anchor="middle" x="73" y="-919.5" font-family="Helvetica,sans-Serif" font-size="10.00"> </text>
<polyline fill="none" stroke="black" points="11.5,-912.5 134.5,-912.5 "/>
<text text-anchor="start" x="19.5" y="-900.5" font-family="Helvetica,sans-Serif" font-size="10.00"># WriteEventReceiver()</text>
<text text-anchor="start" x="19.5" y="-889.5" font-family="Helvetica,sans-Serif" font-size="10.00"># writeEvent()</text>
<text text-anchor="start" x="19.5" y="-878.5" font-family="Helvetica,sans-Serif" font-size="10.00">&#45; dispatchEvent()</text>
</a>
</g>
</g>
<!-- Node3&#45;&gt;Node2 -->
<g id="edge2" class="edge">
<title>Node3&#45;&gt;Node2</title>
<path fill="none" stroke="midnightblue" d="M89.16,-861.82C92.07,-853.14 95.18,-843.87 98.31,-834.53"/>
<polygon fill="none" stroke="midnightblue" points="85.83,-860.75 85.97,-871.35 92.46,-862.98 85.83,-860.75"/>
</g>
<!-- Node4 -->
<g id="node4" class="node">
<title>Node4</title>
<g id="a_node4"><a xlink:href="classnet_1_1_descriptor_event_receiver.html" target="_top" xlink:title=" ">
<polygon fill="white" stroke="black" points="0,-987.5 0,-1319.5 146,-1319.5 146,-987.5 0,-987.5"/>
<text text-anchor="middle" x="73" y="-1307.5" font-family="Helvetica,sans-Serif" font-size="10.00">net::DescriptorEventReceiver</text>
<polyline fill="none" stroke="black" points="0,-1300.5 146,-1300.5 "/>
<text text-anchor="start" x="8" y="-1288.5" font-family="Helvetica,sans-Serif" font-size="10.00">&#45; descriptorEventDispatcher</text>
<text text-anchor="start" x="8" y="-1277.5" font-family="Helvetica,sans-Serif" font-size="10.00">&#45; fd</text>
<text text-anchor="start" x="8" y="-1266.5" font-family="Helvetica,sans-Serif" font-size="10.00">&#45; _enabled</text>
<text text-anchor="start" x="8" y="-1255.5" font-family="Helvetica,sans-Serif" font-size="10.00">&#45; _suspended</text>
<text text-anchor="start" x="8" y="-1244.5" font-family="Helvetica,sans-Serif" font-size="10.00">&#45; maxInactivity</text>
<text text-anchor="start" x="8" y="-1233.5" font-family="Helvetica,sans-Serif" font-size="10.00">&#45; initialTimeout</text>
<polyline fill="none" stroke="black" points="0,-1226.5 146,-1226.5 "/>
<text text-anchor="start" x="8" y="-1214.5" font-family="Helvetica,sans-Serif" font-size="10.00">+ enable()</text>
<text text-anchor="start" x="8" y="-1203.5" font-family="Helvetica,sans-Serif" font-size="10.00">+ disable()</text>
<text text-anchor="start" x="8" y="-1192.5" font-family="Helvetica,sans-Serif" font-size="10.00">+ suspend()</text>
<text text-anchor="start" x="8" y="-1181.5" font-family="Helvetica,sans-Serif" font-size="10.00">+ resume()</text>
<text text-anchor="start" x="8" y="-1170.5" font-family="Helvetica,sans-Serif" font-size="10.00"># DescriptorEventReceiver()</text>
<text text-anchor="start" x="8" y="-1159.5" font-family="Helvetica,sans-Serif" font-size="10.00"># ~DescriptorEventReceiver()</text>
<text text-anchor="start" x="8" y="-1148.5" font-family="Helvetica,sans-Serif" font-size="10.00"># setTimeout()</text>
<text text-anchor="start" x="8" y="-1137.5" font-family="Helvetica,sans-Serif" font-size="10.00"># isEnabled()</text>
<text text-anchor="start" x="8" y="-1126.5" font-family="Helvetica,sans-Serif" font-size="10.00"># isSuspended()</text>
<text text-anchor="start" x="8" y="-1115.5" font-family="Helvetica,sans-Serif" font-size="10.00">&#45; DescriptorEventReceiver()</text>
<text text-anchor="start" x="8" y="-1104.5" font-family="Helvetica,sans-Serif" font-size="10.00">&#45; operator=()</text>
<text text-anchor="start" x="8" y="-1093.5" font-family="Helvetica,sans-Serif" font-size="10.00">&#45; dispatchEvent()</text>
<text text-anchor="start" x="8" y="-1082.5" font-family="Helvetica,sans-Serif" font-size="10.00">&#45; timeoutEvent()</text>
<text text-anchor="start" x="8" y="-1071.5" font-family="Helvetica,sans-Serif" font-size="10.00">&#45; enabled()</text>
<text text-anchor="start" x="8" y="-1060.5" font-family="Helvetica,sans-Serif" font-size="10.00">&#45; disabled()</text>
<text text-anchor="start" x="8" y="-1049.5" font-family="Helvetica,sans-Serif" font-size="10.00">&#45; suspended()</text>
<text text-anchor="start" x="8" y="-1038.5" font-family="Helvetica,sans-Serif" font-size="10.00">&#45; resumed()</text>
<text text-anchor="start" x="8" y="-1027.5" font-family="Helvetica,sans-Serif" font-size="10.00">&#45; getTimeout()</text>
<text text-anchor="start" x="8" y="-1016.5" font-family="Helvetica,sans-Serif" font-size="10.00">&#45; getLastTriggered()</text>
<text text-anchor="start" x="8" y="-1005.5" font-family="Helvetica,sans-Serif" font-size="10.00">&#45; triggered()</text>
<text text-anchor="start" x="8" y="-994.5" font-family="Helvetica,sans-Serif" font-size="10.00">&#45; unobserved()</text>
</a>
</g>
</g>
<!-- Node4&#45;&gt;Node3 -->
<g id="edge3" class="edge">
<title>Node4&#45;&gt;Node3</title>
<path fill="none" stroke="midnightblue" d="M73,-977.23C73,-967.62 73,-958.62 73,-950.54"/>
<polygon fill="none" stroke="midnightblue" points="69.5,-977.44 73,-987.44 76.5,-977.44 69.5,-977.44"/>
</g>
<!-- Node5 -->
<g id="node5" class="node">
<title>Node5</title>
<g id="a_node5"><a xlink:href="classnet_1_1_observation_counter.html" target="_top" xlink:title=" ">
<polygon fill="white" stroke="black" points="11.5,-1356.5 11.5,-1424.5 134.5,-1424.5 134.5,-1356.5 11.5,-1356.5"/>
<text text-anchor="middle" x="73" y="-1412.5" font-family="Helvetica,sans-Serif" font-size="10.00">net::ObservationCounter</text>
<polyline fill="none" stroke="black" points="11.5,-1405.5 134.5,-1405.5 "/>
<text text-anchor="start" x="19.5" y="-1393.5" font-family="Helvetica,sans-Serif" font-size="10.00"># observationCounter</text>
<text text-anchor="start" x="19.5" y="-1382.5" font-family="Helvetica,sans-Serif" font-size="10.00"># lastTriggered</text>
<polyline fill="none" stroke="black" points="11.5,-1375.5 134.5,-1375.5 "/>
<text text-anchor="start" x="19.5" y="-1363.5" font-family="Helvetica,sans-Serif" font-size="10.00">+ isObserved()</text>
</a>
</g>
</g>
<!-- Node5&#45;&gt;Node4 -->
<g id="edge4" class="edge">
<title>Node5&#45;&gt;Node4</title>
<path fill="none" stroke="midnightblue" d="M73,-1346.1C73,-1337.94 73,-1328.99 73,-1319.53"/>
<polygon fill="none" stroke="midnightblue" points="69.5,-1346.33 73,-1356.33 76.5,-1346.33 69.5,-1346.33"/>
</g>
<!-- Node6 -->
<g id="node6" class="node">
<title>Node6</title>
<g id="a_node6"><a xlink:title=" ">
<polygon fill="white" stroke="#bfbfbf" points="152.5,-882.5 152.5,-939.5 205.5,-939.5 205.5,-882.5 152.5,-882.5"/>
<text text-anchor="middle" x="179" y="-927.5" font-family="Helvetica,sans-Serif" font-size="10.00">SocketT</text>
<polyline fill="none" stroke="#bfbfbf" points="152.5,-920.5 205.5,-920.5 "/>
<text text-anchor="middle" x="179" y="-908.5" font-family="Helvetica,sans-Serif" font-size="10.00"> </text>
<polyline fill="none" stroke="#bfbfbf" points="152.5,-901.5 205.5,-901.5 "/>
<text text-anchor="middle" x="179" y="-889.5" font-family="Helvetica,sans-Serif" font-size="10.00"> </text>
</a>
</g>
</g>
<!-- Node6&#45;&gt;Node2 -->
<g id="edge5" class="edge">
<title>Node6&#45;&gt;Node2</title>
<path fill="none" stroke="midnightblue" d="M166.51,-872.77C162.63,-861.19 158.18,-847.93 153.69,-834.54"/>
<polygon fill="none" stroke="midnightblue" points="163.27,-874.11 169.77,-882.48 169.91,-871.88 163.27,-874.11"/>
</g>
<!-- Node8 -->
<g id="node8" class="node">
<title>Node8</title>
<g id="a_node8"><a xlink:href="classnet_1_1socket_1_1stream_1_1tls_1_1_socket_connection.html" target="_top" xlink:title=" ">
<polygon fill="white" stroke="black" points="66,-0.5 66,-156.5 186,-156.5 186,-0.5 66,-0.5"/>
<text text-anchor="start" x="74" y="-144.5" font-family="Helvetica,sans-Serif" font-size="10.00">net::socket::stream</text>
<text text-anchor="start" x="74" y="-133.5" font-family="Helvetica,sans-Serif" font-size="10.00">::tls::SocketConnection</text>
<text text-anchor="middle" x="126" y="-122.5" font-family="Helvetica,sans-Serif" font-size="10.00">&lt; SocketT &gt;</text>
<polyline fill="none" stroke="black" points="66,-115.5 186,-115.5 "/>
<text text-anchor="start" x="74" y="-103.5" font-family="Helvetica,sans-Serif" font-size="10.00"># ssl</text>
<text text-anchor="start" x="74" y="-92.5" font-family="Helvetica,sans-Serif" font-size="10.00"># serverNameIndication</text>
<text text-anchor="start" x="74" y="-81.5" font-family="Helvetica,sans-Serif" font-size="10.00"># sslErr</text>
<polyline fill="none" stroke="black" points="66,-74.5 186,-74.5 "/>
<text text-anchor="start" x="74" y="-62.5" font-family="Helvetica,sans-Serif" font-size="10.00">+ SocketConnection()</text>
<text text-anchor="start" x="74" y="-51.5" font-family="Helvetica,sans-Serif" font-size="10.00">+ getSSL()</text>
<text text-anchor="start" x="74" y="-40.5" font-family="Helvetica,sans-Serif" font-size="10.00"># startSSL()</text>
<text text-anchor="start" x="74" y="-29.5" font-family="Helvetica,sans-Serif" font-size="10.00"># doSSLHandshake()</text>
<text text-anchor="start" x="74" y="-18.5" font-family="Helvetica,sans-Serif" font-size="10.00"># stopSSL()</text>
<text text-anchor="start" x="74" y="-7.5" font-family="Helvetica,sans-Serif" font-size="10.00"># setSSLError()</text>
</a>
</g>
</g>
<!-- Node7&#45;&gt;Node8 -->
<g id="edge7" class="edge">
<title>Node7&#45;&gt;Node8</title>
<path fill="none" stroke="midnightblue" d="M126,-183.47C126,-174.29 126,-165.28 126,-156.62"/>
<polygon fill="none" stroke="midnightblue" points="122.5,-183.48 126,-193.48 129.5,-183.48 122.5,-183.48"/>
</g>
</g>
</svg>
