<?xml version="1.0" encoding="UTF-8" standalone="no"?>
<!DOCTYPE svg PUBLIC "-//W3C//DTD SVG 1.1//EN"
 "http://www.w3.org/Graphics/SVG/1.1/DTD/svg11.dtd">
<!-- Generated by graphviz version 2.43.0 (0)
 -->
<!-- Title: net::stream::PipeSink Pages: 1 -->
<svg width="243pt" height="810pt"
 viewBox="0.00 0.00 243.00 810.00" xmlns="http://www.w3.org/2000/svg" xmlns:xlink="http://www.w3.org/1999/xlink">
<g id="graph0" class="graph" transform="scale(1 1) rotate(0) translate(4 806)">
<title>net::stream::PipeSink</title>
<polygon fill="white" stroke="transparent" points="-4,4 -4,-806 239,-806 239,4 -4,4"/>
<!-- Node1 -->
<g id="node1" class="node">
<title>Node1</title>
<g id="a_node1"><a xlink:title=" ">
<polygon fill="#bfbfbf" stroke="black" points="45.5,-0.5 45.5,-156.5 156.5,-156.5 156.5,-0.5 45.5,-0.5"/>
<text text-anchor="middle" x="101" y="-144.5" font-family="Helvetica,sans-Serif" font-size="10.00">net::stream::PipeSink</text>
<polyline fill="none" stroke="black" points="45.5,-137.5 156.5,-137.5 "/>
<text text-anchor="start" x="53.5" y="-125.5" font-family="Helvetica,sans-Serif" font-size="10.00"># onData</text>
<text text-anchor="start" x="53.5" y="-114.5" font-family="Helvetica,sans-Serif" font-size="10.00"># onEof</text>
<text text-anchor="start" x="53.5" y="-103.5" font-family="Helvetica,sans-Serif" font-size="10.00"># onError</text>
<polyline fill="none" stroke="black" points="45.5,-96.5 156.5,-96.5 "/>
<text text-anchor="start" x="53.5" y="-84.5" font-family="Helvetica,sans-Serif" font-size="10.00">+ PipeSink()</text>
<text text-anchor="start" x="53.5" y="-73.5" font-family="Helvetica,sans-Serif" font-size="10.00">+ PipeSink()</text>
<text text-anchor="start" x="53.5" y="-62.5" font-family="Helvetica,sans-Serif" font-size="10.00">+ operator=()</text>
<text text-anchor="start" x="53.5" y="-51.5" font-family="Helvetica,sans-Serif" font-size="10.00">+ setOnData()</text>
<text text-anchor="start" x="53.5" y="-40.5" font-family="Helvetica,sans-Serif" font-size="10.00">+ setOnEof()</text>
<text text-anchor="start" x="53.5" y="-29.5" font-family="Helvetica,sans-Serif" font-size="10.00">+ setOnError()</text>
<text text-anchor="start" x="53.5" y="-18.5" font-family="Helvetica,sans-Serif" font-size="10.00"># readEvent()</text>
<text text-anchor="start" x="53.5" y="-7.5" font-family="Helvetica,sans-Serif" font-size="10.00"># unobserved()</text>
</a>
</g>
</g>
<!-- Node2 -->
<g id="node2" class="node">
<title>Node2</title>
<g id="a_node2"><a xlink:href="classnet_1_1_descriptor.html" target="_top" xlink:title=" ">
<polygon fill="white" stroke="black" points="0,-193.5 0,-338.5 82,-338.5 82,-193.5 0,-193.5"/>
<text text-anchor="middle" x="41" y="-326.5" font-family="Helvetica,sans-Serif" font-size="10.00">net::Descriptor</text>
<polyline fill="none" stroke="black" points="0,-319.5 82,-319.5 "/>
<text text-anchor="start" x="8" y="-307.5" font-family="Helvetica,sans-Serif" font-size="10.00">+ none</text>
<text text-anchor="start" x="8" y="-296.5" font-family="Helvetica,sans-Serif" font-size="10.00">&#45; fd</text>
<polyline fill="none" stroke="black" points="0,-289.5 82,-289.5 "/>
<text text-anchor="start" x="8" y="-277.5" font-family="Helvetica,sans-Serif" font-size="10.00">+ Descriptor()</text>
<text text-anchor="start" x="8" y="-266.5" font-family="Helvetica,sans-Serif" font-size="10.00">+ operator=()</text>
<text text-anchor="start" x="8" y="-255.5" font-family="Helvetica,sans-Serif" font-size="10.00">+ attach()</text>
<text text-anchor="start" x="8" y="-244.5" font-family="Helvetica,sans-Serif" font-size="10.00">+ getFd()</text>
<text text-anchor="start" x="8" y="-233.5" font-family="Helvetica,sans-Serif" font-size="10.00">+ dontClose()</text>
<text text-anchor="start" x="8" y="-222.5" font-family="Helvetica,sans-Serif" font-size="10.00">+ dontClose()</text>
<text text-anchor="start" x="8" y="-211.5" font-family="Helvetica,sans-Serif" font-size="10.00"># Descriptor()</text>
<text text-anchor="start" x="8" y="-200.5" font-family="Helvetica,sans-Serif" font-size="10.00"># ~Descriptor()</text>
</a>
</g>
</g>
<!-- Node2&#45;&gt;Node1 -->
<g id="edge1" class="edge">
<title>Node2&#45;&gt;Node1</title>
<path fill="none" stroke="midnightblue" d="M67.33,-183.6C70.23,-174.62 73.19,-165.49 76.07,-156.56"/>
<polygon fill="none" stroke="midnightblue" points="63.95,-182.69 64.2,-193.28 70.61,-184.84 63.95,-182.69"/>
</g>
<!-- Node3 -->
<g id="node3" class="node">
<title>Node3</title>
<g id="a_node3"><a xlink:href="classnet_1_1_read_event_receiver.html" target="_top" xlink:title=" ">
<polygon fill="white" stroke="black" points="100,-204.5 100,-327.5 224,-327.5 224,-204.5 100,-204.5"/>
<text text-anchor="middle" x="162" y="-315.5" font-family="Helvetica,sans-Serif" font-size="10.00">net::ReadEventReceiver</text>
<polyline fill="none" stroke="black" points="100,-308.5 224,-308.5 "/>
<text text-anchor="middle" x="162" y="-296.5" font-family="Helvetica,sans-Serif" font-size="10.00"> </text>
<polyline fill="none" stroke="black" points="100,-289.5 224,-289.5 "/>
<text text-anchor="start" x="108" y="-277.5" font-family="Helvetica,sans-Serif" font-size="10.00">+ enable()</text>
<text text-anchor="start" x="108" y="-266.5" font-family="Helvetica,sans-Serif" font-size="10.00">+ disable()</text>
<text text-anchor="start" x="108" y="-255.5" font-family="Helvetica,sans-Serif" font-size="10.00">+ suspend()</text>
<text text-anchor="start" x="108" y="-244.5" font-family="Helvetica,sans-Serif" font-size="10.00">+ resume()</text>
<text text-anchor="start" x="108" y="-233.5" font-family="Helvetica,sans-Serif" font-size="10.00"># ReadEventReceiver()</text>
<text text-anchor="start" x="108" y="-222.5" font-family="Helvetica,sans-Serif" font-size="10.00"># readEvent()</text>
<text text-anchor="start" x="108" y="-211.5" font-family="Helvetica,sans-Serif" font-size="10.00">&#45; dispatchEvent()</text>
</a>
</g>
</g>
<!-- Node3&#45;&gt;Node1 -->
<g id="edge2" class="edge">
<title>Node3&#45;&gt;Node1</title>
<path fill="none" stroke="midnightblue" d="M138.81,-194.48C134.74,-182.1 130.49,-169.17 126.36,-156.62"/>
<polygon fill="none" stroke="midnightblue" points="135.58,-195.85 142.03,-204.26 142.23,-193.67 135.58,-195.85"/>
</g>
<!-- Node4 -->
<g id="node4" class="node">
<title>Node4</title>
<g id="a_node4"><a xlink:href="classnet_1_1_descriptor_event_receiver.html" target="_top" xlink:title=" ">
<polygon fill="white" stroke="black" points="89,-375.5 89,-696.5 235,-696.5 235,-375.5 89,-375.5"/>
<text text-anchor="middle" x="162" y="-684.5" font-family="Helvetica,sans-Serif" font-size="10.00">net::DescriptorEventReceiver</text>
<polyline fill="none" stroke="black" points="89,-677.5 235,-677.5 "/>
<text text-anchor="start" x="97" y="-665.5" font-family="Helvetica,sans-Serif" font-size="10.00"># fd</text>
<text text-anchor="start" x="97" y="-654.5" font-family="Helvetica,sans-Serif" font-size="10.00">&#45; _enabled</text>
<text text-anchor="start" x="97" y="-643.5" font-family="Helvetica,sans-Serif" font-size="10.00">&#45; _suspended</text>
<text text-anchor="start" x="97" y="-632.5" font-family="Helvetica,sans-Serif" font-size="10.00">&#45; maxInactivity</text>
<text text-anchor="start" x="97" y="-621.5" font-family="Helvetica,sans-Serif" font-size="10.00">&#45; initialTimeout</text>
<polyline fill="none" stroke="black" points="89,-614.5 235,-614.5 "/>
<text text-anchor="start" x="97" y="-602.5" font-family="Helvetica,sans-Serif" font-size="10.00">+ DescriptorEventReceiver()</text>
<text text-anchor="start" x="97" y="-591.5" font-family="Helvetica,sans-Serif" font-size="10.00">+ operator=()</text>
<text text-anchor="start" x="97" y="-580.5" font-family="Helvetica,sans-Serif" font-size="10.00"># DescriptorEventReceiver()</text>
<text text-anchor="start" x="97" y="-569.5" font-family="Helvetica,sans-Serif" font-size="10.00"># ~DescriptorEventReceiver()</text>
<text text-anchor="start" x="97" y="-558.5" font-family="Helvetica,sans-Serif" font-size="10.00"># setTimeout()</text>
<text text-anchor="start" x="97" y="-547.5" font-family="Helvetica,sans-Serif" font-size="10.00"># isEnabled()</text>
<text text-anchor="start" x="97" y="-536.5" font-family="Helvetica,sans-Serif" font-size="10.00"># isSuspended()</text>
<text text-anchor="start" x="97" y="-525.5" font-family="Helvetica,sans-Serif" font-size="10.00">&#45; dispatchEvent()</text>
<text text-anchor="start" x="97" y="-514.5" font-family="Helvetica,sans-Serif" font-size="10.00">&#45; timeout()</text>
<text text-anchor="start" x="97" y="-503.5" font-family="Helvetica,sans-Serif" font-size="10.00">&#45; enabled()</text>
<text text-anchor="start" x="97" y="-492.5" font-family="Helvetica,sans-Serif" font-size="10.00">&#45; disabled()</text>
<text text-anchor="start" x="97" y="-481.5" font-family="Helvetica,sans-Serif" font-size="10.00">&#45; suspended()</text>
<text text-anchor="start" x="97" y="-470.5" font-family="Helvetica,sans-Serif" font-size="10.00">&#45; resumed()</text>
<text text-anchor="start" x="97" y="-459.5" font-family="Helvetica,sans-Serif" font-size="10.00">&#45; getTimeout()</text>
<text text-anchor="start" x="97" y="-448.5" font-family="Helvetica,sans-Serif" font-size="10.00">&#45; getLastTriggered()</text>
<text text-anchor="start" x="97" y="-437.5" font-family="Helvetica,sans-Serif" font-size="10.00">&#45; triggered()</text>
<text text-anchor="start" x="97" y="-426.5" font-family="Helvetica,sans-Serif" font-size="10.00">&#45; enable()</text>
<text text-anchor="start" x="97" y="-415.5" font-family="Helvetica,sans-Serif" font-size="10.00">&#45; disable()</text>
<text text-anchor="start" x="97" y="-404.5" font-family="Helvetica,sans-Serif" font-size="10.00">&#45; suspend()</text>
<text text-anchor="start" x="97" y="-393.5" font-family="Helvetica,sans-Serif" font-size="10.00">&#45; resume()</text>
<text text-anchor="start" x="97" y="-382.5" font-family="Helvetica,sans-Serif" font-size="10.00">&#45; unobserved()</text>
</a>
</g>
</g>
<!-- Node4&#45;&gt;Node3 -->
<g id="edge3" class="edge">
<title>Node4&#45;&gt;Node3</title>
<path fill="none" stroke="midnightblue" d="M162,-365.07C162,-351.89 162,-339.21 162,-327.59"/>
<polygon fill="none" stroke="midnightblue" points="158.5,-365.23 162,-375.23 165.5,-365.23 158.5,-365.23"/>
</g>
<!-- Node5 -->
<g id="node5" class="node">
<title>Node5</title>
<g id="a_node5"><a xlink:href="classnet_1_1_observation_counter.html" target="_top" xlink:title=" ">
<polygon fill="white" stroke="black" points="100.5,-733.5 100.5,-801.5 223.5,-801.5 223.5,-733.5 100.5,-733.5"/>
<text text-anchor="middle" x="162" y="-789.5" font-family="Helvetica,sans-Serif" font-size="10.00">net::ObservationCounter</text>
<polyline fill="none" stroke="black" points="100.5,-782.5 223.5,-782.5 "/>
<text text-anchor="start" x="108.5" y="-770.5" font-family="Helvetica,sans-Serif" font-size="10.00"># observationCounter</text>
<text text-anchor="start" x="108.5" y="-759.5" font-family="Helvetica,sans-Serif" font-size="10.00"># lastTriggered</text>
<polyline fill="none" stroke="black" points="100.5,-752.5 223.5,-752.5 "/>
<text text-anchor="start" x="108.5" y="-740.5" font-family="Helvetica,sans-Serif" font-size="10.00">+ isObserved()</text>
</a>
</g>
</g>
<!-- Node5&#45;&gt;Node4 -->
<g id="edge4" class="edge">
<title>Node5&#45;&gt;Node4</title>
<path fill="none" stroke="midnightblue" d="M162,-722.97C162,-714.88 162,-706 162,-696.66"/>
<polygon fill="none" stroke="midnightblue" points="158.5,-723.13 162,-733.13 165.5,-723.13 158.5,-723.13"/>
</g>
</g>
</svg>
