<?xml version="1.0" encoding="UTF-8" standalone="no"?>
<!DOCTYPE svg PUBLIC "-//W3C//DTD SVG 1.1//EN"
 "http://www.w3.org/Graphics/SVG/1.1/DTD/svg11.dtd">
<!-- Generated by graphviz version 2.43.0 (0)
 -->
<!-- Title: net::socket::stream::SocketClient&lt; SocketConnectionT &gt; Pages: 1 -->
<svg width="948pt" height="1381pt"
 viewBox="0.00 0.00 948.00 1381.00" xmlns="http://www.w3.org/2000/svg" xmlns:xlink="http://www.w3.org/1999/xlink">
<g id="graph0" class="graph" transform="scale(1 1) rotate(0) translate(4 1377)">
<title>net::socket::stream::SocketClient&lt; SocketConnectionT &gt;</title>
<polygon fill="white" stroke="transparent" points="-4,4 -4,-1377 944,-1377 944,4 -4,4"/>
<!-- Node1 -->
<g id="node1" class="node">
<title>Node1</title>
<g id="a_node1"><a xlink:title=" ">
<polygon fill="#bfbfbf" stroke="black" points="345.5,-1150.5 345.5,-1372.5 528.5,-1372.5 528.5,-1150.5 345.5,-1150.5"/>
<text text-anchor="start" x="353.5" y="-1360.5" font-family="Helvetica,sans-Serif" font-size="10.00">net::socket::stream</text>
<text text-anchor="middle" x="437" y="-1349.5" font-family="Helvetica,sans-Serif" font-size="10.00">::SocketClient&lt; SocketConnectionT &gt;</text>
<polyline fill="none" stroke="black" points="345.5,-1342.5 528.5,-1342.5 "/>
<text text-anchor="start" x="353.5" y="-1330.5" font-family="Helvetica,sans-Serif" font-size="10.00"># options</text>
<text text-anchor="start" x="353.5" y="-1319.5" font-family="Helvetica,sans-Serif" font-size="10.00"># isDynamic</text>
<text text-anchor="start" x="353.5" y="-1308.5" font-family="Helvetica,sans-Serif" font-size="10.00"># lastAllocAddress</text>
<text text-anchor="start" x="353.5" y="-1297.5" font-family="Helvetica,sans-Serif" font-size="10.00">&#45; onConstruct</text>
<text text-anchor="start" x="353.5" y="-1286.5" font-family="Helvetica,sans-Serif" font-size="10.00">&#45; onDestruct</text>
<text text-anchor="start" x="353.5" y="-1275.5" font-family="Helvetica,sans-Serif" font-size="10.00">&#45; onConnect</text>
<text text-anchor="start" x="353.5" y="-1264.5" font-family="Helvetica,sans-Serif" font-size="10.00">&#45; onDisconnect</text>
<text text-anchor="start" x="353.5" y="-1253.5" font-family="Helvetica,sans-Serif" font-size="10.00">&#45; onRead</text>
<text text-anchor="start" x="353.5" y="-1242.5" font-family="Helvetica,sans-Serif" font-size="10.00">&#45; onReadError</text>
<text text-anchor="start" x="353.5" y="-1231.5" font-family="Helvetica,sans-Serif" font-size="10.00">&#45; onWriteError</text>
<polyline fill="none" stroke="black" points="345.5,-1224.5 528.5,-1224.5 "/>
<text text-anchor="start" x="353.5" y="-1212.5" font-family="Helvetica,sans-Serif" font-size="10.00">+ operator new()</text>
<text text-anchor="start" x="353.5" y="-1201.5" font-family="Helvetica,sans-Serif" font-size="10.00">+ operator delete()</text>
<text text-anchor="start" x="353.5" y="-1190.5" font-family="Helvetica,sans-Serif" font-size="10.00">+ SocketClient()</text>
<text text-anchor="start" x="353.5" y="-1179.5" font-family="Helvetica,sans-Serif" font-size="10.00">+ SocketClient()</text>
<text text-anchor="start" x="353.5" y="-1168.5" font-family="Helvetica,sans-Serif" font-size="10.00">+ ~SocketClient()</text>
<text text-anchor="start" x="353.5" y="-1157.5" font-family="Helvetica,sans-Serif" font-size="10.00">+ connect()</text>
</a>
</g>
</g>
<!-- Node2 -->
<g id="node2" class="node">
<title>Node2</title>
<g id="a_node2"><a xlink:href="classnet_1_1socket_1_1stream_1_1_socket_client.html" target="_top" xlink:title=" ">
<polygon fill="white" stroke="black" points="0,-573.5 0,-828.5 130,-828.5 130,-573.5 0,-573.5"/>
<text text-anchor="start" x="8" y="-816.5" font-family="Helvetica,sans-Serif" font-size="10.00">net::socket::stream</text>
<text text-anchor="start" x="8" y="-805.5" font-family="Helvetica,sans-Serif" font-size="10.00">::SocketClient&lt; legacy</text>
<text text-anchor="start" x="8" y="-794.5" font-family="Helvetica,sans-Serif" font-size="10.00">::SocketConnection&lt; net</text>
<text text-anchor="start" x="8" y="-783.5" font-family="Helvetica,sans-Serif" font-size="10.00">::socket::ipv4::tcp::legacy</text>
<text text-anchor="middle" x="65" y="-772.5" font-family="Helvetica,sans-Serif" font-size="10.00">::Socket &gt; &gt;</text>
<polyline fill="none" stroke="black" points="0,-765.5 130,-765.5 "/>
<text text-anchor="start" x="8" y="-753.5" font-family="Helvetica,sans-Serif" font-size="10.00"># options</text>
<text text-anchor="start" x="8" y="-742.5" font-family="Helvetica,sans-Serif" font-size="10.00"># isDynamic</text>
<text text-anchor="start" x="8" y="-731.5" font-family="Helvetica,sans-Serif" font-size="10.00"># lastAllocAddress</text>
<text text-anchor="start" x="8" y="-720.5" font-family="Helvetica,sans-Serif" font-size="10.00">&#45; onConstruct</text>
<text text-anchor="start" x="8" y="-709.5" font-family="Helvetica,sans-Serif" font-size="10.00">&#45; onDestruct</text>
<text text-anchor="start" x="8" y="-698.5" font-family="Helvetica,sans-Serif" font-size="10.00">&#45; onConnect</text>
<text text-anchor="start" x="8" y="-687.5" font-family="Helvetica,sans-Serif" font-size="10.00">&#45; onDisconnect</text>
<text text-anchor="start" x="8" y="-676.5" font-family="Helvetica,sans-Serif" font-size="10.00">&#45; onRead</text>
<text text-anchor="start" x="8" y="-665.5" font-family="Helvetica,sans-Serif" font-size="10.00">&#45; onReadError</text>
<text text-anchor="start" x="8" y="-654.5" font-family="Helvetica,sans-Serif" font-size="10.00">&#45; onWriteError</text>
<polyline fill="none" stroke="black" points="0,-647.5 130,-647.5 "/>
<text text-anchor="start" x="8" y="-635.5" font-family="Helvetica,sans-Serif" font-size="10.00">+ operator new()</text>
<text text-anchor="start" x="8" y="-624.5" font-family="Helvetica,sans-Serif" font-size="10.00">+ operator delete()</text>
<text text-anchor="start" x="8" y="-613.5" font-family="Helvetica,sans-Serif" font-size="10.00">+ SocketClient()</text>
<text text-anchor="start" x="8" y="-602.5" font-family="Helvetica,sans-Serif" font-size="10.00">+ SocketClient()</text>
<text text-anchor="start" x="8" y="-591.5" font-family="Helvetica,sans-Serif" font-size="10.00">+ ~SocketClient()</text>
<text text-anchor="start" x="8" y="-580.5" font-family="Helvetica,sans-Serif" font-size="10.00">+ connect()</text>
</a>
</g>
</g>
<!-- Node1&#45;&gt;Node2 -->
<g id="edge1" class="edge">
<title>Node1&#45;&gt;Node2</title>
<path fill="none" stroke="orange" d="M335.24,-1255.35C249.31,-1245 130.95,-1215.35 71,-1132 8.66,-1045.33 14.09,-921.31 31.04,-828.72"/>
<polygon fill="orange" stroke="orange" points="334.96,-1258.84 345.29,-1256.49 335.75,-1251.88 334.96,-1258.84"/>
<text text-anchor="start" x="71" y="-1124" font-family="Helvetica,sans-Serif" font-size="10.00"> &lt; legacy::SocketConnection</text>
<text text-anchor="start" x="71" y="-1113" font-family="Helvetica,sans-Serif" font-size="10.00">&lt; net::socket::ipv4::tcp</text>
<text text-anchor="middle" x="134.5" y="-1102" font-family="Helvetica,sans-Serif" font-size="10.00">::legacy::Socket &gt; &gt;</text>
</g>
<!-- Node5 -->
<g id="node5" class="node">
<title>Node5</title>
<g id="a_node5"><a xlink:href="classnet_1_1socket_1_1stream_1_1_socket_client.html" target="_top" xlink:title=" ">
<polygon fill="white" stroke="black" points="128.5,-847.5 128.5,-1080.5 295.5,-1080.5 295.5,-847.5 128.5,-847.5"/>
<text text-anchor="start" x="136.5" y="-1068.5" font-family="Helvetica,sans-Serif" font-size="10.00">net::socket::stream</text>
<text text-anchor="start" x="136.5" y="-1057.5" font-family="Helvetica,sans-Serif" font-size="10.00">::SocketClient&lt; legacy</text>
<text text-anchor="middle" x="212" y="-1046.5" font-family="Helvetica,sans-Serif" font-size="10.00">::SocketConnection&lt; SocketT &gt; &gt;</text>
<polyline fill="none" stroke="black" points="128.5,-1039.5 295.5,-1039.5 "/>
<text text-anchor="start" x="136.5" y="-1027.5" font-family="Helvetica,sans-Serif" font-size="10.00"># options</text>
<text text-anchor="start" x="136.5" y="-1016.5" font-family="Helvetica,sans-Serif" font-size="10.00"># isDynamic</text>
<text text-anchor="start" x="136.5" y="-1005.5" font-family="Helvetica,sans-Serif" font-size="10.00"># lastAllocAddress</text>
<text text-anchor="start" x="136.5" y="-994.5" font-family="Helvetica,sans-Serif" font-size="10.00">&#45; onConstruct</text>
<text text-anchor="start" x="136.5" y="-983.5" font-family="Helvetica,sans-Serif" font-size="10.00">&#45; onDestruct</text>
<text text-anchor="start" x="136.5" y="-972.5" font-family="Helvetica,sans-Serif" font-size="10.00">&#45; onConnect</text>
<text text-anchor="start" x="136.5" y="-961.5" font-family="Helvetica,sans-Serif" font-size="10.00">&#45; onDisconnect</text>
<text text-anchor="start" x="136.5" y="-950.5" font-family="Helvetica,sans-Serif" font-size="10.00">&#45; onRead</text>
<text text-anchor="start" x="136.5" y="-939.5" font-family="Helvetica,sans-Serif" font-size="10.00">&#45; onReadError</text>
<text text-anchor="start" x="136.5" y="-928.5" font-family="Helvetica,sans-Serif" font-size="10.00">&#45; onWriteError</text>
<polyline fill="none" stroke="black" points="128.5,-921.5 295.5,-921.5 "/>
<text text-anchor="start" x="136.5" y="-909.5" font-family="Helvetica,sans-Serif" font-size="10.00">+ operator new()</text>
<text text-anchor="start" x="136.5" y="-898.5" font-family="Helvetica,sans-Serif" font-size="10.00">+ operator delete()</text>
<text text-anchor="start" x="136.5" y="-887.5" font-family="Helvetica,sans-Serif" font-size="10.00">+ SocketClient()</text>
<text text-anchor="start" x="136.5" y="-876.5" font-family="Helvetica,sans-Serif" font-size="10.00">+ SocketClient()</text>
<text text-anchor="start" x="136.5" y="-865.5" font-family="Helvetica,sans-Serif" font-size="10.00">+ ~SocketClient()</text>
<text text-anchor="start" x="136.5" y="-854.5" font-family="Helvetica,sans-Serif" font-size="10.00">+ connect()</text>
</a>
</g>
</g>
<!-- Node1&#45;&gt;Node5 -->
<g id="edge4" class="edge">
<title>Node1&#45;&gt;Node5</title>
<path fill="none" stroke="orange" d="M335.81,-1228.87C289.82,-1208.87 239.78,-1177.92 213,-1132 203.94,-1116.47 199.22,-1098.67 197.25,-1080.61"/>
<polygon fill="orange" stroke="orange" points="334.68,-1232.19 345.25,-1232.85 337.4,-1225.74 334.68,-1232.19"/>
<text text-anchor="start" x="213" y="-1118.5" font-family="Helvetica,sans-Serif" font-size="10.00"> &lt; legacy::SocketConnection</text>
<text text-anchor="middle" x="276.5" y="-1107.5" font-family="Helvetica,sans-Serif" font-size="10.00">&lt; SocketT &gt; &gt;</text>
</g>
<!-- Node9 -->
<g id="node9" class="node">
<title>Node9</title>
<g id="a_node9"><a xlink:href="classnet_1_1socket_1_1stream_1_1_socket_client.html" target="_top" xlink:title=" ">
<polygon fill="white" stroke="black" points="456.5,-573.5 456.5,-828.5 581.5,-828.5 581.5,-573.5 456.5,-573.5"/>
<text text-anchor="start" x="464.5" y="-816.5" font-family="Helvetica,sans-Serif" font-size="10.00">net::socket::stream</text>
<text text-anchor="start" x="464.5" y="-805.5" font-family="Helvetica,sans-Serif" font-size="10.00">::SocketClient&lt; tls</text>
<text text-anchor="start" x="464.5" y="-794.5" font-family="Helvetica,sans-Serif" font-size="10.00">::SocketConnection&lt; net</text>
<text text-anchor="start" x="464.5" y="-783.5" font-family="Helvetica,sans-Serif" font-size="10.00">::socket::ipv6::tcp::tls</text>
<text text-anchor="middle" x="519" y="-772.5" font-family="Helvetica,sans-Serif" font-size="10.00">::Socket &gt; &gt;</text>
<polyline fill="none" stroke="black" points="456.5,-765.5 581.5,-765.5 "/>
<text text-anchor="start" x="464.5" y="-753.5" font-family="Helvetica,sans-Serif" font-size="10.00"># options</text>
<text text-anchor="start" x="464.5" y="-742.5" font-family="Helvetica,sans-Serif" font-size="10.00"># isDynamic</text>
<text text-anchor="start" x="464.5" y="-731.5" font-family="Helvetica,sans-Serif" font-size="10.00"># lastAllocAddress</text>
<text text-anchor="start" x="464.5" y="-720.5" font-family="Helvetica,sans-Serif" font-size="10.00">&#45; onConstruct</text>
<text text-anchor="start" x="464.5" y="-709.5" font-family="Helvetica,sans-Serif" font-size="10.00">&#45; onDestruct</text>
<text text-anchor="start" x="464.5" y="-698.5" font-family="Helvetica,sans-Serif" font-size="10.00">&#45; onConnect</text>
<text text-anchor="start" x="464.5" y="-687.5" font-family="Helvetica,sans-Serif" font-size="10.00">&#45; onDisconnect</text>
<text text-anchor="start" x="464.5" y="-676.5" font-family="Helvetica,sans-Serif" font-size="10.00">&#45; onRead</text>
<text text-anchor="start" x="464.5" y="-665.5" font-family="Helvetica,sans-Serif" font-size="10.00">&#45; onReadError</text>
<text text-anchor="start" x="464.5" y="-654.5" font-family="Helvetica,sans-Serif" font-size="10.00">&#45; onWriteError</text>
<polyline fill="none" stroke="black" points="456.5,-647.5 581.5,-647.5 "/>
<text text-anchor="start" x="464.5" y="-635.5" font-family="Helvetica,sans-Serif" font-size="10.00">+ operator new()</text>
<text text-anchor="start" x="464.5" y="-624.5" font-family="Helvetica,sans-Serif" font-size="10.00">+ operator delete()</text>
<text text-anchor="start" x="464.5" y="-613.5" font-family="Helvetica,sans-Serif" font-size="10.00">+ SocketClient()</text>
<text text-anchor="start" x="464.5" y="-602.5" font-family="Helvetica,sans-Serif" font-size="10.00">+ SocketClient()</text>
<text text-anchor="start" x="464.5" y="-591.5" font-family="Helvetica,sans-Serif" font-size="10.00">+ ~SocketClient()</text>
<text text-anchor="start" x="464.5" y="-580.5" font-family="Helvetica,sans-Serif" font-size="10.00">+ connect()</text>
</a>
</g>
</g>
<!-- Node1&#45;&gt;Node9 -->
<g id="edge9" class="edge">
<title>Node1&#45;&gt;Node9</title>
<path fill="none" stroke="orange" d="M487.88,-1140.47C488.63,-1137.64 489.34,-1134.81 490,-1132 513.38,-1031.81 520.01,-915.2 521.14,-828.71"/>
<polygon fill="orange" stroke="orange" points="484.49,-1139.57 485.13,-1150.15 491.23,-1141.48 484.49,-1139.57"/>
<text text-anchor="start" x="497" y="-1124" font-family="Helvetica,sans-Serif" font-size="10.00"> &lt; tls::SocketConnection</text>
<text text-anchor="start" x="497" y="-1113" font-family="Helvetica,sans-Serif" font-size="10.00">&lt; net::socket::ipv6::tcp</text>
<text text-anchor="middle" x="551.5" y="-1102" font-family="Helvetica,sans-Serif" font-size="10.00">::tls::Socket &gt; &gt;</text>
</g>
<!-- Node12 -->
<g id="node12" class="node">
<title>Node12</title>
<g id="a_node12"><a xlink:href="classnet_1_1socket_1_1stream_1_1_socket_client.html" target="_top" xlink:title=" ">
<polygon fill="white" stroke="black" points="294,-573.5 294,-828.5 424,-828.5 424,-573.5 294,-573.5"/>
<text text-anchor="start" x="302" y="-816.5" font-family="Helvetica,sans-Serif" font-size="10.00">net::socket::stream</text>
<text text-anchor="start" x="302" y="-805.5" font-family="Helvetica,sans-Serif" font-size="10.00">::SocketClient&lt; legacy</text>
<text text-anchor="start" x="302" y="-794.5" font-family="Helvetica,sans-Serif" font-size="10.00">::SocketConnection&lt; net</text>
<text text-anchor="start" x="302" y="-783.5" font-family="Helvetica,sans-Serif" font-size="10.00">::socket::ipv6::tcp::legacy</text>
<text text-anchor="middle" x="359" y="-772.5" font-family="Helvetica,sans-Serif" font-size="10.00">::Socket &gt; &gt;</text>
<polyline fill="none" stroke="black" points="294,-765.5 424,-765.5 "/>
<text text-anchor="start" x="302" y="-753.5" font-family="Helvetica,sans-Serif" font-size="10.00"># options</text>
<text text-anchor="start" x="302" y="-742.5" font-family="Helvetica,sans-Serif" font-size="10.00"># isDynamic</text>
<text text-anchor="start" x="302" y="-731.5" font-family="Helvetica,sans-Serif" font-size="10.00"># lastAllocAddress</text>
<text text-anchor="start" x="302" y="-720.5" font-family="Helvetica,sans-Serif" font-size="10.00">&#45; onConstruct</text>
<text text-anchor="start" x="302" y="-709.5" font-family="Helvetica,sans-Serif" font-size="10.00">&#45; onDestruct</text>
<text text-anchor="start" x="302" y="-698.5" font-family="Helvetica,sans-Serif" font-size="10.00">&#45; onConnect</text>
<text text-anchor="start" x="302" y="-687.5" font-family="Helvetica,sans-Serif" font-size="10.00">&#45; onDisconnect</text>
<text text-anchor="start" x="302" y="-676.5" font-family="Helvetica,sans-Serif" font-size="10.00">&#45; onRead</text>
<text text-anchor="start" x="302" y="-665.5" font-family="Helvetica,sans-Serif" font-size="10.00">&#45; onReadError</text>
<text text-anchor="start" x="302" y="-654.5" font-family="Helvetica,sans-Serif" font-size="10.00">&#45; onWriteError</text>
<polyline fill="none" stroke="black" points="294,-647.5 424,-647.5 "/>
<text text-anchor="start" x="302" y="-635.5" font-family="Helvetica,sans-Serif" font-size="10.00">+ operator new()</text>
<text text-anchor="start" x="302" y="-624.5" font-family="Helvetica,sans-Serif" font-size="10.00">+ operator delete()</text>
<text text-anchor="start" x="302" y="-613.5" font-family="Helvetica,sans-Serif" font-size="10.00">+ SocketClient()</text>
<text text-anchor="start" x="302" y="-602.5" font-family="Helvetica,sans-Serif" font-size="10.00">+ SocketClient()</text>
<text text-anchor="start" x="302" y="-591.5" font-family="Helvetica,sans-Serif" font-size="10.00">+ ~SocketClient()</text>
<text text-anchor="start" x="302" y="-580.5" font-family="Helvetica,sans-Serif" font-size="10.00">+ connect()</text>
</a>
</g>
</g>
<!-- Node1&#45;&gt;Node12 -->
<g id="edge12" class="edge">
<title>Node1&#45;&gt;Node12</title>
<path fill="none" stroke="orange" d="M365.56,-1140.56C364.63,-1137.71 363.78,-1134.85 363,-1132 335.98,-1032.78 336.88,-915.83 343.47,-828.97"/>
<polygon fill="orange" stroke="orange" points="362.34,-1141.97 368.97,-1150.24 368.95,-1139.64 362.34,-1141.97"/>
<text text-anchor="start" x="363" y="-1124" font-family="Helvetica,sans-Serif" font-size="10.00"> &lt; legacy::SocketConnection</text>
<text text-anchor="start" x="363" y="-1113" font-family="Helvetica,sans-Serif" font-size="10.00">&lt; net::socket::ipv6::tcp</text>
<text text-anchor="middle" x="426.5" y="-1102" font-family="Helvetica,sans-Serif" font-size="10.00">::legacy::Socket &gt; &gt;</text>
</g>
<!-- Node13 -->
<g id="node13" class="node">
<title>Node13</title>
<g id="a_node13"><a xlink:href="classnet_1_1socket_1_1stream_1_1_socket_client.html" target="_top" xlink:title=" ">
<polygon fill="white" stroke="black" points="557.5,-847.5 557.5,-1080.5 724.5,-1080.5 724.5,-847.5 557.5,-847.5"/>
<text text-anchor="start" x="565.5" y="-1068.5" font-family="Helvetica,sans-Serif" font-size="10.00">net::socket::stream</text>
<text text-anchor="start" x="565.5" y="-1057.5" font-family="Helvetica,sans-Serif" font-size="10.00">::SocketClient&lt; tls</text>
<text text-anchor="middle" x="641" y="-1046.5" font-family="Helvetica,sans-Serif" font-size="10.00">::SocketConnection&lt; SocketT &gt; &gt;</text>
<polyline fill="none" stroke="black" points="557.5,-1039.5 724.5,-1039.5 "/>
<text text-anchor="start" x="565.5" y="-1027.5" font-family="Helvetica,sans-Serif" font-size="10.00"># options</text>
<text text-anchor="start" x="565.5" y="-1016.5" font-family="Helvetica,sans-Serif" font-size="10.00"># isDynamic</text>
<text text-anchor="start" x="565.5" y="-1005.5" font-family="Helvetica,sans-Serif" font-size="10.00"># lastAllocAddress</text>
<text text-anchor="start" x="565.5" y="-994.5" font-family="Helvetica,sans-Serif" font-size="10.00">&#45; onConstruct</text>
<text text-anchor="start" x="565.5" y="-983.5" font-family="Helvetica,sans-Serif" font-size="10.00">&#45; onDestruct</text>
<text text-anchor="start" x="565.5" y="-972.5" font-family="Helvetica,sans-Serif" font-size="10.00">&#45; onConnect</text>
<text text-anchor="start" x="565.5" y="-961.5" font-family="Helvetica,sans-Serif" font-size="10.00">&#45; onDisconnect</text>
<text text-anchor="start" x="565.5" y="-950.5" font-family="Helvetica,sans-Serif" font-size="10.00">&#45; onRead</text>
<text text-anchor="start" x="565.5" y="-939.5" font-family="Helvetica,sans-Serif" font-size="10.00">&#45; onReadError</text>
<text text-anchor="start" x="565.5" y="-928.5" font-family="Helvetica,sans-Serif" font-size="10.00">&#45; onWriteError</text>
<polyline fill="none" stroke="black" points="557.5,-921.5 724.5,-921.5 "/>
<text text-anchor="start" x="565.5" y="-909.5" font-family="Helvetica,sans-Serif" font-size="10.00">+ operator new()</text>
<text text-anchor="start" x="565.5" y="-898.5" font-family="Helvetica,sans-Serif" font-size="10.00">+ operator delete()</text>
<text text-anchor="start" x="565.5" y="-887.5" font-family="Helvetica,sans-Serif" font-size="10.00">+ SocketClient()</text>
<text text-anchor="start" x="565.5" y="-876.5" font-family="Helvetica,sans-Serif" font-size="10.00">+ SocketClient()</text>
<text text-anchor="start" x="565.5" y="-865.5" font-family="Helvetica,sans-Serif" font-size="10.00">+ ~SocketClient()</text>
<text text-anchor="start" x="565.5" y="-854.5" font-family="Helvetica,sans-Serif" font-size="10.00">+ connect()</text>
</a>
</g>
</g>
<!-- Node1&#45;&gt;Node13 -->
<g id="edge14" class="edge">
<title>Node1&#45;&gt;Node13</title>
<path fill="none" stroke="orange" d="M537.41,-1212.66C569.59,-1192.31 602.03,-1165.44 622,-1132 631.28,-1116.47 637.18,-1098.66 640.79,-1080.6"/>
<polygon fill="orange" stroke="orange" points="535.48,-1209.74 528.8,-1217.96 539.15,-1215.7 535.48,-1209.74"/>
<text text-anchor="start" x="635" y="-1118.5" font-family="Helvetica,sans-Serif" font-size="10.00"> &lt; tls::SocketConnection</text>
<text text-anchor="middle" x="689.5" y="-1107.5" font-family="Helvetica,sans-Serif" font-size="10.00">&lt; SocketT &gt; &gt;</text>
</g>
<!-- Node17 -->
<g id="node17" class="node">
<title>Node17</title>
<g id="a_node17"><a xlink:href="classnet_1_1socket_1_1stream_1_1_socket_client.html" target="_top" xlink:title=" ">
<polygon fill="white" stroke="black" points="705.5,-299.5 705.5,-554.5 830.5,-554.5 830.5,-299.5 705.5,-299.5"/>
<text text-anchor="start" x="713.5" y="-542.5" font-family="Helvetica,sans-Serif" font-size="10.00">net::socket::stream</text>
<text text-anchor="start" x="713.5" y="-531.5" font-family="Helvetica,sans-Serif" font-size="10.00">::SocketClient&lt; tls</text>
<text text-anchor="start" x="713.5" y="-520.5" font-family="Helvetica,sans-Serif" font-size="10.00">::SocketConnection&lt; net</text>
<text text-anchor="start" x="713.5" y="-509.5" font-family="Helvetica,sans-Serif" font-size="10.00">::socket::ipv4::tcp::tls</text>
<text text-anchor="middle" x="768" y="-498.5" font-family="Helvetica,sans-Serif" font-size="10.00">::Socket &gt; &gt;</text>
<polyline fill="none" stroke="black" points="705.5,-491.5 830.5,-491.5 "/>
<text text-anchor="start" x="713.5" y="-479.5" font-family="Helvetica,sans-Serif" font-size="10.00"># options</text>
<text text-anchor="start" x="713.5" y="-468.5" font-family="Helvetica,sans-Serif" font-size="10.00"># isDynamic</text>
<text text-anchor="start" x="713.5" y="-457.5" font-family="Helvetica,sans-Serif" font-size="10.00"># lastAllocAddress</text>
<text text-anchor="start" x="713.5" y="-446.5" font-family="Helvetica,sans-Serif" font-size="10.00">&#45; onConstruct</text>
<text text-anchor="start" x="713.5" y="-435.5" font-family="Helvetica,sans-Serif" font-size="10.00">&#45; onDestruct</text>
<text text-anchor="start" x="713.5" y="-424.5" font-family="Helvetica,sans-Serif" font-size="10.00">&#45; onConnect</text>
<text text-anchor="start" x="713.5" y="-413.5" font-family="Helvetica,sans-Serif" font-size="10.00">&#45; onDisconnect</text>
<text text-anchor="start" x="713.5" y="-402.5" font-family="Helvetica,sans-Serif" font-size="10.00">&#45; onRead</text>
<text text-anchor="start" x="713.5" y="-391.5" font-family="Helvetica,sans-Serif" font-size="10.00">&#45; onReadError</text>
<text text-anchor="start" x="713.5" y="-380.5" font-family="Helvetica,sans-Serif" font-size="10.00">&#45; onWriteError</text>
<polyline fill="none" stroke="black" points="705.5,-373.5 830.5,-373.5 "/>
<text text-anchor="start" x="713.5" y="-361.5" font-family="Helvetica,sans-Serif" font-size="10.00">+ operator new()</text>
<text text-anchor="start" x="713.5" y="-350.5" font-family="Helvetica,sans-Serif" font-size="10.00">+ operator delete()</text>
<text text-anchor="start" x="713.5" y="-339.5" font-family="Helvetica,sans-Serif" font-size="10.00">+ SocketClient()</text>
<text text-anchor="start" x="713.5" y="-328.5" font-family="Helvetica,sans-Serif" font-size="10.00">+ SocketClient()</text>
<text text-anchor="start" x="713.5" y="-317.5" font-family="Helvetica,sans-Serif" font-size="10.00">+ ~SocketClient()</text>
<text text-anchor="start" x="713.5" y="-306.5" font-family="Helvetica,sans-Serif" font-size="10.00">+ connect()</text>
</a>
</g>
</g>
<!-- Node1&#45;&gt;Node17 -->
<g id="edge19" class="edge">
<title>Node1&#45;&gt;Node17</title>
<path fill="none" stroke="orange" d="M538.61,-1247.47C609.98,-1232.5 700.81,-1200.44 748,-1132 866.09,-960.75 836.06,-706.2 802.62,-554.7"/>
<polygon fill="orange" stroke="orange" points="537.79,-1244.07 528.68,-1249.48 539.17,-1250.93 537.79,-1244.07"/>
<text text-anchor="start" x="831" y="-972.5" font-family="Helvetica,sans-Serif" font-size="10.00"> &lt; tls::SocketConnection</text>
<text text-anchor="start" x="831" y="-961.5" font-family="Helvetica,sans-Serif" font-size="10.00">&lt; net::socket::ipv4::tcp</text>
<text text-anchor="middle" x="885.5" y="-950.5" font-family="Helvetica,sans-Serif" font-size="10.00">::tls::Socket &gt; &gt;</text>
</g>
<!-- Node3 -->
<g id="node3" class="node">
<title>Node3</title>
<g id="a_node3"><a xlink:href="classnet_1_1socket_1_1stream_1_1legacy_1_1_socket_client.html" target="_top" xlink:title=" ">
<polygon fill="white" stroke="black" points="33,-128.5 33,-218.5 151,-218.5 151,-128.5 33,-128.5"/>
<text text-anchor="start" x="41" y="-206.5" font-family="Helvetica,sans-Serif" font-size="10.00">net::socket::stream</text>
<text text-anchor="start" x="41" y="-195.5" font-family="Helvetica,sans-Serif" font-size="10.00">::legacy::SocketClient</text>
<text text-anchor="start" x="41" y="-184.5" font-family="Helvetica,sans-Serif" font-size="10.00">&lt; net::socket::ipv4::tcp</text>
<text text-anchor="middle" x="92" y="-173.5" font-family="Helvetica,sans-Serif" font-size="10.00">::legacy::Socket &gt;</text>
<polyline fill="none" stroke="black" points="33,-166.5 151,-166.5 "/>
<text text-anchor="middle" x="92" y="-154.5" font-family="Helvetica,sans-Serif" font-size="10.00"> </text>
<polyline fill="none" stroke="black" points="33,-147.5 151,-147.5 "/>
<text text-anchor="middle" x="92" y="-135.5" font-family="Helvetica,sans-Serif" font-size="10.00"> </text>
</a>
</g>
</g>
<!-- Node2&#45;&gt;Node3 -->
<g id="edge2" class="edge">
<title>Node2&#45;&gt;Node3</title>
<path fill="none" stroke="midnightblue" d="M72.03,-563.25C77.89,-449.2 85.88,-293.65 89.73,-218.59"/>
<polygon fill="none" stroke="midnightblue" points="68.52,-563.29 71.5,-573.46 75.51,-563.65 68.52,-563.29"/>
</g>
<!-- Node4 -->
<g id="node4" class="node">
<title>Node4</title>
<g id="a_node4"><a xlink:href="classnet_1_1socket_1_1ipv4_1_1tcp_1_1legacy_1_1_socket_client.html" target="_top" xlink:title=" ">
<polygon fill="white" stroke="black" points="28.5,-0.5 28.5,-68.5 155.5,-68.5 155.5,-0.5 28.5,-0.5"/>
<text text-anchor="start" x="36.5" y="-56.5" font-family="Helvetica,sans-Serif" font-size="10.00">net::socket::ipv4::</text>
<text text-anchor="middle" x="92" y="-45.5" font-family="Helvetica,sans-Serif" font-size="10.00">tcp::legacy::SocketClient</text>
<polyline fill="none" stroke="black" points="28.5,-38.5 155.5,-38.5 "/>
<text text-anchor="middle" x="92" y="-26.5" font-family="Helvetica,sans-Serif" font-size="10.00"> </text>
<polyline fill="none" stroke="black" points="28.5,-19.5 155.5,-19.5 "/>
<text text-anchor="middle" x="92" y="-7.5" font-family="Helvetica,sans-Serif" font-size="10.00"> </text>
</a>
</g>
</g>
<!-- Node3&#45;&gt;Node4 -->
<g id="edge3" class="edge">
<title>Node3&#45;&gt;Node4</title>
<path fill="none" stroke="midnightblue" d="M92,-118.17C92,-101.43 92,-83.51 92,-68.65"/>
<polygon fill="none" stroke="midnightblue" points="88.5,-118.4 92,-128.4 95.5,-118.4 88.5,-118.4"/>
</g>
<!-- Node6 -->
<g id="node6" class="node">
<title>Node6</title>
<g id="a_node6"><a xlink:href="classnet_1_1socket_1_1stream_1_1legacy_1_1_socket_client.html" target="_top" xlink:title=" ">
<polygon fill="white" stroke="black" points="155.5,-387.5 155.5,-466.5 268.5,-466.5 268.5,-387.5 155.5,-387.5"/>
<text text-anchor="start" x="163.5" y="-454.5" font-family="Helvetica,sans-Serif" font-size="10.00">net::socket::stream</text>
<text text-anchor="start" x="163.5" y="-443.5" font-family="Helvetica,sans-Serif" font-size="10.00">::legacy::SocketClient</text>
<text text-anchor="middle" x="212" y="-432.5" font-family="Helvetica,sans-Serif" font-size="10.00">&lt; SocketT &gt;</text>
<polyline fill="none" stroke="black" points="155.5,-425.5 268.5,-425.5 "/>
<text text-anchor="middle" x="212" y="-413.5" font-family="Helvetica,sans-Serif" font-size="10.00"> </text>
<polyline fill="none" stroke="black" points="155.5,-406.5 268.5,-406.5 "/>
<text text-anchor="middle" x="212" y="-394.5" font-family="Helvetica,sans-Serif" font-size="10.00"> </text>
</a>
</g>
</g>
<!-- Node5&#45;&gt;Node6 -->
<g id="edge5" class="edge">
<title>Node5&#45;&gt;Node6</title>
<path fill="none" stroke="midnightblue" d="M212,-837.24C212,-717.11 212,-543.34 212,-466.75"/>
<polygon fill="none" stroke="midnightblue" points="208.5,-837.24 212,-847.24 215.5,-837.24 208.5,-837.24"/>
</g>
<!-- Node6&#45;&gt;Node3 -->
<g id="edge8" class="edge">
<title>Node6&#45;&gt;Node3</title>
<path fill="none" stroke="orange" d="M179.68,-378.73C161.83,-351.12 140.25,-315.1 125,-281 116.11,-261.12 108.66,-238.15 103.1,-218.64"/>
<polygon fill="orange" stroke="orange" points="176.93,-380.93 185.33,-387.38 182.8,-377.1 176.93,-380.93"/>
<text text-anchor="start" x="125" y="-273" font-family="Helvetica,sans-Serif" font-size="10.00"> &lt; net::socket::ipv4</text>
<text text-anchor="middle" x="175" y="-262" font-family="Helvetica,sans-Serif" font-size="10.00">::tcp::legacy::Socket &gt;</text>
</g>
<!-- Node7 -->
<g id="node7" class="node">
<title>Node7</title>
<g id="a_node7"><a xlink:href="classnet_1_1socket_1_1stream_1_1legacy_1_1_socket_client.html" target="_top" xlink:title=" ">
<polygon fill="white" stroke="black" points="181,-128.5 181,-218.5 299,-218.5 299,-128.5 181,-128.5"/>
<text text-anchor="start" x="189" y="-206.5" font-family="Helvetica,sans-Serif" font-size="10.00">net::socket::stream</text>
<text text-anchor="start" x="189" y="-195.5" font-family="Helvetica,sans-Serif" font-size="10.00">::legacy::SocketClient</text>
<text text-anchor="start" x="189" y="-184.5" font-family="Helvetica,sans-Serif" font-size="10.00">&lt; net::socket::ipv6::tcp</text>
<text text-anchor="middle" x="240" y="-173.5" font-family="Helvetica,sans-Serif" font-size="10.00">::legacy::Socket &gt;</text>
<polyline fill="none" stroke="black" points="181,-166.5 299,-166.5 "/>
<text text-anchor="middle" x="240" y="-154.5" font-family="Helvetica,sans-Serif" font-size="10.00"> </text>
<polyline fill="none" stroke="black" points="181,-147.5 299,-147.5 "/>
<text text-anchor="middle" x="240" y="-135.5" font-family="Helvetica,sans-Serif" font-size="10.00"> </text>
</a>
</g>
</g>
<!-- Node6&#45;&gt;Node7 -->
<g id="edge6" class="edge">
<title>Node6&#45;&gt;Node7</title>
<path fill="none" stroke="orange" d="M217.43,-377.24C222.54,-331.34 230.13,-263.19 235.07,-218.8"/>
<polygon fill="orange" stroke="orange" points="213.94,-376.93 216.31,-387.25 220.9,-377.7 213.94,-376.93"/>
<text text-anchor="start" x="231" y="-273" font-family="Helvetica,sans-Serif" font-size="10.00"> &lt; net::socket::ipv6</text>
<text text-anchor="middle" x="281" y="-262" font-family="Helvetica,sans-Serif" font-size="10.00">::tcp::legacy::Socket &gt;</text>
</g>
<!-- Node8 -->
<g id="node8" class="node">
<title>Node8</title>
<g id="a_node8"><a xlink:href="classnet_1_1socket_1_1ipv6_1_1tcp_1_1legacy_1_1_socket_client.html" target="_top" xlink:title=" ">
<polygon fill="white" stroke="black" points="176.5,-0.5 176.5,-68.5 303.5,-68.5 303.5,-0.5 176.5,-0.5"/>
<text text-anchor="start" x="184.5" y="-56.5" font-family="Helvetica,sans-Serif" font-size="10.00">net::socket::ipv6::</text>
<text text-anchor="middle" x="240" y="-45.5" font-family="Helvetica,sans-Serif" font-size="10.00">tcp::legacy::SocketClient</text>
<polyline fill="none" stroke="black" points="176.5,-38.5 303.5,-38.5 "/>
<text text-anchor="middle" x="240" y="-26.5" font-family="Helvetica,sans-Serif" font-size="10.00"> </text>
<polyline fill="none" stroke="black" points="176.5,-19.5 303.5,-19.5 "/>
<text text-anchor="middle" x="240" y="-7.5" font-family="Helvetica,sans-Serif" font-size="10.00"> </text>
</a>
</g>
</g>
<!-- Node7&#45;&gt;Node8 -->
<g id="edge7" class="edge">
<title>Node7&#45;&gt;Node8</title>
<path fill="none" stroke="midnightblue" d="M240,-118.17C240,-101.43 240,-83.51 240,-68.65"/>
<polygon fill="none" stroke="midnightblue" points="236.5,-118.4 240,-128.4 243.5,-118.4 236.5,-118.4"/>
</g>
<!-- Node10 -->
<g id="node10" class="node">
<title>Node10</title>
<g id="a_node10"><a xlink:href="classnet_1_1socket_1_1stream_1_1tls_1_1_socket_client.html" target="_top" xlink:title=" ">
<polygon fill="white" stroke="black" points="478,-106.5 478,-240.5 582,-240.5 582,-106.5 478,-106.5"/>
<text text-anchor="start" x="486" y="-228.5" font-family="Helvetica,sans-Serif" font-size="10.00">net::socket::stream</text>
<text text-anchor="start" x="486" y="-217.5" font-family="Helvetica,sans-Serif" font-size="10.00">::tls::SocketClient</text>
<text text-anchor="start" x="486" y="-206.5" font-family="Helvetica,sans-Serif" font-size="10.00">&lt; net::socket::ipv6::</text>
<text text-anchor="middle" x="530" y="-195.5" font-family="Helvetica,sans-Serif" font-size="10.00">tcp::tls::Socket &gt;</text>
<polyline fill="none" stroke="black" points="478,-188.5 582,-188.5 "/>
<text text-anchor="start" x="486" y="-176.5" font-family="Helvetica,sans-Serif" font-size="10.00">&#45; ctx</text>
<text text-anchor="start" x="486" y="-165.5" font-family="Helvetica,sans-Serif" font-size="10.00">&#45; sslErr</text>
<text text-anchor="start" x="486" y="-154.5" font-family="Helvetica,sans-Serif" font-size="10.00">&#45; onError</text>
<polyline fill="none" stroke="black" points="478,-147.5 582,-147.5 "/>
<text text-anchor="start" x="486" y="-135.5" font-family="Helvetica,sans-Serif" font-size="10.00">+ SocketClient()</text>
<text text-anchor="start" x="486" y="-124.5" font-family="Helvetica,sans-Serif" font-size="10.00">+ ~SocketClient()</text>
<text text-anchor="start" x="486" y="-113.5" font-family="Helvetica,sans-Serif" font-size="10.00">+ connect()</text>
</a>
</g>
</g>
<!-- Node9&#45;&gt;Node10 -->
<g id="edge10" class="edge">
<title>Node9&#45;&gt;Node10</title>
<path fill="none" stroke="midnightblue" d="M521.86,-563.21C524.04,-459.42 526.93,-321.28 528.61,-240.7"/>
<polygon fill="none" stroke="midnightblue" points="518.36,-563.39 521.65,-573.46 525.36,-563.54 518.36,-563.39"/>
</g>
<!-- Node11 -->
<g id="node11" class="node">
<title>Node11</title>
<g id="a_node11"><a xlink:href="classnet_1_1socket_1_1ipv6_1_1tcp_1_1tls_1_1_socket_client.html" target="_top" xlink:title=" ">
<polygon fill="white" stroke="black" points="475.5,-0.5 475.5,-68.5 584.5,-68.5 584.5,-0.5 475.5,-0.5"/>
<text text-anchor="start" x="483.5" y="-56.5" font-family="Helvetica,sans-Serif" font-size="10.00">net::socket::ipv6::</text>
<text text-anchor="middle" x="530" y="-45.5" font-family="Helvetica,sans-Serif" font-size="10.00">tcp::tls::SocketClient</text>
<polyline fill="none" stroke="black" points="475.5,-38.5 584.5,-38.5 "/>
<text text-anchor="middle" x="530" y="-26.5" font-family="Helvetica,sans-Serif" font-size="10.00"> </text>
<polyline fill="none" stroke="black" points="475.5,-19.5 584.5,-19.5 "/>
<text text-anchor="middle" x="530" y="-7.5" font-family="Helvetica,sans-Serif" font-size="10.00"> </text>
</a>
</g>
</g>
<!-- Node10&#45;&gt;Node11 -->
<g id="edge11" class="edge">
<title>Node10&#45;&gt;Node11</title>
<path fill="none" stroke="midnightblue" d="M530,-96.26C530,-86.56 530,-77.07 530,-68.58"/>
<polygon fill="none" stroke="midnightblue" points="526.5,-96.41 530,-106.41 533.5,-96.41 526.5,-96.41"/>
</g>
<!-- Node12&#45;&gt;Node7 -->
<g id="edge13" class="edge">
<title>Node12&#45;&gt;Node7</title>
<path fill="none" stroke="midnightblue" d="M377.88,-563.32C384.25,-472.63 380.48,-353.37 335,-259 326.76,-241.9 313.33,-226.75 299.14,-214.18"/>
<polygon fill="none" stroke="midnightblue" points="374.38,-563.16 377.12,-573.4 381.36,-563.69 374.38,-563.16"/>
</g>
<!-- Node14 -->
<g id="node14" class="node">
<title>Node14</title>
<g id="a_node14"><a xlink:href="classnet_1_1socket_1_1stream_1_1tls_1_1_socket_client.html" target="_top" xlink:title=" ">
<polygon fill="white" stroke="black" points="586.5,-365.5 586.5,-488.5 687.5,-488.5 687.5,-365.5 586.5,-365.5"/>
<text text-anchor="start" x="594.5" y="-476.5" font-family="Helvetica,sans-Serif" font-size="10.00">net::socket::stream</text>
<text text-anchor="start" x="594.5" y="-465.5" font-family="Helvetica,sans-Serif" font-size="10.00">::tls::SocketClient</text>
<text text-anchor="middle" x="637" y="-454.5" font-family="Helvetica,sans-Serif" font-size="10.00">&lt; SocketT &gt;</text>
<polyline fill="none" stroke="black" points="586.5,-447.5 687.5,-447.5 "/>
<text text-anchor="start" x="594.5" y="-435.5" font-family="Helvetica,sans-Serif" font-size="10.00">&#45; ctx</text>
<text text-anchor="start" x="594.5" y="-424.5" font-family="Helvetica,sans-Serif" font-size="10.00">&#45; sslErr</text>
<text text-anchor="start" x="594.5" y="-413.5" font-family="Helvetica,sans-Serif" font-size="10.00">&#45; onError</text>
<polyline fill="none" stroke="black" points="586.5,-406.5 687.5,-406.5 "/>
<text text-anchor="start" x="594.5" y="-394.5" font-family="Helvetica,sans-Serif" font-size="10.00">+ SocketClient()</text>
<text text-anchor="start" x="594.5" y="-383.5" font-family="Helvetica,sans-Serif" font-size="10.00">+ ~SocketClient()</text>
<text text-anchor="start" x="594.5" y="-372.5" font-family="Helvetica,sans-Serif" font-size="10.00">+ connect()</text>
</a>
</g>
</g>
<!-- Node13&#45;&gt;Node14 -->
<g id="edge15" class="edge">
<title>Node13&#45;&gt;Node14</title>
<path fill="none" stroke="midnightblue" d="M640.06,-837.1C639.24,-727.39 638.08,-573.02 637.45,-488.75"/>
<polygon fill="none" stroke="midnightblue" points="636.56,-837.27 640.13,-847.24 643.56,-837.22 636.56,-837.27"/>
</g>
<!-- Node14&#45;&gt;Node10 -->
<g id="edge16" class="edge">
<title>Node14&#45;&gt;Node10</title>
<path fill="none" stroke="orange" d="M601.94,-356.01C590.59,-332.41 578.28,-305.78 568,-281 562.62,-268.04 557.28,-254.01 552.38,-240.52"/>
<polygon fill="orange" stroke="orange" points="598.89,-357.76 606.4,-365.24 605.19,-354.71 598.89,-357.76"/>
<text text-anchor="start" x="568" y="-273" font-family="Helvetica,sans-Serif" font-size="10.00"> &lt; net::socket::ipv6</text>
<text text-anchor="middle" x="610.5" y="-262" font-family="Helvetica,sans-Serif" font-size="10.00">::tcp::tls::Socket &gt;</text>
</g>
<!-- Node15 -->
<g id="node15" class="node">
<title>Node15</title>
<g id="a_node15"><a xlink:href="classnet_1_1socket_1_1stream_1_1tls_1_1_socket_client.html" target="_top" xlink:title=" ">
<polygon fill="white" stroke="black" points="665,-106.5 665,-240.5 769,-240.5 769,-106.5 665,-106.5"/>
<text text-anchor="start" x="673" y="-228.5" font-family="Helvetica,sans-Serif" font-size="10.00">net::socket::stream</text>
<text text-anchor="start" x="673" y="-217.5" font-family="Helvetica,sans-Serif" font-size="10.00">::tls::SocketClient</text>
<text text-anchor="start" x="673" y="-206.5" font-family="Helvetica,sans-Serif" font-size="10.00">&lt; net::socket::ipv4::</text>
<text text-anchor="middle" x="717" y="-195.5" font-family="Helvetica,sans-Serif" font-size="10.00">tcp::tls::Socket &gt;</text>
<polyline fill="none" stroke="black" points="665,-188.5 769,-188.5 "/>
<text text-anchor="start" x="673" y="-176.5" font-family="Helvetica,sans-Serif" font-size="10.00">&#45; ctx</text>
<text text-anchor="start" x="673" y="-165.5" font-family="Helvetica,sans-Serif" font-size="10.00">&#45; sslErr</text>
<text text-anchor="start" x="673" y="-154.5" font-family="Helvetica,sans-Serif" font-size="10.00">&#45; onError</text>
<polyline fill="none" stroke="black" points="665,-147.5 769,-147.5 "/>
<text text-anchor="start" x="673" y="-135.5" font-family="Helvetica,sans-Serif" font-size="10.00">+ SocketClient()</text>
<text text-anchor="start" x="673" y="-124.5" font-family="Helvetica,sans-Serif" font-size="10.00">+ ~SocketClient()</text>
<text text-anchor="start" x="673" y="-113.5" font-family="Helvetica,sans-Serif" font-size="10.00">+ connect()</text>
</a>
</g>
</g>
<!-- Node14&#45;&gt;Node15 -->
<g id="edge17" class="edge">
<title>Node14&#45;&gt;Node15</title>
<path fill="none" stroke="orange" d="M642.75,-355.33C646.76,-324.98 653.54,-289.54 665,-259 667.3,-252.87 670.06,-246.7 673.1,-240.63"/>
<polygon fill="orange" stroke="orange" points="639.25,-355.06 641.49,-365.42 646.2,-355.93 639.25,-355.06"/>
<text text-anchor="start" x="665" y="-273" font-family="Helvetica,sans-Serif" font-size="10.00"> &lt; net::socket::ipv4</text>
<text text-anchor="middle" x="707.5" y="-262" font-family="Helvetica,sans-Serif" font-size="10.00">::tcp::tls::Socket &gt;</text>
</g>
<!-- Node16 -->
<g id="node16" class="node">
<title>Node16</title>
<g id="a_node16"><a xlink:href="classnet_1_1socket_1_1ipv4_1_1tcp_1_1tls_1_1_socket_client.html" target="_top" xlink:title=" ">
<polygon fill="white" stroke="black" points="662.5,-0.5 662.5,-68.5 771.5,-68.5 771.5,-0.5 662.5,-0.5"/>
<text text-anchor="start" x="670.5" y="-56.5" font-family="Helvetica,sans-Serif" font-size="10.00">net::socket::ipv4::</text>
<text text-anchor="middle" x="717" y="-45.5" font-family="Helvetica,sans-Serif" font-size="10.00">tcp::tls::SocketClient</text>
<polyline fill="none" stroke="black" points="662.5,-38.5 771.5,-38.5 "/>
<text text-anchor="middle" x="717" y="-26.5" font-family="Helvetica,sans-Serif" font-size="10.00"> </text>
<polyline fill="none" stroke="black" points="662.5,-19.5 771.5,-19.5 "/>
<text text-anchor="middle" x="717" y="-7.5" font-family="Helvetica,sans-Serif" font-size="10.00"> </text>
</a>
</g>
</g>
<!-- Node15&#45;&gt;Node16 -->
<g id="edge18" class="edge">
<title>Node15&#45;&gt;Node16</title>
<path fill="none" stroke="midnightblue" d="M717,-96.26C717,-86.56 717,-77.07 717,-68.58"/>
<polygon fill="none" stroke="midnightblue" points="713.5,-96.41 717,-106.41 720.5,-96.41 713.5,-96.41"/>
</g>
<!-- Node17&#45;&gt;Node15 -->
<g id="edge20" class="edge">
<title>Node17&#45;&gt;Node15</title>
<path fill="none" stroke="midnightblue" d="M760.29,-289.46C758.56,-279.08 756.49,-268.83 754,-259 752.47,-252.95 750.54,-246.77 748.38,-240.66"/>
<polygon fill="none" stroke="midnightblue" points="756.84,-290.08 761.83,-299.43 763.76,-289.01 756.84,-290.08"/>
</g>
</g>
</svg>
