<?xml version="1.0" encoding="UTF-8" standalone="no"?>
<!DOCTYPE svg PUBLIC "-//W3C//DTD SVG 1.1//EN"
 "http://www.w3.org/Graphics/SVG/1.1/DTD/svg11.dtd">
<!-- Generated by graphviz version 2.43.0 (0)
 -->
<!-- Title: web::http::server::SocketContextUpgradeFactorySelector::select Pages: 1 -->
<svg width="766pt" height="308pt"
 viewBox="0.00 0.00 766.00 307.50" xmlns="http://www.w3.org/2000/svg" xmlns:xlink="http://www.w3.org/1999/xlink">
<g id="graph0" class="graph" transform="scale(1 1) rotate(0) translate(4 303.5)">
<title>web::http::server::SocketContextUpgradeFactorySelector::select</title>
<polygon fill="white" stroke="transparent" points="-4,4 -4,-303.5 762,-303.5 762,4 -4,4"/>
<!-- Node1 -->
<g id="node1" class="node">
<title>Node1</title>
<g id="a_node1"><a xlink:title=" ">
<polygon fill="#bfbfbf" stroke="black" points="0,-128.5 0,-169.5 152,-169.5 152,-128.5 0,-128.5"/>
<text text-anchor="start" x="8" y="-157.5" font-family="Helvetica,sans-Serif" font-size="10.00">web::http::server::</text>
<text text-anchor="start" x="8" y="-146.5" font-family="Helvetica,sans-Serif" font-size="10.00">SocketContextUpgradeFactory</text>
<text text-anchor="middle" x="76" y="-135.5" font-family="Helvetica,sans-Serif" font-size="10.00">Selector::select</text>
</a>
</g>
</g>
<!-- Node2 -->
<g id="node2" class="node">
<title>Node2</title>
<g id="a_node2"><a xlink:href="classweb_1_1http_1_1server_1_1_request.html#ad39cdf1338eb6a4d187d5bb7fe416c09" target="_top" xlink:title=" ">
<polygon fill="white" stroke="black" points="216,-269 216,-299 312,-299 312,-269 216,-269"/>
<text text-anchor="start" x="224" y="-287" font-family="Helvetica,sans-Serif" font-size="10.00">web::http::server::</text>
<text text-anchor="middle" x="264" y="-276" font-family="Helvetica,sans-Serif" font-size="10.00">Request::header</text>
</a>
</g>
</g>
<!-- Node1&#45;&gt;Node2 -->
<g id="edge1" class="edge">
<title>Node1&#45;&gt;Node2</title>
<path fill="none" stroke="midnightblue" d="M95.87,-169.66C116.79,-191.67 152.3,-226.51 188,-250 196.15,-255.37 205.3,-260.29 214.32,-264.62"/>
<polygon fill="midnightblue" stroke="midnightblue" points="213.08,-267.91 223.62,-268.92 216.01,-261.55 213.08,-267.91"/>
</g>
<!-- Node3 -->
<g id="node3" class="node">
<title>Node3</title>
<g id="a_node3"><a xlink:href="namespacehttputils.html#a4dd60a8e2472042c70e00dec22ebf927" target="_top" xlink:title=" ">
<polygon fill="white" stroke="black" points="405,-276.5 405,-295.5 499,-295.5 499,-276.5 405,-276.5"/>
<text text-anchor="middle" x="452" y="-283.5" font-family="Helvetica,sans-Serif" font-size="10.00">httputils::to_lower</text>
</a>
</g>
</g>
<!-- Node1&#45;&gt;Node3 -->
<g id="edge12" class="edge">
<title>Node1&#45;&gt;Node3</title>
<path fill="none" stroke="midnightblue" d="M111.13,-169.72C132.66,-182.21 161.34,-197.81 188,-209 268.63,-242.84 291.81,-243.37 376,-267 384.27,-269.32 393.09,-271.67 401.67,-273.89"/>
<polygon fill="midnightblue" stroke="midnightblue" points="401.03,-277.33 411.59,-276.42 402.76,-270.55 401.03,-277.33"/>
</g>
<!-- Node4 -->
<g id="node4" class="node">
<title>Node4</title>
<g id="a_node4"><a xlink:href="classweb_1_1http_1_1server_1_1_socket_context_upgrade_factory_selector.html#a1b7a066cbe1eaf672858c17bcf99ca23" target="_top" xlink:title=" ">
<polygon fill="white" stroke="black" points="188,-158.5 188,-199.5 340,-199.5 340,-158.5 188,-158.5"/>
<text text-anchor="start" x="196" y="-187.5" font-family="Helvetica,sans-Serif" font-size="10.00">web::http::server::</text>
<text text-anchor="start" x="196" y="-176.5" font-family="Helvetica,sans-Serif" font-size="10.00">SocketContextUpgradeFactory</text>
<text text-anchor="middle" x="264" y="-165.5" font-family="Helvetica,sans-Serif" font-size="10.00">Selector::load</text>
</a>
</g>
</g>
<!-- Node1&#45;&gt;Node4 -->
<g id="edge3" class="edge">
<title>Node1&#45;&gt;Node4</title>
<path fill="none" stroke="midnightblue" d="M152.12,-161.12C160.6,-162.48 169.28,-163.88 177.87,-165.27"/>
<polygon fill="midnightblue" stroke="midnightblue" points="177.48,-168.75 187.9,-166.89 178.59,-161.84 177.48,-168.75"/>
</g>
<!-- Node10 -->
<g id="node10" class="node">
<title>Node10</title>
<g id="a_node10"><a xlink:href="classweb_1_1http_1_1server_1_1_socket_context_upgrade_factory.html#afde9a0bb20024cf658df11ccadad16fb" target="_top" xlink:title=" ">
<polygon fill="white" stroke="black" points="188,-98.5 188,-139.5 340,-139.5 340,-98.5 188,-98.5"/>
<text text-anchor="start" x="196" y="-127.5" font-family="Helvetica,sans-Serif" font-size="10.00">web::http::server::</text>
<text text-anchor="start" x="196" y="-116.5" font-family="Helvetica,sans-Serif" font-size="10.00">SocketContextUpgradeFactory</text>
<text text-anchor="middle" x="264" y="-105.5" font-family="Helvetica,sans-Serif" font-size="10.00">::prepare</text>
</a>
</g>
</g>
<!-- Node1&#45;&gt;Node10 -->
<g id="edge9" class="edge">
<title>Node1&#45;&gt;Node10</title>
<path fill="none" stroke="midnightblue" d="M152.12,-136.88C160.6,-135.52 169.28,-134.12 177.87,-132.73"/>
<polygon fill="midnightblue" stroke="midnightblue" points="178.59,-136.16 187.9,-131.11 177.48,-129.25 178.59,-136.16"/>
</g>
<!-- Node11 -->
<g id="node11" class="node">
<title>Node11</title>
<g id="a_node11"><a xlink:href="classweb_1_1http_1_1server_1_1_socket_context_upgrade_factory_selector.html#a39c45f7023204ec9e062e70c9f3bb97e" target="_top" xlink:title=" ">
<polygon fill="white" stroke="black" points="188,-38.5 188,-79.5 340,-79.5 340,-38.5 188,-38.5"/>
<text text-anchor="start" x="196" y="-67.5" font-family="Helvetica,sans-Serif" font-size="10.00">web::http::server::</text>
<text text-anchor="start" x="196" y="-56.5" font-family="Helvetica,sans-Serif" font-size="10.00">SocketContextUpgradeFactory</text>
<text text-anchor="middle" x="264" y="-45.5" font-family="Helvetica,sans-Serif" font-size="10.00">Selector::select</text>
</a>
</g>
</g>
<!-- Node1&#45;&gt;Node11 -->
<g id="edge10" class="edge">
<title>Node1&#45;&gt;Node11</title>
<path fill="none" stroke="midnightblue" d="M112.46,-128.48C133.99,-116.36 162.21,-101.08 188,-89 191.86,-87.19 195.86,-85.39 199.91,-83.62"/>
<polygon fill="midnightblue" stroke="midnightblue" points="201.59,-86.71 209.41,-79.56 198.84,-80.27 201.59,-86.71"/>
</g>
<!-- Node12 -->
<g id="node12" class="node">
<title>Node12</title>
<g id="a_node12"><a xlink:href="namespacehttputils.html#a9e46abe5c20380871f3884c9176a424d" target="_top" xlink:title=" ">
<polygon fill="white" stroke="black" points="218,-0.5 218,-19.5 310,-19.5 310,-0.5 218,-0.5"/>
<text text-anchor="middle" x="264" y="-7.5" font-family="Helvetica,sans-Serif" font-size="10.00">httputils::str_split</text>
</a>
</g>
</g>
<!-- Node1&#45;&gt;Node12 -->
<g id="edge11" class="edge">
<title>Node1&#45;&gt;Node12</title>
<path fill="none" stroke="midnightblue" d="M90.48,-128.18C109.11,-101.13 145.31,-54.37 188,-29 194.19,-25.32 201.08,-22.35 208.1,-19.95"/>
<polygon fill="midnightblue" stroke="midnightblue" points="209.16,-23.28 217.71,-17.02 207.12,-16.59 209.16,-23.28"/>
</g>
<!-- Node2&#45;&gt;Node3 -->
<g id="edge2" class="edge">
<title>Node2&#45;&gt;Node3</title>
<path fill="none" stroke="midnightblue" d="M312.42,-284.51C337.5,-284.78 368.46,-285.11 394.76,-285.4"/>
<polygon fill="midnightblue" stroke="midnightblue" points="394.92,-288.9 404.96,-285.5 394.99,-281.9 394.92,-288.9"/>
</g>
<!-- Node5 -->
<g id="node5" class="node">
<title>Node5</title>
<g id="a_node5"><a xlink:href="classweb_1_1http_1_1server_1_1_socket_context_upgrade_factory_selector.html#a9baf2c0b243abc9ac671dcac15d6e30f" target="_top" xlink:title=" ">
<polygon fill="white" stroke="black" points="376,-216.5 376,-257.5 528,-257.5 528,-216.5 376,-216.5"/>
<text text-anchor="start" x="384" y="-245.5" font-family="Helvetica,sans-Serif" font-size="10.00">web::http::server::</text>
<text text-anchor="start" x="384" y="-234.5" font-family="Helvetica,sans-Serif" font-size="10.00">SocketContextUpgradeFactory</text>
<text text-anchor="middle" x="452" y="-223.5" font-family="Helvetica,sans-Serif" font-size="10.00">Selector::add</text>
</a>
</g>
</g>
<!-- Node4&#45;&gt;Node5 -->
<g id="edge4" class="edge">
<title>Node4&#45;&gt;Node5</title>
<path fill="none" stroke="midnightblue" d="M330.84,-199.53C345.33,-204.05 360.78,-208.87 375.61,-213.49"/>
<polygon fill="midnightblue" stroke="midnightblue" points="374.66,-216.86 385.25,-216.5 376.75,-210.18 374.66,-216.86"/>
</g>
<!-- Node6 -->
<g id="node6" class="node">
<title>Node6</title>
<g id="a_node6"><a xlink:href="classweb_1_1http_1_1server_1_1_socket_context_upgrade_factory.html#a909682b2a96030f5896c28e13e3abee6" target="_top" xlink:title=" ">
<polygon fill="white" stroke="black" points="376,-156.5 376,-197.5 528,-197.5 528,-156.5 376,-156.5"/>
<text text-anchor="start" x="384" y="-185.5" font-family="Helvetica,sans-Serif" font-size="10.00">web::http::server::</text>
<text text-anchor="start" x="384" y="-174.5" font-family="Helvetica,sans-Serif" font-size="10.00">SocketContextUpgradeFactory</text>
<text text-anchor="middle" x="452" y="-163.5" font-family="Helvetica,sans-Serif" font-size="10.00">::destroy</text>
</a>
</g>
</g>
<!-- Node4&#45;&gt;Node6 -->
<g id="edge5" class="edge">
<title>Node4&#45;&gt;Node6</title>
<path fill="none" stroke="midnightblue" d="M340.12,-178.19C348.6,-178.1 357.28,-178.01 365.87,-177.92"/>
<polygon fill="midnightblue" stroke="midnightblue" points="365.94,-181.41 375.9,-177.81 365.87,-174.42 365.94,-181.41"/>
</g>
<!-- Node7 -->
<g id="node7" class="node">
<title>Node7</title>
<g id="a_node7"><a xlink:href="classweb_1_1http_1_1server_1_1_socket_context_upgrade_factory_selector.html#a568eb6d1145d9494f8b903609a59f0f0" target="_top" xlink:title=" ">
<polygon fill="white" stroke="black" points="376,-96.5 376,-137.5 528,-137.5 528,-96.5 376,-96.5"/>
<text text-anchor="start" x="384" y="-125.5" font-family="Helvetica,sans-Serif" font-size="10.00">web::http::server::</text>
<text text-anchor="start" x="384" y="-114.5" font-family="Helvetica,sans-Serif" font-size="10.00">SocketContextUpgradeFactory</text>
<text text-anchor="middle" x="452" y="-103.5" font-family="Helvetica,sans-Serif" font-size="10.00">Selector::instance</text>
</a>
</g>
</g>
<!-- Node4&#45;&gt;Node7 -->
<g id="edge6" class="edge">
<title>Node4&#45;&gt;Node7</title>
<path fill="none" stroke="midnightblue" d="M326.68,-158.44C343.72,-152.76 362.35,-146.55 379.88,-140.71"/>
<polygon fill="midnightblue" stroke="midnightblue" points="381.11,-143.99 389.49,-137.5 378.9,-137.35 381.11,-143.99"/>
</g>
<!-- Node9 -->
<g id="node9" class="node">
<title>Node9</title>
<g id="a_node9"><a xlink:href="namespaceweb_1_1ws_1_1client.html#acf9c1bea6c3387911620c206351c2e70" target="_top" xlink:title=" ">
<polygon fill="white" stroke="black" points="395,-58.5 395,-77.5 509,-77.5 509,-58.5 395,-58.5"/>
<text text-anchor="middle" x="452" y="-65.5" font-family="Helvetica,sans-Serif" font-size="10.00">web::ws::client::plugin</text>
</a>
</g>
</g>
<!-- Node4&#45;&gt;Node9 -->
<g id="edge8" class="edge">
<title>Node4&#45;&gt;Node9</title>
<path fill="none" stroke="midnightblue" d="M326.76,-158.37C331.48,-155.6 335.97,-152.48 340,-149 364.11,-128.17 350.56,-106.19 376,-87 378.96,-84.76 382.16,-82.79 385.5,-81.05"/>
<polygon fill="midnightblue" stroke="midnightblue" points="386.95,-84.23 394.65,-76.95 384.09,-77.85 386.95,-84.23"/>
</g>
<!-- Node8 -->
<g id="node8" class="node">
<title>Node8</title>
<g id="a_node8"><a xlink:href="classweb_1_1http_1_1server_1_1_socket_context_upgrade_factory_selector.html#aca89c6f2c856716b294532968d0ae9bf" target="_top" xlink:title=" ">
<polygon fill="white" stroke="black" points="564,-91 564,-143 758,-143 758,-91 564,-91"/>
<text text-anchor="start" x="572" y="-131" font-family="Helvetica,sans-Serif" font-size="10.00">web::http::server::</text>
<text text-anchor="start" x="572" y="-120" font-family="Helvetica,sans-Serif" font-size="10.00">SocketContextUpgradeFactory</text>
<text text-anchor="start" x="572" y="-109" font-family="Helvetica,sans-Serif" font-size="10.00">Selector::SocketContextUpgradeFactory</text>
<text text-anchor="middle" x="661" y="-98" font-family="Helvetica,sans-Serif" font-size="10.00">Selector</text>
</a>
</g>
</g>
<!-- Node7&#45;&gt;Node8 -->
<g id="edge7" class="edge">
<title>Node7&#45;&gt;Node8</title>
<path fill="none" stroke="midnightblue" d="M528.02,-117C536.42,-117 545.09,-117 553.79,-117"/>
<polygon fill="midnightblue" stroke="midnightblue" points="554,-120.5 564,-117 554,-113.5 554,-120.5"/>
</g>
</g>
</svg>
