<?xml version="1.0" encoding="UTF-8" standalone="no"?>
<!DOCTYPE svg PUBLIC "-//W3C//DTD SVG 1.1//EN"
 "http://www.w3.org/Graphics/SVG/1.1/DTD/svg11.dtd">
<!-- Generated by graphviz version 2.43.0 (0)
 -->
<!-- Title: net::socket::stream::tls::SocketClient&lt; SocketT &gt; Pages: 1 -->
<svg width="417pt" height="691pt"
 viewBox="0.00 0.00 416.50 691.00" xmlns="http://www.w3.org/2000/svg" xmlns:xlink="http://www.w3.org/1999/xlink">
<g id="graph0" class="graph" transform="scale(1 1) rotate(0) translate(4 687)">
<title>net::socket::stream::tls::SocketClient&lt; SocketT &gt;</title>
<polygon fill="white" stroke="transparent" points="-4,4 -4,-687 412.5,-687 412.5,4 -4,4"/>
<!-- Node1 -->
<g id="node1" class="node">
<title>Node1</title>
<g id="a_node1"><a xlink:title=" ">
<polygon fill="#bfbfbf" stroke="black" points="161.5,-117.5 161.5,-196.5 262.5,-196.5 262.5,-117.5 161.5,-117.5"/>
<text text-anchor="start" x="169.5" y="-184.5" font-family="Helvetica,sans-Serif" font-size="10.00">net::socket::stream</text>
<text text-anchor="start" x="169.5" y="-173.5" font-family="Helvetica,sans-Serif" font-size="10.00">::tls::SocketClient</text>
<text text-anchor="middle" x="212" y="-162.5" font-family="Helvetica,sans-Serif" font-size="10.00">&lt; SocketT &gt;</text>
<polyline fill="none" stroke="black" points="161.5,-155.5 262.5,-155.5 "/>
<text text-anchor="middle" x="212" y="-143.5" font-family="Helvetica,sans-Serif" font-size="10.00"> </text>
<polyline fill="none" stroke="black" points="161.5,-136.5 262.5,-136.5 "/>
<text text-anchor="middle" x="212" y="-124.5" font-family="Helvetica,sans-Serif" font-size="10.00"> </text>
</a>
</g>
</g>
<!-- Node4 -->
<g id="node4" class="node">
<title>Node4</title>
<g id="a_node4"><a xlink:href="classnet_1_1socket_1_1bluetooth_1_1rfcomm_1_1tls_1_1_socket_client.html" target="_top" xlink:title=" ">
<polygon fill="white" stroke="black" points="0,-0.5 0,-79.5 134,-79.5 134,-0.5 0,-0.5"/>
<text text-anchor="start" x="8" y="-67.5" font-family="Helvetica,sans-Serif" font-size="10.00">net::socket::bluetooth</text>
<text text-anchor="start" x="8" y="-56.5" font-family="Helvetica,sans-Serif" font-size="10.00">::rfcomm::tls::SocketClient</text>
<text text-anchor="middle" x="67" y="-45.5" font-family="Helvetica,sans-Serif" font-size="10.00">&lt; rfcomm::Socket &gt;</text>
<polyline fill="none" stroke="black" points="0,-38.5 134,-38.5 "/>
<text text-anchor="middle" x="67" y="-26.5" font-family="Helvetica,sans-Serif" font-size="10.00"> </text>
<polyline fill="none" stroke="black" points="0,-19.5 134,-19.5 "/>
<text text-anchor="middle" x="67" y="-7.5" font-family="Helvetica,sans-Serif" font-size="10.00"> </text>
</a>
</g>
</g>
<!-- Node1&#45;&gt;Node4 -->
<g id="edge3" class="edge">
<title>Node1&#45;&gt;Node4</title>
<path fill="none" stroke="midnightblue" d="M155.3,-111.03C142.25,-100.68 128.48,-89.76 115.8,-79.71"/>
<polygon fill="none" stroke="midnightblue" points="153.3,-113.92 163.31,-117.39 157.65,-108.43 153.3,-113.92"/>
</g>
<!-- Node5 -->
<g id="node5" class="node">
<title>Node5</title>
<g id="a_node5"><a xlink:href="classnet_1_1socket_1_1ip_1_1tcp_1_1ipv4_1_1tls_1_1_socket_client.html" target="_top" xlink:title=" ">
<polygon fill="white" stroke="black" points="152.5,-0.5 152.5,-79.5 271.5,-79.5 271.5,-0.5 152.5,-0.5"/>
<text text-anchor="start" x="160.5" y="-67.5" font-family="Helvetica,sans-Serif" font-size="10.00">net::socket::ip::tcp</text>
<text text-anchor="start" x="160.5" y="-56.5" font-family="Helvetica,sans-Serif" font-size="10.00">::ipv4::tls::SocketClient</text>
<text text-anchor="middle" x="212" y="-45.5" font-family="Helvetica,sans-Serif" font-size="10.00">&lt; ipv4::Socket &gt;</text>
<polyline fill="none" stroke="black" points="152.5,-38.5 271.5,-38.5 "/>
<text text-anchor="middle" x="212" y="-26.5" font-family="Helvetica,sans-Serif" font-size="10.00"> </text>
<polyline fill="none" stroke="black" points="152.5,-19.5 271.5,-19.5 "/>
<text text-anchor="middle" x="212" y="-7.5" font-family="Helvetica,sans-Serif" font-size="10.00"> </text>
</a>
</g>
</g>
<!-- Node1&#45;&gt;Node5 -->
<g id="edge4" class="edge">
<title>Node1&#45;&gt;Node5</title>
<path fill="none" stroke="midnightblue" d="M212,-107.2C212,-98.02 212,-88.53 212,-79.71"/>
<polygon fill="none" stroke="midnightblue" points="208.5,-107.39 212,-117.39 215.5,-107.39 208.5,-107.39"/>
</g>
<!-- Node6 -->
<g id="node6" class="node">
<title>Node6</title>
<g id="a_node6"><a xlink:href="classnet_1_1socket_1_1ip_1_1tcp_1_1ipv6_1_1tls_1_1_socket_client.html" target="_top" xlink:title=" ">
<polygon fill="white" stroke="black" points="289.5,-0.5 289.5,-79.5 408.5,-79.5 408.5,-0.5 289.5,-0.5"/>
<text text-anchor="start" x="297.5" y="-67.5" font-family="Helvetica,sans-Serif" font-size="10.00">net::socket::ip::tcp</text>
<text text-anchor="start" x="297.5" y="-56.5" font-family="Helvetica,sans-Serif" font-size="10.00">::ipv6::tls::SocketClient</text>
<text text-anchor="middle" x="349" y="-45.5" font-family="Helvetica,sans-Serif" font-size="10.00">&lt; ipv6::Socket &gt;</text>
<polyline fill="none" stroke="black" points="289.5,-38.5 408.5,-38.5 "/>
<text text-anchor="middle" x="349" y="-26.5" font-family="Helvetica,sans-Serif" font-size="10.00"> </text>
<polyline fill="none" stroke="black" points="289.5,-19.5 408.5,-19.5 "/>
<text text-anchor="middle" x="349" y="-7.5" font-family="Helvetica,sans-Serif" font-size="10.00"> </text>
</a>
</g>
</g>
<!-- Node1&#45;&gt;Node6 -->
<g id="edge5" class="edge">
<title>Node1&#45;&gt;Node6</title>
<path fill="none" stroke="midnightblue" d="M265.92,-110.74C278.15,-100.48 291.02,-89.67 302.89,-79.71"/>
<polygon fill="none" stroke="midnightblue" points="263.41,-108.28 258,-117.39 267.91,-113.64 263.41,-108.28"/>
</g>
<!-- Node2 -->
<g id="node2" class="node">
<title>Node2</title>
<g id="a_node2"><a xlink:href="classnet_1_1socket_1_1stream_1_1_socket_client.html" target="_top" xlink:title=" ">
<polygon fill="white" stroke="black" points="131,-234.5 131,-434.5 293,-434.5 293,-234.5 131,-234.5"/>
<text text-anchor="start" x="139" y="-422.5" font-family="Helvetica,sans-Serif" font-size="10.00">net::socket::stream</text>
<text text-anchor="start" x="139" y="-411.5" font-family="Helvetica,sans-Serif" font-size="10.00">::SocketClient&lt; tls</text>
<text text-anchor="middle" x="212" y="-400.5" font-family="Helvetica,sans-Serif" font-size="10.00">::SocketConnector&lt; SocketT &gt; &gt;</text>
<polyline fill="none" stroke="black" points="131,-393.5 293,-393.5 "/>
<text text-anchor="start" x="139" y="-381.5" font-family="Helvetica,sans-Serif" font-size="10.00">&#45; onConstruct</text>
<text text-anchor="start" x="139" y="-370.5" font-family="Helvetica,sans-Serif" font-size="10.00">&#45; onDestruct</text>
<text text-anchor="start" x="139" y="-359.5" font-family="Helvetica,sans-Serif" font-size="10.00">&#45; onConnect</text>
<text text-anchor="start" x="139" y="-348.5" font-family="Helvetica,sans-Serif" font-size="10.00">&#45; onDisconnect</text>
<text text-anchor="start" x="139" y="-337.5" font-family="Helvetica,sans-Serif" font-size="10.00">&#45; onRead</text>
<text text-anchor="start" x="139" y="-326.5" font-family="Helvetica,sans-Serif" font-size="10.00">&#45; onReadError</text>
<text text-anchor="start" x="139" y="-315.5" font-family="Helvetica,sans-Serif" font-size="10.00">&#45; onWriteError</text>
<text text-anchor="start" x="139" y="-304.5" font-family="Helvetica,sans-Serif" font-size="10.00">&#45; options</text>
<polyline fill="none" stroke="black" points="131,-297.5 293,-297.5 "/>
<text text-anchor="start" x="139" y="-285.5" font-family="Helvetica,sans-Serif" font-size="10.00">+ SocketClient()</text>
<text text-anchor="start" x="139" y="-274.5" font-family="Helvetica,sans-Serif" font-size="10.00">+ SocketClient()</text>
<text text-anchor="start" x="139" y="-263.5" font-family="Helvetica,sans-Serif" font-size="10.00">+ ~SocketClient()</text>
<text text-anchor="start" x="139" y="-252.5" font-family="Helvetica,sans-Serif" font-size="10.00">+ connect()</text>
<text text-anchor="start" x="139" y="-241.5" font-family="Helvetica,sans-Serif" font-size="10.00">+ connect()</text>
</a>
</g>
</g>
<!-- Node2&#45;&gt;Node1 -->
<g id="edge1" class="edge">
<title>Node2&#45;&gt;Node1</title>
<path fill="none" stroke="midnightblue" d="M212,-224.22C212,-214.49 212,-205.14 212,-196.68"/>
<polygon fill="none" stroke="midnightblue" points="208.5,-224.47 212,-234.47 215.5,-224.47 208.5,-224.47"/>
</g>
<!-- Node3 -->
<g id="node3" class="node">
<title>Node3</title>
<g id="a_node3"><a xlink:href="classnet_1_1socket_1_1stream_1_1_socket_client.html" target="_top" xlink:title=" ">
<polygon fill="white" stroke="black" points="122.5,-493.5 122.5,-682.5 301.5,-682.5 301.5,-493.5 122.5,-493.5"/>
<text text-anchor="start" x="130.5" y="-670.5" font-family="Helvetica,sans-Serif" font-size="10.00">net::socket::stream</text>
<text text-anchor="middle" x="212" y="-659.5" font-family="Helvetica,sans-Serif" font-size="10.00">::SocketClient&lt; SocketConnectorT &gt;</text>
<polyline fill="none" stroke="black" points="122.5,-652.5 301.5,-652.5 "/>
<text text-anchor="start" x="130.5" y="-640.5" font-family="Helvetica,sans-Serif" font-size="10.00">&#45; onConstruct</text>
<text text-anchor="start" x="130.5" y="-629.5" font-family="Helvetica,sans-Serif" font-size="10.00">&#45; onDestruct</text>
<text text-anchor="start" x="130.5" y="-618.5" font-family="Helvetica,sans-Serif" font-size="10.00">&#45; onConnect</text>
<text text-anchor="start" x="130.5" y="-607.5" font-family="Helvetica,sans-Serif" font-size="10.00">&#45; onDisconnect</text>
<text text-anchor="start" x="130.5" y="-596.5" font-family="Helvetica,sans-Serif" font-size="10.00">&#45; onRead</text>
<text text-anchor="start" x="130.5" y="-585.5" font-family="Helvetica,sans-Serif" font-size="10.00">&#45; onReadError</text>
<text text-anchor="start" x="130.5" y="-574.5" font-family="Helvetica,sans-Serif" font-size="10.00">&#45; onWriteError</text>
<text text-anchor="start" x="130.5" y="-563.5" font-family="Helvetica,sans-Serif" font-size="10.00">&#45; options</text>
<polyline fill="none" stroke="black" points="122.5,-556.5 301.5,-556.5 "/>
<text text-anchor="start" x="130.5" y="-544.5" font-family="Helvetica,sans-Serif" font-size="10.00">+ SocketClient()</text>
<text text-anchor="start" x="130.5" y="-533.5" font-family="Helvetica,sans-Serif" font-size="10.00">+ SocketClient()</text>
<text text-anchor="start" x="130.5" y="-522.5" font-family="Helvetica,sans-Serif" font-size="10.00">+ ~SocketClient()</text>
<text text-anchor="start" x="130.5" y="-511.5" font-family="Helvetica,sans-Serif" font-size="10.00">+ connect()</text>
<text text-anchor="start" x="130.5" y="-500.5" font-family="Helvetica,sans-Serif" font-size="10.00">+ connect()</text>
</a>
</g>
</g>
<!-- Node3&#45;&gt;Node2 -->
<g id="edge2" class="edge">
<title>Node3&#45;&gt;Node2</title>
<path fill="none" stroke="orange" d="M212,-482.95C212,-466.99 212,-450.55 212,-434.7"/>
<polygon fill="orange" stroke="orange" points="208.5,-483.35 212,-493.35 215.5,-483.35 208.5,-483.35"/>
<text text-anchor="start" x="212" y="-467" font-family="Helvetica,sans-Serif" font-size="10.00"> &lt; tls::SocketConnector</text>
<text text-anchor="middle" x="264.5" y="-456" font-family="Helvetica,sans-Serif" font-size="10.00">&lt; SocketT &gt; &gt;</text>
</g>
</g>
</svg>
