<?xml version="1.0" encoding="UTF-8" standalone="no"?>
<!DOCTYPE svg PUBLIC "-//W3C//DTD SVG 1.1//EN"
 "http://www.w3.org/Graphics/SVG/1.1/DTD/svg11.dtd">
<!-- Generated by graphviz version 2.43.0 (0)
 -->
<!-- Title: net::EventLoop::free Pages: 1 -->
<svg width="927pt" height="339pt"
 viewBox="0.00 0.00 927.00 338.50" xmlns="http://www.w3.org/2000/svg" xmlns:xlink="http://www.w3.org/1999/xlink">
<g id="graph0" class="graph" transform="scale(1 1) rotate(0) translate(4 334.5)">
<title>net::EventLoop::free</title>
<polygon fill="white" stroke="transparent" points="-4,4 -4,-334.5 923,-334.5 923,4 -4,4"/>
<!-- Node1 -->
<g id="node1" class="node">
<title>Node1</title>
<g id="a_node1"><a xlink:title=" ">
<polygon fill="#bfbfbf" stroke="black" points="0,-141.5 0,-160.5 105,-160.5 105,-141.5 0,-141.5"/>
<text text-anchor="middle" x="52.5" y="-148.5" font-family="Helvetica,sans-Serif" font-size="10.00">net::EventLoop::free</text>
</a>
</g>
</g>
<!-- Node2 -->
<g id="node2" class="node">
<title>Node2</title>
<g id="a_node2"><a xlink:href="classnet_1_1_event_loop.html#ae469a183b35db70dbcf7ef4a7baa3aa5" target="_top" xlink:title=" ">
<polygon fill="white" stroke="black" points="141,-141.5 141,-160.5 251,-160.5 251,-141.5 141,-141.5"/>
<text text-anchor="middle" x="196" y="-148.5" font-family="Helvetica,sans-Serif" font-size="10.00">net::EventLoop::_free</text>
</a>
</g>
</g>
<!-- Node1&#45;&gt;Node2 -->
<g id="edge1" class="edge">
<title>Node1&#45;&gt;Node2</title>
<path fill="none" stroke="midnightblue" d="M105.39,-151C113.57,-151 122.12,-151 130.55,-151"/>
<polygon fill="midnightblue" stroke="midnightblue" points="130.74,-154.5 140.74,-151 130.74,-147.5 130.74,-154.5"/>
</g>
<!-- Node3 -->
<g id="node3" class="node">
<title>Node3</title>
<g id="a_node3"><a xlink:href="classnet_1_1_timer_event_dispatcher.html#ab057c0a06962fe33146a1f8df9ac98b3" target="_top" xlink:title=" ">
<polygon fill="white" stroke="black" points="297,-259 297,-289 431,-289 431,-259 297,-259"/>
<text text-anchor="start" x="305" y="-277" font-family="Helvetica,sans-Serif" font-size="10.00">net::TimerEventDispatcher</text>
<text text-anchor="middle" x="364" y="-266" font-family="Helvetica,sans-Serif" font-size="10.00">::cancelAll</text>
</a>
</g>
</g>
<!-- Node2&#45;&gt;Node3 -->
<g id="edge2" class="edge">
<title>Node2&#45;&gt;Node3</title>
<path fill="none" stroke="midnightblue" d="M203.2,-160.72C216.27,-180.46 248.66,-225.45 287,-250 289.6,-251.66 292.32,-253.22 295.12,-254.67"/>
<polygon fill="midnightblue" stroke="midnightblue" points="293.76,-257.9 304.3,-258.97 296.73,-251.56 293.76,-257.9"/>
</g>
<!-- Node8 -->
<g id="node8" class="node">
<title>Node8</title>
<g id="a_node8"><a xlink:href="classnet_1_1_descriptor_event_dispatcher.html#ac866144836a3587b9d0d888f429de326" target="_top" xlink:title=" ">
<polygon fill="white" stroke="black" points="287,-210 287,-240 441,-240 441,-210 287,-210"/>
<text text-anchor="start" x="295" y="-228" font-family="Helvetica,sans-Serif" font-size="10.00">net::DescriptorEventDispatcher</text>
<text text-anchor="middle" x="364" y="-217" font-family="Helvetica,sans-Serif" font-size="10.00">::disableObservedEvents</text>
</a>
</g>
</g>
<!-- Node2&#45;&gt;Node8 -->
<g id="edge7" class="edge">
<title>Node2&#45;&gt;Node8</title>
<path fill="none" stroke="midnightblue" d="M212.13,-160.65C229.64,-171.52 259.58,-189.2 287,-201 291.45,-202.92 296.11,-204.76 300.83,-206.51"/>
<polygon fill="midnightblue" stroke="midnightblue" points="299.98,-209.92 310.57,-209.97 302.32,-203.32 299.98,-209.92"/>
</g>
<!-- Node9 -->
<g id="node9" class="node">
<title>Node9</title>
<g id="a_node9"><a xlink:href="classnet_1_1_dynamic_loader.html#a6d7cd8628a517af74ba581ee39268363" target="_top" xlink:title=" ">
<polygon fill="white" stroke="black" points="312,-161 312,-191 416,-191 416,-161 312,-161"/>
<text text-anchor="start" x="320" y="-179" font-family="Helvetica,sans-Serif" font-size="10.00">net::DynamicLoader</text>
<text text-anchor="middle" x="364" y="-168" font-family="Helvetica,sans-Serif" font-size="10.00">::execDlCloseAll</text>
</a>
</g>
</g>
<!-- Node2&#45;&gt;Node9 -->
<g id="edge8" class="edge">
<title>Node2&#45;&gt;Node9</title>
<path fill="none" stroke="midnightblue" d="M251.35,-159.19C267.49,-161.62 285.26,-164.29 301.8,-166.78"/>
<polygon fill="midnightblue" stroke="midnightblue" points="301.49,-170.28 311.9,-168.3 302.54,-163.35 301.49,-170.28"/>
</g>
<!-- Node15 -->
<g id="node15" class="node">
<title>Node15</title>
<g id="a_node15"><a xlink:href="classnet_1_1_descriptor_event_dispatcher.html#a389e8216c85c6418b229102f7948a729" target="_top" xlink:title=" ">
<polygon fill="white" stroke="black" points="287,-112 287,-142 441,-142 441,-112 287,-112"/>
<text text-anchor="start" x="295" y="-130" font-family="Helvetica,sans-Serif" font-size="10.00">net::DescriptorEventDispatcher</text>
<text text-anchor="middle" x="364" y="-119" font-family="Helvetica,sans-Serif" font-size="10.00">::observeEnabledEvents</text>
</a>
</g>
</g>
<!-- Node2&#45;&gt;Node15 -->
<g id="edge16" class="edge">
<title>Node2&#45;&gt;Node15</title>
<path fill="none" stroke="midnightblue" d="M251.35,-143.14C259.51,-141.96 268.09,-140.72 276.71,-139.48"/>
<polygon fill="midnightblue" stroke="midnightblue" points="277.44,-142.91 286.83,-138.01 276.43,-135.98 277.44,-142.91"/>
</g>
<!-- Node16 -->
<g id="node16" class="node">
<title>Node16</title>
<g id="a_node16"><a xlink:href="classnet_1_1_descriptor_event_dispatcher.html#a4ccaef3f82c89e8651bef06c2900d3e0" target="_top" xlink:title=" ">
<polygon fill="white" stroke="black" points="287,-63 287,-93 441,-93 441,-63 287,-63"/>
<text text-anchor="start" x="295" y="-81" font-family="Helvetica,sans-Serif" font-size="10.00">net::DescriptorEventDispatcher</text>
<text text-anchor="middle" x="364" y="-70" font-family="Helvetica,sans-Serif" font-size="10.00">::releaseUnobservedEvents</text>
</a>
</g>
</g>
<!-- Node2&#45;&gt;Node16 -->
<g id="edge17" class="edge">
<title>Node2&#45;&gt;Node16</title>
<path fill="none" stroke="midnightblue" d="M212.85,-141.47C230.51,-131.1 260.13,-114.48 287,-103 292.32,-100.73 297.92,-98.53 303.57,-96.45"/>
<polygon fill="midnightblue" stroke="midnightblue" points="304.83,-99.71 313.07,-93.06 302.48,-93.12 304.83,-99.71"/>
</g>
<!-- Node17 -->
<g id="node17" class="node">
<title>Node17</title>
<g id="a_node17"><a xlink:href="classnet_1_1_descriptor_event_dispatcher.html#a785c063c3aa24c4daf273661e01976d6" target="_top" xlink:title=" ">
<polygon fill="white" stroke="black" points="287,-14 287,-44 441,-44 441,-14 287,-14"/>
<text text-anchor="start" x="295" y="-32" font-family="Helvetica,sans-Serif" font-size="10.00">net::DescriptorEventDispatcher</text>
<text text-anchor="middle" x="364" y="-21" font-family="Helvetica,sans-Serif" font-size="10.00">::unobserveDisabledEvents</text>
</a>
</g>
</g>
<!-- Node2&#45;&gt;Node17 -->
<g id="edge18" class="edge">
<title>Node2&#45;&gt;Node17</title>
<path fill="none" stroke="midnightblue" d="M203.22,-141.38C216.34,-121.84 248.81,-77.31 287,-53 289.6,-51.34 292.32,-49.8 295.13,-48.35"/>
<polygon fill="midnightblue" stroke="midnightblue" points="296.74,-51.46 304.32,-44.05 293.78,-45.12 296.74,-51.46"/>
</g>
<!-- Node4 -->
<g id="node4" class="node">
<title>Node4</title>
<g id="a_node4"><a xlink:href="classnet_1_1_timer_event_dispatcher.html#abe13976ac74b218783f77a80f051baeb" target="_top" xlink:title=" ">
<polygon fill="white" stroke="black" points="477,-300 477,-330 611,-330 611,-300 477,-300"/>
<text text-anchor="start" x="485" y="-318" font-family="Helvetica,sans-Serif" font-size="10.00">net::TimerEventDispatcher</text>
<text text-anchor="middle" x="544" y="-307" font-family="Helvetica,sans-Serif" font-size="10.00">::getNextTimeout</text>
</a>
</g>
</g>
<!-- Node3&#45;&gt;Node4 -->
<g id="edge3" class="edge">
<title>Node3&#45;&gt;Node4</title>
<path fill="none" stroke="midnightblue" d="M430.27,-289.03C442.48,-291.85 455.34,-294.81 467.82,-297.68"/>
<polygon fill="midnightblue" stroke="midnightblue" points="467.21,-301.13 477.74,-299.97 468.78,-294.31 467.21,-301.13"/>
</g>
<!-- Node6 -->
<g id="node6" class="node">
<title>Node6</title>
<g id="a_node6"><a xlink:href="classnet_1_1_timer_event_dispatcher.html#a985a74e6a3c6f6d3ddec66e4e20d3a86" target="_top" xlink:title=" ">
<polygon fill="white" stroke="black" points="477,-251 477,-281 611,-281 611,-251 477,-251"/>
<text text-anchor="start" x="485" y="-269" font-family="Helvetica,sans-Serif" font-size="10.00">net::TimerEventDispatcher</text>
<text text-anchor="middle" x="544" y="-258" font-family="Helvetica,sans-Serif" font-size="10.00">::remove</text>
</a>
</g>
</g>
<!-- Node3&#45;&gt;Node6 -->
<g id="edge5" class="edge">
<title>Node3&#45;&gt;Node6</title>
<path fill="none" stroke="midnightblue" d="M431.03,-271.03C442.58,-270.51 454.69,-269.97 466.5,-269.44"/>
<polygon fill="midnightblue" stroke="midnightblue" points="466.95,-272.92 476.78,-268.98 466.64,-265.93 466.95,-272.92"/>
</g>
<!-- Node5 -->
<g id="node5" class="node">
<title>Node5</title>
<g id="a_node5"><a xlink:href="namespacenet_1_1system.html#aa6f351129e5d8c8522b104b4c6d9d62e" target="_top" xlink:title=" ">
<polygon fill="white" stroke="black" points="647,-305.5 647,-324.5 778,-324.5 778,-305.5 647,-305.5"/>
<text text-anchor="middle" x="712.5" y="-312.5" font-family="Helvetica,sans-Serif" font-size="10.00">net::system::gettimeofday</text>
</a>
</g>
</g>
<!-- Node4&#45;&gt;Node5 -->
<g id="edge4" class="edge">
<title>Node4&#45;&gt;Node5</title>
<path fill="none" stroke="midnightblue" d="M611.28,-315C619.6,-315 628.15,-315 636.59,-315"/>
<polygon fill="midnightblue" stroke="midnightblue" points="636.8,-318.5 646.8,-315 636.8,-311.5 636.8,-318.5"/>
</g>
<!-- Node7 -->
<g id="node7" class="node">
<title>Node7</title>
<g id="a_node7"><a xlink:href="classnet_1_1_timer_event_receiver.html#a88250596671b00a3f56d992f55676650" target="_top" xlink:title=" ">
<polygon fill="white" stroke="black" points="650,-251 650,-281 775,-281 775,-251 650,-251"/>
<text text-anchor="start" x="658" y="-269" font-family="Helvetica,sans-Serif" font-size="10.00">net::TimerEventReceiver</text>
<text text-anchor="middle" x="712.5" y="-258" font-family="Helvetica,sans-Serif" font-size="10.00">::destroy</text>
</a>
</g>
</g>
<!-- Node6&#45;&gt;Node7 -->
<g id="edge6" class="edge">
<title>Node6&#45;&gt;Node7</title>
<path fill="none" stroke="midnightblue" d="M611.28,-266C620.61,-266 630.23,-266 639.65,-266"/>
<polygon fill="midnightblue" stroke="midnightblue" points="639.77,-269.5 649.77,-266 639.77,-262.5 639.77,-269.5"/>
</g>
<!-- Node10 -->
<g id="node10" class="node">
<title>Node10</title>
<g id="a_node10"><a xlink:href="classnet_1_1_dynamic_loader.html#a55e786abec1767c6d7b51a5f476fb6c4" target="_top" xlink:title=" ">
<polygon fill="white" stroke="black" points="660.5,-193 660.5,-223 764.5,-223 764.5,-193 660.5,-193"/>
<text text-anchor="start" x="668.5" y="-211" font-family="Helvetica,sans-Serif" font-size="10.00">net::DynamicLoader</text>
<text text-anchor="middle" x="712.5" y="-200" font-family="Helvetica,sans-Serif" font-size="10.00">::dlError</text>
</a>
</g>
</g>
<!-- Node9&#45;&gt;Node10 -->
<g id="edge9" class="edge">
<title>Node9&#45;&gt;Node10</title>
<path fill="none" stroke="midnightblue" d="M416.22,-189.58C435.17,-194.03 456.94,-198.48 477,-201 535.36,-208.32 602.49,-209.61 649.94,-209.34"/>
<polygon fill="midnightblue" stroke="midnightblue" points="650.08,-212.84 660.05,-209.26 650.02,-205.84 650.08,-212.84"/>
</g>
<!-- Node12 -->
<g id="node12" class="node">
<title>Node12</title>
<g id="a_node12"><a xlink:href="classnet_1_1_dynamic_loader.html#a959fdd5a4fae487d1cef5c7141ff81ba" target="_top" xlink:title=" ">
<polygon fill="white" stroke="black" points="660.5,-126 660.5,-156 764.5,-156 764.5,-126 660.5,-126"/>
<text text-anchor="start" x="668.5" y="-144" font-family="Helvetica,sans-Serif" font-size="10.00">net::DynamicLoader</text>
<text text-anchor="middle" x="712.5" y="-133" font-family="Helvetica,sans-Serif" font-size="10.00">::execDlClose</text>
</a>
</g>
</g>
<!-- Node9&#45;&gt;Node12 -->
<g id="edge11" class="edge">
<title>Node9&#45;&gt;Node12</title>
<path fill="none" stroke="midnightblue" d="M416.27,-163.16C435.23,-158.91 456.98,-154.6 477,-152 535.37,-144.43 602.5,-141.9 649.94,-141.13"/>
<polygon fill="midnightblue" stroke="midnightblue" points="650.1,-144.63 660.05,-140.99 650,-137.63 650.1,-144.63"/>
</g>
<!-- Node14 -->
<g id="node14" class="node">
<title>Node14</title>
<g id="a_node14"><a xlink:href="classnet_1_1_dynamic_loader.html#a66e5eb126f960aab6829addf3401b56e" target="_top" xlink:title=" ">
<polygon fill="white" stroke="black" points="486.5,-161 486.5,-191 601.5,-191 601.5,-161 486.5,-161"/>
<text text-anchor="start" x="494.5" y="-179" font-family="Helvetica,sans-Serif" font-size="10.00">net::DynamicLoader</text>
<text text-anchor="middle" x="544" y="-168" font-family="Helvetica,sans-Serif" font-size="10.00">::execDlCloseDeleyed</text>
</a>
</g>
</g>
<!-- Node9&#45;&gt;Node14 -->
<g id="edge13" class="edge">
<title>Node9&#45;&gt;Node14</title>
<path fill="none" stroke="midnightblue" d="M416.01,-176C434.73,-176 456.21,-176 476.12,-176"/>
<polygon fill="midnightblue" stroke="midnightblue" points="476.36,-179.5 486.36,-176 476.36,-172.5 476.36,-179.5"/>
</g>
<!-- Node11 -->
<g id="node11" class="node">
<title>Node11</title>
<g id="a_node11"><a xlink:href="namespacenet_1_1system.html#a489ac21d3c8a9ebb3afb332c2a976466" target="_top" xlink:title=" ">
<polygon fill="white" stroke="black" points="816,-198.5 816,-217.5 917,-217.5 917,-198.5 816,-198.5"/>
<text text-anchor="middle" x="866.5" y="-205.5" font-family="Helvetica,sans-Serif" font-size="10.00">net::system::dlerror</text>
</a>
</g>
</g>
<!-- Node10&#45;&gt;Node11 -->
<g id="edge10" class="edge">
<title>Node10&#45;&gt;Node11</title>
<path fill="none" stroke="midnightblue" d="M764.54,-208C777.73,-208 792.06,-208 805.66,-208"/>
<polygon fill="midnightblue" stroke="midnightblue" points="805.89,-211.5 815.89,-208 805.89,-204.5 805.89,-211.5"/>
</g>
<!-- Node13 -->
<g id="node13" class="node">
<title>Node13</title>
<g id="a_node13"><a xlink:href="namespacenet_1_1system.html#afe90648ec3d910876576a7ce420635af" target="_top" xlink:title=" ">
<polygon fill="white" stroke="black" points="814,-131.5 814,-150.5 919,-150.5 919,-131.5 814,-131.5"/>
<text text-anchor="middle" x="866.5" y="-138.5" font-family="Helvetica,sans-Serif" font-size="10.00">net::system::dlclose</text>
</a>
</g>
</g>
<!-- Node12&#45;&gt;Node13 -->
<g id="edge12" class="edge">
<title>Node12&#45;&gt;Node13</title>
<path fill="none" stroke="midnightblue" d="M764.54,-141C777.06,-141 790.6,-141 803.57,-141"/>
<polygon fill="midnightblue" stroke="midnightblue" points="803.82,-144.5 813.82,-141 803.82,-137.5 803.82,-144.5"/>
</g>
<!-- Node14&#45;&gt;Node10 -->
<g id="edge14" class="edge">
<title>Node14&#45;&gt;Node10</title>
<path fill="none" stroke="midnightblue" d="M601.83,-186.92C617.37,-189.91 634.27,-193.16 650.05,-196.19"/>
<polygon fill="midnightblue" stroke="midnightblue" points="649.75,-199.7 660.23,-198.15 651.07,-192.82 649.75,-199.7"/>
</g>
<!-- Node14&#45;&gt;Node12 -->
<g id="edge15" class="edge">
<title>Node14&#45;&gt;Node12</title>
<path fill="none" stroke="midnightblue" d="M601.83,-164.05C617.37,-160.79 634.27,-157.23 650.05,-153.92"/>
<polygon fill="midnightblue" stroke="midnightblue" points="651.16,-157.26 660.23,-151.78 649.72,-150.41 651.16,-157.26"/>
</g>
<!-- Node18 -->
<g id="node18" class="node">
<title>Node18</title>
<g id="a_node18"><a xlink:href="classnet_1_1_fd_set.html#ad16f1e07bc68aa16c271a858d7510b95" target="_top" xlink:title=" ">
<polygon fill="white" stroke="black" points="504.5,-38.5 504.5,-57.5 583.5,-57.5 583.5,-38.5 504.5,-38.5"/>
<text text-anchor="middle" x="544" y="-45.5" font-family="Helvetica,sans-Serif" font-size="10.00">net::FdSet::clr</text>
</a>
</g>
</g>
<!-- Node17&#45;&gt;Node18 -->
<g id="edge19" class="edge">
<title>Node17&#45;&gt;Node18</title>
<path fill="none" stroke="midnightblue" d="M441,-37.11C458.83,-39.02 477.37,-40.99 493.68,-42.74"/>
<polygon fill="midnightblue" stroke="midnightblue" points="493.72,-46.26 504.04,-43.84 494.47,-39.3 493.72,-46.26"/>
</g>
<!-- Node19 -->
<g id="node19" class="node">
<title>Node19</title>
<g id="a_node19"><a xlink:href="classnet_1_1_fd_set.html#a602dbf99def6560bcc7a6bcb8384d549" target="_top" xlink:title=" ">
<polygon fill="white" stroke="black" points="503,-0.5 503,-19.5 585,-19.5 585,-0.5 503,-0.5"/>
<text text-anchor="middle" x="544" y="-7.5" font-family="Helvetica,sans-Serif" font-size="10.00">net::FdSet::set</text>
</a>
</g>
</g>
<!-- Node17&#45;&gt;Node19 -->
<g id="edge20" class="edge">
<title>Node17&#45;&gt;Node19</title>
<path fill="none" stroke="midnightblue" d="M441,-20.89C458.37,-19.03 476.4,-17.11 492.4,-15.4"/>
<polygon fill="midnightblue" stroke="midnightblue" points="493.01,-18.86 502.58,-14.31 492.27,-11.9 493.01,-18.86"/>
</g>
</g>
</svg>
