<?xml version="1.0" encoding="UTF-8" standalone="no"?>
<!DOCTYPE svg PUBLIC "-//W3C//DTD SVG 1.1//EN"
 "http://www.w3.org/Graphics/SVG/1.1/DTD/svg11.dtd">
<!-- Generated by graphviz version 2.43.0 (0)
 -->
<!-- Title: web::ws::WSTransmitter::send Pages: 1 -->
<svg width="813pt" height="284pt"
 viewBox="0.00 0.00 813.00 284.00" xmlns="http://www.w3.org/2000/svg" xmlns:xlink="http://www.w3.org/1999/xlink">
<g id="graph0" class="graph" transform="scale(1 1) rotate(0) translate(4 280)">
<title>web::ws::WSTransmitter::send</title>
<polygon fill="white" stroke="transparent" points="-4,4 -4,-280 809,-280 809,4 -4,4"/>
<!-- Node1 -->
<g id="node1" class="node">
<title>Node1</title>
<g id="a_node1"><a xlink:title=" ">
<polygon fill="#bfbfbf" stroke="black" points="680,-70.5 680,-100.5 805,-100.5 805,-70.5 680,-70.5"/>
<text text-anchor="start" x="688" y="-88.5" font-family="Helvetica,sans-Serif" font-size="10.00">web::ws::WSTransmitter</text>
<text text-anchor="middle" x="742.5" y="-77.5" font-family="Helvetica,sans-Serif" font-size="10.00">::send</text>
</a>
</g>
</g>
<!-- Node2 -->
<g id="node2" class="node">
<title>Node2</title>
<g id="a_node2"><a xlink:href="classweb_1_1ws_1_1_w_s_transmitter.html#a59bd0ab277fda242c16cfffbb19fd513" target="_top" xlink:title=" ">
<polygon fill="white" stroke="black" points="519,-92.5 519,-122.5 644,-122.5 644,-92.5 519,-92.5"/>
<text text-anchor="start" x="527" y="-110.5" font-family="Helvetica,sans-Serif" font-size="10.00">web::ws::WSTransmitter</text>
<text text-anchor="middle" x="581.5" y="-99.5" font-family="Helvetica,sans-Serif" font-size="10.00">::message</text>
</a>
</g>
</g>
<!-- Node1&#45;&gt;Node2 -->
<g id="edge1" class="edge">
<title>Node1&#45;&gt;Node2</title>
<path fill="none" stroke="midnightblue" d="M669.46,-88.74C660.78,-89.88 651.98,-91.15 643.48,-92.48"/>
<polygon fill="midnightblue" stroke="midnightblue" points="670.09,-92.19 679.57,-87.47 669.21,-85.25 670.09,-92.19"/>
</g>
<!-- Node11 -->
<g id="node11" class="node">
<title>Node11</title>
<g id="a_node11"><a xlink:href="classweb_1_1ws_1_1_w_s_transmitter.html#a11a27b5f7506806a3e39628ed800fa92" target="_top" xlink:title=" ">
<polygon fill="white" stroke="black" points="352,-147.5 352,-177.5 477,-177.5 477,-147.5 352,-147.5"/>
<text text-anchor="start" x="360" y="-165.5" font-family="Helvetica,sans-Serif" font-size="10.00">web::ws::WSTransmitter</text>
<text text-anchor="middle" x="414.5" y="-154.5" font-family="Helvetica,sans-Serif" font-size="10.00">::messageEnd</text>
</a>
</g>
</g>
<!-- Node1&#45;&gt;Node11 -->
<g id="edge18" class="edge">
<title>Node1&#45;&gt;Node11</title>
<path fill="none" stroke="midnightblue" d="M706.07,-105.44C688.01,-114.75 665.4,-125.17 644,-131.5 588.92,-147.81 523.79,-155.57 477.19,-159.25"/>
<polygon fill="midnightblue" stroke="midnightblue" points="707.85,-108.45 715.06,-100.69 704.58,-102.26 707.85,-108.45"/>
</g>
<!-- Node12 -->
<g id="node12" class="node">
<title>Node12</title>
<g id="a_node12"><a xlink:href="classweb_1_1ws_1_1_w_s_transmitter.html#a9f448a1ccb26e805b431e66455757314" target="_top" xlink:title=" ">
<polygon fill="white" stroke="black" points="352,-49.5 352,-79.5 477,-79.5 477,-49.5 352,-49.5"/>
<text text-anchor="start" x="360" y="-67.5" font-family="Helvetica,sans-Serif" font-size="10.00">web::ws::WSTransmitter</text>
<text text-anchor="middle" x="414.5" y="-56.5" font-family="Helvetica,sans-Serif" font-size="10.00">::messageStart</text>
</a>
</g>
</g>
<!-- Node1&#45;&gt;Node12 -->
<g id="edge19" class="edge">
<title>Node1&#45;&gt;Node12</title>
<path fill="none" stroke="midnightblue" d="M669.67,-80.87C612.04,-77.16 532,-72 477.23,-68.48"/>
<polygon fill="midnightblue" stroke="midnightblue" points="669.59,-84.38 679.8,-81.53 670.04,-77.39 669.59,-84.38"/>
</g>
<!-- Node13 -->
<g id="node13" class="node">
<title>Node13</title>
<g id="a_node13"><a xlink:href="classweb_1_1ws_1_1_w_s_transmitter.html#a6f4da36a5c9547b68859f0f4fdd46e76" target="_top" xlink:title=" ">
<polygon fill="white" stroke="black" points="352,-0.5 352,-30.5 477,-30.5 477,-0.5 352,-0.5"/>
<text text-anchor="start" x="360" y="-18.5" font-family="Helvetica,sans-Serif" font-size="10.00">web::ws::WSTransmitter</text>
<text text-anchor="middle" x="414.5" y="-7.5" font-family="Helvetica,sans-Serif" font-size="10.00">::sendFrame</text>
</a>
</g>
</g>
<!-- Node1&#45;&gt;Node13 -->
<g id="edge20" class="edge">
<title>Node1&#45;&gt;Node13</title>
<path fill="none" stroke="midnightblue" d="M684.7,-68.04C626.64,-53.64 536.74,-34.29 477.02,-23.29"/>
<polygon fill="midnightblue" stroke="midnightblue" points="683.89,-71.44 694.44,-70.48 685.6,-64.65 683.89,-71.44"/>
</g>
<!-- Node2&#45;&gt;Node1 -->
<g id="edge14" class="edge">
<title>Node2&#45;&gt;Node1</title>
<path fill="none" stroke="midnightblue" d="M654.32,-104.28C663.06,-103.14 671.92,-101.87 680.48,-100.53"/>
<polygon fill="midnightblue" stroke="midnightblue" points="653.63,-100.84 644.14,-105.57 654.5,-107.79 653.63,-100.84"/>
</g>
<!-- Node3 -->
<g id="node3" class="node">
<title>Node3</title>
<g id="a_node3"><a xlink:href="classweb_1_1ws_1_1server_1_1_w_s_server_context.html#acd6c0a728948aad1105a0af28230d11e" target="_top" xlink:title=" ">
<polygon fill="white" stroke="black" points="346,-98.5 346,-128.5 483,-128.5 483,-98.5 346,-98.5"/>
<text text-anchor="start" x="354" y="-116.5" font-family="Helvetica,sans-Serif" font-size="10.00">web::ws::server::WSServer</text>
<text text-anchor="middle" x="414.5" y="-105.5" font-family="Helvetica,sans-Serif" font-size="10.00">Context::message</text>
</a>
</g>
</g>
<!-- Node2&#45;&gt;Node3 -->
<g id="edge2" class="edge">
<title>Node2&#45;&gt;Node3</title>
<path fill="none" stroke="midnightblue" d="M508.4,-110.12C499.96,-110.43 491.38,-110.74 483.01,-111.05"/>
<polygon fill="midnightblue" stroke="midnightblue" points="508.72,-113.61 518.59,-109.75 508.47,-106.62 508.72,-113.61"/>
</g>
<!-- Node2&#45;&gt;Node11 -->
<g id="edge10" class="edge">
<title>Node2&#45;&gt;Node11</title>
<path fill="none" stroke="midnightblue" d="M525.89,-125.7C504.7,-132.77 480.72,-140.76 460.53,-147.49"/>
<polygon fill="midnightblue" stroke="midnightblue" points="527.03,-129.01 535.41,-122.53 524.82,-122.37 527.03,-129.01"/>
</g>
<!-- Node2&#45;&gt;Node12 -->
<g id="edge12" class="edge">
<title>Node2&#45;&gt;Node12</title>
<path fill="none" stroke="midnightblue" d="M512.85,-89.87C499.68,-86.44 485.99,-82.87 473.18,-79.53"/>
<polygon fill="midnightblue" stroke="midnightblue" points="512.23,-93.33 522.79,-92.46 514,-86.55 512.23,-93.33"/>
</g>
<!-- Node2&#45;&gt;Node13 -->
<g id="edge15" class="edge">
<title>Node2&#45;&gt;Node13</title>
<path fill="none" stroke="midnightblue" d="M553.9,-86.02C534.96,-71.48 508.46,-52.6 483,-39.5 476.7,-36.26 469.85,-33.27 463.02,-30.58"/>
<polygon fill="midnightblue" stroke="midnightblue" points="552,-88.97 562.04,-92.36 556.3,-83.45 552,-88.97"/>
</g>
<!-- Node4 -->
<g id="node4" class="node">
<title>Node4</title>
<g id="a_node4"><a xlink:href="classweb_1_1ws_1_1server_1_1_w_s_server_context.html#a601800d87d304b138a1d045abff167f3" target="_top" xlink:title=" ">
<polygon fill="white" stroke="black" points="173,-196.5 173,-226.5 310,-226.5 310,-196.5 173,-196.5"/>
<text text-anchor="start" x="181" y="-214.5" font-family="Helvetica,sans-Serif" font-size="10.00">web::ws::server::WSServer</text>
<text text-anchor="middle" x="241.5" y="-203.5" font-family="Helvetica,sans-Serif" font-size="10.00">Context::close</text>
</a>
</g>
</g>
<!-- Node3&#45;&gt;Node4 -->
<g id="edge3" class="edge">
<title>Node3&#45;&gt;Node4</title>
<path fill="none" stroke="midnightblue" d="M351.82,-133.54C349.81,-134.78 347.86,-136.1 346,-137.5 324.11,-153.94 331.89,-171.06 310,-187.5 305.43,-190.94 300.32,-193.91 295.01,-196.48"/>
<polygon fill="midnightblue" stroke="midnightblue" points="353.9,-136.39 360.99,-128.52 350.54,-130.25 353.9,-136.39"/>
</g>
<!-- Node5 -->
<g id="node5" class="node">
<title>Node5</title>
<g id="a_node5"><a xlink:href="classweb_1_1ws_1_1server_1_1_w_s_server_context.html#a0c44314f47380c266fd66f5ffdcfd591" target="_top" xlink:title=" ">
<polygon fill="white" stroke="black" points="173,-245.5 173,-275.5 310,-275.5 310,-245.5 173,-245.5"/>
<text text-anchor="start" x="181" y="-263.5" font-family="Helvetica,sans-Serif" font-size="10.00">web::ws::server::WSServer</text>
<text text-anchor="middle" x="241.5" y="-252.5" font-family="Helvetica,sans-Serif" font-size="10.00">Context::messageEnd</text>
</a>
</g>
</g>
<!-- Node3&#45;&gt;Node5 -->
<g id="edge4" class="edge">
<title>Node3&#45;&gt;Node5</title>
<path fill="none" stroke="midnightblue" d="M349.37,-134.44C348.2,-135.41 347.08,-136.43 346,-137.5 312.78,-170.49 343.22,-203.51 310,-236.5 306.56,-239.92 302.6,-242.85 298.36,-245.37"/>
<polygon fill="midnightblue" stroke="midnightblue" points="351.47,-137.24 357.64,-128.63 347.45,-131.51 351.47,-137.24"/>
</g>
<!-- Node6 -->
<g id="node6" class="node">
<title>Node6</title>
<g id="a_node6"><a xlink:href="classweb_1_1ws_1_1server_1_1_w_s_server_context.html#af0497f0fb083dcc938af67961ec50346" target="_top" xlink:title=" ">
<polygon fill="white" stroke="black" points="173,-49.5 173,-79.5 310,-79.5 310,-49.5 173,-49.5"/>
<text text-anchor="start" x="181" y="-67.5" font-family="Helvetica,sans-Serif" font-size="10.00">web::ws::server::WSServer</text>
<text text-anchor="middle" x="241.5" y="-56.5" font-family="Helvetica,sans-Serif" font-size="10.00">Context::messageStart</text>
</a>
</g>
</g>
<!-- Node3&#45;&gt;Node6 -->
<g id="edge5" class="edge">
<title>Node3&#45;&gt;Node6</title>
<path fill="none" stroke="midnightblue" d="M351.05,-95.61C332.66,-90.34 312.73,-84.62 295.03,-79.55"/>
<polygon fill="midnightblue" stroke="midnightblue" points="350.22,-99.01 360.8,-98.4 352.15,-92.28 350.22,-99.01"/>
</g>
<!-- Node7 -->
<g id="node7" class="node">
<title>Node7</title>
<g id="a_node7"><a xlink:href="classweb_1_1ws_1_1server_1_1_w_s_server_context.html#ad728e7f46b7c8e22c2a1464c1b0deff1" target="_top" xlink:title=" ">
<polygon fill="white" stroke="black" points="173,-147.5 173,-177.5 310,-177.5 310,-147.5 173,-147.5"/>
<text text-anchor="start" x="181" y="-165.5" font-family="Helvetica,sans-Serif" font-size="10.00">web::ws::server::WSServer</text>
<text text-anchor="middle" x="241.5" y="-154.5" font-family="Helvetica,sans-Serif" font-size="10.00">Context::replyPong</text>
</a>
</g>
</g>
<!-- Node3&#45;&gt;Node7 -->
<g id="edge6" class="edge">
<title>Node3&#45;&gt;Node7</title>
<path fill="none" stroke="midnightblue" d="M351.05,-131.39C332.66,-136.66 312.73,-142.38 295.03,-147.45"/>
<polygon fill="midnightblue" stroke="midnightblue" points="352.15,-134.72 360.8,-128.6 350.22,-127.99 352.15,-134.72"/>
</g>
<!-- Node9 -->
<g id="node9" class="node">
<title>Node9</title>
<g id="a_node9"><a xlink:href="classweb_1_1ws_1_1server_1_1_w_s_server_context.html#a59a9e44dba65a49edefdfdf803dc8848" target="_top" xlink:title=" ">
<polygon fill="white" stroke="black" points="173,-0.5 173,-30.5 310,-30.5 310,-0.5 173,-0.5"/>
<text text-anchor="start" x="181" y="-18.5" font-family="Helvetica,sans-Serif" font-size="10.00">web::ws::server::WSServer</text>
<text text-anchor="middle" x="241.5" y="-7.5" font-family="Helvetica,sans-Serif" font-size="10.00">Context::sendFrame</text>
</a>
</g>
</g>
<!-- Node3&#45;&gt;Node9 -->
<g id="edge8" class="edge">
<title>Node3&#45;&gt;Node9</title>
<path fill="none" stroke="midnightblue" d="M353.8,-93.7C351.08,-92.09 348.47,-90.36 346,-88.5 324.42,-72.23 331.69,-55.63 310,-39.5 305.41,-36.09 300.29,-33.12 294.98,-30.56"/>
<polygon fill="midnightblue" stroke="midnightblue" points="352.29,-96.86 362.76,-98.46 355.57,-90.68 352.29,-96.86"/>
</g>
<!-- Node10 -->
<g id="node10" class="node">
<title>Node10</title>
<g id="a_node10"><a xlink:href="classweb_1_1ws_1_1server_1_1_w_s_server_context.html#ac5c5ae101566ed96d8f60fb3a04ed521" target="_top" xlink:title=" ">
<polygon fill="white" stroke="black" points="173,-98.5 173,-128.5 310,-128.5 310,-98.5 173,-98.5"/>
<text text-anchor="start" x="181" y="-116.5" font-family="Helvetica,sans-Serif" font-size="10.00">web::ws::server::WSServer</text>
<text text-anchor="middle" x="241.5" y="-105.5" font-family="Helvetica,sans-Serif" font-size="10.00">Context::sendPing</text>
</a>
</g>
</g>
<!-- Node3&#45;&gt;Node10 -->
<g id="edge9" class="edge">
<title>Node3&#45;&gt;Node10</title>
<path fill="none" stroke="midnightblue" d="M335.9,-113.5C327.31,-113.5 318.61,-113.5 310.15,-113.5"/>
<polygon fill="midnightblue" stroke="midnightblue" points="335.92,-117 345.92,-113.5 335.92,-110 335.92,-117"/>
</g>
<!-- Node8 -->
<g id="node8" class="node">
<title>Node8</title>
<g id="a_node8"><a xlink:href="classweb_1_1ws_1_1server_1_1_w_s_server_context.html#a4d7a98553006ce8fd4bb5438663aeddc" target="_top" xlink:title=" ">
<polygon fill="white" stroke="black" points="0,-147.5 0,-177.5 137,-177.5 137,-147.5 0,-147.5"/>
<text text-anchor="start" x="8" y="-165.5" font-family="Helvetica,sans-Serif" font-size="10.00">web::ws::server::WSServer</text>
<text text-anchor="middle" x="68.5" y="-154.5" font-family="Helvetica,sans-Serif" font-size="10.00">Context::onMessageEnd</text>
</a>
</g>
</g>
<!-- Node7&#45;&gt;Node8 -->
<g id="edge7" class="edge">
<title>Node7&#45;&gt;Node8</title>
<path fill="none" stroke="midnightblue" d="M162.9,-162.5C154.31,-162.5 145.61,-162.5 137.15,-162.5"/>
<polygon fill="midnightblue" stroke="midnightblue" points="162.92,-166 172.92,-162.5 162.92,-159 162.92,-166"/>
</g>
<!-- Node11&#45;&gt;Node5 -->
<g id="edge11" class="edge">
<title>Node11&#45;&gt;Node5</title>
<path fill="none" stroke="midnightblue" d="M388.02,-183.81C367.83,-199.9 338.4,-221.67 310,-236.5 303.72,-239.78 296.88,-242.79 290.06,-245.49"/>
<polygon fill="midnightblue" stroke="midnightblue" points="390.23,-186.52 395.81,-177.51 385.83,-181.07 390.23,-186.52"/>
</g>
<!-- Node12&#45;&gt;Node6 -->
<g id="edge13" class="edge">
<title>Node12&#45;&gt;Node6</title>
<path fill="none" stroke="midnightblue" d="M341.51,-64.5C331.14,-64.5 320.5,-64.5 310.22,-64.5"/>
<polygon fill="midnightblue" stroke="midnightblue" points="341.77,-68 351.77,-64.5 341.77,-61 341.77,-68"/>
</g>
<!-- Node13&#45;&gt;Node1 -->
<g id="edge16" class="edge">
<title>Node13&#45;&gt;Node1</title>
<path fill="none" stroke="midnightblue" d="M472.42,-32.99C530.43,-47.37 620.12,-66.68 679.8,-77.67"/>
<polygon fill="midnightblue" stroke="midnightblue" points="473.24,-29.59 462.68,-30.55 471.53,-36.38 473.24,-29.59"/>
</g>
<!-- Node13&#45;&gt;Node9 -->
<g id="edge17" class="edge">
<title>Node13&#45;&gt;Node9</title>
<path fill="none" stroke="midnightblue" d="M341.51,-15.5C331.14,-15.5 320.5,-15.5 310.22,-15.5"/>
<polygon fill="midnightblue" stroke="midnightblue" points="341.77,-19 351.77,-15.5 341.77,-12 341.77,-19"/>
</g>
</g>
</svg>
