<?xml version="1.0" encoding="UTF-8" standalone="no"?>
<!DOCTYPE svg PUBLIC "-//W3C//DTD SVG 1.1//EN"
 "http://www.w3.org/Graphics/SVG/1.1/DTD/svg11.dtd">
<!-- Generated by graphviz version 2.43.0 (0)
 -->
<!-- Title: net::socket::stream::tls::TLSHandshake::doHandshake Pages: 1 -->
<svg width="421pt" height="110pt"
 viewBox="0.00 0.00 421.00 110.00" xmlns="http://www.w3.org/2000/svg" xmlns:xlink="http://www.w3.org/1999/xlink">
<g id="graph0" class="graph" transform="scale(1 1) rotate(0) translate(4 106)">
<title>net::socket::stream::tls::TLSHandshake::doHandshake</title>
<polygon fill="white" stroke="transparent" points="-4,4 -4,-106 417,-106 417,4 -4,4"/>
<!-- Node1 -->
<g id="node1" class="node">
<title>Node1</title>
<g id="a_node1"><a xlink:title=" ">
<polygon fill="#bfbfbf" stroke="black" points="306,-30.5 306,-71.5 413,-71.5 413,-30.5 306,-30.5"/>
<text text-anchor="start" x="314" y="-59.5" font-family="Helvetica,sans-Serif" font-size="10.00">net::socket::stream</text>
<text text-anchor="start" x="314" y="-48.5" font-family="Helvetica,sans-Serif" font-size="10.00">::tls::TLSHandshake</text>
<text text-anchor="middle" x="359.5" y="-37.5" font-family="Helvetica,sans-Serif" font-size="10.00">::doHandshake</text>
</a>
</g>
</g>
<!-- Node2 -->
<g id="node2" class="node">
<title>Node2</title>
<g id="a_node2"><a xlink:href="classnet_1_1socket_1_1stream_1_1tls_1_1_socket_connection.html#af1a4936b2d84a553285fbdf1de7dd716" target="_top" xlink:title=" ">
<polygon fill="white" stroke="black" points="151,-30.5 151,-71.5 270,-71.5 270,-30.5 151,-30.5"/>
<text text-anchor="start" x="159" y="-59.5" font-family="Helvetica,sans-Serif" font-size="10.00">net::socket::stream</text>
<text text-anchor="start" x="159" y="-48.5" font-family="Helvetica,sans-Serif" font-size="10.00">::tls::SocketConnection</text>
<text text-anchor="middle" x="210.5" y="-37.5" font-family="Helvetica,sans-Serif" font-size="10.00">::doSSLHandshake</text>
</a>
</g>
</g>
<!-- Node1&#45;&gt;Node2 -->
<g id="edge1" class="edge">
<title>Node1&#45;&gt;Node2</title>
<path fill="none" stroke="midnightblue" d="M295.61,-51C287.12,-51 278.44,-51 270.02,-51"/>
<polygon fill="midnightblue" stroke="midnightblue" points="295.84,-54.5 305.84,-51 295.84,-47.5 295.84,-54.5"/>
</g>
<!-- Node3 -->
<g id="node3" class="node">
<title>Node3</title>
<g id="a_node3"><a xlink:href="classnet_1_1socket_1_1stream_1_1tls_1_1_socket_connector.html#a4c8ddbd0f6bbaa2c3109f27ee3ba4884" target="_top" xlink:title=" ">
<polygon fill="white" stroke="black" points="0,-60.5 0,-101.5 115,-101.5 115,-60.5 0,-60.5"/>
<text text-anchor="start" x="8" y="-89.5" font-family="Helvetica,sans-Serif" font-size="10.00">net::socket::stream</text>
<text text-anchor="start" x="8" y="-78.5" font-family="Helvetica,sans-Serif" font-size="10.00">::tls::SocketConnector</text>
<text text-anchor="middle" x="57.5" y="-67.5" font-family="Helvetica,sans-Serif" font-size="10.00">::SocketConnector</text>
</a>
</g>
</g>
<!-- Node2&#45;&gt;Node3 -->
<g id="edge2" class="edge">
<title>Node2&#45;&gt;Node3</title>
<path fill="none" stroke="midnightblue" d="M140.8,-64.65C132.31,-66.34 123.71,-68.05 115.42,-69.69"/>
<polygon fill="midnightblue" stroke="midnightblue" points="141.56,-68.07 150.69,-62.68 140.2,-61.2 141.56,-68.07"/>
</g>
<!-- Node4 -->
<g id="node4" class="node">
<title>Node4</title>
<g id="a_node4"><a xlink:href="classnet_1_1socket_1_1stream_1_1tls_1_1_socket_listener.html#ad1d1eb7183eef5998ab8d47d86939560" target="_top" xlink:title=" ">
<polygon fill="white" stroke="black" points="5.5,-0.5 5.5,-41.5 109.5,-41.5 109.5,-0.5 5.5,-0.5"/>
<text text-anchor="start" x="13.5" y="-29.5" font-family="Helvetica,sans-Serif" font-size="10.00">net::socket::stream</text>
<text text-anchor="start" x="13.5" y="-18.5" font-family="Helvetica,sans-Serif" font-size="10.00">::tls::SocketListener</text>
<text text-anchor="middle" x="57.5" y="-7.5" font-family="Helvetica,sans-Serif" font-size="10.00">::SocketListener</text>
</a>
</g>
</g>
<!-- Node2&#45;&gt;Node4 -->
<g id="edge3" class="edge">
<title>Node2&#45;&gt;Node4</title>
<path fill="none" stroke="midnightblue" d="M140.71,-37.33C130.23,-35.25 119.57,-33.13 109.55,-31.14"/>
<polygon fill="midnightblue" stroke="midnightblue" points="140.2,-40.8 150.69,-39.32 141.56,-33.93 140.2,-40.8"/>
</g>
</g>
</svg>
