<?xml version="1.0" encoding="UTF-8" standalone="no"?>
<!DOCTYPE svg PUBLIC "-//W3C//DTD SVG 1.1//EN"
 "http://www.w3.org/Graphics/SVG/1.1/DTD/svg11.dtd">
<!-- Generated by graphviz version 2.43.0 (0)
 -->
<!-- Title: http::server::Response::send Pages: 1 -->
<svg width="918pt" height="246pt"
 viewBox="0.00 0.00 918.00 246.00" xmlns="http://www.w3.org/2000/svg" xmlns:xlink="http://www.w3.org/1999/xlink">
<g id="graph0" class="graph" transform="scale(1 1) rotate(0) translate(4 242)">
<title>http::server::Response::send</title>
<polygon fill="white" stroke="transparent" points="-4,4 -4,-242 914,-242 914,4 -4,4"/>
<!-- Node1 -->
<g id="node1" class="node">
<title>Node1</title>
<g id="a_node1"><a xlink:title=" ">
<polygon fill="#bfbfbf" stroke="black" points="0,-0.5 0,-30.5 116,-30.5 116,-0.5 0,-0.5"/>
<text text-anchor="start" x="8" y="-18.5" font-family="Helvetica,sans-Serif" font-size="10.00">http::server::Response</text>
<text text-anchor="middle" x="58" y="-7.5" font-family="Helvetica,sans-Serif" font-size="10.00">::send</text>
</a>
</g>
</g>
<!-- Node2 -->
<g id="node2" class="node">
<title>Node2</title>
<g id="a_node2"><a xlink:href="classhttp_1_1server_1_1_response.html#a7ecd54ee7c3880d116b381dd58ee0d9e" target="_top" xlink:title=" ">
<polygon fill="white" stroke="black" points="152,-22.5 152,-52.5 268,-52.5 268,-22.5 152,-22.5"/>
<text text-anchor="start" x="160" y="-40.5" font-family="Helvetica,sans-Serif" font-size="10.00">http::server::Response</text>
<text text-anchor="middle" x="210" y="-29.5" font-family="Helvetica,sans-Serif" font-size="10.00">::send</text>
</a>
</g>
</g>
<!-- Node1&#45;&gt;Node2 -->
<g id="edge1" class="edge">
<title>Node1&#45;&gt;Node2</title>
<path fill="none" stroke="midnightblue" d="M116.14,-23.88C124.47,-25.1 133.11,-26.37 141.62,-27.62"/>
<polygon fill="midnightblue" stroke="midnightblue" points="141.12,-31.08 151.53,-29.07 142.14,-24.16 141.12,-31.08"/>
</g>
<!-- Node9 -->
<g id="node9" class="node">
<title>Node9</title>
<g id="a_node9"><a xlink:href="classhttp_1_1server_1_1_response.html#a1a0019dc47bb70ca67fb78bd3e37384c" target="_top" xlink:title=" ">
<polygon fill="white" stroke="black" points="627,-22 627,-41 763,-41 763,-22 627,-22"/>
<text text-anchor="middle" x="695" y="-29" font-family="Helvetica,sans-Serif" font-size="10.00">http::server::Response::set</text>
</a>
</g>
</g>
<!-- Node1&#45;&gt;Node9 -->
<g id="edge15" class="edge">
<title>Node1&#45;&gt;Node9</title>
<path fill="none" stroke="midnightblue" d="M116.05,-14.08C127.93,-13.84 140.37,-13.63 152,-13.5 203.55,-12.95 216.46,-12.41 268,-13.5 389.97,-16.08 531.44,-22.79 616.76,-27.26"/>
<polygon fill="midnightblue" stroke="midnightblue" points="616.72,-30.76 626.89,-27.79 617.08,-23.77 616.72,-30.76"/>
</g>
<!-- Node3 -->
<g id="node3" class="node">
<title>Node3</title>
<g id="a_node3"><a xlink:href="classhttp_1_1server_1_1_response.html#aa20e3fd615b677aeb0ec1bda57bf0f93" target="_top" xlink:title=" ">
<polygon fill="white" stroke="black" points="304,-133.5 304,-163.5 420,-163.5 420,-133.5 304,-133.5"/>
<text text-anchor="start" x="312" y="-151.5" font-family="Helvetica,sans-Serif" font-size="10.00">http::server::Response</text>
<text text-anchor="middle" x="362" y="-140.5" font-family="Helvetica,sans-Serif" font-size="10.00">::enqueue</text>
</a>
</g>
</g>
<!-- Node2&#45;&gt;Node3 -->
<g id="edge2" class="edge">
<title>Node2&#45;&gt;Node3</title>
<path fill="none" stroke="midnightblue" d="M231.54,-52.7C257.69,-72.05 302.99,-105.57 332.47,-127.39"/>
<polygon fill="midnightblue" stroke="midnightblue" points="330.59,-130.35 340.71,-133.48 334.75,-124.72 330.59,-130.35"/>
</g>
<!-- Node2&#45;&gt;Node9 -->
<g id="edge14" class="edge">
<title>Node2&#45;&gt;Node9</title>
<path fill="none" stroke="midnightblue" d="M268.3,-36.79C354.95,-35.71 519.47,-33.67 616.65,-32.46"/>
<polygon fill="midnightblue" stroke="midnightblue" points="616.75,-35.96 626.71,-32.34 616.67,-28.96 616.75,-35.96"/>
</g>
<!-- Node4 -->
<g id="node4" class="node">
<title>Node4</title>
<g id="a_node4"><a xlink:href="classhttp_1_1server_1_1_server_context_base.html#a71bb53bfd799395fb4a2111f8d8dd4e3" target="_top" xlink:title=" ">
<polygon fill="white" stroke="black" points="456,-207.5 456,-237.5 591,-237.5 591,-207.5 456,-207.5"/>
<text text-anchor="start" x="464" y="-225.5" font-family="Helvetica,sans-Serif" font-size="10.00">http::server::ServerContext</text>
<text text-anchor="middle" x="523.5" y="-214.5" font-family="Helvetica,sans-Serif" font-size="10.00">Base::responseCompleted</text>
</a>
</g>
</g>
<!-- Node3&#45;&gt;Node4 -->
<g id="edge3" class="edge">
<title>Node3&#45;&gt;Node4</title>
<path fill="none" stroke="midnightblue" d="M388.54,-163.55C406.95,-174.07 432.56,-188.04 456,-198.5 460.02,-200.29 464.21,-202.05 468.46,-203.76"/>
<polygon fill="midnightblue" stroke="midnightblue" points="467.2,-207.02 477.78,-207.39 469.73,-200.5 467.2,-207.02"/>
</g>
<!-- Node5 -->
<g id="node5" class="node">
<title>Node5</title>
<g id="a_node5"><a xlink:href="classhttp_1_1server_1_1_response.html#a7f5f47752f963e945421d8e65ae05b87" target="_top" xlink:title=" ">
<polygon fill="white" stroke="black" points="465.5,-158.5 465.5,-188.5 581.5,-188.5 581.5,-158.5 465.5,-158.5"/>
<text text-anchor="start" x="473.5" y="-176.5" font-family="Helvetica,sans-Serif" font-size="10.00">http::server::Response</text>
<text text-anchor="middle" x="523.5" y="-165.5" font-family="Helvetica,sans-Serif" font-size="10.00">::sendHeader</text>
</a>
</g>
</g>
<!-- Node3&#45;&gt;Node5 -->
<g id="edge4" class="edge">
<title>Node3&#45;&gt;Node5</title>
<path fill="none" stroke="midnightblue" d="M420.13,-150.95C432.41,-152.6 445.46,-154.6 457.99,-156.75"/>
<polygon fill="midnightblue" stroke="midnightblue" points="457.44,-160.21 467.9,-158.5 458.66,-153.31 457.44,-160.21"/>
</g>
<!-- Node12 -->
<g id="node12" class="node">
<title>Node12</title>
<g id="a_node12"><a xlink:href="classhttp_1_1server_1_1_server_context_base.html#a8ed90a09a2dd6c4144eb60622cfbc8ee" target="_top" xlink:title=" ">
<polygon fill="white" stroke="black" points="456,-109.5 456,-139.5 591,-139.5 591,-109.5 456,-109.5"/>
<text text-anchor="start" x="464" y="-127.5" font-family="Helvetica,sans-Serif" font-size="10.00">http::server::ServerContext</text>
<text text-anchor="middle" x="523.5" y="-116.5" font-family="Helvetica,sans-Serif" font-size="10.00">Base::sendResponseData</text>
</a>
</g>
</g>
<!-- Node3&#45;&gt;Node12 -->
<g id="edge12" class="edge">
<title>Node3&#45;&gt;Node12</title>
<path fill="none" stroke="midnightblue" d="M420.13,-139.9C428.48,-138.65 437.2,-137.34 445.86,-136.03"/>
<polygon fill="midnightblue" stroke="midnightblue" points="446.62,-139.46 455.99,-134.51 445.58,-132.54 446.62,-139.46"/>
</g>
<!-- Node13 -->
<g id="node13" class="node">
<title>Node13</title>
<g id="a_node13"><a xlink:href="classhttp_1_1server_1_1_server_context_base.html#aea1bf43f8ad281b0f51cb1580f04447c" target="_top" xlink:title=" ">
<polygon fill="white" stroke="black" points="456,-60.5 456,-90.5 591,-90.5 591,-60.5 456,-60.5"/>
<text text-anchor="start" x="464" y="-78.5" font-family="Helvetica,sans-Serif" font-size="10.00">http::server::ServerContext</text>
<text text-anchor="middle" x="523.5" y="-67.5" font-family="Helvetica,sans-Serif" font-size="10.00">Base::terminateConnection</text>
</a>
</g>
</g>
<!-- Node3&#45;&gt;Node13 -->
<g id="edge13" class="edge">
<title>Node3&#45;&gt;Node13</title>
<path fill="none" stroke="midnightblue" d="M390.26,-133.36C408.58,-123.45 433.42,-110.53 456,-100.5 460.74,-98.39 465.72,-96.31 470.72,-94.29"/>
<polygon fill="midnightblue" stroke="midnightblue" points="472.32,-97.42 480.34,-90.5 469.75,-90.91 472.32,-97.42"/>
</g>
<!-- Node5&#45;&gt;Node3 -->
<g id="edge6" class="edge">
<title>Node5&#45;&gt;Node3</title>
<path fill="none" stroke="midnightblue" d="M465.34,-171.04C453.15,-169.41 440.19,-167.42 427.74,-165.29"/>
<polygon fill="midnightblue" stroke="midnightblue" points="428.35,-161.84 417.89,-163.55 427.13,-168.74 428.35,-161.84"/>
</g>
<!-- Node6 -->
<g id="node6" class="node">
<title>Node6</title>
<g id="a_node6"><a xlink:href="classhttp_1_1server_1_1_response.html#a8579450e1d1732bbbec2d350b86ebef9" target="_top" xlink:title=" ">
<polygon fill="white" stroke="black" points="637,-202.5 637,-232.5 753,-232.5 753,-202.5 637,-202.5"/>
<text text-anchor="start" x="645" y="-220.5" font-family="Helvetica,sans-Serif" font-size="10.00">http::server::Response</text>
<text text-anchor="middle" x="695" y="-209.5" font-family="Helvetica,sans-Serif" font-size="10.00">::cookie</text>
</a>
</g>
</g>
<!-- Node5&#45;&gt;Node6 -->
<g id="edge5" class="edge">
<title>Node5&#45;&gt;Node6</title>
<path fill="none" stroke="midnightblue" d="M581.88,-188.4C596.46,-192.18 612.24,-196.28 627.24,-200.17"/>
<polygon fill="midnightblue" stroke="midnightblue" points="626.4,-203.57 636.96,-202.69 628.16,-196.79 626.4,-203.57"/>
</g>
<!-- Node7 -->
<g id="node7" class="node">
<title>Node7</title>
<g id="a_node7"><a xlink:href="class_status_code.html#a2c0a74bc683dca68ad14fcf0a032df29" target="_top" xlink:title=" ">
<polygon fill="white" stroke="black" points="643,-164 643,-183 747,-183 747,-164 643,-164"/>
<text text-anchor="middle" x="695" y="-171" font-family="Helvetica,sans-Serif" font-size="10.00">StatusCode::reason</text>
</a>
</g>
</g>
<!-- Node5&#45;&gt;Node7 -->
<g id="edge7" class="edge">
<title>Node5&#45;&gt;Node7</title>
<path fill="none" stroke="midnightblue" d="M581.88,-173.5C598.27,-173.5 616.18,-173.5 632.79,-173.5"/>
<polygon fill="midnightblue" stroke="midnightblue" points="632.93,-177 642.93,-173.5 632.93,-170 632.93,-177"/>
</g>
<!-- Node5&#45;&gt;Node9 -->
<g id="edge9" class="edge">
<title>Node5&#45;&gt;Node9</title>
<path fill="none" stroke="midnightblue" d="M574.89,-158.46C580.53,-155.87 586.04,-152.89 591,-149.5 612.05,-135.1 657.56,-78.44 680.38,-49.19"/>
<polygon fill="midnightblue" stroke="midnightblue" points="683.31,-51.11 686.68,-41.07 677.78,-46.82 683.31,-51.11"/>
</g>
<!-- Node11 -->
<g id="node11" class="node">
<title>Node11</title>
<g id="a_node11"><a xlink:href="namespacehttputils.html#a01539c1af68e4d072d3507ae44c0b02a" target="_top" xlink:title=" ">
<polygon fill="white" stroke="black" points="639.5,-126 639.5,-145 750.5,-145 750.5,-126 639.5,-126"/>
<text text-anchor="middle" x="695" y="-133" font-family="Helvetica,sans-Serif" font-size="10.00">httputils::to_http_date</text>
</a>
</g>
</g>
<!-- Node5&#45;&gt;Node11 -->
<g id="edge11" class="edge">
<title>Node5&#45;&gt;Node11</title>
<path fill="none" stroke="midnightblue" d="M581.88,-160.63C601.18,-156.31 622.59,-151.51 641.49,-147.27"/>
<polygon fill="midnightblue" stroke="midnightblue" points="642.42,-150.65 651.41,-145.05 640.89,-143.82 642.42,-150.65"/>
</g>
<!-- Node8 -->
<g id="node8" class="node">
<title>Node8</title>
<g id="a_node8"><a xlink:href="class_status_code.html#afa4b60d670754ca67188ea76031efd7c" target="_top" xlink:title=" ">
<polygon fill="white" stroke="black" points="799,-164 799,-183 910,-183 910,-164 799,-164"/>
<text text-anchor="middle" x="854.5" y="-171" font-family="Helvetica,sans-Serif" font-size="10.00">StatusCode::contains</text>
</a>
</g>
</g>
<!-- Node7&#45;&gt;Node8 -->
<g id="edge8" class="edge">
<title>Node7&#45;&gt;Node8</title>
<path fill="none" stroke="midnightblue" d="M747.14,-173.5C760.31,-173.5 774.66,-173.5 788.43,-173.5"/>
<polygon fill="midnightblue" stroke="midnightblue" points="788.82,-177 798.82,-173.5 788.82,-170 788.82,-177"/>
</g>
<!-- Node10 -->
<g id="node10" class="node">
<title>Node10</title>
<g id="a_node10"><a xlink:href="namespacehttputils.html#a87e2c03071ddffa8a616ea13d641aafc" target="_top" xlink:title=" ">
<polygon fill="white" stroke="black" points="807.5,-22 807.5,-41 901.5,-41 901.5,-22 807.5,-22"/>
<text text-anchor="middle" x="854.5" y="-29" font-family="Helvetica,sans-Serif" font-size="10.00">httputils::ci_comp</text>
</a>
</g>
</g>
<!-- Node9&#45;&gt;Node10 -->
<g id="edge10" class="edge">
<title>Node9&#45;&gt;Node10</title>
<path fill="none" stroke="midnightblue" d="M763.25,-31.5C774.53,-31.5 786.13,-31.5 797.1,-31.5"/>
<polygon fill="midnightblue" stroke="midnightblue" points="797.39,-35 807.39,-31.5 797.39,-28 797.39,-35"/>
</g>
</g>
</svg>
