<?xml version="1.0" encoding="UTF-8" standalone="no"?>
<!DOCTYPE svg PUBLIC "-//W3C//DTD SVG 1.1//EN"
 "http://www.w3.org/Graphics/SVG/1.1/DTD/svg11.dtd">
<!-- Generated by graphviz version 2.43.0 (0)
 -->
<!-- Title: net::socket::ipv4::tcp::Socket Pages: 1 -->
<svg width="317pt" height="851pt"
 viewBox="0.00 0.00 316.50 851.00" xmlns="http://www.w3.org/2000/svg" xmlns:xlink="http://www.w3.org/1999/xlink">
<g id="graph0" class="graph" transform="scale(1 1) rotate(0) translate(4 847)">
<title>net::socket::ipv4::tcp::Socket</title>
<polygon fill="white" stroke="transparent" points="-4,4 -4,-847 312.5,-847 312.5,4 -4,4"/>
<!-- Node1 -->
<g id="node1" class="node">
<title>Node1</title>
<g id="a_node1"><a xlink:title=" ">
<polygon fill="#bfbfbf" stroke="black" points="39,-0.5 39,-101.5 134,-101.5 134,-0.5 39,-0.5"/>
<text text-anchor="start" x="47" y="-89.5" font-family="Helvetica,sans-Serif" font-size="10.00">net::socket::ipv4::</text>
<text text-anchor="middle" x="86.5" y="-78.5" font-family="Helvetica,sans-Serif" font-size="10.00">tcp::Socket</text>
<polyline fill="none" stroke="black" points="39,-71.5 134,-71.5 "/>
<text text-anchor="middle" x="86.5" y="-59.5" font-family="Helvetica,sans-Serif" font-size="10.00"> </text>
<polyline fill="none" stroke="black" points="39,-52.5 134,-52.5 "/>
<text text-anchor="start" x="47" y="-40.5" font-family="Helvetica,sans-Serif" font-size="10.00">+ Socket()</text>
<text text-anchor="start" x="47" y="-29.5" font-family="Helvetica,sans-Serif" font-size="10.00">+ Socket()</text>
<text text-anchor="start" x="47" y="-18.5" font-family="Helvetica,sans-Serif" font-size="10.00">+ operator=()</text>
<text text-anchor="start" x="47" y="-7.5" font-family="Helvetica,sans-Serif" font-size="10.00">+ open()</text>
</a>
</g>
</g>
<!-- Node2 -->
<g id="node2" class="node">
<title>Node2</title>
<g id="a_node2"><a xlink:href="classnet_1_1socket_1_1_socket.html" target="_top" xlink:title=" ">
<polygon fill="white" stroke="black" points="35.5,-139.5 35.5,-295.5 137.5,-295.5 137.5,-139.5 35.5,-139.5"/>
<text text-anchor="start" x="43.5" y="-283.5" font-family="Helvetica,sans-Serif" font-size="10.00">net::socket::Socket</text>
<text text-anchor="start" x="43.5" y="-272.5" font-family="Helvetica,sans-Serif" font-size="10.00">&lt; net::socket::ipv4</text>
<text text-anchor="middle" x="86.5" y="-261.5" font-family="Helvetica,sans-Serif" font-size="10.00">::InetAddress &gt;</text>
<polyline fill="none" stroke="black" points="35.5,-254.5 137.5,-254.5 "/>
<text text-anchor="middle" x="86.5" y="-242.5" font-family="Helvetica,sans-Serif" font-size="10.00"> </text>
<polyline fill="none" stroke="black" points="35.5,-235.5 137.5,-235.5 "/>
<text text-anchor="start" x="43.5" y="-223.5" font-family="Helvetica,sans-Serif" font-size="10.00">+ Socket()</text>
<text text-anchor="start" x="43.5" y="-212.5" font-family="Helvetica,sans-Serif" font-size="10.00">+ Socket()</text>
<text text-anchor="start" x="43.5" y="-201.5" font-family="Helvetica,sans-Serif" font-size="10.00">+ operator=()</text>
<text text-anchor="start" x="43.5" y="-190.5" font-family="Helvetica,sans-Serif" font-size="10.00">+ ~Socket()</text>
<text text-anchor="start" x="43.5" y="-179.5" font-family="Helvetica,sans-Serif" font-size="10.00">+ open()</text>
<text text-anchor="start" x="43.5" y="-168.5" font-family="Helvetica,sans-Serif" font-size="10.00">+ bind()</text>
<text text-anchor="start" x="43.5" y="-157.5" font-family="Helvetica,sans-Serif" font-size="10.00">+ getBindAddress()</text>
<text text-anchor="start" x="43.5" y="-146.5" font-family="Helvetica,sans-Serif" font-size="10.00">+ setBindAddress()</text>
</a>
</g>
</g>
<!-- Node2&#45;&gt;Node1 -->
<g id="edge1" class="edge">
<title>Node2&#45;&gt;Node1</title>
<path fill="none" stroke="midnightblue" d="M86.5,-128.96C86.5,-119.66 86.5,-110.46 86.5,-101.82"/>
<polygon fill="none" stroke="midnightblue" points="83,-129.07 86.5,-139.07 90,-129.07 83,-129.07"/>
</g>
<!-- Node3 -->
<g id="node3" class="node">
<title>Node3</title>
<g id="a_node3"><a xlink:href="classnet_1_1_descriptor.html" target="_top" xlink:title=" ">
<polygon fill="white" stroke="black" points="0,-581.5 0,-715.5 83,-715.5 83,-581.5 0,-581.5"/>
<text text-anchor="middle" x="41.5" y="-703.5" font-family="Helvetica,sans-Serif" font-size="10.00">net::Descriptor</text>
<polyline fill="none" stroke="black" points="0,-696.5 83,-696.5 "/>
<text text-anchor="start" x="8" y="-684.5" font-family="Helvetica,sans-Serif" font-size="10.00">+ none</text>
<text text-anchor="start" x="8" y="-673.5" font-family="Helvetica,sans-Serif" font-size="10.00">&#45; fd</text>
<polyline fill="none" stroke="black" points="0,-666.5 83,-666.5 "/>
<text text-anchor="start" x="8" y="-654.5" font-family="Helvetica,sans-Serif" font-size="10.00">+ Descriptor()</text>
<text text-anchor="start" x="8" y="-643.5" font-family="Helvetica,sans-Serif" font-size="10.00">+ operator=()</text>
<text text-anchor="start" x="8" y="-632.5" font-family="Helvetica,sans-Serif" font-size="10.00">+ ~Descriptor()</text>
<text text-anchor="start" x="8" y="-621.5" font-family="Helvetica,sans-Serif" font-size="10.00">+ open()</text>
<text text-anchor="start" x="8" y="-610.5" font-family="Helvetica,sans-Serif" font-size="10.00">+ getFd()</text>
<text text-anchor="start" x="8" y="-599.5" font-family="Helvetica,sans-Serif" font-size="10.00">+ dontClose()</text>
<text text-anchor="start" x="8" y="-588.5" font-family="Helvetica,sans-Serif" font-size="10.00"># Descriptor()</text>
</a>
</g>
</g>
<!-- Node3&#45;&gt;Node2 -->
<g id="edge2" class="edge">
<title>Node3&#45;&gt;Node2</title>
<path fill="none" stroke="midnightblue" d="M25.39,-571.29C15.48,-511.51 7.46,-426.57 23.5,-354 27.84,-334.37 35.33,-314.21 43.66,-295.63"/>
<polygon fill="none" stroke="midnightblue" points="21.98,-572.14 27.12,-581.41 28.88,-570.96 21.98,-572.14"/>
</g>
<!-- Node7 -->
<g id="node7" class="node">
<title>Node7</title>
<g id="a_node7"><a xlink:href="classnet_1_1socket_1_1_socket.html" target="_top" xlink:title=" ">
<polygon fill="white" stroke="black" points="33,-376.5 33,-521.5 140,-521.5 140,-376.5 33,-376.5"/>
<text text-anchor="start" x="41" y="-509.5" font-family="Helvetica,sans-Serif" font-size="10.00">net::socket::Socket</text>
<text text-anchor="middle" x="86.5" y="-498.5" font-family="Helvetica,sans-Serif" font-size="10.00">&lt; SocketAddressT &gt;</text>
<polyline fill="none" stroke="black" points="33,-491.5 140,-491.5 "/>
<text text-anchor="start" x="41" y="-479.5" font-family="Helvetica,sans-Serif" font-size="10.00"># bindAddress</text>
<polyline fill="none" stroke="black" points="33,-472.5 140,-472.5 "/>
<text text-anchor="start" x="41" y="-460.5" font-family="Helvetica,sans-Serif" font-size="10.00">+ Socket()</text>
<text text-anchor="start" x="41" y="-449.5" font-family="Helvetica,sans-Serif" font-size="10.00">+ Socket()</text>
<text text-anchor="start" x="41" y="-438.5" font-family="Helvetica,sans-Serif" font-size="10.00">+ operator=()</text>
<text text-anchor="start" x="41" y="-427.5" font-family="Helvetica,sans-Serif" font-size="10.00">+ ~Socket()</text>
<text text-anchor="start" x="41" y="-416.5" font-family="Helvetica,sans-Serif" font-size="10.00">+ open()</text>
<text text-anchor="start" x="41" y="-405.5" font-family="Helvetica,sans-Serif" font-size="10.00">+ bind()</text>
<text text-anchor="start" x="41" y="-394.5" font-family="Helvetica,sans-Serif" font-size="10.00">+ getBindAddress()</text>
<text text-anchor="start" x="41" y="-383.5" font-family="Helvetica,sans-Serif" font-size="10.00">+ setBindAddress()</text>
</a>
</g>
</g>
<!-- Node3&#45;&gt;Node7 -->
<g id="edge7" class="edge">
<title>Node3&#45;&gt;Node7</title>
<path fill="none" stroke="midnightblue" d="M58.83,-571.43C62.55,-555.1 66.47,-537.9 70.15,-521.75"/>
<polygon fill="none" stroke="midnightblue" points="55.36,-570.93 56.55,-581.46 62.18,-572.49 55.36,-570.93"/>
</g>
<!-- Node4 -->
<g id="node4" class="node">
<title>Node4</title>
<g id="a_node4"><a xlink:href="classnet_1_1socket_1_1ipv4_1_1_inet_address.html" target="_top" xlink:title=" ">
<polygon fill="white" stroke="black" points="158.5,-354.5 158.5,-543.5 254.5,-543.5 254.5,-354.5 158.5,-354.5"/>
<text text-anchor="start" x="166.5" y="-531.5" font-family="Helvetica,sans-Serif" font-size="10.00">net::socket::ipv4::</text>
<text text-anchor="middle" x="206.5" y="-520.5" font-family="Helvetica,sans-Serif" font-size="10.00">InetAddress</text>
<polyline fill="none" stroke="black" points="158.5,-513.5 254.5,-513.5 "/>
<text text-anchor="middle" x="206.5" y="-501.5" font-family="Helvetica,sans-Serif" font-size="10.00"> </text>
<polyline fill="none" stroke="black" points="158.5,-494.5 254.5,-494.5 "/>
<text text-anchor="start" x="166.5" y="-482.5" font-family="Helvetica,sans-Serif" font-size="10.00">+ InetAddress()</text>
<text text-anchor="start" x="166.5" y="-471.5" font-family="Helvetica,sans-Serif" font-size="10.00">+ InetAddress()</text>
<text text-anchor="start" x="166.5" y="-460.5" font-family="Helvetica,sans-Serif" font-size="10.00">+ InetAddress()</text>
<text text-anchor="start" x="166.5" y="-449.5" font-family="Helvetica,sans-Serif" font-size="10.00">+ InetAddress()</text>
<text text-anchor="start" x="166.5" y="-438.5" font-family="Helvetica,sans-Serif" font-size="10.00">+ InetAddress()</text>
<text text-anchor="start" x="166.5" y="-427.5" font-family="Helvetica,sans-Serif" font-size="10.00">+ InetAddress()</text>
<text text-anchor="start" x="166.5" y="-416.5" font-family="Helvetica,sans-Serif" font-size="10.00">+ port()</text>
<text text-anchor="start" x="166.5" y="-405.5" font-family="Helvetica,sans-Serif" font-size="10.00">+ host()</text>
<text text-anchor="start" x="166.5" y="-394.5" font-family="Helvetica,sans-Serif" font-size="10.00">+ ip()</text>
<text text-anchor="start" x="166.5" y="-383.5" font-family="Helvetica,sans-Serif" font-size="10.00">+ serv()</text>
<text text-anchor="start" x="166.5" y="-372.5" font-family="Helvetica,sans-Serif" font-size="10.00">+ operator=()</text>
<text text-anchor="start" x="166.5" y="-361.5" font-family="Helvetica,sans-Serif" font-size="10.00">+ getSockAddrIn()</text>
</a>
</g>
</g>
<!-- Node4&#45;&gt;Node2 -->
<g id="edge3" class="edge">
<title>Node4&#45;&gt;Node2</title>
<path fill="none" stroke="#404040" d="M191.43,-354.17C187.33,-340.26 182.11,-326.44 175.5,-314 167.71,-299.35 157.09,-285.26 145.9,-272.62"/>
<polygon fill="none" stroke="#404040" points="145.81,-272.52 138.8,-270.81 137.69,-263.68 144.69,-265.39 145.81,-272.52"/>
<text text-anchor="middle" x="216" y="-322.5" font-family="Helvetica,sans-Serif" font-size="10.00"> #bindAddress</text>
</g>
<!-- Node5 -->
<g id="node5" class="node">
<title>Node5</title>
<g id="a_node5"><a xlink:href="classnet_1_1socket_1_1_socket_address.html" target="_top" xlink:title=" ">
<polygon fill="white" stroke="black" points="137.5,-609 137.5,-688 275.5,-688 275.5,-609 137.5,-609"/>
<text text-anchor="start" x="145.5" y="-676" font-family="Helvetica,sans-Serif" font-size="10.00">net::socket::SocketAddress</text>
<text text-anchor="middle" x="206.5" y="-665" font-family="Helvetica,sans-Serif" font-size="10.00">&lt; struct sockaddr_in &gt;</text>
<polyline fill="none" stroke="black" points="137.5,-658 275.5,-658 "/>
<text text-anchor="start" x="145.5" y="-646" font-family="Helvetica,sans-Serif" font-size="10.00"># sockAddr</text>
<polyline fill="none" stroke="black" points="137.5,-639 275.5,-639 "/>
<text text-anchor="start" x="145.5" y="-627" font-family="Helvetica,sans-Serif" font-size="10.00">+ getSockAddr()</text>
<text text-anchor="start" x="145.5" y="-616" font-family="Helvetica,sans-Serif" font-size="10.00">+ getSockAddrLen()</text>
</a>
</g>
</g>
<!-- Node5&#45;&gt;Node4 -->
<g id="edge4" class="edge">
<title>Node5&#45;&gt;Node4</title>
<path fill="none" stroke="midnightblue" d="M206.5,-598.9C206.5,-582.16 206.5,-562.81 206.5,-543.72"/>
<polygon fill="none" stroke="midnightblue" points="203,-598.95 206.5,-608.95 210,-598.95 203,-598.95"/>
</g>
<!-- Node6 -->
<g id="node6" class="node">
<title>Node6</title>
<g id="a_node6"><a xlink:href="classnet_1_1socket_1_1_socket_address.html" target="_top" xlink:title=" ">
<polygon fill="white" stroke="black" points="137.5,-763.5 137.5,-842.5 275.5,-842.5 275.5,-763.5 137.5,-763.5"/>
<text text-anchor="start" x="145.5" y="-830.5" font-family="Helvetica,sans-Serif" font-size="10.00">net::socket::SocketAddress</text>
<text text-anchor="middle" x="206.5" y="-819.5" font-family="Helvetica,sans-Serif" font-size="10.00">&lt; SockAddrT &gt;</text>
<polyline fill="none" stroke="black" points="137.5,-812.5 275.5,-812.5 "/>
<text text-anchor="start" x="145.5" y="-800.5" font-family="Helvetica,sans-Serif" font-size="10.00"># sockAddr</text>
<polyline fill="none" stroke="black" points="137.5,-793.5 275.5,-793.5 "/>
<text text-anchor="start" x="145.5" y="-781.5" font-family="Helvetica,sans-Serif" font-size="10.00">+ getSockAddr()</text>
<text text-anchor="start" x="145.5" y="-770.5" font-family="Helvetica,sans-Serif" font-size="10.00">+ getSockAddrLen()</text>
</a>
</g>
</g>
<!-- Node6&#45;&gt;Node5 -->
<g id="edge5" class="edge">
<title>Node6&#45;&gt;Node5</title>
<path fill="none" stroke="orange" d="M206.5,-753.08C206.5,-732.03 206.5,-707.78 206.5,-688.04"/>
<polygon fill="orange" stroke="orange" points="203,-753.12 206.5,-763.12 210,-753.12 203,-753.12"/>
<text text-anchor="middle" x="257.5" y="-737" font-family="Helvetica,sans-Serif" font-size="10.00"> &lt; struct sockaddr_in &gt;</text>
</g>
<!-- Node7&#45;&gt;Node2 -->
<g id="edge6" class="edge">
<title>Node7&#45;&gt;Node2</title>
<path fill="none" stroke="orange" d="M86.5,-366.26C86.5,-343.25 86.5,-318.32 86.5,-295.59"/>
<polygon fill="orange" stroke="orange" points="83,-366.33 86.5,-376.33 90,-366.33 83,-366.33"/>
<text text-anchor="start" x="86.5" y="-328" font-family="Helvetica,sans-Serif" font-size="10.00"> &lt; net::socket::ipv4</text>
<text text-anchor="middle" x="129" y="-317" font-family="Helvetica,sans-Serif" font-size="10.00">::InetAddress &gt;</text>
</g>
</g>
</svg>
