<?xml version="1.0" encoding="UTF-8" standalone="no"?>
<!DOCTYPE svg PUBLIC "-//W3C//DTD SVG 1.1//EN"
 "http://www.w3.org/Graphics/SVG/1.1/DTD/svg11.dtd">
<!-- Generated by graphviz version 2.43.0 (0)
 -->
<!-- Title: net::OutOfBandEventReceiver::enable Pages: 1 -->
<svg width="640pt" height="244pt"
 viewBox="0.00 0.00 640.00 244.00" xmlns="http://www.w3.org/2000/svg" xmlns:xlink="http://www.w3.org/1999/xlink">
<g id="graph0" class="graph" transform="scale(1 1) rotate(0) translate(4 240)">
<title>net::OutOfBandEventReceiver::enable</title>
<polygon fill="white" stroke="transparent" points="-4,4 -4,-240 636,-240 636,4 -4,4"/>
<!-- Node1 -->
<g id="node1" class="node">
<title>Node1</title>
<g id="a_node1"><a xlink:title=" ">
<polygon fill="#bfbfbf" stroke="black" points="0,-112.5 0,-142.5 149,-142.5 149,-112.5 0,-112.5"/>
<text text-anchor="start" x="8" y="-130.5" font-family="Helvetica,sans-Serif" font-size="10.00">net::OutOfBandEventReceiver</text>
<text text-anchor="middle" x="74.5" y="-119.5" font-family="Helvetica,sans-Serif" font-size="10.00">::enable</text>
</a>
</g>
</g>
<!-- Node2 -->
<g id="node2" class="node">
<title>Node2</title>
<g id="a_node2"><a xlink:href="classnet_1_1_event_dispatcher.html#a43d8ab9b3682e02451d2bd1c1e202e74" target="_top" xlink:title=" ">
<polygon fill="white" stroke="black" points="205,-205.5 205,-235.5 314,-235.5 314,-205.5 205,-205.5"/>
<text text-anchor="start" x="213" y="-223.5" font-family="Helvetica,sans-Serif" font-size="10.00">net::EventDispatcher</text>
<text text-anchor="middle" x="259.5" y="-212.5" font-family="Helvetica,sans-Serif" font-size="10.00">::enable</text>
</a>
</g>
</g>
<!-- Node1&#45;&gt;Node2 -->
<g id="edge1" class="edge">
<title>Node1&#45;&gt;Node2</title>
<path fill="none" stroke="midnightblue" d="M96.02,-142.6C117.39,-157.8 152.25,-181.13 185,-196.5 189,-198.38 193.2,-200.17 197.46,-201.87"/>
<polygon fill="midnightblue" stroke="midnightblue" points="196.27,-205.17 206.86,-205.43 198.75,-198.62 196.27,-205.17"/>
</g>
<!-- Node3 -->
<g id="node3" class="node">
<title>Node3</title>
<g id="a_node3"><a xlink:href="classnet_1_1_event_loop.html#adadaec4603719a5b6946abef06c5fa67" target="_top" xlink:title=" ">
<polygon fill="white" stroke="black" points="195.5,-156.5 195.5,-186.5 323.5,-186.5 323.5,-156.5 195.5,-156.5"/>
<text text-anchor="start" x="203.5" y="-174.5" font-family="Helvetica,sans-Serif" font-size="10.00">net::EventLoop::getOutOf</text>
<text text-anchor="middle" x="259.5" y="-163.5" font-family="Helvetica,sans-Serif" font-size="10.00">BandEventDispatcher</text>
</a>
</g>
</g>
<!-- Node1&#45;&gt;Node3 -->
<g id="edge2" class="edge">
<title>Node1&#45;&gt;Node3</title>
<path fill="none" stroke="midnightblue" d="M137.97,-142.52C153.49,-146.25 170.25,-150.28 186.2,-154.12"/>
<polygon fill="midnightblue" stroke="midnightblue" points="185.46,-157.54 196,-156.47 187.1,-150.73 185.46,-157.54"/>
</g>
<!-- Node4 -->
<g id="node4" class="node">
<title>Node4</title>
<g id="a_node4"><a xlink:href="classnet_1_1_event_loop.html#a6d8bfd6fa03bb6bf423035ab190657ef" target="_top" xlink:title=" ">
<polygon fill="white" stroke="black" points="370,-143 370,-162 495,-162 495,-143 370,-143"/>
<text text-anchor="middle" x="432.5" y="-150" font-family="Helvetica,sans-Serif" font-size="10.00">net::EventLoop::instance</text>
</a>
</g>
</g>
<!-- Node1&#45;&gt;Node4 -->
<g id="edge3" class="edge">
<title>Node1&#45;&gt;Node4</title>
<path fill="none" stroke="midnightblue" d="M149.26,-132.68C210.97,-137.01 298.47,-143.16 359.64,-147.45"/>
<polygon fill="midnightblue" stroke="midnightblue" points="359.76,-150.97 369.98,-148.18 360.25,-143.99 359.76,-150.97"/>
</g>
<!-- Node5 -->
<g id="node5" class="node">
<title>Node5</title>
<g id="a_node5"><a xlink:href="classnet_1_1_out_of_band_event_receiver.html#a6172e7309754c364312a23889c894ef7" target="_top" xlink:title=" ">
<polygon fill="white" stroke="black" points="185,-68.5 185,-98.5 334,-98.5 334,-68.5 185,-68.5"/>
<text text-anchor="start" x="193" y="-86.5" font-family="Helvetica,sans-Serif" font-size="10.00">net::OutOfBandEventReceiver</text>
<text text-anchor="middle" x="259.5" y="-75.5" font-family="Helvetica,sans-Serif" font-size="10.00">::setTimeout</text>
</a>
</g>
</g>
<!-- Node1&#45;&gt;Node5 -->
<g id="edge4" class="edge">
<title>Node1&#45;&gt;Node5</title>
<path fill="none" stroke="midnightblue" d="M137.97,-112.48C153.49,-108.75 170.25,-104.72 186.2,-100.88"/>
<polygon fill="midnightblue" stroke="midnightblue" points="187.1,-104.27 196,-98.53 185.46,-97.46 187.1,-104.27"/>
</g>
<!-- Node8 -->
<g id="node8" class="node">
<title>Node8</title>
<g id="a_node8"><a xlink:href="classnet_1_1_event_receiver.html#ad2da553049435ab5f08b0fe24b5bd210" target="_top" xlink:title=" ">
<polygon fill="white" stroke="black" points="531,-0.5 531,-30.5 632,-30.5 632,-0.5 531,-0.5"/>
<text text-anchor="start" x="539" y="-18.5" font-family="Helvetica,sans-Serif" font-size="10.00">net::EventReceiver</text>
<text text-anchor="middle" x="581.5" y="-7.5" font-family="Helvetica,sans-Serif" font-size="10.00">::timeout</text>
</a>
</g>
</g>
<!-- Node1&#45;&gt;Node8 -->
<g id="edge10" class="edge">
<title>Node1&#45;&gt;Node8</title>
<path fill="none" stroke="midnightblue" d="M95.44,-112.43C116.63,-97.09 151.61,-73.61 185,-59.5 313.31,-5.3 355.72,-11.87 495,-13.5 503.32,-13.6 512.1,-13.75 520.74,-13.92"/>
<polygon fill="midnightblue" stroke="midnightblue" points="520.7,-17.42 530.77,-14.14 520.85,-10.43 520.7,-17.42"/>
</g>
<!-- Node5&#45;&gt;Node4 -->
<g id="edge6" class="edge">
<title>Node5&#45;&gt;Node4</title>
<path fill="none" stroke="midnightblue" d="M299.79,-98.52C310.96,-103.07 323.06,-108.25 334,-113.5 350.5,-121.42 353.17,-126.32 370,-133.5 375.33,-135.78 381.03,-137.91 386.73,-139.87"/>
<polygon fill="midnightblue" stroke="midnightblue" points="385.65,-143.2 396.25,-142.98 387.83,-136.55 385.65,-143.2"/>
</g>
<!-- Node6 -->
<g id="node6" class="node">
<title>Node6</title>
<g id="a_node6"><a xlink:href="classnet_1_1_event_receiver.html#a42477f416cc319660c15318f674f7cda" target="_top" xlink:title=" ">
<polygon fill="white" stroke="black" points="382,-93.5 382,-123.5 483,-123.5 483,-93.5 382,-93.5"/>
<text text-anchor="start" x="390" y="-111.5" font-family="Helvetica,sans-Serif" font-size="10.00">net::EventReceiver</text>
<text text-anchor="middle" x="432.5" y="-100.5" font-family="Helvetica,sans-Serif" font-size="10.00">::getTimeout</text>
</a>
</g>
</g>
<!-- Node5&#45;&gt;Node6 -->
<g id="edge5" class="edge">
<title>Node5&#45;&gt;Node6</title>
<path fill="none" stroke="midnightblue" d="M334.01,-94.25C346.67,-96.1 359.69,-98 371.92,-99.79"/>
<polygon fill="midnightblue" stroke="midnightblue" points="371.59,-103.28 381.99,-101.26 372.6,-96.35 371.59,-103.28"/>
</g>
<!-- Node7 -->
<g id="node7" class="node">
<title>Node7</title>
<g id="a_node7"><a xlink:href="classnet_1_1_event_receiver.html#a26d6a5c5cdd5300540a937c17f91fdcd" target="_top" xlink:title=" ">
<polygon fill="white" stroke="black" points="382,-44.5 382,-74.5 483,-74.5 483,-44.5 382,-44.5"/>
<text text-anchor="start" x="390" y="-62.5" font-family="Helvetica,sans-Serif" font-size="10.00">net::EventReceiver</text>
<text text-anchor="middle" x="432.5" y="-51.5" font-family="Helvetica,sans-Serif" font-size="10.00">::setTimeout</text>
</a>
</g>
</g>
<!-- Node5&#45;&gt;Node7 -->
<g id="edge7" class="edge">
<title>Node5&#45;&gt;Node7</title>
<path fill="none" stroke="midnightblue" d="M334.01,-73.18C346.67,-71.41 359.69,-69.58 371.92,-67.86"/>
<polygon fill="midnightblue" stroke="midnightblue" points="372.57,-71.3 381.99,-66.45 371.6,-64.37 372.57,-71.3"/>
</g>
<!-- Node5&#45;&gt;Node8 -->
<g id="edge9" class="edge">
<title>Node5&#45;&gt;Node8</title>
<path fill="none" stroke="midnightblue" d="M287.48,-68.39C309.1,-57.04 340.58,-42.18 370,-34.5 419.69,-21.53 477.97,-17.06 520.59,-15.68"/>
<polygon fill="midnightblue" stroke="midnightblue" points="520.9,-19.17 530.8,-15.39 520.7,-12.17 520.9,-19.17"/>
</g>
<!-- Node7&#45;&gt;Node8 -->
<g id="edge8" class="edge">
<title>Node7&#45;&gt;Node8</title>
<path fill="none" stroke="midnightblue" d="M483.27,-44.6C495.36,-40.98 508.41,-37.08 520.91,-33.34"/>
<polygon fill="midnightblue" stroke="midnightblue" points="522.21,-36.6 530.78,-30.38 520.2,-29.9 522.21,-36.6"/>
</g>
</g>
</svg>
