<?xml version="1.0" encoding="UTF-8" standalone="no"?>
<!DOCTYPE svg PUBLIC "-//W3C//DTD SVG 1.1//EN"
 "http://www.w3.org/Graphics/SVG/1.1/DTD/svg11.dtd">
<!-- Generated by graphviz version 2.43.0 (0)
 -->
<!-- Title: net::socket::stream::legacy::SocketConnection&lt; SocketT &gt; Pages: 1 -->
<svg width="704pt" height="1536pt"
 viewBox="0.00 0.00 703.50 1536.00" xmlns="http://www.w3.org/2000/svg" xmlns:xlink="http://www.w3.org/1999/xlink">
<g id="graph0" class="graph" transform="scale(1 1) rotate(0) translate(4 1532)">
<title>net::socket::stream::legacy::SocketConnection&lt; SocketT &gt;</title>
<polygon fill="white" stroke="transparent" points="-4,4 -4,-1532 699.5,-1532 699.5,4 -4,4"/>
<!-- Node1 -->
<g id="node1" class="node">
<title>Node1</title>
<g id="a_node1"><a xlink:title=" ">
<polygon fill="#bfbfbf" stroke="black" points="312,-0.5 312,-79.5 449,-79.5 449,-0.5 312,-0.5"/>
<text text-anchor="start" x="320" y="-67.5" font-family="Helvetica,sans-Serif" font-size="10.00">net::socket::stream</text>
<text text-anchor="start" x="320" y="-56.5" font-family="Helvetica,sans-Serif" font-size="10.00">::legacy::SocketConnection</text>
<text text-anchor="middle" x="380.5" y="-45.5" font-family="Helvetica,sans-Serif" font-size="10.00">&lt; SocketT &gt;</text>
<polyline fill="none" stroke="black" points="312,-38.5 449,-38.5 "/>
<text text-anchor="middle" x="380.5" y="-26.5" font-family="Helvetica,sans-Serif" font-size="10.00"> </text>
<polyline fill="none" stroke="black" points="312,-19.5 449,-19.5 "/>
<text text-anchor="start" x="320" y="-7.5" font-family="Helvetica,sans-Serif" font-size="10.00">+ SocketConnection()</text>
</a>
</g>
</g>
<!-- Node2 -->
<g id="node2" class="node">
<title>Node2</title>
<g id="a_node2"><a xlink:href="classnet_1_1socket_1_1stream_1_1_socket_connection.html" target="_top" xlink:title=" ">
<polygon fill="white" stroke="black" points="283.5,-117.5 283.5,-361.5 477.5,-361.5 477.5,-117.5 283.5,-117.5"/>
<text text-anchor="start" x="291.5" y="-349.5" font-family="Helvetica,sans-Serif" font-size="10.00">net::socket::stream</text>
<text text-anchor="start" x="291.5" y="-338.5" font-family="Helvetica,sans-Serif" font-size="10.00">::SocketConnection&lt;</text>
<text text-anchor="start" x="291.5" y="-327.5" font-family="Helvetica,sans-Serif" font-size="10.00"> legacy::SocketReader</text>
<text text-anchor="start" x="291.5" y="-316.5" font-family="Helvetica,sans-Serif" font-size="10.00">&lt; SocketT &gt;, legacy::SocketWriter</text>
<text text-anchor="middle" x="380.5" y="-305.5" font-family="Helvetica,sans-Serif" font-size="10.00">&lt; SocketT &gt;, SocketT::SocketAddress &gt;</text>
<polyline fill="none" stroke="black" points="283.5,-298.5 477.5,-298.5 "/>
<text text-anchor="start" x="291.5" y="-286.5" font-family="Helvetica,sans-Serif" font-size="10.00">&#45; remoteAddress</text>
<text text-anchor="start" x="291.5" y="-275.5" font-family="Helvetica,sans-Serif" font-size="10.00">&#45; localAddress</text>
<text text-anchor="start" x="291.5" y="-264.5" font-family="Helvetica,sans-Serif" font-size="10.00">&#45; onDestruct</text>
<text text-anchor="start" x="291.5" y="-253.5" font-family="Helvetica,sans-Serif" font-size="10.00">&#45; onDisconnect</text>
<polyline fill="none" stroke="black" points="283.5,-246.5 477.5,-246.5 "/>
<text text-anchor="start" x="291.5" y="-234.5" font-family="Helvetica,sans-Serif" font-size="10.00">+ SocketConnection()</text>
<text text-anchor="start" x="291.5" y="-223.5" font-family="Helvetica,sans-Serif" font-size="10.00">+ SocketConnection()</text>
<text text-anchor="start" x="291.5" y="-212.5" font-family="Helvetica,sans-Serif" font-size="10.00">+ enqueue()</text>
<text text-anchor="start" x="291.5" y="-201.5" font-family="Helvetica,sans-Serif" font-size="10.00">+ enqueue()</text>
<text text-anchor="start" x="291.5" y="-190.5" font-family="Helvetica,sans-Serif" font-size="10.00">+ close()</text>
<text text-anchor="start" x="291.5" y="-179.5" font-family="Helvetica,sans-Serif" font-size="10.00">+ getRemoteAddress()</text>
<text text-anchor="start" x="291.5" y="-168.5" font-family="Helvetica,sans-Serif" font-size="10.00">+ setRemoteAddress()</text>
<text text-anchor="start" x="291.5" y="-157.5" font-family="Helvetica,sans-Serif" font-size="10.00">+ getLocalAddress()</text>
<text text-anchor="start" x="291.5" y="-146.5" font-family="Helvetica,sans-Serif" font-size="10.00">+ setLocalAddress()</text>
<text text-anchor="start" x="291.5" y="-135.5" font-family="Helvetica,sans-Serif" font-size="10.00"># ~SocketConnection()</text>
<text text-anchor="start" x="291.5" y="-124.5" font-family="Helvetica,sans-Serif" font-size="10.00">&#45; unobserved()</text>
</a>
</g>
</g>
<!-- Node2&#45;&gt;Node1 -->
<g id="edge1" class="edge">
<title>Node2&#45;&gt;Node1</title>
<path fill="none" stroke="midnightblue" d="M380.5,-107.31C380.5,-97.4 380.5,-87.99 380.5,-79.52"/>
<polygon fill="none" stroke="midnightblue" points="377,-107.36 380.5,-117.36 384,-107.36 377,-107.36"/>
</g>
<!-- Node3 -->
<g id="node3" class="node">
<title>Node3</title>
<g id="a_node3"><a xlink:href="classnet_1_1socket_1_1stream_1_1_socket_connection_base.html" target="_top" xlink:title=" ">
<polygon fill="white" stroke="black" points="200.5,-702.5 200.5,-880.5 340.5,-880.5 340.5,-702.5 200.5,-702.5"/>
<text text-anchor="start" x="208.5" y="-868.5" font-family="Helvetica,sans-Serif" font-size="10.00">net::socket::stream</text>
<text text-anchor="middle" x="270.5" y="-857.5" font-family="Helvetica,sans-Serif" font-size="10.00">::SocketConnectionBase</text>
<polyline fill="none" stroke="black" points="200.5,-850.5 340.5,-850.5 "/>
<text text-anchor="middle" x="270.5" y="-838.5" font-family="Helvetica,sans-Serif" font-size="10.00"> </text>
<polyline fill="none" stroke="black" points="200.5,-831.5 340.5,-831.5 "/>
<text text-anchor="start" x="208.5" y="-819.5" font-family="Helvetica,sans-Serif" font-size="10.00">+ SocketConnectionBase()</text>
<text text-anchor="start" x="208.5" y="-808.5" font-family="Helvetica,sans-Serif" font-size="10.00">+ SocketConnectionBase()</text>
<text text-anchor="start" x="208.5" y="-797.5" font-family="Helvetica,sans-Serif" font-size="10.00">+ operator=()</text>
<text text-anchor="start" x="208.5" y="-786.5" font-family="Helvetica,sans-Serif" font-size="10.00">+ enqueue()</text>
<text text-anchor="start" x="208.5" y="-775.5" font-family="Helvetica,sans-Serif" font-size="10.00">+ enqueue()</text>
<text text-anchor="start" x="208.5" y="-764.5" font-family="Helvetica,sans-Serif" font-size="10.00">+ close()</text>
<text text-anchor="start" x="208.5" y="-753.5" font-family="Helvetica,sans-Serif" font-size="10.00">+ setContext()</text>
<text text-anchor="start" x="208.5" y="-742.5" font-family="Helvetica,sans-Serif" font-size="10.00">+ setContext()</text>
<text text-anchor="start" x="208.5" y="-731.5" font-family="Helvetica,sans-Serif" font-size="10.00">+ getContext()</text>
<text text-anchor="start" x="208.5" y="-720.5" font-family="Helvetica,sans-Serif" font-size="10.00">+ getContext()</text>
<text text-anchor="start" x="208.5" y="-709.5" font-family="Helvetica,sans-Serif" font-size="10.00"># ~SocketConnectionBase()</text>
</a>
</g>
</g>
<!-- Node3&#45;&gt;Node2 -->
<g id="edge2" class="edge">
<title>Node3&#45;&gt;Node2</title>
<path fill="none" stroke="midnightblue" d="M290.1,-692.51C308.6,-600 336.4,-461.01 356.28,-361.59"/>
<polygon fill="none" stroke="midnightblue" points="286.64,-691.95 288.11,-702.44 293.51,-693.32 286.64,-691.95"/>
</g>
<!-- Node14 -->
<g id="node14" class="node">
<title>Node14</title>
<g id="a_node14"><a xlink:href="classnet_1_1socket_1_1stream_1_1_socket_connection.html" target="_top" xlink:title=" ">
<polygon fill="white" stroke="black" points="69,-431.5 69,-664.5 218,-664.5 218,-431.5 69,-431.5"/>
<text text-anchor="start" x="77" y="-652.5" font-family="Helvetica,sans-Serif" font-size="10.00">net::socket::stream</text>
<text text-anchor="start" x="77" y="-641.5" font-family="Helvetica,sans-Serif" font-size="10.00">::SocketConnection&lt;</text>
<text text-anchor="start" x="77" y="-630.5" font-family="Helvetica,sans-Serif" font-size="10.00"> SocketReaderT, SocketWriter</text>
<text text-anchor="middle" x="143.5" y="-619.5" font-family="Helvetica,sans-Serif" font-size="10.00">T, SocketAddressT &gt;</text>
<polyline fill="none" stroke="black" points="69,-612.5 218,-612.5 "/>
<text text-anchor="start" x="77" y="-600.5" font-family="Helvetica,sans-Serif" font-size="10.00">&#45; remoteAddress</text>
<text text-anchor="start" x="77" y="-589.5" font-family="Helvetica,sans-Serif" font-size="10.00">&#45; localAddress</text>
<text text-anchor="start" x="77" y="-578.5" font-family="Helvetica,sans-Serif" font-size="10.00">&#45; onDestruct</text>
<text text-anchor="start" x="77" y="-567.5" font-family="Helvetica,sans-Serif" font-size="10.00">&#45; onDisconnect</text>
<polyline fill="none" stroke="black" points="69,-560.5 218,-560.5 "/>
<text text-anchor="start" x="77" y="-548.5" font-family="Helvetica,sans-Serif" font-size="10.00">+ SocketConnection()</text>
<text text-anchor="start" x="77" y="-537.5" font-family="Helvetica,sans-Serif" font-size="10.00">+ SocketConnection()</text>
<text text-anchor="start" x="77" y="-526.5" font-family="Helvetica,sans-Serif" font-size="10.00">+ enqueue()</text>
<text text-anchor="start" x="77" y="-515.5" font-family="Helvetica,sans-Serif" font-size="10.00">+ enqueue()</text>
<text text-anchor="start" x="77" y="-504.5" font-family="Helvetica,sans-Serif" font-size="10.00">+ close()</text>
<text text-anchor="start" x="77" y="-493.5" font-family="Helvetica,sans-Serif" font-size="10.00">+ getRemoteAddress()</text>
<text text-anchor="start" x="77" y="-482.5" font-family="Helvetica,sans-Serif" font-size="10.00">+ setRemoteAddress()</text>
<text text-anchor="start" x="77" y="-471.5" font-family="Helvetica,sans-Serif" font-size="10.00">+ getLocalAddress()</text>
<text text-anchor="start" x="77" y="-460.5" font-family="Helvetica,sans-Serif" font-size="10.00">+ setLocalAddress()</text>
<text text-anchor="start" x="77" y="-449.5" font-family="Helvetica,sans-Serif" font-size="10.00"># ~SocketConnection()</text>
<text text-anchor="start" x="77" y="-438.5" font-family="Helvetica,sans-Serif" font-size="10.00">&#45; unobserved()</text>
</a>
</g>
</g>
<!-- Node3&#45;&gt;Node14 -->
<g id="edge16" class="edge">
<title>Node3&#45;&gt;Node14</title>
<path fill="none" stroke="midnightblue" d="M219.39,-693.3C214.42,-683.86 209.35,-674.21 204.3,-664.61"/>
<polygon fill="none" stroke="midnightblue" points="216.36,-695.07 224.11,-702.29 222.55,-691.81 216.36,-695.07"/>
</g>
<!-- Node4 -->
<g id="node4" class="node">
<title>Node4</title>
<g id="a_node4"><a xlink:href="classutils_1_1_single_attribute_injector.html" target="_top" xlink:title=" ">
<polygon fill="white" stroke="black" points="202,-945 202,-1046 339,-1046 339,-945 202,-945"/>
<text text-anchor="middle" x="270.5" y="-1034" font-family="Helvetica,sans-Serif" font-size="10.00">utils::SingleAttributeInjector</text>
<polyline fill="none" stroke="black" points="202,-1027 339,-1027 "/>
<text text-anchor="start" x="210" y="-1015" font-family="Helvetica,sans-Serif" font-size="10.00">&#45; attribute</text>
<text text-anchor="start" x="210" y="-1004" font-family="Helvetica,sans-Serif" font-size="10.00">&#45; attributeType</text>
<polyline fill="none" stroke="black" points="202,-997 339,-997 "/>
<text text-anchor="start" x="210" y="-985" font-family="Helvetica,sans-Serif" font-size="10.00">+ setAttribute()</text>
<text text-anchor="start" x="210" y="-974" font-family="Helvetica,sans-Serif" font-size="10.00">+ setAttribute()</text>
<text text-anchor="start" x="210" y="-963" font-family="Helvetica,sans-Serif" font-size="10.00">+ getAttribute()</text>
<text text-anchor="start" x="210" y="-952" font-family="Helvetica,sans-Serif" font-size="10.00">+ getAttribute()</text>
</a>
</g>
</g>
<!-- Node4&#45;&gt;Node3 -->
<g id="edge3" class="edge">
<title>Node4&#45;&gt;Node3</title>
<path fill="none" stroke="#404040" d="M270.5,-944.83C270.5,-929 270.5,-910.87 270.5,-892.78"/>
<polygon fill="none" stroke="#404040" points="270.5,-892.61 266.5,-886.61 270.5,-880.61 274.5,-886.61 270.5,-892.61"/>
<text text-anchor="middle" x="291" y="-902" font-family="Helvetica,sans-Serif" font-size="10.00"> &#45;protocol</text>
</g>
<!-- Node5 -->
<g id="node5" class="node">
<title>Node5</title>
<g id="a_node5"><a xlink:href="classnet_1_1socket_1_1stream_1_1legacy_1_1_socket_reader.html" target="_top" xlink:title=" ">
<polygon fill="white" stroke="black" points="510,-503 510,-593 629,-593 629,-503 510,-503"/>
<text text-anchor="start" x="518" y="-581" font-family="Helvetica,sans-Serif" font-size="10.00">net::socket::stream</text>
<text text-anchor="start" x="518" y="-570" font-family="Helvetica,sans-Serif" font-size="10.00">::legacy::SocketReader</text>
<text text-anchor="middle" x="569.5" y="-559" font-family="Helvetica,sans-Serif" font-size="10.00">&lt; SocketT &gt;</text>
<polyline fill="none" stroke="black" points="510,-552 629,-552 "/>
<text text-anchor="middle" x="569.5" y="-540" font-family="Helvetica,sans-Serif" font-size="10.00"> </text>
<polyline fill="none" stroke="black" points="510,-533 629,-533 "/>
<text text-anchor="start" x="518" y="-521" font-family="Helvetica,sans-Serif" font-size="10.00">&#45; read()</text>
<text text-anchor="start" x="518" y="-510" font-family="Helvetica,sans-Serif" font-size="10.00">&#45; getError()</text>
</a>
</g>
</g>
<!-- Node5&#45;&gt;Node2 -->
<g id="edge4" class="edge">
<title>Node5&#45;&gt;Node2</title>
<path fill="none" stroke="midnightblue" d="M536.97,-494.25C514.45,-457.72 483.53,-407.58 455.12,-361.51"/>
<polygon fill="none" stroke="midnightblue" points="533.99,-496.08 542.22,-502.76 539.95,-492.41 533.99,-496.08"/>
</g>
<!-- Node6 -->
<g id="node6" class="node">
<title>Node6</title>
<g id="a_node6"><a xlink:href="classnet_1_1socket_1_1stream_1_1_socket_reader.html" target="_top" xlink:title=" ">
<polygon fill="white" stroke="black" points="510.5,-719 510.5,-864 650.5,-864 650.5,-719 510.5,-719"/>
<text text-anchor="start" x="518.5" y="-852" font-family="Helvetica,sans-Serif" font-size="10.00">net::socket::stream</text>
<text text-anchor="middle" x="580.5" y="-841" font-family="Helvetica,sans-Serif" font-size="10.00">::SocketReader&lt; SocketT &gt;</text>
<polyline fill="none" stroke="black" points="510.5,-834 650.5,-834 "/>
<text text-anchor="start" x="518.5" y="-822" font-family="Helvetica,sans-Serif" font-size="10.00">&#45; onRead</text>
<text text-anchor="start" x="518.5" y="-811" font-family="Helvetica,sans-Serif" font-size="10.00">&#45; onError</text>
<text text-anchor="start" x="518.5" y="-800" font-family="Helvetica,sans-Serif" font-size="10.00">&#45; markShutdown</text>
<polyline fill="none" stroke="black" points="510.5,-793 650.5,-793 "/>
<text text-anchor="start" x="518.5" y="-781" font-family="Helvetica,sans-Serif" font-size="10.00"># SocketReader()</text>
<text text-anchor="start" x="518.5" y="-770" font-family="Helvetica,sans-Serif" font-size="10.00"># SocketReader()</text>
<text text-anchor="start" x="518.5" y="-759" font-family="Helvetica,sans-Serif" font-size="10.00"># shutdown()</text>
<text text-anchor="start" x="518.5" y="-748" font-family="Helvetica,sans-Serif" font-size="10.00">&#45; read()</text>
<text text-anchor="start" x="518.5" y="-737" font-family="Helvetica,sans-Serif" font-size="10.00">&#45; readEvent()</text>
<text text-anchor="start" x="518.5" y="-726" font-family="Helvetica,sans-Serif" font-size="10.00">&#45; getError()</text>
</a>
</g>
</g>
<!-- Node6&#45;&gt;Node5 -->
<g id="edge5" class="edge">
<title>Node6&#45;&gt;Node5</title>
<path fill="none" stroke="midnightblue" d="M576.77,-708.5C575.01,-669.9 572.98,-625.4 571.51,-593.22"/>
<polygon fill="none" stroke="midnightblue" points="573.28,-708.87 577.23,-718.7 580.27,-708.55 573.28,-708.87"/>
</g>
<!-- Node7 -->
<g id="node7" class="node">
<title>Node7</title>
<g id="a_node7"><a xlink:href="classnet_1_1_read_event_receiver.html" target="_top" xlink:title=" ">
<polygon fill="white" stroke="black" points="571.5,-928.5 571.5,-1062.5 695.5,-1062.5 695.5,-928.5 571.5,-928.5"/>
<text text-anchor="middle" x="633.5" y="-1050.5" font-family="Helvetica,sans-Serif" font-size="10.00">net::ReadEventReceiver</text>
<polyline fill="none" stroke="black" points="571.5,-1043.5 695.5,-1043.5 "/>
<text text-anchor="middle" x="633.5" y="-1031.5" font-family="Helvetica,sans-Serif" font-size="10.00"> </text>
<polyline fill="none" stroke="black" points="571.5,-1024.5 695.5,-1024.5 "/>
<text text-anchor="start" x="579.5" y="-1012.5" font-family="Helvetica,sans-Serif" font-size="10.00">+ setTimeout()</text>
<text text-anchor="start" x="579.5" y="-1001.5" font-family="Helvetica,sans-Serif" font-size="10.00">+ enable()</text>
<text text-anchor="start" x="579.5" y="-990.5" font-family="Helvetica,sans-Serif" font-size="10.00">+ disable()</text>
<text text-anchor="start" x="579.5" y="-979.5" font-family="Helvetica,sans-Serif" font-size="10.00">+ suspend()</text>
<text text-anchor="start" x="579.5" y="-968.5" font-family="Helvetica,sans-Serif" font-size="10.00">+ resume()</text>
<text text-anchor="start" x="579.5" y="-957.5" font-family="Helvetica,sans-Serif" font-size="10.00"># ReadEventReceiver()</text>
<text text-anchor="start" x="579.5" y="-946.5" font-family="Helvetica,sans-Serif" font-size="10.00"># readEvent()</text>
<text text-anchor="start" x="579.5" y="-935.5" font-family="Helvetica,sans-Serif" font-size="10.00">&#45; dispatchEvent()</text>
</a>
</g>
</g>
<!-- Node7&#45;&gt;Node6 -->
<g id="edge6" class="edge">
<title>Node7&#45;&gt;Node6</title>
<path fill="none" stroke="midnightblue" d="M613.57,-918.56C608.88,-900.68 603.9,-881.69 599.26,-864.02"/>
<polygon fill="none" stroke="midnightblue" points="610.22,-919.57 616.15,-928.36 616.99,-917.8 610.22,-919.57"/>
</g>
<!-- Node8 -->
<g id="node8" class="node">
<title>Node8</title>
<g id="a_node8"><a xlink:href="classnet_1_1_descriptor_event_receiver.html" target="_top" xlink:title=" ">
<polygon fill="white" stroke="black" points="453.5,-1100.5 453.5,-1421.5 599.5,-1421.5 599.5,-1100.5 453.5,-1100.5"/>
<text text-anchor="middle" x="526.5" y="-1409.5" font-family="Helvetica,sans-Serif" font-size="10.00">net::DescriptorEventReceiver</text>
<polyline fill="none" stroke="black" points="453.5,-1402.5 599.5,-1402.5 "/>
<text text-anchor="start" x="461.5" y="-1390.5" font-family="Helvetica,sans-Serif" font-size="10.00"># fd</text>
<text text-anchor="start" x="461.5" y="-1379.5" font-family="Helvetica,sans-Serif" font-size="10.00">&#45; _enabled</text>
<text text-anchor="start" x="461.5" y="-1368.5" font-family="Helvetica,sans-Serif" font-size="10.00">&#45; _suspended</text>
<text text-anchor="start" x="461.5" y="-1357.5" font-family="Helvetica,sans-Serif" font-size="10.00">&#45; maxInactivity</text>
<text text-anchor="start" x="461.5" y="-1346.5" font-family="Helvetica,sans-Serif" font-size="10.00">&#45; initialTimeout</text>
<polyline fill="none" stroke="black" points="453.5,-1339.5 599.5,-1339.5 "/>
<text text-anchor="start" x="461.5" y="-1327.5" font-family="Helvetica,sans-Serif" font-size="10.00">+ DescriptorEventReceiver()</text>
<text text-anchor="start" x="461.5" y="-1316.5" font-family="Helvetica,sans-Serif" font-size="10.00">+ operator=()</text>
<text text-anchor="start" x="461.5" y="-1305.5" font-family="Helvetica,sans-Serif" font-size="10.00"># DescriptorEventReceiver()</text>
<text text-anchor="start" x="461.5" y="-1294.5" font-family="Helvetica,sans-Serif" font-size="10.00"># ~DescriptorEventReceiver()</text>
<text text-anchor="start" x="461.5" y="-1283.5" font-family="Helvetica,sans-Serif" font-size="10.00"># setTimeout()</text>
<text text-anchor="start" x="461.5" y="-1272.5" font-family="Helvetica,sans-Serif" font-size="10.00"># isEnabled()</text>
<text text-anchor="start" x="461.5" y="-1261.5" font-family="Helvetica,sans-Serif" font-size="10.00"># isSuspended()</text>
<text text-anchor="start" x="461.5" y="-1250.5" font-family="Helvetica,sans-Serif" font-size="10.00">&#45; dispatchEvent()</text>
<text text-anchor="start" x="461.5" y="-1239.5" font-family="Helvetica,sans-Serif" font-size="10.00">&#45; timeout()</text>
<text text-anchor="start" x="461.5" y="-1228.5" font-family="Helvetica,sans-Serif" font-size="10.00">&#45; enabled()</text>
<text text-anchor="start" x="461.5" y="-1217.5" font-family="Helvetica,sans-Serif" font-size="10.00">&#45; disabled()</text>
<text text-anchor="start" x="461.5" y="-1206.5" font-family="Helvetica,sans-Serif" font-size="10.00">&#45; suspended()</text>
<text text-anchor="start" x="461.5" y="-1195.5" font-family="Helvetica,sans-Serif" font-size="10.00">&#45; resumed()</text>
<text text-anchor="start" x="461.5" y="-1184.5" font-family="Helvetica,sans-Serif" font-size="10.00">&#45; getTimeout()</text>
<text text-anchor="start" x="461.5" y="-1173.5" font-family="Helvetica,sans-Serif" font-size="10.00">&#45; getLastTriggered()</text>
<text text-anchor="start" x="461.5" y="-1162.5" font-family="Helvetica,sans-Serif" font-size="10.00">&#45; triggered()</text>
<text text-anchor="start" x="461.5" y="-1151.5" font-family="Helvetica,sans-Serif" font-size="10.00">&#45; enable()</text>
<text text-anchor="start" x="461.5" y="-1140.5" font-family="Helvetica,sans-Serif" font-size="10.00">&#45; disable()</text>
<text text-anchor="start" x="461.5" y="-1129.5" font-family="Helvetica,sans-Serif" font-size="10.00">&#45; suspend()</text>
<text text-anchor="start" x="461.5" y="-1118.5" font-family="Helvetica,sans-Serif" font-size="10.00">&#45; resume()</text>
<text text-anchor="start" x="461.5" y="-1107.5" font-family="Helvetica,sans-Serif" font-size="10.00">&#45; unobserved()</text>
</a>
</g>
</g>
<!-- Node8&#45;&gt;Node7 -->
<g id="edge7" class="edge">
<title>Node8&#45;&gt;Node7</title>
<path fill="none" stroke="midnightblue" d="M595.19,-1090.84C599.15,-1081.09 602.98,-1071.65 606.6,-1062.74"/>
<polygon fill="none" stroke="midnightblue" points="591.88,-1089.68 591.36,-1100.26 598.37,-1092.32 591.88,-1089.68"/>
</g>
<!-- Node13 -->
<g id="node13" class="node">
<title>Node13</title>
<g id="a_node13"><a xlink:href="classnet_1_1_write_event_receiver.html" target="_top" xlink:title=" ">
<polygon fill="white" stroke="black" points="359,-928.5 359,-1062.5 482,-1062.5 482,-928.5 359,-928.5"/>
<text text-anchor="middle" x="420.5" y="-1050.5" font-family="Helvetica,sans-Serif" font-size="10.00">net::WriteEventReceiver</text>
<polyline fill="none" stroke="black" points="359,-1043.5 482,-1043.5 "/>
<text text-anchor="middle" x="420.5" y="-1031.5" font-family="Helvetica,sans-Serif" font-size="10.00"> </text>
<polyline fill="none" stroke="black" points="359,-1024.5 482,-1024.5 "/>
<text text-anchor="start" x="367" y="-1012.5" font-family="Helvetica,sans-Serif" font-size="10.00">+ setTimeout()</text>
<text text-anchor="start" x="367" y="-1001.5" font-family="Helvetica,sans-Serif" font-size="10.00">+ enable()</text>
<text text-anchor="start" x="367" y="-990.5" font-family="Helvetica,sans-Serif" font-size="10.00">+ disable()</text>
<text text-anchor="start" x="367" y="-979.5" font-family="Helvetica,sans-Serif" font-size="10.00">+ suspend()</text>
<text text-anchor="start" x="367" y="-968.5" font-family="Helvetica,sans-Serif" font-size="10.00">+ resume()</text>
<text text-anchor="start" x="367" y="-957.5" font-family="Helvetica,sans-Serif" font-size="10.00"># WriteEventReceiver()</text>
<text text-anchor="start" x="367" y="-946.5" font-family="Helvetica,sans-Serif" font-size="10.00"># writeEvent()</text>
<text text-anchor="start" x="367" y="-935.5" font-family="Helvetica,sans-Serif" font-size="10.00">&#45; dispatchEvent()</text>
</a>
</g>
</g>
<!-- Node8&#45;&gt;Node13 -->
<g id="edge13" class="edge">
<title>Node8&#45;&gt;Node13</title>
<path fill="none" stroke="midnightblue" d="M458.45,-1090.84C454.53,-1081.09 450.73,-1071.65 447.15,-1062.74"/>
<polygon fill="none" stroke="midnightblue" points="455.26,-1092.29 462.24,-1100.26 461.76,-1089.68 455.26,-1092.29"/>
</g>
<!-- Node9 -->
<g id="node9" class="node">
<title>Node9</title>
<g id="a_node9"><a xlink:href="classnet_1_1_observation_counter.html" target="_top" xlink:title=" ">
<polygon fill="white" stroke="black" points="465,-1459.5 465,-1527.5 588,-1527.5 588,-1459.5 465,-1459.5"/>
<text text-anchor="middle" x="526.5" y="-1515.5" font-family="Helvetica,sans-Serif" font-size="10.00">net::ObservationCounter</text>
<polyline fill="none" stroke="black" points="465,-1508.5 588,-1508.5 "/>
<text text-anchor="start" x="473" y="-1496.5" font-family="Helvetica,sans-Serif" font-size="10.00"># observationCounter</text>
<text text-anchor="start" x="473" y="-1485.5" font-family="Helvetica,sans-Serif" font-size="10.00"># lastTriggered</text>
<polyline fill="none" stroke="black" points="465,-1478.5 588,-1478.5 "/>
<text text-anchor="start" x="473" y="-1466.5" font-family="Helvetica,sans-Serif" font-size="10.00">+ isObserved()</text>
</a>
</g>
</g>
<!-- Node9&#45;&gt;Node8 -->
<g id="edge8" class="edge">
<title>Node9&#45;&gt;Node8</title>
<path fill="none" stroke="midnightblue" d="M526.5,-1449.32C526.5,-1440.92 526.5,-1431.68 526.5,-1421.92"/>
<polygon fill="none" stroke="midnightblue" points="523,-1449.47 526.5,-1459.47 530,-1449.48 523,-1449.47"/>
</g>
<!-- Node10 -->
<g id="node10" class="node">
<title>Node10</title>
<g id="a_node10"><a xlink:title=" ">
<polygon fill="white" stroke="#bfbfbf" points="500,-967 500,-1024 553,-1024 553,-967 500,-967"/>
<text text-anchor="middle" x="526.5" y="-1012" font-family="Helvetica,sans-Serif" font-size="10.00">SocketT</text>
<polyline fill="none" stroke="#bfbfbf" points="500,-1005 553,-1005 "/>
<text text-anchor="middle" x="526.5" y="-993" font-family="Helvetica,sans-Serif" font-size="10.00"> </text>
<polyline fill="none" stroke="#bfbfbf" points="500,-986 553,-986 "/>
<text text-anchor="middle" x="526.5" y="-974" font-family="Helvetica,sans-Serif" font-size="10.00"> </text>
</a>
</g>
</g>
<!-- Node10&#45;&gt;Node6 -->
<g id="edge9" class="edge">
<title>Node10&#45;&gt;Node6</title>
<path fill="none" stroke="midnightblue" d="M536.52,-957C543.48,-930.98 552.97,-895.48 561.35,-864.12"/>
<polygon fill="none" stroke="midnightblue" points="533.1,-956.27 533.9,-966.84 539.86,-958.08 533.1,-956.27"/>
</g>
<!-- Node12 -->
<g id="node12" class="node">
<title>Node12</title>
<g id="a_node12"><a xlink:href="classnet_1_1socket_1_1stream_1_1_socket_writer.html" target="_top" xlink:title=" ">
<polygon fill="white" stroke="black" points="358.5,-713.5 358.5,-869.5 492.5,-869.5 492.5,-713.5 358.5,-713.5"/>
<text text-anchor="start" x="366.5" y="-857.5" font-family="Helvetica,sans-Serif" font-size="10.00">net::socket::stream</text>
<text text-anchor="middle" x="425.5" y="-846.5" font-family="Helvetica,sans-Serif" font-size="10.00">::SocketWriter&lt; SocketT &gt;</text>
<polyline fill="none" stroke="black" points="358.5,-839.5 492.5,-839.5 "/>
<text text-anchor="start" x="366.5" y="-827.5" font-family="Helvetica,sans-Serif" font-size="10.00">&#45; onError</text>
<text text-anchor="start" x="366.5" y="-816.5" font-family="Helvetica,sans-Serif" font-size="10.00">&#45; writeBuffer</text>
<text text-anchor="start" x="366.5" y="-805.5" font-family="Helvetica,sans-Serif" font-size="10.00">&#45; markShutdown</text>
<polyline fill="none" stroke="black" points="358.5,-798.5 492.5,-798.5 "/>
<text text-anchor="start" x="366.5" y="-786.5" font-family="Helvetica,sans-Serif" font-size="10.00"># SocketWriter()</text>
<text text-anchor="start" x="366.5" y="-775.5" font-family="Helvetica,sans-Serif" font-size="10.00"># SocketWriter()</text>
<text text-anchor="start" x="366.5" y="-764.5" font-family="Helvetica,sans-Serif" font-size="10.00"># enqueue()</text>
<text text-anchor="start" x="366.5" y="-753.5" font-family="Helvetica,sans-Serif" font-size="10.00"># shutdown()</text>
<text text-anchor="start" x="366.5" y="-742.5" font-family="Helvetica,sans-Serif" font-size="10.00">&#45; write()</text>
<text text-anchor="start" x="366.5" y="-731.5" font-family="Helvetica,sans-Serif" font-size="10.00">&#45; writeEvent()</text>
<text text-anchor="start" x="366.5" y="-720.5" font-family="Helvetica,sans-Serif" font-size="10.00">&#45; getError()</text>
</a>
</g>
</g>
<!-- Node10&#45;&gt;Node12 -->
<g id="edge14" class="edge">
<title>Node10&#45;&gt;Node12</title>
<path fill="none" stroke="midnightblue" d="M508.19,-957.88C495.92,-933.33 479.29,-900.09 464.17,-869.84"/>
<polygon fill="none" stroke="midnightblue" points="505.07,-959.46 512.67,-966.84 511.33,-956.33 505.07,-959.46"/>
</g>
<!-- Node11 -->
<g id="node11" class="node">
<title>Node11</title>
<g id="a_node11"><a xlink:href="classnet_1_1socket_1_1stream_1_1legacy_1_1_socket_writer.html" target="_top" xlink:title=" ">
<polygon fill="white" stroke="black" points="368,-503 368,-593 481,-593 481,-503 368,-503"/>
<text text-anchor="start" x="376" y="-581" font-family="Helvetica,sans-Serif" font-size="10.00">net::socket::stream</text>
<text text-anchor="start" x="376" y="-570" font-family="Helvetica,sans-Serif" font-size="10.00">::legacy::SocketWriter</text>
<text text-anchor="middle" x="424.5" y="-559" font-family="Helvetica,sans-Serif" font-size="10.00">&lt; SocketT &gt;</text>
<polyline fill="none" stroke="black" points="368,-552 481,-552 "/>
<text text-anchor="middle" x="424.5" y="-540" font-family="Helvetica,sans-Serif" font-size="10.00"> </text>
<polyline fill="none" stroke="black" points="368,-533 481,-533 "/>
<text text-anchor="start" x="376" y="-521" font-family="Helvetica,sans-Serif" font-size="10.00">&#45; write()</text>
<text text-anchor="start" x="376" y="-510" font-family="Helvetica,sans-Serif" font-size="10.00">&#45; getError()</text>
</a>
</g>
</g>
<!-- Node11&#45;&gt;Node2 -->
<g id="edge10" class="edge">
<title>Node11&#45;&gt;Node2</title>
<path fill="none" stroke="midnightblue" d="M416.73,-492.85C411.5,-456.46 404.4,-407 397.87,-361.51"/>
<polygon fill="none" stroke="midnightblue" points="413.26,-493.36 418.15,-502.76 420.19,-492.36 413.26,-493.36"/>
</g>
<!-- Node12&#45;&gt;Node11 -->
<g id="edge11" class="edge">
<title>Node12&#45;&gt;Node11</title>
<path fill="none" stroke="midnightblue" d="M425.14,-703.03C424.98,-665.68 424.81,-623.73 424.68,-593.05"/>
<polygon fill="none" stroke="midnightblue" points="421.64,-703.44 425.18,-713.42 428.64,-703.41 421.64,-703.44"/>
</g>
<!-- Node13&#45;&gt;Node12 -->
<g id="edge12" class="edge">
<title>Node13&#45;&gt;Node12</title>
<path fill="none" stroke="midnightblue" d="M422.39,-918.09C422.78,-902.25 423.2,-885.54 423.59,-869.67"/>
<polygon fill="none" stroke="midnightblue" points="418.89,-918.27 422.14,-928.36 425.88,-918.45 418.89,-918.27"/>
</g>
<!-- Node14&#45;&gt;Node2 -->
<g id="edge15" class="edge">
<title>Node14&#45;&gt;Node2</title>
<path fill="none" stroke="orange" d="M132.01,-421.31C134.61,-406.77 139.17,-392.64 146.5,-380 176.28,-328.65 233.1,-294.13 283.29,-272.27"/>
<polygon fill="orange" stroke="orange" points="128.52,-421.03 130.52,-431.44 135.44,-422.05 128.52,-421.03"/>
<text text-anchor="start" x="146.5" y="-405" font-family="Helvetica,sans-Serif" font-size="10.00"> &lt; legacy::SocketReader</text>
<text text-anchor="start" x="146.5" y="-394" font-family="Helvetica,sans-Serif" font-size="10.00">&lt; SocketT &gt;, legacy::SocketWriter</text>
<text text-anchor="middle" x="235.5" y="-383" font-family="Helvetica,sans-Serif" font-size="10.00">&lt; SocketT &gt;, SocketT::SocketAddress &gt;</text>
</g>
<!-- Node15 -->
<g id="node15" class="node">
<title>Node15</title>
<g id="a_node15"><a xlink:title=" ">
<polygon fill="white" stroke="#bfbfbf" points="0,-763 0,-820 85,-820 85,-763 0,-763"/>
<text text-anchor="middle" x="42.5" y="-808" font-family="Helvetica,sans-Serif" font-size="10.00">SocketReaderT</text>
<polyline fill="none" stroke="#bfbfbf" points="0,-801 85,-801 "/>
<text text-anchor="middle" x="42.5" y="-789" font-family="Helvetica,sans-Serif" font-size="10.00"> </text>
<polyline fill="none" stroke="#bfbfbf" points="0,-782 85,-782 "/>
<text text-anchor="middle" x="42.5" y="-770" font-family="Helvetica,sans-Serif" font-size="10.00"> </text>
</a>
</g>
</g>
<!-- Node15&#45;&gt;Node14 -->
<g id="edge17" class="edge">
<title>Node15&#45;&gt;Node14</title>
<path fill="none" stroke="midnightblue" d="M58.01,-753.41C68.03,-729.46 81.65,-696.88 95.09,-664.76"/>
<polygon fill="none" stroke="midnightblue" points="54.72,-752.22 54.09,-762.8 61.17,-754.92 54.72,-752.22"/>
</g>
<!-- Node16 -->
<g id="node16" class="node">
<title>Node16</title>
<g id="a_node16"><a xlink:title=" ">
<polygon fill="white" stroke="#bfbfbf" points="103,-763 103,-820 182,-820 182,-763 103,-763"/>
<text text-anchor="middle" x="142.5" y="-808" font-family="Helvetica,sans-Serif" font-size="10.00">SocketWriterT</text>
<polyline fill="none" stroke="#bfbfbf" points="103,-801 182,-801 "/>
<text text-anchor="middle" x="142.5" y="-789" font-family="Helvetica,sans-Serif" font-size="10.00"> </text>
<polyline fill="none" stroke="#bfbfbf" points="103,-782 182,-782 "/>
<text text-anchor="middle" x="142.5" y="-770" font-family="Helvetica,sans-Serif" font-size="10.00"> </text>
</a>
</g>
</g>
<!-- Node16&#45;&gt;Node14 -->
<g id="edge18" class="edge">
<title>Node16&#45;&gt;Node14</title>
<path fill="none" stroke="midnightblue" d="M142.66,-752.77C142.76,-728.88 142.89,-696.59 143.02,-664.76"/>
<polygon fill="none" stroke="midnightblue" points="139.16,-752.78 142.61,-762.8 146.16,-752.81 139.16,-752.78"/>
</g>
</g>
</svg>
