<?xml version="1.0" encoding="UTF-8" standalone="no"?>
<!DOCTYPE svg PUBLIC "-//W3C//DTD SVG 1.1//EN"
 "http://www.w3.org/Graphics/SVG/1.1/DTD/svg11.dtd">
<!-- Generated by graphviz version 2.43.0 (0)
 -->
<!-- Title: web::websocket::SubProtocol::sendMessageEnd Pages: 1 -->
<svg width="1249pt" height="39pt"
 viewBox="0.00 0.00 1249.00 39.00" xmlns="http://www.w3.org/2000/svg" xmlns:xlink="http://www.w3.org/1999/xlink">
<g id="graph0" class="graph" transform="scale(1 1) rotate(0) translate(4 35)">
<title>web::websocket::SubProtocol::sendMessageEnd</title>
<polygon fill="white" stroke="transparent" points="-4,4 -4,-35 1245,-35 1245,4 -4,4"/>
<!-- Node1 -->
<g id="node1" class="node">
<title>Node1</title>
<g id="a_node1"><a xlink:title=" ">
<polygon fill="#bfbfbf" stroke="black" points="0,-0.5 0,-30.5 147,-30.5 147,-0.5 0,-0.5"/>
<text text-anchor="start" x="8" y="-18.5" font-family="Helvetica,sans-Serif" font-size="10.00">web::websocket::SubProtocol</text>
<text text-anchor="middle" x="73.5" y="-7.5" font-family="Helvetica,sans-Serif" font-size="10.00">::sendMessageEnd</text>
</a>
</g>
</g>
<!-- Node2 -->
<g id="node2" class="node">
<title>Node2</title>
<g id="a_node2"><a xlink:href="classweb_1_1websocket_1_1_sub_protocol.html#a86f89d29349469c5799b061276dde63f" target="_top" xlink:title=" ">
<polygon fill="white" stroke="black" points="183,-0.5 183,-30.5 330,-30.5 330,-0.5 183,-0.5"/>
<text text-anchor="start" x="191" y="-18.5" font-family="Helvetica,sans-Serif" font-size="10.00">web::websocket::SubProtocol</text>
<text text-anchor="middle" x="256.5" y="-7.5" font-family="Helvetica,sans-Serif" font-size="10.00">::sendMessageEnd</text>
</a>
</g>
</g>
<!-- Node1&#45;&gt;Node2 -->
<g id="edge1" class="edge">
<title>Node1&#45;&gt;Node2</title>
<path fill="none" stroke="midnightblue" d="M147.08,-15.5C155.56,-15.5 164.26,-15.5 172.87,-15.5"/>
<polygon fill="midnightblue" stroke="midnightblue" points="172.91,-19 182.91,-15.5 172.91,-12 172.91,-19"/>
</g>
<!-- Node3 -->
<g id="node3" class="node">
<title>Node3</title>
<g id="a_node3"><a xlink:href="classweb_1_1websocket_1_1_socket_context.html#a64b536c10d4bddcd5f580d548221cfc1" target="_top" xlink:title=" ">
<polygon fill="white" stroke="black" points="366,-0.5 366,-30.5 525,-30.5 525,-0.5 366,-0.5"/>
<text text-anchor="start" x="374" y="-18.5" font-family="Helvetica,sans-Serif" font-size="10.00">web::websocket::SocketContext</text>
<text text-anchor="middle" x="445.5" y="-7.5" font-family="Helvetica,sans-Serif" font-size="10.00">::sendMessageEnd</text>
</a>
</g>
</g>
<!-- Node2&#45;&gt;Node3 -->
<g id="edge2" class="edge">
<title>Node2&#45;&gt;Node3</title>
<path fill="none" stroke="midnightblue" d="M330.07,-15.5C338.48,-15.5 347.13,-15.5 355.73,-15.5"/>
<polygon fill="midnightblue" stroke="midnightblue" points="355.78,-19 365.78,-15.5 355.78,-12 355.78,-19"/>
</g>
<!-- Node4 -->
<g id="node4" class="node">
<title>Node4</title>
<g id="a_node4"><a xlink:href="classweb_1_1websocket_1_1_transmitter.html#a066af0ca66bc0321ea0b7d3ceea2bfde" target="_top" xlink:title=" ">
<polygon fill="white" stroke="black" points="561,-0.5 561,-30.5 704,-30.5 704,-0.5 561,-0.5"/>
<text text-anchor="start" x="569" y="-18.5" font-family="Helvetica,sans-Serif" font-size="10.00">web::websocket::Transmitter</text>
<text text-anchor="middle" x="632.5" y="-7.5" font-family="Helvetica,sans-Serif" font-size="10.00">::sendMessageEnd</text>
</a>
</g>
</g>
<!-- Node3&#45;&gt;Node4 -->
<g id="edge3" class="edge">
<title>Node3&#45;&gt;Node4</title>
<path fill="none" stroke="midnightblue" d="M525.22,-15.5C533.61,-15.5 542.16,-15.5 550.57,-15.5"/>
<polygon fill="midnightblue" stroke="midnightblue" points="550.76,-19 560.76,-15.5 550.76,-12 550.76,-19"/>
</g>
<!-- Node5 -->
<g id="node5" class="node">
<title>Node5</title>
<g id="a_node5"><a xlink:href="classweb_1_1websocket_1_1_transmitter.html#ac36955b609bb42c6fcc3d340705c314a" target="_top" xlink:title=" ">
<polygon fill="white" stroke="black" points="740,-0.5 740,-30.5 883,-30.5 883,-0.5 740,-0.5"/>
<text text-anchor="start" x="748" y="-18.5" font-family="Helvetica,sans-Serif" font-size="10.00">web::websocket::Transmitter</text>
<text text-anchor="middle" x="811.5" y="-7.5" font-family="Helvetica,sans-Serif" font-size="10.00">::send</text>
</a>
</g>
</g>
<!-- Node4&#45;&gt;Node5 -->
<g id="edge4" class="edge">
<title>Node4&#45;&gt;Node5</title>
<path fill="none" stroke="midnightblue" d="M704.22,-15.5C712.57,-15.5 721.14,-15.5 729.62,-15.5"/>
<polygon fill="midnightblue" stroke="midnightblue" points="729.89,-19 739.89,-15.5 729.89,-12 729.89,-19"/>
</g>
<!-- Node6 -->
<g id="node6" class="node">
<title>Node6</title>
<g id="a_node6"><a xlink:href="classweb_1_1websocket_1_1_transmitter.html#acc7ddff3e835e0df3813f684fbf81317" target="_top" xlink:title=" ">
<polygon fill="white" stroke="black" points="919,-0.5 919,-30.5 1062,-30.5 1062,-0.5 919,-0.5"/>
<text text-anchor="start" x="927" y="-18.5" font-family="Helvetica,sans-Serif" font-size="10.00">web::websocket::Transmitter</text>
<text text-anchor="middle" x="990.5" y="-7.5" font-family="Helvetica,sans-Serif" font-size="10.00">::sendFrame</text>
</a>
</g>
</g>
<!-- Node5&#45;&gt;Node6 -->
<g id="edge5" class="edge">
<title>Node5&#45;&gt;Node6</title>
<path fill="none" stroke="midnightblue" d="M883.22,-15.5C891.57,-15.5 900.14,-15.5 908.62,-15.5"/>
<polygon fill="midnightblue" stroke="midnightblue" points="908.89,-19 918.89,-15.5 908.89,-12 908.89,-19"/>
</g>
<!-- Node7 -->
<g id="node7" class="node">
<title>Node7</title>
<g id="a_node7"><a xlink:href="classweb_1_1websocket_1_1_transmitter.html#a3be430380802c49bf9db324c11000f7b" target="_top" xlink:title=" ">
<polygon fill="white" stroke="black" points="1098,-0.5 1098,-30.5 1241,-30.5 1241,-0.5 1098,-0.5"/>
<text text-anchor="start" x="1106" y="-18.5" font-family="Helvetica,sans-Serif" font-size="10.00">web::websocket::Transmitter</text>
<text text-anchor="middle" x="1169.5" y="-7.5" font-family="Helvetica,sans-Serif" font-size="10.00">::sendFrameData</text>
</a>
</g>
</g>
<!-- Node6&#45;&gt;Node7 -->
<g id="edge6" class="edge">
<title>Node6&#45;&gt;Node7</title>
<path fill="none" stroke="midnightblue" d="M1062.22,-15.5C1070.57,-15.5 1079.14,-15.5 1087.62,-15.5"/>
<polygon fill="midnightblue" stroke="midnightblue" points="1087.89,-19 1097.89,-15.5 1087.89,-12 1087.89,-19"/>
</g>
</g>
</svg>
