<?xml version="1.0" encoding="UTF-8" standalone="no"?>
<!DOCTYPE svg PUBLIC "-//W3C//DTD SVG 1.1//EN"
 "http://www.w3.org/Graphics/SVG/1.1/DTD/svg11.dtd">
<!-- Generated by graphviz version 2.43.0 (0)
 -->
<!-- Title: web/ws Pages: 1 -->
<svg width="268pt" height="375pt"
 viewBox="0.00 0.00 268.00 375.00" xmlns="http://www.w3.org/2000/svg" xmlns:xlink="http://www.w3.org/1999/xlink">
<g id="graph0" class="graph" transform="scale(1 1) rotate(0) translate(4 371)">
<title>web/ws</title>
<polygon fill="white" stroke="transparent" points="-4,4 -4,-371 264,-371 264,4 -4,4"/>
<g id="clust1" class="cluster">
<title>clusterdir_562abdcd8625d4bf7bad2fe6fe01354c</title>
<g id="a_clust1"><a xlink:href="dir_562abdcd8625d4bf7bad2fe6fe01354c.html" target="_top" xlink:title="web">
<polygon fill="#ddddee" stroke="black" points="8,-136 8,-359 252,-359 252,-136 8,-136"/>
<text text-anchor="middle" x="130" y="-347" font-family="Helvetica,sans-Serif" font-size="10.00">web</text>
</a>
</g>
</g>
<g id="clust2" class="cluster">
<title>clusterdir_ec426a97ce461160e35695da59315765</title>
<g id="a_clust2"><a xlink:href="dir_ec426a97ce461160e35695da59315765.html" target="_top">
<polygon fill="#eeeeff" stroke="black" points="16,-208 16,-332 244,-332 244,-208 16,-208"/>
</a>
</g>
</g>
<!-- dir_890691660869da6a17298077dcca53fb -->
<g id="node1" class="node">
<title>dir_890691660869da6a17298077dcca53fb</title>
<g id="a_node1"><a xlink:href="dir_890691660869da6a17298077dcca53fb.html" target="_top" xlink:title="http">
<polygon fill="white" stroke="red" points="78,-180 24,-180 24,-144 78,-144 78,-180"/>
<text text-anchor="middle" x="51" y="-159.5" font-family="Helvetica,sans-Serif" font-size="10.00">http</text>
</a>
</g>
</g>
<!-- dir_427baa8a9a5be237f298d4545d0d1ce2 -->
<g id="node6" class="node">
<title>dir_427baa8a9a5be237f298d4545d0d1ce2</title>
<g id="a_node6"><a xlink:href="dir_427baa8a9a5be237f298d4545d0d1ce2.html" target="_top" xlink:title="net">
<polygon fill="white" stroke="red" points="116,-108 62,-108 62,-72 116,-72 116,-108"/>
<text text-anchor="middle" x="89" y="-87.5" font-family="Helvetica,sans-Serif" font-size="10.00">net</text>
</a>
</g>
</g>
<!-- dir_890691660869da6a17298077dcca53fb&#45;&gt;dir_427baa8a9a5be237f298d4545d0d1ce2 -->
<g id="edge1" class="edge">
<title>dir_890691660869da6a17298077dcca53fb&#45;&gt;dir_427baa8a9a5be237f298d4545d0d1ce2</title>
<path fill="none" stroke="black" d="M60.39,-143.7C64.76,-135.64 70.06,-125.89 74.9,-116.98"/>
<polygon fill="black" stroke="black" points="78.02,-118.56 79.71,-108.1 71.87,-115.22 78.02,-118.56"/>
<g id="a_edge1&#45;headlabel"><a xlink:href="dir_000034_000005.html" target="_top" xlink:title="22">
<text text-anchor="middle" x="78.8" y="-120.58" font-family="Helvetica,sans-Serif" font-size="10.00">22</text>
</a>
</g>
</g>
<!-- dir_9381a7bbd03577d6d8720c7f35c94ffa -->
<g id="node7" class="node">
<title>dir_9381a7bbd03577d6d8720c7f35c94ffa</title>
<g id="a_node7"><a xlink:href="dir_9381a7bbd03577d6d8720c7f35c94ffa.html" target="_top" xlink:title="log">
<polygon fill="none" stroke="black" points="88,-36 34,-36 34,0 88,0 88,-36"/>
<text text-anchor="middle" x="61" y="-15.5" font-family="Helvetica,sans-Serif" font-size="10.00">log</text>
</a>
</g>
</g>
<!-- dir_890691660869da6a17298077dcca53fb&#45;&gt;dir_9381a7bbd03577d6d8720c7f35c94ffa -->
<g id="edge2" class="edge">
<title>dir_890691660869da6a17298077dcca53fb&#45;&gt;dir_9381a7bbd03577d6d8720c7f35c94ffa</title>
<path fill="none" stroke="black" d="M50.74,-143.9C50.62,-125.96 50.85,-96.94 53,-72 53.73,-63.53 54.96,-54.35 56.24,-46.05"/>
<polygon fill="black" stroke="black" points="59.7,-46.55 57.85,-36.12 52.79,-45.43 59.7,-46.55"/>
<g id="a_edge2&#45;headlabel"><a xlink:href="dir_000034_000004.html" target="_top" xlink:title="7">
<text text-anchor="middle" x="61.93" y="-48.05" font-family="Helvetica,sans-Serif" font-size="10.00">7</text>
</a>
</g>
</g>
<!-- dir_ec426a97ce461160e35695da59315765 -->
<g id="node2" class="node">
<title>dir_ec426a97ce461160e35695da59315765</title>
<text text-anchor="middle" x="209" y="-303.5" font-family="Helvetica,sans-Serif" font-size="10.00">ws</text>
</g>
<!-- dir_fc6d0e7112f9bdabe1c8ee8d6b1f0464 -->
<g id="node3" class="node">
<title>dir_fc6d0e7112f9bdabe1c8ee8d6b1f0464</title>
<g id="a_node3"><a xlink:href="dir_fc6d0e7112f9bdabe1c8ee8d6b1f0464.html" target="_top" xlink:title="client">
<polygon fill="white" stroke="black" points="164,-324 110,-324 110,-288 164,-288 164,-324"/>
<text text-anchor="middle" x="137" y="-303.5" font-family="Helvetica,sans-Serif" font-size="10.00">client</text>
</a>
</g>
</g>
<!-- dir_051de01afa89d761b3bc00f2fd498da7 -->
<g id="node4" class="node">
<title>dir_051de01afa89d761b3bc00f2fd498da7</title>
<g id="a_node4"><a xlink:href="dir_051de01afa89d761b3bc00f2fd498da7.html" target="_top" xlink:title="server">
<polygon fill="white" stroke="black" points="78,-252 24,-252 24,-216 78,-216 78,-252"/>
<text text-anchor="middle" x="51" y="-231.5" font-family="Helvetica,sans-Serif" font-size="10.00">server</text>
</a>
</g>
</g>
<!-- dir_051de01afa89d761b3bc00f2fd498da7&#45;&gt;dir_890691660869da6a17298077dcca53fb -->
<g id="edge3" class="edge">
<title>dir_051de01afa89d761b3bc00f2fd498da7&#45;&gt;dir_890691660869da6a17298077dcca53fb</title>
<path fill="none" stroke="black" d="M51,-215.7C51,-207.98 51,-198.71 51,-190.11"/>
<polygon fill="black" stroke="black" points="54.5,-190.1 51,-180.1 47.5,-190.1 54.5,-190.1"/>
<g id="a_edge3&#45;headlabel"><a xlink:href="dir_000033_000034.html" target="_top" xlink:title="4">
<text text-anchor="middle" x="57.34" y="-191.2" font-family="Helvetica,sans-Serif" font-size="10.00">4</text>
</a>
</g>
</g>
<!-- dir_051de01afa89d761b3bc00f2fd498da7&#45;&gt;dir_9381a7bbd03577d6d8720c7f35c94ffa -->
<g id="edge4" class="edge">
<title>dir_051de01afa89d761b3bc00f2fd498da7&#45;&gt;dir_9381a7bbd03577d6d8720c7f35c94ffa</title>
<path fill="none" stroke="black" d="M32.83,-215.68C24.12,-206.1 14.59,-193.43 10,-180 3.68,-161.49 6.01,-155.14 10,-136 16.88,-103.02 33.58,-67.94 46,-44.89"/>
<polygon fill="black" stroke="black" points="49.09,-46.53 50.86,-36.09 42.97,-43.15 49.09,-46.53"/>
<g id="a_edge4&#45;headlabel"><a xlink:href="dir_000033_000004.html" target="_top" xlink:title="3">
<text text-anchor="middle" x="49.84" y="-48.55" font-family="Helvetica,sans-Serif" font-size="10.00">3</text>
</a>
</g>
</g>
<!-- dir_eb77dce6180c9cb65090b17515b1f986 -->
<g id="node5" class="node">
<title>dir_eb77dce6180c9cb65090b17515b1f986</title>
<g id="a_node5"><a xlink:href="dir_eb77dce6180c9cb65090b17515b1f986.html" target="_top" xlink:title="subprotocol">
<polygon fill="white" stroke="red" points="91.5,-324 24.5,-324 24.5,-288 91.5,-288 91.5,-324"/>
<text text-anchor="middle" x="58" y="-303.5" font-family="Helvetica,sans-Serif" font-size="10.00">subprotocol</text>
</a>
</g>
</g>
<!-- dir_eb77dce6180c9cb65090b17515b1f986&#45;&gt;dir_051de01afa89d761b3bc00f2fd498da7 -->
<g id="edge6" class="edge">
<title>dir_eb77dce6180c9cb65090b17515b1f986&#45;&gt;dir_051de01afa89d761b3bc00f2fd498da7</title>
<path fill="none" stroke="black" d="M56.27,-287.7C55.5,-279.98 54.57,-270.71 53.71,-262.11"/>
<polygon fill="black" stroke="black" points="57.19,-261.71 52.71,-252.1 50.22,-262.4 57.19,-261.71"/>
<g id="a_edge6&#45;headlabel"><a xlink:href="dir_000043_000033.html" target="_top" xlink:title="2">
<text text-anchor="middle" x="60.37" y="-262.5" font-family="Helvetica,sans-Serif" font-size="10.00">2</text>
</a>
</g>
</g>
<!-- dir_eb77dce6180c9cb65090b17515b1f986&#45;&gt;dir_427baa8a9a5be237f298d4545d0d1ce2 -->
<g id="edge7" class="edge">
<title>dir_eb77dce6180c9cb65090b17515b1f986&#45;&gt;dir_427baa8a9a5be237f298d4545d0d1ce2</title>
<path fill="none" stroke="black" d="M69.97,-287.69C76.2,-277.72 83.28,-264.68 87,-252 100.27,-206.69 96.9,-151.08 93.07,-118.49"/>
<polygon fill="black" stroke="black" points="96.52,-117.84 91.78,-108.37 89.57,-118.73 96.52,-117.84"/>
<g id="a_edge7&#45;headlabel"><a xlink:href="dir_000043_000005.html" target="_top" xlink:title="1">
<text text-anchor="middle" x="99.79" y="-118.55" font-family="Helvetica,sans-Serif" font-size="10.00">1</text>
</a>
</g>
</g>
<!-- dir_eb77dce6180c9cb65090b17515b1f986&#45;&gt;dir_9381a7bbd03577d6d8720c7f35c94ffa -->
<g id="edge8" class="edge">
<title>dir_eb77dce6180c9cb65090b17515b1f986&#45;&gt;dir_9381a7bbd03577d6d8720c7f35c94ffa</title>
<path fill="none" stroke="black" d="M77.52,-287.74C87.07,-278.18 97.81,-265.51 104,-252 130.95,-193.21 120.32,-172.51 125,-108 126.16,-92.04 131.81,-86.48 125,-72 118.82,-58.87 107.62,-47.87 96.3,-39.36"/>
<polygon fill="black" stroke="black" points="98.29,-36.49 88.1,-33.61 94.27,-42.22 98.29,-36.49"/>
<g id="a_edge8&#45;headlabel"><a xlink:href="dir_000043_000004.html" target="_top" xlink:title="1">
<text text-anchor="middle" x="102.87" y="-33.73" font-family="Helvetica,sans-Serif" font-size="10.00">1</text>
</a>
</g>
</g>
<!-- dir_427baa8a9a5be237f298d4545d0d1ce2&#45;&gt;dir_9381a7bbd03577d6d8720c7f35c94ffa -->
<g id="edge5" class="edge">
<title>dir_427baa8a9a5be237f298d4545d0d1ce2&#45;&gt;dir_9381a7bbd03577d6d8720c7f35c94ffa</title>
<path fill="none" stroke="black" d="M82.08,-71.7C78.93,-63.81 75.12,-54.3 71.62,-45.55"/>
<polygon fill="black" stroke="black" points="74.81,-44.09 67.84,-36.1 68.31,-46.69 74.81,-44.09"/>
<g id="a_edge5&#45;headlabel"><a xlink:href="dir_000005_000004.html" target="_top" xlink:title="13">
<text text-anchor="middle" x="78.78" y="-43.87" font-family="Helvetica,sans-Serif" font-size="10.00">13</text>
</a>
</g>
</g>
</g>
</svg>
