<?xml version="1.0" encoding="UTF-8" standalone="no"?>
<!DOCTYPE svg PUBLIC "-//W3C//DTD SVG 1.1//EN"
 "http://www.w3.org/Graphics/SVG/1.1/DTD/svg11.dtd">
<!-- Generated by graphviz version 2.43.0 (0)
 -->
<!-- Title: web/http/server Pages: 1 -->
<svg width="254pt" height="231pt"
 viewBox="0.00 0.00 254.00 231.00" xmlns="http://www.w3.org/2000/svg" xmlns:xlink="http://www.w3.org/1999/xlink">
<g id="graph0" class="graph" transform="scale(1 1) rotate(0) translate(4 227)">
<title>web/http/server</title>
<polygon fill="white" stroke="transparent" points="-4,4 -4,-227 250,-227 250,4 -4,4"/>
<g id="clust1" class="cluster">
<title>clusterdir_890691660869da6a17298077dcca53fb</title>
<g id="a_clust1"><a xlink:href="dir_890691660869da6a17298077dcca53fb.html" target="_top" xlink:title="http">
<polygon fill="#ddddee" stroke="black" points="8,-128 8,-215 238,-215 238,-128 8,-128"/>
<text text-anchor="middle" x="123" y="-203" font-family="Helvetica,sans-Serif" font-size="10.00">http</text>
</a>
</g>
</g>
<g id="clust2" class="cluster">
<title>clusterdir_c3123cda3d7baceb26cb269eb745dcb2</title>
<g id="a_clust2"><a xlink:href="dir_c3123cda3d7baceb26cb269eb745dcb2.html" target="_top">
<polygon fill="#eeeeff" stroke="black" points="16,-136 16,-188 230,-188 230,-136 16,-136"/>
</a>
</g>
</g>
<!-- dir_c3123cda3d7baceb26cb269eb745dcb2 -->
<g id="node1" class="node">
<title>dir_c3123cda3d7baceb26cb269eb745dcb2</title>
<text text-anchor="middle" x="195" y="-159.5" font-family="Helvetica,sans-Serif" font-size="10.00">server</text>
</g>
<!-- dir_9381a7bbd03577d6d8720c7f35c94ffa -->
<g id="node5" class="node">
<title>dir_9381a7bbd03577d6d8720c7f35c94ffa</title>
<g id="a_node5"><a xlink:href="dir_9381a7bbd03577d6d8720c7f35c94ffa.html" target="_top" xlink:title="log">
<polygon fill="none" stroke="black" points="149,-36 95,-36 95,0 149,0 149,-36"/>
<text text-anchor="middle" x="122" y="-15.5" font-family="Helvetica,sans-Serif" font-size="10.00">log</text>
</a>
</g>
</g>
<!-- dir_c3123cda3d7baceb26cb269eb745dcb2&#45;&gt;dir_9381a7bbd03577d6d8720c7f35c94ffa -->
<g id="edge1" class="edge">
<title>dir_c3123cda3d7baceb26cb269eb745dcb2&#45;&gt;dir_9381a7bbd03577d6d8720c7f35c94ffa</title>
<path fill="none" stroke="black" d="M186.19,-143.87C173.59,-119.35 150.29,-74.03 135.5,-45.26"/>
<polygon fill="black" stroke="black" points="138.52,-43.48 130.84,-36.19 132.3,-46.68 138.52,-43.48"/>
<g id="a_edge1&#45;headlabel"><a xlink:href="dir_000037_000004.html" target="_top" xlink:title="2">
<text text-anchor="middle" x="142.69" y="-42.88" font-family="Helvetica,sans-Serif" font-size="10.00">2</text>
</a>
</g>
</g>
<!-- dir_cbdb8362360e11eafe2fa3bc74cf0ffd -->
<g id="node6" class="node">
<title>dir_cbdb8362360e11eafe2fa3bc74cf0ffd</title>
<g id="a_node6"><a xlink:href="dir_cbdb8362360e11eafe2fa3bc74cf0ffd.html" target="_top" xlink:title="utils">
<polygon fill="none" stroke="black" points="226,-36 172,-36 172,0 226,0 226,-36"/>
<text text-anchor="middle" x="199" y="-15.5" font-family="Helvetica,sans-Serif" font-size="10.00">utils</text>
</a>
</g>
</g>
<!-- dir_c3123cda3d7baceb26cb269eb745dcb2&#45;&gt;dir_cbdb8362360e11eafe2fa3bc74cf0ffd -->
<g id="edge2" class="edge">
<title>dir_c3123cda3d7baceb26cb269eb745dcb2&#45;&gt;dir_cbdb8362360e11eafe2fa3bc74cf0ffd</title>
<path fill="none" stroke="black" d="M195.48,-143.87C196.16,-119.67 197.42,-75.21 198.23,-46.39"/>
<polygon fill="black" stroke="black" points="201.73,-46.28 198.52,-36.19 194.74,-46.09 201.73,-46.28"/>
<g id="a_edge2&#45;headlabel"><a xlink:href="dir_000037_000031.html" target="_top" xlink:title="1">
<text text-anchor="middle" x="204.47" y="-47.46" font-family="Helvetica,sans-Serif" font-size="10.00">1</text>
</a>
</g>
</g>
<!-- dir_bcdd91f0ba8e4464bce42c6903428042 -->
<g id="node2" class="node">
<title>dir_bcdd91f0ba8e4464bce42c6903428042</title>
<g id="a_node2"><a xlink:href="dir_bcdd91f0ba8e4464bce42c6903428042.html" target="_top" xlink:title="legacy">
<polygon fill="white" stroke="black" points="150,-180 96,-180 96,-144 150,-144 150,-180"/>
<text text-anchor="middle" x="123" y="-159.5" font-family="Helvetica,sans-Serif" font-size="10.00">legacy</text>
</a>
</g>
</g>
<!-- dir_427baa8a9a5be237f298d4545d0d1ce2 -->
<g id="node4" class="node">
<title>dir_427baa8a9a5be237f298d4545d0d1ce2</title>
<g id="a_node4"><a xlink:href="dir_427baa8a9a5be237f298d4545d0d1ce2.html" target="_top" xlink:title="net">
<polygon fill="white" stroke="red" points="139,-108 85,-108 85,-72 139,-72 139,-108"/>
<text text-anchor="middle" x="112" y="-87.5" font-family="Helvetica,sans-Serif" font-size="10.00">net</text>
</a>
</g>
</g>
<!-- dir_bcdd91f0ba8e4464bce42c6903428042&#45;&gt;dir_427baa8a9a5be237f298d4545d0d1ce2 -->
<g id="edge3" class="edge">
<title>dir_bcdd91f0ba8e4464bce42c6903428042&#45;&gt;dir_427baa8a9a5be237f298d4545d0d1ce2</title>
<path fill="none" stroke="black" d="M120.28,-143.7C119.07,-135.98 117.61,-126.71 116.26,-118.11"/>
<polygon fill="black" stroke="black" points="119.7,-117.44 114.69,-108.1 112.78,-118.53 119.7,-117.44"/>
<g id="a_edge3&#45;headlabel"><a xlink:href="dir_000038_000005.html" target="_top" xlink:title="2">
<text text-anchor="middle" x="123.06" y="-118.05" font-family="Helvetica,sans-Serif" font-size="10.00">2</text>
</a>
</g>
</g>
<!-- dir_62ee0d4a176d0b3e66ed15d0ac88ad82 -->
<g id="node3" class="node">
<title>dir_62ee0d4a176d0b3e66ed15d0ac88ad82</title>
<g id="a_node3"><a xlink:href="dir_62ee0d4a176d0b3e66ed15d0ac88ad82.html" target="_top" xlink:title="tls">
<polygon fill="white" stroke="black" points="78,-180 24,-180 24,-144 78,-144 78,-180"/>
<text text-anchor="middle" x="51" y="-159.5" font-family="Helvetica,sans-Serif" font-size="10.00">tls</text>
</a>
</g>
</g>
<!-- dir_62ee0d4a176d0b3e66ed15d0ac88ad82&#45;&gt;dir_427baa8a9a5be237f298d4545d0d1ce2 -->
<g id="edge4" class="edge">
<title>dir_62ee0d4a176d0b3e66ed15d0ac88ad82&#45;&gt;dir_427baa8a9a5be237f298d4545d0d1ce2</title>
<path fill="none" stroke="black" d="M66.08,-143.7C73.39,-135.3 82.31,-125.07 90.34,-115.86"/>
<polygon fill="black" stroke="black" points="93.16,-117.94 97.09,-108.1 87.89,-113.34 93.16,-117.94"/>
<g id="a_edge4&#45;headlabel"><a xlink:href="dir_000039_000005.html" target="_top" xlink:title="2">
<text text-anchor="middle" x="92.94" y="-120.02" font-family="Helvetica,sans-Serif" font-size="10.00">2</text>
</a>
</g>
</g>
<!-- dir_427baa8a9a5be237f298d4545d0d1ce2&#45;&gt;dir_9381a7bbd03577d6d8720c7f35c94ffa -->
<g id="edge5" class="edge">
<title>dir_427baa8a9a5be237f298d4545d0d1ce2&#45;&gt;dir_9381a7bbd03577d6d8720c7f35c94ffa</title>
<path fill="none" stroke="black" d="M114.47,-71.7C115.57,-63.98 116.9,-54.71 118.13,-46.11"/>
<polygon fill="black" stroke="black" points="121.61,-46.5 119.56,-36.1 114.68,-45.51 121.61,-46.5"/>
<g id="a_edge5&#45;headlabel"><a xlink:href="dir_000005_000004.html" target="_top" xlink:title="12">
<text text-anchor="middle" x="123.91" y="-47.96" font-family="Helvetica,sans-Serif" font-size="10.00">12</text>
</a>
</g>
</g>
<!-- dir_427baa8a9a5be237f298d4545d0d1ce2&#45;&gt;dir_cbdb8362360e11eafe2fa3bc74cf0ffd -->
<g id="edge6" class="edge">
<title>dir_427baa8a9a5be237f298d4545d0d1ce2&#45;&gt;dir_cbdb8362360e11eafe2fa3bc74cf0ffd</title>
<path fill="none" stroke="black" d="M133.51,-71.7C144.46,-62.88 157.95,-52.03 169.82,-42.47"/>
<polygon fill="black" stroke="black" points="172.14,-45.1 177.74,-36.1 167.76,-39.65 172.14,-45.1"/>
<g id="a_edge6&#45;headlabel"><a xlink:href="dir_000005_000031.html" target="_top" xlink:title="5">
<text text-anchor="middle" x="171.12" y="-47.07" font-family="Helvetica,sans-Serif" font-size="10.00">5</text>
</a>
</g>
</g>
</g>
</svg>
