<?xml version="1.0" encoding="UTF-8" standalone="no"?>
<!DOCTYPE svg PUBLIC "-//W3C//DTD SVG 1.1//EN"
 "http://www.w3.org/Graphics/SVG/1.1/DTD/svg11.dtd">
<!-- Generated by graphviz version 2.43.0 (0)
 -->
<!-- Title: net/socket/ip/tcp/ipv4/legacy Pages: 1 -->
<svg width="94pt" height="151pt"
 viewBox="0.00 0.00 94.00 151.00" xmlns="http://www.w3.org/2000/svg" xmlns:xlink="http://www.w3.org/1999/xlink">
<g id="graph0" class="graph" transform="scale(1 1) rotate(0) translate(4 147)">
<title>net/socket/ip/tcp/ipv4/legacy</title>
<polygon fill="white" stroke="transparent" points="-4,4 -4,-147 90,-147 90,4 -4,4"/>
<g id="clust1" class="cluster">
<title>clusterdir_51362751a3ab31f297cc8f29d9f70e45</title>
<g id="a_clust1"><a xlink:href="dir_51362751a3ab31f297cc8f29d9f70e45.html" target="_top" xlink:title="ipv4">
<polygon fill="#ddddee" stroke="black" points="8,-64 8,-135 78,-135 78,-64 8,-64"/>
<text text-anchor="middle" x="43" y="-123" font-family="Helvetica,sans-Serif" font-size="10.00">ipv4</text>
</a>
</g>
</g>
<!-- dir_117f96f2c3b3fcf8c6b66feea84c8995 -->
<g id="node1" class="node">
<title>dir_117f96f2c3b3fcf8c6b66feea84c8995</title>
<g id="a_node1"><a xlink:href="dir_117f96f2c3b3fcf8c6b66feea84c8995.html" target="_top" xlink:title="legacy">
<polygon fill="#eeeeff" stroke="black" points="70,-108 16,-108 16,-72 70,-72 70,-108"/>
<text text-anchor="middle" x="43" y="-87.5" font-family="Helvetica,sans-Serif" font-size="10.00">legacy</text>
</a>
</g>
</g>
<!-- dir_c0c51ca70b1154ee90f078275a100cbc -->
<g id="node2" class="node">
<title>dir_c0c51ca70b1154ee90f078275a100cbc</title>
<g id="a_node2"><a xlink:href="dir_c0c51ca70b1154ee90f078275a100cbc.html" target="_top" xlink:title="stream">
<polygon fill="white" stroke="red" points="70,-36 16,-36 16,0 70,0 70,-36"/>
<text text-anchor="middle" x="43" y="-15.5" font-family="Helvetica,sans-Serif" font-size="10.00">stream</text>
</a>
</g>
</g>
<!-- dir_117f96f2c3b3fcf8c6b66feea84c8995&#45;&gt;dir_c0c51ca70b1154ee90f078275a100cbc -->
<g id="edge1" class="edge">
<title>dir_117f96f2c3b3fcf8c6b66feea84c8995&#45;&gt;dir_c0c51ca70b1154ee90f078275a100cbc</title>
<path fill="none" stroke="black" d="M43,-71.7C43,-63.98 43,-54.71 43,-46.11"/>
<polygon fill="black" stroke="black" points="46.5,-46.1 43,-36.1 39.5,-46.1 46.5,-46.1"/>
<g id="a_edge1&#45;headlabel"><a xlink:href="dir_000020_000024.html" target="_top" xlink:title="2">
<text text-anchor="middle" x="49.34" y="-47.2" font-family="Helvetica,sans-Serif" font-size="10.00">2</text>
</a>
</g>
</g>
</g>
</svg>
