<?xml version="1.0" encoding="UTF-8" standalone="no"?>
<!DOCTYPE svg PUBLIC "-//W3C//DTD SVG 1.1//EN"
 "http://www.w3.org/Graphics/SVG/1.1/DTD/svg11.dtd">
<!-- Generated by graphviz version 2.43.0 (0)
 -->
<!-- Title: web/http Pages: 1 -->
<svg width="254pt" height="295pt"
 viewBox="0.00 0.00 254.14 295.00" xmlns="http://www.w3.org/2000/svg" xmlns:xlink="http://www.w3.org/1999/xlink">
<g id="graph0" class="graph" transform="scale(1 1) rotate(0) translate(4 291)">
<title>web/http</title>
<polygon fill="white" stroke="transparent" points="-4,4 -4,-291 250.14,-291 250.14,4 -4,4"/>
<g id="clust1" class="cluster">
<title>clusterdir_562abdcd8625d4bf7bad2fe6fe01354c</title>
<g id="a_clust1"><a xlink:href="dir_562abdcd8625d4bf7bad2fe6fe01354c.html" target="_top" xlink:title="web">
<polygon fill="#ddddee" stroke="black" points="8.14,-128 8.14,-279 238.14,-279 238.14,-128 8.14,-128"/>
<text text-anchor="middle" x="123.14" y="-267" font-family="Helvetica,sans-Serif" font-size="10.00">web</text>
</a>
</g>
</g>
<g id="clust2" class="cluster">
<title>clusterdir_890691660869da6a17298077dcca53fb</title>
<g id="a_clust2"><a xlink:href="dir_890691660869da6a17298077dcca53fb.html" target="_top">
<polygon fill="#eeeeff" stroke="black" points="16.14,-136 16.14,-188 230.14,-188 230.14,-136 16.14,-136"/>
</a>
</g>
</g>
<!-- dir_ec426a97ce461160e35695da59315765 -->
<g id="node1" class="node">
<title>dir_ec426a97ce461160e35695da59315765</title>
<g id="a_node1"><a xlink:href="dir_ec426a97ce461160e35695da59315765.html" target="_top" xlink:title="ws">
<polygon fill="white" stroke="red" points="150.14,-252 96.14,-252 96.14,-216 150.14,-216 150.14,-252"/>
<text text-anchor="middle" x="123.14" y="-231.5" font-family="Helvetica,sans-Serif" font-size="10.00">ws</text>
</a>
</g>
</g>
<!-- dir_c3123cda3d7baceb26cb269eb745dcb2 -->
<g id="node4" class="node">
<title>dir_c3123cda3d7baceb26cb269eb745dcb2</title>
<g id="a_node4"><a xlink:href="dir_c3123cda3d7baceb26cb269eb745dcb2.html" target="_top" xlink:title="server">
<polygon fill="white" stroke="red" points="150.14,-180 96.14,-180 96.14,-144 150.14,-144 150.14,-180"/>
<text text-anchor="middle" x="123.14" y="-159.5" font-family="Helvetica,sans-Serif" font-size="10.00">server</text>
</a>
</g>
</g>
<!-- dir_ec426a97ce461160e35695da59315765&#45;&gt;dir_c3123cda3d7baceb26cb269eb745dcb2 -->
<g id="edge9" class="edge">
<title>dir_ec426a97ce461160e35695da59315765&#45;&gt;dir_c3123cda3d7baceb26cb269eb745dcb2</title>
<path fill="none" stroke="black" d="M129.06,-215.7C129.85,-207.98 130.08,-198.71 129.74,-190.11"/>
<polygon fill="black" stroke="black" points="133.23,-189.84 129.04,-180.1 126.24,-190.32 133.23,-189.84"/>
<g id="a_edge9&#45;headlabel"><a xlink:href="dir_000031_000036.html" target="_top" xlink:title="4">
<text text-anchor="middle" x="136.31" y="-190.72" font-family="Helvetica,sans-Serif" font-size="10.00">4</text>
</a>
</g>
</g>
<!-- dir_427baa8a9a5be237f298d4545d0d1ce2 -->
<g id="node5" class="node">
<title>dir_427baa8a9a5be237f298d4545d0d1ce2</title>
<g id="a_node5"><a xlink:href="dir_427baa8a9a5be237f298d4545d0d1ce2.html" target="_top" xlink:title="net">
<polygon fill="white" stroke="red" points="154.14,-108 100.14,-108 100.14,-72 154.14,-72 154.14,-108"/>
<text text-anchor="middle" x="127.14" y="-87.5" font-family="Helvetica,sans-Serif" font-size="10.00">net</text>
</a>
</g>
</g>
<!-- dir_ec426a97ce461160e35695da59315765&#45;&gt;dir_427baa8a9a5be237f298d4545d0d1ce2 -->
<g id="edge7" class="edge">
<title>dir_ec426a97ce461160e35695da59315765&#45;&gt;dir_427baa8a9a5be237f298d4545d0d1ce2</title>
<path fill="none" stroke="black" d="M150.42,-230.4C176.84,-226.27 215.55,-215.59 234.14,-188 249.04,-165.88 249.61,-149.72 234.14,-128 218.38,-105.87 188.43,-96.85 164.22,-93.23"/>
<polygon fill="black" stroke="black" points="164.61,-89.76 154.26,-91.99 163.75,-96.7 164.61,-89.76"/>
<g id="a_edge7&#45;headlabel"><a xlink:href="dir_000031_000005.html" target="_top" xlink:title="3">
<text text-anchor="middle" x="168.53" y="-84.88" font-family="Helvetica,sans-Serif" font-size="10.00">3</text>
</a>
</g>
</g>
<!-- dir_9381a7bbd03577d6d8720c7f35c94ffa -->
<g id="node6" class="node">
<title>dir_9381a7bbd03577d6d8720c7f35c94ffa</title>
<g id="a_node6"><a xlink:href="dir_9381a7bbd03577d6d8720c7f35c94ffa.html" target="_top" xlink:title="log">
<polygon fill="none" stroke="black" points="85.14,-36 31.14,-36 31.14,0 85.14,0 85.14,-36"/>
<text text-anchor="middle" x="58.14" y="-15.5" font-family="Helvetica,sans-Serif" font-size="10.00">log</text>
</a>
</g>
</g>
<!-- dir_ec426a97ce461160e35695da59315765&#45;&gt;dir_9381a7bbd03577d6d8720c7f35c94ffa -->
<g id="edge8" class="edge">
<title>dir_ec426a97ce461160e35695da59315765&#45;&gt;dir_9381a7bbd03577d6d8720c7f35c94ffa</title>
<path fill="none" stroke="black" d="M95.86,-230.4C69.44,-226.27 30.73,-215.59 12.14,-188 -17.93,-143.36 15.57,-79.66 39.11,-44.6"/>
<polygon fill="black" stroke="black" points="42.02,-46.54 44.84,-36.33 36.27,-42.56 42.02,-46.54"/>
<g id="a_edge8&#45;headlabel"><a xlink:href="dir_000031_000004.html" target="_top" xlink:title="7">
<text text-anchor="middle" x="42.31" y="-48.61" font-family="Helvetica,sans-Serif" font-size="10.00">7</text>
</a>
</g>
</g>
<!-- dir_890691660869da6a17298077dcca53fb -->
<g id="node2" class="node">
<title>dir_890691660869da6a17298077dcca53fb</title>
<text text-anchor="middle" x="195.14" y="-159.5" font-family="Helvetica,sans-Serif" font-size="10.00">http</text>
</g>
<!-- dir_4ef14d1fb44f92669709c64c27e0d9bf -->
<g id="node3" class="node">
<title>dir_4ef14d1fb44f92669709c64c27e0d9bf</title>
<g id="a_node3"><a xlink:href="dir_4ef14d1fb44f92669709c64c27e0d9bf.html" target="_top" xlink:title="client">
<polygon fill="white" stroke="red" points="78.14,-180 24.14,-180 24.14,-144 78.14,-144 78.14,-180"/>
<text text-anchor="middle" x="51.14" y="-159.5" font-family="Helvetica,sans-Serif" font-size="10.00">client</text>
</a>
</g>
</g>
<!-- dir_4ef14d1fb44f92669709c64c27e0d9bf&#45;&gt;dir_427baa8a9a5be237f298d4545d0d1ce2 -->
<g id="edge5" class="edge">
<title>dir_4ef14d1fb44f92669709c64c27e0d9bf&#45;&gt;dir_427baa8a9a5be237f298d4545d0d1ce2</title>
<path fill="none" stroke="black" d="M69.93,-143.7C79.32,-135.05 90.83,-124.45 101.06,-115.03"/>
<polygon fill="black" stroke="black" points="103.59,-117.45 108.57,-108.1 98.84,-112.3 103.59,-117.45"/>
<g id="a_edge5&#45;headlabel"><a xlink:href="dir_000035_000005.html" target="_top" xlink:title="9">
<text text-anchor="middle" x="102.87" y="-119.48" font-family="Helvetica,sans-Serif" font-size="10.00">9</text>
</a>
</g>
</g>
<!-- dir_4ef14d1fb44f92669709c64c27e0d9bf&#45;&gt;dir_9381a7bbd03577d6d8720c7f35c94ffa -->
<g id="edge6" class="edge">
<title>dir_4ef14d1fb44f92669709c64c27e0d9bf&#45;&gt;dir_9381a7bbd03577d6d8720c7f35c94ffa</title>
<path fill="none" stroke="black" d="M51.99,-143.87C53.18,-119.67 55.37,-75.21 56.79,-46.39"/>
<polygon fill="black" stroke="black" points="60.3,-46.35 57.29,-36.19 53.31,-46 60.3,-46.35"/>
<g id="a_edge6&#45;headlabel"><a xlink:href="dir_000035_000004.html" target="_top" xlink:title="2">
<text text-anchor="middle" x="62.96" y="-47.58" font-family="Helvetica,sans-Serif" font-size="10.00">2</text>
</a>
</g>
</g>
<!-- dir_c3123cda3d7baceb26cb269eb745dcb2&#45;&gt;dir_ec426a97ce461160e35695da59315765 -->
<g id="edge4" class="edge">
<title>dir_c3123cda3d7baceb26cb269eb745dcb2&#45;&gt;dir_ec426a97ce461160e35695da59315765</title>
<path fill="none" stroke="black" d="M117.25,-180.1C116.44,-187.79 116.21,-197.05 116.54,-205.67"/>
<polygon fill="black" stroke="black" points="113.05,-205.96 117.23,-215.7 120.03,-205.48 113.05,-205.96"/>
<g id="a_edge4&#45;headlabel"><a xlink:href="dir_000036_000031.html" target="_top" xlink:title="2">
<text text-anchor="middle" x="109.97" y="-200.07" font-family="Helvetica,sans-Serif" font-size="10.00">2</text>
</a>
</g>
</g>
<!-- dir_c3123cda3d7baceb26cb269eb745dcb2&#45;&gt;dir_427baa8a9a5be237f298d4545d0d1ce2 -->
<g id="edge1" class="edge">
<title>dir_c3123cda3d7baceb26cb269eb745dcb2&#45;&gt;dir_427baa8a9a5be237f298d4545d0d1ce2</title>
<path fill="none" stroke="black" d="M124.13,-143.7C124.57,-135.98 125.1,-126.71 125.59,-118.11"/>
<polygon fill="black" stroke="black" points="129.09,-118.29 126.16,-108.1 122.1,-117.89 129.09,-118.29"/>
<g id="a_edge1&#45;headlabel"><a xlink:href="dir_000036_000005.html" target="_top" xlink:title="10">
<text text-anchor="middle" x="131.72" y="-119.54" font-family="Helvetica,sans-Serif" font-size="10.00">10</text>
</a>
</g>
</g>
<!-- dir_c3123cda3d7baceb26cb269eb745dcb2&#45;&gt;dir_9381a7bbd03577d6d8720c7f35c94ffa -->
<g id="edge2" class="edge">
<title>dir_c3123cda3d7baceb26cb269eb745dcb2&#45;&gt;dir_9381a7bbd03577d6d8720c7f35c94ffa</title>
<path fill="none" stroke="black" d="M111.62,-143.8C105.12,-133.64 97.12,-120.39 91.14,-108 81.35,-87.68 72.59,-63.64 66.56,-45.67"/>
<polygon fill="black" stroke="black" points="69.87,-44.53 63.43,-36.12 63.22,-46.72 69.87,-44.53"/>
<g id="a_edge2&#45;headlabel"><a xlink:href="dir_000036_000004.html" target="_top" xlink:title="2">
<text text-anchor="middle" x="73.69" y="-44.56" font-family="Helvetica,sans-Serif" font-size="10.00">2</text>
</a>
</g>
</g>
<!-- dir_cbdb8362360e11eafe2fa3bc74cf0ffd -->
<g id="node7" class="node">
<title>dir_cbdb8362360e11eafe2fa3bc74cf0ffd</title>
<g id="a_node7"><a xlink:href="dir_cbdb8362360e11eafe2fa3bc74cf0ffd.html" target="_top" xlink:title="utils">
<polygon fill="none" stroke="black" points="167.14,-36 113.14,-36 113.14,0 167.14,0 167.14,-36"/>
<text text-anchor="middle" x="140.14" y="-15.5" font-family="Helvetica,sans-Serif" font-size="10.00">utils</text>
</a>
</g>
</g>
<!-- dir_c3123cda3d7baceb26cb269eb745dcb2&#45;&gt;dir_cbdb8362360e11eafe2fa3bc74cf0ffd -->
<g id="edge3" class="edge">
<title>dir_c3123cda3d7baceb26cb269eb745dcb2&#45;&gt;dir_cbdb8362360e11eafe2fa3bc74cf0ffd</title>
<path fill="none" stroke="black" d="M140.88,-143.6C149.38,-134 158.67,-121.34 163.14,-108 170.07,-87.32 163.04,-63.35 154.99,-45.5"/>
<polygon fill="black" stroke="black" points="158.02,-43.73 150.49,-36.27 151.73,-46.79 158.02,-43.73"/>
<g id="a_edge3&#45;headlabel"><a xlink:href="dir_000036_000038.html" target="_top" xlink:title="1">
<text text-anchor="middle" x="162.15" y="-43.21" font-family="Helvetica,sans-Serif" font-size="10.00">1</text>
</a>
</g>
</g>
<!-- dir_427baa8a9a5be237f298d4545d0d1ce2&#45;&gt;dir_9381a7bbd03577d6d8720c7f35c94ffa -->
<g id="edge10" class="edge">
<title>dir_427baa8a9a5be237f298d4545d0d1ce2&#45;&gt;dir_9381a7bbd03577d6d8720c7f35c94ffa</title>
<path fill="none" stroke="black" d="M110.09,-71.7C101.65,-63.14 91.32,-52.66 82.1,-43.3"/>
<polygon fill="black" stroke="black" points="84.51,-40.77 75,-36.1 79.53,-45.68 84.51,-40.77"/>
<g id="a_edge10&#45;headlabel"><a xlink:href="dir_000005_000004.html" target="_top" xlink:title="12">
<text text-anchor="middle" x="89.06" y="-38.84" font-family="Helvetica,sans-Serif" font-size="10.00">12</text>
</a>
</g>
</g>
<!-- dir_427baa8a9a5be237f298d4545d0d1ce2&#45;&gt;dir_cbdb8362360e11eafe2fa3bc74cf0ffd -->
<g id="edge11" class="edge">
<title>dir_427baa8a9a5be237f298d4545d0d1ce2&#45;&gt;dir_cbdb8362360e11eafe2fa3bc74cf0ffd</title>
<path fill="none" stroke="black" d="M130.36,-71.7C131.79,-63.98 133.51,-54.71 135.11,-46.11"/>
<polygon fill="black" stroke="black" points="138.58,-46.58 136.97,-36.1 131.7,-45.3 138.58,-46.58"/>
<g id="a_edge11&#45;headlabel"><a xlink:href="dir_000005_000038.html" target="_top" xlink:title="5">
<text text-anchor="middle" x="140.72" y="-48.13" font-family="Helvetica,sans-Serif" font-size="10.00">5</text>
</a>
</g>
</g>
</g>
</svg>
