<?xml version="1.0" encoding="UTF-8" standalone="no"?>
<!DOCTYPE svg PUBLIC "-//W3C//DTD SVG 1.1//EN"
 "http://www.w3.org/Graphics/SVG/1.1/DTD/svg11.dtd">
<!-- Generated by graphviz version 2.43.0 (0)
 -->
<!-- Title: net Pages: 1 -->
<svg width="436pt" height="148pt"
 viewBox="0.00 0.00 436.00 148.00" xmlns="http://www.w3.org/2000/svg" xmlns:xlink="http://www.w3.org/1999/xlink">
<g id="graph0" class="graph" transform="scale(1 1) rotate(0) translate(4 144)">
<title>net</title>
<polygon fill="white" stroke="transparent" points="-4,4 -4,-144 432,-144 432,4 -4,4"/>
<g id="clust1" class="cluster">
<title>clusterdir_427baa8a9a5be237f298d4545d0d1ce2</title>
<g id="a_clust1"><a xlink:href="dir_427baa8a9a5be237f298d4545d0d1ce2.html" target="_top">
<polygon fill="#eeeeff" stroke="black" points="8,-8 8,-132 366,-132 366,-8 8,-8"/>
</a>
</g>
</g>
<!-- dir_427baa8a9a5be237f298d4545d0d1ce2 -->
<g id="node1" class="node">
<title>dir_427baa8a9a5be237f298d4545d0d1ce2</title>
<text text-anchor="middle" x="331" y="-103.5" font-family="Helvetica,sans-Serif" font-size="10.00">net</text>
</g>
<!-- dir_cbdb8362360e11eafe2fa3bc74cf0ffd -->
<g id="node7" class="node">
<title>dir_cbdb8362360e11eafe2fa3bc74cf0ffd</title>
<g id="a_node7"><a xlink:href="dir_cbdb8362360e11eafe2fa3bc74cf0ffd.html" target="_top" xlink:title="utils">
<polygon fill="none" stroke="black" points="428,-52 374,-52 374,-16 428,-16 428,-52"/>
<text text-anchor="middle" x="401" y="-31.5" font-family="Helvetica,sans-Serif" font-size="10.00">utils</text>
</a>
</g>
</g>
<!-- dir_427baa8a9a5be237f298d4545d0d1ce2&#45;&gt;dir_cbdb8362360e11eafe2fa3bc74cf0ffd -->
<g id="edge2" class="edge">
<title>dir_427baa8a9a5be237f298d4545d0d1ce2&#45;&gt;dir_cbdb8362360e11eafe2fa3bc74cf0ffd</title>
<path fill="none" stroke="black" d="M348.3,-87.7C356.86,-79.14 367.34,-68.66 376.7,-59.3"/>
<polygon fill="black" stroke="black" points="379.3,-61.65 383.9,-52.1 374.35,-56.7 379.3,-61.65"/>
<g id="a_edge2&#45;headlabel"><a xlink:href="dir_000005_000038.html" target="_top" xlink:title="2">
<text text-anchor="middle" x="378.77" y="-63.7" font-family="Helvetica,sans-Serif" font-size="10.00">2</text>
</a>
</g>
</g>
<!-- dir_7d98aef28b7b074dbe99ec845754fe0d -->
<g id="node2" class="node">
<title>dir_7d98aef28b7b074dbe99ec845754fe0d</title>
<g id="a_node2"><a xlink:href="dir_7d98aef28b7b074dbe99ec845754fe0d.html" target="_top" xlink:title="file">
<polygon fill="white" stroke="black" points="286,-124 232,-124 232,-88 286,-88 286,-124"/>
<text text-anchor="middle" x="259" y="-103.5" font-family="Helvetica,sans-Serif" font-size="10.00">file</text>
</a>
</g>
</g>
<!-- dir_2f8c852d54e1ac08fb6f2013f6ec9573 -->
<g id="node3" class="node">
<title>dir_2f8c852d54e1ac08fb6f2013f6ec9573</title>
<g id="a_node3"><a xlink:href="dir_2f8c852d54e1ac08fb6f2013f6ec9573.html" target="_top" xlink:title="pipe">
<polygon fill="white" stroke="black" points="286,-52 232,-52 232,-16 286,-16 286,-52"/>
<text text-anchor="middle" x="259" y="-31.5" font-family="Helvetica,sans-Serif" font-size="10.00">pipe</text>
</a>
</g>
</g>
<!-- dir_7d98aef28b7b074dbe99ec845754fe0d&#45;&gt;dir_2f8c852d54e1ac08fb6f2013f6ec9573 -->
<g id="edge1" class="edge">
<title>dir_7d98aef28b7b074dbe99ec845754fe0d&#45;&gt;dir_2f8c852d54e1ac08fb6f2013f6ec9573</title>
<path fill="none" stroke="black" d="M259,-87.7C259,-79.98 259,-70.71 259,-62.11"/>
<polygon fill="black" stroke="black" points="262.5,-62.1 259,-52.1 255.5,-62.1 262.5,-62.1"/>
<g id="a_edge1&#45;headlabel"><a xlink:href="dir_000006_000007.html" target="_top" xlink:title="1">
<text text-anchor="middle" x="265.34" y="-63.2" font-family="Helvetica,sans-Serif" font-size="10.00">1</text>
</a>
</g>
</g>
<!-- dir_382ef741074736e441d51c2128e55f50 -->
<g id="node4" class="node">
<title>dir_382ef741074736e441d51c2128e55f50</title>
<g id="a_node4"><a xlink:href="dir_382ef741074736e441d51c2128e55f50.html" target="_top" xlink:title="socket">
<polygon fill="white" stroke="red" points="214,-124 160,-124 160,-88 214,-88 214,-124"/>
<text text-anchor="middle" x="187" y="-103.5" font-family="Helvetica,sans-Serif" font-size="10.00">socket</text>
</a>
</g>
</g>
<!-- dir_8e2c385fba2509044c8bef06f6278b9b -->
<g id="node5" class="node">
<title>dir_8e2c385fba2509044c8bef06f6278b9b</title>
<g id="a_node5"><a xlink:href="dir_8e2c385fba2509044c8bef06f6278b9b.html" target="_top" xlink:title="system">
<polygon fill="white" stroke="black" points="142,-124 88,-124 88,-88 142,-88 142,-124"/>
<text text-anchor="middle" x="115" y="-103.5" font-family="Helvetica,sans-Serif" font-size="10.00">system</text>
</a>
</g>
</g>
<!-- dir_6e2b60c0f0423aa4bcbcd1a4697f31d0 -->
<g id="node6" class="node">
<title>dir_6e2b60c0f0423aa4bcbcd1a4697f31d0</title>
<g id="a_node6"><a xlink:href="dir_6e2b60c0f0423aa4bcbcd1a4697f31d0.html" target="_top" xlink:title="timer">
<polygon fill="white" stroke="black" points="70,-124 16,-124 16,-88 70,-88 70,-124"/>
<text text-anchor="middle" x="43" y="-103.5" font-family="Helvetica,sans-Serif" font-size="10.00">timer</text>
</a>
</g>
</g>
</g>
</svg>
