<?xml version="1.0" encoding="UTF-8" standalone="no"?>
<!DOCTYPE svg PUBLIC "-//W3C//DTD SVG 1.1//EN"
 "http://www.w3.org/Graphics/SVG/1.1/DTD/svg11.dtd">
<!-- Generated by graphviz version 2.43.0 (0)
 -->
<!-- Title: net/socket/ip/tcp Pages: 1 -->
<svg width="308pt" height="175pt"
 viewBox="0.00 0.00 308.00 175.00" xmlns="http://www.w3.org/2000/svg" xmlns:xlink="http://www.w3.org/1999/xlink">
<g id="graph0" class="graph" transform="scale(1 1) rotate(0) translate(4 171)">
<title>net/socket/ip/tcp</title>
<polygon fill="white" stroke="transparent" points="-4,4 -4,-171 304,-171 304,4 -4,4"/>
<g id="clust1" class="cluster">
<title>clusterdir_f557e9e98d341744a02fe587d6c821e2</title>
<g id="a_clust1"><a xlink:href="dir_f557e9e98d341744a02fe587d6c821e2.html" target="_top" xlink:title="ip">
<polygon fill="#ddddee" stroke="black" points="8,-8 8,-159 238,-159 238,-8 8,-8"/>
<text text-anchor="middle" x="123" y="-147" font-family="Helvetica,sans-Serif" font-size="10.00">ip</text>
</a>
</g>
</g>
<g id="clust2" class="cluster">
<title>clusterdir_b532a7ef0306a40b7a55a28262d5cd64</title>
<g id="a_clust2"><a xlink:href="dir_b532a7ef0306a40b7a55a28262d5cd64.html" target="_top">
<polygon fill="#eeeeff" stroke="black" points="16,-80 16,-132 230,-132 230,-80 16,-80"/>
</a>
</g>
</g>
<!-- dir_74d0a5e30b2586d2eea3f59bef12eacf -->
<g id="node1" class="node">
<title>dir_74d0a5e30b2586d2eea3f59bef12eacf</title>
<g id="a_node1"><a xlink:href="dir_74d0a5e30b2586d2eea3f59bef12eacf.html" target="_top" xlink:title="address">
<polygon fill="white" stroke="red" points="114,-52 60,-52 60,-16 114,-16 114,-52"/>
<text text-anchor="middle" x="87" y="-31.5" font-family="Helvetica,sans-Serif" font-size="10.00">address</text>
</a>
</g>
</g>
<!-- dir_b532a7ef0306a40b7a55a28262d5cd64 -->
<g id="node2" class="node">
<title>dir_b532a7ef0306a40b7a55a28262d5cd64</title>
<text text-anchor="middle" x="195" y="-103.5" font-family="Helvetica,sans-Serif" font-size="10.00">tcp</text>
</g>
<!-- dir_51362751a3ab31f297cc8f29d9f70e45 -->
<g id="node3" class="node">
<title>dir_51362751a3ab31f297cc8f29d9f70e45</title>
<g id="a_node3"><a xlink:href="dir_51362751a3ab31f297cc8f29d9f70e45.html" target="_top" xlink:title="ipv4">
<polygon fill="white" stroke="red" points="150,-124 96,-124 96,-88 150,-88 150,-124"/>
<text text-anchor="middle" x="123" y="-103.5" font-family="Helvetica,sans-Serif" font-size="10.00">ipv4</text>
</a>
</g>
</g>
<!-- dir_51362751a3ab31f297cc8f29d9f70e45&#45;&gt;dir_74d0a5e30b2586d2eea3f59bef12eacf -->
<g id="edge1" class="edge">
<title>dir_51362751a3ab31f297cc8f29d9f70e45&#45;&gt;dir_74d0a5e30b2586d2eea3f59bef12eacf</title>
<path fill="none" stroke="black" d="M114.1,-87.7C110,-79.73 105.05,-70.1 100.51,-61.26"/>
<polygon fill="black" stroke="black" points="103.48,-59.4 95.8,-52.1 97.26,-62.6 103.48,-59.4"/>
<g id="a_edge1&#45;headlabel"><a xlink:href="dir_000015_000027.html" target="_top" xlink:title="1">
<text text-anchor="middle" x="107.65" y="-58.79" font-family="Helvetica,sans-Serif" font-size="10.00">1</text>
</a>
</g>
</g>
<!-- dir_c0c51ca70b1154ee90f078275a100cbc -->
<g id="node5" class="node">
<title>dir_c0c51ca70b1154ee90f078275a100cbc</title>
<g id="a_node5"><a xlink:href="dir_c0c51ca70b1154ee90f078275a100cbc.html" target="_top" xlink:title="stream">
<polygon fill="white" stroke="red" points="300,-52 246,-52 246,-16 300,-16 300,-52"/>
<text text-anchor="middle" x="273" y="-31.5" font-family="Helvetica,sans-Serif" font-size="10.00">stream</text>
</a>
</g>
</g>
<!-- dir_51362751a3ab31f297cc8f29d9f70e45&#45;&gt;dir_c0c51ca70b1154ee90f078275a100cbc -->
<g id="edge2" class="edge">
<title>dir_51362751a3ab31f297cc8f29d9f70e45&#45;&gt;dir_c0c51ca70b1154ee90f078275a100cbc</title>
<path fill="none" stroke="black" d="M145.64,-87.86C149.95,-85.01 154.51,-82.26 159,-80 190.79,-64.01 204.02,-66.93 236.15,-54.29"/>
<polygon fill="black" stroke="black" points="237.87,-57.37 245.75,-50.28 235.17,-50.91 237.87,-57.37"/>
<g id="a_edge2&#45;headlabel"><a xlink:href="dir_000015_000024.html" target="_top" xlink:title="4">
<text text-anchor="middle" x="235.64" y="-58.87" font-family="Helvetica,sans-Serif" font-size="10.00">4</text>
</a>
</g>
</g>
<!-- dir_6281f9adb55f5747b8b8bf01d986174b -->
<g id="node4" class="node">
<title>dir_6281f9adb55f5747b8b8bf01d986174b</title>
<g id="a_node4"><a xlink:href="dir_6281f9adb55f5747b8b8bf01d986174b.html" target="_top" xlink:title="ipv6">
<polygon fill="white" stroke="red" points="78,-124 24,-124 24,-88 78,-88 78,-124"/>
<text text-anchor="middle" x="51" y="-103.5" font-family="Helvetica,sans-Serif" font-size="10.00">ipv6</text>
</a>
</g>
</g>
<!-- dir_6281f9adb55f5747b8b8bf01d986174b&#45;&gt;dir_74d0a5e30b2586d2eea3f59bef12eacf -->
<g id="edge3" class="edge">
<title>dir_6281f9adb55f5747b8b8bf01d986174b&#45;&gt;dir_74d0a5e30b2586d2eea3f59bef12eacf</title>
<path fill="none" stroke="black" d="M59.9,-87.7C64,-79.73 68.95,-70.1 73.49,-61.26"/>
<polygon fill="black" stroke="black" points="76.74,-62.6 78.2,-52.1 70.52,-59.4 76.74,-62.6"/>
<g id="a_edge3&#45;headlabel"><a xlink:href="dir_000016_000027.html" target="_top" xlink:title="1">
<text text-anchor="middle" x="77.62" y="-64.59" font-family="Helvetica,sans-Serif" font-size="10.00">1</text>
</a>
</g>
</g>
<!-- dir_6281f9adb55f5747b8b8bf01d986174b&#45;&gt;dir_c0c51ca70b1154ee90f078275a100cbc -->
<g id="edge4" class="edge">
<title>dir_6281f9adb55f5747b8b8bf01d986174b&#45;&gt;dir_c0c51ca70b1154ee90f078275a100cbc</title>
<path fill="none" stroke="black" d="M72.6,-87.81C77.16,-84.83 82.08,-82.04 87,-80 148.64,-54.46 173.64,-73.39 236.31,-53.71"/>
<polygon fill="black" stroke="black" points="237.47,-57.01 245.84,-50.52 235.24,-50.37 237.47,-57.01"/>
<g id="a_edge4&#45;headlabel"><a xlink:href="dir_000016_000024.html" target="_top" xlink:title="4">
<text text-anchor="middle" x="234.96" y="-58.35" font-family="Helvetica,sans-Serif" font-size="10.00">4</text>
</a>
</g>
</g>
</g>
</svg>
