<?xml version="1.0" encoding="UTF-8" standalone="no"?>
<!DOCTYPE svg PUBLIC "-//W3C//DTD SVG 1.1//EN"
 "http://www.w3.org/Graphics/SVG/1.1/DTD/svg11.dtd">
<!-- Generated by graphviz version 2.43.0 (0)
 -->
<!-- Title: express Pages: 1 -->
<svg width="322pt" height="276pt"
 viewBox="0.00 0.00 322.00 276.00" xmlns="http://www.w3.org/2000/svg" xmlns:xlink="http://www.w3.org/1999/xlink">
<g id="graph0" class="graph" transform="scale(1 1) rotate(0) translate(4 272)">
<title>express</title>
<polygon fill="white" stroke="transparent" points="-4,4 -4,-272 318,-272 318,4 -4,4"/>
<g id="clust1" class="cluster">
<title>clusterdir_e2b20abddc1d75e9fa824bc5544f9c72</title>
<g id="a_clust1"><a xlink:href="dir_e2b20abddc1d75e9fa824bc5544f9c72.html" target="_top">
<polygon fill="#eeeeff" stroke="black" points="8,-208 8,-260 306,-260 306,-208 8,-208"/>
</a>
</g>
</g>
<!-- dir_e2b20abddc1d75e9fa824bc5544f9c72 -->
<g id="node1" class="node">
<title>dir_e2b20abddc1d75e9fa824bc5544f9c72</title>
<text text-anchor="middle" x="43" y="-231.5" font-family="Helvetica,sans-Serif" font-size="10.00">express</text>
</g>
<!-- dir_427baa8a9a5be237f298d4545d0d1ce2 -->
<g id="node5" class="node">
<title>dir_427baa8a9a5be237f298d4545d0d1ce2</title>
<g id="a_node5"><a xlink:href="dir_427baa8a9a5be237f298d4545d0d1ce2.html" target="_top" xlink:title="net">
<polygon fill="white" stroke="red" points="115,-108 61,-108 61,-72 115,-72 115,-108"/>
<text text-anchor="middle" x="88" y="-87.5" font-family="Helvetica,sans-Serif" font-size="10.00">net</text>
</a>
</g>
</g>
<!-- dir_e2b20abddc1d75e9fa824bc5544f9c72&#45;&gt;dir_427baa8a9a5be237f298d4545d0d1ce2 -->
<g id="edge1" class="edge">
<title>dir_e2b20abddc1d75e9fa824bc5544f9c72&#45;&gt;dir_427baa8a9a5be237f298d4545d0d1ce2</title>
<path fill="none" stroke="black" d="M48.43,-215.87C56.13,-191.56 70.31,-146.82 79.44,-118.01"/>
<polygon fill="black" stroke="black" points="82.87,-118.78 82.55,-108.19 76.2,-116.66 82.87,-118.78"/>
<g id="a_edge1&#45;headlabel"><a xlink:href="dir_000000_000008.html" target="_top" xlink:title="2">
<text text-anchor="middle" x="84.49" y="-120.56" font-family="Helvetica,sans-Serif" font-size="10.00">2</text>
</a>
</g>
</g>
<!-- dir_9381a7bbd03577d6d8720c7f35c94ffa -->
<g id="node6" class="node">
<title>dir_9381a7bbd03577d6d8720c7f35c94ffa</title>
<g id="a_node6"><a xlink:href="dir_9381a7bbd03577d6d8720c7f35c94ffa.html" target="_top" xlink:title="log">
<polygon fill="none" stroke="black" points="142,-36 88,-36 88,0 142,0 142,-36"/>
<text text-anchor="middle" x="115" y="-15.5" font-family="Helvetica,sans-Serif" font-size="10.00">log</text>
</a>
</g>
</g>
<!-- dir_e2b20abddc1d75e9fa824bc5544f9c72&#45;&gt;dir_9381a7bbd03577d6d8720c7f35c94ffa -->
<g id="edge2" class="edge">
<title>dir_e2b20abddc1d75e9fa824bc5544f9c72&#45;&gt;dir_9381a7bbd03577d6d8720c7f35c94ffa</title>
<path fill="none" stroke="black" d="M39.74,-215.9C34.78,-185.22 28.21,-119.58 52,-72 58.21,-59.57 68.79,-48.94 79.53,-40.53"/>
<polygon fill="black" stroke="black" points="81.7,-43.28 87.7,-34.54 77.56,-37.63 81.7,-43.28"/>
<g id="a_edge2&#45;headlabel"><a xlink:href="dir_000000_000007.html" target="_top" xlink:title="3">
<text text-anchor="middle" x="80.48" y="-45.19" font-family="Helvetica,sans-Serif" font-size="10.00">3</text>
</a>
</g>
</g>
<!-- dir_de5b03c9e251d763a573c2ccd217de59 -->
<g id="node7" class="node">
<title>dir_de5b03c9e251d763a573c2ccd217de59</title>
<g id="a_node7"><a xlink:href="dir_de5b03c9e251d763a573c2ccd217de59.html" target="_top" xlink:title="http">
<polygon fill="white" stroke="red" points="153,-180 99,-180 99,-144 153,-144 153,-180"/>
<text text-anchor="middle" x="126" y="-159.5" font-family="Helvetica,sans-Serif" font-size="10.00">http</text>
</a>
</g>
</g>
<!-- dir_e2b20abddc1d75e9fa824bc5544f9c72&#45;&gt;dir_de5b03c9e251d763a573c2ccd217de59 -->
<g id="edge3" class="edge">
<title>dir_e2b20abddc1d75e9fa824bc5544f9c72&#45;&gt;dir_de5b03c9e251d763a573c2ccd217de59</title>
<path fill="none" stroke="black" d="M63.52,-215.7C73.87,-206.97 86.59,-196.24 97.84,-186.75"/>
<polygon fill="black" stroke="black" points="100.33,-189.23 105.72,-180.1 95.82,-183.88 100.33,-189.23"/>
<g id="a_edge3&#45;headlabel"><a xlink:href="dir_000000_000004.html" target="_top" xlink:title="11">
<text text-anchor="middle" x="99.41" y="-191.21" font-family="Helvetica,sans-Serif" font-size="10.00">11</text>
</a>
</g>
</g>
<!-- dir_813e40856edb2020d05c45d9f24e81bd -->
<g id="node2" class="node">
<title>dir_813e40856edb2020d05c45d9f24e81bd</title>
<g id="a_node2"><a xlink:href="dir_813e40856edb2020d05c45d9f24e81bd.html" target="_top" xlink:title="legacy">
<polygon fill="white" stroke="black" points="214,-252 160,-252 160,-216 214,-216 214,-252"/>
<text text-anchor="middle" x="187" y="-231.5" font-family="Helvetica,sans-Serif" font-size="10.00">legacy</text>
</a>
</g>
</g>
<!-- dir_813e40856edb2020d05c45d9f24e81bd&#45;&gt;dir_de5b03c9e251d763a573c2ccd217de59 -->
<g id="edge4" class="edge">
<title>dir_813e40856edb2020d05c45d9f24e81bd&#45;&gt;dir_de5b03c9e251d763a573c2ccd217de59</title>
<path fill="none" stroke="black" d="M171.92,-215.7C164.61,-207.3 155.69,-197.07 147.66,-187.86"/>
<polygon fill="black" stroke="black" points="150.11,-185.34 140.91,-180.1 144.84,-189.94 150.11,-185.34"/>
<g id="a_edge4&#45;headlabel"><a xlink:href="dir_000001_000004.html" target="_top" xlink:title="1">
<text text-anchor="middle" x="154.62" y="-183.69" font-family="Helvetica,sans-Serif" font-size="10.00">1</text>
</a>
</g>
</g>
<!-- dir_a40e7579b6101fdd4a0cbf3e727ecb1c -->
<g id="node3" class="node">
<title>dir_a40e7579b6101fdd4a0cbf3e727ecb1c</title>
<g id="a_node3"><a xlink:href="dir_a40e7579b6101fdd4a0cbf3e727ecb1c.html" target="_top" xlink:title="middleware">
<polygon fill="white" stroke="black" points="298,-252 232,-252 232,-216 298,-216 298,-252"/>
<text text-anchor="middle" x="265" y="-231.5" font-family="Helvetica,sans-Serif" font-size="10.00">middleware</text>
</a>
</g>
</g>
<!-- dir_a40e7579b6101fdd4a0cbf3e727ecb1c&#45;&gt;dir_9381a7bbd03577d6d8720c7f35c94ffa -->
<g id="edge6" class="edge">
<title>dir_a40e7579b6101fdd4a0cbf3e727ecb1c&#45;&gt;dir_9381a7bbd03577d6d8720c7f35c94ffa</title>
<path fill="none" stroke="black" d="M252.98,-215.85C226.65,-178.28 163.77,-88.58 132.82,-44.43"/>
<polygon fill="black" stroke="black" points="135.68,-42.41 127.08,-36.23 129.95,-46.43 135.68,-42.41"/>
<g id="a_edge6&#45;headlabel"><a xlink:href="dir_000003_000007.html" target="_top" xlink:title="1">
<text text-anchor="middle" x="140.07" y="-41.23" font-family="Helvetica,sans-Serif" font-size="10.00">1</text>
</a>
</g>
</g>
<!-- dir_ab88a46da4a6a033a58c85fe84c6148a -->
<g id="node4" class="node">
<title>dir_ab88a46da4a6a033a58c85fe84c6148a</title>
<g id="a_node4"><a xlink:href="dir_ab88a46da4a6a033a58c85fe84c6148a.html" target="_top" xlink:title="tls">
<polygon fill="white" stroke="black" points="142,-252 88,-252 88,-216 142,-216 142,-252"/>
<text text-anchor="middle" x="115" y="-231.5" font-family="Helvetica,sans-Serif" font-size="10.00">tls</text>
</a>
</g>
</g>
<!-- dir_ab88a46da4a6a033a58c85fe84c6148a&#45;&gt;dir_de5b03c9e251d763a573c2ccd217de59 -->
<g id="edge9" class="edge">
<title>dir_ab88a46da4a6a033a58c85fe84c6148a&#45;&gt;dir_de5b03c9e251d763a573c2ccd217de59</title>
<path fill="none" stroke="black" d="M117.72,-215.7C118.93,-207.98 120.39,-198.71 121.74,-190.11"/>
<polygon fill="black" stroke="black" points="125.22,-190.53 123.31,-180.1 118.3,-189.44 125.22,-190.53"/>
<g id="a_edge9&#45;headlabel"><a xlink:href="dir_000002_000004.html" target="_top" xlink:title="1">
<text text-anchor="middle" x="127.46" y="-192.02" font-family="Helvetica,sans-Serif" font-size="10.00">1</text>
</a>
</g>
</g>
<!-- dir_427baa8a9a5be237f298d4545d0d1ce2&#45;&gt;dir_9381a7bbd03577d6d8720c7f35c94ffa -->
<g id="edge5" class="edge">
<title>dir_427baa8a9a5be237f298d4545d0d1ce2&#45;&gt;dir_9381a7bbd03577d6d8720c7f35c94ffa</title>
<path fill="none" stroke="black" d="M94.67,-71.7C97.71,-63.81 101.38,-54.3 104.76,-45.55"/>
<polygon fill="black" stroke="black" points="108.07,-46.69 108.4,-36.1 101.54,-44.17 108.07,-46.69"/>
<g id="a_edge5&#45;headlabel"><a xlink:href="dir_000008_000007.html" target="_top" xlink:title="10">
<text text-anchor="middle" x="109.42" y="-48.57" font-family="Helvetica,sans-Serif" font-size="10.00">10</text>
</a>
</g>
</g>
<!-- dir_de5b03c9e251d763a573c2ccd217de59&#45;&gt;dir_427baa8a9a5be237f298d4545d0d1ce2 -->
<g id="edge7" class="edge">
<title>dir_de5b03c9e251d763a573c2ccd217de59&#45;&gt;dir_427baa8a9a5be237f298d4545d0d1ce2</title>
<path fill="none" stroke="black" d="M116.61,-143.7C112.24,-135.64 106.94,-125.89 102.1,-116.98"/>
<polygon fill="black" stroke="black" points="105.13,-115.22 97.29,-108.1 98.98,-118.56 105.13,-115.22"/>
<g id="a_edge7&#45;headlabel"><a xlink:href="dir_000004_000008.html" target="_top" xlink:title="12">
<text text-anchor="middle" x="109.34" y="-114.53" font-family="Helvetica,sans-Serif" font-size="10.00">12</text>
</a>
</g>
</g>
<!-- dir_de5b03c9e251d763a573c2ccd217de59&#45;&gt;dir_9381a7bbd03577d6d8720c7f35c94ffa -->
<g id="edge8" class="edge">
<title>dir_de5b03c9e251d763a573c2ccd217de59&#45;&gt;dir_9381a7bbd03577d6d8720c7f35c94ffa</title>
<path fill="none" stroke="black" d="M126.35,-143.89C126.55,-125.94 126.38,-96.92 124,-72 123.19,-63.51 121.81,-54.32 120.37,-46.02"/>
<polygon fill="black" stroke="black" points="123.8,-45.31 118.56,-36.1 116.91,-46.57 123.8,-45.31"/>
<g id="a_edge8&#45;headlabel"><a xlink:href="dir_000004_000007.html" target="_top" xlink:title="4">
<text text-anchor="middle" x="127.24" y="-45.83" font-family="Helvetica,sans-Serif" font-size="10.00">4</text>
</a>
</g>
</g>
</g>
</svg>
