<?xml version="1.0" encoding="UTF-8" standalone="no"?>
<!DOCTYPE svg PUBLIC "-//W3C//DTD SVG 1.1//EN"
 "http://www.w3.org/Graphics/SVG/1.1/DTD/svg11.dtd">
<!-- Generated by graphviz version 2.43.0 (0)
 -->
<!-- Title: net/socket/bluetooth/rfcomm Pages: 1 -->
<svg width="254pt" height="159pt"
 viewBox="0.00 0.00 254.00 159.00" xmlns="http://www.w3.org/2000/svg" xmlns:xlink="http://www.w3.org/1999/xlink">
<g id="graph0" class="graph" transform="scale(1 1) rotate(0) translate(4 155)">
<title>net/socket/bluetooth/rfcomm</title>
<polygon fill="white" stroke="transparent" points="-4,4 -4,-155 250,-155 250,4 -4,4"/>
<g id="clust1" class="cluster">
<title>clusterdir_52425b1b15c919dd7646a65e2b96c7a3</title>
<g id="a_clust1"><a xlink:href="dir_52425b1b15c919dd7646a65e2b96c7a3.html" target="_top" xlink:title="bluetooth">
<polygon fill="#ddddee" stroke="black" points="8,-56 8,-143 238,-143 238,-56 8,-56"/>
<text text-anchor="middle" x="123" y="-131" font-family="Helvetica,sans-Serif" font-size="10.00">bluetooth</text>
</a>
</g>
</g>
<g id="clust2" class="cluster">
<title>clusterdir_4b5fc5383ba2b55a6ba3fddbb03b0d1a</title>
<g id="a_clust2"><a xlink:href="dir_4b5fc5383ba2b55a6ba3fddbb03b0d1a.html" target="_top">
<polygon fill="#eeeeff" stroke="black" points="16,-64 16,-116 230,-116 230,-64 16,-64"/>
</a>
</g>
</g>
<!-- dir_4b5fc5383ba2b55a6ba3fddbb03b0d1a -->
<g id="node1" class="node">
<title>dir_4b5fc5383ba2b55a6ba3fddbb03b0d1a</title>
<text text-anchor="middle" x="51" y="-87.5" font-family="Helvetica,sans-Serif" font-size="10.00">rfcomm</text>
</g>
<!-- dir_bd94c7eca4ce0c1c59246433631f4808 -->
<g id="node4" class="node">
<title>dir_bd94c7eca4ce0c1c59246433631f4808</title>
<g id="a_node4"><a xlink:href="dir_bd94c7eca4ce0c1c59246433631f4808.html" target="_top" xlink:title="address">
<polygon fill="none" stroke="black" points="78,-36 24,-36 24,0 78,0 78,-36"/>
<text text-anchor="middle" x="51" y="-15.5" font-family="Helvetica,sans-Serif" font-size="10.00">address</text>
</a>
</g>
</g>
<!-- dir_4b5fc5383ba2b55a6ba3fddbb03b0d1a&#45;&gt;dir_bd94c7eca4ce0c1c59246433631f4808 -->
<g id="edge3" class="edge">
<title>dir_4b5fc5383ba2b55a6ba3fddbb03b0d1a&#45;&gt;dir_bd94c7eca4ce0c1c59246433631f4808</title>
<path fill="none" stroke="black" d="M51,-71.7C51,-63.98 51,-54.71 51,-46.11"/>
<polygon fill="black" stroke="black" points="54.5,-46.1 51,-36.1 47.5,-46.1 54.5,-46.1"/>
<g id="a_edge3&#45;headlabel"><a xlink:href="dir_000014_000012.html" target="_top" xlink:title="1">
<text text-anchor="middle" x="57.34" y="-47.2" font-family="Helvetica,sans-Serif" font-size="10.00">1</text>
</a>
</g>
</g>
<!-- dir_a27b06846bb6dbe20f4945fcf9503c1c -->
<g id="node2" class="node">
<title>dir_a27b06846bb6dbe20f4945fcf9503c1c</title>
<g id="a_node2"><a xlink:href="dir_a27b06846bb6dbe20f4945fcf9503c1c.html" target="_top" xlink:title="legacy">
<polygon fill="white" stroke="black" points="150,-108 96,-108 96,-72 150,-72 150,-108"/>
<text text-anchor="middle" x="123" y="-87.5" font-family="Helvetica,sans-Serif" font-size="10.00">legacy</text>
</a>
</g>
</g>
<!-- dir_4e49b6db755c33e528e6506037917578 -->
<g id="node5" class="node">
<title>dir_4e49b6db755c33e528e6506037917578</title>
<g id="a_node5"><a xlink:href="dir_4e49b6db755c33e528e6506037917578.html" target="_top" xlink:title="sock_stream">
<polygon fill="white" stroke="red" points="200.5,-36 127.5,-36 127.5,0 200.5,0 200.5,-36"/>
<text text-anchor="middle" x="164" y="-15.5" font-family="Helvetica,sans-Serif" font-size="10.00">sock_stream</text>
</a>
</g>
</g>
<!-- dir_a27b06846bb6dbe20f4945fcf9503c1c&#45;&gt;dir_4e49b6db755c33e528e6506037917578 -->
<g id="edge1" class="edge">
<title>dir_a27b06846bb6dbe20f4945fcf9503c1c&#45;&gt;dir_4e49b6db755c33e528e6506037917578</title>
<path fill="none" stroke="black" d="M133.13,-71.7C137.85,-63.64 143.56,-53.89 148.78,-44.98"/>
<polygon fill="black" stroke="black" points="151.95,-46.5 153.98,-36.1 145.91,-42.96 151.95,-46.5"/>
<g id="a_edge1&#45;headlabel"><a xlink:href="dir_000019_000025.html" target="_top" xlink:title="2">
<text text-anchor="middle" x="152.58" y="-48.54" font-family="Helvetica,sans-Serif" font-size="10.00">2</text>
</a>
</g>
</g>
<!-- dir_4ac85caa333de16285fba07ef1902791 -->
<g id="node3" class="node">
<title>dir_4ac85caa333de16285fba07ef1902791</title>
<g id="a_node3"><a xlink:href="dir_4ac85caa333de16285fba07ef1902791.html" target="_top" xlink:title="tls">
<polygon fill="white" stroke="black" points="222,-108 168,-108 168,-72 222,-72 222,-108"/>
<text text-anchor="middle" x="195" y="-87.5" font-family="Helvetica,sans-Serif" font-size="10.00">tls</text>
</a>
</g>
</g>
<!-- dir_4ac85caa333de16285fba07ef1902791&#45;&gt;dir_4e49b6db755c33e528e6506037917578 -->
<g id="edge2" class="edge">
<title>dir_4ac85caa333de16285fba07ef1902791&#45;&gt;dir_4e49b6db755c33e528e6506037917578</title>
<path fill="none" stroke="black" d="M187.34,-71.7C183.81,-63.73 179.54,-54.1 175.63,-45.26"/>
<polygon fill="black" stroke="black" points="178.82,-43.83 171.57,-36.1 172.42,-46.67 178.82,-43.83"/>
<g id="a_edge2&#45;headlabel"><a xlink:href="dir_000020_000025.html" target="_top" xlink:title="2">
<text text-anchor="middle" x="182.88" y="-43.47" font-family="Helvetica,sans-Serif" font-size="10.00">2</text>
</a>
</g>
</g>
</g>
</svg>
