<?xml version="1.0" encoding="UTF-8" standalone="no"?>
<!DOCTYPE svg PUBLIC "-//W3C//DTD SVG 1.1//EN"
 "http://www.w3.org/Graphics/SVG/1.1/DTD/svg11.dtd">
<!-- Generated by graphviz version 2.43.0 (0)
 -->
<!-- Title: http/client/Response.h Pages: 1 -->
<svg width="458pt" height="207pt"
 viewBox="0.00 0.00 458.00 207.00" xmlns="http://www.w3.org/2000/svg" xmlns:xlink="http://www.w3.org/1999/xlink">
<g id="graph0" class="graph" transform="scale(1 1) rotate(0) translate(4 203)">
<title>http/client/Response.h</title>
<polygon fill="white" stroke="transparent" points="-4,4 -4,-203 454,-203 454,4 -4,4"/>
<!-- Node1 -->
<g id="node1" class="node">
<title>Node1</title>
<g id="a_node1"><a xlink:title=" ">
<polygon fill="#bfbfbf" stroke="black" points="257,-179.5 257,-198.5 372,-198.5 372,-179.5 257,-179.5"/>
<text text-anchor="middle" x="314.5" y="-186.5" font-family="Helvetica,sans-Serif" font-size="10.00">http/client/Response.h</text>
</a>
</g>
</g>
<!-- Node2 -->
<g id="node2" class="node">
<title>Node2</title>
<g id="a_node2"><a xlink:href="_client_context_8h.html" target="_top" xlink:title=" ">
<polygon fill="white" stroke="black" points="176,-123.5 176,-142.5 307,-142.5 307,-123.5 176,-123.5"/>
<text text-anchor="middle" x="241.5" y="-130.5" font-family="Helvetica,sans-Serif" font-size="10.00">http/client/ClientContext.h</text>
</a>
</g>
</g>
<!-- Node1&#45;&gt;Node2 -->
<g id="edge1" class="edge">
<title>Node1&#45;&gt;Node2</title>
<path fill="none" stroke="midnightblue" d="M294.36,-173.1C281.22,-163.38 264.52,-151.03 253.44,-142.83"/>
<polygon fill="midnightblue" stroke="midnightblue" points="292.65,-176.19 302.77,-179.32 296.81,-170.56 292.65,-176.19"/>
</g>
<!-- Node8 -->
<g id="node8" class="node">
<title>Node8</title>
<g id="a_node8"><a xlink:href="http_2client_2_response_8cpp.html" target="_top" xlink:title=" ">
<polygon fill="white" stroke="black" points="325,-123.5 325,-142.5 450,-142.5 450,-123.5 325,-123.5"/>
<text text-anchor="middle" x="387.5" y="-130.5" font-family="Helvetica,sans-Serif" font-size="10.00">http/client/Response.cpp</text>
</a>
</g>
</g>
<!-- Node1&#45;&gt;Node8 -->
<g id="edge7" class="edge">
<title>Node1&#45;&gt;Node8</title>
<path fill="none" stroke="midnightblue" d="M334.64,-173.1C347.78,-163.38 364.48,-151.03 375.56,-142.83"/>
<polygon fill="midnightblue" stroke="midnightblue" points="332.19,-170.56 326.23,-179.32 336.35,-176.19 332.19,-170.56"/>
</g>
<!-- Node3 -->
<g id="node3" class="node">
<title>Node3</title>
<g id="a_node3"><a xlink:href="_client_8h.html" target="_top" xlink:title=" ">
<polygon fill="white" stroke="black" points="56.5,-67.5 56.5,-86.5 152.5,-86.5 152.5,-67.5 56.5,-67.5"/>
<text text-anchor="middle" x="104.5" y="-74.5" font-family="Helvetica,sans-Serif" font-size="10.00">http/client/Client.h</text>
</a>
</g>
</g>
<!-- Node2&#45;&gt;Node3 -->
<g id="edge2" class="edge">
<title>Node2&#45;&gt;Node3</title>
<path fill="none" stroke="midnightblue" d="M210.48,-119.77C184.74,-109.63 148.81,-95.47 126.11,-86.52"/>
<polygon fill="midnightblue" stroke="midnightblue" points="209.21,-123.03 219.79,-123.44 211.77,-116.52 209.21,-123.03"/>
</g>
<!-- Node6 -->
<g id="node6" class="node">
<title>Node6</title>
<g id="a_node6"><a xlink:href="_client_context_8cpp.html" target="_top" xlink:title=" ">
<polygon fill="white" stroke="black" points="171,-67.5 171,-86.5 312,-86.5 312,-67.5 171,-67.5"/>
<text text-anchor="middle" x="241.5" y="-74.5" font-family="Helvetica,sans-Serif" font-size="10.00">http/client/ClientContext.cpp</text>
</a>
</g>
</g>
<!-- Node2&#45;&gt;Node6 -->
<g id="edge5" class="edge">
<title>Node2&#45;&gt;Node6</title>
<path fill="none" stroke="midnightblue" d="M241.5,-112.8C241.5,-103.91 241.5,-93.78 241.5,-86.75"/>
<polygon fill="midnightblue" stroke="midnightblue" points="238,-113.08 241.5,-123.08 245,-113.08 238,-113.08"/>
</g>
<!-- Node7 -->
<g id="node7" class="node">
<title>Node7</title>
<g id="a_node7"><a xlink:href="http_2client_2_request_8cpp.html" target="_top" xlink:title=" ">
<polygon fill="white" stroke="black" points="330.5,-67.5 330.5,-86.5 448.5,-86.5 448.5,-67.5 330.5,-67.5"/>
<text text-anchor="middle" x="389.5" y="-74.5" font-family="Helvetica,sans-Serif" font-size="10.00">http/client/Request.cpp</text>
</a>
</g>
</g>
<!-- Node2&#45;&gt;Node7 -->
<g id="edge6" class="edge">
<title>Node2&#45;&gt;Node7</title>
<path fill="none" stroke="midnightblue" d="M274.65,-119.91C302.47,-109.75 341.52,-95.51 366.16,-86.52"/>
<polygon fill="midnightblue" stroke="midnightblue" points="273.15,-116.73 264.95,-123.44 275.54,-123.3 273.15,-116.73"/>
</g>
<!-- Node4 -->
<g id="node4" class="node">
<title>Node4</title>
<g id="a_node4"><a xlink:href="legacy_2_client_8h.html" target="_top" xlink:title=" ">
<polygon fill="white" stroke="black" points="0,-0.5 0,-30.5 91,-30.5 91,-0.5 0,-0.5"/>
<text text-anchor="start" x="8" y="-18.5" font-family="Helvetica,sans-Serif" font-size="10.00">http/client/legacy</text>
<text text-anchor="middle" x="45.5" y="-7.5" font-family="Helvetica,sans-Serif" font-size="10.00">/Client.h</text>
</a>
</g>
</g>
<!-- Node3&#45;&gt;Node4 -->
<g id="edge3" class="edge">
<title>Node3&#45;&gt;Node4</title>
<path fill="none" stroke="midnightblue" d="M89,-60.37C79.82,-51.11 68.29,-39.48 59.41,-30.52"/>
<polygon fill="midnightblue" stroke="midnightblue" points="86.52,-62.84 96.05,-67.48 91.49,-57.91 86.52,-62.84"/>
</g>
<!-- Node5 -->
<g id="node5" class="node">
<title>Node5</title>
<g id="a_node5"><a xlink:href="tls_2_client_8h.html" target="_top" xlink:title=" ">
<polygon fill="white" stroke="black" points="109.5,-6 109.5,-25 219.5,-25 219.5,-6 109.5,-6"/>
<text text-anchor="middle" x="164.5" y="-13" font-family="Helvetica,sans-Serif" font-size="10.00">http/client/tls/Client.h</text>
</a>
</g>
</g>
<!-- Node3&#45;&gt;Node5 -->
<g id="edge4" class="edge">
<title>Node3&#45;&gt;Node5</title>
<path fill="none" stroke="midnightblue" d="M120.31,-60.32C131.71,-49.02 146.66,-34.19 155.92,-25.01"/>
<polygon fill="midnightblue" stroke="midnightblue" points="117.73,-57.95 113.1,-67.48 122.66,-62.92 117.73,-57.95"/>
</g>
</g>
</svg>
