<?xml version="1.0" encoding="UTF-8" standalone="no"?>
<!DOCTYPE svg PUBLIC "-//W3C//DTD SVG 1.1//EN"
 "http://www.w3.org/Graphics/SVG/1.1/DTD/svg11.dtd">
<!-- Generated by graphviz version 2.43.0 (0)
 -->
<!-- Title: http/server/Response.h Pages: 1 -->
<svg width="639pt" height="319pt"
 viewBox="0.00 0.00 638.50 319.00" xmlns="http://www.w3.org/2000/svg" xmlns:xlink="http://www.w3.org/1999/xlink">
<g id="graph0" class="graph" transform="scale(1 1) rotate(0) translate(4 315)">
<title>http/server/Response.h</title>
<polygon fill="white" stroke="transparent" points="-4,4 -4,-315 634.5,-315 634.5,4 -4,4"/>
<!-- Node1 -->
<g id="node1" class="node">
<title>Node1</title>
<g id="a_node1"><a xlink:title=" ">
<polygon fill="#bfbfbf" stroke="black" points="209,-291.5 209,-310.5 328,-310.5 328,-291.5 209,-291.5"/>
<text text-anchor="middle" x="268.5" y="-298.5" font-family="Helvetica,sans-Serif" font-size="10.00">http/server/Response.h</text>
</a>
</g>
</g>
<!-- Node2 -->
<g id="node2" class="node">
<title>Node2</title>
<g id="a_node2"><a xlink:href="http_2server_2_response_8cpp.html" target="_top" xlink:title=" ">
<polygon fill="white" stroke="black" points="0,-179.5 0,-198.5 129,-198.5 129,-179.5 0,-179.5"/>
<text text-anchor="middle" x="64.5" y="-186.5" font-family="Helvetica,sans-Serif" font-size="10.00">http/server/Response.cpp</text>
</a>
</g>
</g>
<!-- Node1&#45;&gt;Node2 -->
<g id="edge1" class="edge">
<title>Node1&#45;&gt;Node2</title>
<path fill="none" stroke="midnightblue" d="M243.63,-286.59C201.16,-263.69 115.82,-217.67 80.43,-198.59"/>
<polygon fill="midnightblue" stroke="midnightblue" points="242.03,-289.7 252.49,-291.37 245.35,-283.54 242.03,-289.7"/>
</g>
<!-- Node3 -->
<g id="node3" class="node">
<title>Node3</title>
<g id="a_node3"><a xlink:href="_server_context_8h.html" target="_top" xlink:title=" ">
<polygon fill="white" stroke="black" points="200,-235.5 200,-254.5 337,-254.5 337,-235.5 200,-235.5"/>
<text text-anchor="middle" x="268.5" y="-242.5" font-family="Helvetica,sans-Serif" font-size="10.00">http/server/ServerContext.h</text>
</a>
</g>
</g>
<!-- Node1&#45;&gt;Node3 -->
<g id="edge2" class="edge">
<title>Node1&#45;&gt;Node3</title>
<path fill="none" stroke="midnightblue" d="M268.5,-280.8C268.5,-271.91 268.5,-261.78 268.5,-254.75"/>
<polygon fill="midnightblue" stroke="midnightblue" points="265,-281.08 268.5,-291.08 272,-281.08 265,-281.08"/>
</g>
<!-- Node12 -->
<g id="node12" class="node">
<title>Node12</title>
<g id="a_node12"><a xlink:href="express_2_response_8h.html" target="_top" xlink:title=" ">
<polygon fill="white" stroke="black" points="438,-235.5 438,-254.5 545,-254.5 545,-235.5 438,-235.5"/>
<text text-anchor="middle" x="491.5" y="-242.5" font-family="Helvetica,sans-Serif" font-size="10.00">express/Response.h</text>
</a>
</g>
</g>
<!-- Node1&#45;&gt;Node12 -->
<g id="edge12" class="edge">
<title>Node1&#45;&gt;Node12</title>
<path fill="none" stroke="midnightblue" d="M313.56,-289.09C355.69,-278.89 417.74,-263.86 456.33,-254.52"/>
<polygon fill="midnightblue" stroke="midnightblue" points="312.73,-285.69 303.84,-291.44 314.38,-292.49 312.73,-285.69"/>
</g>
<!-- Node3&#45;&gt;Node2 -->
<g id="edge3" class="edge">
<title>Node3&#45;&gt;Node2</title>
<path fill="none" stroke="midnightblue" d="M226.3,-232.83C187.78,-222.63 131.68,-207.78 96.67,-198.52"/>
<polygon fill="midnightblue" stroke="midnightblue" points="225.61,-236.27 236.18,-235.44 227.4,-229.5 225.61,-236.27"/>
</g>
<!-- Node4 -->
<g id="node4" class="node">
<title>Node4</title>
<g id="a_node4"><a xlink:href="_server_context_8hpp.html" target="_top" xlink:title=" ">
<polygon fill="white" stroke="black" points="266.5,-179.5 266.5,-198.5 414.5,-198.5 414.5,-179.5 266.5,-179.5"/>
<text text-anchor="middle" x="340.5" y="-186.5" font-family="Helvetica,sans-Serif" font-size="10.00">http/server/ServerContext.hpp</text>
</a>
</g>
</g>
<!-- Node3&#45;&gt;Node4 -->
<g id="edge4" class="edge">
<title>Node3&#45;&gt;Node4</title>
<path fill="none" stroke="midnightblue" d="M288.37,-229.1C301.32,-219.38 317.8,-207.03 328.72,-198.83"/>
<polygon fill="midnightblue" stroke="midnightblue" points="285.97,-226.52 280.07,-235.32 290.17,-232.12 285.97,-226.52"/>
</g>
<!-- Node10 -->
<g id="node10" class="node">
<title>Node10</title>
<g id="a_node10"><a xlink:href="express_2_response_8cpp.html" target="_top" xlink:title=" ">
<polygon fill="white" stroke="black" points="433,-179.5 433,-198.5 550,-198.5 550,-179.5 433,-179.5"/>
<text text-anchor="middle" x="491.5" y="-186.5" font-family="Helvetica,sans-Serif" font-size="10.00">express/Response.cpp</text>
</a>
</g>
</g>
<!-- Node3&#45;&gt;Node10 -->
<g id="edge10" class="edge">
<title>Node3&#45;&gt;Node10</title>
<path fill="none" stroke="midnightblue" d="M313.56,-233.09C355.69,-222.89 417.74,-207.86 456.33,-198.52"/>
<polygon fill="midnightblue" stroke="midnightblue" points="312.73,-229.69 303.84,-235.44 314.38,-236.49 312.73,-229.69"/>
</g>
<!-- Node11 -->
<g id="node11" class="node">
<title>Node11</title>
<g id="a_node11"><a xlink:href="_router_8cpp.html" target="_top" xlink:title=" ">
<polygon fill="white" stroke="black" points="147,-179.5 147,-198.5 248,-198.5 248,-179.5 147,-179.5"/>
<text text-anchor="middle" x="197.5" y="-186.5" font-family="Helvetica,sans-Serif" font-size="10.00">express/Router.cpp</text>
</a>
</g>
</g>
<!-- Node3&#45;&gt;Node11 -->
<g id="edge11" class="edge">
<title>Node3&#45;&gt;Node11</title>
<path fill="none" stroke="midnightblue" d="M248.91,-229.1C236.13,-219.38 219.89,-207.03 209.11,-198.83"/>
<polygon fill="midnightblue" stroke="midnightblue" points="247.01,-232.06 257.09,-235.32 251.25,-226.48 247.01,-232.06"/>
</g>
<!-- Node5 -->
<g id="node5" class="node">
<title>Node5</title>
<g id="a_node5"><a xlink:href="_server_8h.html" target="_top" xlink:title=" ">
<polygon fill="white" stroke="black" points="289.5,-123.5 289.5,-142.5 391.5,-142.5 391.5,-123.5 289.5,-123.5"/>
<text text-anchor="middle" x="340.5" y="-130.5" font-family="Helvetica,sans-Serif" font-size="10.00">http/server/Server.h</text>
</a>
</g>
</g>
<!-- Node4&#45;&gt;Node5 -->
<g id="edge5" class="edge">
<title>Node4&#45;&gt;Node5</title>
<path fill="none" stroke="midnightblue" d="M340.5,-168.8C340.5,-159.91 340.5,-149.78 340.5,-142.75"/>
<polygon fill="midnightblue" stroke="midnightblue" points="337,-169.08 340.5,-179.08 344,-169.08 337,-169.08"/>
</g>
<!-- Node6 -->
<g id="node6" class="node">
<title>Node6</title>
<g id="a_node6"><a xlink:href="legacy_2_server_8h.html" target="_top" xlink:title=" ">
<polygon fill="white" stroke="black" points="279,-56.5 279,-86.5 374,-86.5 374,-56.5 279,-56.5"/>
<text text-anchor="start" x="287" y="-74.5" font-family="Helvetica,sans-Serif" font-size="10.00">http/server/legacy</text>
<text text-anchor="middle" x="326.5" y="-63.5" font-family="Helvetica,sans-Serif" font-size="10.00">/Server.h</text>
</a>
</g>
</g>
<!-- Node5&#45;&gt;Node6 -->
<g id="edge6" class="edge">
<title>Node5&#45;&gt;Node6</title>
<path fill="none" stroke="midnightblue" d="M336.15,-113.53C334.1,-104.81 331.7,-94.59 329.8,-86.52"/>
<polygon fill="midnightblue" stroke="midnightblue" points="332.8,-114.54 338.49,-123.48 339.61,-112.94 332.8,-114.54"/>
</g>
<!-- Node8 -->
<g id="node8" class="node">
<title>Node8</title>
<g id="a_node8"><a xlink:href="tls_2_server_8h.html" target="_top" xlink:title=" ">
<polygon fill="white" stroke="black" points="392.5,-62 392.5,-81 508.5,-81 508.5,-62 392.5,-62"/>
<text text-anchor="middle" x="450.5" y="-69" font-family="Helvetica,sans-Serif" font-size="10.00">http/server/tls/Server.h</text>
</a>
</g>
</g>
<!-- Node5&#45;&gt;Node8 -->
<g id="edge8" class="edge">
<title>Node5&#45;&gt;Node8</title>
<path fill="none" stroke="midnightblue" d="M365.07,-118.71C386.37,-107.19 416.57,-90.86 434.77,-81.01"/>
<polygon fill="midnightblue" stroke="midnightblue" points="363.39,-115.64 356.26,-123.48 366.72,-121.8 363.39,-115.64"/>
</g>
<!-- Node7 -->
<g id="node7" class="node">
<title>Node7</title>
<g id="a_node7"><a xlink:href="legacy_2_web_app_8h.html" target="_top" xlink:title=" ">
<polygon fill="white" stroke="black" points="317,-0.5 317,-19.5 448,-19.5 448,-0.5 317,-0.5"/>
<text text-anchor="middle" x="382.5" y="-7.5" font-family="Helvetica,sans-Serif" font-size="10.00">express/legacy/WebApp.h</text>
</a>
</g>
</g>
<!-- Node6&#45;&gt;Node7 -->
<g id="edge7" class="edge">
<title>Node6&#45;&gt;Node7</title>
<path fill="none" stroke="midnightblue" d="M346.73,-49C356.28,-38.86 367.13,-27.33 374.35,-19.66"/>
<polygon fill="midnightblue" stroke="midnightblue" points="344.08,-46.72 339.77,-56.4 349.17,-51.52 344.08,-46.72"/>
</g>
<!-- Node9 -->
<g id="node9" class="node">
<title>Node9</title>
<g id="a_node9"><a xlink:href="tls_2_web_app_8h.html" target="_top" xlink:title=" ">
<polygon fill="white" stroke="black" points="494,-0.5 494,-19.5 607,-19.5 607,-0.5 494,-0.5"/>
<text text-anchor="middle" x="550.5" y="-7.5" font-family="Helvetica,sans-Serif" font-size="10.00">express/tls/WebApp.h</text>
</a>
</g>
</g>
<!-- Node8&#45;&gt;Node9 -->
<g id="edge9" class="edge">
<title>Node8&#45;&gt;Node9</title>
<path fill="none" stroke="midnightblue" d="M473.62,-56.74C492.94,-45.25 519.87,-29.22 536.2,-19.51"/>
<polygon fill="midnightblue" stroke="midnightblue" points="471.63,-53.85 464.83,-61.98 475.21,-59.87 471.63,-53.85"/>
</g>
<!-- Node12&#45;&gt;Node10 -->
<g id="edge13" class="edge">
<title>Node12&#45;&gt;Node10</title>
<path fill="none" stroke="midnightblue" d="M491.5,-224.8C491.5,-215.91 491.5,-205.78 491.5,-198.75"/>
<polygon fill="midnightblue" stroke="midnightblue" points="488,-225.08 491.5,-235.08 495,-225.08 488,-225.08"/>
</g>
<!-- Node13 -->
<g id="node13" class="node">
<title>Node13</title>
<g id="a_node13"><a xlink:href="_web_app_t_8h.html" target="_top" xlink:title=" ">
<polygon fill="white" stroke="black" points="526.5,-62 526.5,-81 630.5,-81 630.5,-62 526.5,-62"/>
<text text-anchor="middle" x="578.5" y="-69" font-family="Helvetica,sans-Serif" font-size="10.00">express/WebAppT.h</text>
</a>
</g>
</g>
<!-- Node12&#45;&gt;Node13 -->
<g id="edge14" class="edge">
<title>Node12&#45;&gt;Node13</title>
<path fill="none" stroke="midnightblue" d="M522.28,-230.8C535.83,-223.42 550.66,-212.87 559.5,-199 583.86,-160.8 581.46,-103.15 579.48,-81.31"/>
<polygon fill="midnightblue" stroke="midnightblue" points="520.52,-227.77 513.19,-235.41 523.69,-234.01 520.52,-227.77"/>
</g>
<!-- Node13&#45;&gt;Node7 -->
<g id="edge15" class="edge">
<title>Node13&#45;&gt;Node7</title>
<path fill="none" stroke="midnightblue" d="M540.71,-59.03C502.62,-47.46 444.71,-29.88 410.53,-19.51"/>
<polygon fill="midnightblue" stroke="midnightblue" points="539.83,-62.42 550.42,-61.98 541.87,-55.72 539.83,-62.42"/>
</g>
<!-- Node13&#45;&gt;Node9 -->
<g id="edge16" class="edge">
<title>Node13&#45;&gt;Node9</title>
<path fill="none" stroke="midnightblue" d="M570.19,-52.83C565.01,-41.83 558.58,-28.16 554.5,-19.51"/>
<polygon fill="midnightblue" stroke="midnightblue" points="567.06,-54.42 574.49,-61.98 573.4,-51.44 567.06,-54.42"/>
</g>
</g>
</svg>
