<?xml version="1.0" encoding="UTF-8" standalone="no"?>
<!DOCTYPE svg PUBLIC "-//W3C//DTD SVG 1.1//EN"
 "http://www.w3.org/Graphics/SVG/1.1/DTD/svg11.dtd">
<!-- Generated by graphviz version 2.43.0 (0)
 -->
<!-- Title: Graphical Class Hierarchy Pages: 1 -->
<svg width="503pt" height="170pt"
 viewBox="0.00 0.00 503.00 170.00" xmlns="http://www.w3.org/2000/svg" xmlns:xlink="http://www.w3.org/1999/xlink">
<g id="graph0" class="graph" transform="scale(1 1) rotate(0) translate(4 166)">
<title>Graphical Class Hierarchy</title>
<polygon fill="white" stroke="transparent" points="-4,4 -4,-166 499,-166 499,4 -4,4"/>
<!-- Node0 -->
<g id="node1" class="node">
<title>Node0</title>
<g id="a_node1"><a xlink:href="classnet_1_1socket_1_1stream_1_1_socket_client.html" target="_top" xlink:title=" ">
<polygon fill="white" stroke="black" points="0,-55 0,-107 153,-107 153,-55 0,-55"/>
<text text-anchor="start" x="8" y="-95" font-family="Helvetica,sans-Serif" font-size="10.00">net::socket::stream</text>
<text text-anchor="start" x="8" y="-84" font-family="Helvetica,sans-Serif" font-size="10.00">::SocketClient&lt; SocketContext</text>
<text text-anchor="start" x="8" y="-73" font-family="Helvetica,sans-Serif" font-size="10.00">FactoryT, tls::SocketConnector</text>
<text text-anchor="middle" x="76.5" y="-62" font-family="Helvetica,sans-Serif" font-size="10.00">&lt; SocketT &gt; &gt;</text>
</a>
</g>
</g>
<!-- Node1 -->
<g id="node2" class="node">
<title>Node1</title>
<g id="a_node2"><a xlink:href="classnet_1_1socket_1_1stream_1_1tls_1_1_socket_client.html" target="_top" xlink:title=" ">
<polygon fill="white" stroke="black" points="189,-55 189,-107 320,-107 320,-55 189,-55"/>
<text text-anchor="start" x="197" y="-95" font-family="Helvetica,sans-Serif" font-size="10.00">net::socket::stream</text>
<text text-anchor="start" x="197" y="-84" font-family="Helvetica,sans-Serif" font-size="10.00">::tls::SocketClient</text>
<text text-anchor="start" x="197" y="-73" font-family="Helvetica,sans-Serif" font-size="10.00">&lt; SocketContextFactoryT,</text>
<text text-anchor="middle" x="254.5" y="-62" font-family="Helvetica,sans-Serif" font-size="10.00"> SocketT &gt;</text>
</a>
</g>
</g>
<!-- Node0&#45;&gt;Node1 -->
<g id="edge1" class="edge">
<title>Node0&#45;&gt;Node1</title>
<path fill="none" stroke="midnightblue" d="M163.28,-81C171.92,-81 180.6,-81 188.96,-81"/>
<polygon fill="midnightblue" stroke="midnightblue" points="163.16,-77.5 153.16,-81 163.16,-84.5 163.16,-77.5"/>
</g>
<!-- Node2 -->
<g id="node3" class="node">
<title>Node2</title>
<g id="a_node3"><a xlink:href="classnet_1_1socket_1_1bluetooth_1_1rfcomm_1_1tls_1_1_socket_client.html" target="_top" xlink:title=" ">
<polygon fill="white" stroke="black" points="356,-120.5 356,-161.5 495,-161.5 495,-120.5 356,-120.5"/>
<text text-anchor="start" x="364" y="-149.5" font-family="Helvetica,sans-Serif" font-size="10.00">net::socket::bluetooth</text>
<text text-anchor="start" x="364" y="-138.5" font-family="Helvetica,sans-Serif" font-size="10.00">::rfcomm::tls::SocketClient</text>
<text text-anchor="middle" x="425.5" y="-127.5" font-family="Helvetica,sans-Serif" font-size="10.00">&lt; SocketContextFactoryT &gt;</text>
</a>
</g>
</g>
<!-- Node1&#45;&gt;Node2 -->
<g id="edge2" class="edge">
<title>Node1&#45;&gt;Node2</title>
<path fill="none" stroke="midnightblue" d="M330.12,-107.49C342.39,-111.85 354.94,-116.31 366.72,-120.49"/>
<polygon fill="midnightblue" stroke="midnightblue" points="330.95,-104.07 320.36,-104.03 328.61,-110.67 330.95,-104.07"/>
</g>
<!-- Node3 -->
<g id="node4" class="node">
<title>Node3</title>
<g id="a_node4"><a xlink:href="classnet_1_1socket_1_1ip_1_1tcp_1_1ipv4_1_1tls_1_1_socket_client.html" target="_top" xlink:title=" ">
<polygon fill="white" stroke="black" points="356,-60.5 356,-101.5 495,-101.5 495,-60.5 356,-60.5"/>
<text text-anchor="start" x="364" y="-89.5" font-family="Helvetica,sans-Serif" font-size="10.00">net::socket::ip::tcp</text>
<text text-anchor="start" x="364" y="-78.5" font-family="Helvetica,sans-Serif" font-size="10.00">::ipv4::tls::SocketClient</text>
<text text-anchor="middle" x="425.5" y="-67.5" font-family="Helvetica,sans-Serif" font-size="10.00">&lt; SocketContextFactoryT &gt;</text>
</a>
</g>
</g>
<!-- Node1&#45;&gt;Node3 -->
<g id="edge3" class="edge">
<title>Node1&#45;&gt;Node3</title>
<path fill="none" stroke="midnightblue" d="M330.56,-81C338.99,-81 347.55,-81 355.89,-81"/>
<polygon fill="midnightblue" stroke="midnightblue" points="330.36,-77.5 320.36,-81 330.36,-84.5 330.36,-77.5"/>
</g>
<!-- Node4 -->
<g id="node5" class="node">
<title>Node4</title>
<g id="a_node5"><a xlink:href="classnet_1_1socket_1_1ip_1_1tcp_1_1ipv6_1_1tls_1_1_socket_client.html" target="_top" xlink:title=" ">
<polygon fill="white" stroke="black" points="356,-0.5 356,-41.5 495,-41.5 495,-0.5 356,-0.5"/>
<text text-anchor="start" x="364" y="-29.5" font-family="Helvetica,sans-Serif" font-size="10.00">net::socket::ip::tcp</text>
<text text-anchor="start" x="364" y="-18.5" font-family="Helvetica,sans-Serif" font-size="10.00">::ipv6::tls::SocketClient</text>
<text text-anchor="middle" x="425.5" y="-7.5" font-family="Helvetica,sans-Serif" font-size="10.00">&lt; SocketContextFactoryT &gt;</text>
</a>
</g>
</g>
<!-- Node1&#45;&gt;Node4 -->
<g id="edge4" class="edge">
<title>Node1&#45;&gt;Node4</title>
<path fill="none" stroke="midnightblue" d="M330.12,-54.51C342.39,-50.15 354.94,-45.69 366.72,-41.51"/>
<polygon fill="midnightblue" stroke="midnightblue" points="328.61,-51.33 320.36,-57.97 330.95,-57.93 328.61,-51.33"/>
</g>
</g>
</svg>
