<?xml version="1.0" encoding="UTF-8" standalone="no"?>
<!DOCTYPE svg PUBLIC "-//W3C//DTD SVG 1.1//EN"
 "http://www.w3.org/Graphics/SVG/1.1/DTD/svg11.dtd">
<!-- Generated by graphviz version 2.43.0 (0)
 -->
<!-- Title: Graphical Class Hierarchy Pages: 1 -->
<svg width="523pt" height="209pt"
 viewBox="0.00 0.00 523.00 208.50" xmlns="http://www.w3.org/2000/svg" xmlns:xlink="http://www.w3.org/1999/xlink">
<g id="graph0" class="graph" transform="scale(1 1) rotate(0) translate(4 204.5)">
<title>Graphical Class Hierarchy</title>
<polygon fill="white" stroke="transparent" points="-4,4 -4,-204.5 519,-204.5 519,4 -4,4"/>
<!-- Node0 -->
<g id="node1" class="node">
<title>Node0</title>
<g id="a_node1"><a xlink:href="classweb_1_1websocket_1_1_receiver.html" target="_top" xlink:title=" ">
<polygon fill="white" stroke="black" points="5,-158.5 5,-177.5 138,-177.5 138,-158.5 5,-158.5"/>
<text text-anchor="middle" x="71.5" y="-165.5" font-family="Helvetica,sans-Serif" font-size="10.00">web::websocket::Receiver</text>
</a>
</g>
</g>
<!-- Node1 -->
<g id="node2" class="node">
<title>Node1</title>
<g id="a_node2"><a xlink:href="classweb_1_1websocket_1_1_socket_context.html" target="_top" xlink:title=" ">
<polygon fill="white" stroke="black" points="179,-126.5 179,-145.5 338,-145.5 338,-126.5 179,-126.5"/>
<text text-anchor="middle" x="258.5" y="-133.5" font-family="Helvetica,sans-Serif" font-size="10.00">web::websocket::SocketContext</text>
</a>
</g>
</g>
<!-- Node0&#45;&gt;Node1 -->
<g id="edge1" class="edge">
<title>Node0&#45;&gt;Node1</title>
<path fill="none" stroke="darkgreen" d="M137.4,-156.77C158.62,-153.1 181.96,-149.07 202.39,-145.53"/>
<polygon fill="darkgreen" stroke="darkgreen" points="136.76,-153.33 127.51,-158.49 137.96,-160.23 136.76,-153.33"/>
</g>
<!-- Node2 -->
<g id="node3" class="node">
<title>Node2</title>
<g id="a_node3"><a xlink:href="classweb_1_1websocket_1_1client_1_1_socket_context.html" target="_top" xlink:title=" ">
<polygon fill="white" stroke="black" points="386,-170 386,-200 503,-200 503,-170 386,-170"/>
<text text-anchor="start" x="394" y="-188" font-family="Helvetica,sans-Serif" font-size="10.00">web::websocket::client</text>
<text text-anchor="middle" x="444.5" y="-177" font-family="Helvetica,sans-Serif" font-size="10.00">::SocketContext</text>
</a>
</g>
</g>
<!-- Node1&#45;&gt;Node2 -->
<g id="edge2" class="edge">
<title>Node1&#45;&gt;Node2</title>
<path fill="none" stroke="midnightblue" d="M305.27,-148.19C330.02,-154.78 360.81,-162.98 387.03,-169.96"/>
<polygon fill="midnightblue" stroke="midnightblue" points="305.98,-144.76 295.41,-145.56 304.18,-151.52 305.98,-144.76"/>
</g>
<!-- Node3 -->
<g id="node4" class="node">
<title>Node3</title>
<g id="a_node4"><a xlink:href="classweb_1_1websocket_1_1server_1_1_socket_context.html" target="_top" xlink:title=" ">
<polygon fill="white" stroke="black" points="384,-121 384,-151 505,-151 505,-121 384,-121"/>
<text text-anchor="start" x="392" y="-139" font-family="Helvetica,sans-Serif" font-size="10.00">web::websocket::server</text>
<text text-anchor="middle" x="444.5" y="-128" font-family="Helvetica,sans-Serif" font-size="10.00">::SocketContext</text>
</a>
</g>
</g>
<!-- Node1&#45;&gt;Node3 -->
<g id="edge3" class="edge">
<title>Node1&#45;&gt;Node3</title>
<path fill="none" stroke="midnightblue" d="M348.18,-136C360.27,-136 372.44,-136 383.84,-136"/>
<polygon fill="midnightblue" stroke="midnightblue" points="348.07,-132.5 338.07,-136 348.07,-139.5 348.07,-132.5"/>
</g>
<!-- Node142 -->
<g id="node5" class="node">
<title>Node142</title>
<g id="a_node5"><a xlink:href="classnet_1_1socket_1_1stream_1_1_socket_context.html" target="_top" xlink:title=" ">
<polygon fill="white" stroke="black" points="21,-66 21,-96 122,-96 122,-66 21,-66"/>
<text text-anchor="start" x="29" y="-84" font-family="Helvetica,sans-Serif" font-size="10.00">net::socket::stream</text>
<text text-anchor="middle" x="71.5" y="-73" font-family="Helvetica,sans-Serif" font-size="10.00">::SocketContext</text>
</a>
</g>
</g>
<!-- Node142&#45;&gt;Node1 -->
<g id="edge8" class="edge">
<title>Node142&#45;&gt;Node1</title>
<path fill="none" stroke="midnightblue" d="M131.91,-98.66C162.9,-107.87 199.58,-118.78 225.28,-126.42"/>
<polygon fill="midnightblue" stroke="midnightblue" points="132.66,-95.23 122.08,-95.74 130.66,-101.94 132.66,-95.23"/>
</g>
<!-- Node143 -->
<g id="node6" class="node">
<title>Node143</title>
<g id="a_node6"><a xlink:href="classweb_1_1http_1_1client_1_1_socket_context.html" target="_top" xlink:title=" ">
<polygon fill="white" stroke="black" points="212.5,-66 212.5,-96 304.5,-96 304.5,-66 212.5,-66"/>
<text text-anchor="start" x="220.5" y="-84" font-family="Helvetica,sans-Serif" font-size="10.00">web::http::client::</text>
<text text-anchor="middle" x="258.5" y="-73" font-family="Helvetica,sans-Serif" font-size="10.00">SocketContext</text>
</a>
</g>
</g>
<!-- Node142&#45;&gt;Node143 -->
<g id="edge4" class="edge">
<title>Node142&#45;&gt;Node143</title>
<path fill="none" stroke="midnightblue" d="M132.19,-81C158.17,-81 188.12,-81 212.23,-81"/>
<polygon fill="midnightblue" stroke="midnightblue" points="132.08,-77.5 122.08,-81 132.08,-84.5 132.08,-77.5"/>
</g>
<!-- Node145 -->
<g id="node8" class="node">
<title>Node145</title>
<g id="a_node8"><a xlink:href="classweb_1_1http_1_1server_1_1_socket_context.html" target="_top" xlink:title=" ">
<polygon fill="white" stroke="black" points="210.5,-12 210.5,-42 306.5,-42 306.5,-12 210.5,-12"/>
<text text-anchor="start" x="218.5" y="-30" font-family="Helvetica,sans-Serif" font-size="10.00">web::http::server::</text>
<text text-anchor="middle" x="258.5" y="-19" font-family="Helvetica,sans-Serif" font-size="10.00">SocketContext</text>
</a>
</g>
</g>
<!-- Node142&#45;&gt;Node145 -->
<g id="edge6" class="edge">
<title>Node142&#45;&gt;Node145</title>
<path fill="none" stroke="midnightblue" d="M131.95,-63.65C157.32,-56.24 186.5,-47.73 210.34,-40.77"/>
<polygon fill="midnightblue" stroke="midnightblue" points="130.7,-60.37 122.08,-66.53 132.66,-67.09 130.7,-60.37"/>
</g>
<!-- Node144 -->
<g id="node7" class="node">
<title>Node144</title>
<g id="a_node7"><a xlink:href="classweb_1_1http_1_1client_1_1_socket_context_t.html" target="_top" xlink:title=" ">
<polygon fill="white" stroke="black" points="374,-60.5 374,-101.5 515,-101.5 515,-60.5 374,-60.5"/>
<text text-anchor="start" x="382" y="-89.5" font-family="Helvetica,sans-Serif" font-size="10.00">web::http::client::</text>
<text text-anchor="start" x="382" y="-78.5" font-family="Helvetica,sans-Serif" font-size="10.00">SocketContextT&lt; RequestT,</text>
<text text-anchor="middle" x="444.5" y="-67.5" font-family="Helvetica,sans-Serif" font-size="10.00"> ResponseT &gt;</text>
</a>
</g>
</g>
<!-- Node143&#45;&gt;Node144 -->
<g id="edge5" class="edge">
<title>Node143&#45;&gt;Node144</title>
<path fill="none" stroke="midnightblue" d="M314.58,-81C333.21,-81 354.25,-81 373.85,-81"/>
<polygon fill="midnightblue" stroke="midnightblue" points="314.51,-77.5 304.51,-81 314.51,-84.5 314.51,-77.5"/>
</g>
<!-- Node146 -->
<g id="node9" class="node">
<title>Node146</title>
<g id="a_node9"><a xlink:href="classweb_1_1http_1_1server_1_1_socket_context_t.html" target="_top" xlink:title=" ">
<polygon fill="white" stroke="black" points="374,-0.5 374,-41.5 515,-41.5 515,-0.5 374,-0.5"/>
<text text-anchor="start" x="382" y="-29.5" font-family="Helvetica,sans-Serif" font-size="10.00">web::http::server::</text>
<text text-anchor="start" x="382" y="-18.5" font-family="Helvetica,sans-Serif" font-size="10.00">SocketContextT&lt; RequestT,</text>
<text text-anchor="middle" x="444.5" y="-7.5" font-family="Helvetica,sans-Serif" font-size="10.00"> ResponseT &gt;</text>
</a>
</g>
</g>
<!-- Node145&#45;&gt;Node146 -->
<g id="edge7" class="edge">
<title>Node145&#45;&gt;Node146</title>
<path fill="none" stroke="midnightblue" d="M316.93,-25.13C334.92,-24.54 354.97,-23.89 373.72,-23.28"/>
<polygon fill="midnightblue" stroke="midnightblue" points="316.77,-21.63 306.88,-25.45 316.99,-28.63 316.77,-21.63"/>
</g>
<!-- Node200 -->
<g id="node10" class="node">
<title>Node200</title>
<g id="a_node10"><a xlink:href="classweb_1_1websocket_1_1_transmitter.html" target="_top" xlink:title=" ">
<polygon fill="white" stroke="black" points="0,-120.5 0,-139.5 143,-139.5 143,-120.5 0,-120.5"/>
<text text-anchor="middle" x="71.5" y="-127.5" font-family="Helvetica,sans-Serif" font-size="10.00">web::websocket::Transmitter</text>
</a>
</g>
</g>
<!-- Node200&#45;&gt;Node1 -->
<g id="edge9" class="edge">
<title>Node200&#45;&gt;Node1</title>
<path fill="none" stroke="darkgreen" d="M153.42,-132.62C161.84,-132.9 170.39,-133.17 178.78,-133.45"/>
<polygon fill="darkgreen" stroke="darkgreen" points="153.34,-129.12 143.23,-132.29 153.11,-136.12 153.34,-129.12"/>
</g>
</g>
</svg>
