<?xml version="1.0" encoding="UTF-8" standalone="no"?>
<!DOCTYPE svg PUBLIC "-//W3C//DTD SVG 1.1//EN"
 "http://www.w3.org/Graphics/SVG/1.1/DTD/svg11.dtd">
<!-- Generated by graphviz version 2.43.0 (0)
 -->
<!-- Title: Graphical Class Hierarchy Pages: 1 -->
<svg width="556pt" height="165pt"
 viewBox="0.00 0.00 556.00 164.50" xmlns="http://www.w3.org/2000/svg" xmlns:xlink="http://www.w3.org/1999/xlink">
<g id="graph0" class="graph" transform="scale(1 1) rotate(0) translate(4 160.5)">
<title>Graphical Class Hierarchy</title>
<polygon fill="white" stroke="transparent" points="-4,4 -4,-160.5 552,-160.5 552,4 -4,4"/>
<!-- Node0 -->
<g id="node1" class="node">
<title>Node0</title>
<g id="a_node1"><a xlink:href="classnet_1_1socket_1_1stream_1_1_socket_protocol.html" target="_top" xlink:title=" ">
<polygon fill="white" stroke="black" points="28.5,-79 28.5,-109 129.5,-109 129.5,-79 28.5,-79"/>
<text text-anchor="start" x="36.5" y="-97" font-family="Helvetica,sans-Serif" font-size="10.00">net::socket::stream</text>
<text text-anchor="middle" x="79" y="-86" font-family="Helvetica,sans-Serif" font-size="10.00">::SocketProtocol</text>
</a>
</g>
</g>
<!-- Node1 -->
<g id="node2" class="node">
<title>Node1</title>
<g id="a_node2"><a xlink:href="classhttp_1_1client_1_1_client_context_base.html" target="_top" xlink:title=" ">
<polygon fill="white" stroke="black" points="194,-130.5 194,-149.5 345,-149.5 345,-130.5 194,-130.5"/>
<text text-anchor="middle" x="269.5" y="-137.5" font-family="Helvetica,sans-Serif" font-size="10.00">http::client::ClientContextBase</text>
</a>
</g>
</g>
<!-- Node0&#45;&gt;Node1 -->
<g id="edge1" class="edge">
<title>Node0&#45;&gt;Node1</title>
<path fill="none" stroke="midnightblue" d="M139.27,-108.46C168.68,-115.64 203.37,-124.11 229.41,-130.46"/>
<polygon fill="midnightblue" stroke="midnightblue" points="140.07,-105.06 129.53,-106.09 138.41,-111.86 140.07,-105.06"/>
</g>
<!-- Node3 -->
<g id="node4" class="node">
<title>Node3</title>
<g id="a_node4"><a xlink:href="classhttp_1_1server_1_1_h_t_t_p_server_context_base.html" target="_top" xlink:title=" ">
<polygon fill="white" stroke="black" points="206,-79 206,-109 333,-109 333,-79 206,-79"/>
<text text-anchor="start" x="214" y="-97" font-family="Helvetica,sans-Serif" font-size="10.00">http::server::HTTPServer</text>
<text text-anchor="middle" x="269.5" y="-86" font-family="Helvetica,sans-Serif" font-size="10.00">ContextBase</text>
</a>
</g>
</g>
<!-- Node0&#45;&gt;Node3 -->
<g id="edge3" class="edge">
<title>Node0&#45;&gt;Node3</title>
<path fill="none" stroke="midnightblue" d="M139.63,-94C160.71,-94 184.47,-94 205.79,-94"/>
<polygon fill="midnightblue" stroke="midnightblue" points="139.53,-90.5 129.53,-94 139.53,-97.5 139.53,-90.5"/>
</g>
<!-- Node5 -->
<g id="node6" class="node">
<title>Node5</title>
<g id="a_node6"><a xlink:href="classhttp_1_1websocket_1_1_w_s_server_context.html" target="_top" xlink:title=" ">
<polygon fill="white" stroke="black" points="201,-30 201,-60 338,-60 338,-30 201,-30"/>
<text text-anchor="start" x="209" y="-48" font-family="Helvetica,sans-Serif" font-size="10.00">http::websocket::WSServer</text>
<text text-anchor="middle" x="269.5" y="-37" font-family="Helvetica,sans-Serif" font-size="10.00">Context</text>
</a>
</g>
</g>
<!-- Node0&#45;&gt;Node5 -->
<g id="edge5" class="edge">
<title>Node0&#45;&gt;Node5</title>
<path fill="none" stroke="midnightblue" d="M139.39,-78.56C162.13,-72.65 188.02,-65.92 210.61,-60.05"/>
<polygon fill="midnightblue" stroke="midnightblue" points="138.32,-75.22 129.53,-81.13 140.09,-82 138.32,-75.22"/>
</g>
<!-- Node2 -->
<g id="node3" class="node">
<title>Node2</title>
<g id="a_node3"><a xlink:href="classhttp_1_1client_1_1_client_context.html" target="_top" xlink:title=" ">
<polygon fill="white" stroke="black" points="398.5,-126 398.5,-156 530.5,-156 530.5,-126 398.5,-126"/>
<text text-anchor="start" x="406.5" y="-144" font-family="Helvetica,sans-Serif" font-size="10.00">http::client::ClientContext</text>
<text text-anchor="middle" x="464.5" y="-133" font-family="Helvetica,sans-Serif" font-size="10.00">&lt; RequestT, ResponseT &gt;</text>
</a>
</g>
</g>
<!-- Node1&#45;&gt;Node2 -->
<g id="edge2" class="edge">
<title>Node1&#45;&gt;Node2</title>
<path fill="none" stroke="midnightblue" d="M355.47,-140.44C369.8,-140.51 384.47,-140.59 398.2,-140.66"/>
<polygon fill="midnightblue" stroke="midnightblue" points="355.14,-136.94 345.12,-140.39 355.1,-143.94 355.14,-136.94"/>
</g>
<!-- Node4 -->
<g id="node5" class="node">
<title>Node4</title>
<g id="a_node5"><a xlink:href="classhttp_1_1server_1_1_h_t_t_p_server_context.html" target="_top" xlink:title=" ">
<polygon fill="white" stroke="black" points="381,-77 381,-107 548,-107 548,-77 381,-77"/>
<text text-anchor="start" x="389" y="-95" font-family="Helvetica,sans-Serif" font-size="10.00">http::server::HTTPServer</text>
<text text-anchor="middle" x="464.5" y="-84" font-family="Helvetica,sans-Serif" font-size="10.00">Context&lt; RequestT, ResponseT &gt;</text>
</a>
</g>
</g>
<!-- Node3&#45;&gt;Node4 -->
<g id="edge4" class="edge">
<title>Node3&#45;&gt;Node4</title>
<path fill="none" stroke="midnightblue" d="M343.29,-93.25C355.53,-93.12 368.31,-92.99 380.78,-92.86"/>
<polygon fill="midnightblue" stroke="midnightblue" points="343.12,-89.75 333.16,-93.35 343.2,-96.75 343.12,-89.75"/>
</g>
<!-- Node177 -->
<g id="node7" class="node">
<title>Node177</title>
<g id="a_node7"><a xlink:href="classhttp_1_1websocket_1_1_w_s_receiver.html" target="_top" xlink:title=" ">
<polygon fill="white" stroke="black" points="5,-38.5 5,-57.5 153,-57.5 153,-38.5 5,-38.5"/>
<text text-anchor="middle" x="79" y="-45.5" font-family="Helvetica,sans-Serif" font-size="10.00">http::websocket::WSReceiver</text>
</a>
</g>
</g>
<!-- Node177&#45;&gt;Node5 -->
<g id="edge6" class="edge">
<title>Node177&#45;&gt;Node5</title>
<path fill="none" stroke="midnightblue" d="M163.2,-46.68C175.82,-46.48 188.71,-46.27 200.94,-46.08"/>
<polygon fill="midnightblue" stroke="midnightblue" points="163.09,-43.18 153.15,-46.84 163.2,-50.18 163.09,-43.18"/>
</g>
<!-- Node178 -->
<g id="node8" class="node">
<title>Node178</title>
<g id="a_node8"><a xlink:href="classhttp_1_1websocket_1_1_w_s_transmitter.html" target="_top" xlink:title=" ">
<polygon fill="white" stroke="black" points="0,-0.5 0,-19.5 158,-19.5 158,-0.5 0,-0.5"/>
<text text-anchor="middle" x="79" y="-7.5" font-family="Helvetica,sans-Serif" font-size="10.00">http::websocket::WSTransmitter</text>
</a>
</g>
</g>
<!-- Node178&#45;&gt;Node5 -->
<g id="edge7" class="edge">
<title>Node178&#45;&gt;Node5</title>
<path fill="none" stroke="midnightblue" d="M141.51,-21.42C160.46,-24.94 181.43,-28.83 200.78,-32.43"/>
<polygon fill="midnightblue" stroke="midnightblue" points="141.98,-17.95 131.51,-19.56 140.7,-24.83 141.98,-17.95"/>
</g>
</g>
</svg>
