<?xml version="1.0" encoding="UTF-8" standalone="no"?>
<!DOCTYPE svg PUBLIC "-//W3C//DTD SVG 1.1//EN"
 "http://www.w3.org/Graphics/SVG/1.1/DTD/svg11.dtd">
<!-- Generated by graphviz version 2.43.0 (0)
 -->
<!-- Title: Graphical Class Hierarchy Pages: 1 -->
<svg width="1267pt" height="803pt"
 viewBox="0.00 0.00 1267.00 803.00" xmlns="http://www.w3.org/2000/svg" xmlns:xlink="http://www.w3.org/1999/xlink">
<g id="graph0" class="graph" transform="scale(1 1) rotate(0) translate(4 799)">
<title>Graphical Class Hierarchy</title>
<polygon fill="white" stroke="transparent" points="-4,4 -4,-799 1263,-799 1263,4 -4,4"/>
<!-- Node186 -->
<g id="node1" class="node">
<title>Node186</title>
<g id="a_node1"><a xlink:href="classnet_1_1_descriptor.html" target="_top" xlink:title=" ">
<polygon fill="white" stroke="black" points="169,-129 169,-148 250,-148 250,-129 169,-129"/>
<text text-anchor="middle" x="209.5" y="-136" font-family="Helvetica,sans-Serif" font-size="10.00">net::Descriptor</text>
</a>
</g>
</g>
<!-- Node187 -->
<g id="node2" class="node">
<title>Node187</title>
<g id="a_node2"><a xlink:href="class_file.html" target="_top" xlink:title=" ">
<polygon fill="white" stroke="black" points="356,-341 356,-360 388,-360 388,-341 356,-341"/>
<text text-anchor="middle" x="372" y="-348" font-family="Helvetica,sans-Serif" font-size="10.00">File</text>
</a>
</g>
</g>
<!-- Node186&#45;&gt;Node187 -->
<g id="edge1" class="edge">
<title>Node186&#45;&gt;Node187</title>
<path fill="none" stroke="midnightblue" d="M216.66,-158.08C227.93,-191.41 254.59,-259.88 296,-304.5 313.15,-322.97 339.35,-336.74 355.81,-344.2"/>
<polygon fill="midnightblue" stroke="midnightblue" points="219.86,-156.62 213.43,-148.21 213.21,-158.8 219.86,-156.62"/>
</g>
<!-- Node188 -->
<g id="node4" class="node">
<title>Node188</title>
<g id="a_node4"><a xlink:href="classnet_1_1socket_1_1_socket.html" target="_top" xlink:title=" ">
<polygon fill="white" stroke="black" points="318.5,-0.5 318.5,-30.5 425.5,-30.5 425.5,-0.5 318.5,-0.5"/>
<text text-anchor="start" x="326.5" y="-18.5" font-family="Helvetica,sans-Serif" font-size="10.00">net::socket::Socket</text>
<text text-anchor="middle" x="372" y="-7.5" font-family="Helvetica,sans-Serif" font-size="10.00">&lt; SocketAddressT &gt;</text>
</a>
</g>
</g>
<!-- Node186&#45;&gt;Node188 -->
<g id="edge3" class="edge">
<title>Node186&#45;&gt;Node188</title>
<path fill="none" stroke="midnightblue" d="M221.68,-120.28C236.18,-98.11 263.51,-60.98 296,-39.5 302.84,-34.98 310.6,-31.26 318.46,-28.21"/>
<polygon fill="midnightblue" stroke="midnightblue" points="218.69,-118.46 216.27,-128.78 224.59,-122.22 218.69,-118.46"/>
</g>
<!-- Node189 -->
<g id="node5" class="node">
<title>Node189</title>
<g id="a_node5"><a xlink:href="classnet_1_1socket_1_1_socket.html" target="_top" xlink:title=" ">
<polygon fill="white" stroke="black" points="296,-196.5 296,-226.5 448,-226.5 448,-196.5 296,-196.5"/>
<text text-anchor="start" x="304" y="-214.5" font-family="Helvetica,sans-Serif" font-size="10.00">net::socket::Socket</text>
<text text-anchor="middle" x="372" y="-203.5" font-family="Helvetica,sans-Serif" font-size="10.00">&lt; address::ipv4::InetAddress &gt;</text>
</a>
</g>
</g>
<!-- Node186&#45;&gt;Node189 -->
<g id="edge4" class="edge">
<title>Node186&#45;&gt;Node189</title>
<path fill="none" stroke="midnightblue" d="M233.73,-153.6C250.54,-164.08 274.07,-177.84 296,-187.5 303.26,-190.7 311.07,-193.68 318.83,-196.38"/>
<polygon fill="midnightblue" stroke="midnightblue" points="235.46,-150.55 225.14,-148.16 231.72,-156.47 235.46,-150.55"/>
</g>
<!-- Node191 -->
<g id="node7" class="node">
<title>Node191</title>
<g id="a_node7"><a xlink:href="classnet_1_1socket_1_1_socket.html" target="_top" xlink:title=" ">
<polygon fill="white" stroke="black" points="296,-147.5 296,-177.5 448,-177.5 448,-147.5 296,-147.5"/>
<text text-anchor="start" x="304" y="-165.5" font-family="Helvetica,sans-Serif" font-size="10.00">net::socket::Socket</text>
<text text-anchor="middle" x="372" y="-154.5" font-family="Helvetica,sans-Serif" font-size="10.00">&lt; address::ipv6::InetAddress &gt;</text>
</a>
</g>
</g>
<!-- Node186&#45;&gt;Node191 -->
<g id="edge6" class="edge">
<title>Node186&#45;&gt;Node191</title>
<path fill="none" stroke="midnightblue" d="M260.23,-145.94C271.5,-147.62 283.71,-149.45 295.77,-151.25"/>
<polygon fill="midnightblue" stroke="midnightblue" points="260.58,-142.45 250.17,-144.43 259.55,-149.37 260.58,-142.45"/>
</g>
<!-- Node193 -->
<g id="node9" class="node">
<title>Node193</title>
<g id="a_node9"><a xlink:href="classnet_1_1socket_1_1_socket.html" target="_top" xlink:title=" ">
<polygon fill="white" stroke="black" points="302,-98.5 302,-128.5 442,-128.5 442,-98.5 302,-98.5"/>
<text text-anchor="start" x="310" y="-116.5" font-family="Helvetica,sans-Serif" font-size="10.00">net::socket::Socket</text>
<text text-anchor="middle" x="372" y="-105.5" font-family="Helvetica,sans-Serif" font-size="10.00">&lt; address::L2CapAddress &gt;</text>
</a>
</g>
</g>
<!-- Node186&#45;&gt;Node193 -->
<g id="edge8" class="edge">
<title>Node186&#45;&gt;Node193</title>
<path fill="none" stroke="midnightblue" d="M260.38,-130.73C273.49,-128.69 287.86,-126.45 301.78,-124.28"/>
<polygon fill="midnightblue" stroke="midnightblue" points="259.52,-127.32 250.17,-132.32 260.59,-134.24 259.52,-127.32"/>
</g>
<!-- Node195 -->
<g id="node11" class="node">
<title>Node195</title>
<g id="a_node11"><a xlink:href="classnet_1_1socket_1_1_socket.html" target="_top" xlink:title=" ">
<polygon fill="white" stroke="black" points="296.5,-49.5 296.5,-79.5 447.5,-79.5 447.5,-49.5 296.5,-49.5"/>
<text text-anchor="start" x="304.5" y="-67.5" font-family="Helvetica,sans-Serif" font-size="10.00">net::socket::Socket</text>
<text text-anchor="middle" x="372" y="-56.5" font-family="Helvetica,sans-Serif" font-size="10.00">&lt; address::RfCommAddress &gt;</text>
</a>
</g>
</g>
<!-- Node186&#45;&gt;Node195 -->
<g id="edge10" class="edge">
<title>Node186&#45;&gt;Node195</title>
<path fill="none" stroke="midnightblue" d="M233.39,-123.25C250.2,-112.52 273.87,-98.37 296,-88.5 303.24,-85.27 311.05,-82.27 318.8,-79.57"/>
<polygon fill="midnightblue" stroke="midnightblue" points="231.29,-120.44 224.81,-128.81 235.1,-126.31 231.29,-120.44"/>
</g>
<!-- Node154 -->
<g id="node3" class="node">
<title>Node154</title>
<g id="a_node3"><a xlink:href="class_file_reader.html" target="_top" xlink:title=" ">
<polygon fill="white" stroke="black" points="553.5,-344 553.5,-363 617.5,-363 617.5,-344 553.5,-344"/>
<text text-anchor="middle" x="585.5" y="-351" font-family="Helvetica,sans-Serif" font-size="10.00">FileReader</text>
</a>
</g>
</g>
<!-- Node187&#45;&gt;Node154 -->
<g id="edge2" class="edge">
<title>Node187&#45;&gt;Node154</title>
<path fill="none" stroke="midnightblue" d="M398.65,-350.86C437.59,-351.42 511.49,-352.46 553.42,-353.06"/>
<polygon fill="midnightblue" stroke="midnightblue" points="398.26,-347.36 388.21,-350.72 398.16,-354.36 398.26,-347.36"/>
</g>
<!-- Node190 -->
<g id="node6" class="node">
<title>Node190</title>
<g id="a_node6"><a xlink:href="classnet_1_1socket_1_1ip_1_1tcp_1_1ipv4_1_1_socket.html" target="_top" xlink:title=" ">
<polygon fill="white" stroke="black" points="536.5,-196.5 536.5,-226.5 634.5,-226.5 634.5,-196.5 536.5,-196.5"/>
<text text-anchor="start" x="544.5" y="-214.5" font-family="Helvetica,sans-Serif" font-size="10.00">net::socket::ip::tcp</text>
<text text-anchor="middle" x="585.5" y="-203.5" font-family="Helvetica,sans-Serif" font-size="10.00">::ipv4::Socket</text>
</a>
</g>
</g>
<!-- Node189&#45;&gt;Node190 -->
<g id="edge5" class="edge">
<title>Node189&#45;&gt;Node190</title>
<path fill="none" stroke="midnightblue" d="M458.25,-211.5C484.83,-211.5 513.2,-211.5 536.31,-211.5"/>
<polygon fill="midnightblue" stroke="midnightblue" points="458.16,-208 448.16,-211.5 458.16,-215 458.16,-208"/>
</g>
<!-- Node192 -->
<g id="node8" class="node">
<title>Node192</title>
<g id="a_node8"><a xlink:href="classnet_1_1socket_1_1ip_1_1tcp_1_1ipv6_1_1_socket.html" target="_top" xlink:title=" ">
<polygon fill="white" stroke="black" points="536.5,-147.5 536.5,-177.5 634.5,-177.5 634.5,-147.5 536.5,-147.5"/>
<text text-anchor="start" x="544.5" y="-165.5" font-family="Helvetica,sans-Serif" font-size="10.00">net::socket::ip::tcp</text>
<text text-anchor="middle" x="585.5" y="-154.5" font-family="Helvetica,sans-Serif" font-size="10.00">::ipv6::Socket</text>
</a>
</g>
</g>
<!-- Node191&#45;&gt;Node192 -->
<g id="edge7" class="edge">
<title>Node191&#45;&gt;Node192</title>
<path fill="none" stroke="midnightblue" d="M458.25,-162.5C484.83,-162.5 513.2,-162.5 536.31,-162.5"/>
<polygon fill="midnightblue" stroke="midnightblue" points="458.16,-159 448.16,-162.5 458.16,-166 458.16,-159"/>
</g>
<!-- Node194 -->
<g id="node10" class="node">
<title>Node194</title>
<g id="a_node10"><a xlink:href="classnet_1_1socket_1_1bluetooth_1_1l2cap_1_1_socket.html" target="_top" xlink:title=" ">
<polygon fill="white" stroke="black" points="530,-98.5 530,-128.5 641,-128.5 641,-98.5 530,-98.5"/>
<text text-anchor="start" x="538" y="-116.5" font-family="Helvetica,sans-Serif" font-size="10.00">net::socket::bluetooth</text>
<text text-anchor="middle" x="585.5" y="-105.5" font-family="Helvetica,sans-Serif" font-size="10.00">::l2cap::Socket</text>
</a>
</g>
</g>
<!-- Node193&#45;&gt;Node194 -->
<g id="edge9" class="edge">
<title>Node193&#45;&gt;Node194</title>
<path fill="none" stroke="midnightblue" d="M452.4,-113.5C478.21,-113.5 506.26,-113.5 529.84,-113.5"/>
<polygon fill="midnightblue" stroke="midnightblue" points="452.25,-110 442.25,-113.5 452.25,-117 452.25,-110"/>
</g>
<!-- Node196 -->
<g id="node12" class="node">
<title>Node196</title>
<g id="a_node12"><a xlink:href="classnet_1_1socket_1_1bluetooth_1_1rfcomm_1_1_socket.html" target="_top" xlink:title=" ">
<polygon fill="white" stroke="black" points="530,-49.5 530,-79.5 641,-79.5 641,-49.5 530,-49.5"/>
<text text-anchor="start" x="538" y="-67.5" font-family="Helvetica,sans-Serif" font-size="10.00">net::socket::bluetooth</text>
<text text-anchor="middle" x="585.5" y="-56.5" font-family="Helvetica,sans-Serif" font-size="10.00">::rfcomm::Socket</text>
</a>
</g>
</g>
<!-- Node195&#45;&gt;Node196 -->
<g id="edge11" class="edge">
<title>Node195&#45;&gt;Node196</title>
<path fill="none" stroke="midnightblue" d="M457.86,-64.5C482.13,-64.5 507.94,-64.5 529.87,-64.5"/>
<polygon fill="midnightblue" stroke="midnightblue" points="457.57,-61 447.57,-64.5 457.57,-68 457.57,-61"/>
</g>
<!-- Node148 -->
<g id="node13" class="node">
<title>Node148</title>
<g id="a_node13"><a xlink:href="classnet_1_1_observation_counter.html" target="_top" xlink:title=" ">
<polygon fill="white" stroke="black" points="0,-494 0,-513 123,-513 123,-494 0,-494"/>
<text text-anchor="middle" x="61.5" y="-501" font-family="Helvetica,sans-Serif" font-size="10.00">net::ObservationCounter</text>
</a>
</g>
</g>
<!-- Node149 -->
<g id="node14" class="node">
<title>Node149</title>
<g id="a_node14"><a xlink:href="classnet_1_1_event_receiver.html" target="_top" xlink:title=" ">
<polygon fill="white" stroke="black" points="159,-494 159,-513 260,-513 260,-494 159,-494"/>
<text text-anchor="middle" x="209.5" y="-501" font-family="Helvetica,sans-Serif" font-size="10.00">net::EventReceiver</text>
</a>
</g>
</g>
<!-- Node148&#45;&gt;Node149 -->
<g id="edge12" class="edge">
<title>Node148&#45;&gt;Node149</title>
<path fill="none" stroke="midnightblue" d="M133.27,-503.5C141.94,-503.5 150.65,-503.5 158.91,-503.5"/>
<polygon fill="midnightblue" stroke="midnightblue" points="133.15,-500 123.15,-503.5 133.15,-507 133.15,-500"/>
</g>
<!-- Node150 -->
<g id="node15" class="node">
<title>Node150</title>
<g id="a_node15"><a xlink:href="classnet_1_1_accept_event_receiver.html" target="_top" xlink:title=" ">
<polygon fill="white" stroke="black" points="306.5,-674 306.5,-693 437.5,-693 437.5,-674 306.5,-674"/>
<text text-anchor="middle" x="372" y="-681" font-family="Helvetica,sans-Serif" font-size="10.00">net::AcceptEventReceiver</text>
</a>
</g>
</g>
<!-- Node149&#45;&gt;Node150 -->
<g id="edge13" class="edge">
<title>Node149&#45;&gt;Node150</title>
<path fill="none" stroke="midnightblue" d="M222.36,-521.92C237.92,-545.45 266.7,-586.92 296,-618.5 316.04,-640.1 342.77,-661.84 358.31,-673.9"/>
<polygon fill="midnightblue" stroke="midnightblue" points="225.12,-519.74 216.72,-513.28 219.26,-523.57 225.12,-519.74"/>
</g>
<!-- Node151 -->
<g id="node21" class="node">
<title>Node151</title>
<g id="a_node21"><a xlink:href="classnet_1_1_connect_event_receiver.html" target="_top" xlink:title=" ">
<polygon fill="white" stroke="black" points="303.5,-494 303.5,-513 440.5,-513 440.5,-494 303.5,-494"/>
<text text-anchor="middle" x="372" y="-501" font-family="Helvetica,sans-Serif" font-size="10.00">net::ConnectEventReceiver</text>
</a>
</g>
</g>
<!-- Node149&#45;&gt;Node151 -->
<g id="edge19" class="edge">
<title>Node149&#45;&gt;Node151</title>
<path fill="none" stroke="midnightblue" d="M270.51,-503.5C281.25,-503.5 292.5,-503.5 303.44,-503.5"/>
<polygon fill="midnightblue" stroke="midnightblue" points="270.4,-500 260.4,-503.5 270.4,-507 270.4,-500"/>
</g>
<!-- Node152 -->
<g id="node27" class="node">
<title>Node152</title>
<g id="a_node27"><a xlink:href="classnet_1_1_out_of_band_event_receiver.html" target="_top" xlink:title=" ">
<polygon fill="white" stroke="black" points="297.5,-532 297.5,-551 446.5,-551 446.5,-532 297.5,-532"/>
<text text-anchor="middle" x="372" y="-539" font-family="Helvetica,sans-Serif" font-size="10.00">net::OutOfBandEventReceiver</text>
</a>
</g>
</g>
<!-- Node149&#45;&gt;Node152 -->
<g id="edge25" class="edge">
<title>Node149&#45;&gt;Node152</title>
<path fill="none" stroke="midnightblue" d="M260.75,-515.4C283.31,-520.74 309.56,-526.95 330.79,-531.98"/>
<polygon fill="midnightblue" stroke="midnightblue" points="261.54,-511.99 251,-513.09 259.93,-518.8 261.54,-511.99"/>
</g>
<!-- Node153 -->
<g id="node28" class="node">
<title>Node153</title>
<g id="a_node28"><a xlink:href="classnet_1_1_read_event_receiver.html" target="_top" xlink:title=" ">
<polygon fill="white" stroke="black" points="310,-448 310,-467 434,-467 434,-448 310,-448"/>
<text text-anchor="middle" x="372" y="-455" font-family="Helvetica,sans-Serif" font-size="10.00">net::ReadEventReceiver</text>
</a>
</g>
</g>
<!-- Node149&#45;&gt;Node153 -->
<g id="edge26" class="edge">
<title>Node149&#45;&gt;Node153</title>
<path fill="none" stroke="midnightblue" d="M253.52,-491.17C279.98,-483.59 313.37,-474.02 337.79,-467.02"/>
<polygon fill="midnightblue" stroke="midnightblue" points="252.4,-487.85 243.76,-493.97 254.33,-494.58 252.4,-487.85"/>
</g>
<!-- Node156 -->
<g id="node37" class="node">
<title>Node156</title>
<g id="a_node37"><a xlink:href="classnet_1_1_write_event_receiver.html" target="_top" xlink:title=" ">
<polygon fill="white" stroke="black" points="310.5,-388 310.5,-407 433.5,-407 433.5,-388 310.5,-388"/>
<text text-anchor="middle" x="372" y="-395" font-family="Helvetica,sans-Serif" font-size="10.00">net::WriteEventReceiver</text>
</a>
</g>
</g>
<!-- Node149&#45;&gt;Node156 -->
<g id="edge39" class="edge">
<title>Node149&#45;&gt;Node156</title>
<path fill="none" stroke="midnightblue" d="M230.02,-487.32C246.96,-473.61 272.42,-453.79 296,-438.5 314.3,-426.63 336.32,-414.88 351.74,-407.02"/>
<polygon fill="midnightblue" stroke="midnightblue" points="227.52,-484.84 221.99,-493.88 231.95,-490.26 227.52,-484.84"/>
</g>
<!-- Node99 -->
<g id="node16" class="node">
<title>Node99</title>
<g id="a_node16"><a xlink:href="classnet_1_1socket_1_1stream_1_1_socket_listener.html" target="_top" xlink:title=" ">
<polygon fill="white" stroke="black" points="489.5,-764.5 489.5,-794.5 681.5,-794.5 681.5,-764.5 489.5,-764.5"/>
<text text-anchor="start" x="497.5" y="-782.5" font-family="Helvetica,sans-Serif" font-size="10.00">net::socket::stream</text>
<text text-anchor="middle" x="585.5" y="-771.5" font-family="Helvetica,sans-Serif" font-size="10.00">::SocketListener&lt; SocketConnectionT &gt;</text>
</a>
</g>
</g>
<!-- Node150&#45;&gt;Node99 -->
<g id="edge14" class="edge">
<title>Node150&#45;&gt;Node99</title>
<path fill="none" stroke="midnightblue" d="M392.84,-699.38C414.17,-715.72 449.67,-740.79 484,-755.5 491.91,-758.89 500.39,-761.86 508.95,-764.43"/>
<polygon fill="midnightblue" stroke="midnightblue" points="394.91,-696.56 384.87,-693.18 390.61,-702.08 394.91,-696.56"/>
</g>
<!-- Node104 -->
<g id="node17" class="node">
<title>Node104</title>
<g id="a_node17"><a xlink:href="classnet_1_1socket_1_1stream_1_1_socket_listener.html" target="_top" xlink:title=" ">
<polygon fill="white" stroke="black" points="517,-622.5 517,-674.5 654,-674.5 654,-622.5 517,-622.5"/>
<text text-anchor="start" x="525" y="-662.5" font-family="Helvetica,sans-Serif" font-size="10.00">net::socket::stream</text>
<text text-anchor="start" x="525" y="-651.5" font-family="Helvetica,sans-Serif" font-size="10.00">::SocketListener&lt; stream</text>
<text text-anchor="start" x="525" y="-640.5" font-family="Helvetica,sans-Serif" font-size="10.00">::legacy::SocketConnection</text>
<text text-anchor="middle" x="585.5" y="-629.5" font-family="Helvetica,sans-Serif" font-size="10.00">&lt; SocketT &gt; &gt;</text>
</a>
</g>
</g>
<!-- Node150&#45;&gt;Node104 -->
<g id="edge15" class="edge">
<title>Node150&#45;&gt;Node104</title>
<path fill="none" stroke="midnightblue" d="M440.41,-672.34C464.84,-668.3 492.42,-663.74 516.87,-659.69"/>
<polygon fill="midnightblue" stroke="midnightblue" points="439.81,-668.9 430.51,-673.98 440.95,-675.8 439.81,-668.9"/>
</g>
<!-- Node106 -->
<g id="node19" class="node">
<title>Node106</title>
<g id="a_node19"><a xlink:href="classnet_1_1socket_1_1stream_1_1_socket_listener.html" target="_top" xlink:title=" ">
<polygon fill="white" stroke="black" points="522,-693.5 522,-745.5 649,-745.5 649,-693.5 522,-693.5"/>
<text text-anchor="start" x="530" y="-733.5" font-family="Helvetica,sans-Serif" font-size="10.00">net::socket::stream</text>
<text text-anchor="start" x="530" y="-722.5" font-family="Helvetica,sans-Serif" font-size="10.00">::SocketListener&lt; stream</text>
<text text-anchor="start" x="530" y="-711.5" font-family="Helvetica,sans-Serif" font-size="10.00">::tls::SocketConnection</text>
<text text-anchor="middle" x="585.5" y="-700.5" font-family="Helvetica,sans-Serif" font-size="10.00">&lt; SocketT &gt; &gt;</text>
</a>
</g>
</g>
<!-- Node150&#45;&gt;Node106 -->
<g id="edge17" class="edge">
<title>Node150&#45;&gt;Node106</title>
<path fill="none" stroke="midnightblue" d="M438.81,-694.7C465.34,-699.22 495.8,-704.4 521.99,-708.86"/>
<polygon fill="midnightblue" stroke="midnightblue" points="439.29,-691.23 428.85,-693.01 438.12,-698.13 439.29,-691.23"/>
</g>
<!-- Node105 -->
<g id="node18" class="node">
<title>Node105</title>
<g id="a_node18"><a xlink:href="classnet_1_1socket_1_1stream_1_1legacy_1_1_socket_listener.html" target="_top" xlink:title=" ">
<polygon fill="white" stroke="black" points="728.5,-628 728.5,-669 850.5,-669 850.5,-628 728.5,-628"/>
<text text-anchor="start" x="736.5" y="-657" font-family="Helvetica,sans-Serif" font-size="10.00">net::socket::stream</text>
<text text-anchor="start" x="736.5" y="-646" font-family="Helvetica,sans-Serif" font-size="10.00">::legacy::SocketListener</text>
<text text-anchor="middle" x="789.5" y="-635" font-family="Helvetica,sans-Serif" font-size="10.00">&lt; SocketT &gt;</text>
</a>
</g>
</g>
<!-- Node104&#45;&gt;Node105 -->
<g id="edge16" class="edge">
<title>Node104&#45;&gt;Node105</title>
<path fill="none" stroke="midnightblue" d="M664.07,-648.5C685.43,-648.5 708.28,-648.5 728.49,-648.5"/>
<polygon fill="midnightblue" stroke="midnightblue" points="664.04,-645 654.04,-648.5 664.04,-652 664.04,-645"/>
</g>
<!-- Node107 -->
<g id="node20" class="node">
<title>Node107</title>
<g id="a_node20"><a xlink:href="classnet_1_1socket_1_1stream_1_1tls_1_1_socket_listener.html" target="_top" xlink:title=" ">
<polygon fill="white" stroke="black" points="737.5,-699 737.5,-740 841.5,-740 841.5,-699 737.5,-699"/>
<text text-anchor="start" x="745.5" y="-728" font-family="Helvetica,sans-Serif" font-size="10.00">net::socket::stream</text>
<text text-anchor="start" x="745.5" y="-717" font-family="Helvetica,sans-Serif" font-size="10.00">::tls::SocketListener</text>
<text text-anchor="middle" x="789.5" y="-706" font-family="Helvetica,sans-Serif" font-size="10.00">&lt; SocketT &gt;</text>
</a>
</g>
</g>
<!-- Node106&#45;&gt;Node107 -->
<g id="edge18" class="edge">
<title>Node106&#45;&gt;Node107</title>
<path fill="none" stroke="midnightblue" d="M659.19,-719.5C685.1,-719.5 713.72,-719.5 737.43,-719.5"/>
<polygon fill="midnightblue" stroke="midnightblue" points="659.03,-716 649.03,-719.5 659.03,-723 659.03,-716"/>
</g>
<!-- Node98 -->
<g id="node22" class="node">
<title>Node98</title>
<g id="a_node22"><a xlink:href="classnet_1_1socket_1_1stream_1_1_socket_connector.html" target="_top" xlink:title=" ">
<polygon fill="white" stroke="black" points="484,-573.5 484,-603.5 687,-603.5 687,-573.5 484,-573.5"/>
<text text-anchor="start" x="492" y="-591.5" font-family="Helvetica,sans-Serif" font-size="10.00">net::socket::stream</text>
<text text-anchor="middle" x="585.5" y="-580.5" font-family="Helvetica,sans-Serif" font-size="10.00">::SocketConnector&lt; SocketConnectionT &gt;</text>
</a>
</g>
</g>
<!-- Node151&#45;&gt;Node98 -->
<g id="edge20" class="edge">
<title>Node151&#45;&gt;Node98</title>
<path fill="none" stroke="midnightblue" d="M437.12,-516.8C440.9,-518.48 444.57,-520.37 448,-522.5 468.89,-535.46 463.02,-551.69 484,-564.5 489.66,-567.96 495.79,-570.92 502.13,-573.45"/>
<polygon fill="midnightblue" stroke="midnightblue" points="438.08,-513.42 427.49,-513.04 435.53,-519.94 438.08,-513.42"/>
</g>
<!-- Node100 -->
<g id="node23" class="node">
<title>Node100</title>
<g id="a_node23"><a xlink:href="classnet_1_1socket_1_1stream_1_1_socket_connector.html" target="_top" xlink:title=" ">
<polygon fill="white" stroke="black" points="517,-431.5 517,-483.5 654,-483.5 654,-431.5 517,-431.5"/>
<text text-anchor="start" x="525" y="-471.5" font-family="Helvetica,sans-Serif" font-size="10.00">net::socket::stream</text>
<text text-anchor="start" x="525" y="-460.5" font-family="Helvetica,sans-Serif" font-size="10.00">::SocketConnector&lt; stream</text>
<text text-anchor="start" x="525" y="-449.5" font-family="Helvetica,sans-Serif" font-size="10.00">::legacy::SocketConnection</text>
<text text-anchor="middle" x="585.5" y="-438.5" font-family="Helvetica,sans-Serif" font-size="10.00">&lt; SocketT &gt; &gt;</text>
</a>
</g>
</g>
<!-- Node151&#45;&gt;Node100 -->
<g id="edge21" class="edge">
<title>Node151&#45;&gt;Node100</title>
<path fill="none" stroke="midnightblue" d="M426.63,-491.83C454.09,-485.86 487.78,-478.54 516.99,-472.18"/>
<polygon fill="midnightblue" stroke="midnightblue" points="425.85,-488.42 416.82,-493.97 427.34,-495.26 425.85,-488.42"/>
</g>
<!-- Node102 -->
<g id="node25" class="node">
<title>Node102</title>
<g id="a_node25"><a xlink:href="classnet_1_1socket_1_1stream_1_1_socket_connector.html" target="_top" xlink:title=" ">
<polygon fill="white" stroke="black" points="517,-502.5 517,-554.5 654,-554.5 654,-502.5 517,-502.5"/>
<text text-anchor="start" x="525" y="-542.5" font-family="Helvetica,sans-Serif" font-size="10.00">net::socket::stream</text>
<text text-anchor="start" x="525" y="-531.5" font-family="Helvetica,sans-Serif" font-size="10.00">::SocketConnector&lt; stream</text>
<text text-anchor="start" x="525" y="-520.5" font-family="Helvetica,sans-Serif" font-size="10.00">::tls::SocketConnection</text>
<text text-anchor="middle" x="585.5" y="-509.5" font-family="Helvetica,sans-Serif" font-size="10.00">&lt; SocketT &gt; &gt;</text>
</a>
</g>
</g>
<!-- Node151&#45;&gt;Node102 -->
<g id="edge23" class="edge">
<title>Node151&#45;&gt;Node102</title>
<path fill="none" stroke="midnightblue" d="M450.68,-512.68C472.4,-515.25 495.83,-518.02 516.91,-520.51"/>
<polygon fill="midnightblue" stroke="midnightblue" points="450.84,-509.18 440.5,-511.48 450.02,-516.13 450.84,-509.18"/>
</g>
<!-- Node101 -->
<g id="node24" class="node">
<title>Node101</title>
<g id="a_node24"><a xlink:href="classnet_1_1socket_1_1stream_1_1legacy_1_1_socket_connector.html" target="_top" xlink:title=" ">
<polygon fill="white" stroke="black" points="723,-437 723,-478 856,-478 856,-437 723,-437"/>
<text text-anchor="start" x="731" y="-466" font-family="Helvetica,sans-Serif" font-size="10.00">net::socket::stream</text>
<text text-anchor="start" x="731" y="-455" font-family="Helvetica,sans-Serif" font-size="10.00">::legacy::SocketConnector</text>
<text text-anchor="middle" x="789.5" y="-444" font-family="Helvetica,sans-Serif" font-size="10.00">&lt; SocketT &gt;</text>
</a>
</g>
</g>
<!-- Node100&#45;&gt;Node101 -->
<g id="edge22" class="edge">
<title>Node100&#45;&gt;Node101</title>
<path fill="none" stroke="midnightblue" d="M664.04,-457.5C683.41,-457.5 704,-457.5 722.73,-457.5"/>
<polygon fill="midnightblue" stroke="midnightblue" points="664.04,-454 654.04,-457.5 664.04,-461 664.04,-454"/>
</g>
<!-- Node103 -->
<g id="node26" class="node">
<title>Node103</title>
<g id="a_node26"><a xlink:href="classnet_1_1socket_1_1stream_1_1tls_1_1_socket_connector.html" target="_top" xlink:title=" ">
<polygon fill="white" stroke="black" points="732,-508 732,-549 847,-549 847,-508 732,-508"/>
<text text-anchor="start" x="740" y="-537" font-family="Helvetica,sans-Serif" font-size="10.00">net::socket::stream</text>
<text text-anchor="start" x="740" y="-526" font-family="Helvetica,sans-Serif" font-size="10.00">::tls::SocketConnector</text>
<text text-anchor="middle" x="789.5" y="-515" font-family="Helvetica,sans-Serif" font-size="10.00">&lt; SocketT &gt;</text>
</a>
</g>
</g>
<!-- Node102&#45;&gt;Node103 -->
<g id="edge24" class="edge">
<title>Node102&#45;&gt;Node103</title>
<path fill="none" stroke="midnightblue" d="M664.25,-528.5C686.74,-528.5 710.86,-528.5 731.81,-528.5"/>
<polygon fill="midnightblue" stroke="midnightblue" points="664.04,-525 654.04,-528.5 664.04,-532 664.04,-525"/>
</g>
<!-- Node153&#45;&gt;Node154 -->
<g id="edge27" class="edge">
<title>Node153&#45;&gt;Node154</title>
<path fill="none" stroke="midnightblue" d="M404.65,-443.51C418.69,-436.49 434.95,-427.21 448,-416.5 467.27,-400.69 462.56,-386.21 484,-373.5 504.97,-361.07 532.27,-356.22 553.13,-354.39"/>
<polygon fill="midnightblue" stroke="midnightblue" points="402.84,-440.5 395.35,-447.99 405.88,-446.8 402.84,-440.5"/>
</g>
<!-- Node153&#45;&gt;Node98 -->
<g id="edge28" class="edge">
<title>Node153&#45;&gt;Node98</title>
<path fill="none" stroke="midnightblue" d="M427.49,-471.12C434.95,-474.63 442.07,-479.01 448,-484.5 476.61,-510.98 453.96,-539.65 484,-564.5 488.15,-567.93 492.7,-570.89 497.51,-573.43"/>
<polygon fill="midnightblue" stroke="midnightblue" points="428.49,-467.75 417.91,-467.14 425.8,-474.21 428.49,-467.75"/>
</g>
<!-- Node153&#45;&gt;Node100 -->
<g id="edge37" class="edge">
<title>Node153&#45;&gt;Node100</title>
<path fill="none" stroke="midnightblue" d="M444.38,-457.5C467.77,-457.5 493.68,-457.5 516.79,-457.5"/>
<polygon fill="midnightblue" stroke="midnightblue" points="444.17,-454 434.17,-457.5 444.17,-461 444.17,-454"/>
</g>
<!-- Node153&#45;&gt;Node102 -->
<g id="edge38" class="edge">
<title>Node153&#45;&gt;Node102</title>
<path fill="none" stroke="midnightblue" d="M411.01,-470.26C440.41,-480.13 481.89,-494.05 516.91,-505.81"/>
<polygon fill="midnightblue" stroke="midnightblue" points="412.12,-466.94 401.52,-467.08 409.89,-473.58 412.12,-466.94"/>
</g>
<!-- Node12 -->
<g id="node29" class="node">
<title>Node12</title>
<g id="a_node29"><a xlink:href="classnet_1_1socket_1_1stream_1_1_socket_reader.html" target="_top" xlink:title=" ">
<polygon fill="white" stroke="black" points="515.5,-294.5 515.5,-324.5 655.5,-324.5 655.5,-294.5 515.5,-294.5"/>
<text text-anchor="start" x="523.5" y="-312.5" font-family="Helvetica,sans-Serif" font-size="10.00">net::socket::stream</text>
<text text-anchor="middle" x="585.5" y="-301.5" font-family="Helvetica,sans-Serif" font-size="10.00">::SocketReader&lt; SocketT &gt;</text>
</a>
</g>
</g>
<!-- Node153&#45;&gt;Node12 -->
<g id="edge29" class="edge">
<title>Node153&#45;&gt;Node12</title>
<path fill="none" stroke="midnightblue" d="M408.96,-443.79C422.56,-437.19 437.33,-428.14 448,-416.5 474.9,-387.16 453.57,-360.16 484,-334.5 493,-326.91 503.98,-321.57 515.33,-317.82"/>
<polygon fill="midnightblue" stroke="midnightblue" points="407.43,-440.64 399.78,-447.97 410.34,-447.01 407.43,-440.64"/>
</g>
<!-- Node155 -->
<g id="node36" class="node">
<title>Node155</title>
<g id="a_node36"><a xlink:href="classnet_1_1socket_1_1stream_1_1tls_1_1_t_l_s_handshake.html" target="_top" xlink:title=" ">
<polygon fill="white" stroke="black" points="532,-382.5 532,-412.5 639,-412.5 639,-382.5 532,-382.5"/>
<text text-anchor="start" x="540" y="-400.5" font-family="Helvetica,sans-Serif" font-size="10.00">net::socket::stream</text>
<text text-anchor="middle" x="585.5" y="-389.5" font-family="Helvetica,sans-Serif" font-size="10.00">::tls::TLSHandshake</text>
</a>
</g>
</g>
<!-- Node153&#45;&gt;Node155 -->
<g id="edge36" class="edge">
<title>Node153&#45;&gt;Node155</title>
<path fill="none" stroke="midnightblue" d="M411.26,-444.79C432.58,-437.88 459.65,-429.36 484,-422.5 499.49,-418.14 516.43,-413.77 531.92,-409.93"/>
<polygon fill="midnightblue" stroke="midnightblue" points="410.02,-441.52 401.6,-447.95 412.2,-448.17 410.02,-441.52"/>
</g>
<!-- Node13 -->
<g id="node30" class="node">
<title>Node13</title>
<g id="a_node30"><a xlink:href="classnet_1_1socket_1_1stream_1_1legacy_1_1_socket_reader.html" target="_top" xlink:title=" ">
<polygon fill="white" stroke="black" points="730,-295 730,-336 849,-336 849,-295 730,-295"/>
<text text-anchor="start" x="738" y="-324" font-family="Helvetica,sans-Serif" font-size="10.00">net::socket::stream</text>
<text text-anchor="start" x="738" y="-313" font-family="Helvetica,sans-Serif" font-size="10.00">::legacy::SocketReader</text>
<text text-anchor="middle" x="789.5" y="-302" font-family="Helvetica,sans-Serif" font-size="10.00">&lt; SocketT &gt;</text>
</a>
</g>
</g>
<!-- Node12&#45;&gt;Node13 -->
<g id="edge30" class="edge">
<title>Node12&#45;&gt;Node13</title>
<path fill="none" stroke="midnightblue" d="M665.75,-311.85C687.09,-312.49 709.78,-313.16 729.78,-313.76"/>
<polygon fill="midnightblue" stroke="midnightblue" points="665.83,-308.36 655.73,-311.56 665.63,-315.35 665.83,-308.36"/>
</g>
<!-- Node16 -->
<g id="node33" class="node">
<title>Node16</title>
<g id="a_node33"><a xlink:href="classnet_1_1socket_1_1stream_1_1tls_1_1_socket_reader.html" target="_top" xlink:title=" ">
<polygon fill="white" stroke="black" points="739,-355 739,-396 840,-396 840,-355 739,-355"/>
<text text-anchor="start" x="747" y="-384" font-family="Helvetica,sans-Serif" font-size="10.00">net::socket::stream</text>
<text text-anchor="start" x="747" y="-373" font-family="Helvetica,sans-Serif" font-size="10.00">::tls::SocketReader</text>
<text text-anchor="middle" x="789.5" y="-362" font-family="Helvetica,sans-Serif" font-size="10.00">&lt; SocketT &gt;</text>
</a>
</g>
</g>
<!-- Node12&#45;&gt;Node16 -->
<g id="edge33" class="edge">
<title>Node12&#45;&gt;Node16</title>
<path fill="none" stroke="midnightblue" d="M662.36,-327.16C670.72,-329.47 679.07,-331.93 687,-334.5 705.08,-340.37 724.52,-347.91 741.5,-354.92"/>
<polygon fill="midnightblue" stroke="midnightblue" points="663.12,-323.74 652.56,-324.53 661.31,-330.5 663.12,-323.74"/>
</g>
<!-- Node14 -->
<g id="node31" class="node">
<title>Node14</title>
<g id="a_node31"><a xlink:href="classnet_1_1socket_1_1stream_1_1_socket_connection.html" target="_top" xlink:title=" ">
<polygon fill="white" stroke="black" points="892,-155 892,-218 1086,-218 1086,-155 892,-155"/>
<text text-anchor="start" x="900" y="-206" font-family="Helvetica,sans-Serif" font-size="10.00">net::socket::stream</text>
<text text-anchor="start" x="900" y="-195" font-family="Helvetica,sans-Serif" font-size="10.00">::SocketConnection&lt;</text>
<text text-anchor="start" x="900" y="-184" font-family="Helvetica,sans-Serif" font-size="10.00"> legacy::SocketReader</text>
<text text-anchor="start" x="900" y="-173" font-family="Helvetica,sans-Serif" font-size="10.00">&lt; SocketT &gt;, legacy::SocketWriter</text>
<text text-anchor="middle" x="989" y="-162" font-family="Helvetica,sans-Serif" font-size="10.00">&lt; SocketT &gt;, SocketT::SocketAddress &gt;</text>
</a>
</g>
</g>
<!-- Node13&#45;&gt;Node14 -->
<g id="edge31" class="edge">
<title>Node13&#45;&gt;Node14</title>
<path fill="none" stroke="midnightblue" d="M851.38,-289.27C852.98,-288.06 854.52,-286.8 856,-285.5 878.76,-265.44 868.98,-247.26 892,-227.5 895.85,-224.19 900.01,-221.12 904.36,-218.27"/>
<polygon fill="midnightblue" stroke="midnightblue" points="849.34,-286.43 843.03,-294.94 853.27,-292.22 849.34,-286.43"/>
</g>
<!-- Node15 -->
<g id="node32" class="node">
<title>Node15</title>
<g id="a_node32"><a xlink:href="classnet_1_1socket_1_1stream_1_1legacy_1_1_socket_connection.html" target="_top" xlink:title=" ">
<polygon fill="white" stroke="black" points="1122,-166 1122,-207 1259,-207 1259,-166 1122,-166"/>
<text text-anchor="start" x="1130" y="-195" font-family="Helvetica,sans-Serif" font-size="10.00">net::socket::stream</text>
<text text-anchor="start" x="1130" y="-184" font-family="Helvetica,sans-Serif" font-size="10.00">::legacy::SocketConnection</text>
<text text-anchor="middle" x="1190.5" y="-173" font-family="Helvetica,sans-Serif" font-size="10.00">&lt; SocketT &gt;</text>
</a>
</g>
</g>
<!-- Node14&#45;&gt;Node15 -->
<g id="edge32" class="edge">
<title>Node14&#45;&gt;Node15</title>
<path fill="none" stroke="midnightblue" d="M1096.42,-186.5C1105.07,-186.5 1113.66,-186.5 1121.91,-186.5"/>
<polygon fill="midnightblue" stroke="midnightblue" points="1096.24,-183 1086.24,-186.5 1096.24,-190 1096.24,-183"/>
</g>
<!-- Node17 -->
<g id="node34" class="node">
<title>Node17</title>
<g id="a_node34"><a xlink:href="classnet_1_1socket_1_1stream_1_1_socket_connection.html" target="_top" xlink:title=" ">
<polygon fill="white" stroke="black" points="914,-237 914,-300 1064,-300 1064,-237 914,-237"/>
<text text-anchor="start" x="922" y="-288" font-family="Helvetica,sans-Serif" font-size="10.00">net::socket::stream</text>
<text text-anchor="start" x="922" y="-277" font-family="Helvetica,sans-Serif" font-size="10.00">::SocketConnection&lt;</text>
<text text-anchor="start" x="922" y="-266" font-family="Helvetica,sans-Serif" font-size="10.00"> tls::SocketReader&lt; SocketT</text>
<text text-anchor="start" x="922" y="-255" font-family="Helvetica,sans-Serif" font-size="10.00"> &gt;, tls::SocketWriter&lt; SocketT</text>
<text text-anchor="middle" x="989" y="-244" font-family="Helvetica,sans-Serif" font-size="10.00"> &gt;, SocketT::SocketAddress &gt;</text>
</a>
</g>
</g>
<!-- Node16&#45;&gt;Node17 -->
<g id="edge34" class="edge">
<title>Node16&#45;&gt;Node17</title>
<path fill="none" stroke="midnightblue" d="M846,-350.55C849.4,-348.87 852.76,-347.18 856,-345.5 883.08,-331.44 912.47,-314.48 936.62,-300.05"/>
<polygon fill="midnightblue" stroke="midnightblue" points="844.42,-347.42 836.94,-354.92 847.46,-353.73 844.42,-347.42"/>
</g>
<!-- Node18 -->
<g id="node35" class="node">
<title>Node18</title>
<g id="a_node35"><a xlink:href="classnet_1_1socket_1_1stream_1_1tls_1_1_socket_connection.html" target="_top" xlink:title=" ">
<polygon fill="white" stroke="black" points="1131,-248 1131,-289 1250,-289 1250,-248 1131,-248"/>
<text text-anchor="start" x="1139" y="-277" font-family="Helvetica,sans-Serif" font-size="10.00">net::socket::stream</text>
<text text-anchor="start" x="1139" y="-266" font-family="Helvetica,sans-Serif" font-size="10.00">::tls::SocketConnection</text>
<text text-anchor="middle" x="1190.5" y="-255" font-family="Helvetica,sans-Serif" font-size="10.00">&lt; SocketT &gt;</text>
</a>
</g>
</g>
<!-- Node17&#45;&gt;Node18 -->
<g id="edge35" class="edge">
<title>Node17&#45;&gt;Node18</title>
<path fill="none" stroke="midnightblue" d="M1074.2,-268.5C1093.28,-268.5 1113.13,-268.5 1130.88,-268.5"/>
<polygon fill="midnightblue" stroke="midnightblue" points="1074,-265 1064,-268.5 1074,-272 1074,-265"/>
</g>
<!-- Node156&#45;&gt;Node155 -->
<g id="edge45" class="edge">
<title>Node156&#45;&gt;Node155</title>
<path fill="none" stroke="midnightblue" d="M443.61,-397.5C472.41,-397.5 505.13,-397.5 531.79,-397.5"/>
<polygon fill="midnightblue" stroke="midnightblue" points="443.61,-394 433.61,-397.5 443.61,-401 443.61,-394"/>
</g>
<!-- Node19 -->
<g id="node38" class="node">
<title>Node19</title>
<g id="a_node38"><a xlink:href="classnet_1_1socket_1_1stream_1_1_socket_writer.html" target="_top" xlink:title=" ">
<polygon fill="white" stroke="black" points="518.5,-245.5 518.5,-275.5 652.5,-275.5 652.5,-245.5 518.5,-245.5"/>
<text text-anchor="start" x="526.5" y="-263.5" font-family="Helvetica,sans-Serif" font-size="10.00">net::socket::stream</text>
<text text-anchor="middle" x="585.5" y="-252.5" font-family="Helvetica,sans-Serif" font-size="10.00">::SocketWriter&lt; SocketT &gt;</text>
</a>
</g>
</g>
<!-- Node156&#45;&gt;Node19 -->
<g id="edge40" class="edge">
<title>Node156&#45;&gt;Node19</title>
<path fill="none" stroke="midnightblue" d="M425.72,-384.09C433.85,-380.34 441.64,-375.56 448,-369.5 477.4,-341.47 453.06,-311.82 484,-285.5 493.79,-277.17 505.95,-271.54 518.4,-267.76"/>
<polygon fill="midnightblue" stroke="midnightblue" points="424.37,-380.86 416.46,-387.91 427.04,-387.34 424.37,-380.86"/>
</g>
<!-- Node20 -->
<g id="node39" class="node">
<title>Node20</title>
<g id="a_node39"><a xlink:href="classnet_1_1socket_1_1stream_1_1legacy_1_1_socket_writer.html" target="_top" xlink:title=" ">
<polygon fill="white" stroke="black" points="733,-125 733,-166 846,-166 846,-125 733,-125"/>
<text text-anchor="start" x="741" y="-154" font-family="Helvetica,sans-Serif" font-size="10.00">net::socket::stream</text>
<text text-anchor="start" x="741" y="-143" font-family="Helvetica,sans-Serif" font-size="10.00">::legacy::SocketWriter</text>
<text text-anchor="middle" x="789.5" y="-132" font-family="Helvetica,sans-Serif" font-size="10.00">&lt; SocketT &gt;</text>
</a>
</g>
</g>
<!-- Node19&#45;&gt;Node20 -->
<g id="edge41" class="edge">
<title>Node19&#45;&gt;Node20</title>
<path fill="none" stroke="midnightblue" d="M662.22,-249.46C671.06,-246.18 679.56,-241.95 687,-236.5 712.08,-218.12 699.96,-197.38 723,-176.5 727.29,-172.61 732.15,-169.12 737.24,-166.01"/>
<polygon fill="midnightblue" stroke="midnightblue" points="660.93,-246.2 652.53,-252.66 663.12,-252.85 660.93,-246.2"/>
</g>
<!-- Node21 -->
<g id="node40" class="node">
<title>Node21</title>
<g id="a_node40"><a xlink:href="classnet_1_1socket_1_1stream_1_1tls_1_1_socket_writer.html" target="_top" xlink:title=" ">
<polygon fill="white" stroke="black" points="739,-235 739,-276 840,-276 840,-235 739,-235"/>
<text text-anchor="start" x="747" y="-264" font-family="Helvetica,sans-Serif" font-size="10.00">net::socket::stream</text>
<text text-anchor="start" x="747" y="-253" font-family="Helvetica,sans-Serif" font-size="10.00">::tls::SocketWriter</text>
<text text-anchor="middle" x="789.5" y="-242" font-family="Helvetica,sans-Serif" font-size="10.00">&lt; SocketT &gt;</text>
</a>
</g>
</g>
<!-- Node19&#45;&gt;Node21 -->
<g id="edge43" class="edge">
<title>Node19&#45;&gt;Node21</title>
<path fill="none" stroke="midnightblue" d="M662.66,-258.61C688.17,-257.98 715.93,-257.3 738.88,-256.73"/>
<polygon fill="midnightblue" stroke="midnightblue" points="662.55,-255.12 652.64,-258.86 662.73,-262.11 662.55,-255.12"/>
</g>
<!-- Node20&#45;&gt;Node14 -->
<g id="edge42" class="edge">
<title>Node20&#45;&gt;Node14</title>
<path fill="none" stroke="midnightblue" d="M855.95,-159.09C867.44,-161.47 879.61,-164 891.74,-166.52"/>
<polygon fill="midnightblue" stroke="midnightblue" points="856.54,-155.64 846.04,-157.03 855.12,-162.49 856.54,-155.64"/>
</g>
<!-- Node21&#45;&gt;Node17 -->
<g id="edge44" class="edge">
<title>Node21&#45;&gt;Node17</title>
<path fill="none" stroke="midnightblue" d="M850.28,-259.43C870.26,-260.75 892.78,-262.23 913.73,-263.61"/>
<polygon fill="midnightblue" stroke="midnightblue" points="850.29,-255.93 840.08,-258.76 849.83,-262.91 850.29,-255.93"/>
</g>
<!-- Node97 -->
<g id="node41" class="node">
<title>Node97</title>
<g id="a_node41"><a xlink:title=" ">
<polygon fill="white" stroke="#bfbfbf" points="348.5,-590 348.5,-609 395.5,-609 395.5,-590 348.5,-590"/>
<text text-anchor="middle" x="372" y="-597" font-family="Helvetica,sans-Serif" font-size="10.00">Socket</text>
</a>
</g>
</g>
<!-- Node97&#45;&gt;Node99 -->
<g id="edge47" class="edge">
<title>Node97&#45;&gt;Node99</title>
<path fill="none" stroke="midnightblue" d="M396.33,-615.09C412.65,-627 433.96,-644.69 448,-664.5 473.16,-699.98 451.14,-727.01 484,-755.5 487.93,-758.91 492.26,-761.85 496.85,-764.39"/>
<polygon fill="midnightblue" stroke="midnightblue" points="398.04,-612.01 387.86,-609.09 394,-617.73 398.04,-612.01"/>
</g>
<!-- Node97&#45;&gt;Node104 -->
<g id="edge50" class="edge">
<title>Node97&#45;&gt;Node104</title>
<path fill="none" stroke="midnightblue" d="M405.4,-607.01C434.89,-613.84 479.37,-624.14 516.63,-632.77"/>
<polygon fill="midnightblue" stroke="midnightblue" points="406.17,-603.59 395.63,-604.74 404.59,-610.41 406.17,-603.59"/>
</g>
<!-- Node97&#45;&gt;Node106 -->
<g id="edge51" class="edge">
<title>Node97&#45;&gt;Node106</title>
<path fill="none" stroke="midnightblue" d="M390.71,-615.96C411.63,-634.69 448.16,-665.18 484,-684.5 495.79,-690.85 508.96,-696.42 521.79,-701.13"/>
<polygon fill="midnightblue" stroke="midnightblue" points="392.99,-613.3 383.23,-609.17 388.28,-618.49 392.99,-613.3"/>
</g>
<!-- Node97&#45;&gt;Node98 -->
<g id="edge46" class="edge">
<title>Node97&#45;&gt;Node98</title>
<path fill="none" stroke="midnightblue" d="M405.65,-597.8C426.78,-596.7 455.54,-595.21 483.81,-593.74"/>
<polygon fill="midnightblue" stroke="midnightblue" points="405.44,-594.31 395.63,-598.32 405.8,-601.3 405.44,-594.31"/>
</g>
<!-- Node97&#45;&gt;Node100 -->
<g id="edge48" class="edge">
<title>Node97&#45;&gt;Node100</title>
<path fill="none" stroke="midnightblue" d="M405.12,-587.89C419.52,-581.49 435.95,-572.39 448,-560.5 472.06,-536.76 458.38,-515.56 484,-493.5 493.55,-485.28 505.12,-478.88 516.96,-473.92"/>
<polygon fill="midnightblue" stroke="midnightblue" points="403.42,-584.81 395.55,-591.89 406.12,-591.26 403.42,-584.81"/>
</g>
<!-- Node97&#45;&gt;Node102 -->
<g id="edge49" class="edge">
<title>Node97&#45;&gt;Node102</title>
<path fill="none" stroke="midnightblue" d="M405.4,-588.62C434.89,-578.72 479.37,-563.79 516.63,-551.29"/>
<polygon fill="midnightblue" stroke="midnightblue" points="404,-585.4 395.63,-591.9 406.23,-592.04 404,-585.4"/>
</g>
<!-- Node55 -->
<g id="node42" class="node">
<title>Node55</title>
<g id="a_node42"><a xlink:href="classnet_1_1socket_1_1stream_1_1_socket_connection_base.html" target="_top" xlink:title=" ">
<polygon fill="white" stroke="black" points="727,-185.5 727,-215.5 852,-215.5 852,-185.5 727,-185.5"/>
<text text-anchor="start" x="735" y="-203.5" font-family="Helvetica,sans-Serif" font-size="10.00">net::socket::stream</text>
<text text-anchor="middle" x="789.5" y="-192.5" font-family="Helvetica,sans-Serif" font-size="10.00">::SocketConnectionBase</text>
</a>
</g>
</g>
<!-- Node55&#45;&gt;Node14 -->
<g id="edge53" class="edge">
<title>Node55&#45;&gt;Node14</title>
<path fill="none" stroke="midnightblue" d="M862.37,-195.41C871.91,-194.73 881.81,-194.03 891.68,-193.33"/>
<polygon fill="midnightblue" stroke="midnightblue" points="861.91,-191.93 852.18,-196.13 862.4,-198.91 861.91,-191.93"/>
</g>
<!-- Node55&#45;&gt;Node17 -->
<g id="edge54" class="edge">
<title>Node55&#45;&gt;Node17</title>
<path fill="none" stroke="midnightblue" d="M843.91,-218.89C865.36,-226.27 890.45,-234.91 913.64,-242.9"/>
<polygon fill="midnightblue" stroke="midnightblue" points="844.93,-215.54 834.33,-215.59 842.65,-222.16 844.93,-215.54"/>
</g>
<!-- Node0 -->
<g id="node43" class="node">
<title>Node0</title>
<g id="a_node43"><a xlink:href="classnet_1_1socket_1_1stream_1_1_socket_connection.html" target="_top" xlink:title=" ">
<polygon fill="white" stroke="black" points="914.5,-70.5 914.5,-122.5 1063.5,-122.5 1063.5,-70.5 914.5,-70.5"/>
<text text-anchor="start" x="922.5" y="-110.5" font-family="Helvetica,sans-Serif" font-size="10.00">net::socket::stream</text>
<text text-anchor="start" x="922.5" y="-99.5" font-family="Helvetica,sans-Serif" font-size="10.00">::SocketConnection&lt;</text>
<text text-anchor="start" x="922.5" y="-88.5" font-family="Helvetica,sans-Serif" font-size="10.00"> SocketReaderT, SocketWriter</text>
<text text-anchor="middle" x="989" y="-77.5" font-family="Helvetica,sans-Serif" font-size="10.00">T, SocketAddressT &gt;</text>
</a>
</g>
</g>
<!-- Node55&#45;&gt;Node0 -->
<g id="edge52" class="edge">
<title>Node55&#45;&gt;Node0</title>
<path fill="none" stroke="midnightblue" d="M845.19,-181.23C848.91,-179.43 852.55,-177.52 856,-175.5 873.97,-164.98 874.62,-156.97 892,-145.5 904.42,-137.31 918.38,-129.48 931.73,-122.57"/>
<polygon fill="midnightblue" stroke="midnightblue" points="843.48,-178.16 835.81,-185.46 846.36,-184.54 843.48,-178.16"/>
</g>
<!-- Node54 -->
<g id="node44" class="node">
<title>Node54</title>
<g id="a_node44"><a xlink:title=" ">
<polygon fill="white" stroke="#bfbfbf" points="747,-49 747,-68 832,-68 832,-49 747,-49"/>
<text text-anchor="middle" x="789.5" y="-56" font-family="Helvetica,sans-Serif" font-size="10.00">SocketReaderT</text>
</a>
</g>
</g>
<!-- Node54&#45;&gt;Node0 -->
<g id="edge55" class="edge">
<title>Node54&#45;&gt;Node0</title>
<path fill="none" stroke="midnightblue" d="M842.49,-68.5C864.44,-72.73 890.4,-77.72 914.27,-82.31"/>
<polygon fill="midnightblue" stroke="midnightblue" points="842.87,-65.01 832.38,-66.56 841.54,-71.89 842.87,-65.01"/>
</g>
<!-- Node11 -->
<g id="node45" class="node">
<title>Node11</title>
<g id="a_node45"><a xlink:title=" ">
<polygon fill="white" stroke="#bfbfbf" points="345.5,-276 345.5,-295 398.5,-295 398.5,-276 345.5,-276"/>
<text text-anchor="middle" x="372" y="-283" font-family="Helvetica,sans-Serif" font-size="10.00">SocketT</text>
</a>
</g>
</g>
<!-- Node11&#45;&gt;Node12 -->
<g id="edge56" class="edge">
<title>Node11&#45;&gt;Node12</title>
<path fill="none" stroke="midnightblue" d="M408.61,-289.54C437.71,-292.84 479.7,-297.61 515.36,-301.65"/>
<polygon fill="midnightblue" stroke="midnightblue" points="408.84,-286.04 398.51,-288.39 408.05,-293 408.84,-286.04"/>
</g>
<!-- Node11&#45;&gt;Node19 -->
<g id="edge57" class="edge">
<title>Node11&#45;&gt;Node19</title>
<path fill="none" stroke="midnightblue" d="M408.47,-281.31C438.31,-277.78 481.81,-272.64 518.1,-268.35"/>
<polygon fill="midnightblue" stroke="midnightblue" points="408.03,-277.83 398.51,-282.48 408.85,-284.79 408.03,-277.83"/>
</g>
<!-- Node9 -->
<g id="node46" class="node">
<title>Node9</title>
<g id="a_node46"><a xlink:title=" ">
<polygon fill="white" stroke="#bfbfbf" points="750,-87 750,-106 829,-106 829,-87 750,-87"/>
<text text-anchor="middle" x="789.5" y="-94" font-family="Helvetica,sans-Serif" font-size="10.00">SocketWriterT</text>
</a>
</g>
</g>
<!-- Node9&#45;&gt;Node0 -->
<g id="edge58" class="edge">
<title>Node9&#45;&gt;Node0</title>
<path fill="none" stroke="midnightblue" d="M839.1,-96.5C861.76,-96.5 889.22,-96.5 914.36,-96.5"/>
<polygon fill="midnightblue" stroke="midnightblue" points="839.05,-93 829.05,-96.5 839.05,-100 839.05,-93"/>
</g>
</g>
</svg>
