<?xml version="1.0" encoding="UTF-8" standalone="no"?>
<!DOCTYPE svg PUBLIC "-//W3C//DTD SVG 1.1//EN"
 "http://www.w3.org/Graphics/SVG/1.1/DTD/svg11.dtd">
<!-- Generated by graphviz version 2.43.0 (0)
 -->
<!-- Title: Graphical Class Hierarchy Pages: 1 -->
<svg width="839pt" height="552pt"
 viewBox="0.00 0.00 839.00 552.00" xmlns="http://www.w3.org/2000/svg" xmlns:xlink="http://www.w3.org/1999/xlink">
<g id="graph0" class="graph" transform="scale(1 1) rotate(0) translate(4 548)">
<title>Graphical Class Hierarchy</title>
<polygon fill="white" stroke="transparent" points="-4,4 -4,-548 835,-548 835,4 -4,4"/>
<!-- Node126 -->
<g id="node1" class="node">
<title>Node126</title>
<g id="a_node1"><a xlink:href="classnet_1_1_descriptor.html" target="_top" xlink:title=" ">
<polygon fill="white" stroke="black" points="169,-373 169,-392 250,-392 250,-373 169,-373"/>
<text text-anchor="middle" x="209.5" y="-380" font-family="Helvetica,sans-Serif" font-size="10.00">net::Descriptor</text>
</a>
</g>
</g>
<!-- Node127 -->
<g id="node2" class="node">
<title>Node127</title>
<g id="a_node2"><a xlink:href="class_file.html" target="_top" xlink:title=" ">
<polygon fill="white" stroke="black" points="354.5,-349 354.5,-368 386.5,-368 386.5,-349 354.5,-349"/>
<text text-anchor="middle" x="370.5" y="-356" font-family="Helvetica,sans-Serif" font-size="10.00">File</text>
</a>
</g>
</g>
<!-- Node126&#45;&gt;Node127 -->
<g id="edge1" class="edge">
<title>Node126&#45;&gt;Node127</title>
<path fill="none" stroke="midnightblue" d="M260.41,-374.97C292.74,-370.09 332.69,-364.06 354.14,-360.82"/>
<polygon fill="midnightblue" stroke="midnightblue" points="259.58,-371.55 250.21,-376.51 260.62,-378.47 259.58,-371.55"/>
</g>
<!-- Node128 -->
<g id="node4" class="node">
<title>Node128</title>
<g id="a_node4"><a xlink:href="classnet_1_1socket_1_1_socket.html" target="_top" xlink:title=" ">
<polygon fill="white" stroke="black" points="317,-299.5 317,-329.5 424,-329.5 424,-299.5 317,-299.5"/>
<text text-anchor="start" x="325" y="-317.5" font-family="Helvetica,sans-Serif" font-size="10.00">net::socket::Socket</text>
<text text-anchor="middle" x="370.5" y="-306.5" font-family="Helvetica,sans-Serif" font-size="10.00">&lt; SocketAddressT &gt;</text>
</a>
</g>
</g>
<!-- Node126&#45;&gt;Node128 -->
<g id="edge3" class="edge">
<title>Node126&#45;&gt;Node128</title>
<path fill="none" stroke="midnightblue" d="M236.98,-367.99C253.65,-359.16 275.76,-347.98 296,-339.5 304.33,-336.01 313.33,-332.63 322.09,-329.55"/>
<polygon fill="midnightblue" stroke="midnightblue" points="235.01,-365.07 227.85,-372.88 238.32,-371.24 235.01,-365.07"/>
</g>
<!-- Node129 -->
<g id="node5" class="node">
<title>Node129</title>
<g id="a_node5"><a xlink:href="classnet_1_1socket_1_1_socket.html" target="_top" xlink:title=" ">
<polygon fill="white" stroke="black" points="319.5,-455 319.5,-496 421.5,-496 421.5,-455 319.5,-455"/>
<text text-anchor="start" x="327.5" y="-484" font-family="Helvetica,sans-Serif" font-size="10.00">net::socket::Socket</text>
<text text-anchor="start" x="327.5" y="-473" font-family="Helvetica,sans-Serif" font-size="10.00">&lt; net::socket::ipv4</text>
<text text-anchor="middle" x="370.5" y="-462" font-family="Helvetica,sans-Serif" font-size="10.00">::InetAddress &gt;</text>
</a>
</g>
</g>
<!-- Node126&#45;&gt;Node129 -->
<g id="edge4" class="edge">
<title>Node126&#45;&gt;Node129</title>
<path fill="none" stroke="midnightblue" d="M233.14,-397.9C250.17,-409.27 274.21,-424.9 296,-437.5 306.2,-443.4 317.4,-449.42 327.92,-454.87"/>
<polygon fill="midnightblue" stroke="midnightblue" points="234.72,-394.74 224.47,-392.06 230.81,-400.55 234.72,-394.74"/>
</g>
<!-- Node133 -->
<g id="node9" class="node">
<title>Node133</title>
<g id="a_node9"><a xlink:href="classnet_1_1socket_1_1_socket.html" target="_top" xlink:title=" ">
<polygon fill="white" stroke="black" points="319.5,-387 319.5,-428 421.5,-428 421.5,-387 319.5,-387"/>
<text text-anchor="start" x="327.5" y="-416" font-family="Helvetica,sans-Serif" font-size="10.00">net::socket::Socket</text>
<text text-anchor="start" x="327.5" y="-405" font-family="Helvetica,sans-Serif" font-size="10.00">&lt; net::socket::ipv6</text>
<text text-anchor="middle" x="370.5" y="-394" font-family="Helvetica,sans-Serif" font-size="10.00">::InetAddress &gt;</text>
</a>
</g>
</g>
<!-- Node126&#45;&gt;Node133 -->
<g id="edge8" class="edge">
<title>Node126&#45;&gt;Node133</title>
<path fill="none" stroke="midnightblue" d="M260.11,-390.3C279.01,-393.27 300.54,-396.66 319.47,-399.63"/>
<polygon fill="midnightblue" stroke="midnightblue" points="260.63,-386.84 250.21,-388.74 259.55,-393.75 260.63,-386.84"/>
</g>
<!-- Node101 -->
<g id="node3" class="node">
<title>Node101</title>
<g id="a_node3"><a xlink:href="class_file_reader.html" target="_top" xlink:title=" ">
<polygon fill="white" stroke="black" points="545,-323 545,-342 609,-342 609,-323 545,-323"/>
<text text-anchor="middle" x="577" y="-330" font-family="Helvetica,sans-Serif" font-size="10.00">FileReader</text>
</a>
</g>
</g>
<!-- Node127&#45;&gt;Node101 -->
<g id="edge2" class="edge">
<title>Node127&#45;&gt;Node101</title>
<path fill="none" stroke="midnightblue" d="M396.6,-355.31C434.02,-350.55 504.37,-341.61 544.97,-336.44"/>
<polygon fill="midnightblue" stroke="midnightblue" points="396.02,-351.85 386.54,-356.59 396.9,-358.8 396.02,-351.85"/>
</g>
<!-- Node130 -->
<g id="node6" class="node">
<title>Node130</title>
<g id="a_node6"><a xlink:href="classnet_1_1socket_1_1ipv4_1_1tcp_1_1_socket.html" target="_top" xlink:title=" ">
<polygon fill="white" stroke="black" points="529.5,-464.5 529.5,-494.5 624.5,-494.5 624.5,-464.5 529.5,-464.5"/>
<text text-anchor="start" x="537.5" y="-482.5" font-family="Helvetica,sans-Serif" font-size="10.00">net::socket::ipv4::</text>
<text text-anchor="middle" x="577" y="-471.5" font-family="Helvetica,sans-Serif" font-size="10.00">tcp::Socket</text>
</a>
</g>
</g>
<!-- Node129&#45;&gt;Node130 -->
<g id="edge5" class="edge">
<title>Node129&#45;&gt;Node130</title>
<path fill="none" stroke="midnightblue" d="M431.83,-476.68C462.97,-477.29 500.38,-478.02 529.29,-478.59"/>
<polygon fill="midnightblue" stroke="midnightblue" points="431.59,-473.17 421.53,-476.48 431.46,-480.17 431.59,-473.17"/>
</g>
<!-- Node131 -->
<g id="node7" class="node">
<title>Node131</title>
<g id="a_node7"><a xlink:href="classnet_1_1socket_1_1ipv4_1_1tcp_1_1legacy_1_1_socket.html" target="_top" xlink:title=" ">
<polygon fill="white" stroke="black" points="719.5,-513.5 719.5,-543.5 820.5,-543.5 820.5,-513.5 719.5,-513.5"/>
<text text-anchor="start" x="727.5" y="-531.5" font-family="Helvetica,sans-Serif" font-size="10.00">net::socket::ipv4::</text>
<text text-anchor="middle" x="770" y="-520.5" font-family="Helvetica,sans-Serif" font-size="10.00">tcp::legacy::Socket</text>
</a>
</g>
</g>
<!-- Node130&#45;&gt;Node131 -->
<g id="edge6" class="edge">
<title>Node130&#45;&gt;Node131</title>
<path fill="none" stroke="midnightblue" d="M634.41,-493.97C661.39,-500.89 693.39,-509.1 719.42,-515.78"/>
<polygon fill="midnightblue" stroke="midnightblue" points="635.28,-490.58 624.72,-491.49 633.54,-497.36 635.28,-490.58"/>
</g>
<!-- Node132 -->
<g id="node8" class="node">
<title>Node132</title>
<g id="a_node8"><a xlink:href="classnet_1_1socket_1_1ipv4_1_1tcp_1_1tls_1_1_socket.html" target="_top" xlink:title=" ">
<polygon fill="white" stroke="black" points="722.5,-464.5 722.5,-494.5 817.5,-494.5 817.5,-464.5 722.5,-464.5"/>
<text text-anchor="start" x="730.5" y="-482.5" font-family="Helvetica,sans-Serif" font-size="10.00">net::socket::ipv4::</text>
<text text-anchor="middle" x="770" y="-471.5" font-family="Helvetica,sans-Serif" font-size="10.00">tcp::tls::Socket</text>
</a>
</g>
</g>
<!-- Node130&#45;&gt;Node132 -->
<g id="edge7" class="edge">
<title>Node130&#45;&gt;Node132</title>
<path fill="none" stroke="midnightblue" d="M634.76,-479.5C662.71,-479.5 696,-479.5 722.43,-479.5"/>
<polygon fill="midnightblue" stroke="midnightblue" points="634.72,-476 624.72,-479.5 634.72,-483 634.72,-476"/>
</g>
<!-- Node134 -->
<g id="node10" class="node">
<title>Node134</title>
<g id="a_node10"><a xlink:href="classnet_1_1socket_1_1ipv6_1_1tcp_1_1_socket.html" target="_top" xlink:title=" ">
<polygon fill="white" stroke="black" points="529.5,-392.5 529.5,-422.5 624.5,-422.5 624.5,-392.5 529.5,-392.5"/>
<text text-anchor="start" x="537.5" y="-410.5" font-family="Helvetica,sans-Serif" font-size="10.00">net::socket::ipv6::</text>
<text text-anchor="middle" x="577" y="-399.5" font-family="Helvetica,sans-Serif" font-size="10.00">tcp::Socket</text>
</a>
</g>
</g>
<!-- Node133&#45;&gt;Node134 -->
<g id="edge9" class="edge">
<title>Node133&#45;&gt;Node134</title>
<path fill="none" stroke="midnightblue" d="M431.83,-407.5C462.97,-407.5 500.38,-407.5 529.29,-407.5"/>
<polygon fill="midnightblue" stroke="midnightblue" points="431.53,-404 421.53,-407.5 431.53,-411 431.53,-404"/>
</g>
<!-- Node135 -->
<g id="node11" class="node">
<title>Node135</title>
<g id="a_node11"><a xlink:href="classnet_1_1socket_1_1ipv6_1_1tcp_1_1legacy_1_1_socket.html" target="_top" xlink:title=" ">
<polygon fill="white" stroke="black" points="719.5,-415.5 719.5,-445.5 820.5,-445.5 820.5,-415.5 719.5,-415.5"/>
<text text-anchor="start" x="727.5" y="-433.5" font-family="Helvetica,sans-Serif" font-size="10.00">net::socket::ipv6::</text>
<text text-anchor="middle" x="770" y="-422.5" font-family="Helvetica,sans-Serif" font-size="10.00">tcp::legacy::Socket</text>
</a>
</g>
</g>
<!-- Node134&#45;&gt;Node135 -->
<g id="edge10" class="edge">
<title>Node134&#45;&gt;Node135</title>
<path fill="none" stroke="midnightblue" d="M634.77,-414.34C661.67,-417.58 693.51,-421.41 719.42,-424.53"/>
<polygon fill="midnightblue" stroke="midnightblue" points="635.07,-410.85 624.72,-413.13 634.23,-417.8 635.07,-410.85"/>
</g>
<!-- Node136 -->
<g id="node12" class="node">
<title>Node136</title>
<g id="a_node12"><a xlink:href="classnet_1_1socket_1_1ipv6_1_1tcp_1_1tls_1_1_socket.html" target="_top" xlink:title=" ">
<polygon fill="white" stroke="black" points="722.5,-366.5 722.5,-396.5 817.5,-396.5 817.5,-366.5 722.5,-366.5"/>
<text text-anchor="start" x="730.5" y="-384.5" font-family="Helvetica,sans-Serif" font-size="10.00">net::socket::ipv6::</text>
<text text-anchor="middle" x="770" y="-373.5" font-family="Helvetica,sans-Serif" font-size="10.00">tcp::tls::Socket</text>
</a>
</g>
</g>
<!-- Node134&#45;&gt;Node136 -->
<g id="edge11" class="edge">
<title>Node134&#45;&gt;Node136</title>
<path fill="none" stroke="midnightblue" d="M634.76,-399.77C662.71,-395.97 696,-391.44 722.43,-387.84"/>
<polygon fill="midnightblue" stroke="midnightblue" points="634.16,-396.32 624.72,-401.14 635.1,-403.26 634.16,-396.32"/>
</g>
<!-- Node96 -->
<g id="node13" class="node">
<title>Node96</title>
<g id="a_node13"><a xlink:href="classnet_1_1_observation_counter.html" target="_top" xlink:title=" ">
<polygon fill="white" stroke="black" points="0,-130 0,-149 123,-149 123,-130 0,-130"/>
<text text-anchor="middle" x="61.5" y="-137" font-family="Helvetica,sans-Serif" font-size="10.00">net::ObservationCounter</text>
</a>
</g>
</g>
<!-- Node97 -->
<g id="node14" class="node">
<title>Node97</title>
<g id="a_node14"><a xlink:href="classnet_1_1_event_receiver.html" target="_top" xlink:title=" ">
<polygon fill="white" stroke="black" points="159,-130 159,-149 260,-149 260,-130 159,-130"/>
<text text-anchor="middle" x="209.5" y="-137" font-family="Helvetica,sans-Serif" font-size="10.00">net::EventReceiver</text>
</a>
</g>
</g>
<!-- Node96&#45;&gt;Node97 -->
<g id="edge12" class="edge">
<title>Node96&#45;&gt;Node97</title>
<path fill="none" stroke="midnightblue" d="M133.27,-139.5C141.94,-139.5 150.65,-139.5 158.91,-139.5"/>
<polygon fill="midnightblue" stroke="midnightblue" points="133.15,-136 123.15,-139.5 133.15,-143 133.15,-136"/>
</g>
<!-- Node98 -->
<g id="node15" class="node">
<title>Node98</title>
<g id="a_node15"><a xlink:href="classnet_1_1_accept_event_receiver.html" target="_top" xlink:title=" ">
<polygon fill="white" stroke="black" points="305,-89 305,-108 436,-108 436,-89 305,-89"/>
<text text-anchor="middle" x="370.5" y="-96" font-family="Helvetica,sans-Serif" font-size="10.00">net::AcceptEventReceiver</text>
</a>
</g>
</g>
<!-- Node97&#45;&gt;Node98 -->
<g id="edge13" class="edge">
<title>Node97&#45;&gt;Node98</title>
<path fill="none" stroke="midnightblue" d="M257.34,-127.42C281.33,-121.23 310.14,-113.81 332.55,-108.03"/>
<polygon fill="midnightblue" stroke="midnightblue" points="256.19,-124.1 247.38,-129.99 257.93,-130.88 256.19,-124.1"/>
</g>
<!-- Node99 -->
<g id="node21" class="node">
<title>Node99</title>
<g id="a_node21"><a xlink:href="classnet_1_1_out_of_band_event_receiver.html" target="_top" xlink:title=" ">
<polygon fill="white" stroke="black" points="296,-51 296,-70 445,-70 445,-51 296,-51"/>
<text text-anchor="middle" x="370.5" y="-58" font-family="Helvetica,sans-Serif" font-size="10.00">net::OutOfBandEventReceiver</text>
</a>
</g>
</g>
<!-- Node97&#45;&gt;Node99 -->
<g id="edge19" class="edge">
<title>Node97&#45;&gt;Node99</title>
<path fill="none" stroke="midnightblue" d="M229.11,-123.45C245.67,-109.93 271.04,-91.02 296,-79.5 304.26,-75.69 313.4,-72.55 322.36,-70"/>
<polygon fill="midnightblue" stroke="midnightblue" points="226.75,-120.86 221.31,-129.95 231.23,-126.23 226.75,-120.86"/>
</g>
<!-- Node100 -->
<g id="node22" class="node">
<title>Node100</title>
<g id="a_node22"><a xlink:href="classnet_1_1_read_event_receiver.html" target="_top" xlink:title=" ">
<polygon fill="white" stroke="black" points="308.5,-257 308.5,-276 432.5,-276 432.5,-257 308.5,-257"/>
<text text-anchor="middle" x="370.5" y="-264" font-family="Helvetica,sans-Serif" font-size="10.00">net::ReadEventReceiver</text>
</a>
</g>
</g>
<!-- Node97&#45;&gt;Node100 -->
<g id="edge20" class="edge">
<title>Node97&#45;&gt;Node100</title>
<path fill="none" stroke="midnightblue" d="M222.79,-157.62C237.89,-178.75 265.33,-213.55 296,-235.5 308.84,-244.69 324.82,-251.84 338.6,-256.95"/>
<polygon fill="midnightblue" stroke="midnightblue" points="225.52,-155.42 216.92,-149.23 219.78,-159.43 225.52,-155.42"/>
</g>
<!-- Node102 -->
<g id="node26" class="node">
<title>Node102</title>
<g id="a_node26"><a xlink:href="classnet_1_1_write_event_receiver.html" target="_top" xlink:title=" ">
<polygon fill="white" stroke="black" points="309,-168 309,-187 432,-187 432,-168 309,-168"/>
<text text-anchor="middle" x="370.5" y="-175" font-family="Helvetica,sans-Serif" font-size="10.00">net::WriteEventReceiver</text>
</a>
</g>
</g>
<!-- Node97&#45;&gt;Node102 -->
<g id="edge25" class="edge">
<title>Node97&#45;&gt;Node102</title>
<path fill="none" stroke="midnightblue" d="M260.58,-151.47C282.86,-156.79 308.73,-162.98 329.67,-167.98"/>
<polygon fill="midnightblue" stroke="midnightblue" points="261.16,-148.01 250.62,-149.09 259.53,-154.82 261.16,-148.01"/>
</g>
<!-- Node59 -->
<g id="node16" class="node">
<title>Node59</title>
<g id="a_node16"><a xlink:href="classnet_1_1socket_1_1stream_1_1_socket_listener.html" target="_top" xlink:title=" ">
<polygon fill="white" stroke="black" points="481,-71.5 481,-101.5 673,-101.5 673,-71.5 481,-71.5"/>
<text text-anchor="start" x="489" y="-89.5" font-family="Helvetica,sans-Serif" font-size="10.00">net::socket::stream</text>
<text text-anchor="middle" x="577" y="-78.5" font-family="Helvetica,sans-Serif" font-size="10.00">::SocketListener&lt; SocketConnectionT &gt;</text>
</a>
</g>
</g>
<!-- Node98&#45;&gt;Node59 -->
<g id="edge14" class="edge">
<title>Node98&#45;&gt;Node59</title>
<path fill="none" stroke="midnightblue" d="M446.33,-94.11C457.51,-93.45 469.17,-92.77 480.71,-92.09"/>
<polygon fill="midnightblue" stroke="midnightblue" points="445.98,-90.62 436.21,-94.7 446.39,-97.61 445.98,-90.62"/>
</g>
<!-- Node60 -->
<g id="node17" class="node">
<title>Node60</title>
<g id="a_node17"><a xlink:href="classnet_1_1socket_1_1stream_1_1_socket_listener.html" target="_top" xlink:title=" ">
<polygon fill="white" stroke="black" points="493.5,-120.5 493.5,-172.5 660.5,-172.5 660.5,-120.5 493.5,-120.5"/>
<text text-anchor="start" x="501.5" y="-160.5" font-family="Helvetica,sans-Serif" font-size="10.00">net::socket::stream</text>
<text text-anchor="start" x="501.5" y="-149.5" font-family="Helvetica,sans-Serif" font-size="10.00">::SocketListener&lt; net</text>
<text text-anchor="start" x="501.5" y="-138.5" font-family="Helvetica,sans-Serif" font-size="10.00">::socket::stream::legacy</text>
<text text-anchor="middle" x="577" y="-127.5" font-family="Helvetica,sans-Serif" font-size="10.00">::SocketConnection&lt; SocketT &gt; &gt;</text>
</a>
</g>
</g>
<!-- Node98&#45;&gt;Node60 -->
<g id="edge15" class="edge">
<title>Node98&#45;&gt;Node60</title>
<path fill="none" stroke="midnightblue" d="M422.26,-110.41C443.72,-115.45 469.28,-121.45 493.33,-127.1"/>
<polygon fill="midnightblue" stroke="midnightblue" points="422.93,-106.98 412.39,-108.1 421.33,-113.79 422.93,-106.98"/>
</g>
<!-- Node62 -->
<g id="node19" class="node">
<title>Node62</title>
<g id="a_node19"><a xlink:href="classnet_1_1socket_1_1stream_1_1_socket_listener.html" target="_top" xlink:title=" ">
<polygon fill="white" stroke="black" points="493.5,-0.5 493.5,-52.5 660.5,-52.5 660.5,-0.5 493.5,-0.5"/>
<text text-anchor="start" x="501.5" y="-40.5" font-family="Helvetica,sans-Serif" font-size="10.00">net::socket::stream</text>
<text text-anchor="start" x="501.5" y="-29.5" font-family="Helvetica,sans-Serif" font-size="10.00">::SocketListener&lt; net</text>
<text text-anchor="start" x="501.5" y="-18.5" font-family="Helvetica,sans-Serif" font-size="10.00">::socket::stream::tls</text>
<text text-anchor="middle" x="577" y="-7.5" font-family="Helvetica,sans-Serif" font-size="10.00">::SocketConnection&lt; SocketT &gt; &gt;</text>
</a>
</g>
</g>
<!-- Node98&#45;&gt;Node62 -->
<g id="edge17" class="edge">
<title>Node98&#45;&gt;Node62</title>
<path fill="none" stroke="midnightblue" d="M424.75,-86.16C431.63,-84.15 438.53,-81.92 445,-79.5 461.75,-73.23 464.58,-68.6 481,-61.5 488.02,-58.46 495.39,-55.45 502.8,-52.54"/>
<polygon fill="midnightblue" stroke="midnightblue" points="423.42,-82.89 414.72,-88.95 425.3,-89.64 423.42,-82.89"/>
</g>
<!-- Node61 -->
<g id="node18" class="node">
<title>Node61</title>
<g id="a_node18"><a xlink:href="classnet_1_1socket_1_1stream_1_1legacy_1_1_socket_listener.html" target="_top" xlink:title=" ">
<polygon fill="white" stroke="black" points="709,-66 709,-107 831,-107 831,-66 709,-66"/>
<text text-anchor="start" x="717" y="-95" font-family="Helvetica,sans-Serif" font-size="10.00">net::socket::stream</text>
<text text-anchor="start" x="717" y="-84" font-family="Helvetica,sans-Serif" font-size="10.00">::legacy::SocketListener</text>
<text text-anchor="middle" x="770" y="-73" font-family="Helvetica,sans-Serif" font-size="10.00">&lt; SocketT &gt;</text>
</a>
</g>
</g>
<!-- Node60&#45;&gt;Node61 -->
<g id="edge16" class="edge">
<title>Node60&#45;&gt;Node61</title>
<path fill="none" stroke="midnightblue" d="M670.22,-117.53C683.38,-113.4 696.62,-109.24 708.95,-105.36"/>
<polygon fill="midnightblue" stroke="midnightblue" points="669.16,-114.2 660.66,-120.53 671.25,-120.87 669.16,-114.2"/>
</g>
<!-- Node63 -->
<g id="node20" class="node">
<title>Node63</title>
<g id="a_node20"><a xlink:href="classnet_1_1socket_1_1stream_1_1tls_1_1_socket_listener.html" target="_top" xlink:title=" ">
<polygon fill="white" stroke="black" points="718,-6 718,-47 822,-47 822,-6 718,-6"/>
<text text-anchor="start" x="726" y="-35" font-family="Helvetica,sans-Serif" font-size="10.00">net::socket::stream</text>
<text text-anchor="start" x="726" y="-24" font-family="Helvetica,sans-Serif" font-size="10.00">::tls::SocketListener</text>
<text text-anchor="middle" x="770" y="-13" font-family="Helvetica,sans-Serif" font-size="10.00">&lt; SocketT &gt;</text>
</a>
</g>
</g>
<!-- Node62&#45;&gt;Node63 -->
<g id="edge18" class="edge">
<title>Node62&#45;&gt;Node63</title>
<path fill="none" stroke="midnightblue" d="M670.75,-26.5C686.98,-26.5 703.33,-26.5 717.9,-26.5"/>
<polygon fill="midnightblue" stroke="midnightblue" points="670.66,-23 660.66,-26.5 670.66,-30 670.66,-23"/>
</g>
<!-- Node100&#45;&gt;Node101 -->
<g id="edge21" class="edge">
<title>Node100&#45;&gt;Node101</title>
<path fill="none" stroke="midnightblue" d="M411.88,-279.03C422.65,-282.4 434.28,-286.06 445,-289.5 480.33,-300.83 520.9,-314.2 547.42,-322.99"/>
<polygon fill="midnightblue" stroke="midnightblue" points="412.87,-275.67 402.28,-276.03 410.79,-282.35 412.87,-275.67"/>
</g>
<!-- Node0 -->
<g id="node23" class="node">
<title>Node0</title>
<g id="a_node23"><a xlink:href="classnet_1_1socket_1_1stream_1_1_socket_reader.html" target="_top" xlink:title=" ">
<polygon fill="white" stroke="black" points="507,-251.5 507,-281.5 647,-281.5 647,-251.5 507,-251.5"/>
<text text-anchor="start" x="515" y="-269.5" font-family="Helvetica,sans-Serif" font-size="10.00">net::socket::stream</text>
<text text-anchor="middle" x="577" y="-258.5" font-family="Helvetica,sans-Serif" font-size="10.00">::SocketReader&lt; SocketT &gt;</text>
</a>
</g>
</g>
<!-- Node100&#45;&gt;Node0 -->
<g id="edge22" class="edge">
<title>Node100&#45;&gt;Node0</title>
<path fill="none" stroke="midnightblue" d="M442.65,-266.5C463.51,-266.5 486.27,-266.5 506.99,-266.5"/>
<polygon fill="midnightblue" stroke="midnightblue" points="442.58,-263 432.58,-266.5 442.58,-270 442.58,-263"/>
</g>
<!-- Node1 -->
<g id="node24" class="node">
<title>Node1</title>
<g id="a_node24"><a xlink:href="classnet_1_1socket_1_1stream_1_1legacy_1_1_socket_reader.html" target="_top" xlink:title=" ">
<polygon fill="white" stroke="black" points="710.5,-306 710.5,-347 829.5,-347 829.5,-306 710.5,-306"/>
<text text-anchor="start" x="718.5" y="-335" font-family="Helvetica,sans-Serif" font-size="10.00">net::socket::stream</text>
<text text-anchor="start" x="718.5" y="-324" font-family="Helvetica,sans-Serif" font-size="10.00">::legacy::SocketReader</text>
<text text-anchor="middle" x="770" y="-313" font-family="Helvetica,sans-Serif" font-size="10.00">&lt; SocketT &gt;</text>
</a>
</g>
</g>
<!-- Node0&#45;&gt;Node1 -->
<g id="edge23" class="edge">
<title>Node0&#45;&gt;Node1</title>
<path fill="none" stroke="midnightblue" d="M636.03,-284.73C659.54,-292.12 686.66,-300.63 710.24,-308.04"/>
<polygon fill="midnightblue" stroke="midnightblue" points="636.79,-281.3 626.2,-281.64 634.69,-287.98 636.79,-281.3"/>
</g>
<!-- Node2 -->
<g id="node25" class="node">
<title>Node2</title>
<g id="a_node25"><a xlink:href="classnet_1_1socket_1_1stream_1_1tls_1_1_socket_reader.html" target="_top" xlink:title=" ">
<polygon fill="white" stroke="black" points="719.5,-246 719.5,-287 820.5,-287 820.5,-246 719.5,-246"/>
<text text-anchor="start" x="727.5" y="-275" font-family="Helvetica,sans-Serif" font-size="10.00">net::socket::stream</text>
<text text-anchor="start" x="727.5" y="-264" font-family="Helvetica,sans-Serif" font-size="10.00">::tls::SocketReader</text>
<text text-anchor="middle" x="770" y="-253" font-family="Helvetica,sans-Serif" font-size="10.00">&lt; SocketT &gt;</text>
</a>
</g>
</g>
<!-- Node0&#45;&gt;Node2 -->
<g id="edge24" class="edge">
<title>Node0&#45;&gt;Node2</title>
<path fill="none" stroke="midnightblue" d="M657.44,-266.5C678.45,-266.5 700.53,-266.5 719.46,-266.5"/>
<polygon fill="midnightblue" stroke="midnightblue" points="657.23,-263 647.23,-266.5 657.23,-270 657.23,-263"/>
</g>
<!-- Node14 -->
<g id="node27" class="node">
<title>Node14</title>
<g id="a_node27"><a xlink:href="classnet_1_1socket_1_1stream_1_1_socket_writer.html" target="_top" xlink:title=" ">
<polygon fill="white" stroke="black" points="510,-191.5 510,-221.5 644,-221.5 644,-191.5 510,-191.5"/>
<text text-anchor="start" x="518" y="-209.5" font-family="Helvetica,sans-Serif" font-size="10.00">net::socket::stream</text>
<text text-anchor="middle" x="577" y="-198.5" font-family="Helvetica,sans-Serif" font-size="10.00">::SocketWriter&lt; SocketT &gt;</text>
</a>
</g>
</g>
<!-- Node102&#45;&gt;Node14 -->
<g id="edge26" class="edge">
<title>Node102&#45;&gt;Node14</title>
<path fill="none" stroke="midnightblue" d="M441.97,-187.49C464,-190.62 488.2,-194.05 509.91,-197.13"/>
<polygon fill="midnightblue" stroke="midnightblue" points="442.42,-184.02 432.03,-186.08 441.44,-190.95 442.42,-184.02"/>
</g>
<!-- Node15 -->
<g id="node28" class="node">
<title>Node15</title>
<g id="a_node28"><a xlink:href="classnet_1_1socket_1_1stream_1_1legacy_1_1_socket_writer.html" target="_top" xlink:title=" ">
<polygon fill="white" stroke="black" points="713.5,-186 713.5,-227 826.5,-227 826.5,-186 713.5,-186"/>
<text text-anchor="start" x="721.5" y="-215" font-family="Helvetica,sans-Serif" font-size="10.00">net::socket::stream</text>
<text text-anchor="start" x="721.5" y="-204" font-family="Helvetica,sans-Serif" font-size="10.00">::legacy::SocketWriter</text>
<text text-anchor="middle" x="770" y="-193" font-family="Helvetica,sans-Serif" font-size="10.00">&lt; SocketT &gt;</text>
</a>
</g>
</g>
<!-- Node14&#45;&gt;Node15 -->
<g id="edge27" class="edge">
<title>Node14&#45;&gt;Node15</title>
<path fill="none" stroke="midnightblue" d="M654.43,-206.5C674.11,-206.5 694.91,-206.5 713.31,-206.5"/>
<polygon fill="midnightblue" stroke="midnightblue" points="654.27,-203 644.27,-206.5 654.27,-210 654.27,-203"/>
</g>
<!-- Node16 -->
<g id="node29" class="node">
<title>Node16</title>
<g id="a_node29"><a xlink:href="classnet_1_1socket_1_1stream_1_1tls_1_1_socket_writer.html" target="_top" xlink:title=" ">
<polygon fill="white" stroke="black" points="719.5,-126 719.5,-167 820.5,-167 820.5,-126 719.5,-126"/>
<text text-anchor="start" x="727.5" y="-155" font-family="Helvetica,sans-Serif" font-size="10.00">net::socket::stream</text>
<text text-anchor="start" x="727.5" y="-144" font-family="Helvetica,sans-Serif" font-size="10.00">::tls::SocketWriter</text>
<text text-anchor="middle" x="770" y="-133" font-family="Helvetica,sans-Serif" font-size="10.00">&lt; SocketT &gt;</text>
</a>
</g>
</g>
<!-- Node14&#45;&gt;Node16 -->
<g id="edge28" class="edge">
<title>Node14&#45;&gt;Node16</title>
<path fill="none" stroke="midnightblue" d="M648.31,-188.78C656.67,-186.44 665.05,-183.99 673,-181.5 688.24,-176.73 704.62,-170.99 719.47,-165.55"/>
<polygon fill="midnightblue" stroke="midnightblue" points="647.26,-185.44 638.55,-191.46 649.12,-192.19 647.26,-185.44"/>
</g>
<!-- Node58 -->
<g id="node30" class="node">
<title>Node58</title>
<g id="a_node30"><a xlink:title=" ">
<polygon fill="white" stroke="#bfbfbf" points="347,-127 347,-146 394,-146 394,-127 347,-127"/>
<text text-anchor="middle" x="370.5" y="-134" font-family="Helvetica,sans-Serif" font-size="10.00">Socket</text>
</a>
</g>
</g>
<!-- Node58&#45;&gt;Node59 -->
<g id="edge29" class="edge">
<title>Node58&#45;&gt;Node59</title>
<path fill="none" stroke="midnightblue" d="M403.98,-128.56C433.59,-121.32 478.12,-110.43 514.45,-101.55"/>
<polygon fill="midnightblue" stroke="midnightblue" points="403.05,-125.18 394.17,-130.96 404.71,-131.98 403.05,-125.18"/>
</g>
<!-- Node58&#45;&gt;Node60 -->
<g id="edge30" class="edge">
<title>Node58&#45;&gt;Node60</title>
<path fill="none" stroke="midnightblue" d="M404.46,-138.11C428.42,-139.28 461.97,-140.92 493.05,-142.44"/>
<polygon fill="midnightblue" stroke="midnightblue" points="404.33,-134.6 394.17,-137.61 403.98,-141.59 404.33,-134.6"/>
</g>
<!-- Node58&#45;&gt;Node62 -->
<g id="edge31" class="edge">
<title>Node58&#45;&gt;Node62</title>
<path fill="none" stroke="midnightblue" d="M404.21,-133.35C417.82,-130.77 433.17,-126.06 445,-117.5 468.97,-100.16 457.92,-80.02 481,-61.5 484.98,-58.31 489.27,-55.39 493.76,-52.73"/>
<polygon fill="midnightblue" stroke="midnightblue" points="403.55,-129.92 394.22,-134.95 404.65,-136.83 403.55,-129.92"/>
</g>
<!-- Node10 -->
<g id="node31" class="node">
<title>Node10</title>
<g id="a_node31"><a xlink:title=" ">
<polygon fill="white" stroke="#bfbfbf" points="344,-207 344,-226 397,-226 397,-207 344,-207"/>
<text text-anchor="middle" x="370.5" y="-214" font-family="Helvetica,sans-Serif" font-size="10.00">SocketT</text>
</a>
</g>
</g>
<!-- Node10&#45;&gt;Node0 -->
<g id="edge32" class="edge">
<title>Node10&#45;&gt;Node0</title>
<path fill="none" stroke="midnightblue" d="M407.26,-225.24C436.78,-232.46 479.34,-242.87 514.33,-251.42"/>
<polygon fill="midnightblue" stroke="midnightblue" points="407.95,-221.81 397.4,-222.83 406.28,-228.61 407.95,-221.81"/>
</g>
<!-- Node10&#45;&gt;Node14 -->
<g id="edge33" class="edge">
<title>Node10&#45;&gt;Node14</title>
<path fill="none" stroke="midnightblue" d="M407.62,-214.73C435.91,-213.35 476.01,-211.39 509.98,-209.73"/>
<polygon fill="midnightblue" stroke="midnightblue" points="407.22,-211.25 397.4,-215.23 407.56,-218.24 407.22,-211.25"/>
</g>
</g>
</svg>
