<?xml version="1.0" encoding="UTF-8" standalone="no"?>
<!DOCTYPE svg PUBLIC "-//W3C//DTD SVG 1.1//EN"
 "http://www.w3.org/Graphics/SVG/1.1/DTD/svg11.dtd">
<!-- Generated by graphviz version 2.43.0 (0)
 -->
<!-- Title: net/socket/ip/tcp/ipv6/legacy/SocketClient.h Pages: 1 -->
<svg width="745pt" height="542pt"
 viewBox="0.00 0.00 745.00 542.00" xmlns="http://www.w3.org/2000/svg" xmlns:xlink="http://www.w3.org/1999/xlink">
<g id="graph0" class="graph" transform="scale(1 1) rotate(0) translate(4 538)">
<title>net/socket/ip/tcp/ipv6/legacy/SocketClient.h</title>
<polygon fill="white" stroke="transparent" points="-4,4 -4,-538 741,-538 741,4 -4,4"/>
<!-- Node1 -->
<g id="node1" class="node">
<title>Node1</title>
<g id="a_node1"><a xlink:title=" ">
<polygon fill="#bfbfbf" stroke="black" points="114.5,-503.5 114.5,-533.5 230.5,-533.5 230.5,-503.5 114.5,-503.5"/>
<text text-anchor="start" x="122.5" y="-521.5" font-family="Helvetica,sans-Serif" font-size="10.00">net/socket/ip/tcp/ipv6</text>
<text text-anchor="middle" x="172.5" y="-510.5" font-family="Helvetica,sans-Serif" font-size="10.00">/legacy/SocketClient.h</text>
</a>
</g>
</g>
<!-- Node2 -->
<g id="node2" class="node">
<title>Node2</title>
<g id="a_node2"><a xlink:href="ip_2tcp_2_socket_client_8h.html" target="_top" xlink:title=" ">
<polygon fill="white" stroke="black" points="4.5,-442 4.5,-461 144.5,-461 144.5,-442 4.5,-442"/>
<text text-anchor="middle" x="74.5" y="-449" font-family="Helvetica,sans-Serif" font-size="10.00">socket/ip/tcp/SocketClient.h</text>
</a>
</g>
</g>
<!-- Node1&#45;&gt;Node2 -->
<g id="edge1" class="edge">
<title>Node1&#45;&gt;Node2</title>
<path fill="none" stroke="midnightblue" d="M151.24,-503.4C134.8,-492.5 112.16,-477.48 95.73,-466.58"/>
<polygon fill="midnightblue" stroke="midnightblue" points="97.59,-463.62 87.33,-461.01 93.72,-469.45 97.59,-463.62"/>
</g>
<!-- Node3 -->
<g id="node3" class="node">
<title>Node3</title>
<g id="a_node3"><a xlink:href="ip_2tcp_2ipv6_2_socket_8h.html" target="_top" xlink:title=" ">
<polygon fill="white" stroke="black" points="109.5,-302.5 109.5,-332.5 203.5,-332.5 203.5,-302.5 109.5,-302.5"/>
<text text-anchor="start" x="117.5" y="-320.5" font-family="Helvetica,sans-Serif" font-size="10.00">socket/ip/tcp/ipv6</text>
<text text-anchor="middle" x="156.5" y="-309.5" font-family="Helvetica,sans-Serif" font-size="10.00">/Socket.h</text>
</a>
</g>
</g>
<!-- Node1&#45;&gt;Node3 -->
<g id="edge2" class="edge">
<title>Node1&#45;&gt;Node3</title>
<path fill="none" stroke="midnightblue" d="M171.35,-503.19C168.64,-469.48 161.83,-384.8 158.46,-342.84"/>
<polygon fill="midnightblue" stroke="midnightblue" points="161.93,-342.37 157.64,-332.68 154.95,-342.93 161.93,-342.37"/>
</g>
<!-- Node8 -->
<g id="node8" class="node">
<title>Node8</title>
<g id="a_node8"><a xlink:href="sock__stream_2legacy_2_socket_client_8h.html" target="_top" xlink:title=" ">
<polygon fill="white" stroke="black" points="214.5,-436.5 214.5,-466.5 330.5,-466.5 330.5,-436.5 214.5,-436.5"/>
<text text-anchor="start" x="222.5" y="-454.5" font-family="Helvetica,sans-Serif" font-size="10.00">socket/sock_stream</text>
<text text-anchor="middle" x="272.5" y="-443.5" font-family="Helvetica,sans-Serif" font-size="10.00">/legacy/SocketClient.h</text>
</a>
</g>
</g>
<!-- Node1&#45;&gt;Node8 -->
<g id="edge9" class="edge">
<title>Node1&#45;&gt;Node8</title>
<path fill="none" stroke="midnightblue" d="M194.2,-503.4C208.22,-494.28 226.67,-482.29 242.14,-472.24"/>
<polygon fill="midnightblue" stroke="midnightblue" points="244.37,-474.96 250.84,-466.58 240.55,-469.09 244.37,-474.96"/>
</g>
<!-- Node4 -->
<g id="node4" class="node">
<title>Node4</title>
<g id="a_node4"><a xlink:href="_descriptor_8h.html" target="_top" xlink:title=" ">
<polygon fill="white" stroke="black" points="160,-174 160,-193 229,-193 229,-174 160,-174"/>
<text text-anchor="middle" x="194.5" y="-181" font-family="Helvetica,sans-Serif" font-size="10.00">Descriptor.h</text>
</a>
</g>
</g>
<!-- Node3&#45;&gt;Node4 -->
<g id="edge3" class="edge">
<title>Node3&#45;&gt;Node4</title>
<path fill="none" stroke="midnightblue" d="M155.49,-302.25C154.77,-285.66 155.02,-257.63 162.5,-235 166.55,-222.75 174.21,-210.49 181.02,-201.12"/>
<polygon fill="midnightblue" stroke="midnightblue" points="183.85,-203.19 187.14,-193.12 178.29,-198.93 183.85,-203.19"/>
</g>
<!-- Node5 -->
<g id="node5" class="node">
<title>Node5</title>
<g id="a_node5"><a xlink:href="_socket_8h.html" target="_top" xlink:title=" ">
<polygon fill="white" stroke="black" points="171.5,-241 171.5,-260 259.5,-260 259.5,-241 171.5,-241"/>
<text text-anchor="middle" x="215.5" y="-248" font-family="Helvetica,sans-Serif" font-size="10.00">socket/Socket.h</text>
</a>
</g>
</g>
<!-- Node3&#45;&gt;Node5 -->
<g id="edge4" class="edge">
<title>Node3&#45;&gt;Node5</title>
<path fill="none" stroke="midnightblue" d="M169.3,-302.4C178.59,-292.16 191.18,-278.3 200.87,-267.62"/>
<polygon fill="midnightblue" stroke="midnightblue" points="203.48,-269.95 207.61,-260.19 198.3,-265.25 203.48,-269.95"/>
</g>
<!-- Node7 -->
<g id="node7" class="node">
<title>Node7</title>
<g id="a_node7"><a xlink:href="ipv6_2_inet_address_8h.html" target="_top" xlink:title=" ">
<polygon fill="white" stroke="black" points="0,-235.5 0,-265.5 115,-265.5 115,-235.5 0,-235.5"/>
<text text-anchor="start" x="8" y="-253.5" font-family="Helvetica,sans-Serif" font-size="10.00">socket/ip/address/ipv6</text>
<text text-anchor="middle" x="57.5" y="-242.5" font-family="Helvetica,sans-Serif" font-size="10.00">/InetAddress.h</text>
</a>
</g>
</g>
<!-- Node3&#45;&gt;Node7 -->
<g id="edge7" class="edge">
<title>Node3&#45;&gt;Node7</title>
<path fill="none" stroke="midnightblue" d="M135.02,-302.4C121.14,-293.28 102.87,-281.29 87.56,-271.24"/>
<polygon fill="midnightblue" stroke="midnightblue" points="89.22,-268.14 78.94,-265.58 85.38,-273.99 89.22,-268.14"/>
</g>
<!-- Node5&#45;&gt;Node4 -->
<g id="edge5" class="edge">
<title>Node5&#45;&gt;Node4</title>
<path fill="none" stroke="midnightblue" d="M212.67,-240.73C209.55,-231.09 204.45,-215.3 200.45,-202.91"/>
<polygon fill="midnightblue" stroke="midnightblue" points="203.69,-201.57 197.29,-193.13 197.03,-203.72 203.69,-201.57"/>
</g>
<!-- Node6 -->
<g id="node6" class="node">
<title>Node6</title>
<g id="a_node6"><a xlink:href="_socket_address_8h.html" target="_top" xlink:title=" ">
<polygon fill="white" stroke="black" points="6.5,-174 6.5,-193 130.5,-193 130.5,-174 6.5,-174"/>
<text text-anchor="middle" x="68.5" y="-181" font-family="Helvetica,sans-Serif" font-size="10.00">socket/SocketAddress.h</text>
</a>
</g>
</g>
<!-- Node5&#45;&gt;Node6 -->
<g id="edge6" class="edge">
<title>Node5&#45;&gt;Node6</title>
<path fill="none" stroke="midnightblue" d="M195.98,-240.87C170.72,-229.7 126.5,-210.15 97.36,-197.26"/>
<polygon fill="midnightblue" stroke="midnightblue" points="98.66,-194.01 88.1,-193.17 95.83,-200.41 98.66,-194.01"/>
</g>
<!-- Node7&#45;&gt;Node6 -->
<g id="edge8" class="edge">
<title>Node7&#45;&gt;Node6</title>
<path fill="none" stroke="midnightblue" d="M59.89,-235.4C61.48,-225.96 63.6,-213.45 65.34,-203.19"/>
<polygon fill="midnightblue" stroke="midnightblue" points="68.81,-203.64 67.03,-193.19 61.91,-202.47 68.81,-203.64"/>
</g>
<!-- Node9 -->
<g id="node9" class="node">
<title>Node9</title>
<g id="a_node9"><a xlink:href="legacy_2_socket_connector_8h.html" target="_top" xlink:title=" ">
<polygon fill="white" stroke="black" points="343.5,-375 343.5,-394 443.5,-394 443.5,-375 343.5,-375"/>
<text text-anchor="middle" x="393.5" y="-382" font-family="Helvetica,sans-Serif" font-size="10.00">SocketConnector.h</text>
</a>
</g>
</g>
<!-- Node8&#45;&gt;Node9 -->
<g id="edge10" class="edge">
<title>Node8&#45;&gt;Node9</title>
<path fill="none" stroke="midnightblue" d="M298.76,-436.4C319.52,-425.24 348.3,-409.78 368.68,-398.83"/>
<polygon fill="midnightblue" stroke="midnightblue" points="370.51,-401.82 377.66,-394.01 367.2,-395.66 370.51,-401.82"/>
</g>
<!-- Node26 -->
<g id="node26" class="node">
<title>Node26</title>
<g id="a_node26"><a xlink:href="sock__stream_2_socket_client_8h.html" target="_top" xlink:title=" ">
<polygon fill="white" stroke="black" points="220,-369.5 220,-399.5 325,-399.5 325,-369.5 220,-369.5"/>
<text text-anchor="start" x="228" y="-387.5" font-family="Helvetica,sans-Serif" font-size="10.00">socket/sock_stream</text>
<text text-anchor="middle" x="272.5" y="-376.5" font-family="Helvetica,sans-Serif" font-size="10.00">/SocketClient.h</text>
</a>
</g>
</g>
<!-- Node8&#45;&gt;Node26 -->
<g id="edge32" class="edge">
<title>Node8&#45;&gt;Node26</title>
<path fill="none" stroke="midnightblue" d="M272.5,-436.4C272.5,-428.64 272.5,-418.81 272.5,-409.86"/>
<polygon fill="midnightblue" stroke="midnightblue" points="276,-409.58 272.5,-399.58 269,-409.58 276,-409.58"/>
</g>
<!-- Node10 -->
<g id="node10" class="node">
<title>Node10</title>
<g id="a_node10"><a xlink:href="legacy_2_socket_connection_8h.html" target="_top" xlink:title=" ">
<polygon fill="white" stroke="black" points="428,-308 428,-327 533,-327 533,-308 428,-308"/>
<text text-anchor="middle" x="480.5" y="-315" font-family="Helvetica,sans-Serif" font-size="10.00">SocketConnection.h</text>
</a>
</g>
</g>
<!-- Node9&#45;&gt;Node10 -->
<g id="edge11" class="edge">
<title>Node9&#45;&gt;Node10</title>
<path fill="none" stroke="midnightblue" d="M405.23,-374.73C419.45,-364.11 443.63,-346.05 460.74,-333.26"/>
<polygon fill="midnightblue" stroke="midnightblue" points="463.04,-335.92 468.95,-327.13 458.85,-330.31 463.04,-335.92"/>
</g>
<!-- Node24 -->
<g id="node24" class="node">
<title>Node24</title>
<g id="a_node24"><a xlink:href="_socket_connector_8h.html" target="_top" xlink:title=" ">
<polygon fill="white" stroke="black" points="235,-302.5 235,-332.5 340,-332.5 340,-302.5 235,-302.5"/>
<text text-anchor="start" x="243" y="-320.5" font-family="Helvetica,sans-Serif" font-size="10.00">socket/sock_stream</text>
<text text-anchor="middle" x="287.5" y="-309.5" font-family="Helvetica,sans-Serif" font-size="10.00">/SocketConnector.h</text>
</a>
</g>
</g>
<!-- Node9&#45;&gt;Node24 -->
<g id="edge27" class="edge">
<title>Node9&#45;&gt;Node24</title>
<path fill="none" stroke="midnightblue" d="M379.2,-374.73C363.91,-365.36 339.18,-350.19 319.24,-337.97"/>
<polygon fill="midnightblue" stroke="midnightblue" points="320.83,-334.83 310.48,-332.59 317.17,-340.8 320.83,-334.83"/>
</g>
<!-- Node11 -->
<g id="node11" class="node">
<title>Node11</title>
<g id="a_node11"><a xlink:href="_socket_connection_8h.html" target="_top" xlink:title=" ">
<polygon fill="white" stroke="black" points="493.5,-235.5 493.5,-265.5 601.5,-265.5 601.5,-235.5 493.5,-235.5"/>
<text text-anchor="start" x="501.5" y="-253.5" font-family="Helvetica,sans-Serif" font-size="10.00">socket/sock_stream</text>
<text text-anchor="middle" x="547.5" y="-242.5" font-family="Helvetica,sans-Serif" font-size="10.00">/SocketConnection.h</text>
</a>
</g>
</g>
<!-- Node10&#45;&gt;Node11 -->
<g id="edge12" class="edge">
<title>Node10&#45;&gt;Node11</title>
<path fill="none" stroke="midnightblue" d="M489.54,-307.73C498.76,-298.78 513.44,-284.54 525.72,-272.63"/>
<polygon fill="midnightblue" stroke="midnightblue" points="528.24,-275.06 532.98,-265.59 523.36,-270.04 528.24,-275.06"/>
</g>
<!-- Node14 -->
<g id="node14" class="node">
<title>Node14</title>
<g id="a_node14"><a xlink:href="legacy_2_socket_reader_8h.html" target="_top" xlink:title=" ">
<polygon fill="white" stroke="black" points="354,-235.5 354,-265.5 475,-265.5 475,-235.5 354,-235.5"/>
<text text-anchor="start" x="362" y="-253.5" font-family="Helvetica,sans-Serif" font-size="10.00">socket/sock_stream</text>
<text text-anchor="middle" x="414.5" y="-242.5" font-family="Helvetica,sans-Serif" font-size="10.00">/legacy/SocketReader.h</text>
</a>
</g>
</g>
<!-- Node10&#45;&gt;Node14 -->
<g id="edge15" class="edge">
<title>Node10&#45;&gt;Node14</title>
<path fill="none" stroke="midnightblue" d="M471.6,-307.73C462.51,-298.78 448.05,-284.54 435.96,-272.63"/>
<polygon fill="midnightblue" stroke="midnightblue" points="438.39,-270.11 428.81,-265.59 433.47,-275.1 438.39,-270.11"/>
</g>
<!-- Node20 -->
<g id="node20" class="node">
<title>Node20</title>
<g id="a_node20"><a xlink:href="legacy_2_socket_writer_8h.html" target="_top" xlink:title=" ">
<polygon fill="white" stroke="black" points="622,-235.5 622,-265.5 737,-265.5 737,-235.5 622,-235.5"/>
<text text-anchor="start" x="630" y="-253.5" font-family="Helvetica,sans-Serif" font-size="10.00">socket/sock_stream</text>
<text text-anchor="middle" x="679.5" y="-242.5" font-family="Helvetica,sans-Serif" font-size="10.00">/legacy/SocketWriter.h</text>
</a>
</g>
</g>
<!-- Node10&#45;&gt;Node20 -->
<g id="edge21" class="edge">
<title>Node10&#45;&gt;Node20</title>
<path fill="none" stroke="midnightblue" d="M506.93,-307.87C537.43,-297.9 588.37,-281.27 627.01,-268.64"/>
<polygon fill="midnightblue" stroke="midnightblue" points="628.13,-271.96 636.55,-265.53 625.96,-265.31 628.13,-271.96"/>
</g>
<!-- Node12 -->
<g id="node12" class="node">
<title>Node12</title>
<g id="a_node12"><a xlink:href="_socket_connection_base_8h.html" target="_top" xlink:title=" ">
<polygon fill="white" stroke="black" points="481.5,-174 481.5,-193 609.5,-193 609.5,-174 481.5,-174"/>
<text text-anchor="middle" x="545.5" y="-181" font-family="Helvetica,sans-Serif" font-size="10.00">SocketConnectionBase.h</text>
</a>
</g>
</g>
<!-- Node11&#45;&gt;Node12 -->
<g id="edge13" class="edge">
<title>Node11&#45;&gt;Node12</title>
<path fill="none" stroke="midnightblue" d="M547.07,-235.4C546.78,-226.06 546.4,-213.71 546.09,-203.52"/>
<polygon fill="midnightblue" stroke="midnightblue" points="549.57,-203.08 545.77,-193.19 542.58,-203.3 549.57,-203.08"/>
</g>
<!-- Node13 -->
<g id="node13" class="node">
<title>Node13</title>
<g id="a_node13"><a xlink:href="_attribute_injector_8h.html" target="_top" xlink:title=" ">
<polygon fill="white" stroke="black" points="495,-112.5 495,-131.5 588,-131.5 588,-112.5 495,-112.5"/>
<text text-anchor="middle" x="541.5" y="-119.5" font-family="Helvetica,sans-Serif" font-size="10.00">AttributeInjector.h</text>
</a>
</g>
</g>
<!-- Node12&#45;&gt;Node13 -->
<g id="edge14" class="edge">
<title>Node12&#45;&gt;Node13</title>
<path fill="none" stroke="midnightblue" d="M544.93,-173.98C544.36,-165.58 543.48,-152.48 542.75,-141.66"/>
<polygon fill="midnightblue" stroke="midnightblue" points="546.24,-141.25 542.07,-131.51 539.25,-141.72 546.24,-141.25"/>
</g>
<!-- Node15 -->
<g id="node15" class="node">
<title>Node15</title>
<g id="a_node15"><a xlink:href="_socket_reader_8h.html" target="_top" xlink:title=" ">
<polygon fill="white" stroke="black" points="358,-168.5 358,-198.5 463,-198.5 463,-168.5 358,-168.5"/>
<text text-anchor="start" x="366" y="-186.5" font-family="Helvetica,sans-Serif" font-size="10.00">socket/sock_stream</text>
<text text-anchor="middle" x="410.5" y="-175.5" font-family="Helvetica,sans-Serif" font-size="10.00">/SocketReader.h</text>
</a>
</g>
</g>
<!-- Node14&#45;&gt;Node15 -->
<g id="edge16" class="edge">
<title>Node14&#45;&gt;Node15</title>
<path fill="none" stroke="midnightblue" d="M413.63,-235.4C413.15,-227.56 412.54,-217.6 411.98,-208.57"/>
<polygon fill="midnightblue" stroke="midnightblue" points="415.47,-208.34 411.37,-198.58 408.49,-208.77 415.47,-208.34"/>
</g>
<!-- Node16 -->
<g id="node16" class="node">
<title>Node16</title>
<g id="a_node16"><a xlink:href="_read_stream_8h.html" target="_top" xlink:title=" ">
<polygon fill="white" stroke="black" points="353.5,-112.5 353.5,-131.5 471.5,-131.5 471.5,-112.5 353.5,-112.5"/>
<text text-anchor="middle" x="412.5" y="-119.5" font-family="Helvetica,sans-Serif" font-size="10.00">streams/ReadStream.h</text>
</a>
</g>
</g>
<!-- Node15&#45;&gt;Node16 -->
<g id="edge17" class="edge">
<title>Node15&#45;&gt;Node16</title>
<path fill="none" stroke="midnightblue" d="M410.97,-168.4C411.24,-160.47 411.58,-150.46 411.87,-141.86"/>
<polygon fill="midnightblue" stroke="midnightblue" points="415.37,-141.77 412.21,-131.66 408.37,-141.53 415.37,-141.77"/>
</g>
<!-- Node17 -->
<g id="node17" class="node">
<title>Node17</title>
<g id="a_node17"><a xlink:href="_read_event_receiver_8h.html" target="_top" xlink:title=" ">
<polygon fill="white" stroke="black" points="291.5,-56.5 291.5,-75.5 403.5,-75.5 403.5,-56.5 291.5,-56.5"/>
<text text-anchor="middle" x="347.5" y="-63.5" font-family="Helvetica,sans-Serif" font-size="10.00">ReadEventReceiver.h</text>
</a>
</g>
</g>
<!-- Node16&#45;&gt;Node17 -->
<g id="edge18" class="edge">
<title>Node16&#45;&gt;Node17</title>
<path fill="none" stroke="midnightblue" d="M402.06,-112.32C392.35,-104.26 377.68,-92.08 366,-82.37"/>
<polygon fill="midnightblue" stroke="midnightblue" points="368.06,-79.53 358.13,-75.83 363.59,-84.92 368.06,-79.53"/>
</g>
<!-- Node19 -->
<g id="node19" class="node">
<title>Node19</title>
<g id="a_node19"><a xlink:title=" ">
<polygon fill="white" stroke="#bfbfbf" points="500,-56.5 500,-75.5 529,-75.5 529,-56.5 500,-56.5"/>
<text text-anchor="middle" x="514.5" y="-63.5" font-family="Helvetica,sans-Serif" font-size="10.00">list</text>
</a>
</g>
</g>
<!-- Node16&#45;&gt;Node19 -->
<g id="edge20" class="edge">
<title>Node16&#45;&gt;Node19</title>
<path fill="none" stroke="midnightblue" d="M428.89,-112.32C445.65,-103.45 471.87,-89.57 490.87,-79.51"/>
<polygon fill="midnightblue" stroke="midnightblue" points="492.61,-82.55 499.81,-74.78 489.33,-76.36 492.61,-82.55"/>
</g>
<!-- Node18 -->
<g id="node18" class="node">
<title>Node18</title>
<g id="a_node18"><a xlink:href="_event_receiver_8h.html" target="_top" xlink:title=" ">
<polygon fill="white" stroke="black" points="303,-0.5 303,-19.5 392,-19.5 392,-0.5 303,-0.5"/>
<text text-anchor="middle" x="347.5" y="-7.5" font-family="Helvetica,sans-Serif" font-size="10.00">EventReceiver.h</text>
</a>
</g>
</g>
<!-- Node17&#45;&gt;Node18 -->
<g id="edge19" class="edge">
<title>Node17&#45;&gt;Node18</title>
<path fill="none" stroke="midnightblue" d="M347.5,-56.08C347.5,-49.01 347.5,-38.86 347.5,-29.99"/>
<polygon fill="midnightblue" stroke="midnightblue" points="351,-29.75 347.5,-19.75 344,-29.75 351,-29.75"/>
</g>
<!-- Node21 -->
<g id="node21" class="node">
<title>Node21</title>
<g id="a_node21"><a xlink:href="_socket_writer_8h.html" target="_top" xlink:title=" ">
<polygon fill="white" stroke="black" points="628,-168.5 628,-198.5 733,-198.5 733,-168.5 628,-168.5"/>
<text text-anchor="start" x="636" y="-186.5" font-family="Helvetica,sans-Serif" font-size="10.00">socket/sock_stream</text>
<text text-anchor="middle" x="680.5" y="-175.5" font-family="Helvetica,sans-Serif" font-size="10.00">/SocketWriter.h</text>
</a>
</g>
</g>
<!-- Node20&#45;&gt;Node21 -->
<g id="edge22" class="edge">
<title>Node20&#45;&gt;Node21</title>
<path fill="none" stroke="midnightblue" d="M679.72,-235.4C679.84,-227.64 679.99,-217.81 680.13,-208.86"/>
<polygon fill="midnightblue" stroke="midnightblue" points="683.63,-208.63 680.28,-198.58 676.63,-208.52 683.63,-208.63"/>
</g>
<!-- Node22 -->
<g id="node22" class="node">
<title>Node22</title>
<g id="a_node22"><a xlink:href="_write_stream_8h.html" target="_top" xlink:title=" ">
<polygon fill="white" stroke="black" points="606,-112.5 606,-131.5 723,-131.5 723,-112.5 606,-112.5"/>
<text text-anchor="middle" x="664.5" y="-119.5" font-family="Helvetica,sans-Serif" font-size="10.00">streams/WriteStream.h</text>
</a>
</g>
</g>
<!-- Node21&#45;&gt;Node22 -->
<g id="edge23" class="edge">
<title>Node21&#45;&gt;Node22</title>
<path fill="none" stroke="midnightblue" d="M676.71,-168.4C674.55,-160.38 671.82,-150.23 669.49,-141.57"/>
<polygon fill="midnightblue" stroke="midnightblue" points="672.8,-140.41 666.83,-131.66 666.05,-142.22 672.8,-140.41"/>
</g>
<!-- Node22&#45;&gt;Node19 -->
<g id="edge26" class="edge">
<title>Node22&#45;&gt;Node19</title>
<path fill="none" stroke="midnightblue" d="M640.73,-112.44C612.77,-102.38 566.62,-85.76 538.54,-75.66"/>
<polygon fill="midnightblue" stroke="midnightblue" points="539.68,-72.34 529.09,-72.25 537.31,-78.93 539.68,-72.34"/>
</g>
<!-- Node23 -->
<g id="node23" class="node">
<title>Node23</title>
<g id="a_node23"><a xlink:href="_write_event_receiver_8h.html" target="_top" xlink:title=" ">
<polygon fill="white" stroke="black" points="586,-56.5 586,-75.5 697,-75.5 697,-56.5 586,-56.5"/>
<text text-anchor="middle" x="641.5" y="-63.5" font-family="Helvetica,sans-Serif" font-size="10.00">WriteEventReceiver.h</text>
</a>
</g>
</g>
<!-- Node22&#45;&gt;Node23 -->
<g id="edge24" class="edge">
<title>Node22&#45;&gt;Node23</title>
<path fill="none" stroke="midnightblue" d="M660.7,-112.08C657.59,-104.77 653.08,-94.18 649.21,-85.1"/>
<polygon fill="midnightblue" stroke="midnightblue" points="652.37,-83.58 645.23,-75.75 645.93,-86.32 652.37,-83.58"/>
</g>
<!-- Node23&#45;&gt;Node18 -->
<g id="edge25" class="edge">
<title>Node23&#45;&gt;Node18</title>
<path fill="none" stroke="midnightblue" d="M594.91,-56.44C542.63,-46.84 457.89,-31.28 402.42,-21.09"/>
<polygon fill="midnightblue" stroke="midnightblue" points="402.89,-17.61 392.42,-19.25 401.62,-24.5 402.89,-17.61"/>
</g>
<!-- Node24&#45;&gt;Node5 -->
<g id="edge31" class="edge">
<title>Node24&#45;&gt;Node5</title>
<path fill="none" stroke="midnightblue" d="M271.88,-302.4C260.32,-291.96 244.58,-277.75 232.67,-267"/>
<polygon fill="midnightblue" stroke="midnightblue" points="234.9,-264.3 225.13,-260.19 230.21,-269.49 234.9,-264.3"/>
</g>
<!-- Node24&#45;&gt;Node17 -->
<g id="edge30" class="edge">
<title>Node24&#45;&gt;Node17</title>
<path fill="none" stroke="midnightblue" d="M290.9,-302.37C301.09,-260 331.4,-133.96 342.95,-85.9"/>
<polygon fill="midnightblue" stroke="midnightblue" points="346.42,-86.47 345.35,-75.93 339.61,-84.83 346.42,-86.47"/>
</g>
<!-- Node25 -->
<g id="node25" class="node">
<title>Node25</title>
<g id="a_node25"><a xlink:href="_connect_event_receiver_8h.html" target="_top" xlink:title=" ">
<polygon fill="white" stroke="black" points="172,-112.5 172,-131.5 297,-131.5 297,-112.5 172,-112.5"/>
<text text-anchor="middle" x="234.5" y="-119.5" font-family="Helvetica,sans-Serif" font-size="10.00">ConnectEventReceiver.h</text>
</a>
</g>
</g>
<!-- Node24&#45;&gt;Node25 -->
<g id="edge28" class="edge">
<title>Node24&#45;&gt;Node25</title>
<path fill="none" stroke="midnightblue" d="M284.49,-302.3C280.95,-285.98 274.78,-258.44 268.5,-235 259.59,-201.75 247.59,-163.47 240.48,-141.37"/>
<polygon fill="midnightblue" stroke="midnightblue" points="243.75,-140.09 237.34,-131.66 237.09,-142.25 243.75,-140.09"/>
</g>
<!-- Node25&#45;&gt;Node18 -->
<g id="edge29" class="edge">
<title>Node25&#45;&gt;Node18</title>
<path fill="none" stroke="midnightblue" d="M239.62,-112.3C247.64,-99.13 264.17,-73.78 282.5,-56 294.79,-44.08 310.53,-33.09 323.45,-24.96"/>
<polygon fill="midnightblue" stroke="midnightblue" points="325.56,-27.77 332.26,-19.57 321.9,-21.8 325.56,-27.77"/>
</g>
<!-- Node26&#45;&gt;Node24 -->
<g id="edge33" class="edge">
<title>Node26&#45;&gt;Node24</title>
<path fill="none" stroke="midnightblue" d="M275.75,-369.4C277.56,-361.56 279.86,-351.6 281.95,-342.57"/>
<polygon fill="midnightblue" stroke="midnightblue" points="285.41,-343.11 284.25,-332.58 278.59,-341.53 285.41,-343.11"/>
</g>
</g>
</svg>
