<?xml version="1.0" encoding="UTF-8" standalone="no"?>
<!DOCTYPE svg PUBLIC "-//W3C//DTD SVG 1.1//EN"
 "http://www.w3.org/Graphics/SVG/1.1/DTD/svg11.dtd">
<!-- Generated by graphviz version 2.43.0 (0)
 -->
<!-- Title: net/socket/ip/tcp/ipv6/tls/SocketClient.h Pages: 1 -->
<svg width="1163pt" height="542pt"
 viewBox="0.00 0.00 1162.50 542.00" xmlns="http://www.w3.org/2000/svg" xmlns:xlink="http://www.w3.org/1999/xlink">
<g id="graph0" class="graph" transform="scale(1 1) rotate(0) translate(4 538)">
<title>net/socket/ip/tcp/ipv6/tls/SocketClient.h</title>
<polygon fill="white" stroke="transparent" points="-4,4 -4,-538 1158.5,-538 1158.5,4 -4,4"/>
<!-- Node1 -->
<g id="node1" class="node">
<title>Node1</title>
<g id="a_node1"><a xlink:title=" ">
<polygon fill="#bfbfbf" stroke="black" points="152.5,-503.5 152.5,-533.5 262.5,-533.5 262.5,-503.5 152.5,-503.5"/>
<text text-anchor="start" x="160.5" y="-521.5" font-family="Helvetica,sans-Serif" font-size="10.00">net/socket/ip/tcp/ipv6</text>
<text text-anchor="middle" x="207.5" y="-510.5" font-family="Helvetica,sans-Serif" font-size="10.00">/tls/SocketClient.h</text>
</a>
</g>
</g>
<!-- Node2 -->
<g id="node2" class="node">
<title>Node2</title>
<g id="a_node2"><a xlink:href="ip_2tcp_2_socket_client_8h.html" target="_top" xlink:title=" ">
<polygon fill="white" stroke="black" points="39.5,-442 39.5,-461 179.5,-461 179.5,-442 39.5,-442"/>
<text text-anchor="middle" x="109.5" y="-449" font-family="Helvetica,sans-Serif" font-size="10.00">socket/ip/tcp/SocketClient.h</text>
</a>
</g>
</g>
<!-- Node1&#45;&gt;Node2 -->
<g id="edge1" class="edge">
<title>Node1&#45;&gt;Node2</title>
<path fill="none" stroke="midnightblue" d="M186.24,-503.4C169.8,-492.5 147.16,-477.48 130.73,-466.58"/>
<polygon fill="midnightblue" stroke="midnightblue" points="132.59,-463.62 122.33,-461.01 128.72,-469.45 132.59,-463.62"/>
</g>
<!-- Node3 -->
<g id="node3" class="node">
<title>Node3</title>
<g id="a_node3"><a xlink:href="ip_2tcp_2ipv6_2_socket_8h.html" target="_top" xlink:title=" ">
<polygon fill="white" stroke="black" points="128.5,-302.5 128.5,-332.5 222.5,-332.5 222.5,-302.5 128.5,-302.5"/>
<text text-anchor="start" x="136.5" y="-320.5" font-family="Helvetica,sans-Serif" font-size="10.00">socket/ip/tcp/ipv6</text>
<text text-anchor="middle" x="175.5" y="-309.5" font-family="Helvetica,sans-Serif" font-size="10.00">/Socket.h</text>
</a>
</g>
</g>
<!-- Node1&#45;&gt;Node3 -->
<g id="edge2" class="edge">
<title>Node1&#45;&gt;Node3</title>
<path fill="none" stroke="midnightblue" d="M205.2,-503.19C199.77,-469.41 186.1,-384.44 179.37,-342.57"/>
<polygon fill="midnightblue" stroke="midnightblue" points="182.82,-342 177.78,-332.68 175.91,-343.11 182.82,-342"/>
</g>
<!-- Node8 -->
<g id="node8" class="node">
<title>Node8</title>
<g id="a_node8"><a xlink:href="sock__stream_2tls_2_socket_client_8h.html" target="_top" xlink:title=" ">
<polygon fill="white" stroke="black" points="254,-436.5 254,-466.5 359,-466.5 359,-436.5 254,-436.5"/>
<text text-anchor="start" x="262" y="-454.5" font-family="Helvetica,sans-Serif" font-size="10.00">socket/sock_stream</text>
<text text-anchor="middle" x="306.5" y="-443.5" font-family="Helvetica,sans-Serif" font-size="10.00">/tls/SocketClient.h</text>
</a>
</g>
</g>
<!-- Node1&#45;&gt;Node8 -->
<g id="edge9" class="edge">
<title>Node1&#45;&gt;Node8</title>
<path fill="none" stroke="midnightblue" d="M228.98,-503.4C242.86,-494.28 261.13,-482.29 276.44,-472.24"/>
<polygon fill="midnightblue" stroke="midnightblue" points="278.62,-474.99 285.06,-466.58 274.78,-469.14 278.62,-474.99"/>
</g>
<!-- Node4 -->
<g id="node4" class="node">
<title>Node4</title>
<g id="a_node4"><a xlink:href="_descriptor_8h.html" target="_top" xlink:title=" ">
<polygon fill="white" stroke="black" points="354,-174 354,-193 423,-193 423,-174 354,-174"/>
<text text-anchor="middle" x="388.5" y="-181" font-family="Helvetica,sans-Serif" font-size="10.00">Descriptor.h</text>
</a>
</g>
</g>
<!-- Node3&#45;&gt;Node4 -->
<g id="edge3" class="edge">
<title>Node3&#45;&gt;Node4</title>
<path fill="none" stroke="midnightblue" d="M167.4,-302.45C158.39,-284.76 147,-254.34 162.5,-235 184.73,-207.25 284.13,-193.74 343.45,-188.04"/>
<polygon fill="midnightblue" stroke="midnightblue" points="344.04,-191.5 353.68,-187.09 343.4,-184.53 344.04,-191.5"/>
</g>
<!-- Node5 -->
<g id="node5" class="node">
<title>Node5</title>
<g id="a_node5"><a xlink:href="_socket_8h.html" target="_top" xlink:title=" ">
<polygon fill="white" stroke="black" points="171.5,-241 171.5,-260 259.5,-260 259.5,-241 171.5,-241"/>
<text text-anchor="middle" x="215.5" y="-248" font-family="Helvetica,sans-Serif" font-size="10.00">socket/Socket.h</text>
</a>
</g>
</g>
<!-- Node3&#45;&gt;Node5 -->
<g id="edge4" class="edge">
<title>Node3&#45;&gt;Node5</title>
<path fill="none" stroke="midnightblue" d="M184.18,-302.4C190.23,-292.56 198.34,-279.38 204.8,-268.89"/>
<polygon fill="midnightblue" stroke="midnightblue" points="207.89,-270.55 210.15,-260.19 201.93,-266.88 207.89,-270.55"/>
</g>
<!-- Node7 -->
<g id="node7" class="node">
<title>Node7</title>
<g id="a_node7"><a xlink:href="ipv6_2_inet_address_8h.html" target="_top" xlink:title=" ">
<polygon fill="white" stroke="black" points="0,-235.5 0,-265.5 115,-265.5 115,-235.5 0,-235.5"/>
<text text-anchor="start" x="8" y="-253.5" font-family="Helvetica,sans-Serif" font-size="10.00">socket/ip/address/ipv6</text>
<text text-anchor="middle" x="57.5" y="-242.5" font-family="Helvetica,sans-Serif" font-size="10.00">/InetAddress.h</text>
</a>
</g>
</g>
<!-- Node3&#45;&gt;Node7 -->
<g id="edge7" class="edge">
<title>Node3&#45;&gt;Node7</title>
<path fill="none" stroke="midnightblue" d="M149.9,-302.4C132.96,-293.07 110.56,-280.73 92.05,-270.53"/>
<polygon fill="midnightblue" stroke="midnightblue" points="93.5,-267.34 83.05,-265.58 90.12,-273.47 93.5,-267.34"/>
</g>
<!-- Node5&#45;&gt;Node4 -->
<g id="edge5" class="edge">
<title>Node5&#45;&gt;Node4</title>
<path fill="none" stroke="midnightblue" d="M238.47,-240.87C268.67,-229.52 321.9,-209.52 356.16,-196.65"/>
<polygon fill="midnightblue" stroke="midnightblue" points="357.58,-199.86 365.71,-193.06 355.12,-193.3 357.58,-199.86"/>
</g>
<!-- Node6 -->
<g id="node6" class="node">
<title>Node6</title>
<g id="a_node6"><a xlink:href="_socket_address_8h.html" target="_top" xlink:title=" ">
<polygon fill="white" stroke="black" points="65.5,-174 65.5,-193 189.5,-193 189.5,-174 65.5,-174"/>
<text text-anchor="middle" x="127.5" y="-181" font-family="Helvetica,sans-Serif" font-size="10.00">socket/SocketAddress.h</text>
</a>
</g>
</g>
<!-- Node5&#45;&gt;Node6 -->
<g id="edge6" class="edge">
<title>Node5&#45;&gt;Node6</title>
<path fill="none" stroke="midnightblue" d="M203.63,-240.73C189.25,-230.11 164.8,-212.05 147.49,-199.26"/>
<polygon fill="midnightblue" stroke="midnightblue" points="149.3,-196.25 139.18,-193.13 145.14,-201.88 149.3,-196.25"/>
</g>
<!-- Node7&#45;&gt;Node6 -->
<g id="edge8" class="edge">
<title>Node7&#45;&gt;Node6</title>
<path fill="none" stroke="midnightblue" d="M72.69,-235.4C83.82,-225.06 98.94,-211.02 110.47,-200.31"/>
<polygon fill="midnightblue" stroke="midnightblue" points="113.19,-202.56 118.14,-193.19 108.43,-197.43 113.19,-202.56"/>
</g>
<!-- Node9 -->
<g id="node9" class="node">
<title>Node9</title>
<g id="a_node9"><a xlink:href="tls_2_socket_connector_8h.html" target="_top" xlink:title=" ">
<polygon fill="white" stroke="black" points="578.5,-375 578.5,-394 678.5,-394 678.5,-375 578.5,-375"/>
<text text-anchor="middle" x="628.5" y="-382" font-family="Helvetica,sans-Serif" font-size="10.00">SocketConnector.h</text>
</a>
</g>
</g>
<!-- Node8&#45;&gt;Node9 -->
<g id="edge10" class="edge">
<title>Node8&#45;&gt;Node9</title>
<path fill="none" stroke="midnightblue" d="M359.31,-439.84C419.19,-427.75 516.22,-408.17 575.97,-396.1"/>
<polygon fill="midnightblue" stroke="midnightblue" points="576.85,-399.5 585.96,-394.09 575.46,-392.64 576.85,-399.5"/>
</g>
<!-- Node29 -->
<g id="node29" class="node">
<title>Node29</title>
<g id="a_node29"><a xlink:href="sock__stream_2_socket_client_8h.html" target="_top" xlink:title=" ">
<polygon fill="white" stroke="black" points="254,-369.5 254,-399.5 359,-399.5 359,-369.5 254,-369.5"/>
<text text-anchor="start" x="262" y="-387.5" font-family="Helvetica,sans-Serif" font-size="10.00">socket/sock_stream</text>
<text text-anchor="middle" x="306.5" y="-376.5" font-family="Helvetica,sans-Serif" font-size="10.00">/SocketClient.h</text>
</a>
</g>
</g>
<!-- Node8&#45;&gt;Node29 -->
<g id="edge47" class="edge">
<title>Node8&#45;&gt;Node29</title>
<path fill="none" stroke="midnightblue" d="M306.5,-436.4C306.5,-428.64 306.5,-418.81 306.5,-409.86"/>
<polygon fill="midnightblue" stroke="midnightblue" points="310,-409.58 306.5,-399.58 303,-409.58 310,-409.58"/>
</g>
<!-- Node10 -->
<g id="node10" class="node">
<title>Node10</title>
<g id="a_node10"><a xlink:href="_logger_8h.html" target="_top" xlink:title=" ">
<polygon fill="white" stroke="black" points="714,-174 714,-193 767,-193 767,-174 714,-174"/>
<text text-anchor="middle" x="740.5" y="-181" font-family="Helvetica,sans-Serif" font-size="10.00">Logger.h</text>
</a>
</g>
</g>
<!-- Node9&#45;&gt;Node10 -->
<g id="edge11" class="edge">
<title>Node9&#45;&gt;Node10</title>
<path fill="none" stroke="midnightblue" d="M633.31,-374.95C650.25,-344.85 707.37,-243.37 730.57,-202.14"/>
<polygon fill="midnightblue" stroke="midnightblue" points="733.72,-203.67 735.58,-193.24 727.62,-200.24 733.72,-203.67"/>
</g>
<!-- Node11 -->
<g id="node11" class="node">
<title>Node11</title>
<g id="a_node11"><a xlink:href="tls_2_socket_connection_8h.html" target="_top" xlink:title=" ">
<polygon fill="white" stroke="black" points="738,-308 738,-327 843,-327 843,-308 738,-308"/>
<text text-anchor="middle" x="790.5" y="-315" font-family="Helvetica,sans-Serif" font-size="10.00">SocketConnection.h</text>
</a>
</g>
</g>
<!-- Node9&#45;&gt;Node11 -->
<g id="edge12" class="edge">
<title>Node9&#45;&gt;Node11</title>
<path fill="none" stroke="midnightblue" d="M650.01,-374.87C678.17,-363.57 727.7,-343.7 759.8,-330.82"/>
<polygon fill="midnightblue" stroke="midnightblue" points="761.18,-334.04 769.16,-327.06 758.57,-327.54 761.18,-334.04"/>
</g>
<!-- Node16 -->
<g id="node16" class="node">
<title>Node16</title>
<g id="a_node16"><a xlink:href="_t_l_s_handshake_8h.html" target="_top" xlink:title=" ">
<polygon fill="white" stroke="black" points="603.5,-174 603.5,-193 695.5,-193 695.5,-174 603.5,-174"/>
<text text-anchor="middle" x="649.5" y="-181" font-family="Helvetica,sans-Serif" font-size="10.00">TLSHandshake.h</text>
</a>
</g>
</g>
<!-- Node9&#45;&gt;Node16 -->
<g id="edge40" class="edge">
<title>Node9&#45;&gt;Node16</title>
<path fill="none" stroke="midnightblue" d="M619.56,-374.8C596.61,-351.37 539.37,-285.37 567.5,-235 577.34,-217.39 596.12,-205.16 613.22,-197.15"/>
<polygon fill="midnightblue" stroke="midnightblue" points="614.71,-200.32 622.49,-193.13 611.92,-193.9 614.71,-200.32"/>
</g>
<!-- Node23 -->
<g id="node23" class="node">
<title>Node23</title>
<g id="a_node23"><a xlink:href="ssl__utils_8h.html" target="_top" xlink:title=" ">
<polygon fill="white" stroke="black" points="947,-174 947,-193 1008,-193 1008,-174 947,-174"/>
<text text-anchor="middle" x="977.5" y="-181" font-family="Helvetica,sans-Serif" font-size="10.00">ssl_utils.h</text>
</a>
</g>
</g>
<!-- Node9&#45;&gt;Node23 -->
<g id="edge46" class="edge">
<title>Node9&#45;&gt;Node23</title>
<path fill="none" stroke="midnightblue" d="M677.59,-374.97C766.25,-358.36 946.85,-318.68 978.5,-266 989.92,-247 986.99,-220.73 982.99,-203.2"/>
<polygon fill="midnightblue" stroke="midnightblue" points="986.27,-201.9 980.35,-193.11 979.5,-203.67 986.27,-201.9"/>
</g>
<!-- Node27 -->
<g id="node27" class="node">
<title>Node27</title>
<g id="a_node27"><a xlink:href="_socket_connector_8h.html" target="_top" xlink:title=" ">
<polygon fill="white" stroke="black" points="254,-302.5 254,-332.5 359,-332.5 359,-302.5 254,-302.5"/>
<text text-anchor="start" x="262" y="-320.5" font-family="Helvetica,sans-Serif" font-size="10.00">socket/sock_stream</text>
<text text-anchor="middle" x="306.5" y="-309.5" font-family="Helvetica,sans-Serif" font-size="10.00">/SocketConnector.h</text>
</a>
</g>
</g>
<!-- Node9&#45;&gt;Node27 -->
<g id="edge41" class="edge">
<title>Node9&#45;&gt;Node27</title>
<path fill="none" stroke="midnightblue" d="M586.07,-374.94C530.63,-363.74 433.1,-344.06 369.15,-331.15"/>
<polygon fill="midnightblue" stroke="midnightblue" points="369.68,-327.68 359.18,-329.13 368.29,-334.54 369.68,-327.68"/>
</g>
<!-- Node12 -->
<g id="node12" class="node">
<title>Node12</title>
<g id="a_node12"><a xlink:href="_socket_connection_8h.html" target="_top" xlink:title=" ">
<polygon fill="white" stroke="black" points="861.5,-235.5 861.5,-265.5 969.5,-265.5 969.5,-235.5 861.5,-235.5"/>
<text text-anchor="start" x="869.5" y="-253.5" font-family="Helvetica,sans-Serif" font-size="10.00">socket/sock_stream</text>
<text text-anchor="middle" x="915.5" y="-242.5" font-family="Helvetica,sans-Serif" font-size="10.00">/SocketConnection.h</text>
</a>
</g>
</g>
<!-- Node11&#45;&gt;Node12 -->
<g id="edge13" class="edge">
<title>Node11&#45;&gt;Node12</title>
<path fill="none" stroke="midnightblue" d="M807.1,-307.87C825.39,-298.36 855.37,-282.77 879.18,-270.39"/>
<polygon fill="midnightblue" stroke="midnightblue" points="881.03,-273.37 888.29,-265.65 877.8,-267.16 881.03,-273.37"/>
</g>
<!-- Node15 -->
<g id="node15" class="node">
<title>Node15</title>
<g id="a_node15"><a xlink:href="tls_2_socket_reader_8h.html" target="_top" xlink:title=" ">
<polygon fill="white" stroke="black" points="738,-235.5 738,-265.5 843,-265.5 843,-235.5 738,-235.5"/>
<text text-anchor="start" x="746" y="-253.5" font-family="Helvetica,sans-Serif" font-size="10.00">socket/sock_stream</text>
<text text-anchor="middle" x="790.5" y="-242.5" font-family="Helvetica,sans-Serif" font-size="10.00">/tls/SocketReader.h</text>
</a>
</g>
</g>
<!-- Node11&#45;&gt;Node15 -->
<g id="edge16" class="edge">
<title>Node11&#45;&gt;Node15</title>
<path fill="none" stroke="midnightblue" d="M790.5,-307.73C790.5,-299.54 790.5,-286.92 790.5,-275.71"/>
<polygon fill="midnightblue" stroke="midnightblue" points="794,-275.59 790.5,-265.59 787,-275.59 794,-275.59"/>
</g>
<!-- Node24 -->
<g id="node24" class="node">
<title>Node24</title>
<g id="a_node24"><a xlink:href="tls_2_socket_writer_8h.html" target="_top" xlink:title=" ">
<polygon fill="white" stroke="black" points="576,-235.5 576,-265.5 681,-265.5 681,-235.5 576,-235.5"/>
<text text-anchor="start" x="584" y="-253.5" font-family="Helvetica,sans-Serif" font-size="10.00">socket/sock_stream</text>
<text text-anchor="middle" x="628.5" y="-242.5" font-family="Helvetica,sans-Serif" font-size="10.00">/tls/SocketWriter.h</text>
</a>
</g>
</g>
<!-- Node11&#45;&gt;Node24 -->
<g id="edge30" class="edge">
<title>Node11&#45;&gt;Node24</title>
<path fill="none" stroke="midnightblue" d="M768.99,-307.87C744.57,-298.07 704.09,-281.83 672.84,-269.29"/>
<polygon fill="midnightblue" stroke="midnightblue" points="674.05,-266 663.46,-265.53 671.44,-272.5 674.05,-266"/>
</g>
<!-- Node13 -->
<g id="node13" class="node">
<title>Node13</title>
<g id="a_node13"><a xlink:href="_socket_connection_base_8h.html" target="_top" xlink:title=" ">
<polygon fill="white" stroke="black" points="1026.5,-174 1026.5,-193 1154.5,-193 1154.5,-174 1026.5,-174"/>
<text text-anchor="middle" x="1090.5" y="-181" font-family="Helvetica,sans-Serif" font-size="10.00">SocketConnectionBase.h</text>
</a>
</g>
</g>
<!-- Node12&#45;&gt;Node13 -->
<g id="edge14" class="edge">
<title>Node12&#45;&gt;Node13</title>
<path fill="none" stroke="midnightblue" d="M953.47,-235.4C984.72,-223.79 1028.54,-207.51 1058.14,-196.52"/>
<polygon fill="midnightblue" stroke="midnightblue" points="1059.44,-199.77 1067.6,-193.01 1057,-193.21 1059.44,-199.77"/>
</g>
<!-- Node14 -->
<g id="node14" class="node">
<title>Node14</title>
<g id="a_node14"><a xlink:href="_attribute_injector_8h.html" target="_top" xlink:title=" ">
<polygon fill="white" stroke="black" points="1044,-112.5 1044,-131.5 1137,-131.5 1137,-112.5 1044,-112.5"/>
<text text-anchor="middle" x="1090.5" y="-119.5" font-family="Helvetica,sans-Serif" font-size="10.00">AttributeInjector.h</text>
</a>
</g>
</g>
<!-- Node13&#45;&gt;Node14 -->
<g id="edge15" class="edge">
<title>Node13&#45;&gt;Node14</title>
<path fill="none" stroke="midnightblue" d="M1090.5,-173.98C1090.5,-165.58 1090.5,-152.48 1090.5,-141.66"/>
<polygon fill="midnightblue" stroke="midnightblue" points="1094,-141.51 1090.5,-131.51 1087,-141.51 1094,-141.51"/>
</g>
<!-- Node15&#45;&gt;Node4 -->
<g id="edge17" class="edge">
<title>Node15&#45;&gt;Node4</title>
<path fill="none" stroke="midnightblue" d="M737.96,-241.45C674.7,-231.69 565.25,-214.61 471.5,-199 459.1,-196.94 445.67,-194.62 433.3,-192.46"/>
<polygon fill="midnightblue" stroke="midnightblue" points="433.66,-188.97 423.21,-190.69 432.45,-195.87 433.66,-188.97"/>
</g>
<!-- Node15&#45;&gt;Node10 -->
<g id="edge18" class="edge">
<title>Node15&#45;&gt;Node10</title>
<path fill="none" stroke="midnightblue" d="M779.65,-235.4C771.93,-225.36 761.53,-211.84 753.39,-201.25"/>
<polygon fill="midnightblue" stroke="midnightblue" points="756.06,-198.99 747.19,-193.19 750.51,-203.25 756.06,-198.99"/>
</g>
<!-- Node15&#45;&gt;Node16 -->
<g id="edge19" class="edge">
<title>Node15&#45;&gt;Node16</title>
<path fill="none" stroke="midnightblue" d="M759.91,-235.4C735.27,-224.04 700.95,-208.22 677.14,-197.24"/>
<polygon fill="midnightblue" stroke="midnightblue" points="678.5,-194.02 667.95,-193.01 675.57,-200.37 678.5,-194.02"/>
</g>
<!-- Node19 -->
<g id="node19" class="node">
<title>Node19</title>
<g id="a_node19"><a xlink:href="_write_event_receiver_8h.html" target="_top" xlink:title=" ">
<polygon fill="white" stroke="black" points="700,-56.5 700,-75.5 811,-75.5 811,-56.5 700,-56.5"/>
<text text-anchor="middle" x="755.5" y="-63.5" font-family="Helvetica,sans-Serif" font-size="10.00">WriteEventReceiver.h</text>
</a>
</g>
</g>
<!-- Node15&#45;&gt;Node19 -->
<g id="edge24" class="edge">
<title>Node15&#45;&gt;Node19</title>
<path fill="none" stroke="midnightblue" d="M843.23,-238.23C864.49,-230.81 886.93,-218.68 899.5,-199 906.92,-187.39 905.86,-180.22 899.5,-168 876.32,-123.43 823.45,-94.43 788.64,-79.4"/>
<polygon fill="midnightblue" stroke="midnightblue" points="789.91,-76.14 779.33,-75.53 787.22,-82.6 789.91,-76.14"/>
</g>
<!-- Node20 -->
<g id="node20" class="node">
<title>Node20</title>
<g id="a_node20"><a xlink:href="_socket_reader_8h.html" target="_top" xlink:title=" ">
<polygon fill="white" stroke="black" points="785,-168.5 785,-198.5 890,-198.5 890,-168.5 785,-168.5"/>
<text text-anchor="start" x="793" y="-186.5" font-family="Helvetica,sans-Serif" font-size="10.00">socket/sock_stream</text>
<text text-anchor="middle" x="837.5" y="-175.5" font-family="Helvetica,sans-Serif" font-size="10.00">/SocketReader.h</text>
</a>
</g>
</g>
<!-- Node15&#45;&gt;Node20 -->
<g id="edge25" class="edge">
<title>Node15&#45;&gt;Node20</title>
<path fill="none" stroke="midnightblue" d="M800.7,-235.4C806.73,-227.05 814.52,-216.29 821.37,-206.81"/>
<polygon fill="midnightblue" stroke="midnightblue" points="824.3,-208.73 827.32,-198.58 818.63,-204.63 824.3,-208.73"/>
</g>
<!-- Node15&#45;&gt;Node23 -->
<g id="edge29" class="edge">
<title>Node15&#45;&gt;Node23</title>
<path fill="none" stroke="midnightblue" d="M831.08,-235.4C864.61,-223.74 911.7,-207.37 943.33,-196.38"/>
<polygon fill="midnightblue" stroke="midnightblue" points="944.73,-199.6 953.03,-193.01 942.43,-192.98 944.73,-199.6"/>
</g>
<!-- Node17 -->
<g id="node17" class="node">
<title>Node17</title>
<g id="a_node17"><a xlink:href="_read_event_receiver_8h.html" target="_top" xlink:title=" ">
<polygon fill="white" stroke="black" points="413.5,-56.5 413.5,-75.5 525.5,-75.5 525.5,-56.5 413.5,-56.5"/>
<text text-anchor="middle" x="469.5" y="-63.5" font-family="Helvetica,sans-Serif" font-size="10.00">ReadEventReceiver.h</text>
</a>
</g>
</g>
<!-- Node16&#45;&gt;Node17 -->
<g id="edge20" class="edge">
<title>Node16&#45;&gt;Node17</title>
<path fill="none" stroke="midnightblue" d="M618.24,-173.98C582.16,-163.69 525.59,-146.02 508.5,-132 493.44,-119.64 482.75,-99.83 476.42,-85.33"/>
<polygon fill="midnightblue" stroke="midnightblue" points="479.59,-83.83 472.58,-75.89 473.1,-86.47 479.59,-83.83"/>
</g>
<!-- Node16&#45;&gt;Node19 -->
<g id="edge22" class="edge">
<title>Node16&#45;&gt;Node19</title>
<path fill="none" stroke="midnightblue" d="M684.03,-173.92C718.92,-164.47 769.23,-148.43 780.5,-132 790.71,-117.12 780.51,-97.49 770.23,-83.71"/>
<polygon fill="midnightblue" stroke="midnightblue" points="772.69,-81.18 763.68,-75.61 767.25,-85.58 772.69,-81.18"/>
</g>
<!-- Node18 -->
<g id="node18" class="node">
<title>Node18</title>
<g id="a_node18"><a xlink:href="_event_receiver_8h.html" target="_top" xlink:title=" ">
<polygon fill="white" stroke="black" points="425,-0.5 425,-19.5 514,-19.5 514,-0.5 425,-0.5"/>
<text text-anchor="middle" x="469.5" y="-7.5" font-family="Helvetica,sans-Serif" font-size="10.00">EventReceiver.h</text>
</a>
</g>
</g>
<!-- Node17&#45;&gt;Node18 -->
<g id="edge21" class="edge">
<title>Node17&#45;&gt;Node18</title>
<path fill="none" stroke="midnightblue" d="M469.5,-56.08C469.5,-49.01 469.5,-38.86 469.5,-29.99"/>
<polygon fill="midnightblue" stroke="midnightblue" points="473,-29.75 469.5,-19.75 466,-29.75 473,-29.75"/>
</g>
<!-- Node19&#45;&gt;Node18 -->
<g id="edge23" class="edge">
<title>Node19&#45;&gt;Node18</title>
<path fill="none" stroke="midnightblue" d="M710.18,-56.44C659.72,-46.92 578.18,-31.52 524.21,-21.33"/>
<polygon fill="midnightblue" stroke="midnightblue" points="524.61,-17.84 514.13,-19.43 523.31,-24.72 524.61,-17.84"/>
</g>
<!-- Node21 -->
<g id="node21" class="node">
<title>Node21</title>
<g id="a_node21"><a xlink:href="_read_stream_8h.html" target="_top" xlink:title=" ">
<polygon fill="white" stroke="black" points="517.5,-112.5 517.5,-131.5 635.5,-131.5 635.5,-112.5 517.5,-112.5"/>
<text text-anchor="middle" x="576.5" y="-119.5" font-family="Helvetica,sans-Serif" font-size="10.00">streams/ReadStream.h</text>
</a>
</g>
</g>
<!-- Node20&#45;&gt;Node21 -->
<g id="edge26" class="edge">
<title>Node20&#45;&gt;Node21</title>
<path fill="none" stroke="midnightblue" d="M784.94,-169.96C782.08,-169.3 779.26,-168.64 776.5,-168 724.88,-156.06 665.65,-142.79 625.13,-133.77"/>
<polygon fill="midnightblue" stroke="midnightblue" points="625.77,-130.33 615.25,-131.57 624.25,-137.16 625.77,-130.33"/>
</g>
<!-- Node21&#45;&gt;Node17 -->
<g id="edge27" class="edge">
<title>Node21&#45;&gt;Node17</title>
<path fill="none" stroke="midnightblue" d="M559.31,-112.32C542.15,-103.66 515.55,-90.24 495.75,-80.25"/>
<polygon fill="midnightblue" stroke="midnightblue" points="497.15,-77.04 486.65,-75.65 494,-83.28 497.15,-77.04"/>
</g>
<!-- Node22 -->
<g id="node22" class="node">
<title>Node22</title>
<g id="a_node22"><a xlink:title=" ">
<polygon fill="white" stroke="#bfbfbf" points="607,-56.5 607,-75.5 636,-75.5 636,-56.5 607,-56.5"/>
<text text-anchor="middle" x="621.5" y="-63.5" font-family="Helvetica,sans-Serif" font-size="10.00">list</text>
</a>
</g>
</g>
<!-- Node21&#45;&gt;Node22 -->
<g id="edge28" class="edge">
<title>Node21&#45;&gt;Node22</title>
<path fill="none" stroke="midnightblue" d="M583.93,-112.08C590.35,-104.38 599.81,-93.03 607.62,-83.65"/>
<polygon fill="midnightblue" stroke="midnightblue" points="610.49,-85.67 614.21,-75.75 605.12,-81.19 610.49,-85.67"/>
</g>
<!-- Node24&#45;&gt;Node4 -->
<g id="edge31" class="edge">
<title>Node24&#45;&gt;Node4</title>
<path fill="none" stroke="midnightblue" d="M575.69,-235.98C537.28,-226.04 484.07,-212.04 437.5,-199 433.96,-198.01 430.28,-196.96 426.6,-195.89"/>
<polygon fill="midnightblue" stroke="midnightblue" points="427.54,-192.52 416.96,-193.08 425.58,-199.24 427.54,-192.52"/>
</g>
<!-- Node24&#45;&gt;Node10 -->
<g id="edge32" class="edge">
<title>Node24&#45;&gt;Node10</title>
<path fill="none" stroke="midnightblue" d="M652.8,-235.4C671.85,-224.34 698.18,-209.06 717.01,-198.13"/>
<polygon fill="midnightblue" stroke="midnightblue" points="718.95,-201.05 725.84,-193.01 715.44,-195 718.95,-201.05"/>
</g>
<!-- Node24&#45;&gt;Node16 -->
<g id="edge34" class="edge">
<title>Node24&#45;&gt;Node16</title>
<path fill="none" stroke="midnightblue" d="M633.06,-235.4C636.14,-225.86 640.23,-213.18 643.57,-202.86"/>
<polygon fill="midnightblue" stroke="midnightblue" points="646.95,-203.79 646.69,-193.19 640.29,-201.63 646.95,-203.79"/>
</g>
<!-- Node24&#45;&gt;Node17 -->
<g id="edge33" class="edge">
<title>Node24&#45;&gt;Node17</title>
<path fill="none" stroke="midnightblue" d="M575.7,-247.63C540.07,-243.3 495.35,-231.21 471.5,-199 446.81,-165.65 456.04,-113.45 463.56,-85.74"/>
<polygon fill="midnightblue" stroke="midnightblue" points="467.03,-86.38 466.48,-75.8 460.31,-84.41 467.03,-86.38"/>
</g>
<!-- Node24&#45;&gt;Node23 -->
<g id="edge39" class="edge">
<title>Node24&#45;&gt;Node23</title>
<path fill="none" stroke="midnightblue" d="M681.13,-239.7C751.11,-226.66 873.34,-203.9 936.75,-192.09"/>
<polygon fill="midnightblue" stroke="midnightblue" points="937.58,-195.5 946.77,-190.22 936.3,-188.61 937.58,-195.5"/>
</g>
<!-- Node25 -->
<g id="node25" class="node">
<title>Node25</title>
<g id="a_node25"><a xlink:href="_socket_writer_8h.html" target="_top" xlink:title=" ">
<polygon fill="white" stroke="black" points="480,-168.5 480,-198.5 585,-198.5 585,-168.5 480,-168.5"/>
<text text-anchor="start" x="488" y="-186.5" font-family="Helvetica,sans-Serif" font-size="10.00">socket/sock_stream</text>
<text text-anchor="middle" x="532.5" y="-175.5" font-family="Helvetica,sans-Serif" font-size="10.00">/SocketWriter.h</text>
</a>
</g>
</g>
<!-- Node24&#45;&gt;Node25 -->
<g id="edge35" class="edge">
<title>Node24&#45;&gt;Node25</title>
<path fill="none" stroke="midnightblue" d="M607.67,-235.4C594.21,-226.28 576.5,-214.29 561.65,-204.24"/>
<polygon fill="midnightblue" stroke="midnightblue" points="563.53,-201.28 553.29,-198.58 559.61,-207.08 563.53,-201.28"/>
</g>
<!-- Node26 -->
<g id="node26" class="node">
<title>Node26</title>
<g id="a_node26"><a xlink:href="_write_stream_8h.html" target="_top" xlink:title=" ">
<polygon fill="white" stroke="black" points="654,-112.5 654,-131.5 771,-131.5 771,-112.5 654,-112.5"/>
<text text-anchor="middle" x="712.5" y="-119.5" font-family="Helvetica,sans-Serif" font-size="10.00">streams/WriteStream.h</text>
</a>
</g>
</g>
<!-- Node25&#45;&gt;Node26 -->
<g id="edge36" class="edge">
<title>Node25&#45;&gt;Node26</title>
<path fill="none" stroke="midnightblue" d="M575.16,-168.4C606.13,-158.16 647.55,-144.47 676.78,-134.81"/>
<polygon fill="midnightblue" stroke="midnightblue" points="678.17,-138.03 686.57,-131.57 675.98,-131.39 678.17,-138.03"/>
</g>
<!-- Node26&#45;&gt;Node19 -->
<g id="edge37" class="edge">
<title>Node26&#45;&gt;Node19</title>
<path fill="none" stroke="midnightblue" d="M719.6,-112.08C725.74,-104.38 734.77,-93.03 742.24,-83.65"/>
<polygon fill="midnightblue" stroke="midnightblue" points="745.04,-85.75 748.53,-75.75 739.56,-81.39 745.04,-85.75"/>
</g>
<!-- Node26&#45;&gt;Node22 -->
<g id="edge38" class="edge">
<title>Node26&#45;&gt;Node22</title>
<path fill="none" stroke="midnightblue" d="M697.88,-112.32C683.55,-103.82 661.49,-90.73 644.75,-80.8"/>
<polygon fill="midnightblue" stroke="midnightblue" points="646.47,-77.75 636.08,-75.65 642.9,-83.77 646.47,-77.75"/>
</g>
<!-- Node27&#45;&gt;Node5 -->
<g id="edge45" class="edge">
<title>Node27&#45;&gt;Node5</title>
<path fill="none" stroke="midnightblue" d="M286.75,-302.4C271.64,-291.6 250.86,-276.76 235.64,-265.89"/>
<polygon fill="midnightblue" stroke="midnightblue" points="237.58,-262.97 227.41,-260.01 233.51,-268.67 237.58,-262.97"/>
</g>
<!-- Node27&#45;&gt;Node17 -->
<g id="edge44" class="edge">
<title>Node27&#45;&gt;Node17</title>
<path fill="none" stroke="midnightblue" d="M307.33,-302.24C309.54,-274.34 317.51,-211.48 345.5,-168 370.75,-128.78 416.27,-97.54 444.57,-80.69"/>
<polygon fill="midnightblue" stroke="midnightblue" points="446.56,-83.59 453.46,-75.54 443.05,-77.53 446.56,-83.59"/>
</g>
<!-- Node28 -->
<g id="node28" class="node">
<title>Node28</title>
<g id="a_node28"><a xlink:href="_connect_event_receiver_8h.html" target="_top" xlink:title=" ">
<polygon fill="white" stroke="black" points="172,-112.5 172,-131.5 297,-131.5 297,-112.5 172,-112.5"/>
<text text-anchor="middle" x="234.5" y="-119.5" font-family="Helvetica,sans-Serif" font-size="10.00">ConnectEventReceiver.h</text>
</a>
</g>
</g>
<!-- Node27&#45;&gt;Node28 -->
<g id="edge42" class="edge">
<title>Node27&#45;&gt;Node28</title>
<path fill="none" stroke="midnightblue" d="M301.21,-302.27C288.38,-267.8 255.64,-179.81 241.35,-141.4"/>
<polygon fill="midnightblue" stroke="midnightblue" points="244.46,-139.73 237.69,-131.58 237.9,-142.17 244.46,-139.73"/>
</g>
<!-- Node28&#45;&gt;Node18 -->
<g id="edge43" class="edge">
<title>Node28&#45;&gt;Node18</title>
<path fill="none" stroke="midnightblue" d="M252.94,-112.37C294.04,-93.13 393.34,-46.65 441.87,-23.93"/>
<polygon fill="midnightblue" stroke="midnightblue" points="443.57,-27 451.15,-19.59 440.6,-20.66 443.57,-27"/>
</g>
<!-- Node29&#45;&gt;Node27 -->
<g id="edge48" class="edge">
<title>Node29&#45;&gt;Node27</title>
<path fill="none" stroke="midnightblue" d="M306.5,-369.4C306.5,-361.64 306.5,-351.81 306.5,-342.86"/>
<polygon fill="midnightblue" stroke="midnightblue" points="310,-342.58 306.5,-332.58 303,-342.58 310,-342.58"/>
</g>
</g>
</svg>
