<?xml version="1.0" encoding="UTF-8" standalone="no"?>
<!DOCTYPE svg PUBLIC "-//W3C//DTD SVG 1.1//EN"
 "http://www.w3.org/Graphics/SVG/1.1/DTD/svg11.dtd">
<!-- Generated by graphviz version 2.43.0 (0)
 -->
<!-- Title: net/socket/ip/tcp/ipv6/tls/SocketServer.h Pages: 1 -->
<svg width="1126pt" height="486pt"
 viewBox="0.00 0.00 1125.50 486.00" xmlns="http://www.w3.org/2000/svg" xmlns:xlink="http://www.w3.org/1999/xlink">
<g id="graph0" class="graph" transform="scale(1 1) rotate(0) translate(4 482)">
<title>net/socket/ip/tcp/ipv6/tls/SocketServer.h</title>
<polygon fill="white" stroke="transparent" points="-4,4 -4,-482 1121.5,-482 1121.5,4 -4,4"/>
<!-- Node1 -->
<g id="node1" class="node">
<title>Node1</title>
<g id="a_node1"><a xlink:title=" ">
<polygon fill="#bfbfbf" stroke="black" points="524,-447.5 524,-477.5 634,-477.5 634,-447.5 524,-447.5"/>
<text text-anchor="start" x="532" y="-465.5" font-family="Helvetica,sans-Serif" font-size="10.00">net/socket/ip/tcp/ipv6</text>
<text text-anchor="middle" x="579" y="-454.5" font-family="Helvetica,sans-Serif" font-size="10.00">/tls/SocketServer.h</text>
</a>
</g>
</g>
<!-- Node2 -->
<g id="node2" class="node">
<title>Node2</title>
<g id="a_node2"><a xlink:href="ip_2tcp_2ipv6_2_socket_8h.html" target="_top" xlink:title=" ">
<polygon fill="white" stroke="black" points="168,-246.5 168,-276.5 262,-276.5 262,-246.5 168,-246.5"/>
<text text-anchor="start" x="176" y="-264.5" font-family="Helvetica,sans-Serif" font-size="10.00">socket/ip/tcp/ipv6</text>
<text text-anchor="middle" x="215" y="-253.5" font-family="Helvetica,sans-Serif" font-size="10.00">/Socket.h</text>
</a>
</g>
</g>
<!-- Node1&#45;&gt;Node2 -->
<g id="edge1" class="edge">
<title>Node1&#45;&gt;Node2</title>
<path fill="none" stroke="midnightblue" d="M553.11,-447.35C488.94,-412.26 322.47,-321.25 249.79,-281.52"/>
<polygon fill="midnightblue" stroke="midnightblue" points="251.45,-278.44 241,-276.71 248.09,-284.58 251.45,-278.44"/>
</g>
<!-- Node7 -->
<g id="node7" class="node">
<title>Node7</title>
<g id="a_node7"><a xlink:href="sock__stream_2tls_2_socket_server_8h.html" target="_top" xlink:title=" ">
<polygon fill="white" stroke="black" points="837.5,-380.5 837.5,-410.5 942.5,-410.5 942.5,-380.5 837.5,-380.5"/>
<text text-anchor="start" x="845.5" y="-398.5" font-family="Helvetica,sans-Serif" font-size="10.00">socket/sock_stream</text>
<text text-anchor="middle" x="890" y="-387.5" font-family="Helvetica,sans-Serif" font-size="10.00">/tls/SocketServer.h</text>
</a>
</g>
</g>
<!-- Node1&#45;&gt;Node7 -->
<g id="edge8" class="edge">
<title>Node1&#45;&gt;Node7</title>
<path fill="none" stroke="midnightblue" d="M634.24,-449.95C688.42,-438.63 770.89,-421.39 827.45,-409.57"/>
<polygon fill="midnightblue" stroke="midnightblue" points="828.27,-412.98 837.35,-407.5 826.84,-406.12 828.27,-412.98"/>
</g>
<!-- Node3 -->
<g id="node3" class="node">
<title>Node3</title>
<g id="a_node3"><a xlink:href="_descriptor_8h.html" target="_top" xlink:title=" ">
<polygon fill="white" stroke="black" points="144.5,-118 144.5,-137 213.5,-137 213.5,-118 144.5,-118"/>
<text text-anchor="middle" x="179" y="-125" font-family="Helvetica,sans-Serif" font-size="10.00">Descriptor.h</text>
</a>
</g>
</g>
<!-- Node2&#45;&gt;Node3 -->
<g id="edge2" class="edge">
<title>Node2&#45;&gt;Node3</title>
<path fill="none" stroke="midnightblue" d="M222.89,-246.44C231.13,-229.78 241.62,-201.45 232,-179 225.78,-164.48 213.1,-152.15 201.71,-143.31"/>
<polygon fill="midnightblue" stroke="midnightblue" points="203.52,-140.3 193.37,-137.25 199.4,-145.96 203.52,-140.3"/>
</g>
<!-- Node4 -->
<g id="node4" class="node">
<title>Node4</title>
<g id="a_node4"><a xlink:href="_socket_8h.html" target="_top" xlink:title=" ">
<polygon fill="white" stroke="black" points="135,-185 135,-204 223,-204 223,-185 135,-185"/>
<text text-anchor="middle" x="179" y="-192" font-family="Helvetica,sans-Serif" font-size="10.00">socket/Socket.h</text>
</a>
</g>
</g>
<!-- Node2&#45;&gt;Node4 -->
<g id="edge3" class="edge">
<title>Node2&#45;&gt;Node4</title>
<path fill="none" stroke="midnightblue" d="M207.19,-246.4C201.8,-236.66 194.59,-223.65 188.81,-213.21"/>
<polygon fill="midnightblue" stroke="midnightblue" points="191.72,-211.25 183.82,-204.19 185.6,-214.64 191.72,-211.25"/>
</g>
<!-- Node6 -->
<g id="node6" class="node">
<title>Node6</title>
<g id="a_node6"><a xlink:href="ipv6_2_inet_address_8h.html" target="_top" xlink:title=" ">
<polygon fill="white" stroke="black" points="1.5,-179.5 1.5,-209.5 116.5,-209.5 116.5,-179.5 1.5,-179.5"/>
<text text-anchor="start" x="9.5" y="-197.5" font-family="Helvetica,sans-Serif" font-size="10.00">socket/ip/address/ipv6</text>
<text text-anchor="middle" x="59" y="-186.5" font-family="Helvetica,sans-Serif" font-size="10.00">/InetAddress.h</text>
</a>
</g>
</g>
<!-- Node2&#45;&gt;Node6 -->
<g id="edge6" class="edge">
<title>Node2&#45;&gt;Node6</title>
<path fill="none" stroke="midnightblue" d="M181.15,-246.4C157.95,-236.73 126.97,-223.82 102.02,-213.43"/>
<polygon fill="midnightblue" stroke="midnightblue" points="103.36,-210.19 92.78,-209.58 100.67,-216.65 103.36,-210.19"/>
</g>
<!-- Node4&#45;&gt;Node3 -->
<g id="edge4" class="edge">
<title>Node4&#45;&gt;Node3</title>
<path fill="none" stroke="midnightblue" d="M179,-184.73C179,-175.18 179,-159.62 179,-147.28"/>
<polygon fill="midnightblue" stroke="midnightblue" points="182.5,-147.13 179,-137.13 175.5,-147.13 182.5,-147.13"/>
</g>
<!-- Node5 -->
<g id="node5" class="node">
<title>Node5</title>
<g id="a_node5"><a xlink:href="_socket_address_8h.html" target="_top" xlink:title=" ">
<polygon fill="white" stroke="black" points="0,-118 0,-137 124,-137 124,-118 0,-118"/>
<text text-anchor="middle" x="62" y="-125" font-family="Helvetica,sans-Serif" font-size="10.00">socket/SocketAddress.h</text>
</a>
</g>
</g>
<!-- Node4&#45;&gt;Node5 -->
<g id="edge5" class="edge">
<title>Node4&#45;&gt;Node5</title>
<path fill="none" stroke="midnightblue" d="M163.22,-184.73C143.49,-173.77 109.49,-154.88 86.39,-142.05"/>
<polygon fill="midnightblue" stroke="midnightblue" points="87.97,-138.92 77.53,-137.13 84.57,-145.04 87.97,-138.92"/>
</g>
<!-- Node6&#45;&gt;Node5 -->
<g id="edge7" class="edge">
<title>Node6&#45;&gt;Node5</title>
<path fill="none" stroke="midnightblue" d="M59.65,-179.4C60.09,-169.96 60.66,-157.45 61.14,-147.19"/>
<polygon fill="midnightblue" stroke="midnightblue" points="64.63,-147.35 61.6,-137.19 57.64,-147.02 64.63,-147.35"/>
</g>
<!-- Node8 -->
<g id="node8" class="node">
<title>Node8</title>
<g id="a_node8"><a xlink:href="tls_2_socket_listener_8h.html" target="_top" xlink:title=" ">
<polygon fill="white" stroke="black" points="845.5,-319 845.5,-338 934.5,-338 934.5,-319 845.5,-319"/>
<text text-anchor="middle" x="890" y="-326" font-family="Helvetica,sans-Serif" font-size="10.00">SocketListener.h</text>
</a>
</g>
</g>
<!-- Node7&#45;&gt;Node8 -->
<g id="edge9" class="edge">
<title>Node7&#45;&gt;Node8</title>
<path fill="none" stroke="midnightblue" d="M890,-380.4C890,-371.06 890,-358.71 890,-348.52"/>
<polygon fill="midnightblue" stroke="midnightblue" points="893.5,-348.19 890,-338.19 886.5,-348.19 893.5,-348.19"/>
</g>
<!-- Node25 -->
<g id="node25" class="node">
<title>Node25</title>
<g id="a_node25"><a xlink:href="sock__stream_2_socket_server_8h.html" target="_top" xlink:title=" ">
<polygon fill="white" stroke="black" points="984.5,-313.5 984.5,-343.5 1089.5,-343.5 1089.5,-313.5 984.5,-313.5"/>
<text text-anchor="start" x="992.5" y="-331.5" font-family="Helvetica,sans-Serif" font-size="10.00">socket/sock_stream</text>
<text text-anchor="middle" x="1037" y="-320.5" font-family="Helvetica,sans-Serif" font-size="10.00">/SocketServer.h</text>
</a>
</g>
</g>
<!-- Node7&#45;&gt;Node25 -->
<g id="edge43" class="edge">
<title>Node7&#45;&gt;Node25</title>
<path fill="none" stroke="midnightblue" d="M921.9,-380.4C943.57,-370.81 972.43,-358.05 995.84,-347.7"/>
<polygon fill="midnightblue" stroke="midnightblue" points="997.44,-350.82 1005.17,-343.58 994.6,-344.42 997.44,-350.82"/>
</g>
<!-- Node9 -->
<g id="node9" class="node">
<title>Node9</title>
<g id="a_node9"><a xlink:href="_logger_8h.html" target="_top" xlink:title=" ">
<polygon fill="white" stroke="black" points="796.5,-56.5 796.5,-75.5 849.5,-75.5 849.5,-56.5 796.5,-56.5"/>
<text text-anchor="middle" x="823" y="-63.5" font-family="Helvetica,sans-Serif" font-size="10.00">Logger.h</text>
</a>
</g>
</g>
<!-- Node8&#45;&gt;Node9 -->
<g id="edge10" class="edge">
<title>Node8&#45;&gt;Node9</title>
<path fill="none" stroke="midnightblue" d="M893.34,-318.91C904.69,-288.24 938.82,-182.24 898,-112 889.43,-97.25 873.93,-86.77 859.23,-79.67"/>
<polygon fill="midnightblue" stroke="midnightblue" points="860.34,-76.33 849.78,-75.47 857.5,-82.73 860.34,-76.33"/>
</g>
<!-- Node10 -->
<g id="node10" class="node">
<title>Node10</title>
<g id="a_node10"><a xlink:href="tls_2_socket_connection_8h.html" target="_top" xlink:title=" ">
<polygon fill="white" stroke="black" points="594.5,-252 594.5,-271 699.5,-271 699.5,-252 594.5,-252"/>
<text text-anchor="middle" x="647" y="-259" font-family="Helvetica,sans-Serif" font-size="10.00">SocketConnection.h</text>
</a>
</g>
</g>
<!-- Node8&#45;&gt;Node10 -->
<g id="edge11" class="edge">
<title>Node8&#45;&gt;Node10</title>
<path fill="none" stroke="midnightblue" d="M857.98,-318.94C814.55,-307.32 736.88,-286.54 688.86,-273.7"/>
<polygon fill="midnightblue" stroke="midnightblue" points="689.65,-270.29 679.09,-271.08 687.84,-277.05 689.65,-270.29"/>
</g>
<!-- Node15 -->
<g id="node15" class="node">
<title>Node15</title>
<g id="a_node15"><a xlink:href="_t_l_s_handshake_8h.html" target="_top" xlink:title=" ">
<polygon fill="white" stroke="black" points="701,-118 701,-137 793,-137 793,-118 701,-118"/>
<text text-anchor="middle" x="747" y="-125" font-family="Helvetica,sans-Serif" font-size="10.00">TLSHandshake.h</text>
</a>
</g>
</g>
<!-- Node8&#45;&gt;Node15 -->
<g id="edge36" class="edge">
<title>Node8&#45;&gt;Node15</title>
<path fill="none" stroke="midnightblue" d="M871.33,-318.98C838.87,-302.99 773.02,-265.05 747,-210 737.58,-190.06 739.63,-164.19 742.67,-147"/>
<polygon fill="midnightblue" stroke="midnightblue" points="746.12,-147.61 744.71,-137.11 739.27,-146.2 746.12,-147.61"/>
</g>
<!-- Node20 -->
<g id="node20" class="node">
<title>Node20</title>
<g id="a_node20"><a xlink:href="ssl__utils_8h.html" target="_top" xlink:title=" ">
<polygon fill="white" stroke="black" points="811.5,-118 811.5,-137 872.5,-137 872.5,-118 811.5,-118"/>
<text text-anchor="middle" x="842" y="-125" font-family="Helvetica,sans-Serif" font-size="10.00">ssl_utils.h</text>
</a>
</g>
</g>
<!-- Node8&#45;&gt;Node20 -->
<g id="edge42" class="edge">
<title>Node8&#45;&gt;Node20</title>
<path fill="none" stroke="midnightblue" d="M889.94,-318.88C889.56,-295.66 886.94,-230.11 870,-179 866.12,-167.3 859.51,-155.18 853.68,-145.75"/>
<polygon fill="midnightblue" stroke="midnightblue" points="856.61,-143.84 848.25,-137.33 850.73,-147.63 856.61,-143.84"/>
</g>
<!-- Node23 -->
<g id="node23" class="node">
<title>Node23</title>
<g id="a_node23"><a xlink:href="_socket_listener_8h.html" target="_top" xlink:title=" ">
<polygon fill="white" stroke="black" points="1005.5,-112.5 1005.5,-142.5 1110.5,-142.5 1110.5,-112.5 1005.5,-112.5"/>
<text text-anchor="start" x="1013.5" y="-130.5" font-family="Helvetica,sans-Serif" font-size="10.00">socket/sock_stream</text>
<text text-anchor="middle" x="1058" y="-119.5" font-family="Helvetica,sans-Serif" font-size="10.00">/SocketListener.h</text>
</a>
</g>
</g>
<!-- Node8&#45;&gt;Node23 -->
<g id="edge37" class="edge">
<title>Node8&#45;&gt;Node23</title>
<path fill="none" stroke="midnightblue" d="M918.93,-318.97C941.11,-311.16 971.17,-297.64 991,-277 1025.51,-241.09 1044.25,-184.32 1052.58,-152.38"/>
<polygon fill="midnightblue" stroke="midnightblue" points="1056,-153.11 1055.01,-142.56 1049.21,-151.42 1056,-153.11"/>
</g>
<!-- Node11 -->
<g id="node11" class="node">
<title>Node11</title>
<g id="a_node11"><a xlink:href="_socket_connection_8h.html" target="_top" xlink:title=" ">
<polygon fill="white" stroke="black" points="365,-179.5 365,-209.5 473,-209.5 473,-179.5 365,-179.5"/>
<text text-anchor="start" x="373" y="-197.5" font-family="Helvetica,sans-Serif" font-size="10.00">socket/sock_stream</text>
<text text-anchor="middle" x="419" y="-186.5" font-family="Helvetica,sans-Serif" font-size="10.00">/SocketConnection.h</text>
</a>
</g>
</g>
<!-- Node10&#45;&gt;Node11 -->
<g id="edge12" class="edge">
<title>Node10&#45;&gt;Node11</title>
<path fill="none" stroke="midnightblue" d="M616.72,-251.87C581.47,-241.82 522.42,-224.99 478.01,-212.32"/>
<polygon fill="midnightblue" stroke="midnightblue" points="478.78,-208.9 468.21,-209.53 476.86,-215.64 478.78,-208.9"/>
</g>
<!-- Node14 -->
<g id="node14" class="node">
<title>Node14</title>
<g id="a_node14"><a xlink:href="tls_2_socket_reader_8h.html" target="_top" xlink:title=" ">
<polygon fill="white" stroke="black" points="577.5,-179.5 577.5,-209.5 682.5,-209.5 682.5,-179.5 577.5,-179.5"/>
<text text-anchor="start" x="585.5" y="-197.5" font-family="Helvetica,sans-Serif" font-size="10.00">socket/sock_stream</text>
<text text-anchor="middle" x="630" y="-186.5" font-family="Helvetica,sans-Serif" font-size="10.00">/tls/SocketReader.h</text>
</a>
</g>
</g>
<!-- Node10&#45;&gt;Node14 -->
<g id="edge15" class="edge">
<title>Node10&#45;&gt;Node14</title>
<path fill="none" stroke="midnightblue" d="M644.71,-251.73C642.54,-243.46 639.2,-230.66 636.24,-219.37"/>
<polygon fill="midnightblue" stroke="midnightblue" points="639.6,-218.38 633.68,-209.59 632.83,-220.15 639.6,-218.38"/>
</g>
<!-- Node21 -->
<g id="node21" class="node">
<title>Node21</title>
<g id="a_node21"><a xlink:href="tls_2_socket_writer_8h.html" target="_top" xlink:title=" ">
<polygon fill="white" stroke="black" points="756.5,-179.5 756.5,-209.5 861.5,-209.5 861.5,-179.5 756.5,-179.5"/>
<text text-anchor="start" x="764.5" y="-197.5" font-family="Helvetica,sans-Serif" font-size="10.00">socket/sock_stream</text>
<text text-anchor="middle" x="809" y="-186.5" font-family="Helvetica,sans-Serif" font-size="10.00">/tls/SocketWriter.h</text>
</a>
</g>
</g>
<!-- Node10&#45;&gt;Node21 -->
<g id="edge27" class="edge">
<title>Node10&#45;&gt;Node21</title>
<path fill="none" stroke="midnightblue" d="M668.51,-251.87C692.93,-242.07 733.41,-225.83 764.66,-213.29"/>
<polygon fill="midnightblue" stroke="midnightblue" points="766.06,-216.5 774.04,-209.53 763.45,-210 766.06,-216.5"/>
</g>
<!-- Node12 -->
<g id="node12" class="node">
<title>Node12</title>
<g id="a_node12"><a xlink:href="_socket_connection_base_8h.html" target="_top" xlink:title=" ">
<polygon fill="white" stroke="black" points="232,-118 232,-137 360,-137 360,-118 232,-118"/>
<text text-anchor="middle" x="296" y="-125" font-family="Helvetica,sans-Serif" font-size="10.00">SocketConnectionBase.h</text>
</a>
</g>
</g>
<!-- Node11&#45;&gt;Node12 -->
<g id="edge13" class="edge">
<title>Node11&#45;&gt;Node12</title>
<path fill="none" stroke="midnightblue" d="M392.31,-179.4C371.11,-168.19 341.68,-152.64 320.95,-141.69"/>
<polygon fill="midnightblue" stroke="midnightblue" points="322.57,-138.58 312.1,-137.01 319.3,-144.77 322.57,-138.58"/>
</g>
<!-- Node13 -->
<g id="node13" class="node">
<title>Node13</title>
<g id="a_node13"><a xlink:href="_attribute_injector_8h.html" target="_top" xlink:title=" ">
<polygon fill="white" stroke="black" points="249.5,-56.5 249.5,-75.5 342.5,-75.5 342.5,-56.5 249.5,-56.5"/>
<text text-anchor="middle" x="296" y="-63.5" font-family="Helvetica,sans-Serif" font-size="10.00">AttributeInjector.h</text>
</a>
</g>
</g>
<!-- Node12&#45;&gt;Node13 -->
<g id="edge14" class="edge">
<title>Node12&#45;&gt;Node13</title>
<path fill="none" stroke="midnightblue" d="M296,-117.98C296,-109.58 296,-96.48 296,-85.66"/>
<polygon fill="midnightblue" stroke="midnightblue" points="299.5,-85.51 296,-75.51 292.5,-85.51 299.5,-85.51"/>
</g>
<!-- Node14&#45;&gt;Node3 -->
<g id="edge16" class="edge">
<title>Node14&#45;&gt;Node3</title>
<path fill="none" stroke="midnightblue" d="M577.44,-188.27C483.25,-178.68 289.35,-157.9 223,-143 219.33,-142.18 215.54,-141.17 211.78,-140.07"/>
<polygon fill="midnightblue" stroke="midnightblue" points="212.64,-136.68 202.05,-137.03 210.55,-143.36 212.64,-136.68"/>
</g>
<!-- Node14&#45;&gt;Node9 -->
<g id="edge17" class="edge">
<title>Node14&#45;&gt;Node9</title>
<path fill="none" stroke="midnightblue" d="M577.39,-188.42C509.16,-179.87 403.52,-158.71 445,-112 456.29,-99.29 693.76,-77.93 786.42,-70.04"/>
<polygon fill="midnightblue" stroke="midnightblue" points="786.8,-73.52 796.47,-69.19 786.21,-66.55 786.8,-73.52"/>
</g>
<!-- Node14&#45;&gt;Node15 -->
<g id="edge18" class="edge">
<title>Node14&#45;&gt;Node15</title>
<path fill="none" stroke="midnightblue" d="M655.39,-179.4C675.37,-168.29 703.04,-152.92 722.73,-141.98"/>
<polygon fill="midnightblue" stroke="midnightblue" points="724.65,-144.92 731.69,-137.01 721.25,-138.8 724.65,-144.92"/>
</g>
<!-- Node18 -->
<g id="node18" class="node">
<title>Node18</title>
<g id="a_node18"><a xlink:href="_write_event_receiver_8h.html" target="_top" xlink:title=" ">
<polygon fill="white" stroke="black" points="559.5,-56.5 559.5,-75.5 670.5,-75.5 670.5,-56.5 559.5,-56.5"/>
<text text-anchor="middle" x="615" y="-63.5" font-family="Helvetica,sans-Serif" font-size="10.00">WriteEventReceiver.h</text>
</a>
</g>
</g>
<!-- Node14&#45;&gt;Node18 -->
<g id="edge23" class="edge">
<title>Node14&#45;&gt;Node18</title>
<path fill="none" stroke="midnightblue" d="M577.37,-188.73C519.58,-182.27 432.28,-168.51 412,-143 372.02,-92.71 475.65,-75.69 549.12,-69.94"/>
<polygon fill="midnightblue" stroke="midnightblue" points="549.55,-73.42 559.27,-69.2 549.04,-66.44 549.55,-73.42"/>
</g>
<!-- Node19 -->
<g id="node19" class="node">
<title>Node19</title>
<g id="a_node19"><a xlink:href="_socket_reader_8h.html" target="_top" xlink:title=" ">
<polygon fill="white" stroke="black" points="577.5,-112.5 577.5,-142.5 682.5,-142.5 682.5,-112.5 577.5,-112.5"/>
<text text-anchor="start" x="585.5" y="-130.5" font-family="Helvetica,sans-Serif" font-size="10.00">socket/sock_stream</text>
<text text-anchor="middle" x="630" y="-119.5" font-family="Helvetica,sans-Serif" font-size="10.00">/SocketReader.h</text>
</a>
</g>
</g>
<!-- Node14&#45;&gt;Node19 -->
<g id="edge24" class="edge">
<title>Node14&#45;&gt;Node19</title>
<path fill="none" stroke="midnightblue" d="M630,-179.4C630,-171.64 630,-161.81 630,-152.86"/>
<polygon fill="midnightblue" stroke="midnightblue" points="633.5,-152.58 630,-142.58 626.5,-152.58 633.5,-152.58"/>
</g>
<!-- Node14&#45;&gt;Node20 -->
<g id="edge26" class="edge">
<title>Node14&#45;&gt;Node20</title>
<path fill="none" stroke="midnightblue" d="M681.06,-179.41C715.41,-169.71 761.63,-156.23 802,-143 804.54,-142.17 807.17,-141.28 809.8,-140.37"/>
<polygon fill="midnightblue" stroke="midnightblue" points="810.98,-143.66 819.24,-137.03 808.65,-137.06 810.98,-143.66"/>
</g>
<!-- Node16 -->
<g id="node16" class="node">
<title>Node16</title>
<g id="a_node16"><a xlink:href="_read_event_receiver_8h.html" target="_top" xlink:title=" ">
<polygon fill="white" stroke="black" points="868,-56.5 868,-75.5 980,-75.5 980,-56.5 868,-56.5"/>
<text text-anchor="middle" x="924" y="-63.5" font-family="Helvetica,sans-Serif" font-size="10.00">ReadEventReceiver.h</text>
</a>
</g>
</g>
<!-- Node15&#45;&gt;Node16 -->
<g id="edge19" class="edge">
<title>Node15&#45;&gt;Node16</title>
<path fill="none" stroke="midnightblue" d="M772.36,-117.98C802.98,-107.68 854.66,-90.31 889.05,-78.75"/>
<polygon fill="midnightblue" stroke="midnightblue" points="890.32,-82.01 898.69,-75.51 888.09,-75.38 890.32,-82.01"/>
</g>
<!-- Node15&#45;&gt;Node18 -->
<g id="edge21" class="edge">
<title>Node15&#45;&gt;Node18</title>
<path fill="none" stroke="midnightblue" d="M728.09,-117.98C705.84,-107.95 668.69,-91.2 643.07,-79.65"/>
<polygon fill="midnightblue" stroke="midnightblue" points="644.43,-76.43 633.88,-75.51 641.56,-82.81 644.43,-76.43"/>
</g>
<!-- Node17 -->
<g id="node17" class="node">
<title>Node17</title>
<g id="a_node17"><a xlink:href="_event_receiver_8h.html" target="_top" xlink:title=" ">
<polygon fill="white" stroke="black" points="879.5,-0.5 879.5,-19.5 968.5,-19.5 968.5,-0.5 879.5,-0.5"/>
<text text-anchor="middle" x="924" y="-7.5" font-family="Helvetica,sans-Serif" font-size="10.00">EventReceiver.h</text>
</a>
</g>
</g>
<!-- Node16&#45;&gt;Node17 -->
<g id="edge20" class="edge">
<title>Node16&#45;&gt;Node17</title>
<path fill="none" stroke="midnightblue" d="M924,-56.08C924,-49.01 924,-38.86 924,-29.99"/>
<polygon fill="midnightblue" stroke="midnightblue" points="927.5,-29.75 924,-19.75 920.5,-29.75 927.5,-29.75"/>
</g>
<!-- Node18&#45;&gt;Node17 -->
<g id="edge22" class="edge">
<title>Node18&#45;&gt;Node17</title>
<path fill="none" stroke="midnightblue" d="M663.96,-56.44C719.83,-46.68 810.96,-30.75 869.17,-20.58"/>
<polygon fill="midnightblue" stroke="midnightblue" points="870.03,-23.98 879.28,-18.82 868.83,-17.09 870.03,-23.98"/>
</g>
<!-- Node19&#45;&gt;Node16 -->
<g id="edge25" class="edge">
<title>Node19&#45;&gt;Node16</title>
<path fill="none" stroke="midnightblue" d="M682.73,-114.02C685.87,-113.33 688.97,-112.65 692,-112 751.62,-99.25 820.19,-86.14 867.24,-77.38"/>
<polygon fill="midnightblue" stroke="midnightblue" points="868.04,-80.79 877.24,-75.53 866.76,-73.91 868.04,-80.79"/>
</g>
<!-- Node21&#45;&gt;Node3 -->
<g id="edge28" class="edge">
<title>Node21&#45;&gt;Node3</title>
<path fill="none" stroke="midnightblue" d="M756.48,-186.53C736.06,-183.95 712.46,-181.14 691,-179 483.42,-158.27 427.56,-183.95 223,-143 219.12,-142.22 215.1,-141.21 211.15,-140.08"/>
<polygon fill="midnightblue" stroke="midnightblue" points="212.14,-136.72 201.56,-137.09 210.06,-143.41 212.14,-136.72"/>
</g>
<!-- Node21&#45;&gt;Node9 -->
<g id="edge29" class="edge">
<title>Node21&#45;&gt;Node9</title>
<path fill="none" stroke="midnightblue" d="M841.59,-179.44C856.47,-171.16 872.62,-159.12 881,-143 887.36,-130.78 887.06,-124.37 881,-112 874.48,-98.68 861.9,-88.18 850.13,-80.68"/>
<polygon fill="midnightblue" stroke="midnightblue" points="851.78,-77.59 841.39,-75.53 848.23,-83.62 851.78,-77.59"/>
</g>
<!-- Node21&#45;&gt;Node15 -->
<g id="edge31" class="edge">
<title>Node21&#45;&gt;Node15</title>
<path fill="none" stroke="midnightblue" d="M795.55,-179.4C785.78,-169.16 772.56,-155.3 762.38,-144.62"/>
<polygon fill="midnightblue" stroke="midnightblue" points="764.73,-142.01 755.29,-137.19 759.66,-146.85 764.73,-142.01"/>
</g>
<!-- Node21&#45;&gt;Node16 -->
<g id="edge30" class="edge">
<title>Node21&#45;&gt;Node16</title>
<path fill="none" stroke="midnightblue" d="M847.04,-179.37C864.67,-171.13 884.62,-159.14 898,-143 911.59,-126.6 918.22,-102.71 921.36,-86.11"/>
<polygon fill="midnightblue" stroke="midnightblue" points="924.86,-86.4 923.01,-75.97 917.95,-85.27 924.86,-86.4"/>
</g>
<!-- Node21&#45;&gt;Node20 -->
<g id="edge35" class="edge">
<title>Node21&#45;&gt;Node20</title>
<path fill="none" stroke="midnightblue" d="M816.16,-179.4C821.1,-169.66 827.71,-156.65 833.01,-146.21"/>
<polygon fill="midnightblue" stroke="midnightblue" points="836.18,-147.7 837.59,-137.19 829.94,-144.53 836.18,-147.7"/>
</g>
<!-- Node22 -->
<g id="node22" class="node">
<title>Node22</title>
<g id="a_node22"><a xlink:href="_socket_writer_8h.html" target="_top" xlink:title=" ">
<polygon fill="white" stroke="black" points="454.5,-112.5 454.5,-142.5 559.5,-142.5 559.5,-112.5 454.5,-112.5"/>
<text text-anchor="start" x="462.5" y="-130.5" font-family="Helvetica,sans-Serif" font-size="10.00">socket/sock_stream</text>
<text text-anchor="middle" x="507" y="-119.5" font-family="Helvetica,sans-Serif" font-size="10.00">/SocketWriter.h</text>
</a>
</g>
</g>
<!-- Node21&#45;&gt;Node22 -->
<g id="edge32" class="edge">
<title>Node21&#45;&gt;Node22</title>
<path fill="none" stroke="midnightblue" d="M756.26,-182.87C709.57,-173.37 639.32,-158.84 569.41,-143.29"/>
<polygon fill="midnightblue" stroke="midnightblue" points="570.07,-139.85 559.55,-141.09 568.55,-146.68 570.07,-139.85"/>
</g>
<!-- Node22&#45;&gt;Node9 -->
<g id="edge33" class="edge">
<title>Node22&#45;&gt;Node9</title>
<path fill="none" stroke="midnightblue" d="M559.53,-113.81C562.39,-113.18 565.23,-112.57 568,-112 645.47,-95.97 736.93,-80.71 786.54,-72.74"/>
<polygon fill="midnightblue" stroke="midnightblue" points="787.15,-76.19 796.47,-71.15 786.04,-69.28 787.15,-76.19"/>
</g>
<!-- Node22&#45;&gt;Node18 -->
<g id="edge34" class="edge">
<title>Node22&#45;&gt;Node18</title>
<path fill="none" stroke="midnightblue" d="M532.59,-112.4C550.07,-102.77 573.09,-90.09 590.36,-80.58"/>
<polygon fill="midnightblue" stroke="midnightblue" points="592.22,-83.55 599.29,-75.66 588.84,-77.42 592.22,-83.55"/>
</g>
<!-- Node23&#45;&gt;Node9 -->
<g id="edge40" class="edge">
<title>Node23&#45;&gt;Node9</title>
<path fill="none" stroke="midnightblue" d="M1005.26,-113.15C960.91,-101.92 898.67,-86.16 859.6,-76.27"/>
<polygon fill="midnightblue" stroke="midnightblue" points="860.27,-72.83 849.72,-73.76 858.55,-79.61 860.27,-72.83"/>
</g>
<!-- Node23&#45;&gt;Node16 -->
<g id="edge41" class="edge">
<title>Node23&#45;&gt;Node16</title>
<path fill="none" stroke="midnightblue" d="M1026.24,-112.4C1003.96,-102.51 974.41,-89.38 952.81,-79.79"/>
<polygon fill="midnightblue" stroke="midnightblue" points="954.06,-76.52 943.5,-75.66 951.22,-82.91 954.06,-76.52"/>
</g>
<!-- Node24 -->
<g id="node24" class="node">
<title>Node24</title>
<g id="a_node24"><a xlink:href="_accept_event_receiver_8h.html" target="_top" xlink:title=" ">
<polygon fill="white" stroke="black" points="998.5,-56.5 998.5,-75.5 1117.5,-75.5 1117.5,-56.5 998.5,-56.5"/>
<text text-anchor="middle" x="1058" y="-63.5" font-family="Helvetica,sans-Serif" font-size="10.00">AcceptEventReceiver.h</text>
</a>
</g>
</g>
<!-- Node23&#45;&gt;Node24 -->
<g id="edge38" class="edge">
<title>Node23&#45;&gt;Node24</title>
<path fill="none" stroke="midnightblue" d="M1058,-112.4C1058,-104.47 1058,-94.46 1058,-85.86"/>
<polygon fill="midnightblue" stroke="midnightblue" points="1061.5,-85.66 1058,-75.66 1054.5,-85.66 1061.5,-85.66"/>
</g>
<!-- Node24&#45;&gt;Node17 -->
<g id="edge39" class="edge">
<title>Node24&#45;&gt;Node17</title>
<path fill="none" stroke="midnightblue" d="M1036.77,-56.44C1014.62,-47.52 979.68,-33.44 954.56,-23.32"/>
<polygon fill="midnightblue" stroke="midnightblue" points="955.72,-20.01 945.13,-19.52 953.1,-26.5 955.72,-20.01"/>
</g>
<!-- Node25&#45;&gt;Node23 -->
<g id="edge44" class="edge">
<title>Node25&#45;&gt;Node23</title>
<path fill="none" stroke="midnightblue" d="M1038.51,-313.19C1042.07,-279.48 1051,-194.8 1055.43,-152.84"/>
<polygon fill="midnightblue" stroke="midnightblue" points="1058.93,-152.99 1056.5,-142.68 1051.97,-152.26 1058.93,-152.99"/>
</g>
</g>
</svg>
