<?xml version="1.0" encoding="UTF-8" standalone="no"?>
<!DOCTYPE svg PUBLIC "-//W3C//DTD SVG 1.1//EN"
 "http://www.w3.org/Graphics/SVG/1.1/DTD/svg11.dtd">
<!-- Generated by graphviz version 2.43.0 (0)
 -->
<!-- Title: net/socket/ip/tcp/ipv4/tls/SocketServer.h Pages: 1 -->
<svg width="1871pt" height="486pt"
 viewBox="0.00 0.00 1870.50 486.00" xmlns="http://www.w3.org/2000/svg" xmlns:xlink="http://www.w3.org/1999/xlink">
<g id="graph0" class="graph" transform="scale(1 1) rotate(0) translate(4 482)">
<title>net/socket/ip/tcp/ipv4/tls/SocketServer.h</title>
<polygon fill="white" stroke="transparent" points="-4,4 -4,-482 1866.5,-482 1866.5,4 -4,4"/>
<!-- Node1 -->
<g id="node1" class="node">
<title>Node1</title>
<g id="a_node1"><a xlink:title=" ">
<polygon fill="#bfbfbf" stroke="black" points="234,-447.5 234,-477.5 344,-477.5 344,-447.5 234,-447.5"/>
<text text-anchor="start" x="242" y="-465.5" font-family="Helvetica,sans-Serif" font-size="10.00">net/socket/ip/tcp/ipv4</text>
<text text-anchor="middle" x="289" y="-454.5" font-family="Helvetica,sans-Serif" font-size="10.00">/tls/SocketServer.h</text>
</a>
</g>
</g>
<!-- Node2 -->
<g id="node2" class="node">
<title>Node2</title>
<g id="a_node2"><a xlink:href="socket_2ip_2tcp_2ipv4_2_socket_8h.html" target="_top" xlink:title=" ">
<polygon fill="white" stroke="black" points="156,-246.5 156,-276.5 266,-276.5 266,-246.5 156,-246.5"/>
<text text-anchor="start" x="164" y="-264.5" font-family="Helvetica,sans-Serif" font-size="10.00">net/socket/ip/tcp/ipv4</text>
<text text-anchor="middle" x="211" y="-253.5" font-family="Helvetica,sans-Serif" font-size="10.00">/Socket.h</text>
</a>
</g>
</g>
<!-- Node1&#45;&gt;Node2 -->
<g id="edge1" class="edge">
<title>Node1&#45;&gt;Node2</title>
<path fill="none" stroke="midnightblue" d="M283.39,-447.19C270.1,-413.27 236.56,-327.72 220.23,-286.04"/>
<polygon fill="midnightblue" stroke="midnightblue" points="223.47,-284.72 216.56,-276.68 216.95,-287.27 223.47,-284.72"/>
</g>
<!-- Node8 -->
<g id="node8" class="node">
<title>Node8</title>
<g id="a_node8"><a xlink:href="stream_2tls_2_socket_server_8h.html" target="_top" xlink:title=" ">
<polygon fill="white" stroke="black" points="313.5,-380.5 313.5,-410.5 422.5,-410.5 422.5,-380.5 313.5,-380.5"/>
<text text-anchor="start" x="321.5" y="-398.5" font-family="Helvetica,sans-Serif" font-size="10.00">net/socket/stream/tls</text>
<text text-anchor="middle" x="368" y="-387.5" font-family="Helvetica,sans-Serif" font-size="10.00">/SocketServer.h</text>
</a>
</g>
</g>
<!-- Node1&#45;&gt;Node8 -->
<g id="edge8" class="edge">
<title>Node1&#45;&gt;Node8</title>
<path fill="none" stroke="midnightblue" d="M306.14,-447.4C316.91,-438.54 330.98,-426.96 342.98,-417.09"/>
<polygon fill="midnightblue" stroke="midnightblue" points="345.39,-419.63 350.89,-410.58 340.95,-414.23 345.39,-419.63"/>
</g>
<!-- Node3 -->
<g id="node3" class="node">
<title>Node3</title>
<g id="a_node3"><a xlink:href="socket_2_socket_8h.html" target="_top" xlink:title=" ">
<polygon fill="white" stroke="black" points="159,-185 159,-204 263,-204 263,-185 159,-185"/>
<text text-anchor="middle" x="211" y="-192" font-family="Helvetica,sans-Serif" font-size="10.00">net/socket/Socket.h</text>
</a>
</g>
</g>
<!-- Node2&#45;&gt;Node3 -->
<g id="edge2" class="edge">
<title>Node2&#45;&gt;Node3</title>
<path fill="none" stroke="midnightblue" d="M211,-246.4C211,-237.06 211,-224.71 211,-214.52"/>
<polygon fill="midnightblue" stroke="midnightblue" points="214.5,-214.19 211,-204.19 207.5,-214.19 214.5,-214.19"/>
</g>
<!-- Node7 -->
<g id="node7" class="node">
<title>Node7</title>
<g id="a_node7"><a xlink:href="ipv4_2_inet_address_8h.html" target="_top" xlink:title=" ">
<polygon fill="white" stroke="black" points="23,-179.5 23,-209.5 133,-209.5 133,-179.5 23,-179.5"/>
<text text-anchor="start" x="31" y="-197.5" font-family="Helvetica,sans-Serif" font-size="10.00">net/socket/ip/address</text>
<text text-anchor="middle" x="78" y="-186.5" font-family="Helvetica,sans-Serif" font-size="10.00">/ipv4/InetAddress.h</text>
</a>
</g>
</g>
<!-- Node2&#45;&gt;Node7 -->
<g id="edge6" class="edge">
<title>Node2&#45;&gt;Node7</title>
<path fill="none" stroke="midnightblue" d="M182.14,-246.4C162.71,-236.9 136.88,-224.28 115.81,-213.98"/>
<polygon fill="midnightblue" stroke="midnightblue" points="117.32,-210.82 106.8,-209.58 114.25,-217.11 117.32,-210.82"/>
</g>
<!-- Node4 -->
<g id="node4" class="node">
<title>Node4</title>
<g id="a_node4"><a xlink:href="_descriptor_8h.html" target="_top" xlink:title=" ">
<polygon fill="white" stroke="black" points="1074,-118 1074,-137 1160,-137 1160,-118 1074,-118"/>
<text text-anchor="middle" x="1117" y="-125" font-family="Helvetica,sans-Serif" font-size="10.00">net/Descriptor.h</text>
</a>
</g>
</g>
<!-- Node3&#45;&gt;Node4 -->
<g id="edge3" class="edge">
<title>Node3&#45;&gt;Node4</title>
<path fill="none" stroke="midnightblue" d="M254.45,-184.94C267.45,-182.67 281.76,-180.45 295,-179 635.57,-141.79 726.74,-197.35 1065,-143 1070.19,-142.17 1075.6,-141 1080.88,-139.69"/>
<polygon fill="midnightblue" stroke="midnightblue" points="1082.04,-143.01 1090.8,-137.04 1080.24,-136.24 1082.04,-143.01"/>
</g>
<!-- Node5 -->
<g id="node5" class="node">
<title>Node5</title>
<g id="a_node5"><a xlink:href="_socket_address_8h.html" target="_top" xlink:title=" ">
<polygon fill="white" stroke="black" points="0,-118 0,-137 140,-137 140,-118 0,-118"/>
<text text-anchor="middle" x="70" y="-125" font-family="Helvetica,sans-Serif" font-size="10.00">net/socket/SocketAddress.h</text>
</a>
</g>
</g>
<!-- Node3&#45;&gt;Node5 -->
<g id="edge4" class="edge">
<title>Node3&#45;&gt;Node5</title>
<path fill="none" stroke="midnightblue" d="M192.28,-184.87C168.15,-173.75 126,-154.32 98.05,-141.43"/>
<polygon fill="midnightblue" stroke="midnightblue" points="99.35,-138.18 88.8,-137.17 96.42,-144.53 99.35,-138.18"/>
</g>
<!-- Node6 -->
<g id="node6" class="node">
<title>Node6</title>
<g id="a_node6"><a xlink:href="system_2_socket_8h.html" target="_top" xlink:title=" ">
<polygon fill="white" stroke="black" points="158,-118 158,-137 264,-137 264,-118 158,-118"/>
<text text-anchor="middle" x="211" y="-125" font-family="Helvetica,sans-Serif" font-size="10.00">net/system/socket.h</text>
</a>
</g>
</g>
<!-- Node3&#45;&gt;Node6 -->
<g id="edge5" class="edge">
<title>Node3&#45;&gt;Node6</title>
<path fill="none" stroke="midnightblue" d="M211,-184.73C211,-175.18 211,-159.62 211,-147.28"/>
<polygon fill="midnightblue" stroke="midnightblue" points="214.5,-147.13 211,-137.13 207.5,-147.13 214.5,-147.13"/>
</g>
<!-- Node7&#45;&gt;Node5 -->
<g id="edge7" class="edge">
<title>Node7&#45;&gt;Node5</title>
<path fill="none" stroke="midnightblue" d="M76.26,-179.4C75.1,-169.96 73.56,-157.45 72.3,-147.19"/>
<polygon fill="midnightblue" stroke="midnightblue" points="75.77,-146.69 71.07,-137.19 68.82,-147.55 75.77,-146.69"/>
</g>
<!-- Node9 -->
<g id="node9" class="node">
<title>Node9</title>
<g id="a_node9"><a xlink:href="stream_2_socket_server_8h.html" target="_top" xlink:title=" ">
<polygon fill="white" stroke="black" points="303.5,-313.5 303.5,-343.5 432.5,-343.5 432.5,-313.5 303.5,-313.5"/>
<text text-anchor="start" x="311.5" y="-331.5" font-family="Helvetica,sans-Serif" font-size="10.00">net/socket/stream/Socket</text>
<text text-anchor="middle" x="368" y="-320.5" font-family="Helvetica,sans-Serif" font-size="10.00">Server.h</text>
</a>
</g>
</g>
<!-- Node8&#45;&gt;Node9 -->
<g id="edge9" class="edge">
<title>Node8&#45;&gt;Node9</title>
<path fill="none" stroke="midnightblue" d="M368,-380.4C368,-372.64 368,-362.81 368,-353.86"/>
<polygon fill="midnightblue" stroke="midnightblue" points="371.5,-353.58 368,-343.58 364.5,-353.58 371.5,-353.58"/>
</g>
<!-- Node17 -->
<g id="node17" class="node">
<title>Node17</title>
<g id="a_node17"><a xlink:href="tls_2_socket_listener_8h.html" target="_top" xlink:title=" ">
<polygon fill="white" stroke="black" points="695.5,-313.5 695.5,-343.5 804.5,-343.5 804.5,-313.5 695.5,-313.5"/>
<text text-anchor="start" x="703.5" y="-331.5" font-family="Helvetica,sans-Serif" font-size="10.00">net/socket/stream/tls</text>
<text text-anchor="middle" x="750" y="-320.5" font-family="Helvetica,sans-Serif" font-size="10.00">/SocketListener.h</text>
</a>
</g>
</g>
<!-- Node8&#45;&gt;Node17 -->
<g id="edge19" class="edge">
<title>Node8&#45;&gt;Node17</title>
<path fill="none" stroke="midnightblue" d="M422.73,-385.19C492.09,-373.39 611.46,-353.07 685.27,-340.51"/>
<polygon fill="midnightblue" stroke="midnightblue" points="686.1,-343.92 695.37,-338.8 684.92,-337.02 686.1,-343.92"/>
</g>
<!-- Node10 -->
<g id="node10" class="node">
<title>Node10</title>
<g id="a_node10"><a xlink:href="_socket_listener_8h.html" target="_top" xlink:title=" ">
<polygon fill="white" stroke="black" points="303.5,-179.5 303.5,-209.5 432.5,-209.5 432.5,-179.5 303.5,-179.5"/>
<text text-anchor="start" x="311.5" y="-197.5" font-family="Helvetica,sans-Serif" font-size="10.00">net/socket/stream/Socket</text>
<text text-anchor="middle" x="368" y="-186.5" font-family="Helvetica,sans-Serif" font-size="10.00">Listener.h</text>
</a>
</g>
</g>
<!-- Node9&#45;&gt;Node10 -->
<g id="edge10" class="edge">
<title>Node9&#45;&gt;Node10</title>
<path fill="none" stroke="midnightblue" d="M368,-313.37C368,-291.04 368,-247.31 368,-219.85"/>
<polygon fill="midnightblue" stroke="midnightblue" points="371.5,-219.52 368,-209.52 364.5,-219.52 371.5,-219.52"/>
</g>
<!-- Node10&#45;&gt;Node6 -->
<g id="edge17" class="edge">
<title>Node10&#45;&gt;Node6</title>
<path fill="none" stroke="midnightblue" d="M333.93,-179.4C306.26,-167.94 267.61,-151.94 241.08,-140.95"/>
<polygon fill="midnightblue" stroke="midnightblue" points="242.13,-137.6 231.55,-137.01 239.45,-144.07 242.13,-137.6"/>
</g>
<!-- Node11 -->
<g id="node11" class="node">
<title>Node11</title>
<g id="a_node11"><a xlink:href="_logger_8h.html" target="_top" xlink:title=" ">
<polygon fill="white" stroke="black" points="716.5,-56.5 716.5,-75.5 785.5,-75.5 785.5,-56.5 716.5,-56.5"/>
<text text-anchor="middle" x="751" y="-63.5" font-family="Helvetica,sans-Serif" font-size="10.00">log/Logger.h</text>
</a>
</g>
</g>
<!-- Node10&#45;&gt;Node11 -->
<g id="edge11" class="edge">
<title>Node10&#45;&gt;Node11</title>
<path fill="none" stroke="midnightblue" d="M359.32,-179.2C349.67,-161.23 337.46,-130.52 354,-112 377.13,-86.11 606.89,-73.19 705.94,-68.79"/>
<polygon fill="midnightblue" stroke="midnightblue" points="706.39,-72.27 716.23,-68.34 706.09,-65.28 706.39,-72.27"/>
</g>
<!-- Node12 -->
<g id="node12" class="node">
<title>Node12</title>
<g id="a_node12"><a xlink:href="_accept_event_receiver_8h.html" target="_top" xlink:title=" ">
<polygon fill="white" stroke="black" points="393,-56.5 393,-75.5 529,-75.5 529,-56.5 393,-56.5"/>
<text text-anchor="middle" x="461" y="-63.5" font-family="Helvetica,sans-Serif" font-size="10.00">net/AcceptEventReceiver.h</text>
</a>
</g>
</g>
<!-- Node10&#45;&gt;Node12 -->
<g id="edge12" class="edge">
<title>Node10&#45;&gt;Node12</title>
<path fill="none" stroke="midnightblue" d="M347.86,-179.28C326.9,-162.71 299.28,-134.7 316,-112 331.66,-90.74 357.28,-79.22 382.66,-73.09"/>
<polygon fill="midnightblue" stroke="midnightblue" points="383.69,-76.45 392.73,-70.92 382.21,-69.6 383.69,-76.45"/>
</g>
<!-- Node14 -->
<g id="node14" class="node">
<title>Node14</title>
<g id="a_node14"><a xlink:href="_read_event_receiver_8h.html" target="_top" xlink:title=" ">
<polygon fill="white" stroke="black" points="1224,-56.5 1224,-75.5 1352,-75.5 1352,-56.5 1224,-56.5"/>
<text text-anchor="middle" x="1288" y="-63.5" font-family="Helvetica,sans-Serif" font-size="10.00">net/ReadEventReceiver.h</text>
</a>
</g>
</g>
<!-- Node10&#45;&gt;Node14 -->
<g id="edge14" class="edge">
<title>Node10&#45;&gt;Node14</title>
<path fill="none" stroke="midnightblue" d="M366.85,-179.38C366.19,-160.72 368.22,-128.32 388,-112 419.64,-85.88 1003.97,-72.35 1213.78,-68.32"/>
<polygon fill="midnightblue" stroke="midnightblue" points="1213.85,-71.81 1223.78,-68.12 1213.71,-64.82 1213.85,-71.81"/>
</g>
<!-- Node15 -->
<g id="node15" class="node">
<title>Node15</title>
<g id="a_node15"><a xlink:href="net_2socket_2stream_2_socket_context_factory_8h.html" target="_top" xlink:title=" ">
<polygon fill="white" stroke="black" points="517.5,-112.5 517.5,-142.5 646.5,-142.5 646.5,-112.5 517.5,-112.5"/>
<text text-anchor="start" x="525.5" y="-130.5" font-family="Helvetica,sans-Serif" font-size="10.00">net/socket/stream/Socket</text>
<text text-anchor="middle" x="582" y="-119.5" font-family="Helvetica,sans-Serif" font-size="10.00">ContextFactory.h</text>
</a>
</g>
</g>
<!-- Node10&#45;&gt;Node15 -->
<g id="edge16" class="edge">
<title>Node10&#45;&gt;Node15</title>
<path fill="none" stroke="midnightblue" d="M414.17,-179.48C446.83,-169.56 490.8,-156.2 525.54,-145.65"/>
<polygon fill="midnightblue" stroke="midnightblue" points="526.99,-148.87 535.54,-142.61 524.96,-142.17 526.99,-148.87"/>
</g>
<!-- Node16 -->
<g id="node16" class="node">
<title>Node16</title>
<g id="a_node16"><a xlink:href="unistd_8h.html" target="_top" xlink:title=" ">
<polygon fill="white" stroke="black" points="396.5,-118 396.5,-137 499.5,-137 499.5,-118 396.5,-118"/>
<text text-anchor="middle" x="448" y="-125" font-family="Helvetica,sans-Serif" font-size="10.00">net/system/unistd.h</text>
</a>
</g>
</g>
<!-- Node10&#45;&gt;Node16 -->
<g id="edge18" class="edge">
<title>Node10&#45;&gt;Node16</title>
<path fill="none" stroke="midnightblue" d="M385.36,-179.4C398.33,-168.86 416.03,-154.48 429.31,-143.69"/>
<polygon fill="midnightblue" stroke="midnightblue" points="431.74,-146.22 437.3,-137.19 427.33,-140.78 431.74,-146.22"/>
</g>
<!-- Node13 -->
<g id="node13" class="node">
<title>Node13</title>
<g id="a_node13"><a xlink:href="_descriptor_event_receiver_8h.html" target="_top" xlink:title=" ">
<polygon fill="white" stroke="black" points="1213,-0.5 1213,-19.5 1363,-19.5 1363,-0.5 1213,-0.5"/>
<text text-anchor="middle" x="1288" y="-7.5" font-family="Helvetica,sans-Serif" font-size="10.00">net/DescriptorEventReceiver.h</text>
</a>
</g>
</g>
<!-- Node12&#45;&gt;Node13 -->
<g id="edge13" class="edge">
<title>Node12&#45;&gt;Node13</title>
<path fill="none" stroke="midnightblue" d="M529.03,-60.56C679.09,-50.76 1038.19,-27.31 1202.86,-16.56"/>
<polygon fill="midnightblue" stroke="midnightblue" points="1203.19,-20.05 1212.94,-15.9 1202.74,-13.06 1203.19,-20.05"/>
</g>
<!-- Node14&#45;&gt;Node13 -->
<g id="edge15" class="edge">
<title>Node14&#45;&gt;Node13</title>
<path fill="none" stroke="midnightblue" d="M1288,-56.08C1288,-49.01 1288,-38.86 1288,-29.99"/>
<polygon fill="midnightblue" stroke="midnightblue" points="1291.5,-29.75 1288,-19.75 1284.5,-29.75 1291.5,-29.75"/>
</g>
<!-- Node17&#45;&gt;Node10 -->
<g id="edge21" class="edge">
<title>Node17&#45;&gt;Node10</title>
<path fill="none" stroke="midnightblue" d="M709.48,-313.5C639.28,-289.24 495.23,-239.46 418.58,-212.98"/>
<polygon fill="midnightblue" stroke="midnightblue" points="419.27,-209.51 408.68,-209.56 416.99,-216.13 419.27,-209.51"/>
</g>
<!-- Node17&#45;&gt;Node11 -->
<g id="edge20" class="edge">
<title>Node17&#45;&gt;Node11</title>
<path fill="none" stroke="midnightblue" d="M746.47,-313.25C738.4,-278.53 720.32,-186.92 734,-112 735.69,-102.76 739.17,-92.95 742.55,-84.85"/>
<polygon fill="midnightblue" stroke="midnightblue" points="745.76,-86.25 746.63,-75.69 739.37,-83.4 745.76,-86.25"/>
</g>
<!-- Node18 -->
<g id="node18" class="node">
<title>Node18</title>
<g id="a_node18"><a xlink:href="tls_2_socket_connection_8h.html" target="_top" xlink:title=" ">
<polygon fill="white" stroke="black" points="770.5,-246.5 770.5,-276.5 879.5,-276.5 879.5,-246.5 770.5,-246.5"/>
<text text-anchor="start" x="778.5" y="-264.5" font-family="Helvetica,sans-Serif" font-size="10.00">net/socket/stream/tls</text>
<text text-anchor="middle" x="825" y="-253.5" font-family="Helvetica,sans-Serif" font-size="10.00">/SocketConnection.h</text>
</a>
</g>
</g>
<!-- Node17&#45;&gt;Node18 -->
<g id="edge22" class="edge">
<title>Node17&#45;&gt;Node18</title>
<path fill="none" stroke="midnightblue" d="M766.27,-313.4C776.4,-304.62 789.6,-293.18 800.92,-283.37"/>
<polygon fill="midnightblue" stroke="midnightblue" points="803.49,-285.77 808.76,-276.58 798.91,-280.48 803.49,-285.77"/>
</g>
<!-- Node25 -->
<g id="node25" class="node">
<title>Node25</title>
<g id="a_node25"><a xlink:href="_t_l_s_handshake_8h.html" target="_top" xlink:title=" ">
<polygon fill="white" stroke="black" points="1402.5,-112.5 1402.5,-142.5 1511.5,-142.5 1511.5,-112.5 1402.5,-112.5"/>
<text text-anchor="start" x="1410.5" y="-130.5" font-family="Helvetica,sans-Serif" font-size="10.00">net/socket/stream/tls</text>
<text text-anchor="middle" x="1457" y="-119.5" font-family="Helvetica,sans-Serif" font-size="10.00">/TLSHandshake.h</text>
</a>
</g>
</g>
<!-- Node17&#45;&gt;Node25 -->
<g id="edge49" class="edge">
<title>Node17&#45;&gt;Node25</title>
<path fill="none" stroke="midnightblue" d="M804.86,-324.56C912.64,-317.1 1157.82,-291.8 1345,-210 1379.19,-195.06 1413.09,-168.28 1434.48,-149.51"/>
<polygon fill="midnightblue" stroke="midnightblue" points="1436.92,-152.03 1442.04,-142.75 1432.25,-146.81 1436.92,-152.03"/>
</g>
<!-- Node26 -->
<g id="node26" class="node">
<title>Node26</title>
<g id="a_node26"><a xlink:href="ssl__utils_8h.html" target="_top" xlink:title=" ">
<polygon fill="white" stroke="black" points="1529.5,-112.5 1529.5,-142.5 1638.5,-142.5 1638.5,-112.5 1529.5,-112.5"/>
<text text-anchor="start" x="1537.5" y="-130.5" font-family="Helvetica,sans-Serif" font-size="10.00">net/socket/stream/tls</text>
<text text-anchor="middle" x="1584" y="-119.5" font-family="Helvetica,sans-Serif" font-size="10.00">/ssl_utils.h</text>
</a>
</g>
</g>
<!-- Node17&#45;&gt;Node26 -->
<g id="edge50" class="edge">
<title>Node17&#45;&gt;Node26</title>
<path fill="none" stroke="midnightblue" d="M804.54,-327.56C969.02,-326.58 1455.58,-314.7 1565,-210 1580.28,-195.37 1584.33,-171.02 1584.97,-152.74"/>
<polygon fill="midnightblue" stroke="midnightblue" points="1588.47,-152.55 1585.01,-142.53 1581.48,-152.52 1588.47,-152.55"/>
</g>
<!-- Node18&#45;&gt;Node11 -->
<g id="edge23" class="edge">
<title>Node18&#45;&gt;Node11</title>
<path fill="none" stroke="midnightblue" d="M791.64,-246.31C776.67,-238.06 760.5,-226.08 752,-210 730.8,-169.89 739.35,-114.18 745.99,-85.57"/>
<polygon fill="midnightblue" stroke="midnightblue" points="749.42,-86.27 748.46,-75.72 742.63,-84.57 749.42,-86.27"/>
</g>
<!-- Node19 -->
<g id="node19" class="node">
<title>Node19</title>
<g id="a_node19"><a xlink:href="_socket_connection_8h.html" target="_top" xlink:title=" ">
<polygon fill="white" stroke="black" points="760.5,-179.5 760.5,-209.5 889.5,-209.5 889.5,-179.5 760.5,-179.5"/>
<text text-anchor="start" x="768.5" y="-197.5" font-family="Helvetica,sans-Serif" font-size="10.00">net/socket/stream/Socket</text>
<text text-anchor="middle" x="825" y="-186.5" font-family="Helvetica,sans-Serif" font-size="10.00">Connection.h</text>
</a>
</g>
</g>
<!-- Node18&#45;&gt;Node19 -->
<g id="edge24" class="edge">
<title>Node18&#45;&gt;Node19</title>
<path fill="none" stroke="midnightblue" d="M825,-246.4C825,-238.64 825,-228.81 825,-219.86"/>
<polygon fill="midnightblue" stroke="midnightblue" points="828.5,-219.58 825,-209.58 821.5,-219.58 828.5,-219.58"/>
</g>
<!-- Node22 -->
<g id="node22" class="node">
<title>Node22</title>
<g id="a_node22"><a xlink:href="tls_2_socket_reader_8h.html" target="_top" xlink:title=" ">
<polygon fill="white" stroke="black" points="1226.5,-179.5 1226.5,-209.5 1335.5,-209.5 1335.5,-179.5 1226.5,-179.5"/>
<text text-anchor="start" x="1234.5" y="-197.5" font-family="Helvetica,sans-Serif" font-size="10.00">net/socket/stream/tls</text>
<text text-anchor="middle" x="1281" y="-186.5" font-family="Helvetica,sans-Serif" font-size="10.00">/SocketReader.h</text>
</a>
</g>
</g>
<!-- Node18&#45;&gt;Node22 -->
<g id="edge29" class="edge">
<title>Node18&#45;&gt;Node22</title>
<path fill="none" stroke="midnightblue" d="M879.55,-252.72C964,-240.69 1126.04,-217.59 1216.28,-204.73"/>
<polygon fill="midnightblue" stroke="midnightblue" points="1216.98,-208.16 1226.39,-203.28 1215.99,-201.23 1216.98,-208.16"/>
</g>
<!-- Node27 -->
<g id="node27" class="node">
<title>Node27</title>
<g id="a_node27"><a xlink:href="tls_2_socket_writer_8h.html" target="_top" xlink:title=" ">
<polygon fill="white" stroke="black" points="1446.5,-179.5 1446.5,-209.5 1555.5,-209.5 1555.5,-179.5 1446.5,-179.5"/>
<text text-anchor="start" x="1454.5" y="-197.5" font-family="Helvetica,sans-Serif" font-size="10.00">net/socket/stream/tls</text>
<text text-anchor="middle" x="1501" y="-186.5" font-family="Helvetica,sans-Serif" font-size="10.00">/SocketWriter.h</text>
</a>
</g>
</g>
<!-- Node18&#45;&gt;Node27 -->
<g id="edge40" class="edge">
<title>Node18&#45;&gt;Node27</title>
<path fill="none" stroke="midnightblue" d="M879.75,-255.24C1003.36,-243.35 1303.58,-214.48 1436.2,-201.73"/>
<polygon fill="midnightblue" stroke="midnightblue" points="1436.6,-205.21 1446.21,-200.77 1435.93,-198.24 1436.6,-205.21"/>
</g>
<!-- Node19&#45;&gt;Node11 -->
<g id="edge25" class="edge">
<title>Node19&#45;&gt;Node11</title>
<path fill="none" stroke="midnightblue" d="M805.11,-179.46C793.56,-170.32 779.62,-157.44 771,-143 760.42,-125.28 755.36,-101.96 752.99,-85.85"/>
<polygon fill="midnightblue" stroke="midnightblue" points="756.42,-85.06 751.7,-75.58 749.47,-85.93 756.42,-85.06"/>
</g>
<!-- Node19&#45;&gt;Node15 -->
<g id="edge28" class="edge">
<title>Node19&#45;&gt;Node15</title>
<path fill="none" stroke="midnightblue" d="M772.57,-179.48C735.01,-169.43 684.27,-155.86 644.59,-145.24"/>
<polygon fill="midnightblue" stroke="midnightblue" points="645.32,-141.81 634.75,-142.61 643.51,-148.58 645.32,-141.81"/>
</g>
<!-- Node20 -->
<g id="node20" class="node">
<title>Node20</title>
<g id="a_node20"><a xlink:href="_socket_connection_base_8h.html" target="_top" xlink:title=" ">
<polygon fill="white" stroke="black" points="779.5,-112.5 779.5,-142.5 908.5,-142.5 908.5,-112.5 779.5,-112.5"/>
<text text-anchor="start" x="787.5" y="-130.5" font-family="Helvetica,sans-Serif" font-size="10.00">net/socket/stream/Socket</text>
<text text-anchor="middle" x="844" y="-119.5" font-family="Helvetica,sans-Serif" font-size="10.00">ConnectionBase.h</text>
</a>
</g>
</g>
<!-- Node19&#45;&gt;Node20 -->
<g id="edge26" class="edge">
<title>Node19&#45;&gt;Node20</title>
<path fill="none" stroke="midnightblue" d="M829.12,-179.4C831.44,-171.47 834.39,-161.38 837.05,-152.27"/>
<polygon fill="midnightblue" stroke="midnightblue" points="840.44,-153.16 839.89,-142.58 833.72,-151.19 840.44,-153.16"/>
</g>
<!-- Node21 -->
<g id="node21" class="node">
<title>Node21</title>
<g id="a_node21"><a xlink:href="net_2socket_2stream_2_socket_context_8h.html" target="_top" xlink:title=" ">
<polygon fill="white" stroke="black" points="926.5,-112.5 926.5,-142.5 1055.5,-142.5 1055.5,-112.5 926.5,-112.5"/>
<text text-anchor="start" x="934.5" y="-130.5" font-family="Helvetica,sans-Serif" font-size="10.00">net/socket/stream/Socket</text>
<text text-anchor="middle" x="991" y="-119.5" font-family="Helvetica,sans-Serif" font-size="10.00">Context.h</text>
</a>
</g>
</g>
<!-- Node19&#45;&gt;Node21 -->
<g id="edge27" class="edge">
<title>Node19&#45;&gt;Node21</title>
<path fill="none" stroke="midnightblue" d="M861.02,-179.4C885.82,-169.69 918.96,-156.71 945.57,-146.29"/>
<polygon fill="midnightblue" stroke="midnightblue" points="947.02,-149.48 955.05,-142.58 944.46,-142.96 947.02,-149.48"/>
</g>
<!-- Node22&#45;&gt;Node4 -->
<g id="edge31" class="edge">
<title>Node22&#45;&gt;Node4</title>
<path fill="none" stroke="midnightblue" d="M1245.41,-179.4C1216.38,-167.89 1175.78,-151.8 1148.05,-140.81"/>
<polygon fill="midnightblue" stroke="midnightblue" points="1149.05,-137.44 1138.46,-137.01 1146.47,-143.95 1149.05,-137.44"/>
</g>
<!-- Node22&#45;&gt;Node11 -->
<g id="edge30" class="edge">
<title>Node22&#45;&gt;Node11</title>
<path fill="none" stroke="midnightblue" d="M1259.97,-179.5C1245.25,-169.56 1225.2,-155.76 1208,-143 1190.22,-129.81 1189.48,-120.41 1169,-112 1102.28,-84.62 889.45,-72.69 795.87,-68.68"/>
<polygon fill="midnightblue" stroke="midnightblue" points="795.74,-65.17 785.6,-68.25 795.44,-72.17 795.74,-65.17"/>
</g>
<!-- Node23 -->
<g id="node23" class="node">
<title>Node23</title>
<g id="a_node23"><a xlink:href="_write_event_receiver_8h.html" target="_top" xlink:title=" ">
<polygon fill="white" stroke="black" points="1385,-56.5 1385,-75.5 1513,-75.5 1513,-56.5 1385,-56.5"/>
<text text-anchor="middle" x="1449" y="-63.5" font-family="Helvetica,sans-Serif" font-size="10.00">net/WriteEventReceiver.h</text>
</a>
</g>
</g>
<!-- Node22&#45;&gt;Node23 -->
<g id="edge32" class="edge">
<title>Node22&#45;&gt;Node23</title>
<path fill="none" stroke="midnightblue" d="M1302.69,-179.37C1317.62,-169.48 1337.78,-155.81 1355,-143 1362.53,-137.4 1405.39,-102.55 1430.56,-82.04"/>
<polygon fill="midnightblue" stroke="midnightblue" points="1432.8,-84.73 1438.34,-75.7 1428.38,-79.3 1432.8,-84.73"/>
</g>
<!-- Node24 -->
<g id="node24" class="node">
<title>Node24</title>
<g id="a_node24"><a xlink:href="_socket_reader_8h.html" target="_top" xlink:title=" ">
<polygon fill="white" stroke="black" points="1216.5,-112.5 1216.5,-142.5 1345.5,-142.5 1345.5,-112.5 1216.5,-112.5"/>
<text text-anchor="start" x="1224.5" y="-130.5" font-family="Helvetica,sans-Serif" font-size="10.00">net/socket/stream/Socket</text>
<text text-anchor="middle" x="1281" y="-119.5" font-family="Helvetica,sans-Serif" font-size="10.00">Reader.h</text>
</a>
</g>
</g>
<!-- Node22&#45;&gt;Node24 -->
<g id="edge34" class="edge">
<title>Node22&#45;&gt;Node24</title>
<path fill="none" stroke="midnightblue" d="M1281,-179.4C1281,-171.64 1281,-161.81 1281,-152.86"/>
<polygon fill="midnightblue" stroke="midnightblue" points="1284.5,-152.58 1281,-142.58 1277.5,-152.58 1284.5,-152.58"/>
</g>
<!-- Node22&#45;&gt;Node25 -->
<g id="edge36" class="edge">
<title>Node22&#45;&gt;Node25</title>
<path fill="none" stroke="midnightblue" d="M1319.19,-179.4C1345.6,-169.64 1380.93,-156.59 1409.2,-146.15"/>
<polygon fill="midnightblue" stroke="midnightblue" points="1410.72,-149.32 1418.89,-142.58 1408.29,-142.76 1410.72,-149.32"/>
</g>
<!-- Node22&#45;&gt;Node26 -->
<g id="edge39" class="edge">
<title>Node22&#45;&gt;Node26</title>
<path fill="none" stroke="midnightblue" d="M1335.87,-182.26C1382.28,-172.69 1450.79,-158.39 1519.28,-143.36"/>
<polygon fill="midnightblue" stroke="midnightblue" points="1520.36,-146.7 1529.38,-141.14 1518.86,-139.87 1520.36,-146.7"/>
</g>
<!-- Node23&#45;&gt;Node13 -->
<g id="edge33" class="edge">
<title>Node23&#45;&gt;Node13</title>
<path fill="none" stroke="midnightblue" d="M1423.49,-56.44C1396.4,-47.36 1353.41,-32.94 1323.13,-22.78"/>
<polygon fill="midnightblue" stroke="midnightblue" points="1323.99,-19.38 1313.39,-19.52 1321.76,-26.01 1323.99,-19.38"/>
</g>
<!-- Node24&#45;&gt;Node14 -->
<g id="edge35" class="edge">
<title>Node24&#45;&gt;Node14</title>
<path fill="none" stroke="midnightblue" d="M1282.66,-112.4C1283.59,-104.47 1284.77,-94.46 1285.78,-85.86"/>
<polygon fill="midnightblue" stroke="midnightblue" points="1289.29,-86 1286.98,-75.66 1282.34,-85.18 1289.29,-86"/>
</g>
<!-- Node25&#45;&gt;Node14 -->
<g id="edge37" class="edge">
<title>Node25&#45;&gt;Node14</title>
<path fill="none" stroke="midnightblue" d="M1416.95,-112.4C1388.09,-102.24 1349.55,-88.67 1322.15,-79.02"/>
<polygon fill="midnightblue" stroke="midnightblue" points="1323.19,-75.68 1312.59,-75.66 1320.86,-82.28 1323.19,-75.68"/>
</g>
<!-- Node25&#45;&gt;Node23 -->
<g id="edge38" class="edge">
<title>Node25&#45;&gt;Node23</title>
<path fill="none" stroke="midnightblue" d="M1455.1,-112.4C1454.03,-104.38 1452.66,-94.23 1451.5,-85.57"/>
<polygon fill="midnightblue" stroke="midnightblue" points="1454.97,-85.1 1450.16,-75.66 1448.03,-86.04 1454.97,-85.1"/>
</g>
<!-- Node27&#45;&gt;Node4 -->
<g id="edge42" class="edge">
<title>Node27&#45;&gt;Node4</title>
<path fill="none" stroke="midnightblue" d="M1446.39,-184.26C1372.82,-171.8 1242.74,-149.78 1170.01,-137.47"/>
<polygon fill="midnightblue" stroke="midnightblue" points="1170.58,-134.02 1160.14,-135.8 1169.41,-140.92 1170.58,-134.02"/>
</g>
<!-- Node27&#45;&gt;Node11 -->
<g id="edge41" class="edge">
<title>Node27&#45;&gt;Node11</title>
<path fill="none" stroke="midnightblue" d="M1555.6,-183.27C1610.09,-170.8 1681.28,-146.99 1648,-112 1618.35,-80.83 972.98,-69.96 795.7,-67.55"/>
<polygon fill="midnightblue" stroke="midnightblue" points="795.72,-64.05 785.68,-67.42 795.63,-71.05 795.72,-64.05"/>
</g>
<!-- Node27&#45;&gt;Node14 -->
<g id="edge43" class="edge">
<title>Node27&#45;&gt;Node14</title>
<path fill="none" stroke="midnightblue" d="M1555.66,-187.64C1622.17,-178.43 1720.96,-156.8 1681,-112 1678.37,-109.05 1475.54,-86.99 1362.35,-74.89"/>
<polygon fill="midnightblue" stroke="midnightblue" points="1362.67,-71.41 1352.35,-73.82 1361.93,-78.37 1362.67,-71.41"/>
</g>
<!-- Node27&#45;&gt;Node25 -->
<g id="edge47" class="edge">
<title>Node27&#45;&gt;Node25</title>
<path fill="none" stroke="midnightblue" d="M1491.45,-179.4C1485.86,-171.13 1478.67,-160.51 1472.3,-151.1"/>
<polygon fill="midnightblue" stroke="midnightblue" points="1475.03,-148.9 1466.53,-142.58 1469.24,-152.82 1475.03,-148.9"/>
</g>
<!-- Node27&#45;&gt;Node26 -->
<g id="edge48" class="edge">
<title>Node27&#45;&gt;Node26</title>
<path fill="none" stroke="midnightblue" d="M1519.01,-179.4C1530.43,-170.45 1545.39,-158.74 1558.08,-148.8"/>
<polygon fill="midnightblue" stroke="midnightblue" points="1560.31,-151.5 1566.03,-142.58 1555.99,-145.99 1560.31,-151.5"/>
</g>
<!-- Node28 -->
<g id="node28" class="node">
<title>Node28</title>
<g id="a_node28"><a xlink:href="_socket_writer_8h.html" target="_top" xlink:title=" ">
<polygon fill="white" stroke="black" points="1733.5,-112.5 1733.5,-142.5 1862.5,-142.5 1862.5,-112.5 1733.5,-112.5"/>
<text text-anchor="start" x="1741.5" y="-130.5" font-family="Helvetica,sans-Serif" font-size="10.00">net/socket/stream/Socket</text>
<text text-anchor="middle" x="1798" y="-119.5" font-family="Helvetica,sans-Serif" font-size="10.00">Writer.h</text>
</a>
</g>
</g>
<!-- Node27&#45;&gt;Node28 -->
<g id="edge44" class="edge">
<title>Node27&#45;&gt;Node28</title>
<path fill="none" stroke="midnightblue" d="M1555.82,-181.5C1603.14,-171.15 1671.9,-156.1 1724.08,-144.68"/>
<polygon fill="midnightblue" stroke="midnightblue" points="1724.93,-148.07 1733.95,-142.52 1723.43,-141.24 1724.93,-148.07"/>
</g>
<!-- Node28&#45;&gt;Node11 -->
<g id="edge45" class="edge">
<title>Node28&#45;&gt;Node11</title>
<path fill="none" stroke="midnightblue" d="M1733.42,-117.62C1716.4,-115.52 1698.03,-113.47 1681,-112 1341.52,-82.79 930.56,-71.17 796,-67.98"/>
<polygon fill="midnightblue" stroke="midnightblue" points="795.77,-64.48 785.69,-67.74 795.6,-71.47 795.77,-64.48"/>
</g>
<!-- Node28&#45;&gt;Node23 -->
<g id="edge46" class="edge">
<title>Node28&#45;&gt;Node23</title>
<path fill="none" stroke="midnightblue" d="M1733.35,-114.54C1728.49,-113.67 1723.67,-112.82 1719,-112 1648.05,-99.58 1566.47,-86.09 1511.72,-77.15"/>
<polygon fill="midnightblue" stroke="midnightblue" points="1512.25,-73.69 1501.81,-75.54 1511.12,-80.6 1512.25,-73.69"/>
</g>
</g>
</svg>
