<?xml version="1.0" encoding="UTF-8" standalone="no"?>
<!DOCTYPE svg PUBLIC "-//W3C//DTD SVG 1.1//EN"
 "http://www.w3.org/Graphics/SVG/1.1/DTD/svg11.dtd">
<!-- Generated by graphviz version 2.43.0 (0)
 -->
<!-- Title: net/socket/ip/tcp/ipv4/tls/SocketClient.h Pages: 1 -->
<svg width="938pt" height="475pt"
 viewBox="0.00 0.00 938.00 475.00" xmlns="http://www.w3.org/2000/svg" xmlns:xlink="http://www.w3.org/1999/xlink">
<g id="graph0" class="graph" transform="scale(1 1) rotate(0) translate(4 471)">
<title>net/socket/ip/tcp/ipv4/tls/SocketClient.h</title>
<polygon fill="white" stroke="transparent" points="-4,4 -4,-471 934,-471 934,4 -4,4"/>
<!-- Node1 -->
<g id="node1" class="node">
<title>Node1</title>
<g id="a_node1"><a xlink:title=" ">
<polygon fill="#bfbfbf" stroke="black" points="292.5,-436.5 292.5,-466.5 402.5,-466.5 402.5,-436.5 292.5,-436.5"/>
<text text-anchor="start" x="300.5" y="-454.5" font-family="Helvetica,sans-Serif" font-size="10.00">net/socket/ip/tcp/ipv4</text>
<text text-anchor="middle" x="347.5" y="-443.5" font-family="Helvetica,sans-Serif" font-size="10.00">/tls/SocketClient.h</text>
</a>
</g>
</g>
<!-- Node2 -->
<g id="node2" class="node">
<title>Node2</title>
<g id="a_node2"><a xlink:href="ip_2tcp_2_socket_client_8h.html" target="_top" xlink:title=" ">
<polygon fill="white" stroke="black" points="179.5,-375 179.5,-394 319.5,-394 319.5,-375 179.5,-375"/>
<text text-anchor="middle" x="249.5" y="-382" font-family="Helvetica,sans-Serif" font-size="10.00">socket/ip/tcp/SocketClient.h</text>
</a>
</g>
</g>
<!-- Node1&#45;&gt;Node2 -->
<g id="edge1" class="edge">
<title>Node1&#45;&gt;Node2</title>
<path fill="none" stroke="midnightblue" d="M326.24,-436.4C309.8,-425.5 287.16,-410.48 270.73,-399.58"/>
<polygon fill="midnightblue" stroke="midnightblue" points="272.59,-396.62 262.33,-394.01 268.72,-402.45 272.59,-396.62"/>
</g>
<!-- Node3 -->
<g id="node3" class="node">
<title>Node3</title>
<g id="a_node3"><a xlink:href="ip_2tcp_2ipv4_2_socket_8h.html" target="_top" xlink:title=" ">
<polygon fill="white" stroke="black" points="148.5,-246.5 148.5,-276.5 242.5,-276.5 242.5,-246.5 148.5,-246.5"/>
<text text-anchor="start" x="156.5" y="-264.5" font-family="Helvetica,sans-Serif" font-size="10.00">socket/ip/tcp/ipv4</text>
<text text-anchor="middle" x="195.5" y="-253.5" font-family="Helvetica,sans-Serif" font-size="10.00">/Socket.h</text>
</a>
</g>
</g>
<!-- Node1&#45;&gt;Node3 -->
<g id="edge2" class="edge">
<title>Node1&#45;&gt;Node3</title>
<path fill="none" stroke="midnightblue" d="M346.99,-436.46C345.77,-419.32 341.75,-390.02 328.5,-369 304.31,-330.62 261.37,-300 230.83,-281.62"/>
<polygon fill="midnightblue" stroke="midnightblue" points="232.57,-278.59 222.18,-276.54 229.03,-284.62 232.57,-278.59"/>
</g>
<!-- Node8 -->
<g id="node8" class="node">
<title>Node8</title>
<g id="a_node8"><a xlink:href="sock__stream_2tls_2_socket_client_8h.html" target="_top" xlink:title=" ">
<polygon fill="white" stroke="black" points="526,-369.5 526,-399.5 631,-399.5 631,-369.5 526,-369.5"/>
<text text-anchor="start" x="534" y="-387.5" font-family="Helvetica,sans-Serif" font-size="10.00">socket/sock_stream</text>
<text text-anchor="middle" x="578.5" y="-376.5" font-family="Helvetica,sans-Serif" font-size="10.00">/tls/SocketClient.h</text>
</a>
</g>
</g>
<!-- Node1&#45;&gt;Node8 -->
<g id="edge9" class="edge">
<title>Node1&#45;&gt;Node8</title>
<path fill="none" stroke="midnightblue" d="M397.34,-436.48C432.89,-426.47 480.87,-412.97 518.52,-402.38"/>
<polygon fill="midnightblue" stroke="midnightblue" points="519.67,-405.69 528.35,-399.61 517.78,-398.95 519.67,-405.69"/>
</g>
<!-- Node4 -->
<g id="node4" class="node">
<title>Node4</title>
<g id="a_node4"><a xlink:href="_descriptor_8h.html" target="_top" xlink:title=" ">
<polygon fill="white" stroke="black" points="197,-118 197,-137 266,-137 266,-118 197,-118"/>
<text text-anchor="middle" x="231.5" y="-125" font-family="Helvetica,sans-Serif" font-size="10.00">Descriptor.h</text>
</a>
</g>
</g>
<!-- Node3&#45;&gt;Node4 -->
<g id="edge3" class="edge">
<title>Node3&#45;&gt;Node4</title>
<path fill="none" stroke="midnightblue" d="M208.81,-246.3C216.77,-236.81 226.15,-223.62 230.5,-210 237.08,-189.41 236.16,-164.38 234.35,-147.53"/>
<polygon fill="midnightblue" stroke="midnightblue" points="237.79,-146.8 233.04,-137.33 230.85,-147.7 237.79,-146.8"/>
</g>
<!-- Node5 -->
<g id="node5" class="node">
<title>Node5</title>
<g id="a_node5"><a xlink:href="_socket_8h.html" target="_top" xlink:title=" ">
<polygon fill="white" stroke="black" points="133.5,-185 133.5,-204 221.5,-204 221.5,-185 133.5,-185"/>
<text text-anchor="middle" x="177.5" y="-192" font-family="Helvetica,sans-Serif" font-size="10.00">socket/Socket.h</text>
</a>
</g>
</g>
<!-- Node3&#45;&gt;Node5 -->
<g id="edge4" class="edge">
<title>Node3&#45;&gt;Node5</title>
<path fill="none" stroke="midnightblue" d="M191.59,-246.4C188.95,-236.86 185.44,-224.18 182.58,-213.86"/>
<polygon fill="midnightblue" stroke="midnightblue" points="185.95,-212.9 179.91,-204.19 179.2,-214.77 185.95,-212.9"/>
</g>
<!-- Node7 -->
<g id="node7" class="node">
<title>Node7</title>
<g id="a_node7"><a xlink:href="ipv4_2_inet_address_8h.html" target="_top" xlink:title=" ">
<polygon fill="white" stroke="black" points="0,-179.5 0,-209.5 115,-209.5 115,-179.5 0,-179.5"/>
<text text-anchor="start" x="8" y="-197.5" font-family="Helvetica,sans-Serif" font-size="10.00">socket/ip/address/ipv4</text>
<text text-anchor="middle" x="57.5" y="-186.5" font-family="Helvetica,sans-Serif" font-size="10.00">/InetAddress.h</text>
</a>
</g>
</g>
<!-- Node3&#45;&gt;Node7 -->
<g id="edge7" class="edge">
<title>Node3&#45;&gt;Node7</title>
<path fill="none" stroke="midnightblue" d="M165.56,-246.4C145.3,-236.86 118.35,-224.16 96.44,-213.84"/>
<polygon fill="midnightblue" stroke="midnightblue" points="97.92,-210.67 87.39,-209.58 94.94,-217 97.92,-210.67"/>
</g>
<!-- Node5&#45;&gt;Node4 -->
<g id="edge5" class="edge">
<title>Node5&#45;&gt;Node4</title>
<path fill="none" stroke="midnightblue" d="M184.78,-184.73C193.2,-174.6 207.25,-157.69 217.75,-145.06"/>
<polygon fill="midnightblue" stroke="midnightblue" points="220.63,-147.06 224.33,-137.13 215.25,-142.58 220.63,-147.06"/>
</g>
<!-- Node6 -->
<g id="node6" class="node">
<title>Node6</title>
<g id="a_node6"><a xlink:href="_socket_address_8h.html" target="_top" xlink:title=" ">
<polygon fill="white" stroke="black" points="16.5,-118 16.5,-137 140.5,-137 140.5,-118 16.5,-118"/>
<text text-anchor="middle" x="78.5" y="-125" font-family="Helvetica,sans-Serif" font-size="10.00">socket/SocketAddress.h</text>
</a>
</g>
</g>
<!-- Node5&#45;&gt;Node6 -->
<g id="edge6" class="edge">
<title>Node5&#45;&gt;Node6</title>
<path fill="none" stroke="midnightblue" d="M164.15,-184.73C147.75,-173.96 119.7,-155.55 100.19,-142.74"/>
<polygon fill="midnightblue" stroke="midnightblue" points="101.92,-139.69 91.64,-137.13 98.08,-145.54 101.92,-139.69"/>
</g>
<!-- Node7&#45;&gt;Node6 -->
<g id="edge8" class="edge">
<title>Node7&#45;&gt;Node6</title>
<path fill="none" stroke="midnightblue" d="M62.06,-179.4C65.14,-169.86 69.23,-157.18 72.57,-146.86"/>
<polygon fill="midnightblue" stroke="midnightblue" points="75.95,-147.79 75.69,-137.19 69.29,-145.63 75.95,-147.79"/>
</g>
<!-- Node9 -->
<g id="node9" class="node">
<title>Node9</title>
<g id="a_node9"><a xlink:href="tls_2_socket_connector_8h.html" target="_top" xlink:title=" ">
<polygon fill="white" stroke="black" points="528.5,-313.5 528.5,-332.5 628.5,-332.5 628.5,-313.5 528.5,-313.5"/>
<text text-anchor="middle" x="578.5" y="-320.5" font-family="Helvetica,sans-Serif" font-size="10.00">SocketConnector.h</text>
</a>
</g>
</g>
<!-- Node8&#45;&gt;Node9 -->
<g id="edge10" class="edge">
<title>Node8&#45;&gt;Node9</title>
<path fill="none" stroke="midnightblue" d="M578.5,-369.4C578.5,-361.47 578.5,-351.46 578.5,-342.86"/>
<polygon fill="midnightblue" stroke="midnightblue" points="582,-342.66 578.5,-332.66 575,-342.66 582,-342.66"/>
</g>
<!-- Node25 -->
<g id="node25" class="node">
<title>Node25</title>
<g id="a_node25"><a xlink:href="sock__stream_2_socket_client_8h.html" target="_top" xlink:title=" ">
<polygon fill="white" stroke="black" points="727,-246.5 727,-276.5 832,-276.5 832,-246.5 727,-246.5"/>
<text text-anchor="start" x="735" y="-264.5" font-family="Helvetica,sans-Serif" font-size="10.00">socket/sock_stream</text>
<text text-anchor="middle" x="779.5" y="-253.5" font-family="Helvetica,sans-Serif" font-size="10.00">/SocketClient.h</text>
</a>
</g>
</g>
<!-- Node8&#45;&gt;Node25 -->
<g id="edge37" class="edge">
<title>Node8&#45;&gt;Node25</title>
<path fill="none" stroke="midnightblue" d="M601.95,-369.38C637.96,-347.71 706.94,-306.18 747.51,-281.76"/>
<polygon fill="midnightblue" stroke="midnightblue" points="749.44,-284.68 756.2,-276.53 745.83,-278.69 749.44,-284.68"/>
</g>
<!-- Node9&#45;&gt;Node4 -->
<g id="edge11" class="edge">
<title>Node9&#45;&gt;Node4</title>
<path fill="none" stroke="midnightblue" d="M541.46,-313.43C485.97,-299.21 379.94,-266.55 306.5,-210 281.59,-190.82 257.91,-162.89 244.04,-145.22"/>
<polygon fill="midnightblue" stroke="midnightblue" points="246.6,-142.81 237.73,-137.01 241.05,-147.07 246.6,-142.81"/>
</g>
<!-- Node10 -->
<g id="node10" class="node">
<title>Node10</title>
<g id="a_node10"><a xlink:href="_logger_8h.html" target="_top" xlink:title=" ">
<polygon fill="white" stroke="black" points="754,-118 754,-137 807,-137 807,-118 754,-118"/>
<text text-anchor="middle" x="780.5" y="-125" font-family="Helvetica,sans-Serif" font-size="10.00">Logger.h</text>
</a>
</g>
</g>
<!-- Node9&#45;&gt;Node10 -->
<g id="edge12" class="edge">
<title>Node9&#45;&gt;Node10</title>
<path fill="none" stroke="midnightblue" d="M607.67,-313.4C628.71,-306.15 656.92,-294.18 677.5,-277 722.75,-239.23 757.05,-176.93 772.11,-146.44"/>
<polygon fill="midnightblue" stroke="midnightblue" points="775.43,-147.6 776.62,-137.07 769.13,-144.56 775.43,-147.6"/>
</g>
<!-- Node11 -->
<g id="node11" class="node">
<title>Node11</title>
<g id="a_node11"><a xlink:href="tls_2_socket_connection_8h.html" target="_top" xlink:title=" ">
<polygon fill="white" stroke="black" points="443,-252 443,-271 548,-271 548,-252 443,-252"/>
<text text-anchor="middle" x="495.5" y="-259" font-family="Helvetica,sans-Serif" font-size="10.00">SocketConnection.h</text>
</a>
</g>
</g>
<!-- Node9&#45;&gt;Node11 -->
<g id="edge13" class="edge">
<title>Node9&#45;&gt;Node11</title>
<path fill="none" stroke="midnightblue" d="M566.61,-313.48C553.3,-303.93 531.5,-288.31 515.54,-276.87"/>
<polygon fill="midnightblue" stroke="midnightblue" points="517.54,-273.99 507.37,-271.01 513.46,-279.68 517.54,-273.99"/>
</g>
<!-- Node22 -->
<g id="node22" class="node">
<title>Node22</title>
<g id="a_node22"><a xlink:href="_socket_connector_8h.html" target="_top" xlink:title=" ">
<polygon fill="white" stroke="black" points="783,-179.5 783,-209.5 888,-209.5 888,-179.5 783,-179.5"/>
<text text-anchor="start" x="791" y="-197.5" font-family="Helvetica,sans-Serif" font-size="10.00">socket/sock_stream</text>
<text text-anchor="middle" x="835.5" y="-186.5" font-family="Helvetica,sans-Serif" font-size="10.00">/SocketConnector.h</text>
</a>
</g>
</g>
<!-- Node9&#45;&gt;Node22 -->
<g id="edge31" class="edge">
<title>Node9&#45;&gt;Node22</title>
<path fill="none" stroke="midnightblue" d="M578.07,-313.27C577.79,-297.44 579.64,-263.99 598.5,-246 623.12,-222.52 711.24,-208.55 772.79,-201.45"/>
<polygon fill="midnightblue" stroke="midnightblue" points="773.26,-204.92 782.81,-200.32 772.48,-197.96 773.26,-204.92"/>
</g>
<!-- Node24 -->
<g id="node24" class="node">
<title>Node24</title>
<g id="a_node24"><a xlink:href="ssl__utils_8h.html" target="_top" xlink:title=" ">
<polygon fill="white" stroke="black" points="607,-252 607,-271 668,-271 668,-252 607,-252"/>
<text text-anchor="middle" x="637.5" y="-259" font-family="Helvetica,sans-Serif" font-size="10.00">ssl_utils.h</text>
</a>
</g>
</g>
<!-- Node9&#45;&gt;Node24 -->
<g id="edge36" class="edge">
<title>Node9&#45;&gt;Node24</title>
<path fill="none" stroke="midnightblue" d="M586.95,-313.48C596.07,-304.28 610.77,-289.46 621.98,-278.16"/>
<polygon fill="midnightblue" stroke="midnightblue" points="624.51,-280.57 629.06,-271.01 619.54,-275.65 624.51,-280.57"/>
</g>
<!-- Node12 -->
<g id="node12" class="node">
<title>Node12</title>
<g id="a_node12"><a xlink:href="_socket_connection_8h.html" target="_top" xlink:title=" ">
<polygon fill="white" stroke="black" points="315.5,-179.5 315.5,-209.5 423.5,-209.5 423.5,-179.5 315.5,-179.5"/>
<text text-anchor="start" x="323.5" y="-197.5" font-family="Helvetica,sans-Serif" font-size="10.00">socket/sock_stream</text>
<text text-anchor="middle" x="369.5" y="-186.5" font-family="Helvetica,sans-Serif" font-size="10.00">/SocketConnection.h</text>
</a>
</g>
</g>
<!-- Node11&#45;&gt;Node12 -->
<g id="edge14" class="edge">
<title>Node11&#45;&gt;Node12</title>
<path fill="none" stroke="midnightblue" d="M478.77,-251.87C460.33,-242.36 430.11,-226.77 406.12,-214.39"/>
<polygon fill="midnightblue" stroke="midnightblue" points="407.42,-211.13 396.93,-209.65 404.21,-217.35 407.42,-211.13"/>
</g>
<!-- Node15 -->
<g id="node15" class="node">
<title>Node15</title>
<g id="a_node15"><a xlink:href="tls_2_socket_reader_8h.html" target="_top" xlink:title=" ">
<polygon fill="white" stroke="black" points="442,-179.5 442,-209.5 547,-209.5 547,-179.5 442,-179.5"/>
<text text-anchor="start" x="450" y="-197.5" font-family="Helvetica,sans-Serif" font-size="10.00">socket/sock_stream</text>
<text text-anchor="middle" x="494.5" y="-186.5" font-family="Helvetica,sans-Serif" font-size="10.00">/tls/SocketReader.h</text>
</a>
</g>
</g>
<!-- Node11&#45;&gt;Node15 -->
<g id="edge17" class="edge">
<title>Node11&#45;&gt;Node15</title>
<path fill="none" stroke="midnightblue" d="M495.37,-251.73C495.24,-243.54 495.04,-230.92 494.87,-219.71"/>
<polygon fill="midnightblue" stroke="midnightblue" points="498.37,-219.53 494.72,-209.59 491.37,-219.64 498.37,-219.53"/>
</g>
<!-- Node20 -->
<g id="node20" class="node">
<title>Node20</title>
<g id="a_node20"><a xlink:href="tls_2_socket_writer_8h.html" target="_top" xlink:title=" ">
<polygon fill="white" stroke="black" points="565,-179.5 565,-209.5 670,-209.5 670,-179.5 565,-179.5"/>
<text text-anchor="start" x="573" y="-197.5" font-family="Helvetica,sans-Serif" font-size="10.00">socket/sock_stream</text>
<text text-anchor="middle" x="617.5" y="-186.5" font-family="Helvetica,sans-Serif" font-size="10.00">/tls/SocketWriter.h</text>
</a>
</g>
</g>
<!-- Node11&#45;&gt;Node20 -->
<g id="edge25" class="edge">
<title>Node11&#45;&gt;Node20</title>
<path fill="none" stroke="midnightblue" d="M511.7,-251.87C529.55,-242.36 558.82,-226.77 582.05,-214.39"/>
<polygon fill="midnightblue" stroke="midnightblue" points="583.76,-217.44 590.94,-209.65 580.47,-211.26 583.76,-217.44"/>
</g>
<!-- Node13 -->
<g id="node13" class="node">
<title>Node13</title>
<g id="a_node13"><a xlink:href="_socket_connection_base_8h.html" target="_top" xlink:title=" ">
<polygon fill="white" stroke="black" points="284.5,-118 284.5,-137 412.5,-137 412.5,-118 284.5,-118"/>
<text text-anchor="middle" x="348.5" y="-125" font-family="Helvetica,sans-Serif" font-size="10.00">SocketConnectionBase.h</text>
</a>
</g>
</g>
<!-- Node12&#45;&gt;Node13 -->
<g id="edge15" class="edge">
<title>Node12&#45;&gt;Node13</title>
<path fill="none" stroke="midnightblue" d="M364.94,-179.4C361.86,-169.86 357.77,-157.18 354.43,-146.86"/>
<polygon fill="midnightblue" stroke="midnightblue" points="357.71,-145.63 351.31,-137.19 351.05,-147.79 357.71,-145.63"/>
</g>
<!-- Node14 -->
<g id="node14" class="node">
<title>Node14</title>
<g id="a_node14"><a xlink:href="_attribute_injector_8h.html" target="_top" xlink:title=" ">
<polygon fill="white" stroke="black" points="302,-56.5 302,-75.5 395,-75.5 395,-56.5 302,-56.5"/>
<text text-anchor="middle" x="348.5" y="-63.5" font-family="Helvetica,sans-Serif" font-size="10.00">AttributeInjector.h</text>
</a>
</g>
</g>
<!-- Node13&#45;&gt;Node14 -->
<g id="edge16" class="edge">
<title>Node13&#45;&gt;Node14</title>
<path fill="none" stroke="midnightblue" d="M348.5,-117.98C348.5,-109.58 348.5,-96.48 348.5,-85.66"/>
<polygon fill="midnightblue" stroke="midnightblue" points="352,-85.51 348.5,-75.51 345,-85.51 352,-85.51"/>
</g>
<!-- Node15&#45;&gt;Node4 -->
<g id="edge18" class="edge">
<title>Node15&#45;&gt;Node4</title>
<path fill="none" stroke="midnightblue" d="M441.74,-181.14C438.61,-180.42 435.52,-179.7 432.5,-179 362.76,-162.85 344.46,-162.22 275.5,-143 272.32,-142.11 269.04,-141.14 265.75,-140.13"/>
<polygon fill="midnightblue" stroke="midnightblue" points="266.63,-136.74 256.04,-137.04 264.51,-143.41 266.63,-136.74"/>
</g>
<!-- Node15&#45;&gt;Node10 -->
<g id="edge19" class="edge">
<title>Node15&#45;&gt;Node10</title>
<path fill="none" stroke="midnightblue" d="M547.26,-181.13C550.38,-180.41 553.48,-179.69 556.5,-179 622.5,-163.84 699.55,-146.56 743.92,-136.65"/>
<polygon fill="midnightblue" stroke="midnightblue" points="744.94,-140.01 753.93,-134.42 743.41,-133.18 744.94,-140.01"/>
</g>
<!-- Node16 -->
<g id="node16" class="node">
<title>Node16</title>
<g id="a_node16"><a xlink:href="_write_event_receiver_8h.html" target="_top" xlink:title=" ">
<polygon fill="white" stroke="black" points="466,-56.5 466,-75.5 577,-75.5 577,-56.5 466,-56.5"/>
<text text-anchor="middle" x="521.5" y="-63.5" font-family="Helvetica,sans-Serif" font-size="10.00">WriteEventReceiver.h</text>
</a>
</g>
</g>
<!-- Node15&#45;&gt;Node16 -->
<g id="edge20" class="edge">
<title>Node15&#45;&gt;Node16</title>
<path fill="none" stroke="midnightblue" d="M480.77,-179.4C466.49,-162.94 447.75,-135.05 459.5,-112 466.5,-98.27 479.87,-87.75 492.4,-80.35"/>
<polygon fill="midnightblue" stroke="midnightblue" points="494.17,-83.37 501.28,-75.51 490.82,-77.22 494.17,-83.37"/>
</g>
<!-- Node18 -->
<g id="node18" class="node">
<title>Node18</title>
<g id="a_node18"><a xlink:href="_socket_reader_8h.html" target="_top" xlink:title=" ">
<polygon fill="white" stroke="black" points="592,-112.5 592,-142.5 697,-142.5 697,-112.5 592,-112.5"/>
<text text-anchor="start" x="600" y="-130.5" font-family="Helvetica,sans-Serif" font-size="10.00">socket/sock_stream</text>
<text text-anchor="middle" x="644.5" y="-119.5" font-family="Helvetica,sans-Serif" font-size="10.00">/SocketReader.h</text>
</a>
</g>
</g>
<!-- Node15&#45;&gt;Node18 -->
<g id="edge22" class="edge">
<title>Node15&#45;&gt;Node18</title>
<path fill="none" stroke="midnightblue" d="M527.05,-179.4C549.26,-169.77 578.88,-156.94 602.81,-146.56"/>
<polygon fill="midnightblue" stroke="midnightblue" points="604.23,-149.76 612.02,-142.58 601.45,-143.34 604.23,-149.76"/>
</g>
<!-- Node17 -->
<g id="node17" class="node">
<title>Node17</title>
<g id="a_node17"><a xlink:href="_event_receiver_8h.html" target="_top" xlink:title=" ">
<polygon fill="white" stroke="black" points="681,-0.5 681,-19.5 770,-19.5 770,-0.5 681,-0.5"/>
<text text-anchor="middle" x="725.5" y="-7.5" font-family="Helvetica,sans-Serif" font-size="10.00">EventReceiver.h</text>
</a>
</g>
</g>
<!-- Node16&#45;&gt;Node17 -->
<g id="edge21" class="edge">
<title>Node16&#45;&gt;Node17</title>
<path fill="none" stroke="midnightblue" d="M553.82,-56.44C588.89,-47.16 645,-32.31 683.46,-22.13"/>
<polygon fill="midnightblue" stroke="midnightblue" points="684.56,-25.46 693.33,-19.52 682.76,-18.69 684.56,-25.46"/>
</g>
<!-- Node19 -->
<g id="node19" class="node">
<title>Node19</title>
<g id="a_node19"><a xlink:href="_read_event_receiver_8h.html" target="_top" xlink:title=" ">
<polygon fill="white" stroke="black" points="669.5,-56.5 669.5,-75.5 781.5,-75.5 781.5,-56.5 669.5,-56.5"/>
<text text-anchor="middle" x="725.5" y="-63.5" font-family="Helvetica,sans-Serif" font-size="10.00">ReadEventReceiver.h</text>
</a>
</g>
</g>
<!-- Node18&#45;&gt;Node19 -->
<g id="edge23" class="edge">
<title>Node18&#45;&gt;Node19</title>
<path fill="none" stroke="midnightblue" d="M663.7,-112.4C676.32,-103.13 692.79,-91.03 705.56,-81.65"/>
<polygon fill="midnightblue" stroke="midnightblue" points="707.73,-84.4 713.71,-75.66 703.58,-78.76 707.73,-84.4"/>
</g>
<!-- Node19&#45;&gt;Node17 -->
<g id="edge24" class="edge">
<title>Node19&#45;&gt;Node17</title>
<path fill="none" stroke="midnightblue" d="M725.5,-56.08C725.5,-49.01 725.5,-38.86 725.5,-29.99"/>
<polygon fill="midnightblue" stroke="midnightblue" points="729,-29.75 725.5,-19.75 722,-29.75 729,-29.75"/>
</g>
<!-- Node20&#45;&gt;Node4 -->
<g id="edge26" class="edge">
<title>Node20&#45;&gt;Node4</title>
<path fill="none" stroke="midnightblue" d="M564.67,-180.58C561.91,-180.02 559.18,-179.49 556.5,-179 432.63,-156.41 398.3,-170.83 275.5,-143 271.83,-142.17 268.04,-141.16 264.28,-140.06"/>
<polygon fill="midnightblue" stroke="midnightblue" points="265.15,-136.66 254.56,-137.02 263.06,-143.34 265.15,-136.66"/>
</g>
<!-- Node20&#45;&gt;Node10 -->
<g id="edge27" class="edge">
<title>Node20&#45;&gt;Node10</title>
<path fill="none" stroke="midnightblue" d="M652.87,-179.4C681.72,-167.89 722.08,-151.8 749.64,-140.81"/>
<polygon fill="midnightblue" stroke="midnightblue" points="751.17,-143.96 759.17,-137.01 748.58,-137.46 751.17,-143.96"/>
</g>
<!-- Node20&#45;&gt;Node19 -->
<g id="edge28" class="edge">
<title>Node20&#45;&gt;Node19</title>
<path fill="none" stroke="midnightblue" d="M657.05,-179.43C674.59,-171.31 694.03,-159.41 706.5,-143 719.07,-126.46 723.4,-102.6 724.86,-86.04"/>
<polygon fill="midnightblue" stroke="midnightblue" points="728.36,-86.12 725.47,-75.93 721.37,-85.7 728.36,-86.12"/>
</g>
<!-- Node21 -->
<g id="node21" class="node">
<title>Node21</title>
<g id="a_node21"><a xlink:href="_socket_writer_8h.html" target="_top" xlink:title=" ">
<polygon fill="white" stroke="black" points="469,-112.5 469,-142.5 574,-142.5 574,-112.5 469,-112.5"/>
<text text-anchor="start" x="477" y="-130.5" font-family="Helvetica,sans-Serif" font-size="10.00">socket/sock_stream</text>
<text text-anchor="middle" x="521.5" y="-119.5" font-family="Helvetica,sans-Serif" font-size="10.00">/SocketWriter.h</text>
</a>
</g>
</g>
<!-- Node20&#45;&gt;Node21 -->
<g id="edge29" class="edge">
<title>Node20&#45;&gt;Node21</title>
<path fill="none" stroke="midnightblue" d="M596.67,-179.4C583.21,-170.28 565.5,-158.29 550.65,-148.24"/>
<polygon fill="midnightblue" stroke="midnightblue" points="552.53,-145.28 542.29,-142.58 548.61,-151.08 552.53,-145.28"/>
</g>
<!-- Node21&#45;&gt;Node16 -->
<g id="edge30" class="edge">
<title>Node21&#45;&gt;Node16</title>
<path fill="none" stroke="midnightblue" d="M521.5,-112.4C521.5,-104.47 521.5,-94.46 521.5,-85.86"/>
<polygon fill="midnightblue" stroke="midnightblue" points="525,-85.66 521.5,-75.66 518,-85.66 525,-85.66"/>
</g>
<!-- Node22&#45;&gt;Node10 -->
<g id="edge34" class="edge">
<title>Node22&#45;&gt;Node10</title>
<path fill="none" stroke="midnightblue" d="M823.57,-179.4C814.99,-169.26 803.4,-155.57 794.41,-144.94"/>
<polygon fill="midnightblue" stroke="midnightblue" points="796.99,-142.57 787.86,-137.19 791.64,-147.09 796.99,-142.57"/>
</g>
<!-- Node22&#45;&gt;Node19 -->
<g id="edge35" class="edge">
<title>Node22&#45;&gt;Node19</title>
<path fill="none" stroke="midnightblue" d="M835.72,-179.26C835.26,-161.64 832.02,-131.58 816.5,-112 804.31,-96.62 785.5,-86.1 768.14,-79.13"/>
<polygon fill="midnightblue" stroke="midnightblue" points="769.29,-75.82 758.7,-75.61 766.85,-82.38 769.29,-75.82"/>
</g>
<!-- Node23 -->
<g id="node23" class="node">
<title>Node23</title>
<g id="a_node23"><a xlink:href="_connect_event_receiver_8h.html" target="_top" xlink:title=" ">
<polygon fill="white" stroke="black" points="805,-56.5 805,-75.5 930,-75.5 930,-56.5 805,-56.5"/>
<text text-anchor="middle" x="867.5" y="-63.5" font-family="Helvetica,sans-Serif" font-size="10.00">ConnectEventReceiver.h</text>
</a>
</g>
</g>
<!-- Node22&#45;&gt;Node23 -->
<g id="edge32" class="edge">
<title>Node22&#45;&gt;Node23</title>
<path fill="none" stroke="midnightblue" d="M839.57,-179.39C842.44,-169.28 846.33,-155.34 849.5,-143 854.5,-123.56 859.73,-101.18 863.26,-85.77"/>
<polygon fill="midnightblue" stroke="midnightblue" points="866.7,-86.45 865.5,-75.92 859.87,-84.89 866.7,-86.45"/>
</g>
<!-- Node23&#45;&gt;Node17 -->
<g id="edge33" class="edge">
<title>Node23&#45;&gt;Node17</title>
<path fill="none" stroke="midnightblue" d="M845,-56.44C821.42,-47.48 784.18,-33.31 757.54,-23.18"/>
<polygon fill="midnightblue" stroke="midnightblue" points="758.49,-19.8 747.9,-19.52 756,-26.34 758.49,-19.8"/>
</g>
<!-- Node25&#45;&gt;Node10 -->
<g id="edge38" class="edge">
<title>Node25&#45;&gt;Node10</title>
<path fill="none" stroke="midnightblue" d="M777.73,-246.38C776.55,-236.27 775.11,-222.32 774.5,-210 773.82,-196.24 773.69,-192.75 774.5,-179 775.13,-168.36 776.5,-156.52 777.77,-146.98"/>
<polygon fill="midnightblue" stroke="midnightblue" points="781.24,-147.44 779.17,-137.05 774.31,-146.46 781.24,-147.44"/>
</g>
<!-- Node25&#45;&gt;Node22 -->
<g id="edge39" class="edge">
<title>Node25&#45;&gt;Node22</title>
<path fill="none" stroke="midnightblue" d="M791.65,-246.4C798.99,-237.88 808.49,-226.85 816.78,-217.23"/>
<polygon fill="midnightblue" stroke="midnightblue" points="819.5,-219.44 823.37,-209.58 814.19,-214.87 819.5,-219.44"/>
</g>
</g>
</svg>
