<?xml version="1.0" encoding="UTF-8" standalone="no"?>
<!DOCTYPE svg PUBLIC "-//W3C//DTD SVG 1.1//EN"
 "http://www.w3.org/Graphics/SVG/1.1/DTD/svg11.dtd">
<!-- Generated by graphviz version 2.43.0 (0)
 -->
<!-- Title: net/socket/ip/tcp/ipv4/tls/SocketClient.h Pages: 1 -->
<svg width="1074pt" height="486pt"
 viewBox="0.00 0.00 1073.50 486.00" xmlns="http://www.w3.org/2000/svg" xmlns:xlink="http://www.w3.org/1999/xlink">
<g id="graph0" class="graph" transform="scale(1 1) rotate(0) translate(4 482)">
<title>net/socket/ip/tcp/ipv4/tls/SocketClient.h</title>
<polygon fill="white" stroke="transparent" points="-4,4 -4,-482 1069.5,-482 1069.5,4 -4,4"/>
<!-- Node1 -->
<g id="node1" class="node">
<title>Node1</title>
<g id="a_node1"><a xlink:title=" ">
<polygon fill="#bfbfbf" stroke="black" points="163.5,-447.5 163.5,-477.5 273.5,-477.5 273.5,-447.5 163.5,-447.5"/>
<text text-anchor="start" x="171.5" y="-465.5" font-family="Helvetica,sans-Serif" font-size="10.00">net/socket/ip/tcp/ipv4</text>
<text text-anchor="middle" x="218.5" y="-454.5" font-family="Helvetica,sans-Serif" font-size="10.00">/tls/SocketClient.h</text>
</a>
</g>
</g>
<!-- Node2 -->
<g id="node2" class="node">
<title>Node2</title>
<g id="a_node2"><a xlink:href="ip_2tcp_2_socket_client_8h.html" target="_top" xlink:title=" ">
<polygon fill="white" stroke="black" points="50.5,-386 50.5,-405 190.5,-405 190.5,-386 50.5,-386"/>
<text text-anchor="middle" x="120.5" y="-393" font-family="Helvetica,sans-Serif" font-size="10.00">socket/ip/tcp/SocketClient.h</text>
</a>
</g>
</g>
<!-- Node1&#45;&gt;Node2 -->
<g id="edge1" class="edge">
<title>Node1&#45;&gt;Node2</title>
<path fill="none" stroke="midnightblue" d="M197.24,-447.4C180.8,-436.5 158.16,-421.48 141.73,-410.58"/>
<polygon fill="midnightblue" stroke="midnightblue" points="143.59,-407.62 133.33,-405.01 139.72,-413.45 143.59,-407.62"/>
</g>
<!-- Node3 -->
<g id="node3" class="node">
<title>Node3</title>
<g id="a_node3"><a xlink:href="ip_2tcp_2ipv4_2_socket_8h.html" target="_top" xlink:title=" ">
<polygon fill="white" stroke="black" points="145.5,-246.5 145.5,-276.5 239.5,-276.5 239.5,-246.5 145.5,-246.5"/>
<text text-anchor="start" x="153.5" y="-264.5" font-family="Helvetica,sans-Serif" font-size="10.00">socket/ip/tcp/ipv4</text>
<text text-anchor="middle" x="192.5" y="-253.5" font-family="Helvetica,sans-Serif" font-size="10.00">/Socket.h</text>
</a>
</g>
</g>
<!-- Node1&#45;&gt;Node3 -->
<g id="edge2" class="edge">
<title>Node1&#45;&gt;Node3</title>
<path fill="none" stroke="midnightblue" d="M216.63,-447.19C212.23,-413.48 201.16,-328.8 195.68,-286.84"/>
<polygon fill="midnightblue" stroke="midnightblue" points="199.12,-286.14 194.35,-276.68 192.18,-287.05 199.12,-286.14"/>
</g>
<!-- Node8 -->
<g id="node8" class="node">
<title>Node8</title>
<g id="a_node8"><a xlink:href="sock__stream_2tls_2_socket_client_8h.html" target="_top" xlink:title=" ">
<polygon fill="white" stroke="black" points="265,-380.5 265,-410.5 370,-410.5 370,-380.5 265,-380.5"/>
<text text-anchor="start" x="273" y="-398.5" font-family="Helvetica,sans-Serif" font-size="10.00">socket/sock_stream</text>
<text text-anchor="middle" x="317.5" y="-387.5" font-family="Helvetica,sans-Serif" font-size="10.00">/tls/SocketClient.h</text>
</a>
</g>
</g>
<!-- Node1&#45;&gt;Node8 -->
<g id="edge9" class="edge">
<title>Node1&#45;&gt;Node8</title>
<path fill="none" stroke="midnightblue" d="M239.98,-447.4C253.86,-438.28 272.13,-426.29 287.44,-416.24"/>
<polygon fill="midnightblue" stroke="midnightblue" points="289.62,-418.99 296.06,-410.58 285.78,-413.14 289.62,-418.99"/>
</g>
<!-- Node4 -->
<g id="node4" class="node">
<title>Node4</title>
<g id="a_node4"><a xlink:href="_descriptor_8h.html" target="_top" xlink:title=" ">
<polygon fill="white" stroke="black" points="190,-118 190,-137 259,-137 259,-118 190,-118"/>
<text text-anchor="middle" x="224.5" y="-125" font-family="Helvetica,sans-Serif" font-size="10.00">Descriptor.h</text>
</a>
</g>
</g>
<!-- Node3&#45;&gt;Node4 -->
<g id="edge3" class="edge">
<title>Node3&#45;&gt;Node4</title>
<path fill="none" stroke="midnightblue" d="M207.38,-246.1C215.95,-236.73 225.91,-223.74 230.5,-210 237.44,-189.25 233.84,-163.92 229.88,-147.06"/>
<polygon fill="midnightblue" stroke="midnightblue" points="233.25,-146.13 227.33,-137.34 226.48,-147.9 233.25,-146.13"/>
</g>
<!-- Node5 -->
<g id="node5" class="node">
<title>Node5</title>
<g id="a_node5"><a xlink:href="_socket_8h.html" target="_top" xlink:title=" ">
<polygon fill="white" stroke="black" points="133.5,-185 133.5,-204 221.5,-204 221.5,-185 133.5,-185"/>
<text text-anchor="middle" x="177.5" y="-192" font-family="Helvetica,sans-Serif" font-size="10.00">socket/Socket.h</text>
</a>
</g>
</g>
<!-- Node3&#45;&gt;Node5 -->
<g id="edge4" class="edge">
<title>Node3&#45;&gt;Node5</title>
<path fill="none" stroke="midnightblue" d="M189.25,-246.4C187.07,-236.96 184.18,-224.45 181.81,-214.19"/>
<polygon fill="midnightblue" stroke="midnightblue" points="185.17,-213.15 179.51,-204.19 178.34,-214.73 185.17,-213.15"/>
</g>
<!-- Node7 -->
<g id="node7" class="node">
<title>Node7</title>
<g id="a_node7"><a xlink:href="ipv4_2_inet_address_8h.html" target="_top" xlink:title=" ">
<polygon fill="white" stroke="black" points="0,-179.5 0,-209.5 115,-209.5 115,-179.5 0,-179.5"/>
<text text-anchor="start" x="8" y="-197.5" font-family="Helvetica,sans-Serif" font-size="10.00">socket/ip/address/ipv4</text>
<text text-anchor="middle" x="57.5" y="-186.5" font-family="Helvetica,sans-Serif" font-size="10.00">/InetAddress.h</text>
</a>
</g>
</g>
<!-- Node3&#45;&gt;Node7 -->
<g id="edge7" class="edge">
<title>Node3&#45;&gt;Node7</title>
<path fill="none" stroke="midnightblue" d="M163.21,-246.4C143.48,-236.9 117.27,-224.28 95.88,-213.98"/>
<polygon fill="midnightblue" stroke="midnightblue" points="97.26,-210.76 86.74,-209.58 94.23,-217.07 97.26,-210.76"/>
</g>
<!-- Node5&#45;&gt;Node4 -->
<g id="edge5" class="edge">
<title>Node5&#45;&gt;Node4</title>
<path fill="none" stroke="midnightblue" d="M183.84,-184.73C191.1,-174.7 203.16,-158.01 212.26,-145.42"/>
<polygon fill="midnightblue" stroke="midnightblue" points="215.24,-147.28 218.26,-137.13 209.57,-143.18 215.24,-147.28"/>
</g>
<!-- Node6 -->
<g id="node6" class="node">
<title>Node6</title>
<g id="a_node6"><a xlink:href="_socket_address_8h.html" target="_top" xlink:title=" ">
<polygon fill="white" stroke="black" points="21.5,-118 21.5,-137 145.5,-137 145.5,-118 21.5,-118"/>
<text text-anchor="middle" x="83.5" y="-125" font-family="Helvetica,sans-Serif" font-size="10.00">socket/SocketAddress.h</text>
</a>
</g>
</g>
<!-- Node5&#45;&gt;Node6 -->
<g id="edge6" class="edge">
<title>Node5&#45;&gt;Node6</title>
<path fill="none" stroke="midnightblue" d="M164.82,-184.73C149.32,-174.01 122.86,-155.72 104.34,-142.91"/>
<polygon fill="midnightblue" stroke="midnightblue" points="106.19,-139.94 95.98,-137.13 102.21,-145.69 106.19,-139.94"/>
</g>
<!-- Node7&#45;&gt;Node6 -->
<g id="edge8" class="edge">
<title>Node7&#45;&gt;Node6</title>
<path fill="none" stroke="midnightblue" d="M63.14,-179.4C66.99,-169.76 72.13,-156.91 76.29,-146.54"/>
<polygon fill="midnightblue" stroke="midnightblue" points="79.56,-147.78 80.02,-137.19 73.06,-145.18 79.56,-147.78"/>
</g>
<!-- Node9 -->
<g id="node9" class="node">
<title>Node9</title>
<g id="a_node9"><a xlink:href="tls_2_socket_connector_8h.html" target="_top" xlink:title=" ">
<polygon fill="white" stroke="black" points="470.5,-319 470.5,-338 570.5,-338 570.5,-319 470.5,-319"/>
<text text-anchor="middle" x="520.5" y="-326" font-family="Helvetica,sans-Serif" font-size="10.00">SocketConnector.h</text>
</a>
</g>
</g>
<!-- Node8&#45;&gt;Node9 -->
<g id="edge10" class="edge">
<title>Node8&#45;&gt;Node9</title>
<path fill="none" stroke="midnightblue" d="M361.55,-380.4C398.27,-368.64 449.95,-352.09 484.3,-341.09"/>
<polygon fill="midnightblue" stroke="midnightblue" points="485.48,-344.39 493.93,-338.01 483.34,-337.72 485.48,-344.39"/>
</g>
<!-- Node26 -->
<g id="node26" class="node">
<title>Node26</title>
<g id="a_node26"><a xlink:href="sock__stream_2_socket_client_8h.html" target="_top" xlink:title=" ">
<polygon fill="white" stroke="black" points="265,-313.5 265,-343.5 370,-343.5 370,-313.5 265,-313.5"/>
<text text-anchor="start" x="273" y="-331.5" font-family="Helvetica,sans-Serif" font-size="10.00">socket/sock_stream</text>
<text text-anchor="middle" x="317.5" y="-320.5" font-family="Helvetica,sans-Serif" font-size="10.00">/SocketClient.h</text>
</a>
</g>
</g>
<!-- Node8&#45;&gt;Node26 -->
<g id="edge43" class="edge">
<title>Node8&#45;&gt;Node26</title>
<path fill="none" stroke="midnightblue" d="M317.5,-380.4C317.5,-372.64 317.5,-362.81 317.5,-353.86"/>
<polygon fill="midnightblue" stroke="midnightblue" points="321,-353.58 317.5,-343.58 314,-353.58 321,-353.58"/>
</g>
<!-- Node10 -->
<g id="node10" class="node">
<title>Node10</title>
<g id="a_node10"><a xlink:href="_logger_8h.html" target="_top" xlink:title=" ">
<polygon fill="white" stroke="black" points="866,-118 866,-137 919,-137 919,-118 866,-118"/>
<text text-anchor="middle" x="892.5" y="-125" font-family="Helvetica,sans-Serif" font-size="10.00">Logger.h</text>
</a>
</g>
</g>
<!-- Node9&#45;&gt;Node10 -->
<g id="edge11" class="edge">
<title>Node9&#45;&gt;Node10</title>
<path fill="none" stroke="midnightblue" d="M570.71,-326.59C623.14,-323.59 706.11,-312.92 767.5,-277 822.88,-244.59 865.02,-178.25 882.99,-146.37"/>
<polygon fill="midnightblue" stroke="midnightblue" points="886.21,-147.77 887.96,-137.32 880.08,-144.4 886.21,-147.77"/>
</g>
<!-- Node11 -->
<g id="node11" class="node">
<title>Node11</title>
<g id="a_node11"><a xlink:href="tls_2_socket_connection_8h.html" target="_top" xlink:title=" ">
<polygon fill="white" stroke="black" points="519,-252 519,-271 624,-271 624,-252 519,-252"/>
<text text-anchor="middle" x="571.5" y="-259" font-family="Helvetica,sans-Serif" font-size="10.00">SocketConnection.h</text>
</a>
</g>
</g>
<!-- Node9&#45;&gt;Node11 -->
<g id="edge12" class="edge">
<title>Node9&#45;&gt;Node11</title>
<path fill="none" stroke="midnightblue" d="M527.38,-318.73C535.33,-308.6 548.6,-291.69 558.51,-279.06"/>
<polygon fill="midnightblue" stroke="midnightblue" points="561.31,-281.16 564.73,-271.13 555.8,-276.83 561.31,-281.16"/>
</g>
<!-- Node16 -->
<g id="node16" class="node">
<title>Node16</title>
<g id="a_node16"><a xlink:href="_t_l_s_handshake_8h.html" target="_top" xlink:title=" ">
<polygon fill="white" stroke="black" points="391.5,-118 391.5,-137 483.5,-137 483.5,-118 391.5,-118"/>
<text text-anchor="middle" x="437.5" y="-125" font-family="Helvetica,sans-Serif" font-size="10.00">TLSHandshake.h</text>
</a>
</g>
</g>
<!-- Node9&#45;&gt;Node16 -->
<g id="edge36" class="edge">
<title>Node9&#45;&gt;Node16</title>
<path fill="none" stroke="midnightblue" d="M511.4,-318.85C493.1,-300.75 452.32,-256.66 437.5,-210 430.96,-189.4 432.22,-164.37 434.31,-147.53"/>
<polygon fill="midnightblue" stroke="midnightblue" points="437.81,-147.73 435.8,-137.33 430.89,-146.72 437.81,-147.73"/>
</g>
<!-- Node21 -->
<g id="node21" class="node">
<title>Node21</title>
<g id="a_node21"><a xlink:href="ssl__utils_8h.html" target="_top" xlink:title=" ">
<polygon fill="white" stroke="black" points="748,-118 748,-137 809,-137 809,-118 748,-118"/>
<text text-anchor="middle" x="778.5" y="-125" font-family="Helvetica,sans-Serif" font-size="10.00">ssl_utils.h</text>
</a>
</g>
</g>
<!-- Node9&#45;&gt;Node21 -->
<g id="edge42" class="edge">
<title>Node9&#45;&gt;Node21</title>
<path fill="none" stroke="midnightblue" d="M570.5,-323.6C637.98,-315.33 755.9,-289.65 809.5,-210 823.17,-189.68 807.18,-162.49 793.56,-145.23"/>
<polygon fill="midnightblue" stroke="midnightblue" points="795.93,-142.61 786.82,-137.2 790.57,-147.11 795.93,-142.61"/>
</g>
<!-- Node24 -->
<g id="node24" class="node">
<title>Node24</title>
<g id="a_node24"><a xlink:href="_socket_connector_8h.html" target="_top" xlink:title=" ">
<polygon fill="white" stroke="black" points="265,-246.5 265,-276.5 370,-276.5 370,-246.5 265,-246.5"/>
<text text-anchor="start" x="273" y="-264.5" font-family="Helvetica,sans-Serif" font-size="10.00">socket/sock_stream</text>
<text text-anchor="middle" x="317.5" y="-253.5" font-family="Helvetica,sans-Serif" font-size="10.00">/SocketConnector.h</text>
</a>
</g>
</g>
<!-- Node9&#45;&gt;Node24 -->
<g id="edge37" class="edge">
<title>Node9&#45;&gt;Node24</title>
<path fill="none" stroke="midnightblue" d="M493.54,-318.87C462.42,-308.9 410.47,-292.27 371.04,-279.64"/>
<polygon fill="midnightblue" stroke="midnightblue" points="371.9,-276.24 361.31,-276.53 369.77,-282.91 371.9,-276.24"/>
</g>
<!-- Node12 -->
<g id="node12" class="node">
<title>Node12</title>
<g id="a_node12"><a xlink:href="_socket_connection_8h.html" target="_top" xlink:title=" ">
<polygon fill="white" stroke="black" points="692.5,-179.5 692.5,-209.5 800.5,-209.5 800.5,-179.5 692.5,-179.5"/>
<text text-anchor="start" x="700.5" y="-197.5" font-family="Helvetica,sans-Serif" font-size="10.00">socket/sock_stream</text>
<text text-anchor="middle" x="746.5" y="-186.5" font-family="Helvetica,sans-Serif" font-size="10.00">/SocketConnection.h</text>
</a>
</g>
</g>
<!-- Node11&#45;&gt;Node12 -->
<g id="edge13" class="edge">
<title>Node11&#45;&gt;Node12</title>
<path fill="none" stroke="midnightblue" d="M594.74,-251.87C621.23,-242.03 665.22,-225.69 699.04,-213.13"/>
<polygon fill="midnightblue" stroke="midnightblue" points="700.58,-216.29 708.73,-209.53 698.14,-209.73 700.58,-216.29"/>
</g>
<!-- Node15 -->
<g id="node15" class="node">
<title>Node15</title>
<g id="a_node15"><a xlink:href="tls_2_socket_reader_8h.html" target="_top" xlink:title=" ">
<polygon fill="white" stroke="black" points="569,-179.5 569,-209.5 674,-209.5 674,-179.5 569,-179.5"/>
<text text-anchor="start" x="577" y="-197.5" font-family="Helvetica,sans-Serif" font-size="10.00">socket/sock_stream</text>
<text text-anchor="middle" x="621.5" y="-186.5" font-family="Helvetica,sans-Serif" font-size="10.00">/tls/SocketReader.h</text>
</a>
</g>
</g>
<!-- Node11&#45;&gt;Node15 -->
<g id="edge16" class="edge">
<title>Node11&#45;&gt;Node15</title>
<path fill="none" stroke="midnightblue" d="M578.24,-251.73C584.94,-243.03 595.47,-229.34 604.46,-217.65"/>
<polygon fill="midnightblue" stroke="midnightblue" points="607.34,-219.65 610.66,-209.59 601.79,-215.38 607.34,-219.65"/>
</g>
<!-- Node22 -->
<g id="node22" class="node">
<title>Node22</title>
<g id="a_node22"><a xlink:href="tls_2_socket_writer_8h.html" target="_top" xlink:title=" ">
<polygon fill="white" stroke="black" points="446,-179.5 446,-209.5 551,-209.5 551,-179.5 446,-179.5"/>
<text text-anchor="start" x="454" y="-197.5" font-family="Helvetica,sans-Serif" font-size="10.00">socket/sock_stream</text>
<text text-anchor="middle" x="498.5" y="-186.5" font-family="Helvetica,sans-Serif" font-size="10.00">/tls/SocketWriter.h</text>
</a>
</g>
</g>
<!-- Node11&#45;&gt;Node22 -->
<g id="edge28" class="edge">
<title>Node11&#45;&gt;Node22</title>
<path fill="none" stroke="midnightblue" d="M561.65,-251.73C551.5,-242.7 535.31,-228.27 521.86,-216.3"/>
<polygon fill="midnightblue" stroke="midnightblue" points="524.12,-213.63 514.32,-209.59 519.46,-218.85 524.12,-213.63"/>
</g>
<!-- Node13 -->
<g id="node13" class="node">
<title>Node13</title>
<g id="a_node13"><a xlink:href="_socket_connection_base_8h.html" target="_top" xlink:title=" ">
<polygon fill="white" stroke="black" points="937.5,-118 937.5,-137 1065.5,-137 1065.5,-118 937.5,-118"/>
<text text-anchor="middle" x="1001.5" y="-125" font-family="Helvetica,sans-Serif" font-size="10.00">SocketConnectionBase.h</text>
</a>
</g>
</g>
<!-- Node12&#45;&gt;Node13 -->
<g id="edge14" class="edge">
<title>Node12&#45;&gt;Node13</title>
<path fill="none" stroke="midnightblue" d="M800.58,-179.72C847.51,-167.75 914.57,-150.66 958.07,-139.57"/>
<polygon fill="midnightblue" stroke="midnightblue" points="958.96,-142.96 967.79,-137.09 957.23,-136.17 958.96,-142.96"/>
</g>
<!-- Node14 -->
<g id="node14" class="node">
<title>Node14</title>
<g id="a_node14"><a xlink:href="_attribute_injector_8h.html" target="_top" xlink:title=" ">
<polygon fill="white" stroke="black" points="955,-56.5 955,-75.5 1048,-75.5 1048,-56.5 955,-56.5"/>
<text text-anchor="middle" x="1001.5" y="-63.5" font-family="Helvetica,sans-Serif" font-size="10.00">AttributeInjector.h</text>
</a>
</g>
</g>
<!-- Node13&#45;&gt;Node14 -->
<g id="edge15" class="edge">
<title>Node13&#45;&gt;Node14</title>
<path fill="none" stroke="midnightblue" d="M1001.5,-117.98C1001.5,-109.58 1001.5,-96.48 1001.5,-85.66"/>
<polygon fill="midnightblue" stroke="midnightblue" points="1005,-85.51 1001.5,-75.51 998,-85.51 1005,-85.51"/>
</g>
<!-- Node15&#45;&gt;Node4 -->
<g id="edge17" class="edge">
<title>Node15&#45;&gt;Node4</title>
<path fill="none" stroke="midnightblue" d="M568.99,-180.72C566.12,-180.12 563.28,-179.54 560.5,-179 456.82,-158.92 333.82,-142.23 269.24,-134"/>
<polygon fill="midnightblue" stroke="midnightblue" points="269.37,-130.49 259.01,-132.71 268.49,-137.44 269.37,-130.49"/>
</g>
<!-- Node15&#45;&gt;Node10 -->
<g id="edge18" class="edge">
<title>Node15&#45;&gt;Node10</title>
<path fill="none" stroke="midnightblue" d="M674.25,-181.09C677.38,-180.38 680.48,-179.68 683.5,-179 758.01,-162.3 778.02,-163.77 851.5,-143 854.46,-142.16 857.51,-141.23 860.55,-140.24"/>
<polygon fill="midnightblue" stroke="midnightblue" points="861.76,-143.53 870.11,-137 859.52,-136.9 861.76,-143.53"/>
</g>
<!-- Node15&#45;&gt;Node16 -->
<g id="edge19" class="edge">
<title>Node15&#45;&gt;Node16</title>
<path fill="none" stroke="midnightblue" d="M581.57,-179.4C548.58,-167.74 502.25,-151.37 471.12,-140.38"/>
<polygon fill="midnightblue" stroke="midnightblue" points="472.18,-137.04 461.58,-137.01 469.84,-143.64 472.18,-137.04"/>
</g>
<!-- Node19 -->
<g id="node19" class="node">
<title>Node19</title>
<g id="a_node19"><a xlink:href="_write_event_receiver_8h.html" target="_top" xlink:title=" ">
<polygon fill="white" stroke="black" points="564,-56.5 564,-75.5 675,-75.5 675,-56.5 564,-56.5"/>
<text text-anchor="middle" x="619.5" y="-63.5" font-family="Helvetica,sans-Serif" font-size="10.00">WriteEventReceiver.h</text>
</a>
</g>
</g>
<!-- Node15&#45;&gt;Node19 -->
<g id="edge24" class="edge">
<title>Node15&#45;&gt;Node19</title>
<path fill="none" stroke="midnightblue" d="M674.01,-180.86C731.6,-166.89 816.22,-145.94 818.5,-143 826.95,-132.12 827.1,-122.76 818.5,-112 801.92,-91.25 736.44,-79.36 685.07,-73.08"/>
<polygon fill="midnightblue" stroke="midnightblue" points="685.34,-69.59 675,-71.9 684.53,-76.54 685.34,-69.59"/>
</g>
<!-- Node20 -->
<g id="node20" class="node">
<title>Node20</title>
<g id="a_node20"><a xlink:href="_socket_reader_8h.html" target="_top" xlink:title=" ">
<polygon fill="white" stroke="black" points="502,-112.5 502,-142.5 607,-142.5 607,-112.5 502,-112.5"/>
<text text-anchor="start" x="510" y="-130.5" font-family="Helvetica,sans-Serif" font-size="10.00">socket/sock_stream</text>
<text text-anchor="middle" x="554.5" y="-119.5" font-family="Helvetica,sans-Serif" font-size="10.00">/SocketReader.h</text>
</a>
</g>
</g>
<!-- Node15&#45;&gt;Node20 -->
<g id="edge25" class="edge">
<title>Node15&#45;&gt;Node20</title>
<path fill="none" stroke="midnightblue" d="M606.96,-179.4C598.01,-170.71 586.36,-159.4 576.31,-149.66"/>
<polygon fill="midnightblue" stroke="midnightblue" points="578.62,-147.03 569.01,-142.58 573.75,-152.05 578.62,-147.03"/>
</g>
<!-- Node15&#45;&gt;Node21 -->
<g id="edge27" class="edge">
<title>Node15&#45;&gt;Node21</title>
<path fill="none" stroke="midnightblue" d="M655.57,-179.4C683.24,-167.94 721.89,-151.94 748.42,-140.95"/>
<polygon fill="midnightblue" stroke="midnightblue" points="750.05,-144.07 757.95,-137.01 747.37,-137.6 750.05,-144.07"/>
</g>
<!-- Node17 -->
<g id="node17" class="node">
<title>Node17</title>
<g id="a_node17"><a xlink:href="_read_event_receiver_8h.html" target="_top" xlink:title=" ">
<polygon fill="white" stroke="black" points="375.5,-56.5 375.5,-75.5 487.5,-75.5 487.5,-56.5 375.5,-56.5"/>
<text text-anchor="middle" x="431.5" y="-63.5" font-family="Helvetica,sans-Serif" font-size="10.00">ReadEventReceiver.h</text>
</a>
</g>
</g>
<!-- Node16&#45;&gt;Node17 -->
<g id="edge20" class="edge">
<title>Node16&#45;&gt;Node17</title>
<path fill="none" stroke="midnightblue" d="M436.64,-117.98C435.79,-109.58 434.47,-96.48 433.38,-85.66"/>
<polygon fill="midnightblue" stroke="midnightblue" points="436.84,-85.11 432.36,-75.51 429.88,-85.81 436.84,-85.11"/>
</g>
<!-- Node16&#45;&gt;Node19 -->
<g id="edge22" class="edge">
<title>Node16&#45;&gt;Node19</title>
<path fill="none" stroke="midnightblue" d="M463.58,-117.98C495.07,-107.68 548.2,-90.31 583.56,-78.75"/>
<polygon fill="midnightblue" stroke="midnightblue" points="585.05,-81.94 593.47,-75.51 582.88,-75.29 585.05,-81.94"/>
</g>
<!-- Node18 -->
<g id="node18" class="node">
<title>Node18</title>
<g id="a_node18"><a xlink:href="_event_receiver_8h.html" target="_top" xlink:title=" ">
<polygon fill="white" stroke="black" points="387,-0.5 387,-19.5 476,-19.5 476,-0.5 387,-0.5"/>
<text text-anchor="middle" x="431.5" y="-7.5" font-family="Helvetica,sans-Serif" font-size="10.00">EventReceiver.h</text>
</a>
</g>
</g>
<!-- Node17&#45;&gt;Node18 -->
<g id="edge21" class="edge">
<title>Node17&#45;&gt;Node18</title>
<path fill="none" stroke="midnightblue" d="M431.5,-56.08C431.5,-49.01 431.5,-38.86 431.5,-29.99"/>
<polygon fill="midnightblue" stroke="midnightblue" points="435,-29.75 431.5,-19.75 428,-29.75 435,-29.75"/>
</g>
<!-- Node19&#45;&gt;Node18 -->
<g id="edge23" class="edge">
<title>Node19&#45;&gt;Node18</title>
<path fill="none" stroke="midnightblue" d="M589.71,-56.44C557.67,-47.24 506.57,-32.56 471.15,-22.39"/>
<polygon fill="midnightblue" stroke="midnightblue" points="471.73,-18.91 461.15,-19.52 469.79,-25.64 471.73,-18.91"/>
</g>
<!-- Node20&#45;&gt;Node17 -->
<g id="edge26" class="edge">
<title>Node20&#45;&gt;Node17</title>
<path fill="none" stroke="midnightblue" d="M525.35,-112.4C505.08,-102.59 478.26,-89.62 458.48,-80.05"/>
<polygon fill="midnightblue" stroke="midnightblue" points="459.92,-76.86 449.4,-75.66 456.88,-83.16 459.92,-76.86"/>
</g>
<!-- Node22&#45;&gt;Node4 -->
<g id="edge29" class="edge">
<title>Node22&#45;&gt;Node4</title>
<path fill="none" stroke="midnightblue" d="M445.99,-181.04C394.64,-168.86 317.29,-150.51 268.91,-139.04"/>
<polygon fill="midnightblue" stroke="midnightblue" points="269.58,-135.6 259.05,-136.69 267.97,-142.41 269.58,-135.6"/>
</g>
<!-- Node22&#45;&gt;Node10 -->
<g id="edge30" class="edge">
<title>Node22&#45;&gt;Node10</title>
<path fill="none" stroke="midnightblue" d="M551.2,-180.83C554.34,-180.18 557.46,-179.57 560.5,-179 674.32,-157.8 704.32,-162.14 818.5,-143 830.68,-140.96 843.94,-138.45 855.82,-136.1"/>
<polygon fill="midnightblue" stroke="midnightblue" points="856.73,-139.49 865.85,-134.09 855.35,-132.62 856.73,-139.49"/>
</g>
<!-- Node22&#45;&gt;Node16 -->
<g id="edge32" class="edge">
<title>Node22&#45;&gt;Node16</title>
<path fill="none" stroke="midnightblue" d="M485.26,-179.4C475.66,-169.16 462.65,-155.3 452.63,-144.62"/>
<polygon fill="midnightblue" stroke="midnightblue" points="455.05,-142.09 445.66,-137.19 449.95,-146.88 455.05,-142.09"/>
</g>
<!-- Node22&#45;&gt;Node17 -->
<g id="edge31" class="edge">
<title>Node22&#45;&gt;Node17</title>
<path fill="none" stroke="midnightblue" d="M445.8,-184.1C422.24,-177 396.65,-164.59 382.5,-143 374.95,-131.48 376.96,-124.61 382.5,-112 387.89,-99.73 398.46,-89.34 408.4,-81.65"/>
<polygon fill="midnightblue" stroke="midnightblue" points="410.75,-84.27 416.84,-75.6 406.67,-78.58 410.75,-84.27"/>
</g>
<!-- Node22&#45;&gt;Node21 -->
<g id="edge35" class="edge">
<title>Node22&#45;&gt;Node21</title>
<path fill="none" stroke="midnightblue" d="M551.24,-181.05C554.37,-180.34 557.48,-179.66 560.5,-179 639.8,-161.76 661.45,-165.21 739.5,-143 742.14,-142.25 744.86,-141.4 747.58,-140.5"/>
<polygon fill="midnightblue" stroke="midnightblue" points="748.98,-143.72 757.25,-137.09 746.65,-137.11 748.98,-143.72"/>
</g>
<!-- Node23 -->
<g id="node23" class="node">
<title>Node23</title>
<g id="a_node23"><a xlink:href="_socket_writer_8h.html" target="_top" xlink:title=" ">
<polygon fill="white" stroke="black" points="625,-112.5 625,-142.5 730,-142.5 730,-112.5 625,-112.5"/>
<text text-anchor="start" x="633" y="-130.5" font-family="Helvetica,sans-Serif" font-size="10.00">socket/sock_stream</text>
<text text-anchor="middle" x="677.5" y="-119.5" font-family="Helvetica,sans-Serif" font-size="10.00">/SocketWriter.h</text>
</a>
</g>
</g>
<!-- Node22&#45;&gt;Node23 -->
<g id="edge33" class="edge">
<title>Node22&#45;&gt;Node23</title>
<path fill="none" stroke="midnightblue" d="M537.34,-179.4C564.32,-169.6 600.44,-156.48 629.27,-146.02"/>
<polygon fill="midnightblue" stroke="midnightblue" points="630.53,-149.28 638.74,-142.58 628.14,-142.7 630.53,-149.28"/>
</g>
<!-- Node23&#45;&gt;Node19 -->
<g id="edge34" class="edge">
<title>Node23&#45;&gt;Node19</title>
<path fill="none" stroke="midnightblue" d="M663.75,-112.4C655.15,-103.58 644.05,-92.18 635.11,-83.02"/>
<polygon fill="midnightblue" stroke="midnightblue" points="637.43,-80.38 627.94,-75.66 632.41,-85.26 637.43,-80.38"/>
</g>
<!-- Node24&#45;&gt;Node5 -->
<g id="edge41" class="edge">
<title>Node24&#45;&gt;Node5</title>
<path fill="none" stroke="midnightblue" d="M287.12,-246.4C262.67,-235.04 228.59,-219.22 204.95,-208.24"/>
<polygon fill="midnightblue" stroke="midnightblue" points="206.37,-205.04 195.82,-204.01 203.42,-211.39 206.37,-205.04"/>
</g>
<!-- Node24&#45;&gt;Node17 -->
<g id="edge40" class="edge">
<title>Node24&#45;&gt;Node17</title>
<path fill="none" stroke="midnightblue" d="M320.18,-246.16C325.97,-218.11 341.76,-155.01 373.5,-112 382.67,-99.58 396.14,-88.84 407.8,-80.97"/>
<polygon fill="midnightblue" stroke="midnightblue" points="409.74,-83.88 416.26,-75.53 405.95,-77.99 409.74,-83.88"/>
</g>
<!-- Node25 -->
<g id="node25" class="node">
<title>Node25</title>
<g id="a_node25"><a xlink:href="_connect_event_receiver_8h.html" target="_top" xlink:title=" ">
<polygon fill="white" stroke="black" points="229,-56.5 229,-75.5 354,-75.5 354,-56.5 229,-56.5"/>
<text text-anchor="middle" x="291.5" y="-63.5" font-family="Helvetica,sans-Serif" font-size="10.00">ConnectEventReceiver.h</text>
</a>
</g>
</g>
<!-- Node24&#45;&gt;Node25 -->
<g id="edge38" class="edge">
<title>Node24&#45;&gt;Node25</title>
<path fill="none" stroke="midnightblue" d="M315.59,-246.27C310.98,-211.94 299.23,-124.57 294.04,-85.9"/>
<polygon fill="midnightblue" stroke="midnightblue" points="297.45,-85.02 292.65,-75.58 290.52,-85.95 297.45,-85.02"/>
</g>
<!-- Node25&#45;&gt;Node18 -->
<g id="edge39" class="edge">
<title>Node25&#45;&gt;Node18</title>
<path fill="none" stroke="midnightblue" d="M313.68,-56.44C336.93,-47.48 373.65,-33.31 399.92,-23.18"/>
<polygon fill="midnightblue" stroke="midnightblue" points="401.35,-26.38 409.42,-19.52 398.83,-19.85 401.35,-26.38"/>
</g>
<!-- Node26&#45;&gt;Node24 -->
<g id="edge44" class="edge">
<title>Node26&#45;&gt;Node24</title>
<path fill="none" stroke="midnightblue" d="M317.5,-313.4C317.5,-305.64 317.5,-295.81 317.5,-286.86"/>
<polygon fill="midnightblue" stroke="midnightblue" points="321,-286.58 317.5,-276.58 314,-286.58 321,-286.58"/>
</g>
</g>
</svg>
