<?xml version="1.0" encoding="UTF-8" standalone="no"?>
<!DOCTYPE svg PUBLIC "-//W3C//DTD SVG 1.1//EN"
 "http://www.w3.org/Graphics/SVG/1.1/DTD/svg11.dtd">
<!-- Generated by graphviz version 2.43.0 (0)
 -->
<!-- Title: net/socket/ip/tcp/ipv6/legacy/SocketServer.h Pages: 1 -->
<svg width="668pt" height="486pt"
 viewBox="0.00 0.00 667.50 486.00" xmlns="http://www.w3.org/2000/svg" xmlns:xlink="http://www.w3.org/1999/xlink">
<g id="graph0" class="graph" transform="scale(1 1) rotate(0) translate(4 482)">
<title>net/socket/ip/tcp/ipv6/legacy/SocketServer.h</title>
<polygon fill="white" stroke="transparent" points="-4,4 -4,-482 663.5,-482 663.5,4 -4,4"/>
<!-- Node1 -->
<g id="node1" class="node">
<title>Node1</title>
<g id="a_node1"><a xlink:title=" ">
<polygon fill="#bfbfbf" stroke="black" points="230.5,-447.5 230.5,-477.5 348.5,-477.5 348.5,-447.5 230.5,-447.5"/>
<text text-anchor="start" x="238.5" y="-465.5" font-family="Helvetica,sans-Serif" font-size="10.00">net/socket/ip/tcp/ipv6</text>
<text text-anchor="middle" x="289.5" y="-454.5" font-family="Helvetica,sans-Serif" font-size="10.00">/legacy/SocketServer.h</text>
</a>
</g>
</g>
<!-- Node2 -->
<g id="node2" class="node">
<title>Node2</title>
<g id="a_node2"><a xlink:href="ip_2tcp_2ipv6_2_socket_8h.html" target="_top" xlink:title=" ">
<polygon fill="white" stroke="black" points="158.5,-380.5 158.5,-410.5 268.5,-410.5 268.5,-380.5 158.5,-380.5"/>
<text text-anchor="start" x="166.5" y="-398.5" font-family="Helvetica,sans-Serif" font-size="10.00">net/socket/ip/tcp/ipv6</text>
<text text-anchor="middle" x="213.5" y="-387.5" font-family="Helvetica,sans-Serif" font-size="10.00">/Socket.h</text>
</a>
</g>
</g>
<!-- Node1&#45;&gt;Node2 -->
<g id="edge1" class="edge">
<title>Node1&#45;&gt;Node2</title>
<path fill="none" stroke="midnightblue" d="M273.01,-447.4C262.65,-438.54 249.12,-426.96 237.57,-417.09"/>
<polygon fill="midnightblue" stroke="midnightblue" points="239.83,-414.42 229.96,-410.58 235.28,-419.74 239.83,-414.42"/>
</g>
<!-- Node7 -->
<g id="node7" class="node">
<title>Node7</title>
<g id="a_node7"><a xlink:href="stream_2legacy_2_socket_server_8h.html" target="_top" xlink:title=" ">
<polygon fill="white" stroke="black" points="295,-380.5 295,-410.5 422,-410.5 422,-380.5 295,-380.5"/>
<text text-anchor="start" x="303" y="-398.5" font-family="Helvetica,sans-Serif" font-size="10.00">net/socket/stream/legacy</text>
<text text-anchor="middle" x="358.5" y="-387.5" font-family="Helvetica,sans-Serif" font-size="10.00">/SocketServer.h</text>
</a>
</g>
</g>
<!-- Node1&#45;&gt;Node7 -->
<g id="edge7" class="edge">
<title>Node1&#45;&gt;Node7</title>
<path fill="none" stroke="midnightblue" d="M304.47,-447.4C313.69,-438.71 325.69,-427.4 336.04,-417.66"/>
<polygon fill="midnightblue" stroke="midnightblue" points="338.68,-419.98 343.56,-410.58 333.88,-414.89 338.68,-419.98"/>
</g>
<!-- Node3 -->
<g id="node3" class="node">
<title>Node3</title>
<g id="a_node3"><a xlink:href="_socket_8h.html" target="_top" xlink:title=" ">
<polygon fill="white" stroke="black" points="36.5,-319 36.5,-338 140.5,-338 140.5,-319 36.5,-319"/>
<text text-anchor="middle" x="88.5" y="-326" font-family="Helvetica,sans-Serif" font-size="10.00">net/socket/Socket.h</text>
</a>
</g>
</g>
<!-- Node2&#45;&gt;Node3 -->
<g id="edge2" class="edge">
<title>Node2&#45;&gt;Node3</title>
<path fill="none" stroke="midnightblue" d="M186.38,-380.4C164.83,-369.19 134.93,-353.64 113.86,-342.69"/>
<polygon fill="midnightblue" stroke="midnightblue" points="115.35,-339.52 104.86,-338.01 112.12,-345.73 115.35,-339.52"/>
</g>
<!-- Node6 -->
<g id="node6" class="node">
<title>Node6</title>
<g id="a_node6"><a xlink:href="ipv6_2_inet_address_8h.html" target="_top" xlink:title=" ">
<polygon fill="white" stroke="black" points="158.5,-313.5 158.5,-343.5 268.5,-343.5 268.5,-313.5 158.5,-313.5"/>
<text text-anchor="start" x="166.5" y="-331.5" font-family="Helvetica,sans-Serif" font-size="10.00">net/socket/ip/address</text>
<text text-anchor="middle" x="213.5" y="-320.5" font-family="Helvetica,sans-Serif" font-size="10.00">/ipv6/InetAddress.h</text>
</a>
</g>
</g>
<!-- Node2&#45;&gt;Node6 -->
<g id="edge5" class="edge">
<title>Node2&#45;&gt;Node6</title>
<path fill="none" stroke="midnightblue" d="M213.5,-380.4C213.5,-372.64 213.5,-362.81 213.5,-353.86"/>
<polygon fill="midnightblue" stroke="midnightblue" points="217,-353.58 213.5,-343.58 210,-353.58 217,-353.58"/>
</g>
<!-- Node4 -->
<g id="node4" class="node">
<title>Node4</title>
<g id="a_node4"><a xlink:href="_descriptor_8h.html" target="_top" xlink:title=" ">
<polygon fill="white" stroke="black" points="32.5,-252 32.5,-271 118.5,-271 118.5,-252 32.5,-252"/>
<text text-anchor="middle" x="75.5" y="-259" font-family="Helvetica,sans-Serif" font-size="10.00">net/Descriptor.h</text>
</a>
</g>
</g>
<!-- Node3&#45;&gt;Node4 -->
<g id="edge3" class="edge">
<title>Node3&#45;&gt;Node4</title>
<path fill="none" stroke="midnightblue" d="M86.75,-318.73C84.84,-309.18 81.72,-293.62 79.26,-281.28"/>
<polygon fill="midnightblue" stroke="midnightblue" points="82.62,-280.25 77.23,-271.13 75.75,-281.62 82.62,-280.25"/>
</g>
<!-- Node5 -->
<g id="node5" class="node">
<title>Node5</title>
<g id="a_node5"><a xlink:href="_socket_address_8h.html" target="_top" xlink:title=" ">
<polygon fill="white" stroke="black" points="136.5,-252 136.5,-271 276.5,-271 276.5,-252 136.5,-252"/>
<text text-anchor="middle" x="206.5" y="-259" font-family="Helvetica,sans-Serif" font-size="10.00">net/socket/SocketAddress.h</text>
</a>
</g>
</g>
<!-- Node3&#45;&gt;Node5 -->
<g id="edge4" class="edge">
<title>Node3&#45;&gt;Node5</title>
<path fill="none" stroke="midnightblue" d="M104.41,-318.73C124.32,-307.77 158.61,-288.88 181.9,-276.05"/>
<polygon fill="midnightblue" stroke="midnightblue" points="183.77,-279.02 190.84,-271.13 180.39,-272.89 183.77,-279.02"/>
</g>
<!-- Node6&#45;&gt;Node5 -->
<g id="edge6" class="edge">
<title>Node6&#45;&gt;Node5</title>
<path fill="none" stroke="midnightblue" d="M211.98,-313.4C210.97,-303.96 209.62,-291.45 208.51,-281.19"/>
<polygon fill="midnightblue" stroke="midnightblue" points="211.99,-280.76 207.44,-271.19 205.03,-281.51 211.99,-280.76"/>
</g>
<!-- Node8 -->
<g id="node8" class="node">
<title>Node8</title>
<g id="a_node8"><a xlink:href="stream_2_socket_server_8h.html" target="_top" xlink:title=" ">
<polygon fill="white" stroke="black" points="440,-313.5 440,-343.5 569,-343.5 569,-313.5 440,-313.5"/>
<text text-anchor="start" x="448" y="-331.5" font-family="Helvetica,sans-Serif" font-size="10.00">net/socket/stream/Socket</text>
<text text-anchor="middle" x="504.5" y="-320.5" font-family="Helvetica,sans-Serif" font-size="10.00">Server.h</text>
</a>
</g>
</g>
<!-- Node7&#45;&gt;Node8 -->
<g id="edge8" class="edge">
<title>Node7&#45;&gt;Node8</title>
<path fill="none" stroke="midnightblue" d="M390.18,-380.4C411.7,-370.81 440.37,-358.05 463.62,-347.7"/>
<polygon fill="midnightblue" stroke="midnightblue" points="465.17,-350.84 472.88,-343.58 462.32,-344.45 465.17,-350.84"/>
</g>
<!-- Node14 -->
<g id="node14" class="node">
<title>Node14</title>
<g id="a_node14"><a xlink:href="legacy_2_socket_listener_8h.html" target="_top" xlink:title=" ">
<polygon fill="white" stroke="black" points="295,-313.5 295,-343.5 422,-343.5 422,-313.5 295,-313.5"/>
<text text-anchor="start" x="303" y="-331.5" font-family="Helvetica,sans-Serif" font-size="10.00">net/socket/stream/legacy</text>
<text text-anchor="middle" x="358.5" y="-320.5" font-family="Helvetica,sans-Serif" font-size="10.00">/SocketListener.h</text>
</a>
</g>
</g>
<!-- Node7&#45;&gt;Node14 -->
<g id="edge15" class="edge">
<title>Node7&#45;&gt;Node14</title>
<path fill="none" stroke="midnightblue" d="M358.5,-380.4C358.5,-372.64 358.5,-362.81 358.5,-353.86"/>
<polygon fill="midnightblue" stroke="midnightblue" points="362,-353.58 358.5,-343.58 355,-353.58 362,-353.58"/>
</g>
<!-- Node9 -->
<g id="node9" class="node">
<title>Node9</title>
<g id="a_node9"><a xlink:href="_socket_listener_8h.html" target="_top" xlink:title=" ">
<polygon fill="white" stroke="black" points="441,-112.5 441,-142.5 570,-142.5 570,-112.5 441,-112.5"/>
<text text-anchor="start" x="449" y="-130.5" font-family="Helvetica,sans-Serif" font-size="10.00">net/socket/stream/Socket</text>
<text text-anchor="middle" x="505.5" y="-119.5" font-family="Helvetica,sans-Serif" font-size="10.00">Listener.h</text>
</a>
</g>
</g>
<!-- Node8&#45;&gt;Node9 -->
<g id="edge9" class="edge">
<title>Node8&#45;&gt;Node9</title>
<path fill="none" stroke="midnightblue" d="M504.57,-313.19C504.74,-279.48 505.17,-194.8 505.38,-152.84"/>
<polygon fill="midnightblue" stroke="midnightblue" points="508.88,-152.7 505.43,-142.68 501.88,-152.66 508.88,-152.7"/>
</g>
<!-- Node10 -->
<g id="node10" class="node">
<title>Node10</title>
<g id="a_node10"><a xlink:href="_logger_8h.html" target="_top" xlink:title=" ">
<polygon fill="white" stroke="black" points="290,-56.5 290,-75.5 359,-75.5 359,-56.5 290,-56.5"/>
<text text-anchor="middle" x="324.5" y="-63.5" font-family="Helvetica,sans-Serif" font-size="10.00">log/Logger.h</text>
</a>
</g>
</g>
<!-- Node9&#45;&gt;Node10 -->
<g id="edge10" class="edge">
<title>Node9&#45;&gt;Node10</title>
<path fill="none" stroke="midnightblue" d="M462.61,-112.4C431.47,-102.16 389.81,-88.47 360.42,-78.81"/>
<polygon fill="midnightblue" stroke="midnightblue" points="361.17,-75.37 350.57,-75.57 358.98,-82.02 361.17,-75.37"/>
</g>
<!-- Node11 -->
<g id="node11" class="node">
<title>Node11</title>
<g id="a_node11"><a xlink:href="_accept_event_receiver_8h.html" target="_top" xlink:title=" ">
<polygon fill="white" stroke="black" points="523.5,-56.5 523.5,-75.5 659.5,-75.5 659.5,-56.5 523.5,-56.5"/>
<text text-anchor="middle" x="591.5" y="-63.5" font-family="Helvetica,sans-Serif" font-size="10.00">net/AcceptEventReceiver.h</text>
</a>
</g>
</g>
<!-- Node9&#45;&gt;Node11 -->
<g id="edge11" class="edge">
<title>Node9&#45;&gt;Node11</title>
<path fill="none" stroke="midnightblue" d="M525.88,-112.4C539.41,-103.04 557.11,-90.79 570.72,-81.38"/>
<polygon fill="midnightblue" stroke="midnightblue" points="572.75,-84.23 578.99,-75.66 568.77,-78.47 572.75,-84.23"/>
</g>
<!-- Node13 -->
<g id="node13" class="node">
<title>Node13</title>
<g id="a_node13"><a xlink:href="_read_event_receiver_8h.html" target="_top" xlink:title=" ">
<polygon fill="white" stroke="black" points="377.5,-56.5 377.5,-75.5 505.5,-75.5 505.5,-56.5 377.5,-56.5"/>
<text text-anchor="middle" x="441.5" y="-63.5" font-family="Helvetica,sans-Serif" font-size="10.00">net/ReadEventReceiver.h</text>
</a>
</g>
</g>
<!-- Node9&#45;&gt;Node13 -->
<g id="edge13" class="edge">
<title>Node9&#45;&gt;Node13</title>
<path fill="none" stroke="midnightblue" d="M490.33,-112.4C480.75,-103.49 468.34,-91.95 458.43,-82.74"/>
<polygon fill="midnightblue" stroke="midnightblue" points="460.52,-79.9 450.81,-75.66 455.75,-85.03 460.52,-79.9"/>
</g>
<!-- Node12 -->
<g id="node12" class="node">
<title>Node12</title>
<g id="a_node12"><a xlink:href="_descriptor_event_receiver_8h.html" target="_top" xlink:title=" ">
<polygon fill="white" stroke="black" points="366.5,-0.5 366.5,-19.5 516.5,-19.5 516.5,-0.5 366.5,-0.5"/>
<text text-anchor="middle" x="441.5" y="-7.5" font-family="Helvetica,sans-Serif" font-size="10.00">net/DescriptorEventReceiver.h</text>
</a>
</g>
</g>
<!-- Node11&#45;&gt;Node12 -->
<g id="edge12" class="edge">
<title>Node11&#45;&gt;Node12</title>
<path fill="none" stroke="midnightblue" d="M567.73,-56.44C542.61,-47.4 502.79,-33.06 474.6,-22.92"/>
<polygon fill="midnightblue" stroke="midnightblue" points="475.75,-19.61 465.16,-19.52 473.38,-26.2 475.75,-19.61"/>
</g>
<!-- Node13&#45;&gt;Node12 -->
<g id="edge14" class="edge">
<title>Node13&#45;&gt;Node12</title>
<path fill="none" stroke="midnightblue" d="M441.5,-56.08C441.5,-49.01 441.5,-38.86 441.5,-29.99"/>
<polygon fill="midnightblue" stroke="midnightblue" points="445,-29.75 441.5,-19.75 438,-29.75 445,-29.75"/>
</g>
<!-- Node14&#45;&gt;Node9 -->
<g id="edge16" class="edge">
<title>Node14&#45;&gt;Node9</title>
<path fill="none" stroke="midnightblue" d="M385.31,-313.43C400.33,-304.53 418.58,-291.91 431.5,-277 464.55,-238.86 487.02,-183.37 497.91,-152.15"/>
<polygon fill="midnightblue" stroke="midnightblue" points="501.27,-153.14 501.16,-142.55 494.64,-150.9 501.27,-153.14"/>
</g>
<!-- Node15 -->
<g id="node15" class="node">
<title>Node15</title>
<g id="a_node15"><a xlink:href="legacy_2_socket_connection_8h.html" target="_top" xlink:title=" ">
<polygon fill="white" stroke="black" points="295,-246.5 295,-276.5 422,-276.5 422,-246.5 295,-246.5"/>
<text text-anchor="start" x="303" y="-264.5" font-family="Helvetica,sans-Serif" font-size="10.00">net/socket/stream/legacy</text>
<text text-anchor="middle" x="358.5" y="-253.5" font-family="Helvetica,sans-Serif" font-size="10.00">/SocketConnection.h</text>
</a>
</g>
</g>
<!-- Node14&#45;&gt;Node15 -->
<g id="edge17" class="edge">
<title>Node14&#45;&gt;Node15</title>
<path fill="none" stroke="midnightblue" d="M358.5,-313.4C358.5,-305.64 358.5,-295.81 358.5,-286.86"/>
<polygon fill="midnightblue" stroke="midnightblue" points="362,-286.58 358.5,-276.58 355,-286.58 362,-286.58"/>
</g>
<!-- Node16 -->
<g id="node16" class="node">
<title>Node16</title>
<g id="a_node16"><a xlink:href="_socket_connection_8h.html" target="_top" xlink:title=" ">
<polygon fill="white" stroke="black" points="2,-179.5 2,-209.5 131,-209.5 131,-179.5 2,-179.5"/>
<text text-anchor="start" x="10" y="-197.5" font-family="Helvetica,sans-Serif" font-size="10.00">net/socket/stream/Socket</text>
<text text-anchor="middle" x="66.5" y="-186.5" font-family="Helvetica,sans-Serif" font-size="10.00">Connection.h</text>
</a>
</g>
</g>
<!-- Node15&#45;&gt;Node16 -->
<g id="edge18" class="edge">
<title>Node15&#45;&gt;Node16</title>
<path fill="none" stroke="midnightblue" d="M295.5,-246.48C249.72,-236.28 187.63,-222.46 139.65,-211.78"/>
<polygon fill="midnightblue" stroke="midnightblue" points="140.16,-208.31 129.64,-209.55 138.64,-215.14 140.16,-208.31"/>
</g>
<!-- Node19 -->
<g id="node19" class="node">
<title>Node19</title>
<g id="a_node19"><a xlink:href="legacy_2_socket_reader_8h.html" target="_top" xlink:title=" ">
<polygon fill="white" stroke="black" points="295,-179.5 295,-209.5 422,-209.5 422,-179.5 295,-179.5"/>
<text text-anchor="start" x="303" y="-197.5" font-family="Helvetica,sans-Serif" font-size="10.00">net/socket/stream/legacy</text>
<text text-anchor="middle" x="358.5" y="-186.5" font-family="Helvetica,sans-Serif" font-size="10.00">/SocketReader.h</text>
</a>
</g>
</g>
<!-- Node15&#45;&gt;Node19 -->
<g id="edge21" class="edge">
<title>Node15&#45;&gt;Node19</title>
<path fill="none" stroke="midnightblue" d="M358.5,-246.4C358.5,-238.64 358.5,-228.81 358.5,-219.86"/>
<polygon fill="midnightblue" stroke="midnightblue" points="362,-219.58 358.5,-209.58 355,-219.58 362,-219.58"/>
</g>
<!-- Node21 -->
<g id="node21" class="node">
<title>Node21</title>
<g id="a_node21"><a xlink:href="legacy_2_socket_writer_8h.html" target="_top" xlink:title=" ">
<polygon fill="white" stroke="black" points="149,-179.5 149,-209.5 276,-209.5 276,-179.5 149,-179.5"/>
<text text-anchor="start" x="157" y="-197.5" font-family="Helvetica,sans-Serif" font-size="10.00">net/socket/stream/legacy</text>
<text text-anchor="middle" x="212.5" y="-186.5" font-family="Helvetica,sans-Serif" font-size="10.00">/SocketWriter.h</text>
</a>
</g>
</g>
<!-- Node15&#45;&gt;Node21 -->
<g id="edge24" class="edge">
<title>Node15&#45;&gt;Node21</title>
<path fill="none" stroke="midnightblue" d="M326.82,-246.4C305.3,-236.81 276.63,-224.05 253.38,-213.7"/>
<polygon fill="midnightblue" stroke="midnightblue" points="254.68,-210.45 244.12,-209.58 251.83,-216.84 254.68,-210.45"/>
</g>
<!-- Node17 -->
<g id="node17" class="node">
<title>Node17</title>
<g id="a_node17"><a xlink:href="_socket_connection_base_8h.html" target="_top" xlink:title=" ">
<polygon fill="white" stroke="black" points="0,-112.5 0,-142.5 129,-142.5 129,-112.5 0,-112.5"/>
<text text-anchor="start" x="8" y="-130.5" font-family="Helvetica,sans-Serif" font-size="10.00">net/socket/stream/Socket</text>
<text text-anchor="middle" x="64.5" y="-119.5" font-family="Helvetica,sans-Serif" font-size="10.00">ConnectionBase.h</text>
</a>
</g>
</g>
<!-- Node16&#45;&gt;Node17 -->
<g id="edge19" class="edge">
<title>Node16&#45;&gt;Node17</title>
<path fill="none" stroke="midnightblue" d="M66.07,-179.4C65.83,-171.64 65.52,-161.81 65.25,-152.86"/>
<polygon fill="midnightblue" stroke="midnightblue" points="68.74,-152.46 64.93,-142.58 61.74,-152.68 68.74,-152.46"/>
</g>
<!-- Node18 -->
<g id="node18" class="node">
<title>Node18</title>
<g id="a_node18"><a xlink:href="_attribute_injector_8h.html" target="_top" xlink:title=" ">
<polygon fill="white" stroke="black" points="7.5,-56.5 7.5,-75.5 121.5,-75.5 121.5,-56.5 7.5,-56.5"/>
<text text-anchor="middle" x="64.5" y="-63.5" font-family="Helvetica,sans-Serif" font-size="10.00">utils/AttributeInjector.h</text>
</a>
</g>
</g>
<!-- Node17&#45;&gt;Node18 -->
<g id="edge20" class="edge">
<title>Node17&#45;&gt;Node18</title>
<path fill="none" stroke="midnightblue" d="M64.5,-112.4C64.5,-104.47 64.5,-94.46 64.5,-85.86"/>
<polygon fill="midnightblue" stroke="midnightblue" points="68,-85.66 64.5,-75.66 61,-85.66 68,-85.66"/>
</g>
<!-- Node20 -->
<g id="node20" class="node">
<title>Node20</title>
<g id="a_node20"><a xlink:href="_socket_reader_8h.html" target="_top" xlink:title=" ">
<polygon fill="white" stroke="black" points="294,-112.5 294,-142.5 423,-142.5 423,-112.5 294,-112.5"/>
<text text-anchor="start" x="302" y="-130.5" font-family="Helvetica,sans-Serif" font-size="10.00">net/socket/stream/Socket</text>
<text text-anchor="middle" x="358.5" y="-119.5" font-family="Helvetica,sans-Serif" font-size="10.00">Reader.h</text>
</a>
</g>
</g>
<!-- Node19&#45;&gt;Node20 -->
<g id="edge22" class="edge">
<title>Node19&#45;&gt;Node20</title>
<path fill="none" stroke="midnightblue" d="M358.5,-179.4C358.5,-171.64 358.5,-161.81 358.5,-152.86"/>
<polygon fill="midnightblue" stroke="midnightblue" points="362,-152.58 358.5,-142.58 355,-152.58 362,-152.58"/>
</g>
<!-- Node20&#45;&gt;Node13 -->
<g id="edge23" class="edge">
<title>Node20&#45;&gt;Node13</title>
<path fill="none" stroke="midnightblue" d="M378.17,-112.4C391.1,-103.13 407.99,-91.03 421.07,-81.65"/>
<polygon fill="midnightblue" stroke="midnightblue" points="423.33,-84.33 429.42,-75.66 419.26,-78.64 423.33,-84.33"/>
</g>
<!-- Node22 -->
<g id="node22" class="node">
<title>Node22</title>
<g id="a_node22"><a xlink:href="_socket_writer_8h.html" target="_top" xlink:title=" ">
<polygon fill="white" stroke="black" points="147,-112.5 147,-142.5 276,-142.5 276,-112.5 147,-112.5"/>
<text text-anchor="start" x="155" y="-130.5" font-family="Helvetica,sans-Serif" font-size="10.00">net/socket/stream/Socket</text>
<text text-anchor="middle" x="211.5" y="-119.5" font-family="Helvetica,sans-Serif" font-size="10.00">Writer.h</text>
</a>
</g>
</g>
<!-- Node21&#45;&gt;Node22 -->
<g id="edge25" class="edge">
<title>Node21&#45;&gt;Node22</title>
<path fill="none" stroke="midnightblue" d="M212.28,-179.4C212.16,-171.64 212.01,-161.81 211.87,-152.86"/>
<polygon fill="midnightblue" stroke="midnightblue" points="215.37,-152.52 211.72,-142.58 208.37,-152.63 215.37,-152.52"/>
</g>
<!-- Node22&#45;&gt;Node10 -->
<g id="edge26" class="edge">
<title>Node22&#45;&gt;Node10</title>
<path fill="none" stroke="midnightblue" d="M238.28,-112.4C256.56,-102.77 280.65,-90.09 298.71,-80.58"/>
<polygon fill="midnightblue" stroke="midnightblue" points="300.84,-83.41 308.06,-75.66 297.58,-77.22 300.84,-83.41"/>
</g>
<!-- Node23 -->
<g id="node23" class="node">
<title>Node23</title>
<g id="a_node23"><a xlink:href="_write_event_receiver_8h.html" target="_top" xlink:title=" ">
<polygon fill="white" stroke="black" points="143.5,-56.5 143.5,-75.5 271.5,-75.5 271.5,-56.5 143.5,-56.5"/>
<text text-anchor="middle" x="207.5" y="-63.5" font-family="Helvetica,sans-Serif" font-size="10.00">net/WriteEventReceiver.h</text>
</a>
</g>
</g>
<!-- Node22&#45;&gt;Node23 -->
<g id="edge27" class="edge">
<title>Node22&#45;&gt;Node23</title>
<path fill="none" stroke="midnightblue" d="M210.55,-112.4C210.02,-104.47 209.35,-94.46 208.77,-85.86"/>
<polygon fill="midnightblue" stroke="midnightblue" points="212.24,-85.4 208.08,-75.66 205.26,-85.87 212.24,-85.4"/>
</g>
<!-- Node23&#45;&gt;Node12 -->
<g id="edge28" class="edge">
<title>Node23&#45;&gt;Node12</title>
<path fill="none" stroke="midnightblue" d="M244.58,-56.44C285.23,-47.06 350.53,-31.99 394.68,-21.8"/>
<polygon fill="midnightblue" stroke="midnightblue" points="395.64,-25.18 404.6,-19.52 394.06,-18.35 395.64,-25.18"/>
</g>
</g>
</svg>
