<?xml version="1.0" encoding="UTF-8" standalone="no"?>
<!DOCTYPE svg PUBLIC "-//W3C//DTD SVG 1.1//EN"
 "http://www.w3.org/Graphics/SVG/1.1/DTD/svg11.dtd">
<!-- Generated by graphviz version 2.43.0 (0)
 -->
<!-- Title: net/socket/ip/tcp/ipv6/tls/SocketServer.h Pages: 1 -->
<svg width="1050pt" height="486pt"
 viewBox="0.00 0.00 1049.50 486.00" xmlns="http://www.w3.org/2000/svg" xmlns:xlink="http://www.w3.org/1999/xlink">
<g id="graph0" class="graph" transform="scale(1 1) rotate(0) translate(4 482)">
<title>net/socket/ip/tcp/ipv6/tls/SocketServer.h</title>
<polygon fill="white" stroke="transparent" points="-4,4 -4,-482 1045.5,-482 1045.5,4 -4,4"/>
<!-- Node1 -->
<g id="node1" class="node">
<title>Node1</title>
<g id="a_node1"><a xlink:title=" ">
<polygon fill="#bfbfbf" stroke="black" points="176.5,-447.5 176.5,-477.5 286.5,-477.5 286.5,-447.5 176.5,-447.5"/>
<text text-anchor="start" x="184.5" y="-465.5" font-family="Helvetica,sans-Serif" font-size="10.00">net/socket/ip/tcp/ipv6</text>
<text text-anchor="middle" x="231.5" y="-454.5" font-family="Helvetica,sans-Serif" font-size="10.00">/tls/SocketServer.h</text>
</a>
</g>
</g>
<!-- Node2 -->
<g id="node2" class="node">
<title>Node2</title>
<g id="a_node2"><a xlink:href="ip_2tcp_2_socket_server_8h.html" target="_top" xlink:title=" ">
<polygon fill="white" stroke="black" points="60,-386 60,-405 203,-405 203,-386 60,-386"/>
<text text-anchor="middle" x="131.5" y="-393" font-family="Helvetica,sans-Serif" font-size="10.00">socket/ip/tcp/SocketServer.h</text>
</a>
</g>
</g>
<!-- Node1&#45;&gt;Node2 -->
<g id="edge1" class="edge">
<title>Node1&#45;&gt;Node2</title>
<path fill="none" stroke="midnightblue" d="M209.8,-447.4C193.03,-436.5 169.93,-421.48 153.17,-410.58"/>
<polygon fill="midnightblue" stroke="midnightblue" points="154.88,-407.52 144.59,-405.01 151.06,-413.39 154.88,-407.52"/>
</g>
<!-- Node3 -->
<g id="node3" class="node">
<title>Node3</title>
<g id="a_node3"><a xlink:href="ip_2tcp_2ipv6_2_socket_8h.html" target="_top" xlink:title=" ">
<polygon fill="white" stroke="black" points="166.5,-246.5 166.5,-276.5 260.5,-276.5 260.5,-246.5 166.5,-246.5"/>
<text text-anchor="start" x="174.5" y="-264.5" font-family="Helvetica,sans-Serif" font-size="10.00">socket/ip/tcp/ipv6</text>
<text text-anchor="middle" x="213.5" y="-253.5" font-family="Helvetica,sans-Serif" font-size="10.00">/Socket.h</text>
</a>
</g>
</g>
<!-- Node1&#45;&gt;Node3 -->
<g id="edge2" class="edge">
<title>Node1&#45;&gt;Node3</title>
<path fill="none" stroke="midnightblue" d="M230.21,-447.19C227.16,-413.48 219.5,-328.8 215.7,-286.84"/>
<polygon fill="midnightblue" stroke="midnightblue" points="219.17,-286.33 214.78,-276.68 212.2,-286.96 219.17,-286.33"/>
</g>
<!-- Node8 -->
<g id="node8" class="node">
<title>Node8</title>
<g id="a_node8"><a xlink:href="sock__stream_2tls_2_socket_server_8h.html" target="_top" xlink:title=" ">
<polygon fill="white" stroke="black" points="278,-380.5 278,-410.5 383,-410.5 383,-380.5 278,-380.5"/>
<text text-anchor="start" x="286" y="-398.5" font-family="Helvetica,sans-Serif" font-size="10.00">socket/sock_stream</text>
<text text-anchor="middle" x="330.5" y="-387.5" font-family="Helvetica,sans-Serif" font-size="10.00">/tls/SocketServer.h</text>
</a>
</g>
</g>
<!-- Node1&#45;&gt;Node8 -->
<g id="edge9" class="edge">
<title>Node1&#45;&gt;Node8</title>
<path fill="none" stroke="midnightblue" d="M252.98,-447.4C266.86,-438.28 285.13,-426.29 300.44,-416.24"/>
<polygon fill="midnightblue" stroke="midnightblue" points="302.62,-418.99 309.06,-410.58 298.78,-413.14 302.62,-418.99"/>
</g>
<!-- Node4 -->
<g id="node4" class="node">
<title>Node4</title>
<g id="a_node4"><a xlink:href="_descriptor_8h.html" target="_top" xlink:title=" ">
<polygon fill="white" stroke="black" points="166,-118 166,-137 235,-137 235,-118 166,-118"/>
<text text-anchor="middle" x="200.5" y="-125" font-family="Helvetica,sans-Serif" font-size="10.00">Descriptor.h</text>
</a>
</g>
</g>
<!-- Node3&#45;&gt;Node4 -->
<g id="edge3" class="edge">
<title>Node3&#45;&gt;Node4</title>
<path fill="none" stroke="midnightblue" d="M220.55,-246.24C227.71,-229.87 236.89,-202.28 230.5,-179 227.18,-166.9 220.12,-154.77 213.69,-145.43"/>
<polygon fill="midnightblue" stroke="midnightblue" points="216.35,-143.14 207.62,-137.13 210.69,-147.27 216.35,-143.14"/>
</g>
<!-- Node5 -->
<g id="node5" class="node">
<title>Node5</title>
<g id="a_node5"><a xlink:href="_socket_8h.html" target="_top" xlink:title=" ">
<polygon fill="white" stroke="black" points="133.5,-185 133.5,-204 221.5,-204 221.5,-185 133.5,-185"/>
<text text-anchor="middle" x="177.5" y="-192" font-family="Helvetica,sans-Serif" font-size="10.00">socket/Socket.h</text>
</a>
</g>
</g>
<!-- Node3&#45;&gt;Node5 -->
<g id="edge4" class="edge">
<title>Node3&#45;&gt;Node5</title>
<path fill="none" stroke="midnightblue" d="M205.69,-246.4C200.3,-236.66 193.09,-223.65 187.31,-213.21"/>
<polygon fill="midnightblue" stroke="midnightblue" points="190.22,-211.25 182.32,-204.19 184.1,-214.64 190.22,-211.25"/>
</g>
<!-- Node7 -->
<g id="node7" class="node">
<title>Node7</title>
<g id="a_node7"><a xlink:href="ipv6_2_inet_address_8h.html" target="_top" xlink:title=" ">
<polygon fill="white" stroke="black" points="0,-179.5 0,-209.5 115,-209.5 115,-179.5 0,-179.5"/>
<text text-anchor="start" x="8" y="-197.5" font-family="Helvetica,sans-Serif" font-size="10.00">socket/ip/address/ipv6</text>
<text text-anchor="middle" x="57.5" y="-186.5" font-family="Helvetica,sans-Serif" font-size="10.00">/InetAddress.h</text>
</a>
</g>
</g>
<!-- Node3&#45;&gt;Node7 -->
<g id="edge7" class="edge">
<title>Node3&#45;&gt;Node7</title>
<path fill="none" stroke="midnightblue" d="M179.65,-246.4C156.45,-236.73 125.47,-223.82 100.52,-213.43"/>
<polygon fill="midnightblue" stroke="midnightblue" points="101.86,-210.19 91.28,-209.58 99.17,-216.65 101.86,-210.19"/>
</g>
<!-- Node5&#45;&gt;Node4 -->
<g id="edge5" class="edge">
<title>Node5&#45;&gt;Node4</title>
<path fill="none" stroke="midnightblue" d="M180.6,-184.73C184.02,-175.09 189.6,-159.3 193.99,-146.91"/>
<polygon fill="midnightblue" stroke="midnightblue" points="197.41,-147.72 197.45,-137.13 190.81,-145.39 197.41,-147.72"/>
</g>
<!-- Node6 -->
<g id="node6" class="node">
<title>Node6</title>
<g id="a_node6"><a xlink:href="_socket_address_8h.html" target="_top" xlink:title=" ">
<polygon fill="white" stroke="black" points="9.5,-118 9.5,-137 133.5,-137 133.5,-118 9.5,-118"/>
<text text-anchor="middle" x="71.5" y="-125" font-family="Helvetica,sans-Serif" font-size="10.00">socket/SocketAddress.h</text>
</a>
</g>
</g>
<!-- Node5&#45;&gt;Node6 -->
<g id="edge6" class="edge">
<title>Node5&#45;&gt;Node6</title>
<path fill="none" stroke="midnightblue" d="M163.2,-184.73C145.48,-173.87 115.07,-155.22 94.16,-142.39"/>
<polygon fill="midnightblue" stroke="midnightblue" points="95.92,-139.37 85.57,-137.13 92.26,-145.34 95.92,-139.37"/>
</g>
<!-- Node7&#45;&gt;Node6 -->
<g id="edge8" class="edge">
<title>Node7&#45;&gt;Node6</title>
<path fill="none" stroke="midnightblue" d="M60.54,-179.4C62.57,-169.96 65.26,-157.45 67.47,-147.19"/>
<polygon fill="midnightblue" stroke="midnightblue" points="70.94,-147.71 69.63,-137.19 64.1,-146.23 70.94,-147.71"/>
</g>
<!-- Node9 -->
<g id="node9" class="node">
<title>Node9</title>
<g id="a_node9"><a xlink:href="tls_2_socket_listener_8h.html" target="_top" xlink:title=" ">
<polygon fill="white" stroke="black" points="465,-319 465,-338 554,-338 554,-319 465,-319"/>
<text text-anchor="middle" x="509.5" y="-326" font-family="Helvetica,sans-Serif" font-size="10.00">SocketListener.h</text>
</a>
</g>
</g>
<!-- Node8&#45;&gt;Node9 -->
<g id="edge10" class="edge">
<title>Node8&#45;&gt;Node9</title>
<path fill="none" stroke="midnightblue" d="M369.34,-380.4C401.3,-368.79 446.12,-352.51 476.4,-341.52"/>
<polygon fill="midnightblue" stroke="midnightblue" points="477.87,-344.71 486.07,-338.01 475.48,-338.13 477.87,-344.71"/>
</g>
<!-- Node26 -->
<g id="node26" class="node">
<title>Node26</title>
<g id="a_node26"><a xlink:href="sock__stream_2_socket_server_8h.html" target="_top" xlink:title=" ">
<polygon fill="white" stroke="black" points="278,-313.5 278,-343.5 383,-343.5 383,-313.5 278,-313.5"/>
<text text-anchor="start" x="286" y="-331.5" font-family="Helvetica,sans-Serif" font-size="10.00">socket/sock_stream</text>
<text text-anchor="middle" x="330.5" y="-320.5" font-family="Helvetica,sans-Serif" font-size="10.00">/SocketServer.h</text>
</a>
</g>
</g>
<!-- Node8&#45;&gt;Node26 -->
<g id="edge43" class="edge">
<title>Node8&#45;&gt;Node26</title>
<path fill="none" stroke="midnightblue" d="M330.5,-380.4C330.5,-372.64 330.5,-362.81 330.5,-353.86"/>
<polygon fill="midnightblue" stroke="midnightblue" points="334,-353.58 330.5,-343.58 327,-353.58 334,-353.58"/>
</g>
<!-- Node10 -->
<g id="node10" class="node">
<title>Node10</title>
<g id="a_node10"><a xlink:href="_logger_8h.html" target="_top" xlink:title=" ">
<polygon fill="white" stroke="black" points="330,-118 330,-137 383,-137 383,-118 330,-118"/>
<text text-anchor="middle" x="356.5" y="-125" font-family="Helvetica,sans-Serif" font-size="10.00">Logger.h</text>
</a>
</g>
</g>
<!-- Node9&#45;&gt;Node10 -->
<g id="edge11" class="edge">
<title>Node9&#45;&gt;Node10</title>
<path fill="none" stroke="midnightblue" d="M502.93,-318.95C479.63,-288.66 400.77,-186.08 369.46,-145.36"/>
<polygon fill="midnightblue" stroke="midnightblue" points="372.09,-143.04 363.22,-137.24 366.54,-147.3 372.09,-143.04"/>
</g>
<!-- Node11 -->
<g id="node11" class="node">
<title>Node11</title>
<g id="a_node11"><a xlink:href="tls_2_socket_connection_8h.html" target="_top" xlink:title=" ">
<polygon fill="white" stroke="black" points="602,-252 602,-271 707,-271 707,-252 602,-252"/>
<text text-anchor="middle" x="654.5" y="-259" font-family="Helvetica,sans-Serif" font-size="10.00">SocketConnection.h</text>
</a>
</g>
</g>
<!-- Node9&#45;&gt;Node11 -->
<g id="edge12" class="edge">
<title>Node9&#45;&gt;Node11</title>
<path fill="none" stroke="midnightblue" d="M528.75,-318.87C553.67,-307.7 597.29,-288.15 626.03,-275.26"/>
<polygon fill="midnightblue" stroke="midnightblue" points="627.47,-278.45 635.17,-271.17 624.61,-272.06 627.47,-278.45"/>
</g>
<!-- Node16 -->
<g id="node16" class="node">
<title>Node16</title>
<g id="a_node16"><a xlink:href="_t_l_s_handshake_8h.html" target="_top" xlink:title=" ">
<polygon fill="white" stroke="black" points="765.5,-118 765.5,-137 857.5,-137 857.5,-118 765.5,-118"/>
<text text-anchor="middle" x="811.5" y="-125" font-family="Helvetica,sans-Serif" font-size="10.00">TLSHandshake.h</text>
</a>
</g>
</g>
<!-- Node9&#45;&gt;Node16 -->
<g id="edge36" class="edge">
<title>Node9&#45;&gt;Node16</title>
<path fill="none" stroke="midnightblue" d="M554.01,-325.97C598.61,-322.42 667.35,-311.27 715.5,-277 762.7,-243.4 792.49,-178.62 804.88,-146.9"/>
<polygon fill="midnightblue" stroke="midnightblue" points="808.29,-147.76 808.54,-137.17 801.74,-145.3 808.29,-147.76"/>
</g>
<!-- Node21 -->
<g id="node21" class="node">
<title>Node21</title>
<g id="a_node21"><a xlink:href="ssl__utils_8h.html" target="_top" xlink:title=" ">
<polygon fill="white" stroke="black" points="563,-118 563,-137 624,-137 624,-118 563,-118"/>
<text text-anchor="middle" x="593.5" y="-125" font-family="Helvetica,sans-Serif" font-size="10.00">ssl_utils.h</text>
</a>
</g>
</g>
<!-- Node9&#45;&gt;Node21 -->
<g id="edge42" class="edge">
<title>Node9&#45;&gt;Node21</title>
<path fill="none" stroke="midnightblue" d="M513.11,-318.95C525.76,-288.97 568.29,-188.23 585.83,-146.67"/>
<polygon fill="midnightblue" stroke="midnightblue" points="589.15,-147.82 589.81,-137.24 582.7,-145.09 589.15,-147.82"/>
</g>
<!-- Node24 -->
<g id="node24" class="node">
<title>Node24</title>
<g id="a_node24"><a xlink:href="_socket_listener_8h.html" target="_top" xlink:title=" ">
<polygon fill="white" stroke="black" points="278,-179.5 278,-209.5 383,-209.5 383,-179.5 278,-179.5"/>
<text text-anchor="start" x="286" y="-197.5" font-family="Helvetica,sans-Serif" font-size="10.00">socket/sock_stream</text>
<text text-anchor="middle" x="330.5" y="-186.5" font-family="Helvetica,sans-Serif" font-size="10.00">/SocketListener.h</text>
</a>
</g>
</g>
<!-- Node9&#45;&gt;Node24 -->
<g id="edge37" class="edge">
<title>Node9&#45;&gt;Node24</title>
<path fill="none" stroke="midnightblue" d="M481.34,-318.86C457.45,-310.63 423.08,-296.57 397.5,-277 376.07,-260.6 357.12,-236.09 344.89,-218.23"/>
<polygon fill="midnightblue" stroke="midnightblue" points="347.58,-215.96 339.13,-209.57 341.75,-219.84 347.58,-215.96"/>
</g>
<!-- Node12 -->
<g id="node12" class="node">
<title>Node12</title>
<g id="a_node12"><a xlink:href="_socket_connection_8h.html" target="_top" xlink:title=" ">
<polygon fill="white" stroke="black" points="843.5,-179.5 843.5,-209.5 951.5,-209.5 951.5,-179.5 843.5,-179.5"/>
<text text-anchor="start" x="851.5" y="-197.5" font-family="Helvetica,sans-Serif" font-size="10.00">socket/sock_stream</text>
<text text-anchor="middle" x="897.5" y="-186.5" font-family="Helvetica,sans-Serif" font-size="10.00">/SocketConnection.h</text>
</a>
</g>
</g>
<!-- Node11&#45;&gt;Node12 -->
<g id="edge13" class="edge">
<title>Node11&#45;&gt;Node12</title>
<path fill="none" stroke="midnightblue" d="M686.52,-251.94C724.18,-241.86 787.57,-224.9 835.06,-212.2"/>
<polygon fill="midnightblue" stroke="midnightblue" points="836.18,-215.52 844.94,-209.56 834.38,-208.76 836.18,-215.52"/>
</g>
<!-- Node15 -->
<g id="node15" class="node">
<title>Node15</title>
<g id="a_node15"><a xlink:href="tls_2_socket_reader_8h.html" target="_top" xlink:title=" ">
<polygon fill="white" stroke="black" points="602,-179.5 602,-209.5 707,-209.5 707,-179.5 602,-179.5"/>
<text text-anchor="start" x="610" y="-197.5" font-family="Helvetica,sans-Serif" font-size="10.00">socket/sock_stream</text>
<text text-anchor="middle" x="654.5" y="-186.5" font-family="Helvetica,sans-Serif" font-size="10.00">/tls/SocketReader.h</text>
</a>
</g>
</g>
<!-- Node11&#45;&gt;Node15 -->
<g id="edge16" class="edge">
<title>Node11&#45;&gt;Node15</title>
<path fill="none" stroke="midnightblue" d="M654.5,-251.73C654.5,-243.54 654.5,-230.92 654.5,-219.71"/>
<polygon fill="midnightblue" stroke="midnightblue" points="658,-219.59 654.5,-209.59 651,-219.59 658,-219.59"/>
</g>
<!-- Node22 -->
<g id="node22" class="node">
<title>Node22</title>
<g id="a_node22"><a xlink:href="tls_2_socket_writer_8h.html" target="_top" xlink:title=" ">
<polygon fill="white" stroke="black" points="440,-179.5 440,-209.5 545,-209.5 545,-179.5 440,-179.5"/>
<text text-anchor="start" x="448" y="-197.5" font-family="Helvetica,sans-Serif" font-size="10.00">socket/sock_stream</text>
<text text-anchor="middle" x="492.5" y="-186.5" font-family="Helvetica,sans-Serif" font-size="10.00">/tls/SocketWriter.h</text>
</a>
</g>
</g>
<!-- Node11&#45;&gt;Node22 -->
<g id="edge28" class="edge">
<title>Node11&#45;&gt;Node22</title>
<path fill="none" stroke="midnightblue" d="M632.99,-251.87C608.57,-242.07 568.09,-225.83 536.84,-213.29"/>
<polygon fill="midnightblue" stroke="midnightblue" points="538.05,-210 527.46,-209.53 535.44,-216.5 538.05,-210"/>
</g>
<!-- Node13 -->
<g id="node13" class="node">
<title>Node13</title>
<g id="a_node13"><a xlink:href="_socket_connection_base_8h.html" target="_top" xlink:title=" ">
<polygon fill="white" stroke="black" points="913.5,-118 913.5,-137 1041.5,-137 1041.5,-118 913.5,-118"/>
<text text-anchor="middle" x="977.5" y="-125" font-family="Helvetica,sans-Serif" font-size="10.00">SocketConnectionBase.h</text>
</a>
</g>
</g>
<!-- Node12&#45;&gt;Node13 -->
<g id="edge14" class="edge">
<title>Node12&#45;&gt;Node13</title>
<path fill="none" stroke="midnightblue" d="M914.86,-179.4C927.83,-168.86 945.53,-154.48 958.81,-143.69"/>
<polygon fill="midnightblue" stroke="midnightblue" points="961.24,-146.22 966.8,-137.19 956.83,-140.78 961.24,-146.22"/>
</g>
<!-- Node14 -->
<g id="node14" class="node">
<title>Node14</title>
<g id="a_node14"><a xlink:href="_attribute_injector_8h.html" target="_top" xlink:title=" ">
<polygon fill="white" stroke="black" points="931,-56.5 931,-75.5 1024,-75.5 1024,-56.5 931,-56.5"/>
<text text-anchor="middle" x="977.5" y="-63.5" font-family="Helvetica,sans-Serif" font-size="10.00">AttributeInjector.h</text>
</a>
</g>
</g>
<!-- Node13&#45;&gt;Node14 -->
<g id="edge15" class="edge">
<title>Node13&#45;&gt;Node14</title>
<path fill="none" stroke="midnightblue" d="M977.5,-117.98C977.5,-109.58 977.5,-96.48 977.5,-85.66"/>
<polygon fill="midnightblue" stroke="midnightblue" points="981,-85.51 977.5,-75.51 974,-85.51 981,-85.51"/>
</g>
<!-- Node15&#45;&gt;Node4 -->
<g id="edge17" class="edge">
<title>Node15&#45;&gt;Node4</title>
<path fill="none" stroke="midnightblue" d="M601.82,-185.93C586.26,-183.7 569.19,-181.25 553.5,-179 442.69,-163.12 312.3,-144.48 245.27,-134.9"/>
<polygon fill="midnightblue" stroke="midnightblue" points="245.47,-131.39 235.07,-133.44 244.48,-138.32 245.47,-131.39"/>
</g>
<!-- Node15&#45;&gt;Node10 -->
<g id="edge18" class="edge">
<title>Node15&#45;&gt;Node10</title>
<path fill="none" stroke="midnightblue" d="M601.91,-182.03C541.91,-168.94 445.37,-147.88 393.05,-136.47"/>
<polygon fill="midnightblue" stroke="midnightblue" points="393.71,-133.04 383.2,-134.32 392.22,-139.87 393.71,-133.04"/>
</g>
<!-- Node15&#45;&gt;Node16 -->
<g id="edge19" class="edge">
<title>Node15&#45;&gt;Node16</title>
<path fill="none" stroke="midnightblue" d="M688.57,-179.4C716.24,-167.94 754.89,-151.94 781.42,-140.95"/>
<polygon fill="midnightblue" stroke="midnightblue" points="783.05,-144.07 790.95,-137.01 780.37,-137.6 783.05,-144.07"/>
</g>
<!-- Node19 -->
<g id="node19" class="node">
<title>Node19</title>
<g id="a_node19"><a xlink:href="_write_event_receiver_8h.html" target="_top" xlink:title=" ">
<polygon fill="white" stroke="black" points="621,-56.5 621,-75.5 732,-75.5 732,-56.5 621,-56.5"/>
<text text-anchor="middle" x="676.5" y="-63.5" font-family="Helvetica,sans-Serif" font-size="10.00">WriteEventReceiver.h</text>
</a>
</g>
</g>
<!-- Node15&#45;&gt;Node19 -->
<g id="edge24" class="edge">
<title>Node15&#45;&gt;Node19</title>
<path fill="none" stroke="midnightblue" d="M707.21,-188.33C763.42,-181.6 847.01,-167.68 866.5,-143 903.31,-96.39 811.03,-78.25 742.55,-71.27"/>
<polygon fill="midnightblue" stroke="midnightblue" points="742.5,-67.75 732.22,-70.28 741.84,-74.71 742.5,-67.75"/>
</g>
<!-- Node20 -->
<g id="node20" class="node">
<title>Node20</title>
<g id="a_node20"><a xlink:href="_socket_reader_8h.html" target="_top" xlink:title=" ">
<polygon fill="white" stroke="black" points="642,-112.5 642,-142.5 747,-142.5 747,-112.5 642,-112.5"/>
<text text-anchor="start" x="650" y="-130.5" font-family="Helvetica,sans-Serif" font-size="10.00">socket/sock_stream</text>
<text text-anchor="middle" x="694.5" y="-119.5" font-family="Helvetica,sans-Serif" font-size="10.00">/SocketReader.h</text>
</a>
</g>
</g>
<!-- Node15&#45;&gt;Node20 -->
<g id="edge25" class="edge">
<title>Node15&#45;&gt;Node20</title>
<path fill="none" stroke="midnightblue" d="M663.18,-179.4C668.26,-171.13 674.8,-160.51 680.59,-151.1"/>
<polygon fill="midnightblue" stroke="midnightblue" points="683.58,-152.93 685.84,-142.58 677.62,-149.26 683.58,-152.93"/>
</g>
<!-- Node15&#45;&gt;Node21 -->
<g id="edge27" class="edge">
<title>Node15&#45;&gt;Node21</title>
<path fill="none" stroke="midnightblue" d="M641.26,-179.4C631.66,-169.16 618.65,-155.3 608.63,-144.62"/>
<polygon fill="midnightblue" stroke="midnightblue" points="611.05,-142.09 601.66,-137.19 605.95,-146.88 611.05,-142.09"/>
</g>
<!-- Node17 -->
<g id="node17" class="node">
<title>Node17</title>
<g id="a_node17"><a xlink:href="_read_event_receiver_8h.html" target="_top" xlink:title=" ">
<polygon fill="white" stroke="black" points="422.5,-56.5 422.5,-75.5 534.5,-75.5 534.5,-56.5 422.5,-56.5"/>
<text text-anchor="middle" x="478.5" y="-63.5" font-family="Helvetica,sans-Serif" font-size="10.00">ReadEventReceiver.h</text>
</a>
</g>
</g>
<!-- Node16&#45;&gt;Node17 -->
<g id="edge20" class="edge">
<title>Node16&#45;&gt;Node17</title>
<path fill="none" stroke="midnightblue" d="M780.52,-117.93C772.41,-115.84 763.66,-113.71 755.5,-112 684.02,-96.97 601.26,-84.11 544.95,-76.04"/>
<polygon fill="midnightblue" stroke="midnightblue" points="545.15,-72.53 534.75,-74.58 544.16,-79.46 545.15,-72.53"/>
</g>
<!-- Node16&#45;&gt;Node19 -->
<g id="edge22" class="edge">
<title>Node16&#45;&gt;Node19</title>
<path fill="none" stroke="midnightblue" d="M792.16,-117.98C769.4,-107.95 731.41,-91.2 705.21,-79.65"/>
<polygon fill="midnightblue" stroke="midnightblue" points="706.37,-76.34 695.81,-75.51 703.55,-82.74 706.37,-76.34"/>
</g>
<!-- Node18 -->
<g id="node18" class="node">
<title>Node18</title>
<g id="a_node18"><a xlink:href="_event_receiver_8h.html" target="_top" xlink:title=" ">
<polygon fill="white" stroke="black" points="434,-0.5 434,-19.5 523,-19.5 523,-0.5 434,-0.5"/>
<text text-anchor="middle" x="478.5" y="-7.5" font-family="Helvetica,sans-Serif" font-size="10.00">EventReceiver.h</text>
</a>
</g>
</g>
<!-- Node17&#45;&gt;Node18 -->
<g id="edge21" class="edge">
<title>Node17&#45;&gt;Node18</title>
<path fill="none" stroke="midnightblue" d="M478.5,-56.08C478.5,-49.01 478.5,-38.86 478.5,-29.99"/>
<polygon fill="midnightblue" stroke="midnightblue" points="482,-29.75 478.5,-19.75 475,-29.75 482,-29.75"/>
</g>
<!-- Node19&#45;&gt;Node18 -->
<g id="edge23" class="edge">
<title>Node19&#45;&gt;Node18</title>
<path fill="none" stroke="midnightblue" d="M645.13,-56.44C611.24,-47.2 557.1,-32.44 519.78,-22.26"/>
<polygon fill="midnightblue" stroke="midnightblue" points="520.3,-18.77 509.73,-19.52 518.45,-25.52 520.3,-18.77"/>
</g>
<!-- Node20&#45;&gt;Node17 -->
<g id="edge26" class="edge">
<title>Node20&#45;&gt;Node17</title>
<path fill="none" stroke="midnightblue" d="M643.58,-112.47C605.67,-102.03 554.58,-87.96 519.33,-78.25"/>
<polygon fill="midnightblue" stroke="midnightblue" points="519.95,-74.79 509.38,-75.51 518.09,-81.54 519.95,-74.79"/>
</g>
<!-- Node22&#45;&gt;Node4 -->
<g id="edge29" class="edge">
<title>Node22&#45;&gt;Node4</title>
<path fill="none" stroke="midnightblue" d="M439.96,-181.8C384.39,-169.43 297.66,-150.13 245.24,-138.46"/>
<polygon fill="midnightblue" stroke="midnightblue" points="245.75,-134.99 235.23,-136.23 244.23,-141.82 245.75,-134.99"/>
</g>
<!-- Node22&#45;&gt;Node10 -->
<g id="edge30" class="edge">
<title>Node22&#45;&gt;Node10</title>
<path fill="none" stroke="midnightblue" d="M462.99,-179.4C439.34,-168.09 406.42,-152.36 383.47,-141.39"/>
<polygon fill="midnightblue" stroke="midnightblue" points="384.83,-138.16 374.3,-137.01 381.81,-144.48 384.83,-138.16"/>
</g>
<!-- Node22&#45;&gt;Node16 -->
<g id="edge32" class="edge">
<title>Node22&#45;&gt;Node16</title>
<path fill="none" stroke="midnightblue" d="M545.1,-184.42C598.34,-174.99 682.93,-159.35 755.5,-143 760.21,-141.94 765.13,-140.76 770.01,-139.56"/>
<polygon fill="midnightblue" stroke="midnightblue" points="771.06,-142.9 779.9,-137.06 769.34,-136.12 771.06,-142.9"/>
</g>
<!-- Node22&#45;&gt;Node17 -->
<g id="edge31" class="edge">
<title>Node22&#45;&gt;Node17</title>
<path fill="none" stroke="midnightblue" d="M465.94,-179.47C452.67,-170.88 437.89,-158.55 430.5,-143 424.59,-130.56 425.02,-124.64 430.5,-112 435.77,-99.84 446.12,-89.46 455.86,-81.74"/>
<polygon fill="midnightblue" stroke="midnightblue" points="458.14,-84.41 464.13,-75.67 454,-78.77 458.14,-84.41"/>
</g>
<!-- Node22&#45;&gt;Node21 -->
<g id="edge35" class="edge">
<title>Node22&#45;&gt;Node21</title>
<path fill="none" stroke="midnightblue" d="M514.42,-179.4C531.35,-168.5 554.69,-153.48 571.62,-142.58"/>
<polygon fill="midnightblue" stroke="midnightblue" points="573.77,-145.36 580.28,-137.01 569.98,-139.48 573.77,-145.36"/>
</g>
<!-- Node23 -->
<g id="node23" class="node">
<title>Node23</title>
<g id="a_node23"><a xlink:href="_socket_writer_8h.html" target="_top" xlink:title=" ">
<polygon fill="white" stroke="black" points="440,-112.5 440,-142.5 545,-142.5 545,-112.5 440,-112.5"/>
<text text-anchor="start" x="448" y="-130.5" font-family="Helvetica,sans-Serif" font-size="10.00">socket/sock_stream</text>
<text text-anchor="middle" x="492.5" y="-119.5" font-family="Helvetica,sans-Serif" font-size="10.00">/SocketWriter.h</text>
</a>
</g>
</g>
<!-- Node22&#45;&gt;Node23 -->
<g id="edge33" class="edge">
<title>Node22&#45;&gt;Node23</title>
<path fill="none" stroke="midnightblue" d="M492.5,-179.4C492.5,-171.64 492.5,-161.81 492.5,-152.86"/>
<polygon fill="midnightblue" stroke="midnightblue" points="496,-152.58 492.5,-142.58 489,-152.58 496,-152.58"/>
</g>
<!-- Node23&#45;&gt;Node19 -->
<g id="edge34" class="edge">
<title>Node23&#45;&gt;Node19</title>
<path fill="none" stroke="midnightblue" d="M536.11,-112.4C567.9,-102.12 610.47,-88.35 640.37,-78.68"/>
<polygon fill="midnightblue" stroke="midnightblue" points="641.56,-81.98 649.99,-75.57 639.4,-75.32 641.56,-81.98"/>
</g>
<!-- Node24&#45;&gt;Node10 -->
<g id="edge40" class="edge">
<title>Node24&#45;&gt;Node10</title>
<path fill="none" stroke="midnightblue" d="M336.14,-179.4C339.99,-169.76 345.13,-156.91 349.29,-146.54"/>
<polygon fill="midnightblue" stroke="midnightblue" points="352.56,-147.78 353.02,-137.19 346.06,-145.18 352.56,-147.78"/>
</g>
<!-- Node24&#45;&gt;Node17 -->
<g id="edge41" class="edge">
<title>Node24&#45;&gt;Node17</title>
<path fill="none" stroke="midnightblue" d="M323.2,-179.25C315.32,-161.63 305.73,-131.57 320.5,-112 332.06,-96.69 375.07,-85.05 413.31,-77.45"/>
<polygon fill="midnightblue" stroke="midnightblue" points="414.26,-80.83 423.42,-75.5 412.94,-73.95 414.26,-80.83"/>
</g>
<!-- Node25 -->
<g id="node25" class="node">
<title>Node25</title>
<g id="a_node25"><a xlink:href="_accept_event_receiver_8h.html" target="_top" xlink:title=" ">
<polygon fill="white" stroke="black" points="278,-56.5 278,-75.5 397,-75.5 397,-56.5 278,-56.5"/>
<text text-anchor="middle" x="337.5" y="-63.5" font-family="Helvetica,sans-Serif" font-size="10.00">AcceptEventReceiver.h</text>
</a>
</g>
</g>
<!-- Node24&#45;&gt;Node25 -->
<g id="edge38" class="edge">
<title>Node24&#45;&gt;Node25</title>
<path fill="none" stroke="midnightblue" d="M313.7,-179.47C304.02,-170.24 292.75,-157.26 287.5,-143 282.74,-130.07 281.89,-124.59 287.5,-112 293.07,-99.5 304.02,-89.01 314.25,-81.32"/>
<polygon fill="midnightblue" stroke="midnightblue" points="316.35,-84.12 322.55,-75.53 312.34,-78.38 316.35,-84.12"/>
</g>
<!-- Node25&#45;&gt;Node18 -->
<g id="edge39" class="edge">
<title>Node25&#45;&gt;Node18</title>
<path fill="none" stroke="midnightblue" d="M359.84,-56.44C383.25,-47.48 420.24,-33.31 446.69,-23.18"/>
<polygon fill="midnightblue" stroke="midnightblue" points="448.18,-26.36 456.26,-19.52 445.67,-19.82 448.18,-26.36"/>
</g>
<!-- Node26&#45;&gt;Node24 -->
<g id="edge44" class="edge">
<title>Node26&#45;&gt;Node24</title>
<path fill="none" stroke="midnightblue" d="M330.5,-313.37C330.5,-291.04 330.5,-247.31 330.5,-219.85"/>
<polygon fill="midnightblue" stroke="midnightblue" points="334,-219.52 330.5,-209.52 327,-219.52 334,-219.52"/>
</g>
</g>
</svg>
