<?xml version="1.0" encoding="UTF-8" standalone="no"?>
<!DOCTYPE svg PUBLIC "-//W3C//DTD SVG 1.1//EN"
 "http://www.w3.org/Graphics/SVG/1.1/DTD/svg11.dtd">
<!-- Generated by graphviz version 2.43.0 (0)
 -->
<!-- Title: net/socket/ipv4/tcp/tls/SocketClient.h Pages: 1 -->
<svg width="974pt" height="408pt"
 viewBox="0.00 0.00 973.50 408.00" xmlns="http://www.w3.org/2000/svg" xmlns:xlink="http://www.w3.org/1999/xlink">
<g id="graph0" class="graph" transform="scale(1 1) rotate(0) translate(4 404)">
<title>net/socket/ipv4/tcp/tls/SocketClient.h</title>
<polygon fill="white" stroke="transparent" points="-4,4 -4,-404 969.5,-404 969.5,4 -4,4"/>
<!-- Node1 -->
<g id="node1" class="node">
<title>Node1</title>
<g id="a_node1"><a xlink:title=" ">
<polygon fill="#bfbfbf" stroke="black" points="498,-369.5 498,-399.5 598,-399.5 598,-369.5 498,-369.5"/>
<text text-anchor="start" x="506" y="-387.5" font-family="Helvetica,sans-Serif" font-size="10.00">net/socket/ipv4/tcp</text>
<text text-anchor="middle" x="548" y="-376.5" font-family="Helvetica,sans-Serif" font-size="10.00">/tls/SocketClient.h</text>
</a>
</g>
</g>
<!-- Node2 -->
<g id="node2" class="node">
<title>Node2</title>
<g id="a_node2"><a xlink:href="ipv4_2tcp_2_socket_8h.html" target="_top" xlink:title=" ">
<polygon fill="white" stroke="black" points="208.5,-246.5 208.5,-265.5 333.5,-265.5 333.5,-246.5 208.5,-246.5"/>
<text text-anchor="middle" x="271" y="-253.5" font-family="Helvetica,sans-Serif" font-size="10.00">socket/ipv4/tcp/Socket.h</text>
</a>
</g>
</g>
<!-- Node1&#45;&gt;Node2 -->
<g id="edge1" class="edge">
<title>Node1&#45;&gt;Node2</title>
<path fill="none" stroke="midnightblue" d="M517.3,-369.48C463.17,-344.76 351.57,-293.8 299.25,-269.9"/>
<polygon fill="midnightblue" stroke="midnightblue" points="300.45,-266.6 289.9,-265.63 297.54,-272.97 300.45,-266.6"/>
</g>
<!-- Node7 -->
<g id="node7" class="node">
<title>Node7</title>
<g id="a_node7"><a xlink:href="sock__stream_2tls_2_socket_client_8h.html" target="_top" xlink:title=" ">
<polygon fill="white" stroke="black" points="722.5,-302.5 722.5,-332.5 827.5,-332.5 827.5,-302.5 722.5,-302.5"/>
<text text-anchor="start" x="730.5" y="-320.5" font-family="Helvetica,sans-Serif" font-size="10.00">socket/sock_stream</text>
<text text-anchor="middle" x="775" y="-309.5" font-family="Helvetica,sans-Serif" font-size="10.00">/tls/SocketClient.h</text>
</a>
</g>
</g>
<!-- Node1&#45;&gt;Node7 -->
<g id="edge8" class="edge">
<title>Node1&#45;&gt;Node7</title>
<path fill="none" stroke="midnightblue" d="M596.98,-369.48C631.91,-359.47 679.06,-345.97 716.06,-335.38"/>
<polygon fill="midnightblue" stroke="midnightblue" points="717.07,-338.73 725.72,-332.61 715.14,-332 717.07,-338.73"/>
</g>
<!-- Node3 -->
<g id="node3" class="node">
<title>Node3</title>
<g id="a_node3"><a xlink:href="_descriptor_8h.html" target="_top" xlink:title=" ">
<polygon fill="white" stroke="black" points="288.5,-118 288.5,-137 357.5,-137 357.5,-118 288.5,-118"/>
<text text-anchor="middle" x="323" y="-125" font-family="Helvetica,sans-Serif" font-size="10.00">Descriptor.h</text>
</a>
</g>
</g>
<!-- Node2&#45;&gt;Node3 -->
<g id="edge2" class="edge">
<title>Node2&#45;&gt;Node3</title>
<path fill="none" stroke="midnightblue" d="M274.57,-246.31C283,-225.81 304.24,-174.15 315.58,-146.54"/>
<polygon fill="midnightblue" stroke="midnightblue" points="318.84,-147.84 319.4,-137.26 312.36,-145.17 318.84,-147.84"/>
</g>
<!-- Node4 -->
<g id="node4" class="node">
<title>Node4</title>
<g id="a_node4"><a xlink:href="_socket_8h.html" target="_top" xlink:title=" ">
<polygon fill="white" stroke="black" points="191,-185 191,-204 279,-204 279,-185 191,-185"/>
<text text-anchor="middle" x="235" y="-192" font-family="Helvetica,sans-Serif" font-size="10.00">socket/Socket.h</text>
</a>
</g>
</g>
<!-- Node2&#45;&gt;Node4 -->
<g id="edge3" class="edge">
<title>Node2&#45;&gt;Node4</title>
<path fill="none" stroke="midnightblue" d="M265.84,-246.48C260.55,-237.73 252.16,-223.87 245.47,-212.81"/>
<polygon fill="midnightblue" stroke="midnightblue" points="248.32,-210.75 240.15,-204.01 242.33,-214.38 248.32,-210.75"/>
</g>
<!-- Node6 -->
<g id="node6" class="node">
<title>Node6</title>
<g id="a_node6"><a xlink:href="ipv4_2_inet_address_8h.html" target="_top" xlink:title=" ">
<polygon fill="white" stroke="black" points="26.5,-185 26.5,-204 157.5,-204 157.5,-185 26.5,-185"/>
<text text-anchor="middle" x="92" y="-192" font-family="Helvetica,sans-Serif" font-size="10.00">socket/ipv4/InetAddress.h</text>
</a>
</g>
</g>
<!-- Node2&#45;&gt;Node6 -->
<g id="edge6" class="edge">
<title>Node2&#45;&gt;Node6</title>
<path fill="none" stroke="midnightblue" d="M245.35,-246.48C214.38,-236.18 162.13,-218.81 127.35,-207.25"/>
<polygon fill="midnightblue" stroke="midnightblue" points="128.19,-203.84 117.6,-204.01 125.98,-210.48 128.19,-203.84"/>
</g>
<!-- Node4&#45;&gt;Node3 -->
<g id="edge4" class="edge">
<title>Node4&#45;&gt;Node3</title>
<path fill="none" stroke="midnightblue" d="M246.87,-184.73C261.25,-174.11 285.7,-156.05 303.01,-143.26"/>
<polygon fill="midnightblue" stroke="midnightblue" points="305.36,-145.88 311.32,-137.13 301.2,-140.25 305.36,-145.88"/>
</g>
<!-- Node5 -->
<g id="node5" class="node">
<title>Node5</title>
<g id="a_node5"><a xlink:href="_socket_address_8h.html" target="_top" xlink:title=" ">
<polygon fill="white" stroke="black" points="0,-118 0,-137 124,-137 124,-118 0,-118"/>
<text text-anchor="middle" x="62" y="-125" font-family="Helvetica,sans-Serif" font-size="10.00">socket/SocketAddress.h</text>
</a>
</g>
</g>
<!-- Node4&#45;&gt;Node5 -->
<g id="edge5" class="edge">
<title>Node4&#45;&gt;Node5</title>
<path fill="none" stroke="midnightblue" d="M212.03,-184.87C181.83,-173.52 128.6,-153.52 94.34,-140.65"/>
<polygon fill="midnightblue" stroke="midnightblue" points="95.38,-137.3 84.79,-137.06 92.92,-143.86 95.38,-137.3"/>
</g>
<!-- Node6&#45;&gt;Node5 -->
<g id="edge7" class="edge">
<title>Node6&#45;&gt;Node5</title>
<path fill="none" stroke="midnightblue" d="M87.95,-184.73C83.46,-174.99 76.07,-158.98 70.32,-146.53"/>
<polygon fill="midnightblue" stroke="midnightblue" points="73.35,-144.74 65.98,-137.13 66.99,-147.67 73.35,-144.74"/>
</g>
<!-- Node8 -->
<g id="node8" class="node">
<title>Node8</title>
<g id="a_node8"><a xlink:href="tls_2_socket_connection_8h.html" target="_top" xlink:title=" ">
<polygon fill="white" stroke="black" points="528.5,-246.5 528.5,-265.5 633.5,-265.5 633.5,-246.5 528.5,-246.5"/>
<text text-anchor="middle" x="581" y="-253.5" font-family="Helvetica,sans-Serif" font-size="10.00">SocketConnection.h</text>
</a>
</g>
</g>
<!-- Node7&#45;&gt;Node8 -->
<g id="edge9" class="edge">
<title>Node7&#45;&gt;Node8</title>
<path fill="none" stroke="midnightblue" d="M729.02,-302.4C695.36,-292.07 650.22,-278.23 618.68,-268.56"/>
<polygon fill="midnightblue" stroke="midnightblue" points="619.53,-265.16 608.95,-265.57 617.48,-271.85 619.53,-265.16"/>
</g>
<!-- Node20 -->
<g id="node20" class="node">
<title>Node20</title>
<g id="a_node20"><a xlink:href="sock__stream_2_socket_client_8h.html" target="_top" xlink:title=" ">
<polygon fill="white" stroke="black" points="722.5,-179.5 722.5,-209.5 827.5,-209.5 827.5,-179.5 722.5,-179.5"/>
<text text-anchor="start" x="730.5" y="-197.5" font-family="Helvetica,sans-Serif" font-size="10.00">socket/sock_stream</text>
<text text-anchor="middle" x="775" y="-186.5" font-family="Helvetica,sans-Serif" font-size="10.00">/SocketClient.h</text>
</a>
</g>
</g>
<!-- Node7&#45;&gt;Node20 -->
<g id="edge26" class="edge">
<title>Node7&#45;&gt;Node20</title>
<path fill="none" stroke="midnightblue" d="M775,-302.14C775,-281.86 775,-244.53 775,-219.86"/>
<polygon fill="midnightblue" stroke="midnightblue" points="778.5,-219.84 775,-209.84 771.5,-219.84 778.5,-219.84"/>
</g>
<!-- Node21 -->
<g id="node21" class="node">
<title>Node21</title>
<g id="a_node21"><a xlink:href="_singleshot_timer_8h.html" target="_top" xlink:title=" ">
<polygon fill="white" stroke="black" points="846.5,-118 846.5,-137 965.5,-137 965.5,-118 846.5,-118"/>
<text text-anchor="middle" x="906" y="-125" font-family="Helvetica,sans-Serif" font-size="10.00">timer/SingleshotTimer.h</text>
</a>
</g>
</g>
<!-- Node7&#45;&gt;Node21 -->
<g id="edge34" class="edge">
<title>Node7&#45;&gt;Node21</title>
<path fill="none" stroke="midnightblue" d="M784.85,-302.37C808.44,-268.51 868.17,-182.79 893.9,-145.87"/>
<polygon fill="midnightblue" stroke="midnightblue" points="897.09,-147.41 899.93,-137.21 891.34,-143.41 897.09,-147.41"/>
</g>
<!-- Node23 -->
<g id="node23" class="node">
<title>Node23</title>
<g id="a_node23"><a xlink:href="ssl__utils_8h.html" target="_top" xlink:title=" ">
<polygon fill="white" stroke="black" points="884.5,-246.5 884.5,-265.5 945.5,-265.5 945.5,-246.5 884.5,-246.5"/>
<text text-anchor="middle" x="915" y="-253.5" font-family="Helvetica,sans-Serif" font-size="10.00">ssl_utils.h</text>
</a>
</g>
</g>
<!-- Node7&#45;&gt;Node23 -->
<g id="edge33" class="edge">
<title>Node7&#45;&gt;Node23</title>
<path fill="none" stroke="midnightblue" d="M808.18,-302.4C831.56,-292.46 862.61,-279.26 885.21,-269.66"/>
<polygon fill="midnightblue" stroke="midnightblue" points="886.79,-272.79 894.63,-265.66 884.06,-266.35 886.79,-272.79"/>
</g>
<!-- Node9 -->
<g id="node9" class="node">
<title>Node9</title>
<g id="a_node9"><a xlink:href="_socket_connection_8h.html" target="_top" xlink:title=" ">
<polygon fill="white" stroke="black" points="335,-179.5 335,-209.5 443,-209.5 443,-179.5 335,-179.5"/>
<text text-anchor="start" x="343" y="-197.5" font-family="Helvetica,sans-Serif" font-size="10.00">socket/sock_stream</text>
<text text-anchor="middle" x="389" y="-186.5" font-family="Helvetica,sans-Serif" font-size="10.00">/SocketConnection.h</text>
</a>
</g>
</g>
<!-- Node8&#45;&gt;Node9 -->
<g id="edge10" class="edge">
<title>Node8&#45;&gt;Node9</title>
<path fill="none" stroke="midnightblue" d="M553.49,-246.48C525.06,-237.66 479.9,-223.67 444.08,-212.57"/>
<polygon fill="midnightblue" stroke="midnightblue" points="444.84,-209.14 434.25,-209.52 442.77,-215.83 444.84,-209.14"/>
</g>
<!-- Node12 -->
<g id="node12" class="node">
<title>Node12</title>
<g id="a_node12"><a xlink:href="tls_2_socket_reader_8h.html" target="_top" xlink:title=" ">
<polygon fill="white" stroke="black" points="461.5,-179.5 461.5,-209.5 566.5,-209.5 566.5,-179.5 461.5,-179.5"/>
<text text-anchor="start" x="469.5" y="-197.5" font-family="Helvetica,sans-Serif" font-size="10.00">socket/sock_stream</text>
<text text-anchor="middle" x="514" y="-186.5" font-family="Helvetica,sans-Serif" font-size="10.00">/tls/SocketReader.h</text>
</a>
</g>
</g>
<!-- Node8&#45;&gt;Node12 -->
<g id="edge13" class="edge">
<title>Node8&#45;&gt;Node12</title>
<path fill="none" stroke="midnightblue" d="M571.4,-246.48C562.58,-238.64 549.15,-226.71 537.5,-216.37"/>
<polygon fill="midnightblue" stroke="midnightblue" points="539.59,-213.55 529.79,-209.52 534.94,-218.78 539.59,-213.55"/>
</g>
<!-- Node18 -->
<g id="node18" class="node">
<title>Node18</title>
<g id="a_node18"><a xlink:href="tls_2_socket_writer_8h.html" target="_top" xlink:title=" ">
<polygon fill="white" stroke="black" points="594.5,-179.5 594.5,-209.5 699.5,-209.5 699.5,-179.5 594.5,-179.5"/>
<text text-anchor="start" x="602.5" y="-197.5" font-family="Helvetica,sans-Serif" font-size="10.00">socket/sock_stream</text>
<text text-anchor="middle" x="647" y="-186.5" font-family="Helvetica,sans-Serif" font-size="10.00">/tls/SocketWriter.h</text>
</a>
</g>
</g>
<!-- Node8&#45;&gt;Node18 -->
<g id="edge21" class="edge">
<title>Node8&#45;&gt;Node18</title>
<path fill="none" stroke="midnightblue" d="M590.46,-246.48C599.14,-238.64 612.38,-226.71 623.86,-216.37"/>
<polygon fill="midnightblue" stroke="midnightblue" points="626.36,-218.82 631.45,-209.52 621.67,-213.62 626.36,-218.82"/>
</g>
<!-- Node10 -->
<g id="node10" class="node">
<title>Node10</title>
<g id="a_node10"><a xlink:href="_socket_connection_base_8h.html" target="_top" xlink:title=" ">
<polygon fill="white" stroke="black" points="142,-118 142,-137 270,-137 270,-118 142,-118"/>
<text text-anchor="middle" x="206" y="-125" font-family="Helvetica,sans-Serif" font-size="10.00">SocketConnectionBase.h</text>
</a>
</g>
</g>
<!-- Node9&#45;&gt;Node10 -->
<g id="edge11" class="edge">
<title>Node9&#45;&gt;Node10</title>
<path fill="none" stroke="midnightblue" d="M349.29,-179.4C316.47,-167.74 270.4,-151.37 239.44,-140.38"/>
<polygon fill="midnightblue" stroke="midnightblue" points="240.55,-137.06 229.95,-137.01 238.2,-143.65 240.55,-137.06"/>
</g>
<!-- Node11 -->
<g id="node11" class="node">
<title>Node11</title>
<g id="a_node11"><a xlink:href="_attribute_injector_8h.html" target="_top" xlink:title=" ">
<polygon fill="white" stroke="black" points="159.5,-56.5 159.5,-75.5 252.5,-75.5 252.5,-56.5 159.5,-56.5"/>
<text text-anchor="middle" x="206" y="-63.5" font-family="Helvetica,sans-Serif" font-size="10.00">AttributeInjector.h</text>
</a>
</g>
</g>
<!-- Node10&#45;&gt;Node11 -->
<g id="edge12" class="edge">
<title>Node10&#45;&gt;Node11</title>
<path fill="none" stroke="midnightblue" d="M206,-117.98C206,-109.58 206,-96.48 206,-85.66"/>
<polygon fill="midnightblue" stroke="midnightblue" points="209.5,-85.51 206,-75.51 202.5,-85.51 209.5,-85.51"/>
</g>
<!-- Node12&#45;&gt;Node3 -->
<g id="edge14" class="edge">
<title>Node12&#45;&gt;Node3</title>
<path fill="none" stroke="midnightblue" d="M472.56,-179.4C438.15,-167.69 389.8,-151.23 357.48,-140.23"/>
<polygon fill="midnightblue" stroke="midnightblue" points="358.59,-136.92 348,-137.01 356.34,-143.54 358.59,-136.92"/>
</g>
<!-- Node13 -->
<g id="node13" class="node">
<title>Node13</title>
<g id="a_node13"><a xlink:href="_logger_8h.html" target="_top" xlink:title=" ">
<polygon fill="white" stroke="black" points="537.5,-118 537.5,-137 590.5,-137 590.5,-118 537.5,-118"/>
<text text-anchor="middle" x="564" y="-125" font-family="Helvetica,sans-Serif" font-size="10.00">Logger.h</text>
</a>
</g>
</g>
<!-- Node12&#45;&gt;Node13 -->
<g id="edge15" class="edge">
<title>Node12&#45;&gt;Node13</title>
<path fill="none" stroke="midnightblue" d="M524.85,-179.4C532.57,-169.36 542.97,-155.84 551.11,-145.25"/>
<polygon fill="midnightblue" stroke="midnightblue" points="553.99,-147.25 557.31,-137.19 548.44,-142.99 553.99,-147.25"/>
</g>
<!-- Node14 -->
<g id="node14" class="node">
<title>Node14</title>
<g id="a_node14"><a xlink:href="_write_event_receiver_8h.html" target="_top" xlink:title=" ">
<polygon fill="white" stroke="black" points="580.5,-56.5 580.5,-75.5 691.5,-75.5 691.5,-56.5 580.5,-56.5"/>
<text text-anchor="middle" x="636" y="-63.5" font-family="Helvetica,sans-Serif" font-size="10.00">WriteEventReceiver.h</text>
</a>
</g>
</g>
<!-- Node12&#45;&gt;Node14 -->
<g id="edge16" class="edge">
<title>Node12&#45;&gt;Node14</title>
<path fill="none" stroke="midnightblue" d="M467.87,-179.48C428.34,-165.1 381.26,-140.81 405,-112 425.6,-87 509.32,-75.7 570.05,-70.73"/>
<polygon fill="midnightblue" stroke="midnightblue" points="570.64,-74.19 580.34,-69.93 570.1,-67.21 570.64,-74.19"/>
</g>
<!-- Node16 -->
<g id="node16" class="node">
<title>Node16</title>
<g id="a_node16"><a xlink:href="_socket_reader_8h.html" target="_top" xlink:title=" ">
<polygon fill="white" stroke="black" points="414.5,-112.5 414.5,-142.5 519.5,-142.5 519.5,-112.5 414.5,-112.5"/>
<text text-anchor="start" x="422.5" y="-130.5" font-family="Helvetica,sans-Serif" font-size="10.00">socket/sock_stream</text>
<text text-anchor="middle" x="467" y="-119.5" font-family="Helvetica,sans-Serif" font-size="10.00">/SocketReader.h</text>
</a>
</g>
</g>
<!-- Node12&#45;&gt;Node16 -->
<g id="edge18" class="edge">
<title>Node12&#45;&gt;Node16</title>
<path fill="none" stroke="midnightblue" d="M503.8,-179.4C497.77,-171.05 489.98,-160.29 483.13,-150.81"/>
<polygon fill="midnightblue" stroke="midnightblue" points="485.87,-148.63 477.18,-142.58 480.2,-152.73 485.87,-148.63"/>
</g>
<!-- Node15 -->
<g id="node15" class="node">
<title>Node15</title>
<g id="a_node15"><a xlink:href="_event_receiver_8h.html" target="_top" xlink:title=" ">
<polygon fill="white" stroke="black" points="656.5,-0.5 656.5,-19.5 745.5,-19.5 745.5,-0.5 656.5,-0.5"/>
<text text-anchor="middle" x="701" y="-7.5" font-family="Helvetica,sans-Serif" font-size="10.00">EventReceiver.h</text>
</a>
</g>
</g>
<!-- Node14&#45;&gt;Node15 -->
<g id="edge17" class="edge">
<title>Node14&#45;&gt;Node15</title>
<path fill="none" stroke="midnightblue" d="M646.44,-56.32C656.15,-48.26 670.82,-36.08 682.5,-26.37"/>
<polygon fill="midnightblue" stroke="midnightblue" points="684.91,-28.92 690.37,-19.83 680.44,-23.53 684.91,-28.92"/>
</g>
<!-- Node17 -->
<g id="node17" class="node">
<title>Node17</title>
<g id="a_node17"><a xlink:href="_read_event_receiver_8h.html" target="_top" xlink:title=" ">
<polygon fill="white" stroke="black" points="710,-56.5 710,-75.5 822,-75.5 822,-56.5 710,-56.5"/>
<text text-anchor="middle" x="766" y="-63.5" font-family="Helvetica,sans-Serif" font-size="10.00">ReadEventReceiver.h</text>
</a>
</g>
</g>
<!-- Node16&#45;&gt;Node17 -->
<g id="edge19" class="edge">
<title>Node16&#45;&gt;Node17</title>
<path fill="none" stroke="midnightblue" d="M519.73,-114.01C522.86,-113.32 525.97,-112.64 529,-112 589.82,-99.12 659.79,-86.05 707.85,-77.33"/>
<polygon fill="midnightblue" stroke="midnightblue" points="708.55,-80.77 717.77,-75.54 707.3,-73.88 708.55,-80.77"/>
</g>
<!-- Node17&#45;&gt;Node15 -->
<g id="edge20" class="edge">
<title>Node17&#45;&gt;Node15</title>
<path fill="none" stroke="midnightblue" d="M755.56,-56.32C745.85,-48.26 731.18,-36.08 719.5,-26.37"/>
<polygon fill="midnightblue" stroke="midnightblue" points="721.56,-23.53 711.63,-19.83 717.09,-28.92 721.56,-23.53"/>
</g>
<!-- Node18&#45;&gt;Node3 -->
<g id="edge22" class="edge">
<title>Node18&#45;&gt;Node3</title>
<path fill="none" stroke="midnightblue" d="M594.28,-182.71C588.12,-181.45 581.92,-180.2 576,-179 503.09,-164.28 418.32,-147.41 367.75,-137.37"/>
<polygon fill="midnightblue" stroke="midnightblue" points="368.29,-133.91 357.8,-135.39 366.92,-140.77 368.29,-133.91"/>
</g>
<!-- Node18&#45;&gt;Node17 -->
<g id="edge23" class="edge">
<title>Node18&#45;&gt;Node17</title>
<path fill="none" stroke="midnightblue" d="M674.64,-179.38C690.18,-170.47 709.18,-157.84 723,-143 738.93,-125.89 751.27,-101.81 758.57,-85.37"/>
<polygon fill="midnightblue" stroke="midnightblue" points="761.94,-86.4 762.62,-75.82 755.49,-83.66 761.94,-86.4"/>
</g>
<!-- Node19 -->
<g id="node19" class="node">
<title>Node19</title>
<g id="a_node19"><a xlink:href="_socket_writer_8h.html" target="_top" xlink:title=" ">
<polygon fill="white" stroke="black" points="608.5,-112.5 608.5,-142.5 713.5,-142.5 713.5,-112.5 608.5,-112.5"/>
<text text-anchor="start" x="616.5" y="-130.5" font-family="Helvetica,sans-Serif" font-size="10.00">socket/sock_stream</text>
<text text-anchor="middle" x="661" y="-119.5" font-family="Helvetica,sans-Serif" font-size="10.00">/SocketWriter.h</text>
</a>
</g>
</g>
<!-- Node18&#45;&gt;Node19 -->
<g id="edge24" class="edge">
<title>Node18&#45;&gt;Node19</title>
<path fill="none" stroke="midnightblue" d="M650.04,-179.4C651.73,-171.56 653.87,-161.6 655.82,-152.57"/>
<polygon fill="midnightblue" stroke="midnightblue" points="659.28,-153.09 657.97,-142.58 652.44,-151.62 659.28,-153.09"/>
</g>
<!-- Node19&#45;&gt;Node14 -->
<g id="edge25" class="edge">
<title>Node19&#45;&gt;Node14</title>
<path fill="none" stroke="midnightblue" d="M655.08,-112.4C651.63,-104.2 647.25,-93.78 643.56,-84.99"/>
<polygon fill="midnightblue" stroke="midnightblue" points="646.74,-83.52 639.64,-75.66 640.28,-86.23 646.74,-83.52"/>
</g>
<!-- Node20&#45;&gt;Node3 -->
<g id="edge27" class="edge">
<title>Node20&#45;&gt;Node3</title>
<path fill="none" stroke="midnightblue" d="M722.49,-181.48C717.94,-180.58 713.4,-179.74 709,-179 574.84,-156.38 539.6,-162.85 405,-143 392.82,-141.2 379.67,-139 367.54,-136.85"/>
<polygon fill="midnightblue" stroke="midnightblue" points="368.1,-133.4 357.64,-135.08 366.87,-140.29 368.1,-133.4"/>
</g>
<!-- Node20&#45;&gt;Node13 -->
<g id="edge28" class="edge">
<title>Node20&#45;&gt;Node13</title>
<path fill="none" stroke="midnightblue" d="M722.49,-179.85C687.51,-170.39 640.66,-157.01 600,-143 598.09,-142.34 596.13,-141.64 594.16,-140.91"/>
<polygon fill="midnightblue" stroke="midnightblue" points="595.01,-137.49 584.42,-137.15 592.49,-144.01 595.01,-137.49"/>
</g>
<!-- Node20&#45;&gt;Node14 -->
<g id="edge30" class="edge">
<title>Node20&#45;&gt;Node14</title>
<path fill="none" stroke="midnightblue" d="M768.76,-179.22C760.46,-161.57 744.32,-131.47 723,-112 707.53,-97.87 686.81,-86.92 669.46,-79.36"/>
<polygon fill="midnightblue" stroke="midnightblue" points="670.81,-76.13 660.23,-75.51 668.11,-82.59 670.81,-76.13"/>
</g>
<!-- Node20&#45;&gt;Node17 -->
<g id="edge29" class="edge">
<title>Node20&#45;&gt;Node17</title>
<path fill="none" stroke="midnightblue" d="M782.71,-179.26C790.55,-162.9 800.67,-135.33 794,-112 791.1,-101.84 785.17,-91.75 779.51,-83.7"/>
<polygon fill="midnightblue" stroke="midnightblue" points="782.22,-81.48 773.41,-75.59 776.62,-85.69 782.22,-81.48"/>
</g>
<!-- Node20&#45;&gt;Node21 -->
<g id="edge31" class="edge">
<title>Node20&#45;&gt;Node21</title>
<path fill="none" stroke="midnightblue" d="M803.43,-179.4C826.11,-168.14 857.63,-152.5 879.72,-141.54"/>
<polygon fill="midnightblue" stroke="midnightblue" points="881.45,-144.59 888.86,-137.01 878.34,-138.32 881.45,-144.59"/>
</g>
<!-- Node22 -->
<g id="node22" class="node">
<title>Node22</title>
<g id="a_node22"><a xlink:href="_timer_8h.html" target="_top" xlink:title=" ">
<polygon fill="white" stroke="black" points="881.5,-56.5 881.5,-75.5 930.5,-75.5 930.5,-56.5 881.5,-56.5"/>
<text text-anchor="middle" x="906" y="-63.5" font-family="Helvetica,sans-Serif" font-size="10.00">Timer.h</text>
</a>
</g>
</g>
<!-- Node21&#45;&gt;Node22 -->
<g id="edge32" class="edge">
<title>Node21&#45;&gt;Node22</title>
<path fill="none" stroke="midnightblue" d="M906,-117.98C906,-109.58 906,-96.48 906,-85.66"/>
<polygon fill="midnightblue" stroke="midnightblue" points="909.5,-85.51 906,-75.51 902.5,-85.51 909.5,-85.51"/>
</g>
</g>
</svg>
