<?xml version="1.0" encoding="UTF-8" standalone="no"?>
<!DOCTYPE svg PUBLIC "-//W3C//DTD SVG 1.1//EN"
 "http://www.w3.org/Graphics/SVG/1.1/DTD/svg11.dtd">
<!-- Generated by graphviz version 2.43.0 (0)
 -->
<!-- Title: http/legacy/Server.h Pages: 1 -->
<svg width="931pt" height="542pt"
 viewBox="0.00 0.00 931.47 542.00" xmlns="http://www.w3.org/2000/svg" xmlns:xlink="http://www.w3.org/1999/xlink">
<g id="graph0" class="graph" transform="scale(1 1) rotate(0) translate(4 538)">
<title>http/legacy/Server.h</title>
<polygon fill="white" stroke="transparent" points="-4,4 -4,-538 927.47,-538 927.47,4 -4,4"/>
<!-- Node1 -->
<g id="node1" class="node">
<title>Node1</title>
<g id="a_node1"><a xlink:title=" ">
<polygon fill="#bfbfbf" stroke="black" points="179.97,-514.5 179.97,-533.5 283.97,-533.5 283.97,-514.5 179.97,-514.5"/>
<text text-anchor="middle" x="231.97" y="-521.5" font-family="Helvetica,sans-Serif" font-size="10.00">http/legacy/Server.h</text>
</a>
</g>
</g>
<!-- Node2 -->
<g id="node2" class="node">
<title>Node2</title>
<g id="a_node2"><a xlink:href="_server_8h.html" target="_top" xlink:title=" ">
<polygon fill="white" stroke="black" points="65.97,-252 65.97,-271 127.97,-271 127.97,-252 65.97,-252"/>
<text text-anchor="middle" x="96.97" y="-259" font-family="Helvetica,sans-Serif" font-size="10.00">../Server.h</text>
</a>
</g>
</g>
<!-- Node1&#45;&gt;Node2 -->
<g id="edge1" class="edge">
<title>Node1&#45;&gt;Node2</title>
<path fill="none" stroke="midnightblue" d="M210.94,-514.42C163.24,-493.62 47.64,-435.41 4.97,-344 -0.86,-331.52 -2.05,-324.86 4.97,-313 16.16,-294.09 37.23,-281.78 56.38,-274.06"/>
<polygon fill="midnightblue" stroke="midnightblue" points="57.72,-277.3 65.87,-270.53 55.28,-270.74 57.72,-277.3"/>
</g>
<!-- Node11 -->
<g id="node11" class="node">
<title>Node11</title>
<g id="a_node11"><a xlink:href="ipv4_2tcp_2legacy_2_socket_server_8h.html" target="_top" xlink:title=" ">
<polygon fill="white" stroke="black" points="174.47,-447.5 174.47,-477.5 289.47,-477.5 289.47,-447.5 174.47,-447.5"/>
<text text-anchor="start" x="182.47" y="-465.5" font-family="Helvetica,sans-Serif" font-size="10.00">socket/ipv4/tcp/legacy</text>
<text text-anchor="middle" x="231.97" y="-454.5" font-family="Helvetica,sans-Serif" font-size="10.00">/SocketServer.h</text>
</a>
</g>
</g>
<!-- Node1&#45;&gt;Node11 -->
<g id="edge10" class="edge">
<title>Node1&#45;&gt;Node11</title>
<path fill="none" stroke="midnightblue" d="M231.97,-514.48C231.97,-507.47 231.97,-497.19 231.97,-487.7"/>
<polygon fill="midnightblue" stroke="midnightblue" points="235.47,-487.52 231.97,-477.52 228.47,-487.52 235.47,-487.52"/>
</g>
<!-- Node32 -->
<g id="node32" class="node">
<title>Node32</title>
<g id="a_node32"><a xlink:href="ipv6_2tcp_2legacy_2_socket_server_8h.html" target="_top" xlink:title=" ">
<polygon fill="white" stroke="black" points="316.47,-447.5 316.47,-477.5 431.47,-477.5 431.47,-447.5 316.47,-447.5"/>
<text text-anchor="start" x="324.47" y="-465.5" font-family="Helvetica,sans-Serif" font-size="10.00">socket/ipv6/tcp/legacy</text>
<text text-anchor="middle" x="373.97" y="-454.5" font-family="Helvetica,sans-Serif" font-size="10.00">/SocketServer.h</text>
</a>
</g>
</g>
<!-- Node1&#45;&gt;Node32 -->
<g id="edge40" class="edge">
<title>Node1&#45;&gt;Node32</title>
<path fill="none" stroke="midnightblue" d="M252.31,-514.48C272.8,-505.89 305.04,-492.38 331.18,-481.43"/>
<polygon fill="midnightblue" stroke="midnightblue" points="332.63,-484.62 340.5,-477.52 329.92,-478.16 332.63,-484.62"/>
</g>
<!-- Node3 -->
<g id="node3" class="node">
<title>Node3</title>
<g id="a_node3"><a xlink:href="_logger_8h.html" target="_top" xlink:title=" ">
<polygon fill="white" stroke="black" points="390.47,-185 390.47,-204 443.47,-204 443.47,-185 390.47,-185"/>
<text text-anchor="middle" x="416.97" y="-192" font-family="Helvetica,sans-Serif" font-size="10.00">Logger.h</text>
</a>
</g>
</g>
<!-- Node2&#45;&gt;Node3 -->
<g id="edge2" class="edge">
<title>Node2&#45;&gt;Node3</title>
<path fill="none" stroke="midnightblue" d="M118.34,-252C124.31,-249.83 130.83,-247.65 136.97,-246 222.82,-222.88 326.37,-207.3 380.28,-200.1"/>
<polygon fill="midnightblue" stroke="midnightblue" points="380.93,-203.54 390.39,-198.77 380.01,-196.6 380.93,-203.54"/>
</g>
<!-- Node4 -->
<g id="node4" class="node">
<title>Node4</title>
<g id="a_node4"><a xlink:href="_server_context_8h.html" target="_top" xlink:title=" ">
<polygon fill="white" stroke="black" points="98.97,-185 98.97,-204 186.97,-204 186.97,-185 98.97,-185"/>
<text text-anchor="middle" x="142.97" y="-192" font-family="Helvetica,sans-Serif" font-size="10.00">ServerContext.h</text>
</a>
</g>
</g>
<!-- Node2&#45;&gt;Node4 -->
<g id="edge3" class="edge">
<title>Node2&#45;&gt;Node4</title>
<path fill="none" stroke="midnightblue" d="M103.17,-251.73C110.27,-241.7 122.08,-225.01 130.99,-212.42"/>
<polygon fill="midnightblue" stroke="midnightblue" points="133.94,-214.31 136.86,-204.13 128.23,-210.27 133.94,-214.31"/>
</g>
<!-- Node5 -->
<g id="node5" class="node">
<title>Node5</title>
<g id="a_node5"><a xlink:href="http_2_request_8h.html" target="_top" xlink:title=" ">
<polygon fill="white" stroke="black" points="335.97,-118 335.97,-137 397.97,-137 397.97,-118 335.97,-118"/>
<text text-anchor="middle" x="366.97" y="-125" font-family="Helvetica,sans-Serif" font-size="10.00">Request.h</text>
</a>
</g>
</g>
<!-- Node4&#45;&gt;Node5 -->
<g id="edge4" class="edge">
<title>Node4&#45;&gt;Node5</title>
<path fill="none" stroke="midnightblue" d="M172.71,-184.87C212.57,-173.3 283.4,-152.75 327.63,-139.91"/>
<polygon fill="midnightblue" stroke="midnightblue" points="328.83,-143.21 337.45,-137.06 326.87,-136.49 328.83,-143.21"/>
</g>
<!-- Node7 -->
<g id="node7" class="node">
<title>Node7</title>
<g id="a_node7"><a xlink:href="_request_parser_8h.html" target="_top" xlink:title=" ">
<polygon fill="white" stroke="black" points="50.47,-118 50.47,-137 139.47,-137 139.47,-118 50.47,-118"/>
<text text-anchor="middle" x="94.97" y="-125" font-family="Helvetica,sans-Serif" font-size="10.00">RequestParser.h</text>
</a>
</g>
</g>
<!-- Node4&#45;&gt;Node7 -->
<g id="edge6" class="edge">
<title>Node4&#45;&gt;Node7</title>
<path fill="none" stroke="midnightblue" d="M136.49,-184.73C129.08,-174.7 116.76,-158.01 107.46,-145.42"/>
<polygon fill="midnightblue" stroke="midnightblue" points="110.09,-143.09 101.34,-137.13 104.46,-147.25 110.09,-143.09"/>
</g>
<!-- Node9 -->
<g id="node9" class="node">
<title>Node9</title>
<g id="a_node9"><a xlink:href="http_2_response_8h.html" target="_top" xlink:title=" ">
<polygon fill="white" stroke="black" points="157.47,-118 157.47,-137 226.47,-137 226.47,-118 157.47,-118"/>
<text text-anchor="middle" x="191.97" y="-125" font-family="Helvetica,sans-Serif" font-size="10.00">Response.h</text>
</a>
</g>
</g>
<!-- Node4&#45;&gt;Node9 -->
<g id="edge8" class="edge">
<title>Node4&#45;&gt;Node9</title>
<path fill="none" stroke="midnightblue" d="M149.57,-184.73C157.14,-174.7 169.72,-158.01 179.21,-145.42"/>
<polygon fill="midnightblue" stroke="midnightblue" points="182.24,-147.22 185.46,-137.13 176.65,-143.01 182.24,-147.22"/>
</g>
<!-- Node6 -->
<g id="node6" class="node">
<title>Node6</title>
<g id="a_node6"><a xlink:href="_attribute_injector_8h.html" target="_top" xlink:title=" ">
<polygon fill="white" stroke="black" points="553.47,-56.5 553.47,-75.5 646.47,-75.5 646.47,-56.5 553.47,-56.5"/>
<text text-anchor="middle" x="599.97" y="-63.5" font-family="Helvetica,sans-Serif" font-size="10.00">AttributeInjector.h</text>
</a>
</g>
</g>
<!-- Node5&#45;&gt;Node6 -->
<g id="edge5" class="edge">
<title>Node5&#45;&gt;Node6</title>
<path fill="none" stroke="midnightblue" d="M398.39,-118.48C439.15,-108.07 510.48,-89.85 556.44,-78.12"/>
<polygon fill="midnightblue" stroke="midnightblue" points="557.58,-81.44 566.41,-75.57 555.85,-74.65 557.58,-81.44"/>
</g>
<!-- Node8 -->
<g id="node8" class="node">
<title>Node8</title>
<g id="a_node8"><a xlink:href="_parser_8h.html" target="_top" xlink:title=" ">
<polygon fill="white" stroke="black" points="68.47,-56.5 68.47,-75.5 121.47,-75.5 121.47,-56.5 68.47,-56.5"/>
<text text-anchor="middle" x="94.97" y="-63.5" font-family="Helvetica,sans-Serif" font-size="10.00">Parser.h</text>
</a>
</g>
</g>
<!-- Node7&#45;&gt;Node8 -->
<g id="edge7" class="edge">
<title>Node7&#45;&gt;Node8</title>
<path fill="none" stroke="midnightblue" d="M94.97,-117.98C94.97,-109.58 94.97,-96.48 94.97,-85.66"/>
<polygon fill="midnightblue" stroke="midnightblue" points="98.47,-85.51 94.97,-75.51 91.47,-85.51 98.47,-85.51"/>
</g>
<!-- Node10 -->
<g id="node10" class="node">
<title>Node10</title>
<g id="a_node10"><a xlink:href="_cookie_options_8h.html" target="_top" xlink:title=" ">
<polygon fill="white" stroke="black" points="147.47,-56.5 147.47,-75.5 236.47,-75.5 236.47,-56.5 147.47,-56.5"/>
<text text-anchor="middle" x="191.97" y="-63.5" font-family="Helvetica,sans-Serif" font-size="10.00">CookieOptions.h</text>
</a>
</g>
</g>
<!-- Node9&#45;&gt;Node10 -->
<g id="edge9" class="edge">
<title>Node9&#45;&gt;Node10</title>
<path fill="none" stroke="midnightblue" d="M191.97,-117.98C191.97,-109.58 191.97,-96.48 191.97,-85.66"/>
<polygon fill="midnightblue" stroke="midnightblue" points="195.47,-85.51 191.97,-75.51 188.47,-85.51 195.47,-85.51"/>
</g>
<!-- Node12 -->
<g id="node12" class="node">
<title>Node12</title>
<g id="a_node12"><a xlink:href="ipv4_2tcp_2_socket_8h.html" target="_top" xlink:title=" ">
<polygon fill="white" stroke="black" points="153.47,-386 153.47,-405 278.47,-405 278.47,-386 153.47,-386"/>
<text text-anchor="middle" x="215.97" y="-393" font-family="Helvetica,sans-Serif" font-size="10.00">socket/ipv4/tcp/Socket.h</text>
</a>
</g>
</g>
<!-- Node11&#45;&gt;Node12 -->
<g id="edge11" class="edge">
<title>Node11&#45;&gt;Node12</title>
<path fill="none" stroke="midnightblue" d="M228.49,-447.4C226.17,-437.96 223.09,-425.45 220.57,-415.19"/>
<polygon fill="midnightblue" stroke="midnightblue" points="223.89,-414.07 218.11,-405.19 217.1,-415.74 223.89,-414.07"/>
</g>
<!-- Node17 -->
<g id="node17" class="node">
<title>Node17</title>
<g id="a_node17"><a xlink:href="sock__stream_2legacy_2_socket_server_8h.html" target="_top" xlink:title=" ">
<polygon fill="white" stroke="black" points="471.97,-380.5 471.97,-410.5 589.97,-410.5 589.97,-380.5 471.97,-380.5"/>
<text text-anchor="start" x="479.97" y="-398.5" font-family="Helvetica,sans-Serif" font-size="10.00">socket/sock_stream</text>
<text text-anchor="middle" x="530.97" y="-387.5" font-family="Helvetica,sans-Serif" font-size="10.00">/legacy/SocketServer.h</text>
</a>
</g>
</g>
<!-- Node11&#45;&gt;Node17 -->
<g id="edge18" class="edge">
<title>Node11&#45;&gt;Node17</title>
<path fill="none" stroke="midnightblue" d="M289.62,-448.97C338.88,-438.26 409.86,-422.83 462.1,-411.47"/>
<polygon fill="midnightblue" stroke="midnightblue" points="462.93,-414.87 471.96,-409.33 461.44,-408.03 462.93,-414.87"/>
</g>
<!-- Node13 -->
<g id="node13" class="node">
<title>Node13</title>
<g id="a_node13"><a xlink:href="_descriptor_8h.html" target="_top" xlink:title=" ">
<polygon fill="white" stroke="black" points="288.47,-252 288.47,-271 357.47,-271 357.47,-252 288.47,-252"/>
<text text-anchor="middle" x="322.97" y="-259" font-family="Helvetica,sans-Serif" font-size="10.00">Descriptor.h</text>
</a>
</g>
</g>
<!-- Node12&#45;&gt;Node13 -->
<g id="edge12" class="edge">
<title>Node12&#45;&gt;Node13</title>
<path fill="none" stroke="midnightblue" d="M224.14,-385.74C233.33,-375.81 248.57,-359.05 260.97,-344 278.9,-322.23 298.41,-296.15 310.66,-279.46"/>
<polygon fill="midnightblue" stroke="midnightblue" points="313.59,-281.38 316.66,-271.24 307.94,-277.25 313.59,-281.38"/>
</g>
<!-- Node14 -->
<g id="node14" class="node">
<title>Node14</title>
<g id="a_node14"><a xlink:href="_socket_8h.html" target="_top" xlink:title=" ">
<polygon fill="white" stroke="black" points="163.97,-319 163.97,-338 251.97,-338 251.97,-319 163.97,-319"/>
<text text-anchor="middle" x="207.97" y="-326" font-family="Helvetica,sans-Serif" font-size="10.00">socket/Socket.h</text>
</a>
</g>
</g>
<!-- Node12&#45;&gt;Node14 -->
<g id="edge13" class="edge">
<title>Node12&#45;&gt;Node14</title>
<path fill="none" stroke="midnightblue" d="M214.89,-385.73C213.71,-376.18 211.8,-360.62 210.28,-348.28"/>
<polygon fill="midnightblue" stroke="midnightblue" points="213.72,-347.62 209.03,-338.13 206.78,-348.48 213.72,-347.62"/>
</g>
<!-- Node16 -->
<g id="node16" class="node">
<title>Node16</title>
<g id="a_node16"><a xlink:href="ipv4_2_inet_address_8h.html" target="_top" xlink:title=" ">
<polygon fill="white" stroke="black" points="14.47,-319 14.47,-338 145.47,-338 145.47,-319 14.47,-319"/>
<text text-anchor="middle" x="79.97" y="-326" font-family="Helvetica,sans-Serif" font-size="10.00">socket/ipv4/InetAddress.h</text>
</a>
</g>
</g>
<!-- Node12&#45;&gt;Node16 -->
<g id="edge16" class="edge">
<title>Node12&#45;&gt;Node16</title>
<path fill="none" stroke="midnightblue" d="M197.91,-385.87C174.74,-374.8 134.34,-355.49 107.37,-342.6"/>
<polygon fill="midnightblue" stroke="midnightblue" points="108.63,-339.32 98.1,-338.17 105.61,-345.64 108.63,-339.32"/>
</g>
<!-- Node14&#45;&gt;Node13 -->
<g id="edge14" class="edge">
<title>Node14&#45;&gt;Node13</title>
<path fill="none" stroke="midnightblue" d="M223.48,-318.73C242.87,-307.77 276.29,-288.88 298.99,-276.05"/>
<polygon fill="midnightblue" stroke="midnightblue" points="300.72,-279.09 307.7,-271.13 297.27,-273 300.72,-279.09"/>
</g>
<!-- Node15 -->
<g id="node15" class="node">
<title>Node15</title>
<g id="a_node15"><a xlink:href="_socket_address_8h.html" target="_top" xlink:title=" ">
<polygon fill="white" stroke="black" points="145.97,-252 145.97,-271 269.97,-271 269.97,-252 145.97,-252"/>
<text text-anchor="middle" x="207.97" y="-259" font-family="Helvetica,sans-Serif" font-size="10.00">socket/SocketAddress.h</text>
</a>
</g>
</g>
<!-- Node14&#45;&gt;Node15 -->
<g id="edge15" class="edge">
<title>Node14&#45;&gt;Node15</title>
<path fill="none" stroke="midnightblue" d="M207.97,-318.73C207.97,-309.18 207.97,-293.62 207.97,-281.28"/>
<polygon fill="midnightblue" stroke="midnightblue" points="211.47,-281.13 207.97,-271.13 204.47,-281.13 211.47,-281.13"/>
</g>
<!-- Node16&#45;&gt;Node15 -->
<g id="edge17" class="edge">
<title>Node16&#45;&gt;Node15</title>
<path fill="none" stroke="midnightblue" d="M96.96,-318.87C118.67,-307.84 156.46,-288.66 181.84,-275.77"/>
<polygon fill="midnightblue" stroke="midnightblue" points="183.57,-278.82 190.9,-271.17 180.4,-272.57 183.57,-278.82"/>
</g>
<!-- Node18 -->
<g id="node18" class="node">
<title>Node18</title>
<g id="a_node18"><a xlink:href="legacy_2_socket_listener_8h.html" target="_top" xlink:title=" ">
<polygon fill="white" stroke="black" points="619.47,-319 619.47,-338 708.47,-338 708.47,-319 619.47,-319"/>
<text text-anchor="middle" x="663.97" y="-326" font-family="Helvetica,sans-Serif" font-size="10.00">SocketListener.h</text>
</a>
</g>
</g>
<!-- Node17&#45;&gt;Node18 -->
<g id="edge19" class="edge">
<title>Node17&#45;&gt;Node18</title>
<path fill="none" stroke="midnightblue" d="M559.82,-380.4C582.85,-369.14 614.86,-353.5 637.29,-342.54"/>
<polygon fill="midnightblue" stroke="midnightblue" points="639.11,-345.54 646.56,-338.01 636.04,-339.25 639.11,-345.54"/>
</g>
<!-- Node31 -->
<g id="node31" class="node">
<title>Node31</title>
<g id="a_node31"><a xlink:href="sock__stream_2_socket_server_8h.html" target="_top" xlink:title=" ">
<polygon fill="white" stroke="black" points="496.47,-313.5 496.47,-343.5 601.47,-343.5 601.47,-313.5 496.47,-313.5"/>
<text text-anchor="start" x="504.47" y="-331.5" font-family="Helvetica,sans-Serif" font-size="10.00">socket/sock_stream</text>
<text text-anchor="middle" x="548.97" y="-320.5" font-family="Helvetica,sans-Serif" font-size="10.00">/SocketServer.h</text>
</a>
</g>
</g>
<!-- Node17&#45;&gt;Node31 -->
<g id="edge37" class="edge">
<title>Node17&#45;&gt;Node31</title>
<path fill="none" stroke="midnightblue" d="M534.87,-380.4C537.07,-372.47 539.86,-362.38 542.38,-353.27"/>
<polygon fill="midnightblue" stroke="midnightblue" points="545.77,-354.15 545.07,-343.58 539.03,-352.28 545.77,-354.15"/>
</g>
<!-- Node19 -->
<g id="node19" class="node">
<title>Node19</title>
<g id="a_node19"><a xlink:href="legacy_2_socket_connection_8h.html" target="_top" xlink:title=" ">
<polygon fill="white" stroke="black" points="644.47,-252 644.47,-271 749.47,-271 749.47,-252 644.47,-252"/>
<text text-anchor="middle" x="696.97" y="-259" font-family="Helvetica,sans-Serif" font-size="10.00">SocketConnection.h</text>
</a>
</g>
</g>
<!-- Node18&#45;&gt;Node19 -->
<g id="edge20" class="edge">
<title>Node18&#45;&gt;Node19</title>
<path fill="none" stroke="midnightblue" d="M668.42,-318.73C673.41,-308.89 681.65,-292.66 688,-280.16"/>
<polygon fill="midnightblue" stroke="midnightblue" points="691.18,-281.63 692.59,-271.13 684.94,-278.46 691.18,-281.63"/>
</g>
<!-- Node29 -->
<g id="node29" class="node">
<title>Node29</title>
<g id="a_node29"><a xlink:href="_socket_listener_8h.html" target="_top" xlink:title=" ">
<polygon fill="white" stroke="black" points="457.47,-246.5 457.47,-276.5 562.47,-276.5 562.47,-246.5 457.47,-246.5"/>
<text text-anchor="start" x="465.47" y="-264.5" font-family="Helvetica,sans-Serif" font-size="10.00">socket/sock_stream</text>
<text text-anchor="middle" x="509.97" y="-253.5" font-family="Helvetica,sans-Serif" font-size="10.00">/SocketListener.h</text>
</a>
</g>
</g>
<!-- Node18&#45;&gt;Node29 -->
<g id="edge32" class="edge">
<title>Node18&#45;&gt;Node29</title>
<path fill="none" stroke="midnightblue" d="M643.52,-318.87C620.41,-309.12 582.16,-292.97 552.5,-280.45"/>
<polygon fill="midnightblue" stroke="midnightblue" points="553.78,-277.19 543.2,-276.53 551.05,-283.64 553.78,-277.19"/>
</g>
<!-- Node20 -->
<g id="node20" class="node">
<title>Node20</title>
<g id="a_node20"><a xlink:href="_socket_connection_8h.html" target="_top" xlink:title=" ">
<polygon fill="white" stroke="black" points="542.97,-179.5 542.97,-209.5 650.97,-209.5 650.97,-179.5 542.97,-179.5"/>
<text text-anchor="start" x="550.97" y="-197.5" font-family="Helvetica,sans-Serif" font-size="10.00">socket/sock_stream</text>
<text text-anchor="middle" x="596.97" y="-186.5" font-family="Helvetica,sans-Serif" font-size="10.00">/SocketConnection.h</text>
</a>
</g>
</g>
<!-- Node19&#45;&gt;Node20 -->
<g id="edge21" class="edge">
<title>Node19&#45;&gt;Node20</title>
<path fill="none" stroke="midnightblue" d="M683.48,-251.73C669.12,-242.4 645.93,-227.32 627.17,-215.13"/>
<polygon fill="midnightblue" stroke="midnightblue" points="628.93,-212.1 618.64,-209.59 625.12,-217.97 628.93,-212.1"/>
</g>
<!-- Node22 -->
<g id="node22" class="node">
<title>Node22</title>
<g id="a_node22"><a xlink:href="legacy_2_socket_reader_8h.html" target="_top" xlink:title=" ">
<polygon fill="white" stroke="black" points="669.47,-179.5 669.47,-209.5 790.47,-209.5 790.47,-179.5 669.47,-179.5"/>
<text text-anchor="start" x="677.47" y="-197.5" font-family="Helvetica,sans-Serif" font-size="10.00">socket/sock_stream</text>
<text text-anchor="middle" x="729.97" y="-186.5" font-family="Helvetica,sans-Serif" font-size="10.00">/legacy/SocketReader.h</text>
</a>
</g>
</g>
<!-- Node19&#45;&gt;Node22 -->
<g id="edge24" class="edge">
<title>Node19&#45;&gt;Node22</title>
<path fill="none" stroke="midnightblue" d="M701.42,-251.73C705.7,-243.29 712.38,-230.14 718.2,-218.68"/>
<polygon fill="midnightblue" stroke="midnightblue" points="721.41,-220.09 722.81,-209.59 715.17,-216.92 721.41,-220.09"/>
</g>
<!-- Node26 -->
<g id="node26" class="node">
<title>Node26</title>
<g id="a_node26"><a xlink:href="legacy_2_socket_writer_8h.html" target="_top" xlink:title=" ">
<polygon fill="white" stroke="black" points="808.47,-179.5 808.47,-209.5 923.47,-209.5 923.47,-179.5 808.47,-179.5"/>
<text text-anchor="start" x="816.47" y="-197.5" font-family="Helvetica,sans-Serif" font-size="10.00">socket/sock_stream</text>
<text text-anchor="middle" x="865.97" y="-186.5" font-family="Helvetica,sans-Serif" font-size="10.00">/legacy/SocketWriter.h</text>
</a>
</g>
</g>
<!-- Node19&#45;&gt;Node26 -->
<g id="edge28" class="edge">
<title>Node19&#45;&gt;Node26</title>
<path fill="none" stroke="midnightblue" d="M719.41,-251.87C744.99,-242.03 787.47,-225.69 820.13,-213.13"/>
<polygon fill="midnightblue" stroke="midnightblue" points="821.42,-216.38 829.49,-209.53 818.9,-209.85 821.42,-216.38"/>
</g>
<!-- Node21 -->
<g id="node21" class="node">
<title>Node21</title>
<g id="a_node21"><a xlink:href="_socket_connection_base_8h.html" target="_top" xlink:title=" ">
<polygon fill="white" stroke="black" points="537.97,-118 537.97,-137 665.97,-137 665.97,-118 537.97,-118"/>
<text text-anchor="middle" x="601.97" y="-125" font-family="Helvetica,sans-Serif" font-size="10.00">SocketConnectionBase.h</text>
</a>
</g>
</g>
<!-- Node20&#45;&gt;Node21 -->
<g id="edge22" class="edge">
<title>Node20&#45;&gt;Node21</title>
<path fill="none" stroke="midnightblue" d="M598.05,-179.4C598.78,-169.96 599.74,-157.45 600.53,-147.19"/>
<polygon fill="midnightblue" stroke="midnightblue" points="604.02,-147.43 601.3,-137.19 597.04,-146.9 604.02,-147.43"/>
</g>
<!-- Node21&#45;&gt;Node6 -->
<g id="edge23" class="edge">
<title>Node21&#45;&gt;Node6</title>
<path fill="none" stroke="midnightblue" d="M601.68,-117.98C601.4,-109.58 600.96,-96.48 600.59,-85.66"/>
<polygon fill="midnightblue" stroke="midnightblue" points="604.09,-85.39 600.25,-75.51 597.09,-85.62 604.09,-85.39"/>
</g>
<!-- Node23 -->
<g id="node23" class="node">
<title>Node23</title>
<g id="a_node23"><a xlink:href="_socket_reader_8h.html" target="_top" xlink:title=" ">
<polygon fill="white" stroke="black" points="684.47,-112.5 684.47,-142.5 789.47,-142.5 789.47,-112.5 684.47,-112.5"/>
<text text-anchor="start" x="692.47" y="-130.5" font-family="Helvetica,sans-Serif" font-size="10.00">socket/sock_stream</text>
<text text-anchor="middle" x="736.97" y="-119.5" font-family="Helvetica,sans-Serif" font-size="10.00">/SocketReader.h</text>
</a>
</g>
</g>
<!-- Node22&#45;&gt;Node23 -->
<g id="edge25" class="edge">
<title>Node22&#45;&gt;Node23</title>
<path fill="none" stroke="midnightblue" d="M731.48,-179.4C732.33,-171.56 733.4,-161.6 734.37,-152.57"/>
<polygon fill="midnightblue" stroke="midnightblue" points="737.86,-152.89 735.45,-142.58 730.9,-152.14 737.86,-152.89"/>
</g>
<!-- Node24 -->
<g id="node24" class="node">
<title>Node24</title>
<g id="a_node24"><a xlink:href="_read_event_receiver_8h.html" target="_top" xlink:title=" ">
<polygon fill="white" stroke="black" points="672.97,-56.5 672.97,-75.5 784.97,-75.5 784.97,-56.5 672.97,-56.5"/>
<text text-anchor="middle" x="728.97" y="-63.5" font-family="Helvetica,sans-Serif" font-size="10.00">ReadEventReceiver.h</text>
</a>
</g>
</g>
<!-- Node23&#45;&gt;Node24 -->
<g id="edge26" class="edge">
<title>Node23&#45;&gt;Node24</title>
<path fill="none" stroke="midnightblue" d="M735.07,-112.4C733.99,-104.38 732.63,-94.23 731.46,-85.57"/>
<polygon fill="midnightblue" stroke="midnightblue" points="734.93,-85.1 730.13,-75.66 727.99,-86.04 734.93,-85.1"/>
</g>
<!-- Node25 -->
<g id="node25" class="node">
<title>Node25</title>
<g id="a_node25"><a xlink:href="_event_receiver_8h.html" target="_top" xlink:title=" ">
<polygon fill="white" stroke="black" points="684.47,-0.5 684.47,-19.5 773.47,-19.5 773.47,-0.5 684.47,-0.5"/>
<text text-anchor="middle" x="728.97" y="-7.5" font-family="Helvetica,sans-Serif" font-size="10.00">EventReceiver.h</text>
</a>
</g>
</g>
<!-- Node24&#45;&gt;Node25 -->
<g id="edge27" class="edge">
<title>Node24&#45;&gt;Node25</title>
<path fill="none" stroke="midnightblue" d="M728.97,-56.08C728.97,-49.01 728.97,-38.86 728.97,-29.99"/>
<polygon fill="midnightblue" stroke="midnightblue" points="732.47,-29.75 728.97,-19.75 725.47,-29.75 732.47,-29.75"/>
</g>
<!-- Node27 -->
<g id="node27" class="node">
<title>Node27</title>
<g id="a_node27"><a xlink:href="_socket_writer_8h.html" target="_top" xlink:title=" ">
<polygon fill="white" stroke="black" points="811.47,-112.5 811.47,-142.5 916.47,-142.5 916.47,-112.5 811.47,-112.5"/>
<text text-anchor="start" x="819.47" y="-130.5" font-family="Helvetica,sans-Serif" font-size="10.00">socket/sock_stream</text>
<text text-anchor="middle" x="863.97" y="-119.5" font-family="Helvetica,sans-Serif" font-size="10.00">/SocketWriter.h</text>
</a>
</g>
</g>
<!-- Node26&#45;&gt;Node27 -->
<g id="edge29" class="edge">
<title>Node26&#45;&gt;Node27</title>
<path fill="none" stroke="midnightblue" d="M865.53,-179.4C865.29,-171.64 864.99,-161.81 864.72,-152.86"/>
<polygon fill="midnightblue" stroke="midnightblue" points="868.2,-152.46 864.4,-142.58 861.21,-152.68 868.2,-152.46"/>
</g>
<!-- Node28 -->
<g id="node28" class="node">
<title>Node28</title>
<g id="a_node28"><a xlink:href="_write_event_receiver_8h.html" target="_top" xlink:title=" ">
<polygon fill="white" stroke="black" points="807.47,-56.5 807.47,-75.5 918.47,-75.5 918.47,-56.5 807.47,-56.5"/>
<text text-anchor="middle" x="862.97" y="-63.5" font-family="Helvetica,sans-Serif" font-size="10.00">WriteEventReceiver.h</text>
</a>
</g>
</g>
<!-- Node27&#45;&gt;Node28 -->
<g id="edge30" class="edge">
<title>Node27&#45;&gt;Node28</title>
<path fill="none" stroke="midnightblue" d="M863.73,-112.4C863.6,-104.47 863.43,-94.46 863.28,-85.86"/>
<polygon fill="midnightblue" stroke="midnightblue" points="866.78,-85.6 863.11,-75.66 859.78,-85.72 866.78,-85.6"/>
</g>
<!-- Node28&#45;&gt;Node25 -->
<g id="edge31" class="edge">
<title>Node28&#45;&gt;Node25</title>
<path fill="none" stroke="midnightblue" d="M841.73,-56.44C819.58,-47.52 784.65,-33.44 759.53,-23.32"/>
<polygon fill="midnightblue" stroke="midnightblue" points="760.68,-20.01 750.1,-19.52 758.07,-26.5 760.68,-20.01"/>
</g>
<!-- Node29&#45;&gt;Node3 -->
<g id="edge35" class="edge">
<title>Node29&#45;&gt;Node3</title>
<path fill="none" stroke="midnightblue" d="M489.79,-246.4C474.33,-235.6 453.1,-220.76 437.55,-209.89"/>
<polygon fill="midnightblue" stroke="midnightblue" points="439.34,-206.87 429.14,-204.01 435.33,-212.6 439.34,-206.87"/>
</g>
<!-- Node29&#45;&gt;Node24 -->
<g id="edge36" class="edge">
<title>Node29&#45;&gt;Node24</title>
<path fill="none" stroke="midnightblue" d="M506.96,-246.06C501.76,-216.71 494.68,-149.68 528.97,-112 538.4,-101.64 611.88,-87 667.06,-77.27"/>
<polygon fill="midnightblue" stroke="midnightblue" points="667.88,-80.68 677.13,-75.51 666.68,-73.78 667.88,-80.68"/>
</g>
<!-- Node30 -->
<g id="node30" class="node">
<title>Node30</title>
<g id="a_node30"><a xlink:href="_accept_event_receiver_8h.html" target="_top" xlink:title=" ">
<polygon fill="white" stroke="black" points="413.47,-56.5 413.47,-75.5 532.47,-75.5 532.47,-56.5 413.47,-56.5"/>
<text text-anchor="middle" x="472.97" y="-63.5" font-family="Helvetica,sans-Serif" font-size="10.00">AcceptEventReceiver.h</text>
</a>
</g>
</g>
<!-- Node29&#45;&gt;Node30 -->
<g id="edge33" class="edge">
<title>Node29&#45;&gt;Node30</title>
<path fill="none" stroke="midnightblue" d="M505.62,-246.46C502.61,-236.38 498.68,-222.44 495.97,-210 486.34,-165.93 478.91,-113.41 475.33,-85.92"/>
<polygon fill="midnightblue" stroke="midnightblue" points="478.77,-85.24 474.03,-75.77 471.83,-86.13 478.77,-85.24"/>
</g>
<!-- Node30&#45;&gt;Node25 -->
<g id="edge34" class="edge">
<title>Node30&#45;&gt;Node25</title>
<path fill="none" stroke="midnightblue" d="M513.53,-56.44C558.28,-47 630.35,-31.8 678.66,-21.61"/>
<polygon fill="midnightblue" stroke="midnightblue" points="679.53,-25.01 688.59,-19.52 678.08,-18.16 679.53,-25.01"/>
</g>
<!-- Node31&#45;&gt;Node3 -->
<g id="edge38" class="edge">
<title>Node31&#45;&gt;Node3</title>
<path fill="none" stroke="midnightblue" d="M504.05,-313.42C484.63,-305.4 462.96,-293.57 447.97,-277 431.82,-259.15 423.77,-232.03 419.99,-214.05"/>
<polygon fill="midnightblue" stroke="midnightblue" points="423.43,-213.38 418.15,-204.19 416.55,-214.66 423.43,-213.38"/>
</g>
<!-- Node31&#45;&gt;Node29 -->
<g id="edge39" class="edge">
<title>Node31&#45;&gt;Node29</title>
<path fill="none" stroke="midnightblue" d="M540.5,-313.4C535.6,-305.22 529.3,-294.73 523.7,-285.39"/>
<polygon fill="midnightblue" stroke="midnightblue" points="526.56,-283.35 518.41,-276.58 520.56,-286.95 526.56,-283.35"/>
</g>
<!-- Node32&#45;&gt;Node17 -->
<g id="edge46" class="edge">
<title>Node32&#45;&gt;Node17</title>
<path fill="none" stroke="midnightblue" d="M408.03,-447.4C431.38,-437.73 462.56,-424.82 487.67,-414.43"/>
<polygon fill="midnightblue" stroke="midnightblue" points="489.07,-417.64 496.97,-410.58 486.39,-411.17 489.07,-417.64"/>
</g>
<!-- Node33 -->
<g id="node33" class="node">
<title>Node33</title>
<g id="a_node33"><a xlink:href="ipv6_2tcp_2_socket_8h.html" target="_top" xlink:title=" ">
<polygon fill="white" stroke="black" points="311.47,-386 311.47,-405 436.47,-405 436.47,-386 311.47,-386"/>
<text text-anchor="middle" x="373.97" y="-393" font-family="Helvetica,sans-Serif" font-size="10.00">socket/ipv6/tcp/Socket.h</text>
</a>
</g>
</g>
<!-- Node32&#45;&gt;Node33 -->
<g id="edge41" class="edge">
<title>Node32&#45;&gt;Node33</title>
<path fill="none" stroke="midnightblue" d="M373.97,-447.4C373.97,-438.06 373.97,-425.71 373.97,-415.52"/>
<polygon fill="midnightblue" stroke="midnightblue" points="377.47,-415.19 373.97,-405.19 370.47,-415.19 377.47,-415.19"/>
</g>
<!-- Node33&#45;&gt;Node13 -->
<g id="edge42" class="edge">
<title>Node33&#45;&gt;Node13</title>
<path fill="none" stroke="midnightblue" d="M396.62,-385.99C414.16,-378.05 437.21,-364.35 447.97,-344 454.4,-331.82 455.67,-324.42 447.97,-313 430.13,-286.56 395.87,-273.96 367.72,-267.96"/>
<polygon fill="midnightblue" stroke="midnightblue" points="368.14,-264.47 357.66,-266.03 366.83,-271.35 368.14,-264.47"/>
</g>
<!-- Node33&#45;&gt;Node14 -->
<g id="edge43" class="edge">
<title>Node33&#45;&gt;Node14</title>
<path fill="none" stroke="midnightblue" d="M351.92,-385.87C323.07,-374.57 272.31,-354.7 239.42,-341.82"/>
<polygon fill="midnightblue" stroke="midnightblue" points="240.42,-338.45 229.84,-338.06 237.87,-344.97 240.42,-338.45"/>
</g>
<!-- Node34 -->
<g id="node34" class="node">
<title>Node34</title>
<g id="a_node34"><a xlink:href="ipv6_2_inet_address_8h.html" target="_top" xlink:title=" ">
<polygon fill="white" stroke="black" points="308.47,-319 308.47,-338 439.47,-338 439.47,-319 308.47,-319"/>
<text text-anchor="middle" x="373.97" y="-326" font-family="Helvetica,sans-Serif" font-size="10.00">socket/ipv6/InetAddress.h</text>
</a>
</g>
</g>
<!-- Node33&#45;&gt;Node34 -->
<g id="edge44" class="edge">
<title>Node33&#45;&gt;Node34</title>
<path fill="none" stroke="midnightblue" d="M373.97,-385.73C373.97,-376.18 373.97,-360.62 373.97,-348.28"/>
<polygon fill="midnightblue" stroke="midnightblue" points="377.47,-348.13 373.97,-338.13 370.47,-348.13 377.47,-348.13"/>
</g>
<!-- Node34&#45;&gt;Node15 -->
<g id="edge45" class="edge">
<title>Node34&#45;&gt;Node15</title>
<path fill="none" stroke="midnightblue" d="M351.92,-318.87C323.07,-307.57 272.31,-287.7 239.42,-274.82"/>
<polygon fill="midnightblue" stroke="midnightblue" points="240.42,-271.45 229.84,-271.06 237.87,-277.97 240.42,-271.45"/>
</g>
</g>
</svg>
