<?xml version="1.0" encoding="UTF-8" standalone="no"?>
<!DOCTYPE svg PUBLIC "-//W3C//DTD SVG 1.1//EN"
 "http://www.w3.org/Graphics/SVG/1.1/DTD/svg11.dtd">
<!-- Generated by graphviz version 2.43.0 (0)
 -->
<!-- Title: express/legacy/WebApp.h Pages: 1 -->
<svg width="1251pt" height="598pt"
 viewBox="0.00 0.00 1251.00 598.00" xmlns="http://www.w3.org/2000/svg" xmlns:xlink="http://www.w3.org/1999/xlink">
<g id="graph0" class="graph" transform="scale(1 1) rotate(0) translate(4 594)">
<title>express/legacy/WebApp.h</title>
<polygon fill="white" stroke="transparent" points="-4,4 -4,-594 1247,-594 1247,4 -4,4"/>
<!-- Node1 -->
<g id="node1" class="node">
<title>Node1</title>
<g id="a_node1"><a xlink:title=" ">
<polygon fill="#bfbfbf" stroke="black" points="640,-570.5 640,-589.5 771,-589.5 771,-570.5 640,-570.5"/>
<text text-anchor="middle" x="705.5" y="-577.5" font-family="Helvetica,sans-Serif" font-size="10.00">express/legacy/WebApp.h</text>
</a>
</g>
</g>
<!-- Node2 -->
<g id="node2" class="node">
<title>Node2</title>
<g id="a_node2"><a xlink:href="_web_app_t_8h.html" target="_top" xlink:title=" ">
<polygon fill="white" stroke="black" points="809.5,-386 809.5,-405 875.5,-405 875.5,-386 809.5,-386"/>
<text text-anchor="middle" x="842.5" y="-393" font-family="Helvetica,sans-Serif" font-size="10.00">WebAppT.h</text>
</a>
</g>
</g>
<!-- Node1&#45;&gt;Node2 -->
<g id="edge1" class="edge">
<title>Node1&#45;&gt;Node2</title>
<path fill="none" stroke="midnightblue" d="M714.35,-570.34C731.28,-553.49 768.96,-514.75 795.5,-478 810.39,-457.39 824.55,-431.7 833.36,-414.74"/>
<polygon fill="midnightblue" stroke="midnightblue" points="836.69,-415.92 838.12,-405.43 830.45,-412.74 836.69,-415.92"/>
</g>
<!-- Node12 -->
<g id="node12" class="node">
<title>Node12</title>
<g id="a_node12"><a xlink:href="legacy_2_server_8h.html" target="_top" xlink:title=" ">
<polygon fill="white" stroke="black" points="628.5,-514.5 628.5,-533.5 712.5,-533.5 712.5,-514.5 628.5,-514.5"/>
<text text-anchor="middle" x="670.5" y="-521.5" font-family="Helvetica,sans-Serif" font-size="10.00">legacy/Server.h</text>
</a>
</g>
</g>
<!-- Node1&#45;&gt;Node12 -->
<g id="edge11" class="edge">
<title>Node1&#45;&gt;Node12</title>
<path fill="none" stroke="midnightblue" d="M699.72,-570.08C694.83,-562.53 687.67,-551.49 681.67,-542.23"/>
<polygon fill="midnightblue" stroke="midnightblue" points="684.55,-540.24 676.17,-533.75 678.67,-544.05 684.55,-540.24"/>
</g>
<!-- Node3 -->
<g id="node3" class="node">
<title>Node3</title>
<g id="a_node3"><a xlink:href="_logger_8h.html" target="_top" xlink:title=" ">
<polygon fill="white" stroke="black" points="718,-185 718,-204 771,-204 771,-185 718,-185"/>
<text text-anchor="middle" x="744.5" y="-192" font-family="Helvetica,sans-Serif" font-size="10.00">Logger.h</text>
</a>
</g>
</g>
<!-- Node2&#45;&gt;Node3 -->
<g id="edge2" class="edge">
<title>Node2&#45;&gt;Node3</title>
<path fill="none" stroke="midnightblue" d="M841.25,-385.93C838.73,-370.53 832.1,-337.51 818.5,-313 808.11,-294.28 798.61,-294.65 786.5,-277 772.48,-256.56 759.98,-230.84 752.34,-213.82"/>
<polygon fill="midnightblue" stroke="midnightblue" points="755.46,-212.22 748.23,-204.47 749.05,-215.04 755.46,-212.22"/>
</g>
<!-- Node4 -->
<g id="node4" class="node">
<title>Node4</title>
<g id="a_node4"><a xlink:href="_web_app_8h.html" target="_top" xlink:title=" ">
<polygon fill="white" stroke="black" points="1066.5,-319 1066.5,-338 1128.5,-338 1128.5,-319 1066.5,-319"/>
<text text-anchor="middle" x="1097.5" y="-326" font-family="Helvetica,sans-Serif" font-size="10.00">WebApp.h</text>
</a>
</g>
</g>
<!-- Node2&#45;&gt;Node4 -->
<g id="edge3" class="edge">
<title>Node2&#45;&gt;Node4</title>
<path fill="none" stroke="midnightblue" d="M875.58,-386.07C921.97,-374.24 1006.32,-352.74 1056.6,-339.93"/>
<polygon fill="midnightblue" stroke="midnightblue" points="1057.65,-343.27 1066.48,-337.41 1055.92,-336.49 1057.65,-343.27"/>
</g>
<!-- Node5 -->
<g id="node5" class="node">
<title>Node5</title>
<g id="a_node5"><a xlink:href="_router_8h.html" target="_top" xlink:title=" ">
<polygon fill="white" stroke="black" points="1174,-252 1174,-271 1227,-271 1227,-252 1174,-252"/>
<text text-anchor="middle" x="1200.5" y="-259" font-family="Helvetica,sans-Serif" font-size="10.00">Router.h</text>
</a>
</g>
</g>
<!-- Node4&#45;&gt;Node5 -->
<g id="edge4" class="edge">
<title>Node4&#45;&gt;Node5</title>
<path fill="none" stroke="midnightblue" d="M1111.39,-318.73C1128.53,-307.92 1157.9,-289.38 1178.21,-276.57"/>
<polygon fill="midnightblue" stroke="midnightblue" points="1180.24,-279.42 1186.83,-271.13 1176.5,-273.5 1180.24,-279.42"/>
</g>
<!-- Node6 -->
<g id="node6" class="node">
<title>Node6</title>
<g id="a_node6"><a xlink:href="express_2_request_8h.html" target="_top" xlink:title=" ">
<polygon fill="white" stroke="black" points="949.5,-185 949.5,-204 1011.5,-204 1011.5,-185 949.5,-185"/>
<text text-anchor="middle" x="980.5" y="-192" font-family="Helvetica,sans-Serif" font-size="10.00">Request.h</text>
</a>
</g>
</g>
<!-- Node5&#45;&gt;Node6 -->
<g id="edge5" class="edge">
<title>Node5&#45;&gt;Node6</title>
<path fill="none" stroke="midnightblue" d="M1173.78,-253.67C1138.47,-244.49 1074.43,-227.31 1020.5,-210 1017.95,-209.18 1015.32,-208.3 1012.69,-207.4"/>
<polygon fill="midnightblue" stroke="midnightblue" points="1013.84,-204.1 1003.24,-204.08 1011.51,-210.7 1013.84,-204.1"/>
</g>
<!-- Node9 -->
<g id="node9" class="node">
<title>Node9</title>
<g id="a_node9"><a xlink:href="express_2_response_8h.html" target="_top" xlink:title=" ">
<polygon fill="white" stroke="black" points="1174,-185 1174,-204 1243,-204 1243,-185 1174,-185"/>
<text text-anchor="middle" x="1208.5" y="-192" font-family="Helvetica,sans-Serif" font-size="10.00">Response.h</text>
</a>
</g>
</g>
<!-- Node5&#45;&gt;Node9 -->
<g id="edge8" class="edge">
<title>Node5&#45;&gt;Node9</title>
<path fill="none" stroke="midnightblue" d="M1201.58,-251.73C1202.75,-242.18 1204.67,-226.62 1206.19,-214.28"/>
<polygon fill="midnightblue" stroke="midnightblue" points="1209.69,-214.48 1207.44,-204.13 1202.74,-213.62 1209.69,-214.48"/>
</g>
<!-- Node7 -->
<g id="node7" class="node">
<title>Node7</title>
<g id="a_node7"><a xlink:href="http_2_request_8h.html" target="_top" xlink:title=" ">
<polygon fill="white" stroke="black" points="901.5,-118 901.5,-137 991.5,-137 991.5,-118 901.5,-118"/>
<text text-anchor="middle" x="946.5" y="-125" font-family="Helvetica,sans-Serif" font-size="10.00">../http/Request.h</text>
</a>
</g>
</g>
<!-- Node6&#45;&gt;Node7 -->
<g id="edge6" class="edge">
<title>Node6&#45;&gt;Node7</title>
<path fill="none" stroke="midnightblue" d="M975.91,-184.73C970.77,-174.89 962.28,-158.66 955.74,-146.16"/>
<polygon fill="midnightblue" stroke="midnightblue" points="958.75,-144.37 951.01,-137.13 952.55,-147.61 958.75,-144.37"/>
</g>
<!-- Node8 -->
<g id="node8" class="node">
<title>Node8</title>
<g id="a_node8"><a xlink:href="_attribute_injector_8h.html" target="_top" xlink:title=" ">
<polygon fill="white" stroke="black" points="836,-56.5 836,-75.5 929,-75.5 929,-56.5 836,-56.5"/>
<text text-anchor="middle" x="882.5" y="-63.5" font-family="Helvetica,sans-Serif" font-size="10.00">AttributeInjector.h</text>
</a>
</g>
</g>
<!-- Node7&#45;&gt;Node8 -->
<g id="edge7" class="edge">
<title>Node7&#45;&gt;Node8</title>
<path fill="none" stroke="midnightblue" d="M937.33,-117.98C927.35,-108.7 911.19,-93.67 898.99,-82.33"/>
<polygon fill="midnightblue" stroke="midnightblue" points="901.36,-79.75 891.65,-75.51 896.59,-84.88 901.36,-79.75"/>
</g>
<!-- Node10 -->
<g id="node10" class="node">
<title>Node10</title>
<g id="a_node10"><a xlink:href="http_2_response_8h.html" target="_top" xlink:title=" ">
<polygon fill="white" stroke="black" points="1125.5,-118 1125.5,-137 1223.5,-137 1223.5,-118 1125.5,-118"/>
<text text-anchor="middle" x="1174.5" y="-125" font-family="Helvetica,sans-Serif" font-size="10.00">../http/Response.h</text>
</a>
</g>
</g>
<!-- Node9&#45;&gt;Node10 -->
<g id="edge9" class="edge">
<title>Node9&#45;&gt;Node10</title>
<path fill="none" stroke="midnightblue" d="M1203.91,-184.73C1198.77,-174.89 1190.28,-158.66 1183.74,-146.16"/>
<polygon fill="midnightblue" stroke="midnightblue" points="1186.75,-144.37 1179.01,-137.13 1180.55,-147.61 1186.75,-144.37"/>
</g>
<!-- Node11 -->
<g id="node11" class="node">
<title>Node11</title>
<g id="a_node11"><a xlink:href="_cookie_options_8h.html" target="_top" xlink:title=" ">
<polygon fill="white" stroke="black" points="1130,-56.5 1130,-75.5 1219,-75.5 1219,-56.5 1130,-56.5"/>
<text text-anchor="middle" x="1174.5" y="-63.5" font-family="Helvetica,sans-Serif" font-size="10.00">CookieOptions.h</text>
</a>
</g>
</g>
<!-- Node10&#45;&gt;Node11 -->
<g id="edge10" class="edge">
<title>Node10&#45;&gt;Node11</title>
<path fill="none" stroke="midnightblue" d="M1174.5,-117.98C1174.5,-109.58 1174.5,-96.48 1174.5,-85.66"/>
<polygon fill="midnightblue" stroke="midnightblue" points="1178,-85.51 1174.5,-75.51 1171,-85.51 1178,-85.51"/>
</g>
<!-- Node13 -->
<g id="node13" class="node">
<title>Node13</title>
<g id="a_node13"><a xlink:href="_server_8h.html" target="_top" xlink:title=" ">
<polygon fill="white" stroke="black" points="882.5,-319 882.5,-338 944.5,-338 944.5,-319 882.5,-319"/>
<text text-anchor="middle" x="913.5" y="-326" font-family="Helvetica,sans-Serif" font-size="10.00">../Server.h</text>
</a>
</g>
</g>
<!-- Node12&#45;&gt;Node13 -->
<g id="edge12" class="edge">
<title>Node12&#45;&gt;Node13</title>
<path fill="none" stroke="midnightblue" d="M676.29,-514.47C693,-490.41 743.7,-421.12 800.5,-380 823.8,-363.13 853.63,-350.09 876.8,-341.5"/>
<polygon fill="midnightblue" stroke="midnightblue" points="878.05,-344.76 886.28,-338.08 875.68,-338.18 878.05,-344.76"/>
</g>
<!-- Node20 -->
<g id="node20" class="node">
<title>Node20</title>
<g id="a_node20"><a xlink:href="ip_2tcp_2ipv4_2legacy_2_socket_server_8h.html" target="_top" xlink:title=" ">
<polygon fill="white" stroke="black" points="560.5,-447.5 560.5,-477.5 678.5,-477.5 678.5,-447.5 560.5,-447.5"/>
<text text-anchor="start" x="568.5" y="-465.5" font-family="Helvetica,sans-Serif" font-size="10.00">socket/ip/tcp/ipv4</text>
<text text-anchor="middle" x="619.5" y="-454.5" font-family="Helvetica,sans-Serif" font-size="10.00">/legacy/SocketServer.h</text>
</a>
</g>
</g>
<!-- Node12&#45;&gt;Node20 -->
<g id="edge25" class="edge">
<title>Node12&#45;&gt;Node20</title>
<path fill="none" stroke="midnightblue" d="M663.19,-514.48C656.67,-506.87 646.84,-495.4 638.16,-485.26"/>
<polygon fill="midnightblue" stroke="midnightblue" points="640.69,-482.84 631.52,-477.52 635.37,-487.39 640.69,-482.84"/>
</g>
<!-- Node41 -->
<g id="node41" class="node">
<title>Node41</title>
<g id="a_node41"><a xlink:href="ip_2tcp_2ipv6_2legacy_2_socket_server_8h.html" target="_top" xlink:title=" ">
<polygon fill="white" stroke="black" points="424.5,-447.5 424.5,-477.5 542.5,-477.5 542.5,-447.5 424.5,-447.5"/>
<text text-anchor="start" x="432.5" y="-465.5" font-family="Helvetica,sans-Serif" font-size="10.00">socket/ip/tcp/ipv6</text>
<text text-anchor="middle" x="483.5" y="-454.5" font-family="Helvetica,sans-Serif" font-size="10.00">/legacy/SocketServer.h</text>
</a>
</g>
</g>
<!-- Node12&#45;&gt;Node41 -->
<g id="edge54" class="edge">
<title>Node12&#45;&gt;Node41</title>
<path fill="none" stroke="midnightblue" d="M643.71,-514.48C616.01,-505.66 572.03,-491.67 537.15,-480.57"/>
<polygon fill="midnightblue" stroke="midnightblue" points="538.16,-477.22 527.57,-477.52 536.04,-483.89 538.16,-477.22"/>
</g>
<!-- Node13&#45;&gt;Node7 -->
<g id="edge13" class="edge">
<title>Node13&#45;&gt;Node7</title>
<path fill="none" stroke="midnightblue" d="M914.92,-318.95C919.87,-289.1 936.45,-189.08 943.4,-147.2"/>
<polygon fill="midnightblue" stroke="midnightblue" points="946.87,-147.68 945.05,-137.24 939.96,-146.54 946.87,-147.68"/>
</g>
<!-- Node13&#45;&gt;Node10 -->
<g id="edge14" class="edge">
<title>Node13&#45;&gt;Node10</title>
<path fill="none" stroke="midnightblue" d="M938.21,-318.88C980.92,-302.97 1069.42,-265.49 1126.5,-210 1145.4,-191.63 1159.47,-164.26 1167.33,-146.39"/>
<polygon fill="midnightblue" stroke="midnightblue" points="1170.59,-147.69 1171.24,-137.11 1164.13,-144.97 1170.59,-147.69"/>
</g>
<!-- Node14 -->
<g id="node14" class="node">
<title>Node14</title>
<g id="a_node14"><a xlink:href="_server_context_8hpp.html" target="_top" xlink:title=" ">
<polygon fill="white" stroke="black" points="795.5,-252 795.5,-271 893.5,-271 893.5,-252 795.5,-252"/>
<text text-anchor="middle" x="844.5" y="-259" font-family="Helvetica,sans-Serif" font-size="10.00">ServerContext.hpp</text>
</a>
</g>
</g>
<!-- Node13&#45;&gt;Node14 -->
<g id="edge15" class="edge">
<title>Node13&#45;&gt;Node14</title>
<path fill="none" stroke="midnightblue" d="M904.19,-318.73C893.23,-308.4 874.79,-291.04 861.31,-278.33"/>
<polygon fill="midnightblue" stroke="midnightblue" points="863.34,-275.44 853.66,-271.13 858.54,-280.53 863.34,-275.44"/>
</g>
<!-- Node14&#45;&gt;Node3 -->
<g id="edge16" class="edge">
<title>Node14&#45;&gt;Node3</title>
<path fill="none" stroke="midnightblue" d="M831.01,-251.73C814.45,-240.96 786.12,-222.55 766.41,-209.74"/>
<polygon fill="midnightblue" stroke="midnightblue" points="768.06,-206.64 757.77,-204.13 764.25,-212.51 768.06,-206.64"/>
</g>
<!-- Node15 -->
<g id="node15" class="node">
<title>Node15</title>
<g id="a_node15"><a xlink:href="_server_context_8h.html" target="_top" xlink:title=" ">
<polygon fill="white" stroke="black" points="1029.5,-185 1029.5,-204 1117.5,-204 1117.5,-185 1029.5,-185"/>
<text text-anchor="middle" x="1073.5" y="-192" font-family="Helvetica,sans-Serif" font-size="10.00">ServerContext.h</text>
</a>
</g>
</g>
<!-- Node14&#45;&gt;Node15 -->
<g id="edge17" class="edge">
<title>Node14&#45;&gt;Node15</title>
<path fill="none" stroke="midnightblue" d="M874.91,-251.87C915.74,-240.28 988.37,-219.66 1033.57,-206.83"/>
<polygon fill="midnightblue" stroke="midnightblue" points="1034.67,-210.16 1043.33,-204.06 1032.75,-203.43 1034.67,-210.16"/>
</g>
<!-- Node18 -->
<g id="node18" class="node">
<title>Node18</title>
<g id="a_node18"><a xlink:href="http__utils_8h.html" target="_top" xlink:title=" ">
<polygon fill="white" stroke="black" points="828,-185 828,-204 893,-204 893,-185 828,-185"/>
<text text-anchor="middle" x="860.5" y="-192" font-family="Helvetica,sans-Serif" font-size="10.00">http_utils.h</text>
</a>
</g>
</g>
<!-- Node14&#45;&gt;Node18 -->
<g id="edge22" class="edge">
<title>Node14&#45;&gt;Node18</title>
<path fill="none" stroke="midnightblue" d="M846.66,-251.73C849.03,-242.09 852.92,-226.3 855.97,-213.91"/>
<polygon fill="midnightblue" stroke="midnightblue" points="859.38,-214.67 858.38,-204.13 852.59,-213 859.38,-214.67"/>
</g>
<!-- Node19 -->
<g id="node19" class="node">
<title>Node19</title>
<g id="a_node19"><a xlink:href="_socket_connection_base_8h.html" target="_top" xlink:title=" ">
<polygon fill="white" stroke="black" points="734,-112.5 734,-142.5 865,-142.5 865,-112.5 734,-112.5"/>
<text text-anchor="start" x="742" y="-130.5" font-family="Helvetica,sans-Serif" font-size="10.00">socket/sock_stream</text>
<text text-anchor="middle" x="799.5" y="-119.5" font-family="Helvetica,sans-Serif" font-size="10.00">/SocketConnectionBase.h</text>
</a>
</g>
</g>
<!-- Node14&#45;&gt;Node19 -->
<g id="edge23" class="edge">
<title>Node14&#45;&gt;Node19</title>
<path fill="none" stroke="midnightblue" d="M839.21,-251.86C833.4,-242.04 824.15,-225.36 818.5,-210 811.59,-191.21 806.62,-169.03 803.49,-152.56"/>
<polygon fill="midnightblue" stroke="midnightblue" points="806.93,-151.87 801.71,-142.65 800.04,-153.11 806.93,-151.87"/>
</g>
<!-- Node15&#45;&gt;Node7 -->
<g id="edge18" class="edge">
<title>Node15&#45;&gt;Node7</title>
<path fill="none" stroke="midnightblue" d="M1056.64,-184.87C1035.1,-173.84 997.6,-154.66 972.42,-141.77"/>
<polygon fill="midnightblue" stroke="midnightblue" points="973.93,-138.61 963.43,-137.17 970.74,-144.84 973.93,-138.61"/>
</g>
<!-- Node15&#45;&gt;Node10 -->
<g id="edge21" class="edge">
<title>Node15&#45;&gt;Node10</title>
<path fill="none" stroke="midnightblue" d="M1087.12,-184.73C1103.93,-173.92 1132.73,-155.38 1152.64,-142.57"/>
<polygon fill="midnightblue" stroke="midnightblue" points="1154.58,-145.48 1161.09,-137.13 1150.79,-139.6 1154.58,-145.48"/>
</g>
<!-- Node16 -->
<g id="node16" class="node">
<title>Node16</title>
<g id="a_node16"><a xlink:href="_request_parser_8h.html" target="_top" xlink:title=" ">
<polygon fill="white" stroke="black" points="1019,-118 1019,-137 1108,-137 1108,-118 1019,-118"/>
<text text-anchor="middle" x="1063.5" y="-125" font-family="Helvetica,sans-Serif" font-size="10.00">RequestParser.h</text>
</a>
</g>
</g>
<!-- Node15&#45;&gt;Node16 -->
<g id="edge19" class="edge">
<title>Node15&#45;&gt;Node16</title>
<path fill="none" stroke="midnightblue" d="M1072.15,-184.73C1070.68,-175.18 1068.29,-159.62 1066.39,-147.28"/>
<polygon fill="midnightblue" stroke="midnightblue" points="1069.81,-146.48 1064.83,-137.13 1062.89,-147.54 1069.81,-146.48"/>
</g>
<!-- Node17 -->
<g id="node17" class="node">
<title>Node17</title>
<g id="a_node17"><a xlink:href="_parser_8h.html" target="_top" xlink:title=" ">
<polygon fill="white" stroke="black" points="1037,-56.5 1037,-75.5 1090,-75.5 1090,-56.5 1037,-56.5"/>
<text text-anchor="middle" x="1063.5" y="-63.5" font-family="Helvetica,sans-Serif" font-size="10.00">Parser.h</text>
</a>
</g>
</g>
<!-- Node16&#45;&gt;Node17 -->
<g id="edge20" class="edge">
<title>Node16&#45;&gt;Node17</title>
<path fill="none" stroke="midnightblue" d="M1063.5,-117.98C1063.5,-109.58 1063.5,-96.48 1063.5,-85.66"/>
<polygon fill="midnightblue" stroke="midnightblue" points="1067,-85.51 1063.5,-75.51 1060,-85.51 1067,-85.51"/>
</g>
<!-- Node19&#45;&gt;Node8 -->
<g id="edge24" class="edge">
<title>Node19&#45;&gt;Node8</title>
<path fill="none" stroke="midnightblue" d="M819.17,-112.4C832.1,-103.13 848.99,-91.03 862.07,-81.65"/>
<polygon fill="midnightblue" stroke="midnightblue" points="864.33,-84.33 870.42,-75.66 860.26,-78.64 864.33,-84.33"/>
</g>
<!-- Node21 -->
<g id="node21" class="node">
<title>Node21</title>
<g id="a_node21"><a xlink:href="ip_2tcp_2_socket_server_8h.html" target="_top" xlink:title=" ">
<polygon fill="white" stroke="black" points="498,-386 498,-405 641,-405 641,-386 498,-386"/>
<text text-anchor="middle" x="569.5" y="-393" font-family="Helvetica,sans-Serif" font-size="10.00">socket/ip/tcp/SocketServer.h</text>
</a>
</g>
</g>
<!-- Node20&#45;&gt;Node21 -->
<g id="edge26" class="edge">
<title>Node20&#45;&gt;Node21</title>
<path fill="none" stroke="midnightblue" d="M608.65,-447.4C600.93,-437.36 590.53,-423.84 582.39,-413.25"/>
<polygon fill="midnightblue" stroke="midnightblue" points="585.06,-410.99 576.19,-405.19 579.51,-415.25 585.06,-410.99"/>
</g>
<!-- Node22 -->
<g id="node22" class="node">
<title>Node22</title>
<g id="a_node22"><a xlink:href="ip_2tcp_2ipv4_2_socket_8h.html" target="_top" xlink:title=" ">
<polygon fill="white" stroke="black" points="659.5,-380.5 659.5,-410.5 753.5,-410.5 753.5,-380.5 659.5,-380.5"/>
<text text-anchor="start" x="667.5" y="-398.5" font-family="Helvetica,sans-Serif" font-size="10.00">socket/ip/tcp/ipv4</text>
<text text-anchor="middle" x="706.5" y="-387.5" font-family="Helvetica,sans-Serif" font-size="10.00">/Socket.h</text>
</a>
</g>
</g>
<!-- Node20&#45;&gt;Node22 -->
<g id="edge27" class="edge">
<title>Node20&#45;&gt;Node22</title>
<path fill="none" stroke="midnightblue" d="M638.38,-447.4C650.35,-438.45 666.03,-426.74 679.33,-416.8"/>
<polygon fill="midnightblue" stroke="midnightblue" points="681.74,-419.37 687.66,-410.58 677.55,-413.76 681.74,-419.37"/>
</g>
<!-- Node27 -->
<g id="node27" class="node">
<title>Node27</title>
<g id="a_node27"><a xlink:href="sock__stream_2legacy_2_socket_server_8h.html" target="_top" xlink:title=" ">
<polygon fill="white" stroke="black" points="249.5,-380.5 249.5,-410.5 367.5,-410.5 367.5,-380.5 249.5,-380.5"/>
<text text-anchor="start" x="257.5" y="-398.5" font-family="Helvetica,sans-Serif" font-size="10.00">socket/sock_stream</text>
<text text-anchor="middle" x="308.5" y="-387.5" font-family="Helvetica,sans-Serif" font-size="10.00">/legacy/SocketServer.h</text>
</a>
</g>
</g>
<!-- Node20&#45;&gt;Node27 -->
<g id="edge34" class="edge">
<title>Node20&#45;&gt;Node27</title>
<path fill="none" stroke="midnightblue" d="M560.17,-448.82C557.24,-448.2 554.34,-447.59 551.5,-447 476.82,-431.36 455.84,-427.57 377.66,-411.23"/>
<polygon fill="midnightblue" stroke="midnightblue" points="378.34,-407.8 367.83,-409.18 376.9,-414.65 378.34,-407.8"/>
</g>
<!-- Node23 -->
<g id="node23" class="node">
<title>Node23</title>
<g id="a_node23"><a xlink:href="_descriptor_8h.html" target="_top" xlink:title=" ">
<polygon fill="white" stroke="black" points="518,-252 518,-271 587,-271 587,-252 518,-252"/>
<text text-anchor="middle" x="552.5" y="-259" font-family="Helvetica,sans-Serif" font-size="10.00">Descriptor.h</text>
</a>
</g>
</g>
<!-- Node22&#45;&gt;Node23 -->
<g id="edge28" class="edge">
<title>Node22&#45;&gt;Node23</title>
<path fill="none" stroke="midnightblue" d="M660.33,-380.48C629.27,-370.24 591.99,-356.08 580.5,-344 564.11,-326.76 557.28,-299.5 554.45,-281.31"/>
<polygon fill="midnightblue" stroke="midnightblue" points="557.92,-280.8 553.16,-271.33 550.97,-281.7 557.92,-280.8"/>
</g>
<!-- Node24 -->
<g id="node24" class="node">
<title>Node24</title>
<g id="a_node24"><a xlink:href="_socket_8h.html" target="_top" xlink:title=" ">
<polygon fill="white" stroke="black" points="589.5,-319 589.5,-338 677.5,-338 677.5,-319 589.5,-319"/>
<text text-anchor="middle" x="633.5" y="-326" font-family="Helvetica,sans-Serif" font-size="10.00">socket/Socket.h</text>
</a>
</g>
</g>
<!-- Node22&#45;&gt;Node24 -->
<g id="edge29" class="edge">
<title>Node22&#45;&gt;Node24</title>
<path fill="none" stroke="midnightblue" d="M690.66,-380.4C678.94,-369.96 662.98,-355.75 650.91,-345"/>
<polygon fill="midnightblue" stroke="midnightblue" points="653.06,-342.23 643.26,-338.19 648.41,-347.46 653.06,-342.23"/>
</g>
<!-- Node26 -->
<g id="node26" class="node">
<title>Node26</title>
<g id="a_node26"><a xlink:href="ipv4_2_inet_address_8h.html" target="_top" xlink:title=" ">
<polygon fill="white" stroke="black" points="695,-313.5 695,-343.5 810,-343.5 810,-313.5 695,-313.5"/>
<text text-anchor="start" x="703" y="-331.5" font-family="Helvetica,sans-Serif" font-size="10.00">socket/ip/address/ipv4</text>
<text text-anchor="middle" x="752.5" y="-320.5" font-family="Helvetica,sans-Serif" font-size="10.00">/InetAddress.h</text>
</a>
</g>
</g>
<!-- Node22&#45;&gt;Node26 -->
<g id="edge32" class="edge">
<title>Node22&#45;&gt;Node26</title>
<path fill="none" stroke="midnightblue" d="M716.48,-380.4C722.39,-372.05 730,-361.29 736.71,-351.81"/>
<polygon fill="midnightblue" stroke="midnightblue" points="739.62,-353.76 742.54,-343.58 733.9,-349.72 739.62,-353.76"/>
</g>
<!-- Node24&#45;&gt;Node23 -->
<g id="edge30" class="edge">
<title>Node24&#45;&gt;Node23</title>
<path fill="none" stroke="midnightblue" d="M622.58,-318.73C609.46,-308.21 587.24,-290.38 571.34,-277.62"/>
<polygon fill="midnightblue" stroke="midnightblue" points="573.24,-274.66 563.25,-271.13 568.86,-280.12 573.24,-274.66"/>
</g>
<!-- Node25 -->
<g id="node25" class="node">
<title>Node25</title>
<g id="a_node25"><a xlink:href="_socket_address_8h.html" target="_top" xlink:title=" ">
<polygon fill="white" stroke="black" points="605.5,-252 605.5,-271 729.5,-271 729.5,-252 605.5,-252"/>
<text text-anchor="middle" x="667.5" y="-259" font-family="Helvetica,sans-Serif" font-size="10.00">socket/SocketAddress.h</text>
</a>
</g>
</g>
<!-- Node24&#45;&gt;Node25 -->
<g id="edge31" class="edge">
<title>Node24&#45;&gt;Node25</title>
<path fill="none" stroke="midnightblue" d="M638.09,-318.73C643.23,-308.89 651.72,-292.66 658.26,-280.16"/>
<polygon fill="midnightblue" stroke="midnightblue" points="661.45,-281.61 662.99,-271.13 655.25,-278.37 661.45,-281.61"/>
</g>
<!-- Node26&#45;&gt;Node25 -->
<g id="edge33" class="edge">
<title>Node26&#45;&gt;Node25</title>
<path fill="none" stroke="midnightblue" d="M734.06,-313.4C720.15,-302.76 701.11,-288.2 686.96,-277.38"/>
<polygon fill="midnightblue" stroke="midnightblue" points="688.94,-274.49 678.87,-271.19 684.69,-280.05 688.94,-274.49"/>
</g>
<!-- Node28 -->
<g id="node28" class="node">
<title>Node28</title>
<g id="a_node28"><a xlink:href="legacy_2_socket_listener_8h.html" target="_top" xlink:title=" ">
<polygon fill="white" stroke="black" points="149,-319 149,-338 238,-338 238,-319 149,-319"/>
<text text-anchor="middle" x="193.5" y="-326" font-family="Helvetica,sans-Serif" font-size="10.00">SocketListener.h</text>
</a>
</g>
</g>
<!-- Node27&#45;&gt;Node28 -->
<g id="edge35" class="edge">
<title>Node27&#45;&gt;Node28</title>
<path fill="none" stroke="midnightblue" d="M283.55,-380.4C263.9,-369.29 236.71,-353.92 217.35,-342.98"/>
<polygon fill="midnightblue" stroke="midnightblue" points="218.98,-339.88 208.55,-338.01 215.53,-345.97 218.98,-339.88"/>
</g>
<!-- Node40 -->
<g id="node40" class="node">
<title>Node40</title>
<g id="a_node40"><a xlink:href="sock__stream_2_socket_server_8h.html" target="_top" xlink:title=" ">
<polygon fill="white" stroke="black" points="256,-313.5 256,-343.5 361,-343.5 361,-313.5 256,-313.5"/>
<text text-anchor="start" x="264" y="-331.5" font-family="Helvetica,sans-Serif" font-size="10.00">socket/sock_stream</text>
<text text-anchor="middle" x="308.5" y="-320.5" font-family="Helvetica,sans-Serif" font-size="10.00">/SocketServer.h</text>
</a>
</g>
</g>
<!-- Node27&#45;&gt;Node40 -->
<g id="edge52" class="edge">
<title>Node27&#45;&gt;Node40</title>
<path fill="none" stroke="midnightblue" d="M308.5,-380.4C308.5,-372.64 308.5,-362.81 308.5,-353.86"/>
<polygon fill="midnightblue" stroke="midnightblue" points="312,-353.58 308.5,-343.58 305,-353.58 312,-353.58"/>
</g>
<!-- Node29 -->
<g id="node29" class="node">
<title>Node29</title>
<g id="a_node29"><a xlink:href="legacy_2_socket_connection_8h.html" target="_top" xlink:title=" ">
<polygon fill="white" stroke="black" points="141,-252 141,-271 246,-271 246,-252 141,-252"/>
<text text-anchor="middle" x="193.5" y="-259" font-family="Helvetica,sans-Serif" font-size="10.00">SocketConnection.h</text>
</a>
</g>
</g>
<!-- Node28&#45;&gt;Node29 -->
<g id="edge36" class="edge">
<title>Node28&#45;&gt;Node29</title>
<path fill="none" stroke="midnightblue" d="M193.5,-318.73C193.5,-309.18 193.5,-293.62 193.5,-281.28"/>
<polygon fill="midnightblue" stroke="midnightblue" points="197,-281.13 193.5,-271.13 190,-281.13 197,-281.13"/>
</g>
<!-- Node38 -->
<g id="node38" class="node">
<title>Node38</title>
<g id="a_node38"><a xlink:href="_socket_listener_8h.html" target="_top" xlink:title=" ">
<polygon fill="white" stroke="black" points="356,-246.5 356,-276.5 461,-276.5 461,-246.5 356,-246.5"/>
<text text-anchor="start" x="364" y="-264.5" font-family="Helvetica,sans-Serif" font-size="10.00">socket/sock_stream</text>
<text text-anchor="middle" x="408.5" y="-253.5" font-family="Helvetica,sans-Serif" font-size="10.00">/SocketListener.h</text>
</a>
</g>
</g>
<!-- Node28&#45;&gt;Node38 -->
<g id="edge47" class="edge">
<title>Node28&#45;&gt;Node38</title>
<path fill="none" stroke="midnightblue" d="M222.05,-318.87C255.15,-308.86 310.5,-292.13 352.32,-279.48"/>
<polygon fill="midnightblue" stroke="midnightblue" points="353.54,-282.77 362.1,-276.53 351.51,-276.07 353.54,-282.77"/>
</g>
<!-- Node30 -->
<g id="node30" class="node">
<title>Node30</title>
<g id="a_node30"><a xlink:href="_socket_connection_8h.html" target="_top" xlink:title=" ">
<polygon fill="white" stroke="black" points="272.5,-179.5 272.5,-209.5 380.5,-209.5 380.5,-179.5 272.5,-179.5"/>
<text text-anchor="start" x="280.5" y="-197.5" font-family="Helvetica,sans-Serif" font-size="10.00">socket/sock_stream</text>
<text text-anchor="middle" x="326.5" y="-186.5" font-family="Helvetica,sans-Serif" font-size="10.00">/SocketConnection.h</text>
</a>
</g>
</g>
<!-- Node29&#45;&gt;Node30 -->
<g id="edge37" class="edge">
<title>Node29&#45;&gt;Node30</title>
<path fill="none" stroke="midnightblue" d="M211.16,-251.87C230.86,-242.24 263.3,-226.39 288.77,-213.94"/>
<polygon fill="midnightblue" stroke="midnightblue" points="290.35,-217.06 297.8,-209.53 287.28,-210.77 290.35,-217.06"/>
</g>
<!-- Node31 -->
<g id="node31" class="node">
<title>Node31</title>
<g id="a_node31"><a xlink:href="legacy_2_socket_reader_8h.html" target="_top" xlink:title=" ">
<polygon fill="white" stroke="black" points="133,-179.5 133,-209.5 254,-209.5 254,-179.5 133,-179.5"/>
<text text-anchor="start" x="141" y="-197.5" font-family="Helvetica,sans-Serif" font-size="10.00">socket/sock_stream</text>
<text text-anchor="middle" x="193.5" y="-186.5" font-family="Helvetica,sans-Serif" font-size="10.00">/legacy/SocketReader.h</text>
</a>
</g>
</g>
<!-- Node29&#45;&gt;Node31 -->
<g id="edge39" class="edge">
<title>Node29&#45;&gt;Node31</title>
<path fill="none" stroke="midnightblue" d="M193.5,-251.73C193.5,-243.54 193.5,-230.92 193.5,-219.71"/>
<polygon fill="midnightblue" stroke="midnightblue" points="197,-219.59 193.5,-209.59 190,-219.59 197,-219.59"/>
</g>
<!-- Node35 -->
<g id="node35" class="node">
<title>Node35</title>
<g id="a_node35"><a xlink:href="legacy_2_socket_writer_8h.html" target="_top" xlink:title=" ">
<polygon fill="white" stroke="black" points="0,-179.5 0,-209.5 115,-209.5 115,-179.5 0,-179.5"/>
<text text-anchor="start" x="8" y="-197.5" font-family="Helvetica,sans-Serif" font-size="10.00">socket/sock_stream</text>
<text text-anchor="middle" x="57.5" y="-186.5" font-family="Helvetica,sans-Serif" font-size="10.00">/legacy/SocketWriter.h</text>
</a>
</g>
</g>
<!-- Node29&#45;&gt;Node35 -->
<g id="edge43" class="edge">
<title>Node29&#45;&gt;Node35</title>
<path fill="none" stroke="midnightblue" d="M175.44,-251.87C155.3,-242.24 122.13,-226.39 96.09,-213.94"/>
<polygon fill="midnightblue" stroke="midnightblue" points="97.38,-210.68 86.85,-209.53 94.36,-217 97.38,-210.68"/>
</g>
<!-- Node30&#45;&gt;Node19 -->
<g id="edge38" class="edge">
<title>Node30&#45;&gt;Node19</title>
<path fill="none" stroke="midnightblue" d="M380.76,-186.04C465.13,-174.45 628.02,-152.06 723.88,-138.89"/>
<polygon fill="midnightblue" stroke="midnightblue" points="724.36,-142.36 733.79,-137.53 723.41,-135.42 724.36,-142.36"/>
</g>
<!-- Node32 -->
<g id="node32" class="node">
<title>Node32</title>
<g id="a_node32"><a xlink:href="_socket_reader_8h.html" target="_top" xlink:title=" ">
<polygon fill="white" stroke="black" points="158,-112.5 158,-142.5 263,-142.5 263,-112.5 158,-112.5"/>
<text text-anchor="start" x="166" y="-130.5" font-family="Helvetica,sans-Serif" font-size="10.00">socket/sock_stream</text>
<text text-anchor="middle" x="210.5" y="-119.5" font-family="Helvetica,sans-Serif" font-size="10.00">/SocketReader.h</text>
</a>
</g>
</g>
<!-- Node31&#45;&gt;Node32 -->
<g id="edge40" class="edge">
<title>Node31&#45;&gt;Node32</title>
<path fill="none" stroke="midnightblue" d="M197.19,-179.4C199.26,-171.47 201.9,-161.38 204.28,-152.27"/>
<polygon fill="midnightblue" stroke="midnightblue" points="207.67,-153.14 206.82,-142.58 200.9,-151.37 207.67,-153.14"/>
</g>
<!-- Node33 -->
<g id="node33" class="node">
<title>Node33</title>
<g id="a_node33"><a xlink:href="_read_event_receiver_8h.html" target="_top" xlink:title=" ">
<polygon fill="white" stroke="black" points="220.5,-56.5 220.5,-75.5 332.5,-75.5 332.5,-56.5 220.5,-56.5"/>
<text text-anchor="middle" x="276.5" y="-63.5" font-family="Helvetica,sans-Serif" font-size="10.00">ReadEventReceiver.h</text>
</a>
</g>
</g>
<!-- Node32&#45;&gt;Node33 -->
<g id="edge41" class="edge">
<title>Node32&#45;&gt;Node33</title>
<path fill="none" stroke="midnightblue" d="M226.14,-112.4C236.13,-103.4 249.08,-91.72 259.35,-82.47"/>
<polygon fill="midnightblue" stroke="midnightblue" points="261.81,-84.95 266.9,-75.66 257.13,-79.75 261.81,-84.95"/>
</g>
<!-- Node34 -->
<g id="node34" class="node">
<title>Node34</title>
<g id="a_node34"><a xlink:href="_event_receiver_8h.html" target="_top" xlink:title=" ">
<polygon fill="white" stroke="black" points="232,-0.5 232,-19.5 321,-19.5 321,-0.5 232,-0.5"/>
<text text-anchor="middle" x="276.5" y="-7.5" font-family="Helvetica,sans-Serif" font-size="10.00">EventReceiver.h</text>
</a>
</g>
</g>
<!-- Node33&#45;&gt;Node34 -->
<g id="edge42" class="edge">
<title>Node33&#45;&gt;Node34</title>
<path fill="none" stroke="midnightblue" d="M276.5,-56.08C276.5,-49.01 276.5,-38.86 276.5,-29.99"/>
<polygon fill="midnightblue" stroke="midnightblue" points="280,-29.75 276.5,-19.75 273,-29.75 280,-29.75"/>
</g>
<!-- Node36 -->
<g id="node36" class="node">
<title>Node36</title>
<g id="a_node36"><a xlink:href="_socket_writer_8h.html" target="_top" xlink:title=" ">
<polygon fill="white" stroke="black" points="29,-112.5 29,-142.5 134,-142.5 134,-112.5 29,-112.5"/>
<text text-anchor="start" x="37" y="-130.5" font-family="Helvetica,sans-Serif" font-size="10.00">socket/sock_stream</text>
<text text-anchor="middle" x="81.5" y="-119.5" font-family="Helvetica,sans-Serif" font-size="10.00">/SocketWriter.h</text>
</a>
</g>
</g>
<!-- Node35&#45;&gt;Node36 -->
<g id="edge44" class="edge">
<title>Node35&#45;&gt;Node36</title>
<path fill="none" stroke="midnightblue" d="M62.71,-179.4C65.66,-171.39 69.44,-161.16 72.83,-151.98"/>
<polygon fill="midnightblue" stroke="midnightblue" points="76.12,-153.17 76.3,-142.58 69.56,-150.75 76.12,-153.17"/>
</g>
<!-- Node37 -->
<g id="node37" class="node">
<title>Node37</title>
<g id="a_node37"><a xlink:href="_write_event_receiver_8h.html" target="_top" xlink:title=" ">
<polygon fill="white" stroke="black" points="35,-56.5 35,-75.5 146,-75.5 146,-56.5 35,-56.5"/>
<text text-anchor="middle" x="90.5" y="-63.5" font-family="Helvetica,sans-Serif" font-size="10.00">WriteEventReceiver.h</text>
</a>
</g>
</g>
<!-- Node36&#45;&gt;Node37 -->
<g id="edge45" class="edge">
<title>Node36&#45;&gt;Node37</title>
<path fill="none" stroke="midnightblue" d="M83.63,-112.4C84.85,-104.38 86.38,-94.23 87.69,-85.57"/>
<polygon fill="midnightblue" stroke="midnightblue" points="91.16,-86.07 89.19,-75.66 84.23,-85.02 91.16,-86.07"/>
</g>
<!-- Node37&#45;&gt;Node34 -->
<g id="edge46" class="edge">
<title>Node37&#45;&gt;Node34</title>
<path fill="none" stroke="midnightblue" d="M119.97,-56.44C151.67,-47.24 202.23,-32.56 237.27,-22.39"/>
<polygon fill="midnightblue" stroke="midnightblue" points="238.54,-25.67 247.17,-19.52 236.59,-18.94 238.54,-25.67"/>
</g>
<!-- Node38&#45;&gt;Node3 -->
<g id="edge50" class="edge">
<title>Node38&#45;&gt;Node3</title>
<path fill="none" stroke="midnightblue" d="M461.37,-250.27C530.06,-236.98 648.23,-214.12 707.84,-202.59"/>
<polygon fill="midnightblue" stroke="midnightblue" points="708.77,-205.98 717.92,-200.64 707.44,-199.11 708.77,-205.98"/>
</g>
<!-- Node38&#45;&gt;Node33 -->
<g id="edge51" class="edge">
<title>Node38&#45;&gt;Node33</title>
<path fill="none" stroke="midnightblue" d="M407.59,-246.39C405.97,-229.43 401.55,-200.56 389.5,-179 366.24,-137.37 322.96,-100.95 297.24,-81.65"/>
<polygon fill="midnightblue" stroke="midnightblue" points="299.07,-78.65 288.94,-75.55 294.93,-84.29 299.07,-78.65"/>
</g>
<!-- Node39 -->
<g id="node39" class="node">
<title>Node39</title>
<g id="a_node39"><a xlink:href="_accept_event_receiver_8h.html" target="_top" xlink:title=" ">
<polygon fill="white" stroke="black" points="379,-56.5 379,-75.5 498,-75.5 498,-56.5 379,-56.5"/>
<text text-anchor="middle" x="438.5" y="-63.5" font-family="Helvetica,sans-Serif" font-size="10.00">AcceptEventReceiver.h</text>
</a>
</g>
</g>
<!-- Node38&#45;&gt;Node39 -->
<g id="edge48" class="edge">
<title>Node38&#45;&gt;Node39</title>
<path fill="none" stroke="midnightblue" d="M413.03,-246.49C416.12,-236.44 420.08,-222.51 422.5,-210 431,-166 435.45,-113.46 437.34,-85.94"/>
<polygon fill="midnightblue" stroke="midnightblue" points="440.85,-85.98 438.01,-75.78 433.86,-85.53 440.85,-85.98"/>
</g>
<!-- Node39&#45;&gt;Node34 -->
<g id="edge49" class="edge">
<title>Node39&#45;&gt;Node34</title>
<path fill="none" stroke="midnightblue" d="M412.83,-56.44C385.58,-47.36 342.32,-32.94 311.85,-22.78"/>
<polygon fill="midnightblue" stroke="midnightblue" points="312.64,-19.36 302.05,-19.52 310.43,-26 312.64,-19.36"/>
</g>
<!-- Node40&#45;&gt;Node38 -->
<g id="edge53" class="edge">
<title>Node40&#45;&gt;Node38</title>
<path fill="none" stroke="midnightblue" d="M330.2,-313.4C344.22,-304.28 362.67,-292.29 378.14,-282.24"/>
<polygon fill="midnightblue" stroke="midnightblue" points="380.37,-284.96 386.84,-276.58 376.55,-279.09 380.37,-284.96"/>
</g>
<!-- Node41&#45;&gt;Node21 -->
<g id="edge55" class="edge">
<title>Node41&#45;&gt;Node21</title>
<path fill="none" stroke="midnightblue" d="M502.16,-447.4C516.23,-436.76 535.49,-422.2 549.81,-411.38"/>
<polygon fill="midnightblue" stroke="midnightblue" points="552.13,-414.02 558,-405.19 547.91,-408.43 552.13,-414.02"/>
</g>
<!-- Node41&#45;&gt;Node27 -->
<g id="edge61" class="edge">
<title>Node41&#45;&gt;Node27</title>
<path fill="none" stroke="midnightblue" d="M445.53,-447.4C419.27,-437.64 384.14,-424.59 356.02,-414.15"/>
<polygon fill="midnightblue" stroke="midnightblue" points="356.99,-410.78 346.4,-410.58 354.55,-417.34 356.99,-410.78"/>
</g>
<!-- Node42 -->
<g id="node42" class="node">
<title>Node42</title>
<g id="a_node42"><a xlink:href="ip_2tcp_2ipv6_2_socket_8h.html" target="_top" xlink:title=" ">
<polygon fill="white" stroke="black" points="385.5,-380.5 385.5,-410.5 479.5,-410.5 479.5,-380.5 385.5,-380.5"/>
<text text-anchor="start" x="393.5" y="-398.5" font-family="Helvetica,sans-Serif" font-size="10.00">socket/ip/tcp/ipv6</text>
<text text-anchor="middle" x="432.5" y="-387.5" font-family="Helvetica,sans-Serif" font-size="10.00">/Socket.h</text>
</a>
</g>
</g>
<!-- Node41&#45;&gt;Node42 -->
<g id="edge56" class="edge">
<title>Node41&#45;&gt;Node42</title>
<path fill="none" stroke="midnightblue" d="M472.43,-447.4C465.82,-438.96 457.27,-428.07 449.78,-418.52"/>
<polygon fill="midnightblue" stroke="midnightblue" points="452.47,-416.28 443.54,-410.58 446.96,-420.6 452.47,-416.28"/>
</g>
<!-- Node42&#45;&gt;Node23 -->
<g id="edge57" class="edge">
<title>Node42&#45;&gt;Node23</title>
<path fill="none" stroke="midnightblue" d="M421.49,-380.32C409.52,-363.03 393.91,-333.58 408.5,-313 420.32,-296.34 470.15,-281.42 507.92,-272.2"/>
<polygon fill="midnightblue" stroke="midnightblue" points="508.8,-275.59 517.71,-269.86 507.18,-268.78 508.8,-275.59"/>
</g>
<!-- Node42&#45;&gt;Node24 -->
<g id="edge58" class="edge">
<title>Node42&#45;&gt;Node24</title>
<path fill="none" stroke="midnightblue" d="M476.11,-380.4C512.47,-368.64 563.65,-352.09 597.66,-341.09"/>
<polygon fill="midnightblue" stroke="midnightblue" points="598.76,-344.41 607.19,-338.01 596.6,-337.75 598.76,-344.41"/>
</g>
<!-- Node43 -->
<g id="node43" class="node">
<title>Node43</title>
<g id="a_node43"><a xlink:href="ipv6_2_inet_address_8h.html" target="_top" xlink:title=" ">
<polygon fill="white" stroke="black" points="418,-313.5 418,-343.5 533,-343.5 533,-313.5 418,-313.5"/>
<text text-anchor="start" x="426" y="-331.5" font-family="Helvetica,sans-Serif" font-size="10.00">socket/ip/address/ipv6</text>
<text text-anchor="middle" x="475.5" y="-320.5" font-family="Helvetica,sans-Serif" font-size="10.00">/InetAddress.h</text>
</a>
</g>
</g>
<!-- Node42&#45;&gt;Node43 -->
<g id="edge59" class="edge">
<title>Node42&#45;&gt;Node43</title>
<path fill="none" stroke="midnightblue" d="M441.83,-380.4C447.3,-372.13 454.33,-361.51 460.55,-352.1"/>
<polygon fill="midnightblue" stroke="midnightblue" points="463.59,-353.85 466.19,-343.58 457.75,-349.99 463.59,-353.85"/>
</g>
<!-- Node43&#45;&gt;Node25 -->
<g id="edge60" class="edge">
<title>Node43&#45;&gt;Node25</title>
<path fill="none" stroke="midnightblue" d="M517.16,-313.4C551.74,-301.69 600.36,-285.23 632.84,-274.23"/>
<polygon fill="midnightblue" stroke="midnightblue" points="634.02,-277.53 642.37,-271.01 631.78,-270.9 634.02,-277.53"/>
</g>
</g>
</svg>
