<?xml version="1.0" encoding="UTF-8" standalone="no"?>
<!DOCTYPE svg PUBLIC "-//W3C//DTD SVG 1.1//EN"
 "http://www.w3.org/Graphics/SVG/1.1/DTD/svg11.dtd">
<!-- Generated by graphviz version 2.43.0 (0)
 -->
<!-- Title: web/http/client/legacy/Client.h Pages: 1 -->
<svg width="1591pt" height="564pt"
 viewBox="0.00 0.00 1591.00 564.00" xmlns="http://www.w3.org/2000/svg" xmlns:xlink="http://www.w3.org/1999/xlink">
<g id="graph0" class="graph" transform="scale(1 1) rotate(0) translate(4 560)">
<title>web/http/client/legacy/Client.h</title>
<polygon fill="white" stroke="transparent" points="-4,4 -4,-560 1587,-560 1587,4 -4,4"/>
<!-- Node1 -->
<g id="node1" class="node">
<title>Node1</title>
<g id="a_node1"><a xlink:title=" ">
<polygon fill="#bfbfbf" stroke="black" points="387,-525.5 387,-555.5 499,-555.5 499,-525.5 387,-525.5"/>
<text text-anchor="start" x="395" y="-543.5" font-family="Helvetica,sans-Serif" font-size="10.00">web/http/client/legacy</text>
<text text-anchor="middle" x="443" y="-532.5" font-family="Helvetica,sans-Serif" font-size="10.00">/Client.h</text>
</a>
</g>
</g>
<!-- Node2 -->
<g id="node2" class="node">
<title>Node2</title>
<g id="a_node2"><a xlink:href="ip_2tcp_2ipv4_2legacy_2_socket_client_8h.html" target="_top" xlink:title=" ">
<polygon fill="white" stroke="black" points="251,-458.5 251,-488.5 367,-488.5 367,-458.5 251,-458.5"/>
<text text-anchor="start" x="259" y="-476.5" font-family="Helvetica,sans-Serif" font-size="10.00">net/socket/ip/tcp/ipv4</text>
<text text-anchor="middle" x="309" y="-465.5" font-family="Helvetica,sans-Serif" font-size="10.00">/legacy/SocketClient.h</text>
</a>
</g>
</g>
<!-- Node1&#45;&gt;Node2 -->
<g id="edge1" class="edge">
<title>Node1&#45;&gt;Node2</title>
<path fill="none" stroke="midnightblue" d="M413.92,-525.4C394.35,-515.9 368.32,-503.28 347.09,-492.98"/>
<polygon fill="midnightblue" stroke="midnightblue" points="348.54,-489.79 338.02,-488.58 345.49,-496.09 348.54,-489.79"/>
</g>
<!-- Node27 -->
<g id="node27" class="node">
<title>Node27</title>
<g id="a_node27"><a xlink:href="ip_2tcp_2ipv6_2legacy_2_socket_client_8h.html" target="_top" xlink:title=" ">
<polygon fill="white" stroke="black" points="385,-458.5 385,-488.5 501,-488.5 501,-458.5 385,-458.5"/>
<text text-anchor="start" x="393" y="-476.5" font-family="Helvetica,sans-Serif" font-size="10.00">net/socket/ip/tcp/ipv6</text>
<text text-anchor="middle" x="443" y="-465.5" font-family="Helvetica,sans-Serif" font-size="10.00">/legacy/SocketClient.h</text>
</a>
</g>
</g>
<!-- Node1&#45;&gt;Node27 -->
<g id="edge37" class="edge">
<title>Node1&#45;&gt;Node27</title>
<path fill="none" stroke="midnightblue" d="M443,-525.4C443,-517.64 443,-507.81 443,-498.86"/>
<polygon fill="midnightblue" stroke="midnightblue" points="446.5,-498.58 443,-488.58 439.5,-498.58 446.5,-498.58"/>
</g>
<!-- Node30 -->
<g id="node30" class="node">
<title>Node30</title>
<g id="a_node30"><a xlink:href="_client_8h.html" target="_top" xlink:title=" ">
<polygon fill="white" stroke="black" points="984.5,-263 984.5,-282 1101.5,-282 1101.5,-263 984.5,-263"/>
<text text-anchor="middle" x="1043" y="-270" font-family="Helvetica,sans-Serif" font-size="10.00">web/http/client/Client.h</text>
</a>
</g>
</g>
<!-- Node1&#45;&gt;Node30 -->
<g id="edge43" class="edge">
<title>Node1&#45;&gt;Node30</title>
<path fill="none" stroke="midnightblue" d="M474.83,-525.39C579.87,-478.82 914.43,-330.5 1014.48,-286.15"/>
<polygon fill="midnightblue" stroke="midnightblue" points="1015.95,-289.32 1023.67,-282.07 1013.11,-282.92 1015.95,-289.32"/>
</g>
<!-- Node3 -->
<g id="node3" class="node">
<title>Node3</title>
<g id="a_node3"><a xlink:href="socket_2ip_2tcp_2ipv4_2_socket_8h.html" target="_top" xlink:title=" ">
<polygon fill="white" stroke="black" points="122,-257.5 122,-287.5 232,-287.5 232,-257.5 122,-257.5"/>
<text text-anchor="start" x="130" y="-275.5" font-family="Helvetica,sans-Serif" font-size="10.00">net/socket/ip/tcp/ipv4</text>
<text text-anchor="middle" x="177" y="-264.5" font-family="Helvetica,sans-Serif" font-size="10.00">/Socket.h</text>
</a>
</g>
</g>
<!-- Node2&#45;&gt;Node3 -->
<g id="edge2" class="edge">
<title>Node2&#45;&gt;Node3</title>
<path fill="none" stroke="midnightblue" d="M299.51,-458.19C276.86,-424.05 219.54,-337.63 192.09,-296.25"/>
<polygon fill="midnightblue" stroke="midnightblue" points="194.85,-294.08 186.41,-287.68 189.02,-297.95 194.85,-294.08"/>
</g>
<!-- Node9 -->
<g id="node9" class="node">
<title>Node9</title>
<g id="a_node9"><a xlink:href="stream_2legacy_2_socket_client_8h.html" target="_top" xlink:title=" ">
<polygon fill="white" stroke="black" points="379.5,-391.5 379.5,-421.5 506.5,-421.5 506.5,-391.5 379.5,-391.5"/>
<text text-anchor="start" x="387.5" y="-409.5" font-family="Helvetica,sans-Serif" font-size="10.00">net/socket/stream/legacy</text>
<text text-anchor="middle" x="443" y="-398.5" font-family="Helvetica,sans-Serif" font-size="10.00">/SocketClient.h</text>
</a>
</g>
</g>
<!-- Node2&#45;&gt;Node9 -->
<g id="edge9" class="edge">
<title>Node2&#45;&gt;Node9</title>
<path fill="none" stroke="midnightblue" d="M338.08,-458.4C357.65,-448.9 383.68,-436.28 404.91,-425.98"/>
<polygon fill="midnightblue" stroke="midnightblue" points="406.51,-429.09 413.98,-421.58 403.46,-422.79 406.51,-429.09"/>
</g>
<!-- Node4 -->
<g id="node4" class="node">
<title>Node4</title>
<g id="a_node4"><a xlink:href="socket_2_socket_8h.html" target="_top" xlink:title=" ">
<polygon fill="white" stroke="black" points="128,-196 128,-215 232,-215 232,-196 128,-196"/>
<text text-anchor="middle" x="180" y="-203" font-family="Helvetica,sans-Serif" font-size="10.00">net/socket/Socket.h</text>
</a>
</g>
</g>
<!-- Node3&#45;&gt;Node4 -->
<g id="edge3" class="edge">
<title>Node3&#45;&gt;Node4</title>
<path fill="none" stroke="midnightblue" d="M177.65,-257.4C178.09,-247.96 178.66,-235.45 179.14,-225.19"/>
<polygon fill="midnightblue" stroke="midnightblue" points="182.63,-225.35 179.6,-215.19 175.64,-225.02 182.63,-225.35"/>
</g>
<!-- Node8 -->
<g id="node8" class="node">
<title>Node8</title>
<g id="a_node8"><a xlink:href="ipv4_2_inet_address_8h.html" target="_top" xlink:title=" ">
<polygon fill="white" stroke="black" points="0,-190.5 0,-220.5 110,-220.5 110,-190.5 0,-190.5"/>
<text text-anchor="start" x="8" y="-208.5" font-family="Helvetica,sans-Serif" font-size="10.00">net/socket/ip/address</text>
<text text-anchor="middle" x="55" y="-197.5" font-family="Helvetica,sans-Serif" font-size="10.00">/ipv4/InetAddress.h</text>
</a>
</g>
</g>
<!-- Node3&#45;&gt;Node8 -->
<g id="edge7" class="edge">
<title>Node3&#45;&gt;Node8</title>
<path fill="none" stroke="midnightblue" d="M150.53,-257.4C132.94,-248.03 109.65,-235.62 90.46,-225.39"/>
<polygon fill="midnightblue" stroke="midnightblue" points="91.89,-222.19 81.42,-220.58 88.6,-228.37 91.89,-222.19"/>
</g>
<!-- Node5 -->
<g id="node5" class="node">
<title>Node5</title>
<g id="a_node5"><a xlink:href="_descriptor_8h.html" target="_top" xlink:title=" ">
<polygon fill="white" stroke="black" points="18,-129 18,-148 104,-148 104,-129 18,-129"/>
<text text-anchor="middle" x="61" y="-136" font-family="Helvetica,sans-Serif" font-size="10.00">net/Descriptor.h</text>
</a>
</g>
</g>
<!-- Node4&#45;&gt;Node5 -->
<g id="edge4" class="edge">
<title>Node4&#45;&gt;Node5</title>
<path fill="none" stroke="midnightblue" d="M163.95,-195.73C143.88,-184.77 109.3,-165.88 85.81,-153.05"/>
<polygon fill="midnightblue" stroke="midnightblue" points="87.25,-149.85 76.79,-148.13 83.89,-155.99 87.25,-149.85"/>
</g>
<!-- Node6 -->
<g id="node6" class="node">
<title>Node6</title>
<g id="a_node6"><a xlink:href="_socket_address_8h.html" target="_top" xlink:title=" ">
<polygon fill="white" stroke="black" points="122,-129 122,-148 262,-148 262,-129 122,-129"/>
<text text-anchor="middle" x="192" y="-136" font-family="Helvetica,sans-Serif" font-size="10.00">net/socket/SocketAddress.h</text>
</a>
</g>
</g>
<!-- Node4&#45;&gt;Node6 -->
<g id="edge5" class="edge">
<title>Node4&#45;&gt;Node6</title>
<path fill="none" stroke="midnightblue" d="M181.62,-195.73C183.38,-186.18 186.26,-170.62 188.53,-158.28"/>
<polygon fill="midnightblue" stroke="midnightblue" points="192.03,-158.6 190.41,-148.13 185.15,-157.33 192.03,-158.6"/>
</g>
<!-- Node7 -->
<g id="node7" class="node">
<title>Node7</title>
<g id="a_node7"><a xlink:href="system_2_socket_8h.html" target="_top" xlink:title=" ">
<polygon fill="white" stroke="black" points="292,-129 292,-148 398,-148 398,-129 292,-129"/>
<text text-anchor="middle" x="345" y="-136" font-family="Helvetica,sans-Serif" font-size="10.00">net/system/socket.h</text>
</a>
</g>
</g>
<!-- Node4&#45;&gt;Node7 -->
<g id="edge6" class="edge">
<title>Node4&#45;&gt;Node7</title>
<path fill="none" stroke="midnightblue" d="M201.91,-195.87C230.59,-184.57 281.04,-164.7 313.73,-151.82"/>
<polygon fill="midnightblue" stroke="midnightblue" points="315.24,-154.99 323.26,-148.06 312.67,-148.47 315.24,-154.99"/>
</g>
<!-- Node8&#45;&gt;Node6 -->
<g id="edge8" class="edge">
<title>Node8&#45;&gt;Node6</title>
<path fill="none" stroke="midnightblue" d="M84.73,-190.4C108.55,-179.09 141.71,-163.36 164.83,-152.39"/>
<polygon fill="midnightblue" stroke="midnightblue" points="166.54,-155.46 174.07,-148.01 163.53,-149.13 166.54,-155.46"/>
</g>
<!-- Node10 -->
<g id="node10" class="node">
<title>Node10</title>
<g id="a_node10"><a xlink:href="stream_2_socket_client_8h.html" target="_top" xlink:title=" ">
<polygon fill="white" stroke="black" points="524.5,-324.5 524.5,-354.5 653.5,-354.5 653.5,-324.5 524.5,-324.5"/>
<text text-anchor="start" x="532.5" y="-342.5" font-family="Helvetica,sans-Serif" font-size="10.00">net/socket/stream/Socket</text>
<text text-anchor="middle" x="589" y="-331.5" font-family="Helvetica,sans-Serif" font-size="10.00">Client.h</text>
</a>
</g>
</g>
<!-- Node9&#45;&gt;Node10 -->
<g id="edge10" class="edge">
<title>Node9&#45;&gt;Node10</title>
<path fill="none" stroke="midnightblue" d="M474.68,-391.4C496.2,-381.81 524.87,-369.05 548.12,-358.7"/>
<polygon fill="midnightblue" stroke="midnightblue" points="549.67,-361.84 557.38,-354.58 546.82,-355.45 549.67,-361.84"/>
</g>
<!-- Node15 -->
<g id="node15" class="node">
<title>Node15</title>
<g id="a_node15"><a xlink:href="legacy_2_socket_connector_8h.html" target="_top" xlink:title=" ">
<polygon fill="white" stroke="black" points="379.5,-324.5 379.5,-354.5 506.5,-354.5 506.5,-324.5 379.5,-324.5"/>
<text text-anchor="start" x="387.5" y="-342.5" font-family="Helvetica,sans-Serif" font-size="10.00">net/socket/stream/legacy</text>
<text text-anchor="middle" x="443" y="-331.5" font-family="Helvetica,sans-Serif" font-size="10.00">/SocketConnector.h</text>
</a>
</g>
</g>
<!-- Node9&#45;&gt;Node15 -->
<g id="edge18" class="edge">
<title>Node9&#45;&gt;Node15</title>
<path fill="none" stroke="midnightblue" d="M443,-391.4C443,-383.64 443,-373.81 443,-364.86"/>
<polygon fill="midnightblue" stroke="midnightblue" points="446.5,-364.58 443,-354.58 439.5,-364.58 446.5,-364.58"/>
</g>
<!-- Node11 -->
<g id="node11" class="node">
<title>Node11</title>
<g id="a_node11"><a xlink:href="_socket_connector_8h.html" target="_top" xlink:title=" ">
<polygon fill="white" stroke="black" points="378.5,-257.5 378.5,-287.5 507.5,-287.5 507.5,-257.5 378.5,-257.5"/>
<text text-anchor="start" x="386.5" y="-275.5" font-family="Helvetica,sans-Serif" font-size="10.00">net/socket/stream/Socket</text>
<text text-anchor="middle" x="443" y="-264.5" font-family="Helvetica,sans-Serif" font-size="10.00">Connector.h</text>
</a>
</g>
</g>
<!-- Node10&#45;&gt;Node11 -->
<g id="edge11" class="edge">
<title>Node10&#45;&gt;Node11</title>
<path fill="none" stroke="midnightblue" d="M557.32,-324.4C535.8,-314.81 507.13,-302.05 483.88,-291.7"/>
<polygon fill="midnightblue" stroke="midnightblue" points="485.18,-288.45 474.62,-287.58 482.33,-294.84 485.18,-288.45"/>
</g>
<!-- Node14 -->
<g id="node14" class="node">
<title>Node14</title>
<g id="a_node14"><a xlink:href="net_2socket_2stream_2_socket_context_factory_8h.html" target="_top" xlink:title=" ">
<polygon fill="white" stroke="black" points="787.5,-123.5 787.5,-153.5 916.5,-153.5 916.5,-123.5 787.5,-123.5"/>
<text text-anchor="start" x="795.5" y="-141.5" font-family="Helvetica,sans-Serif" font-size="10.00">net/socket/stream/Socket</text>
<text text-anchor="middle" x="852" y="-130.5" font-family="Helvetica,sans-Serif" font-size="10.00">ContextFactory.h</text>
</a>
</g>
</g>
<!-- Node10&#45;&gt;Node14 -->
<g id="edge17" class="edge">
<title>Node10&#45;&gt;Node14</title>
<path fill="none" stroke="midnightblue" d="M653.7,-336.63C732.08,-330.46 861.18,-306.95 922,-221 929.96,-209.75 928.28,-202.27 922,-190 915.41,-177.12 903.83,-166.77 891.97,-158.88"/>
<polygon fill="midnightblue" stroke="midnightblue" points="893.69,-155.83 883.34,-153.56 890.02,-161.79 893.69,-155.83"/>
</g>
<!-- Node11&#45;&gt;Node4 -->
<g id="edge14" class="edge">
<title>Node11&#45;&gt;Node4</title>
<path fill="none" stroke="midnightblue" d="M386.26,-257.48C337.78,-245.5 269.02,-228.5 224.46,-217.49"/>
<polygon fill="midnightblue" stroke="midnightblue" points="225.06,-214.03 214.51,-215.03 223.38,-220.83 225.06,-214.03"/>
</g>
<!-- Node11&#45;&gt;Node7 -->
<g id="edge16" class="edge">
<title>Node11&#45;&gt;Node7</title>
<path fill="none" stroke="midnightblue" d="M432.51,-257.37C414.31,-232.86 376.97,-182.56 357.47,-156.3"/>
<polygon fill="midnightblue" stroke="midnightblue" points="360.15,-154.04 351.38,-148.1 354.53,-158.21 360.15,-154.04"/>
</g>
<!-- Node12 -->
<g id="node12" class="node">
<title>Node12</title>
<g id="a_node12"><a xlink:href="_connect_event_receiver_8h.html" target="_top" xlink:title=" ">
<polygon fill="white" stroke="black" points="295,-62 295,-81 437,-81 437,-62 295,-62"/>
<text text-anchor="middle" x="366" y="-69" font-family="Helvetica,sans-Serif" font-size="10.00">net/ConnectEventReceiver.h</text>
</a>
</g>
</g>
<!-- Node11&#45;&gt;Node12 -->
<g id="edge12" class="edge">
<title>Node11&#45;&gt;Node12</title>
<path fill="none" stroke="midnightblue" d="M441.66,-257.28C438.65,-229.98 429.72,-168.88 407,-123 400.72,-110.32 390.77,-97.96 382.24,-88.63"/>
<polygon fill="midnightblue" stroke="midnightblue" points="384.67,-86.12 375.24,-81.3 379.61,-90.95 384.67,-86.12"/>
</g>
<!-- Node11&#45;&gt;Node14 -->
<g id="edge15" class="edge">
<title>Node11&#45;&gt;Node14</title>
<path fill="none" stroke="midnightblue" d="M507.62,-262.1C587.51,-250.21 715.51,-230.18 736,-221 756.21,-211.95 757.06,-202.97 775,-190 789.8,-179.3 806.74,-168.08 820.95,-158.95"/>
<polygon fill="midnightblue" stroke="midnightblue" points="822.85,-161.89 829.4,-153.56 819.09,-155.99 822.85,-161.89"/>
</g>
<!-- Node13 -->
<g id="node13" class="node">
<title>Node13</title>
<g id="a_node13"><a xlink:href="_descriptor_event_receiver_8h.html" target="_top" xlink:title=" ">
<polygon fill="white" stroke="black" points="444,-0.5 444,-19.5 594,-19.5 594,-0.5 444,-0.5"/>
<text text-anchor="middle" x="519" y="-7.5" font-family="Helvetica,sans-Serif" font-size="10.00">net/DescriptorEventReceiver.h</text>
</a>
</g>
</g>
<!-- Node12&#45;&gt;Node13 -->
<g id="edge13" class="edge">
<title>Node12&#45;&gt;Node13</title>
<path fill="none" stroke="midnightblue" d="M387.92,-61.98C414.05,-51.81 457.91,-34.76 487.63,-23.2"/>
<polygon fill="midnightblue" stroke="midnightblue" points="489.07,-26.4 497.12,-19.51 486.53,-19.87 489.07,-26.4"/>
</g>
<!-- Node15&#45;&gt;Node11 -->
<g id="edge19" class="edge">
<title>Node15&#45;&gt;Node11</title>
<path fill="none" stroke="midnightblue" d="M443,-324.4C443,-316.64 443,-306.81 443,-297.86"/>
<polygon fill="midnightblue" stroke="midnightblue" points="446.5,-297.58 443,-287.58 439.5,-297.58 446.5,-297.58"/>
</g>
<!-- Node16 -->
<g id="node16" class="node">
<title>Node16</title>
<g id="a_node16"><a xlink:href="legacy_2_socket_connection_8h.html" target="_top" xlink:title=" ">
<polygon fill="white" stroke="black" points="562.5,-257.5 562.5,-287.5 689.5,-287.5 689.5,-257.5 562.5,-257.5"/>
<text text-anchor="start" x="570.5" y="-275.5" font-family="Helvetica,sans-Serif" font-size="10.00">net/socket/stream/legacy</text>
<text text-anchor="middle" x="626" y="-264.5" font-family="Helvetica,sans-Serif" font-size="10.00">/SocketConnection.h</text>
</a>
</g>
</g>
<!-- Node15&#45;&gt;Node16 -->
<g id="edge20" class="edge">
<title>Node15&#45;&gt;Node16</title>
<path fill="none" stroke="midnightblue" d="M482.71,-324.4C510.29,-314.6 547.22,-301.48 576.69,-291.02"/>
<polygon fill="midnightblue" stroke="midnightblue" points="578.12,-294.22 586.37,-287.58 575.77,-287.63 578.12,-294.22"/>
</g>
<!-- Node17 -->
<g id="node17" class="node">
<title>Node17</title>
<g id="a_node17"><a xlink:href="_socket_connection_8h.html" target="_top" xlink:title=" ">
<polygon fill="white" stroke="black" points="783.5,-190.5 783.5,-220.5 912.5,-220.5 912.5,-190.5 783.5,-190.5"/>
<text text-anchor="start" x="791.5" y="-208.5" font-family="Helvetica,sans-Serif" font-size="10.00">net/socket/stream/Socket</text>
<text text-anchor="middle" x="848" y="-197.5" font-family="Helvetica,sans-Serif" font-size="10.00">Connection.h</text>
</a>
</g>
</g>
<!-- Node16&#45;&gt;Node17 -->
<g id="edge21" class="edge">
<title>Node16&#45;&gt;Node17</title>
<path fill="none" stroke="midnightblue" d="M673.9,-257.48C707.92,-247.51 753.78,-234.09 789.9,-223.51"/>
<polygon fill="midnightblue" stroke="midnightblue" points="791.19,-226.78 799.81,-220.61 789.23,-220.06 791.19,-226.78"/>
</g>
<!-- Node21 -->
<g id="node21" class="node">
<title>Node21</title>
<g id="a_node21"><a xlink:href="legacy_2_socket_reader_8h.html" target="_top" xlink:title=" ">
<polygon fill="white" stroke="black" points="454.5,-190.5 454.5,-220.5 581.5,-220.5 581.5,-190.5 454.5,-190.5"/>
<text text-anchor="start" x="462.5" y="-208.5" font-family="Helvetica,sans-Serif" font-size="10.00">net/socket/stream/legacy</text>
<text text-anchor="middle" x="518" y="-197.5" font-family="Helvetica,sans-Serif" font-size="10.00">/SocketReader.h</text>
</a>
</g>
</g>
<!-- Node16&#45;&gt;Node21 -->
<g id="edge26" class="edge">
<title>Node16&#45;&gt;Node21</title>
<path fill="none" stroke="midnightblue" d="M602.57,-257.4C587.28,-248.2 567.12,-236.07 550.32,-225.95"/>
<polygon fill="midnightblue" stroke="midnightblue" points="551.76,-222.73 541.39,-220.58 548.15,-228.73 551.76,-222.73"/>
</g>
<!-- Node24 -->
<g id="node24" class="node">
<title>Node24</title>
<g id="a_node24"><a xlink:href="legacy_2_socket_writer_8h.html" target="_top" xlink:title=" ">
<polygon fill="white" stroke="black" points="599.5,-190.5 599.5,-220.5 726.5,-220.5 726.5,-190.5 599.5,-190.5"/>
<text text-anchor="start" x="607.5" y="-208.5" font-family="Helvetica,sans-Serif" font-size="10.00">net/socket/stream/legacy</text>
<text text-anchor="middle" x="663" y="-197.5" font-family="Helvetica,sans-Serif" font-size="10.00">/SocketWriter.h</text>
</a>
</g>
</g>
<!-- Node16&#45;&gt;Node24 -->
<g id="edge31" class="edge">
<title>Node16&#45;&gt;Node24</title>
<path fill="none" stroke="midnightblue" d="M634.03,-257.4C638.68,-249.22 644.66,-238.73 649.97,-229.39"/>
<polygon fill="midnightblue" stroke="midnightblue" points="653.08,-231 654.99,-220.58 647,-227.54 653.08,-231"/>
</g>
<!-- Node17&#45;&gt;Node14 -->
<g id="edge25" class="edge">
<title>Node17&#45;&gt;Node14</title>
<path fill="none" stroke="midnightblue" d="M848.87,-190.4C849.35,-182.56 849.96,-172.6 850.52,-163.57"/>
<polygon fill="midnightblue" stroke="midnightblue" points="854.01,-163.77 851.13,-153.58 847.03,-163.34 854.01,-163.77"/>
</g>
<!-- Node18 -->
<g id="node18" class="node">
<title>Node18</title>
<g id="a_node18"><a xlink:href="_logger_8h.html" target="_top" xlink:title=" ">
<polygon fill="white" stroke="black" points="747.5,-62 747.5,-81 816.5,-81 816.5,-62 747.5,-62"/>
<text text-anchor="middle" x="782" y="-69" font-family="Helvetica,sans-Serif" font-size="10.00">log/Logger.h</text>
</a>
</g>
</g>
<!-- Node17&#45;&gt;Node18 -->
<g id="edge22" class="edge">
<title>Node17&#45;&gt;Node18</title>
<path fill="none" stroke="midnightblue" d="M817.09,-190.34C802.72,-181.98 787.06,-169.89 779,-154 769.02,-134.32 772.3,-108.39 776.4,-91.12"/>
<polygon fill="midnightblue" stroke="midnightblue" points="779.86,-91.74 779.08,-81.17 773.1,-89.92 779.86,-91.74"/>
</g>
<!-- Node19 -->
<g id="node19" class="node">
<title>Node19</title>
<g id="a_node19"><a xlink:href="_socket_connection_base_8h.html" target="_top" xlink:title=" ">
<polygon fill="white" stroke="black" points="1011.5,-123.5 1011.5,-153.5 1140.5,-153.5 1140.5,-123.5 1011.5,-123.5"/>
<text text-anchor="start" x="1019.5" y="-141.5" font-family="Helvetica,sans-Serif" font-size="10.00">net/socket/stream/Socket</text>
<text text-anchor="middle" x="1076" y="-130.5" font-family="Helvetica,sans-Serif" font-size="10.00">ConnectionBase.h</text>
</a>
</g>
</g>
<!-- Node17&#45;&gt;Node19 -->
<g id="edge23" class="edge">
<title>Node17&#45;&gt;Node19</title>
<path fill="none" stroke="midnightblue" d="M897.19,-190.48C932.28,-180.47 979.64,-166.97 1016.8,-156.38"/>
<polygon fill="midnightblue" stroke="midnightblue" points="1017.85,-159.72 1026.5,-153.61 1015.93,-152.99 1017.85,-159.72"/>
</g>
<!-- Node20 -->
<g id="node20" class="node">
<title>Node20</title>
<g id="a_node20"><a xlink:href="net_2socket_2stream_2_socket_context_8h.html" target="_top" xlink:title=" ">
<polygon fill="white" stroke="black" points="935.5,-56.5 935.5,-86.5 1064.5,-86.5 1064.5,-56.5 935.5,-56.5"/>
<text text-anchor="start" x="943.5" y="-74.5" font-family="Helvetica,sans-Serif" font-size="10.00">net/socket/stream/Socket</text>
<text text-anchor="middle" x="1000" y="-63.5" font-family="Helvetica,sans-Serif" font-size="10.00">Context.h</text>
</a>
</g>
</g>
<!-- Node17&#45;&gt;Node20 -->
<g id="edge24" class="edge">
<title>Node17&#45;&gt;Node20</title>
<path fill="none" stroke="midnightblue" d="M873.39,-190.35C889.23,-180.98 909.65,-167.89 926,-154 947.28,-135.93 968.37,-111.94 982.56,-94.67"/>
<polygon fill="midnightblue" stroke="midnightblue" points="985.37,-96.77 988.94,-86.79 979.93,-92.36 985.37,-96.77"/>
</g>
<!-- Node21&#45;&gt;Node7 -->
<g id="edge30" class="edge">
<title>Node21&#45;&gt;Node7</title>
<path fill="none" stroke="midnightblue" d="M480.46,-190.4C449.7,-178.84 406.63,-162.66 377.37,-151.66"/>
<polygon fill="midnightblue" stroke="midnightblue" points="378.23,-148.25 367.64,-148.01 375.77,-154.8 378.23,-148.25"/>
</g>
<!-- Node22 -->
<g id="node22" class="node">
<title>Node22</title>
<g id="a_node22"><a xlink:href="_socket_reader_8h.html" target="_top" xlink:title=" ">
<polygon fill="white" stroke="black" points="454.5,-123.5 454.5,-153.5 583.5,-153.5 583.5,-123.5 454.5,-123.5"/>
<text text-anchor="start" x="462.5" y="-141.5" font-family="Helvetica,sans-Serif" font-size="10.00">net/socket/stream/Socket</text>
<text text-anchor="middle" x="519" y="-130.5" font-family="Helvetica,sans-Serif" font-size="10.00">Reader.h</text>
</a>
</g>
</g>
<!-- Node21&#45;&gt;Node22 -->
<g id="edge27" class="edge">
<title>Node21&#45;&gt;Node22</title>
<path fill="none" stroke="midnightblue" d="M518.22,-190.4C518.34,-182.64 518.49,-172.81 518.63,-163.86"/>
<polygon fill="midnightblue" stroke="midnightblue" points="522.13,-163.63 518.78,-153.58 515.13,-163.52 522.13,-163.63"/>
</g>
<!-- Node23 -->
<g id="node23" class="node">
<title>Node23</title>
<g id="a_node23"><a xlink:href="_read_event_receiver_8h.html" target="_top" xlink:title=" ">
<polygon fill="white" stroke="black" points="455,-62 455,-81 583,-81 583,-62 455,-62"/>
<text text-anchor="middle" x="519" y="-69" font-family="Helvetica,sans-Serif" font-size="10.00">net/ReadEventReceiver.h</text>
</a>
</g>
</g>
<!-- Node22&#45;&gt;Node23 -->
<g id="edge28" class="edge">
<title>Node22&#45;&gt;Node23</title>
<path fill="none" stroke="midnightblue" d="M519,-123.4C519,-114.06 519,-101.71 519,-91.52"/>
<polygon fill="midnightblue" stroke="midnightblue" points="522.5,-91.19 519,-81.19 515.5,-91.19 522.5,-91.19"/>
</g>
<!-- Node23&#45;&gt;Node13 -->
<g id="edge29" class="edge">
<title>Node23&#45;&gt;Node13</title>
<path fill="none" stroke="midnightblue" d="M519,-61.98C519,-53.58 519,-40.48 519,-29.66"/>
<polygon fill="midnightblue" stroke="midnightblue" points="522.5,-29.51 519,-19.51 515.5,-29.51 522.5,-29.51"/>
</g>
<!-- Node24&#45;&gt;Node7 -->
<g id="edge36" class="edge">
<title>Node24&#45;&gt;Node7</title>
<path fill="none" stroke="midnightblue" d="M599.41,-191.5C539.86,-179.33 451.98,-161.37 396.64,-150.06"/>
<polygon fill="midnightblue" stroke="midnightblue" points="397.2,-146.6 386.7,-148.02 395.8,-153.46 397.2,-146.6"/>
</g>
<!-- Node25 -->
<g id="node25" class="node">
<title>Node25</title>
<g id="a_node25"><a xlink:href="_socket_writer_8h.html" target="_top" xlink:title=" ">
<polygon fill="white" stroke="black" points="601.5,-123.5 601.5,-153.5 730.5,-153.5 730.5,-123.5 601.5,-123.5"/>
<text text-anchor="start" x="609.5" y="-141.5" font-family="Helvetica,sans-Serif" font-size="10.00">net/socket/stream/Socket</text>
<text text-anchor="middle" x="666" y="-130.5" font-family="Helvetica,sans-Serif" font-size="10.00">Writer.h</text>
</a>
</g>
</g>
<!-- Node24&#45;&gt;Node25 -->
<g id="edge32" class="edge">
<title>Node24&#45;&gt;Node25</title>
<path fill="none" stroke="midnightblue" d="M663.65,-190.4C664.01,-182.64 664.46,-172.81 664.88,-163.86"/>
<polygon fill="midnightblue" stroke="midnightblue" points="668.39,-163.73 665.35,-153.58 661.39,-163.4 668.39,-163.73"/>
</g>
<!-- Node25&#45;&gt;Node18 -->
<g id="edge33" class="edge">
<title>Node25&#45;&gt;Node18</title>
<path fill="none" stroke="midnightblue" d="M691.17,-123.4C710.98,-112.29 738.42,-96.92 757.94,-85.98"/>
<polygon fill="midnightblue" stroke="midnightblue" points="759.81,-88.95 766.82,-81.01 756.38,-82.84 759.81,-88.95"/>
</g>
<!-- Node26 -->
<g id="node26" class="node">
<title>Node26</title>
<g id="a_node26"><a xlink:href="_write_event_receiver_8h.html" target="_top" xlink:title=" ">
<polygon fill="white" stroke="black" points="601,-62 601,-81 729,-81 729,-62 601,-62"/>
<text text-anchor="middle" x="665" y="-69" font-family="Helvetica,sans-Serif" font-size="10.00">net/WriteEventReceiver.h</text>
</a>
</g>
</g>
<!-- Node25&#45;&gt;Node26 -->
<g id="edge34" class="edge">
<title>Node25&#45;&gt;Node26</title>
<path fill="none" stroke="midnightblue" d="M665.78,-123.4C665.64,-114.06 665.45,-101.71 665.29,-91.52"/>
<polygon fill="midnightblue" stroke="midnightblue" points="668.79,-91.14 665.13,-81.19 661.79,-91.25 668.79,-91.14"/>
</g>
<!-- Node26&#45;&gt;Node13 -->
<g id="edge35" class="edge">
<title>Node26&#45;&gt;Node13</title>
<path fill="none" stroke="midnightblue" d="M644.08,-61.98C619.25,-51.86 577.66,-34.9 549.31,-23.35"/>
<polygon fill="midnightblue" stroke="midnightblue" points="550.46,-20.04 539.88,-19.51 547.82,-26.52 550.46,-20.04"/>
</g>
<!-- Node27&#45;&gt;Node9 -->
<g id="edge42" class="edge">
<title>Node27&#45;&gt;Node9</title>
<path fill="none" stroke="midnightblue" d="M443,-458.4C443,-450.64 443,-440.81 443,-431.86"/>
<polygon fill="midnightblue" stroke="midnightblue" points="446.5,-431.58 443,-421.58 439.5,-431.58 446.5,-431.58"/>
</g>
<!-- Node28 -->
<g id="node28" class="node">
<title>Node28</title>
<g id="a_node28"><a xlink:href="socket_2ip_2tcp_2ipv6_2_socket_8h.html" target="_top" xlink:title=" ">
<polygon fill="white" stroke="black" points="250,-257.5 250,-287.5 360,-287.5 360,-257.5 250,-257.5"/>
<text text-anchor="start" x="258" y="-275.5" font-family="Helvetica,sans-Serif" font-size="10.00">net/socket/ip/tcp/ipv6</text>
<text text-anchor="middle" x="305" y="-264.5" font-family="Helvetica,sans-Serif" font-size="10.00">/Socket.h</text>
</a>
</g>
</g>
<!-- Node27&#45;&gt;Node28 -->
<g id="edge38" class="edge">
<title>Node27&#45;&gt;Node28</title>
<path fill="none" stroke="midnightblue" d="M415.55,-458.46C400.51,-449.65 382.44,-437.11 370,-422 338.79,-384.11 319.93,-328.91 311.08,-297.58"/>
<polygon fill="midnightblue" stroke="midnightblue" points="314.36,-296.3 308.37,-287.56 307.61,-298.13 314.36,-296.3"/>
</g>
<!-- Node28&#45;&gt;Node4 -->
<g id="edge39" class="edge">
<title>Node28&#45;&gt;Node4</title>
<path fill="none" stroke="midnightblue" d="M277.88,-257.4C256.33,-246.19 226.43,-230.64 205.36,-219.69"/>
<polygon fill="midnightblue" stroke="midnightblue" points="206.85,-216.52 196.36,-215.01 203.62,-222.73 206.85,-216.52"/>
</g>
<!-- Node29 -->
<g id="node29" class="node">
<title>Node29</title>
<g id="a_node29"><a xlink:href="ipv6_2_inet_address_8h.html" target="_top" xlink:title=" ">
<polygon fill="white" stroke="black" points="250,-190.5 250,-220.5 360,-220.5 360,-190.5 250,-190.5"/>
<text text-anchor="start" x="258" y="-208.5" font-family="Helvetica,sans-Serif" font-size="10.00">net/socket/ip/address</text>
<text text-anchor="middle" x="305" y="-197.5" font-family="Helvetica,sans-Serif" font-size="10.00">/ipv6/InetAddress.h</text>
</a>
</g>
</g>
<!-- Node28&#45;&gt;Node29 -->
<g id="edge40" class="edge">
<title>Node28&#45;&gt;Node29</title>
<path fill="none" stroke="midnightblue" d="M305,-257.4C305,-249.64 305,-239.81 305,-230.86"/>
<polygon fill="midnightblue" stroke="midnightblue" points="308.5,-230.58 305,-220.58 301.5,-230.58 308.5,-230.58"/>
</g>
<!-- Node29&#45;&gt;Node6 -->
<g id="edge41" class="edge">
<title>Node29&#45;&gt;Node6</title>
<path fill="none" stroke="midnightblue" d="M280.48,-190.4C261.27,-179.34 234.7,-164.06 215.7,-153.13"/>
<polygon fill="midnightblue" stroke="midnightblue" points="217.2,-149.96 206.79,-148.01 213.71,-156.03 217.2,-149.96"/>
</g>
<!-- Node31 -->
<g id="node31" class="node">
<title>Node31</title>
<g id="a_node31"><a xlink:href="client_2_socket_context_8hpp.html" target="_top" xlink:title=" ">
<polygon fill="white" stroke="black" points="1135.5,-196 1135.5,-215 1302.5,-215 1302.5,-196 1135.5,-196"/>
<text text-anchor="middle" x="1219" y="-203" font-family="Helvetica,sans-Serif" font-size="10.00">web/http/client/SocketContext.hpp</text>
</a>
</g>
</g>
<!-- Node30&#45;&gt;Node31 -->
<g id="edge44" class="edge">
<title>Node30&#45;&gt;Node31</title>
<path fill="none" stroke="midnightblue" d="M1066.37,-262.87C1097.09,-251.52 1151.24,-231.52 1186.1,-218.65"/>
<polygon fill="midnightblue" stroke="midnightblue" points="1187.64,-221.81 1195.81,-215.06 1185.22,-215.24 1187.64,-221.81"/>
</g>
<!-- Node40 -->
<g id="node40" class="node">
<title>Node40</title>
<g id="a_node40"><a xlink:href="web_2http_2client_2_socket_context_factory_8h.html" target="_top" xlink:title=" ">
<polygon fill="white" stroke="black" points="968.5,-190.5 968.5,-220.5 1117.5,-220.5 1117.5,-190.5 968.5,-190.5"/>
<text text-anchor="start" x="976.5" y="-208.5" font-family="Helvetica,sans-Serif" font-size="10.00">web/http/client/SocketContext</text>
<text text-anchor="middle" x="1043" y="-197.5" font-family="Helvetica,sans-Serif" font-size="10.00">Factory.h</text>
</a>
</g>
</g>
<!-- Node30&#45;&gt;Node40 -->
<g id="edge57" class="edge">
<title>Node30&#45;&gt;Node40</title>
<path fill="none" stroke="midnightblue" d="M1043,-262.73C1043,-254.54 1043,-241.92 1043,-230.71"/>
<polygon fill="midnightblue" stroke="midnightblue" points="1046.5,-230.59 1043,-220.59 1039.5,-230.59 1046.5,-230.59"/>
</g>
<!-- Node31&#45;&gt;Node18 -->
<g id="edge45" class="edge">
<title>Node31&#45;&gt;Node18</title>
<path fill="none" stroke="midnightblue" d="M1173.36,-195.95C1129.26,-187.19 1060.83,-172.28 1003,-154 967.82,-142.88 960.53,-136 926,-123 889.07,-109.1 846.37,-94.28 817.11,-84.32"/>
<polygon fill="midnightblue" stroke="midnightblue" points="817.95,-80.9 807.36,-81 815.7,-87.53 817.95,-80.9"/>
</g>
<!-- Node31&#45;&gt;Node19 -->
<g id="edge46" class="edge">
<title>Node31&#45;&gt;Node19</title>
<path fill="none" stroke="midnightblue" d="M1200.01,-195.87C1178.74,-186.2 1143.65,-170.25 1116.21,-157.78"/>
<polygon fill="midnightblue" stroke="midnightblue" points="1117.41,-154.48 1106.86,-153.53 1114.52,-160.85 1117.41,-154.48"/>
</g>
<!-- Node32 -->
<g id="node32" class="node">
<title>Node32</title>
<g id="a_node32"><a xlink:href="web_2http_2client_2_socket_context_8h.html" target="_top" xlink:title=" ">
<polygon fill="white" stroke="black" points="1158.5,-129 1158.5,-148 1315.5,-148 1315.5,-129 1158.5,-129"/>
<text text-anchor="middle" x="1237" y="-136" font-family="Helvetica,sans-Serif" font-size="10.00">web/http/client/SocketContext.h</text>
</a>
</g>
</g>
<!-- Node31&#45;&gt;Node32 -->
<g id="edge47" class="edge">
<title>Node31&#45;&gt;Node32</title>
<path fill="none" stroke="midnightblue" d="M1221.43,-195.73C1224.1,-186.09 1228.47,-170.3 1231.9,-157.91"/>
<polygon fill="midnightblue" stroke="midnightblue" points="1235.32,-158.7 1234.61,-148.13 1228.57,-156.83 1235.32,-158.7"/>
</g>
<!-- Node32&#45;&gt;Node20 -->
<g id="edge48" class="edge">
<title>Node32&#45;&gt;Node20</title>
<path fill="none" stroke="midnightblue" d="M1205.53,-128.87C1168.81,-118.8 1107.25,-101.91 1061.05,-89.24"/>
<polygon fill="midnightblue" stroke="midnightblue" points="1061.72,-85.8 1051.15,-86.53 1059.87,-92.55 1061.72,-85.8"/>
</g>
<!-- Node33 -->
<g id="node33" class="node">
<title>Node33</title>
<g id="a_node33"><a xlink:href="_cookie_options_8h.html" target="_top" xlink:title=" ">
<polygon fill="white" stroke="black" points="1062,-0.5 1062,-19.5 1192,-19.5 1192,-0.5 1062,-0.5"/>
<text text-anchor="middle" x="1127" y="-7.5" font-family="Helvetica,sans-Serif" font-size="10.00">web/http/CookieOptions.h</text>
</a>
</g>
</g>
<!-- Node32&#45;&gt;Node33 -->
<g id="edge49" class="edge">
<title>Node32&#45;&gt;Node33</title>
<path fill="none" stroke="midnightblue" d="M1209.51,-128.97C1189.03,-121.22 1161.95,-107.78 1146,-87 1133.35,-70.52 1129.03,-46.65 1127.61,-30.07"/>
<polygon fill="midnightblue" stroke="midnightblue" points="1131.09,-29.72 1127.01,-19.94 1124.1,-30.13 1131.09,-29.72"/>
</g>
<!-- Node34 -->
<g id="node34" class="node">
<title>Node34</title>
<g id="a_node34"><a xlink:href="web_2http_2client_2_request_8h.html" target="_top" xlink:title=" ">
<polygon fill="white" stroke="black" points="1301,-62 1301,-81 1429,-81 1429,-62 1301,-62"/>
<text text-anchor="middle" x="1365" y="-69" font-family="Helvetica,sans-Serif" font-size="10.00">web/http/client/Request.h</text>
</a>
</g>
</g>
<!-- Node32&#45;&gt;Node34 -->
<g id="edge50" class="edge">
<title>Node32&#45;&gt;Node34</title>
<path fill="none" stroke="midnightblue" d="M1254,-128.87C1275.71,-117.84 1313.49,-98.66 1338.87,-85.77"/>
<polygon fill="midnightblue" stroke="midnightblue" points="1340.6,-88.82 1347.93,-81.17 1337.43,-82.57 1340.6,-88.82"/>
</g>
<!-- Node37 -->
<g id="node37" class="node">
<title>Node37</title>
<g id="a_node37"><a xlink:href="web_2http_2client_2_response_8h.html" target="_top" xlink:title=" ">
<polygon fill="white" stroke="black" points="1447,-62 1447,-81 1583,-81 1583,-62 1447,-62"/>
<text text-anchor="middle" x="1515" y="-69" font-family="Helvetica,sans-Serif" font-size="10.00">web/http/client/Response.h</text>
</a>
</g>
</g>
<!-- Node32&#45;&gt;Node37 -->
<g id="edge53" class="edge">
<title>Node32&#45;&gt;Node37</title>
<path fill="none" stroke="midnightblue" d="M1273.63,-128.94C1323.74,-117.22 1413.67,-96.19 1468.48,-83.38"/>
<polygon fill="midnightblue" stroke="midnightblue" points="1469.35,-86.77 1478.29,-81.08 1467.76,-79.95 1469.35,-86.77"/>
</g>
<!-- Node38 -->
<g id="node38" class="node">
<title>Node38</title>
<g id="a_node38"><a xlink:href="_response_parser_8h.html" target="_top" xlink:title=" ">
<polygon fill="white" stroke="black" points="1155,-56.5 1155,-86.5 1283,-86.5 1283,-56.5 1155,-56.5"/>
<text text-anchor="start" x="1163" y="-74.5" font-family="Helvetica,sans-Serif" font-size="10.00">web/http/client/Response</text>
<text text-anchor="middle" x="1219" y="-63.5" font-family="Helvetica,sans-Serif" font-size="10.00">Parser.h</text>
</a>
</g>
</g>
<!-- Node32&#45;&gt;Node38 -->
<g id="edge54" class="edge">
<title>Node32&#45;&gt;Node38</title>
<path fill="none" stroke="midnightblue" d="M1234.57,-128.73C1232.28,-120.46 1228.74,-107.66 1225.61,-96.37"/>
<polygon fill="midnightblue" stroke="midnightblue" points="1228.94,-95.29 1222.9,-86.59 1222.2,-97.16 1228.94,-95.29"/>
</g>
<!-- Node35 -->
<g id="node35" class="node">
<title>Node35</title>
<g id="a_node35"><a xlink:href="_sink_8h.html" target="_top" xlink:title=" ">
<polygon fill="white" stroke="black" points="1323,-0.5 1323,-19.5 1405,-19.5 1405,-0.5 1323,-0.5"/>
<text text-anchor="middle" x="1364" y="-7.5" font-family="Helvetica,sans-Serif" font-size="10.00">net/pipe/Sink.h</text>
</a>
</g>
</g>
<!-- Node34&#45;&gt;Node35 -->
<g id="edge51" class="edge">
<title>Node34&#45;&gt;Node35</title>
<path fill="none" stroke="midnightblue" d="M1364.86,-61.98C1364.72,-53.58 1364.5,-40.48 1364.31,-29.66"/>
<polygon fill="midnightblue" stroke="midnightblue" points="1367.81,-29.45 1364.14,-19.51 1360.81,-29.57 1367.81,-29.45"/>
</g>
<!-- Node36 -->
<g id="node36" class="node">
<title>Node36</title>
<g id="a_node36"><a xlink:href="_connection_state_8h.html" target="_top" xlink:title=" ">
<polygon fill="white" stroke="black" points="1423,-0.5 1423,-19.5 1561,-19.5 1561,-0.5 1423,-0.5"/>
<text text-anchor="middle" x="1492" y="-7.5" font-family="Helvetica,sans-Serif" font-size="10.00">web/http/ConnectionState.h</text>
</a>
</g>
</g>
<!-- Node34&#45;&gt;Node36 -->
<g id="edge52" class="edge">
<title>Node34&#45;&gt;Node36</title>
<path fill="none" stroke="midnightblue" d="M1383.2,-61.98C1404.51,-51.99 1440.03,-35.35 1464.66,-23.81"/>
<polygon fill="midnightblue" stroke="midnightblue" points="1466.27,-26.92 1473.84,-19.51 1463.3,-20.58 1466.27,-26.92"/>
</g>
<!-- Node38&#45;&gt;Node33 -->
<g id="edge55" class="edge">
<title>Node38&#45;&gt;Node33</title>
<path fill="none" stroke="midnightblue" d="M1197.2,-56.4C1182.59,-46.95 1163.43,-34.56 1148.82,-25.11"/>
<polygon fill="midnightblue" stroke="midnightblue" points="1150.68,-22.15 1140.39,-19.66 1146.88,-28.03 1150.68,-22.15"/>
</g>
<!-- Node39 -->
<g id="node39" class="node">
<title>Node39</title>
<g id="a_node39"><a xlink:href="_parser_8h.html" target="_top" xlink:title=" ">
<polygon fill="white" stroke="black" points="1210.5,-0.5 1210.5,-19.5 1303.5,-19.5 1303.5,-0.5 1210.5,-0.5"/>
<text text-anchor="middle" x="1257" y="-7.5" font-family="Helvetica,sans-Serif" font-size="10.00">web/http/Parser.h</text>
</a>
</g>
</g>
<!-- Node38&#45;&gt;Node39 -->
<g id="edge56" class="edge">
<title>Node38&#45;&gt;Node39</title>
<path fill="none" stroke="midnightblue" d="M1228.01,-56.4C1233.41,-47.93 1240.33,-37.1 1246.05,-28.14"/>
<polygon fill="midnightblue" stroke="midnightblue" points="1249.04,-29.97 1251.47,-19.66 1243.14,-26.2 1249.04,-29.97"/>
</g>
<!-- Node40&#45;&gt;Node14 -->
<g id="edge59" class="edge">
<title>Node40&#45;&gt;Node14</title>
<path fill="none" stroke="midnightblue" d="M1001.56,-190.4C972.65,-180.56 933.89,-167.37 903.07,-156.88"/>
<polygon fill="midnightblue" stroke="midnightblue" points="903.96,-153.48 893.36,-153.58 901.7,-160.11 903.96,-153.48"/>
</g>
<!-- Node40&#45;&gt;Node19 -->
<g id="edge58" class="edge">
<title>Node40&#45;&gt;Node19</title>
<path fill="none" stroke="midnightblue" d="M1050.16,-190.4C1054.27,-182.3 1059.53,-171.94 1064.23,-162.69"/>
<polygon fill="midnightblue" stroke="midnightblue" points="1067.45,-164.08 1068.85,-153.58 1061.21,-160.91 1067.45,-164.08"/>
</g>
<!-- Node40&#45;&gt;Node32 -->
<g id="edge60" class="edge">
<title>Node40&#45;&gt;Node32</title>
<path fill="none" stroke="midnightblue" d="M1085.1,-190.4C1120.04,-178.69 1169.16,-162.23 1201.98,-151.23"/>
<polygon fill="midnightblue" stroke="midnightblue" points="1203.24,-154.5 1211.61,-148.01 1201.02,-147.87 1203.24,-154.5"/>
</g>
</g>
</svg>
