<?xml version="1.0" encoding="UTF-8" standalone="no"?>
<!DOCTYPE svg PUBLIC "-//W3C//DTD SVG 1.1//EN"
 "http://www.w3.org/Graphics/SVG/1.1/DTD/svg11.dtd">
<!-- Generated by graphviz version 2.43.0 (0)
 -->
<!-- Title: web/http/client/legacy/Client.h Pages: 1 -->
<svg width="1667pt" height="564pt"
 viewBox="0.00 0.00 1667.00 564.00" xmlns="http://www.w3.org/2000/svg" xmlns:xlink="http://www.w3.org/1999/xlink">
<g id="graph0" class="graph" transform="scale(1 1) rotate(0) translate(4 560)">
<title>web/http/client/legacy/Client.h</title>
<polygon fill="white" stroke="transparent" points="-4,4 -4,-560 1663,-560 1663,4 -4,4"/>
<!-- Node1 -->
<g id="node1" class="node">
<title>Node1</title>
<g id="a_node1"><a xlink:title=" ">
<polygon fill="#bfbfbf" stroke="black" points="404,-525.5 404,-555.5 516,-555.5 516,-525.5 404,-525.5"/>
<text text-anchor="start" x="412" y="-543.5" font-family="Helvetica,sans-Serif" font-size="10.00">web/http/client/legacy</text>
<text text-anchor="middle" x="460" y="-532.5" font-family="Helvetica,sans-Serif" font-size="10.00">/Client.h</text>
</a>
</g>
</g>
<!-- Node2 -->
<g id="node2" class="node">
<title>Node2</title>
<g id="a_node2"><a xlink:href="ip_2tcp_2ipv4_2legacy_2_socket_client_8h.html" target="_top" xlink:title=" ">
<polygon fill="white" stroke="black" points="402,-458.5 402,-488.5 518,-488.5 518,-458.5 402,-458.5"/>
<text text-anchor="start" x="410" y="-476.5" font-family="Helvetica,sans-Serif" font-size="10.00">net/socket/ip/tcp/ipv4</text>
<text text-anchor="middle" x="460" y="-465.5" font-family="Helvetica,sans-Serif" font-size="10.00">/legacy/SocketClient.h</text>
</a>
</g>
</g>
<!-- Node1&#45;&gt;Node2 -->
<g id="edge1" class="edge">
<title>Node1&#45;&gt;Node2</title>
<path fill="none" stroke="midnightblue" d="M460,-525.4C460,-517.64 460,-507.81 460,-498.86"/>
<polygon fill="midnightblue" stroke="midnightblue" points="463.5,-498.58 460,-488.58 456.5,-498.58 463.5,-498.58"/>
</g>
<!-- Node27 -->
<g id="node27" class="node">
<title>Node27</title>
<g id="a_node27"><a xlink:href="ip_2tcp_2ipv6_2legacy_2_socket_client_8h.html" target="_top" xlink:title=" ">
<polygon fill="white" stroke="black" points="268,-458.5 268,-488.5 384,-488.5 384,-458.5 268,-458.5"/>
<text text-anchor="start" x="276" y="-476.5" font-family="Helvetica,sans-Serif" font-size="10.00">net/socket/ip/tcp/ipv6</text>
<text text-anchor="middle" x="326" y="-465.5" font-family="Helvetica,sans-Serif" font-size="10.00">/legacy/SocketClient.h</text>
</a>
</g>
</g>
<!-- Node1&#45;&gt;Node27 -->
<g id="edge38" class="edge">
<title>Node1&#45;&gt;Node27</title>
<path fill="none" stroke="midnightblue" d="M430.92,-525.4C411.35,-515.9 385.32,-503.28 364.09,-492.98"/>
<polygon fill="midnightblue" stroke="midnightblue" points="365.54,-489.79 355.02,-488.58 362.49,-496.09 365.54,-489.79"/>
</g>
<!-- Node30 -->
<g id="node30" class="node">
<title>Node30</title>
<g id="a_node30"><a xlink:href="_client_8h.html" target="_top" xlink:title=" ">
<polygon fill="white" stroke="black" points="1053.5,-263 1053.5,-282 1170.5,-282 1170.5,-263 1053.5,-263"/>
<text text-anchor="middle" x="1112" y="-270" font-family="Helvetica,sans-Serif" font-size="10.00">web/http/client/Client.h</text>
</a>
</g>
</g>
<!-- Node1&#45;&gt;Node30 -->
<g id="edge44" class="edge">
<title>Node1&#45;&gt;Node30</title>
<path fill="none" stroke="midnightblue" d="M494.59,-525.39C608.97,-478.73 973.76,-329.9 1081.66,-285.88"/>
<polygon fill="midnightblue" stroke="midnightblue" points="1083.06,-289.09 1091,-282.07 1080.42,-282.6 1083.06,-289.09"/>
</g>
<!-- Node3 -->
<g id="node3" class="node">
<title>Node3</title>
<g id="a_node3"><a xlink:href="socket_2ip_2tcp_2ipv4_2_socket_8h.html" target="_top" xlink:title=" ">
<polygon fill="white" stroke="black" points="260,-257.5 260,-287.5 370,-287.5 370,-257.5 260,-257.5"/>
<text text-anchor="start" x="268" y="-275.5" font-family="Helvetica,sans-Serif" font-size="10.00">net/socket/ip/tcp/ipv4</text>
<text text-anchor="middle" x="315" y="-264.5" font-family="Helvetica,sans-Serif" font-size="10.00">/Socket.h</text>
</a>
</g>
</g>
<!-- Node2&#45;&gt;Node3 -->
<g id="edge2" class="edge">
<title>Node2&#45;&gt;Node3</title>
<path fill="none" stroke="midnightblue" d="M433.13,-458.48C418.09,-449.6 399.84,-436.98 387,-422 354.34,-383.88 332.66,-328.39 322.23,-297.15"/>
<polygon fill="midnightblue" stroke="midnightblue" points="325.53,-295.99 319.12,-287.55 318.87,-298.14 325.53,-295.99"/>
</g>
<!-- Node9 -->
<g id="node9" class="node">
<title>Node9</title>
<g id="a_node9"><a xlink:href="stream_2legacy_2_socket_client_8h.html" target="_top" xlink:title=" ">
<polygon fill="white" stroke="black" points="396.5,-391.5 396.5,-421.5 523.5,-421.5 523.5,-391.5 396.5,-391.5"/>
<text text-anchor="start" x="404.5" y="-409.5" font-family="Helvetica,sans-Serif" font-size="10.00">net/socket/stream/legacy</text>
<text text-anchor="middle" x="460" y="-398.5" font-family="Helvetica,sans-Serif" font-size="10.00">/SocketClient.h</text>
</a>
</g>
</g>
<!-- Node2&#45;&gt;Node9 -->
<g id="edge9" class="edge">
<title>Node2&#45;&gt;Node9</title>
<path fill="none" stroke="midnightblue" d="M460,-458.4C460,-450.64 460,-440.81 460,-431.86"/>
<polygon fill="midnightblue" stroke="midnightblue" points="463.5,-431.58 460,-421.58 456.5,-431.58 463.5,-431.58"/>
</g>
<!-- Node4 -->
<g id="node4" class="node">
<title>Node4</title>
<g id="a_node4"><a xlink:href="socket_2_socket_8h.html" target="_top" xlink:title=" ">
<polygon fill="white" stroke="black" points="256,-196 256,-215 360,-215 360,-196 256,-196"/>
<text text-anchor="middle" x="308" y="-203" font-family="Helvetica,sans-Serif" font-size="10.00">net/socket/Socket.h</text>
</a>
</g>
</g>
<!-- Node3&#45;&gt;Node4 -->
<g id="edge3" class="edge">
<title>Node3&#45;&gt;Node4</title>
<path fill="none" stroke="midnightblue" d="M313.48,-257.4C312.47,-247.96 311.12,-235.45 310.01,-225.19"/>
<polygon fill="midnightblue" stroke="midnightblue" points="313.49,-224.76 308.94,-215.19 306.53,-225.51 313.49,-224.76"/>
</g>
<!-- Node8 -->
<g id="node8" class="node">
<title>Node8</title>
<g id="a_node8"><a xlink:href="ipv4_2_inet_address_8h.html" target="_top" xlink:title=" ">
<polygon fill="white" stroke="black" points="128,-190.5 128,-220.5 238,-220.5 238,-190.5 128,-190.5"/>
<text text-anchor="start" x="136" y="-208.5" font-family="Helvetica,sans-Serif" font-size="10.00">net/socket/ip/address</text>
<text text-anchor="middle" x="183" y="-197.5" font-family="Helvetica,sans-Serif" font-size="10.00">/ipv4/InetAddress.h</text>
</a>
</g>
</g>
<!-- Node3&#45;&gt;Node8 -->
<g id="edge7" class="edge">
<title>Node3&#45;&gt;Node8</title>
<path fill="none" stroke="midnightblue" d="M286.36,-257.4C267.16,-247.94 241.67,-235.39 220.81,-225.12"/>
<polygon fill="midnightblue" stroke="midnightblue" points="222.1,-221.85 211.59,-220.58 219.01,-228.13 222.1,-221.85"/>
</g>
<!-- Node5 -->
<g id="node5" class="node">
<title>Node5</title>
<g id="a_node5"><a xlink:href="_descriptor_8h.html" target="_top" xlink:title=" ">
<polygon fill="white" stroke="black" points="265,-129 265,-148 351,-148 351,-129 265,-129"/>
<text text-anchor="middle" x="308" y="-136" font-family="Helvetica,sans-Serif" font-size="10.00">net/Descriptor.h</text>
</a>
</g>
</g>
<!-- Node4&#45;&gt;Node5 -->
<g id="edge4" class="edge">
<title>Node4&#45;&gt;Node5</title>
<path fill="none" stroke="midnightblue" d="M308,-195.73C308,-186.18 308,-170.62 308,-158.28"/>
<polygon fill="midnightblue" stroke="midnightblue" points="311.5,-158.13 308,-148.13 304.5,-158.13 311.5,-158.13"/>
</g>
<!-- Node6 -->
<g id="node6" class="node">
<title>Node6</title>
<g id="a_node6"><a xlink:href="_socket_address_8h.html" target="_top" xlink:title=" ">
<polygon fill="white" stroke="black" points="107,-129 107,-148 247,-148 247,-129 107,-129"/>
<text text-anchor="middle" x="177" y="-136" font-family="Helvetica,sans-Serif" font-size="10.00">net/socket/SocketAddress.h</text>
</a>
</g>
</g>
<!-- Node4&#45;&gt;Node6 -->
<g id="edge5" class="edge">
<title>Node4&#45;&gt;Node6</title>
<path fill="none" stroke="midnightblue" d="M290.6,-195.87C268.39,-184.84 229.71,-165.66 203.74,-152.77"/>
<polygon fill="midnightblue" stroke="midnightblue" points="204.98,-149.48 194.47,-148.17 201.87,-155.75 204.98,-149.48"/>
</g>
<!-- Node7 -->
<g id="node7" class="node">
<title>Node7</title>
<g id="a_node7"><a xlink:href="system_2_socket_8h.html" target="_top" xlink:title=" ">
<polygon fill="white" stroke="black" points="407,-129 407,-148 513,-148 513,-129 407,-129"/>
<text text-anchor="middle" x="460" y="-136" font-family="Helvetica,sans-Serif" font-size="10.00">net/system/socket.h</text>
</a>
</g>
</g>
<!-- Node4&#45;&gt;Node7 -->
<g id="edge6" class="edge">
<title>Node4&#45;&gt;Node7</title>
<path fill="none" stroke="midnightblue" d="M328.18,-195.87C354.3,-184.7 400.03,-165.15 430.16,-152.26"/>
<polygon fill="midnightblue" stroke="midnightblue" points="431.91,-155.32 439.73,-148.17 429.16,-148.88 431.91,-155.32"/>
</g>
<!-- Node8&#45;&gt;Node6 -->
<g id="edge8" class="edge">
<title>Node8&#45;&gt;Node6</title>
<path fill="none" stroke="midnightblue" d="M181.7,-190.4C180.83,-180.96 179.67,-168.45 178.73,-158.19"/>
<polygon fill="midnightblue" stroke="midnightblue" points="182.21,-157.83 177.8,-148.19 175.24,-158.47 182.21,-157.83"/>
</g>
<!-- Node10 -->
<g id="node10" class="node">
<title>Node10</title>
<g id="a_node10"><a xlink:href="stream_2_socket_client_8h.html" target="_top" xlink:title=" ">
<polygon fill="white" stroke="black" points="541.5,-324.5 541.5,-354.5 670.5,-354.5 670.5,-324.5 541.5,-324.5"/>
<text text-anchor="start" x="549.5" y="-342.5" font-family="Helvetica,sans-Serif" font-size="10.00">net/socket/stream/Socket</text>
<text text-anchor="middle" x="606" y="-331.5" font-family="Helvetica,sans-Serif" font-size="10.00">Client.h</text>
</a>
</g>
</g>
<!-- Node9&#45;&gt;Node10 -->
<g id="edge10" class="edge">
<title>Node9&#45;&gt;Node10</title>
<path fill="none" stroke="midnightblue" d="M491.68,-391.4C513.2,-381.81 541.87,-369.05 565.12,-358.7"/>
<polygon fill="midnightblue" stroke="midnightblue" points="566.67,-361.84 574.38,-354.58 563.82,-355.45 566.67,-361.84"/>
</g>
<!-- Node15 -->
<g id="node15" class="node">
<title>Node15</title>
<g id="a_node15"><a xlink:href="legacy_2_socket_connector_8h.html" target="_top" xlink:title=" ">
<polygon fill="white" stroke="black" points="396.5,-324.5 396.5,-354.5 523.5,-354.5 523.5,-324.5 396.5,-324.5"/>
<text text-anchor="start" x="404.5" y="-342.5" font-family="Helvetica,sans-Serif" font-size="10.00">net/socket/stream/legacy</text>
<text text-anchor="middle" x="460" y="-331.5" font-family="Helvetica,sans-Serif" font-size="10.00">/SocketConnector.h</text>
</a>
</g>
</g>
<!-- Node9&#45;&gt;Node15 -->
<g id="edge18" class="edge">
<title>Node9&#45;&gt;Node15</title>
<path fill="none" stroke="midnightblue" d="M460,-391.4C460,-383.64 460,-373.81 460,-364.86"/>
<polygon fill="midnightblue" stroke="midnightblue" points="463.5,-364.58 460,-354.58 456.5,-364.58 463.5,-364.58"/>
</g>
<!-- Node11 -->
<g id="node11" class="node">
<title>Node11</title>
<g id="a_node11"><a xlink:href="_socket_connector_8h.html" target="_top" xlink:title=" ">
<polygon fill="white" stroke="black" points="395.5,-257.5 395.5,-287.5 524.5,-287.5 524.5,-257.5 395.5,-257.5"/>
<text text-anchor="start" x="403.5" y="-275.5" font-family="Helvetica,sans-Serif" font-size="10.00">net/socket/stream/Socket</text>
<text text-anchor="middle" x="460" y="-264.5" font-family="Helvetica,sans-Serif" font-size="10.00">Connector.h</text>
</a>
</g>
</g>
<!-- Node10&#45;&gt;Node11 -->
<g id="edge11" class="edge">
<title>Node10&#45;&gt;Node11</title>
<path fill="none" stroke="midnightblue" d="M574.32,-324.4C552.8,-314.81 524.13,-302.05 500.88,-291.7"/>
<polygon fill="midnightblue" stroke="midnightblue" points="502.18,-288.45 491.62,-287.58 499.33,-294.84 502.18,-288.45"/>
</g>
<!-- Node14 -->
<g id="node14" class="node">
<title>Node14</title>
<g id="a_node14"><a xlink:href="net_2socket_2stream_2_socket_context_factory_8h.html" target="_top" xlink:title=" ">
<polygon fill="white" stroke="black" points="825.5,-123.5 825.5,-153.5 954.5,-153.5 954.5,-123.5 825.5,-123.5"/>
<text text-anchor="start" x="833.5" y="-141.5" font-family="Helvetica,sans-Serif" font-size="10.00">net/socket/stream/Socket</text>
<text text-anchor="middle" x="890" y="-130.5" font-family="Helvetica,sans-Serif" font-size="10.00">ContextFactory.h</text>
</a>
</g>
</g>
<!-- Node10&#45;&gt;Node14 -->
<g id="edge17" class="edge">
<title>Node10&#45;&gt;Node14</title>
<path fill="none" stroke="midnightblue" d="M645.74,-324.44C669.44,-315.38 699.73,-302.58 725,-288 767.88,-263.26 777.2,-254.12 814,-221 834.89,-202.2 856.53,-178.5 871.36,-161.51"/>
<polygon fill="midnightblue" stroke="midnightblue" points="874.17,-163.62 878.05,-153.76 868.87,-159.04 874.17,-163.62"/>
</g>
<!-- Node11&#45;&gt;Node4 -->
<g id="edge14" class="edge">
<title>Node11&#45;&gt;Node4</title>
<path fill="none" stroke="midnightblue" d="M427.02,-257.4C400.23,-245.94 362.81,-229.94 337.12,-218.95"/>
<polygon fill="midnightblue" stroke="midnightblue" points="338.46,-215.72 327.89,-215.01 335.71,-222.16 338.46,-215.72"/>
</g>
<!-- Node11&#45;&gt;Node7 -->
<g id="edge16" class="edge">
<title>Node11&#45;&gt;Node7</title>
<path fill="none" stroke="midnightblue" d="M460,-257.37C460,-233.5 460,-185.18 460,-158.41"/>
<polygon fill="midnightblue" stroke="midnightblue" points="463.5,-158.1 460,-148.1 456.5,-158.1 463.5,-158.1"/>
</g>
<!-- Node12 -->
<g id="node12" class="node">
<title>Node12</title>
<g id="a_node12"><a xlink:href="_connect_event_receiver_8h.html" target="_top" xlink:title=" ">
<polygon fill="white" stroke="black" points="340,-62 340,-81 482,-81 482,-62 340,-62"/>
<text text-anchor="middle" x="411" y="-69" font-family="Helvetica,sans-Serif" font-size="10.00">net/ConnectEventReceiver.h</text>
</a>
</g>
</g>
<!-- Node11&#45;&gt;Node12 -->
<g id="edge12" class="edge">
<title>Node11&#45;&gt;Node12</title>
<path fill="none" stroke="midnightblue" d="M449.49,-257.24C434.58,-236.02 407.98,-194.3 398,-154 392.69,-132.55 398.49,-107.37 403.95,-90.73"/>
<polygon fill="midnightblue" stroke="midnightblue" points="407.3,-91.76 407.36,-81.16 400.71,-89.4 407.3,-91.76"/>
</g>
<!-- Node11&#45;&gt;Node14 -->
<g id="edge15" class="edge">
<title>Node11&#45;&gt;Node14</title>
<path fill="none" stroke="midnightblue" d="M524.57,-262.65C609.44,-250.78 750.42,-230.13 773,-221 808.97,-206.46 844.76,-179.17 867.1,-160.19"/>
<polygon fill="midnightblue" stroke="midnightblue" points="869.43,-162.81 874.7,-153.62 864.85,-157.52 869.43,-162.81"/>
</g>
<!-- Node13 -->
<g id="node13" class="node">
<title>Node13</title>
<g id="a_node13"><a xlink:href="_descriptor_event_receiver_8h.html" target="_top" xlink:title=" ">
<polygon fill="white" stroke="black" points="521,-0.5 521,-19.5 671,-19.5 671,-0.5 521,-0.5"/>
<text text-anchor="middle" x="596" y="-7.5" font-family="Helvetica,sans-Serif" font-size="10.00">net/DescriptorEventReceiver.h</text>
</a>
</g>
</g>
<!-- Node12&#45;&gt;Node13 -->
<g id="edge13" class="edge">
<title>Node12&#45;&gt;Node13</title>
<path fill="none" stroke="midnightblue" d="M437.51,-61.98C469.65,-51.64 523.99,-34.16 559.93,-22.6"/>
<polygon fill="midnightblue" stroke="midnightblue" points="561.1,-25.9 569.54,-19.51 558.95,-19.24 561.1,-25.9"/>
</g>
<!-- Node15&#45;&gt;Node11 -->
<g id="edge19" class="edge">
<title>Node15&#45;&gt;Node11</title>
<path fill="none" stroke="midnightblue" d="M460,-324.4C460,-316.64 460,-306.81 460,-297.86"/>
<polygon fill="midnightblue" stroke="midnightblue" points="463.5,-297.58 460,-287.58 456.5,-297.58 463.5,-297.58"/>
</g>
<!-- Node16 -->
<g id="node16" class="node">
<title>Node16</title>
<g id="a_node16"><a xlink:href="legacy_2_socket_connection_8h.html" target="_top" xlink:title=" ">
<polygon fill="white" stroke="black" points="588.5,-257.5 588.5,-287.5 715.5,-287.5 715.5,-257.5 588.5,-257.5"/>
<text text-anchor="start" x="596.5" y="-275.5" font-family="Helvetica,sans-Serif" font-size="10.00">net/socket/stream/legacy</text>
<text text-anchor="middle" x="652" y="-264.5" font-family="Helvetica,sans-Serif" font-size="10.00">/SocketConnection.h</text>
</a>
</g>
</g>
<!-- Node15&#45;&gt;Node16 -->
<g id="edge20" class="edge">
<title>Node15&#45;&gt;Node16</title>
<path fill="none" stroke="midnightblue" d="M501.66,-324.4C530.72,-314.56 569.69,-301.37 600.67,-290.88"/>
<polygon fill="midnightblue" stroke="midnightblue" points="602.07,-294.1 610.42,-287.58 599.83,-287.47 602.07,-294.1"/>
</g>
<!-- Node17 -->
<g id="node17" class="node">
<title>Node17</title>
<g id="a_node17"><a xlink:href="_socket_connection_8h.html" target="_top" xlink:title=" ">
<polygon fill="white" stroke="black" points="890.5,-190.5 890.5,-220.5 1019.5,-220.5 1019.5,-190.5 890.5,-190.5"/>
<text text-anchor="start" x="898.5" y="-208.5" font-family="Helvetica,sans-Serif" font-size="10.00">net/socket/stream/Socket</text>
<text text-anchor="middle" x="955" y="-197.5" font-family="Helvetica,sans-Serif" font-size="10.00">Connection.h</text>
</a>
</g>
</g>
<!-- Node16&#45;&gt;Node17 -->
<g id="edge21" class="edge">
<title>Node16&#45;&gt;Node17</title>
<path fill="none" stroke="midnightblue" d="M715.52,-257.87C763.59,-247.56 829.76,-233.37 880.36,-222.51"/>
<polygon fill="midnightblue" stroke="midnightblue" points="881.22,-225.91 890.26,-220.39 879.75,-219.06 881.22,-225.91"/>
</g>
<!-- Node21 -->
<g id="node21" class="node">
<title>Node21</title>
<g id="a_node21"><a xlink:href="legacy_2_socket_reader_8h.html" target="_top" xlink:title=" ">
<polygon fill="white" stroke="black" points="636.5,-190.5 636.5,-220.5 763.5,-220.5 763.5,-190.5 636.5,-190.5"/>
<text text-anchor="start" x="644.5" y="-208.5" font-family="Helvetica,sans-Serif" font-size="10.00">net/socket/stream/legacy</text>
<text text-anchor="middle" x="700" y="-197.5" font-family="Helvetica,sans-Serif" font-size="10.00">/SocketReader.h</text>
</a>
</g>
</g>
<!-- Node16&#45;&gt;Node21 -->
<g id="edge26" class="edge">
<title>Node16&#45;&gt;Node21</title>
<path fill="none" stroke="midnightblue" d="M662.42,-257.4C668.58,-249.05 676.53,-238.29 683.52,-228.81"/>
<polygon fill="midnightblue" stroke="midnightblue" points="686.48,-230.7 689.61,-220.58 680.85,-226.54 686.48,-230.7"/>
</g>
<!-- Node24 -->
<g id="node24" class="node">
<title>Node24</title>
<g id="a_node24"><a xlink:href="legacy_2_socket_writer_8h.html" target="_top" xlink:title=" ">
<polygon fill="white" stroke="black" points="491.5,-190.5 491.5,-220.5 618.5,-220.5 618.5,-190.5 491.5,-190.5"/>
<text text-anchor="start" x="499.5" y="-208.5" font-family="Helvetica,sans-Serif" font-size="10.00">net/socket/stream/legacy</text>
<text text-anchor="middle" x="555" y="-197.5" font-family="Helvetica,sans-Serif" font-size="10.00">/SocketWriter.h</text>
</a>
</g>
</g>
<!-- Node16&#45;&gt;Node24 -->
<g id="edge32" class="edge">
<title>Node16&#45;&gt;Node24</title>
<path fill="none" stroke="midnightblue" d="M630.95,-257.4C617.35,-248.28 599.46,-236.29 584.45,-226.24"/>
<polygon fill="midnightblue" stroke="midnightblue" points="586.26,-223.24 576.01,-220.58 582.37,-229.05 586.26,-223.24"/>
</g>
<!-- Node17&#45;&gt;Node14 -->
<g id="edge25" class="edge">
<title>Node17&#45;&gt;Node14</title>
<path fill="none" stroke="midnightblue" d="M940.9,-190.4C932.21,-181.71 920.9,-170.4 911.16,-160.66"/>
<polygon fill="midnightblue" stroke="midnightblue" points="913.62,-158.17 904.08,-153.58 908.67,-163.12 913.62,-158.17"/>
</g>
<!-- Node18 -->
<g id="node18" class="node">
<title>Node18</title>
<g id="a_node18"><a xlink:href="_logger_8h.html" target="_top" xlink:title=" ">
<polygon fill="white" stroke="black" points="847.5,-62 847.5,-81 916.5,-81 916.5,-62 847.5,-62"/>
<text text-anchor="middle" x="882" y="-69" font-family="Helvetica,sans-Serif" font-size="10.00">log/Logger.h</text>
</a>
</g>
</g>
<!-- Node17&#45;&gt;Node18 -->
<g id="edge22" class="edge">
<title>Node17&#45;&gt;Node18</title>
<path fill="none" stroke="midnightblue" d="M961.36,-190.24C967.96,-173.13 975.8,-144.13 964,-123 954.16,-105.39 935.38,-93.16 918.28,-85.15"/>
<polygon fill="midnightblue" stroke="midnightblue" points="919.58,-81.9 909.01,-81.13 916.79,-88.32 919.58,-81.9"/>
</g>
<!-- Node19 -->
<g id="node19" class="node">
<title>Node19</title>
<g id="a_node19"><a xlink:href="_socket_connection_base_8h.html" target="_top" xlink:title=" ">
<polygon fill="white" stroke="black" points="1049.5,-123.5 1049.5,-153.5 1178.5,-153.5 1178.5,-123.5 1049.5,-123.5"/>
<text text-anchor="start" x="1057.5" y="-141.5" font-family="Helvetica,sans-Serif" font-size="10.00">net/socket/stream/Socket</text>
<text text-anchor="middle" x="1114" y="-130.5" font-family="Helvetica,sans-Serif" font-size="10.00">ConnectionBase.h</text>
</a>
</g>
</g>
<!-- Node17&#45;&gt;Node19 -->
<g id="edge23" class="edge">
<title>Node17&#45;&gt;Node19</title>
<path fill="none" stroke="midnightblue" d="M989.5,-190.4C1013.15,-180.73 1044.72,-167.82 1070.15,-157.43"/>
<polygon fill="midnightblue" stroke="midnightblue" points="1071.63,-160.6 1079.57,-153.58 1068.99,-154.12 1071.63,-160.6"/>
</g>
<!-- Node20 -->
<g id="node20" class="node">
<title>Node20</title>
<g id="a_node20"><a xlink:href="net_2socket_2stream_2_socket_context_8h.html" target="_top" xlink:title=" ">
<polygon fill="white" stroke="black" points="954.5,-56.5 954.5,-86.5 1083.5,-86.5 1083.5,-56.5 954.5,-56.5"/>
<text text-anchor="start" x="962.5" y="-74.5" font-family="Helvetica,sans-Serif" font-size="10.00">net/socket/stream/Socket</text>
<text text-anchor="middle" x="1019" y="-63.5" font-family="Helvetica,sans-Serif" font-size="10.00">Context.h</text>
</a>
</g>
</g>
<!-- Node17&#45;&gt;Node20 -->
<g id="edge24" class="edge">
<title>Node17&#45;&gt;Node20</title>
<path fill="none" stroke="midnightblue" d="M969.73,-190.26C978.78,-180.76 989.96,-167.56 997,-154 1006.36,-135.97 1012.03,-113.56 1015.27,-96.81"/>
<polygon fill="midnightblue" stroke="midnightblue" points="1018.76,-97.18 1017.06,-86.72 1011.87,-95.96 1018.76,-97.18"/>
</g>
<!-- Node21&#45;&gt;Node7 -->
<g id="edge31" class="edge">
<title>Node21&#45;&gt;Node7</title>
<path fill="none" stroke="midnightblue" d="M648.22,-190.48C604.27,-178.57 542.03,-161.72 501.34,-150.7"/>
<polygon fill="midnightblue" stroke="midnightblue" points="502.06,-147.26 491.49,-148.03 500.23,-154.02 502.06,-147.26"/>
</g>
<!-- Node22 -->
<g id="node22" class="node">
<title>Node22</title>
<g id="a_node22"><a xlink:href="_socket_reader_8h.html" target="_top" xlink:title=" ">
<polygon fill="white" stroke="black" points="678.5,-123.5 678.5,-153.5 807.5,-153.5 807.5,-123.5 678.5,-123.5"/>
<text text-anchor="start" x="686.5" y="-141.5" font-family="Helvetica,sans-Serif" font-size="10.00">net/socket/stream/Socket</text>
<text text-anchor="middle" x="743" y="-130.5" font-family="Helvetica,sans-Serif" font-size="10.00">Reader.h</text>
</a>
</g>
</g>
<!-- Node21&#45;&gt;Node22 -->
<g id="edge27" class="edge">
<title>Node21&#45;&gt;Node22</title>
<path fill="none" stroke="midnightblue" d="M709.33,-190.4C714.8,-182.13 721.83,-171.51 728.05,-162.1"/>
<polygon fill="midnightblue" stroke="midnightblue" points="731.09,-163.85 733.69,-153.58 725.25,-159.99 731.09,-163.85"/>
</g>
<!-- Node22&#45;&gt;Node18 -->
<g id="edge28" class="edge">
<title>Node22&#45;&gt;Node18</title>
<path fill="none" stroke="midnightblue" d="M773.16,-123.4C797.44,-112.04 831.28,-96.22 854.75,-85.24"/>
<polygon fill="midnightblue" stroke="midnightblue" points="856.23,-88.41 863.81,-81.01 853.27,-82.07 856.23,-88.41"/>
</g>
<!-- Node23 -->
<g id="node23" class="node">
<title>Node23</title>
<g id="a_node23"><a xlink:href="_read_event_receiver_8h.html" target="_top" xlink:title=" ">
<polygon fill="white" stroke="black" points="679,-62 679,-81 807,-81 807,-62 679,-62"/>
<text text-anchor="middle" x="743" y="-69" font-family="Helvetica,sans-Serif" font-size="10.00">net/ReadEventReceiver.h</text>
</a>
</g>
</g>
<!-- Node22&#45;&gt;Node23 -->
<g id="edge29" class="edge">
<title>Node22&#45;&gt;Node23</title>
<path fill="none" stroke="midnightblue" d="M743,-123.4C743,-114.06 743,-101.71 743,-91.52"/>
<polygon fill="midnightblue" stroke="midnightblue" points="746.5,-91.19 743,-81.19 739.5,-91.19 746.5,-91.19"/>
</g>
<!-- Node23&#45;&gt;Node13 -->
<g id="edge30" class="edge">
<title>Node23&#45;&gt;Node13</title>
<path fill="none" stroke="midnightblue" d="M721.94,-61.98C696.94,-51.86 655.06,-34.9 626.51,-23.35"/>
<polygon fill="midnightblue" stroke="midnightblue" points="627.61,-20.02 617.02,-19.51 624.98,-26.51 627.61,-20.02"/>
</g>
<!-- Node24&#45;&gt;Node7 -->
<g id="edge37" class="edge">
<title>Node24&#45;&gt;Node7</title>
<path fill="none" stroke="midnightblue" d="M534.39,-190.4C518.6,-179.6 496.91,-164.76 481.03,-153.89"/>
<polygon fill="midnightblue" stroke="midnightblue" points="482.66,-150.77 472.43,-148.01 478.71,-156.54 482.66,-150.77"/>
</g>
<!-- Node25 -->
<g id="node25" class="node">
<title>Node25</title>
<g id="a_node25"><a xlink:href="_socket_writer_8h.html" target="_top" xlink:title=" ">
<polygon fill="white" stroke="black" points="531.5,-123.5 531.5,-153.5 660.5,-153.5 660.5,-123.5 531.5,-123.5"/>
<text text-anchor="start" x="539.5" y="-141.5" font-family="Helvetica,sans-Serif" font-size="10.00">net/socket/stream/Socket</text>
<text text-anchor="middle" x="596" y="-130.5" font-family="Helvetica,sans-Serif" font-size="10.00">Writer.h</text>
</a>
</g>
</g>
<!-- Node24&#45;&gt;Node25 -->
<g id="edge33" class="edge">
<title>Node24&#45;&gt;Node25</title>
<path fill="none" stroke="midnightblue" d="M563.9,-190.4C569.11,-182.13 575.81,-171.51 581.74,-162.1"/>
<polygon fill="midnightblue" stroke="midnightblue" points="584.75,-163.9 587.12,-153.58 578.83,-160.17 584.75,-163.9"/>
</g>
<!-- Node25&#45;&gt;Node18 -->
<g id="edge34" class="edge">
<title>Node25&#45;&gt;Node18</title>
<path fill="none" stroke="midnightblue" d="M657.71,-123.48C711.82,-111.18 789.2,-93.59 837.47,-82.62"/>
<polygon fill="midnightblue" stroke="midnightblue" points="838.34,-86.01 847.31,-80.38 836.79,-79.19 838.34,-86.01"/>
</g>
<!-- Node26 -->
<g id="node26" class="node">
<title>Node26</title>
<g id="a_node26"><a xlink:href="_write_event_receiver_8h.html" target="_top" xlink:title=" ">
<polygon fill="white" stroke="black" points="532,-62 532,-81 660,-81 660,-62 532,-62"/>
<text text-anchor="middle" x="596" y="-69" font-family="Helvetica,sans-Serif" font-size="10.00">net/WriteEventReceiver.h</text>
</a>
</g>
</g>
<!-- Node25&#45;&gt;Node26 -->
<g id="edge35" class="edge">
<title>Node25&#45;&gt;Node26</title>
<path fill="none" stroke="midnightblue" d="M596,-123.4C596,-114.06 596,-101.71 596,-91.52"/>
<polygon fill="midnightblue" stroke="midnightblue" points="599.5,-91.19 596,-81.19 592.5,-91.19 599.5,-91.19"/>
</g>
<!-- Node26&#45;&gt;Node13 -->
<g id="edge36" class="edge">
<title>Node26&#45;&gt;Node13</title>
<path fill="none" stroke="midnightblue" d="M596,-61.98C596,-53.58 596,-40.48 596,-29.66"/>
<polygon fill="midnightblue" stroke="midnightblue" points="599.5,-29.51 596,-19.51 592.5,-29.51 599.5,-29.51"/>
</g>
<!-- Node27&#45;&gt;Node9 -->
<g id="edge43" class="edge">
<title>Node27&#45;&gt;Node9</title>
<path fill="none" stroke="midnightblue" d="M355.08,-458.4C374.65,-448.9 400.68,-436.28 421.91,-425.98"/>
<polygon fill="midnightblue" stroke="midnightblue" points="423.51,-429.09 430.98,-421.58 420.46,-422.79 423.51,-429.09"/>
</g>
<!-- Node28 -->
<g id="node28" class="node">
<title>Node28</title>
<g id="a_node28"><a xlink:href="socket_2ip_2tcp_2ipv6_2_socket_8h.html" target="_top" xlink:title=" ">
<polygon fill="white" stroke="black" points="132,-257.5 132,-287.5 242,-287.5 242,-257.5 132,-257.5"/>
<text text-anchor="start" x="140" y="-275.5" font-family="Helvetica,sans-Serif" font-size="10.00">net/socket/ip/tcp/ipv6</text>
<text text-anchor="middle" x="187" y="-264.5" font-family="Helvetica,sans-Serif" font-size="10.00">/Socket.h</text>
</a>
</g>
</g>
<!-- Node27&#45;&gt;Node28 -->
<g id="edge39" class="edge">
<title>Node27&#45;&gt;Node28</title>
<path fill="none" stroke="midnightblue" d="M316,-458.19C292.11,-423.98 231.54,-337.26 202.71,-295.99"/>
<polygon fill="midnightblue" stroke="midnightblue" points="205.5,-293.88 196.91,-287.68 199.76,-297.88 205.5,-293.88"/>
</g>
<!-- Node28&#45;&gt;Node4 -->
<g id="edge40" class="edge">
<title>Node28&#45;&gt;Node4</title>
<path fill="none" stroke="midnightblue" d="M213.26,-257.4C234.02,-246.24 262.8,-230.78 283.18,-219.83"/>
<polygon fill="midnightblue" stroke="midnightblue" points="285.01,-222.82 292.16,-215.01 281.7,-216.66 285.01,-222.82"/>
</g>
<!-- Node29 -->
<g id="node29" class="node">
<title>Node29</title>
<g id="a_node29"><a xlink:href="ipv6_2_inet_address_8h.html" target="_top" xlink:title=" ">
<polygon fill="white" stroke="black" points="0,-190.5 0,-220.5 110,-220.5 110,-190.5 0,-190.5"/>
<text text-anchor="start" x="8" y="-208.5" font-family="Helvetica,sans-Serif" font-size="10.00">net/socket/ip/address</text>
<text text-anchor="middle" x="55" y="-197.5" font-family="Helvetica,sans-Serif" font-size="10.00">/ipv6/InetAddress.h</text>
</a>
</g>
</g>
<!-- Node28&#45;&gt;Node29 -->
<g id="edge41" class="edge">
<title>Node28&#45;&gt;Node29</title>
<path fill="none" stroke="midnightblue" d="M158.36,-257.4C139.16,-247.94 113.67,-235.39 92.81,-225.12"/>
<polygon fill="midnightblue" stroke="midnightblue" points="94.1,-221.85 83.59,-220.58 91.01,-228.13 94.1,-221.85"/>
</g>
<!-- Node29&#45;&gt;Node6 -->
<g id="edge42" class="edge">
<title>Node29&#45;&gt;Node6</title>
<path fill="none" stroke="midnightblue" d="M81.47,-190.4C102.4,-179.24 131.43,-163.78 151.97,-152.83"/>
<polygon fill="midnightblue" stroke="midnightblue" points="153.85,-155.8 161.03,-148.01 150.56,-149.62 153.85,-155.8"/>
</g>
<!-- Node31 -->
<g id="node31" class="node">
<title>Node31</title>
<g id="a_node31"><a xlink:href="client_2_socket_context_8hpp.html" target="_top" xlink:title=" ">
<polygon fill="white" stroke="black" points="1204.5,-196 1204.5,-215 1371.5,-215 1371.5,-196 1204.5,-196"/>
<text text-anchor="middle" x="1288" y="-203" font-family="Helvetica,sans-Serif" font-size="10.00">web/http/client/SocketContext.hpp</text>
</a>
</g>
</g>
<!-- Node30&#45;&gt;Node31 -->
<g id="edge45" class="edge">
<title>Node30&#45;&gt;Node31</title>
<path fill="none" stroke="midnightblue" d="M1135.37,-262.87C1166.09,-251.52 1220.24,-231.52 1255.1,-218.65"/>
<polygon fill="midnightblue" stroke="midnightblue" points="1256.64,-221.81 1264.81,-215.06 1254.22,-215.24 1256.64,-221.81"/>
</g>
<!-- Node40 -->
<g id="node40" class="node">
<title>Node40</title>
<g id="a_node40"><a xlink:href="web_2http_2client_2_socket_context_factory_8h.html" target="_top" xlink:title=" ">
<polygon fill="white" stroke="black" points="1037.5,-190.5 1037.5,-220.5 1186.5,-220.5 1186.5,-190.5 1037.5,-190.5"/>
<text text-anchor="start" x="1045.5" y="-208.5" font-family="Helvetica,sans-Serif" font-size="10.00">web/http/client/SocketContext</text>
<text text-anchor="middle" x="1112" y="-197.5" font-family="Helvetica,sans-Serif" font-size="10.00">Factory.h</text>
</a>
</g>
</g>
<!-- Node30&#45;&gt;Node40 -->
<g id="edge58" class="edge">
<title>Node30&#45;&gt;Node40</title>
<path fill="none" stroke="midnightblue" d="M1112,-262.73C1112,-254.54 1112,-241.92 1112,-230.71"/>
<polygon fill="midnightblue" stroke="midnightblue" points="1115.5,-230.59 1112,-220.59 1108.5,-230.59 1115.5,-230.59"/>
</g>
<!-- Node31&#45;&gt;Node18 -->
<g id="edge46" class="edge">
<title>Node31&#45;&gt;Node18</title>
<path fill="none" stroke="midnightblue" d="M1277.62,-195.92C1252.56,-175.22 1190.61,-124.15 1188,-123 1088.52,-79.08 1052.88,-107.03 946,-87 939.75,-85.83 933.19,-84.48 926.75,-83.09"/>
<polygon fill="midnightblue" stroke="midnightblue" points="927.3,-79.62 916.78,-80.88 925.78,-86.46 927.3,-79.62"/>
</g>
<!-- Node31&#45;&gt;Node19 -->
<g id="edge47" class="edge">
<title>Node31&#45;&gt;Node19</title>
<path fill="none" stroke="midnightblue" d="M1264.89,-195.87C1238.56,-186.03 1194.81,-169.69 1161.19,-157.13"/>
<polygon fill="midnightblue" stroke="midnightblue" points="1162.14,-153.75 1151.55,-153.53 1159.69,-160.31 1162.14,-153.75"/>
</g>
<!-- Node32 -->
<g id="node32" class="node">
<title>Node32</title>
<g id="a_node32"><a xlink:href="web_2http_2client_2_socket_context_8h.html" target="_top" xlink:title=" ">
<polygon fill="white" stroke="black" points="1235.5,-129 1235.5,-148 1392.5,-148 1392.5,-129 1235.5,-129"/>
<text text-anchor="middle" x="1314" y="-136" font-family="Helvetica,sans-Serif" font-size="10.00">web/http/client/SocketContext.h</text>
</a>
</g>
</g>
<!-- Node31&#45;&gt;Node32 -->
<g id="edge48" class="edge">
<title>Node31&#45;&gt;Node32</title>
<path fill="none" stroke="midnightblue" d="M1291.51,-195.73C1295.4,-185.99 1301.81,-169.98 1306.79,-157.53"/>
<polygon fill="midnightblue" stroke="midnightblue" points="1310.08,-158.71 1310.55,-148.13 1303.59,-156.11 1310.08,-158.71"/>
</g>
<!-- Node32&#45;&gt;Node20 -->
<g id="edge49" class="edge">
<title>Node32&#45;&gt;Node20</title>
<path fill="none" stroke="midnightblue" d="M1275.13,-128.94C1228.84,-118.74 1150.51,-101.48 1092.64,-88.72"/>
<polygon fill="midnightblue" stroke="midnightblue" points="1093.33,-85.29 1082.81,-86.56 1091.82,-92.13 1093.33,-85.29"/>
</g>
<!-- Node33 -->
<g id="node33" class="node">
<title>Node33</title>
<g id="a_node33"><a xlink:href="_cookie_options_8h.html" target="_top" xlink:title=" ">
<polygon fill="white" stroke="black" points="1259,-0.5 1259,-19.5 1389,-19.5 1389,-0.5 1259,-0.5"/>
<text text-anchor="middle" x="1324" y="-7.5" font-family="Helvetica,sans-Serif" font-size="10.00">web/http/CookieOptions.h</text>
</a>
</g>
</g>
<!-- Node32&#45;&gt;Node33 -->
<g id="edge50" class="edge">
<title>Node32&#45;&gt;Node33</title>
<path fill="none" stroke="midnightblue" d="M1339.28,-128.93C1357.82,-121.15 1381.66,-107.7 1393,-87 1399.62,-74.92 1399.56,-68.11 1393,-56 1385.25,-41.7 1370.77,-31.22 1357.06,-23.99"/>
<polygon fill="midnightblue" stroke="midnightblue" points="1358.31,-20.71 1347.79,-19.5 1355.26,-27.01 1358.31,-20.71"/>
</g>
<!-- Node34 -->
<g id="node34" class="node">
<title>Node34</title>
<g id="a_node34"><a xlink:href="web_2http_2client_2_request_8h.html" target="_top" xlink:title=" ">
<polygon fill="white" stroke="black" points="1440,-62 1440,-81 1568,-81 1568,-62 1440,-62"/>
<text text-anchor="middle" x="1504" y="-69" font-family="Helvetica,sans-Serif" font-size="10.00">web/http/client/Request.h</text>
</a>
</g>
</g>
<!-- Node32&#45;&gt;Node34 -->
<g id="edge51" class="edge">
<title>Node32&#45;&gt;Node34</title>
<path fill="none" stroke="midnightblue" d="M1339.23,-128.87C1372.68,-117.42 1431.86,-97.18 1469.44,-84.32"/>
<polygon fill="midnightblue" stroke="midnightblue" points="1470.64,-87.61 1478.97,-81.06 1468.37,-80.99 1470.64,-87.61"/>
</g>
<!-- Node37 -->
<g id="node37" class="node">
<title>Node37</title>
<g id="a_node37"><a xlink:href="web_2http_2client_2_response_8h.html" target="_top" xlink:title=" ">
<polygon fill="white" stroke="black" points="1248,-62 1248,-81 1384,-81 1384,-62 1248,-62"/>
<text text-anchor="middle" x="1316" y="-69" font-family="Helvetica,sans-Serif" font-size="10.00">web/http/client/Response.h</text>
</a>
</g>
</g>
<!-- Node32&#45;&gt;Node37 -->
<g id="edge54" class="edge">
<title>Node32&#45;&gt;Node37</title>
<path fill="none" stroke="midnightblue" d="M1314.27,-128.73C1314.56,-119.18 1315.04,-103.62 1315.42,-91.28"/>
<polygon fill="midnightblue" stroke="midnightblue" points="1318.93,-91.23 1315.73,-81.13 1311.93,-91.01 1318.93,-91.23"/>
</g>
<!-- Node38 -->
<g id="node38" class="node">
<title>Node38</title>
<g id="a_node38"><a xlink:href="_response_parser_8h.html" target="_top" xlink:title=" ">
<polygon fill="white" stroke="black" points="1102,-56.5 1102,-86.5 1230,-86.5 1230,-56.5 1102,-56.5"/>
<text text-anchor="start" x="1110" y="-74.5" font-family="Helvetica,sans-Serif" font-size="10.00">web/http/client/Response</text>
<text text-anchor="middle" x="1166" y="-63.5" font-family="Helvetica,sans-Serif" font-size="10.00">Parser.h</text>
</a>
</g>
</g>
<!-- Node32&#45;&gt;Node38 -->
<g id="edge55" class="edge">
<title>Node32&#45;&gt;Node38</title>
<path fill="none" stroke="midnightblue" d="M1294.35,-128.87C1272.23,-119.16 1235.69,-103.11 1207.25,-90.61"/>
<polygon fill="midnightblue" stroke="midnightblue" points="1208.5,-87.34 1197.94,-86.53 1205.69,-93.75 1208.5,-87.34"/>
</g>
<!-- Node35 -->
<g id="node35" class="node">
<title>Node35</title>
<g id="a_node35"><a xlink:href="_sink_8h.html" target="_top" xlink:title=" ">
<polygon fill="white" stroke="black" points="1577,-0.5 1577,-19.5 1659,-19.5 1659,-0.5 1577,-0.5"/>
<text text-anchor="middle" x="1618" y="-7.5" font-family="Helvetica,sans-Serif" font-size="10.00">net/pipe/Sink.h</text>
</a>
</g>
</g>
<!-- Node34&#45;&gt;Node35 -->
<g id="edge52" class="edge">
<title>Node34&#45;&gt;Node35</title>
<path fill="none" stroke="midnightblue" d="M1520.33,-61.98C1539.21,-52.12 1570.51,-35.79 1592.58,-24.27"/>
<polygon fill="midnightblue" stroke="midnightblue" points="1594.45,-27.24 1601.7,-19.51 1591.21,-21.03 1594.45,-27.24"/>
</g>
<!-- Node36 -->
<g id="node36" class="node">
<title>Node36</title>
<g id="a_node36"><a xlink:href="_connection_state_8h.html" target="_top" xlink:title=" ">
<polygon fill="white" stroke="black" points="1421,-0.5 1421,-19.5 1559,-19.5 1559,-0.5 1421,-0.5"/>
<text text-anchor="middle" x="1490" y="-7.5" font-family="Helvetica,sans-Serif" font-size="10.00">web/http/ConnectionState.h</text>
</a>
</g>
</g>
<!-- Node34&#45;&gt;Node36 -->
<g id="edge53" class="edge">
<title>Node34&#45;&gt;Node36</title>
<path fill="none" stroke="midnightblue" d="M1501.99,-61.98C1500,-53.49 1496.87,-40.2 1494.31,-29.32"/>
<polygon fill="midnightblue" stroke="midnightblue" points="1497.7,-28.44 1492,-19.51 1490.89,-30.04 1497.7,-28.44"/>
</g>
<!-- Node38&#45;&gt;Node33 -->
<g id="edge56" class="edge">
<title>Node38&#45;&gt;Node33</title>
<path fill="none" stroke="midnightblue" d="M1203.44,-56.4C1230.19,-46.33 1265.82,-32.91 1291.4,-23.28"/>
<polygon fill="midnightblue" stroke="midnightblue" points="1292.88,-26.46 1301.01,-19.66 1290.42,-19.91 1292.88,-26.46"/>
</g>
<!-- Node39 -->
<g id="node39" class="node">
<title>Node39</title>
<g id="a_node39"><a xlink:href="_parser_8h.html" target="_top" xlink:title=" ">
<polygon fill="white" stroke="black" points="1119.5,-0.5 1119.5,-19.5 1212.5,-19.5 1212.5,-0.5 1119.5,-0.5"/>
<text text-anchor="middle" x="1166" y="-7.5" font-family="Helvetica,sans-Serif" font-size="10.00">web/http/Parser.h</text>
</a>
</g>
</g>
<!-- Node38&#45;&gt;Node39 -->
<g id="edge57" class="edge">
<title>Node38&#45;&gt;Node39</title>
<path fill="none" stroke="midnightblue" d="M1166,-56.4C1166,-48.47 1166,-38.46 1166,-29.86"/>
<polygon fill="midnightblue" stroke="midnightblue" points="1169.5,-29.66 1166,-19.66 1162.5,-29.66 1169.5,-29.66"/>
</g>
<!-- Node40&#45;&gt;Node14 -->
<g id="edge60" class="edge">
<title>Node40&#45;&gt;Node14</title>
<path fill="none" stroke="midnightblue" d="M1064.1,-190.48C1030.08,-180.51 984.22,-167.09 948.1,-156.51"/>
<polygon fill="midnightblue" stroke="midnightblue" points="948.77,-153.06 938.19,-153.61 946.81,-159.78 948.77,-153.06"/>
</g>
<!-- Node40&#45;&gt;Node19 -->
<g id="edge59" class="edge">
<title>Node40&#45;&gt;Node19</title>
<path fill="none" stroke="midnightblue" d="M1112.43,-190.4C1112.67,-182.64 1112.98,-172.81 1113.25,-163.86"/>
<polygon fill="midnightblue" stroke="midnightblue" points="1116.76,-163.68 1113.57,-153.58 1109.76,-163.46 1116.76,-163.68"/>
</g>
<!-- Node40&#45;&gt;Node32 -->
<g id="edge61" class="edge">
<title>Node40&#45;&gt;Node32</title>
<path fill="none" stroke="midnightblue" d="M1155.83,-190.4C1192.37,-178.64 1243.8,-162.09 1277.98,-151.09"/>
<polygon fill="midnightblue" stroke="midnightblue" points="1279.12,-154.4 1287.56,-148.01 1276.97,-147.74 1279.12,-154.4"/>
</g>
</g>
</svg>
