<?xml version="1.0" encoding="UTF-8" standalone="no"?>
<!DOCTYPE svg PUBLIC "-//W3C//DTD SVG 1.1//EN"
 "http://www.w3.org/Graphics/SVG/1.1/DTD/svg11.dtd">
<!-- Generated by graphviz version 2.43.0 (0)
 -->
<!-- Title: http/legacy/Server.h Pages: 1 -->
<svg width="1100pt" height="542pt"
 viewBox="0.00 0.00 1100.00 542.00" xmlns="http://www.w3.org/2000/svg" xmlns:xlink="http://www.w3.org/1999/xlink">
<g id="graph0" class="graph" transform="scale(1 1) rotate(0) translate(4 538)">
<title>http/legacy/Server.h</title>
<polygon fill="white" stroke="transparent" points="-4,4 -4,-538 1096,-538 1096,4 -4,4"/>
<!-- Node1 -->
<g id="node1" class="node">
<title>Node1</title>
<g id="a_node1"><a xlink:title=" ">
<polygon fill="#bfbfbf" stroke="black" points="592.5,-514.5 592.5,-533.5 696.5,-533.5 696.5,-514.5 592.5,-514.5"/>
<text text-anchor="middle" x="644.5" y="-521.5" font-family="Helvetica,sans-Serif" font-size="10.00">http/legacy/Server.h</text>
</a>
</g>
</g>
<!-- Node2 -->
<g id="node2" class="node">
<title>Node2</title>
<g id="a_node2"><a xlink:href="_server_8h.html" target="_top" xlink:title=" ">
<polygon fill="white" stroke="black" points="368.5,-319 368.5,-338 430.5,-338 430.5,-319 368.5,-319"/>
<text text-anchor="middle" x="399.5" y="-326" font-family="Helvetica,sans-Serif" font-size="10.00">../Server.h</text>
</a>
</g>
</g>
<!-- Node1&#45;&gt;Node2 -->
<g id="edge1" class="edge">
<title>Node1&#45;&gt;Node2</title>
<path fill="none" stroke="midnightblue" d="M630.64,-514.48C616.67,-505.74 594.65,-491.55 576.5,-478 515.68,-432.59 448.08,-373.19 416.94,-345.28"/>
<polygon fill="midnightblue" stroke="midnightblue" points="418.93,-342.37 409.16,-338.28 414.25,-347.57 418.93,-342.37"/>
</g>
<!-- Node16 -->
<g id="node16" class="node">
<title>Node16</title>
<g id="a_node16"><a xlink:href="ip_2tcp_2ipv4_2legacy_2_socket_server_8h.html" target="_top" xlink:title=" ">
<polygon fill="white" stroke="black" points="585.5,-447.5 585.5,-477.5 703.5,-477.5 703.5,-447.5 585.5,-447.5"/>
<text text-anchor="start" x="593.5" y="-465.5" font-family="Helvetica,sans-Serif" font-size="10.00">socket/ip/tcp/ipv4</text>
<text text-anchor="middle" x="644.5" y="-454.5" font-family="Helvetica,sans-Serif" font-size="10.00">/legacy/SocketServer.h</text>
</a>
</g>
</g>
<!-- Node1&#45;&gt;Node16 -->
<g id="edge20" class="edge">
<title>Node1&#45;&gt;Node16</title>
<path fill="none" stroke="midnightblue" d="M644.5,-514.48C644.5,-507.47 644.5,-497.19 644.5,-487.7"/>
<polygon fill="midnightblue" stroke="midnightblue" points="648,-487.52 644.5,-477.52 641,-487.52 648,-487.52"/>
</g>
<!-- Node36 -->
<g id="node36" class="node">
<title>Node36</title>
<g id="a_node36"><a xlink:href="ip_2tcp_2ipv6_2legacy_2_socket_server_8h.html" target="_top" xlink:title=" ">
<polygon fill="white" stroke="black" points="727.5,-447.5 727.5,-477.5 845.5,-477.5 845.5,-447.5 727.5,-447.5"/>
<text text-anchor="start" x="735.5" y="-465.5" font-family="Helvetica,sans-Serif" font-size="10.00">socket/ip/tcp/ipv6</text>
<text text-anchor="middle" x="786.5" y="-454.5" font-family="Helvetica,sans-Serif" font-size="10.00">/legacy/SocketServer.h</text>
</a>
</g>
</g>
<!-- Node1&#45;&gt;Node36 -->
<g id="edge49" class="edge">
<title>Node1&#45;&gt;Node36</title>
<path fill="none" stroke="midnightblue" d="M664.85,-514.48C685.34,-505.89 717.57,-492.38 743.71,-481.43"/>
<polygon fill="midnightblue" stroke="midnightblue" points="745.16,-484.62 753.03,-477.52 742.46,-478.16 745.16,-484.62"/>
</g>
<!-- Node3 -->
<g id="node3" class="node">
<title>Node3</title>
<g id="a_node3"><a xlink:href="http_2_request_8h.html" target="_top" xlink:title=" ">
<polygon fill="white" stroke="black" points="403.5,-118 403.5,-137 465.5,-137 465.5,-118 403.5,-118"/>
<text text-anchor="middle" x="434.5" y="-125" font-family="Helvetica,sans-Serif" font-size="10.00">Request.h</text>
</a>
</g>
</g>
<!-- Node2&#45;&gt;Node3 -->
<g id="edge2" class="edge">
<title>Node2&#45;&gt;Node3</title>
<path fill="none" stroke="midnightblue" d="M413.88,-318.98C426.98,-310.29 445.48,-295.49 453.5,-277 472.58,-233.04 454.32,-175.38 442.61,-146.55"/>
<polygon fill="midnightblue" stroke="midnightblue" points="445.82,-145.14 438.68,-137.31 439.38,-147.89 445.82,-145.14"/>
</g>
<!-- Node6 -->
<g id="node6" class="node">
<title>Node6</title>
<g id="a_node6"><a xlink:href="http_2_response_8h.html" target="_top" xlink:title=" ">
<polygon fill="white" stroke="black" points="141,-118 141,-137 210,-137 210,-118 141,-118"/>
<text text-anchor="middle" x="175.5" y="-125" font-family="Helvetica,sans-Serif" font-size="10.00">Response.h</text>
</a>
</g>
</g>
<!-- Node2&#45;&gt;Node6 -->
<g id="edge5" class="edge">
<title>Node2&#45;&gt;Node6</title>
<path fill="none" stroke="midnightblue" d="M368.31,-319.73C320.83,-306.15 231.33,-273.32 187.5,-210 174.68,-191.48 173.09,-164.9 173.77,-147.19"/>
<polygon fill="midnightblue" stroke="midnightblue" points="177.27,-147.21 174.44,-137 170.29,-146.75 177.27,-147.21"/>
</g>
<!-- Node9 -->
<g id="node9" class="node">
<title>Node9</title>
<g id="a_node9"><a xlink:href="_server_context_8hpp.html" target="_top" xlink:title=" ">
<polygon fill="white" stroke="black" points="346.5,-252 346.5,-271 444.5,-271 444.5,-252 346.5,-252"/>
<text text-anchor="middle" x="395.5" y="-259" font-family="Helvetica,sans-Serif" font-size="10.00">ServerContext.hpp</text>
</a>
</g>
</g>
<!-- Node2&#45;&gt;Node9 -->
<g id="edge9" class="edge">
<title>Node2&#45;&gt;Node9</title>
<path fill="none" stroke="midnightblue" d="M398.96,-318.73C398.37,-309.18 397.41,-293.62 396.66,-281.28"/>
<polygon fill="midnightblue" stroke="midnightblue" points="400.14,-280.89 396.03,-271.13 393.15,-281.32 400.14,-280.89"/>
</g>
<!-- Node4 -->
<g id="node4" class="node">
<title>Node4</title>
<g id="a_node4"><a xlink:href="_attribute_injector_8h.html" target="_top" xlink:title=" ">
<polygon fill="white" stroke="black" points="477,-56.5 477,-75.5 570,-75.5 570,-56.5 477,-56.5"/>
<text text-anchor="middle" x="523.5" y="-63.5" font-family="Helvetica,sans-Serif" font-size="10.00">AttributeInjector.h</text>
</a>
</g>
</g>
<!-- Node3&#45;&gt;Node4 -->
<g id="edge3" class="edge">
<title>Node3&#45;&gt;Node4</title>
<path fill="none" stroke="midnightblue" d="M447.25,-117.98C461.53,-108.43 484.9,-92.81 502.01,-81.37"/>
<polygon fill="midnightblue" stroke="midnightblue" points="504.4,-83.98 510.77,-75.51 500.51,-78.16 504.4,-83.98"/>
</g>
<!-- Node5 -->
<g id="node5" class="node">
<title>Node5</title>
<g id="a_node5"><a xlink:href="_connection_state_8h.html" target="_top" xlink:title=" ">
<polygon fill="white" stroke="black" points="326.5,-56.5 326.5,-75.5 424.5,-75.5 424.5,-56.5 326.5,-56.5"/>
<text text-anchor="middle" x="375.5" y="-63.5" font-family="Helvetica,sans-Serif" font-size="10.00">ConnectionState.h</text>
</a>
</g>
</g>
<!-- Node3&#45;&gt;Node5 -->
<g id="edge4" class="edge">
<title>Node3&#45;&gt;Node5</title>
<path fill="none" stroke="midnightblue" d="M426.05,-117.98C416.93,-108.78 402.23,-93.96 391.02,-82.66"/>
<polygon fill="midnightblue" stroke="midnightblue" points="393.46,-80.15 383.94,-75.51 388.49,-85.07 393.46,-80.15"/>
</g>
<!-- Node6&#45;&gt;Node5 -->
<g id="edge6" class="edge">
<title>Node6&#45;&gt;Node5</title>
<path fill="none" stroke="midnightblue" d="M200.45,-117.87C206.35,-115.89 212.63,-113.83 218.5,-112 257.58,-99.82 302.52,-87.06 334.27,-78.26"/>
<polygon fill="midnightblue" stroke="midnightblue" points="335.39,-81.58 344.1,-75.54 333.53,-74.83 335.39,-81.58"/>
</g>
<!-- Node7 -->
<g id="node7" class="node">
<title>Node7</title>
<g id="a_node7"><a xlink:href="_cookie_options_8h.html" target="_top" xlink:title=" ">
<polygon fill="white" stroke="black" points="135,-56.5 135,-75.5 224,-75.5 224,-56.5 135,-56.5"/>
<text text-anchor="middle" x="179.5" y="-63.5" font-family="Helvetica,sans-Serif" font-size="10.00">CookieOptions.h</text>
</a>
</g>
</g>
<!-- Node6&#45;&gt;Node7 -->
<g id="edge7" class="edge">
<title>Node6&#45;&gt;Node7</title>
<path fill="none" stroke="midnightblue" d="M176.07,-117.98C176.64,-109.58 177.52,-96.48 178.25,-85.66"/>
<polygon fill="midnightblue" stroke="midnightblue" points="181.75,-85.72 178.93,-75.51 174.76,-85.25 181.75,-85.72"/>
</g>
<!-- Node8 -->
<g id="node8" class="node">
<title>Node8</title>
<g id="a_node8"><a xlink:href="_write_stream_8h.html" target="_top" xlink:title=" ">
<polygon fill="white" stroke="black" points="0,-56.5 0,-75.5 117,-75.5 117,-56.5 0,-56.5"/>
<text text-anchor="middle" x="58.5" y="-63.5" font-family="Helvetica,sans-Serif" font-size="10.00">streams/WriteStream.h</text>
</a>
</g>
</g>
<!-- Node6&#45;&gt;Node8 -->
<g id="edge8" class="edge">
<title>Node6&#45;&gt;Node8</title>
<path fill="none" stroke="midnightblue" d="M158.74,-117.98C139.28,-108.08 106.95,-91.64 84.29,-80.12"/>
<polygon fill="midnightblue" stroke="midnightblue" points="85.73,-76.92 75.23,-75.51 82.56,-83.16 85.73,-76.92"/>
</g>
<!-- Node9&#45;&gt;Node5 -->
<g id="edge10" class="edge">
<title>Node9&#45;&gt;Node5</title>
<path fill="none" stroke="midnightblue" d="M394.61,-251.94C391.6,-222.79 381.7,-126.97 377.46,-85.93"/>
<polygon fill="midnightblue" stroke="midnightblue" points="380.93,-85.49 376.42,-75.91 373.97,-86.21 380.93,-85.49"/>
</g>
<!-- Node10 -->
<g id="node10" class="node">
<title>Node10</title>
<g id="a_node10"><a xlink:href="_logger_8h.html" target="_top" xlink:title=" ">
<polygon fill="white" stroke="black" points="735,-56.5 735,-75.5 788,-75.5 788,-56.5 735,-56.5"/>
<text text-anchor="middle" x="761.5" y="-63.5" font-family="Helvetica,sans-Serif" font-size="10.00">Logger.h</text>
</a>
</g>
</g>
<!-- Node9&#45;&gt;Node10 -->
<g id="edge11" class="edge">
<title>Node9&#45;&gt;Node10</title>
<path fill="none" stroke="midnightblue" d="M411,-251.99C429.14,-242.01 460.07,-224.92 486.5,-210 510.6,-196.4 515.77,-191.41 540.5,-179 576.44,-160.96 588.05,-161.97 623.5,-143 645.89,-131.02 649.44,-124.59 671.5,-112 691.86,-100.38 715.59,-88.59 733.58,-79.98"/>
<polygon fill="midnightblue" stroke="midnightblue" points="735.38,-83 742.92,-75.56 732.38,-76.68 735.38,-83"/>
</g>
<!-- Node11 -->
<g id="node11" class="node">
<title>Node11</title>
<g id="a_node11"><a xlink:href="_server_context_8h.html" target="_top" xlink:title=" ">
<polygon fill="white" stroke="black" points="196.5,-185 196.5,-204 284.5,-204 284.5,-185 196.5,-185"/>
<text text-anchor="middle" x="240.5" y="-192" font-family="Helvetica,sans-Serif" font-size="10.00">ServerContext.h</text>
</a>
</g>
</g>
<!-- Node9&#45;&gt;Node11 -->
<g id="edge12" class="edge">
<title>Node9&#45;&gt;Node11</title>
<path fill="none" stroke="midnightblue" d="M374.92,-251.87C348.17,-240.65 301.25,-220.98 270.53,-208.09"/>
<polygon fill="midnightblue" stroke="midnightblue" points="271.74,-204.81 261.17,-204.17 269.04,-211.26 271.74,-204.81"/>
</g>
<!-- Node14 -->
<g id="node14" class="node">
<title>Node14</title>
<g id="a_node14"><a xlink:href="http__utils_8h.html" target="_top" xlink:title=" ">
<polygon fill="white" stroke="black" points="303,-185 303,-204 368,-204 368,-185 303,-185"/>
<text text-anchor="middle" x="335.5" y="-192" font-family="Helvetica,sans-Serif" font-size="10.00">http_utils.h</text>
</a>
</g>
</g>
<!-- Node9&#45;&gt;Node14 -->
<g id="edge17" class="edge">
<title>Node9&#45;&gt;Node14</title>
<path fill="none" stroke="midnightblue" d="M387.41,-251.73C377.96,-241.5 362.14,-224.36 350.45,-211.69"/>
<polygon fill="midnightblue" stroke="midnightblue" points="352.82,-209.1 343.46,-204.13 347.67,-213.85 352.82,-209.1"/>
</g>
<!-- Node15 -->
<g id="node15" class="node">
<title>Node15</title>
<g id="a_node15"><a xlink:href="_socket_connection_base_8h.html" target="_top" xlink:title=" ">
<polygon fill="white" stroke="black" points="484,-112.5 484,-142.5 615,-142.5 615,-112.5 484,-112.5"/>
<text text-anchor="start" x="492" y="-130.5" font-family="Helvetica,sans-Serif" font-size="10.00">socket/sock_stream</text>
<text text-anchor="middle" x="549.5" y="-119.5" font-family="Helvetica,sans-Serif" font-size="10.00">/SocketConnectionBase.h</text>
</a>
</g>
</g>
<!-- Node9&#45;&gt;Node15 -->
<g id="edge18" class="edge">
<title>Node9&#45;&gt;Node15</title>
<path fill="none" stroke="midnightblue" d="M405.6,-251.84C429.64,-231.24 490.78,-178.83 525.12,-149.39"/>
<polygon fill="midnightblue" stroke="midnightblue" points="527.52,-151.95 532.84,-142.78 522.97,-146.63 527.52,-151.95"/>
</g>
<!-- Node11&#45;&gt;Node3 -->
<g id="edge13" class="edge">
<title>Node11&#45;&gt;Node3</title>
<path fill="none" stroke="midnightblue" d="M266.26,-184.87C300.42,-173.42 360.84,-153.18 399.21,-140.32"/>
<polygon fill="midnightblue" stroke="midnightblue" points="400.57,-143.56 408.94,-137.06 398.35,-136.92 400.57,-143.56"/>
</g>
<!-- Node11&#45;&gt;Node6 -->
<g id="edge16" class="edge">
<title>Node11&#45;&gt;Node6</title>
<path fill="none" stroke="midnightblue" d="M231.73,-184.73C221.4,-174.4 204.04,-157.04 191.33,-144.33"/>
<polygon fill="midnightblue" stroke="midnightblue" points="193.67,-141.72 184.13,-137.13 188.72,-146.67 193.67,-141.72"/>
</g>
<!-- Node12 -->
<g id="node12" class="node">
<title>Node12</title>
<g id="a_node12"><a xlink:href="_request_parser_8h.html" target="_top" xlink:title=" ">
<polygon fill="white" stroke="black" points="228,-118 228,-137 317,-137 317,-118 228,-118"/>
<text text-anchor="middle" x="272.5" y="-125" font-family="Helvetica,sans-Serif" font-size="10.00">RequestParser.h</text>
</a>
</g>
</g>
<!-- Node11&#45;&gt;Node12 -->
<g id="edge14" class="edge">
<title>Node11&#45;&gt;Node12</title>
<path fill="none" stroke="midnightblue" d="M244.82,-184.73C249.66,-174.89 257.65,-158.66 263.81,-146.16"/>
<polygon fill="midnightblue" stroke="midnightblue" points="266.98,-147.64 268.25,-137.13 260.7,-144.55 266.98,-147.64"/>
</g>
<!-- Node13 -->
<g id="node13" class="node">
<title>Node13</title>
<g id="a_node13"><a xlink:href="_parser_8h.html" target="_top" xlink:title=" ">
<polygon fill="white" stroke="black" points="246,-56.5 246,-75.5 299,-75.5 299,-56.5 246,-56.5"/>
<text text-anchor="middle" x="272.5" y="-63.5" font-family="Helvetica,sans-Serif" font-size="10.00">Parser.h</text>
</a>
</g>
</g>
<!-- Node12&#45;&gt;Node13 -->
<g id="edge15" class="edge">
<title>Node12&#45;&gt;Node13</title>
<path fill="none" stroke="midnightblue" d="M272.5,-117.98C272.5,-109.58 272.5,-96.48 272.5,-85.66"/>
<polygon fill="midnightblue" stroke="midnightblue" points="276,-85.51 272.5,-75.51 269,-85.51 276,-85.51"/>
</g>
<!-- Node15&#45;&gt;Node4 -->
<g id="edge19" class="edge">
<title>Node15&#45;&gt;Node4</title>
<path fill="none" stroke="midnightblue" d="M543.34,-112.4C539.76,-104.2 535.2,-93.78 531.36,-84.99"/>
<polygon fill="midnightblue" stroke="midnightblue" points="534.49,-83.42 527.28,-75.66 528.08,-86.22 534.49,-83.42"/>
</g>
<!-- Node17 -->
<g id="node17" class="node">
<title>Node17</title>
<g id="a_node17"><a xlink:href="ip_2tcp_2ipv4_2_socket_8h.html" target="_top" xlink:title=" ">
<polygon fill="white" stroke="black" points="586.5,-380.5 586.5,-410.5 680.5,-410.5 680.5,-380.5 586.5,-380.5"/>
<text text-anchor="start" x="594.5" y="-398.5" font-family="Helvetica,sans-Serif" font-size="10.00">socket/ip/tcp/ipv4</text>
<text text-anchor="middle" x="633.5" y="-387.5" font-family="Helvetica,sans-Serif" font-size="10.00">/Socket.h</text>
</a>
</g>
</g>
<!-- Node16&#45;&gt;Node17 -->
<g id="edge21" class="edge">
<title>Node16&#45;&gt;Node17</title>
<path fill="none" stroke="midnightblue" d="M642.11,-447.4C640.79,-439.56 639.1,-429.6 637.57,-420.57"/>
<polygon fill="midnightblue" stroke="midnightblue" points="641,-419.85 635.88,-410.58 634.1,-421.02 641,-419.85"/>
</g>
<!-- Node22 -->
<g id="node22" class="node">
<title>Node22</title>
<g id="a_node22"><a xlink:href="sock__stream_2legacy_2_socket_server_8h.html" target="_top" xlink:title=" ">
<polygon fill="white" stroke="black" points="868.5,-380.5 868.5,-410.5 986.5,-410.5 986.5,-380.5 868.5,-380.5"/>
<text text-anchor="start" x="876.5" y="-398.5" font-family="Helvetica,sans-Serif" font-size="10.00">socket/sock_stream</text>
<text text-anchor="middle" x="927.5" y="-387.5" font-family="Helvetica,sans-Serif" font-size="10.00">/legacy/SocketServer.h</text>
</a>
</g>
</g>
<!-- Node16&#45;&gt;Node22 -->
<g id="edge28" class="edge">
<title>Node16&#45;&gt;Node22</title>
<path fill="none" stroke="midnightblue" d="M703.83,-447.87C748.92,-437.52 811.05,-423.25 858.39,-412.37"/>
<polygon fill="midnightblue" stroke="midnightblue" points="859.29,-415.76 868.25,-410.11 857.72,-408.94 859.29,-415.76"/>
</g>
<!-- Node18 -->
<g id="node18" class="node">
<title>Node18</title>
<g id="a_node18"><a xlink:href="_descriptor_8h.html" target="_top" xlink:title=" ">
<polygon fill="white" stroke="black" points="688,-252 688,-271 757,-271 757,-252 688,-252"/>
<text text-anchor="middle" x="722.5" y="-259" font-family="Helvetica,sans-Serif" font-size="10.00">Descriptor.h</text>
</a>
</g>
</g>
<!-- Node17&#45;&gt;Node18 -->
<g id="edge22" class="edge">
<title>Node17&#45;&gt;Node18</title>
<path fill="none" stroke="midnightblue" d="M649.01,-380.48C659.08,-370.87 672.03,-357.45 681.5,-344 695.84,-323.62 708.04,-297.5 715.31,-280.4"/>
<polygon fill="midnightblue" stroke="midnightblue" points="718.59,-281.63 719.18,-271.05 712.13,-278.95 718.59,-281.63"/>
</g>
<!-- Node19 -->
<g id="node19" class="node">
<title>Node19</title>
<g id="a_node19"><a xlink:href="_socket_8h.html" target="_top" xlink:title=" ">
<polygon fill="white" stroke="black" points="584.5,-319 584.5,-338 672.5,-338 672.5,-319 584.5,-319"/>
<text text-anchor="middle" x="628.5" y="-326" font-family="Helvetica,sans-Serif" font-size="10.00">socket/Socket.h</text>
</a>
</g>
</g>
<!-- Node17&#45;&gt;Node19 -->
<g id="edge23" class="edge">
<title>Node17&#45;&gt;Node19</title>
<path fill="none" stroke="midnightblue" d="M632.42,-380.4C631.69,-370.96 630.73,-358.45 629.94,-348.19"/>
<polygon fill="midnightblue" stroke="midnightblue" points="633.43,-347.9 629.17,-338.19 626.45,-348.43 633.43,-347.9"/>
</g>
<!-- Node21 -->
<g id="node21" class="node">
<title>Node21</title>
<g id="a_node21"><a xlink:href="ipv4_2_inet_address_8h.html" target="_top" xlink:title=" ">
<polygon fill="white" stroke="black" points="451,-313.5 451,-343.5 566,-343.5 566,-313.5 451,-313.5"/>
<text text-anchor="start" x="459" y="-331.5" font-family="Helvetica,sans-Serif" font-size="10.00">socket/ip/address/ipv4</text>
<text text-anchor="middle" x="508.5" y="-320.5" font-family="Helvetica,sans-Serif" font-size="10.00">/InetAddress.h</text>
</a>
</g>
</g>
<!-- Node17&#45;&gt;Node21 -->
<g id="edge26" class="edge">
<title>Node17&#45;&gt;Node21</title>
<path fill="none" stroke="midnightblue" d="M606.38,-380.4C588.28,-370.98 564.27,-358.5 544.57,-348.26"/>
<polygon fill="midnightblue" stroke="midnightblue" points="546.06,-345.08 535.57,-343.58 542.83,-351.3 546.06,-345.08"/>
</g>
<!-- Node19&#45;&gt;Node18 -->
<g id="edge24" class="edge">
<title>Node19&#45;&gt;Node18</title>
<path fill="none" stroke="midnightblue" d="M641.18,-318.73C656.68,-308.01 683.14,-289.72 701.66,-276.91"/>
<polygon fill="midnightblue" stroke="midnightblue" points="703.79,-279.69 710.02,-271.13 699.81,-273.94 703.79,-279.69"/>
</g>
<!-- Node20 -->
<g id="node20" class="node">
<title>Node20</title>
<g id="a_node20"><a xlink:href="_socket_address_8h.html" target="_top" xlink:title=" ">
<polygon fill="white" stroke="black" points="545.5,-252 545.5,-271 669.5,-271 669.5,-252 545.5,-252"/>
<text text-anchor="middle" x="607.5" y="-259" font-family="Helvetica,sans-Serif" font-size="10.00">socket/SocketAddress.h</text>
</a>
</g>
</g>
<!-- Node19&#45;&gt;Node20 -->
<g id="edge25" class="edge">
<title>Node19&#45;&gt;Node20</title>
<path fill="none" stroke="midnightblue" d="M625.67,-318.73C622.55,-309.09 617.45,-293.3 613.45,-280.91"/>
<polygon fill="midnightblue" stroke="midnightblue" points="616.69,-279.57 610.29,-271.13 610.03,-281.72 616.69,-279.57"/>
</g>
<!-- Node21&#45;&gt;Node20 -->
<g id="edge27" class="edge">
<title>Node21&#45;&gt;Node20</title>
<path fill="none" stroke="midnightblue" d="M529.98,-313.4C546.58,-302.5 569.46,-287.48 586.05,-276.58"/>
<polygon fill="midnightblue" stroke="midnightblue" points="588.1,-279.42 594.54,-271.01 584.26,-273.57 588.1,-279.42"/>
</g>
<!-- Node23 -->
<g id="node23" class="node">
<title>Node23</title>
<g id="a_node23"><a xlink:href="legacy_2_socket_listener_8h.html" target="_top" xlink:title=" ">
<polygon fill="white" stroke="black" points="901,-319 901,-338 990,-338 990,-319 901,-319"/>
<text text-anchor="middle" x="945.5" y="-326" font-family="Helvetica,sans-Serif" font-size="10.00">SocketListener.h</text>
</a>
</g>
</g>
<!-- Node22&#45;&gt;Node23 -->
<g id="edge29" class="edge">
<title>Node22&#45;&gt;Node23</title>
<path fill="none" stroke="midnightblue" d="M931.41,-380.4C934.05,-370.86 937.56,-358.18 940.42,-347.86"/>
<polygon fill="midnightblue" stroke="midnightblue" points="943.8,-348.77 943.09,-338.19 937.05,-346.9 943.8,-348.77"/>
</g>
<!-- Node35 -->
<g id="node35" class="node">
<title>Node35</title>
<g id="a_node35"><a xlink:href="sock__stream_2_socket_server_8h.html" target="_top" xlink:title=" ">
<polygon fill="white" stroke="black" points="987,-246.5 987,-276.5 1092,-276.5 1092,-246.5 987,-246.5"/>
<text text-anchor="start" x="995" y="-264.5" font-family="Helvetica,sans-Serif" font-size="10.00">socket/sock_stream</text>
<text text-anchor="middle" x="1039.5" y="-253.5" font-family="Helvetica,sans-Serif" font-size="10.00">/SocketServer.h</text>
</a>
</g>
</g>
<!-- Node22&#45;&gt;Node35 -->
<g id="edge47" class="edge">
<title>Node22&#45;&gt;Node35</title>
<path fill="none" stroke="midnightblue" d="M953.97,-380.39C968.8,-371.48 986.8,-358.85 999.5,-344 1014.15,-326.88 1024.91,-303.47 1031.56,-286.13"/>
<polygon fill="midnightblue" stroke="midnightblue" points="1034.85,-287.31 1034.99,-276.71 1028.28,-284.91 1034.85,-287.31"/>
</g>
<!-- Node24 -->
<g id="node24" class="node">
<title>Node24</title>
<g id="a_node24"><a xlink:href="legacy_2_socket_connection_8h.html" target="_top" xlink:title=" ">
<polygon fill="white" stroke="black" points="809,-252 809,-271 914,-271 914,-252 809,-252"/>
<text text-anchor="middle" x="861.5" y="-259" font-family="Helvetica,sans-Serif" font-size="10.00">SocketConnection.h</text>
</a>
</g>
</g>
<!-- Node23&#45;&gt;Node24 -->
<g id="edge30" class="edge">
<title>Node23&#45;&gt;Node24</title>
<path fill="none" stroke="midnightblue" d="M934.17,-318.73C920.44,-308.11 897.1,-290.05 880.58,-277.26"/>
<polygon fill="midnightblue" stroke="midnightblue" points="882.7,-274.48 872.65,-271.13 878.42,-280.02 882.7,-274.48"/>
</g>
<!-- Node33 -->
<g id="node33" class="node">
<title>Node33</title>
<g id="a_node33"><a xlink:href="_socket_listener_8h.html" target="_top" xlink:title=" ">
<polygon fill="white" stroke="black" points="933,-112.5 933,-142.5 1038,-142.5 1038,-112.5 933,-112.5"/>
<text text-anchor="start" x="941" y="-130.5" font-family="Helvetica,sans-Serif" font-size="10.00">socket/sock_stream</text>
<text text-anchor="middle" x="985.5" y="-119.5" font-family="Helvetica,sans-Serif" font-size="10.00">/SocketListener.h</text>
</a>
</g>
</g>
<!-- Node23&#45;&gt;Node33 -->
<g id="edge42" class="edge">
<title>Node23&#45;&gt;Node33</title>
<path fill="none" stroke="midnightblue" d="M947.22,-318.95C952.98,-290.29 971.74,-196.94 980.68,-152.47"/>
<polygon fill="midnightblue" stroke="midnightblue" points="984.14,-153.03 982.68,-142.53 977.28,-151.65 984.14,-153.03"/>
</g>
<!-- Node25 -->
<g id="node25" class="node">
<title>Node25</title>
<g id="a_node25"><a xlink:href="_socket_connection_8h.html" target="_top" xlink:title=" ">
<polygon fill="white" stroke="black" points="549.5,-179.5 549.5,-209.5 657.5,-209.5 657.5,-179.5 549.5,-179.5"/>
<text text-anchor="start" x="557.5" y="-197.5" font-family="Helvetica,sans-Serif" font-size="10.00">socket/sock_stream</text>
<text text-anchor="middle" x="603.5" y="-186.5" font-family="Helvetica,sans-Serif" font-size="10.00">/SocketConnection.h</text>
</a>
</g>
</g>
<!-- Node24&#45;&gt;Node25 -->
<g id="edge31" class="edge">
<title>Node24&#45;&gt;Node25</title>
<path fill="none" stroke="midnightblue" d="M827.51,-251.94C786.97,-241.72 718.35,-224.43 667.71,-211.68"/>
<polygon fill="midnightblue" stroke="midnightblue" points="668.39,-208.24 657.84,-209.19 666.68,-215.03 668.39,-208.24"/>
</g>
<!-- Node26 -->
<g id="node26" class="node">
<title>Node26</title>
<g id="a_node26"><a xlink:href="legacy_2_socket_reader_8h.html" target="_top" xlink:title=" ">
<polygon fill="white" stroke="black" points="809,-179.5 809,-209.5 930,-209.5 930,-179.5 809,-179.5"/>
<text text-anchor="start" x="817" y="-197.5" font-family="Helvetica,sans-Serif" font-size="10.00">socket/sock_stream</text>
<text text-anchor="middle" x="869.5" y="-186.5" font-family="Helvetica,sans-Serif" font-size="10.00">/legacy/SocketReader.h</text>
</a>
</g>
</g>
<!-- Node24&#45;&gt;Node26 -->
<g id="edge33" class="edge">
<title>Node24&#45;&gt;Node26</title>
<path fill="none" stroke="midnightblue" d="M862.58,-251.73C863.59,-243.54 865.14,-230.92 866.52,-219.71"/>
<polygon fill="midnightblue" stroke="midnightblue" points="870.02,-219.94 867.77,-209.59 863.07,-219.09 870.02,-219.94"/>
</g>
<!-- Node30 -->
<g id="node30" class="node">
<title>Node30</title>
<g id="a_node30"><a xlink:href="legacy_2_socket_writer_8h.html" target="_top" xlink:title=" ">
<polygon fill="white" stroke="black" points="676,-179.5 676,-209.5 791,-209.5 791,-179.5 676,-179.5"/>
<text text-anchor="start" x="684" y="-197.5" font-family="Helvetica,sans-Serif" font-size="10.00">socket/sock_stream</text>
<text text-anchor="middle" x="733.5" y="-186.5" font-family="Helvetica,sans-Serif" font-size="10.00">/legacy/SocketWriter.h</text>
</a>
</g>
</g>
<!-- Node24&#45;&gt;Node30 -->
<g id="edge37" class="edge">
<title>Node24&#45;&gt;Node30</title>
<path fill="none" stroke="midnightblue" d="M844.5,-251.87C825.69,-242.31 794.8,-226.63 770.37,-214.22"/>
<polygon fill="midnightblue" stroke="midnightblue" points="771.87,-211.06 761.37,-209.65 768.7,-217.3 771.87,-211.06"/>
</g>
<!-- Node25&#45;&gt;Node15 -->
<g id="edge32" class="edge">
<title>Node25&#45;&gt;Node15</title>
<path fill="none" stroke="midnightblue" d="M591.78,-179.4C584.78,-170.96 575.73,-160.07 567.79,-150.52"/>
<polygon fill="midnightblue" stroke="midnightblue" points="570.28,-148.03 561.19,-142.58 564.89,-152.51 570.28,-148.03"/>
</g>
<!-- Node27 -->
<g id="node27" class="node">
<title>Node27</title>
<g id="a_node27"><a xlink:href="_socket_reader_8h.html" target="_top" xlink:title=" ">
<polygon fill="white" stroke="black" points="810,-112.5 810,-142.5 915,-142.5 915,-112.5 810,-112.5"/>
<text text-anchor="start" x="818" y="-130.5" font-family="Helvetica,sans-Serif" font-size="10.00">socket/sock_stream</text>
<text text-anchor="middle" x="862.5" y="-119.5" font-family="Helvetica,sans-Serif" font-size="10.00">/SocketReader.h</text>
</a>
</g>
</g>
<!-- Node26&#45;&gt;Node27 -->
<g id="edge34" class="edge">
<title>Node26&#45;&gt;Node27</title>
<path fill="none" stroke="midnightblue" d="M867.98,-179.4C867.14,-171.56 866.06,-161.6 865.09,-152.57"/>
<polygon fill="midnightblue" stroke="midnightblue" points="868.57,-152.14 864.02,-142.58 861.61,-152.89 868.57,-152.14"/>
</g>
<!-- Node28 -->
<g id="node28" class="node">
<title>Node28</title>
<g id="a_node28"><a xlink:href="_read_event_receiver_8h.html" target="_top" xlink:title=" ">
<polygon fill="white" stroke="black" points="806.5,-56.5 806.5,-75.5 918.5,-75.5 918.5,-56.5 806.5,-56.5"/>
<text text-anchor="middle" x="862.5" y="-63.5" font-family="Helvetica,sans-Serif" font-size="10.00">ReadEventReceiver.h</text>
</a>
</g>
</g>
<!-- Node27&#45;&gt;Node28 -->
<g id="edge35" class="edge">
<title>Node27&#45;&gt;Node28</title>
<path fill="none" stroke="midnightblue" d="M862.5,-112.4C862.5,-104.47 862.5,-94.46 862.5,-85.86"/>
<polygon fill="midnightblue" stroke="midnightblue" points="866,-85.66 862.5,-75.66 859,-85.66 866,-85.66"/>
</g>
<!-- Node29 -->
<g id="node29" class="node">
<title>Node29</title>
<g id="a_node29"><a xlink:href="_event_receiver_8h.html" target="_top" xlink:title=" ">
<polygon fill="white" stroke="black" points="818,-0.5 818,-19.5 907,-19.5 907,-0.5 818,-0.5"/>
<text text-anchor="middle" x="862.5" y="-7.5" font-family="Helvetica,sans-Serif" font-size="10.00">EventReceiver.h</text>
</a>
</g>
</g>
<!-- Node28&#45;&gt;Node29 -->
<g id="edge36" class="edge">
<title>Node28&#45;&gt;Node29</title>
<path fill="none" stroke="midnightblue" d="M862.5,-56.08C862.5,-49.01 862.5,-38.86 862.5,-29.99"/>
<polygon fill="midnightblue" stroke="midnightblue" points="866,-29.75 862.5,-19.75 859,-29.75 866,-29.75"/>
</g>
<!-- Node31 -->
<g id="node31" class="node">
<title>Node31</title>
<g id="a_node31"><a xlink:href="_socket_writer_8h.html" target="_top" xlink:title=" ">
<polygon fill="white" stroke="black" points="681,-112.5 681,-142.5 786,-142.5 786,-112.5 681,-112.5"/>
<text text-anchor="start" x="689" y="-130.5" font-family="Helvetica,sans-Serif" font-size="10.00">socket/sock_stream</text>
<text text-anchor="middle" x="733.5" y="-119.5" font-family="Helvetica,sans-Serif" font-size="10.00">/SocketWriter.h</text>
</a>
</g>
</g>
<!-- Node30&#45;&gt;Node31 -->
<g id="edge38" class="edge">
<title>Node30&#45;&gt;Node31</title>
<path fill="none" stroke="midnightblue" d="M733.5,-179.4C733.5,-171.64 733.5,-161.81 733.5,-152.86"/>
<polygon fill="midnightblue" stroke="midnightblue" points="737,-152.58 733.5,-142.58 730,-152.58 737,-152.58"/>
</g>
<!-- Node31&#45;&gt;Node10 -->
<g id="edge39" class="edge">
<title>Node31&#45;&gt;Node10</title>
<path fill="none" stroke="midnightblue" d="M740.14,-112.4C744.04,-104.11 749,-93.55 753.17,-84.71"/>
<polygon fill="midnightblue" stroke="midnightblue" points="756.33,-86.2 757.43,-75.66 750,-83.22 756.33,-86.2"/>
</g>
<!-- Node32 -->
<g id="node32" class="node">
<title>Node32</title>
<g id="a_node32"><a xlink:href="_write_event_receiver_8h.html" target="_top" xlink:title=" ">
<polygon fill="white" stroke="black" points="606,-56.5 606,-75.5 717,-75.5 717,-56.5 606,-56.5"/>
<text text-anchor="middle" x="661.5" y="-63.5" font-family="Helvetica,sans-Serif" font-size="10.00">WriteEventReceiver.h</text>
</a>
</g>
</g>
<!-- Node31&#45;&gt;Node32 -->
<g id="edge40" class="edge">
<title>Node31&#45;&gt;Node32</title>
<path fill="none" stroke="midnightblue" d="M716.44,-112.4C705.44,-103.31 691.13,-91.49 679.88,-82.19"/>
<polygon fill="midnightblue" stroke="midnightblue" points="681.91,-79.33 671.98,-75.66 677.46,-84.73 681.91,-79.33"/>
</g>
<!-- Node32&#45;&gt;Node29 -->
<g id="edge41" class="edge">
<title>Node32&#45;&gt;Node29</title>
<path fill="none" stroke="midnightblue" d="M693.35,-56.44C727.9,-47.16 783.18,-32.31 821.08,-22.13"/>
<polygon fill="midnightblue" stroke="midnightblue" points="822.05,-25.49 830.8,-19.52 820.23,-18.73 822.05,-25.49"/>
</g>
<!-- Node33&#45;&gt;Node10 -->
<g id="edge45" class="edge">
<title>Node33&#45;&gt;Node10</title>
<path fill="none" stroke="midnightblue" d="M932.98,-112.55C891.49,-101.53 834.67,-86.43 798.01,-76.7"/>
<polygon fill="midnightblue" stroke="midnightblue" points="798.8,-73.29 788.24,-74.1 797.01,-80.05 798.8,-73.29"/>
</g>
<!-- Node33&#45;&gt;Node28 -->
<g id="edge46" class="edge">
<title>Node33&#45;&gt;Node28</title>
<path fill="none" stroke="midnightblue" d="M956.35,-112.4C936.08,-102.59 909.26,-89.62 889.48,-80.05"/>
<polygon fill="midnightblue" stroke="midnightblue" points="890.92,-76.86 880.4,-75.66 887.88,-83.16 890.92,-76.86"/>
</g>
<!-- Node34 -->
<g id="node34" class="node">
<title>Node34</title>
<g id="a_node34"><a xlink:href="_accept_event_receiver_8h.html" target="_top" xlink:title=" ">
<polygon fill="white" stroke="black" points="937,-56.5 937,-75.5 1056,-75.5 1056,-56.5 937,-56.5"/>
<text text-anchor="middle" x="996.5" y="-63.5" font-family="Helvetica,sans-Serif" font-size="10.00">AcceptEventReceiver.h</text>
</a>
</g>
</g>
<!-- Node33&#45;&gt;Node34 -->
<g id="edge43" class="edge">
<title>Node33&#45;&gt;Node34</title>
<path fill="none" stroke="midnightblue" d="M988.11,-112.4C989.59,-104.38 991.47,-94.23 993.07,-85.57"/>
<polygon fill="midnightblue" stroke="midnightblue" points="996.52,-86.13 994.9,-75.66 989.64,-84.85 996.52,-86.13"/>
</g>
<!-- Node34&#45;&gt;Node29 -->
<g id="edge44" class="edge">
<title>Node34&#45;&gt;Node29</title>
<path fill="none" stroke="midnightblue" d="M975.27,-56.44C953.12,-47.52 918.18,-33.44 893.06,-23.32"/>
<polygon fill="midnightblue" stroke="midnightblue" points="894.22,-20.01 883.63,-19.52 891.6,-26.5 894.22,-20.01"/>
</g>
<!-- Node35&#45;&gt;Node33 -->
<g id="edge48" class="edge">
<title>Node35&#45;&gt;Node33</title>
<path fill="none" stroke="midnightblue" d="M1033.72,-246.37C1024.5,-223.85 1006.38,-179.53 995.16,-152.12"/>
<polygon fill="midnightblue" stroke="midnightblue" points="998.26,-150.45 991.24,-142.52 991.78,-153.11 998.26,-150.45"/>
</g>
<!-- Node36&#45;&gt;Node22 -->
<g id="edge55" class="edge">
<title>Node36&#45;&gt;Node22</title>
<path fill="none" stroke="midnightblue" d="M817.09,-447.4C837.79,-437.86 865.32,-425.16 887.72,-414.84"/>
<polygon fill="midnightblue" stroke="midnightblue" points="889.35,-417.94 896.96,-410.58 886.42,-411.58 889.35,-417.94"/>
</g>
<!-- Node37 -->
<g id="node37" class="node">
<title>Node37</title>
<g id="a_node37"><a xlink:href="ip_2tcp_2ipv6_2_socket_8h.html" target="_top" xlink:title=" ">
<polygon fill="white" stroke="black" points="739.5,-380.5 739.5,-410.5 833.5,-410.5 833.5,-380.5 739.5,-380.5"/>
<text text-anchor="start" x="747.5" y="-398.5" font-family="Helvetica,sans-Serif" font-size="10.00">socket/ip/tcp/ipv6</text>
<text text-anchor="middle" x="786.5" y="-387.5" font-family="Helvetica,sans-Serif" font-size="10.00">/Socket.h</text>
</a>
</g>
</g>
<!-- Node36&#45;&gt;Node37 -->
<g id="edge50" class="edge">
<title>Node36&#45;&gt;Node37</title>
<path fill="none" stroke="midnightblue" d="M786.5,-447.4C786.5,-439.64 786.5,-429.81 786.5,-420.86"/>
<polygon fill="midnightblue" stroke="midnightblue" points="790,-420.58 786.5,-410.58 783,-420.58 790,-420.58"/>
</g>
<!-- Node37&#45;&gt;Node18 -->
<g id="edge51" class="edge">
<title>Node37&#45;&gt;Node18</title>
<path fill="none" stroke="midnightblue" d="M815.41,-380.45C829.35,-371.99 844.7,-359.78 852.5,-344 858.6,-331.65 860.28,-324.37 852.5,-313 842.29,-298.09 799.79,-283.4 766.13,-273.74"/>
<polygon fill="midnightblue" stroke="midnightblue" points="767.03,-270.36 756.46,-271.03 765.14,-277.1 767.03,-270.36"/>
</g>
<!-- Node37&#45;&gt;Node19 -->
<g id="edge52" class="edge">
<title>Node37&#45;&gt;Node19</title>
<path fill="none" stroke="midnightblue" d="M752.22,-380.4C724.37,-368.94 685.47,-352.94 658.77,-341.95"/>
<polygon fill="midnightblue" stroke="midnightblue" points="659.76,-338.57 649.18,-338.01 657.09,-345.05 659.76,-338.57"/>
</g>
<!-- Node38 -->
<g id="node38" class="node">
<title>Node38</title>
<g id="a_node38"><a xlink:href="ipv6_2_inet_address_8h.html" target="_top" xlink:title=" ">
<polygon fill="white" stroke="black" points="729,-313.5 729,-343.5 844,-343.5 844,-313.5 729,-313.5"/>
<text text-anchor="start" x="737" y="-331.5" font-family="Helvetica,sans-Serif" font-size="10.00">socket/ip/address/ipv6</text>
<text text-anchor="middle" x="786.5" y="-320.5" font-family="Helvetica,sans-Serif" font-size="10.00">/InetAddress.h</text>
</a>
</g>
</g>
<!-- Node37&#45;&gt;Node38 -->
<g id="edge53" class="edge">
<title>Node37&#45;&gt;Node38</title>
<path fill="none" stroke="midnightblue" d="M786.5,-380.4C786.5,-372.64 786.5,-362.81 786.5,-353.86"/>
<polygon fill="midnightblue" stroke="midnightblue" points="790,-353.58 786.5,-343.58 783,-353.58 790,-353.58"/>
</g>
<!-- Node38&#45;&gt;Node20 -->
<g id="edge54" class="edge">
<title>Node38&#45;&gt;Node20</title>
<path fill="none" stroke="midnightblue" d="M747.66,-313.4C715.7,-301.79 670.88,-285.51 640.6,-274.52"/>
<polygon fill="midnightblue" stroke="midnightblue" points="641.52,-271.13 630.93,-271.01 639.13,-277.71 641.52,-271.13"/>
</g>
</g>
</svg>
