<?xml version="1.0" encoding="UTF-8" standalone="no"?>
<!DOCTYPE svg PUBLIC "-//W3C//DTD SVG 1.1//EN"
 "http://www.w3.org/Graphics/SVG/1.1/DTD/svg11.dtd">
<!-- Generated by graphviz version 2.43.0 (0)
 -->
<!-- Title: http/legacy/Server.h Pages: 1 -->
<svg width="1549pt" height="531pt"
 viewBox="0.00 0.00 1549.00 531.00" xmlns="http://www.w3.org/2000/svg" xmlns:xlink="http://www.w3.org/1999/xlink">
<g id="graph0" class="graph" transform="scale(1 1) rotate(0) translate(4 527)">
<title>http/legacy/Server.h</title>
<polygon fill="white" stroke="transparent" points="-4,4 -4,-527 1545,-527 1545,4 -4,4"/>
<!-- Node1 -->
<g id="node1" class="node">
<title>Node1</title>
<g id="a_node1"><a xlink:title=" ">
<polygon fill="#bfbfbf" stroke="black" points="1076.5,-503.5 1076.5,-522.5 1180.5,-522.5 1180.5,-503.5 1076.5,-503.5"/>
<text text-anchor="middle" x="1128.5" y="-510.5" font-family="Helvetica,sans-Serif" font-size="10.00">http/legacy/Server.h</text>
</a>
</g>
</g>
<!-- Node2 -->
<g id="node2" class="node">
<title>Node2</title>
<g id="a_node2"><a xlink:href="_server_8h.html" target="_top" xlink:title=" ">
<polygon fill="white" stroke="black" points="402.5,-308 402.5,-327 464.5,-327 464.5,-308 402.5,-308"/>
<text text-anchor="middle" x="433.5" y="-315" font-family="Helvetica,sans-Serif" font-size="10.00">../Server.h</text>
</a>
</g>
</g>
<!-- Node1&#45;&gt;Node2 -->
<g id="edge1" class="edge">
<title>Node1&#45;&gt;Node2</title>
<path fill="none" stroke="midnightblue" d="M1097.74,-503.44C985.84,-472.28 600.37,-364.96 473.99,-329.77"/>
<polygon fill="midnightblue" stroke="midnightblue" points="474.87,-326.39 464.3,-327.07 472.99,-333.13 474.87,-326.39"/>
</g>
<!-- Node16 -->
<g id="node16" class="node">
<title>Node16</title>
<g id="a_node16"><a xlink:href="ip_2tcp_2ipv4_2legacy_2_socket_server_8h.html" target="_top" xlink:title=" ">
<polygon fill="white" stroke="black" points="1069.5,-436.5 1069.5,-466.5 1187.5,-466.5 1187.5,-436.5 1069.5,-436.5"/>
<text text-anchor="start" x="1077.5" y="-454.5" font-family="Helvetica,sans-Serif" font-size="10.00">socket/ip/tcp/ipv4</text>
<text text-anchor="middle" x="1128.5" y="-443.5" font-family="Helvetica,sans-Serif" font-size="10.00">/legacy/SocketServer.h</text>
</a>
</g>
</g>
<!-- Node1&#45;&gt;Node16 -->
<g id="edge20" class="edge">
<title>Node1&#45;&gt;Node16</title>
<path fill="none" stroke="midnightblue" d="M1128.5,-503.48C1128.5,-496.47 1128.5,-486.19 1128.5,-476.7"/>
<polygon fill="midnightblue" stroke="midnightblue" points="1132,-476.52 1128.5,-466.52 1125,-476.52 1132,-476.52"/>
</g>
<!-- Node36 -->
<g id="node36" class="node">
<title>Node36</title>
<g id="a_node36"><a xlink:href="ip_2tcp_2ipv6_2legacy_2_socket_server_8h.html" target="_top" xlink:title=" ">
<polygon fill="white" stroke="black" points="1205.5,-436.5 1205.5,-466.5 1323.5,-466.5 1323.5,-436.5 1205.5,-436.5"/>
<text text-anchor="start" x="1213.5" y="-454.5" font-family="Helvetica,sans-Serif" font-size="10.00">socket/ip/tcp/ipv6</text>
<text text-anchor="middle" x="1264.5" y="-443.5" font-family="Helvetica,sans-Serif" font-size="10.00">/legacy/SocketServer.h</text>
</a>
</g>
</g>
<!-- Node1&#45;&gt;Node36 -->
<g id="edge48" class="edge">
<title>Node1&#45;&gt;Node36</title>
<path fill="none" stroke="midnightblue" d="M1147.99,-503.48C1167.52,-494.93 1198.21,-481.5 1223.19,-470.57"/>
<polygon fill="midnightblue" stroke="midnightblue" points="1224.69,-473.74 1232.45,-466.52 1221.88,-467.32 1224.69,-473.74"/>
</g>
<!-- Node3 -->
<g id="node3" class="node">
<title>Node3</title>
<g id="a_node3"><a xlink:href="http_2_request_8h.html" target="_top" xlink:title=" ">
<polygon fill="white" stroke="black" points="412.5,-118 412.5,-137 474.5,-137 474.5,-118 412.5,-118"/>
<text text-anchor="middle" x="443.5" y="-125" font-family="Helvetica,sans-Serif" font-size="10.00">Request.h</text>
</a>
</g>
</g>
<!-- Node2&#45;&gt;Node3 -->
<g id="edge2" class="edge">
<title>Node2&#45;&gt;Node3</title>
<path fill="none" stroke="midnightblue" d="M437.86,-307.84C442.55,-297.99 449.72,-281.3 452.5,-266 460.14,-223.99 452.75,-173.71 447.58,-147.12"/>
<polygon fill="midnightblue" stroke="midnightblue" points="450.99,-146.36 445.54,-137.27 444.14,-147.77 450.99,-146.36"/>
</g>
<!-- Node6 -->
<g id="node6" class="node">
<title>Node6</title>
<g id="a_node6"><a xlink:href="http_2_response_8h.html" target="_top" xlink:title=" ">
<polygon fill="white" stroke="black" points="141,-118 141,-137 210,-137 210,-118 141,-118"/>
<text text-anchor="middle" x="175.5" y="-125" font-family="Helvetica,sans-Serif" font-size="10.00">Response.h</text>
</a>
</g>
</g>
<!-- Node2&#45;&gt;Node6 -->
<g id="edge5" class="edge">
<title>Node2&#45;&gt;Node6</title>
<path fill="none" stroke="midnightblue" d="M402.35,-312.99C348.49,-305.13 238.65,-280.84 185.5,-210 171.96,-191.95 171.34,-165.08 172.84,-147.18"/>
<polygon fill="midnightblue" stroke="midnightblue" points="176.33,-147.46 173.98,-137.13 169.37,-146.67 176.33,-147.46"/>
</g>
<!-- Node9 -->
<g id="node9" class="node">
<title>Node9</title>
<g id="a_node9"><a xlink:href="_server_context_8hpp.html" target="_top" xlink:title=" ">
<polygon fill="white" stroke="black" points="345.5,-246.5 345.5,-265.5 443.5,-265.5 443.5,-246.5 345.5,-246.5"/>
<text text-anchor="middle" x="394.5" y="-253.5" font-family="Helvetica,sans-Serif" font-size="10.00">ServerContext.hpp</text>
</a>
</g>
</g>
<!-- Node2&#45;&gt;Node9 -->
<g id="edge9" class="edge">
<title>Node2&#45;&gt;Node9</title>
<path fill="none" stroke="midnightblue" d="M427.91,-307.98C422.12,-299.14 412.91,-285.09 405.63,-273.98"/>
<polygon fill="midnightblue" stroke="midnightblue" points="408.49,-271.95 400.08,-265.51 402.63,-275.79 408.49,-271.95"/>
</g>
<!-- Node4 -->
<g id="node4" class="node">
<title>Node4</title>
<g id="a_node4"><a xlink:href="_attribute_injector_8h.html" target="_top" xlink:title=" ">
<polygon fill="white" stroke="black" points="490,-56.5 490,-75.5 583,-75.5 583,-56.5 490,-56.5"/>
<text text-anchor="middle" x="536.5" y="-63.5" font-family="Helvetica,sans-Serif" font-size="10.00">AttributeInjector.h</text>
</a>
</g>
</g>
<!-- Node3&#45;&gt;Node4 -->
<g id="edge3" class="edge">
<title>Node3&#45;&gt;Node4</title>
<path fill="none" stroke="midnightblue" d="M456.82,-117.98C471.88,-108.34 496.62,-92.52 514.54,-81.05"/>
<polygon fill="midnightblue" stroke="midnightblue" points="516.66,-83.85 523.2,-75.51 512.89,-77.95 516.66,-83.85"/>
</g>
<!-- Node5 -->
<g id="node5" class="node">
<title>Node5</title>
<g id="a_node5"><a xlink:href="_connection_state_8h.html" target="_top" xlink:title=" ">
<polygon fill="white" stroke="black" points="335.5,-56.5 335.5,-75.5 433.5,-75.5 433.5,-56.5 335.5,-56.5"/>
<text text-anchor="middle" x="384.5" y="-63.5" font-family="Helvetica,sans-Serif" font-size="10.00">ConnectionState.h</text>
</a>
</g>
</g>
<!-- Node3&#45;&gt;Node5 -->
<g id="edge4" class="edge">
<title>Node3&#45;&gt;Node5</title>
<path fill="none" stroke="midnightblue" d="M435.05,-117.98C425.93,-108.78 411.23,-93.96 400.02,-82.66"/>
<polygon fill="midnightblue" stroke="midnightblue" points="402.46,-80.15 392.94,-75.51 397.49,-85.07 402.46,-80.15"/>
</g>
<!-- Node6&#45;&gt;Node5 -->
<g id="edge6" class="edge">
<title>Node6&#45;&gt;Node5</title>
<path fill="none" stroke="midnightblue" d="M199.98,-117.96C206.01,-115.94 212.47,-113.83 218.5,-112 259.67,-99.49 307.08,-86.81 340.67,-78.11"/>
<polygon fill="midnightblue" stroke="midnightblue" points="341.82,-81.43 350.63,-75.54 340.07,-74.65 341.82,-81.43"/>
</g>
<!-- Node7 -->
<g id="node7" class="node">
<title>Node7</title>
<g id="a_node7"><a xlink:href="_cookie_options_8h.html" target="_top" xlink:title=" ">
<polygon fill="white" stroke="black" points="135,-56.5 135,-75.5 224,-75.5 224,-56.5 135,-56.5"/>
<text text-anchor="middle" x="179.5" y="-63.5" font-family="Helvetica,sans-Serif" font-size="10.00">CookieOptions.h</text>
</a>
</g>
</g>
<!-- Node6&#45;&gt;Node7 -->
<g id="edge7" class="edge">
<title>Node6&#45;&gt;Node7</title>
<path fill="none" stroke="midnightblue" d="M176.07,-117.98C176.64,-109.58 177.52,-96.48 178.25,-85.66"/>
<polygon fill="midnightblue" stroke="midnightblue" points="181.75,-85.72 178.93,-75.51 174.76,-85.25 181.75,-85.72"/>
</g>
<!-- Node8 -->
<g id="node8" class="node">
<title>Node8</title>
<g id="a_node8"><a xlink:href="_write_stream_8h.html" target="_top" xlink:title=" ">
<polygon fill="white" stroke="black" points="0,-56.5 0,-75.5 117,-75.5 117,-56.5 0,-56.5"/>
<text text-anchor="middle" x="58.5" y="-63.5" font-family="Helvetica,sans-Serif" font-size="10.00">streams/WriteStream.h</text>
</a>
</g>
</g>
<!-- Node6&#45;&gt;Node8 -->
<g id="edge8" class="edge">
<title>Node6&#45;&gt;Node8</title>
<path fill="none" stroke="midnightblue" d="M158.74,-117.98C139.28,-108.08 106.95,-91.64 84.29,-80.12"/>
<polygon fill="midnightblue" stroke="midnightblue" points="85.73,-76.92 75.23,-75.51 82.56,-83.16 85.73,-76.92"/>
</g>
<!-- Node9&#45;&gt;Node5 -->
<g id="edge10" class="edge">
<title>Node9&#45;&gt;Node5</title>
<path fill="none" stroke="midnightblue" d="M394.04,-246.43C392.53,-217.93 387.63,-125.82 385.5,-85.83"/>
<polygon fill="midnightblue" stroke="midnightblue" points="388.98,-85.42 384.96,-75.62 381.99,-85.79 388.98,-85.42"/>
</g>
<!-- Node10 -->
<g id="node10" class="node">
<title>Node10</title>
<g id="a_node10"><a xlink:href="_logger_8h.html" target="_top" xlink:title=" ">
<polygon fill="white" stroke="black" points="922,-56.5 922,-75.5 975,-75.5 975,-56.5 922,-56.5"/>
<text text-anchor="middle" x="948.5" y="-63.5" font-family="Helvetica,sans-Serif" font-size="10.00">Logger.h</text>
</a>
</g>
</g>
<!-- Node9&#45;&gt;Node10 -->
<g id="edge11" class="edge">
<title>Node9&#45;&gt;Node10</title>
<path fill="none" stroke="midnightblue" d="M414.35,-246.35C469.43,-222.58 629.2,-155.13 766.5,-112 827.27,-92.91 845.91,-92.14 911.71,-76.16"/>
<polygon fill="midnightblue" stroke="midnightblue" points="912.89,-79.48 921.77,-73.69 911.22,-72.68 912.89,-79.48"/>
</g>
<!-- Node11 -->
<g id="node11" class="node">
<title>Node11</title>
<g id="a_node11"><a xlink:href="_server_context_8h.html" target="_top" xlink:title=" ">
<polygon fill="white" stroke="black" points="194.5,-185 194.5,-204 282.5,-204 282.5,-185 194.5,-185"/>
<text text-anchor="middle" x="238.5" y="-192" font-family="Helvetica,sans-Serif" font-size="10.00">ServerContext.h</text>
</a>
</g>
</g>
<!-- Node9&#45;&gt;Node11 -->
<g id="edge12" class="edge">
<title>Node9&#45;&gt;Node11</title>
<path fill="none" stroke="midnightblue" d="M372.15,-246.48C345.51,-236.31 300.79,-219.26 270.49,-207.7"/>
<polygon fill="midnightblue" stroke="midnightblue" points="271.4,-204.3 260.81,-204.01 268.91,-210.84 271.4,-204.3"/>
</g>
<!-- Node14 -->
<g id="node14" class="node">
<title>Node14</title>
<g id="a_node14"><a xlink:href="http__utils_8h.html" target="_top" xlink:title=" ">
<polygon fill="white" stroke="black" points="301,-185 301,-204 366,-204 366,-185 301,-185"/>
<text text-anchor="middle" x="333.5" y="-192" font-family="Helvetica,sans-Serif" font-size="10.00">http_utils.h</text>
</a>
</g>
</g>
<!-- Node9&#45;&gt;Node14 -->
<g id="edge17" class="edge">
<title>Node9&#45;&gt;Node14</title>
<path fill="none" stroke="midnightblue" d="M385.76,-246.48C376.34,-237.28 361.14,-222.46 349.55,-211.16"/>
<polygon fill="midnightblue" stroke="midnightblue" points="351.83,-208.49 342.22,-204.01 346.94,-213.5 351.83,-208.49"/>
</g>
<!-- Node15 -->
<g id="node15" class="node">
<title>Node15</title>
<g id="a_node15"><a xlink:href="_socket_connection_base_8h.html" target="_top" xlink:title=" ">
<polygon fill="white" stroke="black" points="492.5,-112.5 492.5,-142.5 654.5,-142.5 654.5,-112.5 492.5,-112.5"/>
<text text-anchor="start" x="500.5" y="-130.5" font-family="Helvetica,sans-Serif" font-size="10.00">socket/stream/SocketConnection</text>
<text text-anchor="middle" x="573.5" y="-119.5" font-family="Helvetica,sans-Serif" font-size="10.00">Base.h</text>
</a>
</g>
</g>
<!-- Node9&#45;&gt;Node15 -->
<g id="edge18" class="edge">
<title>Node9&#45;&gt;Node15</title>
<path fill="none" stroke="midnightblue" d="M406.8,-246.31C435.08,-226.33 505.29,-176.71 544.98,-148.65"/>
<polygon fill="midnightblue" stroke="midnightblue" points="547.29,-151.31 553.43,-142.68 543.25,-145.6 547.29,-151.31"/>
</g>
<!-- Node11&#45;&gt;Node3 -->
<g id="edge13" class="edge">
<title>Node11&#45;&gt;Node3</title>
<path fill="none" stroke="midnightblue" d="M265.72,-184.87C301.97,-173.38 366.2,-153.01 406.73,-140.16"/>
<polygon fill="midnightblue" stroke="midnightblue" points="408.02,-143.42 416.49,-137.06 405.9,-136.75 408.02,-143.42"/>
</g>
<!-- Node11&#45;&gt;Node6 -->
<g id="edge16" class="edge">
<title>Node11&#45;&gt;Node6</title>
<path fill="none" stroke="midnightblue" d="M230,-184.73C219.99,-174.4 203.16,-157.04 190.84,-144.33"/>
<polygon fill="midnightblue" stroke="midnightblue" points="193.33,-141.87 183.86,-137.13 188.31,-146.74 193.33,-141.87"/>
</g>
<!-- Node12 -->
<g id="node12" class="node">
<title>Node12</title>
<g id="a_node12"><a xlink:href="_request_parser_8h.html" target="_top" xlink:title=" ">
<polygon fill="white" stroke="black" points="228,-118 228,-137 317,-137 317,-118 228,-118"/>
<text text-anchor="middle" x="272.5" y="-125" font-family="Helvetica,sans-Serif" font-size="10.00">RequestParser.h</text>
</a>
</g>
</g>
<!-- Node11&#45;&gt;Node12 -->
<g id="edge14" class="edge">
<title>Node11&#45;&gt;Node12</title>
<path fill="none" stroke="midnightblue" d="M243.09,-184.73C248.23,-174.89 256.72,-158.66 263.26,-146.16"/>
<polygon fill="midnightblue" stroke="midnightblue" points="266.45,-147.61 267.99,-137.13 260.25,-144.37 266.45,-147.61"/>
</g>
<!-- Node13 -->
<g id="node13" class="node">
<title>Node13</title>
<g id="a_node13"><a xlink:href="_parser_8h.html" target="_top" xlink:title=" ">
<polygon fill="white" stroke="black" points="246,-56.5 246,-75.5 299,-75.5 299,-56.5 246,-56.5"/>
<text text-anchor="middle" x="272.5" y="-63.5" font-family="Helvetica,sans-Serif" font-size="10.00">Parser.h</text>
</a>
</g>
</g>
<!-- Node12&#45;&gt;Node13 -->
<g id="edge15" class="edge">
<title>Node12&#45;&gt;Node13</title>
<path fill="none" stroke="midnightblue" d="M272.5,-117.98C272.5,-109.58 272.5,-96.48 272.5,-85.66"/>
<polygon fill="midnightblue" stroke="midnightblue" points="276,-85.51 272.5,-75.51 269,-85.51 276,-85.51"/>
</g>
<!-- Node15&#45;&gt;Node4 -->
<g id="edge19" class="edge">
<title>Node15&#45;&gt;Node4</title>
<path fill="none" stroke="midnightblue" d="M564.73,-112.4C559.52,-104.02 552.87,-93.33 547.33,-84.42"/>
<polygon fill="midnightblue" stroke="midnightblue" points="550.14,-82.3 541.88,-75.66 544.19,-86 550.14,-82.3"/>
</g>
<!-- Node17 -->
<g id="node17" class="node">
<title>Node17</title>
<g id="a_node17"><a xlink:href="ip_2tcp_2ipv4_2_socket_8h.html" target="_top" xlink:title=" ">
<polygon fill="white" stroke="black" points="1201.5,-369.5 1201.5,-399.5 1295.5,-399.5 1295.5,-369.5 1201.5,-369.5"/>
<text text-anchor="start" x="1209.5" y="-387.5" font-family="Helvetica,sans-Serif" font-size="10.00">socket/ip/tcp/ipv4</text>
<text text-anchor="middle" x="1248.5" y="-376.5" font-family="Helvetica,sans-Serif" font-size="10.00">/Socket.h</text>
</a>
</g>
</g>
<!-- Node16&#45;&gt;Node17 -->
<g id="edge21" class="edge">
<title>Node16&#45;&gt;Node17</title>
<path fill="none" stroke="midnightblue" d="M1154.54,-436.4C1171.84,-427.03 1194.75,-414.62 1213.62,-404.39"/>
<polygon fill="midnightblue" stroke="midnightblue" points="1215.39,-407.42 1222.51,-399.58 1212.05,-401.26 1215.39,-407.42"/>
</g>
<!-- Node22 -->
<g id="node22" class="node">
<title>Node22</title>
<g id="a_node22"><a xlink:href="stream_2legacy_2_socket_server_8h.html" target="_top" xlink:title=" ">
<polygon fill="white" stroke="black" points="1073.5,-369.5 1073.5,-399.5 1183.5,-399.5 1183.5,-369.5 1073.5,-369.5"/>
<text text-anchor="start" x="1081.5" y="-387.5" font-family="Helvetica,sans-Serif" font-size="10.00">socket/stream/legacy</text>
<text text-anchor="middle" x="1128.5" y="-376.5" font-family="Helvetica,sans-Serif" font-size="10.00">/SocketServer.h</text>
</a>
</g>
</g>
<!-- Node16&#45;&gt;Node22 -->
<g id="edge27" class="edge">
<title>Node16&#45;&gt;Node22</title>
<path fill="none" stroke="midnightblue" d="M1128.5,-436.4C1128.5,-428.64 1128.5,-418.81 1128.5,-409.86"/>
<polygon fill="midnightblue" stroke="midnightblue" points="1132,-409.58 1128.5,-399.58 1125,-409.58 1132,-409.58"/>
</g>
<!-- Node18 -->
<g id="node18" class="node">
<title>Node18</title>
<g id="a_node18"><a xlink:href="_socket_8h.html" target="_top" xlink:title=" ">
<polygon fill="white" stroke="black" points="1320.5,-308 1320.5,-327 1408.5,-327 1408.5,-308 1320.5,-308"/>
<text text-anchor="middle" x="1364.5" y="-315" font-family="Helvetica,sans-Serif" font-size="10.00">socket/Socket.h</text>
</a>
</g>
</g>
<!-- Node17&#45;&gt;Node18 -->
<g id="edge22" class="edge">
<title>Node17&#45;&gt;Node18</title>
<path fill="none" stroke="midnightblue" d="M1273.67,-369.4C1293.48,-358.29 1320.92,-342.92 1340.44,-331.98"/>
<polygon fill="midnightblue" stroke="midnightblue" points="1342.31,-334.95 1349.32,-327.01 1338.88,-328.84 1342.31,-334.95"/>
</g>
<!-- Node21 -->
<g id="node21" class="node">
<title>Node21</title>
<g id="a_node21"><a xlink:href="ipv4_2_inet_address_8h.html" target="_top" xlink:title=" ">
<polygon fill="white" stroke="black" points="1187,-302.5 1187,-332.5 1302,-332.5 1302,-302.5 1187,-302.5"/>
<text text-anchor="start" x="1195" y="-320.5" font-family="Helvetica,sans-Serif" font-size="10.00">socket/ip/address/ipv4</text>
<text text-anchor="middle" x="1244.5" y="-309.5" font-family="Helvetica,sans-Serif" font-size="10.00">/InetAddress.h</text>
</a>
</g>
</g>
<!-- Node17&#45;&gt;Node21 -->
<g id="edge25" class="edge">
<title>Node17&#45;&gt;Node21</title>
<path fill="none" stroke="midnightblue" d="M1247.63,-369.4C1247.15,-361.56 1246.54,-351.6 1245.98,-342.57"/>
<polygon fill="midnightblue" stroke="midnightblue" points="1249.47,-342.34 1245.37,-332.58 1242.49,-342.77 1249.47,-342.34"/>
</g>
<!-- Node19 -->
<g id="node19" class="node">
<title>Node19</title>
<g id="a_node19"><a xlink:href="_descriptor_8h.html" target="_top" xlink:title=" ">
<polygon fill="white" stroke="black" points="1318,-246.5 1318,-265.5 1387,-265.5 1387,-246.5 1318,-246.5"/>
<text text-anchor="middle" x="1352.5" y="-253.5" font-family="Helvetica,sans-Serif" font-size="10.00">Descriptor.h</text>
</a>
</g>
</g>
<!-- Node18&#45;&gt;Node19 -->
<g id="edge23" class="edge">
<title>Node18&#45;&gt;Node19</title>
<path fill="none" stroke="midnightblue" d="M1362.78,-307.98C1361.07,-299.49 1358.39,-286.2 1356.2,-275.32"/>
<polygon fill="midnightblue" stroke="midnightblue" points="1359.62,-274.62 1354.22,-265.51 1352.76,-276 1359.62,-274.62"/>
</g>
<!-- Node20 -->
<g id="node20" class="node">
<title>Node20</title>
<g id="a_node20"><a xlink:href="_socket_address_8h.html" target="_top" xlink:title=" ">
<polygon fill="white" stroke="black" points="1405.5,-246.5 1405.5,-265.5 1529.5,-265.5 1529.5,-246.5 1405.5,-246.5"/>
<text text-anchor="middle" x="1467.5" y="-253.5" font-family="Helvetica,sans-Serif" font-size="10.00">socket/SocketAddress.h</text>
</a>
</g>
</g>
<!-- Node18&#45;&gt;Node20 -->
<g id="edge24" class="edge">
<title>Node18&#45;&gt;Node20</title>
<path fill="none" stroke="midnightblue" d="M1379.26,-307.98C1396.16,-298.21 1424.08,-282.08 1443.99,-270.58"/>
<polygon fill="midnightblue" stroke="midnightblue" points="1445.86,-273.54 1452.77,-265.51 1442.36,-267.48 1445.86,-273.54"/>
</g>
<!-- Node21&#45;&gt;Node20 -->
<g id="edge26" class="edge">
<title>Node21&#45;&gt;Node20</title>
<path fill="none" stroke="midnightblue" d="M1297.07,-302.47C1336.38,-291.99 1389.41,-277.84 1425.82,-268.12"/>
<polygon fill="midnightblue" stroke="midnightblue" points="1426.86,-271.47 1435.62,-265.51 1425.05,-264.7 1426.86,-271.47"/>
</g>
<!-- Node23 -->
<g id="node23" class="node">
<title>Node23</title>
<g id="a_node23"><a xlink:href="legacy_2_socket_listener_8h.html" target="_top" xlink:title=" ">
<polygon fill="white" stroke="black" points="1041,-308 1041,-327 1130,-327 1130,-308 1041,-308"/>
<text text-anchor="middle" x="1085.5" y="-315" font-family="Helvetica,sans-Serif" font-size="10.00">SocketListener.h</text>
</a>
</g>
</g>
<!-- Node22&#45;&gt;Node23 -->
<g id="edge28" class="edge">
<title>Node22&#45;&gt;Node23</title>
<path fill="none" stroke="midnightblue" d="M1119.17,-369.4C1112.6,-359.46 1103.76,-346.11 1096.79,-335.57"/>
<polygon fill="midnightblue" stroke="midnightblue" points="1099.69,-333.6 1091.25,-327.19 1093.85,-337.47 1099.69,-333.6"/>
</g>
<!-- Node35 -->
<g id="node35" class="node">
<title>Node35</title>
<g id="a_node35"><a xlink:href="stream_2_socket_server_8h.html" target="_top" xlink:title=" ">
<polygon fill="white" stroke="black" points="1126,-246.5 1126,-265.5 1275,-265.5 1275,-246.5 1126,-246.5"/>
<text text-anchor="middle" x="1200.5" y="-253.5" font-family="Helvetica,sans-Serif" font-size="10.00">socket/stream/SocketServer.h</text>
</a>
</g>
</g>
<!-- Node22&#45;&gt;Node35 -->
<g id="edge46" class="edge">
<title>Node22&#45;&gt;Node35</title>
<path fill="none" stroke="midnightblue" d="M1136.48,-369.48C1149.67,-346.31 1175.98,-300.07 1190.43,-274.69"/>
<polygon fill="midnightblue" stroke="midnightblue" points="1193.59,-276.21 1195.5,-265.79 1187.51,-272.75 1193.59,-276.21"/>
</g>
<!-- Node24 -->
<g id="node24" class="node">
<title>Node24</title>
<g id="a_node24"><a xlink:href="legacy_2_socket_connection_8h.html" target="_top" xlink:title=" ">
<polygon fill="white" stroke="black" points="899,-246.5 899,-265.5 1004,-265.5 1004,-246.5 899,-246.5"/>
<text text-anchor="middle" x="951.5" y="-253.5" font-family="Helvetica,sans-Serif" font-size="10.00">SocketConnection.h</text>
</a>
</g>
</g>
<!-- Node23&#45;&gt;Node24 -->
<g id="edge29" class="edge">
<title>Node23&#45;&gt;Node24</title>
<path fill="none" stroke="midnightblue" d="M1066.3,-307.98C1043.71,-297.95 1006,-281.2 980,-269.65"/>
<polygon fill="midnightblue" stroke="midnightblue" points="981.22,-266.37 970.66,-265.51 978.38,-272.77 981.22,-266.37"/>
</g>
<!-- Node33 -->
<g id="node33" class="node">
<title>Node33</title>
<g id="a_node33"><a xlink:href="_socket_listener_8h.html" target="_top" xlink:title=" ">
<polygon fill="white" stroke="black" points="1110,-118 1110,-137 1265,-137 1265,-118 1110,-118"/>
<text text-anchor="middle" x="1187.5" y="-125" font-family="Helvetica,sans-Serif" font-size="10.00">socket/stream/SocketListener.h</text>
</a>
</g>
</g>
<!-- Node23&#45;&gt;Node33 -->
<g id="edge41" class="edge">
<title>Node23&#45;&gt;Node33</title>
<path fill="none" stroke="midnightblue" d="M1089.13,-307.67C1094.77,-294.17 1106.17,-267.68 1117.5,-246 1136.65,-209.36 1162.14,-168.2 1176.48,-145.62"/>
<polygon fill="midnightblue" stroke="midnightblue" points="1179.46,-147.46 1181.89,-137.15 1173.56,-143.7 1179.46,-147.46"/>
</g>
<!-- Node25 -->
<g id="node25" class="node">
<title>Node25</title>
<g id="a_node25"><a xlink:href="_socket_connection_8h.html" target="_top" xlink:title=" ">
<polygon fill="white" stroke="black" points="644.5,-185 644.5,-204 814.5,-204 814.5,-185 644.5,-185"/>
<text text-anchor="middle" x="729.5" y="-192" font-family="Helvetica,sans-Serif" font-size="10.00">socket/stream/SocketConnection.h</text>
</a>
</g>
</g>
<!-- Node24&#45;&gt;Node25 -->
<g id="edge30" class="edge">
<title>Node24&#45;&gt;Node25</title>
<path fill="none" stroke="midnightblue" d="M919.69,-246.48C880.62,-236 814.24,-218.21 771.14,-206.66"/>
<polygon fill="midnightblue" stroke="midnightblue" points="771.81,-203.22 761.25,-204.01 770,-209.98 771.81,-203.22"/>
</g>
<!-- Node26 -->
<g id="node26" class="node">
<title>Node26</title>
<g id="a_node26"><a xlink:href="legacy_2_socket_reader_8h.html" target="_top" xlink:title=" ">
<polygon fill="white" stroke="black" points="960.5,-179.5 960.5,-209.5 1070.5,-209.5 1070.5,-179.5 960.5,-179.5"/>
<text text-anchor="start" x="968.5" y="-197.5" font-family="Helvetica,sans-Serif" font-size="10.00">socket/stream/legacy</text>
<text text-anchor="middle" x="1015.5" y="-186.5" font-family="Helvetica,sans-Serif" font-size="10.00">/SocketReader.h</text>
</a>
</g>
</g>
<!-- Node24&#45;&gt;Node26 -->
<g id="edge32" class="edge">
<title>Node24&#45;&gt;Node26</title>
<path fill="none" stroke="midnightblue" d="M960.67,-246.48C969.09,-238.64 981.92,-226.71 993.06,-216.37"/>
<polygon fill="midnightblue" stroke="midnightblue" points="995.48,-218.9 1000.42,-209.52 990.71,-213.77 995.48,-218.9"/>
</g>
<!-- Node30 -->
<g id="node30" class="node">
<title>Node30</title>
<g id="a_node30"><a xlink:href="legacy_2_socket_writer_8h.html" target="_top" xlink:title=" ">
<polygon fill="white" stroke="black" points="832.5,-179.5 832.5,-209.5 942.5,-209.5 942.5,-179.5 832.5,-179.5"/>
<text text-anchor="start" x="840.5" y="-197.5" font-family="Helvetica,sans-Serif" font-size="10.00">socket/stream/legacy</text>
<text text-anchor="middle" x="887.5" y="-186.5" font-family="Helvetica,sans-Serif" font-size="10.00">/SocketWriter.h</text>
</a>
</g>
</g>
<!-- Node24&#45;&gt;Node30 -->
<g id="edge36" class="edge">
<title>Node24&#45;&gt;Node30</title>
<path fill="none" stroke="midnightblue" d="M942.33,-246.48C933.91,-238.64 921.08,-226.71 909.94,-216.37"/>
<polygon fill="midnightblue" stroke="midnightblue" points="912.29,-213.77 902.58,-209.52 907.52,-218.9 912.29,-213.77"/>
</g>
<!-- Node25&#45;&gt;Node15 -->
<g id="edge31" class="edge">
<title>Node25&#45;&gt;Node15</title>
<path fill="none" stroke="midnightblue" d="M708.78,-184.87C685.38,-175.12 646.63,-158.97 616.58,-146.45"/>
<polygon fill="midnightblue" stroke="midnightblue" points="617.74,-143.14 607.17,-142.53 615.05,-149.61 617.74,-143.14"/>
</g>
<!-- Node27 -->
<g id="node27" class="node">
<title>Node27</title>
<g id="a_node27"><a xlink:href="_socket_reader_8h.html" target="_top" xlink:title=" ">
<polygon fill="white" stroke="black" points="939.5,-118 939.5,-137 1091.5,-137 1091.5,-118 939.5,-118"/>
<text text-anchor="middle" x="1015.5" y="-125" font-family="Helvetica,sans-Serif" font-size="10.00">socket/stream/SocketReader.h</text>
</a>
</g>
</g>
<!-- Node26&#45;&gt;Node27 -->
<g id="edge33" class="edge">
<title>Node26&#45;&gt;Node27</title>
<path fill="none" stroke="midnightblue" d="M1015.5,-179.4C1015.5,-170.06 1015.5,-157.71 1015.5,-147.52"/>
<polygon fill="midnightblue" stroke="midnightblue" points="1019,-147.19 1015.5,-137.19 1012,-147.19 1019,-147.19"/>
</g>
<!-- Node28 -->
<g id="node28" class="node">
<title>Node28</title>
<g id="a_node28"><a xlink:href="_read_event_receiver_8h.html" target="_top" xlink:title=" ">
<polygon fill="white" stroke="black" points="995.5,-56.5 995.5,-75.5 1107.5,-75.5 1107.5,-56.5 995.5,-56.5"/>
<text text-anchor="middle" x="1051.5" y="-63.5" font-family="Helvetica,sans-Serif" font-size="10.00">ReadEventReceiver.h</text>
</a>
</g>
</g>
<!-- Node27&#45;&gt;Node28 -->
<g id="edge34" class="edge">
<title>Node27&#45;&gt;Node28</title>
<path fill="none" stroke="midnightblue" d="M1020.66,-117.98C1025.95,-109.23 1034.34,-95.37 1041.03,-84.31"/>
<polygon fill="midnightblue" stroke="midnightblue" points="1044.17,-85.88 1046.35,-75.51 1038.18,-82.25 1044.17,-85.88"/>
</g>
<!-- Node29 -->
<g id="node29" class="node">
<title>Node29</title>
<g id="a_node29"><a xlink:href="_descriptor_event_receiver_8h.html" target="_top" xlink:title=" ">
<polygon fill="white" stroke="black" points="984.5,-0.5 984.5,-19.5 1118.5,-19.5 1118.5,-0.5 984.5,-0.5"/>
<text text-anchor="middle" x="1051.5" y="-7.5" font-family="Helvetica,sans-Serif" font-size="10.00">DescriptorEventReceiver.h</text>
</a>
</g>
</g>
<!-- Node28&#45;&gt;Node29 -->
<g id="edge35" class="edge">
<title>Node28&#45;&gt;Node29</title>
<path fill="none" stroke="midnightblue" d="M1051.5,-56.08C1051.5,-49.01 1051.5,-38.86 1051.5,-29.99"/>
<polygon fill="midnightblue" stroke="midnightblue" points="1055,-29.75 1051.5,-19.75 1048,-29.75 1055,-29.75"/>
</g>
<!-- Node31 -->
<g id="node31" class="node">
<title>Node31</title>
<g id="a_node31"><a xlink:href="_socket_writer_8h.html" target="_top" xlink:title=" ">
<polygon fill="white" stroke="black" points="775.5,-118 775.5,-137 921.5,-137 921.5,-118 775.5,-118"/>
<text text-anchor="middle" x="848.5" y="-125" font-family="Helvetica,sans-Serif" font-size="10.00">socket/stream/SocketWriter.h</text>
</a>
</g>
</g>
<!-- Node30&#45;&gt;Node31 -->
<g id="edge37" class="edge">
<title>Node30&#45;&gt;Node31</title>
<path fill="none" stroke="midnightblue" d="M879.04,-179.4C873.14,-169.56 865.23,-156.38 858.94,-145.89"/>
<polygon fill="midnightblue" stroke="midnightblue" points="861.86,-143.97 853.72,-137.19 855.86,-147.57 861.86,-143.97"/>
</g>
<!-- Node31&#45;&gt;Node10 -->
<g id="edge38" class="edge">
<title>Node31&#45;&gt;Node10</title>
<path fill="none" stroke="midnightblue" d="M862.83,-117.98C879.16,-108.25 906.1,-92.23 925.41,-80.74"/>
<polygon fill="midnightblue" stroke="midnightblue" points="927.39,-83.63 934.2,-75.51 923.82,-77.61 927.39,-83.63"/>
</g>
<!-- Node32 -->
<g id="node32" class="node">
<title>Node32</title>
<g id="a_node32"><a xlink:href="_write_event_receiver_8h.html" target="_top" xlink:title=" ">
<polygon fill="white" stroke="black" points="793,-56.5 793,-75.5 904,-75.5 904,-56.5 793,-56.5"/>
<text text-anchor="middle" x="848.5" y="-63.5" font-family="Helvetica,sans-Serif" font-size="10.00">WriteEventReceiver.h</text>
</a>
</g>
</g>
<!-- Node31&#45;&gt;Node32 -->
<g id="edge39" class="edge">
<title>Node31&#45;&gt;Node32</title>
<path fill="none" stroke="midnightblue" d="M848.5,-117.98C848.5,-109.58 848.5,-96.48 848.5,-85.66"/>
<polygon fill="midnightblue" stroke="midnightblue" points="852,-85.51 848.5,-75.51 845,-85.51 852,-85.51"/>
</g>
<!-- Node32&#45;&gt;Node29 -->
<g id="edge40" class="edge">
<title>Node32&#45;&gt;Node29</title>
<path fill="none" stroke="midnightblue" d="M880.67,-56.44C915.56,-47.16 971.39,-32.31 1009.67,-22.13"/>
<polygon fill="midnightblue" stroke="midnightblue" points="1010.72,-25.47 1019.48,-19.52 1008.92,-18.7 1010.72,-25.47"/>
</g>
<!-- Node33&#45;&gt;Node10 -->
<g id="edge44" class="edge">
<title>Node33&#45;&gt;Node10</title>
<path fill="none" stroke="midnightblue" d="M1153.26,-117.98C1108.62,-106.86 1030.86,-87.5 985.09,-76.11"/>
<polygon fill="midnightblue" stroke="midnightblue" points="985.83,-72.69 975.29,-73.67 984.14,-79.48 985.83,-72.69"/>
</g>
<!-- Node33&#45;&gt;Node28 -->
<g id="edge45" class="edge">
<title>Node33&#45;&gt;Node28</title>
<path fill="none" stroke="midnightblue" d="M1168.01,-117.98C1145.09,-107.95 1106.81,-91.2 1080.42,-79.65"/>
<polygon fill="midnightblue" stroke="midnightblue" points="1081.51,-76.31 1070.95,-75.51 1078.71,-82.72 1081.51,-76.31"/>
</g>
<!-- Node34 -->
<g id="node34" class="node">
<title>Node34</title>
<g id="a_node34"><a xlink:href="_accept_event_receiver_8h.html" target="_top" xlink:title=" ">
<polygon fill="white" stroke="black" points="1127,-56.5 1127,-75.5 1246,-75.5 1246,-56.5 1127,-56.5"/>
<text text-anchor="middle" x="1186.5" y="-63.5" font-family="Helvetica,sans-Serif" font-size="10.00">AcceptEventReceiver.h</text>
</a>
</g>
</g>
<!-- Node33&#45;&gt;Node34 -->
<g id="edge42" class="edge">
<title>Node33&#45;&gt;Node34</title>
<path fill="none" stroke="midnightblue" d="M1187.36,-117.98C1187.22,-109.58 1187,-96.48 1186.81,-85.66"/>
<polygon fill="midnightblue" stroke="midnightblue" points="1190.31,-85.45 1186.64,-75.51 1183.31,-85.57 1190.31,-85.45"/>
</g>
<!-- Node34&#45;&gt;Node29 -->
<g id="edge43" class="edge">
<title>Node34&#45;&gt;Node29</title>
<path fill="none" stroke="midnightblue" d="M1165.11,-56.44C1142.79,-47.52 1107.6,-33.44 1082.29,-23.32"/>
<polygon fill="midnightblue" stroke="midnightblue" points="1083.38,-19.98 1072.79,-19.52 1080.78,-26.48 1083.38,-19.98"/>
</g>
<!-- Node35&#45;&gt;Node33 -->
<g id="edge47" class="edge">
<title>Node35&#45;&gt;Node33</title>
<path fill="none" stroke="midnightblue" d="M1199.61,-246.31C1197.52,-225.99 1192.28,-175.05 1189.43,-147.28"/>
<polygon fill="midnightblue" stroke="midnightblue" points="1192.9,-146.85 1188.4,-137.26 1185.94,-147.56 1192.9,-146.85"/>
</g>
<!-- Node36&#45;&gt;Node22 -->
<g id="edge53" class="edge">
<title>Node36&#45;&gt;Node22</title>
<path fill="none" stroke="midnightblue" d="M1234.99,-436.4C1215.12,-426.9 1188.71,-414.28 1167.16,-403.98"/>
<polygon fill="midnightblue" stroke="midnightblue" points="1168.48,-400.73 1157.95,-399.58 1165.47,-407.05 1168.48,-400.73"/>
</g>
<!-- Node37 -->
<g id="node37" class="node">
<title>Node37</title>
<g id="a_node37"><a xlink:href="ip_2tcp_2ipv6_2_socket_8h.html" target="_top" xlink:title=" ">
<polygon fill="white" stroke="black" points="1317.5,-369.5 1317.5,-399.5 1411.5,-399.5 1411.5,-369.5 1317.5,-369.5"/>
<text text-anchor="start" x="1325.5" y="-387.5" font-family="Helvetica,sans-Serif" font-size="10.00">socket/ip/tcp/ipv6</text>
<text text-anchor="middle" x="1364.5" y="-376.5" font-family="Helvetica,sans-Serif" font-size="10.00">/Socket.h</text>
</a>
</g>
</g>
<!-- Node36&#45;&gt;Node37 -->
<g id="edge49" class="edge">
<title>Node36&#45;&gt;Node37</title>
<path fill="none" stroke="midnightblue" d="M1286.2,-436.4C1300.22,-427.28 1318.67,-415.29 1334.14,-405.24"/>
<polygon fill="midnightblue" stroke="midnightblue" points="1336.37,-407.96 1342.84,-399.58 1332.55,-402.09 1336.37,-407.96"/>
</g>
<!-- Node37&#45;&gt;Node18 -->
<g id="edge50" class="edge">
<title>Node37&#45;&gt;Node18</title>
<path fill="none" stroke="midnightblue" d="M1364.5,-369.4C1364.5,-360.06 1364.5,-347.71 1364.5,-337.52"/>
<polygon fill="midnightblue" stroke="midnightblue" points="1368,-337.19 1364.5,-327.19 1361,-337.19 1368,-337.19"/>
</g>
<!-- Node38 -->
<g id="node38" class="node">
<title>Node38</title>
<g id="a_node38"><a xlink:href="ipv6_2_inet_address_8h.html" target="_top" xlink:title=" ">
<polygon fill="white" stroke="black" points="1426,-302.5 1426,-332.5 1541,-332.5 1541,-302.5 1426,-302.5"/>
<text text-anchor="start" x="1434" y="-320.5" font-family="Helvetica,sans-Serif" font-size="10.00">socket/ip/address/ipv6</text>
<text text-anchor="middle" x="1483.5" y="-309.5" font-family="Helvetica,sans-Serif" font-size="10.00">/InetAddress.h</text>
</a>
</g>
</g>
<!-- Node37&#45;&gt;Node38 -->
<g id="edge51" class="edge">
<title>Node37&#45;&gt;Node38</title>
<path fill="none" stroke="midnightblue" d="M1390.32,-369.4C1407.47,-360.03 1430.2,-347.62 1448.91,-337.39"/>
<polygon fill="midnightblue" stroke="midnightblue" points="1450.63,-340.44 1457.73,-332.58 1447.28,-334.3 1450.63,-340.44"/>
</g>
<!-- Node38&#45;&gt;Node20 -->
<g id="edge52" class="edge">
<title>Node38&#45;&gt;Node20</title>
<path fill="none" stroke="midnightblue" d="M1479.71,-302.4C1477.55,-294.38 1474.82,-284.23 1472.49,-275.57"/>
<polygon fill="midnightblue" stroke="midnightblue" points="1475.8,-274.41 1469.83,-265.66 1469.05,-276.22 1475.8,-274.41"/>
</g>
</g>
</svg>
