<?xml version="1.0" encoding="UTF-8" standalone="no"?>
<!DOCTYPE svg PUBLIC "-//W3C//DTD SVG 1.1//EN"
 "http://www.w3.org/Graphics/SVG/1.1/DTD/svg11.dtd">
<!-- Generated by graphviz version 2.43.0 (0)
 -->
<!-- Title: net/socket/stream/legacy/SocketConnector.h Pages: 1 -->
<svg width="1189pt" height="352pt"
 viewBox="0.00 0.00 1188.50 352.00" xmlns="http://www.w3.org/2000/svg" xmlns:xlink="http://www.w3.org/1999/xlink">
<g id="graph0" class="graph" transform="scale(1 1) rotate(0) translate(4 348)">
<title>net/socket/stream/legacy/SocketConnector.h</title>
<polygon fill="white" stroke="transparent" points="-4,4 -4,-348 1184.5,-348 1184.5,4 -4,4"/>
<!-- Node1 -->
<g id="node1" class="node">
<title>Node1</title>
<g id="a_node1"><a xlink:title=" ">
<polygon fill="#bfbfbf" stroke="black" points="362.5,-313.5 362.5,-343.5 489.5,-343.5 489.5,-313.5 362.5,-313.5"/>
<text text-anchor="start" x="370.5" y="-331.5" font-family="Helvetica,sans-Serif" font-size="10.00">net/socket/stream/legacy</text>
<text text-anchor="middle" x="426" y="-320.5" font-family="Helvetica,sans-Serif" font-size="10.00">/SocketConnector.h</text>
</a>
</g>
</g>
<!-- Node2 -->
<g id="node2" class="node">
<title>Node2</title>
<g id="a_node2"><a xlink:href="_socket_connector_8h.html" target="_top" xlink:title=" ">
<polygon fill="white" stroke="black" points="288.5,-246.5 288.5,-276.5 417.5,-276.5 417.5,-246.5 288.5,-246.5"/>
<text text-anchor="start" x="296.5" y="-264.5" font-family="Helvetica,sans-Serif" font-size="10.00">net/socket/stream/Socket</text>
<text text-anchor="middle" x="353" y="-253.5" font-family="Helvetica,sans-Serif" font-size="10.00">Connector.h</text>
</a>
</g>
</g>
<!-- Node1&#45;&gt;Node2 -->
<g id="edge1" class="edge">
<title>Node1&#45;&gt;Node2</title>
<path fill="none" stroke="midnightblue" d="M410.16,-313.4C400.31,-304.62 387.46,-293.18 376.44,-283.37"/>
<polygon fill="midnightblue" stroke="midnightblue" points="378.6,-280.61 368.81,-276.58 373.95,-285.84 378.6,-280.61"/>
</g>
<!-- Node10 -->
<g id="node10" class="node">
<title>Node10</title>
<g id="a_node10"><a xlink:href="legacy_2_socket_connection_8h.html" target="_top" xlink:title=" ">
<polygon fill="white" stroke="black" points="502.5,-246.5 502.5,-276.5 629.5,-276.5 629.5,-246.5 502.5,-246.5"/>
<text text-anchor="start" x="510.5" y="-264.5" font-family="Helvetica,sans-Serif" font-size="10.00">net/socket/stream/legacy</text>
<text text-anchor="middle" x="566" y="-253.5" font-family="Helvetica,sans-Serif" font-size="10.00">/SocketConnection.h</text>
</a>
</g>
</g>
<!-- Node1&#45;&gt;Node10 -->
<g id="edge10" class="edge">
<title>Node1&#45;&gt;Node10</title>
<path fill="none" stroke="midnightblue" d="M456.38,-313.4C476.93,-303.86 504.26,-291.16 526.5,-280.84"/>
<polygon fill="midnightblue" stroke="midnightblue" points="528.09,-283.96 535.68,-276.58 525.14,-277.61 528.09,-283.96"/>
</g>
<!-- Node3 -->
<g id="node3" class="node">
<title>Node3</title>
<g id="a_node3"><a xlink:href="_connect_event_receiver_8h.html" target="_top" xlink:title=" ">
<polygon fill="white" stroke="black" points="233,-56.5 233,-75.5 375,-75.5 375,-56.5 233,-56.5"/>
<text text-anchor="middle" x="304" y="-63.5" font-family="Helvetica,sans-Serif" font-size="10.00">net/ConnectEventReceiver.h</text>
</a>
</g>
</g>
<!-- Node2&#45;&gt;Node3 -->
<g id="edge2" class="edge">
<title>Node2&#45;&gt;Node3</title>
<path fill="none" stroke="midnightblue" d="M342.49,-246.24C327.58,-225.02 300.98,-183.3 291,-143 286.14,-123.36 291.55,-100.43 296.79,-84.93"/>
<polygon fill="midnightblue" stroke="midnightblue" points="300.09,-86.11 300.27,-75.52 293.52,-83.68 300.09,-86.11"/>
</g>
<!-- Node5 -->
<g id="node5" class="node">
<title>Node5</title>
<g id="a_node5"><a xlink:href="socket_2_socket_8h.html" target="_top" xlink:title=" ">
<polygon fill="white" stroke="black" points="131,-185 131,-204 235,-204 235,-185 131,-185"/>
<text text-anchor="middle" x="183" y="-192" font-family="Helvetica,sans-Serif" font-size="10.00">net/socket/Socket.h</text>
</a>
</g>
</g>
<!-- Node2&#45;&gt;Node5 -->
<g id="edge4" class="edge">
<title>Node2&#45;&gt;Node5</title>
<path fill="none" stroke="midnightblue" d="M316.11,-246.4C285.89,-234.84 243.56,-218.66 214.81,-207.66"/>
<polygon fill="midnightblue" stroke="midnightblue" points="215.84,-204.31 205.25,-204.01 213.34,-210.85 215.84,-204.31"/>
</g>
<!-- Node8 -->
<g id="node8" class="node">
<title>Node8</title>
<g id="a_node8"><a xlink:href="system_2_socket_8h.html" target="_top" xlink:title=" ">
<polygon fill="white" stroke="black" points="300,-118 300,-137 406,-137 406,-118 300,-118"/>
<text text-anchor="middle" x="353" y="-125" font-family="Helvetica,sans-Serif" font-size="10.00">net/system/socket.h</text>
</a>
</g>
</g>
<!-- Node2&#45;&gt;Node8 -->
<g id="edge9" class="edge">
<title>Node2&#45;&gt;Node8</title>
<path fill="none" stroke="midnightblue" d="M353,-246.37C353,-222.5 353,-174.18 353,-147.41"/>
<polygon fill="midnightblue" stroke="midnightblue" points="356.5,-147.1 353,-137.1 349.5,-147.1 356.5,-147.1"/>
</g>
<!-- Node9 -->
<g id="node9" class="node">
<title>Node9</title>
<g id="a_node9"><a xlink:href="net_2socket_2stream_2_socket_context_factory_8h.html" target="_top" xlink:title=" ">
<polygon fill="white" stroke="black" points="718.5,-112.5 718.5,-142.5 847.5,-142.5 847.5,-112.5 718.5,-112.5"/>
<text text-anchor="start" x="726.5" y="-130.5" font-family="Helvetica,sans-Serif" font-size="10.00">net/socket/stream/Socket</text>
<text text-anchor="middle" x="783" y="-119.5" font-family="Helvetica,sans-Serif" font-size="10.00">ContextFactory.h</text>
</a>
</g>
</g>
<!-- Node2&#45;&gt;Node9 -->
<g id="edge8" class="edge">
<title>Node2&#45;&gt;Node9</title>
<path fill="none" stroke="midnightblue" d="M417.83,-252.54C507.51,-241.24 661.14,-220.72 685,-210 716.22,-195.97 745.49,-169.14 763.77,-150.1"/>
<polygon fill="midnightblue" stroke="midnightblue" points="766.4,-152.42 770.68,-142.73 761.29,-147.63 766.4,-152.42"/>
</g>
<!-- Node4 -->
<g id="node4" class="node">
<title>Node4</title>
<g id="a_node4"><a xlink:href="_descriptor_event_receiver_8h.html" target="_top" xlink:title=" ">
<polygon fill="white" stroke="black" points="414,-0.5 414,-19.5 564,-19.5 564,-0.5 414,-0.5"/>
<text text-anchor="middle" x="489" y="-7.5" font-family="Helvetica,sans-Serif" font-size="10.00">net/DescriptorEventReceiver.h</text>
</a>
</g>
</g>
<!-- Node3&#45;&gt;Node4 -->
<g id="edge3" class="edge">
<title>Node3&#45;&gt;Node4</title>
<path fill="none" stroke="midnightblue" d="M333.31,-56.44C364.84,-47.24 415.13,-32.56 449.99,-22.39"/>
<polygon fill="midnightblue" stroke="midnightblue" points="451.2,-25.68 459.82,-19.52 449.24,-18.96 451.2,-25.68"/>
</g>
<!-- Node6 -->
<g id="node6" class="node">
<title>Node6</title>
<g id="a_node6"><a xlink:href="_descriptor_8h.html" target="_top" xlink:title=" ">
<polygon fill="white" stroke="black" points="0,-118 0,-137 86,-137 86,-118 0,-118"/>
<text text-anchor="middle" x="43" y="-125" font-family="Helvetica,sans-Serif" font-size="10.00">net/Descriptor.h</text>
</a>
</g>
</g>
<!-- Node5&#45;&gt;Node6 -->
<g id="edge5" class="edge">
<title>Node5&#45;&gt;Node6</title>
<path fill="none" stroke="midnightblue" d="M164.41,-184.87C140.46,-173.75 98.61,-154.32 70.85,-141.43"/>
<polygon fill="midnightblue" stroke="midnightblue" points="72.21,-138.2 61.67,-137.17 69.26,-144.55 72.21,-138.2"/>
</g>
<!-- Node7 -->
<g id="node7" class="node">
<title>Node7</title>
<g id="a_node7"><a xlink:href="_socket_address_8h.html" target="_top" xlink:title=" ">
<polygon fill="white" stroke="black" points="104,-118 104,-137 244,-137 244,-118 104,-118"/>
<text text-anchor="middle" x="174" y="-125" font-family="Helvetica,sans-Serif" font-size="10.00">net/socket/SocketAddress.h</text>
</a>
</g>
</g>
<!-- Node5&#45;&gt;Node7 -->
<g id="edge6" class="edge">
<title>Node5&#45;&gt;Node7</title>
<path fill="none" stroke="midnightblue" d="M181.79,-184.73C180.46,-175.18 178.31,-159.62 176.6,-147.28"/>
<polygon fill="midnightblue" stroke="midnightblue" points="180.03,-146.55 175.19,-137.13 173.1,-147.51 180.03,-146.55"/>
</g>
<!-- Node5&#45;&gt;Node8 -->
<g id="edge7" class="edge">
<title>Node5&#45;&gt;Node8</title>
<path fill="none" stroke="midnightblue" d="M205.57,-184.87C235.25,-173.52 287.55,-153.52 321.22,-140.65"/>
<polygon fill="midnightblue" stroke="midnightblue" points="322.51,-143.9 330.6,-137.06 320.01,-137.37 322.51,-143.9"/>
</g>
<!-- Node11 -->
<g id="node11" class="node">
<title>Node11</title>
<g id="a_node11"><a xlink:href="_socket_connection_8h.html" target="_top" xlink:title=" ">
<polygon fill="white" stroke="black" points="811.5,-179.5 811.5,-209.5 940.5,-209.5 940.5,-179.5 811.5,-179.5"/>
<text text-anchor="start" x="819.5" y="-197.5" font-family="Helvetica,sans-Serif" font-size="10.00">net/socket/stream/Socket</text>
<text text-anchor="middle" x="876" y="-186.5" font-family="Helvetica,sans-Serif" font-size="10.00">Connection.h</text>
</a>
</g>
</g>
<!-- Node10&#45;&gt;Node11 -->
<g id="edge11" class="edge">
<title>Node10&#45;&gt;Node11</title>
<path fill="none" stroke="midnightblue" d="M629.86,-247.11C679.73,-236.65 749.12,-222.1 801.52,-211.12"/>
<polygon fill="midnightblue" stroke="midnightblue" points="802.36,-214.52 811.43,-209.04 800.92,-207.67 802.36,-214.52"/>
</g>
<!-- Node15 -->
<g id="node15" class="node">
<title>Node15</title>
<g id="a_node15"><a xlink:href="legacy_2_socket_reader_8h.html" target="_top" xlink:title=" ">
<polygon fill="white" stroke="black" points="403.5,-179.5 403.5,-209.5 530.5,-209.5 530.5,-179.5 403.5,-179.5"/>
<text text-anchor="start" x="411.5" y="-197.5" font-family="Helvetica,sans-Serif" font-size="10.00">net/socket/stream/legacy</text>
<text text-anchor="middle" x="467" y="-186.5" font-family="Helvetica,sans-Serif" font-size="10.00">/SocketReader.h</text>
</a>
</g>
</g>
<!-- Node10&#45;&gt;Node15 -->
<g id="edge16" class="edge">
<title>Node10&#45;&gt;Node15</title>
<path fill="none" stroke="midnightblue" d="M544.52,-246.4C530.64,-237.28 512.37,-225.29 497.06,-215.24"/>
<polygon fill="midnightblue" stroke="midnightblue" points="498.72,-212.14 488.44,-209.58 494.88,-217.99 498.72,-212.14"/>
</g>
<!-- Node18 -->
<g id="node18" class="node">
<title>Node18</title>
<g id="a_node18"><a xlink:href="legacy_2_socket_writer_8h.html" target="_top" xlink:title=" ">
<polygon fill="white" stroke="black" points="548.5,-179.5 548.5,-209.5 675.5,-209.5 675.5,-179.5 548.5,-179.5"/>
<text text-anchor="start" x="556.5" y="-197.5" font-family="Helvetica,sans-Serif" font-size="10.00">net/socket/stream/legacy</text>
<text text-anchor="middle" x="612" y="-186.5" font-family="Helvetica,sans-Serif" font-size="10.00">/SocketWriter.h</text>
</a>
</g>
</g>
<!-- Node10&#45;&gt;Node18 -->
<g id="edge21" class="edge">
<title>Node10&#45;&gt;Node18</title>
<path fill="none" stroke="midnightblue" d="M575.98,-246.4C581.89,-238.05 589.5,-227.29 596.21,-217.81"/>
<polygon fill="midnightblue" stroke="midnightblue" points="599.12,-219.76 602.04,-209.58 593.4,-215.72 599.12,-219.76"/>
</g>
<!-- Node11&#45;&gt;Node9 -->
<g id="edge15" class="edge">
<title>Node11&#45;&gt;Node9</title>
<path fill="none" stroke="midnightblue" d="M855.82,-179.4C842.9,-170.37 825.94,-158.51 811.64,-148.52"/>
<polygon fill="midnightblue" stroke="midnightblue" points="813.34,-145.44 803.14,-142.58 809.33,-151.17 813.34,-145.44"/>
</g>
<!-- Node12 -->
<g id="node12" class="node">
<title>Node12</title>
<g id="a_node12"><a xlink:href="_logger_8h.html" target="_top" xlink:title=" ">
<polygon fill="white" stroke="black" points="779.5,-56.5 779.5,-75.5 848.5,-75.5 848.5,-56.5 779.5,-56.5"/>
<text text-anchor="middle" x="814" y="-63.5" font-family="Helvetica,sans-Serif" font-size="10.00">log/Logger.h</text>
</a>
</g>
</g>
<!-- Node11&#45;&gt;Node12 -->
<g id="edge12" class="edge">
<title>Node11&#45;&gt;Node12</title>
<path fill="none" stroke="midnightblue" d="M874.99,-179.44C873.27,-162.54 868.75,-133.72 857,-112 851,-100.91 841.53,-90.58 833.01,-82.62"/>
<polygon fill="midnightblue" stroke="midnightblue" points="835.08,-79.77 825.27,-75.77 830.44,-85.02 835.08,-79.77"/>
</g>
<!-- Node13 -->
<g id="node13" class="node">
<title>Node13</title>
<g id="a_node13"><a xlink:href="_socket_connection_base_8h.html" target="_top" xlink:title=" ">
<polygon fill="white" stroke="black" points="904.5,-112.5 904.5,-142.5 1033.5,-142.5 1033.5,-112.5 904.5,-112.5"/>
<text text-anchor="start" x="912.5" y="-130.5" font-family="Helvetica,sans-Serif" font-size="10.00">net/socket/stream/Socket</text>
<text text-anchor="middle" x="969" y="-119.5" font-family="Helvetica,sans-Serif" font-size="10.00">ConnectionBase.h</text>
</a>
</g>
</g>
<!-- Node11&#45;&gt;Node13 -->
<g id="edge13" class="edge">
<title>Node11&#45;&gt;Node13</title>
<path fill="none" stroke="midnightblue" d="M896.18,-179.4C909.1,-170.37 926.06,-158.51 940.36,-148.52"/>
<polygon fill="midnightblue" stroke="midnightblue" points="942.67,-151.17 948.86,-142.58 938.66,-145.44 942.67,-151.17"/>
</g>
<!-- Node14 -->
<g id="node14" class="node">
<title>Node14</title>
<g id="a_node14"><a xlink:href="net_2socket_2stream_2_socket_context_8h.html" target="_top" xlink:title=" ">
<polygon fill="white" stroke="black" points="1051.5,-112.5 1051.5,-142.5 1180.5,-142.5 1180.5,-112.5 1051.5,-112.5"/>
<text text-anchor="start" x="1059.5" y="-130.5" font-family="Helvetica,sans-Serif" font-size="10.00">net/socket/stream/Socket</text>
<text text-anchor="middle" x="1116" y="-119.5" font-family="Helvetica,sans-Serif" font-size="10.00">Context.h</text>
</a>
</g>
</g>
<!-- Node11&#45;&gt;Node14 -->
<g id="edge14" class="edge">
<title>Node11&#45;&gt;Node14</title>
<path fill="none" stroke="midnightblue" d="M927.78,-179.48C964.87,-169.43 1014.99,-155.86 1054.18,-145.24"/>
<polygon fill="midnightblue" stroke="midnightblue" points="1055.16,-148.6 1063.9,-142.61 1053.33,-141.85 1055.16,-148.6"/>
</g>
<!-- Node15&#45;&gt;Node8 -->
<g id="edge20" class="edge">
<title>Node15&#45;&gt;Node8</title>
<path fill="none" stroke="midnightblue" d="M442.26,-179.4C422.79,-168.29 395.83,-152.92 376.65,-141.98"/>
<polygon fill="midnightblue" stroke="midnightblue" points="378.34,-138.92 367.92,-137.01 374.87,-145 378.34,-138.92"/>
</g>
<!-- Node16 -->
<g id="node16" class="node">
<title>Node16</title>
<g id="a_node16"><a xlink:href="_socket_reader_8h.html" target="_top" xlink:title=" ">
<polygon fill="white" stroke="black" points="424.5,-112.5 424.5,-142.5 553.5,-142.5 553.5,-112.5 424.5,-112.5"/>
<text text-anchor="start" x="432.5" y="-130.5" font-family="Helvetica,sans-Serif" font-size="10.00">net/socket/stream/Socket</text>
<text text-anchor="middle" x="489" y="-119.5" font-family="Helvetica,sans-Serif" font-size="10.00">Reader.h</text>
</a>
</g>
</g>
<!-- Node15&#45;&gt;Node16 -->
<g id="edge17" class="edge">
<title>Node15&#45;&gt;Node16</title>
<path fill="none" stroke="midnightblue" d="M471.77,-179.4C474.45,-171.47 477.87,-161.38 480.95,-152.27"/>
<polygon fill="midnightblue" stroke="midnightblue" points="484.34,-153.17 484.24,-142.58 477.71,-150.93 484.34,-153.17"/>
</g>
<!-- Node17 -->
<g id="node17" class="node">
<title>Node17</title>
<g id="a_node17"><a xlink:href="_read_event_receiver_8h.html" target="_top" xlink:title=" ">
<polygon fill="white" stroke="black" points="425,-56.5 425,-75.5 553,-75.5 553,-56.5 425,-56.5"/>
<text text-anchor="middle" x="489" y="-63.5" font-family="Helvetica,sans-Serif" font-size="10.00">net/ReadEventReceiver.h</text>
</a>
</g>
</g>
<!-- Node16&#45;&gt;Node17 -->
<g id="edge18" class="edge">
<title>Node16&#45;&gt;Node17</title>
<path fill="none" stroke="midnightblue" d="M489,-112.4C489,-104.47 489,-94.46 489,-85.86"/>
<polygon fill="midnightblue" stroke="midnightblue" points="492.5,-85.66 489,-75.66 485.5,-85.66 492.5,-85.66"/>
</g>
<!-- Node17&#45;&gt;Node4 -->
<g id="edge19" class="edge">
<title>Node17&#45;&gt;Node4</title>
<path fill="none" stroke="midnightblue" d="M489,-56.08C489,-49.01 489,-38.86 489,-29.99"/>
<polygon fill="midnightblue" stroke="midnightblue" points="492.5,-29.75 489,-19.75 485.5,-29.75 492.5,-29.75"/>
</g>
<!-- Node18&#45;&gt;Node8 -->
<g id="edge26" class="edge">
<title>Node18&#45;&gt;Node8</title>
<path fill="none" stroke="midnightblue" d="M556.12,-179.48C508.38,-167.5 440.67,-150.5 396.78,-139.49"/>
<polygon fill="midnightblue" stroke="midnightblue" points="397.53,-136.07 386.98,-137.03 395.83,-142.86 397.53,-136.07"/>
</g>
<!-- Node19 -->
<g id="node19" class="node">
<title>Node19</title>
<g id="a_node19"><a xlink:href="_socket_writer_8h.html" target="_top" xlink:title=" ">
<polygon fill="white" stroke="black" points="571.5,-112.5 571.5,-142.5 700.5,-142.5 700.5,-112.5 571.5,-112.5"/>
<text text-anchor="start" x="579.5" y="-130.5" font-family="Helvetica,sans-Serif" font-size="10.00">net/socket/stream/Socket</text>
<text text-anchor="middle" x="636" y="-119.5" font-family="Helvetica,sans-Serif" font-size="10.00">Writer.h</text>
</a>
</g>
</g>
<!-- Node18&#45;&gt;Node19 -->
<g id="edge22" class="edge">
<title>Node18&#45;&gt;Node19</title>
<path fill="none" stroke="midnightblue" d="M617.21,-179.4C620.16,-171.39 623.94,-161.16 627.33,-151.98"/>
<polygon fill="midnightblue" stroke="midnightblue" points="630.62,-153.17 630.8,-142.58 624.06,-150.75 630.62,-153.17"/>
</g>
<!-- Node19&#45;&gt;Node12 -->
<g id="edge23" class="edge">
<title>Node19&#45;&gt;Node12</title>
<path fill="none" stroke="midnightblue" d="M678.18,-112.4C708.81,-102.16 749.77,-88.47 778.67,-78.81"/>
<polygon fill="midnightblue" stroke="midnightblue" points="779.98,-82.06 788.36,-75.57 777.77,-75.42 779.98,-82.06"/>
</g>
<!-- Node20 -->
<g id="node20" class="node">
<title>Node20</title>
<g id="a_node20"><a xlink:href="_write_event_receiver_8h.html" target="_top" xlink:title=" ">
<polygon fill="white" stroke="black" points="571,-56.5 571,-75.5 699,-75.5 699,-56.5 571,-56.5"/>
<text text-anchor="middle" x="635" y="-63.5" font-family="Helvetica,sans-Serif" font-size="10.00">net/WriteEventReceiver.h</text>
</a>
</g>
</g>
<!-- Node19&#45;&gt;Node20 -->
<g id="edge24" class="edge">
<title>Node19&#45;&gt;Node20</title>
<path fill="none" stroke="midnightblue" d="M635.76,-112.4C635.63,-104.47 635.46,-94.46 635.32,-85.86"/>
<polygon fill="midnightblue" stroke="midnightblue" points="638.81,-85.6 635.15,-75.66 631.81,-85.72 638.81,-85.6"/>
</g>
<!-- Node20&#45;&gt;Node4 -->
<g id="edge25" class="edge">
<title>Node20&#45;&gt;Node4</title>
<path fill="none" stroke="midnightblue" d="M611.87,-56.44C587.52,-47.44 548.99,-33.19 521.58,-23.05"/>
<polygon fill="midnightblue" stroke="midnightblue" points="522.62,-19.7 512.03,-19.52 520.19,-26.27 522.62,-19.7"/>
</g>
</g>
</svg>
