<?xml version="1.0" encoding="UTF-8" standalone="no"?>
<!DOCTYPE svg PUBLIC "-//W3C//DTD SVG 1.1//EN"
 "http://www.w3.org/Graphics/SVG/1.1/DTD/svg11.dtd">
<!-- Generated by graphviz version 2.43.0 (0)
 -->
<!-- Title: http/legacy/Server.h Pages: 1 -->
<svg width="1509pt" height="531pt"
 viewBox="0.00 0.00 1509.00 531.00" xmlns="http://www.w3.org/2000/svg" xmlns:xlink="http://www.w3.org/1999/xlink">
<g id="graph0" class="graph" transform="scale(1 1) rotate(0) translate(4 527)">
<title>http/legacy/Server.h</title>
<polygon fill="white" stroke="transparent" points="-4,4 -4,-527 1505,-527 1505,4 -4,4"/>
<!-- Node1 -->
<g id="node1" class="node">
<title>Node1</title>
<g id="a_node1"><a xlink:title=" ">
<polygon fill="#bfbfbf" stroke="black" points="1036.5,-503.5 1036.5,-522.5 1140.5,-522.5 1140.5,-503.5 1036.5,-503.5"/>
<text text-anchor="middle" x="1088.5" y="-510.5" font-family="Helvetica,sans-Serif" font-size="10.00">http/legacy/Server.h</text>
</a>
</g>
</g>
<!-- Node2 -->
<g id="node2" class="node">
<title>Node2</title>
<g id="a_node2"><a xlink:href="_server_8h.html" target="_top" xlink:title=" ">
<polygon fill="white" stroke="black" points="362.5,-308 362.5,-327 424.5,-327 424.5,-308 362.5,-308"/>
<text text-anchor="middle" x="393.5" y="-315" font-family="Helvetica,sans-Serif" font-size="10.00">../Server.h</text>
</a>
</g>
</g>
<!-- Node1&#45;&gt;Node2 -->
<g id="edge1" class="edge">
<title>Node1&#45;&gt;Node2</title>
<path fill="none" stroke="midnightblue" d="M1057.74,-503.44C945.84,-472.28 560.37,-364.96 433.99,-329.77"/>
<polygon fill="midnightblue" stroke="midnightblue" points="434.87,-326.39 424.3,-327.07 432.99,-333.13 434.87,-326.39"/>
</g>
<!-- Node16 -->
<g id="node16" class="node">
<title>Node16</title>
<g id="a_node16"><a xlink:href="ip_2tcp_2ipv4_2legacy_2_socket_server_8h.html" target="_top" xlink:title=" ">
<polygon fill="white" stroke="black" points="1029.5,-436.5 1029.5,-466.5 1147.5,-466.5 1147.5,-436.5 1029.5,-436.5"/>
<text text-anchor="start" x="1037.5" y="-454.5" font-family="Helvetica,sans-Serif" font-size="10.00">socket/ip/tcp/ipv4</text>
<text text-anchor="middle" x="1088.5" y="-443.5" font-family="Helvetica,sans-Serif" font-size="10.00">/legacy/SocketServer.h</text>
</a>
</g>
</g>
<!-- Node1&#45;&gt;Node16 -->
<g id="edge20" class="edge">
<title>Node1&#45;&gt;Node16</title>
<path fill="none" stroke="midnightblue" d="M1088.5,-503.48C1088.5,-496.47 1088.5,-486.19 1088.5,-476.7"/>
<polygon fill="midnightblue" stroke="midnightblue" points="1092,-476.52 1088.5,-466.52 1085,-476.52 1092,-476.52"/>
</g>
<!-- Node36 -->
<g id="node36" class="node">
<title>Node36</title>
<g id="a_node36"><a xlink:href="ip_2tcp_2ipv6_2legacy_2_socket_server_8h.html" target="_top" xlink:title=" ">
<polygon fill="white" stroke="black" points="1165.5,-436.5 1165.5,-466.5 1283.5,-466.5 1283.5,-436.5 1165.5,-436.5"/>
<text text-anchor="start" x="1173.5" y="-454.5" font-family="Helvetica,sans-Serif" font-size="10.00">socket/ip/tcp/ipv6</text>
<text text-anchor="middle" x="1224.5" y="-443.5" font-family="Helvetica,sans-Serif" font-size="10.00">/legacy/SocketServer.h</text>
</a>
</g>
</g>
<!-- Node1&#45;&gt;Node36 -->
<g id="edge48" class="edge">
<title>Node1&#45;&gt;Node36</title>
<path fill="none" stroke="midnightblue" d="M1107.99,-503.48C1127.52,-494.93 1158.21,-481.5 1183.19,-470.57"/>
<polygon fill="midnightblue" stroke="midnightblue" points="1184.69,-473.74 1192.45,-466.52 1181.88,-467.32 1184.69,-473.74"/>
</g>
<!-- Node3 -->
<g id="node3" class="node">
<title>Node3</title>
<g id="a_node3"><a xlink:href="http_2_request_8h.html" target="_top" xlink:title=" ">
<polygon fill="white" stroke="black" points="372.5,-118 372.5,-137 434.5,-137 434.5,-118 372.5,-118"/>
<text text-anchor="middle" x="403.5" y="-125" font-family="Helvetica,sans-Serif" font-size="10.00">Request.h</text>
</a>
</g>
</g>
<!-- Node2&#45;&gt;Node3 -->
<g id="edge2" class="edge">
<title>Node2&#45;&gt;Node3</title>
<path fill="none" stroke="midnightblue" d="M397.86,-307.84C402.55,-297.99 409.72,-281.3 412.5,-266 420.14,-223.99 412.75,-173.71 407.58,-147.12"/>
<polygon fill="midnightblue" stroke="midnightblue" points="410.99,-146.36 405.54,-137.27 404.14,-147.77 410.99,-146.36"/>
</g>
<!-- Node6 -->
<g id="node6" class="node">
<title>Node6</title>
<g id="a_node6"><a xlink:href="http_2_response_8h.html" target="_top" xlink:title=" ">
<polygon fill="white" stroke="black" points="101,-118 101,-137 170,-137 170,-118 101,-118"/>
<text text-anchor="middle" x="135.5" y="-125" font-family="Helvetica,sans-Serif" font-size="10.00">Response.h</text>
</a>
</g>
</g>
<!-- Node2&#45;&gt;Node6 -->
<g id="edge5" class="edge">
<title>Node2&#45;&gt;Node6</title>
<path fill="none" stroke="midnightblue" d="M362.35,-312.99C308.49,-305.13 198.65,-280.84 145.5,-210 131.96,-191.95 131.34,-165.08 132.84,-147.18"/>
<polygon fill="midnightblue" stroke="midnightblue" points="136.33,-147.46 133.98,-137.13 129.37,-146.67 136.33,-147.46"/>
</g>
<!-- Node9 -->
<g id="node9" class="node">
<title>Node9</title>
<g id="a_node9"><a xlink:href="_server_context_8hpp.html" target="_top" xlink:title=" ">
<polygon fill="white" stroke="black" points="305.5,-246.5 305.5,-265.5 403.5,-265.5 403.5,-246.5 305.5,-246.5"/>
<text text-anchor="middle" x="354.5" y="-253.5" font-family="Helvetica,sans-Serif" font-size="10.00">ServerContext.hpp</text>
</a>
</g>
</g>
<!-- Node2&#45;&gt;Node9 -->
<g id="edge9" class="edge">
<title>Node2&#45;&gt;Node9</title>
<path fill="none" stroke="midnightblue" d="M387.91,-307.98C382.12,-299.14 372.91,-285.09 365.63,-273.98"/>
<polygon fill="midnightblue" stroke="midnightblue" points="368.49,-271.95 360.08,-265.51 362.63,-275.79 368.49,-271.95"/>
</g>
<!-- Node4 -->
<g id="node4" class="node">
<title>Node4</title>
<g id="a_node4"><a xlink:href="_attribute_injector_8h.html" target="_top" xlink:title=" ">
<polygon fill="white" stroke="black" points="450,-56.5 450,-75.5 543,-75.5 543,-56.5 450,-56.5"/>
<text text-anchor="middle" x="496.5" y="-63.5" font-family="Helvetica,sans-Serif" font-size="10.00">AttributeInjector.h</text>
</a>
</g>
</g>
<!-- Node3&#45;&gt;Node4 -->
<g id="edge3" class="edge">
<title>Node3&#45;&gt;Node4</title>
<path fill="none" stroke="midnightblue" d="M416.82,-117.98C431.88,-108.34 456.62,-92.52 474.54,-81.05"/>
<polygon fill="midnightblue" stroke="midnightblue" points="476.66,-83.85 483.2,-75.51 472.89,-77.95 476.66,-83.85"/>
</g>
<!-- Node5 -->
<g id="node5" class="node">
<title>Node5</title>
<g id="a_node5"><a xlink:href="_connection_state_8h.html" target="_top" xlink:title=" ">
<polygon fill="white" stroke="black" points="295.5,-56.5 295.5,-75.5 393.5,-75.5 393.5,-56.5 295.5,-56.5"/>
<text text-anchor="middle" x="344.5" y="-63.5" font-family="Helvetica,sans-Serif" font-size="10.00">ConnectionState.h</text>
</a>
</g>
</g>
<!-- Node3&#45;&gt;Node5 -->
<g id="edge4" class="edge">
<title>Node3&#45;&gt;Node5</title>
<path fill="none" stroke="midnightblue" d="M395.05,-117.98C385.93,-108.78 371.23,-93.96 360.02,-82.66"/>
<polygon fill="midnightblue" stroke="midnightblue" points="362.46,-80.15 352.94,-75.51 357.49,-85.07 362.46,-80.15"/>
</g>
<!-- Node6&#45;&gt;Node5 -->
<g id="edge6" class="edge">
<title>Node6&#45;&gt;Node5</title>
<path fill="none" stroke="midnightblue" d="M159.98,-117.96C166.01,-115.94 172.47,-113.83 178.5,-112 219.67,-99.49 267.08,-86.81 300.67,-78.11"/>
<polygon fill="midnightblue" stroke="midnightblue" points="301.82,-81.43 310.63,-75.54 300.07,-74.65 301.82,-81.43"/>
</g>
<!-- Node7 -->
<g id="node7" class="node">
<title>Node7</title>
<g id="a_node7"><a xlink:href="_cookie_options_8h.html" target="_top" xlink:title=" ">
<polygon fill="white" stroke="black" points="95,-56.5 95,-75.5 184,-75.5 184,-56.5 95,-56.5"/>
<text text-anchor="middle" x="139.5" y="-63.5" font-family="Helvetica,sans-Serif" font-size="10.00">CookieOptions.h</text>
</a>
</g>
</g>
<!-- Node6&#45;&gt;Node7 -->
<g id="edge7" class="edge">
<title>Node6&#45;&gt;Node7</title>
<path fill="none" stroke="midnightblue" d="M136.07,-117.98C136.64,-109.58 137.52,-96.48 138.25,-85.66"/>
<polygon fill="midnightblue" stroke="midnightblue" points="141.75,-85.72 138.93,-75.51 134.76,-85.25 141.75,-85.72"/>
</g>
<!-- Node8 -->
<g id="node8" class="node">
<title>Node8</title>
<g id="a_node8"><a xlink:href="_sink_8h.html" target="_top" xlink:title=" ">
<polygon fill="white" stroke="black" points="0,-56.5 0,-75.5 77,-75.5 77,-56.5 0,-56.5"/>
<text text-anchor="middle" x="38.5" y="-63.5" font-family="Helvetica,sans-Serif" font-size="10.00">stream/Sink.h</text>
</a>
</g>
</g>
<!-- Node6&#45;&gt;Node8 -->
<g id="edge8" class="edge">
<title>Node6&#45;&gt;Node8</title>
<path fill="none" stroke="midnightblue" d="M121.6,-117.98C105.83,-108.3 79.86,-92.37 61.15,-80.89"/>
<polygon fill="midnightblue" stroke="midnightblue" points="62.73,-77.75 52.37,-75.51 59.07,-83.72 62.73,-77.75"/>
</g>
<!-- Node9&#45;&gt;Node5 -->
<g id="edge10" class="edge">
<title>Node9&#45;&gt;Node5</title>
<path fill="none" stroke="midnightblue" d="M354.04,-246.43C352.53,-217.93 347.63,-125.82 345.5,-85.83"/>
<polygon fill="midnightblue" stroke="midnightblue" points="348.98,-85.42 344.96,-75.62 341.99,-85.79 348.98,-85.42"/>
</g>
<!-- Node10 -->
<g id="node10" class="node">
<title>Node10</title>
<g id="a_node10"><a xlink:href="_logger_8h.html" target="_top" xlink:title=" ">
<polygon fill="white" stroke="black" points="882,-56.5 882,-75.5 935,-75.5 935,-56.5 882,-56.5"/>
<text text-anchor="middle" x="908.5" y="-63.5" font-family="Helvetica,sans-Serif" font-size="10.00">Logger.h</text>
</a>
</g>
</g>
<!-- Node9&#45;&gt;Node10 -->
<g id="edge11" class="edge">
<title>Node9&#45;&gt;Node10</title>
<path fill="none" stroke="midnightblue" d="M374.35,-246.35C429.43,-222.58 589.2,-155.13 726.5,-112 787.27,-92.91 805.91,-92.14 871.71,-76.16"/>
<polygon fill="midnightblue" stroke="midnightblue" points="872.89,-79.48 881.77,-73.69 871.22,-72.68 872.89,-79.48"/>
</g>
<!-- Node11 -->
<g id="node11" class="node">
<title>Node11</title>
<g id="a_node11"><a xlink:href="_server_context_8h.html" target="_top" xlink:title=" ">
<polygon fill="white" stroke="black" points="154.5,-185 154.5,-204 242.5,-204 242.5,-185 154.5,-185"/>
<text text-anchor="middle" x="198.5" y="-192" font-family="Helvetica,sans-Serif" font-size="10.00">ServerContext.h</text>
</a>
</g>
</g>
<!-- Node9&#45;&gt;Node11 -->
<g id="edge12" class="edge">
<title>Node9&#45;&gt;Node11</title>
<path fill="none" stroke="midnightblue" d="M332.15,-246.48C305.51,-236.31 260.79,-219.26 230.49,-207.7"/>
<polygon fill="midnightblue" stroke="midnightblue" points="231.4,-204.3 220.81,-204.01 228.91,-210.84 231.4,-204.3"/>
</g>
<!-- Node14 -->
<g id="node14" class="node">
<title>Node14</title>
<g id="a_node14"><a xlink:href="http__utils_8h.html" target="_top" xlink:title=" ">
<polygon fill="white" stroke="black" points="261,-185 261,-204 326,-204 326,-185 261,-185"/>
<text text-anchor="middle" x="293.5" y="-192" font-family="Helvetica,sans-Serif" font-size="10.00">http_utils.h</text>
</a>
</g>
</g>
<!-- Node9&#45;&gt;Node14 -->
<g id="edge17" class="edge">
<title>Node9&#45;&gt;Node14</title>
<path fill="none" stroke="midnightblue" d="M345.76,-246.48C336.34,-237.28 321.14,-222.46 309.55,-211.16"/>
<polygon fill="midnightblue" stroke="midnightblue" points="311.83,-208.49 302.22,-204.01 306.94,-213.5 311.83,-208.49"/>
</g>
<!-- Node15 -->
<g id="node15" class="node">
<title>Node15</title>
<g id="a_node15"><a xlink:href="_socket_connection_base_8h.html" target="_top" xlink:title=" ">
<polygon fill="white" stroke="black" points="452.5,-112.5 452.5,-142.5 614.5,-142.5 614.5,-112.5 452.5,-112.5"/>
<text text-anchor="start" x="460.5" y="-130.5" font-family="Helvetica,sans-Serif" font-size="10.00">socket/stream/SocketConnection</text>
<text text-anchor="middle" x="533.5" y="-119.5" font-family="Helvetica,sans-Serif" font-size="10.00">Base.h</text>
</a>
</g>
</g>
<!-- Node9&#45;&gt;Node15 -->
<g id="edge18" class="edge">
<title>Node9&#45;&gt;Node15</title>
<path fill="none" stroke="midnightblue" d="M366.8,-246.31C395.08,-226.33 465.29,-176.71 504.98,-148.65"/>
<polygon fill="midnightblue" stroke="midnightblue" points="507.29,-151.31 513.43,-142.68 503.25,-145.6 507.29,-151.31"/>
</g>
<!-- Node11&#45;&gt;Node3 -->
<g id="edge13" class="edge">
<title>Node11&#45;&gt;Node3</title>
<path fill="none" stroke="midnightblue" d="M225.72,-184.87C261.97,-173.38 326.2,-153.01 366.73,-140.16"/>
<polygon fill="midnightblue" stroke="midnightblue" points="368.02,-143.42 376.49,-137.06 365.9,-136.75 368.02,-143.42"/>
</g>
<!-- Node11&#45;&gt;Node6 -->
<g id="edge16" class="edge">
<title>Node11&#45;&gt;Node6</title>
<path fill="none" stroke="midnightblue" d="M190,-184.73C179.99,-174.4 163.16,-157.04 150.84,-144.33"/>
<polygon fill="midnightblue" stroke="midnightblue" points="153.33,-141.87 143.86,-137.13 148.31,-146.74 153.33,-141.87"/>
</g>
<!-- Node12 -->
<g id="node12" class="node">
<title>Node12</title>
<g id="a_node12"><a xlink:href="_request_parser_8h.html" target="_top" xlink:title=" ">
<polygon fill="white" stroke="black" points="188,-118 188,-137 277,-137 277,-118 188,-118"/>
<text text-anchor="middle" x="232.5" y="-125" font-family="Helvetica,sans-Serif" font-size="10.00">RequestParser.h</text>
</a>
</g>
</g>
<!-- Node11&#45;&gt;Node12 -->
<g id="edge14" class="edge">
<title>Node11&#45;&gt;Node12</title>
<path fill="none" stroke="midnightblue" d="M203.09,-184.73C208.23,-174.89 216.72,-158.66 223.26,-146.16"/>
<polygon fill="midnightblue" stroke="midnightblue" points="226.45,-147.61 227.99,-137.13 220.25,-144.37 226.45,-147.61"/>
</g>
<!-- Node13 -->
<g id="node13" class="node">
<title>Node13</title>
<g id="a_node13"><a xlink:href="_parser_8h.html" target="_top" xlink:title=" ">
<polygon fill="white" stroke="black" points="206,-56.5 206,-75.5 259,-75.5 259,-56.5 206,-56.5"/>
<text text-anchor="middle" x="232.5" y="-63.5" font-family="Helvetica,sans-Serif" font-size="10.00">Parser.h</text>
</a>
</g>
</g>
<!-- Node12&#45;&gt;Node13 -->
<g id="edge15" class="edge">
<title>Node12&#45;&gt;Node13</title>
<path fill="none" stroke="midnightblue" d="M232.5,-117.98C232.5,-109.58 232.5,-96.48 232.5,-85.66"/>
<polygon fill="midnightblue" stroke="midnightblue" points="236,-85.51 232.5,-75.51 229,-85.51 236,-85.51"/>
</g>
<!-- Node15&#45;&gt;Node4 -->
<g id="edge19" class="edge">
<title>Node15&#45;&gt;Node4</title>
<path fill="none" stroke="midnightblue" d="M524.73,-112.4C519.52,-104.02 512.87,-93.33 507.33,-84.42"/>
<polygon fill="midnightblue" stroke="midnightblue" points="510.14,-82.3 501.88,-75.66 504.19,-86 510.14,-82.3"/>
</g>
<!-- Node17 -->
<g id="node17" class="node">
<title>Node17</title>
<g id="a_node17"><a xlink:href="ip_2tcp_2ipv4_2_socket_8h.html" target="_top" xlink:title=" ">
<polygon fill="white" stroke="black" points="1161.5,-369.5 1161.5,-399.5 1255.5,-399.5 1255.5,-369.5 1161.5,-369.5"/>
<text text-anchor="start" x="1169.5" y="-387.5" font-family="Helvetica,sans-Serif" font-size="10.00">socket/ip/tcp/ipv4</text>
<text text-anchor="middle" x="1208.5" y="-376.5" font-family="Helvetica,sans-Serif" font-size="10.00">/Socket.h</text>
</a>
</g>
</g>
<!-- Node16&#45;&gt;Node17 -->
<g id="edge21" class="edge">
<title>Node16&#45;&gt;Node17</title>
<path fill="none" stroke="midnightblue" d="M1114.54,-436.4C1131.84,-427.03 1154.75,-414.62 1173.62,-404.39"/>
<polygon fill="midnightblue" stroke="midnightblue" points="1175.39,-407.42 1182.51,-399.58 1172.05,-401.26 1175.39,-407.42"/>
</g>
<!-- Node22 -->
<g id="node22" class="node">
<title>Node22</title>
<g id="a_node22"><a xlink:href="stream_2legacy_2_socket_server_8h.html" target="_top" xlink:title=" ">
<polygon fill="white" stroke="black" points="1033.5,-369.5 1033.5,-399.5 1143.5,-399.5 1143.5,-369.5 1033.5,-369.5"/>
<text text-anchor="start" x="1041.5" y="-387.5" font-family="Helvetica,sans-Serif" font-size="10.00">socket/stream/legacy</text>
<text text-anchor="middle" x="1088.5" y="-376.5" font-family="Helvetica,sans-Serif" font-size="10.00">/SocketServer.h</text>
</a>
</g>
</g>
<!-- Node16&#45;&gt;Node22 -->
<g id="edge27" class="edge">
<title>Node16&#45;&gt;Node22</title>
<path fill="none" stroke="midnightblue" d="M1088.5,-436.4C1088.5,-428.64 1088.5,-418.81 1088.5,-409.86"/>
<polygon fill="midnightblue" stroke="midnightblue" points="1092,-409.58 1088.5,-399.58 1085,-409.58 1092,-409.58"/>
</g>
<!-- Node18 -->
<g id="node18" class="node">
<title>Node18</title>
<g id="a_node18"><a xlink:href="_socket_8h.html" target="_top" xlink:title=" ">
<polygon fill="white" stroke="black" points="1280.5,-308 1280.5,-327 1368.5,-327 1368.5,-308 1280.5,-308"/>
<text text-anchor="middle" x="1324.5" y="-315" font-family="Helvetica,sans-Serif" font-size="10.00">socket/Socket.h</text>
</a>
</g>
</g>
<!-- Node17&#45;&gt;Node18 -->
<g id="edge22" class="edge">
<title>Node17&#45;&gt;Node18</title>
<path fill="none" stroke="midnightblue" d="M1233.67,-369.4C1253.48,-358.29 1280.92,-342.92 1300.44,-331.98"/>
<polygon fill="midnightblue" stroke="midnightblue" points="1302.31,-334.95 1309.32,-327.01 1298.88,-328.84 1302.31,-334.95"/>
</g>
<!-- Node21 -->
<g id="node21" class="node">
<title>Node21</title>
<g id="a_node21"><a xlink:href="ipv4_2_inet_address_8h.html" target="_top" xlink:title=" ">
<polygon fill="white" stroke="black" points="1147,-302.5 1147,-332.5 1262,-332.5 1262,-302.5 1147,-302.5"/>
<text text-anchor="start" x="1155" y="-320.5" font-family="Helvetica,sans-Serif" font-size="10.00">socket/ip/address/ipv4</text>
<text text-anchor="middle" x="1204.5" y="-309.5" font-family="Helvetica,sans-Serif" font-size="10.00">/InetAddress.h</text>
</a>
</g>
</g>
<!-- Node17&#45;&gt;Node21 -->
<g id="edge25" class="edge">
<title>Node17&#45;&gt;Node21</title>
<path fill="none" stroke="midnightblue" d="M1207.63,-369.4C1207.15,-361.56 1206.54,-351.6 1205.98,-342.57"/>
<polygon fill="midnightblue" stroke="midnightblue" points="1209.47,-342.34 1205.37,-332.58 1202.49,-342.77 1209.47,-342.34"/>
</g>
<!-- Node19 -->
<g id="node19" class="node">
<title>Node19</title>
<g id="a_node19"><a xlink:href="_descriptor_8h.html" target="_top" xlink:title=" ">
<polygon fill="white" stroke="black" points="1278,-246.5 1278,-265.5 1347,-265.5 1347,-246.5 1278,-246.5"/>
<text text-anchor="middle" x="1312.5" y="-253.5" font-family="Helvetica,sans-Serif" font-size="10.00">Descriptor.h</text>
</a>
</g>
</g>
<!-- Node18&#45;&gt;Node19 -->
<g id="edge23" class="edge">
<title>Node18&#45;&gt;Node19</title>
<path fill="none" stroke="midnightblue" d="M1322.78,-307.98C1321.07,-299.49 1318.39,-286.2 1316.2,-275.32"/>
<polygon fill="midnightblue" stroke="midnightblue" points="1319.62,-274.62 1314.22,-265.51 1312.76,-276 1319.62,-274.62"/>
</g>
<!-- Node20 -->
<g id="node20" class="node">
<title>Node20</title>
<g id="a_node20"><a xlink:href="_socket_address_8h.html" target="_top" xlink:title=" ">
<polygon fill="white" stroke="black" points="1365.5,-246.5 1365.5,-265.5 1489.5,-265.5 1489.5,-246.5 1365.5,-246.5"/>
<text text-anchor="middle" x="1427.5" y="-253.5" font-family="Helvetica,sans-Serif" font-size="10.00">socket/SocketAddress.h</text>
</a>
</g>
</g>
<!-- Node18&#45;&gt;Node20 -->
<g id="edge24" class="edge">
<title>Node18&#45;&gt;Node20</title>
<path fill="none" stroke="midnightblue" d="M1339.26,-307.98C1356.16,-298.21 1384.08,-282.08 1403.99,-270.58"/>
<polygon fill="midnightblue" stroke="midnightblue" points="1405.86,-273.54 1412.77,-265.51 1402.36,-267.48 1405.86,-273.54"/>
</g>
<!-- Node21&#45;&gt;Node20 -->
<g id="edge26" class="edge">
<title>Node21&#45;&gt;Node20</title>
<path fill="none" stroke="midnightblue" d="M1257.07,-302.47C1296.38,-291.99 1349.41,-277.84 1385.82,-268.12"/>
<polygon fill="midnightblue" stroke="midnightblue" points="1386.86,-271.47 1395.62,-265.51 1385.05,-264.7 1386.86,-271.47"/>
</g>
<!-- Node23 -->
<g id="node23" class="node">
<title>Node23</title>
<g id="a_node23"><a xlink:href="legacy_2_socket_listener_8h.html" target="_top" xlink:title=" ">
<polygon fill="white" stroke="black" points="1001,-308 1001,-327 1090,-327 1090,-308 1001,-308"/>
<text text-anchor="middle" x="1045.5" y="-315" font-family="Helvetica,sans-Serif" font-size="10.00">SocketListener.h</text>
</a>
</g>
</g>
<!-- Node22&#45;&gt;Node23 -->
<g id="edge28" class="edge">
<title>Node22&#45;&gt;Node23</title>
<path fill="none" stroke="midnightblue" d="M1079.17,-369.4C1072.6,-359.46 1063.76,-346.11 1056.79,-335.57"/>
<polygon fill="midnightblue" stroke="midnightblue" points="1059.69,-333.6 1051.25,-327.19 1053.85,-337.47 1059.69,-333.6"/>
</g>
<!-- Node35 -->
<g id="node35" class="node">
<title>Node35</title>
<g id="a_node35"><a xlink:href="stream_2_socket_server_8h.html" target="_top" xlink:title=" ">
<polygon fill="white" stroke="black" points="1086,-246.5 1086,-265.5 1235,-265.5 1235,-246.5 1086,-246.5"/>
<text text-anchor="middle" x="1160.5" y="-253.5" font-family="Helvetica,sans-Serif" font-size="10.00">socket/stream/SocketServer.h</text>
</a>
</g>
</g>
<!-- Node22&#45;&gt;Node35 -->
<g id="edge46" class="edge">
<title>Node22&#45;&gt;Node35</title>
<path fill="none" stroke="midnightblue" d="M1096.48,-369.48C1109.67,-346.31 1135.98,-300.07 1150.43,-274.69"/>
<polygon fill="midnightblue" stroke="midnightblue" points="1153.59,-276.21 1155.5,-265.79 1147.51,-272.75 1153.59,-276.21"/>
</g>
<!-- Node24 -->
<g id="node24" class="node">
<title>Node24</title>
<g id="a_node24"><a xlink:href="legacy_2_socket_connection_8h.html" target="_top" xlink:title=" ">
<polygon fill="white" stroke="black" points="859,-246.5 859,-265.5 964,-265.5 964,-246.5 859,-246.5"/>
<text text-anchor="middle" x="911.5" y="-253.5" font-family="Helvetica,sans-Serif" font-size="10.00">SocketConnection.h</text>
</a>
</g>
</g>
<!-- Node23&#45;&gt;Node24 -->
<g id="edge29" class="edge">
<title>Node23&#45;&gt;Node24</title>
<path fill="none" stroke="midnightblue" d="M1026.3,-307.98C1003.71,-297.95 966,-281.2 940,-269.65"/>
<polygon fill="midnightblue" stroke="midnightblue" points="941.22,-266.37 930.66,-265.51 938.38,-272.77 941.22,-266.37"/>
</g>
<!-- Node33 -->
<g id="node33" class="node">
<title>Node33</title>
<g id="a_node33"><a xlink:href="_socket_listener_8h.html" target="_top" xlink:title=" ">
<polygon fill="white" stroke="black" points="1070,-118 1070,-137 1225,-137 1225,-118 1070,-118"/>
<text text-anchor="middle" x="1147.5" y="-125" font-family="Helvetica,sans-Serif" font-size="10.00">socket/stream/SocketListener.h</text>
</a>
</g>
</g>
<!-- Node23&#45;&gt;Node33 -->
<g id="edge41" class="edge">
<title>Node23&#45;&gt;Node33</title>
<path fill="none" stroke="midnightblue" d="M1049.13,-307.67C1054.77,-294.17 1066.17,-267.68 1077.5,-246 1096.65,-209.36 1122.14,-168.2 1136.48,-145.62"/>
<polygon fill="midnightblue" stroke="midnightblue" points="1139.46,-147.46 1141.89,-137.15 1133.56,-143.7 1139.46,-147.46"/>
</g>
<!-- Node25 -->
<g id="node25" class="node">
<title>Node25</title>
<g id="a_node25"><a xlink:href="_socket_connection_8h.html" target="_top" xlink:title=" ">
<polygon fill="white" stroke="black" points="604.5,-185 604.5,-204 774.5,-204 774.5,-185 604.5,-185"/>
<text text-anchor="middle" x="689.5" y="-192" font-family="Helvetica,sans-Serif" font-size="10.00">socket/stream/SocketConnection.h</text>
</a>
</g>
</g>
<!-- Node24&#45;&gt;Node25 -->
<g id="edge30" class="edge">
<title>Node24&#45;&gt;Node25</title>
<path fill="none" stroke="midnightblue" d="M879.69,-246.48C840.62,-236 774.24,-218.21 731.14,-206.66"/>
<polygon fill="midnightblue" stroke="midnightblue" points="731.81,-203.22 721.25,-204.01 730,-209.98 731.81,-203.22"/>
</g>
<!-- Node26 -->
<g id="node26" class="node">
<title>Node26</title>
<g id="a_node26"><a xlink:href="legacy_2_socket_reader_8h.html" target="_top" xlink:title=" ">
<polygon fill="white" stroke="black" points="920.5,-179.5 920.5,-209.5 1030.5,-209.5 1030.5,-179.5 920.5,-179.5"/>
<text text-anchor="start" x="928.5" y="-197.5" font-family="Helvetica,sans-Serif" font-size="10.00">socket/stream/legacy</text>
<text text-anchor="middle" x="975.5" y="-186.5" font-family="Helvetica,sans-Serif" font-size="10.00">/SocketReader.h</text>
</a>
</g>
</g>
<!-- Node24&#45;&gt;Node26 -->
<g id="edge32" class="edge">
<title>Node24&#45;&gt;Node26</title>
<path fill="none" stroke="midnightblue" d="M920.67,-246.48C929.09,-238.64 941.92,-226.71 953.06,-216.37"/>
<polygon fill="midnightblue" stroke="midnightblue" points="955.48,-218.9 960.42,-209.52 950.71,-213.77 955.48,-218.9"/>
</g>
<!-- Node30 -->
<g id="node30" class="node">
<title>Node30</title>
<g id="a_node30"><a xlink:href="legacy_2_socket_writer_8h.html" target="_top" xlink:title=" ">
<polygon fill="white" stroke="black" points="792.5,-179.5 792.5,-209.5 902.5,-209.5 902.5,-179.5 792.5,-179.5"/>
<text text-anchor="start" x="800.5" y="-197.5" font-family="Helvetica,sans-Serif" font-size="10.00">socket/stream/legacy</text>
<text text-anchor="middle" x="847.5" y="-186.5" font-family="Helvetica,sans-Serif" font-size="10.00">/SocketWriter.h</text>
</a>
</g>
</g>
<!-- Node24&#45;&gt;Node30 -->
<g id="edge36" class="edge">
<title>Node24&#45;&gt;Node30</title>
<path fill="none" stroke="midnightblue" d="M902.33,-246.48C893.91,-238.64 881.08,-226.71 869.94,-216.37"/>
<polygon fill="midnightblue" stroke="midnightblue" points="872.29,-213.77 862.58,-209.52 867.52,-218.9 872.29,-213.77"/>
</g>
<!-- Node25&#45;&gt;Node15 -->
<g id="edge31" class="edge">
<title>Node25&#45;&gt;Node15</title>
<path fill="none" stroke="midnightblue" d="M668.78,-184.87C645.38,-175.12 606.63,-158.97 576.58,-146.45"/>
<polygon fill="midnightblue" stroke="midnightblue" points="577.74,-143.14 567.17,-142.53 575.05,-149.61 577.74,-143.14"/>
</g>
<!-- Node27 -->
<g id="node27" class="node">
<title>Node27</title>
<g id="a_node27"><a xlink:href="_socket_reader_8h.html" target="_top" xlink:title=" ">
<polygon fill="white" stroke="black" points="899.5,-118 899.5,-137 1051.5,-137 1051.5,-118 899.5,-118"/>
<text text-anchor="middle" x="975.5" y="-125" font-family="Helvetica,sans-Serif" font-size="10.00">socket/stream/SocketReader.h</text>
</a>
</g>
</g>
<!-- Node26&#45;&gt;Node27 -->
<g id="edge33" class="edge">
<title>Node26&#45;&gt;Node27</title>
<path fill="none" stroke="midnightblue" d="M975.5,-179.4C975.5,-170.06 975.5,-157.71 975.5,-147.52"/>
<polygon fill="midnightblue" stroke="midnightblue" points="979,-147.19 975.5,-137.19 972,-147.19 979,-147.19"/>
</g>
<!-- Node28 -->
<g id="node28" class="node">
<title>Node28</title>
<g id="a_node28"><a xlink:href="_read_event_receiver_8h.html" target="_top" xlink:title=" ">
<polygon fill="white" stroke="black" points="955.5,-56.5 955.5,-75.5 1067.5,-75.5 1067.5,-56.5 955.5,-56.5"/>
<text text-anchor="middle" x="1011.5" y="-63.5" font-family="Helvetica,sans-Serif" font-size="10.00">ReadEventReceiver.h</text>
</a>
</g>
</g>
<!-- Node27&#45;&gt;Node28 -->
<g id="edge34" class="edge">
<title>Node27&#45;&gt;Node28</title>
<path fill="none" stroke="midnightblue" d="M980.66,-117.98C985.95,-109.23 994.34,-95.37 1001.03,-84.31"/>
<polygon fill="midnightblue" stroke="midnightblue" points="1004.17,-85.88 1006.35,-75.51 998.18,-82.25 1004.17,-85.88"/>
</g>
<!-- Node29 -->
<g id="node29" class="node">
<title>Node29</title>
<g id="a_node29"><a xlink:href="_descriptor_event_receiver_8h.html" target="_top" xlink:title=" ">
<polygon fill="white" stroke="black" points="944.5,-0.5 944.5,-19.5 1078.5,-19.5 1078.5,-0.5 944.5,-0.5"/>
<text text-anchor="middle" x="1011.5" y="-7.5" font-family="Helvetica,sans-Serif" font-size="10.00">DescriptorEventReceiver.h</text>
</a>
</g>
</g>
<!-- Node28&#45;&gt;Node29 -->
<g id="edge35" class="edge">
<title>Node28&#45;&gt;Node29</title>
<path fill="none" stroke="midnightblue" d="M1011.5,-56.08C1011.5,-49.01 1011.5,-38.86 1011.5,-29.99"/>
<polygon fill="midnightblue" stroke="midnightblue" points="1015,-29.75 1011.5,-19.75 1008,-29.75 1015,-29.75"/>
</g>
<!-- Node31 -->
<g id="node31" class="node">
<title>Node31</title>
<g id="a_node31"><a xlink:href="_socket_writer_8h.html" target="_top" xlink:title=" ">
<polygon fill="white" stroke="black" points="735.5,-118 735.5,-137 881.5,-137 881.5,-118 735.5,-118"/>
<text text-anchor="middle" x="808.5" y="-125" font-family="Helvetica,sans-Serif" font-size="10.00">socket/stream/SocketWriter.h</text>
</a>
</g>
</g>
<!-- Node30&#45;&gt;Node31 -->
<g id="edge37" class="edge">
<title>Node30&#45;&gt;Node31</title>
<path fill="none" stroke="midnightblue" d="M839.04,-179.4C833.14,-169.56 825.23,-156.38 818.94,-145.89"/>
<polygon fill="midnightblue" stroke="midnightblue" points="821.86,-143.97 813.72,-137.19 815.86,-147.57 821.86,-143.97"/>
</g>
<!-- Node31&#45;&gt;Node10 -->
<g id="edge38" class="edge">
<title>Node31&#45;&gt;Node10</title>
<path fill="none" stroke="midnightblue" d="M822.83,-117.98C839.16,-108.25 866.1,-92.23 885.41,-80.74"/>
<polygon fill="midnightblue" stroke="midnightblue" points="887.39,-83.63 894.2,-75.51 883.82,-77.61 887.39,-83.63"/>
</g>
<!-- Node32 -->
<g id="node32" class="node">
<title>Node32</title>
<g id="a_node32"><a xlink:href="_write_event_receiver_8h.html" target="_top" xlink:title=" ">
<polygon fill="white" stroke="black" points="753,-56.5 753,-75.5 864,-75.5 864,-56.5 753,-56.5"/>
<text text-anchor="middle" x="808.5" y="-63.5" font-family="Helvetica,sans-Serif" font-size="10.00">WriteEventReceiver.h</text>
</a>
</g>
</g>
<!-- Node31&#45;&gt;Node32 -->
<g id="edge39" class="edge">
<title>Node31&#45;&gt;Node32</title>
<path fill="none" stroke="midnightblue" d="M808.5,-117.98C808.5,-109.58 808.5,-96.48 808.5,-85.66"/>
<polygon fill="midnightblue" stroke="midnightblue" points="812,-85.51 808.5,-75.51 805,-85.51 812,-85.51"/>
</g>
<!-- Node32&#45;&gt;Node29 -->
<g id="edge40" class="edge">
<title>Node32&#45;&gt;Node29</title>
<path fill="none" stroke="midnightblue" d="M840.67,-56.44C875.56,-47.16 931.39,-32.31 969.67,-22.13"/>
<polygon fill="midnightblue" stroke="midnightblue" points="970.72,-25.47 979.48,-19.52 968.92,-18.7 970.72,-25.47"/>
</g>
<!-- Node33&#45;&gt;Node10 -->
<g id="edge44" class="edge">
<title>Node33&#45;&gt;Node10</title>
<path fill="none" stroke="midnightblue" d="M1113.26,-117.98C1068.62,-106.86 990.86,-87.5 945.09,-76.11"/>
<polygon fill="midnightblue" stroke="midnightblue" points="945.83,-72.69 935.29,-73.67 944.14,-79.48 945.83,-72.69"/>
</g>
<!-- Node33&#45;&gt;Node28 -->
<g id="edge45" class="edge">
<title>Node33&#45;&gt;Node28</title>
<path fill="none" stroke="midnightblue" d="M1128.01,-117.98C1105.09,-107.95 1066.81,-91.2 1040.42,-79.65"/>
<polygon fill="midnightblue" stroke="midnightblue" points="1041.51,-76.31 1030.95,-75.51 1038.71,-82.72 1041.51,-76.31"/>
</g>
<!-- Node34 -->
<g id="node34" class="node">
<title>Node34</title>
<g id="a_node34"><a xlink:href="_accept_event_receiver_8h.html" target="_top" xlink:title=" ">
<polygon fill="white" stroke="black" points="1087,-56.5 1087,-75.5 1206,-75.5 1206,-56.5 1087,-56.5"/>
<text text-anchor="middle" x="1146.5" y="-63.5" font-family="Helvetica,sans-Serif" font-size="10.00">AcceptEventReceiver.h</text>
</a>
</g>
</g>
<!-- Node33&#45;&gt;Node34 -->
<g id="edge42" class="edge">
<title>Node33&#45;&gt;Node34</title>
<path fill="none" stroke="midnightblue" d="M1147.36,-117.98C1147.22,-109.58 1147,-96.48 1146.81,-85.66"/>
<polygon fill="midnightblue" stroke="midnightblue" points="1150.31,-85.45 1146.64,-75.51 1143.31,-85.57 1150.31,-85.45"/>
</g>
<!-- Node34&#45;&gt;Node29 -->
<g id="edge43" class="edge">
<title>Node34&#45;&gt;Node29</title>
<path fill="none" stroke="midnightblue" d="M1125.11,-56.44C1102.79,-47.52 1067.6,-33.44 1042.29,-23.32"/>
<polygon fill="midnightblue" stroke="midnightblue" points="1043.38,-19.98 1032.79,-19.52 1040.78,-26.48 1043.38,-19.98"/>
</g>
<!-- Node35&#45;&gt;Node33 -->
<g id="edge47" class="edge">
<title>Node35&#45;&gt;Node33</title>
<path fill="none" stroke="midnightblue" d="M1159.61,-246.31C1157.52,-225.99 1152.28,-175.05 1149.43,-147.28"/>
<polygon fill="midnightblue" stroke="midnightblue" points="1152.9,-146.85 1148.4,-137.26 1145.94,-147.56 1152.9,-146.85"/>
</g>
<!-- Node36&#45;&gt;Node22 -->
<g id="edge53" class="edge">
<title>Node36&#45;&gt;Node22</title>
<path fill="none" stroke="midnightblue" d="M1194.99,-436.4C1175.12,-426.9 1148.71,-414.28 1127.16,-403.98"/>
<polygon fill="midnightblue" stroke="midnightblue" points="1128.48,-400.73 1117.95,-399.58 1125.47,-407.05 1128.48,-400.73"/>
</g>
<!-- Node37 -->
<g id="node37" class="node">
<title>Node37</title>
<g id="a_node37"><a xlink:href="ip_2tcp_2ipv6_2_socket_8h.html" target="_top" xlink:title=" ">
<polygon fill="white" stroke="black" points="1277.5,-369.5 1277.5,-399.5 1371.5,-399.5 1371.5,-369.5 1277.5,-369.5"/>
<text text-anchor="start" x="1285.5" y="-387.5" font-family="Helvetica,sans-Serif" font-size="10.00">socket/ip/tcp/ipv6</text>
<text text-anchor="middle" x="1324.5" y="-376.5" font-family="Helvetica,sans-Serif" font-size="10.00">/Socket.h</text>
</a>
</g>
</g>
<!-- Node36&#45;&gt;Node37 -->
<g id="edge49" class="edge">
<title>Node36&#45;&gt;Node37</title>
<path fill="none" stroke="midnightblue" d="M1246.2,-436.4C1260.22,-427.28 1278.67,-415.29 1294.14,-405.24"/>
<polygon fill="midnightblue" stroke="midnightblue" points="1296.37,-407.96 1302.84,-399.58 1292.55,-402.09 1296.37,-407.96"/>
</g>
<!-- Node37&#45;&gt;Node18 -->
<g id="edge50" class="edge">
<title>Node37&#45;&gt;Node18</title>
<path fill="none" stroke="midnightblue" d="M1324.5,-369.4C1324.5,-360.06 1324.5,-347.71 1324.5,-337.52"/>
<polygon fill="midnightblue" stroke="midnightblue" points="1328,-337.19 1324.5,-327.19 1321,-337.19 1328,-337.19"/>
</g>
<!-- Node38 -->
<g id="node38" class="node">
<title>Node38</title>
<g id="a_node38"><a xlink:href="ipv6_2_inet_address_8h.html" target="_top" xlink:title=" ">
<polygon fill="white" stroke="black" points="1386,-302.5 1386,-332.5 1501,-332.5 1501,-302.5 1386,-302.5"/>
<text text-anchor="start" x="1394" y="-320.5" font-family="Helvetica,sans-Serif" font-size="10.00">socket/ip/address/ipv6</text>
<text text-anchor="middle" x="1443.5" y="-309.5" font-family="Helvetica,sans-Serif" font-size="10.00">/InetAddress.h</text>
</a>
</g>
</g>
<!-- Node37&#45;&gt;Node38 -->
<g id="edge51" class="edge">
<title>Node37&#45;&gt;Node38</title>
<path fill="none" stroke="midnightblue" d="M1350.32,-369.4C1367.47,-360.03 1390.2,-347.62 1408.91,-337.39"/>
<polygon fill="midnightblue" stroke="midnightblue" points="1410.63,-340.44 1417.73,-332.58 1407.28,-334.3 1410.63,-340.44"/>
</g>
<!-- Node38&#45;&gt;Node20 -->
<g id="edge52" class="edge">
<title>Node38&#45;&gt;Node20</title>
<path fill="none" stroke="midnightblue" d="M1439.71,-302.4C1437.55,-294.38 1434.82,-284.23 1432.49,-275.57"/>
<polygon fill="midnightblue" stroke="midnightblue" points="1435.8,-274.41 1429.83,-265.66 1429.05,-276.22 1435.8,-274.41"/>
</g>
</g>
</svg>
