<?xml version="1.0" encoding="UTF-8" standalone="no"?>
<!DOCTYPE svg PUBLIC "-//W3C//DTD SVG 1.1//EN"
 "http://www.w3.org/Graphics/SVG/1.1/DTD/svg11.dtd">
<!-- Generated by graphviz version 2.43.0 (0)
 -->
<!-- Title: net/socket/sock_stream/legacy/SocketConnector.h Pages: 1 -->
<svg width="672pt" height="341pt"
 viewBox="0.00 0.00 672.00 341.00" xmlns="http://www.w3.org/2000/svg" xmlns:xlink="http://www.w3.org/1999/xlink">
<g id="graph0" class="graph" transform="scale(1 1) rotate(0) translate(4 337)">
<title>net/socket/sock_stream/legacy/SocketConnector.h</title>
<polygon fill="white" stroke="transparent" points="-4,4 -4,-337 668,-337 668,4 -4,4"/>
<!-- Node1 -->
<g id="node1" class="node">
<title>Node1</title>
<g id="a_node1"><a xlink:title=" ">
<polygon fill="#bfbfbf" stroke="black" points="234.5,-302.5 234.5,-332.5 368.5,-332.5 368.5,-302.5 234.5,-302.5"/>
<text text-anchor="start" x="242.5" y="-320.5" font-family="Helvetica,sans-Serif" font-size="10.00">net/socket/sock_stream</text>
<text text-anchor="middle" x="301.5" y="-309.5" font-family="Helvetica,sans-Serif" font-size="10.00">/legacy/SocketConnector.h</text>
</a>
</g>
</g>
<!-- Node2 -->
<g id="node2" class="node">
<title>Node2</title>
<g id="a_node2"><a xlink:href="legacy_2_socket_connection_8h.html" target="_top" xlink:title=" ">
<polygon fill="white" stroke="black" points="205,-246.5 205,-265.5 310,-265.5 310,-246.5 205,-246.5"/>
<text text-anchor="middle" x="257.5" y="-253.5" font-family="Helvetica,sans-Serif" font-size="10.00">SocketConnection.h</text>
</a>
</g>
</g>
<!-- Node1&#45;&gt;Node2 -->
<g id="edge1" class="edge">
<title>Node1&#45;&gt;Node2</title>
<path fill="none" stroke="midnightblue" d="M291.07,-302.4C284.74,-293.84 276.63,-282.87 269.97,-273.86"/>
<polygon fill="midnightblue" stroke="midnightblue" points="272.66,-271.62 263.9,-265.66 267.03,-275.78 272.66,-271.62"/>
</g>
<!-- Node13 -->
<g id="node13" class="node">
<title>Node13</title>
<g id="a_node13"><a xlink:href="_socket_connector_8h.html" target="_top" xlink:title=" ">
<polygon fill="white" stroke="black" points="395,-112.5 395,-142.5 500,-142.5 500,-112.5 395,-112.5"/>
<text text-anchor="start" x="403" y="-130.5" font-family="Helvetica,sans-Serif" font-size="10.00">socket/sock_stream</text>
<text text-anchor="middle" x="447.5" y="-119.5" font-family="Helvetica,sans-Serif" font-size="10.00">/SocketConnector.h</text>
</a>
</g>
</g>
<!-- Node1&#45;&gt;Node13 -->
<g id="edge13" class="edge">
<title>Node1&#45;&gt;Node13</title>
<path fill="none" stroke="midnightblue" d="M314.4,-302.46C332.53,-282.48 366.29,-244.45 392.5,-210 407.15,-190.74 422.44,-167.82 433.17,-151.2"/>
<polygon fill="midnightblue" stroke="midnightblue" points="436.18,-152.99 438.63,-142.68 430.29,-149.21 436.18,-152.99"/>
</g>
<!-- Node3 -->
<g id="node3" class="node">
<title>Node3</title>
<g id="a_node3"><a xlink:href="_socket_connection_8h.html" target="_top" xlink:title=" ">
<polygon fill="white" stroke="black" points="135.5,-179.5 135.5,-209.5 243.5,-209.5 243.5,-179.5 135.5,-179.5"/>
<text text-anchor="start" x="143.5" y="-197.5" font-family="Helvetica,sans-Serif" font-size="10.00">socket/sock_stream</text>
<text text-anchor="middle" x="189.5" y="-186.5" font-family="Helvetica,sans-Serif" font-size="10.00">/SocketConnection.h</text>
</a>
</g>
</g>
<!-- Node2&#45;&gt;Node3 -->
<g id="edge2" class="edge">
<title>Node2&#45;&gt;Node3</title>
<path fill="none" stroke="midnightblue" d="M247.76,-246.48C238.81,-238.64 225.17,-226.71 213.35,-216.37"/>
<polygon fill="midnightblue" stroke="midnightblue" points="215.36,-213.47 205.53,-209.52 210.75,-218.74 215.36,-213.47"/>
</g>
<!-- Node6 -->
<g id="node6" class="node">
<title>Node6</title>
<g id="a_node6"><a xlink:href="legacy_2_socket_reader_8h.html" target="_top" xlink:title=" ">
<polygon fill="white" stroke="black" points="263,-179.5 263,-209.5 384,-209.5 384,-179.5 263,-179.5"/>
<text text-anchor="start" x="271" y="-197.5" font-family="Helvetica,sans-Serif" font-size="10.00">socket/sock_stream</text>
<text text-anchor="middle" x="323.5" y="-186.5" font-family="Helvetica,sans-Serif" font-size="10.00">/legacy/SocketReader.h</text>
</a>
</g>
</g>
<!-- Node2&#45;&gt;Node6 -->
<g id="edge5" class="edge">
<title>Node2&#45;&gt;Node6</title>
<path fill="none" stroke="midnightblue" d="M266.96,-246.48C275.64,-238.64 288.88,-226.71 300.36,-216.37"/>
<polygon fill="midnightblue" stroke="midnightblue" points="302.86,-218.82 307.95,-209.52 298.17,-213.62 302.86,-218.82"/>
</g>
<!-- Node10 -->
<g id="node10" class="node">
<title>Node10</title>
<g id="a_node10"><a xlink:href="legacy_2_socket_writer_8h.html" target="_top" xlink:title=" ">
<polygon fill="white" stroke="black" points="0,-179.5 0,-209.5 115,-209.5 115,-179.5 0,-179.5"/>
<text text-anchor="start" x="8" y="-197.5" font-family="Helvetica,sans-Serif" font-size="10.00">socket/sock_stream</text>
<text text-anchor="middle" x="57.5" y="-186.5" font-family="Helvetica,sans-Serif" font-size="10.00">/legacy/SocketWriter.h</text>
</a>
</g>
</g>
<!-- Node2&#45;&gt;Node10 -->
<g id="edge9" class="edge">
<title>Node2&#45;&gt;Node10</title>
<path fill="none" stroke="midnightblue" d="M228.84,-246.48C199.1,-237.63 151.78,-223.55 114.4,-212.43"/>
<polygon fill="midnightblue" stroke="midnightblue" points="115.22,-209.02 104.64,-209.52 113.22,-215.73 115.22,-209.02"/>
</g>
<!-- Node4 -->
<g id="node4" class="node">
<title>Node4</title>
<g id="a_node4"><a xlink:href="_socket_connection_base_8h.html" target="_top" xlink:title=" ">
<polygon fill="white" stroke="black" points="125.5,-118 125.5,-137 253.5,-137 253.5,-118 125.5,-118"/>
<text text-anchor="middle" x="189.5" y="-125" font-family="Helvetica,sans-Serif" font-size="10.00">SocketConnectionBase.h</text>
</a>
</g>
</g>
<!-- Node3&#45;&gt;Node4 -->
<g id="edge3" class="edge">
<title>Node3&#45;&gt;Node4</title>
<path fill="none" stroke="midnightblue" d="M189.5,-179.4C189.5,-170.06 189.5,-157.71 189.5,-147.52"/>
<polygon fill="midnightblue" stroke="midnightblue" points="193,-147.19 189.5,-137.19 186,-147.19 193,-147.19"/>
</g>
<!-- Node5 -->
<g id="node5" class="node">
<title>Node5</title>
<g id="a_node5"><a xlink:href="_attribute_injector_8h.html" target="_top" xlink:title=" ">
<polygon fill="white" stroke="black" points="143,-56.5 143,-75.5 236,-75.5 236,-56.5 143,-56.5"/>
<text text-anchor="middle" x="189.5" y="-63.5" font-family="Helvetica,sans-Serif" font-size="10.00">AttributeInjector.h</text>
</a>
</g>
</g>
<!-- Node4&#45;&gt;Node5 -->
<g id="edge4" class="edge">
<title>Node4&#45;&gt;Node5</title>
<path fill="none" stroke="midnightblue" d="M189.5,-117.98C189.5,-109.58 189.5,-96.48 189.5,-85.66"/>
<polygon fill="midnightblue" stroke="midnightblue" points="193,-85.51 189.5,-75.51 186,-85.51 193,-85.51"/>
</g>
<!-- Node7 -->
<g id="node7" class="node">
<title>Node7</title>
<g id="a_node7"><a xlink:href="_socket_reader_8h.html" target="_top" xlink:title=" ">
<polygon fill="white" stroke="black" points="272,-112.5 272,-142.5 377,-142.5 377,-112.5 272,-112.5"/>
<text text-anchor="start" x="280" y="-130.5" font-family="Helvetica,sans-Serif" font-size="10.00">socket/sock_stream</text>
<text text-anchor="middle" x="324.5" y="-119.5" font-family="Helvetica,sans-Serif" font-size="10.00">/SocketReader.h</text>
</a>
</g>
</g>
<!-- Node6&#45;&gt;Node7 -->
<g id="edge6" class="edge">
<title>Node6&#45;&gt;Node7</title>
<path fill="none" stroke="midnightblue" d="M323.72,-179.4C323.84,-171.64 323.99,-161.81 324.13,-152.86"/>
<polygon fill="midnightblue" stroke="midnightblue" points="327.63,-152.63 324.28,-142.58 320.63,-152.52 327.63,-152.63"/>
</g>
<!-- Node8 -->
<g id="node8" class="node">
<title>Node8</title>
<g id="a_node8"><a xlink:href="_read_event_receiver_8h.html" target="_top" xlink:title=" ">
<polygon fill="white" stroke="black" points="254.5,-56.5 254.5,-75.5 366.5,-75.5 366.5,-56.5 254.5,-56.5"/>
<text text-anchor="middle" x="310.5" y="-63.5" font-family="Helvetica,sans-Serif" font-size="10.00">ReadEventReceiver.h</text>
</a>
</g>
</g>
<!-- Node7&#45;&gt;Node8 -->
<g id="edge7" class="edge">
<title>Node7&#45;&gt;Node8</title>
<path fill="none" stroke="midnightblue" d="M321.18,-112.4C319.29,-104.38 316.91,-94.23 314.87,-85.57"/>
<polygon fill="midnightblue" stroke="midnightblue" points="318.23,-84.59 312.54,-75.66 311.42,-86.19 318.23,-84.59"/>
</g>
<!-- Node9 -->
<g id="node9" class="node">
<title>Node9</title>
<g id="a_node9"><a xlink:href="_event_receiver_8h.html" target="_top" xlink:title=" ">
<polygon fill="white" stroke="black" points="266,-0.5 266,-19.5 355,-19.5 355,-0.5 266,-0.5"/>
<text text-anchor="middle" x="310.5" y="-7.5" font-family="Helvetica,sans-Serif" font-size="10.00">EventReceiver.h</text>
</a>
</g>
</g>
<!-- Node8&#45;&gt;Node9 -->
<g id="edge8" class="edge">
<title>Node8&#45;&gt;Node9</title>
<path fill="none" stroke="midnightblue" d="M310.5,-56.08C310.5,-49.01 310.5,-38.86 310.5,-29.99"/>
<polygon fill="midnightblue" stroke="midnightblue" points="314,-29.75 310.5,-19.75 307,-29.75 314,-29.75"/>
</g>
<!-- Node11 -->
<g id="node11" class="node">
<title>Node11</title>
<g id="a_node11"><a xlink:href="_socket_writer_8h.html" target="_top" xlink:title=" ">
<polygon fill="white" stroke="black" points="2,-112.5 2,-142.5 107,-142.5 107,-112.5 2,-112.5"/>
<text text-anchor="start" x="10" y="-130.5" font-family="Helvetica,sans-Serif" font-size="10.00">socket/sock_stream</text>
<text text-anchor="middle" x="54.5" y="-119.5" font-family="Helvetica,sans-Serif" font-size="10.00">/SocketWriter.h</text>
</a>
</g>
</g>
<!-- Node10&#45;&gt;Node11 -->
<g id="edge10" class="edge">
<title>Node10&#45;&gt;Node11</title>
<path fill="none" stroke="midnightblue" d="M56.85,-179.4C56.49,-171.64 56.04,-161.81 55.62,-152.86"/>
<polygon fill="midnightblue" stroke="midnightblue" points="59.11,-152.4 55.15,-142.58 52.11,-152.73 59.11,-152.4"/>
</g>
<!-- Node12 -->
<g id="node12" class="node">
<title>Node12</title>
<g id="a_node12"><a xlink:href="_write_event_receiver_8h.html" target="_top" xlink:title=" ">
<polygon fill="white" stroke="black" points="7,-56.5 7,-75.5 118,-75.5 118,-56.5 7,-56.5"/>
<text text-anchor="middle" x="62.5" y="-63.5" font-family="Helvetica,sans-Serif" font-size="10.00">WriteEventReceiver.h</text>
</a>
</g>
</g>
<!-- Node11&#45;&gt;Node12 -->
<g id="edge11" class="edge">
<title>Node11&#45;&gt;Node12</title>
<path fill="none" stroke="midnightblue" d="M56.4,-112.4C57.47,-104.38 58.84,-94.23 60,-85.57"/>
<polygon fill="midnightblue" stroke="midnightblue" points="63.47,-86.04 61.34,-75.66 56.53,-85.1 63.47,-86.04"/>
</g>
<!-- Node12&#45;&gt;Node9 -->
<g id="edge12" class="edge">
<title>Node12&#45;&gt;Node9</title>
<path fill="none" stroke="midnightblue" d="M101.8,-56.44C145.06,-47.02 214.67,-31.87 261.47,-21.68"/>
<polygon fill="midnightblue" stroke="midnightblue" points="262.36,-25.06 271.39,-19.52 260.87,-18.22 262.36,-25.06"/>
</g>
<!-- Node13&#45;&gt;Node8 -->
<g id="edge16" class="edge">
<title>Node13&#45;&gt;Node8</title>
<path fill="none" stroke="midnightblue" d="M415.03,-112.4C392.15,-102.46 361.77,-89.26 339.66,-79.66"/>
<polygon fill="midnightblue" stroke="midnightblue" points="341,-76.43 330.43,-75.66 338.21,-82.85 341,-76.43"/>
</g>
<!-- Node14 -->
<g id="node14" class="node">
<title>Node14</title>
<g id="a_node14"><a xlink:href="_connect_event_receiver_8h.html" target="_top" xlink:title=" ">
<polygon fill="white" stroke="black" points="385,-56.5 385,-75.5 510,-75.5 510,-56.5 385,-56.5"/>
<text text-anchor="middle" x="447.5" y="-63.5" font-family="Helvetica,sans-Serif" font-size="10.00">ConnectEventReceiver.h</text>
</a>
</g>
</g>
<!-- Node13&#45;&gt;Node14 -->
<g id="edge14" class="edge">
<title>Node13&#45;&gt;Node14</title>
<path fill="none" stroke="midnightblue" d="M447.5,-112.4C447.5,-104.47 447.5,-94.46 447.5,-85.86"/>
<polygon fill="midnightblue" stroke="midnightblue" points="451,-85.66 447.5,-75.66 444,-85.66 451,-85.66"/>
</g>
<!-- Node15 -->
<g id="node15" class="node">
<title>Node15</title>
<g id="a_node15"><a xlink:href="_socket_8h.html" target="_top" xlink:title=" ">
<polygon fill="white" stroke="black" points="528.5,-56.5 528.5,-75.5 616.5,-75.5 616.5,-56.5 528.5,-56.5"/>
<text text-anchor="middle" x="572.5" y="-63.5" font-family="Helvetica,sans-Serif" font-size="10.00">socket/Socket.h</text>
</a>
</g>
</g>
<!-- Node13&#45;&gt;Node15 -->
<g id="edge17" class="edge">
<title>Node13&#45;&gt;Node15</title>
<path fill="none" stroke="midnightblue" d="M477.12,-112.4C497.72,-102.59 524.98,-89.62 545.08,-80.05"/>
<polygon fill="midnightblue" stroke="midnightblue" points="546.79,-83.12 554.31,-75.66 543.78,-76.8 546.79,-83.12"/>
</g>
<!-- Node14&#45;&gt;Node9 -->
<g id="edge15" class="edge">
<title>Node14&#45;&gt;Node9</title>
<path fill="none" stroke="midnightblue" d="M425.79,-56.44C403.15,-47.52 367.43,-33.44 341.75,-23.32"/>
<polygon fill="midnightblue" stroke="midnightblue" points="342.69,-19.93 332.11,-19.52 340.13,-26.44 342.69,-19.93"/>
</g>
<!-- Node16 -->
<g id="node16" class="node">
<title>Node16</title>
<g id="a_node16"><a xlink:href="_descriptor_8h.html" target="_top" xlink:title=" ">
<polygon fill="white" stroke="black" points="595,-0.5 595,-19.5 664,-19.5 664,-0.5 595,-0.5"/>
<text text-anchor="middle" x="629.5" y="-7.5" font-family="Helvetica,sans-Serif" font-size="10.00">Descriptor.h</text>
</a>
</g>
</g>
<!-- Node15&#45;&gt;Node16 -->
<g id="edge18" class="edge">
<title>Node15&#45;&gt;Node16</title>
<path fill="none" stroke="midnightblue" d="M581.66,-56.32C590,-48.42 602.53,-36.55 612.68,-26.94"/>
<polygon fill="midnightblue" stroke="midnightblue" points="615.32,-29.25 620.18,-19.83 610.51,-24.17 615.32,-29.25"/>
</g>
<!-- Node17 -->
<g id="node17" class="node">
<title>Node17</title>
<g id="a_node17"><a xlink:href="_socket_address_8h.html" target="_top" xlink:title=" ">
<polygon fill="white" stroke="black" points="452.5,-0.5 452.5,-19.5 576.5,-19.5 576.5,-0.5 452.5,-0.5"/>
<text text-anchor="middle" x="514.5" y="-7.5" font-family="Helvetica,sans-Serif" font-size="10.00">socket/SocketAddress.h</text>
</a>
</g>
</g>
<!-- Node15&#45;&gt;Node17 -->
<g id="edge19" class="edge">
<title>Node15&#45;&gt;Node17</title>
<path fill="none" stroke="midnightblue" d="M563.18,-56.32C554.61,-48.34 541.69,-36.31 531.31,-26.65"/>
<polygon fill="midnightblue" stroke="midnightblue" points="533.69,-24.09 523.99,-19.83 528.92,-29.21 533.69,-24.09"/>
</g>
</g>
</svg>
