<?xml version="1.0" encoding="UTF-8" standalone="no"?>
<!DOCTYPE svg PUBLIC "-//W3C//DTD SVG 1.1//EN"
 "http://www.w3.org/Graphics/SVG/1.1/DTD/svg11.dtd">
<!-- Generated by graphviz version 2.43.0 (0)
 -->
<!-- Title: express/legacy/WebApp.h Pages: 1 -->
<svg width="1552pt" height="609pt"
 viewBox="0.00 0.00 1552.00 609.00" xmlns="http://www.w3.org/2000/svg" xmlns:xlink="http://www.w3.org/1999/xlink">
<g id="graph0" class="graph" transform="scale(1 1) rotate(0) translate(4 605)">
<title>express/legacy/WebApp.h</title>
<polygon fill="white" stroke="transparent" points="-4,4 -4,-605 1548,-605 1548,4 -4,4"/>
<!-- Node1 -->
<g id="node1" class="node">
<title>Node1</title>
<g id="a_node1"><a xlink:title=" ">
<polygon fill="#bfbfbf" stroke="black" points="573.5,-581.5 573.5,-600.5 704.5,-600.5 704.5,-581.5 573.5,-581.5"/>
<text text-anchor="middle" x="639" y="-588.5" font-family="Helvetica,sans-Serif" font-size="10.00">express/legacy/WebApp.h</text>
</a>
</g>
</g>
<!-- Node2 -->
<g id="node2" class="node">
<title>Node2</title>
<g id="a_node2"><a xlink:href="_web_app_t_8h.html" target="_top" xlink:title=" ">
<polygon fill="white" stroke="black" points="312,-386 312,-405 416,-405 416,-386 312,-386"/>
<text text-anchor="middle" x="364" y="-393" font-family="Helvetica,sans-Serif" font-size="10.00">express/WebAppT.h</text>
</a>
</g>
</g>
<!-- Node1&#45;&gt;Node2 -->
<g id="edge1" class="edge">
<title>Node1&#45;&gt;Node2</title>
<path fill="none" stroke="midnightblue" d="M626.83,-581.44C583.89,-551.22 439.14,-449.37 384.82,-411.15"/>
<polygon fill="midnightblue" stroke="midnightblue" points="386.54,-408.08 376.34,-405.18 382.51,-413.8 386.54,-408.08"/>
</g>
<!-- Node13 -->
<g id="node13" class="node">
<title>Node13</title>
<g id="a_node13"><a xlink:href="legacy_2_server_8h.html" target="_top" xlink:title=" ">
<polygon fill="white" stroke="black" points="793,-514.5 793,-544.5 909,-544.5 909,-514.5 793,-514.5"/>
<text text-anchor="start" x="801" y="-532.5" font-family="Helvetica,sans-Serif" font-size="10.00">web/http/server/legacy</text>
<text text-anchor="middle" x="851" y="-521.5" font-family="Helvetica,sans-Serif" font-size="10.00">/Server.h</text>
</a>
</g>
</g>
<!-- Node1&#45;&gt;Node13 -->
<g id="edge13" class="edge">
<title>Node1&#45;&gt;Node13</title>
<path fill="none" stroke="midnightblue" d="M669.37,-581.48C701.04,-572.59 751.49,-558.43 791.19,-547.29"/>
<polygon fill="midnightblue" stroke="midnightblue" points="792.35,-550.6 801.04,-544.52 790.46,-543.86 792.35,-550.6"/>
</g>
<!-- Node3 -->
<g id="node3" class="node">
<title>Node3</title>
<g id="a_node3"><a xlink:href="express_2_request_8h.html" target="_top" xlink:title=" ">
<polygon fill="white" stroke="black" points="116.5,-319 116.5,-338 215.5,-338 215.5,-319 116.5,-319"/>
<text text-anchor="middle" x="166" y="-326" font-family="Helvetica,sans-Serif" font-size="10.00">express/Request.h</text>
</a>
</g>
</g>
<!-- Node2&#45;&gt;Node3 -->
<g id="edge2" class="edge">
<title>Node2&#45;&gt;Node3</title>
<path fill="none" stroke="midnightblue" d="M337.71,-385.87C302.77,-374.4 240.92,-354.09 201.76,-341.24"/>
<polygon fill="midnightblue" stroke="midnightblue" points="202.68,-337.86 192.09,-338.06 200.5,-344.51 202.68,-337.86"/>
</g>
<!-- Node7 -->
<g id="node7" class="node">
<title>Node7</title>
<g id="a_node7"><a xlink:href="express_2_response_8h.html" target="_top" xlink:title=" ">
<polygon fill="white" stroke="black" points="249.5,-319 249.5,-338 356.5,-338 356.5,-319 249.5,-319"/>
<text text-anchor="middle" x="303" y="-326" font-family="Helvetica,sans-Serif" font-size="10.00">express/Response.h</text>
</a>
</g>
</g>
<!-- Node2&#45;&gt;Node7 -->
<g id="edge6" class="edge">
<title>Node2&#45;&gt;Node7</title>
<path fill="none" stroke="midnightblue" d="M355.77,-385.73C346.17,-375.5 330.09,-358.36 318.2,-345.69"/>
<polygon fill="midnightblue" stroke="midnightblue" points="320.49,-343.02 311.1,-338.13 315.39,-347.81 320.49,-343.02"/>
</g>
<!-- Node11 -->
<g id="node11" class="node">
<title>Node11</title>
<g id="a_node11"><a xlink:href="_web_app_8h.html" target="_top" xlink:title=" ">
<polygon fill="white" stroke="black" points="378.5,-319 378.5,-338 477.5,-338 477.5,-319 378.5,-319"/>
<text text-anchor="middle" x="428" y="-326" font-family="Helvetica,sans-Serif" font-size="10.00">express/WebApp.h</text>
</a>
</g>
</g>
<!-- Node2&#45;&gt;Node11 -->
<g id="edge11" class="edge">
<title>Node2&#45;&gt;Node11</title>
<path fill="none" stroke="midnightblue" d="M372.63,-385.73C382.8,-375.4 399.9,-358.04 412.41,-345.33"/>
<polygon fill="midnightblue" stroke="midnightblue" points="414.98,-347.71 419.51,-338.13 410,-342.8 414.98,-347.71"/>
</g>
<!-- Node4 -->
<g id="node4" class="node">
<title>Node4</title>
<g id="a_node4"><a xlink:href="web_2http_2server_2_request_8h.html" target="_top" xlink:title=" ">
<polygon fill="white" stroke="black" points="77,-252 77,-271 209,-271 209,-252 77,-252"/>
<text text-anchor="middle" x="143" y="-259" font-family="Helvetica,sans-Serif" font-size="10.00">web/http/server/Request.h</text>
</a>
</g>
</g>
<!-- Node3&#45;&gt;Node4 -->
<g id="edge3" class="edge">
<title>Node3&#45;&gt;Node4</title>
<path fill="none" stroke="midnightblue" d="M162.9,-318.73C159.48,-309.09 153.9,-293.3 149.51,-280.91"/>
<polygon fill="midnightblue" stroke="midnightblue" points="152.69,-279.39 146.05,-271.13 146.09,-281.72 152.69,-279.39"/>
</g>
<!-- Node5 -->
<g id="node5" class="node">
<title>Node5</title>
<g id="a_node5"><a xlink:href="_attribute_injector_8h.html" target="_top" xlink:title=" ">
<polygon fill="white" stroke="black" points="0,-185 0,-204 114,-204 114,-185 0,-185"/>
<text text-anchor="middle" x="57" y="-192" font-family="Helvetica,sans-Serif" font-size="10.00">utils/AttributeInjector.h</text>
</a>
</g>
</g>
<!-- Node4&#45;&gt;Node5 -->
<g id="edge4" class="edge">
<title>Node4&#45;&gt;Node5</title>
<path fill="none" stroke="midnightblue" d="M131.4,-251.73C117.35,-241.11 93.45,-223.05 76.53,-210.26"/>
<polygon fill="midnightblue" stroke="midnightblue" points="78.5,-207.36 68.41,-204.13 74.28,-212.95 78.5,-207.36"/>
</g>
<!-- Node6 -->
<g id="node6" class="node">
<title>Node6</title>
<g id="a_node6"><a xlink:href="_connection_state_8h.html" target="_top" xlink:title=" ">
<polygon fill="white" stroke="black" points="380,-185 380,-204 518,-204 518,-185 380,-185"/>
<text text-anchor="middle" x="449" y="-192" font-family="Helvetica,sans-Serif" font-size="10.00">web/http/ConnectionState.h</text>
</a>
</g>
</g>
<!-- Node4&#45;&gt;Node6 -->
<g id="edge5" class="edge">
<title>Node4&#45;&gt;Node6</title>
<path fill="none" stroke="midnightblue" d="M183.32,-251.94C238.7,-240.17 338.29,-219.02 398.54,-206.22"/>
<polygon fill="midnightblue" stroke="midnightblue" points="399.54,-209.58 408.59,-204.08 398.08,-202.74 399.54,-209.58"/>
</g>
<!-- Node8 -->
<g id="node8" class="node">
<title>Node8</title>
<g id="a_node8"><a xlink:href="web_2http_2server_2_response_8h.html" target="_top" xlink:title=" ">
<polygon fill="white" stroke="black" points="227,-252 227,-271 367,-271 367,-252 227,-252"/>
<text text-anchor="middle" x="297" y="-259" font-family="Helvetica,sans-Serif" font-size="10.00">web/http/server/Response.h</text>
</a>
</g>
</g>
<!-- Node7&#45;&gt;Node8 -->
<g id="edge7" class="edge">
<title>Node7&#45;&gt;Node8</title>
<path fill="none" stroke="midnightblue" d="M302.19,-318.73C301.31,-309.18 299.87,-293.62 298.73,-281.28"/>
<polygon fill="midnightblue" stroke="midnightblue" points="302.2,-280.76 297.8,-271.13 295.23,-281.41 302.2,-280.76"/>
</g>
<!-- Node8&#45;&gt;Node6 -->
<g id="edge9" class="edge">
<title>Node8&#45;&gt;Node6</title>
<path fill="none" stroke="midnightblue" d="M317.18,-251.87C343.3,-240.7 389.03,-221.15 419.16,-208.26"/>
<polygon fill="midnightblue" stroke="midnightblue" points="420.91,-211.32 428.73,-204.17 418.16,-204.88 420.91,-211.32"/>
</g>
<!-- Node9 -->
<g id="node9" class="node">
<title>Node9</title>
<g id="a_node9"><a xlink:href="_sink_8h.html" target="_top" xlink:title=" ">
<polygon fill="white" stroke="black" points="132,-185 132,-204 214,-204 214,-185 132,-185"/>
<text text-anchor="middle" x="173" y="-192" font-family="Helvetica,sans-Serif" font-size="10.00">net/pipe/Sink.h</text>
</a>
</g>
</g>
<!-- Node8&#45;&gt;Node9 -->
<g id="edge8" class="edge">
<title>Node8&#45;&gt;Node9</title>
<path fill="none" stroke="midnightblue" d="M280.53,-251.87C259.6,-240.89 223.22,-221.82 198.64,-208.94"/>
<polygon fill="midnightblue" stroke="midnightblue" points="200.02,-205.71 189.53,-204.17 196.77,-211.91 200.02,-205.71"/>
</g>
<!-- Node10 -->
<g id="node10" class="node">
<title>Node10</title>
<g id="a_node10"><a xlink:href="_cookie_options_8h.html" target="_top" xlink:title=" ">
<polygon fill="white" stroke="black" points="232,-185 232,-204 362,-204 362,-185 232,-185"/>
<text text-anchor="middle" x="297" y="-192" font-family="Helvetica,sans-Serif" font-size="10.00">web/http/CookieOptions.h</text>
</a>
</g>
</g>
<!-- Node8&#45;&gt;Node10 -->
<g id="edge10" class="edge">
<title>Node8&#45;&gt;Node10</title>
<path fill="none" stroke="midnightblue" d="M297,-251.73C297,-242.18 297,-226.62 297,-214.28"/>
<polygon fill="midnightblue" stroke="midnightblue" points="300.5,-214.13 297,-204.13 293.5,-214.13 300.5,-214.13"/>
</g>
<!-- Node12 -->
<g id="node12" class="node">
<title>Node12</title>
<g id="a_node12"><a xlink:href="_router_8h.html" target="_top" xlink:title=" ">
<polygon fill="white" stroke="black" points="385.5,-252 385.5,-271 476.5,-271 476.5,-252 385.5,-252"/>
<text text-anchor="middle" x="431" y="-259" font-family="Helvetica,sans-Serif" font-size="10.00">express/Router.h</text>
</a>
</g>
</g>
<!-- Node11&#45;&gt;Node12 -->
<g id="edge12" class="edge">
<title>Node11&#45;&gt;Node12</title>
<path fill="none" stroke="midnightblue" d="M428.4,-318.73C428.85,-309.18 429.56,-293.62 430.13,-281.28"/>
<polygon fill="midnightblue" stroke="midnightblue" points="433.64,-281.28 430.6,-271.13 426.64,-280.96 433.64,-281.28"/>
</g>
<!-- Node14 -->
<g id="node14" class="node">
<title>Node14</title>
<g id="a_node14"><a xlink:href="ip_2tcp_2ipv4_2legacy_2_socket_server_8h.html" target="_top" xlink:title=" ">
<polygon fill="white" stroke="black" points="860,-447.5 860,-477.5 978,-477.5 978,-447.5 860,-447.5"/>
<text text-anchor="start" x="868" y="-465.5" font-family="Helvetica,sans-Serif" font-size="10.00">net/socket/ip/tcp/ipv4</text>
<text text-anchor="middle" x="919" y="-454.5" font-family="Helvetica,sans-Serif" font-size="10.00">/legacy/SocketServer.h</text>
</a>
</g>
</g>
<!-- Node13&#45;&gt;Node14 -->
<g id="edge14" class="edge">
<title>Node13&#45;&gt;Node14</title>
<path fill="none" stroke="midnightblue" d="M865.75,-514.4C874.84,-505.71 886.67,-494.4 896.87,-484.66"/>
<polygon fill="midnightblue" stroke="midnightblue" points="899.46,-487.02 904.27,-477.58 894.63,-481.96 899.46,-487.02"/>
</g>
<!-- Node37 -->
<g id="node37" class="node">
<title>Node37</title>
<g id="a_node37"><a xlink:href="ip_2tcp_2ipv6_2legacy_2_socket_server_8h.html" target="_top" xlink:title=" ">
<polygon fill="white" stroke="black" points="724,-447.5 724,-477.5 842,-477.5 842,-447.5 724,-447.5"/>
<text text-anchor="start" x="732" y="-465.5" font-family="Helvetica,sans-Serif" font-size="10.00">net/socket/ip/tcp/ipv6</text>
<text text-anchor="middle" x="783" y="-454.5" font-family="Helvetica,sans-Serif" font-size="10.00">/legacy/SocketServer.h</text>
</a>
</g>
</g>
<!-- Node13&#45;&gt;Node37 -->
<g id="edge39" class="edge">
<title>Node13&#45;&gt;Node37</title>
<path fill="none" stroke="midnightblue" d="M836.25,-514.4C827.16,-505.71 815.33,-494.4 805.13,-484.66"/>
<polygon fill="midnightblue" stroke="midnightblue" points="807.37,-481.96 797.73,-477.58 802.54,-487.02 807.37,-481.96"/>
</g>
<!-- Node40 -->
<g id="node40" class="node">
<title>Node40</title>
<g id="a_node40"><a xlink:href="_server_8h.html" target="_top" xlink:title=" ">
<polygon fill="white" stroke="black" points="1032.5,-453 1032.5,-472 1155.5,-472 1155.5,-453 1032.5,-453"/>
<text text-anchor="middle" x="1094" y="-460" font-family="Helvetica,sans-Serif" font-size="10.00">web/http/server/Server.h</text>
</a>
</g>
</g>
<!-- Node13&#45;&gt;Node40 -->
<g id="edge45" class="edge">
<title>Node13&#45;&gt;Node40</title>
<path fill="none" stroke="midnightblue" d="M903.43,-514.48C948.03,-502.55 1011.22,-485.64 1052.4,-474.63"/>
<polygon fill="midnightblue" stroke="midnightblue" points="1053.36,-477.99 1062.12,-472.03 1051.55,-471.23 1053.36,-477.99"/>
</g>
<!-- Node15 -->
<g id="node15" class="node">
<title>Node15</title>
<g id="a_node15"><a xlink:href="socket_2ip_2tcp_2ipv4_2_socket_8h.html" target="_top" xlink:title=" ">
<polygon fill="white" stroke="black" points="929,-380.5 929,-410.5 1039,-410.5 1039,-380.5 929,-380.5"/>
<text text-anchor="start" x="937" y="-398.5" font-family="Helvetica,sans-Serif" font-size="10.00">net/socket/ip/tcp/ipv4</text>
<text text-anchor="middle" x="984" y="-387.5" font-family="Helvetica,sans-Serif" font-size="10.00">/Socket.h</text>
</a>
</g>
</g>
<!-- Node14&#45;&gt;Node15 -->
<g id="edge15" class="edge">
<title>Node14&#45;&gt;Node15</title>
<path fill="none" stroke="midnightblue" d="M933.1,-447.4C941.79,-438.71 953.1,-427.4 962.84,-417.66"/>
<polygon fill="midnightblue" stroke="midnightblue" points="965.33,-420.12 969.92,-410.58 960.38,-415.17 965.33,-420.12"/>
</g>
<!-- Node20 -->
<g id="node20" class="node">
<title>Node20</title>
<g id="a_node20"><a xlink:href="stream_2legacy_2_socket_server_8h.html" target="_top" xlink:title=" ">
<polygon fill="white" stroke="black" points="655.5,-380.5 655.5,-410.5 782.5,-410.5 782.5,-380.5 655.5,-380.5"/>
<text text-anchor="start" x="663.5" y="-398.5" font-family="Helvetica,sans-Serif" font-size="10.00">net/socket/stream/legacy</text>
<text text-anchor="middle" x="719" y="-387.5" font-family="Helvetica,sans-Serif" font-size="10.00">/SocketServer.h</text>
</a>
</g>
</g>
<!-- Node14&#45;&gt;Node20 -->
<g id="edge20" class="edge">
<title>Node14&#45;&gt;Node20</title>
<path fill="none" stroke="midnightblue" d="M875.6,-447.4C845.2,-437.52 804.39,-424.25 772.06,-413.74"/>
<polygon fill="midnightblue" stroke="midnightblue" points="772.9,-410.34 762.31,-410.58 770.74,-417 772.9,-410.34"/>
</g>
<!-- Node16 -->
<g id="node16" class="node">
<title>Node16</title>
<g id="a_node16"><a xlink:href="socket_2_socket_8h.html" target="_top" xlink:title=" ">
<polygon fill="white" stroke="black" points="930,-319 930,-338 1034,-338 1034,-319 930,-319"/>
<text text-anchor="middle" x="982" y="-326" font-family="Helvetica,sans-Serif" font-size="10.00">net/socket/Socket.h</text>
</a>
</g>
</g>
<!-- Node15&#45;&gt;Node16 -->
<g id="edge16" class="edge">
<title>Node15&#45;&gt;Node16</title>
<path fill="none" stroke="midnightblue" d="M983.57,-380.4C983.28,-371.06 982.9,-358.71 982.59,-348.52"/>
<polygon fill="midnightblue" stroke="midnightblue" points="986.07,-348.08 982.27,-338.19 979.08,-348.3 986.07,-348.08"/>
</g>
<!-- Node18 -->
<g id="node18" class="node">
<title>Node18</title>
<g id="a_node18"><a xlink:href="ipv4_2_inet_address_8h.html" target="_top" xlink:title=" ">
<polygon fill="white" stroke="black" points="1052,-313.5 1052,-343.5 1162,-343.5 1162,-313.5 1052,-313.5"/>
<text text-anchor="start" x="1060" y="-331.5" font-family="Helvetica,sans-Serif" font-size="10.00">net/socket/ip/address</text>
<text text-anchor="middle" x="1107" y="-320.5" font-family="Helvetica,sans-Serif" font-size="10.00">/ipv4/InetAddress.h</text>
</a>
</g>
</g>
<!-- Node15&#45;&gt;Node18 -->
<g id="edge18" class="edge">
<title>Node15&#45;&gt;Node18</title>
<path fill="none" stroke="midnightblue" d="M1010.69,-380.4C1028.5,-370.98 1052.12,-358.5 1071.51,-348.26"/>
<polygon fill="midnightblue" stroke="midnightblue" points="1073.16,-351.34 1080.36,-343.58 1069.89,-345.15 1073.16,-351.34"/>
</g>
<!-- Node17 -->
<g id="node17" class="node">
<title>Node17</title>
<g id="a_node17"><a xlink:href="_descriptor_8h.html" target="_top" xlink:title=" ">
<polygon fill="white" stroke="black" points="945,-252 945,-271 1031,-271 1031,-252 945,-252"/>
<text text-anchor="middle" x="988" y="-259" font-family="Helvetica,sans-Serif" font-size="10.00">net/Descriptor.h</text>
</a>
</g>
</g>
<!-- Node16&#45;&gt;Node17 -->
<g id="edge17" class="edge">
<title>Node16&#45;&gt;Node17</title>
<path fill="none" stroke="midnightblue" d="M982.81,-318.73C983.69,-309.18 985.13,-293.62 986.27,-281.28"/>
<polygon fill="midnightblue" stroke="midnightblue" points="989.77,-281.41 987.2,-271.13 982.8,-280.76 989.77,-281.41"/>
</g>
<!-- Node19 -->
<g id="node19" class="node">
<title>Node19</title>
<g id="a_node19"><a xlink:href="_socket_address_8h.html" target="_top" xlink:title=" ">
<polygon fill="white" stroke="black" points="787,-252 787,-271 927,-271 927,-252 787,-252"/>
<text text-anchor="middle" x="857" y="-259" font-family="Helvetica,sans-Serif" font-size="10.00">net/socket/SocketAddress.h</text>
</a>
</g>
</g>
<!-- Node18&#45;&gt;Node19 -->
<g id="edge19" class="edge">
<title>Node18&#45;&gt;Node19</title>
<path fill="none" stroke="midnightblue" d="M1053.06,-313.48C1007.08,-301.52 941.89,-284.57 899.53,-273.56"/>
<polygon fill="midnightblue" stroke="midnightblue" points="900.36,-270.16 889.8,-271.03 898.6,-276.93 900.36,-270.16"/>
</g>
<!-- Node21 -->
<g id="node21" class="node">
<title>Node21</title>
<g id="a_node21"><a xlink:href="stream_2_socket_server_8h.html" target="_top" xlink:title=" ">
<polygon fill="white" stroke="black" points="654.5,-313.5 654.5,-343.5 783.5,-343.5 783.5,-313.5 654.5,-313.5"/>
<text text-anchor="start" x="662.5" y="-331.5" font-family="Helvetica,sans-Serif" font-size="10.00">net/socket/stream/Socket</text>
<text text-anchor="middle" x="719" y="-320.5" font-family="Helvetica,sans-Serif" font-size="10.00">Server.h</text>
</a>
</g>
</g>
<!-- Node20&#45;&gt;Node21 -->
<g id="edge21" class="edge">
<title>Node20&#45;&gt;Node21</title>
<path fill="none" stroke="midnightblue" d="M719,-380.4C719,-372.64 719,-362.81 719,-353.86"/>
<polygon fill="midnightblue" stroke="midnightblue" points="722.5,-353.58 719,-343.58 715.5,-353.58 722.5,-353.58"/>
</g>
<!-- Node22 -->
<g id="node22" class="node">
<title>Node22</title>
<g id="a_node22"><a xlink:href="legacy_2_socket_listener_8h.html" target="_top" xlink:title=" ">
<polygon fill="white" stroke="black" points="509.5,-313.5 509.5,-343.5 636.5,-343.5 636.5,-313.5 509.5,-313.5"/>
<text text-anchor="start" x="517.5" y="-331.5" font-family="Helvetica,sans-Serif" font-size="10.00">net/socket/stream/legacy</text>
<text text-anchor="middle" x="573" y="-320.5" font-family="Helvetica,sans-Serif" font-size="10.00">/SocketListener.h</text>
</a>
</g>
</g>
<!-- Node20&#45;&gt;Node22 -->
<g id="edge22" class="edge">
<title>Node20&#45;&gt;Node22</title>
<path fill="none" stroke="midnightblue" d="M687.32,-380.4C665.8,-370.81 637.13,-358.05 613.88,-347.7"/>
<polygon fill="midnightblue" stroke="midnightblue" points="615.18,-344.45 604.62,-343.58 612.33,-350.84 615.18,-344.45"/>
</g>
<!-- Node23 -->
<g id="node23" class="node">
<title>Node23</title>
<g id="a_node23"><a xlink:href="_socket_listener_8h.html" target="_top" xlink:title=" ">
<polygon fill="white" stroke="black" points="494.5,-246.5 494.5,-276.5 623.5,-276.5 623.5,-246.5 494.5,-246.5"/>
<text text-anchor="start" x="502.5" y="-264.5" font-family="Helvetica,sans-Serif" font-size="10.00">net/socket/stream/Socket</text>
<text text-anchor="middle" x="559" y="-253.5" font-family="Helvetica,sans-Serif" font-size="10.00">Listener.h</text>
</a>
</g>
</g>
<!-- Node22&#45;&gt;Node23 -->
<g id="edge23" class="edge">
<title>Node22&#45;&gt;Node23</title>
<path fill="none" stroke="midnightblue" d="M569.96,-313.4C568.27,-305.56 566.13,-295.6 564.18,-286.57"/>
<polygon fill="midnightblue" stroke="midnightblue" points="567.56,-285.62 562.03,-276.58 560.72,-287.09 567.56,-285.62"/>
</g>
<!-- Node26 -->
<g id="node26" class="node">
<title>Node26</title>
<g id="a_node26"><a xlink:href="legacy_2_socket_connection_8h.html" target="_top" xlink:title=" ">
<polygon fill="white" stroke="black" points="641.5,-246.5 641.5,-276.5 768.5,-276.5 768.5,-246.5 641.5,-246.5"/>
<text text-anchor="start" x="649.5" y="-264.5" font-family="Helvetica,sans-Serif" font-size="10.00">net/socket/stream/legacy</text>
<text text-anchor="middle" x="705" y="-253.5" font-family="Helvetica,sans-Serif" font-size="10.00">/SocketConnection.h</text>
</a>
</g>
</g>
<!-- Node22&#45;&gt;Node26 -->
<g id="edge26" class="edge">
<title>Node22&#45;&gt;Node26</title>
<path fill="none" stroke="midnightblue" d="M601.64,-313.4C620.84,-303.94 646.33,-291.39 667.19,-281.12"/>
<polygon fill="midnightblue" stroke="midnightblue" points="668.99,-284.13 676.41,-276.58 665.9,-277.85 668.99,-284.13"/>
</g>
<!-- Node24 -->
<g id="node24" class="node">
<title>Node24</title>
<g id="a_node24"><a xlink:href="_accept_event_receiver_8h.html" target="_top" xlink:title=" ">
<polygon fill="white" stroke="black" points="422,-56.5 422,-75.5 558,-75.5 558,-56.5 422,-56.5"/>
<text text-anchor="middle" x="490" y="-63.5" font-family="Helvetica,sans-Serif" font-size="10.00">net/AcceptEventReceiver.h</text>
</a>
</g>
</g>
<!-- Node23&#45;&gt;Node24 -->
<g id="edge24" class="edge">
<title>Node23&#45;&gt;Node24</title>
<path fill="none" stroke="midnightblue" d="M553.93,-246.27C541.63,-211.8 510.26,-123.81 496.56,-85.4"/>
<polygon fill="midnightblue" stroke="midnightblue" points="499.71,-83.82 493.06,-75.58 493.12,-86.17 499.71,-83.82"/>
</g>
<!-- Node25 -->
<g id="node25" class="node">
<title>Node25</title>
<g id="a_node25"><a xlink:href="_descriptor_event_receiver_8h.html" target="_top" xlink:title=" ">
<polygon fill="white" stroke="black" points="565,-0.5 565,-19.5 715,-19.5 715,-0.5 565,-0.5"/>
<text text-anchor="middle" x="640" y="-7.5" font-family="Helvetica,sans-Serif" font-size="10.00">net/DescriptorEventReceiver.h</text>
</a>
</g>
</g>
<!-- Node24&#45;&gt;Node25 -->
<g id="edge25" class="edge">
<title>Node24&#45;&gt;Node25</title>
<path fill="none" stroke="midnightblue" d="M513.77,-56.44C538.89,-47.4 578.71,-33.06 606.9,-22.92"/>
<polygon fill="midnightblue" stroke="midnightblue" points="608.12,-26.2 616.34,-19.52 605.75,-19.61 608.12,-26.2"/>
</g>
<!-- Node27 -->
<g id="node27" class="node">
<title>Node27</title>
<g id="a_node27"><a xlink:href="_socket_connection_t_8h.html" target="_top" xlink:title=" ">
<polygon fill="white" stroke="black" points="904.5,-179.5 904.5,-209.5 1033.5,-209.5 1033.5,-179.5 904.5,-179.5"/>
<text text-anchor="start" x="912.5" y="-197.5" font-family="Helvetica,sans-Serif" font-size="10.00">net/socket/stream/Socket</text>
<text text-anchor="middle" x="969" y="-186.5" font-family="Helvetica,sans-Serif" font-size="10.00">ConnectionT.h</text>
</a>
</g>
</g>
<!-- Node26&#45;&gt;Node27 -->
<g id="edge27" class="edge">
<title>Node26&#45;&gt;Node27</title>
<path fill="none" stroke="midnightblue" d="M761.96,-246.48C803.02,-236.37 858.59,-222.68 901.82,-212.04"/>
<polygon fill="midnightblue" stroke="midnightblue" points="902.81,-215.4 911.69,-209.61 901.14,-208.6 902.81,-215.4"/>
</g>
<!-- Node31 -->
<g id="node31" class="node">
<title>Node31</title>
<g id="a_node31"><a xlink:href="legacy_2_socket_reader_8h.html" target="_top" xlink:title=" ">
<polygon fill="white" stroke="black" points="720.5,-179.5 720.5,-209.5 847.5,-209.5 847.5,-179.5 720.5,-179.5"/>
<text text-anchor="start" x="728.5" y="-197.5" font-family="Helvetica,sans-Serif" font-size="10.00">net/socket/stream/legacy</text>
<text text-anchor="middle" x="784" y="-186.5" font-family="Helvetica,sans-Serif" font-size="10.00">/SocketReader.h</text>
</a>
</g>
</g>
<!-- Node26&#45;&gt;Node31 -->
<g id="edge31" class="edge">
<title>Node26&#45;&gt;Node31</title>
<path fill="none" stroke="midnightblue" d="M722.14,-246.4C732.91,-237.54 746.98,-225.96 758.98,-216.09"/>
<polygon fill="midnightblue" stroke="midnightblue" points="761.39,-218.63 766.89,-209.58 756.95,-213.23 761.39,-218.63"/>
</g>
<!-- Node34 -->
<g id="node34" class="node">
<title>Node34</title>
<g id="a_node34"><a xlink:href="legacy_2_socket_writer_8h.html" target="_top" xlink:title=" ">
<polygon fill="white" stroke="black" points="575.5,-179.5 575.5,-209.5 702.5,-209.5 702.5,-179.5 575.5,-179.5"/>
<text text-anchor="start" x="583.5" y="-197.5" font-family="Helvetica,sans-Serif" font-size="10.00">net/socket/stream/legacy</text>
<text text-anchor="middle" x="639" y="-186.5" font-family="Helvetica,sans-Serif" font-size="10.00">/SocketWriter.h</text>
</a>
</g>
</g>
<!-- Node26&#45;&gt;Node34 -->
<g id="edge35" class="edge">
<title>Node26&#45;&gt;Node34</title>
<path fill="none" stroke="midnightblue" d="M690.68,-246.4C681.86,-237.71 670.38,-226.4 660.48,-216.66"/>
<polygon fill="midnightblue" stroke="midnightblue" points="662.87,-214.1 653.29,-209.58 657.96,-219.09 662.87,-214.1"/>
</g>
<!-- Node28 -->
<g id="node28" class="node">
<title>Node28</title>
<g id="a_node28"><a xlink:href="_socket_connection_8h.html" target="_top" xlink:title=" ">
<polygon fill="white" stroke="black" points="868.5,-112.5 868.5,-142.5 997.5,-142.5 997.5,-112.5 868.5,-112.5"/>
<text text-anchor="start" x="876.5" y="-130.5" font-family="Helvetica,sans-Serif" font-size="10.00">net/socket/stream/Socket</text>
<text text-anchor="middle" x="933" y="-119.5" font-family="Helvetica,sans-Serif" font-size="10.00">Connection.h</text>
</a>
</g>
</g>
<!-- Node27&#45;&gt;Node28 -->
<g id="edge28" class="edge">
<title>Node27&#45;&gt;Node28</title>
<path fill="none" stroke="midnightblue" d="M961.19,-179.4C956.66,-171.22 950.85,-160.73 945.68,-151.39"/>
<polygon fill="midnightblue" stroke="midnightblue" points="948.7,-149.63 940.8,-142.58 942.58,-153.02 948.7,-149.63"/>
</g>
<!-- Node29 -->
<g id="node29" class="node">
<title>Node29</title>
<g id="a_node29"><a xlink:href="net_2socket_2stream_2_socket_context_8h.html" target="_top" xlink:title=" ">
<polygon fill="white" stroke="black" points="1015.5,-112.5 1015.5,-142.5 1144.5,-142.5 1144.5,-112.5 1015.5,-112.5"/>
<text text-anchor="start" x="1023.5" y="-130.5" font-family="Helvetica,sans-Serif" font-size="10.00">net/socket/stream/Socket</text>
<text text-anchor="middle" x="1080" y="-119.5" font-family="Helvetica,sans-Serif" font-size="10.00">Context.h</text>
</a>
</g>
</g>
<!-- Node27&#45;&gt;Node29 -->
<g id="edge29" class="edge">
<title>Node27&#45;&gt;Node29</title>
<path fill="none" stroke="midnightblue" d="M993.09,-179.4C1008.94,-170.11 1029.89,-157.84 1047.26,-147.67"/>
<polygon fill="midnightblue" stroke="midnightblue" points="1049.1,-150.65 1055.96,-142.58 1045.56,-144.61 1049.1,-150.65"/>
</g>
<!-- Node30 -->
<g id="node30" class="node">
<title>Node30</title>
<g id="a_node30"><a xlink:href="net_2socket_2stream_2_socket_context_factory_8h.html" target="_top" xlink:title=" ">
<polygon fill="white" stroke="black" points="1162.5,-112.5 1162.5,-142.5 1291.5,-142.5 1291.5,-112.5 1162.5,-112.5"/>
<text text-anchor="start" x="1170.5" y="-130.5" font-family="Helvetica,sans-Serif" font-size="10.00">net/socket/stream/Socket</text>
<text text-anchor="middle" x="1227" y="-119.5" font-family="Helvetica,sans-Serif" font-size="10.00">ContextFactory.h</text>
</a>
</g>
</g>
<!-- Node27&#45;&gt;Node30 -->
<g id="edge30" class="edge">
<title>Node27&#45;&gt;Node30</title>
<path fill="none" stroke="midnightblue" d="M1024.66,-179.48C1064.71,-169.39 1118.87,-155.74 1161.08,-145.11"/>
<polygon fill="midnightblue" stroke="midnightblue" points="1162.15,-148.45 1170.99,-142.61 1160.44,-141.66 1162.15,-148.45"/>
</g>
<!-- Node32 -->
<g id="node32" class="node">
<title>Node32</title>
<g id="a_node32"><a xlink:href="_socket_reader_8h.html" target="_top" xlink:title=" ">
<polygon fill="white" stroke="black" points="721.5,-112.5 721.5,-142.5 850.5,-142.5 850.5,-112.5 721.5,-112.5"/>
<text text-anchor="start" x="729.5" y="-130.5" font-family="Helvetica,sans-Serif" font-size="10.00">net/socket/stream/Socket</text>
<text text-anchor="middle" x="786" y="-119.5" font-family="Helvetica,sans-Serif" font-size="10.00">Reader.h</text>
</a>
</g>
</g>
<!-- Node31&#45;&gt;Node32 -->
<g id="edge32" class="edge">
<title>Node31&#45;&gt;Node32</title>
<path fill="none" stroke="midnightblue" d="M784.43,-179.4C784.67,-171.64 784.98,-161.81 785.25,-152.86"/>
<polygon fill="midnightblue" stroke="midnightblue" points="788.76,-152.68 785.57,-142.58 781.76,-152.46 788.76,-152.68"/>
</g>
<!-- Node33 -->
<g id="node33" class="node">
<title>Node33</title>
<g id="a_node33"><a xlink:href="_read_event_receiver_8h.html" target="_top" xlink:title=" ">
<polygon fill="white" stroke="black" points="722,-56.5 722,-75.5 850,-75.5 850,-56.5 722,-56.5"/>
<text text-anchor="middle" x="786" y="-63.5" font-family="Helvetica,sans-Serif" font-size="10.00">net/ReadEventReceiver.h</text>
</a>
</g>
</g>
<!-- Node32&#45;&gt;Node33 -->
<g id="edge33" class="edge">
<title>Node32&#45;&gt;Node33</title>
<path fill="none" stroke="midnightblue" d="M786,-112.4C786,-104.47 786,-94.46 786,-85.86"/>
<polygon fill="midnightblue" stroke="midnightblue" points="789.5,-85.66 786,-75.66 782.5,-85.66 789.5,-85.66"/>
</g>
<!-- Node33&#45;&gt;Node25 -->
<g id="edge34" class="edge">
<title>Node33&#45;&gt;Node25</title>
<path fill="none" stroke="midnightblue" d="M762.87,-56.44C738.52,-47.44 699.99,-33.19 672.58,-23.05"/>
<polygon fill="midnightblue" stroke="midnightblue" points="673.62,-19.7 663.03,-19.52 671.19,-26.27 673.62,-19.7"/>
</g>
<!-- Node35 -->
<g id="node35" class="node">
<title>Node35</title>
<g id="a_node35"><a xlink:href="_socket_writer_8h.html" target="_top" xlink:title=" ">
<polygon fill="white" stroke="black" points="574.5,-112.5 574.5,-142.5 703.5,-142.5 703.5,-112.5 574.5,-112.5"/>
<text text-anchor="start" x="582.5" y="-130.5" font-family="Helvetica,sans-Serif" font-size="10.00">net/socket/stream/Socket</text>
<text text-anchor="middle" x="639" y="-119.5" font-family="Helvetica,sans-Serif" font-size="10.00">Writer.h</text>
</a>
</g>
</g>
<!-- Node34&#45;&gt;Node35 -->
<g id="edge36" class="edge">
<title>Node34&#45;&gt;Node35</title>
<path fill="none" stroke="midnightblue" d="M639,-179.4C639,-171.64 639,-161.81 639,-152.86"/>
<polygon fill="midnightblue" stroke="midnightblue" points="642.5,-152.58 639,-142.58 635.5,-152.58 642.5,-152.58"/>
</g>
<!-- Node36 -->
<g id="node36" class="node">
<title>Node36</title>
<g id="a_node36"><a xlink:href="_write_event_receiver_8h.html" target="_top" xlink:title=" ">
<polygon fill="white" stroke="black" points="576,-56.5 576,-75.5 704,-75.5 704,-56.5 576,-56.5"/>
<text text-anchor="middle" x="640" y="-63.5" font-family="Helvetica,sans-Serif" font-size="10.00">net/WriteEventReceiver.h</text>
</a>
</g>
</g>
<!-- Node35&#45;&gt;Node36 -->
<g id="edge37" class="edge">
<title>Node35&#45;&gt;Node36</title>
<path fill="none" stroke="midnightblue" d="M639.24,-112.4C639.37,-104.47 639.54,-94.46 639.68,-85.86"/>
<polygon fill="midnightblue" stroke="midnightblue" points="643.19,-85.72 639.85,-75.66 636.19,-85.6 643.19,-85.72"/>
</g>
<!-- Node36&#45;&gt;Node25 -->
<g id="edge38" class="edge">
<title>Node36&#45;&gt;Node25</title>
<path fill="none" stroke="midnightblue" d="M640,-56.08C640,-49.01 640,-38.86 640,-29.99"/>
<polygon fill="midnightblue" stroke="midnightblue" points="643.5,-29.75 640,-19.75 636.5,-29.75 643.5,-29.75"/>
</g>
<!-- Node37&#45;&gt;Node20 -->
<g id="edge44" class="edge">
<title>Node37&#45;&gt;Node20</title>
<path fill="none" stroke="midnightblue" d="M769.11,-447.4C760.64,-438.79 749.65,-427.63 740.11,-417.94"/>
<polygon fill="midnightblue" stroke="midnightblue" points="742.37,-415.25 732.86,-410.58 737.38,-420.16 742.37,-415.25"/>
</g>
<!-- Node38 -->
<g id="node38" class="node">
<title>Node38</title>
<g id="a_node38"><a xlink:href="socket_2ip_2tcp_2ipv6_2_socket_8h.html" target="_top" xlink:title=" ">
<polygon fill="white" stroke="black" points="801,-380.5 801,-410.5 911,-410.5 911,-380.5 801,-380.5"/>
<text text-anchor="start" x="809" y="-398.5" font-family="Helvetica,sans-Serif" font-size="10.00">net/socket/ip/tcp/ipv6</text>
<text text-anchor="middle" x="856" y="-387.5" font-family="Helvetica,sans-Serif" font-size="10.00">/Socket.h</text>
</a>
</g>
</g>
<!-- Node37&#45;&gt;Node38 -->
<g id="edge40" class="edge">
<title>Node37&#45;&gt;Node38</title>
<path fill="none" stroke="midnightblue" d="M798.84,-447.4C808.69,-438.62 821.54,-427.18 832.56,-417.37"/>
<polygon fill="midnightblue" stroke="midnightblue" points="835.05,-419.84 840.19,-410.58 830.4,-414.61 835.05,-419.84"/>
</g>
<!-- Node38&#45;&gt;Node16 -->
<g id="edge41" class="edge">
<title>Node38&#45;&gt;Node16</title>
<path fill="none" stroke="midnightblue" d="M883.34,-380.4C905.06,-369.19 935.2,-353.64 956.44,-342.69"/>
<polygon fill="midnightblue" stroke="midnightblue" points="958.23,-345.7 965.51,-338.01 955.02,-339.48 958.23,-345.7"/>
</g>
<!-- Node39 -->
<g id="node39" class="node">
<title>Node39</title>
<g id="a_node39"><a xlink:href="ipv6_2_inet_address_8h.html" target="_top" xlink:title=" ">
<polygon fill="white" stroke="black" points="802,-313.5 802,-343.5 912,-343.5 912,-313.5 802,-313.5"/>
<text text-anchor="start" x="810" y="-331.5" font-family="Helvetica,sans-Serif" font-size="10.00">net/socket/ip/address</text>
<text text-anchor="middle" x="857" y="-320.5" font-family="Helvetica,sans-Serif" font-size="10.00">/ipv6/InetAddress.h</text>
</a>
</g>
</g>
<!-- Node38&#45;&gt;Node39 -->
<g id="edge42" class="edge">
<title>Node38&#45;&gt;Node39</title>
<path fill="none" stroke="midnightblue" d="M856.22,-380.4C856.34,-372.64 856.49,-362.81 856.63,-353.86"/>
<polygon fill="midnightblue" stroke="midnightblue" points="860.13,-353.63 856.78,-343.58 853.13,-353.52 860.13,-353.63"/>
</g>
<!-- Node39&#45;&gt;Node19 -->
<g id="edge43" class="edge">
<title>Node39&#45;&gt;Node19</title>
<path fill="none" stroke="midnightblue" d="M857,-313.4C857,-304.06 857,-291.71 857,-281.52"/>
<polygon fill="midnightblue" stroke="midnightblue" points="860.5,-281.19 857,-271.19 853.5,-281.19 860.5,-281.19"/>
</g>
<!-- Node41 -->
<g id="node41" class="node">
<title>Node41</title>
<g id="a_node41"><a xlink:href="web_2http_2server_2_socket_context_factory_8h.html" target="_top" xlink:title=" ">
<polygon fill="white" stroke="black" points="1234,-313.5 1234,-343.5 1386,-343.5 1386,-313.5 1234,-313.5"/>
<text text-anchor="start" x="1242" y="-331.5" font-family="Helvetica,sans-Serif" font-size="10.00">web/http/server/SocketContext</text>
<text text-anchor="middle" x="1310" y="-320.5" font-family="Helvetica,sans-Serif" font-size="10.00">Factory.h</text>
</a>
</g>
</g>
<!-- Node40&#45;&gt;Node41 -->
<g id="edge46" class="edge">
<title>Node40&#45;&gt;Node41</title>
<path fill="none" stroke="midnightblue" d="M1108.17,-452.84C1142.47,-431.88 1230.63,-378 1278.29,-348.88"/>
<polygon fill="midnightblue" stroke="midnightblue" points="1280.27,-351.77 1286.97,-343.57 1276.62,-345.8 1280.27,-351.77"/>
</g>
<!-- Node41&#45;&gt;Node30 -->
<g id="edge47" class="edge">
<title>Node41&#45;&gt;Node30</title>
<path fill="none" stroke="midnightblue" d="M1320.14,-313.14C1338.61,-285.06 1373.3,-221.89 1345,-179 1334.7,-163.38 1318.46,-152.58 1301.29,-145.11"/>
<polygon fill="midnightblue" stroke="midnightblue" points="1302.28,-141.73 1291.69,-141.29 1299.69,-148.24 1302.28,-141.73"/>
</g>
<!-- Node42 -->
<g id="node42" class="node">
<title>Node42</title>
<g id="a_node42"><a xlink:href="server_2_socket_context_8hpp.html" target="_top" xlink:title=" ">
<polygon fill="white" stroke="black" points="1049.5,-252 1049.5,-271 1220.5,-271 1220.5,-252 1049.5,-252"/>
<text text-anchor="middle" x="1135" y="-259" font-family="Helvetica,sans-Serif" font-size="10.00">web/http/server/SocketContext.hpp</text>
</a>
</g>
</g>
<!-- Node41&#45;&gt;Node42 -->
<g id="edge48" class="edge">
<title>Node41&#45;&gt;Node42</title>
<path fill="none" stroke="midnightblue" d="M1272.03,-313.4C1240.78,-301.79 1196.96,-285.51 1167.36,-274.52"/>
<polygon fill="midnightblue" stroke="midnightblue" points="1168.5,-271.21 1157.9,-271.01 1166.06,-277.77 1168.5,-271.21"/>
</g>
<!-- Node47 -->
<g id="node47" class="node">
<title>Node47</title>
<g id="a_node47"><a xlink:href="server_2_socket_context_upgrade_factory_selector_8h.html" target="_top" xlink:title=" ">
<polygon fill="white" stroke="black" points="1392,-246.5 1392,-276.5 1544,-276.5 1544,-246.5 1392,-246.5"/>
<text text-anchor="start" x="1400" y="-264.5" font-family="Helvetica,sans-Serif" font-size="10.00">web/http/server/SocketContext</text>
<text text-anchor="middle" x="1468" y="-253.5" font-family="Helvetica,sans-Serif" font-size="10.00">UpgradeFactorySelector.h</text>
</a>
</g>
</g>
<!-- Node41&#45;&gt;Node47 -->
<g id="edge56" class="edge">
<title>Node41&#45;&gt;Node47</title>
<path fill="none" stroke="midnightblue" d="M1344.28,-313.4C1367.78,-303.73 1399.15,-290.82 1424.43,-280.43"/>
<polygon fill="midnightblue" stroke="midnightblue" points="1425.87,-283.62 1433.78,-276.58 1423.2,-277.14 1425.87,-283.62"/>
</g>
<!-- Node42&#45;&gt;Node6 -->
<g id="edge50" class="edge">
<title>Node42&#45;&gt;Node6</title>
<path fill="none" stroke="midnightblue" d="M1083.82,-251.96C1069.65,-249.8 1054.26,-247.63 1040,-246 830.53,-222.08 776.8,-230.86 567,-210 553.12,-208.62 538.34,-206.96 524.11,-205.26"/>
<polygon fill="midnightblue" stroke="midnightblue" points="524.21,-201.74 513.86,-204.02 523.37,-208.69 524.21,-201.74"/>
</g>
<!-- Node42&#45;&gt;Node28 -->
<g id="edge49" class="edge">
<title>Node42&#45;&gt;Node28</title>
<path fill="none" stroke="midnightblue" d="M1087.04,-251.96C1019.02,-239.61 902.04,-217.45 896,-210 881.49,-192.1 896.2,-167.59 911.15,-150.14"/>
<polygon fill="midnightblue" stroke="midnightblue" points="913.81,-152.42 917.94,-142.66 908.63,-147.72 913.81,-152.42"/>
</g>
<!-- Node43 -->
<g id="node43" class="node">
<title>Node43</title>
<g id="a_node43"><a xlink:href="http__utils_8h.html" target="_top" xlink:title=" ">
<polygon fill="white" stroke="black" points="1051.5,-185 1051.5,-204 1156.5,-204 1156.5,-185 1051.5,-185"/>
<text text-anchor="middle" x="1104" y="-192" font-family="Helvetica,sans-Serif" font-size="10.00">web/http/http_utils.h</text>
</a>
</g>
</g>
<!-- Node42&#45;&gt;Node43 -->
<g id="edge51" class="edge">
<title>Node42&#45;&gt;Node43</title>
<path fill="none" stroke="midnightblue" d="M1130.82,-251.73C1126.12,-241.89 1118.38,-225.66 1112.42,-213.16"/>
<polygon fill="midnightblue" stroke="midnightblue" points="1115.58,-211.65 1108.11,-204.13 1109.26,-214.66 1115.58,-211.65"/>
</g>
<!-- Node44 -->
<g id="node44" class="node">
<title>Node44</title>
<g id="a_node44"><a xlink:href="web_2http_2server_2_socket_context_8h.html" target="_top" xlink:title=" ">
<polygon fill="white" stroke="black" points="1174.5,-185 1174.5,-204 1335.5,-204 1335.5,-185 1174.5,-185"/>
<text text-anchor="middle" x="1255" y="-192" font-family="Helvetica,sans-Serif" font-size="10.00">web/http/server/SocketContext.h</text>
</a>
</g>
</g>
<!-- Node42&#45;&gt;Node44 -->
<g id="edge52" class="edge">
<title>Node42&#45;&gt;Node44</title>
<path fill="none" stroke="midnightblue" d="M1151.18,-251.73C1171.43,-240.77 1206.3,-221.88 1229.99,-209.05"/>
<polygon fill="midnightblue" stroke="midnightblue" points="1231.95,-211.97 1239.07,-204.13 1228.61,-205.81 1231.95,-211.97"/>
</g>
<!-- Node44&#45;&gt;Node29 -->
<g id="edge53" class="edge">
<title>Node44&#45;&gt;Node29</title>
<path fill="none" stroke="midnightblue" d="M1231.76,-184.87C1205.27,-175.03 1161.28,-158.69 1127.46,-146.13"/>
<polygon fill="midnightblue" stroke="midnightblue" points="1128.36,-142.73 1117.77,-142.53 1125.92,-149.29 1128.36,-142.73"/>
</g>
<!-- Node45 -->
<g id="node45" class="node">
<title>Node45</title>
<g id="a_node45"><a xlink:href="_request_parser_8h.html" target="_top" xlink:title=" ">
<polygon fill="white" stroke="black" points="1310,-118 1310,-137 1470,-137 1470,-118 1310,-118"/>
<text text-anchor="middle" x="1390" y="-125" font-family="Helvetica,sans-Serif" font-size="10.00">web/http/server/RequestParser.h</text>
</a>
</g>
</g>
<!-- Node44&#45;&gt;Node45 -->
<g id="edge54" class="edge">
<title>Node44&#45;&gt;Node45</title>
<path fill="none" stroke="midnightblue" d="M1272.93,-184.87C1295.92,-173.8 1336.03,-154.49 1362.8,-141.6"/>
<polygon fill="midnightblue" stroke="midnightblue" points="1364.51,-144.66 1372,-137.17 1361.47,-138.35 1364.51,-144.66"/>
</g>
<!-- Node46 -->
<g id="node46" class="node">
<title>Node46</title>
<g id="a_node46"><a xlink:href="_parser_8h.html" target="_top" xlink:title=" ">
<polygon fill="white" stroke="black" points="1343.5,-56.5 1343.5,-75.5 1436.5,-75.5 1436.5,-56.5 1343.5,-56.5"/>
<text text-anchor="middle" x="1390" y="-63.5" font-family="Helvetica,sans-Serif" font-size="10.00">web/http/Parser.h</text>
</a>
</g>
</g>
<!-- Node45&#45;&gt;Node46 -->
<g id="edge55" class="edge">
<title>Node45&#45;&gt;Node46</title>
<path fill="none" stroke="midnightblue" d="M1390,-117.98C1390,-109.58 1390,-96.48 1390,-85.66"/>
<polygon fill="midnightblue" stroke="midnightblue" points="1393.5,-85.51 1390,-75.51 1386.5,-85.51 1393.5,-85.51"/>
</g>
</g>
</svg>
