<?xml version="1.0" encoding="UTF-8" standalone="no"?>
<!DOCTYPE svg PUBLIC "-//W3C//DTD SVG 1.1//EN"
 "http://www.w3.org/Graphics/SVG/1.1/DTD/svg11.dtd">
<!-- Generated by graphviz version 2.43.0 (0)
 -->
<!-- Title: net/socket/stream/legacy/SocketConnection.h Pages: 1 -->
<svg width="889pt" height="285pt"
 viewBox="0.00 0.00 889.00 285.00" xmlns="http://www.w3.org/2000/svg" xmlns:xlink="http://www.w3.org/1999/xlink">
<g id="graph0" class="graph" transform="scale(1 1) rotate(0) translate(4 281)">
<title>net/socket/stream/legacy/SocketConnection.h</title>
<polygon fill="white" stroke="transparent" points="-4,4 -4,-281 885,-281 885,4 -4,4"/>
<!-- Node1 -->
<g id="node1" class="node">
<title>Node1</title>
<g id="a_node1"><a xlink:title=" ">
<polygon fill="#bfbfbf" stroke="black" points="273,-246.5 273,-276.5 400,-276.5 400,-246.5 273,-246.5"/>
<text text-anchor="start" x="281" y="-264.5" font-family="Helvetica,sans-Serif" font-size="10.00">net/socket/stream/legacy</text>
<text text-anchor="middle" x="336.5" y="-253.5" font-family="Helvetica,sans-Serif" font-size="10.00">/SocketConnection.h</text>
</a>
</g>
</g>
<!-- Node2 -->
<g id="node2" class="node">
<title>Node2</title>
<g id="a_node2"><a xlink:href="_socket_connection_8h.html" target="_top" xlink:title=" ">
<polygon fill="white" stroke="black" points="458,-179.5 458,-209.5 587,-209.5 587,-179.5 458,-179.5"/>
<text text-anchor="start" x="466" y="-197.5" font-family="Helvetica,sans-Serif" font-size="10.00">net/socket/stream/Socket</text>
<text text-anchor="middle" x="522.5" y="-186.5" font-family="Helvetica,sans-Serif" font-size="10.00">Connection.h</text>
</a>
</g>
</g>
<!-- Node1&#45;&gt;Node2 -->
<g id="edge1" class="edge">
<title>Node1&#45;&gt;Node2</title>
<path fill="none" stroke="midnightblue" d="M376.86,-246.4C405.01,-236.56 442.76,-223.37 472.77,-212.88"/>
<polygon fill="midnightblue" stroke="midnightblue" points="473.93,-216.18 482.22,-209.58 471.62,-209.57 473.93,-216.18"/>
</g>
<!-- Node7 -->
<g id="node7" class="node">
<title>Node7</title>
<g id="a_node7"><a xlink:href="legacy_2_socket_reader_8h.html" target="_top" xlink:title=" ">
<polygon fill="white" stroke="black" points="273,-179.5 273,-209.5 400,-209.5 400,-179.5 273,-179.5"/>
<text text-anchor="start" x="281" y="-197.5" font-family="Helvetica,sans-Serif" font-size="10.00">net/socket/stream/legacy</text>
<text text-anchor="middle" x="336.5" y="-186.5" font-family="Helvetica,sans-Serif" font-size="10.00">/SocketReader.h</text>
</a>
</g>
</g>
<!-- Node1&#45;&gt;Node7 -->
<g id="edge6" class="edge">
<title>Node1&#45;&gt;Node7</title>
<path fill="none" stroke="midnightblue" d="M336.5,-246.4C336.5,-238.64 336.5,-228.81 336.5,-219.86"/>
<polygon fill="midnightblue" stroke="midnightblue" points="340,-219.58 336.5,-209.58 333,-219.58 340,-219.58"/>
</g>
<!-- Node12 -->
<g id="node12" class="node">
<title>Node12</title>
<g id="a_node12"><a xlink:href="legacy_2_socket_writer_8h.html" target="_top" xlink:title=" ">
<polygon fill="white" stroke="black" points="128,-179.5 128,-209.5 255,-209.5 255,-179.5 128,-179.5"/>
<text text-anchor="start" x="136" y="-197.5" font-family="Helvetica,sans-Serif" font-size="10.00">net/socket/stream/legacy</text>
<text text-anchor="middle" x="191.5" y="-186.5" font-family="Helvetica,sans-Serif" font-size="10.00">/SocketWriter.h</text>
</a>
</g>
</g>
<!-- Node1&#45;&gt;Node12 -->
<g id="edge12" class="edge">
<title>Node1&#45;&gt;Node12</title>
<path fill="none" stroke="midnightblue" d="M305.04,-246.4C283.66,-236.81 255.19,-224.05 232.1,-213.7"/>
<polygon fill="midnightblue" stroke="midnightblue" points="233.46,-210.47 222.9,-209.58 230.59,-216.86 233.46,-210.47"/>
</g>
<!-- Node3 -->
<g id="node3" class="node">
<title>Node3</title>
<g id="a_node3"><a xlink:href="_logger_8h.html" target="_top" xlink:title=" ">
<polygon fill="white" stroke="black" points="302,-56.5 302,-75.5 371,-75.5 371,-56.5 302,-56.5"/>
<text text-anchor="middle" x="336.5" y="-63.5" font-family="Helvetica,sans-Serif" font-size="10.00">log/Logger.h</text>
</a>
</g>
</g>
<!-- Node2&#45;&gt;Node3 -->
<g id="edge2" class="edge">
<title>Node2&#45;&gt;Node3</title>
<path fill="none" stroke="midnightblue" d="M501.47,-179.5C486.75,-169.56 466.7,-155.76 449.5,-143 431.72,-129.81 428.66,-124.67 410.5,-112 394.41,-100.78 375.51,-89.31 360.84,-80.76"/>
<polygon fill="midnightblue" stroke="midnightblue" points="362.29,-77.56 351.88,-75.6 358.79,-83.62 362.29,-77.56"/>
</g>
<!-- Node4 -->
<g id="node4" class="node">
<title>Node4</title>
<g id="a_node4"><a xlink:href="_socket_connection_base_8h.html" target="_top" xlink:title=" ">
<polygon fill="white" stroke="black" points="458,-112.5 458,-142.5 587,-142.5 587,-112.5 458,-112.5"/>
<text text-anchor="start" x="466" y="-130.5" font-family="Helvetica,sans-Serif" font-size="10.00">net/socket/stream/Socket</text>
<text text-anchor="middle" x="522.5" y="-119.5" font-family="Helvetica,sans-Serif" font-size="10.00">ConnectionBase.h</text>
</a>
</g>
</g>
<!-- Node2&#45;&gt;Node4 -->
<g id="edge3" class="edge">
<title>Node2&#45;&gt;Node4</title>
<path fill="none" stroke="midnightblue" d="M522.5,-179.4C522.5,-171.64 522.5,-161.81 522.5,-152.86"/>
<polygon fill="midnightblue" stroke="midnightblue" points="526,-152.58 522.5,-142.58 519,-152.58 526,-152.58"/>
</g>
<!-- Node5 -->
<g id="node5" class="node">
<title>Node5</title>
<g id="a_node5"><a xlink:href="net_2socket_2stream_2_socket_context_8h.html" target="_top" xlink:title=" ">
<polygon fill="white" stroke="black" points="605,-112.5 605,-142.5 734,-142.5 734,-112.5 605,-112.5"/>
<text text-anchor="start" x="613" y="-130.5" font-family="Helvetica,sans-Serif" font-size="10.00">net/socket/stream/Socket</text>
<text text-anchor="middle" x="669.5" y="-119.5" font-family="Helvetica,sans-Serif" font-size="10.00">Context.h</text>
</a>
</g>
</g>
<!-- Node2&#45;&gt;Node5 -->
<g id="edge4" class="edge">
<title>Node2&#45;&gt;Node5</title>
<path fill="none" stroke="midnightblue" d="M554.4,-179.4C576.07,-169.81 604.93,-157.05 628.34,-146.7"/>
<polygon fill="midnightblue" stroke="midnightblue" points="629.94,-149.82 637.67,-142.58 627.1,-143.42 629.94,-149.82"/>
</g>
<!-- Node6 -->
<g id="node6" class="node">
<title>Node6</title>
<g id="a_node6"><a xlink:href="net_2socket_2stream_2_socket_context_factory_8h.html" target="_top" xlink:title=" ">
<polygon fill="white" stroke="black" points="752,-112.5 752,-142.5 881,-142.5 881,-112.5 752,-112.5"/>
<text text-anchor="start" x="760" y="-130.5" font-family="Helvetica,sans-Serif" font-size="10.00">net/socket/stream/Socket</text>
<text text-anchor="middle" x="816.5" y="-119.5" font-family="Helvetica,sans-Serif" font-size="10.00">ContextFactory.h</text>
</a>
</g>
</g>
<!-- Node2&#45;&gt;Node6 -->
<g id="edge5" class="edge">
<title>Node2&#45;&gt;Node6</title>
<path fill="none" stroke="midnightblue" d="M585.93,-179.48C632.12,-169.26 694.8,-155.41 743.15,-144.72"/>
<polygon fill="midnightblue" stroke="midnightblue" points="743.92,-148.13 752.93,-142.55 742.41,-141.3 743.92,-148.13"/>
</g>
<!-- Node8 -->
<g id="node8" class="node">
<title>Node8</title>
<g id="a_node8"><a xlink:href="_socket_reader_8h.html" target="_top" xlink:title=" ">
<polygon fill="white" stroke="black" points="272,-112.5 272,-142.5 401,-142.5 401,-112.5 272,-112.5"/>
<text text-anchor="start" x="280" y="-130.5" font-family="Helvetica,sans-Serif" font-size="10.00">net/socket/stream/Socket</text>
<text text-anchor="middle" x="336.5" y="-119.5" font-family="Helvetica,sans-Serif" font-size="10.00">Reader.h</text>
</a>
</g>
</g>
<!-- Node7&#45;&gt;Node8 -->
<g id="edge7" class="edge">
<title>Node7&#45;&gt;Node8</title>
<path fill="none" stroke="midnightblue" d="M336.5,-179.4C336.5,-171.64 336.5,-161.81 336.5,-152.86"/>
<polygon fill="midnightblue" stroke="midnightblue" points="340,-152.58 336.5,-142.58 333,-152.58 340,-152.58"/>
</g>
<!-- Node11 -->
<g id="node11" class="node">
<title>Node11</title>
<g id="a_node11"><a xlink:href="system_2_socket_8h.html" target="_top" xlink:title=" ">
<polygon fill="white" stroke="black" points="147.5,-118 147.5,-137 253.5,-137 253.5,-118 147.5,-118"/>
<text text-anchor="middle" x="200.5" y="-125" font-family="Helvetica,sans-Serif" font-size="10.00">net/system/socket.h</text>
</a>
</g>
</g>
<!-- Node7&#45;&gt;Node11 -->
<g id="edge11" class="edge">
<title>Node7&#45;&gt;Node11</title>
<path fill="none" stroke="midnightblue" d="M306.99,-179.4C283.34,-168.09 250.42,-152.36 227.47,-141.39"/>
<polygon fill="midnightblue" stroke="midnightblue" points="228.83,-138.16 218.3,-137.01 225.81,-144.48 228.83,-138.16"/>
</g>
<!-- Node8&#45;&gt;Node3 -->
<g id="edge8" class="edge">
<title>Node8&#45;&gt;Node3</title>
<path fill="none" stroke="midnightblue" d="M336.5,-112.4C336.5,-104.47 336.5,-94.46 336.5,-85.86"/>
<polygon fill="midnightblue" stroke="midnightblue" points="340,-85.66 336.5,-75.66 333,-85.66 340,-85.66"/>
</g>
<!-- Node9 -->
<g id="node9" class="node">
<title>Node9</title>
<g id="a_node9"><a xlink:href="_read_event_receiver_8h.html" target="_top" xlink:title=" ">
<polygon fill="white" stroke="black" points="153.5,-56.5 153.5,-75.5 281.5,-75.5 281.5,-56.5 153.5,-56.5"/>
<text text-anchor="middle" x="217.5" y="-63.5" font-family="Helvetica,sans-Serif" font-size="10.00">net/ReadEventReceiver.h</text>
</a>
</g>
</g>
<!-- Node8&#45;&gt;Node9 -->
<g id="edge9" class="edge">
<title>Node8&#45;&gt;Node9</title>
<path fill="none" stroke="midnightblue" d="M308.3,-112.4C288.78,-102.64 262.97,-89.74 243.87,-80.18"/>
<polygon fill="midnightblue" stroke="midnightblue" points="245.33,-77 234.82,-75.66 242.19,-83.26 245.33,-77"/>
</g>
<!-- Node10 -->
<g id="node10" class="node">
<title>Node10</title>
<g id="a_node10"><a xlink:href="_descriptor_event_receiver_8h.html" target="_top" xlink:title=" ">
<polygon fill="white" stroke="black" points="65.5,-0.5 65.5,-19.5 215.5,-19.5 215.5,-0.5 65.5,-0.5"/>
<text text-anchor="middle" x="140.5" y="-7.5" font-family="Helvetica,sans-Serif" font-size="10.00">net/DescriptorEventReceiver.h</text>
</a>
</g>
</g>
<!-- Node9&#45;&gt;Node10 -->
<g id="edge10" class="edge">
<title>Node9&#45;&gt;Node10</title>
<path fill="none" stroke="midnightblue" d="M205.13,-56.32C193.34,-48.06 175.37,-35.45 161.36,-25.63"/>
<polygon fill="midnightblue" stroke="midnightblue" points="163.04,-22.53 152.84,-19.65 159.02,-28.26 163.04,-22.53"/>
</g>
<!-- Node12&#45;&gt;Node11 -->
<g id="edge17" class="edge">
<title>Node12&#45;&gt;Node11</title>
<path fill="none" stroke="midnightblue" d="M193.45,-179.4C194.76,-169.96 196.49,-157.45 197.91,-147.19"/>
<polygon fill="midnightblue" stroke="midnightblue" points="201.39,-147.58 199.3,-137.19 194.46,-146.62 201.39,-147.58"/>
</g>
<!-- Node13 -->
<g id="node13" class="node">
<title>Node13</title>
<g id="a_node13"><a xlink:href="_socket_writer_8h.html" target="_top" xlink:title=" ">
<polygon fill="white" stroke="black" points="0,-112.5 0,-142.5 129,-142.5 129,-112.5 0,-112.5"/>
<text text-anchor="start" x="8" y="-130.5" font-family="Helvetica,sans-Serif" font-size="10.00">net/socket/stream/Socket</text>
<text text-anchor="middle" x="64.5" y="-119.5" font-family="Helvetica,sans-Serif" font-size="10.00">Writer.h</text>
</a>
</g>
</g>
<!-- Node12&#45;&gt;Node13 -->
<g id="edge13" class="edge">
<title>Node12&#45;&gt;Node13</title>
<path fill="none" stroke="midnightblue" d="M163.94,-179.4C145.55,-169.98 121.17,-157.5 101.15,-147.26"/>
<polygon fill="midnightblue" stroke="midnightblue" points="102.5,-144.02 92,-142.58 99.31,-150.25 102.5,-144.02"/>
</g>
<!-- Node13&#45;&gt;Node3 -->
<g id="edge14" class="edge">
<title>Node13&#45;&gt;Node3</title>
<path fill="none" stroke="midnightblue" d="M128.62,-112.47C178.89,-101.48 247.54,-86.46 291.96,-76.74"/>
<polygon fill="midnightblue" stroke="midnightblue" points="292.85,-80.13 301.87,-74.57 291.36,-73.29 292.85,-80.13"/>
</g>
<!-- Node14 -->
<g id="node14" class="node">
<title>Node14</title>
<g id="a_node14"><a xlink:href="_write_event_receiver_8h.html" target="_top" xlink:title=" ">
<polygon fill="white" stroke="black" points="3.5,-56.5 3.5,-75.5 131.5,-75.5 131.5,-56.5 3.5,-56.5"/>
<text text-anchor="middle" x="67.5" y="-63.5" font-family="Helvetica,sans-Serif" font-size="10.00">net/WriteEventReceiver.h</text>
</a>
</g>
</g>
<!-- Node13&#45;&gt;Node14 -->
<g id="edge15" class="edge">
<title>Node13&#45;&gt;Node14</title>
<path fill="none" stroke="midnightblue" d="M65.21,-112.4C65.61,-104.47 66.12,-94.46 66.55,-85.86"/>
<polygon fill="midnightblue" stroke="midnightblue" points="70.06,-85.82 67.06,-75.66 63.06,-85.47 70.06,-85.82"/>
</g>
<!-- Node14&#45;&gt;Node10 -->
<g id="edge16" class="edge">
<title>Node14&#45;&gt;Node10</title>
<path fill="none" stroke="midnightblue" d="M79.23,-56.32C90.34,-48.11 107.24,-35.6 120.48,-25.81"/>
<polygon fill="midnightblue" stroke="midnightblue" points="122.6,-28.59 128.56,-19.83 118.44,-22.97 122.6,-28.59"/>
</g>
</g>
</svg>
