<?xml version="1.0" encoding="UTF-8" standalone="no"?>
<!DOCTYPE svg PUBLIC "-//W3C//DTD SVG 1.1//EN"
 "http://www.w3.org/Graphics/SVG/1.1/DTD/svg11.dtd">
<!-- Generated by graphviz version 2.43.0 (0)
 -->
<!-- Title: net::socket::stream::tls::ssl_log Pages: 1 -->
<svg width="271pt" height="220pt"
 viewBox="0.00 0.00 271.00 219.50" xmlns="http://www.w3.org/2000/svg" xmlns:xlink="http://www.w3.org/1999/xlink">
<g id="graph0" class="graph" transform="scale(1 1) rotate(0) translate(4 215.5)">
<title>net::socket::stream::tls::ssl_log</title>
<polygon fill="white" stroke="transparent" points="-4,4 -4,-215.5 267,-215.5 267,4 -4,4"/>
<!-- Node1 -->
<g id="node1" class="node">
<title>Node1</title>
<g id="a_node1"><a xlink:title=" ">
<polygon fill="#bfbfbf" stroke="black" points="162,-96 162,-126 263,-126 263,-96 162,-96"/>
<text text-anchor="start" x="170" y="-114" font-family="Helvetica,sans-Serif" font-size="10.00">net::socket::stream</text>
<text text-anchor="middle" x="212.5" y="-103" font-family="Helvetica,sans-Serif" font-size="10.00">::tls::ssl_log</text>
</a>
</g>
</g>
<!-- Node2 -->
<g id="node2" class="node">
<title>Node2</title>
<g id="a_node2"><a xlink:href="classnet_1_1socket_1_1stream_1_1tls_1_1_socket_reader.html#a66094f94e4c20714c159432dac407b1c" target="_top" xlink:title=" ">
<polygon fill="white" stroke="black" points="0,-181 0,-211 126,-211 126,-181 0,-181"/>
<text text-anchor="start" x="8" y="-199" font-family="Helvetica,sans-Serif" font-size="10.00">net::socket::stream</text>
<text text-anchor="middle" x="63" y="-188" font-family="Helvetica,sans-Serif" font-size="10.00">::tls::SocketReader::read</text>
</a>
</g>
</g>
<!-- Node1&#45;&gt;Node2 -->
<g id="edge1" class="edge">
<title>Node1&#45;&gt;Node2</title>
<path fill="none" stroke="midnightblue" d="M184.59,-132.28C168.25,-144.58 146.63,-159.8 126,-171 119.47,-174.55 112.33,-177.88 105.3,-180.89"/>
<polygon fill="midnightblue" stroke="midnightblue" points="186.8,-135 192.62,-126.15 182.55,-129.43 186.8,-135"/>
</g>
<!-- Node3 -->
<g id="node3" class="node">
<title>Node3</title>
<g id="a_node3"><a xlink:href="classnet_1_1socket_1_1stream_1_1tls_1_1_socket_connector.html#a1167b48bfcfe42303fafb5efa61ff4b2" target="_top" xlink:title=" ">
<polygon fill="white" stroke="black" points="5.5,-120.5 5.5,-161.5 120.5,-161.5 120.5,-120.5 5.5,-120.5"/>
<text text-anchor="start" x="13.5" y="-149.5" font-family="Helvetica,sans-Serif" font-size="10.00">net::socket::stream</text>
<text text-anchor="start" x="13.5" y="-138.5" font-family="Helvetica,sans-Serif" font-size="10.00">::tls::SocketConnector</text>
<text text-anchor="middle" x="63" y="-127.5" font-family="Helvetica,sans-Serif" font-size="10.00">::SocketConnector</text>
</a>
</g>
</g>
<!-- Node1&#45;&gt;Node3 -->
<g id="edge2" class="edge">
<title>Node1&#45;&gt;Node3</title>
<path fill="none" stroke="midnightblue" d="M152.13,-123.08C141.7,-125.2 130.87,-127.4 120.52,-129.5"/>
<polygon fill="midnightblue" stroke="midnightblue" points="152.87,-126.5 161.97,-121.07 151.48,-119.64 152.87,-126.5"/>
</g>
<!-- Node4 -->
<g id="node4" class="node">
<title>Node4</title>
<g id="a_node4"><a xlink:href="classnet_1_1socket_1_1stream_1_1tls_1_1_socket_listener.html#a9b48f060a0c611a2536d47c428ee6603" target="_top" xlink:title=" ">
<polygon fill="white" stroke="black" points="11,-60.5 11,-101.5 115,-101.5 115,-60.5 11,-60.5"/>
<text text-anchor="start" x="19" y="-89.5" font-family="Helvetica,sans-Serif" font-size="10.00">net::socket::stream</text>
<text text-anchor="start" x="19" y="-78.5" font-family="Helvetica,sans-Serif" font-size="10.00">::tls::SocketListener</text>
<text text-anchor="middle" x="63" y="-67.5" font-family="Helvetica,sans-Serif" font-size="10.00">::SocketListener</text>
</a>
</g>
</g>
<!-- Node1&#45;&gt;Node4 -->
<g id="edge3" class="edge">
<title>Node1&#45;&gt;Node4</title>
<path fill="none" stroke="midnightblue" d="M151.9,-98.88C139.72,-96.4 127.01,-93.82 115.16,-91.41"/>
<polygon fill="midnightblue" stroke="midnightblue" points="151.48,-102.36 161.97,-100.93 152.87,-95.5 151.48,-102.36"/>
</g>
<!-- Node5 -->
<g id="node5" class="node">
<title>Node5</title>
<g id="a_node5"><a xlink:href="classnet_1_1socket_1_1stream_1_1tls_1_1_socket_writer.html#a704f8cb843067a6670c454d88530cc8f" target="_top" xlink:title=" ">
<polygon fill="white" stroke="black" points="12.5,-0.5 12.5,-41.5 113.5,-41.5 113.5,-0.5 12.5,-0.5"/>
<text text-anchor="start" x="20.5" y="-29.5" font-family="Helvetica,sans-Serif" font-size="10.00">net::socket::stream</text>
<text text-anchor="start" x="20.5" y="-18.5" font-family="Helvetica,sans-Serif" font-size="10.00">::tls::SocketWriter</text>
<text text-anchor="middle" x="63" y="-7.5" font-family="Helvetica,sans-Serif" font-size="10.00">::write</text>
</a>
</g>
</g>
<!-- Node1&#45;&gt;Node5 -->
<g id="edge4" class="edge">
<title>Node1&#45;&gt;Node5</title>
<path fill="none" stroke="midnightblue" d="M183.66,-89.74C167.3,-77.7 145.97,-62.74 126,-51 120.54,-47.79 114.68,-44.62 108.82,-41.62"/>
<polygon fill="midnightblue" stroke="midnightblue" points="181.61,-92.59 191.73,-95.75 185.79,-86.97 181.61,-92.59"/>
</g>
</g>
</svg>
