<?xml version="1.0" encoding="UTF-8" standalone="no"?>
<!DOCTYPE svg PUBLIC "-//W3C//DTD SVG 1.1//EN"
 "http://www.w3.org/Graphics/SVG/1.1/DTD/svg11.dtd">
<!-- Generated by graphviz version 2.43.0 (0)
 -->
<!-- Title: net::socket::stream::tls::ssl_init_ctx Pages: 1 -->
<svg width="267pt" height="88pt"
 viewBox="0.00 0.00 267.00 88.00" xmlns="http://www.w3.org/2000/svg" xmlns:xlink="http://www.w3.org/1999/xlink">
<g id="graph0" class="graph" transform="scale(1 1) rotate(0) translate(4 84)">
<title>net::socket::stream::tls::ssl_init_ctx</title>
<polygon fill="white" stroke="transparent" points="-4,4 -4,-84 263,-84 263,4 -4,4"/>
<!-- Node1 -->
<g id="node1" class="node">
<title>Node1</title>
<g id="a_node1"><a xlink:title=" ">
<polygon fill="#bfbfbf" stroke="black" points="0,-24.5 0,-54.5 101,-54.5 101,-24.5 0,-24.5"/>
<text text-anchor="start" x="8" y="-42.5" font-family="Helvetica,sans-Serif" font-size="10.00">net::socket::stream</text>
<text text-anchor="middle" x="50.5" y="-31.5" font-family="Helvetica,sans-Serif" font-size="10.00">::tls::ssl_init_ctx</text>
</a>
</g>
</g>
<!-- Node2 -->
<g id="node2" class="node">
<title>Node2</title>
<g id="a_node2"><a xlink:href="namespacenet_1_1socket_1_1stream_1_1tls.html#a606b72ecd09ae6baa4e53fd8f980dc27" target="_top" xlink:title=" ">
<polygon fill="white" stroke="black" points="137,-49.5 137,-79.5 259,-79.5 259,-49.5 137,-49.5"/>
<text text-anchor="start" x="145" y="-67.5" font-family="Helvetica,sans-Serif" font-size="10.00">net::socket::stream</text>
<text text-anchor="middle" x="198" y="-56.5" font-family="Helvetica,sans-Serif" font-size="10.00">::tls::password_callback</text>
</a>
</g>
</g>
<!-- Node1&#45;&gt;Node2 -->
<g id="edge1" class="edge">
<title>Node1&#45;&gt;Node2</title>
<path fill="none" stroke="midnightblue" d="M101.17,-48.03C109.45,-49.46 118.18,-50.96 126.86,-52.45"/>
<polygon fill="midnightblue" stroke="midnightblue" points="126.55,-55.95 137,-54.19 127.73,-49.05 126.55,-55.95"/>
</g>
<!-- Node3 -->
<g id="node3" class="node">
<title>Node3</title>
<g id="a_node3"><a xlink:href="namespacenet_1_1socket_1_1stream_1_1tls.html#afa1faf40bf182cbbe793cfad48c93ce0" target="_top" xlink:title=" ">
<polygon fill="white" stroke="black" points="146,-0.5 146,-30.5 250,-30.5 250,-0.5 146,-0.5"/>
<text text-anchor="start" x="154" y="-18.5" font-family="Helvetica,sans-Serif" font-size="10.00">net::socket::stream</text>
<text text-anchor="middle" x="198" y="-7.5" font-family="Helvetica,sans-Serif" font-size="10.00">::tls::verify_callback</text>
</a>
</g>
</g>
<!-- Node1&#45;&gt;Node3 -->
<g id="edge2" class="edge">
<title>Node1&#45;&gt;Node3</title>
<path fill="none" stroke="midnightblue" d="M101.17,-31.31C112.24,-29.48 124.12,-27.52 135.61,-25.63"/>
<polygon fill="midnightblue" stroke="midnightblue" points="136.28,-29.06 145.58,-23.98 135.14,-22.16 136.28,-29.06"/>
</g>
</g>
</svg>
