<?xml version="1.0" encoding="UTF-8" standalone="no"?>
<!DOCTYPE svg PUBLIC "-//W3C//DTD SVG 1.1//EN"
 "http://www.w3.org/Graphics/SVG/1.1/DTD/svg11.dtd">
<!-- Generated by graphviz version 2.43.0 (0)
 -->
<!-- Title: net::system::gettimeofday Pages: 1 -->
<svg width="1059pt" height="159pt"
 viewBox="0.00 0.00 1059.00 158.50" xmlns="http://www.w3.org/2000/svg" xmlns:xlink="http://www.w3.org/1999/xlink">
<g id="graph0" class="graph" transform="scale(1 1) rotate(0) translate(4 154.5)">
<title>net::system::gettimeofday</title>
<polygon fill="white" stroke="transparent" points="-4,4 -4,-154.5 1055,-154.5 1055,4 -4,4"/>
<!-- Node1 -->
<g id="node1" class="node">
<title>Node1</title>
<g id="a_node1"><a xlink:title=" ">
<polygon fill="#bfbfbf" stroke="black" points="920,-55 920,-74 1051,-74 1051,-55 920,-55"/>
<text text-anchor="middle" x="985.5" y="-62" font-family="Helvetica,sans-Serif" font-size="10.00">net::system::gettimeofday</text>
</a>
</g>
</g>
<!-- Node2 -->
<g id="node2" class="node">
<title>Node2</title>
<g id="a_node2"><a xlink:href="classnet_1_1_timer_event_dispatcher.html#aeb3ab46e344b2a94c6348b58c747d9c8" target="_top" xlink:title=" ">
<polygon fill="white" stroke="black" points="750,-98.5 750,-128.5 884,-128.5 884,-98.5 750,-98.5"/>
<text text-anchor="start" x="758" y="-116.5" font-family="Helvetica,sans-Serif" font-size="10.00">net::TimerEventDispatcher</text>
<text text-anchor="middle" x="817" y="-105.5" font-family="Helvetica,sans-Serif" font-size="10.00">::dispatch</text>
</a>
</g>
</g>
<!-- Node1&#45;&gt;Node2 -->
<g id="edge1" class="edge">
<title>Node1&#45;&gt;Node2</title>
<path fill="none" stroke="midnightblue" d="M942.18,-76.95C919.94,-83.5 892.51,-91.57 869.09,-98.46"/>
<polygon fill="midnightblue" stroke="midnightblue" points="943.4,-80.24 952,-74.06 941.42,-73.53 943.4,-80.24"/>
</g>
<!-- Node9 -->
<g id="node9" class="node">
<title>Node9</title>
<g id="a_node9"><a xlink:href="classnet_1_1_timer_event_dispatcher.html#abe13976ac74b218783f77a80f051baeb" target="_top" xlink:title=" ">
<polygon fill="white" stroke="black" points="750,-49.5 750,-79.5 884,-79.5 884,-49.5 750,-49.5"/>
<text text-anchor="start" x="758" y="-67.5" font-family="Helvetica,sans-Serif" font-size="10.00">net::TimerEventDispatcher</text>
<text text-anchor="middle" x="817" y="-56.5" font-family="Helvetica,sans-Serif" font-size="10.00">::getNextTimeout</text>
</a>
</g>
</g>
<!-- Node1&#45;&gt;Node9 -->
<g id="edge8" class="edge">
<title>Node1&#45;&gt;Node9</title>
<path fill="none" stroke="midnightblue" d="M909.41,-64.5C900.95,-64.5 892.38,-64.5 884.04,-64.5"/>
<polygon fill="midnightblue" stroke="midnightblue" points="909.65,-68 919.65,-64.5 909.65,-61 909.65,-68"/>
</g>
<!-- Node14 -->
<g id="node14" class="node">
<title>Node14</title>
<g id="a_node14"><a xlink:href="classnet_1_1timer_1_1_timer.html#ab63bd86695b2a111bf7c87348806601a" target="_top" xlink:title=" ">
<polygon fill="white" stroke="black" points="769.5,-0.5 769.5,-30.5 864.5,-30.5 864.5,-0.5 769.5,-0.5"/>
<text text-anchor="start" x="777.5" y="-18.5" font-family="Helvetica,sans-Serif" font-size="10.00">net::timer::Timer::</text>
<text text-anchor="middle" x="817" y="-7.5" font-family="Helvetica,sans-Serif" font-size="10.00">Timer</text>
</a>
</g>
</g>
<!-- Node1&#45;&gt;Node14 -->
<g id="edge15" class="edge">
<title>Node1&#45;&gt;Node14</title>
<path fill="none" stroke="midnightblue" d="M942.24,-52.06C918.55,-45.09 888.95,-36.38 864.59,-29.21"/>
<polygon fill="midnightblue" stroke="midnightblue" points="941.42,-55.47 952,-54.94 943.4,-48.76 941.42,-55.47"/>
</g>
<!-- Node3 -->
<g id="node3" class="node">
<title>Node3</title>
<g id="a_node3"><a xlink:href="classnet_1_1_event_loop.html#a7bbd5db01691a450f2544c3884ccf438" target="_top" xlink:title=" ">
<polygon fill="white" stroke="black" points="592,-101 592,-120 702,-120 702,-101 592,-101"/>
<text text-anchor="middle" x="647" y="-108" font-family="Helvetica,sans-Serif" font-size="10.00">net::EventLoop::_tick</text>
</a>
</g>
</g>
<!-- Node2&#45;&gt;Node3 -->
<g id="edge2" class="edge">
<title>Node2&#45;&gt;Node3</title>
<path fill="none" stroke="midnightblue" d="M739.53,-112.13C726.87,-111.91 713.99,-111.68 702.04,-111.46"/>
<polygon fill="midnightblue" stroke="midnightblue" points="739.54,-115.64 749.6,-112.31 739.67,-108.64 739.54,-115.64"/>
</g>
<!-- Node4 -->
<g id="node4" class="node">
<title>Node4</title>
<g id="a_node4"><a xlink:href="classnet_1_1_event_loop.html#a678103423a39d2cbb4d1beab8607075e" target="_top" xlink:title=" ">
<polygon fill="white" stroke="black" points="290,-93 290,-112 398,-112 398,-93 290,-93"/>
<text text-anchor="middle" x="344" y="-100" font-family="Helvetica,sans-Serif" font-size="10.00">net::EventLoop::start</text>
</a>
</g>
</g>
<!-- Node3&#45;&gt;Node4 -->
<g id="edge3" class="edge">
<title>Node3&#45;&gt;Node4</title>
<path fill="none" stroke="midnightblue" d="M581.57,-108.79C526.9,-107.33 449.42,-105.28 398.22,-103.91"/>
<polygon fill="midnightblue" stroke="midnightblue" points="581.75,-112.29 591.84,-109.06 581.94,-105.3 581.75,-112.29"/>
</g>
<!-- Node7 -->
<g id="node7" class="node">
<title>Node7</title>
<g id="a_node7"><a xlink:href="classnet_1_1_event_loop.html#a525c3a2362eef1b583179a8d07969a44" target="_top" xlink:title=" ">
<polygon fill="white" stroke="black" points="437,-131 437,-150 541,-150 541,-131 437,-131"/>
<text text-anchor="middle" x="489" y="-138" font-family="Helvetica,sans-Serif" font-size="10.00">net::EventLoop::tick</text>
</a>
</g>
</g>
<!-- Node3&#45;&gt;Node7 -->
<g id="edge6" class="edge">
<title>Node3&#45;&gt;Node7</title>
<path fill="none" stroke="midnightblue" d="M586.25,-121.99C570.84,-124.95 554.42,-128.11 539.58,-130.96"/>
<polygon fill="midnightblue" stroke="midnightblue" points="587.05,-125.4 596.21,-120.07 585.73,-118.53 587.05,-125.4"/>
</g>
<!-- Node5 -->
<g id="node5" class="node">
<title>Node5</title>
<g id="a_node5"><a xlink:href="classnet_1_1_s_node_c.html#ae22fabf6202cdc8348686f4219cebf7b" target="_top" xlink:title=" ">
<polygon fill="white" stroke="black" points="155,-93 155,-112 254,-112 254,-93 155,-93"/>
<text text-anchor="middle" x="204.5" y="-100" font-family="Helvetica,sans-Serif" font-size="10.00">net::SNodeC::start</text>
</a>
</g>
</g>
<!-- Node4&#45;&gt;Node5 -->
<g id="edge4" class="edge">
<title>Node4&#45;&gt;Node5</title>
<path fill="none" stroke="midnightblue" d="M279.77,-102.5C271.12,-102.5 262.35,-102.5 254.02,-102.5"/>
<polygon fill="midnightblue" stroke="midnightblue" points="279.84,-106 289.84,-102.5 279.84,-99 279.84,-106"/>
</g>
<!-- Node6 -->
<g id="node6" class="node">
<title>Node6</title>
<g id="a_node6"><a xlink:href="classexpress_1_1_web_app.html#a85d9fab4fae0881f8484e07c58f3157a" target="_top" xlink:title=" ">
<polygon fill="white" stroke="black" points="0,-93 0,-112 119,-112 119,-93 0,-93"/>
<text text-anchor="middle" x="59.5" y="-100" font-family="Helvetica,sans-Serif" font-size="10.00">express::WebApp::start</text>
</a>
</g>
</g>
<!-- Node5&#45;&gt;Node6 -->
<g id="edge5" class="edge">
<title>Node5&#45;&gt;Node6</title>
<path fill="none" stroke="midnightblue" d="M144.61,-102.5C136.23,-102.5 127.6,-102.5 119.22,-102.5"/>
<polygon fill="midnightblue" stroke="midnightblue" points="144.69,-106 154.69,-102.5 144.69,-99 144.69,-106"/>
</g>
<!-- Node8 -->
<g id="node8" class="node">
<title>Node8</title>
<g id="a_node8"><a xlink:href="classnet_1_1_s_node_c.html#a3dfafe98455faea83a2aac87c2184a15" target="_top" xlink:title=" ">
<polygon fill="white" stroke="black" points="296.5,-131 296.5,-150 391.5,-150 391.5,-131 296.5,-131"/>
<text text-anchor="middle" x="344" y="-138" font-family="Helvetica,sans-Serif" font-size="10.00">net::SNodeC::tick</text>
</a>
</g>
</g>
<!-- Node7&#45;&gt;Node8 -->
<g id="edge7" class="edge">
<title>Node7&#45;&gt;Node8</title>
<path fill="none" stroke="midnightblue" d="M426.59,-140.5C414.86,-140.5 402.76,-140.5 391.58,-140.5"/>
<polygon fill="midnightblue" stroke="midnightblue" points="426.78,-144 436.78,-140.5 426.78,-137 426.78,-144"/>
</g>
<!-- Node9&#45;&gt;Node3 -->
<g id="edge9" class="edge">
<title>Node9&#45;&gt;Node3</title>
<path fill="none" stroke="midnightblue" d="M751.17,-82.25C727.89,-88.62 702.55,-95.56 682.8,-100.97"/>
<polygon fill="midnightblue" stroke="midnightblue" points="752.27,-85.58 760.99,-79.56 750.42,-78.83 752.27,-85.58"/>
</g>
<!-- Node10 -->
<g id="node10" class="node">
<title>Node10</title>
<g id="a_node10"><a xlink:href="classnet_1_1_timer_event_dispatcher.html#ab057c0a06962fe33146a1f8df9ac98b3" target="_top" xlink:title=" ">
<polygon fill="white" stroke="black" points="580,-49.5 580,-79.5 714,-79.5 714,-49.5 580,-49.5"/>
<text text-anchor="start" x="588" y="-67.5" font-family="Helvetica,sans-Serif" font-size="10.00">net::TimerEventDispatcher</text>
<text text-anchor="middle" x="647" y="-56.5" font-family="Helvetica,sans-Serif" font-size="10.00">::cancelAll</text>
</a>
</g>
</g>
<!-- Node9&#45;&gt;Node10 -->
<g id="edge10" class="edge">
<title>Node9&#45;&gt;Node10</title>
<path fill="none" stroke="midnightblue" d="M739.41,-64.5C730.99,-64.5 722.47,-64.5 714.19,-64.5"/>
<polygon fill="midnightblue" stroke="midnightblue" points="739.6,-68 749.6,-64.5 739.6,-61 739.6,-68"/>
</g>
<!-- Node11 -->
<g id="node11" class="node">
<title>Node11</title>
<g id="a_node11"><a xlink:href="classnet_1_1_event_loop.html#ae469a183b35db70dbcf7ef4a7baa3aa5" target="_top" xlink:title=" ">
<polygon fill="white" stroke="black" points="434,-55 434,-74 544,-74 544,-55 434,-55"/>
<text text-anchor="middle" x="489" y="-62" font-family="Helvetica,sans-Serif" font-size="10.00">net::EventLoop::_free</text>
</a>
</g>
</g>
<!-- Node10&#45;&gt;Node11 -->
<g id="edge11" class="edge">
<title>Node10&#45;&gt;Node11</title>
<path fill="none" stroke="midnightblue" d="M569.83,-64.5C561.27,-64.5 552.68,-64.5 544.47,-64.5"/>
<polygon fill="midnightblue" stroke="midnightblue" points="569.84,-68 579.84,-64.5 569.84,-61 569.84,-68"/>
</g>
<!-- Node11&#45;&gt;Node4 -->
<g id="edge14" class="edge">
<title>Node11&#45;&gt;Node4</title>
<path fill="none" stroke="midnightblue" d="M442.19,-76.67C422.41,-81.93 399.62,-87.99 381.07,-92.91"/>
<polygon fill="midnightblue" stroke="midnightblue" points="443.15,-80.04 451.92,-74.09 441.35,-73.27 443.15,-80.04"/>
</g>
<!-- Node12 -->
<g id="node12" class="node">
<title>Node12</title>
<g id="a_node12"><a xlink:href="classnet_1_1_event_loop.html#ad355fe6d4e420169bd5307671ce27daa" target="_top" xlink:title=" ">
<polygon fill="white" stroke="black" points="291.5,-55 291.5,-74 396.5,-74 396.5,-55 291.5,-55"/>
<text text-anchor="middle" x="344" y="-62" font-family="Helvetica,sans-Serif" font-size="10.00">net::EventLoop::free</text>
</a>
</g>
</g>
<!-- Node11&#45;&gt;Node12 -->
<g id="edge12" class="edge">
<title>Node11&#45;&gt;Node12</title>
<path fill="none" stroke="midnightblue" d="M423.82,-64.5C414.76,-64.5 405.55,-64.5 396.77,-64.5"/>
<polygon fill="midnightblue" stroke="midnightblue" points="423.94,-68 433.94,-64.5 423.94,-61 423.94,-68"/>
</g>
<!-- Node13 -->
<g id="node13" class="node">
<title>Node13</title>
<g id="a_node13"><a xlink:href="classnet_1_1_s_node_c.html#ac2f08a52a258d751f42e90c5dd57c7bb" target="_top" xlink:title=" ">
<polygon fill="white" stroke="black" points="156.5,-55 156.5,-74 252.5,-74 252.5,-55 156.5,-55"/>
<text text-anchor="middle" x="204.5" y="-62" font-family="Helvetica,sans-Serif" font-size="10.00">net::SNodeC::free</text>
</a>
</g>
</g>
<!-- Node12&#45;&gt;Node13 -->
<g id="edge13" class="edge">
<title>Node12&#45;&gt;Node13</title>
<path fill="none" stroke="midnightblue" d="M281.19,-64.5C271.67,-64.5 261.98,-64.5 252.84,-64.5"/>
<polygon fill="midnightblue" stroke="midnightblue" points="281.41,-68 291.41,-64.5 281.41,-61 281.41,-68"/>
</g>
</g>
</svg>
