<?xml version="1.0" encoding="UTF-8" standalone="no"?>
<!DOCTYPE svg PUBLIC "-//W3C//DTD SVG 1.1//EN"
 "http://www.w3.org/Graphics/SVG/1.1/DTD/svg11.dtd">
<!-- Generated by graphviz version 2.43.0 (0)
 -->
<!-- Title: web/websocket/server/SubProtocolFactory.h Pages: 1 -->
<svg width="660pt" height="173pt"
 viewBox="0.00 0.00 660.00 173.00" xmlns="http://www.w3.org/2000/svg" xmlns:xlink="http://www.w3.org/1999/xlink">
<g id="graph0" class="graph" transform="scale(1 1) rotate(0) translate(4 169)">
<title>web/websocket/server/SubProtocolFactory.h</title>
<polygon fill="white" stroke="transparent" points="-4,4 -4,-169 656,-169 656,4 -4,4"/>
<!-- Node1 -->
<g id="node1" class="node">
<title>Node1</title>
<g id="a_node1"><a xlink:title=" ">
<polygon fill="#bfbfbf" stroke="black" points="274.5,-134.5 274.5,-164.5 389.5,-164.5 389.5,-134.5 274.5,-134.5"/>
<text text-anchor="start" x="282.5" y="-152.5" font-family="Helvetica,sans-Serif" font-size="10.00">web/websocket/server</text>
<text text-anchor="middle" x="332" y="-141.5" font-family="Helvetica,sans-Serif" font-size="10.00">/SubProtocolFactory.h</text>
</a>
</g>
</g>
<!-- Node2 -->
<g id="node2" class="node">
<title>Node2</title>
<g id="a_node2"><a xlink:href="websocket_2server_2_socket_context_upgrade_factory_8cpp.html" target="_top" xlink:title=" ">
<polygon fill="white" stroke="black" points="0,-67.5 0,-97.5 172,-97.5 172,-67.5 0,-67.5"/>
<text text-anchor="start" x="8" y="-85.5" font-family="Helvetica,sans-Serif" font-size="10.00">web/websocket/server</text>
<text text-anchor="middle" x="86" y="-74.5" font-family="Helvetica,sans-Serif" font-size="10.00">/SocketContextUpgradeFactory.cpp</text>
</a>
</g>
</g>
<!-- Node1&#45;&gt;Node2 -->
<g id="edge1" class="edge">
<title>Node1&#45;&gt;Node2</title>
<path fill="none" stroke="midnightblue" d="M269.24,-131.92C229.1,-121.31 177.58,-107.7 139.4,-97.61"/>
<polygon fill="midnightblue" stroke="midnightblue" points="268.36,-135.31 278.92,-134.48 270.15,-128.54 268.36,-135.31"/>
</g>
<!-- Node3 -->
<g id="node3" class="node">
<title>Node3</title>
<g id="a_node3"><a xlink:href="server_2_sub_protocol_factory_8cpp.html" target="_top" xlink:title=" ">
<polygon fill="white" stroke="black" points="190.5,-67.5 190.5,-97.5 313.5,-97.5 313.5,-67.5 190.5,-67.5"/>
<text text-anchor="start" x="198.5" y="-85.5" font-family="Helvetica,sans-Serif" font-size="10.00">web/websocket/server</text>
<text text-anchor="middle" x="252" y="-74.5" font-family="Helvetica,sans-Serif" font-size="10.00">/SubProtocolFactory.cpp</text>
</a>
</g>
</g>
<!-- Node1&#45;&gt;Node3 -->
<g id="edge2" class="edge">
<title>Node1&#45;&gt;Node3</title>
<path fill="none" stroke="midnightblue" d="M306.63,-127.88C294.47,-118.01 280.22,-106.43 269.32,-97.58"/>
<polygon fill="midnightblue" stroke="midnightblue" points="304.67,-130.81 314.64,-134.4 309.09,-125.37 304.67,-130.81"/>
</g>
<!-- Node4 -->
<g id="node4" class="node">
<title>Node4</title>
<g id="a_node4"><a xlink:href="server_2_sub_protocol_factory_selector_8cpp.html" target="_top" xlink:title=" ">
<polygon fill="white" stroke="black" points="332,-67.5 332,-97.5 492,-97.5 492,-67.5 332,-67.5"/>
<text text-anchor="start" x="340" y="-85.5" font-family="Helvetica,sans-Serif" font-size="10.00">web/websocket/server</text>
<text text-anchor="middle" x="412" y="-74.5" font-family="Helvetica,sans-Serif" font-size="10.00">/SubProtocolFactorySelector.cpp</text>
</a>
</g>
</g>
<!-- Node1&#45;&gt;Node4 -->
<g id="edge3" class="edge">
<title>Node1&#45;&gt;Node4</title>
<path fill="none" stroke="midnightblue" d="M357.37,-127.88C369.53,-118.01 383.78,-106.43 394.68,-97.58"/>
<polygon fill="midnightblue" stroke="midnightblue" points="354.91,-125.37 349.36,-134.4 359.33,-130.81 354.91,-125.37"/>
</g>
<!-- Node5 -->
<g id="node5" class="node">
<title>Node5</title>
<g id="a_node5"><a xlink:href="server_2echo_2_echo_factory_8h.html" target="_top" xlink:title=" ">
<polygon fill="white" stroke="black" points="510,-67.5 510,-97.5 648,-97.5 648,-67.5 510,-67.5"/>
<text text-anchor="start" x="518" y="-85.5" font-family="Helvetica,sans-Serif" font-size="10.00">web/websocket/subprotocol</text>
<text text-anchor="middle" x="579" y="-74.5" font-family="Helvetica,sans-Serif" font-size="10.00">/server/echo/EchoFactory.h</text>
</a>
</g>
</g>
<!-- Node1&#45;&gt;Node5 -->
<g id="edge4" class="edge">
<title>Node1&#45;&gt;Node5</title>
<path fill="none" stroke="midnightblue" d="M395.01,-131.92C435.32,-121.31 487.04,-107.7 525.38,-97.61"/>
<polygon fill="midnightblue" stroke="midnightblue" points="394.07,-128.55 385.29,-134.48 395.85,-135.32 394.07,-128.55"/>
</g>
<!-- Node6 -->
<g id="node6" class="node">
<title>Node6</title>
<g id="a_node6"><a xlink:href="server_2echo_2_echo_factory_8cpp.html" target="_top" xlink:title=" ">
<polygon fill="white" stroke="black" points="506,-0.5 506,-30.5 652,-30.5 652,-0.5 506,-0.5"/>
<text text-anchor="start" x="514" y="-18.5" font-family="Helvetica,sans-Serif" font-size="10.00">web/websocket/subprotocol</text>
<text text-anchor="middle" x="579" y="-7.5" font-family="Helvetica,sans-Serif" font-size="10.00">/server/echo/EchoFactory.cpp</text>
</a>
</g>
</g>
<!-- Node5&#45;&gt;Node6 -->
<g id="edge5" class="edge">
<title>Node5&#45;&gt;Node6</title>
<path fill="none" stroke="midnightblue" d="M579,-57.11C579,-48.15 579,-38.32 579,-30.58"/>
<polygon fill="midnightblue" stroke="midnightblue" points="575.5,-57.4 579,-67.4 582.5,-57.4 575.5,-57.4"/>
</g>
</g>
</svg>
