<?xml version="1.0" encoding="UTF-8" standalone="no"?>
<!DOCTYPE svg PUBLIC "-//W3C//DTD SVG 1.1//EN"
 "http://www.w3.org/Graphics/SVG/1.1/DTD/svg11.dtd">
<!-- Generated by graphviz version 2.43.0 (0)
 -->
<!-- Title: web/http/server/SocketContextUpgradeFactorySelector.h Pages: 1 -->
<svg width="688pt" height="285pt"
 viewBox="0.00 0.00 688.00 285.00" xmlns="http://www.w3.org/2000/svg" xmlns:xlink="http://www.w3.org/1999/xlink">
<g id="graph0" class="graph" transform="scale(1 1) rotate(0) translate(4 281)">
<title>web/http/server/SocketContextUpgradeFactorySelector.h</title>
<polygon fill="white" stroke="transparent" points="-4,4 -4,-281 684,-281 684,4 -4,4"/>
<!-- Node1 -->
<g id="node1" class="node">
<title>Node1</title>
<g id="a_node1"><a xlink:title=" ">
<polygon fill="#bfbfbf" stroke="black" points="253,-246.5 253,-276.5 405,-276.5 405,-246.5 253,-246.5"/>
<text text-anchor="start" x="261" y="-264.5" font-family="Helvetica,sans-Serif" font-size="10.00">web/http/server/SocketContext</text>
<text text-anchor="middle" x="329" y="-253.5" font-family="Helvetica,sans-Serif" font-size="10.00">UpgradeFactorySelector.h</text>
</a>
</g>
</g>
<!-- Node2 -->
<g id="node2" class="node">
<title>Node2</title>
<g id="a_node2"><a xlink:href="web_2http_2server_2_response_8cpp.html" target="_top" xlink:title=" ">
<polygon fill="white" stroke="black" points="0,-185 0,-204 150,-204 150,-185 0,-185"/>
<text text-anchor="middle" x="75" y="-192" font-family="Helvetica,sans-Serif" font-size="10.00">web/http/server/Response.cpp</text>
</a>
</g>
</g>
<!-- Node1&#45;&gt;Node2 -->
<g id="edge1" class="edge">
<title>Node1&#45;&gt;Node2</title>
<path fill="none" stroke="midnightblue" d="M264.48,-243.99C214.71,-231.25 147.87,-214.15 108.33,-204.03"/>
<polygon fill="midnightblue" stroke="midnightblue" points="263.64,-247.39 274.2,-246.48 265.38,-240.61 263.64,-247.39"/>
</g>
<!-- Node3 -->
<g id="node3" class="node">
<title>Node3</title>
<g id="a_node3"><a xlink:href="web_2http_2server_2_socket_context_factory_8h.html" target="_top" xlink:title=" ">
<polygon fill="white" stroke="black" points="168,-179.5 168,-209.5 320,-209.5 320,-179.5 168,-179.5"/>
<text text-anchor="start" x="176" y="-197.5" font-family="Helvetica,sans-Serif" font-size="10.00">web/http/server/SocketContext</text>
<text text-anchor="middle" x="244" y="-186.5" font-family="Helvetica,sans-Serif" font-size="10.00">Factory.h</text>
</a>
</g>
</g>
<!-- Node1&#45;&gt;Node3 -->
<g id="edge2" class="edge">
<title>Node1&#45;&gt;Node3</title>
<path fill="none" stroke="midnightblue" d="M302.41,-240.17C289.41,-230.23 274.1,-218.51 262.41,-209.58"/>
<polygon fill="midnightblue" stroke="midnightblue" points="300.49,-243.1 310.56,-246.4 304.74,-237.54 300.49,-243.1"/>
</g>
<!-- Node9 -->
<g id="node9" class="node">
<title>Node9</title>
<g id="a_node9"><a xlink:href="server_2_socket_context_upgrade_factory_selector_8cpp.html" target="_top" xlink:title=" ">
<polygon fill="white" stroke="black" points="338,-179.5 338,-209.5 490,-209.5 490,-179.5 338,-179.5"/>
<text text-anchor="start" x="346" y="-197.5" font-family="Helvetica,sans-Serif" font-size="10.00">web/http/server/SocketContext</text>
<text text-anchor="middle" x="414" y="-186.5" font-family="Helvetica,sans-Serif" font-size="10.00">UpgradeFactorySelector.cpp</text>
</a>
</g>
</g>
<!-- Node1&#45;&gt;Node9 -->
<g id="edge8" class="edge">
<title>Node1&#45;&gt;Node9</title>
<path fill="none" stroke="midnightblue" d="M355.59,-240.17C368.59,-230.23 383.9,-218.51 395.59,-209.58"/>
<polygon fill="midnightblue" stroke="midnightblue" points="353.26,-237.54 347.44,-246.4 357.51,-243.1 353.26,-237.54"/>
</g>
<!-- Node10 -->
<g id="node10" class="node">
<title>Node10</title>
<g id="a_node10"><a xlink:href="websocket_2server_2_socket_context_upgrade_factory_8cpp.html" target="_top" xlink:title=" ">
<polygon fill="white" stroke="black" points="508,-179.5 508,-209.5 680,-209.5 680,-179.5 508,-179.5"/>
<text text-anchor="start" x="516" y="-197.5" font-family="Helvetica,sans-Serif" font-size="10.00">web/websocket/server</text>
<text text-anchor="middle" x="594" y="-186.5" font-family="Helvetica,sans-Serif" font-size="10.00">/SocketContextUpgradeFactory.cpp</text>
</a>
</g>
</g>
<!-- Node1&#45;&gt;Node10 -->
<g id="edge9" class="edge">
<title>Node1&#45;&gt;Node10</title>
<path fill="none" stroke="midnightblue" d="M396.06,-244.05C439.38,-233.43 495.17,-219.74 536.47,-209.61"/>
<polygon fill="midnightblue" stroke="midnightblue" points="395.05,-240.69 386.17,-246.48 396.72,-247.49 395.05,-240.69"/>
</g>
<!-- Node4 -->
<g id="node4" class="node">
<title>Node4</title>
<g id="a_node4"><a xlink:href="_server_8h.html" target="_top" xlink:title=" ">
<polygon fill="white" stroke="black" points="182.5,-123.5 182.5,-142.5 305.5,-142.5 305.5,-123.5 182.5,-123.5"/>
<text text-anchor="middle" x="244" y="-130.5" font-family="Helvetica,sans-Serif" font-size="10.00">web/http/server/Server.h</text>
</a>
</g>
</g>
<!-- Node3&#45;&gt;Node4 -->
<g id="edge3" class="edge">
<title>Node3&#45;&gt;Node4</title>
<path fill="none" stroke="midnightblue" d="M244,-169.29C244,-159.86 244,-149.65 244,-142.66"/>
<polygon fill="midnightblue" stroke="midnightblue" points="240.5,-169.4 244,-179.4 247.5,-169.4 240.5,-169.4"/>
</g>
<!-- Node5 -->
<g id="node5" class="node">
<title>Node5</title>
<g id="a_node5"><a xlink:href="legacy_2_server_8h.html" target="_top" xlink:title=" ">
<polygon fill="white" stroke="black" points="120,-56.5 120,-86.5 236,-86.5 236,-56.5 120,-56.5"/>
<text text-anchor="start" x="128" y="-74.5" font-family="Helvetica,sans-Serif" font-size="10.00">web/http/server/legacy</text>
<text text-anchor="middle" x="178" y="-63.5" font-family="Helvetica,sans-Serif" font-size="10.00">/Server.h</text>
</a>
</g>
</g>
<!-- Node4&#45;&gt;Node5 -->
<g id="edge4" class="edge">
<title>Node4&#45;&gt;Node5</title>
<path fill="none" stroke="midnightblue" d="M226.97,-116.65C216.65,-107.35 203.59,-95.57 193.55,-86.52"/>
<polygon fill="midnightblue" stroke="midnightblue" points="224.77,-119.38 234.54,-123.48 229.46,-114.18 224.77,-119.38"/>
</g>
<!-- Node7 -->
<g id="node7" class="node">
<title>Node7</title>
<g id="a_node7"><a xlink:href="tls_2_server_8h.html" target="_top" xlink:title=" ">
<polygon fill="white" stroke="black" points="261,-56.5 261,-86.5 359,-86.5 359,-56.5 261,-56.5"/>
<text text-anchor="start" x="269" y="-74.5" font-family="Helvetica,sans-Serif" font-size="10.00">web/http/server/tls</text>
<text text-anchor="middle" x="310" y="-63.5" font-family="Helvetica,sans-Serif" font-size="10.00">/Server.h</text>
</a>
</g>
</g>
<!-- Node4&#45;&gt;Node7 -->
<g id="edge6" class="edge">
<title>Node4&#45;&gt;Node7</title>
<path fill="none" stroke="midnightblue" d="M261.03,-116.65C271.35,-107.35 284.41,-95.57 294.45,-86.52"/>
<polygon fill="midnightblue" stroke="midnightblue" points="258.54,-114.18 253.46,-123.48 263.23,-119.38 258.54,-114.18"/>
</g>
<!-- Node6 -->
<g id="node6" class="node">
<title>Node6</title>
<g id="a_node6"><a xlink:href="legacy_2_web_app_8h.html" target="_top" xlink:title=" ">
<polygon fill="white" stroke="black" points="108.5,-0.5 108.5,-19.5 239.5,-19.5 239.5,-0.5 108.5,-0.5"/>
<text text-anchor="middle" x="174" y="-7.5" font-family="Helvetica,sans-Serif" font-size="10.00">express/legacy/WebApp.h</text>
</a>
</g>
</g>
<!-- Node5&#45;&gt;Node6 -->
<g id="edge5" class="edge">
<title>Node5&#45;&gt;Node6</title>
<path fill="none" stroke="midnightblue" d="M176.37,-46.29C175.74,-36.86 175.05,-26.65 174.58,-19.66"/>
<polygon fill="midnightblue" stroke="midnightblue" points="172.89,-46.66 177.05,-56.4 179.87,-46.19 172.89,-46.66"/>
</g>
<!-- Node8 -->
<g id="node8" class="node">
<title>Node8</title>
<g id="a_node8"><a xlink:href="tls_2_web_app_8h.html" target="_top" xlink:title=" ">
<polygon fill="white" stroke="black" points="257.5,-0.5 257.5,-19.5 370.5,-19.5 370.5,-0.5 257.5,-0.5"/>
<text text-anchor="middle" x="314" y="-7.5" font-family="Helvetica,sans-Serif" font-size="10.00">express/tls/WebApp.h</text>
</a>
</g>
</g>
<!-- Node7&#45;&gt;Node8 -->
<g id="edge7" class="edge">
<title>Node7&#45;&gt;Node8</title>
<path fill="none" stroke="midnightblue" d="M311.63,-46.29C312.26,-36.86 312.95,-26.65 313.42,-19.66"/>
<polygon fill="midnightblue" stroke="midnightblue" points="308.13,-46.19 310.95,-56.4 315.11,-46.66 308.13,-46.19"/>
</g>
</g>
</svg>
