<?xml version="1.0" encoding="UTF-8" standalone="no"?>
<!DOCTYPE svg PUBLIC "-//W3C//DTD SVG 1.1//EN"
 "http://www.w3.org/Graphics/SVG/1.1/DTD/svg11.dtd">
<!-- Generated by graphviz version 2.43.0 (0)
 -->
<!-- Title: utils/sha1.cpp Pages: 1 -->
<svg width="512pt" height="140pt"
 viewBox="0.00 0.00 511.50 140.00" xmlns="http://www.w3.org/2000/svg" xmlns:xlink="http://www.w3.org/1999/xlink">
<g id="graph0" class="graph" transform="scale(1 1) rotate(0) translate(4 136)">
<title>utils/sha1.cpp</title>
<polygon fill="white" stroke="transparent" points="-4,4 -4,-136 507.5,-136 507.5,4 -4,4"/>
<!-- Node1 -->
<g id="node1" class="node">
<title>Node1</title>
<g id="a_node1"><a xlink:title=" ">
<polygon fill="#bfbfbf" stroke="black" points="250,-112.5 250,-131.5 327,-131.5 327,-112.5 250,-112.5"/>
<text text-anchor="middle" x="288.5" y="-119.5" font-family="Helvetica,sans-Serif" font-size="10.00">utils/sha1.cpp</text>
</a>
</g>
</g>
<!-- Node2 -->
<g id="node2" class="node">
<title>Node2</title>
<g id="a_node2"><a xlink:href="sha1_8h.html" target="_top" xlink:title=" ">
<polygon fill="white" stroke="black" points="101.5,-56.5 101.5,-75.5 147.5,-75.5 147.5,-56.5 101.5,-56.5"/>
<text text-anchor="middle" x="124.5" y="-63.5" font-family="Helvetica,sans-Serif" font-size="10.00">sha1.h</text>
</a>
</g>
</g>
<!-- Node1&#45;&gt;Node2 -->
<g id="edge1" class="edge">
<title>Node1&#45;&gt;Node2</title>
<path fill="none" stroke="midnightblue" d="M262.51,-112.44C234.11,-103.09 188.54,-88.09 157.6,-77.9"/>
<polygon fill="midnightblue" stroke="midnightblue" points="158.31,-74.45 147.71,-74.64 156.12,-81.1 158.31,-74.45"/>
</g>
<!-- Node7 -->
<g id="node7" class="node">
<title>Node7</title>
<g id="a_node7"><a xlink:title=" ">
<polygon fill="white" stroke="#bfbfbf" points="166,-56.5 166,-75.5 211,-75.5 211,-56.5 166,-56.5"/>
<text text-anchor="middle" x="188.5" y="-63.5" font-family="Helvetica,sans-Serif" font-size="10.00">cstdlib</text>
</a>
</g>
</g>
<!-- Node1&#45;&gt;Node7 -->
<g id="edge6" class="edge">
<title>Node1&#45;&gt;Node7</title>
<path fill="none" stroke="midnightblue" d="M272.43,-112.32C256.54,-103.74 231.99,-90.49 213.54,-80.52"/>
<polygon fill="midnightblue" stroke="midnightblue" points="214.99,-77.33 204.53,-75.65 211.66,-83.49 214.99,-77.33"/>
</g>
<!-- Node8 -->
<g id="node8" class="node">
<title>Node8</title>
<g id="a_node8"><a xlink:title=" ">
<polygon fill="white" stroke="#bfbfbf" points="229.5,-56.5 229.5,-75.5 279.5,-75.5 279.5,-56.5 229.5,-56.5"/>
<text text-anchor="middle" x="254.5" y="-63.5" font-family="Helvetica,sans-Serif" font-size="10.00">fstream</text>
</a>
</g>
</g>
<!-- Node1&#45;&gt;Node8 -->
<g id="edge7" class="edge">
<title>Node1&#45;&gt;Node8</title>
<path fill="none" stroke="midnightblue" d="M282.89,-112.08C278.13,-104.53 271.18,-93.49 265.35,-84.23"/>
<polygon fill="midnightblue" stroke="midnightblue" points="268.3,-82.35 260.01,-75.75 262.38,-86.08 268.3,-82.35"/>
</g>
<!-- Node9 -->
<g id="node9" class="node">
<title>Node9</title>
<g id="a_node9"><a xlink:title=" ">
<polygon fill="white" stroke="#bfbfbf" points="297.5,-56.5 297.5,-75.5 347.5,-75.5 347.5,-56.5 297.5,-56.5"/>
<text text-anchor="middle" x="322.5" y="-63.5" font-family="Helvetica,sans-Serif" font-size="10.00">iomanip</text>
</a>
</g>
</g>
<!-- Node1&#45;&gt;Node9 -->
<g id="edge8" class="edge">
<title>Node1&#45;&gt;Node9</title>
<path fill="none" stroke="midnightblue" d="M294.11,-112.08C298.87,-104.53 305.82,-93.49 311.65,-84.23"/>
<polygon fill="midnightblue" stroke="midnightblue" points="314.62,-86.08 316.99,-75.75 308.7,-82.35 314.62,-86.08"/>
</g>
<!-- Node10 -->
<g id="node10" class="node">
<title>Node10</title>
<g id="a_node10"><a xlink:title=" ">
<polygon fill="white" stroke="#bfbfbf" points="365.5,-56.5 365.5,-75.5 417.5,-75.5 417.5,-56.5 365.5,-56.5"/>
<text text-anchor="middle" x="391.5" y="-63.5" font-family="Helvetica,sans-Serif" font-size="10.00">sstream</text>
</a>
</g>
</g>
<!-- Node1&#45;&gt;Node10 -->
<g id="edge9" class="edge">
<title>Node1&#45;&gt;Node10</title>
<path fill="none" stroke="midnightblue" d="M305.05,-112.32C321.49,-103.7 346.93,-90.36 365.97,-80.39"/>
<polygon fill="midnightblue" stroke="midnightblue" points="367.76,-83.4 374.99,-75.65 364.51,-77.2 367.76,-83.4"/>
</g>
<!-- Node11 -->
<g id="node11" class="node">
<title>Node11</title>
<g id="a_node11"><a xlink:title=" ">
<polygon fill="white" stroke="#bfbfbf" points="435.5,-56.5 435.5,-75.5 503.5,-75.5 503.5,-56.5 435.5,-56.5"/>
<text text-anchor="middle" x="469.5" y="-63.5" font-family="Helvetica,sans-Serif" font-size="10.00">sys/types.h</text>
</a>
</g>
</g>
<!-- Node1&#45;&gt;Node11 -->
<g id="edge10" class="edge">
<title>Node1&#45;&gt;Node11</title>
<path fill="none" stroke="midnightblue" d="M317.18,-112.44C348.03,-103.24 397.23,-88.56 431.33,-78.39"/>
<polygon fill="midnightblue" stroke="midnightblue" points="432.37,-81.73 440.95,-75.52 430.37,-75.02 432.37,-81.73"/>
</g>
<!-- Node3 -->
<g id="node3" class="node">
<title>Node3</title>
<g id="a_node3"><a xlink:title=" ">
<polygon fill="white" stroke="#bfbfbf" points="0,-0.5 0,-19.5 49,-19.5 49,-0.5 0,-0.5"/>
<text text-anchor="middle" x="24.5" y="-7.5" font-family="Helvetica,sans-Serif" font-size="10.00">cstddef</text>
</a>
</g>
</g>
<!-- Node2&#45;&gt;Node3 -->
<g id="edge2" class="edge">
<title>Node2&#45;&gt;Node3</title>
<path fill="none" stroke="midnightblue" d="M108.43,-56.32C92.54,-47.74 67.99,-34.49 49.54,-24.52"/>
<polygon fill="midnightblue" stroke="midnightblue" points="50.99,-21.33 40.53,-19.65 47.66,-27.49 50.99,-21.33"/>
</g>
<!-- Node4 -->
<g id="node4" class="node">
<title>Node4</title>
<g id="a_node4"><a xlink:title=" ">
<polygon fill="white" stroke="#bfbfbf" points="67.5,-0.5 67.5,-19.5 113.5,-19.5 113.5,-0.5 67.5,-0.5"/>
<text text-anchor="middle" x="90.5" y="-7.5" font-family="Helvetica,sans-Serif" font-size="10.00">cstdint</text>
</a>
</g>
</g>
<!-- Node2&#45;&gt;Node4 -->
<g id="edge3" class="edge">
<title>Node2&#45;&gt;Node4</title>
<path fill="none" stroke="midnightblue" d="M118.89,-56.08C114.13,-48.53 107.18,-37.49 101.35,-28.23"/>
<polygon fill="midnightblue" stroke="midnightblue" points="104.3,-26.35 96.01,-19.75 98.38,-30.08 104.3,-26.35"/>
</g>
<!-- Node5 -->
<g id="node5" class="node">
<title>Node5</title>
<g id="a_node5"><a xlink:title=" ">
<polygon fill="white" stroke="#bfbfbf" points="131.5,-0.5 131.5,-19.5 185.5,-19.5 185.5,-0.5 131.5,-0.5"/>
<text text-anchor="middle" x="158.5" y="-7.5" font-family="Helvetica,sans-Serif" font-size="10.00">iostream</text>
</a>
</g>
</g>
<!-- Node2&#45;&gt;Node5 -->
<g id="edge4" class="edge">
<title>Node2&#45;&gt;Node5</title>
<path fill="none" stroke="midnightblue" d="M130.11,-56.08C134.87,-48.53 141.82,-37.49 147.65,-28.23"/>
<polygon fill="midnightblue" stroke="midnightblue" points="150.62,-30.08 152.99,-19.75 144.7,-26.35 150.62,-30.08"/>
</g>
<!-- Node6 -->
<g id="node6" class="node">
<title>Node6</title>
<g id="a_node6"><a xlink:title=" ">
<polygon fill="white" stroke="#bfbfbf" points="204,-0.5 204,-19.5 245,-19.5 245,-0.5 204,-0.5"/>
<text text-anchor="middle" x="224.5" y="-7.5" font-family="Helvetica,sans-Serif" font-size="10.00">string</text>
</a>
</g>
</g>
<!-- Node2&#45;&gt;Node6 -->
<g id="edge5" class="edge">
<title>Node2&#45;&gt;Node6</title>
<path fill="none" stroke="midnightblue" d="M140.57,-56.32C156.46,-47.74 181.01,-34.49 199.46,-24.52"/>
<polygon fill="midnightblue" stroke="midnightblue" points="201.34,-27.49 208.47,-19.65 198.01,-21.33 201.34,-27.49"/>
</g>
</g>
</svg>
