<?xml version="1.0" encoding="UTF-8" standalone="no"?>
<!DOCTYPE svg PUBLIC "-//W3C//DTD SVG 1.1//EN"
 "http://www.w3.org/Graphics/SVG/1.1/DTD/svg11.dtd">
<!-- Generated by graphviz version 2.43.0 (0)
 -->
<!-- Title: net/socket/sock_stream/tls/SocketServer.h Pages: 1 -->
<svg width="975pt" height="408pt"
 viewBox="0.00 0.00 974.50 408.00" xmlns="http://www.w3.org/2000/svg" xmlns:xlink="http://www.w3.org/1999/xlink">
<g id="graph0" class="graph" transform="scale(1 1) rotate(0) translate(4 404)">
<title>net/socket/sock_stream/tls/SocketServer.h</title>
<polygon fill="white" stroke="transparent" points="-4,4 -4,-404 970.5,-404 970.5,4 -4,4"/>
<!-- Node1 -->
<g id="node1" class="node">
<title>Node1</title>
<g id="a_node1"><a xlink:title=" ">
<polygon fill="#bfbfbf" stroke="black" points="669,-369.5 669,-399.5 791,-399.5 791,-369.5 669,-369.5"/>
<text text-anchor="start" x="677" y="-387.5" font-family="Helvetica,sans-Serif" font-size="10.00">net/socket/sock_stream</text>
<text text-anchor="middle" x="730" y="-376.5" font-family="Helvetica,sans-Serif" font-size="10.00">/tls/SocketServer.h</text>
</a>
</g>
</g>
<!-- Node2 -->
<g id="node2" class="node">
<title>Node2</title>
<g id="a_node2"><a xlink:href="tls_2_socket_listener_8h.html" target="_top" xlink:title=" ">
<polygon fill="white" stroke="black" points="628.5,-308 628.5,-327 717.5,-327 717.5,-308 628.5,-308"/>
<text text-anchor="middle" x="673" y="-315" font-family="Helvetica,sans-Serif" font-size="10.00">SocketListener.h</text>
</a>
</g>
</g>
<!-- Node1&#45;&gt;Node2 -->
<g id="edge1" class="edge">
<title>Node1&#45;&gt;Node2</title>
<path fill="none" stroke="midnightblue" d="M717.63,-369.4C708.74,-359.26 696.74,-345.57 687.41,-334.94"/>
<polygon fill="midnightblue" stroke="midnightblue" points="689.85,-332.41 680.62,-327.19 684.59,-337.02 689.85,-332.41"/>
</g>
<!-- Node20 -->
<g id="node20" class="node">
<title>Node20</title>
<g id="a_node20"><a xlink:href="sock__stream_2_socket_server_8h.html" target="_top" xlink:title=" ">
<polygon fill="white" stroke="black" points="795.5,-302.5 795.5,-332.5 900.5,-332.5 900.5,-302.5 795.5,-302.5"/>
<text text-anchor="start" x="803.5" y="-320.5" font-family="Helvetica,sans-Serif" font-size="10.00">socket/sock_stream</text>
<text text-anchor="middle" x="848" y="-309.5" font-family="Helvetica,sans-Serif" font-size="10.00">/SocketServer.h</text>
</a>
</g>
</g>
<!-- Node1&#45;&gt;Node20 -->
<g id="edge35" class="edge">
<title>Node1&#45;&gt;Node20</title>
<path fill="none" stroke="midnightblue" d="M755.6,-369.4C772.54,-360.07 794.94,-347.73 813.45,-337.53"/>
<polygon fill="midnightblue" stroke="midnightblue" points="815.38,-340.47 822.45,-332.58 812,-334.34 815.38,-340.47"/>
</g>
<!-- Node3 -->
<g id="node3" class="node">
<title>Node3</title>
<g id="a_node3"><a xlink:href="_logger_8h.html" target="_top" xlink:title=" ">
<polygon fill="white" stroke="black" points="768.5,-56.5 768.5,-75.5 821.5,-75.5 821.5,-56.5 768.5,-56.5"/>
<text text-anchor="middle" x="795" y="-63.5" font-family="Helvetica,sans-Serif" font-size="10.00">Logger.h</text>
</a>
</g>
</g>
<!-- Node2&#45;&gt;Node3 -->
<g id="edge2" class="edge">
<title>Node2&#45;&gt;Node3</title>
<path fill="none" stroke="midnightblue" d="M682.32,-307.89C706.97,-284.38 773.6,-215.98 797,-143 803.03,-124.19 801.33,-101.39 798.87,-85.71"/>
<polygon fill="midnightblue" stroke="midnightblue" points="802.28,-84.91 797.05,-75.7 795.4,-86.16 802.28,-84.91"/>
</g>
<!-- Node4 -->
<g id="node4" class="node">
<title>Node4</title>
<g id="a_node4"><a xlink:href="tls_2_socket_connection_8h.html" target="_top" xlink:title=" ">
<polygon fill="white" stroke="black" points="401.5,-246.5 401.5,-265.5 506.5,-265.5 506.5,-246.5 401.5,-246.5"/>
<text text-anchor="middle" x="454" y="-253.5" font-family="Helvetica,sans-Serif" font-size="10.00">SocketConnection.h</text>
</a>
</g>
</g>
<!-- Node2&#45;&gt;Node4 -->
<g id="edge3" class="edge">
<title>Node2&#45;&gt;Node4</title>
<path fill="none" stroke="midnightblue" d="M641.62,-307.98C603.08,-297.5 537.59,-279.71 495.08,-268.16"/>
<polygon fill="midnightblue" stroke="midnightblue" points="495.89,-264.75 485.32,-265.51 494.05,-271.51 495.89,-264.75"/>
</g>
<!-- Node10 -->
<g id="node10" class="node">
<title>Node10</title>
<g id="a_node10"><a xlink:href="_t_l_s_handshake_8h.html" target="_top" xlink:title=" ">
<polygon fill="white" stroke="black" points="184,-118 184,-137 276,-137 276,-118 184,-118"/>
<text text-anchor="middle" x="230" y="-125" font-family="Helvetica,sans-Serif" font-size="10.00">TLSHandshake.h</text>
</a>
</g>
</g>
<!-- Node2&#45;&gt;Node10 -->
<g id="edge28" class="edge">
<title>Node2&#45;&gt;Node10</title>
<path fill="none" stroke="midnightblue" d="M628.15,-311.67C529.55,-300.09 298.73,-267.34 249,-210 233.94,-192.63 230.24,-165.59 229.61,-147.48"/>
<polygon fill="midnightblue" stroke="midnightblue" points="233.1,-147.26 229.54,-137.28 226.1,-147.31 233.1,-147.26"/>
</g>
<!-- Node15 -->
<g id="node15" class="node">
<title>Node15</title>
<g id="a_node15"><a xlink:href="ssl__utils_8h.html" target="_top" xlink:title=" ">
<polygon fill="white" stroke="black" points="543.5,-118 543.5,-137 604.5,-137 604.5,-118 543.5,-118"/>
<text text-anchor="middle" x="574" y="-125" font-family="Helvetica,sans-Serif" font-size="10.00">ssl_utils.h</text>
</a>
</g>
</g>
<!-- Node2&#45;&gt;Node15 -->
<g id="edge34" class="edge">
<title>Node2&#45;&gt;Node15</title>
<path fill="none" stroke="midnightblue" d="M659.9,-307.88C636.88,-291.85 589.93,-254.97 572,-210 563.91,-189.73 566.3,-164.3 569.47,-147.29"/>
<polygon fill="midnightblue" stroke="midnightblue" points="572.9,-147.97 571.57,-137.46 566.06,-146.51 572.9,-147.97"/>
</g>
<!-- Node18 -->
<g id="node18" class="node">
<title>Node18</title>
<g id="a_node18"><a xlink:href="_socket_listener_8h.html" target="_top" xlink:title=" ">
<polygon fill="white" stroke="black" points="861.5,-112.5 861.5,-142.5 966.5,-142.5 966.5,-112.5 861.5,-112.5"/>
<text text-anchor="start" x="869.5" y="-130.5" font-family="Helvetica,sans-Serif" font-size="10.00">socket/sock_stream</text>
<text text-anchor="middle" x="914" y="-119.5" font-family="Helvetica,sans-Serif" font-size="10.00">/SocketListener.h</text>
</a>
</g>
</g>
<!-- Node2&#45;&gt;Node18 -->
<g id="edge29" class="edge">
<title>Node2&#45;&gt;Node18</title>
<path fill="none" stroke="midnightblue" d="M717.71,-313.52C755.94,-308.83 810.43,-296.8 847,-266 865.49,-250.43 891.56,-187.48 905.08,-152.41"/>
<polygon fill="midnightblue" stroke="midnightblue" points="908.41,-153.5 908.7,-142.9 901.87,-151 908.41,-153.5"/>
</g>
<!-- Node5 -->
<g id="node5" class="node">
<title>Node5</title>
<g id="a_node5"><a xlink:href="_socket_connection_8h.html" target="_top" xlink:title=" ">
<polygon fill="white" stroke="black" points="258,-179.5 258,-209.5 366,-209.5 366,-179.5 258,-179.5"/>
<text text-anchor="start" x="266" y="-197.5" font-family="Helvetica,sans-Serif" font-size="10.00">socket/sock_stream</text>
<text text-anchor="middle" x="312" y="-186.5" font-family="Helvetica,sans-Serif" font-size="10.00">/SocketConnection.h</text>
</a>
</g>
</g>
<!-- Node4&#45;&gt;Node5 -->
<g id="edge4" class="edge">
<title>Node4&#45;&gt;Node5</title>
<path fill="none" stroke="midnightblue" d="M433.65,-246.48C413.16,-237.89 380.93,-224.38 354.79,-213.43"/>
<polygon fill="midnightblue" stroke="midnightblue" points="356.04,-210.16 345.47,-209.52 353.34,-216.62 356.04,-210.16"/>
</g>
<!-- Node8 -->
<g id="node8" class="node">
<title>Node8</title>
<g id="a_node8"><a xlink:href="tls_2_socket_reader_8h.html" target="_top" xlink:title=" ">
<polygon fill="white" stroke="black" points="384.5,-179.5 384.5,-209.5 489.5,-209.5 489.5,-179.5 384.5,-179.5"/>
<text text-anchor="start" x="392.5" y="-197.5" font-family="Helvetica,sans-Serif" font-size="10.00">socket/sock_stream</text>
<text text-anchor="middle" x="437" y="-186.5" font-family="Helvetica,sans-Serif" font-size="10.00">/tls/SocketReader.h</text>
</a>
</g>
</g>
<!-- Node4&#45;&gt;Node8 -->
<g id="edge7" class="edge">
<title>Node4&#45;&gt;Node8</title>
<path fill="none" stroke="midnightblue" d="M451.56,-246.48C449.54,-239.4 446.56,-228.97 443.83,-219.39"/>
<polygon fill="midnightblue" stroke="midnightblue" points="447.12,-218.18 441.01,-209.52 440.39,-220.1 447.12,-218.18"/>
</g>
<!-- Node16 -->
<g id="node16" class="node">
<title>Node16</title>
<g id="a_node16"><a xlink:href="tls_2_socket_writer_8h.html" target="_top" xlink:title=" ">
<polygon fill="white" stroke="black" points="580.5,-179.5 580.5,-209.5 685.5,-209.5 685.5,-179.5 580.5,-179.5"/>
<text text-anchor="start" x="588.5" y="-197.5" font-family="Helvetica,sans-Serif" font-size="10.00">socket/sock_stream</text>
<text text-anchor="middle" x="633" y="-186.5" font-family="Helvetica,sans-Serif" font-size="10.00">/tls/SocketWriter.h</text>
</a>
</g>
</g>
<!-- Node4&#45;&gt;Node16 -->
<g id="edge19" class="edge">
<title>Node4&#45;&gt;Node16</title>
<path fill="none" stroke="midnightblue" d="M479.65,-246.48C506.04,-237.7 547.9,-223.79 581.22,-212.71"/>
<polygon fill="midnightblue" stroke="midnightblue" points="582.43,-216 590.81,-209.52 580.22,-209.36 582.43,-216"/>
</g>
<!-- Node6 -->
<g id="node6" class="node">
<title>Node6</title>
<g id="a_node6"><a xlink:href="_socket_connection_base_8h.html" target="_top" xlink:title=" ">
<polygon fill="white" stroke="black" points="0,-118 0,-137 128,-137 128,-118 0,-118"/>
<text text-anchor="middle" x="64" y="-125" font-family="Helvetica,sans-Serif" font-size="10.00">SocketConnectionBase.h</text>
</a>
</g>
</g>
<!-- Node5&#45;&gt;Node6 -->
<g id="edge5" class="edge">
<title>Node5&#45;&gt;Node6</title>
<path fill="none" stroke="midnightblue" d="M258.49,-179.48C212.98,-167.55 148.49,-150.64 106.46,-139.63"/>
<polygon fill="midnightblue" stroke="midnightblue" points="107.1,-136.18 96.54,-137.03 105.33,-142.95 107.1,-136.18"/>
</g>
<!-- Node7 -->
<g id="node7" class="node">
<title>Node7</title>
<g id="a_node7"><a xlink:href="_attribute_injector_8h.html" target="_top" xlink:title=" ">
<polygon fill="white" stroke="black" points="17.5,-56.5 17.5,-75.5 110.5,-75.5 110.5,-56.5 17.5,-56.5"/>
<text text-anchor="middle" x="64" y="-63.5" font-family="Helvetica,sans-Serif" font-size="10.00">AttributeInjector.h</text>
</a>
</g>
</g>
<!-- Node6&#45;&gt;Node7 -->
<g id="edge6" class="edge">
<title>Node6&#45;&gt;Node7</title>
<path fill="none" stroke="midnightblue" d="M64,-117.98C64,-109.58 64,-96.48 64,-85.66"/>
<polygon fill="midnightblue" stroke="midnightblue" points="67.5,-85.51 64,-75.51 60.5,-85.51 67.5,-85.51"/>
</g>
<!-- Node8&#45;&gt;Node3 -->
<g id="edge9" class="edge">
<title>Node8&#45;&gt;Node3</title>
<path fill="none" stroke="midnightblue" d="M434.29,-179.48C431.65,-161.24 430.29,-129.62 448,-112 469.76,-90.35 673.44,-74.84 758.23,-69.27"/>
<polygon fill="midnightblue" stroke="midnightblue" points="758.68,-72.74 768.44,-68.61 758.23,-65.76 758.68,-72.74"/>
</g>
<!-- Node9 -->
<g id="node9" class="node">
<title>Node9</title>
<g id="a_node9"><a xlink:href="_descriptor_8h.html" target="_top" xlink:title=" ">
<polygon fill="white" stroke="black" points="456.5,-118 456.5,-137 525.5,-137 525.5,-118 456.5,-118"/>
<text text-anchor="middle" x="491" y="-125" font-family="Helvetica,sans-Serif" font-size="10.00">Descriptor.h</text>
</a>
</g>
</g>
<!-- Node8&#45;&gt;Node9 -->
<g id="edge8" class="edge">
<title>Node8&#45;&gt;Node9</title>
<path fill="none" stroke="midnightblue" d="M448.72,-179.4C457.14,-169.26 468.51,-155.57 477.34,-144.94"/>
<polygon fill="midnightblue" stroke="midnightblue" points="480.08,-147.12 483.78,-137.19 474.69,-142.65 480.08,-147.12"/>
</g>
<!-- Node8&#45;&gt;Node10 -->
<g id="edge10" class="edge">
<title>Node8&#45;&gt;Node10</title>
<path fill="none" stroke="midnightblue" d="M392.34,-179.48C354.91,-167.72 302.11,-151.14 267.01,-140.12"/>
<polygon fill="midnightblue" stroke="midnightblue" points="267.75,-136.69 257.16,-137.03 265.65,-143.36 267.75,-136.69"/>
</g>
<!-- Node13 -->
<g id="node13" class="node">
<title>Node13</title>
<g id="a_node13"><a xlink:href="_write_event_receiver_8h.html" target="_top" xlink:title=" ">
<polygon fill="white" stroke="black" points="242.5,-56.5 242.5,-75.5 353.5,-75.5 353.5,-56.5 242.5,-56.5"/>
<text text-anchor="middle" x="298" y="-63.5" font-family="Helvetica,sans-Serif" font-size="10.00">WriteEventReceiver.h</text>
</a>
</g>
</g>
<!-- Node8&#45;&gt;Node13 -->
<g id="edge15" class="edge">
<title>Node8&#45;&gt;Node13</title>
<path fill="none" stroke="midnightblue" d="M384.28,-180.97C381.14,-180.29 378.03,-179.63 375,-179 330.78,-169.86 203.97,-177.65 175,-143 166.16,-132.43 167.11,-123.29 175,-112 188.33,-92.92 210.67,-81.91 232.67,-75.56"/>
<polygon fill="midnightblue" stroke="midnightblue" points="233.59,-78.94 242.39,-73.03 231.83,-72.16 233.59,-78.94"/>
</g>
<!-- Node14 -->
<g id="node14" class="node">
<title>Node14</title>
<g id="a_node14"><a xlink:href="_socket_reader_8h.html" target="_top" xlink:title=" ">
<polygon fill="white" stroke="black" points="294.5,-112.5 294.5,-142.5 399.5,-142.5 399.5,-112.5 294.5,-112.5"/>
<text text-anchor="start" x="302.5" y="-130.5" font-family="Helvetica,sans-Serif" font-size="10.00">socket/sock_stream</text>
<text text-anchor="middle" x="347" y="-119.5" font-family="Helvetica,sans-Serif" font-size="10.00">/SocketReader.h</text>
</a>
</g>
</g>
<!-- Node8&#45;&gt;Node14 -->
<g id="edge16" class="edge">
<title>Node8&#45;&gt;Node14</title>
<path fill="none" stroke="midnightblue" d="M417.47,-179.4C404.97,-170.37 388.56,-158.51 374.72,-148.52"/>
<polygon fill="midnightblue" stroke="midnightblue" points="376.65,-145.59 366.49,-142.58 372.55,-151.27 376.65,-145.59"/>
</g>
<!-- Node8&#45;&gt;Node15 -->
<g id="edge18" class="edge">
<title>Node8&#45;&gt;Node15</title>
<path fill="none" stroke="midnightblue" d="M466.73,-179.4C490.55,-168.09 523.71,-152.36 546.83,-141.39"/>
<polygon fill="midnightblue" stroke="midnightblue" points="548.54,-144.46 556.07,-137.01 545.53,-138.13 548.54,-144.46"/>
</g>
<!-- Node11 -->
<g id="node11" class="node">
<title>Node11</title>
<g id="a_node11"><a xlink:href="_read_event_receiver_8h.html" target="_top" xlink:title=" ">
<polygon fill="white" stroke="black" points="508,-56.5 508,-75.5 620,-75.5 620,-56.5 508,-56.5"/>
<text text-anchor="middle" x="564" y="-63.5" font-family="Helvetica,sans-Serif" font-size="10.00">ReadEventReceiver.h</text>
</a>
</g>
</g>
<!-- Node10&#45;&gt;Node11 -->
<g id="edge11" class="edge">
<title>Node10&#45;&gt;Node11</title>
<path fill="none" stroke="midnightblue" d="M260.98,-117.93C269.09,-115.84 277.84,-113.71 286,-112 357.85,-96.92 441.05,-84.05 497.57,-75.98"/>
<polygon fill="midnightblue" stroke="midnightblue" points="498.4,-79.4 507.81,-74.53 497.42,-72.47 498.4,-79.4"/>
</g>
<!-- Node10&#45;&gt;Node13 -->
<g id="edge13" class="edge">
<title>Node10&#45;&gt;Node13</title>
<path fill="none" stroke="midnightblue" d="M239.74,-117.98C250.35,-108.7 267.52,-93.67 280.48,-82.33"/>
<polygon fill="midnightblue" stroke="midnightblue" points="283.05,-84.73 288.28,-75.51 278.44,-79.46 283.05,-84.73"/>
</g>
<!-- Node12 -->
<g id="node12" class="node">
<title>Node12</title>
<g id="a_node12"><a xlink:href="_event_receiver_8h.html" target="_top" xlink:title=" ">
<polygon fill="white" stroke="black" points="519.5,-0.5 519.5,-19.5 608.5,-19.5 608.5,-0.5 519.5,-0.5"/>
<text text-anchor="middle" x="564" y="-7.5" font-family="Helvetica,sans-Serif" font-size="10.00">EventReceiver.h</text>
</a>
</g>
</g>
<!-- Node11&#45;&gt;Node12 -->
<g id="edge12" class="edge">
<title>Node11&#45;&gt;Node12</title>
<path fill="none" stroke="midnightblue" d="M564,-56.08C564,-49.01 564,-38.86 564,-29.99"/>
<polygon fill="midnightblue" stroke="midnightblue" points="567.5,-29.75 564,-19.75 560.5,-29.75 567.5,-29.75"/>
</g>
<!-- Node13&#45;&gt;Node12 -->
<g id="edge14" class="edge">
<title>Node13&#45;&gt;Node12</title>
<path fill="none" stroke="midnightblue" d="M340.15,-56.44C386.75,-46.98 461.84,-31.74 512.05,-21.55"/>
<polygon fill="midnightblue" stroke="midnightblue" points="512.94,-24.94 522.05,-19.52 511.55,-18.08 512.94,-24.94"/>
</g>
<!-- Node14&#45;&gt;Node11 -->
<g id="edge17" class="edge">
<title>Node14&#45;&gt;Node11</title>
<path fill="none" stroke="midnightblue" d="M398.15,-112.47C436.24,-102.03 487.57,-87.96 522.98,-78.25"/>
<polygon fill="midnightblue" stroke="midnightblue" points="524.26,-81.53 532.98,-75.51 522.41,-74.78 524.26,-81.53"/>
</g>
<!-- Node16&#45;&gt;Node3 -->
<g id="edge21" class="edge">
<title>Node16&#45;&gt;Node3</title>
<path fill="none" stroke="midnightblue" d="M685.74,-187.31C716.17,-181.04 752.88,-168.42 776,-143 790.13,-127.47 794.13,-103.03 795.07,-86.08"/>
<polygon fill="midnightblue" stroke="midnightblue" points="798.58,-85.82 795.33,-75.74 791.58,-85.65 798.58,-85.82"/>
</g>
<!-- Node16&#45;&gt;Node9 -->
<g id="edge20" class="edge">
<title>Node16&#45;&gt;Node9</title>
<path fill="none" stroke="midnightblue" d="M602.19,-179.4C577.38,-168.04 542.82,-152.22 518.84,-141.24"/>
<polygon fill="midnightblue" stroke="midnightblue" points="520.13,-137.99 509.58,-137.01 517.22,-144.35 520.13,-137.99"/>
</g>
<!-- Node16&#45;&gt;Node10 -->
<g id="edge23" class="edge">
<title>Node16&#45;&gt;Node10</title>
<path fill="none" stroke="midnightblue" d="M580.37,-187.65C512.12,-179.65 389.54,-163.87 286,-143 280.9,-141.97 275.57,-140.77 270.32,-139.5"/>
<polygon fill="midnightblue" stroke="midnightblue" points="270.93,-136.04 260.38,-137.01 269.23,-142.83 270.93,-136.04"/>
</g>
<!-- Node16&#45;&gt;Node11 -->
<g id="edge22" class="edge">
<title>Node16&#45;&gt;Node11</title>
<path fill="none" stroke="midnightblue" d="M632.26,-179.29C630.82,-162.23 626.56,-133.27 614,-112 606.95,-100.06 595.68,-89.51 585.62,-81.64"/>
<polygon fill="midnightblue" stroke="midnightblue" points="587.7,-78.82 577.58,-75.68 583.53,-84.44 587.7,-78.82"/>
</g>
<!-- Node16&#45;&gt;Node15 -->
<g id="edge27" class="edge">
<title>Node16&#45;&gt;Node15</title>
<path fill="none" stroke="midnightblue" d="M620.2,-179.4C610.91,-169.16 598.32,-155.3 588.63,-144.62"/>
<polygon fill="midnightblue" stroke="midnightblue" points="591.2,-142.25 581.89,-137.19 586.02,-146.95 591.2,-142.25"/>
</g>
<!-- Node17 -->
<g id="node17" class="node">
<title>Node17</title>
<g id="a_node17"><a xlink:href="_socket_writer_8h.html" target="_top" xlink:title=" ">
<polygon fill="white" stroke="black" points="661.5,-112.5 661.5,-142.5 766.5,-142.5 766.5,-112.5 661.5,-112.5"/>
<text text-anchor="start" x="669.5" y="-130.5" font-family="Helvetica,sans-Serif" font-size="10.00">socket/sock_stream</text>
<text text-anchor="middle" x="714" y="-119.5" font-family="Helvetica,sans-Serif" font-size="10.00">/SocketWriter.h</text>
</a>
</g>
</g>
<!-- Node16&#45;&gt;Node17 -->
<g id="edge24" class="edge">
<title>Node16&#45;&gt;Node17</title>
<path fill="none" stroke="midnightblue" d="M650.58,-179.4C661.61,-170.54 676.04,-158.96 688.35,-149.09"/>
<polygon fill="midnightblue" stroke="midnightblue" points="690.85,-151.56 696.46,-142.58 686.47,-146.11 690.85,-151.56"/>
</g>
<!-- Node17&#45;&gt;Node3 -->
<g id="edge25" class="edge">
<title>Node17&#45;&gt;Node3</title>
<path fill="none" stroke="midnightblue" d="M733.2,-112.4C745.82,-103.13 762.29,-91.03 775.06,-81.65"/>
<polygon fill="midnightblue" stroke="midnightblue" points="777.23,-84.4 783.21,-75.66 773.08,-78.76 777.23,-84.4"/>
</g>
<!-- Node17&#45;&gt;Node13 -->
<g id="edge26" class="edge">
<title>Node17&#45;&gt;Node13</title>
<path fill="none" stroke="midnightblue" d="M661.33,-118.84C646.06,-116.62 629.37,-114.21 614,-112 527.44,-99.56 427.52,-85.36 363.6,-76.29"/>
<polygon fill="midnightblue" stroke="midnightblue" points="364.05,-72.82 353.66,-74.88 363.07,-79.75 364.05,-72.82"/>
</g>
<!-- Node18&#45;&gt;Node3 -->
<g id="edge32" class="edge">
<title>Node18&#45;&gt;Node3</title>
<path fill="none" stroke="midnightblue" d="M885.8,-112.4C866.28,-102.64 840.47,-89.74 821.37,-80.18"/>
<polygon fill="midnightblue" stroke="midnightblue" points="822.83,-77 812.32,-75.66 819.69,-83.26 822.83,-77"/>
</g>
<!-- Node18&#45;&gt;Node11 -->
<g id="edge33" class="edge">
<title>Node18&#45;&gt;Node11</title>
<path fill="none" stroke="midnightblue" d="M861.22,-117.53C797.56,-106.7 690.78,-88.55 624.03,-77.21"/>
<polygon fill="midnightblue" stroke="midnightblue" points="624.53,-73.74 614.08,-75.51 623.35,-80.64 624.53,-73.74"/>
</g>
<!-- Node19 -->
<g id="node19" class="node">
<title>Node19</title>
<g id="a_node19"><a xlink:href="_accept_event_receiver_8h.html" target="_top" xlink:title=" ">
<polygon fill="white" stroke="black" points="846.5,-56.5 846.5,-75.5 965.5,-75.5 965.5,-56.5 846.5,-56.5"/>
<text text-anchor="middle" x="906" y="-63.5" font-family="Helvetica,sans-Serif" font-size="10.00">AcceptEventReceiver.h</text>
</a>
</g>
</g>
<!-- Node18&#45;&gt;Node19 -->
<g id="edge30" class="edge">
<title>Node18&#45;&gt;Node19</title>
<path fill="none" stroke="midnightblue" d="M912.1,-112.4C911.03,-104.38 909.66,-94.23 908.5,-85.57"/>
<polygon fill="midnightblue" stroke="midnightblue" points="911.97,-85.1 907.16,-75.66 905.03,-86.04 911.97,-85.1"/>
</g>
<!-- Node19&#45;&gt;Node12 -->
<g id="edge31" class="edge">
<title>Node19&#45;&gt;Node12</title>
<path fill="none" stroke="midnightblue" d="M851.81,-56.44C787.98,-46.37 682.57,-29.72 618.58,-19.62"/>
<polygon fill="midnightblue" stroke="midnightblue" points="619.1,-16.16 608.67,-18.05 618.01,-23.07 619.1,-16.16"/>
</g>
<!-- Node20&#45;&gt;Node18 -->
<g id="edge36" class="edge">
<title>Node20&#45;&gt;Node18</title>
<path fill="none" stroke="midnightblue" d="M861.55,-302.16C869.84,-292.61 879.96,-279.41 886,-266 902.77,-228.74 909.59,-181.28 912.29,-152.98"/>
<polygon fill="midnightblue" stroke="midnightblue" points="915.8,-153.05 913.17,-142.79 908.82,-152.45 915.8,-153.05"/>
</g>
</g>
</svg>
