<?xml version="1.0" encoding="UTF-8" standalone="no"?>
<!DOCTYPE svg PUBLIC "-//W3C//DTD SVG 1.1//EN"
 "http://www.w3.org/Graphics/SVG/1.1/DTD/svg11.dtd">
<!-- Generated by graphviz version 2.43.0 (0)
 -->
<!-- Title: net/socket/sock_stream/tls/SocketClient.h Pages: 1 -->
<svg width="1011pt" height="419pt"
 viewBox="0.00 0.00 1011.13 419.00" xmlns="http://www.w3.org/2000/svg" xmlns:xlink="http://www.w3.org/1999/xlink">
<g id="graph0" class="graph" transform="scale(1 1) rotate(0) translate(4 415)">
<title>net/socket/sock_stream/tls/SocketClient.h</title>
<polygon fill="white" stroke="transparent" points="-4,4 -4,-415 1007.13,-415 1007.13,4 -4,4"/>
<!-- Node1 -->
<g id="node1" class="node">
<title>Node1</title>
<g id="a_node1"><a xlink:title=" ">
<polygon fill="#bfbfbf" stroke="black" points="247.13,-380.5 247.13,-410.5 369.13,-410.5 369.13,-380.5 247.13,-380.5"/>
<text text-anchor="start" x="255.13" y="-398.5" font-family="Helvetica,sans-Serif" font-size="10.00">net/socket/sock_stream</text>
<text text-anchor="middle" x="308.13" y="-387.5" font-family="Helvetica,sans-Serif" font-size="10.00">/tls/SocketClient.h</text>
</a>
</g>
</g>
<!-- Node2 -->
<g id="node2" class="node">
<title>Node2</title>
<g id="a_node2"><a xlink:href="tls_2_socket_connector_8h.html" target="_top" xlink:title=" ">
<polygon fill="white" stroke="black" points="455.13,-319 455.13,-338 555.13,-338 555.13,-319 455.13,-319"/>
<text text-anchor="middle" x="505.13" y="-326" font-family="Helvetica,sans-Serif" font-size="10.00">SocketConnector.h</text>
</a>
</g>
</g>
<!-- Node1&#45;&gt;Node2 -->
<g id="edge1" class="edge">
<title>Node1&#45;&gt;Node2</title>
<path fill="none" stroke="midnightblue" d="M350.87,-380.4C386.36,-368.69 436.23,-352.23 469.57,-341.23"/>
<polygon fill="midnightblue" stroke="midnightblue" points="470.95,-344.46 479.35,-338.01 468.75,-337.82 470.95,-344.46"/>
</g>
<!-- Node22 -->
<g id="node22" class="node">
<title>Node22</title>
<g id="a_node22"><a xlink:href="sock__stream_2_socket_client_8h.html" target="_top" xlink:title=" ">
<polygon fill="white" stroke="black" points="195.63,-313.5 195.63,-343.5 300.63,-343.5 300.63,-313.5 195.63,-313.5"/>
<text text-anchor="start" x="203.63" y="-331.5" font-family="Helvetica,sans-Serif" font-size="10.00">socket/sock_stream</text>
<text text-anchor="middle" x="248.13" y="-320.5" font-family="Helvetica,sans-Serif" font-size="10.00">/SocketClient.h</text>
</a>
</g>
</g>
<!-- Node1&#45;&gt;Node22 -->
<g id="edge36" class="edge">
<title>Node1&#45;&gt;Node22</title>
<path fill="none" stroke="midnightblue" d="M295.11,-380.4C287.17,-371.79 276.86,-360.63 267.92,-350.94"/>
<polygon fill="midnightblue" stroke="midnightblue" points="270.48,-348.55 261.12,-343.58 265.33,-353.3 270.48,-348.55"/>
</g>
<!-- Node3 -->
<g id="node3" class="node">
<title>Node3</title>
<g id="a_node3"><a xlink:href="_logger_8h.html" target="_top" xlink:title=" ">
<polygon fill="white" stroke="black" points="452.63,-118 452.63,-137 505.63,-137 505.63,-118 452.63,-118"/>
<text text-anchor="middle" x="479.13" y="-125" font-family="Helvetica,sans-Serif" font-size="10.00">Logger.h</text>
</a>
</g>
</g>
<!-- Node2&#45;&gt;Node3 -->
<g id="edge2" class="edge">
<title>Node2&#45;&gt;Node3</title>
<path fill="none" stroke="midnightblue" d="M504.01,-318.95C500.11,-289.1 487.04,-189.08 481.57,-147.2"/>
<polygon fill="midnightblue" stroke="midnightblue" points="485.04,-146.71 480.27,-137.24 478.1,-147.61 485.04,-146.71"/>
</g>
<!-- Node4 -->
<g id="node4" class="node">
<title>Node4</title>
<g id="a_node4"><a xlink:href="tls_2_socket_connection_8h.html" target="_top" xlink:title=" ">
<polygon fill="white" stroke="black" points="552.63,-252 552.63,-271 657.63,-271 657.63,-252 552.63,-252"/>
<text text-anchor="middle" x="605.13" y="-259" font-family="Helvetica,sans-Serif" font-size="10.00">SocketConnection.h</text>
</a>
</g>
</g>
<!-- Node2&#45;&gt;Node4 -->
<g id="edge3" class="edge">
<title>Node2&#45;&gt;Node4</title>
<path fill="none" stroke="midnightblue" d="M518.61,-318.73C535.18,-307.96 563.51,-289.55 583.22,-276.74"/>
<polygon fill="midnightblue" stroke="midnightblue" points="585.38,-279.51 591.86,-271.13 581.56,-273.64 585.38,-279.51"/>
</g>
<!-- Node10 -->
<g id="node10" class="node">
<title>Node10</title>
<g id="a_node10"><a xlink:href="_t_l_s_handshake_8h.html" target="_top" xlink:title=" ">
<polygon fill="white" stroke="black" points="641.13,-118 641.13,-137 733.13,-137 733.13,-118 641.13,-118"/>
<text text-anchor="middle" x="687.13" y="-125" font-family="Helvetica,sans-Serif" font-size="10.00">TLSHandshake.h</text>
</a>
</g>
</g>
<!-- Node2&#45;&gt;Node10 -->
<g id="edge27" class="edge">
<title>Node2&#45;&gt;Node10</title>
<path fill="none" stroke="midnightblue" d="M555.22,-324.35C623.64,-316.97 743.49,-292.31 793.13,-210 800.24,-198.2 800.48,-190.65 793.13,-179 784.93,-166.01 749.64,-150.81 722,-140.51"/>
<polygon fill="midnightblue" stroke="midnightblue" points="723.19,-137.22 712.6,-137.08 720.8,-143.79 723.19,-137.22"/>
</g>
<!-- Node15 -->
<g id="node15" class="node">
<title>Node15</title>
<g id="a_node15"><a xlink:href="ssl__utils_8h.html" target="_top" xlink:title=" ">
<polygon fill="white" stroke="black" points="523.63,-118 523.63,-137 584.63,-137 584.63,-118 523.63,-118"/>
<text text-anchor="middle" x="554.13" y="-125" font-family="Helvetica,sans-Serif" font-size="10.00">ssl_utils.h</text>
</a>
</g>
</g>
<!-- Node2&#45;&gt;Node15 -->
<g id="edge35" class="edge">
<title>Node2&#45;&gt;Node15</title>
<path fill="none" stroke="midnightblue" d="M507.23,-318.95C514.58,-289.1 539.21,-189.08 549.52,-147.2"/>
<polygon fill="midnightblue" stroke="midnightblue" points="552.98,-147.79 551.98,-137.24 546.19,-146.12 552.98,-147.79"/>
</g>
<!-- Node18 -->
<g id="node18" class="node">
<title>Node18</title>
<g id="a_node18"><a xlink:href="_socket_connector_8h.html" target="_top" xlink:title=" ">
<polygon fill="white" stroke="black" points="132.63,-246.5 132.63,-276.5 237.63,-276.5 237.63,-246.5 132.63,-246.5"/>
<text text-anchor="start" x="140.63" y="-264.5" font-family="Helvetica,sans-Serif" font-size="10.00">socket/sock_stream</text>
<text text-anchor="middle" x="185.13" y="-253.5" font-family="Helvetica,sans-Serif" font-size="10.00">/SocketConnector.h</text>
</a>
</g>
</g>
<!-- Node2&#45;&gt;Node18 -->
<g id="edge28" class="edge">
<title>Node2&#45;&gt;Node18</title>
<path fill="none" stroke="midnightblue" d="M462.96,-318.94C407.95,-307.76 311.23,-288.11 247.66,-275.2"/>
<polygon fill="midnightblue" stroke="midnightblue" points="248.25,-271.75 237.76,-273.19 246.86,-278.61 248.25,-271.75"/>
</g>
<!-- Node5 -->
<g id="node5" class="node">
<title>Node5</title>
<g id="a_node5"><a xlink:href="_socket_connection_8h.html" target="_top" xlink:title=" ">
<polygon fill="white" stroke="black" points="676.13,-179.5 676.13,-209.5 784.13,-209.5 784.13,-179.5 676.13,-179.5"/>
<text text-anchor="start" x="684.13" y="-197.5" font-family="Helvetica,sans-Serif" font-size="10.00">socket/sock_stream</text>
<text text-anchor="middle" x="730.13" y="-186.5" font-family="Helvetica,sans-Serif" font-size="10.00">/SocketConnection.h</text>
</a>
</g>
</g>
<!-- Node4&#45;&gt;Node5 -->
<g id="edge4" class="edge">
<title>Node4&#45;&gt;Node5</title>
<path fill="none" stroke="midnightblue" d="M621.73,-251.87C640.02,-242.36 670,-226.77 693.8,-214.39"/>
<polygon fill="midnightblue" stroke="midnightblue" points="695.66,-217.37 702.91,-209.65 692.43,-211.16 695.66,-217.37"/>
</g>
<!-- Node8 -->
<g id="node8" class="node">
<title>Node8</title>
<g id="a_node8"><a xlink:href="tls_2_socket_reader_8h.html" target="_top" xlink:title=" ">
<polygon fill="white" stroke="black" points="352.63,-179.5 352.63,-209.5 457.63,-209.5 457.63,-179.5 352.63,-179.5"/>
<text text-anchor="start" x="360.63" y="-197.5" font-family="Helvetica,sans-Serif" font-size="10.00">socket/sock_stream</text>
<text text-anchor="middle" x="405.13" y="-186.5" font-family="Helvetica,sans-Serif" font-size="10.00">/tls/SocketReader.h</text>
</a>
</g>
</g>
<!-- Node4&#45;&gt;Node8 -->
<g id="edge7" class="edge">
<title>Node4&#45;&gt;Node8</title>
<path fill="none" stroke="midnightblue" d="M578.57,-251.87C547.91,-241.9 496.72,-225.27 457.88,-212.64"/>
<polygon fill="midnightblue" stroke="midnightblue" points="458.88,-209.29 448.29,-209.53 456.72,-215.95 458.88,-209.29"/>
</g>
<!-- Node16 -->
<g id="node16" class="node">
<title>Node16</title>
<g id="a_node16"><a xlink:href="tls_2_socket_writer_8h.html" target="_top" xlink:title=" ">
<polygon fill="white" stroke="black" points="552.63,-179.5 552.63,-209.5 657.63,-209.5 657.63,-179.5 552.63,-179.5"/>
<text text-anchor="start" x="560.63" y="-197.5" font-family="Helvetica,sans-Serif" font-size="10.00">socket/sock_stream</text>
<text text-anchor="middle" x="605.13" y="-186.5" font-family="Helvetica,sans-Serif" font-size="10.00">/tls/SocketWriter.h</text>
</a>
</g>
</g>
<!-- Node4&#45;&gt;Node16 -->
<g id="edge19" class="edge">
<title>Node4&#45;&gt;Node16</title>
<path fill="none" stroke="midnightblue" d="M605.13,-251.73C605.13,-243.54 605.13,-230.92 605.13,-219.71"/>
<polygon fill="midnightblue" stroke="midnightblue" points="608.63,-219.59 605.13,-209.59 601.63,-219.59 608.63,-219.59"/>
</g>
<!-- Node6 -->
<g id="node6" class="node">
<title>Node6</title>
<g id="a_node6"><a xlink:href="_socket_connection_base_8h.html" target="_top" xlink:title=" ">
<polygon fill="white" stroke="black" points="875.13,-118 875.13,-137 1003.13,-137 1003.13,-118 875.13,-118"/>
<text text-anchor="middle" x="939.13" y="-125" font-family="Helvetica,sans-Serif" font-size="10.00">SocketConnectionBase.h</text>
</a>
</g>
</g>
<!-- Node5&#45;&gt;Node6 -->
<g id="edge5" class="edge">
<title>Node5&#45;&gt;Node6</title>
<path fill="none" stroke="midnightblue" d="M775.22,-179.48C813.01,-167.72 866.32,-151.14 901.76,-140.12"/>
<polygon fill="midnightblue" stroke="midnightblue" points="903.2,-143.34 911.71,-137.03 901.12,-136.66 903.2,-143.34"/>
</g>
<!-- Node7 -->
<g id="node7" class="node">
<title>Node7</title>
<g id="a_node7"><a xlink:href="_attribute_injector_8h.html" target="_top" xlink:title=" ">
<polygon fill="white" stroke="black" points="892.63,-56.5 892.63,-75.5 985.63,-75.5 985.63,-56.5 892.63,-56.5"/>
<text text-anchor="middle" x="939.13" y="-63.5" font-family="Helvetica,sans-Serif" font-size="10.00">AttributeInjector.h</text>
</a>
</g>
</g>
<!-- Node6&#45;&gt;Node7 -->
<g id="edge6" class="edge">
<title>Node6&#45;&gt;Node7</title>
<path fill="none" stroke="midnightblue" d="M939.13,-117.98C939.13,-109.58 939.13,-96.48 939.13,-85.66"/>
<polygon fill="midnightblue" stroke="midnightblue" points="942.63,-85.51 939.13,-75.51 935.63,-85.51 942.63,-85.51"/>
</g>
<!-- Node8&#45;&gt;Node3 -->
<g id="edge9" class="edge">
<title>Node8&#45;&gt;Node3</title>
<path fill="none" stroke="midnightblue" d="M421.19,-179.4C433.07,-168.96 449.24,-154.75 461.48,-144"/>
<polygon fill="midnightblue" stroke="midnightblue" points="464.03,-146.42 469.23,-137.19 459.41,-141.16 464.03,-146.42"/>
</g>
<!-- Node9 -->
<g id="node9" class="node">
<title>Node9</title>
<g id="a_node9"><a xlink:href="_descriptor_8h.html" target="_top" xlink:title=" ">
<polygon fill="white" stroke="black" points="326.63,-118 326.63,-137 395.63,-137 395.63,-118 326.63,-118"/>
<text text-anchor="middle" x="361.13" y="-125" font-family="Helvetica,sans-Serif" font-size="10.00">Descriptor.h</text>
</a>
</g>
</g>
<!-- Node8&#45;&gt;Node9 -->
<g id="edge8" class="edge">
<title>Node8&#45;&gt;Node9</title>
<path fill="none" stroke="midnightblue" d="M395.58,-179.4C388.86,-169.46 379.82,-156.11 372.68,-145.57"/>
<polygon fill="midnightblue" stroke="midnightblue" points="375.52,-143.51 367.01,-137.19 369.72,-147.44 375.52,-143.51"/>
</g>
<!-- Node8&#45;&gt;Node10 -->
<g id="edge10" class="edge">
<title>Node8&#45;&gt;Node10</title>
<path fill="none" stroke="midnightblue" d="M457.84,-181.35C510.19,-169.28 589.7,-150.96 640.01,-139.36"/>
<polygon fill="midnightblue" stroke="midnightblue" points="641.01,-142.72 649.97,-137.07 639.44,-135.9 641.01,-142.72"/>
</g>
<!-- Node13 -->
<g id="node13" class="node">
<title>Node13</title>
<g id="a_node13"><a xlink:href="_write_event_receiver_8h.html" target="_top" xlink:title=" ">
<polygon fill="white" stroke="black" points="499.63,-56.5 499.63,-75.5 610.63,-75.5 610.63,-56.5 499.63,-56.5"/>
<text text-anchor="middle" x="555.13" y="-63.5" font-family="Helvetica,sans-Serif" font-size="10.00">WriteEventReceiver.h</text>
</a>
</g>
</g>
<!-- Node8&#45;&gt;Node13 -->
<g id="edge15" class="edge">
<title>Node8&#45;&gt;Node13</title>
<path fill="none" stroke="midnightblue" d="M408.34,-179.21C413.06,-161.26 423.52,-130.57 443.13,-112 460.07,-95.95 483.47,-85.35 504.5,-78.49"/>
<polygon fill="midnightblue" stroke="midnightblue" points="505.73,-81.78 514.27,-75.51 503.69,-75.08 505.73,-81.78"/>
</g>
<!-- Node14 -->
<g id="node14" class="node">
<title>Node14</title>
<g id="a_node14"><a xlink:href="_socket_reader_8h.html" target="_top" xlink:title=" ">
<polygon fill="white" stroke="black" points="203.63,-112.5 203.63,-142.5 308.63,-142.5 308.63,-112.5 203.63,-112.5"/>
<text text-anchor="start" x="211.63" y="-130.5" font-family="Helvetica,sans-Serif" font-size="10.00">socket/sock_stream</text>
<text text-anchor="middle" x="256.13" y="-119.5" font-family="Helvetica,sans-Serif" font-size="10.00">/SocketReader.h</text>
</a>
</g>
</g>
<!-- Node8&#45;&gt;Node14 -->
<g id="edge16" class="edge">
<title>Node8&#45;&gt;Node14</title>
<path fill="none" stroke="midnightblue" d="M372.8,-179.4C350.83,-169.81 321.57,-157.05 297.85,-146.7"/>
<polygon fill="midnightblue" stroke="midnightblue" points="298.96,-143.37 288.4,-142.58 296.16,-149.78 298.96,-143.37"/>
</g>
<!-- Node8&#45;&gt;Node15 -->
<g id="edge18" class="edge">
<title>Node8&#45;&gt;Node15</title>
<path fill="none" stroke="midnightblue" d="M437.46,-179.4C463.6,-167.99 500.08,-152.08 525.25,-141.1"/>
<polygon fill="midnightblue" stroke="midnightblue" points="526.86,-144.21 534.63,-137.01 524.06,-137.8 526.86,-144.21"/>
</g>
<!-- Node11 -->
<g id="node11" class="node">
<title>Node11</title>
<g id="a_node11"><a xlink:href="_read_event_receiver_8h.html" target="_top" xlink:title=" ">
<polygon fill="white" stroke="black" points="284.13,-56.5 284.13,-75.5 396.13,-75.5 396.13,-56.5 284.13,-56.5"/>
<text text-anchor="middle" x="340.13" y="-63.5" font-family="Helvetica,sans-Serif" font-size="10.00">ReadEventReceiver.h</text>
</a>
</g>
</g>
<!-- Node10&#45;&gt;Node11 -->
<g id="edge11" class="edge">
<title>Node10&#45;&gt;Node11</title>
<path fill="none" stroke="midnightblue" d="M653.91,-117.96C645.23,-115.87 635.85,-113.74 627.13,-112 551.88,-97.03 464.72,-83.97 406.38,-75.82"/>
<polygon fill="midnightblue" stroke="midnightblue" points="406.58,-72.32 396.19,-74.41 405.62,-79.25 406.58,-72.32"/>
</g>
<!-- Node10&#45;&gt;Node13 -->
<g id="edge13" class="edge">
<title>Node10&#45;&gt;Node13</title>
<path fill="none" stroke="midnightblue" d="M668.22,-117.98C645.97,-107.95 608.82,-91.2 583.2,-79.65"/>
<polygon fill="midnightblue" stroke="midnightblue" points="584.56,-76.43 574.01,-75.51 581.68,-82.81 584.56,-76.43"/>
</g>
<!-- Node12 -->
<g id="node12" class="node">
<title>Node12</title>
<g id="a_node12"><a xlink:href="_event_receiver_8h.html" target="_top" xlink:title=" ">
<polygon fill="white" stroke="black" points="295.63,-0.5 295.63,-19.5 384.63,-19.5 384.63,-0.5 295.63,-0.5"/>
<text text-anchor="middle" x="340.13" y="-7.5" font-family="Helvetica,sans-Serif" font-size="10.00">EventReceiver.h</text>
</a>
</g>
</g>
<!-- Node11&#45;&gt;Node12 -->
<g id="edge12" class="edge">
<title>Node11&#45;&gt;Node12</title>
<path fill="none" stroke="midnightblue" d="M340.13,-56.08C340.13,-49.01 340.13,-38.86 340.13,-29.99"/>
<polygon fill="midnightblue" stroke="midnightblue" points="343.63,-29.75 340.13,-19.75 336.63,-29.75 343.63,-29.75"/>
</g>
<!-- Node13&#45;&gt;Node12 -->
<g id="edge14" class="edge">
<title>Node13&#45;&gt;Node12</title>
<path fill="none" stroke="midnightblue" d="M521.06,-56.44C483.95,-47.12 424.47,-32.18 383.91,-22"/>
<polygon fill="midnightblue" stroke="midnightblue" points="384.59,-18.56 374.04,-19.52 382.88,-25.35 384.59,-18.56"/>
</g>
<!-- Node14&#45;&gt;Node11 -->
<g id="edge17" class="edge">
<title>Node14&#45;&gt;Node11</title>
<path fill="none" stroke="midnightblue" d="M276.04,-112.4C289.12,-103.13 306.21,-91.03 319.45,-81.65"/>
<polygon fill="midnightblue" stroke="midnightblue" points="321.77,-84.29 327.91,-75.66 317.72,-78.58 321.77,-84.29"/>
</g>
<!-- Node16&#45;&gt;Node3 -->
<g id="edge21" class="edge">
<title>Node16&#45;&gt;Node3</title>
<path fill="none" stroke="midnightblue" d="M577.79,-179.4C556.07,-168.19 525.93,-152.64 504.69,-141.69"/>
<polygon fill="midnightblue" stroke="midnightblue" points="506.11,-138.48 495.62,-137.01 502.9,-144.7 506.11,-138.48"/>
</g>
<!-- Node16&#45;&gt;Node9 -->
<g id="edge20" class="edge">
<title>Node16&#45;&gt;Node9</title>
<path fill="none" stroke="midnightblue" d="M552.48,-179.48C507.7,-167.55 444.25,-150.64 402.9,-139.63"/>
<polygon fill="midnightblue" stroke="midnightblue" points="403.71,-136.22 393.14,-137.03 401.91,-142.98 403.71,-136.22"/>
</g>
<!-- Node16&#45;&gt;Node10 -->
<g id="edge23" class="edge">
<title>Node16&#45;&gt;Node10</title>
<path fill="none" stroke="midnightblue" d="M622.92,-179.4C636.21,-168.86 654.36,-154.48 667.97,-143.69"/>
<polygon fill="midnightblue" stroke="midnightblue" points="670.5,-146.15 676.16,-137.19 666.15,-140.66 670.5,-146.15"/>
</g>
<!-- Node16&#45;&gt;Node11 -->
<g id="edge22" class="edge">
<title>Node16&#45;&gt;Node11</title>
<path fill="none" stroke="midnightblue" d="M607.56,-179.27C609.78,-161.09 610.46,-129.86 593.13,-112 567.87,-85.98 472.68,-74.86 406.55,-70.21"/>
<polygon fill="midnightblue" stroke="midnightblue" points="406.42,-66.69 396.21,-69.52 405.95,-73.68 406.42,-66.69"/>
</g>
<!-- Node16&#45;&gt;Node15 -->
<g id="edge26" class="edge">
<title>Node16&#45;&gt;Node15</title>
<path fill="none" stroke="midnightblue" d="M594.06,-179.4C586.19,-169.36 575.58,-155.84 567.27,-145.25"/>
<polygon fill="midnightblue" stroke="midnightblue" points="569.88,-142.9 560.95,-137.19 564.37,-147.22 569.88,-142.9"/>
</g>
<!-- Node17 -->
<g id="node17" class="node">
<title>Node17</title>
<g id="a_node17"><a xlink:href="_socket_writer_8h.html" target="_top" xlink:title=" ">
<polygon fill="white" stroke="black" points="751.63,-112.5 751.63,-142.5 856.63,-142.5 856.63,-112.5 751.63,-112.5"/>
<text text-anchor="start" x="759.63" y="-130.5" font-family="Helvetica,sans-Serif" font-size="10.00">socket/sock_stream</text>
<text text-anchor="middle" x="804.13" y="-119.5" font-family="Helvetica,sans-Serif" font-size="10.00">/SocketWriter.h</text>
</a>
</g>
</g>
<!-- Node16&#45;&gt;Node17 -->
<g id="edge24" class="edge">
<title>Node16&#45;&gt;Node17</title>
<path fill="none" stroke="midnightblue" d="M648.31,-179.4C678.56,-169.52 719.16,-156.25 751.34,-145.74"/>
<polygon fill="midnightblue" stroke="midnightblue" points="752.61,-149.01 761.03,-142.58 750.44,-142.35 752.61,-149.01"/>
</g>
<!-- Node17&#45;&gt;Node13 -->
<g id="edge25" class="edge">
<title>Node17&#45;&gt;Node13</title>
<path fill="none" stroke="midnightblue" d="M751.63,-113.95C706.85,-103.25 643.13,-88.03 600.52,-77.85"/>
<polygon fill="midnightblue" stroke="midnightblue" points="601.24,-74.42 590.7,-75.5 599.62,-81.23 601.24,-74.42"/>
</g>
<!-- Node18&#45;&gt;Node11 -->
<g id="edge31" class="edge">
<title>Node18&#45;&gt;Node11</title>
<path fill="none" stroke="midnightblue" d="M155.45,-246.35C104.34,-220.17 9.14,-162.22 52.13,-112 66.39,-95.34 193.37,-80.61 273.89,-72.83"/>
<polygon fill="midnightblue" stroke="midnightblue" points="274.34,-76.31 283.96,-71.88 273.67,-69.34 274.34,-76.31"/>
</g>
<!-- Node19 -->
<g id="node19" class="node">
<title>Node19</title>
<g id="a_node19"><a xlink:href="_connect_event_receiver_8h.html" target="_top" xlink:title=" ">
<polygon fill="white" stroke="black" points="78.63,-56.5 78.63,-75.5 203.63,-75.5 203.63,-56.5 78.63,-56.5"/>
<text text-anchor="middle" x="141.13" y="-63.5" font-family="Helvetica,sans-Serif" font-size="10.00">ConnectEventReceiver.h</text>
</a>
</g>
</g>
<!-- Node18&#45;&gt;Node19 -->
<g id="edge29" class="edge">
<title>Node18&#45;&gt;Node19</title>
<path fill="none" stroke="midnightblue" d="M132.44,-259.97C94.25,-256.47 44.95,-244.85 19.13,-210 -6.8,-175.01 -5.78,-147.73 19.13,-112 30.78,-95.28 49.38,-84.76 68.58,-78.14"/>
<polygon fill="midnightblue" stroke="midnightblue" points="69.82,-81.42 78.33,-75.11 67.74,-74.74 69.82,-81.42"/>
</g>
<!-- Node20 -->
<g id="node20" class="node">
<title>Node20</title>
<g id="a_node20"><a xlink:href="_socket_8h.html" target="_top" xlink:title=" ">
<polygon fill="white" stroke="black" points="141.13,-185 141.13,-204 229.13,-204 229.13,-185 141.13,-185"/>
<text text-anchor="middle" x="185.13" y="-192" font-family="Helvetica,sans-Serif" font-size="10.00">socket/Socket.h</text>
</a>
</g>
</g>
<!-- Node18&#45;&gt;Node20 -->
<g id="edge32" class="edge">
<title>Node18&#45;&gt;Node20</title>
<path fill="none" stroke="midnightblue" d="M185.13,-246.4C185.13,-237.06 185.13,-224.71 185.13,-214.52"/>
<polygon fill="midnightblue" stroke="midnightblue" points="188.63,-214.19 185.13,-204.19 181.63,-214.19 188.63,-214.19"/>
</g>
<!-- Node19&#45;&gt;Node12 -->
<g id="edge30" class="edge">
<title>Node19&#45;&gt;Node12</title>
<path fill="none" stroke="midnightblue" d="M172.66,-56.44C206.72,-47.2 261.13,-32.44 298.64,-22.26"/>
<polygon fill="midnightblue" stroke="midnightblue" points="300.01,-25.51 308.74,-19.52 298.18,-18.76 300.01,-25.51"/>
</g>
<!-- Node20&#45;&gt;Node9 -->
<g id="edge33" class="edge">
<title>Node20&#45;&gt;Node9</title>
<path fill="none" stroke="midnightblue" d="M208.5,-184.87C239.22,-173.52 293.37,-153.52 328.22,-140.65"/>
<polygon fill="midnightblue" stroke="midnightblue" points="329.77,-143.81 337.94,-137.06 327.35,-137.24 329.77,-143.81"/>
</g>
<!-- Node21 -->
<g id="node21" class="node">
<title>Node21</title>
<g id="a_node21"><a xlink:href="_socket_address_8h.html" target="_top" xlink:title=" ">
<polygon fill="white" stroke="black" points="61.13,-118 61.13,-137 185.13,-137 185.13,-118 61.13,-118"/>
<text text-anchor="middle" x="123.13" y="-125" font-family="Helvetica,sans-Serif" font-size="10.00">socket/SocketAddress.h</text>
</a>
</g>
</g>
<!-- Node20&#45;&gt;Node21 -->
<g id="edge34" class="edge">
<title>Node20&#45;&gt;Node21</title>
<path fill="none" stroke="midnightblue" d="M176.77,-184.73C167.01,-174.5 150.66,-157.36 138.57,-144.69"/>
<polygon fill="midnightblue" stroke="midnightblue" points="140.79,-141.95 131.36,-137.13 135.73,-146.78 140.79,-141.95"/>
</g>
<!-- Node22&#45;&gt;Node18 -->
<g id="edge37" class="edge">
<title>Node22&#45;&gt;Node18</title>
<path fill="none" stroke="midnightblue" d="M234.46,-313.4C226.12,-304.79 215.3,-293.63 205.91,-283.94"/>
<polygon fill="midnightblue" stroke="midnightblue" points="208.24,-281.32 198.77,-276.58 203.22,-286.19 208.24,-281.32"/>
</g>
</g>
</svg>
