<?xml version="1.0" encoding="UTF-8" standalone="no"?>
<!DOCTYPE svg PUBLIC "-//W3C//DTD SVG 1.1//EN"
 "http://www.w3.org/Graphics/SVG/1.1/DTD/svg11.dtd">
<!-- Generated by graphviz version 2.43.0 (0)
 -->
<!-- Title: net/socket/sock_stream/tls/SocketClient.h Pages: 1 -->
<svg width="1151pt" height="419pt"
 viewBox="0.00 0.00 1151.45 419.00" xmlns="http://www.w3.org/2000/svg" xmlns:xlink="http://www.w3.org/1999/xlink">
<g id="graph0" class="graph" transform="scale(1 1) rotate(0) translate(4 415)">
<title>net/socket/sock_stream/tls/SocketClient.h</title>
<polygon fill="white" stroke="transparent" points="-4,4 -4,-415 1147.45,-415 1147.45,4 -4,4"/>
<!-- Node1 -->
<g id="node1" class="node">
<title>Node1</title>
<g id="a_node1"><a xlink:title=" ">
<polygon fill="#bfbfbf" stroke="black" points="515.95,-380.5 515.95,-410.5 637.95,-410.5 637.95,-380.5 515.95,-380.5"/>
<text text-anchor="start" x="523.95" y="-398.5" font-family="Helvetica,sans-Serif" font-size="10.00">net/socket/sock_stream</text>
<text text-anchor="middle" x="576.95" y="-387.5" font-family="Helvetica,sans-Serif" font-size="10.00">/tls/SocketClient.h</text>
</a>
</g>
</g>
<!-- Node2 -->
<g id="node2" class="node">
<title>Node2</title>
<g id="a_node2"><a xlink:href="tls_2_socket_connector_8h.html" target="_top" xlink:title=" ">
<polygon fill="white" stroke="black" points="466.95,-319 466.95,-338 566.95,-338 566.95,-319 466.95,-319"/>
<text text-anchor="middle" x="516.95" y="-326" font-family="Helvetica,sans-Serif" font-size="10.00">SocketConnector.h</text>
</a>
</g>
</g>
<!-- Node1&#45;&gt;Node2 -->
<g id="edge1" class="edge">
<title>Node1&#45;&gt;Node2</title>
<path fill="none" stroke="midnightblue" d="M563.93,-380.4C554.48,-370.16 541.68,-356.3 531.83,-345.62"/>
<polygon fill="midnightblue" stroke="midnightblue" points="534.33,-343.17 524.97,-338.19 529.19,-347.92 534.33,-343.17"/>
</g>
<!-- Node24 -->
<g id="node24" class="node">
<title>Node24</title>
<g id="a_node24"><a xlink:href="sock__stream_2_socket_client_8h.html" target="_top" xlink:title=" ">
<polygon fill="white" stroke="black" points="628.45,-313.5 628.45,-343.5 733.45,-343.5 733.45,-313.5 628.45,-313.5"/>
<text text-anchor="start" x="636.45" y="-331.5" font-family="Helvetica,sans-Serif" font-size="10.00">socket/sock_stream</text>
<text text-anchor="middle" x="680.95" y="-320.5" font-family="Helvetica,sans-Serif" font-size="10.00">/SocketClient.h</text>
</a>
</g>
</g>
<!-- Node1&#45;&gt;Node24 -->
<g id="edge39" class="edge">
<title>Node1&#45;&gt;Node24</title>
<path fill="none" stroke="midnightblue" d="M599.52,-380.4C614.23,-371.2 633.64,-359.07 649.82,-348.95"/>
<polygon fill="midnightblue" stroke="midnightblue" points="651.8,-351.84 658.43,-343.58 648.09,-345.91 651.8,-351.84"/>
</g>
<!-- Node3 -->
<g id="node3" class="node">
<title>Node3</title>
<g id="a_node3"><a xlink:href="_logger_8h.html" target="_top" xlink:title=" ">
<polygon fill="white" stroke="black" points="232.45,-56.5 232.45,-75.5 285.45,-75.5 285.45,-56.5 232.45,-56.5"/>
<text text-anchor="middle" x="258.95" y="-63.5" font-family="Helvetica,sans-Serif" font-size="10.00">Logger.h</text>
</a>
</g>
</g>
<!-- Node2&#45;&gt;Node3 -->
<g id="edge2" class="edge">
<title>Node2&#45;&gt;Node3</title>
<path fill="none" stroke="midnightblue" d="M466.69,-325.06C405.96,-320.76 301.53,-308.99 217.95,-277 113.85,-237.16 59.74,-240.63 5.95,-143 -0.7,-130.93 -2.9,-122.56 5.95,-112 19.72,-95.57 155.44,-78.44 222.22,-70.93"/>
<polygon fill="midnightblue" stroke="midnightblue" points="222.77,-74.39 232.32,-69.81 221.99,-67.43 222.77,-74.39"/>
</g>
<!-- Node4 -->
<g id="node4" class="node">
<title>Node4</title>
<g id="a_node4"><a xlink:href="tls_2_socket_connection_8h.html" target="_top" xlink:title=" ">
<polygon fill="white" stroke="black" points="379.45,-252 379.45,-271 484.45,-271 484.45,-252 379.45,-252"/>
<text text-anchor="middle" x="431.95" y="-259" font-family="Helvetica,sans-Serif" font-size="10.00">SocketConnection.h</text>
</a>
</g>
</g>
<!-- Node2&#45;&gt;Node4 -->
<g id="edge3" class="edge">
<title>Node2&#45;&gt;Node4</title>
<path fill="none" stroke="midnightblue" d="M505.49,-318.73C491.59,-308.11 467.97,-290.05 451.26,-277.26"/>
<polygon fill="midnightblue" stroke="midnightblue" points="453.3,-274.42 443.23,-271.13 449.05,-279.98 453.3,-274.42"/>
</g>
<!-- Node10 -->
<g id="node10" class="node">
<title>Node10</title>
<g id="a_node10"><a xlink:href="_t_l_s_handshake_8h.html" target="_top" xlink:title=" ">
<polygon fill="white" stroke="black" points="516.95,-118 516.95,-137 608.95,-137 608.95,-118 516.95,-118"/>
<text text-anchor="middle" x="562.95" y="-125" font-family="Helvetica,sans-Serif" font-size="10.00">TLSHandshake.h</text>
</a>
</g>
</g>
<!-- Node2&#45;&gt;Node10 -->
<g id="edge30" class="edge">
<title>Node2&#45;&gt;Node10</title>
<path fill="none" stroke="midnightblue" d="M520.88,-318.89C529.4,-299.77 549.47,-252.15 557.95,-210 562.22,-188.77 563.17,-163.86 563.25,-147.22"/>
<polygon fill="midnightblue" stroke="midnightblue" points="566.75,-147.15 563.19,-137.17 559.75,-147.19 566.75,-147.15"/>
</g>
<!-- Node16 -->
<g id="node16" class="node">
<title>Node16</title>
<g id="a_node16"><a xlink:href="ssl__utils_8h.html" target="_top" xlink:title=" ">
<polygon fill="white" stroke="black" points="161.45,-118 161.45,-137 222.45,-137 222.45,-118 161.45,-118"/>
<text text-anchor="middle" x="191.95" y="-125" font-family="Helvetica,sans-Serif" font-size="10.00">ssl_utils.h</text>
</a>
</g>
</g>
<!-- Node2&#45;&gt;Node16 -->
<g id="edge38" class="edge">
<title>Node2&#45;&gt;Node16</title>
<path fill="none" stroke="midnightblue" d="M466.74,-326.6C390.9,-322.2 249.19,-301.42 184.95,-210 171.91,-191.44 177.87,-164.31 184.19,-146.53"/>
<polygon fill="midnightblue" stroke="midnightblue" points="187.52,-147.64 187.92,-137.05 181,-145.08 187.52,-147.64"/>
</g>
<!-- Node20 -->
<g id="node20" class="node">
<title>Node20</title>
<g id="a_node20"><a xlink:href="_socket_connector_8h.html" target="_top" xlink:title=" ">
<polygon fill="white" stroke="black" points="728.45,-246.5 728.45,-276.5 833.45,-276.5 833.45,-246.5 728.45,-246.5"/>
<text text-anchor="start" x="736.45" y="-264.5" font-family="Helvetica,sans-Serif" font-size="10.00">socket/sock_stream</text>
<text text-anchor="middle" x="780.95" y="-253.5" font-family="Helvetica,sans-Serif" font-size="10.00">/SocketConnector.h</text>
</a>
</g>
</g>
<!-- Node2&#45;&gt;Node20 -->
<g id="edge31" class="edge">
<title>Node2&#45;&gt;Node20</title>
<path fill="none" stroke="midnightblue" d="M551.73,-318.94C594.09,-308.51 666.41,-290.7 718.5,-277.88"/>
<polygon fill="midnightblue" stroke="midnightblue" points="719.43,-281.25 728.31,-275.46 717.76,-274.45 719.43,-281.25"/>
</g>
<!-- Node5 -->
<g id="node5" class="node">
<title>Node5</title>
<g id="a_node5"><a xlink:href="_socket_connection_8h.html" target="_top" xlink:title=" ">
<polygon fill="white" stroke="black" points="193.95,-179.5 193.95,-209.5 301.95,-209.5 301.95,-179.5 193.95,-179.5"/>
<text text-anchor="start" x="201.95" y="-197.5" font-family="Helvetica,sans-Serif" font-size="10.00">socket/sock_stream</text>
<text text-anchor="middle" x="247.95" y="-186.5" font-family="Helvetica,sans-Serif" font-size="10.00">/SocketConnection.h</text>
</a>
</g>
</g>
<!-- Node4&#45;&gt;Node5 -->
<g id="edge4" class="edge">
<title>Node4&#45;&gt;Node5</title>
<path fill="none" stroke="midnightblue" d="M407.51,-251.87C379.55,-241.99 333.01,-225.55 297.39,-212.97"/>
<polygon fill="midnightblue" stroke="midnightblue" points="298.25,-209.56 287.66,-209.53 295.92,-216.16 298.25,-209.56"/>
</g>
<!-- Node8 -->
<g id="node8" class="node">
<title>Node8</title>
<g id="a_node8"><a xlink:href="tls_2_socket_reader_8h.html" target="_top" xlink:title=" ">
<polygon fill="white" stroke="black" points="443.45,-179.5 443.45,-209.5 548.45,-209.5 548.45,-179.5 443.45,-179.5"/>
<text text-anchor="start" x="451.45" y="-197.5" font-family="Helvetica,sans-Serif" font-size="10.00">socket/sock_stream</text>
<text text-anchor="middle" x="495.95" y="-186.5" font-family="Helvetica,sans-Serif" font-size="10.00">/tls/SocketReader.h</text>
</a>
</g>
</g>
<!-- Node4&#45;&gt;Node8 -->
<g id="edge7" class="edge">
<title>Node4&#45;&gt;Node8</title>
<path fill="none" stroke="midnightblue" d="M440.58,-251.73C449.31,-242.86 463.15,-228.81 474.81,-216.97"/>
<polygon fill="midnightblue" stroke="midnightblue" points="477.55,-219.17 482.08,-209.59 472.57,-214.26 477.55,-219.17"/>
</g>
<!-- Node17 -->
<g id="node17" class="node">
<title>Node17</title>
<g id="a_node17"><a xlink:href="tls_2_socket_writer_8h.html" target="_top" xlink:title=" ">
<polygon fill="white" stroke="black" points="320.45,-179.5 320.45,-209.5 425.45,-209.5 425.45,-179.5 320.45,-179.5"/>
<text text-anchor="start" x="328.45" y="-197.5" font-family="Helvetica,sans-Serif" font-size="10.00">socket/sock_stream</text>
<text text-anchor="middle" x="372.95" y="-186.5" font-family="Helvetica,sans-Serif" font-size="10.00">/tls/SocketWriter.h</text>
</a>
</g>
</g>
<!-- Node4&#45;&gt;Node17 -->
<g id="edge20" class="edge">
<title>Node4&#45;&gt;Node17</title>
<path fill="none" stroke="midnightblue" d="M423.99,-251.73C416.02,-242.95 403.43,-229.08 392.75,-217.31"/>
<polygon fill="midnightblue" stroke="midnightblue" points="395.05,-214.64 385.74,-209.59 389.87,-219.35 395.05,-214.64"/>
</g>
<!-- Node6 -->
<g id="node6" class="node">
<title>Node6</title>
<g id="a_node6"><a xlink:href="_socket_connection_base_8h.html" target="_top" xlink:title=" ">
<polygon fill="white" stroke="black" points="14.95,-118 14.95,-137 142.95,-137 142.95,-118 14.95,-118"/>
<text text-anchor="middle" x="78.95" y="-125" font-family="Helvetica,sans-Serif" font-size="10.00">SocketConnectionBase.h</text>
</a>
</g>
</g>
<!-- Node5&#45;&gt;Node6 -->
<g id="edge5" class="edge">
<title>Node5&#45;&gt;Node6</title>
<path fill="none" stroke="midnightblue" d="M211.28,-179.4C181.23,-167.84 139.15,-151.66 110.57,-140.66"/>
<polygon fill="midnightblue" stroke="midnightblue" points="111.66,-137.33 101.07,-137.01 109.14,-143.86 111.66,-137.33"/>
</g>
<!-- Node7 -->
<g id="node7" class="node">
<title>Node7</title>
<g id="a_node7"><a xlink:href="_attribute_injector_8h.html" target="_top" xlink:title=" ">
<polygon fill="white" stroke="black" points="32.45,-56.5 32.45,-75.5 125.45,-75.5 125.45,-56.5 32.45,-56.5"/>
<text text-anchor="middle" x="78.95" y="-63.5" font-family="Helvetica,sans-Serif" font-size="10.00">AttributeInjector.h</text>
</a>
</g>
</g>
<!-- Node6&#45;&gt;Node7 -->
<g id="edge6" class="edge">
<title>Node6&#45;&gt;Node7</title>
<path fill="none" stroke="midnightblue" d="M78.95,-117.98C78.95,-109.58 78.95,-96.48 78.95,-85.66"/>
<polygon fill="midnightblue" stroke="midnightblue" points="82.45,-85.51 78.95,-75.51 75.45,-85.51 82.45,-85.51"/>
</g>
<!-- Node8&#45;&gt;Node3 -->
<g id="edge9" class="edge">
<title>Node8&#45;&gt;Node3</title>
<path fill="none" stroke="midnightblue" d="M443.02,-180.19C389.71,-166.63 314.53,-147.04 308.95,-143 288.6,-128.28 274.24,-102.53 266.28,-85.13"/>
<polygon fill="midnightblue" stroke="midnightblue" points="269.32,-83.34 262.15,-75.54 262.9,-86.11 269.32,-83.34"/>
</g>
<!-- Node9 -->
<g id="node9" class="node">
<title>Node9</title>
<g id="a_node9"><a xlink:href="_descriptor_8h.html" target="_top" xlink:title=" ">
<polygon fill="white" stroke="black" points="627.45,-118 627.45,-137 696.45,-137 696.45,-118 627.45,-118"/>
<text text-anchor="middle" x="661.95" y="-125" font-family="Helvetica,sans-Serif" font-size="10.00">Descriptor.h</text>
</a>
</g>
</g>
<!-- Node8&#45;&gt;Node9 -->
<g id="edge8" class="edge">
<title>Node8&#45;&gt;Node9</title>
<path fill="none" stroke="midnightblue" d="M531.97,-179.4C561.48,-167.84 602.81,-151.66 630.89,-140.66"/>
<polygon fill="midnightblue" stroke="midnightblue" points="632.19,-143.91 640.22,-137.01 629.64,-137.39 632.19,-143.91"/>
</g>
<!-- Node8&#45;&gt;Node10 -->
<g id="edge10" class="edge">
<title>Node8&#45;&gt;Node10</title>
<path fill="none" stroke="midnightblue" d="M510.49,-179.4C521.14,-169.06 535.61,-155.02 546.65,-144.31"/>
<polygon fill="midnightblue" stroke="midnightblue" points="549.25,-146.67 553.99,-137.19 544.37,-141.65 549.25,-146.67"/>
</g>
<!-- Node13 -->
<g id="node13" class="node">
<title>Node13</title>
<g id="a_node13"><a xlink:href="_write_event_receiver_8h.html" target="_top" xlink:title=" ">
<polygon fill="white" stroke="black" points="447.45,-56.5 447.45,-75.5 558.45,-75.5 558.45,-56.5 447.45,-56.5"/>
<text text-anchor="middle" x="502.95" y="-63.5" font-family="Helvetica,sans-Serif" font-size="10.00">WriteEventReceiver.h</text>
</a>
</g>
</g>
<!-- Node8&#45;&gt;Node13 -->
<g id="edge15" class="edge">
<title>Node8&#45;&gt;Node13</title>
<path fill="none" stroke="midnightblue" d="M496.72,-179.48C497.98,-156.72 500.48,-111.7 501.89,-86.06"/>
<polygon fill="midnightblue" stroke="midnightblue" points="505.4,-85.97 502.46,-75.79 498.42,-85.58 505.4,-85.97"/>
</g>
<!-- Node14 -->
<g id="node14" class="node">
<title>Node14</title>
<g id="a_node14"><a xlink:href="_socket_reader_8h.html" target="_top" xlink:title=" ">
<polygon fill="white" stroke="black" points="714.45,-112.5 714.45,-142.5 819.45,-142.5 819.45,-112.5 714.45,-112.5"/>
<text text-anchor="start" x="722.45" y="-130.5" font-family="Helvetica,sans-Serif" font-size="10.00">socket/sock_stream</text>
<text text-anchor="middle" x="766.95" y="-119.5" font-family="Helvetica,sans-Serif" font-size="10.00">/SocketReader.h</text>
</a>
</g>
</g>
<!-- Node8&#45;&gt;Node14 -->
<g id="edge16" class="edge">
<title>Node8&#45;&gt;Node14</title>
<path fill="none" stroke="midnightblue" d="M548.52,-180.89C593.07,-170.21 657.05,-154.86 704.25,-143.54"/>
<polygon fill="midnightblue" stroke="midnightblue" points="705.15,-146.92 714.06,-141.19 703.52,-140.11 705.15,-146.92"/>
</g>
<!-- Node8&#45;&gt;Node16 -->
<g id="edge19" class="edge">
<title>Node8&#45;&gt;Node16</title>
<path fill="none" stroke="midnightblue" d="M443.4,-180.91C440.54,-180.26 437.71,-179.62 434.95,-179 364.03,-163.2 281.1,-146.31 232.76,-136.61"/>
<polygon fill="midnightblue" stroke="midnightblue" points="233.19,-133.13 222.7,-134.6 231.82,-139.99 233.19,-133.13"/>
</g>
<!-- Node11 -->
<g id="node11" class="node">
<title>Node11</title>
<g id="a_node11"><a xlink:href="_read_event_receiver_8h.html" target="_top" xlink:title=" ">
<polygon fill="white" stroke="black" points="577.95,-56.5 577.95,-75.5 689.95,-75.5 689.95,-56.5 577.95,-56.5"/>
<text text-anchor="middle" x="633.95" y="-63.5" font-family="Helvetica,sans-Serif" font-size="10.00">ReadEventReceiver.h</text>
</a>
</g>
</g>
<!-- Node10&#45;&gt;Node11 -->
<g id="edge11" class="edge">
<title>Node10&#45;&gt;Node11</title>
<path fill="none" stroke="midnightblue" d="M573.12,-117.98C584.3,-108.61 602.47,-93.38 616.04,-82.01"/>
<polygon fill="midnightblue" stroke="midnightblue" points="618.38,-84.61 623.8,-75.51 613.88,-79.25 618.38,-84.61"/>
</g>
<!-- Node10&#45;&gt;Node13 -->
<g id="edge13" class="edge">
<title>Node10&#45;&gt;Node13</title>
<path fill="none" stroke="midnightblue" d="M554.35,-117.98C545.08,-108.78 530.13,-93.96 518.74,-82.66"/>
<polygon fill="midnightblue" stroke="midnightblue" points="521.09,-80.07 511.53,-75.51 516.17,-85.04 521.09,-80.07"/>
</g>
<!-- Node12 -->
<g id="node12" class="node">
<title>Node12</title>
<g id="a_node12"><a xlink:href="_event_receiver_8h.html" target="_top" xlink:title=" ">
<polygon fill="white" stroke="black" points="589.45,-0.5 589.45,-19.5 678.45,-19.5 678.45,-0.5 589.45,-0.5"/>
<text text-anchor="middle" x="633.95" y="-7.5" font-family="Helvetica,sans-Serif" font-size="10.00">EventReceiver.h</text>
</a>
</g>
</g>
<!-- Node11&#45;&gt;Node12 -->
<g id="edge12" class="edge">
<title>Node11&#45;&gt;Node12</title>
<path fill="none" stroke="midnightblue" d="M633.95,-56.08C633.95,-49.01 633.95,-38.86 633.95,-29.99"/>
<polygon fill="midnightblue" stroke="midnightblue" points="637.45,-29.75 633.95,-19.75 630.45,-29.75 637.45,-29.75"/>
</g>
<!-- Node13&#45;&gt;Node12 -->
<g id="edge14" class="edge">
<title>Node13&#45;&gt;Node12</title>
<path fill="none" stroke="midnightblue" d="M523.71,-56.44C545.27,-47.56 579.21,-33.56 603.74,-23.45"/>
<polygon fill="midnightblue" stroke="midnightblue" points="605.38,-26.56 613.29,-19.52 602.71,-20.09 605.38,-26.56"/>
</g>
<!-- Node14&#45;&gt;Node11 -->
<g id="edge17" class="edge">
<title>Node14&#45;&gt;Node11</title>
<path fill="none" stroke="midnightblue" d="M735.43,-112.4C713.31,-102.51 683.98,-89.38 662.54,-79.79"/>
<polygon fill="midnightblue" stroke="midnightblue" points="663.86,-76.55 653.3,-75.66 661,-82.94 663.86,-76.55"/>
</g>
<!-- Node15 -->
<g id="node15" class="node">
<title>Node15</title>
<g id="a_node15"><a xlink:href="_read_stream_8h.html" target="_top" xlink:title=" ">
<polygon fill="white" stroke="black" points="707.95,-56.5 707.95,-75.5 825.95,-75.5 825.95,-56.5 707.95,-56.5"/>
<text text-anchor="middle" x="766.95" y="-63.5" font-family="Helvetica,sans-Serif" font-size="10.00">streams/ReadStream.h</text>
</a>
</g>
</g>
<!-- Node14&#45;&gt;Node15 -->
<g id="edge18" class="edge">
<title>Node14&#45;&gt;Node15</title>
<path fill="none" stroke="midnightblue" d="M766.95,-112.4C766.95,-104.47 766.95,-94.46 766.95,-85.86"/>
<polygon fill="midnightblue" stroke="midnightblue" points="770.45,-85.66 766.95,-75.66 763.45,-85.66 770.45,-85.66"/>
</g>
<!-- Node17&#45;&gt;Node3 -->
<g id="edge22" class="edge">
<title>Node17&#45;&gt;Node3</title>
<path fill="none" stroke="midnightblue" d="M326.39,-179.41C307.78,-171.53 287.77,-159.82 274.95,-143 262.46,-126.62 259.18,-102.73 258.56,-86.12"/>
<polygon fill="midnightblue" stroke="midnightblue" points="262.06,-85.94 258.48,-75.97 255.06,-86 262.06,-85.94"/>
</g>
<!-- Node17&#45;&gt;Node9 -->
<g id="edge21" class="edge">
<title>Node17&#45;&gt;Node9</title>
<path fill="none" stroke="midnightblue" d="M425.69,-181.03C428.82,-180.33 431.92,-179.65 434.95,-179 515.99,-161.56 537.76,-164.01 617.95,-143 621.32,-142.12 624.81,-141.12 628.28,-140.07"/>
<polygon fill="midnightblue" stroke="midnightblue" points="629.42,-143.38 637.9,-137.02 627.31,-136.7 629.42,-143.38"/>
</g>
<!-- Node17&#45;&gt;Node10 -->
<g id="edge24" class="edge">
<title>Node17&#45;&gt;Node10</title>
<path fill="none" stroke="midnightblue" d="M414.18,-179.4C448.25,-167.74 496.09,-151.37 528.23,-140.38"/>
<polygon fill="midnightblue" stroke="midnightblue" points="529.75,-143.56 538.08,-137.01 527.49,-136.93 529.75,-143.56"/>
</g>
<!-- Node17&#45;&gt;Node11 -->
<g id="edge23" class="edge">
<title>Node17&#45;&gt;Node11</title>
<path fill="none" stroke="midnightblue" d="M393.27,-179.45C419.09,-162.04 465.41,-132.19 507.95,-112 536.39,-98.51 570.02,-86.69 595.39,-78.55"/>
<polygon fill="midnightblue" stroke="midnightblue" points="596.54,-81.86 605.02,-75.51 594.43,-75.19 596.54,-81.86"/>
</g>
<!-- Node17&#45;&gt;Node16 -->
<g id="edge29" class="edge">
<title>Node17&#45;&gt;Node16</title>
<path fill="none" stroke="midnightblue" d="M333.67,-179.4C301.35,-167.79 256.04,-151.51 225.42,-140.52"/>
<polygon fill="midnightblue" stroke="midnightblue" points="226.23,-137.09 215.64,-137.01 223.87,-143.68 226.23,-137.09"/>
</g>
<!-- Node18 -->
<g id="node18" class="node">
<title>Node18</title>
<g id="a_node18"><a xlink:href="_socket_writer_8h.html" target="_top" xlink:title=" ">
<polygon fill="white" stroke="black" points="317.45,-112.5 317.45,-142.5 422.45,-142.5 422.45,-112.5 317.45,-112.5"/>
<text text-anchor="start" x="325.45" y="-130.5" font-family="Helvetica,sans-Serif" font-size="10.00">socket/sock_stream</text>
<text text-anchor="middle" x="369.95" y="-119.5" font-family="Helvetica,sans-Serif" font-size="10.00">/SocketWriter.h</text>
</a>
</g>
</g>
<!-- Node17&#45;&gt;Node18 -->
<g id="edge25" class="edge">
<title>Node17&#45;&gt;Node18</title>
<path fill="none" stroke="midnightblue" d="M372.3,-179.4C371.94,-171.64 371.49,-161.81 371.07,-152.86"/>
<polygon fill="midnightblue" stroke="midnightblue" points="374.56,-152.4 370.6,-142.58 367.56,-152.73 374.56,-152.4"/>
</g>
<!-- Node18&#45;&gt;Node3 -->
<g id="edge26" class="edge">
<title>Node18&#45;&gt;Node3</title>
<path fill="none" stroke="midnightblue" d="M343.64,-112.4C325.68,-102.77 302.02,-90.09 284.28,-80.58"/>
<polygon fill="midnightblue" stroke="midnightblue" points="285.57,-77.3 275.1,-75.66 282.26,-83.47 285.57,-77.3"/>
</g>
<!-- Node18&#45;&gt;Node13 -->
<g id="edge27" class="edge">
<title>Node18&#45;&gt;Node13</title>
<path fill="none" stroke="midnightblue" d="M401.47,-112.4C423.58,-102.51 452.92,-89.38 474.36,-79.79"/>
<polygon fill="midnightblue" stroke="midnightblue" points="475.9,-82.94 483.6,-75.66 473.04,-76.55 475.9,-82.94"/>
</g>
<!-- Node19 -->
<g id="node19" class="node">
<title>Node19</title>
<g id="a_node19"><a xlink:href="_write_stream_8h.html" target="_top" xlink:title=" ">
<polygon fill="white" stroke="black" points="311.45,-56.5 311.45,-75.5 428.45,-75.5 428.45,-56.5 311.45,-56.5"/>
<text text-anchor="middle" x="369.95" y="-63.5" font-family="Helvetica,sans-Serif" font-size="10.00">streams/WriteStream.h</text>
</a>
</g>
</g>
<!-- Node18&#45;&gt;Node19 -->
<g id="edge28" class="edge">
<title>Node18&#45;&gt;Node19</title>
<path fill="none" stroke="midnightblue" d="M369.95,-112.4C369.95,-104.47 369.95,-94.46 369.95,-85.86"/>
<polygon fill="midnightblue" stroke="midnightblue" points="373.45,-85.66 369.95,-75.66 366.45,-85.66 373.45,-85.66"/>
</g>
<!-- Node20&#45;&gt;Node11 -->
<g id="edge34" class="edge">
<title>Node20&#45;&gt;Node11</title>
<path fill="none" stroke="midnightblue" d="M827.02,-246.5C898.38,-222.56 1022.34,-170.64 970.95,-112 932.57,-68.21 774.5,-82.69 699.92,-75.89"/>
<polygon fill="midnightblue" stroke="midnightblue" points="700.29,-72.41 689.97,-74.78 699.52,-79.36 700.29,-72.41"/>
</g>
<!-- Node21 -->
<g id="node21" class="node">
<title>Node21</title>
<g id="a_node21"><a xlink:href="_connect_event_receiver_8h.html" target="_top" xlink:title=" ">
<polygon fill="white" stroke="black" points="1018.45,-185 1018.45,-204 1143.45,-204 1143.45,-185 1018.45,-185"/>
<text text-anchor="middle" x="1080.95" y="-192" font-family="Helvetica,sans-Serif" font-size="10.00">ConnectEventReceiver.h</text>
</a>
</g>
</g>
<!-- Node20&#45;&gt;Node21 -->
<g id="edge32" class="edge">
<title>Node20&#45;&gt;Node21</title>
<path fill="none" stroke="midnightblue" d="M833.55,-249.1C889.39,-237 976.97,-218.03 1031.56,-206.2"/>
<polygon fill="midnightblue" stroke="midnightblue" points="1032.32,-209.62 1041.35,-204.08 1030.84,-202.78 1032.32,-209.62"/>
</g>
<!-- Node22 -->
<g id="node22" class="node">
<title>Node22</title>
<g id="a_node22"><a xlink:href="_socket_8h.html" target="_top" xlink:title=" ">
<polygon fill="white" stroke="black" points="736.95,-185 736.95,-204 824.95,-204 824.95,-185 736.95,-185"/>
<text text-anchor="middle" x="780.95" y="-192" font-family="Helvetica,sans-Serif" font-size="10.00">socket/Socket.h</text>
</a>
</g>
</g>
<!-- Node20&#45;&gt;Node22 -->
<g id="edge35" class="edge">
<title>Node20&#45;&gt;Node22</title>
<path fill="none" stroke="midnightblue" d="M780.95,-246.4C780.95,-237.06 780.95,-224.71 780.95,-214.52"/>
<polygon fill="midnightblue" stroke="midnightblue" points="784.45,-214.19 780.95,-204.19 777.45,-214.19 784.45,-214.19"/>
</g>
<!-- Node21&#45;&gt;Node12 -->
<g id="edge33" class="edge">
<title>Node21&#45;&gt;Node12</title>
<path fill="none" stroke="midnightblue" d="M1073.39,-184.67C1058.93,-168.25 1025.66,-132.82 990.95,-112 893.88,-53.78 761.85,-27.9 688.6,-17.39"/>
<polygon fill="midnightblue" stroke="midnightblue" points="689.05,-13.92 678.66,-16.01 688.09,-20.85 689.05,-13.92"/>
</g>
<!-- Node22&#45;&gt;Node9 -->
<g id="edge36" class="edge">
<title>Node22&#45;&gt;Node9</title>
<path fill="none" stroke="midnightblue" d="M764.9,-184.73C744.83,-173.77 710.25,-154.88 686.75,-142.05"/>
<polygon fill="midnightblue" stroke="midnightblue" points="688.2,-138.85 677.74,-137.13 684.84,-144.99 688.2,-138.85"/>
</g>
<!-- Node23 -->
<g id="node23" class="node">
<title>Node23</title>
<g id="a_node23"><a xlink:href="_socket_address_8h.html" target="_top" xlink:title=" ">
<polygon fill="white" stroke="black" points="837.95,-118 837.95,-137 961.95,-137 961.95,-118 837.95,-118"/>
<text text-anchor="middle" x="899.95" y="-125" font-family="Helvetica,sans-Serif" font-size="10.00">socket/SocketAddress.h</text>
</a>
</g>
</g>
<!-- Node22&#45;&gt;Node23 -->
<g id="edge37" class="edge">
<title>Node22&#45;&gt;Node23</title>
<path fill="none" stroke="midnightblue" d="M797,-184.73C817.07,-173.77 851.65,-154.88 875.14,-142.05"/>
<polygon fill="midnightblue" stroke="midnightblue" points="877.06,-144.99 884.15,-137.13 873.7,-138.85 877.06,-144.99"/>
</g>
<!-- Node24&#45;&gt;Node20 -->
<g id="edge40" class="edge">
<title>Node24&#45;&gt;Node20</title>
<path fill="none" stroke="midnightblue" d="M702.65,-313.4C716.67,-304.28 735.12,-292.29 750.59,-282.24"/>
<polygon fill="midnightblue" stroke="midnightblue" points="752.82,-284.96 759.29,-276.58 749,-279.09 752.82,-284.96"/>
</g>
</g>
</svg>
