<?xml version="1.0" encoding="UTF-8" standalone="no"?>
<!DOCTYPE svg PUBLIC "-//W3C//DTD SVG 1.1//EN"
 "http://www.w3.org/Graphics/SVG/1.1/DTD/svg11.dtd">
<!-- Generated by graphviz version 2.43.0 (0)
 -->
<!-- Title: net/socket/stream/legacy/SocketServer.h Pages: 1 -->
<svg width="874pt" height="419pt"
 viewBox="0.00 0.00 873.50 419.00" xmlns="http://www.w3.org/2000/svg" xmlns:xlink="http://www.w3.org/1999/xlink">
<g id="graph0" class="graph" transform="scale(1 1) rotate(0) translate(4 415)">
<title>net/socket/stream/legacy/SocketServer.h</title>
<polygon fill="white" stroke="transparent" points="-4,4 -4,-415 869.5,-415 869.5,4 -4,4"/>
<!-- Node1 -->
<g id="node1" class="node">
<title>Node1</title>
<g id="a_node1"><a xlink:title=" ">
<polygon fill="#bfbfbf" stroke="black" points="609,-380.5 609,-410.5 736,-410.5 736,-380.5 609,-380.5"/>
<text text-anchor="start" x="617" y="-398.5" font-family="Helvetica,sans-Serif" font-size="10.00">net/socket/stream/legacy</text>
<text text-anchor="middle" x="672.5" y="-387.5" font-family="Helvetica,sans-Serif" font-size="10.00">/SocketServer.h</text>
</a>
</g>
</g>
<!-- Node2 -->
<g id="node2" class="node">
<title>Node2</title>
<g id="a_node2"><a xlink:href="stream_2_socket_server_8h.html" target="_top" xlink:title=" ">
<polygon fill="white" stroke="black" points="681,-313.5 681,-343.5 810,-343.5 810,-313.5 681,-313.5"/>
<text text-anchor="start" x="689" y="-331.5" font-family="Helvetica,sans-Serif" font-size="10.00">net/socket/stream/Socket</text>
<text text-anchor="middle" x="745.5" y="-320.5" font-family="Helvetica,sans-Serif" font-size="10.00">Server.h</text>
</a>
</g>
</g>
<!-- Node1&#45;&gt;Node2 -->
<g id="edge1" class="edge">
<title>Node1&#45;&gt;Node2</title>
<path fill="none" stroke="midnightblue" d="M688.34,-380.4C698.19,-371.62 711.04,-360.18 722.06,-350.37"/>
<polygon fill="midnightblue" stroke="midnightblue" points="724.55,-352.84 729.69,-343.58 719.9,-347.61 724.55,-352.84"/>
</g>
<!-- Node9 -->
<g id="node9" class="node">
<title>Node9</title>
<g id="a_node9"><a xlink:href="legacy_2_socket_listener_8h.html" target="_top" xlink:title=" ">
<polygon fill="white" stroke="black" points="536,-313.5 536,-343.5 663,-343.5 663,-313.5 536,-313.5"/>
<text text-anchor="start" x="544" y="-331.5" font-family="Helvetica,sans-Serif" font-size="10.00">net/socket/stream/legacy</text>
<text text-anchor="middle" x="599.5" y="-320.5" font-family="Helvetica,sans-Serif" font-size="10.00">/SocketListener.h</text>
</a>
</g>
</g>
<!-- Node1&#45;&gt;Node9 -->
<g id="edge9" class="edge">
<title>Node1&#45;&gt;Node9</title>
<path fill="none" stroke="midnightblue" d="M656.66,-380.4C646.81,-371.62 633.96,-360.18 622.94,-350.37"/>
<polygon fill="midnightblue" stroke="midnightblue" points="625.1,-347.61 615.31,-343.58 620.45,-352.84 625.1,-347.61"/>
</g>
<!-- Node3 -->
<g id="node3" class="node">
<title>Node3</title>
<g id="a_node3"><a xlink:href="_socket_listener_8h.html" target="_top" xlink:title=" ">
<polygon fill="white" stroke="black" points="681,-179.5 681,-209.5 810,-209.5 810,-179.5 681,-179.5"/>
<text text-anchor="start" x="689" y="-197.5" font-family="Helvetica,sans-Serif" font-size="10.00">net/socket/stream/Socket</text>
<text text-anchor="middle" x="745.5" y="-186.5" font-family="Helvetica,sans-Serif" font-size="10.00">Listener.h</text>
</a>
</g>
</g>
<!-- Node2&#45;&gt;Node3 -->
<g id="edge2" class="edge">
<title>Node2&#45;&gt;Node3</title>
<path fill="none" stroke="midnightblue" d="M745.5,-313.37C745.5,-291.04 745.5,-247.31 745.5,-219.85"/>
<polygon fill="midnightblue" stroke="midnightblue" points="749,-219.52 745.5,-209.52 742,-219.52 749,-219.52"/>
</g>
<!-- Node4 -->
<g id="node4" class="node">
<title>Node4</title>
<g id="a_node4"><a xlink:href="_logger_8h.html" target="_top" xlink:title=" ">
<polygon fill="white" stroke="black" points="426,-56.5 426,-75.5 495,-75.5 495,-56.5 426,-56.5"/>
<text text-anchor="middle" x="460.5" y="-63.5" font-family="Helvetica,sans-Serif" font-size="10.00">log/Logger.h</text>
</a>
</g>
</g>
<!-- Node3&#45;&gt;Node4 -->
<g id="edge3" class="edge">
<title>Node3&#45;&gt;Node4</title>
<path fill="none" stroke="midnightblue" d="M746.56,-179.42C747.1,-161.11 745.02,-129.42 726.5,-112 710.61,-97.05 576.92,-80.02 505.34,-71.86"/>
<polygon fill="midnightblue" stroke="midnightblue" points="505.58,-68.37 495.25,-70.72 504.8,-75.32 505.58,-68.37"/>
</g>
<!-- Node5 -->
<g id="node5" class="node">
<title>Node5</title>
<g id="a_node5"><a xlink:href="_accept_event_receiver_8h.html" target="_top" xlink:title=" ">
<polygon fill="white" stroke="black" points="729.5,-56.5 729.5,-75.5 865.5,-75.5 865.5,-56.5 729.5,-56.5"/>
<text text-anchor="middle" x="797.5" y="-63.5" font-family="Helvetica,sans-Serif" font-size="10.00">net/AcceptEventReceiver.h</text>
</a>
</g>
</g>
<!-- Node3&#45;&gt;Node5 -->
<g id="edge4" class="edge">
<title>Node3&#45;&gt;Node5</title>
<path fill="none" stroke="midnightblue" d="M766.8,-179.38C778.23,-170.46 791.23,-157.84 797.5,-143 805.19,-124.81 803.89,-101.91 801.48,-86.03"/>
<polygon fill="midnightblue" stroke="midnightblue" points="804.87,-85.09 799.64,-75.87 797.98,-86.33 804.87,-85.09"/>
</g>
<!-- Node7 -->
<g id="node7" class="node">
<title>Node7</title>
<g id="a_node7"><a xlink:href="_read_event_receiver_8h.html" target="_top" xlink:title=" ">
<polygon fill="white" stroke="black" points="560.5,-56.5 560.5,-75.5 688.5,-75.5 688.5,-56.5 560.5,-56.5"/>
<text text-anchor="middle" x="624.5" y="-63.5" font-family="Helvetica,sans-Serif" font-size="10.00">net/ReadEventReceiver.h</text>
</a>
</g>
</g>
<!-- Node3&#45;&gt;Node7 -->
<g id="edge6" class="edge">
<title>Node3&#45;&gt;Node7</title>
<path fill="none" stroke="midnightblue" d="M753.7,-179.4C762.66,-161.94 773.94,-132.03 759.5,-112 745.22,-92.18 721.83,-80.96 698.5,-74.65"/>
<polygon fill="midnightblue" stroke="midnightblue" points="699.07,-71.19 688.53,-72.24 697.43,-77.99 699.07,-71.19"/>
</g>
<!-- Node8 -->
<g id="node8" class="node">
<title>Node8</title>
<g id="a_node8"><a xlink:href="_socket_protocol_factory_8h.html" target="_top" xlink:title=" ">
<polygon fill="white" stroke="black" points="588,-112.5 588,-142.5 717,-142.5 717,-112.5 588,-112.5"/>
<text text-anchor="start" x="596" y="-130.5" font-family="Helvetica,sans-Serif" font-size="10.00">net/socket/stream/Socket</text>
<text text-anchor="middle" x="652.5" y="-119.5" font-family="Helvetica,sans-Serif" font-size="10.00">ProtocolFactory.h</text>
</a>
</g>
</g>
<!-- Node3&#45;&gt;Node8 -->
<g id="edge8" class="edge">
<title>Node3&#45;&gt;Node8</title>
<path fill="none" stroke="midnightblue" d="M725.32,-179.4C712.4,-170.37 695.44,-158.51 681.14,-148.52"/>
<polygon fill="midnightblue" stroke="midnightblue" points="682.84,-145.44 672.64,-142.58 678.83,-151.17 682.84,-145.44"/>
</g>
<!-- Node6 -->
<g id="node6" class="node">
<title>Node6</title>
<g id="a_node6"><a xlink:href="_descriptor_event_receiver_8h.html" target="_top" xlink:title=" ">
<polygon fill="white" stroke="black" points="549.5,-0.5 549.5,-19.5 699.5,-19.5 699.5,-0.5 549.5,-0.5"/>
<text text-anchor="middle" x="624.5" y="-7.5" font-family="Helvetica,sans-Serif" font-size="10.00">net/DescriptorEventReceiver.h</text>
</a>
</g>
</g>
<!-- Node5&#45;&gt;Node6 -->
<g id="edge5" class="edge">
<title>Node5&#45;&gt;Node6</title>
<path fill="none" stroke="midnightblue" d="M770.09,-56.44C740.73,-47.28 693.98,-32.69 661.4,-22.52"/>
<polygon fill="midnightblue" stroke="midnightblue" points="662.37,-19.16 651.78,-19.52 660.29,-25.84 662.37,-19.16"/>
</g>
<!-- Node7&#45;&gt;Node6 -->
<g id="edge7" class="edge">
<title>Node7&#45;&gt;Node6</title>
<path fill="none" stroke="midnightblue" d="M624.5,-56.08C624.5,-49.01 624.5,-38.86 624.5,-29.99"/>
<polygon fill="midnightblue" stroke="midnightblue" points="628,-29.75 624.5,-19.75 621,-29.75 628,-29.75"/>
</g>
<!-- Node9&#45;&gt;Node3 -->
<g id="edge10" class="edge">
<title>Node9&#45;&gt;Node3</title>
<path fill="none" stroke="midnightblue" d="M615.12,-313.37C640.92,-290.05 692.54,-243.38 722.51,-216.29"/>
<polygon fill="midnightblue" stroke="midnightblue" points="724.92,-218.83 729.99,-209.52 720.22,-213.64 724.92,-218.83"/>
</g>
<!-- Node10 -->
<g id="node10" class="node">
<title>Node10</title>
<g id="a_node10"><a xlink:href="legacy_2_socket_connection_8h.html" target="_top" xlink:title=" ">
<polygon fill="white" stroke="black" points="313,-246.5 313,-276.5 440,-276.5 440,-246.5 313,-246.5"/>
<text text-anchor="start" x="321" y="-264.5" font-family="Helvetica,sans-Serif" font-size="10.00">net/socket/stream/legacy</text>
<text text-anchor="middle" x="376.5" y="-253.5" font-family="Helvetica,sans-Serif" font-size="10.00">/SocketConnection.h</text>
</a>
</g>
</g>
<!-- Node9&#45;&gt;Node10 -->
<g id="edge11" class="edge">
<title>Node9&#45;&gt;Node10</title>
<path fill="none" stroke="midnightblue" d="M551.39,-313.48C517.21,-303.51 471.14,-290.09 434.87,-279.51"/>
<polygon fill="midnightblue" stroke="midnightblue" points="435.49,-276.05 424.91,-276.61 433.53,-282.77 435.49,-276.05"/>
</g>
<!-- Node11 -->
<g id="node11" class="node">
<title>Node11</title>
<g id="a_node11"><a xlink:href="_socket_connection_8h.html" target="_top" xlink:title=" ">
<polygon fill="white" stroke="black" points="422,-179.5 422,-209.5 551,-209.5 551,-179.5 422,-179.5"/>
<text text-anchor="start" x="430" y="-197.5" font-family="Helvetica,sans-Serif" font-size="10.00">net/socket/stream/Socket</text>
<text text-anchor="middle" x="486.5" y="-186.5" font-family="Helvetica,sans-Serif" font-size="10.00">Connection.h</text>
</a>
</g>
</g>
<!-- Node10&#45;&gt;Node11 -->
<g id="edge12" class="edge">
<title>Node10&#45;&gt;Node11</title>
<path fill="none" stroke="midnightblue" d="M400.37,-246.4C416.08,-237.11 436.85,-224.84 454.05,-214.67"/>
<polygon fill="midnightblue" stroke="midnightblue" points="455.85,-217.68 462.68,-209.58 452.29,-211.65 455.85,-217.68"/>
</g>
<!-- Node14 -->
<g id="node14" class="node">
<title>Node14</title>
<g id="a_node14"><a xlink:href="legacy_2_socket_reader_8h.html" target="_top" xlink:title=" ">
<polygon fill="white" stroke="black" points="240,-179.5 240,-209.5 367,-209.5 367,-179.5 240,-179.5"/>
<text text-anchor="start" x="248" y="-197.5" font-family="Helvetica,sans-Serif" font-size="10.00">net/socket/stream/legacy</text>
<text text-anchor="middle" x="303.5" y="-186.5" font-family="Helvetica,sans-Serif" font-size="10.00">/SocketReader.h</text>
</a>
</g>
</g>
<!-- Node10&#45;&gt;Node14 -->
<g id="edge16" class="edge">
<title>Node10&#45;&gt;Node14</title>
<path fill="none" stroke="midnightblue" d="M360.66,-246.4C350.81,-237.62 337.96,-226.18 326.94,-216.37"/>
<polygon fill="midnightblue" stroke="midnightblue" points="329.1,-213.61 319.31,-209.58 324.45,-218.84 329.1,-213.61"/>
</g>
<!-- Node16 -->
<g id="node16" class="node">
<title>Node16</title>
<g id="a_node16"><a xlink:href="legacy_2_socket_writer_8h.html" target="_top" xlink:title=" ">
<polygon fill="white" stroke="black" points="20,-179.5 20,-209.5 147,-209.5 147,-179.5 20,-179.5"/>
<text text-anchor="start" x="28" y="-197.5" font-family="Helvetica,sans-Serif" font-size="10.00">net/socket/stream/legacy</text>
<text text-anchor="middle" x="83.5" y="-186.5" font-family="Helvetica,sans-Serif" font-size="10.00">/SocketWriter.h</text>
</a>
</g>
</g>
<!-- Node10&#45;&gt;Node16 -->
<g id="edge19" class="edge">
<title>Node10&#45;&gt;Node16</title>
<path fill="none" stroke="midnightblue" d="M313.28,-246.48C267.34,-236.28 205.04,-222.46 156.9,-211.78"/>
<polygon fill="midnightblue" stroke="midnightblue" points="157.38,-208.3 146.85,-209.55 155.86,-215.14 157.38,-208.3"/>
</g>
<!-- Node11&#45;&gt;Node8 -->
<g id="edge15" class="edge">
<title>Node11&#45;&gt;Node8</title>
<path fill="none" stroke="midnightblue" d="M522.52,-179.4C547.32,-169.69 580.46,-156.71 607.07,-146.29"/>
<polygon fill="midnightblue" stroke="midnightblue" points="608.52,-149.48 616.55,-142.58 605.96,-142.96 608.52,-149.48"/>
</g>
<!-- Node12 -->
<g id="node12" class="node">
<title>Node12</title>
<g id="a_node12"><a xlink:href="_socket_connection_base_8h.html" target="_top" xlink:title=" ">
<polygon fill="white" stroke="black" points="294,-112.5 294,-142.5 423,-142.5 423,-112.5 294,-112.5"/>
<text text-anchor="start" x="302" y="-130.5" font-family="Helvetica,sans-Serif" font-size="10.00">net/socket/stream/Socket</text>
<text text-anchor="middle" x="358.5" y="-119.5" font-family="Helvetica,sans-Serif" font-size="10.00">ConnectionBase.h</text>
</a>
</g>
</g>
<!-- Node11&#45;&gt;Node12 -->
<g id="edge13" class="edge">
<title>Node11&#45;&gt;Node12</title>
<path fill="none" stroke="midnightblue" d="M458.73,-179.4C440.11,-169.94 415.39,-157.39 395.16,-147.12"/>
<polygon fill="midnightblue" stroke="midnightblue" points="396.72,-143.98 386.22,-142.58 393.55,-150.23 396.72,-143.98"/>
</g>
<!-- Node13 -->
<g id="node13" class="node">
<title>Node13</title>
<g id="a_node13"><a xlink:href="_socket_protocol_8h.html" target="_top" xlink:title=" ">
<polygon fill="white" stroke="black" points="441,-112.5 441,-142.5 570,-142.5 570,-112.5 441,-112.5"/>
<text text-anchor="start" x="449" y="-130.5" font-family="Helvetica,sans-Serif" font-size="10.00">net/socket/stream/Socket</text>
<text text-anchor="middle" x="505.5" y="-119.5" font-family="Helvetica,sans-Serif" font-size="10.00">Protocol.h</text>
</a>
</g>
</g>
<!-- Node11&#45;&gt;Node13 -->
<g id="edge14" class="edge">
<title>Node11&#45;&gt;Node13</title>
<path fill="none" stroke="midnightblue" d="M490.62,-179.4C492.94,-171.47 495.89,-161.38 498.55,-152.27"/>
<polygon fill="midnightblue" stroke="midnightblue" points="501.94,-153.16 501.39,-142.58 495.22,-151.19 501.94,-153.16"/>
</g>
<!-- Node15 -->
<g id="node15" class="node">
<title>Node15</title>
<g id="a_node15"><a xlink:href="_socket_reader_8h.html" target="_top" xlink:title=" ">
<polygon fill="white" stroke="black" points="147,-112.5 147,-142.5 276,-142.5 276,-112.5 147,-112.5"/>
<text text-anchor="start" x="155" y="-130.5" font-family="Helvetica,sans-Serif" font-size="10.00">net/socket/stream/Socket</text>
<text text-anchor="middle" x="211.5" y="-119.5" font-family="Helvetica,sans-Serif" font-size="10.00">Reader.h</text>
</a>
</g>
</g>
<!-- Node14&#45;&gt;Node15 -->
<g id="edge17" class="edge">
<title>Node14&#45;&gt;Node15</title>
<path fill="none" stroke="midnightblue" d="M283.54,-179.4C270.76,-170.37 253.98,-158.51 239.83,-148.52"/>
<polygon fill="midnightblue" stroke="midnightblue" points="241.61,-145.49 231.42,-142.58 237.57,-151.21 241.61,-145.49"/>
</g>
<!-- Node15&#45;&gt;Node7 -->
<g id="edge18" class="edge">
<title>Node15&#45;&gt;Node7</title>
<path fill="none" stroke="midnightblue" d="M276.34,-113.4C279.09,-112.91 281.82,-112.44 284.5,-112 375.58,-96.94 481.05,-83.62 550.07,-75.45"/>
<polygon fill="midnightblue" stroke="midnightblue" points="550.88,-78.88 560.4,-74.23 550.06,-71.93 550.88,-78.88"/>
</g>
<!-- Node17 -->
<g id="node17" class="node">
<title>Node17</title>
<g id="a_node17"><a xlink:href="_socket_writer_8h.html" target="_top" xlink:title=" ">
<polygon fill="white" stroke="black" points="0,-112.5 0,-142.5 129,-142.5 129,-112.5 0,-112.5"/>
<text text-anchor="start" x="8" y="-130.5" font-family="Helvetica,sans-Serif" font-size="10.00">net/socket/stream/Socket</text>
<text text-anchor="middle" x="64.5" y="-119.5" font-family="Helvetica,sans-Serif" font-size="10.00">Writer.h</text>
</a>
</g>
</g>
<!-- Node16&#45;&gt;Node17 -->
<g id="edge20" class="edge">
<title>Node16&#45;&gt;Node17</title>
<path fill="none" stroke="midnightblue" d="M79.38,-179.4C77.06,-171.47 74.11,-161.38 71.45,-152.27"/>
<polygon fill="midnightblue" stroke="midnightblue" points="74.78,-151.19 68.61,-142.58 68.06,-153.16 74.78,-151.19"/>
</g>
<!-- Node17&#45;&gt;Node4 -->
<g id="edge21" class="edge">
<title>Node17&#45;&gt;Node4</title>
<path fill="none" stroke="midnightblue" d="M129.34,-113.42C132.1,-112.93 134.82,-112.45 137.5,-112 236.45,-95.29 353.22,-80.15 415.7,-72.41"/>
<polygon fill="midnightblue" stroke="midnightblue" points="416.48,-75.84 425.98,-71.15 415.63,-68.89 416.48,-75.84"/>
</g>
<!-- Node18 -->
<g id="node18" class="node">
<title>Node18</title>
<g id="a_node18"><a xlink:href="_write_event_receiver_8h.html" target="_top" xlink:title=" ">
<polygon fill="white" stroke="black" points="186.5,-56.5 186.5,-75.5 314.5,-75.5 314.5,-56.5 186.5,-56.5"/>
<text text-anchor="middle" x="250.5" y="-63.5" font-family="Helvetica,sans-Serif" font-size="10.00">net/WriteEventReceiver.h</text>
</a>
</g>
</g>
<!-- Node17&#45;&gt;Node18 -->
<g id="edge22" class="edge">
<title>Node17&#45;&gt;Node18</title>
<path fill="none" stroke="midnightblue" d="M108.58,-112.4C140.72,-102.12 183.76,-88.35 213.98,-78.68"/>
<polygon fill="midnightblue" stroke="midnightblue" points="215.25,-81.95 223.71,-75.57 213.12,-75.28 215.25,-81.95"/>
</g>
<!-- Node18&#45;&gt;Node6 -->
<g id="edge23" class="edge">
<title>Node18&#45;&gt;Node6</title>
<path fill="none" stroke="midnightblue" d="M309.76,-56.44C376.51,-46.81 484.85,-31.16 555.39,-20.98"/>
<polygon fill="midnightblue" stroke="midnightblue" points="556.12,-24.41 565.52,-19.52 555.12,-17.48 556.12,-24.41"/>
</g>
</g>
</svg>
