<?xml version="1.0" encoding="UTF-8" standalone="no"?>
<!DOCTYPE svg PUBLIC "-//W3C//DTD SVG 1.1//EN"
 "http://www.w3.org/Graphics/SVG/1.1/DTD/svg11.dtd">
<!-- Generated by graphviz version 2.43.0 (0)
 -->
<!-- Title: net/socket/stream/legacy/SocketServer.h Pages: 1 -->
<svg width="745pt" height="419pt"
 viewBox="0.00 0.00 744.77 419.00" xmlns="http://www.w3.org/2000/svg" xmlns:xlink="http://www.w3.org/1999/xlink">
<g id="graph0" class="graph" transform="scale(1 1) rotate(0) translate(4 415)">
<title>net/socket/stream/legacy/SocketServer.h</title>
<polygon fill="white" stroke="transparent" points="-4,4 -4,-415 740.77,-415 740.77,4 -4,4"/>
<!-- Node1 -->
<g id="node1" class="node">
<title>Node1</title>
<g id="a_node1"><a xlink:title=" ">
<polygon fill="#bfbfbf" stroke="black" points="90.77,-380.5 90.77,-410.5 217.77,-410.5 217.77,-380.5 90.77,-380.5"/>
<text text-anchor="start" x="98.77" y="-398.5" font-family="Helvetica,sans-Serif" font-size="10.00">net/socket/stream/legacy</text>
<text text-anchor="middle" x="154.27" y="-387.5" font-family="Helvetica,sans-Serif" font-size="10.00">/SocketServer.h</text>
</a>
</g>
</g>
<!-- Node2 -->
<g id="node2" class="node">
<title>Node2</title>
<g id="a_node2"><a xlink:href="stream_2_socket_server_8h.html" target="_top" xlink:title=" ">
<polygon fill="white" stroke="black" points="16.77,-313.5 16.77,-343.5 145.77,-343.5 145.77,-313.5 16.77,-313.5"/>
<text text-anchor="start" x="24.77" y="-331.5" font-family="Helvetica,sans-Serif" font-size="10.00">net/socket/stream/Socket</text>
<text text-anchor="middle" x="81.27" y="-320.5" font-family="Helvetica,sans-Serif" font-size="10.00">Server.h</text>
</a>
</g>
</g>
<!-- Node1&#45;&gt;Node2 -->
<g id="edge1" class="edge">
<title>Node1&#45;&gt;Node2</title>
<path fill="none" stroke="midnightblue" d="M138.43,-380.4C128.58,-371.62 115.73,-360.18 104.71,-350.37"/>
<polygon fill="midnightblue" stroke="midnightblue" points="106.88,-347.61 97.08,-343.58 102.22,-352.84 106.88,-347.61"/>
</g>
<!-- Node3 -->
<g id="node3" class="node">
<title>Node3</title>
<g id="a_node3"><a xlink:href="legacy_2_socket_listener_8h.html" target="_top" xlink:title=" ">
<polygon fill="white" stroke="black" points="163.77,-313.5 163.77,-343.5 290.77,-343.5 290.77,-313.5 163.77,-313.5"/>
<text text-anchor="start" x="171.77" y="-331.5" font-family="Helvetica,sans-Serif" font-size="10.00">net/socket/stream/legacy</text>
<text text-anchor="middle" x="227.27" y="-320.5" font-family="Helvetica,sans-Serif" font-size="10.00">/SocketListener.h</text>
</a>
</g>
</g>
<!-- Node1&#45;&gt;Node3 -->
<g id="edge2" class="edge">
<title>Node1&#45;&gt;Node3</title>
<path fill="none" stroke="midnightblue" d="M170.11,-380.4C179.96,-371.62 192.81,-360.18 203.83,-350.37"/>
<polygon fill="midnightblue" stroke="midnightblue" points="206.32,-352.84 211.46,-343.58 201.67,-347.61 206.32,-352.84"/>
</g>
<!-- Node4 -->
<g id="node4" class="node">
<title>Node4</title>
<g id="a_node4"><a xlink:href="_socket_listener_8h.html" target="_top" xlink:title=" ">
<polygon fill="white" stroke="black" points="65.77,-246.5 65.77,-276.5 194.77,-276.5 194.77,-246.5 65.77,-246.5"/>
<text text-anchor="start" x="73.77" y="-264.5" font-family="Helvetica,sans-Serif" font-size="10.00">net/socket/stream/Socket</text>
<text text-anchor="middle" x="130.27" y="-253.5" font-family="Helvetica,sans-Serif" font-size="10.00">Listener.h</text>
</a>
</g>
</g>
<!-- Node3&#45;&gt;Node4 -->
<g id="edge3" class="edge">
<title>Node3&#45;&gt;Node4</title>
<path fill="none" stroke="midnightblue" d="M206.22,-313.4C192.62,-304.28 174.73,-292.29 159.72,-282.24"/>
<polygon fill="midnightblue" stroke="midnightblue" points="161.53,-279.24 151.28,-276.58 157.64,-285.05 161.53,-279.24"/>
</g>
<!-- Node7 -->
<g id="node7" class="node">
<title>Node7</title>
<g id="a_node7"><a xlink:href="legacy_2_socket_connection_8h.html" target="_top" xlink:title=" ">
<polygon fill="white" stroke="black" points="259.77,-246.5 259.77,-276.5 386.77,-276.5 386.77,-246.5 259.77,-246.5"/>
<text text-anchor="start" x="267.77" y="-264.5" font-family="Helvetica,sans-Serif" font-size="10.00">net/socket/stream/legacy</text>
<text text-anchor="middle" x="323.27" y="-253.5" font-family="Helvetica,sans-Serif" font-size="10.00">/SocketConnection.h</text>
</a>
</g>
</g>
<!-- Node3&#45;&gt;Node7 -->
<g id="edge6" class="edge">
<title>Node3&#45;&gt;Node7</title>
<path fill="none" stroke="midnightblue" d="M248.1,-313.4C261.56,-304.28 279.27,-292.29 294.12,-282.24"/>
<polygon fill="midnightblue" stroke="midnightblue" points="296.16,-285.08 302.48,-276.58 292.24,-279.28 296.16,-285.08"/>
</g>
<!-- Node5 -->
<g id="node5" class="node">
<title>Node5</title>
<g id="a_node5"><a xlink:href="_accept_event_receiver_8h.html" target="_top" xlink:title=" ">
<polygon fill="white" stroke="black" points="115.27,-56.5 115.27,-75.5 251.27,-75.5 251.27,-56.5 115.27,-56.5"/>
<text text-anchor="middle" x="183.27" y="-63.5" font-family="Helvetica,sans-Serif" font-size="10.00">net/AcceptEventReceiver.h</text>
</a>
</g>
</g>
<!-- Node4&#45;&gt;Node5 -->
<g id="edge4" class="edge">
<title>Node4&#45;&gt;Node5</title>
<path fill="none" stroke="midnightblue" d="M103.5,-246.33C57.41,-220.1 -28.45,-162.09 10.27,-112 22.68,-95.95 67.52,-84.56 108.44,-77.25"/>
<polygon fill="midnightblue" stroke="midnightblue" points="109.2,-80.67 118.46,-75.53 108.02,-73.78 109.2,-80.67"/>
</g>
<!-- Node6 -->
<g id="node6" class="node">
<title>Node6</title>
<g id="a_node6"><a xlink:href="_event_receiver_8h.html" target="_top" xlink:title=" ">
<polygon fill="white" stroke="black" points="472.77,-0.5 472.77,-19.5 577.77,-19.5 577.77,-0.5 472.77,-0.5"/>
<text text-anchor="middle" x="525.27" y="-7.5" font-family="Helvetica,sans-Serif" font-size="10.00">net/EventReceiver.h</text>
</a>
</g>
</g>
<!-- Node5&#45;&gt;Node6 -->
<g id="edge5" class="edge">
<title>Node5&#45;&gt;Node6</title>
<path fill="none" stroke="midnightblue" d="M237.46,-56.44C298.7,-46.78 398.21,-31.06 462.7,-20.88"/>
<polygon fill="midnightblue" stroke="midnightblue" points="463.41,-24.31 472.74,-19.29 462.31,-17.4 463.41,-24.31"/>
</g>
<!-- Node8 -->
<g id="node8" class="node">
<title>Node8</title>
<g id="a_node8"><a xlink:href="_socket_connection_t_8h.html" target="_top" xlink:title=" ">
<polygon fill="white" stroke="black" points="185.77,-179.5 185.77,-209.5 314.77,-209.5 314.77,-179.5 185.77,-179.5"/>
<text text-anchor="start" x="193.77" y="-197.5" font-family="Helvetica,sans-Serif" font-size="10.00">net/socket/stream/Socket</text>
<text text-anchor="middle" x="250.27" y="-186.5" font-family="Helvetica,sans-Serif" font-size="10.00">ConnectionT.h</text>
</a>
</g>
</g>
<!-- Node7&#45;&gt;Node8 -->
<g id="edge7" class="edge">
<title>Node7&#45;&gt;Node8</title>
<path fill="none" stroke="midnightblue" d="M307.43,-246.4C297.58,-237.62 284.73,-226.18 273.71,-216.37"/>
<polygon fill="midnightblue" stroke="midnightblue" points="275.88,-213.61 266.08,-209.58 271.22,-218.84 275.88,-213.61"/>
</g>
<!-- Node12 -->
<g id="node12" class="node">
<title>Node12</title>
<g id="a_node12"><a xlink:href="legacy_2_socket_reader_8h.html" target="_top" xlink:title=" ">
<polygon fill="white" stroke="black" points="406.77,-179.5 406.77,-209.5 533.77,-209.5 533.77,-179.5 406.77,-179.5"/>
<text text-anchor="start" x="414.77" y="-197.5" font-family="Helvetica,sans-Serif" font-size="10.00">net/socket/stream/legacy</text>
<text text-anchor="middle" x="470.27" y="-186.5" font-family="Helvetica,sans-Serif" font-size="10.00">/SocketReader.h</text>
</a>
</g>
</g>
<!-- Node7&#45;&gt;Node12 -->
<g id="edge11" class="edge">
<title>Node7&#45;&gt;Node12</title>
<path fill="none" stroke="midnightblue" d="M355.17,-246.4C376.84,-236.81 405.7,-224.05 429.11,-213.7"/>
<polygon fill="midnightblue" stroke="midnightblue" points="430.71,-216.82 438.44,-209.58 427.88,-210.42 430.71,-216.82"/>
</g>
<!-- Node15 -->
<g id="node15" class="node">
<title>Node15</title>
<g id="a_node15"><a xlink:href="legacy_2_socket_writer_8h.html" target="_top" xlink:title=" ">
<polygon fill="white" stroke="black" points="589.77,-179.5 589.77,-209.5 716.77,-209.5 716.77,-179.5 589.77,-179.5"/>
<text text-anchor="start" x="597.77" y="-197.5" font-family="Helvetica,sans-Serif" font-size="10.00">net/socket/stream/legacy</text>
<text text-anchor="middle" x="653.27" y="-186.5" font-family="Helvetica,sans-Serif" font-size="10.00">/SocketWriter.h</text>
</a>
</g>
</g>
<!-- Node7&#45;&gt;Node15 -->
<g id="edge15" class="edge">
<title>Node7&#45;&gt;Node15</title>
<path fill="none" stroke="midnightblue" d="M386.9,-247.97C442.05,-237.1 521.87,-221.38 579.74,-209.98"/>
<polygon fill="midnightblue" stroke="midnightblue" points="580.42,-213.42 589.56,-208.05 579.07,-206.55 580.42,-213.42"/>
</g>
<!-- Node9 -->
<g id="node9" class="node">
<title>Node9</title>
<g id="a_node9"><a xlink:href="_socket_connection_8h.html" target="_top" xlink:title=" ">
<polygon fill="white" stroke="black" points="19.77,-112.5 19.77,-142.5 148.77,-142.5 148.77,-112.5 19.77,-112.5"/>
<text text-anchor="start" x="27.77" y="-130.5" font-family="Helvetica,sans-Serif" font-size="10.00">net/socket/stream/Socket</text>
<text text-anchor="middle" x="84.27" y="-119.5" font-family="Helvetica,sans-Serif" font-size="10.00">Connection.h</text>
</a>
</g>
</g>
<!-- Node8&#45;&gt;Node9 -->
<g id="edge8" class="edge">
<title>Node8&#45;&gt;Node9</title>
<path fill="none" stroke="midnightblue" d="M214.25,-179.4C189.45,-169.69 156.31,-156.71 129.7,-146.29"/>
<polygon fill="midnightblue" stroke="midnightblue" points="130.81,-142.96 120.22,-142.58 128.26,-149.48 130.81,-142.96"/>
</g>
<!-- Node10 -->
<g id="node10" class="node">
<title>Node10</title>
<g id="a_node10"><a xlink:href="net_2socket_2stream_2_socket_context_8h.html" target="_top" xlink:title=" ">
<polygon fill="white" stroke="black" points="166.77,-112.5 166.77,-142.5 295.77,-142.5 295.77,-112.5 166.77,-112.5"/>
<text text-anchor="start" x="174.77" y="-130.5" font-family="Helvetica,sans-Serif" font-size="10.00">net/socket/stream/Socket</text>
<text text-anchor="middle" x="231.27" y="-119.5" font-family="Helvetica,sans-Serif" font-size="10.00">Context.h</text>
</a>
</g>
</g>
<!-- Node8&#45;&gt;Node10 -->
<g id="edge9" class="edge">
<title>Node8&#45;&gt;Node10</title>
<path fill="none" stroke="midnightblue" d="M246.15,-179.4C243.83,-171.47 240.88,-161.38 238.22,-152.27"/>
<polygon fill="midnightblue" stroke="midnightblue" points="241.55,-151.19 235.39,-142.58 234.83,-153.16 241.55,-151.19"/>
</g>
<!-- Node11 -->
<g id="node11" class="node">
<title>Node11</title>
<g id="a_node11"><a xlink:href="net_2socket_2stream_2_socket_context_factory_8h.html" target="_top" xlink:title=" ">
<polygon fill="white" stroke="black" points="313.77,-112.5 313.77,-142.5 442.77,-142.5 442.77,-112.5 313.77,-112.5"/>
<text text-anchor="start" x="321.77" y="-130.5" font-family="Helvetica,sans-Serif" font-size="10.00">net/socket/stream/Socket</text>
<text text-anchor="middle" x="378.27" y="-119.5" font-family="Helvetica,sans-Serif" font-size="10.00">ContextFactory.h</text>
</a>
</g>
</g>
<!-- Node8&#45;&gt;Node11 -->
<g id="edge10" class="edge">
<title>Node8&#45;&gt;Node11</title>
<path fill="none" stroke="midnightblue" d="M278.05,-179.4C296.66,-169.94 321.38,-157.39 341.61,-147.12"/>
<polygon fill="midnightblue" stroke="midnightblue" points="343.22,-150.23 350.55,-142.58 340.05,-143.98 343.22,-150.23"/>
</g>
<!-- Node13 -->
<g id="node13" class="node">
<title>Node13</title>
<g id="a_node13"><a xlink:href="_socket_reader_8h.html" target="_top" xlink:title=" ">
<polygon fill="white" stroke="black" points="460.77,-112.5 460.77,-142.5 589.77,-142.5 589.77,-112.5 460.77,-112.5"/>
<text text-anchor="start" x="468.77" y="-130.5" font-family="Helvetica,sans-Serif" font-size="10.00">net/socket/stream/Socket</text>
<text text-anchor="middle" x="525.27" y="-119.5" font-family="Helvetica,sans-Serif" font-size="10.00">Reader.h</text>
</a>
</g>
</g>
<!-- Node12&#45;&gt;Node13 -->
<g id="edge12" class="edge">
<title>Node12&#45;&gt;Node13</title>
<path fill="none" stroke="midnightblue" d="M482.21,-179.4C489.41,-170.88 498.75,-159.85 506.88,-150.23"/>
<polygon fill="midnightblue" stroke="midnightblue" points="509.57,-152.47 513.36,-142.58 504.23,-147.95 509.57,-152.47"/>
</g>
<!-- Node14 -->
<g id="node14" class="node">
<title>Node14</title>
<g id="a_node14"><a xlink:href="_read_event_receiver_8h.html" target="_top" xlink:title=" ">
<polygon fill="white" stroke="black" points="461.27,-56.5 461.27,-75.5 589.27,-75.5 589.27,-56.5 461.27,-56.5"/>
<text text-anchor="middle" x="525.27" y="-63.5" font-family="Helvetica,sans-Serif" font-size="10.00">net/ReadEventReceiver.h</text>
</a>
</g>
</g>
<!-- Node13&#45;&gt;Node14 -->
<g id="edge13" class="edge">
<title>Node13&#45;&gt;Node14</title>
<path fill="none" stroke="midnightblue" d="M525.27,-112.4C525.27,-104.47 525.27,-94.46 525.27,-85.86"/>
<polygon fill="midnightblue" stroke="midnightblue" points="528.77,-85.66 525.27,-75.66 521.77,-85.66 528.77,-85.66"/>
</g>
<!-- Node14&#45;&gt;Node6 -->
<g id="edge14" class="edge">
<title>Node14&#45;&gt;Node6</title>
<path fill="none" stroke="midnightblue" d="M525.27,-56.08C525.27,-49.01 525.27,-38.86 525.27,-29.99"/>
<polygon fill="midnightblue" stroke="midnightblue" points="528.77,-29.75 525.27,-19.75 521.77,-29.75 528.77,-29.75"/>
</g>
<!-- Node16 -->
<g id="node16" class="node">
<title>Node16</title>
<g id="a_node16"><a xlink:href="_socket_writer_8h.html" target="_top" xlink:title=" ">
<polygon fill="white" stroke="black" points="607.77,-112.5 607.77,-142.5 736.77,-142.5 736.77,-112.5 607.77,-112.5"/>
<text text-anchor="start" x="615.77" y="-130.5" font-family="Helvetica,sans-Serif" font-size="10.00">net/socket/stream/Socket</text>
<text text-anchor="middle" x="672.27" y="-119.5" font-family="Helvetica,sans-Serif" font-size="10.00">Writer.h</text>
</a>
</g>
</g>
<!-- Node15&#45;&gt;Node16 -->
<g id="edge16" class="edge">
<title>Node15&#45;&gt;Node16</title>
<path fill="none" stroke="midnightblue" d="M657.39,-179.4C659.71,-171.47 662.66,-161.38 665.32,-152.27"/>
<polygon fill="midnightblue" stroke="midnightblue" points="668.71,-153.16 668.16,-142.58 661.99,-151.19 668.71,-153.16"/>
</g>
<!-- Node17 -->
<g id="node17" class="node">
<title>Node17</title>
<g id="a_node17"><a xlink:href="_write_event_receiver_8h.html" target="_top" xlink:title=" ">
<polygon fill="white" stroke="black" points="607.27,-56.5 607.27,-75.5 735.27,-75.5 735.27,-56.5 607.27,-56.5"/>
<text text-anchor="middle" x="671.27" y="-63.5" font-family="Helvetica,sans-Serif" font-size="10.00">net/WriteEventReceiver.h</text>
</a>
</g>
</g>
<!-- Node16&#45;&gt;Node17 -->
<g id="edge17" class="edge">
<title>Node16&#45;&gt;Node17</title>
<path fill="none" stroke="midnightblue" d="M672.03,-112.4C671.9,-104.47 671.73,-94.46 671.59,-85.86"/>
<polygon fill="midnightblue" stroke="midnightblue" points="675.08,-85.6 671.42,-75.66 668.09,-85.72 675.08,-85.6"/>
</g>
<!-- Node17&#45;&gt;Node6 -->
<g id="edge18" class="edge">
<title>Node17&#45;&gt;Node6</title>
<path fill="none" stroke="midnightblue" d="M648.14,-56.44C623.79,-47.44 585.26,-33.19 557.85,-23.05"/>
<polygon fill="midnightblue" stroke="midnightblue" points="558.89,-19.7 548.3,-19.52 556.46,-26.27 558.89,-19.7"/>
</g>
</g>
</svg>
