<?xml version="1.0" encoding="UTF-8" standalone="no"?>
<!DOCTYPE svg PUBLIC "-//W3C//DTD SVG 1.1//EN"
 "http://www.w3.org/Graphics/SVG/1.1/DTD/svg11.dtd">
<!-- Generated by graphviz version 2.43.0 (0)
 -->
<!-- Title: net/socket/stream/tls/SocketServer.h Pages: 1 -->
<svg width="1111pt" height="386pt"
 viewBox="0.00 0.00 1110.50 386.00" xmlns="http://www.w3.org/2000/svg" xmlns:xlink="http://www.w3.org/1999/xlink">
<g id="graph0" class="graph" transform="scale(1 1) rotate(0) translate(4 382)">
<title>net/socket/stream/tls/SocketServer.h</title>
<polygon fill="white" stroke="transparent" points="-4,4 -4,-382 1106.5,-382 1106.5,4 -4,4"/>
<!-- Node1 -->
<g id="node1" class="node">
<title>Node1</title>
<g id="a_node1"><a xlink:title=" ">
<polygon fill="#bfbfbf" stroke="black" points="742.5,-347.5 742.5,-377.5 851.5,-377.5 851.5,-347.5 742.5,-347.5"/>
<text text-anchor="start" x="750.5" y="-365.5" font-family="Helvetica,sans-Serif" font-size="10.00">net/socket/stream/tls</text>
<text text-anchor="middle" x="797" y="-354.5" font-family="Helvetica,sans-Serif" font-size="10.00">/SocketServer.h</text>
</a>
</g>
</g>
<!-- Node2 -->
<g id="node2" class="node">
<title>Node2</title>
<g id="a_node2"><a xlink:href="tls_2_socket_listener_8h.html" target="_top" xlink:title=" ">
<polygon fill="white" stroke="black" points="684.5,-291.5 684.5,-310.5 773.5,-310.5 773.5,-291.5 684.5,-291.5"/>
<text text-anchor="middle" x="729" y="-298.5" font-family="Helvetica,sans-Serif" font-size="10.00">SocketListener.h</text>
</a>
</g>
</g>
<!-- Node1&#45;&gt;Node2 -->
<g id="edge1" class="edge">
<title>Node1&#45;&gt;Node2</title>
<path fill="none" stroke="midnightblue" d="M780.88,-347.4C770.6,-338.4 757.25,-326.72 746.67,-317.47"/>
<polygon fill="midnightblue" stroke="midnightblue" points="748.73,-314.61 738.89,-310.66 744.12,-319.88 748.73,-314.61"/>
</g>
<!-- Node20 -->
<g id="node20" class="node">
<title>Node20</title>
<g id="a_node20"><a xlink:href="stream_2_socket_server_8h.html" target="_top" xlink:title=" ">
<polygon fill="white" stroke="black" points="858.5,-291.5 858.5,-310.5 1007.5,-310.5 1007.5,-291.5 858.5,-291.5"/>
<text text-anchor="middle" x="933" y="-298.5" font-family="Helvetica,sans-Serif" font-size="10.00">socket/stream/SocketServer.h</text>
</a>
</g>
</g>
<!-- Node1&#45;&gt;Node20 -->
<g id="edge35" class="edge">
<title>Node1&#45;&gt;Node20</title>
<path fill="none" stroke="midnightblue" d="M829.23,-347.4C851.84,-337.51 881.84,-324.38 903.76,-314.79"/>
<polygon fill="midnightblue" stroke="midnightblue" points="905.45,-317.87 913.21,-310.66 902.65,-311.46 905.45,-317.87"/>
</g>
<!-- Node3 -->
<g id="node3" class="node">
<title>Node3</title>
<g id="a_node3"><a xlink:href="_logger_8h.html" target="_top" xlink:title=" ">
<polygon fill="white" stroke="black" points="854.5,-56.5 854.5,-75.5 907.5,-75.5 907.5,-56.5 854.5,-56.5"/>
<text text-anchor="middle" x="881" y="-63.5" font-family="Helvetica,sans-Serif" font-size="10.00">Logger.h</text>
</a>
</g>
</g>
<!-- Node2&#45;&gt;Node3 -->
<g id="edge2" class="edge">
<title>Node2&#45;&gt;Node3</title>
<path fill="none" stroke="midnightblue" d="M741.78,-291.31C773.04,-269.17 852.95,-207.05 882,-132 887.73,-117.2 886.86,-99.05 884.92,-85.69"/>
<polygon fill="midnightblue" stroke="midnightblue" points="888.35,-85.01 883.15,-75.78 881.46,-86.23 888.35,-85.01"/>
</g>
<!-- Node4 -->
<g id="node4" class="node">
<title>Node4</title>
<g id="a_node4"><a xlink:href="tls_2_socket_connection_8h.html" target="_top" xlink:title=" ">
<polygon fill="white" stroke="black" points="455.5,-235.5 455.5,-254.5 560.5,-254.5 560.5,-235.5 455.5,-235.5"/>
<text text-anchor="middle" x="508" y="-242.5" font-family="Helvetica,sans-Serif" font-size="10.00">SocketConnection.h</text>
</a>
</g>
</g>
<!-- Node2&#45;&gt;Node4 -->
<g id="edge3" class="edge">
<title>Node2&#45;&gt;Node4</title>
<path fill="none" stroke="midnightblue" d="M693.98,-291.44C655.75,-282.1 594.43,-267.12 552.74,-256.93"/>
<polygon fill="midnightblue" stroke="midnightblue" points="553.4,-253.49 542.85,-254.52 551.74,-260.29 553.4,-253.49"/>
</g>
<!-- Node10 -->
<g id="node10" class="node">
<title>Node10</title>
<g id="a_node10"><a xlink:href="_t_l_s_handshake_8h.html" target="_top" xlink:title=" ">
<polygon fill="white" stroke="black" points="184,-112.5 184,-131.5 276,-131.5 276,-112.5 184,-112.5"/>
<text text-anchor="middle" x="230" y="-119.5" font-family="Helvetica,sans-Serif" font-size="10.00">TLSHandshake.h</text>
</a>
</g>
</g>
<!-- Node2&#45;&gt;Node10 -->
<g id="edge28" class="edge">
<title>Node2&#45;&gt;Node10</title>
<path fill="none" stroke="midnightblue" d="M684.29,-297.25C575.59,-289.6 302.02,-264.14 243,-199 229.12,-183.69 227.26,-159.2 227.96,-142.18"/>
<polygon fill="midnightblue" stroke="midnightblue" points="231.48,-142.03 228.74,-131.79 224.5,-141.5 231.48,-142.03"/>
</g>
<!-- Node15 -->
<g id="node15" class="node">
<title>Node15</title>
<g id="a_node15"><a xlink:href="ssl__utils_8h.html" target="_top" xlink:title=" ">
<polygon fill="white" stroke="black" points="589.5,-112.5 589.5,-131.5 650.5,-131.5 650.5,-112.5 589.5,-112.5"/>
<text text-anchor="middle" x="620" y="-119.5" font-family="Helvetica,sans-Serif" font-size="10.00">ssl_utils.h</text>
</a>
</g>
</g>
<!-- Node2&#45;&gt;Node15 -->
<g id="edge34" class="edge">
<title>Node2&#45;&gt;Node15</title>
<path fill="none" stroke="midnightblue" d="M711.9,-291.38C684.93,-276.68 633.47,-243.96 613,-199 604.7,-180.78 608.64,-157.58 613.26,-141.64"/>
<polygon fill="midnightblue" stroke="midnightblue" points="616.66,-142.5 616.43,-131.91 610,-140.34 616.66,-142.5"/>
</g>
<!-- Node18 -->
<g id="node18" class="node">
<title>Node18</title>
<g id="a_node18"><a xlink:href="_socket_listener_8h.html" target="_top" xlink:title=" ">
<polygon fill="white" stroke="black" points="947.5,-112.5 947.5,-131.5 1102.5,-131.5 1102.5,-112.5 947.5,-112.5"/>
<text text-anchor="middle" x="1025" y="-119.5" font-family="Helvetica,sans-Serif" font-size="10.00">socket/stream/SocketListener.h</text>
</a>
</g>
</g>
<!-- Node2&#45;&gt;Node18 -->
<g id="edge29" class="edge">
<title>Node2&#45;&gt;Node18</title>
<path fill="none" stroke="midnightblue" d="M773.61,-299.35C817.56,-296.72 884.92,-287.17 933,-255 955.41,-240.01 996.33,-172.58 1015.11,-140.31"/>
<polygon fill="midnightblue" stroke="midnightblue" points="1018.21,-141.93 1020.18,-131.52 1012.15,-138.43 1018.21,-141.93"/>
</g>
<!-- Node5 -->
<g id="node5" class="node">
<title>Node5</title>
<g id="a_node5"><a xlink:href="_socket_connection_8h.html" target="_top" xlink:title=" ">
<polygon fill="white" stroke="black" points="252,-174 252,-193 422,-193 422,-174 252,-174"/>
<text text-anchor="middle" x="337" y="-181" font-family="Helvetica,sans-Serif" font-size="10.00">socket/stream/SocketConnection.h</text>
</a>
</g>
</g>
<!-- Node4&#45;&gt;Node5 -->
<g id="edge4" class="edge">
<title>Node4&#45;&gt;Node5</title>
<path fill="none" stroke="midnightblue" d="M483.5,-235.48C454.04,-225.22 404.42,-207.96 371.2,-196.4"/>
<polygon fill="midnightblue" stroke="midnightblue" points="372.05,-192.99 361.45,-193.01 369.75,-199.6 372.05,-192.99"/>
</g>
<!-- Node8 -->
<g id="node8" class="node">
<title>Node8</title>
<g id="a_node8"><a xlink:href="tls_2_socket_reader_8h.html" target="_top" xlink:title=" ">
<polygon fill="white" stroke="black" points="440,-168.5 440,-198.5 566,-198.5 566,-168.5 440,-168.5"/>
<text text-anchor="start" x="448" y="-186.5" font-family="Helvetica,sans-Serif" font-size="10.00">socket/stream/tls/Socket</text>
<text text-anchor="middle" x="503" y="-175.5" font-family="Helvetica,sans-Serif" font-size="10.00">Reader.h</text>
</a>
</g>
</g>
<!-- Node4&#45;&gt;Node8 -->
<g id="edge7" class="edge">
<title>Node4&#45;&gt;Node8</title>
<path fill="none" stroke="midnightblue" d="M507.28,-235.48C506.7,-228.47 505.83,-218.19 505.03,-208.7"/>
<polygon fill="midnightblue" stroke="midnightblue" points="508.5,-208.19 504.18,-198.52 501.53,-208.78 508.5,-208.19"/>
</g>
<!-- Node16 -->
<g id="node16" class="node">
<title>Node16</title>
<g id="a_node16"><a xlink:href="tls_2_socket_writer_8h.html" target="_top" xlink:title=" ">
<polygon fill="white" stroke="black" points="622,-168.5 622,-198.5 748,-198.5 748,-168.5 622,-168.5"/>
<text text-anchor="start" x="630" y="-186.5" font-family="Helvetica,sans-Serif" font-size="10.00">socket/stream/tls/Socket</text>
<text text-anchor="middle" x="685" y="-175.5" font-family="Helvetica,sans-Serif" font-size="10.00">Writer.h</text>
</a>
</g>
</g>
<!-- Node4&#45;&gt;Node16 -->
<g id="edge19" class="edge">
<title>Node4&#45;&gt;Node16</title>
<path fill="none" stroke="midnightblue" d="M533.36,-235.48C559.46,-226.7 600.85,-212.79 633.8,-201.71"/>
<polygon fill="midnightblue" stroke="midnightblue" points="634.92,-205.03 643.28,-198.52 632.69,-198.39 634.92,-205.03"/>
</g>
<!-- Node6 -->
<g id="node6" class="node">
<title>Node6</title>
<g id="a_node6"><a xlink:href="_socket_connection_base_8h.html" target="_top" xlink:title=" ">
<polygon fill="white" stroke="black" points="0,-112.5 0,-131.5 128,-131.5 128,-112.5 0,-112.5"/>
<text text-anchor="middle" x="64" y="-119.5" font-family="Helvetica,sans-Serif" font-size="10.00">SocketConnectionBase.h</text>
</a>
</g>
</g>
<!-- Node5&#45;&gt;Node6 -->
<g id="edge5" class="edge">
<title>Node5&#45;&gt;Node6</title>
<path fill="none" stroke="midnightblue" d="M297.89,-173.98C249.13,-163.35 165.79,-145.18 112.88,-133.65"/>
<polygon fill="midnightblue" stroke="midnightblue" points="113.56,-130.22 103.04,-131.51 112.07,-137.06 113.56,-130.22"/>
</g>
<!-- Node7 -->
<g id="node7" class="node">
<title>Node7</title>
<g id="a_node7"><a xlink:href="_attribute_injector_8h.html" target="_top" xlink:title=" ">
<polygon fill="white" stroke="black" points="17.5,-56.5 17.5,-75.5 110.5,-75.5 110.5,-56.5 17.5,-56.5"/>
<text text-anchor="middle" x="64" y="-63.5" font-family="Helvetica,sans-Serif" font-size="10.00">AttributeInjector.h</text>
</a>
</g>
</g>
<!-- Node6&#45;&gt;Node7 -->
<g id="edge6" class="edge">
<title>Node6&#45;&gt;Node7</title>
<path fill="none" stroke="midnightblue" d="M64,-112.08C64,-105.01 64,-94.86 64,-85.99"/>
<polygon fill="midnightblue" stroke="midnightblue" points="67.5,-85.75 64,-75.75 60.5,-85.75 67.5,-85.75"/>
</g>
<!-- Node8&#45;&gt;Node3 -->
<g id="edge9" class="edge">
<title>Node8&#45;&gt;Node3</title>
<path fill="none" stroke="midnightblue" d="M495.52,-168.44C488.3,-152.7 480.3,-127.39 494,-112 517.09,-86.07 752.12,-72.78 844.24,-68.54"/>
<polygon fill="midnightblue" stroke="midnightblue" points="844.4,-72.04 854.23,-68.09 844.09,-65.05 844.4,-72.04"/>
</g>
<!-- Node9 -->
<g id="node9" class="node">
<title>Node9</title>
<g id="a_node9"><a xlink:href="_descriptor_8h.html" target="_top" xlink:title=" ">
<polygon fill="white" stroke="black" points="502.5,-112.5 502.5,-131.5 571.5,-131.5 571.5,-112.5 502.5,-112.5"/>
<text text-anchor="middle" x="537" y="-119.5" font-family="Helvetica,sans-Serif" font-size="10.00">Descriptor.h</text>
</a>
</g>
</g>
<!-- Node8&#45;&gt;Node9 -->
<g id="edge8" class="edge">
<title>Node8&#45;&gt;Node9</title>
<path fill="none" stroke="midnightblue" d="M511.06,-168.4C515.85,-160.02 521.96,-149.33 527.04,-140.42"/>
<polygon fill="midnightblue" stroke="midnightblue" points="530.13,-142.08 532.05,-131.66 524.05,-138.6 530.13,-142.08"/>
</g>
<!-- Node8&#45;&gt;Node10 -->
<g id="edge10" class="edge">
<title>Node8&#45;&gt;Node10</title>
<path fill="none" stroke="midnightblue" d="M439.68,-168.7C390.77,-158.04 324.06,-143.5 279.14,-133.71"/>
<polygon fill="midnightblue" stroke="midnightblue" points="279.85,-130.28 269.33,-131.57 278.36,-137.12 279.85,-130.28"/>
</g>
<!-- Node13 -->
<g id="node13" class="node">
<title>Node13</title>
<g id="a_node13"><a xlink:href="_write_event_receiver_8h.html" target="_top" xlink:title=" ">
<polygon fill="white" stroke="black" points="333.5,-56.5 333.5,-75.5 444.5,-75.5 444.5,-56.5 333.5,-56.5"/>
<text text-anchor="middle" x="389" y="-63.5" font-family="Helvetica,sans-Serif" font-size="10.00">WriteEventReceiver.h</text>
</a>
</g>
</g>
<!-- Node8&#45;&gt;Node13 -->
<g id="edge15" class="edge">
<title>Node8&#45;&gt;Node13</title>
<path fill="none" stroke="midnightblue" d="M439.82,-169.56C436.84,-169.02 433.89,-168.49 431,-168 374.37,-158.32 212.69,-175.36 175,-132 130.75,-81.1 245.07,-69.35 323.15,-67.05"/>
<polygon fill="midnightblue" stroke="midnightblue" points="323.52,-70.54 333.43,-66.8 323.35,-63.55 323.52,-70.54"/>
</g>
<!-- Node14 -->
<g id="node14" class="node">
<title>Node14</title>
<g id="a_node14"><a xlink:href="_socket_reader_8h.html" target="_top" xlink:title=" ">
<polygon fill="white" stroke="black" points="294,-112.5 294,-131.5 446,-131.5 446,-112.5 294,-112.5"/>
<text text-anchor="middle" x="370" y="-119.5" font-family="Helvetica,sans-Serif" font-size="10.00">socket/stream/SocketReader.h</text>
</a>
</g>
</g>
<!-- Node8&#45;&gt;Node14 -->
<g id="edge16" class="edge">
<title>Node8&#45;&gt;Node14</title>
<path fill="none" stroke="midnightblue" d="M471.48,-168.4C449.36,-158.51 420.03,-145.38 398.59,-135.79"/>
<polygon fill="midnightblue" stroke="midnightblue" points="399.91,-132.55 389.35,-131.66 397.05,-138.94 399.91,-132.55"/>
</g>
<!-- Node8&#45;&gt;Node15 -->
<g id="edge18" class="edge">
<title>Node8&#45;&gt;Node15</title>
<path fill="none" stroke="midnightblue" d="M530.73,-168.4C549.83,-158.68 575.06,-145.86 593.82,-136.31"/>
<polygon fill="midnightblue" stroke="midnightblue" points="595.65,-139.31 602.98,-131.66 592.48,-133.07 595.65,-139.31"/>
</g>
<!-- Node11 -->
<g id="node11" class="node">
<title>Node11</title>
<g id="a_node11"><a xlink:href="_read_event_receiver_8h.html" target="_top" xlink:title=" ">
<polygon fill="white" stroke="black" points="468,-56.5 468,-75.5 580,-75.5 580,-56.5 468,-56.5"/>
<text text-anchor="middle" x="524" y="-63.5" font-family="Helvetica,sans-Serif" font-size="10.00">ReadEventReceiver.h</text>
</a>
</g>
</g>
<!-- Node10&#45;&gt;Node11 -->
<g id="edge11" class="edge">
<title>Node10&#45;&gt;Node11</title>
<path fill="none" stroke="midnightblue" d="M276.26,-112.5C328.02,-103 411.88,-87.59 467.49,-77.38"/>
<polygon fill="midnightblue" stroke="midnightblue" points="468.32,-80.79 477.52,-75.54 467.06,-73.9 468.32,-80.79"/>
</g>
<!-- Node10&#45;&gt;Node13 -->
<g id="edge13" class="edge">
<title>Node10&#45;&gt;Node13</title>
<path fill="none" stroke="midnightblue" d="M255.19,-112.44C281.94,-103.36 324.4,-88.94 354.31,-78.78"/>
<polygon fill="midnightblue" stroke="midnightblue" points="355.58,-82.05 363.92,-75.52 353.33,-75.42 355.58,-82.05"/>
</g>
<!-- Node12 -->
<g id="node12" class="node">
<title>Node12</title>
<g id="a_node12"><a xlink:href="_event_receiver_8h.html" target="_top" xlink:title=" ">
<polygon fill="white" stroke="black" points="479.5,-0.5 479.5,-19.5 568.5,-19.5 568.5,-0.5 479.5,-0.5"/>
<text text-anchor="middle" x="524" y="-7.5" font-family="Helvetica,sans-Serif" font-size="10.00">EventReceiver.h</text>
</a>
</g>
</g>
<!-- Node11&#45;&gt;Node12 -->
<g id="edge12" class="edge">
<title>Node11&#45;&gt;Node12</title>
<path fill="none" stroke="midnightblue" d="M524,-56.08C524,-49.01 524,-38.86 524,-29.99"/>
<polygon fill="midnightblue" stroke="midnightblue" points="527.5,-29.75 524,-19.75 520.5,-29.75 527.5,-29.75"/>
</g>
<!-- Node13&#45;&gt;Node12 -->
<g id="edge14" class="edge">
<title>Node13&#45;&gt;Node12</title>
<path fill="none" stroke="midnightblue" d="M410.39,-56.44C432.71,-47.52 467.9,-33.44 493.21,-23.32"/>
<polygon fill="midnightblue" stroke="midnightblue" points="494.72,-26.48 502.71,-19.52 492.12,-19.98 494.72,-26.48"/>
</g>
<!-- Node14&#45;&gt;Node11 -->
<g id="edge17" class="edge">
<title>Node14&#45;&gt;Node11</title>
<path fill="none" stroke="midnightblue" d="M394.4,-112.44C420.2,-103.4 461.08,-89.06 490.02,-78.92"/>
<polygon fill="midnightblue" stroke="midnightblue" points="491.43,-82.13 499.71,-75.52 489.12,-75.52 491.43,-82.13"/>
</g>
<!-- Node16&#45;&gt;Node3 -->
<g id="edge21" class="edge">
<title>Node16&#45;&gt;Node3</title>
<path fill="none" stroke="midnightblue" d="M748.29,-179.36C785.95,-174.23 832.08,-161.73 862,-132 874.11,-119.97 878.59,-100.68 880.21,-86.23"/>
<polygon fill="midnightblue" stroke="midnightblue" points="883.72,-86.15 880.98,-75.91 876.74,-85.63 883.72,-86.15"/>
</g>
<!-- Node16&#45;&gt;Node9 -->
<g id="edge20" class="edge">
<title>Node16&#45;&gt;Node9</title>
<path fill="none" stroke="midnightblue" d="M649.93,-168.4C624.98,-158.37 591.79,-145.03 567.86,-135.4"/>
<polygon fill="midnightblue" stroke="midnightblue" points="569.12,-132.14 558.54,-131.66 566.51,-138.64 569.12,-132.14"/>
</g>
<!-- Node16&#45;&gt;Node10 -->
<g id="edge23" class="edge">
<title>Node16&#45;&gt;Node10</title>
<path fill="none" stroke="midnightblue" d="M621.9,-174.1C606.55,-172.08 590.19,-169.94 575,-168 449.44,-151.93 415.27,-150.55 286.46,-132.16"/>
<polygon fill="midnightblue" stroke="midnightblue" points="286.59,-128.65 276.19,-130.69 285.6,-135.58 286.59,-128.65"/>
</g>
<!-- Node16&#45;&gt;Node11 -->
<g id="edge22" class="edge">
<title>Node16&#45;&gt;Node11</title>
<path fill="none" stroke="midnightblue" d="M683.66,-168.36C681.41,-152.55 675.5,-127.17 660,-112 641.26,-93.65 614.87,-82.78 590.33,-76.35"/>
<polygon fill="midnightblue" stroke="midnightblue" points="590.85,-72.87 580.31,-73.93 589.21,-79.68 590.85,-72.87"/>
</g>
<!-- Node16&#45;&gt;Node15 -->
<g id="edge27" class="edge">
<title>Node16&#45;&gt;Node15</title>
<path fill="none" stroke="midnightblue" d="M669.6,-168.4C659.76,-159.4 647.01,-147.72 636.89,-138.47"/>
<polygon fill="midnightblue" stroke="midnightblue" points="639.2,-135.83 629.46,-131.66 634.47,-140.99 639.2,-135.83"/>
</g>
<!-- Node17 -->
<g id="node17" class="node">
<title>Node17</title>
<g id="a_node17"><a xlink:href="_socket_writer_8h.html" target="_top" xlink:title=" ">
<polygon fill="white" stroke="black" points="707,-112.5 707,-131.5 853,-131.5 853,-112.5 707,-112.5"/>
<text text-anchor="middle" x="780" y="-119.5" font-family="Helvetica,sans-Serif" font-size="10.00">socket/stream/SocketWriter.h</text>
</a>
</g>
</g>
<!-- Node16&#45;&gt;Node17 -->
<g id="edge24" class="edge">
<title>Node16&#45;&gt;Node17</title>
<path fill="none" stroke="midnightblue" d="M707.51,-168.4C722.6,-158.95 742.39,-146.56 757.47,-137.11"/>
<polygon fill="midnightblue" stroke="midnightblue" points="759.56,-139.93 766.18,-131.66 755.84,-134 759.56,-139.93"/>
</g>
<!-- Node17&#45;&gt;Node3 -->
<g id="edge25" class="edge">
<title>Node17&#45;&gt;Node3</title>
<path fill="none" stroke="midnightblue" d="M796.23,-112.32C812.35,-103.7 837.3,-90.36 855.96,-80.39"/>
<polygon fill="midnightblue" stroke="midnightblue" points="857.64,-83.46 864.81,-75.65 854.34,-77.28 857.64,-83.46"/>
</g>
<!-- Node17&#45;&gt;Node13 -->
<g id="edge26" class="edge">
<title>Node17&#45;&gt;Node13</title>
<path fill="none" stroke="midnightblue" d="M718.04,-112.44C646.17,-102.52 528.15,-86.22 454.71,-76.08"/>
<polygon fill="midnightblue" stroke="midnightblue" points="455.04,-72.59 444.65,-74.69 454.08,-79.52 455.04,-72.59"/>
</g>
<!-- Node18&#45;&gt;Node3 -->
<g id="edge32" class="edge">
<title>Node18&#45;&gt;Node3</title>
<path fill="none" stroke="midnightblue" d="M1002.18,-112.44C978.17,-103.44 940.17,-89.19 913.13,-79.05"/>
<polygon fill="midnightblue" stroke="midnightblue" points="914.3,-75.75 903.71,-75.52 911.84,-82.3 914.3,-75.75"/>
</g>
<!-- Node18&#45;&gt;Node11 -->
<g id="edge33" class="edge">
<title>Node18&#45;&gt;Node11</title>
<path fill="none" stroke="midnightblue" d="M947.27,-112.62C849.25,-102.06 682.42,-84.08 590.2,-74.13"/>
<polygon fill="midnightblue" stroke="midnightblue" points="590.46,-70.64 580.15,-73.05 589.71,-77.6 590.46,-70.64"/>
</g>
<!-- Node19 -->
<g id="node19" class="node">
<title>Node19</title>
<g id="a_node19"><a xlink:href="_accept_event_receiver_8h.html" target="_top" xlink:title=" ">
<polygon fill="white" stroke="black" points="945.5,-56.5 945.5,-75.5 1064.5,-75.5 1064.5,-56.5 945.5,-56.5"/>
<text text-anchor="middle" x="1005" y="-63.5" font-family="Helvetica,sans-Serif" font-size="10.00">AcceptEventReceiver.h</text>
</a>
</g>
</g>
<!-- Node18&#45;&gt;Node19 -->
<g id="edge30" class="edge">
<title>Node18&#45;&gt;Node19</title>
<path fill="none" stroke="midnightblue" d="M1021.7,-112.08C1019.02,-104.85 1015.15,-94.41 1011.81,-85.4"/>
<polygon fill="midnightblue" stroke="midnightblue" points="1015,-83.91 1008.24,-75.75 1008.43,-86.34 1015,-83.91"/>
</g>
<!-- Node19&#45;&gt;Node12 -->
<g id="edge31" class="edge">
<title>Node19&#45;&gt;Node12</title>
<path fill="none" stroke="midnightblue" d="M945.05,-58.27C850.85,-47.69 669.53,-27.34 578.69,-17.14"/>
<polygon fill="midnightblue" stroke="midnightblue" points="578.93,-13.64 568.6,-16.01 578.15,-20.6 578.93,-13.64"/>
</g>
<!-- Node20&#45;&gt;Node18 -->
<g id="edge36" class="edge">
<title>Node20&#45;&gt;Node18</title>
<path fill="none" stroke="midnightblue" d="M944.02,-291.43C954.09,-283.09 968.79,-269.57 978,-255 1001.32,-218.12 1015.03,-168.11 1021.16,-141.49"/>
<polygon fill="midnightblue" stroke="midnightblue" points="1024.6,-142.13 1023.32,-131.61 1017.76,-140.63 1024.6,-142.13"/>
</g>
</g>
</svg>
