<?xml version="1.0" encoding="UTF-8" standalone="no"?>
<!DOCTYPE svg PUBLIC "-//W3C//DTD SVG 1.1//EN"
 "http://www.w3.org/Graphics/SVG/1.1/DTD/svg11.dtd">
<!-- Generated by graphviz version 2.43.0 (0)
 -->
<!-- Title: web::http::server::SocketContextPlugin Pages: 1 -->
<svg width="584pt" height="1340pt"
 viewBox="0.00 0.00 583.50 1340.00" xmlns="http://www.w3.org/2000/svg" xmlns:xlink="http://www.w3.org/1999/xlink">
<g id="graph0" class="graph" transform="scale(1 1) rotate(0) translate(4 1336)">
<title>web::http::server::SocketContextPlugin</title>
<polygon fill="white" stroke="transparent" points="-4,4 -4,-1336 579.5,-1336 579.5,4 -4,4"/>
<!-- Node1 -->
<g id="node1" class="node">
<title>Node1</title>
<g id="a_node1"><a xlink:title=" ">
<polygon fill="#bfbfbf" stroke="black" points="147,-0.5 147,-68.5 256,-68.5 256,-0.5 147,-0.5"/>
<text text-anchor="start" x="155" y="-56.5" font-family="Helvetica,sans-Serif" font-size="10.00">web::http::server::</text>
<text text-anchor="middle" x="201.5" y="-45.5" font-family="Helvetica,sans-Serif" font-size="10.00">SocketContextPlugin</text>
<polyline fill="none" stroke="black" points="147,-38.5 256,-38.5 "/>
<text text-anchor="start" x="155" y="-26.5" font-family="Helvetica,sans-Serif" font-size="10.00">+ handle</text>
<polyline fill="none" stroke="black" points="147,-19.5 256,-19.5 "/>
<text text-anchor="middle" x="201.5" y="-7.5" font-family="Helvetica,sans-Serif" font-size="10.00"> </text>
</a>
</g>
</g>
<!-- Node2 -->
<g id="node2" class="node">
<title>Node2</title>
<g id="a_node2"><a xlink:href="classweb_1_1http_1_1server_1_1_socket_context_upgrade_factory.html" target="_top" xlink:title=" ">
<polygon fill="white" stroke="black" points="115.5,-116.5 115.5,-239.5 287.5,-239.5 287.5,-116.5 115.5,-116.5"/>
<text text-anchor="start" x="123.5" y="-227.5" font-family="Helvetica,sans-Serif" font-size="10.00">web::http::server::</text>
<text text-anchor="middle" x="201.5" y="-216.5" font-family="Helvetica,sans-Serif" font-size="10.00">SocketContextUpgradeFactory</text>
<polyline fill="none" stroke="black" points="115.5,-209.5 287.5,-209.5 "/>
<text text-anchor="middle" x="201.5" y="-197.5" font-family="Helvetica,sans-Serif" font-size="10.00"> </text>
<polyline fill="none" stroke="black" points="115.5,-190.5 287.5,-190.5 "/>
<text text-anchor="start" x="123.5" y="-178.5" font-family="Helvetica,sans-Serif" font-size="10.00">+ prepare()</text>
<text text-anchor="start" x="123.5" y="-167.5" font-family="Helvetica,sans-Serif" font-size="10.00">+ name()</text>
<text text-anchor="start" x="123.5" y="-156.5" font-family="Helvetica,sans-Serif" font-size="10.00">+ role()</text>
<text text-anchor="start" x="123.5" y="-145.5" font-family="Helvetica,sans-Serif" font-size="10.00">+ destroy()</text>
<text text-anchor="start" x="123.5" y="-134.5" font-family="Helvetica,sans-Serif" font-size="10.00"># SocketContextUpgradeFactory()</text>
<text text-anchor="start" x="123.5" y="-123.5" font-family="Helvetica,sans-Serif" font-size="10.00"># ~SocketContextUpgradeFactory()</text>
</a>
</g>
</g>
<!-- Node2&#45;&gt;Node1 -->
<g id="edge1" class="edge">
<title>Node2&#45;&gt;Node1</title>
<path fill="none" stroke="#404040" d="M201.5,-116.17C201.5,-104.31 201.5,-92.06 201.5,-80.81"/>
<polygon fill="none" stroke="#404040" points="201.5,-80.6 197.5,-74.6 201.5,-68.6 205.5,-74.6 201.5,-80.6"/>
<text text-anchor="middle" x="273" y="-90" font-family="Helvetica,sans-Serif" font-size="10.00"> +socketContextUpgradeFactory</text>
</g>
<!-- Node3 -->
<g id="node3" class="node">
<title>Node3</title>
<g id="a_node3"><a xlink:href="classnet_1_1socket_1_1stream_1_1_socket_context_factory.html" target="_top" xlink:title=" ">
<polygon fill="white" stroke="black" points="0,-414 0,-504 135,-504 135,-414 0,-414"/>
<text text-anchor="start" x="8" y="-492" font-family="Helvetica,sans-Serif" font-size="10.00">net::socket::stream</text>
<text text-anchor="middle" x="67.5" y="-481" font-family="Helvetica,sans-Serif" font-size="10.00">::SocketContextFactory</text>
<polyline fill="none" stroke="black" points="0,-474 135,-474 "/>
<text text-anchor="middle" x="67.5" y="-462" font-family="Helvetica,sans-Serif" font-size="10.00"> </text>
<polyline fill="none" stroke="black" points="0,-455 135,-455 "/>
<text text-anchor="start" x="8" y="-443" font-family="Helvetica,sans-Serif" font-size="10.00">+ create()</text>
<text text-anchor="start" x="8" y="-432" font-family="Helvetica,sans-Serif" font-size="10.00"># SocketContextFactory()</text>
<text text-anchor="start" x="8" y="-421" font-family="Helvetica,sans-Serif" font-size="10.00"># ~SocketContextFactory()</text>
</a>
</g>
</g>
<!-- Node3&#45;&gt;Node2 -->
<g id="edge2" class="edge">
<title>Node3&#45;&gt;Node2</title>
<path fill="none" stroke="midnightblue" d="M90.58,-404.45C105.46,-370.54 125.5,-325.91 144.5,-287 152.04,-271.57 160.51,-255.09 168.57,-239.77"/>
<polygon fill="none" stroke="midnightblue" points="87.33,-403.15 86.53,-413.72 93.75,-405.96 87.33,-403.15"/>
</g>
<!-- Node4 -->
<g id="node4" class="node">
<title>Node4</title>
<g id="a_node4"><a xlink:href="classweb_1_1http_1_1server_1_1_request.html" target="_top" xlink:title=" ">
<polygon fill="white" stroke="black" points="153.5,-331.5 153.5,-586.5 249.5,-586.5 249.5,-331.5 153.5,-331.5"/>
<text text-anchor="start" x="161.5" y="-574.5" font-family="Helvetica,sans-Serif" font-size="10.00">web::http::server::</text>
<text text-anchor="middle" x="201.5" y="-563.5" font-family="Helvetica,sans-Serif" font-size="10.00">Request</text>
<polyline fill="none" stroke="black" points="153.5,-556.5 249.5,-556.5 "/>
<text text-anchor="start" x="161.5" y="-544.5" font-family="Helvetica,sans-Serif" font-size="10.00">+ method</text>
<text text-anchor="start" x="161.5" y="-533.5" font-family="Helvetica,sans-Serif" font-size="10.00">+ url</text>
<text text-anchor="start" x="161.5" y="-522.5" font-family="Helvetica,sans-Serif" font-size="10.00">+ httpVersion</text>
<text text-anchor="start" x="161.5" y="-511.5" font-family="Helvetica,sans-Serif" font-size="10.00">+ httpMajor</text>
<text text-anchor="start" x="161.5" y="-500.5" font-family="Helvetica,sans-Serif" font-size="10.00">+ httpMinor</text>
<text text-anchor="start" x="161.5" y="-489.5" font-family="Helvetica,sans-Serif" font-size="10.00">+ body</text>
<text text-anchor="start" x="161.5" y="-478.5" font-family="Helvetica,sans-Serif" font-size="10.00">+ contentLength</text>
<text text-anchor="start" x="161.5" y="-467.5" font-family="Helvetica,sans-Serif" font-size="10.00"># connectionState</text>
<text text-anchor="start" x="161.5" y="-456.5" font-family="Helvetica,sans-Serif" font-size="10.00"># queries</text>
<text text-anchor="start" x="161.5" y="-445.5" font-family="Helvetica,sans-Serif" font-size="10.00"># headers</text>
<text text-anchor="start" x="161.5" y="-434.5" font-family="Helvetica,sans-Serif" font-size="10.00"># cookies</text>
<text text-anchor="start" x="161.5" y="-423.5" font-family="Helvetica,sans-Serif" font-size="10.00"># nullstr</text>
<polyline fill="none" stroke="black" points="153.5,-416.5 249.5,-416.5 "/>
<text text-anchor="start" x="161.5" y="-404.5" font-family="Helvetica,sans-Serif" font-size="10.00">+ header()</text>
<text text-anchor="start" x="161.5" y="-393.5" font-family="Helvetica,sans-Serif" font-size="10.00">+ cookie()</text>
<text text-anchor="start" x="161.5" y="-382.5" font-family="Helvetica,sans-Serif" font-size="10.00">+ query()</text>
<text text-anchor="start" x="161.5" y="-371.5" font-family="Helvetica,sans-Serif" font-size="10.00">+ bodyLength()</text>
<text text-anchor="start" x="161.5" y="-360.5" font-family="Helvetica,sans-Serif" font-size="10.00"># Request()</text>
<text text-anchor="start" x="161.5" y="-349.5" font-family="Helvetica,sans-Serif" font-size="10.00"># ~Request()</text>
<text text-anchor="start" x="161.5" y="-338.5" font-family="Helvetica,sans-Serif" font-size="10.00"># reset()</text>
</a>
</g>
</g>
<!-- Node4&#45;&gt;Node2 -->
<g id="edge3" class="edge">
<title>Node4&#45;&gt;Node2</title>
<path fill="none" stroke="#404040" d="M201.5,-331.15C201.5,-303.94 201.5,-276.08 201.5,-251.76"/>
<polygon fill="none" stroke="#404040" points="201.5,-251.75 197.5,-245.75 201.5,-239.75 205.5,-245.75 201.5,-251.75"/>
<text text-anchor="middle" x="222" y="-261" font-family="Helvetica,sans-Serif" font-size="10.00"> #request</text>
</g>
<!-- Node5 -->
<g id="node5" class="node">
<title>Node5</title>
<g id="a_node5"><a xlink:href="classutils_1_1_multible_attribute_injector.html" target="_top" xlink:title=" ">
<polygon fill="white" stroke="black" points="146,-678.5 146,-812.5 257,-812.5 257,-678.5 146,-678.5"/>
<text text-anchor="start" x="154" y="-800.5" font-family="Helvetica,sans-Serif" font-size="10.00">utils::MultibleAttribute</text>
<text text-anchor="middle" x="201.5" y="-789.5" font-family="Helvetica,sans-Serif" font-size="10.00">Injector</text>
<polyline fill="none" stroke="black" points="146,-782.5 257,-782.5 "/>
<text text-anchor="start" x="154" y="-770.5" font-family="Helvetica,sans-Serif" font-size="10.00">&#45; attributes</text>
<polyline fill="none" stroke="black" points="146,-763.5 257,-763.5 "/>
<text text-anchor="start" x="154" y="-751.5" font-family="Helvetica,sans-Serif" font-size="10.00">+ setAttribute()</text>
<text text-anchor="start" x="154" y="-740.5" font-family="Helvetica,sans-Serif" font-size="10.00">+ setAttribute()</text>
<text text-anchor="start" x="154" y="-729.5" font-family="Helvetica,sans-Serif" font-size="10.00">+ delAttribute()</text>
<text text-anchor="start" x="154" y="-718.5" font-family="Helvetica,sans-Serif" font-size="10.00">+ hasAttribute()</text>
<text text-anchor="start" x="154" y="-707.5" font-family="Helvetica,sans-Serif" font-size="10.00">+ getAttribute()</text>
<text text-anchor="start" x="154" y="-696.5" font-family="Helvetica,sans-Serif" font-size="10.00">+ getAttribute()</text>
<text text-anchor="start" x="154" y="-685.5" font-family="Helvetica,sans-Serif" font-size="10.00">+ reset()</text>
</a>
</g>
</g>
<!-- Node5&#45;&gt;Node4 -->
<g id="edge4" class="edge">
<title>Node5&#45;&gt;Node4</title>
<path fill="none" stroke="midnightblue" d="M201.5,-668C201.5,-642.93 201.5,-614.36 201.5,-586.6"/>
<polygon fill="none" stroke="midnightblue" points="198,-668.16 201.5,-678.16 205,-668.16 198,-668.16"/>
</g>
<!-- Node6 -->
<g id="node6" class="node">
<title>Node6</title>
<g id="a_node6"><a xlink:href="classweb_1_1http_1_1server_1_1_response.html" target="_top" xlink:title=" ">
<polygon fill="white" stroke="black" points="395.5,-287.5 395.5,-630.5 517.5,-630.5 517.5,-287.5 395.5,-287.5"/>
<text text-anchor="start" x="403.5" y="-618.5" font-family="Helvetica,sans-Serif" font-size="10.00">web::http::server::</text>
<text text-anchor="middle" x="456.5" y="-607.5" font-family="Helvetica,sans-Serif" font-size="10.00">Response</text>
<polyline fill="none" stroke="black" points="395.5,-600.5 517.5,-600.5 "/>
<text text-anchor="start" x="403.5" y="-588.5" font-family="Helvetica,sans-Serif" font-size="10.00"># responseStatus</text>
<text text-anchor="start" x="403.5" y="-577.5" font-family="Helvetica,sans-Serif" font-size="10.00"># headers</text>
<text text-anchor="start" x="403.5" y="-566.5" font-family="Helvetica,sans-Serif" font-size="10.00"># cookies</text>
<text text-anchor="start" x="403.5" y="-555.5" font-family="Helvetica,sans-Serif" font-size="10.00">&#45; connectionState</text>
<text text-anchor="start" x="403.5" y="-544.5" font-family="Helvetica,sans-Serif" font-size="10.00">&#45; sendHeaderInProgress</text>
<text text-anchor="start" x="403.5" y="-533.5" font-family="Helvetica,sans-Serif" font-size="10.00">&#45; headersSent</text>
<text text-anchor="start" x="403.5" y="-522.5" font-family="Helvetica,sans-Serif" font-size="10.00">&#45; contentSent</text>
<text text-anchor="start" x="403.5" y="-511.5" font-family="Helvetica,sans-Serif" font-size="10.00">&#45; contentLength</text>
<polyline fill="none" stroke="black" points="395.5,-504.5 517.5,-504.5 "/>
<text text-anchor="start" x="403.5" y="-492.5" font-family="Helvetica,sans-Serif" font-size="10.00">+ send()</text>
<text text-anchor="start" x="403.5" y="-481.5" font-family="Helvetica,sans-Serif" font-size="10.00">+ send()</text>
<text text-anchor="start" x="403.5" y="-470.5" font-family="Helvetica,sans-Serif" font-size="10.00">+ end()</text>
<text text-anchor="start" x="403.5" y="-459.5" font-family="Helvetica,sans-Serif" font-size="10.00">+ status()</text>
<text text-anchor="start" x="403.5" y="-448.5" font-family="Helvetica,sans-Serif" font-size="10.00">+ append()</text>
<text text-anchor="start" x="403.5" y="-437.5" font-family="Helvetica,sans-Serif" font-size="10.00">+ set()</text>
<text text-anchor="start" x="403.5" y="-426.5" font-family="Helvetica,sans-Serif" font-size="10.00">+ set()</text>
<text text-anchor="start" x="403.5" y="-415.5" font-family="Helvetica,sans-Serif" font-size="10.00">+ cookie()</text>
<text text-anchor="start" x="403.5" y="-404.5" font-family="Helvetica,sans-Serif" font-size="10.00">+ clearCookie()</text>
<text text-anchor="start" x="403.5" y="-393.5" font-family="Helvetica,sans-Serif" font-size="10.00">+ type()</text>
<text text-anchor="start" x="403.5" y="-382.5" font-family="Helvetica,sans-Serif" font-size="10.00">+ upgrade()</text>
<text text-anchor="start" x="403.5" y="-371.5" font-family="Helvetica,sans-Serif" font-size="10.00"># Response()</text>
<text text-anchor="start" x="403.5" y="-360.5" font-family="Helvetica,sans-Serif" font-size="10.00"># reset()</text>
<text text-anchor="start" x="403.5" y="-349.5" font-family="Helvetica,sans-Serif" font-size="10.00">&#45; enqueue()</text>
<text text-anchor="start" x="403.5" y="-338.5" font-family="Helvetica,sans-Serif" font-size="10.00">&#45; enqueue()</text>
<text text-anchor="start" x="403.5" y="-327.5" font-family="Helvetica,sans-Serif" font-size="10.00">&#45; sendHeader()</text>
<text text-anchor="start" x="403.5" y="-316.5" font-family="Helvetica,sans-Serif" font-size="10.00">&#45; receive()</text>
<text text-anchor="start" x="403.5" y="-305.5" font-family="Helvetica,sans-Serif" font-size="10.00">&#45; eof()</text>
<text text-anchor="start" x="403.5" y="-294.5" font-family="Helvetica,sans-Serif" font-size="10.00">&#45; error()</text>
</a>
</g>
</g>
<!-- Node6&#45;&gt;Node2 -->
<g id="edge5" class="edge">
<title>Node6&#45;&gt;Node2</title>
<path fill="none" stroke="#404040" d="M395.29,-297.96C392.48,-294.17 389.55,-290.51 386.5,-287 362.6,-259.5 329.91,-237.24 298.65,-220.23"/>
<polygon fill="none" stroke="#404040" points="298.28,-220.03 291.11,-220.77 287.67,-214.43 294.84,-213.69 298.28,-220.03"/>
<text text-anchor="middle" x="391" y="-261" font-family="Helvetica,sans-Serif" font-size="10.00"> #response</text>
</g>
<!-- Node7 -->
<g id="node7" class="node">
<title>Node7</title>
<g id="a_node7"><a xlink:href="classnet_1_1pipe_1_1_sink.html" target="_top" xlink:title=" ">
<polygon fill="white" stroke="black" points="326.5,-684 326.5,-807 406.5,-807 406.5,-684 326.5,-684"/>
<text text-anchor="middle" x="366.5" y="-795" font-family="Helvetica,sans-Serif" font-size="10.00">net::pipe::Sink</text>
<polyline fill="none" stroke="black" points="326.5,-788 406.5,-788 "/>
<text text-anchor="middle" x="366.5" y="-776" font-family="Helvetica,sans-Serif" font-size="10.00"> </text>
<polyline fill="none" stroke="black" points="326.5,-769 406.5,-769 "/>
<text text-anchor="start" x="334.5" y="-757" font-family="Helvetica,sans-Serif" font-size="10.00">+ Sink()</text>
<text text-anchor="start" x="334.5" y="-746" font-family="Helvetica,sans-Serif" font-size="10.00">+ ~Sink()</text>
<text text-anchor="start" x="334.5" y="-735" font-family="Helvetica,sans-Serif" font-size="10.00">+ receive()</text>
<text text-anchor="start" x="334.5" y="-724" font-family="Helvetica,sans-Serif" font-size="10.00">+ eof()</text>
<text text-anchor="start" x="334.5" y="-713" font-family="Helvetica,sans-Serif" font-size="10.00">+ error()</text>
<text text-anchor="start" x="334.5" y="-702" font-family="Helvetica,sans-Serif" font-size="10.00">+ connect()</text>
<text text-anchor="start" x="334.5" y="-691" font-family="Helvetica,sans-Serif" font-size="10.00">+ disconnect()</text>
</a>
</g>
</g>
<!-- Node7&#45;&gt;Node6 -->
<g id="edge6" class="edge">
<title>Node7&#45;&gt;Node6</title>
<path fill="none" stroke="midnightblue" d="M388.75,-674.17C393.04,-660.62 397.7,-645.88 402.5,-630.7"/>
<polygon fill="none" stroke="midnightblue" points="385.38,-673.23 385.7,-683.82 392.05,-675.34 385.38,-673.23"/>
</g>
<!-- Node8 -->
<g id="node8" class="node">
<title>Node8</title>
<g id="a_node8"><a xlink:href="classnet_1_1pipe_1_1_source.html" target="_top" xlink:title=" ">
<polygon fill="white" stroke="black" points="267.5,-392 267.5,-526 377.5,-526 377.5,-392 267.5,-392"/>
<text text-anchor="middle" x="322.5" y="-514" font-family="Helvetica,sans-Serif" font-size="10.00">net::pipe::Source</text>
<polyline fill="none" stroke="black" points="267.5,-507 377.5,-507 "/>
<text text-anchor="middle" x="322.5" y="-495" font-family="Helvetica,sans-Serif" font-size="10.00"> </text>
<polyline fill="none" stroke="black" points="267.5,-488 377.5,-488 "/>
<text text-anchor="start" x="275.5" y="-476" font-family="Helvetica,sans-Serif" font-size="10.00">+ Source()</text>
<text text-anchor="start" x="275.5" y="-465" font-family="Helvetica,sans-Serif" font-size="10.00">+ ~Source()</text>
<text text-anchor="start" x="275.5" y="-454" font-family="Helvetica,sans-Serif" font-size="10.00">+ sinkDisconnected()</text>
<text text-anchor="start" x="275.5" y="-443" font-family="Helvetica,sans-Serif" font-size="10.00">+ connect()</text>
<text text-anchor="start" x="275.5" y="-432" font-family="Helvetica,sans-Serif" font-size="10.00">+ disconnect()</text>
<text text-anchor="start" x="275.5" y="-421" font-family="Helvetica,sans-Serif" font-size="10.00">+ send()</text>
<text text-anchor="start" x="275.5" y="-410" font-family="Helvetica,sans-Serif" font-size="10.00">+ eof()</text>
<text text-anchor="start" x="275.5" y="-399" font-family="Helvetica,sans-Serif" font-size="10.00">+ error()</text>
</a>
</g>
</g>
<!-- Node7&#45;&gt;Node8 -->
<g id="edge8" class="edge">
<title>Node7&#45;&gt;Node8</title>
<path fill="none" stroke="#404040" d="M357.11,-683.82C350.54,-641.27 341.68,-584.02 334.58,-538.08"/>
<polygon fill="none" stroke="#404040" points="334.55,-537.91 329.68,-532.59 332.72,-526.05 337.59,-531.37 334.55,-537.91"/>
<text text-anchor="middle" x="366" y="-652" font-family="Helvetica,sans-Serif" font-size="10.00"> #sink</text>
</g>
<!-- Node8&#45;&gt;Node7 -->
<g id="edge7" class="edge">
<title>Node8&#45;&gt;Node7</title>
<path fill="none" stroke="#404040" d="M308.4,-526.13C302.6,-565.72 299.82,-616.62 312.5,-660 314.58,-667.13 317.47,-674.23 320.84,-681.11"/>
<polygon fill="none" stroke="#404040" points="320.84,-681.12 327.19,-684.54 326.48,-691.72 320.13,-688.3 320.84,-681.12"/>
<text text-anchor="middle" x="331.5" y="-652" font-family="Helvetica,sans-Serif" font-size="10.00"> #source</text>
</g>
<!-- Node9 -->
<g id="node9" class="node">
<title>Node9</title>
<g id="a_node9"><a xlink:href="classweb_1_1http_1_1server_1_1_socket_context.html" target="_top" xlink:title=" ">
<polygon fill="white" stroke="black" points="425,-689.5 425,-801.5 556,-801.5 556,-689.5 425,-689.5"/>
<text text-anchor="start" x="433" y="-789.5" font-family="Helvetica,sans-Serif" font-size="10.00">web::http::server::</text>
<text text-anchor="middle" x="490.5" y="-778.5" font-family="Helvetica,sans-Serif" font-size="10.00">SocketContext</text>
<polyline fill="none" stroke="black" points="425,-771.5 556,-771.5 "/>
<text text-anchor="middle" x="490.5" y="-759.5" font-family="Helvetica,sans-Serif" font-size="10.00"> </text>
<polyline fill="none" stroke="black" points="425,-752.5 556,-752.5 "/>
<text text-anchor="start" x="433" y="-740.5" font-family="Helvetica,sans-Serif" font-size="10.00">+ SocketContext()</text>
<text text-anchor="start" x="433" y="-729.5" font-family="Helvetica,sans-Serif" font-size="10.00">+ SocketContext()</text>
<text text-anchor="start" x="433" y="-718.5" font-family="Helvetica,sans-Serif" font-size="10.00">+ operator=()</text>
<text text-anchor="start" x="433" y="-707.5" font-family="Helvetica,sans-Serif" font-size="10.00">+ sendToPeerCompleted()</text>
<text text-anchor="start" x="433" y="-696.5" font-family="Helvetica,sans-Serif" font-size="10.00">+ terminateConnection()</text>
</a>
</g>
</g>
<!-- Node9&#45;&gt;Node6 -->
<g id="edge9" class="edge">
<title>Node9&#45;&gt;Node6</title>
<path fill="none" stroke="#404040" d="M483.9,-689.31C482.23,-675.33 480.35,-659.53 478.36,-642.92"/>
<polygon fill="none" stroke="#404040" points="478.32,-642.62 473.64,-637.13 476.9,-630.7 481.58,-636.18 478.32,-642.62"/>
<text text-anchor="middle" x="516" y="-652" font-family="Helvetica,sans-Serif" font-size="10.00"> #socketContext</text>
</g>
<!-- Node10 -->
<g id="node10" class="node">
<title>Node10</title>
<g id="a_node10"><a xlink:href="classnet_1_1socket_1_1stream_1_1_socket_context.html" target="_top" xlink:title=" ">
<polygon fill="white" stroke="black" points="414,-850.5 414,-1083.5 567,-1083.5 567,-850.5 414,-850.5"/>
<text text-anchor="start" x="422" y="-1071.5" font-family="Helvetica,sans-Serif" font-size="10.00">net::socket::stream</text>
<text text-anchor="middle" x="490.5" y="-1060.5" font-family="Helvetica,sans-Serif" font-size="10.00">::SocketContext</text>
<polyline fill="none" stroke="black" points="414,-1053.5 567,-1053.5 "/>
<text text-anchor="middle" x="490.5" y="-1041.5" font-family="Helvetica,sans-Serif" font-size="10.00"> </text>
<polyline fill="none" stroke="black" points="414,-1034.5 567,-1034.5 "/>
<text text-anchor="start" x="422" y="-1022.5" font-family="Helvetica,sans-Serif" font-size="10.00">+ sendToPeer()</text>
<text text-anchor="start" x="422" y="-1011.5" font-family="Helvetica,sans-Serif" font-size="10.00">+ sendToPeer()</text>
<text text-anchor="start" x="422" y="-1000.5" font-family="Helvetica,sans-Serif" font-size="10.00">+ readFromPeer()</text>
<text text-anchor="start" x="422" y="-989.5" font-family="Helvetica,sans-Serif" font-size="10.00">+ close()</text>
<text text-anchor="start" x="422" y="-978.5" font-family="Helvetica,sans-Serif" font-size="10.00">+ getLocalAddressAsString()</text>
<text text-anchor="start" x="422" y="-967.5" font-family="Helvetica,sans-Serif" font-size="10.00">+ getRemoteAddressAsString()</text>
<text text-anchor="start" x="422" y="-956.5" font-family="Helvetica,sans-Serif" font-size="10.00">+ switchSocketContext()</text>
<text text-anchor="start" x="422" y="-945.5" font-family="Helvetica,sans-Serif" font-size="10.00">+ setTimeout()</text>
<text text-anchor="start" x="422" y="-934.5" font-family="Helvetica,sans-Serif" font-size="10.00">+ onReceiveFromPeer()</text>
<text text-anchor="start" x="422" y="-923.5" font-family="Helvetica,sans-Serif" font-size="10.00">+ onWriteError()</text>
<text text-anchor="start" x="422" y="-912.5" font-family="Helvetica,sans-Serif" font-size="10.00">+ onReadError()</text>
<text text-anchor="start" x="422" y="-901.5" font-family="Helvetica,sans-Serif" font-size="10.00">+ onConnected()</text>
<text text-anchor="start" x="422" y="-890.5" font-family="Helvetica,sans-Serif" font-size="10.00">+ onDisconnected()</text>
<text text-anchor="start" x="422" y="-879.5" font-family="Helvetica,sans-Serif" font-size="10.00"># SocketContext()</text>
<text text-anchor="start" x="422" y="-868.5" font-family="Helvetica,sans-Serif" font-size="10.00"># ~SocketContext()</text>
<text text-anchor="start" x="422" y="-857.5" font-family="Helvetica,sans-Serif" font-size="10.00">&#45; receiveFromPeer()</text>
</a>
</g>
</g>
<!-- Node10&#45;&gt;Node9 -->
<g id="edge10" class="edge">
<title>Node10&#45;&gt;Node9</title>
<path fill="none" stroke="midnightblue" d="M490.5,-840.12C490.5,-826.65 490.5,-813.52 490.5,-801.55"/>
<polygon fill="none" stroke="midnightblue" points="487,-840.46 490.5,-850.46 494,-840.46 487,-840.46"/>
</g>
<!-- Node11 -->
<g id="node11" class="node">
<title>Node11</title>
<g id="a_node11"><a xlink:href="classnet_1_1socket_1_1stream_1_1_socket_connection.html" target="_top" xlink:title=" ">
<polygon fill="white" stroke="black" points="414,-1131.5 414,-1331.5 567,-1331.5 567,-1131.5 414,-1131.5"/>
<text text-anchor="start" x="422" y="-1319.5" font-family="Helvetica,sans-Serif" font-size="10.00">net::socket::stream</text>
<text text-anchor="middle" x="490.5" y="-1308.5" font-family="Helvetica,sans-Serif" font-size="10.00">::SocketConnection</text>
<polyline fill="none" stroke="black" points="414,-1301.5 567,-1301.5 "/>
<text text-anchor="start" x="422" y="-1289.5" font-family="Helvetica,sans-Serif" font-size="10.00"># SocketContext</text>
<polyline fill="none" stroke="black" points="414,-1282.5 567,-1282.5 "/>
<text text-anchor="start" x="422" y="-1270.5" font-family="Helvetica,sans-Serif" font-size="10.00">+ getSocketContext()</text>
<text text-anchor="start" x="422" y="-1259.5" font-family="Helvetica,sans-Serif" font-size="10.00">+ getLocalAddressAsString()</text>
<text text-anchor="start" x="422" y="-1248.5" font-family="Helvetica,sans-Serif" font-size="10.00">+ getRemoteAddressAsString()</text>
<text text-anchor="start" x="422" y="-1237.5" font-family="Helvetica,sans-Serif" font-size="10.00">+ sendToPeer()</text>
<text text-anchor="start" x="422" y="-1226.5" font-family="Helvetica,sans-Serif" font-size="10.00">+ sendToPeer()</text>
<text text-anchor="start" x="422" y="-1215.5" font-family="Helvetica,sans-Serif" font-size="10.00">+ readFromPeer()</text>
<text text-anchor="start" x="422" y="-1204.5" font-family="Helvetica,sans-Serif" font-size="10.00">+ close()</text>
<text text-anchor="start" x="422" y="-1193.5" font-family="Helvetica,sans-Serif" font-size="10.00">+ setTimeout()</text>
<text text-anchor="start" x="422" y="-1182.5" font-family="Helvetica,sans-Serif" font-size="10.00"># SocketConnection()</text>
<text text-anchor="start" x="422" y="-1171.5" font-family="Helvetica,sans-Serif" font-size="10.00"># ~SocketConnection()</text>
<text text-anchor="start" x="422" y="-1160.5" font-family="Helvetica,sans-Serif" font-size="10.00"># switchSocketContext()</text>
<text text-anchor="start" x="422" y="-1149.5" font-family="Helvetica,sans-Serif" font-size="10.00">&#45; SocketConnection()</text>
<text text-anchor="start" x="422" y="-1138.5" font-family="Helvetica,sans-Serif" font-size="10.00">&#45; operator=()</text>
</a>
</g>
</g>
<!-- Node11&#45;&gt;Node10 -->
<g id="edge11" class="edge">
<title>Node11&#45;&gt;Node10</title>
<path fill="none" stroke="#404040" d="M490.5,-1131.26C490.5,-1119.73 490.5,-1107.85 490.5,-1096"/>
<polygon fill="none" stroke="#404040" points="490.5,-1095.69 486.5,-1089.69 490.5,-1083.69 494.5,-1089.69 490.5,-1095.69"/>
<text text-anchor="middle" x="533" y="-1105" font-family="Helvetica,sans-Serif" font-size="10.00"> &#45;socketConnection</text>
</g>
</g>
</svg>
