<?xml version="1.0" encoding="UTF-8" standalone="no"?>
<!DOCTYPE svg PUBLIC "-//W3C//DTD SVG 1.1//EN"
 "http://www.w3.org/Graphics/SVG/1.1/DTD/svg11.dtd">
<!-- Generated by graphviz version 2.43.0 (0)
 -->
<!-- Title: net/socket/tcp/SocketServer.h Pages: 1 -->
<svg width="270pt" height="274pt"
 viewBox="0.00 0.00 270.00 274.00" xmlns="http://www.w3.org/2000/svg" xmlns:xlink="http://www.w3.org/1999/xlink">
<g id="graph0" class="graph" transform="scale(1 1) rotate(0) translate(4 270)">
<title>net/socket/tcp/SocketServer.h</title>
<polygon fill="white" stroke="transparent" points="-4,4 -4,-270 266,-270 266,4 -4,4"/>
<!-- Node1 -->
<g id="node1" class="node">
<title>Node1</title>
<g id="a_node1"><a xlink:title=" ">
<polygon fill="#bfbfbf" stroke="black" points="62,-246.5 62,-265.5 211,-265.5 211,-246.5 62,-246.5"/>
<text text-anchor="middle" x="136.5" y="-253.5" font-family="Helvetica,sans-Serif" font-size="10.00">net/socket/tcp/SocketServer.h</text>
</a>
</g>
</g>
<!-- Node2 -->
<g id="node2" class="node">
<title>Node2</title>
<g id="a_node2"><a xlink:href="tcp_2legacy_2_socket_server_8h.html" target="_top" xlink:title=" ">
<polygon fill="white" stroke="black" points="22.5,-179.5 22.5,-209.5 132.5,-209.5 132.5,-179.5 22.5,-179.5"/>
<text text-anchor="start" x="30.5" y="-197.5" font-family="Helvetica,sans-Serif" font-size="10.00">net/socket/tcp/legacy</text>
<text text-anchor="middle" x="77.5" y="-186.5" font-family="Helvetica,sans-Serif" font-size="10.00">/SocketServer.h</text>
</a>
</g>
</g>
<!-- Node1&#45;&gt;Node2 -->
<g id="edge1" class="edge">
<title>Node1&#45;&gt;Node2</title>
<path fill="none" stroke="midnightblue" d="M121,-239.37C111.82,-230.11 100.29,-218.48 91.41,-209.52"/>
<polygon fill="midnightblue" stroke="midnightblue" points="118.52,-241.84 128.05,-246.48 123.49,-236.91 118.52,-241.84"/>
</g>
<!-- Node6 -->
<g id="node6" class="node">
<title>Node6</title>
<g id="a_node6"><a xlink:href="tcp_2tls_2_socket_server_8h.html" target="_top" xlink:title=" ">
<polygon fill="white" stroke="black" points="152.5,-179.5 152.5,-209.5 244.5,-209.5 244.5,-179.5 152.5,-179.5"/>
<text text-anchor="start" x="160.5" y="-197.5" font-family="Helvetica,sans-Serif" font-size="10.00">net/socket/tcp/tls</text>
<text text-anchor="middle" x="198.5" y="-186.5" font-family="Helvetica,sans-Serif" font-size="10.00">/SocketServer.h</text>
</a>
</g>
</g>
<!-- Node1&#45;&gt;Node6 -->
<g id="edge5" class="edge">
<title>Node1&#45;&gt;Node6</title>
<path fill="none" stroke="midnightblue" d="M152.79,-239.37C162.43,-230.11 174.55,-218.48 183.89,-209.52"/>
<polygon fill="midnightblue" stroke="midnightblue" points="150.17,-237.03 145.38,-246.48 155.02,-242.08 150.17,-237.03"/>
</g>
<!-- Node3 -->
<g id="node3" class="node">
<title>Node3</title>
<g id="a_node3"><a xlink:href="ipv4_2tcp_2legacy_2_socket_server_8h.html" target="_top" xlink:title=" ">
<polygon fill="white" stroke="black" points="14.5,-112.5 14.5,-142.5 132.5,-142.5 132.5,-112.5 14.5,-112.5"/>
<text text-anchor="start" x="22.5" y="-130.5" font-family="Helvetica,sans-Serif" font-size="10.00">net/socket/ipv4/tcp</text>
<text text-anchor="middle" x="73.5" y="-119.5" font-family="Helvetica,sans-Serif" font-size="10.00">/legacy/SocketServer.h</text>
</a>
</g>
</g>
<!-- Node2&#45;&gt;Node3 -->
<g id="edge2" class="edge">
<title>Node2&#45;&gt;Node3</title>
<path fill="none" stroke="midnightblue" d="M76.02,-169.4C75.46,-160.37 74.85,-150.41 74.37,-142.58"/>
<polygon fill="midnightblue" stroke="midnightblue" points="72.52,-169.63 76.63,-179.4 79.51,-169.2 72.52,-169.63"/>
</g>
<!-- Node4 -->
<g id="node4" class="node">
<title>Node4</title>
<g id="a_node4"><a xlink:href="legacy_2_server_8h.html" target="_top" xlink:title=" ">
<polygon fill="white" stroke="black" points="15.5,-56.5 15.5,-75.5 119.5,-75.5 119.5,-56.5 15.5,-56.5"/>
<text text-anchor="middle" x="67.5" y="-63.5" font-family="Helvetica,sans-Serif" font-size="10.00">http/legacy/Server.h</text>
</a>
</g>
</g>
<!-- Node3&#45;&gt;Node4 -->
<g id="edge3" class="edge">
<title>Node3&#45;&gt;Node4</title>
<path fill="none" stroke="midnightblue" d="M71.06,-102.29C70.11,-92.86 69.08,-82.65 68.37,-75.66"/>
<polygon fill="midnightblue" stroke="midnightblue" points="67.59,-102.8 72.08,-112.4 74.56,-102.1 67.59,-102.8"/>
</g>
<!-- Node5 -->
<g id="node5" class="node">
<title>Node5</title>
<g id="a_node5"><a xlink:href="legacy_2_web_app_8h.html" target="_top" xlink:title=" ">
<polygon fill="white" stroke="black" points="0,-0.5 0,-19.5 131,-19.5 131,-0.5 0,-0.5"/>
<text text-anchor="middle" x="65.5" y="-7.5" font-family="Helvetica,sans-Serif" font-size="10.00">express/legacy/WebApp.h</text>
</a>
</g>
</g>
<!-- Node4&#45;&gt;Node5 -->
<g id="edge4" class="edge">
<title>Node4&#45;&gt;Node5</title>
<path fill="none" stroke="midnightblue" d="M66.79,-45.8C66.46,-36.91 66.08,-26.78 65.82,-19.75"/>
<polygon fill="midnightblue" stroke="midnightblue" points="63.3,-46.22 67.17,-56.08 70.3,-45.96 63.3,-46.22"/>
</g>
<!-- Node7 -->
<g id="node7" class="node">
<title>Node7</title>
<g id="a_node7"><a xlink:href="ipv4_2tcp_2tls_2_socket_server_8h.html" target="_top" xlink:title=" ">
<polygon fill="white" stroke="black" points="153.5,-112.5 153.5,-142.5 253.5,-142.5 253.5,-112.5 153.5,-112.5"/>
<text text-anchor="start" x="161.5" y="-130.5" font-family="Helvetica,sans-Serif" font-size="10.00">net/socket/ipv4/tcp</text>
<text text-anchor="middle" x="203.5" y="-119.5" font-family="Helvetica,sans-Serif" font-size="10.00">/tls/SocketServer.h</text>
</a>
</g>
</g>
<!-- Node6&#45;&gt;Node7 -->
<g id="edge6" class="edge">
<title>Node6&#45;&gt;Node7</title>
<path fill="none" stroke="midnightblue" d="M200.35,-169.4C201.05,-160.37 201.81,-150.41 202.42,-142.58"/>
<polygon fill="midnightblue" stroke="midnightblue" points="196.86,-169.16 199.58,-179.4 203.84,-169.69 196.86,-169.16"/>
</g>
<!-- Node8 -->
<g id="node8" class="node">
<title>Node8</title>
<g id="a_node8"><a xlink:href="tls_2_server_8h.html" target="_top" xlink:title=" ">
<polygon fill="white" stroke="black" points="161.5,-56.5 161.5,-75.5 247.5,-75.5 247.5,-56.5 161.5,-56.5"/>
<text text-anchor="middle" x="204.5" y="-63.5" font-family="Helvetica,sans-Serif" font-size="10.00">http/tls/Server.h</text>
</a>
</g>
</g>
<!-- Node7&#45;&gt;Node8 -->
<g id="edge7" class="edge">
<title>Node7&#45;&gt;Node8</title>
<path fill="none" stroke="midnightblue" d="M203.91,-102.29C204.07,-92.86 204.24,-82.65 204.35,-75.66"/>
<polygon fill="midnightblue" stroke="midnightblue" points="200.41,-102.34 203.74,-112.4 207.4,-102.46 200.41,-102.34"/>
</g>
<!-- Node9 -->
<g id="node9" class="node">
<title>Node9</title>
<g id="a_node9"><a xlink:href="tls_2_web_app_8h.html" target="_top" xlink:title=" ">
<polygon fill="white" stroke="black" points="149,-0.5 149,-19.5 262,-19.5 262,-0.5 149,-0.5"/>
<text text-anchor="middle" x="205.5" y="-7.5" font-family="Helvetica,sans-Serif" font-size="10.00">express/tls/WebApp.h</text>
</a>
</g>
</g>
<!-- Node8&#45;&gt;Node9 -->
<g id="edge8" class="edge">
<title>Node8&#45;&gt;Node9</title>
<path fill="none" stroke="midnightblue" d="M204.86,-45.8C205.02,-36.91 205.21,-26.78 205.34,-19.75"/>
<polygon fill="midnightblue" stroke="midnightblue" points="201.35,-46.02 204.67,-56.08 208.35,-46.15 201.35,-46.02"/>
</g>
</g>
</svg>
