<?xml version="1.0" encoding="UTF-8" standalone="no"?>
<!DOCTYPE svg PUBLIC "-//W3C//DTD SVG 1.1//EN"
 "http://www.w3.org/Graphics/SVG/1.1/DTD/svg11.dtd">
<!-- Generated by graphviz version 2.43.0 (0)
 -->
<!-- Title: net/socket/tcp/tls/SocketListener.h Pages: 1 -->
<svg width="756pt" height="319pt"
 viewBox="0.00 0.00 756.00 319.00" xmlns="http://www.w3.org/2000/svg" xmlns:xlink="http://www.w3.org/1999/xlink">
<g id="graph0" class="graph" transform="scale(1 1) rotate(0) translate(4 315)">
<title>net/socket/tcp/tls/SocketListener.h</title>
<polygon fill="white" stroke="transparent" points="-4,4 -4,-315 752,-315 752,4 -4,4"/>
<!-- Node1 -->
<g id="node1" class="node">
<title>Node1</title>
<g id="a_node1"><a xlink:title=" ">
<polygon fill="#bfbfbf" stroke="black" points="504.5,-280.5 504.5,-310.5 596.5,-310.5 596.5,-280.5 504.5,-280.5"/>
<text text-anchor="start" x="512.5" y="-298.5" font-family="Helvetica,sans-Serif" font-size="10.00">net/socket/tcp/tls</text>
<text text-anchor="middle" x="550.5" y="-287.5" font-family="Helvetica,sans-Serif" font-size="10.00">/SocketListener.h</text>
</a>
</g>
</g>
<!-- Node2 -->
<g id="node2" class="node">
<title>Node2</title>
<g id="a_node2"><a xlink:href="tls_2_socket_connection_8h.html" target="_top" xlink:title=" ">
<polygon fill="white" stroke="black" points="271,-224.5 271,-243.5 376,-243.5 376,-224.5 271,-224.5"/>
<text text-anchor="middle" x="323.5" y="-231.5" font-family="Helvetica,sans-Serif" font-size="10.00">SocketConnection.h</text>
</a>
</g>
</g>
<!-- Node1&#45;&gt;Node2 -->
<g id="edge1" class="edge">
<title>Node1&#45;&gt;Node2</title>
<path fill="none" stroke="midnightblue" d="M504.29,-282.39C463.74,-271.76 405.27,-256.43 365.9,-246.11"/>
<polygon fill="midnightblue" stroke="midnightblue" points="366.64,-242.69 356.08,-243.54 364.86,-249.46 366.64,-242.69"/>
</g>
<!-- Node13 -->
<g id="node13" class="node">
<title>Node13</title>
<g id="a_node13"><a xlink:href="_socket_listener_8h.html" target="_top" xlink:title=" ">
<polygon fill="white" stroke="black" points="469.5,-112.5 469.5,-131.5 607.5,-131.5 607.5,-112.5 469.5,-112.5"/>
<text text-anchor="middle" x="538.5" y="-119.5" font-family="Helvetica,sans-Serif" font-size="10.00">socket/tcp/SocketListener.h</text>
</a>
</g>
</g>
<!-- Node1&#45;&gt;Node13 -->
<g id="edge13" class="edge">
<title>Node1&#45;&gt;Node13</title>
<path fill="none" stroke="midnightblue" d="M547.4,-280.43C545.33,-270.34 542.75,-256.4 541.5,-244 537.86,-207.89 537.76,-165.42 538.09,-141.61"/>
<polygon fill="midnightblue" stroke="midnightblue" points="541.59,-141.6 538.27,-131.54 534.59,-141.47 541.59,-141.6"/>
</g>
<!-- Node16 -->
<g id="node16" class="node">
<title>Node16</title>
<g id="a_node16"><a xlink:href="ssl__utils_8h.html" target="_top" xlink:title=" ">
<polygon fill="white" stroke="black" points="550,-224.5 550,-243.5 611,-243.5 611,-224.5 550,-224.5"/>
<text text-anchor="middle" x="580.5" y="-231.5" font-family="Helvetica,sans-Serif" font-size="10.00">ssl_utils.h</text>
</a>
</g>
</g>
<!-- Node1&#45;&gt;Node16 -->
<g id="edge18" class="edge">
<title>Node1&#45;&gt;Node16</title>
<path fill="none" stroke="midnightblue" d="M557.61,-280.4C561.79,-272.11 567.11,-261.55 571.57,-252.71"/>
<polygon fill="midnightblue" stroke="midnightblue" points="574.76,-254.16 576.13,-243.66 568.51,-251.01 574.76,-254.16"/>
</g>
<!-- Node17 -->
<g id="node17" class="node">
<title>Node17</title>
<g id="a_node17"><a xlink:href="_singleshot_timer_8h.html" target="_top" xlink:title=" ">
<polygon fill="white" stroke="black" points="629,-224.5 629,-243.5 748,-243.5 748,-224.5 629,-224.5"/>
<text text-anchor="middle" x="688.5" y="-231.5" font-family="Helvetica,sans-Serif" font-size="10.00">timer/SingleshotTimer.h</text>
</a>
</g>
</g>
<!-- Node1&#45;&gt;Node17 -->
<g id="edge19" class="edge">
<title>Node1&#45;&gt;Node17</title>
<path fill="none" stroke="midnightblue" d="M583.2,-280.4C606.25,-270.46 636.86,-257.26 659.13,-247.66"/>
<polygon fill="midnightblue" stroke="midnightblue" points="660.62,-250.83 668.42,-243.66 657.85,-244.4 660.62,-250.83"/>
</g>
<!-- Node3 -->
<g id="node3" class="node">
<title>Node3</title>
<g id="a_node3"><a xlink:href="_socket_connection_8h.html" target="_top" xlink:title=" ">
<polygon fill="white" stroke="black" points="161.5,-168.5 161.5,-187.5 315.5,-187.5 315.5,-168.5 161.5,-168.5"/>
<text text-anchor="middle" x="238.5" y="-175.5" font-family="Helvetica,sans-Serif" font-size="10.00">socket/tcp/SocketConnection.h</text>
</a>
</g>
</g>
<!-- Node2&#45;&gt;Node3 -->
<g id="edge2" class="edge">
<title>Node2&#45;&gt;Node3</title>
<path fill="none" stroke="midnightblue" d="M309.84,-224.32C296.58,-215.9 276.23,-202.97 260.65,-193.07"/>
<polygon fill="midnightblue" stroke="midnightblue" points="262.44,-190.06 252.12,-187.65 258.69,-195.97 262.44,-190.06"/>
</g>
<!-- Node6 -->
<g id="node6" class="node">
<title>Node6</title>
<g id="a_node6"><a xlink:href="tls_2_socket_reader_8h.html" target="_top" xlink:title=" ">
<polygon fill="white" stroke="black" points="334,-168.5 334,-187.5 483,-187.5 483,-168.5 334,-168.5"/>
<text text-anchor="middle" x="408.5" y="-175.5" font-family="Helvetica,sans-Serif" font-size="10.00">socket/tcp/tls/SocketReader.h</text>
</a>
</g>
</g>
<!-- Node2&#45;&gt;Node6 -->
<g id="edge5" class="edge">
<title>Node2&#45;&gt;Node6</title>
<path fill="none" stroke="midnightblue" d="M337.16,-224.32C350.42,-215.9 370.77,-202.97 386.35,-193.07"/>
<polygon fill="midnightblue" stroke="midnightblue" points="388.31,-195.97 394.88,-187.65 384.56,-190.06 388.31,-195.97"/>
</g>
<!-- Node10 -->
<g id="node10" class="node">
<title>Node10</title>
<g id="a_node10"><a xlink:href="tls_2_socket_writer_8h.html" target="_top" xlink:title=" ">
<polygon fill="white" stroke="black" points="0,-168.5 0,-187.5 143,-187.5 143,-168.5 0,-168.5"/>
<text text-anchor="middle" x="71.5" y="-175.5" font-family="Helvetica,sans-Serif" font-size="10.00">socket/tcp/tls/SocketWriter.h</text>
</a>
</g>
</g>
<!-- Node2&#45;&gt;Node10 -->
<g id="edge9" class="edge">
<title>Node2&#45;&gt;Node10</title>
<path fill="none" stroke="midnightblue" d="M283.57,-224.44C239.61,-215.02 168.87,-199.87 121.32,-189.68"/>
<polygon fill="midnightblue" stroke="midnightblue" points="121.75,-186.19 111.24,-187.52 120.29,-193.03 121.75,-186.19"/>
</g>
<!-- Node4 -->
<g id="node4" class="node">
<title>Node4</title>
<g id="a_node4"><a xlink:href="_socket_connection_base_8h.html" target="_top" xlink:title=" ">
<polygon fill="white" stroke="black" points="169.5,-112.5 169.5,-131.5 297.5,-131.5 297.5,-112.5 169.5,-112.5"/>
<text text-anchor="middle" x="233.5" y="-119.5" font-family="Helvetica,sans-Serif" font-size="10.00">SocketConnectionBase.h</text>
</a>
</g>
</g>
<!-- Node3&#45;&gt;Node4 -->
<g id="edge3" class="edge">
<title>Node3&#45;&gt;Node4</title>
<path fill="none" stroke="midnightblue" d="M237.67,-168.08C237.02,-161.01 236.08,-150.86 235.26,-141.99"/>
<polygon fill="midnightblue" stroke="midnightblue" points="238.72,-141.39 234.31,-131.75 231.75,-142.03 238.72,-141.39"/>
</g>
<!-- Node5 -->
<g id="node5" class="node">
<title>Node5</title>
<g id="a_node5"><a xlink:href="_attribute_injector_8h.html" target="_top" xlink:title=" ">
<polygon fill="white" stroke="black" points="187,-56.5 187,-75.5 280,-75.5 280,-56.5 187,-56.5"/>
<text text-anchor="middle" x="233.5" y="-63.5" font-family="Helvetica,sans-Serif" font-size="10.00">AttributeInjector.h</text>
</a>
</g>
</g>
<!-- Node4&#45;&gt;Node5 -->
<g id="edge4" class="edge">
<title>Node4&#45;&gt;Node5</title>
<path fill="none" stroke="midnightblue" d="M233.5,-112.08C233.5,-105.01 233.5,-94.86 233.5,-85.99"/>
<polygon fill="midnightblue" stroke="midnightblue" points="237,-85.75 233.5,-75.75 230,-85.75 237,-85.75"/>
</g>
<!-- Node7 -->
<g id="node7" class="node">
<title>Node7</title>
<g id="a_node7"><a xlink:href="_socket_reader_8h.html" target="_top" xlink:title=" ">
<polygon fill="white" stroke="black" points="316,-112.5 316,-131.5 451,-131.5 451,-112.5 316,-112.5"/>
<text text-anchor="middle" x="383.5" y="-119.5" font-family="Helvetica,sans-Serif" font-size="10.00">socket/tcp/SocketReader.h</text>
</a>
</g>
</g>
<!-- Node6&#45;&gt;Node7 -->
<g id="edge6" class="edge">
<title>Node6&#45;&gt;Node7</title>
<path fill="none" stroke="midnightblue" d="M404.37,-168.08C400.99,-160.77 396.08,-150.18 391.88,-141.1"/>
<polygon fill="midnightblue" stroke="midnightblue" points="394.93,-139.36 387.55,-131.75 388.58,-142.3 394.93,-139.36"/>
</g>
<!-- Node8 -->
<g id="node8" class="node">
<title>Node8</title>
<g id="a_node8"><a xlink:href="_read_event_receiver_8h.html" target="_top" xlink:title=" ">
<polygon fill="white" stroke="black" points="327.5,-56.5 327.5,-75.5 439.5,-75.5 439.5,-56.5 327.5,-56.5"/>
<text text-anchor="middle" x="383.5" y="-63.5" font-family="Helvetica,sans-Serif" font-size="10.00">ReadEventReceiver.h</text>
</a>
</g>
</g>
<!-- Node7&#45;&gt;Node8 -->
<g id="edge7" class="edge">
<title>Node7&#45;&gt;Node8</title>
<path fill="none" stroke="midnightblue" d="M383.5,-112.08C383.5,-105.01 383.5,-94.86 383.5,-85.99"/>
<polygon fill="midnightblue" stroke="midnightblue" points="387,-85.75 383.5,-75.75 380,-85.75 387,-85.75"/>
</g>
<!-- Node9 -->
<g id="node9" class="node">
<title>Node9</title>
<g id="a_node9"><a xlink:href="_event_receiver_8h.html" target="_top" xlink:title=" ">
<polygon fill="white" stroke="black" points="339,-0.5 339,-19.5 428,-19.5 428,-0.5 339,-0.5"/>
<text text-anchor="middle" x="383.5" y="-7.5" font-family="Helvetica,sans-Serif" font-size="10.00">EventReceiver.h</text>
</a>
</g>
</g>
<!-- Node8&#45;&gt;Node9 -->
<g id="edge8" class="edge">
<title>Node8&#45;&gt;Node9</title>
<path fill="none" stroke="midnightblue" d="M383.5,-56.08C383.5,-49.01 383.5,-38.86 383.5,-29.99"/>
<polygon fill="midnightblue" stroke="midnightblue" points="387,-29.75 383.5,-19.75 380,-29.75 387,-29.75"/>
</g>
<!-- Node11 -->
<g id="node11" class="node">
<title>Node11</title>
<g id="a_node11"><a xlink:href="_socket_writer_8h.html" target="_top" xlink:title=" ">
<polygon fill="white" stroke="black" points="17,-112.5 17,-131.5 146,-131.5 146,-112.5 17,-112.5"/>
<text text-anchor="middle" x="81.5" y="-119.5" font-family="Helvetica,sans-Serif" font-size="10.00">socket/tcp/SocketWriter.h</text>
</a>
</g>
</g>
<!-- Node10&#45;&gt;Node11 -->
<g id="edge10" class="edge">
<title>Node10&#45;&gt;Node11</title>
<path fill="none" stroke="midnightblue" d="M73.15,-168.08C74.48,-160.93 76.38,-150.64 78.04,-141.69"/>
<polygon fill="midnightblue" stroke="midnightblue" points="81.5,-142.22 79.88,-131.75 74.62,-140.95 81.5,-142.22"/>
</g>
<!-- Node12 -->
<g id="node12" class="node">
<title>Node12</title>
<g id="a_node12"><a xlink:href="_write_event_receiver_8h.html" target="_top" xlink:title=" ">
<polygon fill="white" stroke="black" points="42,-56.5 42,-75.5 153,-75.5 153,-56.5 42,-56.5"/>
<text text-anchor="middle" x="97.5" y="-63.5" font-family="Helvetica,sans-Serif" font-size="10.00">WriteEventReceiver.h</text>
</a>
</g>
</g>
<!-- Node11&#45;&gt;Node12 -->
<g id="edge11" class="edge">
<title>Node11&#45;&gt;Node12</title>
<path fill="none" stroke="midnightblue" d="M84.14,-112.08C86.29,-104.85 89.38,-94.41 92.05,-85.4"/>
<polygon fill="midnightblue" stroke="midnightblue" points="95.42,-86.33 94.91,-75.75 88.71,-84.34 95.42,-86.33"/>
</g>
<!-- Node12&#45;&gt;Node9 -->
<g id="edge12" class="edge">
<title>Node12&#45;&gt;Node9</title>
<path fill="none" stroke="midnightblue" d="M142.82,-56.44C193.28,-46.92 274.82,-31.52 328.79,-21.33"/>
<polygon fill="midnightblue" stroke="midnightblue" points="329.69,-24.72 338.87,-19.43 328.39,-17.84 329.69,-24.72"/>
</g>
<!-- Node13&#45;&gt;Node8 -->
<g id="edge17" class="edge">
<title>Node13&#45;&gt;Node8</title>
<path fill="none" stroke="midnightblue" d="M513.94,-112.44C487.98,-103.4 446.83,-89.06 417.7,-78.92"/>
<polygon fill="midnightblue" stroke="midnightblue" points="418.54,-75.5 407.95,-75.52 416.24,-82.11 418.54,-75.5"/>
</g>
<!-- Node14 -->
<g id="node14" class="node">
<title>Node14</title>
<g id="a_node14"><a xlink:href="_accept_event_receiver_8h.html" target="_top" xlink:title=" ">
<polygon fill="white" stroke="black" points="529,-56.5 529,-75.5 648,-75.5 648,-56.5 529,-56.5"/>
<text text-anchor="middle" x="588.5" y="-63.5" font-family="Helvetica,sans-Serif" font-size="10.00">AcceptEventReceiver.h</text>
</a>
</g>
</g>
<!-- Node13&#45;&gt;Node14 -->
<g id="edge14" class="edge">
<title>Node13&#45;&gt;Node14</title>
<path fill="none" stroke="midnightblue" d="M546.76,-112.08C553.96,-104.3 564.61,-92.8 573.35,-83.37"/>
<polygon fill="midnightblue" stroke="midnightblue" points="576.17,-85.47 580.4,-75.75 571.03,-80.71 576.17,-85.47"/>
</g>
<!-- Node15 -->
<g id="node15" class="node">
<title>Node15</title>
<g id="a_node15"><a xlink:href="_logger_8h.html" target="_top" xlink:title=" ">
<polygon fill="white" stroke="black" points="458,-56.5 458,-75.5 511,-75.5 511,-56.5 458,-56.5"/>
<text text-anchor="middle" x="484.5" y="-63.5" font-family="Helvetica,sans-Serif" font-size="10.00">Logger.h</text>
</a>
</g>
</g>
<!-- Node13&#45;&gt;Node15 -->
<g id="edge16" class="edge">
<title>Node13&#45;&gt;Node15</title>
<path fill="none" stroke="midnightblue" d="M529.58,-112.08C521.72,-104.22 510.07,-92.57 500.58,-83.08"/>
<polygon fill="midnightblue" stroke="midnightblue" points="502.8,-80.35 493.25,-75.75 497.85,-85.3 502.8,-80.35"/>
</g>
<!-- Node14&#45;&gt;Node9 -->
<g id="edge15" class="edge">
<title>Node14&#45;&gt;Node9</title>
<path fill="none" stroke="midnightblue" d="M556.02,-56.44C520.78,-47.16 464.4,-32.31 425.74,-22.13"/>
<polygon fill="midnightblue" stroke="midnightblue" points="426.39,-18.68 415.83,-19.52 424.61,-25.45 426.39,-18.68"/>
</g>
<!-- Node18 -->
<g id="node18" class="node">
<title>Node18</title>
<g id="a_node18"><a xlink:href="_timer_8h.html" target="_top" xlink:title=" ">
<polygon fill="white" stroke="black" points="664,-168.5 664,-187.5 713,-187.5 713,-168.5 664,-168.5"/>
<text text-anchor="middle" x="688.5" y="-175.5" font-family="Helvetica,sans-Serif" font-size="10.00">Timer.h</text>
</a>
</g>
</g>
<!-- Node17&#45;&gt;Node18 -->
<g id="edge20" class="edge">
<title>Node17&#45;&gt;Node18</title>
<path fill="none" stroke="midnightblue" d="M688.5,-224.08C688.5,-217.01 688.5,-206.86 688.5,-197.99"/>
<polygon fill="midnightblue" stroke="midnightblue" points="692,-197.75 688.5,-187.75 685,-197.75 692,-197.75"/>
</g>
</g>
</svg>
