<?xml version="1.0" encoding="UTF-8" standalone="no"?>
<!DOCTYPE svg PUBLIC "-//W3C//DTD SVG 1.1//EN"
 "http://www.w3.org/Graphics/SVG/1.1/DTD/svg11.dtd">
<!-- Generated by graphviz version 2.43.0 (0)
 -->
<!-- Title: net/socket/stream/tls/SocketConnector.h Pages: 1 -->
<svg width="398pt" height="173pt"
 viewBox="0.00 0.00 398.00 173.00" xmlns="http://www.w3.org/2000/svg" xmlns:xlink="http://www.w3.org/1999/xlink">
<g id="graph0" class="graph" transform="scale(1 1) rotate(0) translate(4 169)">
<title>net/socket/stream/tls/SocketConnector.h</title>
<polygon fill="white" stroke="transparent" points="-4,4 -4,-169 394,-169 394,4 -4,4"/>
<!-- Node1 -->
<g id="node1" class="node">
<title>Node1</title>
<g id="a_node1"><a xlink:title=" ">
<polygon fill="#bfbfbf" stroke="black" points="152.5,-134.5 152.5,-164.5 261.5,-164.5 261.5,-134.5 152.5,-134.5"/>
<text text-anchor="start" x="160.5" y="-152.5" font-family="Helvetica,sans-Serif" font-size="10.00">net/socket/stream/tls</text>
<text text-anchor="middle" x="207" y="-141.5" font-family="Helvetica,sans-Serif" font-size="10.00">/SocketConnector.h</text>
</a>
</g>
</g>
<!-- Node2 -->
<g id="node2" class="node">
<title>Node2</title>
<g id="a_node2"><a xlink:href="stream_2tls_2_socket_client_8h.html" target="_top" xlink:title=" ">
<polygon fill="white" stroke="black" points="152.5,-67.5 152.5,-97.5 261.5,-97.5 261.5,-67.5 152.5,-67.5"/>
<text text-anchor="start" x="160.5" y="-85.5" font-family="Helvetica,sans-Serif" font-size="10.00">net/socket/stream/tls</text>
<text text-anchor="middle" x="207" y="-74.5" font-family="Helvetica,sans-Serif" font-size="10.00">/SocketClient.h</text>
</a>
</g>
</g>
<!-- Node1&#45;&gt;Node2 -->
<g id="edge1" class="edge">
<title>Node1&#45;&gt;Node2</title>
<path fill="none" stroke="midnightblue" d="M207,-124.11C207,-115.15 207,-105.32 207,-97.58"/>
<polygon fill="midnightblue" stroke="midnightblue" points="203.5,-124.4 207,-134.4 210.5,-124.4 203.5,-124.4"/>
</g>
<!-- Node3 -->
<g id="node3" class="node">
<title>Node3</title>
<g id="a_node3"><a xlink:href="bluetooth_2rfcomm_2tls_2_socket_client_8h.html" target="_top" xlink:title=" ">
<polygon fill="white" stroke="black" points="0,-0.5 0,-30.5 134,-30.5 134,-0.5 0,-0.5"/>
<text text-anchor="start" x="8" y="-18.5" font-family="Helvetica,sans-Serif" font-size="10.00">net/socket/bluetooth</text>
<text text-anchor="middle" x="67" y="-7.5" font-family="Helvetica,sans-Serif" font-size="10.00">/rfcomm/tls/SocketClient.h</text>
</a>
</g>
</g>
<!-- Node2&#45;&gt;Node3 -->
<g id="edge2" class="edge">
<title>Node2&#45;&gt;Node3</title>
<path fill="none" stroke="midnightblue" d="M167.43,-63.13C145.19,-52.8 117.85,-40.11 97.32,-30.58"/>
<polygon fill="midnightblue" stroke="midnightblue" points="166.08,-66.36 176.62,-67.4 169.03,-60.01 166.08,-66.36"/>
</g>
<!-- Node4 -->
<g id="node4" class="node">
<title>Node4</title>
<g id="a_node4"><a xlink:href="ip_2tcp_2ipv4_2tls_2_socket_client_8h.html" target="_top" xlink:title=" ">
<polygon fill="white" stroke="black" points="152,-0.5 152,-30.5 262,-30.5 262,-0.5 152,-0.5"/>
<text text-anchor="start" x="160" y="-18.5" font-family="Helvetica,sans-Serif" font-size="10.00">net/socket/ip/tcp/ipv4</text>
<text text-anchor="middle" x="207" y="-7.5" font-family="Helvetica,sans-Serif" font-size="10.00">/tls/SocketClient.h</text>
</a>
</g>
</g>
<!-- Node2&#45;&gt;Node4 -->
<g id="edge3" class="edge">
<title>Node2&#45;&gt;Node4</title>
<path fill="none" stroke="midnightblue" d="M207,-57.11C207,-48.15 207,-38.32 207,-30.58"/>
<polygon fill="midnightblue" stroke="midnightblue" points="203.5,-57.4 207,-67.4 210.5,-57.4 203.5,-57.4"/>
</g>
<!-- Node5 -->
<g id="node5" class="node">
<title>Node5</title>
<g id="a_node5"><a xlink:href="ip_2tcp_2ipv6_2tls_2_socket_client_8h.html" target="_top" xlink:title=" ">
<polygon fill="white" stroke="black" points="280,-0.5 280,-30.5 390,-30.5 390,-0.5 280,-0.5"/>
<text text-anchor="start" x="288" y="-18.5" font-family="Helvetica,sans-Serif" font-size="10.00">net/socket/ip/tcp/ipv6</text>
<text text-anchor="middle" x="335" y="-7.5" font-family="Helvetica,sans-Serif" font-size="10.00">/tls/SocketClient.h</text>
</a>
</g>
</g>
<!-- Node2&#45;&gt;Node5 -->
<g id="edge4" class="edge">
<title>Node2&#45;&gt;Node5</title>
<path fill="none" stroke="midnightblue" d="M243.72,-62.85C263.96,-52.58 288.67,-40.03 307.28,-30.58"/>
<polygon fill="midnightblue" stroke="midnightblue" points="242.11,-59.75 234.77,-67.4 245.28,-65.99 242.11,-59.75"/>
</g>
</g>
</svg>
