<?xml version="1.0" encoding="UTF-8" standalone="no"?>
<!DOCTYPE svg PUBLIC "-//W3C//DTD SVG 1.1//EN"
 "http://www.w3.org/Graphics/SVG/1.1/DTD/svg11.dtd">
<!-- Generated by graphviz version 2.43.0 (0)
 -->
<!-- Title: http/tls/Client.h Pages: 1 -->
<svg width="1259pt" height="531pt"
 viewBox="0.00 0.00 1259.32 531.00" xmlns="http://www.w3.org/2000/svg" xmlns:xlink="http://www.w3.org/1999/xlink">
<g id="graph0" class="graph" transform="scale(1 1) rotate(0) translate(4 527)">
<title>http/tls/Client.h</title>
<polygon fill="white" stroke="transparent" points="-4,4 -4,-527 1255.32,-527 1255.32,4 -4,4"/>
<!-- Node1 -->
<g id="node1" class="node">
<title>Node1</title>
<g id="a_node1"><a xlink:title=" ">
<polygon fill="#bfbfbf" stroke="black" points="819.32,-503.5 819.32,-522.5 902.32,-522.5 902.32,-503.5 819.32,-503.5"/>
<text text-anchor="middle" x="860.82" y="-510.5" font-family="Helvetica,sans-Serif" font-size="10.00">http/tls/Client.h</text>
</a>
</g>
</g>
<!-- Node2 -->
<g id="node2" class="node">
<title>Node2</title>
<g id="a_node2"><a xlink:href="_client_8h.html" target="_top" xlink:title=" ">
<polygon fill="white" stroke="black" points="494.32,-442 494.32,-461 553.32,-461 553.32,-442 494.32,-442"/>
<text text-anchor="middle" x="523.82" y="-449" font-family="Helvetica,sans-Serif" font-size="10.00">../Client.h</text>
</a>
</g>
</g>
<!-- Node1&#45;&gt;Node2 -->
<g id="edge1" class="edge">
<title>Node1&#45;&gt;Node2</title>
<path fill="none" stroke="midnightblue" d="M819.16,-504.64C753.77,-493.1 627.88,-470.87 563.65,-459.53"/>
<polygon fill="midnightblue" stroke="midnightblue" points="563.97,-456.03 553.51,-457.74 562.75,-462.93 563.97,-456.03"/>
</g>
<!-- Node10 -->
<g id="node10" class="node">
<title>Node10</title>
<g id="a_node10"><a xlink:href="ip_2tcp_2ipv4_2tls_2_socket_client_8h.html" target="_top" xlink:title=" ">
<polygon fill="white" stroke="black" points="811.82,-436.5 811.82,-466.5 909.82,-466.5 909.82,-436.5 811.82,-436.5"/>
<text text-anchor="start" x="819.82" y="-454.5" font-family="Helvetica,sans-Serif" font-size="10.00">socket/ip/tcp/ipv4</text>
<text text-anchor="middle" x="860.82" y="-443.5" font-family="Helvetica,sans-Serif" font-size="10.00">/tls/SocketClient.h</text>
</a>
</g>
</g>
<!-- Node1&#45;&gt;Node10 -->
<g id="edge9" class="edge">
<title>Node1&#45;&gt;Node10</title>
<path fill="none" stroke="midnightblue" d="M860.82,-503.48C860.82,-496.47 860.82,-486.19 860.82,-476.7"/>
<polygon fill="midnightblue" stroke="midnightblue" points="864.32,-476.52 860.82,-466.52 857.32,-476.52 864.32,-476.52"/>
</g>
<!-- Node35 -->
<g id="node35" class="node">
<title>Node35</title>
<g id="a_node35"><a xlink:href="ip_2tcp_2ipv6_2tls_2_socket_client_8h.html" target="_top" xlink:title=" ">
<polygon fill="white" stroke="black" points="927.82,-436.5 927.82,-466.5 1025.82,-466.5 1025.82,-436.5 927.82,-436.5"/>
<text text-anchor="start" x="935.82" y="-454.5" font-family="Helvetica,sans-Serif" font-size="10.00">socket/ip/tcp/ipv6</text>
<text text-anchor="middle" x="976.82" y="-443.5" font-family="Helvetica,sans-Serif" font-size="10.00">/tls/SocketClient.h</text>
</a>
</g>
</g>
<!-- Node1&#45;&gt;Node35 -->
<g id="edge55" class="edge">
<title>Node1&#45;&gt;Node35</title>
<path fill="none" stroke="midnightblue" d="M877.44,-503.48C893.81,-495.08 919.36,-481.97 940.46,-471.15"/>
<polygon fill="midnightblue" stroke="midnightblue" points="942.18,-474.2 949.48,-466.52 938.99,-467.97 942.18,-474.2"/>
</g>
<!-- Node3 -->
<g id="node3" class="node">
<title>Node3</title>
<g id="a_node3"><a xlink:href="_client_context_8h.html" target="_top" xlink:title=" ">
<polygon fill="white" stroke="black" points="194.32,-375 194.32,-394 279.32,-394 279.32,-375 194.32,-375"/>
<text text-anchor="middle" x="236.82" y="-382" font-family="Helvetica,sans-Serif" font-size="10.00">ClientContext.h</text>
</a>
</g>
</g>
<!-- Node2&#45;&gt;Node3 -->
<g id="edge2" class="edge">
<title>Node2&#45;&gt;Node3</title>
<path fill="none" stroke="midnightblue" d="M494.19,-443.79C444.5,-432.54 343.98,-409.77 284.33,-396.26"/>
<polygon fill="midnightblue" stroke="midnightblue" points="284.94,-392.81 274.41,-394.01 283.39,-399.64 284.94,-392.81"/>
</g>
<!-- Node9 -->
<g id="node9" class="node">
<title>Node9</title>
<g id="a_node9"><a xlink:href="_logger_8h.html" target="_top" xlink:title=" ">
<polygon fill="white" stroke="black" points="635.32,-118 635.32,-137 688.32,-137 688.32,-118 635.32,-118"/>
<text text-anchor="middle" x="661.82" y="-125" font-family="Helvetica,sans-Serif" font-size="10.00">Logger.h</text>
</a>
</g>
</g>
<!-- Node2&#45;&gt;Node9 -->
<g id="edge8" class="edge">
<title>Node2&#45;&gt;Node9</title>
<path fill="none" stroke="midnightblue" d="M523.82,-441.91C523.82,-421.48 523.82,-368.36 523.82,-324 523.82,-324 523.82,-324 523.82,-260.5 523.82,-201.42 590.7,-160.62 631.34,-141.29"/>
<polygon fill="midnightblue" stroke="midnightblue" points="632.93,-144.41 640.56,-137.06 630.01,-138.05 632.93,-144.41"/>
</g>
<!-- Node4 -->
<g id="node4" class="node">
<title>Node4</title>
<g id="a_node4"><a xlink:href="_response_parser_8h.html" target="_top" xlink:title=" ">
<polygon fill="white" stroke="black" points="132.32,-313.5 132.32,-332.5 229.32,-332.5 229.32,-313.5 132.32,-313.5"/>
<text text-anchor="middle" x="180.82" y="-320.5" font-family="Helvetica,sans-Serif" font-size="10.00">ResponseParser.h</text>
</a>
</g>
</g>
<!-- Node3&#45;&gt;Node4 -->
<g id="edge3" class="edge">
<title>Node3&#45;&gt;Node4</title>
<path fill="none" stroke="midnightblue" d="M228.8,-374.98C220.23,-365.87 206.46,-351.24 195.86,-339.98"/>
<polygon fill="midnightblue" stroke="midnightblue" points="198.23,-337.39 188.83,-332.51 193.14,-342.19 198.23,-337.39"/>
</g>
<!-- Node7 -->
<g id="node7" class="node">
<title>Node7</title>
<g id="a_node7"><a xlink:href="_server_request_8h.html" target="_top" xlink:title=" ">
<polygon fill="white" stroke="black" points="247.82,-313.5 247.82,-332.5 337.82,-332.5 337.82,-313.5 247.82,-313.5"/>
<text text-anchor="middle" x="292.82" y="-320.5" font-family="Helvetica,sans-Serif" font-size="10.00">ServerRequest.h</text>
</a>
</g>
</g>
<!-- Node3&#45;&gt;Node7 -->
<g id="edge6" class="edge">
<title>Node3&#45;&gt;Node7</title>
<path fill="none" stroke="midnightblue" d="M244.85,-374.98C253.41,-365.87 267.18,-351.24 277.78,-339.98"/>
<polygon fill="midnightblue" stroke="midnightblue" points="280.51,-342.19 284.81,-332.51 275.41,-337.39 280.51,-342.19"/>
</g>
<!-- Node8 -->
<g id="node8" class="node">
<title>Node8</title>
<g id="a_node8"><a xlink:href="_server_response_8h.html" target="_top" xlink:title=" ">
<polygon fill="white" stroke="black" points="15.82,-313.5 15.82,-332.5 113.82,-332.5 113.82,-313.5 15.82,-313.5"/>
<text text-anchor="middle" x="64.82" y="-320.5" font-family="Helvetica,sans-Serif" font-size="10.00">ServerResponse.h</text>
</a>
</g>
</g>
<!-- Node3&#45;&gt;Node8 -->
<g id="edge7" class="edge">
<title>Node3&#45;&gt;Node8</title>
<path fill="none" stroke="midnightblue" d="M212.18,-374.98C182.55,-364.72 132.64,-347.46 99.22,-335.9"/>
<polygon fill="midnightblue" stroke="midnightblue" points="100.01,-332.47 89.42,-332.51 97.73,-339.09 100.01,-332.47"/>
</g>
<!-- Node5 -->
<g id="node5" class="node">
<title>Node5</title>
<g id="a_node5"><a xlink:href="_cookie_options_8h.html" target="_top" xlink:title=" ">
<polygon fill="white" stroke="black" points="47.32,-252 47.32,-271 136.32,-271 136.32,-252 47.32,-252"/>
<text text-anchor="middle" x="91.82" y="-259" font-family="Helvetica,sans-Serif" font-size="10.00">CookieOptions.h</text>
</a>
</g>
</g>
<!-- Node4&#45;&gt;Node5 -->
<g id="edge4" class="edge">
<title>Node4&#45;&gt;Node5</title>
<path fill="none" stroke="midnightblue" d="M168.07,-313.48C153.8,-303.93 130.42,-288.31 113.31,-276.87"/>
<polygon fill="midnightblue" stroke="midnightblue" points="114.81,-273.66 104.55,-271.01 110.92,-279.48 114.81,-273.66"/>
</g>
<!-- Node6 -->
<g id="node6" class="node">
<title>Node6</title>
<g id="a_node6"><a xlink:href="_parser_8h.html" target="_top" xlink:title=" ">
<polygon fill="white" stroke="black" points="154.32,-252 154.32,-271 207.32,-271 207.32,-252 154.32,-252"/>
<text text-anchor="middle" x="180.82" y="-259" font-family="Helvetica,sans-Serif" font-size="10.00">Parser.h</text>
</a>
</g>
</g>
<!-- Node4&#45;&gt;Node6 -->
<g id="edge5" class="edge">
<title>Node4&#45;&gt;Node6</title>
<path fill="none" stroke="midnightblue" d="M180.82,-313.48C180.82,-305.08 180.82,-291.98 180.82,-281.16"/>
<polygon fill="midnightblue" stroke="midnightblue" points="184.32,-281.01 180.82,-271.01 177.32,-281.01 184.32,-281.01"/>
</g>
<!-- Node11 -->
<g id="node11" class="node">
<title>Node11</title>
<g id="a_node11"><a xlink:href="ip_2tcp_2_socket_client_8h.html" target="_top" xlink:title=" ">
<polygon fill="white" stroke="black" points="906.82,-375 906.82,-394 1046.82,-394 1046.82,-375 906.82,-375"/>
<text text-anchor="middle" x="976.82" y="-382" font-family="Helvetica,sans-Serif" font-size="10.00">socket/ip/tcp/SocketClient.h</text>
</a>
</g>
</g>
<!-- Node10&#45;&gt;Node11 -->
<g id="edge10" class="edge">
<title>Node10&#45;&gt;Node11</title>
<path fill="none" stroke="midnightblue" d="M885.99,-436.4C905.81,-425.29 933.24,-409.92 952.76,-398.98"/>
<polygon fill="midnightblue" stroke="midnightblue" points="954.63,-401.95 961.64,-394.01 951.21,-395.84 954.63,-401.95"/>
</g>
<!-- Node12 -->
<g id="node12" class="node">
<title>Node12</title>
<g id="a_node12"><a xlink:href="ip_2tcp_2ipv4_2_socket_8h.html" target="_top" xlink:title=" ">
<polygon fill="white" stroke="black" points="864.82,-179.5 864.82,-209.5 958.82,-209.5 958.82,-179.5 864.82,-179.5"/>
<text text-anchor="start" x="872.82" y="-197.5" font-family="Helvetica,sans-Serif" font-size="10.00">socket/ip/tcp/ipv4</text>
<text text-anchor="middle" x="911.82" y="-186.5" font-family="Helvetica,sans-Serif" font-size="10.00">/Socket.h</text>
</a>
</g>
</g>
<!-- Node10&#45;&gt;Node12 -->
<g id="edge11" class="edge">
<title>Node10&#45;&gt;Node12</title>
<path fill="none" stroke="midnightblue" d="M863.64,-436.43C871.96,-394.8 896.53,-271.94 907.01,-219.58"/>
<polygon fill="midnightblue" stroke="midnightblue" points="910.49,-220.02 909.02,-209.53 903.62,-218.65 910.49,-220.02"/>
</g>
<!-- Node17 -->
<g id="node17" class="node">
<title>Node17</title>
<g id="a_node17"><a xlink:href="sock__stream_2tls_2_socket_client_8h.html" target="_top" xlink:title=" ">
<polygon fill="white" stroke="black" points="707.32,-369.5 707.32,-399.5 812.32,-399.5 812.32,-369.5 707.32,-369.5"/>
<text text-anchor="start" x="715.32" y="-387.5" font-family="Helvetica,sans-Serif" font-size="10.00">socket/sock_stream</text>
<text text-anchor="middle" x="759.82" y="-376.5" font-family="Helvetica,sans-Serif" font-size="10.00">/tls/SocketClient.h</text>
</a>
</g>
</g>
<!-- Node10&#45;&gt;Node17 -->
<g id="edge18" class="edge">
<title>Node10&#45;&gt;Node17</title>
<path fill="none" stroke="midnightblue" d="M838.91,-436.4C824.74,-427.28 806.11,-415.29 790.49,-405.24"/>
<polygon fill="midnightblue" stroke="midnightblue" points="792,-402.05 781.69,-399.58 788.21,-407.93 792,-402.05"/>
</g>
<!-- Node13 -->
<g id="node13" class="node">
<title>Node13</title>
<g id="a_node13"><a xlink:href="_descriptor_8h.html" target="_top" xlink:title=" ">
<polygon fill="white" stroke="black" points="643.32,-56.5 643.32,-75.5 712.32,-75.5 712.32,-56.5 643.32,-56.5"/>
<text text-anchor="middle" x="677.82" y="-63.5" font-family="Helvetica,sans-Serif" font-size="10.00">Descriptor.h</text>
</a>
</g>
</g>
<!-- Node12&#45;&gt;Node13 -->
<g id="edge12" class="edge">
<title>Node12&#45;&gt;Node13</title>
<path fill="none" stroke="midnightblue" d="M887.77,-179.22C859.55,-162.59 811.21,-134.54 768.82,-112 747.81,-100.83 723.66,-88.93 705.51,-80.17"/>
<polygon fill="midnightblue" stroke="midnightblue" points="706.64,-76.83 696.11,-75.65 703.61,-83.14 706.64,-76.83"/>
</g>
<!-- Node14 -->
<g id="node14" class="node">
<title>Node14</title>
<g id="a_node14"><a xlink:href="_socket_8h.html" target="_top" xlink:title=" ">
<polygon fill="white" stroke="black" points="1030.82,-118 1030.82,-137 1118.82,-137 1118.82,-118 1030.82,-118"/>
<text text-anchor="middle" x="1074.82" y="-125" font-family="Helvetica,sans-Serif" font-size="10.00">socket/Socket.h</text>
</a>
</g>
</g>
<!-- Node12&#45;&gt;Node14 -->
<g id="edge13" class="edge">
<title>Node12&#45;&gt;Node14</title>
<path fill="none" stroke="midnightblue" d="M947.19,-179.4C976.04,-167.89 1016.4,-151.8 1043.96,-140.81"/>
<polygon fill="midnightblue" stroke="midnightblue" points="1045.5,-143.96 1053.49,-137.01 1042.9,-137.46 1045.5,-143.96"/>
</g>
<!-- Node16 -->
<g id="node16" class="node">
<title>Node16</title>
<g id="a_node16"><a xlink:href="ipv4_2_inet_address_8h.html" target="_top" xlink:title=" ">
<polygon fill="white" stroke="black" points="859.32,-112.5 859.32,-142.5 974.32,-142.5 974.32,-112.5 859.32,-112.5"/>
<text text-anchor="start" x="867.32" y="-130.5" font-family="Helvetica,sans-Serif" font-size="10.00">socket/ip/address/ipv4</text>
<text text-anchor="middle" x="916.82" y="-119.5" font-family="Helvetica,sans-Serif" font-size="10.00">/InetAddress.h</text>
</a>
</g>
</g>
<!-- Node12&#45;&gt;Node16 -->
<g id="edge16" class="edge">
<title>Node12&#45;&gt;Node16</title>
<path fill="none" stroke="midnightblue" d="M912.91,-179.4C913.51,-171.56 914.28,-161.6 914.97,-152.57"/>
<polygon fill="midnightblue" stroke="midnightblue" points="918.46,-152.82 915.74,-142.58 911.48,-152.28 918.46,-152.82"/>
</g>
<!-- Node14&#45;&gt;Node13 -->
<g id="edge14" class="edge">
<title>Node14&#45;&gt;Node13</title>
<path fill="none" stroke="midnightblue" d="M1043.67,-117.96C1035.02,-115.8 1025.6,-113.63 1016.82,-112 890.12,-88.52 853.94,-96.82 722.42,-75.96"/>
<polygon fill="midnightblue" stroke="midnightblue" points="722.79,-72.47 712.36,-74.34 721.68,-79.39 722.79,-72.47"/>
</g>
<!-- Node15 -->
<g id="node15" class="node">
<title>Node15</title>
<g id="a_node15"><a xlink:href="_socket_address_8h.html" target="_top" xlink:title=" ">
<polygon fill="white" stroke="black" points="1012.82,-56.5 1012.82,-75.5 1136.82,-75.5 1136.82,-56.5 1012.82,-56.5"/>
<text text-anchor="middle" x="1074.82" y="-63.5" font-family="Helvetica,sans-Serif" font-size="10.00">socket/SocketAddress.h</text>
</a>
</g>
</g>
<!-- Node14&#45;&gt;Node15 -->
<g id="edge15" class="edge">
<title>Node14&#45;&gt;Node15</title>
<path fill="none" stroke="midnightblue" d="M1074.82,-117.98C1074.82,-109.58 1074.82,-96.48 1074.82,-85.66"/>
<polygon fill="midnightblue" stroke="midnightblue" points="1078.32,-85.51 1074.82,-75.51 1071.32,-85.51 1078.32,-85.51"/>
</g>
<!-- Node16&#45;&gt;Node15 -->
<g id="edge17" class="edge">
<title>Node16&#45;&gt;Node15</title>
<path fill="none" stroke="midnightblue" d="M954.27,-112.4C981.01,-102.33 1016.64,-88.91 1042.22,-79.28"/>
<polygon fill="midnightblue" stroke="midnightblue" points="1043.71,-82.46 1051.83,-75.66 1041.24,-75.91 1043.71,-82.46"/>
</g>
<!-- Node18 -->
<g id="node18" class="node">
<title>Node18</title>
<g id="a_node18"><a xlink:href="tls_2_socket_connector_8h.html" target="_top" xlink:title=" ">
<polygon fill="white" stroke="black" points="570.82,-313.5 570.82,-332.5 670.82,-332.5 670.82,-313.5 570.82,-313.5"/>
<text text-anchor="middle" x="620.82" y="-320.5" font-family="Helvetica,sans-Serif" font-size="10.00">SocketConnector.h</text>
</a>
</g>
</g>
<!-- Node17&#45;&gt;Node18 -->
<g id="edge19" class="edge">
<title>Node17&#45;&gt;Node18</title>
<path fill="none" stroke="midnightblue" d="M726.88,-369.4C703.66,-359.46 672.84,-346.26 650.4,-336.66"/>
<polygon fill="midnightblue" stroke="midnightblue" points="651.62,-333.38 641.05,-332.66 648.86,-339.81 651.62,-333.38"/>
</g>
<!-- Node34 -->
<g id="node34" class="node">
<title>Node34</title>
<g id="a_node34"><a xlink:href="sock__stream_2_socket_client_8h.html" target="_top" xlink:title=" ">
<polygon fill="white" stroke="black" points="669.32,-246.5 669.32,-276.5 774.32,-276.5 774.32,-246.5 669.32,-246.5"/>
<text text-anchor="start" x="677.32" y="-264.5" font-family="Helvetica,sans-Serif" font-size="10.00">socket/sock_stream</text>
<text text-anchor="middle" x="721.82" y="-253.5" font-family="Helvetica,sans-Serif" font-size="10.00">/SocketClient.h</text>
</a>
</g>
</g>
<!-- Node17&#45;&gt;Node34 -->
<g id="edge52" class="edge">
<title>Node17&#45;&gt;Node34</title>
<path fill="none" stroke="midnightblue" d="M755.31,-369.14C748.91,-348.77 737.12,-311.2 729.37,-286.53"/>
<polygon fill="midnightblue" stroke="midnightblue" points="732.66,-285.33 726.32,-276.84 725.98,-287.43 732.66,-285.33"/>
</g>
<!-- Node18&#45;&gt;Node9 -->
<g id="edge21" class="edge">
<title>Node18&#45;&gt;Node9</title>
<path fill="none" stroke="midnightblue" d="M609.56,-313.43C599.86,-305.27 586.54,-292.05 580.82,-277 575.93,-264.12 576.73,-259.16 580.82,-246 593.56,-205.07 626.09,-165.79 645.83,-144.63"/>
<polygon fill="midnightblue" stroke="midnightblue" points="648.55,-146.84 652.94,-137.2 643.5,-142 648.55,-146.84"/>
</g>
<!-- Node18&#45;&gt;Node13 -->
<g id="edge20" class="edge">
<title>Node18&#45;&gt;Node13</title>
<path fill="none" stroke="midnightblue" d="M670.94,-315.97C717.93,-309.21 783.37,-296.55 799.82,-277 827.9,-243.63 822.77,-218.75 804.82,-179 801.88,-172.49 730.09,-111.21 695.77,-82.15"/>
<polygon fill="midnightblue" stroke="midnightblue" points="697.81,-79.3 687.92,-75.51 693.29,-84.64 697.81,-79.3"/>
</g>
<!-- Node19 -->
<g id="node19" class="node">
<title>Node19</title>
<g id="a_node19"><a xlink:href="tls_2_socket_connection_8h.html" target="_top" xlink:title=" ">
<polygon fill="white" stroke="black" points="327.32,-252 327.32,-271 432.32,-271 432.32,-252 327.32,-252"/>
<text text-anchor="middle" x="379.82" y="-259" font-family="Helvetica,sans-Serif" font-size="10.00">SocketConnection.h</text>
</a>
</g>
</g>
<!-- Node18&#45;&gt;Node19 -->
<g id="edge22" class="edge">
<title>Node18&#45;&gt;Node19</title>
<path fill="none" stroke="midnightblue" d="M586.29,-313.48C543.61,-302.94 470.9,-284.99 424.14,-273.44"/>
<polygon fill="midnightblue" stroke="midnightblue" points="424.83,-270.01 414.29,-271.01 423.16,-276.8 424.83,-270.01"/>
</g>
<!-- Node24 -->
<g id="node24" class="node">
<title>Node24</title>
<g id="a_node24"><a xlink:href="_t_l_s_handshake_8h.html" target="_top" xlink:title=" ">
<polygon fill="white" stroke="black" points="178.82,-118 178.82,-137 270.82,-137 270.82,-118 178.82,-118"/>
<text text-anchor="middle" x="224.82" y="-125" font-family="Helvetica,sans-Serif" font-size="10.00">TLSHandshake.h</text>
</a>
</g>
</g>
<!-- Node18&#45;&gt;Node24 -->
<g id="edge45" class="edge">
<title>Node18&#45;&gt;Node24</title>
<path fill="none" stroke="midnightblue" d="M570.56,-318.54C496.13,-312.75 360.77,-299.46 317.82,-277 281.6,-258.06 276.31,-244.77 254.82,-210 242.47,-190.01 234.03,-164.15 229.33,-146.98"/>
<polygon fill="midnightblue" stroke="midnightblue" points="232.67,-145.9 226.77,-137.1 225.89,-147.66 232.67,-145.9"/>
</g>
<!-- Node31 -->
<g id="node31" class="node">
<title>Node31</title>
<g id="a_node31"><a xlink:href="_socket_connector_8h.html" target="_top" xlink:title=" ">
<polygon fill="white" stroke="black" points="690.32,-179.5 690.32,-209.5 795.32,-209.5 795.32,-179.5 690.32,-179.5"/>
<text text-anchor="start" x="698.32" y="-197.5" font-family="Helvetica,sans-Serif" font-size="10.00">socket/sock_stream</text>
<text text-anchor="middle" x="742.82" y="-186.5" font-family="Helvetica,sans-Serif" font-size="10.00">/SocketConnector.h</text>
</a>
</g>
</g>
<!-- Node18&#45;&gt;Node31 -->
<g id="edge46" class="edge">
<title>Node18&#45;&gt;Node31</title>
<path fill="none" stroke="midnightblue" d="M670.9,-314.9C713.56,-307.7 770.08,-295.04 783.82,-277 797.97,-258.42 782.22,-234.21 766.33,-217.02"/>
<polygon fill="midnightblue" stroke="midnightblue" points="768.61,-214.36 759.12,-209.66 763.61,-219.25 768.61,-214.36"/>
</g>
<!-- Node33 -->
<g id="node33" class="node">
<title>Node33</title>
<g id="a_node33"><a xlink:href="ssl__utils_8h.html" target="_top" xlink:title=" ">
<polygon fill="white" stroke="black" points="590.32,-252 590.32,-271 651.32,-271 651.32,-252 590.32,-252"/>
<text text-anchor="middle" x="620.82" y="-259" font-family="Helvetica,sans-Serif" font-size="10.00">ssl_utils.h</text>
</a>
</g>
</g>
<!-- Node18&#45;&gt;Node33 -->
<g id="edge51" class="edge">
<title>Node18&#45;&gt;Node33</title>
<path fill="none" stroke="midnightblue" d="M620.82,-313.48C620.82,-305.08 620.82,-291.98 620.82,-281.16"/>
<polygon fill="midnightblue" stroke="midnightblue" points="624.32,-281.01 620.82,-271.01 617.32,-281.01 624.32,-281.01"/>
</g>
<!-- Node20 -->
<g id="node20" class="node">
<title>Node20</title>
<g id="a_node20"><a xlink:href="_socket_connection_8h.html" target="_top" xlink:title=" ">
<polygon fill="white" stroke="black" points="387.82,-179.5 387.82,-209.5 495.82,-209.5 495.82,-179.5 387.82,-179.5"/>
<text text-anchor="start" x="395.82" y="-197.5" font-family="Helvetica,sans-Serif" font-size="10.00">socket/sock_stream</text>
<text text-anchor="middle" x="441.82" y="-186.5" font-family="Helvetica,sans-Serif" font-size="10.00">/SocketConnection.h</text>
</a>
</g>
</g>
<!-- Node19&#45;&gt;Node20 -->
<g id="edge23" class="edge">
<title>Node19&#45;&gt;Node20</title>
<path fill="none" stroke="midnightblue" d="M388.18,-251.73C396.64,-242.86 410.05,-228.81 421.34,-216.97"/>
<polygon fill="midnightblue" stroke="midnightblue" points="424.01,-219.24 428.38,-209.59 418.95,-214.41 424.01,-219.24"/>
</g>
<!-- Node23 -->
<g id="node23" class="node">
<title>Node23</title>
<g id="a_node23"><a xlink:href="tls_2_socket_reader_8h.html" target="_top" xlink:title=" ">
<polygon fill="white" stroke="black" points="100.32,-179.5 100.32,-209.5 205.32,-209.5 205.32,-179.5 100.32,-179.5"/>
<text text-anchor="start" x="108.32" y="-197.5" font-family="Helvetica,sans-Serif" font-size="10.00">socket/sock_stream</text>
<text text-anchor="middle" x="152.82" y="-186.5" font-family="Helvetica,sans-Serif" font-size="10.00">/tls/SocketReader.h</text>
</a>
</g>
</g>
<!-- Node19&#45;&gt;Node23 -->
<g id="edge26" class="edge">
<title>Node19&#45;&gt;Node23</title>
<path fill="none" stroke="midnightblue" d="M349.68,-251.87C314.58,-241.82 255.79,-224.99 211.58,-212.32"/>
<polygon fill="midnightblue" stroke="midnightblue" points="212.39,-208.92 201.81,-209.53 210.46,-215.65 212.39,-208.92"/>
</g>
<!-- Node29 -->
<g id="node29" class="node">
<title>Node29</title>
<g id="a_node29"><a xlink:href="tls_2_socket_writer_8h.html" target="_top" xlink:title=" ">
<polygon fill="white" stroke="black" points="264.32,-179.5 264.32,-209.5 369.32,-209.5 369.32,-179.5 264.32,-179.5"/>
<text text-anchor="start" x="272.32" y="-197.5" font-family="Helvetica,sans-Serif" font-size="10.00">socket/sock_stream</text>
<text text-anchor="middle" x="316.82" y="-186.5" font-family="Helvetica,sans-Serif" font-size="10.00">/tls/SocketWriter.h</text>
</a>
</g>
</g>
<!-- Node19&#45;&gt;Node29 -->
<g id="edge38" class="edge">
<title>Node19&#45;&gt;Node29</title>
<path fill="none" stroke="midnightblue" d="M371.33,-251.73C362.73,-242.86 349.11,-228.81 337.63,-216.97"/>
<polygon fill="midnightblue" stroke="midnightblue" points="339.95,-214.33 330.48,-209.59 334.92,-219.21 339.95,-214.33"/>
</g>
<!-- Node21 -->
<g id="node21" class="node">
<title>Node21</title>
<g id="a_node21"><a xlink:href="_socket_connection_base_8h.html" target="_top" xlink:title=" ">
<polygon fill="white" stroke="black" points="450.82,-118 450.82,-137 578.82,-137 578.82,-118 450.82,-118"/>
<text text-anchor="middle" x="514.82" y="-125" font-family="Helvetica,sans-Serif" font-size="10.00">SocketConnectionBase.h</text>
</a>
</g>
</g>
<!-- Node20&#45;&gt;Node21 -->
<g id="edge24" class="edge">
<title>Node20&#45;&gt;Node21</title>
<path fill="none" stroke="midnightblue" d="M457.66,-179.4C469.38,-168.96 485.34,-154.75 497.42,-144"/>
<polygon fill="midnightblue" stroke="midnightblue" points="499.92,-146.46 505.06,-137.19 495.26,-141.23 499.92,-146.46"/>
</g>
<!-- Node22 -->
<g id="node22" class="node">
<title>Node22</title>
<g id="a_node22"><a xlink:href="_attribute_injector_8h.html" target="_top" xlink:title=" ">
<polygon fill="white" stroke="black" points="468.32,-56.5 468.32,-75.5 561.32,-75.5 561.32,-56.5 468.32,-56.5"/>
<text text-anchor="middle" x="514.82" y="-63.5" font-family="Helvetica,sans-Serif" font-size="10.00">AttributeInjector.h</text>
</a>
</g>
</g>
<!-- Node21&#45;&gt;Node22 -->
<g id="edge25" class="edge">
<title>Node21&#45;&gt;Node22</title>
<path fill="none" stroke="midnightblue" d="M514.82,-117.98C514.82,-109.58 514.82,-96.48 514.82,-85.66"/>
<polygon fill="midnightblue" stroke="midnightblue" points="518.32,-85.51 514.82,-75.51 511.32,-85.51 518.32,-85.51"/>
</g>
<!-- Node23&#45;&gt;Node9 -->
<g id="edge28" class="edge">
<title>Node23&#45;&gt;Node9</title>
<path fill="none" stroke="midnightblue" d="M205.45,-185.67C221.31,-183.41 238.76,-181.01 254.82,-179 402.53,-160.52 440.64,-165.33 587.82,-143 600.04,-141.15 613.3,-138.69 625.18,-136.33"/>
<polygon fill="midnightblue" stroke="midnightblue" points="626.1,-139.71 635.2,-134.29 624.71,-132.85 626.1,-139.71"/>
</g>
<!-- Node23&#45;&gt;Node13 -->
<g id="edge27" class="edge">
<title>Node23&#45;&gt;Node13</title>
<path fill="none" stroke="midnightblue" d="M151.17,-179.23C149.92,-160.72 150.92,-128.81 169.82,-112 171.98,-110.08 508.92,-81.33 632.8,-70.81"/>
<polygon fill="midnightblue" stroke="midnightblue" points="633.41,-74.27 643.08,-69.94 632.82,-67.3 633.41,-74.27"/>
</g>
<!-- Node23&#45;&gt;Node24 -->
<g id="edge29" class="edge">
<title>Node23&#45;&gt;Node24</title>
<path fill="none" stroke="midnightblue" d="M168.44,-179.4C180,-168.96 195.74,-154.75 207.66,-144"/>
<polygon fill="midnightblue" stroke="midnightblue" points="210.11,-146.49 215.19,-137.19 205.42,-141.3 210.11,-146.49"/>
</g>
<!-- Node27 -->
<g id="node27" class="node">
<title>Node27</title>
<g id="a_node27"><a xlink:href="_write_event_receiver_8h.html" target="_top" xlink:title=" ">
<polygon fill="white" stroke="black" points="179.32,-56.5 179.32,-75.5 290.32,-75.5 290.32,-56.5 179.32,-56.5"/>
<text text-anchor="middle" x="234.82" y="-63.5" font-family="Helvetica,sans-Serif" font-size="10.00">WriteEventReceiver.h</text>
</a>
</g>
</g>
<!-- Node23&#45;&gt;Node27 -->
<g id="edge35" class="edge">
<title>Node23&#45;&gt;Node27</title>
<path fill="none" stroke="midnightblue" d="M99.9,-183.99C46.98,-172.18 -22.51,-148.93 7.82,-112 27.95,-87.49 109.58,-76.1 169.2,-70.96"/>
<polygon fill="midnightblue" stroke="midnightblue" points="169.63,-74.44 179.31,-70.13 169.06,-67.46 169.63,-74.44"/>
</g>
<!-- Node28 -->
<g id="node28" class="node">
<title>Node28</title>
<g id="a_node28"><a xlink:href="_socket_reader_8h.html" target="_top" xlink:title=" ">
<polygon fill="white" stroke="black" points="17.32,-112.5 17.32,-142.5 122.32,-142.5 122.32,-112.5 17.32,-112.5"/>
<text text-anchor="start" x="25.32" y="-130.5" font-family="Helvetica,sans-Serif" font-size="10.00">socket/sock_stream</text>
<text text-anchor="middle" x="69.82" y="-119.5" font-family="Helvetica,sans-Serif" font-size="10.00">/SocketReader.h</text>
</a>
</g>
</g>
<!-- Node23&#45;&gt;Node28 -->
<g id="edge36" class="edge">
<title>Node23&#45;&gt;Node28</title>
<path fill="none" stroke="midnightblue" d="M134.81,-179.4C123.39,-170.45 108.43,-158.74 95.75,-148.8"/>
<polygon fill="midnightblue" stroke="midnightblue" points="97.83,-145.99 87.8,-142.58 93.51,-151.5 97.83,-145.99"/>
</g>
<!-- Node24&#45;&gt;Node13 -->
<g id="edge30" class="edge">
<title>Node24&#45;&gt;Node13</title>
<path fill="none" stroke="midnightblue" d="M254.04,-117.95C262.32,-115.76 271.38,-113.58 279.82,-112 346.72,-99.47 544.01,-79.79 633.18,-71.22"/>
<polygon fill="midnightblue" stroke="midnightblue" points="633.63,-74.7 643.25,-70.26 632.96,-67.73 633.63,-74.7"/>
</g>
<!-- Node25 -->
<g id="node25" class="node">
<title>Node25</title>
<g id="a_node25"><a xlink:href="_read_event_receiver_8h.html" target="_top" xlink:title=" ">
<polygon fill="white" stroke="black" points="327.82,-56.5 327.82,-75.5 439.82,-75.5 439.82,-56.5 327.82,-56.5"/>
<text text-anchor="middle" x="383.82" y="-63.5" font-family="Helvetica,sans-Serif" font-size="10.00">ReadEventReceiver.h</text>
</a>
</g>
</g>
<!-- Node24&#45;&gt;Node25 -->
<g id="edge31" class="edge">
<title>Node24&#45;&gt;Node25</title>
<path fill="none" stroke="midnightblue" d="M247.6,-117.98C274.88,-107.77 320.74,-90.61 351.62,-79.05"/>
<polygon fill="midnightblue" stroke="midnightblue" points="352.94,-82.29 361.08,-75.51 350.49,-75.74 352.94,-82.29"/>
</g>
<!-- Node24&#45;&gt;Node27 -->
<g id="edge33" class="edge">
<title>Node24&#45;&gt;Node27</title>
<path fill="none" stroke="midnightblue" d="M226.25,-117.98C227.67,-109.58 229.87,-96.48 231.69,-85.66"/>
<polygon fill="midnightblue" stroke="midnightblue" points="235.19,-85.95 233.39,-75.51 228.28,-84.79 235.19,-85.95"/>
</g>
<!-- Node26 -->
<g id="node26" class="node">
<title>Node26</title>
<g id="a_node26"><a xlink:href="_event_receiver_8h.html" target="_top" xlink:title=" ">
<polygon fill="white" stroke="black" points="339.32,-0.5 339.32,-19.5 428.32,-19.5 428.32,-0.5 339.32,-0.5"/>
<text text-anchor="middle" x="383.82" y="-7.5" font-family="Helvetica,sans-Serif" font-size="10.00">EventReceiver.h</text>
</a>
</g>
</g>
<!-- Node25&#45;&gt;Node26 -->
<g id="edge32" class="edge">
<title>Node25&#45;&gt;Node26</title>
<path fill="none" stroke="midnightblue" d="M383.82,-56.08C383.82,-49.01 383.82,-38.86 383.82,-29.99"/>
<polygon fill="midnightblue" stroke="midnightblue" points="387.32,-29.75 383.82,-19.75 380.32,-29.75 387.32,-29.75"/>
</g>
<!-- Node27&#45;&gt;Node26 -->
<g id="edge34" class="edge">
<title>Node27&#45;&gt;Node26</title>
<path fill="none" stroke="midnightblue" d="M258.43,-56.44C283.28,-47.44 322.6,-33.19 350.58,-23.05"/>
<polygon fill="midnightblue" stroke="midnightblue" points="352.11,-26.21 360.32,-19.52 349.73,-19.63 352.11,-26.21"/>
</g>
<!-- Node28&#45;&gt;Node25 -->
<g id="edge37" class="edge">
<title>Node28&#45;&gt;Node25</title>
<path fill="none" stroke="midnightblue" d="M122.45,-114.94C127.31,-113.92 132.15,-112.93 136.82,-112 200.61,-99.29 273.96,-86.11 324.04,-77.32"/>
<polygon fill="midnightblue" stroke="midnightblue" points="324.81,-80.74 334.06,-75.57 323.6,-73.85 324.81,-80.74"/>
</g>
<!-- Node29&#45;&gt;Node9 -->
<g id="edge40" class="edge">
<title>Node29&#45;&gt;Node9</title>
<path fill="none" stroke="midnightblue" d="M369.52,-180.86C372.66,-180.21 375.78,-179.58 378.82,-179 485.63,-158.6 515.3,-169.25 620.82,-143 623.87,-142.24 627.02,-141.34 630.14,-140.38"/>
<polygon fill="midnightblue" stroke="midnightblue" points="631.55,-143.6 639.93,-137.12 629.34,-136.96 631.55,-143.6"/>
</g>
<!-- Node29&#45;&gt;Node13 -->
<g id="edge39" class="edge">
<title>Node29&#45;&gt;Node13</title>
<path fill="none" stroke="midnightblue" d="M369.54,-180.95C372.68,-180.27 375.79,-179.62 378.82,-179 471.2,-160.26 502.38,-182.8 587.82,-143 592.01,-141.05 635.07,-104.03 660.08,-82.39"/>
<polygon fill="midnightblue" stroke="midnightblue" points="662.52,-84.91 667.79,-75.72 657.94,-79.62 662.52,-84.91"/>
</g>
<!-- Node29&#45;&gt;Node24 -->
<g id="edge42" class="edge">
<title>Node29&#45;&gt;Node24</title>
<path fill="none" stroke="midnightblue" d="M296.86,-179.4C281.57,-168.6 260.57,-153.76 245.19,-142.89"/>
<polygon fill="midnightblue" stroke="midnightblue" points="247.05,-139.92 236.86,-137.01 243.01,-145.64 247.05,-139.92"/>
</g>
<!-- Node29&#45;&gt;Node25 -->
<g id="edge41" class="edge">
<title>Node29&#45;&gt;Node25</title>
<path fill="none" stroke="midnightblue" d="M359.15,-179.3C375.84,-171.39 393.27,-159.68 402.82,-143 413.34,-124.62 404.04,-100.49 395.13,-84.4"/>
<polygon fill="midnightblue" stroke="midnightblue" points="397.97,-82.32 389.82,-75.54 391.96,-85.92 397.97,-82.32"/>
</g>
<!-- Node30 -->
<g id="node30" class="node">
<title>Node30</title>
<g id="a_node30"><a xlink:href="_socket_writer_8h.html" target="_top" xlink:title=" ">
<polygon fill="white" stroke="black" points="289.32,-112.5 289.32,-142.5 394.32,-142.5 394.32,-112.5 289.32,-112.5"/>
<text text-anchor="start" x="297.32" y="-130.5" font-family="Helvetica,sans-Serif" font-size="10.00">socket/sock_stream</text>
<text text-anchor="middle" x="341.82" y="-119.5" font-family="Helvetica,sans-Serif" font-size="10.00">/SocketWriter.h</text>
</a>
</g>
</g>
<!-- Node29&#45;&gt;Node30 -->
<g id="edge43" class="edge">
<title>Node29&#45;&gt;Node30</title>
<path fill="none" stroke="midnightblue" d="M322.25,-179.4C325.33,-171.39 329.26,-161.16 332.79,-151.98"/>
<polygon fill="midnightblue" stroke="midnightblue" points="336.08,-153.17 336.41,-142.58 329.55,-150.65 336.08,-153.17"/>
</g>
<!-- Node30&#45;&gt;Node27 -->
<g id="edge44" class="edge">
<title>Node30&#45;&gt;Node27</title>
<path fill="none" stroke="midnightblue" d="M316.46,-112.4C299.15,-102.77 276.35,-90.09 259.24,-80.58"/>
<polygon fill="midnightblue" stroke="midnightblue" points="260.83,-77.46 250.39,-75.66 257.43,-83.58 260.83,-77.46"/>
</g>
<!-- Node31&#45;&gt;Node9 -->
<g id="edge49" class="edge">
<title>Node31&#45;&gt;Node9</title>
<path fill="none" stroke="midnightblue" d="M725.25,-179.4C712.12,-168.86 694.19,-154.48 680.75,-143.69"/>
<polygon fill="midnightblue" stroke="midnightblue" points="682.65,-140.72 672.66,-137.19 678.27,-146.18 682.65,-140.72"/>
</g>
<!-- Node31&#45;&gt;Node25 -->
<g id="edge50" class="edge">
<title>Node31&#45;&gt;Node25</title>
<path fill="none" stroke="midnightblue" d="M739.07,-179.33C733.32,-160.61 720.42,-128.14 696.82,-112 686.72,-105.09 538.73,-85.96 449.92,-75"/>
<polygon fill="midnightblue" stroke="midnightblue" points="450.28,-71.51 439.92,-73.77 449.42,-78.46 450.28,-71.51"/>
</g>
<!-- Node32 -->
<g id="node32" class="node">
<title>Node32</title>
<g id="a_node32"><a xlink:href="_connect_event_receiver_8h.html" target="_top" xlink:title=" ">
<polygon fill="white" stroke="black" points="730.32,-56.5 730.32,-75.5 855.32,-75.5 855.32,-56.5 730.32,-56.5"/>
<text text-anchor="middle" x="792.82" y="-63.5" font-family="Helvetica,sans-Serif" font-size="10.00">ConnectEventReceiver.h</text>
</a>
</g>
</g>
<!-- Node31&#45;&gt;Node32 -->
<g id="edge47" class="edge">
<title>Node31&#45;&gt;Node32</title>
<path fill="none" stroke="midnightblue" d="M748.36,-179.48C757.44,-156.51 775.47,-110.89 785.56,-85.37"/>
<polygon fill="midnightblue" stroke="midnightblue" points="788.93,-86.38 789.35,-75.79 782.42,-83.8 788.93,-86.38"/>
</g>
<!-- Node32&#45;&gt;Node26 -->
<g id="edge48" class="edge">
<title>Node32&#45;&gt;Node26</title>
<path fill="none" stroke="midnightblue" d="M730.26,-56.74C650.65,-46.23 514.4,-28.24 438.67,-18.24"/>
<polygon fill="midnightblue" stroke="midnightblue" points="438.77,-14.72 428.4,-16.89 437.85,-21.66 438.77,-14.72"/>
</g>
<!-- Node34&#45;&gt;Node9 -->
<g id="edge53" class="edge">
<title>Node34&#45;&gt;Node9</title>
<path fill="none" stroke="midnightblue" d="M707.72,-246.2C699.06,-236.67 688.41,-223.46 681.82,-210 671.93,-189.8 666.7,-164.33 664.1,-147.28"/>
<polygon fill="midnightblue" stroke="midnightblue" points="667.52,-146.44 662.7,-137 660.58,-147.38 667.52,-146.44"/>
</g>
<!-- Node34&#45;&gt;Node31 -->
<g id="edge54" class="edge">
<title>Node34&#45;&gt;Node31</title>
<path fill="none" stroke="midnightblue" d="M726.38,-246.4C728.94,-238.47 732.2,-228.38 735.14,-219.27"/>
<polygon fill="midnightblue" stroke="midnightblue" points="738.53,-220.17 738.27,-209.58 731.87,-218.02 738.53,-220.17"/>
</g>
<!-- Node35&#45;&gt;Node11 -->
<g id="edge56" class="edge">
<title>Node35&#45;&gt;Node11</title>
<path fill="none" stroke="midnightblue" d="M976.82,-436.4C976.82,-427.06 976.82,-414.71 976.82,-404.52"/>
<polygon fill="midnightblue" stroke="midnightblue" points="980.32,-404.19 976.82,-394.19 973.32,-404.19 980.32,-404.19"/>
</g>
<!-- Node35&#45;&gt;Node17 -->
<g id="edge62" class="edge">
<title>Node35&#45;&gt;Node17</title>
<path fill="none" stroke="midnightblue" d="M930,-436.48C896.75,-426.51 851.92,-413.09 816.62,-402.51"/>
<polygon fill="midnightblue" stroke="midnightblue" points="817.51,-399.13 806.93,-399.61 815.51,-405.83 817.51,-399.13"/>
</g>
<!-- Node36 -->
<g id="node36" class="node">
<title>Node36</title>
<g id="a_node36"><a xlink:href="ip_2tcp_2ipv6_2_socket_8h.html" target="_top" xlink:title=" ">
<polygon fill="white" stroke="black" points="1027.82,-179.5 1027.82,-209.5 1121.82,-209.5 1121.82,-179.5 1027.82,-179.5"/>
<text text-anchor="start" x="1035.82" y="-197.5" font-family="Helvetica,sans-Serif" font-size="10.00">socket/ip/tcp/ipv6</text>
<text text-anchor="middle" x="1074.82" y="-186.5" font-family="Helvetica,sans-Serif" font-size="10.00">/Socket.h</text>
</a>
</g>
</g>
<!-- Node35&#45;&gt;Node36 -->
<g id="edge57" class="edge">
<title>Node35&#45;&gt;Node36</title>
<path fill="none" stroke="midnightblue" d="M1012.64,-436.39C1028.56,-428.21 1045.91,-416.26 1055.82,-400 1090.5,-343.1 1084.67,-260.31 1079,-219.74"/>
<polygon fill="midnightblue" stroke="midnightblue" points="1082.44,-219.06 1077.47,-209.7 1075.52,-220.11 1082.44,-219.06"/>
</g>
<!-- Node36&#45;&gt;Node13 -->
<g id="edge58" class="edge">
<title>Node36&#45;&gt;Node13</title>
<path fill="none" stroke="midnightblue" d="M1060.14,-179.48C1036.75,-157.29 992.77,-116.14 983.82,-112 880.07,-63.98 839.89,-94.04 722.46,-75.93"/>
<polygon fill="midnightblue" stroke="midnightblue" points="722.8,-72.44 712.37,-74.29 721.68,-79.35 722.8,-72.44"/>
</g>
<!-- Node36&#45;&gt;Node14 -->
<g id="edge59" class="edge">
<title>Node36&#45;&gt;Node14</title>
<path fill="none" stroke="midnightblue" d="M1074.82,-179.4C1074.82,-170.06 1074.82,-157.71 1074.82,-147.52"/>
<polygon fill="midnightblue" stroke="midnightblue" points="1078.32,-147.19 1074.82,-137.19 1071.32,-147.19 1078.32,-147.19"/>
</g>
<!-- Node37 -->
<g id="node37" class="node">
<title>Node37</title>
<g id="a_node37"><a xlink:href="ipv6_2_inet_address_8h.html" target="_top" xlink:title=" ">
<polygon fill="white" stroke="black" points="1136.32,-112.5 1136.32,-142.5 1251.32,-142.5 1251.32,-112.5 1136.32,-112.5"/>
<text text-anchor="start" x="1144.32" y="-130.5" font-family="Helvetica,sans-Serif" font-size="10.00">socket/ip/address/ipv6</text>
<text text-anchor="middle" x="1193.82" y="-119.5" font-family="Helvetica,sans-Serif" font-size="10.00">/InetAddress.h</text>
</a>
</g>
</g>
<!-- Node36&#45;&gt;Node37 -->
<g id="edge60" class="edge">
<title>Node36&#45;&gt;Node37</title>
<path fill="none" stroke="midnightblue" d="M1100.64,-179.4C1117.8,-170.03 1140.52,-157.62 1159.23,-147.39"/>
<polygon fill="midnightblue" stroke="midnightblue" points="1160.95,-150.44 1168.05,-142.58 1157.6,-144.3 1160.95,-150.44"/>
</g>
<!-- Node37&#45;&gt;Node15 -->
<g id="edge61" class="edge">
<title>Node37&#45;&gt;Node15</title>
<path fill="none" stroke="midnightblue" d="M1165.62,-112.4C1146.1,-102.64 1120.3,-89.74 1101.19,-80.18"/>
<polygon fill="midnightblue" stroke="midnightblue" points="1102.65,-77 1092.14,-75.66 1099.52,-83.26 1102.65,-77"/>
</g>
</g>
</svg>
