<?xml version="1.0" encoding="UTF-8" standalone="no"?>
<!DOCTYPE svg PUBLIC "-//W3C//DTD SVG 1.1//EN"
 "http://www.w3.org/Graphics/SVG/1.1/DTD/svg11.dtd">
<!-- Generated by graphviz version 2.43.0 (0)
 -->
<!-- Title: http/tls/Client.h Pages: 1 -->
<svg width="1394pt" height="531pt"
 viewBox="0.00 0.00 1393.50 531.00" xmlns="http://www.w3.org/2000/svg" xmlns:xlink="http://www.w3.org/1999/xlink">
<g id="graph0" class="graph" transform="scale(1 1) rotate(0) translate(4 527)">
<title>http/tls/Client.h</title>
<polygon fill="white" stroke="transparent" points="-4,4 -4,-527 1389.5,-527 1389.5,4 -4,4"/>
<!-- Node1 -->
<g id="node1" class="node">
<title>Node1</title>
<g id="a_node1"><a xlink:title=" ">
<polygon fill="#bfbfbf" stroke="black" points="886.5,-503.5 886.5,-522.5 969.5,-522.5 969.5,-503.5 886.5,-503.5"/>
<text text-anchor="middle" x="928" y="-510.5" font-family="Helvetica,sans-Serif" font-size="10.00">http/tls/Client.h</text>
</a>
</g>
</g>
<!-- Node2 -->
<g id="node2" class="node">
<title>Node2</title>
<g id="a_node2"><a xlink:href="_client_8h.html" target="_top" xlink:title=" ">
<polygon fill="white" stroke="black" points="320.5,-442 320.5,-461 379.5,-461 379.5,-442 320.5,-442"/>
<text text-anchor="middle" x="350" y="-449" font-family="Helvetica,sans-Serif" font-size="10.00">../Client.h</text>
</a>
</g>
</g>
<!-- Node1&#45;&gt;Node2 -->
<g id="edge1" class="edge">
<title>Node1&#45;&gt;Node2</title>
<path fill="none" stroke="midnightblue" d="M886.43,-507.72C779.32,-496.7 494.97,-467.42 389.82,-456.6"/>
<polygon fill="midnightblue" stroke="midnightblue" points="389.94,-453.09 379.63,-455.55 389.22,-460.06 389.94,-453.09"/>
</g>
<!-- Node10 -->
<g id="node10" class="node">
<title>Node10</title>
<g id="a_node10"><a xlink:href="ip_2tcp_2ipv4_2tls_2_socket_client_8h.html" target="_top" xlink:title=" ">
<polygon fill="white" stroke="black" points="879,-436.5 879,-466.5 977,-466.5 977,-436.5 879,-436.5"/>
<text text-anchor="start" x="887" y="-454.5" font-family="Helvetica,sans-Serif" font-size="10.00">socket/ip/tcp/ipv4</text>
<text text-anchor="middle" x="928" y="-443.5" font-family="Helvetica,sans-Serif" font-size="10.00">/tls/SocketClient.h</text>
</a>
</g>
</g>
<!-- Node1&#45;&gt;Node10 -->
<g id="edge9" class="edge">
<title>Node1&#45;&gt;Node10</title>
<path fill="none" stroke="midnightblue" d="M928,-503.48C928,-496.47 928,-486.19 928,-476.7"/>
<polygon fill="midnightblue" stroke="midnightblue" points="931.5,-476.52 928,-466.52 924.5,-476.52 931.5,-476.52"/>
</g>
<!-- Node35 -->
<g id="node35" class="node">
<title>Node35</title>
<g id="a_node35"><a xlink:href="ip_2tcp_2ipv6_2tls_2_socket_client_8h.html" target="_top" xlink:title=" ">
<polygon fill="white" stroke="black" points="995,-436.5 995,-466.5 1093,-466.5 1093,-436.5 995,-436.5"/>
<text text-anchor="start" x="1003" y="-454.5" font-family="Helvetica,sans-Serif" font-size="10.00">socket/ip/tcp/ipv6</text>
<text text-anchor="middle" x="1044" y="-443.5" font-family="Helvetica,sans-Serif" font-size="10.00">/tls/SocketClient.h</text>
</a>
</g>
</g>
<!-- Node1&#45;&gt;Node35 -->
<g id="edge53" class="edge">
<title>Node1&#45;&gt;Node35</title>
<path fill="none" stroke="midnightblue" d="M944.62,-503.48C960.99,-495.08 986.54,-481.97 1007.63,-471.15"/>
<polygon fill="midnightblue" stroke="midnightblue" points="1009.36,-474.2 1016.66,-466.52 1006.17,-467.97 1009.36,-474.2"/>
</g>
<!-- Node3 -->
<g id="node3" class="node">
<title>Node3</title>
<g id="a_node3"><a xlink:href="_client_context_8h.html" target="_top" xlink:title=" ">
<polygon fill="white" stroke="black" points="178.5,-375 178.5,-394 263.5,-394 263.5,-375 178.5,-375"/>
<text text-anchor="middle" x="221" y="-382" font-family="Helvetica,sans-Serif" font-size="10.00">ClientContext.h</text>
</a>
</g>
</g>
<!-- Node2&#45;&gt;Node3 -->
<g id="edge2" class="edge">
<title>Node2&#45;&gt;Node3</title>
<path fill="none" stroke="midnightblue" d="M332.87,-441.87C310.99,-430.84 272.91,-411.66 247.33,-398.77"/>
<polygon fill="midnightblue" stroke="midnightblue" points="248.71,-395.54 238.2,-394.17 245.56,-401.79 248.71,-395.54"/>
</g>
<!-- Node9 -->
<g id="node9" class="node">
<title>Node9</title>
<g id="a_node9"><a xlink:href="_logger_8h.html" target="_top" xlink:title=" ">
<polygon fill="white" stroke="black" points="298.5,-118 298.5,-137 351.5,-137 351.5,-118 298.5,-118"/>
<text text-anchor="middle" x="325" y="-125" font-family="Helvetica,sans-Serif" font-size="10.00">Logger.h</text>
</a>
</g>
</g>
<!-- Node2&#45;&gt;Node9 -->
<g id="edge8" class="edge">
<title>Node2&#45;&gt;Node9</title>
<path fill="none" stroke="midnightblue" d="M350,-441.85C350,-420.76 350,-365.02 350,-318.5 350,-318.5 350,-318.5 350,-255 350,-215.98 338.41,-171.45 331.01,-147"/>
<polygon fill="midnightblue" stroke="midnightblue" points="334.3,-145.77 327.97,-137.28 327.62,-147.87 334.3,-145.77"/>
</g>
<!-- Node4 -->
<g id="node4" class="node">
<title>Node4</title>
<g id="a_node4"><a xlink:href="_response_parser_8h.html" target="_top" xlink:title=" ">
<polygon fill="white" stroke="black" points="116.5,-308 116.5,-327 213.5,-327 213.5,-308 116.5,-308"/>
<text text-anchor="middle" x="165" y="-315" font-family="Helvetica,sans-Serif" font-size="10.00">ResponseParser.h</text>
</a>
</g>
</g>
<!-- Node3&#45;&gt;Node4 -->
<g id="edge3" class="edge">
<title>Node3&#45;&gt;Node4</title>
<path fill="none" stroke="midnightblue" d="M213.45,-374.73C204.72,-364.6 190.15,-347.69 179.26,-335.06"/>
<polygon fill="midnightblue" stroke="midnightblue" points="181.61,-332.42 172.43,-327.13 176.31,-336.99 181.61,-332.42"/>
</g>
<!-- Node7 -->
<g id="node7" class="node">
<title>Node7</title>
<g id="a_node7"><a xlink:href="_server_request_8h.html" target="_top" xlink:title=" ">
<polygon fill="white" stroke="black" points="232,-308 232,-327 322,-327 322,-308 232,-308"/>
<text text-anchor="middle" x="277" y="-315" font-family="Helvetica,sans-Serif" font-size="10.00">ServerRequest.h</text>
</a>
</g>
</g>
<!-- Node3&#45;&gt;Node7 -->
<g id="edge6" class="edge">
<title>Node3&#45;&gt;Node7</title>
<path fill="none" stroke="midnightblue" d="M228.55,-374.73C237.28,-364.6 251.85,-347.69 262.74,-335.06"/>
<polygon fill="midnightblue" stroke="midnightblue" points="265.69,-336.99 269.57,-327.13 260.39,-332.42 265.69,-336.99"/>
</g>
<!-- Node8 -->
<g id="node8" class="node">
<title>Node8</title>
<g id="a_node8"><a xlink:href="_server_response_8h.html" target="_top" xlink:title=" ">
<polygon fill="white" stroke="black" points="0,-308 0,-327 98,-327 98,-308 0,-308"/>
<text text-anchor="middle" x="49" y="-315" font-family="Helvetica,sans-Serif" font-size="10.00">ServerResponse.h</text>
</a>
</g>
</g>
<!-- Node3&#45;&gt;Node8 -->
<g id="edge7" class="edge">
<title>Node3&#45;&gt;Node8</title>
<path fill="none" stroke="midnightblue" d="M198.16,-374.87C168.13,-363.52 115.22,-343.52 81.16,-330.65"/>
<polygon fill="midnightblue" stroke="midnightblue" points="82.25,-327.32 71.66,-327.06 79.78,-333.87 82.25,-327.32"/>
</g>
<!-- Node5 -->
<g id="node5" class="node">
<title>Node5</title>
<g id="a_node5"><a xlink:href="_cookie_options_8h.html" target="_top" xlink:title=" ">
<polygon fill="white" stroke="black" points="164.5,-246.5 164.5,-265.5 253.5,-265.5 253.5,-246.5 164.5,-246.5"/>
<text text-anchor="middle" x="209" y="-253.5" font-family="Helvetica,sans-Serif" font-size="10.00">CookieOptions.h</text>
</a>
</g>
</g>
<!-- Node4&#45;&gt;Node5 -->
<g id="edge4" class="edge">
<title>Node4&#45;&gt;Node5</title>
<path fill="none" stroke="midnightblue" d="M171.3,-307.98C177.9,-299.05 188.44,-284.81 196.69,-273.64"/>
<polygon fill="midnightblue" stroke="midnightblue" points="199.58,-275.63 202.71,-265.51 193.95,-271.47 199.58,-275.63"/>
</g>
<!-- Node6 -->
<g id="node6" class="node">
<title>Node6</title>
<g id="a_node6"><a xlink:href="_parser_8h.html" target="_top" xlink:title=" ">
<polygon fill="white" stroke="black" points="93.5,-246.5 93.5,-265.5 146.5,-265.5 146.5,-246.5 93.5,-246.5"/>
<text text-anchor="middle" x="120" y="-253.5" font-family="Helvetica,sans-Serif" font-size="10.00">Parser.h</text>
</a>
</g>
</g>
<!-- Node4&#45;&gt;Node6 -->
<g id="edge5" class="edge">
<title>Node4&#45;&gt;Node6</title>
<path fill="none" stroke="midnightblue" d="M158.55,-307.98C151.8,-299.05 141.03,-284.81 132.59,-273.64"/>
<polygon fill="midnightblue" stroke="midnightblue" points="135.26,-271.37 126.44,-265.51 129.68,-275.6 135.26,-271.37"/>
</g>
<!-- Node11 -->
<g id="node11" class="node">
<title>Node11</title>
<g id="a_node11"><a xlink:href="ip_2tcp_2_socket_client_8h.html" target="_top" xlink:title=" ">
<polygon fill="white" stroke="black" points="974,-375 974,-394 1114,-394 1114,-375 974,-375"/>
<text text-anchor="middle" x="1044" y="-382" font-family="Helvetica,sans-Serif" font-size="10.00">socket/ip/tcp/SocketClient.h</text>
</a>
</g>
</g>
<!-- Node10&#45;&gt;Node11 -->
<g id="edge10" class="edge">
<title>Node10&#45;&gt;Node11</title>
<path fill="none" stroke="midnightblue" d="M953.17,-436.4C972.98,-425.29 1000.42,-409.92 1019.94,-398.98"/>
<polygon fill="midnightblue" stroke="midnightblue" points="1021.81,-401.95 1028.82,-394.01 1018.38,-395.84 1021.81,-401.95"/>
</g>
<!-- Node12 -->
<g id="node12" class="node">
<title>Node12</title>
<g id="a_node12"><a xlink:href="ip_2tcp_2ipv4_2_socket_8h.html" target="_top" xlink:title=" ">
<polygon fill="white" stroke="black" points="982,-179.5 982,-209.5 1076,-209.5 1076,-179.5 982,-179.5"/>
<text text-anchor="start" x="990" y="-197.5" font-family="Helvetica,sans-Serif" font-size="10.00">socket/ip/tcp/ipv4</text>
<text text-anchor="middle" x="1029" y="-186.5" font-family="Helvetica,sans-Serif" font-size="10.00">/Socket.h</text>
</a>
</g>
</g>
<!-- Node10&#45;&gt;Node12 -->
<g id="edge11" class="edge">
<title>Node10&#45;&gt;Node12</title>
<path fill="none" stroke="midnightblue" d="M933.57,-436.43C950.13,-394.63 999.13,-270.91 1019.72,-218.93"/>
<polygon fill="midnightblue" stroke="midnightblue" points="1023.01,-220.12 1023.44,-209.53 1016.51,-217.54 1023.01,-220.12"/>
</g>
<!-- Node17 -->
<g id="node17" class="node">
<title>Node17</title>
<g id="a_node17"><a xlink:href="sock__stream_2tls_2_socket_client_8h.html" target="_top" xlink:title=" ">
<polygon fill="white" stroke="black" points="812.5,-369.5 812.5,-399.5 917.5,-399.5 917.5,-369.5 812.5,-369.5"/>
<text text-anchor="start" x="820.5" y="-387.5" font-family="Helvetica,sans-Serif" font-size="10.00">socket/sock_stream</text>
<text text-anchor="middle" x="865" y="-376.5" font-family="Helvetica,sans-Serif" font-size="10.00">/tls/SocketClient.h</text>
</a>
</g>
</g>
<!-- Node10&#45;&gt;Node17 -->
<g id="edge18" class="edge">
<title>Node10&#45;&gt;Node17</title>
<path fill="none" stroke="midnightblue" d="M914.33,-436.4C905.99,-427.79 895.17,-416.63 885.78,-406.94"/>
<polygon fill="midnightblue" stroke="midnightblue" points="888.12,-404.32 878.64,-399.58 883.09,-409.19 888.12,-404.32"/>
</g>
<!-- Node13 -->
<g id="node13" class="node">
<title>Node13</title>
<g id="a_node13"><a xlink:href="_descriptor_8h.html" target="_top" xlink:title=" ">
<polygon fill="white" stroke="black" points="834.5,-56.5 834.5,-75.5 903.5,-75.5 903.5,-56.5 834.5,-56.5"/>
<text text-anchor="middle" x="869" y="-63.5" font-family="Helvetica,sans-Serif" font-size="10.00">Descriptor.h</text>
</a>
</g>
</g>
<!-- Node12&#45;&gt;Node13 -->
<g id="edge12" class="edge">
<title>Node12&#45;&gt;Node13</title>
<path fill="none" stroke="midnightblue" d="M1011.27,-179.48C980.92,-155.49 919.3,-106.77 888.07,-82.08"/>
<polygon fill="midnightblue" stroke="midnightblue" points="890.13,-79.25 880.12,-75.79 885.79,-84.74 890.13,-79.25"/>
</g>
<!-- Node14 -->
<g id="node14" class="node">
<title>Node14</title>
<g id="a_node14"><a xlink:href="_socket_8h.html" target="_top" xlink:title=" ">
<polygon fill="white" stroke="black" points="993,-118 993,-137 1081,-137 1081,-118 993,-118"/>
<text text-anchor="middle" x="1037" y="-125" font-family="Helvetica,sans-Serif" font-size="10.00">socket/Socket.h</text>
</a>
</g>
</g>
<!-- Node12&#45;&gt;Node14 -->
<g id="edge13" class="edge">
<title>Node12&#45;&gt;Node14</title>
<path fill="none" stroke="midnightblue" d="M1030.74,-179.4C1031.9,-169.96 1033.44,-157.45 1034.7,-147.19"/>
<polygon fill="midnightblue" stroke="midnightblue" points="1038.18,-147.55 1035.93,-137.19 1031.23,-146.69 1038.18,-147.55"/>
</g>
<!-- Node16 -->
<g id="node16" class="node">
<title>Node16</title>
<g id="a_node16"><a xlink:href="ipv4_2_inet_address_8h.html" target="_top" xlink:title=" ">
<polygon fill="white" stroke="black" points="1098.5,-112.5 1098.5,-142.5 1213.5,-142.5 1213.5,-112.5 1098.5,-112.5"/>
<text text-anchor="start" x="1106.5" y="-130.5" font-family="Helvetica,sans-Serif" font-size="10.00">socket/ip/address/ipv4</text>
<text text-anchor="middle" x="1156" y="-119.5" font-family="Helvetica,sans-Serif" font-size="10.00">/InetAddress.h</text>
</a>
</g>
</g>
<!-- Node12&#45;&gt;Node16 -->
<g id="edge16" class="edge">
<title>Node12&#45;&gt;Node16</title>
<path fill="none" stroke="midnightblue" d="M1056.56,-179.4C1074.95,-169.98 1099.33,-157.5 1119.35,-147.26"/>
<polygon fill="midnightblue" stroke="midnightblue" points="1121.19,-150.25 1128.5,-142.58 1118,-144.02 1121.19,-150.25"/>
</g>
<!-- Node14&#45;&gt;Node13 -->
<g id="edge14" class="edge">
<title>Node14&#45;&gt;Node13</title>
<path fill="none" stroke="midnightblue" d="M1012.93,-117.98C983.99,-107.72 935.24,-90.46 902.6,-78.9"/>
<polygon fill="midnightblue" stroke="midnightblue" points="903.62,-75.55 893.03,-75.51 901.28,-82.15 903.62,-75.55"/>
</g>
<!-- Node15 -->
<g id="node15" class="node">
<title>Node15</title>
<g id="a_node15"><a xlink:href="_socket_address_8h.html" target="_top" xlink:title=" ">
<polygon fill="white" stroke="black" points="1094,-56.5 1094,-75.5 1218,-75.5 1218,-56.5 1094,-56.5"/>
<text text-anchor="middle" x="1156" y="-63.5" font-family="Helvetica,sans-Serif" font-size="10.00">socket/SocketAddress.h</text>
</a>
</g>
</g>
<!-- Node14&#45;&gt;Node15 -->
<g id="edge15" class="edge">
<title>Node14&#45;&gt;Node15</title>
<path fill="none" stroke="midnightblue" d="M1054.05,-117.98C1073.84,-108.08 1106.72,-91.64 1129.77,-80.12"/>
<polygon fill="midnightblue" stroke="midnightblue" points="1131.6,-83.11 1138.98,-75.51 1128.47,-76.85 1131.6,-83.11"/>
</g>
<!-- Node16&#45;&gt;Node15 -->
<g id="edge17" class="edge">
<title>Node16&#45;&gt;Node15</title>
<path fill="none" stroke="midnightblue" d="M1156,-112.4C1156,-104.47 1156,-94.46 1156,-85.86"/>
<polygon fill="midnightblue" stroke="midnightblue" points="1159.5,-85.66 1156,-75.66 1152.5,-85.66 1159.5,-85.66"/>
</g>
<!-- Node18 -->
<g id="node18" class="node">
<title>Node18</title>
<g id="a_node18"><a xlink:href="tls_2_socket_connector_8h.html" target="_top" xlink:title=" ">
<polygon fill="white" stroke="black" points="681,-308 681,-327 781,-327 781,-308 681,-308"/>
<text text-anchor="middle" x="731" y="-315" font-family="Helvetica,sans-Serif" font-size="10.00">SocketConnector.h</text>
</a>
</g>
</g>
<!-- Node17&#45;&gt;Node18 -->
<g id="edge19" class="edge">
<title>Node17&#45;&gt;Node18</title>
<path fill="none" stroke="midnightblue" d="M835.92,-369.4C812.62,-358.09 780.19,-342.36 757.57,-331.39"/>
<polygon fill="midnightblue" stroke="midnightblue" points="759.06,-328.22 748.54,-327.01 756.01,-334.52 759.06,-328.22"/>
</g>
<!-- Node34 -->
<g id="node34" class="node">
<title>Node34</title>
<g id="a_node34"><a xlink:href="sock__stream_2_socket_client_8h.html" target="_top" xlink:title=" ">
<polygon fill="white" stroke="black" points="812.5,-302.5 812.5,-332.5 917.5,-332.5 917.5,-302.5 812.5,-302.5"/>
<text text-anchor="start" x="820.5" y="-320.5" font-family="Helvetica,sans-Serif" font-size="10.00">socket/sock_stream</text>
<text text-anchor="middle" x="865" y="-309.5" font-family="Helvetica,sans-Serif" font-size="10.00">/SocketClient.h</text>
</a>
</g>
</g>
<!-- Node17&#45;&gt;Node34 -->
<g id="edge51" class="edge">
<title>Node17&#45;&gt;Node34</title>
<path fill="none" stroke="midnightblue" d="M865,-369.4C865,-361.64 865,-351.81 865,-342.86"/>
<polygon fill="midnightblue" stroke="midnightblue" points="868.5,-342.58 865,-332.58 861.5,-342.58 868.5,-342.58"/>
</g>
<!-- Node18&#45;&gt;Node9 -->
<g id="edge20" class="edge">
<title>Node18&#45;&gt;Node9</title>
<path fill="none" stroke="midnightblue" d="M680.69,-312.28C632,-306.68 557.1,-294 498,-266 431.77,-234.62 368.04,-173.5 339.97,-144.51"/>
<polygon fill="midnightblue" stroke="midnightblue" points="342.46,-142.05 333.03,-137.23 337.4,-146.88 342.46,-142.05"/>
</g>
<!-- Node19 -->
<g id="node19" class="node">
<title>Node19</title>
<g id="a_node19"><a xlink:href="tls_2_socket_connection_8h.html" target="_top" xlink:title=" ">
<polygon fill="white" stroke="black" points="507.5,-246.5 507.5,-265.5 612.5,-265.5 612.5,-246.5 507.5,-246.5"/>
<text text-anchor="middle" x="560" y="-253.5" font-family="Helvetica,sans-Serif" font-size="10.00">SocketConnection.h</text>
</a>
</g>
</g>
<!-- Node18&#45;&gt;Node19 -->
<g id="edge21" class="edge">
<title>Node18&#45;&gt;Node19</title>
<path fill="none" stroke="midnightblue" d="M706.5,-307.98C677.04,-297.72 627.42,-280.46 594.2,-268.9"/>
<polygon fill="midnightblue" stroke="midnightblue" points="595.05,-265.49 584.45,-265.51 592.75,-272.1 595.05,-265.49"/>
</g>
<!-- Node24 -->
<g id="node24" class="node">
<title>Node24</title>
<g id="a_node24"><a xlink:href="_t_l_s_handshake_8h.html" target="_top" xlink:title=" ">
<polygon fill="white" stroke="black" points="731,-118 731,-137 823,-137 823,-118 731,-118"/>
<text text-anchor="middle" x="777" y="-125" font-family="Helvetica,sans-Serif" font-size="10.00">TLSHandshake.h</text>
</a>
</g>
</g>
<!-- Node18&#45;&gt;Node24 -->
<g id="edge44" class="edge">
<title>Node18&#45;&gt;Node24</title>
<path fill="none" stroke="midnightblue" d="M736.77,-307.98C743.06,-298.27 752.9,-281.7 758,-266 771.3,-225.07 775.29,-174.34 776.49,-147.39"/>
<polygon fill="midnightblue" stroke="midnightblue" points="779.99,-147.22 776.86,-137.1 773,-146.97 779.99,-147.22"/>
</g>
<!-- Node31 -->
<g id="node31" class="node">
<title>Node31</title>
<g id="a_node31"><a xlink:href="_socket_connector_8h.html" target="_top" xlink:title=" ">
<polygon fill="white" stroke="black" points="812.5,-179.5 812.5,-209.5 917.5,-209.5 917.5,-179.5 812.5,-179.5"/>
<text text-anchor="start" x="820.5" y="-197.5" font-family="Helvetica,sans-Serif" font-size="10.00">socket/sock_stream</text>
<text text-anchor="middle" x="865" y="-186.5" font-family="Helvetica,sans-Serif" font-size="10.00">/SocketConnector.h</text>
</a>
</g>
</g>
<!-- Node18&#45;&gt;Node31 -->
<g id="edge45" class="edge">
<title>Node18&#45;&gt;Node31</title>
<path fill="none" stroke="midnightblue" d="M741.79,-307.75C753.93,-297.84 774.16,-281.08 791,-266 808.96,-249.92 828.69,-231.05 843.26,-216.89"/>
<polygon fill="midnightblue" stroke="midnightblue" points="846.07,-219.04 850.78,-209.55 841.18,-214.03 846.07,-219.04"/>
</g>
<!-- Node33 -->
<g id="node33" class="node">
<title>Node33</title>
<g id="a_node33"><a xlink:href="ssl__utils_8h.html" target="_top" xlink:title=" ">
<polygon fill="white" stroke="black" points="687.5,-246.5 687.5,-265.5 748.5,-265.5 748.5,-246.5 687.5,-246.5"/>
<text text-anchor="middle" x="718" y="-253.5" font-family="Helvetica,sans-Serif" font-size="10.00">ssl_utils.h</text>
</a>
</g>
</g>
<!-- Node18&#45;&gt;Node33 -->
<g id="edge50" class="edge">
<title>Node18&#45;&gt;Node33</title>
<path fill="none" stroke="midnightblue" d="M729.14,-307.98C727.28,-299.49 724.38,-286.2 722,-275.32"/>
<polygon fill="midnightblue" stroke="midnightblue" points="725.41,-274.53 719.86,-265.51 718.57,-276.03 725.41,-274.53"/>
</g>
<!-- Node20 -->
<g id="node20" class="node">
<title>Node20</title>
<g id="a_node20"><a xlink:href="_socket_connection_8h.html" target="_top" xlink:title=" ">
<polygon fill="white" stroke="black" points="171,-179.5 171,-209.5 279,-209.5 279,-179.5 171,-179.5"/>
<text text-anchor="start" x="179" y="-197.5" font-family="Helvetica,sans-Serif" font-size="10.00">socket/sock_stream</text>
<text text-anchor="middle" x="225" y="-186.5" font-family="Helvetica,sans-Serif" font-size="10.00">/SocketConnection.h</text>
</a>
</g>
</g>
<!-- Node19&#45;&gt;Node20 -->
<g id="edge22" class="edge">
<title>Node19&#45;&gt;Node20</title>
<path fill="none" stroke="midnightblue" d="M512,-246.48C453.44,-236.07 354.22,-218.45 289.15,-206.89"/>
<polygon fill="midnightblue" stroke="midnightblue" points="289.47,-203.4 279.01,-205.09 288.25,-210.29 289.47,-203.4"/>
</g>
<!-- Node23 -->
<g id="node23" class="node">
<title>Node23</title>
<g id="a_node23"><a xlink:href="tls_2_socket_reader_8h.html" target="_top" xlink:title=" ">
<polygon fill="white" stroke="black" points="571.5,-179.5 571.5,-209.5 676.5,-209.5 676.5,-179.5 571.5,-179.5"/>
<text text-anchor="start" x="579.5" y="-197.5" font-family="Helvetica,sans-Serif" font-size="10.00">socket/sock_stream</text>
<text text-anchor="middle" x="624" y="-186.5" font-family="Helvetica,sans-Serif" font-size="10.00">/tls/SocketReader.h</text>
</a>
</g>
</g>
<!-- Node19&#45;&gt;Node23 -->
<g id="edge25" class="edge">
<title>Node19&#45;&gt;Node23</title>
<path fill="none" stroke="midnightblue" d="M569.17,-246.48C577.59,-238.64 590.42,-226.71 601.56,-216.37"/>
<polygon fill="midnightblue" stroke="midnightblue" points="603.98,-218.9 608.92,-209.52 599.21,-213.77 603.98,-218.9"/>
</g>
<!-- Node29 -->
<g id="node29" class="node">
<title>Node29</title>
<g id="a_node29"><a xlink:href="tls_2_socket_writer_8h.html" target="_top" xlink:title=" ">
<polygon fill="white" stroke="black" points="448.5,-179.5 448.5,-209.5 553.5,-209.5 553.5,-179.5 448.5,-179.5"/>
<text text-anchor="start" x="456.5" y="-197.5" font-family="Helvetica,sans-Serif" font-size="10.00">socket/sock_stream</text>
<text text-anchor="middle" x="501" y="-186.5" font-family="Helvetica,sans-Serif" font-size="10.00">/tls/SocketWriter.h</text>
</a>
</g>
</g>
<!-- Node19&#45;&gt;Node29 -->
<g id="edge37" class="edge">
<title>Node19&#45;&gt;Node29</title>
<path fill="none" stroke="midnightblue" d="M551.55,-246.48C543.85,-238.72 532.18,-226.94 521.99,-216.66"/>
<polygon fill="midnightblue" stroke="midnightblue" points="524.43,-214.16 514.91,-209.52 519.46,-219.09 524.43,-214.16"/>
</g>
<!-- Node21 -->
<g id="node21" class="node">
<title>Node21</title>
<g id="a_node21"><a xlink:href="_socket_connection_base_8h.html" target="_top" xlink:title=" ">
<polygon fill="white" stroke="black" points="152,-118 152,-137 280,-137 280,-118 152,-118"/>
<text text-anchor="middle" x="216" y="-125" font-family="Helvetica,sans-Serif" font-size="10.00">SocketConnectionBase.h</text>
</a>
</g>
</g>
<!-- Node20&#45;&gt;Node21 -->
<g id="edge23" class="edge">
<title>Node20&#45;&gt;Node21</title>
<path fill="none" stroke="midnightblue" d="M223.05,-179.4C221.74,-169.96 220.01,-157.45 218.59,-147.19"/>
<polygon fill="midnightblue" stroke="midnightblue" points="222.04,-146.62 217.2,-137.19 215.11,-147.58 222.04,-146.62"/>
</g>
<!-- Node22 -->
<g id="node22" class="node">
<title>Node22</title>
<g id="a_node22"><a xlink:href="_attribute_injector_8h.html" target="_top" xlink:title=" ">
<polygon fill="white" stroke="black" points="169.5,-56.5 169.5,-75.5 262.5,-75.5 262.5,-56.5 169.5,-56.5"/>
<text text-anchor="middle" x="216" y="-63.5" font-family="Helvetica,sans-Serif" font-size="10.00">AttributeInjector.h</text>
</a>
</g>
</g>
<!-- Node21&#45;&gt;Node22 -->
<g id="edge24" class="edge">
<title>Node21&#45;&gt;Node22</title>
<path fill="none" stroke="midnightblue" d="M216,-117.98C216,-109.58 216,-96.48 216,-85.66"/>
<polygon fill="midnightblue" stroke="midnightblue" points="219.5,-85.51 216,-75.51 212.5,-85.51 219.5,-85.51"/>
</g>
<!-- Node23&#45;&gt;Node9 -->
<g id="edge27" class="edge">
<title>Node23&#45;&gt;Node9</title>
<path fill="none" stroke="midnightblue" d="M571.28,-180.97C568.14,-180.29 565.03,-179.62 562,-179 472.68,-160.61 447.53,-168.6 360,-143 357.71,-142.33 355.37,-141.56 353.03,-140.73"/>
<polygon fill="midnightblue" stroke="midnightblue" points="354.21,-137.43 343.62,-137.09 351.69,-143.96 354.21,-137.43"/>
</g>
<!-- Node23&#45;&gt;Node13 -->
<g id="edge26" class="edge">
<title>Node23&#45;&gt;Node13</title>
<path fill="none" stroke="midnightblue" d="M676.86,-192.84C722.5,-189.66 787.86,-178.54 832,-143 850,-128.5 859.86,-103.08 864.78,-85.66"/>
<polygon fill="midnightblue" stroke="midnightblue" points="868.27,-86.11 867.33,-75.56 861.49,-84.4 868.27,-86.11"/>
</g>
<!-- Node23&#45;&gt;Node24 -->
<g id="edge28" class="edge">
<title>Node23&#45;&gt;Node24</title>
<path fill="none" stroke="midnightblue" d="M657.2,-179.4C684.16,-167.94 721.83,-151.94 747.69,-140.95"/>
<polygon fill="midnightblue" stroke="midnightblue" points="749.14,-144.14 756.98,-137.01 746.4,-137.7 749.14,-144.14"/>
</g>
<!-- Node27 -->
<g id="node27" class="node">
<title>Node27</title>
<g id="a_node27"><a xlink:href="_write_event_receiver_8h.html" target="_top" xlink:title=" ">
<polygon fill="white" stroke="black" points="502.5,-56.5 502.5,-75.5 613.5,-75.5 613.5,-56.5 502.5,-56.5"/>
<text text-anchor="middle" x="558" y="-63.5" font-family="Helvetica,sans-Serif" font-size="10.00">WriteEventReceiver.h</text>
</a>
</g>
</g>
<!-- Node23&#45;&gt;Node27 -->
<g id="edge34" class="edge">
<title>Node23&#45;&gt;Node27</title>
<path fill="none" stroke="midnightblue" d="M596.44,-179.37C582.88,-170.83 567.8,-158.56 560,-143 551.05,-125.15 551.98,-101.86 554.24,-85.79"/>
<polygon fill="midnightblue" stroke="midnightblue" points="557.76,-85.99 556,-75.54 550.86,-84.81 557.76,-85.99"/>
</g>
<!-- Node28 -->
<g id="node28" class="node">
<title>Node28</title>
<g id="a_node28"><a xlink:href="_socket_reader_8h.html" target="_top" xlink:title=" ">
<polygon fill="white" stroke="black" points="569.5,-112.5 569.5,-142.5 674.5,-142.5 674.5,-112.5 569.5,-112.5"/>
<text text-anchor="start" x="577.5" y="-130.5" font-family="Helvetica,sans-Serif" font-size="10.00">socket/sock_stream</text>
<text text-anchor="middle" x="622" y="-119.5" font-family="Helvetica,sans-Serif" font-size="10.00">/SocketReader.h</text>
</a>
</g>
</g>
<!-- Node23&#45;&gt;Node28 -->
<g id="edge35" class="edge">
<title>Node23&#45;&gt;Node28</title>
<path fill="none" stroke="midnightblue" d="M623.57,-179.4C623.33,-171.64 623.02,-161.81 622.75,-152.86"/>
<polygon fill="midnightblue" stroke="midnightblue" points="626.24,-152.46 622.43,-142.58 619.24,-152.68 626.24,-152.46"/>
</g>
<!-- Node24&#45;&gt;Node13 -->
<g id="edge29" class="edge">
<title>Node24&#45;&gt;Node13</title>
<path fill="none" stroke="midnightblue" d="M790.18,-117.98C805.07,-108.34 829.54,-92.52 847.27,-81.05"/>
<polygon fill="midnightblue" stroke="midnightblue" points="849.35,-83.88 855.84,-75.51 845.55,-78 849.35,-83.88"/>
</g>
<!-- Node25 -->
<g id="node25" class="node">
<title>Node25</title>
<g id="a_node25"><a xlink:href="_read_event_receiver_8h.html" target="_top" xlink:title=" ">
<polygon fill="white" stroke="black" points="667,-56.5 667,-75.5 779,-75.5 779,-56.5 667,-56.5"/>
<text text-anchor="middle" x="723" y="-63.5" font-family="Helvetica,sans-Serif" font-size="10.00">ReadEventReceiver.h</text>
</a>
</g>
</g>
<!-- Node24&#45;&gt;Node25 -->
<g id="edge30" class="edge">
<title>Node24&#45;&gt;Node25</title>
<path fill="none" stroke="midnightblue" d="M769.26,-117.98C761,-108.87 747.72,-94.24 737.51,-82.98"/>
<polygon fill="midnightblue" stroke="midnightblue" points="740.03,-80.56 730.72,-75.51 734.85,-85.27 740.03,-80.56"/>
</g>
<!-- Node24&#45;&gt;Node27 -->
<g id="edge32" class="edge">
<title>Node24&#45;&gt;Node27</title>
<path fill="none" stroke="midnightblue" d="M745.62,-117.98C707.08,-107.5 641.59,-89.71 599.08,-78.16"/>
<polygon fill="midnightblue" stroke="midnightblue" points="599.89,-74.75 589.32,-75.51 598.05,-81.51 599.89,-74.75"/>
</g>
<!-- Node26 -->
<g id="node26" class="node">
<title>Node26</title>
<g id="a_node26"><a xlink:href="_event_receiver_8h.html" target="_top" xlink:title=" ">
<polygon fill="white" stroke="black" points="678.5,-0.5 678.5,-19.5 767.5,-19.5 767.5,-0.5 678.5,-0.5"/>
<text text-anchor="middle" x="723" y="-7.5" font-family="Helvetica,sans-Serif" font-size="10.00">EventReceiver.h</text>
</a>
</g>
</g>
<!-- Node25&#45;&gt;Node26 -->
<g id="edge31" class="edge">
<title>Node25&#45;&gt;Node26</title>
<path fill="none" stroke="midnightblue" d="M723,-56.08C723,-49.01 723,-38.86 723,-29.99"/>
<polygon fill="midnightblue" stroke="midnightblue" points="726.5,-29.75 723,-19.75 719.5,-29.75 726.5,-29.75"/>
</g>
<!-- Node27&#45;&gt;Node26 -->
<g id="edge33" class="edge">
<title>Node27&#45;&gt;Node26</title>
<path fill="none" stroke="midnightblue" d="M584.14,-56.44C612.02,-47.32 656.35,-32.81 687.4,-22.65"/>
<polygon fill="midnightblue" stroke="midnightblue" points="688.56,-25.95 696.98,-19.52 686.38,-19.3 688.56,-25.95"/>
</g>
<!-- Node28&#45;&gt;Node25 -->
<g id="edge36" class="edge">
<title>Node28&#45;&gt;Node25</title>
<path fill="none" stroke="midnightblue" d="M645.94,-112.4C662.13,-102.86 683.41,-90.32 699.5,-80.84"/>
<polygon fill="midnightblue" stroke="midnightblue" points="701.46,-83.75 708.3,-75.66 697.91,-77.72 701.46,-83.75"/>
</g>
<!-- Node29&#45;&gt;Node9 -->
<g id="edge39" class="edge">
<title>Node29&#45;&gt;Node9</title>
<path fill="none" stroke="midnightblue" d="M460.08,-179.44C431.83,-169.59 393.48,-155.92 360,-143 358.35,-142.37 356.67,-141.7 354.97,-141.03"/>
<polygon fill="midnightblue" stroke="midnightblue" points="355.87,-137.62 345.29,-137.1 353.24,-144.1 355.87,-137.62"/>
</g>
<!-- Node29&#45;&gt;Node13 -->
<g id="edge38" class="edge">
<title>Node29&#45;&gt;Node13</title>
<path fill="none" stroke="midnightblue" d="M553.96,-180.07C603.73,-167.26 672.29,-149.05 684,-143 703.37,-133 702.78,-122.27 722,-112 754.36,-94.71 794.35,-83.01 824.45,-75.89"/>
<polygon fill="midnightblue" stroke="midnightblue" points="825.28,-79.29 834.25,-73.65 823.72,-72.47 825.28,-79.29"/>
</g>
<!-- Node29&#45;&gt;Node24 -->
<g id="edge41" class="edge">
<title>Node29&#45;&gt;Node24</title>
<path fill="none" stroke="midnightblue" d="M553.57,-180.99C556.42,-180.31 559.24,-179.65 562,-179 630.85,-162.82 648.18,-159.31 717,-143 721.77,-141.87 726.75,-140.68 731.71,-139.49"/>
<polygon fill="midnightblue" stroke="midnightblue" points="732.89,-142.81 741.8,-137.06 731.25,-136 732.89,-142.81"/>
</g>
<!-- Node29&#45;&gt;Node25 -->
<g id="edge40" class="edge">
<title>Node29&#45;&gt;Node25</title>
<path fill="none" stroke="midnightblue" d="M507.44,-179.42C516.54,-161.12 534.89,-129.43 560,-112 588.51,-92.21 625.44,-81.1 656.94,-74.88"/>
<polygon fill="midnightblue" stroke="midnightblue" points="657.77,-78.29 666.96,-73.02 656.49,-71.4 657.77,-78.29"/>
</g>
<!-- Node30 -->
<g id="node30" class="node">
<title>Node30</title>
<g id="a_node30"><a xlink:href="_socket_writer_8h.html" target="_top" xlink:title=" ">
<polygon fill="white" stroke="black" points="369.5,-112.5 369.5,-142.5 474.5,-142.5 474.5,-112.5 369.5,-112.5"/>
<text text-anchor="start" x="377.5" y="-130.5" font-family="Helvetica,sans-Serif" font-size="10.00">socket/sock_stream</text>
<text text-anchor="middle" x="422" y="-119.5" font-family="Helvetica,sans-Serif" font-size="10.00">/SocketWriter.h</text>
</a>
</g>
</g>
<!-- Node29&#45;&gt;Node30 -->
<g id="edge42" class="edge">
<title>Node29&#45;&gt;Node30</title>
<path fill="none" stroke="midnightblue" d="M483.86,-179.4C473.09,-170.54 459.02,-158.96 447.02,-149.09"/>
<polygon fill="midnightblue" stroke="midnightblue" points="449.05,-146.23 439.11,-142.58 444.61,-151.63 449.05,-146.23"/>
</g>
<!-- Node30&#45;&gt;Node27 -->
<g id="edge43" class="edge">
<title>Node30&#45;&gt;Node27</title>
<path fill="none" stroke="midnightblue" d="M454.23,-112.4C476.84,-102.51 506.84,-89.38 528.76,-79.79"/>
<polygon fill="midnightblue" stroke="midnightblue" points="530.45,-82.87 538.21,-75.66 527.65,-76.46 530.45,-82.87"/>
</g>
<!-- Node31&#45;&gt;Node14 -->
<g id="edge49" class="edge">
<title>Node31&#45;&gt;Node14</title>
<path fill="none" stroke="midnightblue" d="M902.32,-179.4C932.9,-167.84 975.73,-151.66 1004.82,-140.66"/>
<polygon fill="midnightblue" stroke="midnightblue" points="1006.37,-143.82 1014.49,-137.01 1003.9,-137.27 1006.37,-143.82"/>
</g>
<!-- Node31&#45;&gt;Node25 -->
<g id="edge48" class="edge">
<title>Node31&#45;&gt;Node25</title>
<path fill="none" stroke="midnightblue" d="M862.71,-179.26C859.14,-161.37 850.61,-130.74 832,-112 816.13,-96.02 793.77,-85.47 773.43,-78.62"/>
<polygon fill="midnightblue" stroke="midnightblue" points="774.24,-75.21 763.65,-75.56 772.14,-81.89 774.24,-75.21"/>
</g>
<!-- Node32 -->
<g id="node32" class="node">
<title>Node32</title>
<g id="a_node32"><a xlink:href="_connect_event_receiver_8h.html" target="_top" xlink:title=" ">
<polygon fill="white" stroke="black" points="921.5,-56.5 921.5,-75.5 1046.5,-75.5 1046.5,-56.5 921.5,-56.5"/>
<text text-anchor="middle" x="984" y="-63.5" font-family="Helvetica,sans-Serif" font-size="10.00">ConnectEventReceiver.h</text>
</a>
</g>
</g>
<!-- Node31&#45;&gt;Node32 -->
<g id="edge46" class="edge">
<title>Node31&#45;&gt;Node32</title>
<path fill="none" stroke="midnightblue" d="M878.19,-179.48C900.37,-155.9 945.03,-108.43 968.61,-83.36"/>
<polygon fill="midnightblue" stroke="midnightblue" points="971.43,-85.47 975.73,-75.79 966.33,-80.67 971.43,-85.47"/>
</g>
<!-- Node32&#45;&gt;Node26 -->
<g id="edge47" class="edge">
<title>Node32&#45;&gt;Node26</title>
<path fill="none" stroke="midnightblue" d="M942.64,-56.44C896.92,-46.98 823.24,-31.74 773.98,-21.55"/>
<polygon fill="midnightblue" stroke="midnightblue" points="774.66,-18.12 764.16,-19.52 773.25,-24.97 774.66,-18.12"/>
</g>
<!-- Node34&#45;&gt;Node31 -->
<g id="edge52" class="edge">
<title>Node34&#45;&gt;Node31</title>
<path fill="none" stroke="midnightblue" d="M865,-302.14C865,-281.86 865,-244.53 865,-219.86"/>
<polygon fill="midnightblue" stroke="midnightblue" points="868.5,-219.84 865,-209.84 861.5,-219.84 868.5,-219.84"/>
</g>
<!-- Node35&#45;&gt;Node11 -->
<g id="edge54" class="edge">
<title>Node35&#45;&gt;Node11</title>
<path fill="none" stroke="midnightblue" d="M1044,-436.4C1044,-427.06 1044,-414.71 1044,-404.52"/>
<polygon fill="midnightblue" stroke="midnightblue" points="1047.5,-404.19 1044,-394.19 1040.5,-404.19 1047.5,-404.19"/>
</g>
<!-- Node35&#45;&gt;Node17 -->
<g id="edge60" class="edge">
<title>Node35&#45;&gt;Node17</title>
<path fill="none" stroke="midnightblue" d="M1005.16,-436.4C978.18,-426.6 942.06,-413.48 913.23,-403.02"/>
<polygon fill="midnightblue" stroke="midnightblue" points="914.36,-399.7 903.76,-399.58 911.97,-406.28 914.36,-399.7"/>
</g>
<!-- Node36 -->
<g id="node36" class="node">
<title>Node36</title>
<g id="a_node36"><a xlink:href="ip_2tcp_2ipv6_2_socket_8h.html" target="_top" xlink:title=" ">
<polygon fill="white" stroke="black" points="1117,-179.5 1117,-209.5 1211,-209.5 1211,-179.5 1117,-179.5"/>
<text text-anchor="start" x="1125" y="-197.5" font-family="Helvetica,sans-Serif" font-size="10.00">socket/ip/tcp/ipv6</text>
<text text-anchor="middle" x="1164" y="-186.5" font-family="Helvetica,sans-Serif" font-size="10.00">/Socket.h</text>
</a>
</g>
</g>
<!-- Node35&#45;&gt;Node36 -->
<g id="edge55" class="edge">
<title>Node35&#45;&gt;Node36</title>
<path fill="none" stroke="midnightblue" d="M1078.26,-436.33C1094.22,-428.02 1112.06,-415.99 1123,-400 1161.3,-344.01 1165.5,-260.46 1165,-219.67"/>
<polygon fill="midnightblue" stroke="midnightblue" points="1168.5,-219.49 1164.77,-209.58 1161.5,-219.66 1168.5,-219.49"/>
</g>
<!-- Node36&#45;&gt;Node13 -->
<g id="edge56" class="edge">
<title>Node36&#45;&gt;Node13</title>
<path fill="none" stroke="midnightblue" d="M1186.61,-179.3C1210.63,-162.5 1242.63,-134.05 1223,-112 1178.77,-62.33 997.26,-84.9 913.7,-75.72"/>
<polygon fill="midnightblue" stroke="midnightblue" points="913.91,-72.21 903.54,-74.36 912.98,-79.15 913.91,-72.21"/>
</g>
<!-- Node36&#45;&gt;Node14 -->
<g id="edge57" class="edge">
<title>Node36&#45;&gt;Node14</title>
<path fill="none" stroke="midnightblue" d="M1136.44,-179.4C1114.55,-168.19 1084.17,-152.64 1062.76,-141.69"/>
<polygon fill="midnightblue" stroke="midnightblue" points="1064.12,-138.45 1053.62,-137.01 1060.93,-144.68 1064.12,-138.45"/>
</g>
<!-- Node37 -->
<g id="node37" class="node">
<title>Node37</title>
<g id="a_node37"><a xlink:href="ipv6_2_inet_address_8h.html" target="_top" xlink:title=" ">
<polygon fill="white" stroke="black" points="1270.5,-112.5 1270.5,-142.5 1385.5,-142.5 1385.5,-112.5 1270.5,-112.5"/>
<text text-anchor="start" x="1278.5" y="-130.5" font-family="Helvetica,sans-Serif" font-size="10.00">socket/ip/address/ipv6</text>
<text text-anchor="middle" x="1328" y="-119.5" font-family="Helvetica,sans-Serif" font-size="10.00">/InetAddress.h</text>
</a>
</g>
</g>
<!-- Node36&#45;&gt;Node37 -->
<g id="edge58" class="edge">
<title>Node36&#45;&gt;Node37</title>
<path fill="none" stroke="midnightblue" d="M1199.59,-179.4C1224.09,-169.69 1256.83,-156.71 1283.12,-146.29"/>
<polygon fill="midnightblue" stroke="midnightblue" points="1284.48,-149.51 1292.48,-142.58 1281.9,-143.01 1284.48,-149.51"/>
</g>
<!-- Node37&#45;&gt;Node15 -->
<g id="edge59" class="edge">
<title>Node37&#45;&gt;Node15</title>
<path fill="none" stroke="midnightblue" d="M1287.24,-112.4C1257.78,-102.21 1218.41,-88.59 1190.5,-78.93"/>
<polygon fill="midnightblue" stroke="midnightblue" points="1191.37,-75.53 1180.78,-75.57 1189.08,-82.15 1191.37,-75.53"/>
</g>
</g>
</svg>
