<?xml version="1.0" encoding="UTF-8" standalone="no"?>
<!DOCTYPE svg PUBLIC "-//W3C//DTD SVG 1.1//EN"
 "http://www.w3.org/Graphics/SVG/1.1/DTD/svg11.dtd">
<!-- Generated by graphviz version 2.43.0 (0)
 -->
<!-- Title: express/tls/WebApp.h Pages: 1 -->
<svg width="1853pt" height="609pt"
 viewBox="0.00 0.00 1853.00 609.00" xmlns="http://www.w3.org/2000/svg" xmlns:xlink="http://www.w3.org/1999/xlink">
<g id="graph0" class="graph" transform="scale(1 1) rotate(0) translate(4 605)">
<title>express/tls/WebApp.h</title>
<polygon fill="white" stroke="transparent" points="-4,4 -4,-605 1849,-605 1849,4 -4,4"/>
<!-- Node1 -->
<g id="node1" class="node">
<title>Node1</title>
<g id="a_node1"><a xlink:title=" ">
<polygon fill="#bfbfbf" stroke="black" points="535.5,-581.5 535.5,-600.5 648.5,-600.5 648.5,-581.5 535.5,-581.5"/>
<text text-anchor="middle" x="592" y="-588.5" font-family="Helvetica,sans-Serif" font-size="10.00">express/tls/WebApp.h</text>
</a>
</g>
</g>
<!-- Node2 -->
<g id="node2" class="node">
<title>Node2</title>
<g id="a_node2"><a xlink:href="_web_app_t_8h.html" target="_top" xlink:title=" ">
<polygon fill="white" stroke="black" points="376,-520 376,-539 480,-539 480,-520 376,-520"/>
<text text-anchor="middle" x="428" y="-527" font-family="Helvetica,sans-Serif" font-size="10.00">express/WebAppT.h</text>
</a>
</g>
</g>
<!-- Node1&#45;&gt;Node2 -->
<g id="edge1" class="edge">
<title>Node1&#45;&gt;Node2</title>
<path fill="none" stroke="midnightblue" d="M568.5,-581.48C540.37,-571.27 493.07,-554.11 461.21,-542.55"/>
<polygon fill="midnightblue" stroke="midnightblue" points="462.05,-539.13 451.45,-539.01 459.66,-545.71 462.05,-539.13"/>
</g>
<!-- Node13 -->
<g id="node13" class="node">
<title>Node13</title>
<g id="a_node13"><a xlink:href="tls_2_server_8h.html" target="_top" xlink:title=" ">
<polygon fill="white" stroke="black" points="938,-514.5 938,-544.5 1036,-544.5 1036,-514.5 938,-514.5"/>
<text text-anchor="start" x="946" y="-532.5" font-family="Helvetica,sans-Serif" font-size="10.00">web/http/server/tls</text>
<text text-anchor="middle" x="987" y="-521.5" font-family="Helvetica,sans-Serif" font-size="10.00">/Server.h</text>
</a>
</g>
</g>
<!-- Node1&#45;&gt;Node13 -->
<g id="edge13" class="edge">
<title>Node1&#45;&gt;Node13</title>
<path fill="none" stroke="midnightblue" d="M648.59,-581.48C722.76,-570.3 852.22,-550.8 927.7,-539.43"/>
<polygon fill="midnightblue" stroke="midnightblue" points="928.62,-542.83 937.98,-537.88 927.57,-535.91 928.62,-542.83"/>
</g>
<!-- Node3 -->
<g id="node3" class="node">
<title>Node3</title>
<g id="a_node3"><a xlink:href="express_2_request_8h.html" target="_top" xlink:title=" ">
<polygon fill="white" stroke="black" points="313.5,-453 313.5,-472 412.5,-472 412.5,-453 313.5,-453"/>
<text text-anchor="middle" x="363" y="-460" font-family="Helvetica,sans-Serif" font-size="10.00">express/Request.h</text>
</a>
</g>
</g>
<!-- Node2&#45;&gt;Node3 -->
<g id="edge2" class="edge">
<title>Node2&#45;&gt;Node3</title>
<path fill="none" stroke="midnightblue" d="M419.23,-519.73C408.9,-509.4 391.54,-492.04 378.83,-479.33"/>
<polygon fill="midnightblue" stroke="midnightblue" points="381.17,-476.72 371.63,-472.13 376.22,-481.67 381.17,-476.72"/>
</g>
<!-- Node7 -->
<g id="node7" class="node">
<title>Node7</title>
<g id="a_node7"><a xlink:href="express_2_response_8h.html" target="_top" xlink:title=" ">
<polygon fill="white" stroke="black" points="165.5,-453 165.5,-472 272.5,-472 272.5,-453 165.5,-453"/>
<text text-anchor="middle" x="219" y="-460" font-family="Helvetica,sans-Serif" font-size="10.00">express/Response.h</text>
</a>
</g>
</g>
<!-- Node2&#45;&gt;Node7 -->
<g id="edge6" class="edge">
<title>Node2&#45;&gt;Node7</title>
<path fill="none" stroke="midnightblue" d="M400.25,-519.87C363.21,-508.35 297.53,-487.92 256.22,-475.08"/>
<polygon fill="midnightblue" stroke="midnightblue" points="257.12,-471.69 246.54,-472.06 255.04,-478.38 257.12,-471.69"/>
</g>
<!-- Node11 -->
<g id="node11" class="node">
<title>Node11</title>
<g id="a_node11"><a xlink:href="_web_app_8h.html" target="_top" xlink:title=" ">
<polygon fill="white" stroke="black" points="436.5,-453 436.5,-472 535.5,-472 535.5,-453 436.5,-453"/>
<text text-anchor="middle" x="486" y="-460" font-family="Helvetica,sans-Serif" font-size="10.00">express/WebApp.h</text>
</a>
</g>
</g>
<!-- Node2&#45;&gt;Node11 -->
<g id="edge11" class="edge">
<title>Node2&#45;&gt;Node11</title>
<path fill="none" stroke="midnightblue" d="M435.82,-519.73C444.95,-509.5 460.24,-492.36 471.55,-479.69"/>
<polygon fill="midnightblue" stroke="midnightblue" points="474.26,-481.92 478.3,-472.13 469.03,-477.26 474.26,-481.92"/>
</g>
<!-- Node4 -->
<g id="node4" class="node">
<title>Node4</title>
<g id="a_node4"><a xlink:href="web_2http_2server_2_request_8h.html" target="_top" xlink:title=" ">
<polygon fill="white" stroke="black" points="293,-386 293,-405 425,-405 425,-386 293,-386"/>
<text text-anchor="middle" x="359" y="-393" font-family="Helvetica,sans-Serif" font-size="10.00">web/http/server/Request.h</text>
</a>
</g>
</g>
<!-- Node3&#45;&gt;Node4 -->
<g id="edge3" class="edge">
<title>Node3&#45;&gt;Node4</title>
<path fill="none" stroke="midnightblue" d="M362.46,-452.73C361.87,-443.18 360.91,-427.62 360.16,-415.28"/>
<polygon fill="midnightblue" stroke="midnightblue" points="363.64,-414.89 359.53,-405.13 356.65,-415.32 363.64,-414.89"/>
</g>
<!-- Node5 -->
<g id="node5" class="node">
<title>Node5</title>
<g id="a_node5"><a xlink:href="_attribute_injector_8h.html" target="_top" xlink:title=" ">
<polygon fill="white" stroke="black" points="248,-319 248,-338 362,-338 362,-319 248,-319"/>
<text text-anchor="middle" x="305" y="-326" font-family="Helvetica,sans-Serif" font-size="10.00">utils/AttributeInjector.h</text>
</a>
</g>
</g>
<!-- Node4&#45;&gt;Node5 -->
<g id="edge4" class="edge">
<title>Node4&#45;&gt;Node5</title>
<path fill="none" stroke="midnightblue" d="M351.72,-385.73C343.3,-375.6 329.25,-358.69 318.75,-346.06"/>
<polygon fill="midnightblue" stroke="midnightblue" points="321.25,-343.58 312.17,-338.13 315.87,-348.06 321.25,-343.58"/>
</g>
<!-- Node6 -->
<g id="node6" class="node">
<title>Node6</title>
<g id="a_node6"><a xlink:href="_connection_state_8h.html" target="_top" xlink:title=" ">
<polygon fill="white" stroke="black" points="380,-319 380,-338 518,-338 518,-319 380,-319"/>
<text text-anchor="middle" x="449" y="-326" font-family="Helvetica,sans-Serif" font-size="10.00">web/http/ConnectionState.h</text>
</a>
</g>
</g>
<!-- Node4&#45;&gt;Node6 -->
<g id="edge5" class="edge">
<title>Node4&#45;&gt;Node6</title>
<path fill="none" stroke="midnightblue" d="M371.14,-385.73C385.85,-375.11 410.86,-357.05 428.56,-344.26"/>
<polygon fill="midnightblue" stroke="midnightblue" points="431,-346.82 437.05,-338.13 426.9,-341.14 431,-346.82"/>
</g>
<!-- Node8 -->
<g id="node8" class="node">
<title>Node8</title>
<g id="a_node8"><a xlink:href="web_2http_2server_2_response_8h.html" target="_top" xlink:title=" ">
<polygon fill="white" stroke="black" points="100,-386 100,-405 240,-405 240,-386 100,-386"/>
<text text-anchor="middle" x="170" y="-393" font-family="Helvetica,sans-Serif" font-size="10.00">web/http/server/Response.h</text>
</a>
</g>
</g>
<!-- Node7&#45;&gt;Node8 -->
<g id="edge7" class="edge">
<title>Node7&#45;&gt;Node8</title>
<path fill="none" stroke="midnightblue" d="M212.39,-452.73C204.82,-442.7 192.25,-426.01 182.76,-413.42"/>
<polygon fill="midnightblue" stroke="midnightblue" points="185.32,-411.01 176.5,-405.13 179.73,-415.22 185.32,-411.01"/>
</g>
<!-- Node8&#45;&gt;Node6 -->
<g id="edge9" class="edge">
<title>Node8&#45;&gt;Node6</title>
<path fill="none" stroke="midnightblue" d="M206.76,-385.94C257.05,-374.22 347.3,-353.19 402.31,-340.38"/>
<polygon fill="midnightblue" stroke="midnightblue" points="403.21,-343.76 412.16,-338.08 401.62,-336.94 403.21,-343.76"/>
</g>
<!-- Node9 -->
<g id="node9" class="node">
<title>Node9</title>
<g id="a_node9"><a xlink:href="_sink_8h.html" target="_top" xlink:title=" ">
<polygon fill="white" stroke="black" points="0,-319 0,-338 82,-338 82,-319 0,-319"/>
<text text-anchor="middle" x="41" y="-326" font-family="Helvetica,sans-Serif" font-size="10.00">net/pipe/Sink.h</text>
</a>
</g>
</g>
<!-- Node8&#45;&gt;Node9 -->
<g id="edge8" class="edge">
<title>Node8&#45;&gt;Node9</title>
<path fill="none" stroke="midnightblue" d="M152.87,-385.87C130.99,-374.84 92.91,-355.66 67.33,-342.77"/>
<polygon fill="midnightblue" stroke="midnightblue" points="68.71,-339.54 58.2,-338.17 65.56,-345.79 68.71,-339.54"/>
</g>
<!-- Node10 -->
<g id="node10" class="node">
<title>Node10</title>
<g id="a_node10"><a xlink:href="_cookie_options_8h.html" target="_top" xlink:title=" ">
<polygon fill="white" stroke="black" points="100,-319 100,-338 230,-338 230,-319 100,-319"/>
<text text-anchor="middle" x="165" y="-326" font-family="Helvetica,sans-Serif" font-size="10.00">web/http/CookieOptions.h</text>
</a>
</g>
</g>
<!-- Node8&#45;&gt;Node10 -->
<g id="edge10" class="edge">
<title>Node8&#45;&gt;Node10</title>
<path fill="none" stroke="midnightblue" d="M169.33,-385.73C168.59,-376.18 167.39,-360.62 166.44,-348.28"/>
<polygon fill="midnightblue" stroke="midnightblue" points="169.92,-347.83 165.66,-338.13 162.94,-348.37 169.92,-347.83"/>
</g>
<!-- Node12 -->
<g id="node12" class="node">
<title>Node12</title>
<g id="a_node12"><a xlink:href="_router_8h.html" target="_top" xlink:title=" ">
<polygon fill="white" stroke="black" points="443.5,-386 443.5,-405 534.5,-405 534.5,-386 443.5,-386"/>
<text text-anchor="middle" x="489" y="-393" font-family="Helvetica,sans-Serif" font-size="10.00">express/Router.h</text>
</a>
</g>
</g>
<!-- Node11&#45;&gt;Node12 -->
<g id="edge12" class="edge">
<title>Node11&#45;&gt;Node12</title>
<path fill="none" stroke="midnightblue" d="M486.4,-452.73C486.85,-443.18 487.56,-427.62 488.13,-415.28"/>
<polygon fill="midnightblue" stroke="midnightblue" points="491.64,-415.28 488.6,-405.13 484.64,-414.96 491.64,-415.28"/>
</g>
<!-- Node14 -->
<g id="node14" class="node">
<title>Node14</title>
<g id="a_node14"><a xlink:href="ip_2tcp_2ipv4_2tls_2_socket_server_8h.html" target="_top" xlink:title=" ">
<polygon fill="white" stroke="black" points="1342,-447.5 1342,-477.5 1452,-477.5 1452,-447.5 1342,-447.5"/>
<text text-anchor="start" x="1350" y="-465.5" font-family="Helvetica,sans-Serif" font-size="10.00">net/socket/ip/tcp/ipv4</text>
<text text-anchor="middle" x="1397" y="-454.5" font-family="Helvetica,sans-Serif" font-size="10.00">/tls/SocketServer.h</text>
</a>
</g>
</g>
<!-- Node13&#45;&gt;Node14 -->
<g id="edge14" class="edge">
<title>Node13&#45;&gt;Node14</title>
<path fill="none" stroke="midnightblue" d="M1036.19,-522.55C1101.49,-514.37 1220.57,-498.53 1331.85,-478.13"/>
<polygon fill="midnightblue" stroke="midnightblue" points="1332.7,-481.53 1341.9,-476.27 1331.43,-474.65 1332.7,-481.53"/>
</g>
<!-- Node39 -->
<g id="node39" class="node">
<title>Node39</title>
<g id="a_node39"><a xlink:href="ip_2tcp_2ipv6_2tls_2_socket_server_8h.html" target="_top" xlink:title=" ">
<polygon fill="white" stroke="black" points="1214,-447.5 1214,-477.5 1324,-477.5 1324,-447.5 1214,-447.5"/>
<text text-anchor="start" x="1222" y="-465.5" font-family="Helvetica,sans-Serif" font-size="10.00">net/socket/ip/tcp/ipv6</text>
<text text-anchor="middle" x="1269" y="-454.5" font-family="Helvetica,sans-Serif" font-size="10.00">/tls/SocketServer.h</text>
</a>
</g>
</g>
<!-- Node13&#45;&gt;Node39 -->
<g id="edge46" class="edge">
<title>Node13&#45;&gt;Node39</title>
<path fill="none" stroke="midnightblue" d="M1036.12,-517.18C1082.57,-506.47 1152.59,-490.33 1203.72,-478.55"/>
<polygon fill="midnightblue" stroke="midnightblue" points="1204.73,-481.91 1213.69,-476.25 1203.15,-475.09 1204.73,-481.91"/>
</g>
<!-- Node42 -->
<g id="node42" class="node">
<title>Node42</title>
<g id="a_node42"><a xlink:href="_server_8h.html" target="_top" xlink:title=" ">
<polygon fill="white" stroke="black" points="783.5,-453 783.5,-472 906.5,-472 906.5,-453 783.5,-453"/>
<text text-anchor="middle" x="845" y="-460" font-family="Helvetica,sans-Serif" font-size="10.00">web/http/server/Server.h</text>
</a>
</g>
</g>
<!-- Node13&#45;&gt;Node42 -->
<g id="edge52" class="edge">
<title>Node13&#45;&gt;Node42</title>
<path fill="none" stroke="midnightblue" d="M956.19,-514.4C931.38,-503.04 896.82,-487.22 872.84,-476.24"/>
<polygon fill="midnightblue" stroke="midnightblue" points="874.13,-472.99 863.58,-472.01 871.22,-479.35 874.13,-472.99"/>
</g>
<!-- Node15 -->
<g id="node15" class="node">
<title>Node15</title>
<g id="a_node15"><a xlink:href="socket_2ip_2tcp_2ipv4_2_socket_8h.html" target="_top" xlink:title=" ">
<polygon fill="white" stroke="black" points="1613,-380.5 1613,-410.5 1723,-410.5 1723,-380.5 1613,-380.5"/>
<text text-anchor="start" x="1621" y="-398.5" font-family="Helvetica,sans-Serif" font-size="10.00">net/socket/ip/tcp/ipv4</text>
<text text-anchor="middle" x="1668" y="-387.5" font-family="Helvetica,sans-Serif" font-size="10.00">/Socket.h</text>
</a>
</g>
</g>
<!-- Node14&#45;&gt;Node15 -->
<g id="edge15" class="edge">
<title>Node14&#45;&gt;Node15</title>
<path fill="none" stroke="midnightblue" d="M1452.17,-448.27C1495.85,-437.79 1556.98,-423.13 1603.03,-412.08"/>
<polygon fill="midnightblue" stroke="midnightblue" points="1604,-415.45 1612.91,-409.71 1602.37,-408.64 1604,-415.45"/>
</g>
<!-- Node20 -->
<g id="node20" class="node">
<title>Node20</title>
<g id="a_node20"><a xlink:href="stream_2tls_2_socket_server_8h.html" target="_top" xlink:title=" ">
<polygon fill="white" stroke="black" points="1278.5,-380.5 1278.5,-410.5 1387.5,-410.5 1387.5,-380.5 1278.5,-380.5"/>
<text text-anchor="start" x="1286.5" y="-398.5" font-family="Helvetica,sans-Serif" font-size="10.00">net/socket/stream/tls</text>
<text text-anchor="middle" x="1333" y="-387.5" font-family="Helvetica,sans-Serif" font-size="10.00">/SocketServer.h</text>
</a>
</g>
</g>
<!-- Node14&#45;&gt;Node20 -->
<g id="edge20" class="edge">
<title>Node14&#45;&gt;Node20</title>
<path fill="none" stroke="midnightblue" d="M1383.11,-447.4C1374.64,-438.79 1363.65,-427.63 1354.11,-417.94"/>
<polygon fill="midnightblue" stroke="midnightblue" points="1356.37,-415.25 1346.86,-410.58 1351.38,-420.16 1356.37,-415.25"/>
</g>
<!-- Node16 -->
<g id="node16" class="node">
<title>Node16</title>
<g id="a_node16"><a xlink:href="socket_2_socket_8h.html" target="_top" xlink:title=" ">
<polygon fill="white" stroke="black" points="1741,-319 1741,-338 1845,-338 1845,-319 1741,-319"/>
<text text-anchor="middle" x="1793" y="-326" font-family="Helvetica,sans-Serif" font-size="10.00">net/socket/Socket.h</text>
</a>
</g>
</g>
<!-- Node15&#45;&gt;Node16 -->
<g id="edge16" class="edge">
<title>Node15&#45;&gt;Node16</title>
<path fill="none" stroke="midnightblue" d="M1695.12,-380.4C1716.67,-369.19 1746.57,-353.64 1767.64,-342.69"/>
<polygon fill="midnightblue" stroke="midnightblue" points="1769.38,-345.73 1776.64,-338.01 1766.15,-339.52 1769.38,-345.73"/>
</g>
<!-- Node18 -->
<g id="node18" class="node">
<title>Node18</title>
<g id="a_node18"><a xlink:href="ipv4_2_inet_address_8h.html" target="_top" xlink:title=" ">
<polygon fill="white" stroke="black" points="1613,-313.5 1613,-343.5 1723,-343.5 1723,-313.5 1613,-313.5"/>
<text text-anchor="start" x="1621" y="-331.5" font-family="Helvetica,sans-Serif" font-size="10.00">net/socket/ip/address</text>
<text text-anchor="middle" x="1668" y="-320.5" font-family="Helvetica,sans-Serif" font-size="10.00">/ipv4/InetAddress.h</text>
</a>
</g>
</g>
<!-- Node15&#45;&gt;Node18 -->
<g id="edge18" class="edge">
<title>Node15&#45;&gt;Node18</title>
<path fill="none" stroke="midnightblue" d="M1668,-380.4C1668,-372.64 1668,-362.81 1668,-353.86"/>
<polygon fill="midnightblue" stroke="midnightblue" points="1671.5,-353.58 1668,-343.58 1664.5,-353.58 1671.5,-353.58"/>
</g>
<!-- Node17 -->
<g id="node17" class="node">
<title>Node17</title>
<g id="a_node17"><a xlink:href="_descriptor_8h.html" target="_top" xlink:title=" ">
<polygon fill="white" stroke="black" points="1753,-252 1753,-271 1839,-271 1839,-252 1753,-252"/>
<text text-anchor="middle" x="1796" y="-259" font-family="Helvetica,sans-Serif" font-size="10.00">net/Descriptor.h</text>
</a>
</g>
</g>
<!-- Node16&#45;&gt;Node17 -->
<g id="edge17" class="edge">
<title>Node16&#45;&gt;Node17</title>
<path fill="none" stroke="midnightblue" d="M1793.4,-318.73C1793.85,-309.18 1794.56,-293.62 1795.13,-281.28"/>
<polygon fill="midnightblue" stroke="midnightblue" points="1798.64,-281.28 1795.6,-271.13 1791.64,-280.96 1798.64,-281.28"/>
</g>
<!-- Node19 -->
<g id="node19" class="node">
<title>Node19</title>
<g id="a_node19"><a xlink:href="_socket_address_8h.html" target="_top" xlink:title=" ">
<polygon fill="white" stroke="black" points="1595,-252 1595,-271 1735,-271 1735,-252 1595,-252"/>
<text text-anchor="middle" x="1665" y="-259" font-family="Helvetica,sans-Serif" font-size="10.00">net/socket/SocketAddress.h</text>
</a>
</g>
</g>
<!-- Node18&#45;&gt;Node19 -->
<g id="edge19" class="edge">
<title>Node18&#45;&gt;Node19</title>
<path fill="none" stroke="midnightblue" d="M1667.35,-313.4C1666.91,-303.96 1666.34,-291.45 1665.86,-281.19"/>
<polygon fill="midnightblue" stroke="midnightblue" points="1669.36,-281.02 1665.4,-271.19 1662.37,-281.35 1669.36,-281.02"/>
</g>
<!-- Node21 -->
<g id="node21" class="node">
<title>Node21</title>
<g id="a_node21"><a xlink:href="stream_2_socket_server_8h.html" target="_top" xlink:title=" ">
<polygon fill="white" stroke="black" points="1337.5,-313.5 1337.5,-343.5 1466.5,-343.5 1466.5,-313.5 1337.5,-313.5"/>
<text text-anchor="start" x="1345.5" y="-331.5" font-family="Helvetica,sans-Serif" font-size="10.00">net/socket/stream/Socket</text>
<text text-anchor="middle" x="1402" y="-320.5" font-family="Helvetica,sans-Serif" font-size="10.00">Server.h</text>
</a>
</g>
</g>
<!-- Node20&#45;&gt;Node21 -->
<g id="edge21" class="edge">
<title>Node20&#45;&gt;Node21</title>
<path fill="none" stroke="midnightblue" d="M1347.97,-380.4C1357.19,-371.71 1369.19,-360.4 1379.54,-350.66"/>
<polygon fill="midnightblue" stroke="midnightblue" points="1382.18,-352.98 1387.06,-343.58 1377.38,-347.89 1382.18,-352.98"/>
</g>
<!-- Node22 -->
<g id="node22" class="node">
<title>Node22</title>
<g id="a_node22"><a xlink:href="tls_2_socket_listener_8h.html" target="_top" xlink:title=" ">
<polygon fill="white" stroke="black" points="1210.5,-313.5 1210.5,-343.5 1319.5,-343.5 1319.5,-313.5 1210.5,-313.5"/>
<text text-anchor="start" x="1218.5" y="-331.5" font-family="Helvetica,sans-Serif" font-size="10.00">net/socket/stream/tls</text>
<text text-anchor="middle" x="1265" y="-320.5" font-family="Helvetica,sans-Serif" font-size="10.00">/SocketListener.h</text>
</a>
</g>
</g>
<!-- Node20&#45;&gt;Node22 -->
<g id="edge22" class="edge">
<title>Node20&#45;&gt;Node22</title>
<path fill="none" stroke="midnightblue" d="M1318.25,-380.4C1309.16,-371.71 1297.33,-360.4 1287.13,-350.66"/>
<polygon fill="midnightblue" stroke="midnightblue" points="1289.37,-347.96 1279.73,-343.58 1284.54,-353.02 1289.37,-347.96"/>
</g>
<!-- Node23 -->
<g id="node23" class="node">
<title>Node23</title>
<g id="a_node23"><a xlink:href="_socket_listener_8h.html" target="_top" xlink:title=" ">
<polygon fill="white" stroke="black" points="1447.5,-246.5 1447.5,-276.5 1576.5,-276.5 1576.5,-246.5 1447.5,-246.5"/>
<text text-anchor="start" x="1455.5" y="-264.5" font-family="Helvetica,sans-Serif" font-size="10.00">net/socket/stream/Socket</text>
<text text-anchor="middle" x="1512" y="-253.5" font-family="Helvetica,sans-Serif" font-size="10.00">Listener.h</text>
</a>
</g>
</g>
<!-- Node22&#45;&gt;Node23 -->
<g id="edge23" class="edge">
<title>Node22&#45;&gt;Node23</title>
<path fill="none" stroke="midnightblue" d="M1318.29,-313.48C1356.55,-303.41 1408.26,-289.8 1448.64,-279.17"/>
<polygon fill="midnightblue" stroke="midnightblue" points="1449.6,-282.54 1458.38,-276.61 1447.82,-275.77 1449.6,-282.54"/>
</g>
<!-- Node26 -->
<g id="node26" class="node">
<title>Node26</title>
<g id="a_node26"><a xlink:href="tls_2_socket_connection_8h.html" target="_top" xlink:title=" ">
<polygon fill="white" stroke="black" points="1180.5,-246.5 1180.5,-276.5 1289.5,-276.5 1289.5,-246.5 1180.5,-246.5"/>
<text text-anchor="start" x="1188.5" y="-264.5" font-family="Helvetica,sans-Serif" font-size="10.00">net/socket/stream/tls</text>
<text text-anchor="middle" x="1235" y="-253.5" font-family="Helvetica,sans-Serif" font-size="10.00">/SocketConnection.h</text>
</a>
</g>
</g>
<!-- Node22&#45;&gt;Node26 -->
<g id="edge26" class="edge">
<title>Node22&#45;&gt;Node26</title>
<path fill="none" stroke="midnightblue" d="M1258.49,-313.4C1254.76,-305.3 1249.97,-294.94 1245.7,-285.69"/>
<polygon fill="midnightblue" stroke="midnightblue" points="1248.87,-284.19 1241.5,-276.58 1242.51,-287.12 1248.87,-284.19"/>
</g>
<!-- Node36 -->
<g id="node36" class="node">
<title>Node36</title>
<g id="a_node36"><a xlink:href="ssl__utils_8h.html" target="_top" xlink:title=" ">
<polygon fill="white" stroke="black" points="1428.5,-112.5 1428.5,-142.5 1537.5,-142.5 1537.5,-112.5 1428.5,-112.5"/>
<text text-anchor="start" x="1436.5" y="-130.5" font-family="Helvetica,sans-Serif" font-size="10.00">net/socket/stream/tls</text>
<text text-anchor="middle" x="1483" y="-119.5" font-family="Helvetica,sans-Serif" font-size="10.00">/ssl_utils.h</text>
</a>
</g>
</g>
<!-- Node22&#45;&gt;Node36 -->
<g id="edge45" class="edge">
<title>Node22&#45;&gt;Node36</title>
<path fill="none" stroke="midnightblue" d="M1281.91,-313.35C1307.76,-291.58 1358.48,-248.39 1400,-210 1421.6,-190.03 1445.5,-166.39 1462.08,-149.73"/>
<polygon fill="midnightblue" stroke="midnightblue" points="1464.59,-152.17 1469.15,-142.61 1459.62,-147.24 1464.59,-152.17"/>
</g>
<!-- Node24 -->
<g id="node24" class="node">
<title>Node24</title>
<g id="a_node24"><a xlink:href="_accept_event_receiver_8h.html" target="_top" xlink:title=" ">
<polygon fill="white" stroke="black" points="1463,-56.5 1463,-75.5 1599,-75.5 1599,-56.5 1463,-56.5"/>
<text text-anchor="middle" x="1531" y="-63.5" font-family="Helvetica,sans-Serif" font-size="10.00">net/AcceptEventReceiver.h</text>
</a>
</g>
</g>
<!-- Node23&#45;&gt;Node24 -->
<g id="edge24" class="edge">
<title>Node23&#45;&gt;Node24</title>
<path fill="none" stroke="midnightblue" d="M1519.29,-246.28C1531.88,-219.98 1555.6,-161.86 1547,-112 1545.43,-102.91 1542.21,-93.22 1539.06,-85.17"/>
<polygon fill="midnightblue" stroke="midnightblue" points="1542.19,-83.6 1535.11,-75.72 1535.74,-86.3 1542.19,-83.6"/>
</g>
<!-- Node25 -->
<g id="node25" class="node">
<title>Node25</title>
<g id="a_node25"><a xlink:href="_event_receiver_8h.html" target="_top" xlink:title=" ">
<polygon fill="white" stroke="black" points="1293.5,-0.5 1293.5,-19.5 1398.5,-19.5 1398.5,-0.5 1293.5,-0.5"/>
<text text-anchor="middle" x="1346" y="-7.5" font-family="Helvetica,sans-Serif" font-size="10.00">net/EventReceiver.h</text>
</a>
</g>
</g>
<!-- Node24&#45;&gt;Node25 -->
<g id="edge25" class="edge">
<title>Node24&#45;&gt;Node25</title>
<path fill="none" stroke="midnightblue" d="M1501.69,-56.44C1470.16,-47.24 1419.87,-32.56 1385.01,-22.39"/>
<polygon fill="midnightblue" stroke="midnightblue" points="1385.76,-18.96 1375.18,-19.52 1383.8,-25.68 1385.76,-18.96"/>
</g>
<!-- Node27 -->
<g id="node27" class="node">
<title>Node27</title>
<g id="a_node27"><a xlink:href="_socket_connection_t_8h.html" target="_top" xlink:title=" ">
<polygon fill="white" stroke="black" points="896.5,-179.5 896.5,-209.5 1025.5,-209.5 1025.5,-179.5 896.5,-179.5"/>
<text text-anchor="start" x="904.5" y="-197.5" font-family="Helvetica,sans-Serif" font-size="10.00">net/socket/stream/Socket</text>
<text text-anchor="middle" x="961" y="-186.5" font-family="Helvetica,sans-Serif" font-size="10.00">ConnectionT.h</text>
</a>
</g>
</g>
<!-- Node26&#45;&gt;Node27 -->
<g id="edge27" class="edge">
<title>Node26&#45;&gt;Node27</title>
<path fill="none" stroke="midnightblue" d="M1180.21,-247.5C1137.14,-237.29 1076.88,-222.99 1030.43,-211.97"/>
<polygon fill="midnightblue" stroke="midnightblue" points="1030.98,-208.5 1020.44,-209.6 1029.37,-215.32 1030.98,-208.5"/>
</g>
<!-- Node31 -->
<g id="node31" class="node">
<title>Node31</title>
<g id="a_node31"><a xlink:href="tls_2_socket_reader_8h.html" target="_top" xlink:title=" ">
<polygon fill="white" stroke="black" points="1281.5,-179.5 1281.5,-209.5 1390.5,-209.5 1390.5,-179.5 1281.5,-179.5"/>
<text text-anchor="start" x="1289.5" y="-197.5" font-family="Helvetica,sans-Serif" font-size="10.00">net/socket/stream/tls</text>
<text text-anchor="middle" x="1336" y="-186.5" font-family="Helvetica,sans-Serif" font-size="10.00">/SocketReader.h</text>
</a>
</g>
</g>
<!-- Node26&#45;&gt;Node31 -->
<g id="edge31" class="edge">
<title>Node26&#45;&gt;Node31</title>
<path fill="none" stroke="midnightblue" d="M1256.92,-246.4C1271.08,-237.28 1289.71,-225.29 1305.33,-215.24"/>
<polygon fill="midnightblue" stroke="midnightblue" points="1307.61,-217.93 1314.13,-209.58 1303.82,-212.05 1307.61,-217.93"/>
</g>
<!-- Node37 -->
<g id="node37" class="node">
<title>Node37</title>
<g id="a_node37"><a xlink:href="tls_2_socket_writer_8h.html" target="_top" xlink:title=" ">
<polygon fill="white" stroke="black" points="1154.5,-179.5 1154.5,-209.5 1263.5,-209.5 1263.5,-179.5 1154.5,-179.5"/>
<text text-anchor="start" x="1162.5" y="-197.5" font-family="Helvetica,sans-Serif" font-size="10.00">net/socket/stream/tls</text>
<text text-anchor="middle" x="1209" y="-186.5" font-family="Helvetica,sans-Serif" font-size="10.00">/SocketWriter.h</text>
</a>
</g>
</g>
<!-- Node26&#45;&gt;Node37 -->
<g id="edge40" class="edge">
<title>Node26&#45;&gt;Node37</title>
<path fill="none" stroke="midnightblue" d="M1229.36,-246.4C1226.16,-238.39 1222.06,-228.16 1218.39,-218.98"/>
<polygon fill="midnightblue" stroke="midnightblue" points="1221.59,-217.56 1214.63,-209.58 1215.09,-220.16 1221.59,-217.56"/>
</g>
<!-- Node28 -->
<g id="node28" class="node">
<title>Node28</title>
<g id="a_node28"><a xlink:href="_socket_connection_8h.html" target="_top" xlink:title=" ">
<polygon fill="white" stroke="black" points="860.5,-112.5 860.5,-142.5 989.5,-142.5 989.5,-112.5 860.5,-112.5"/>
<text text-anchor="start" x="868.5" y="-130.5" font-family="Helvetica,sans-Serif" font-size="10.00">net/socket/stream/Socket</text>
<text text-anchor="middle" x="925" y="-119.5" font-family="Helvetica,sans-Serif" font-size="10.00">Connection.h</text>
</a>
</g>
</g>
<!-- Node27&#45;&gt;Node28 -->
<g id="edge28" class="edge">
<title>Node27&#45;&gt;Node28</title>
<path fill="none" stroke="midnightblue" d="M953.19,-179.4C948.66,-171.22 942.85,-160.73 937.68,-151.39"/>
<polygon fill="midnightblue" stroke="midnightblue" points="940.7,-149.63 932.8,-142.58 934.58,-153.02 940.7,-149.63"/>
</g>
<!-- Node29 -->
<g id="node29" class="node">
<title>Node29</title>
<g id="a_node29"><a xlink:href="net_2socket_2stream_2_socket_context_8h.html" target="_top" xlink:title=" ">
<polygon fill="white" stroke="black" points="548.5,-112.5 548.5,-142.5 677.5,-142.5 677.5,-112.5 548.5,-112.5"/>
<text text-anchor="start" x="556.5" y="-130.5" font-family="Helvetica,sans-Serif" font-size="10.00">net/socket/stream/Socket</text>
<text text-anchor="middle" x="613" y="-119.5" font-family="Helvetica,sans-Serif" font-size="10.00">Context.h</text>
</a>
</g>
</g>
<!-- Node27&#45;&gt;Node29 -->
<g id="edge29" class="edge">
<title>Node27&#45;&gt;Node29</title>
<path fill="none" stroke="midnightblue" d="M896.43,-180.8C893.24,-180.19 890.09,-179.59 887,-179 819.56,-166.18 742.69,-152.05 687.57,-142.01"/>
<polygon fill="midnightblue" stroke="midnightblue" points="688,-138.53 677.53,-140.18 686.75,-145.42 688,-138.53"/>
</g>
<!-- Node30 -->
<g id="node30" class="node">
<title>Node30</title>
<g id="a_node30"><a xlink:href="net_2socket_2stream_2_socket_context_factory_8h.html" target="_top" xlink:title=" ">
<polygon fill="white" stroke="black" points="713.5,-112.5 713.5,-142.5 842.5,-142.5 842.5,-112.5 713.5,-112.5"/>
<text text-anchor="start" x="721.5" y="-130.5" font-family="Helvetica,sans-Serif" font-size="10.00">net/socket/stream/Socket</text>
<text text-anchor="middle" x="778" y="-119.5" font-family="Helvetica,sans-Serif" font-size="10.00">ContextFactory.h</text>
</a>
</g>
</g>
<!-- Node27&#45;&gt;Node30 -->
<g id="edge30" class="edge">
<title>Node27&#45;&gt;Node30</title>
<path fill="none" stroke="midnightblue" d="M921.29,-179.4C893.71,-169.6 856.78,-156.48 827.31,-146.02"/>
<polygon fill="midnightblue" stroke="midnightblue" points="828.23,-142.63 817.63,-142.58 825.88,-149.22 828.23,-142.63"/>
</g>
<!-- Node32 -->
<g id="node32" class="node">
<title>Node32</title>
<g id="a_node32"><a xlink:href="_socket_reader_8h.html" target="_top" xlink:title=" ">
<polygon fill="white" stroke="black" points="1281.5,-112.5 1281.5,-142.5 1410.5,-142.5 1410.5,-112.5 1281.5,-112.5"/>
<text text-anchor="start" x="1289.5" y="-130.5" font-family="Helvetica,sans-Serif" font-size="10.00">net/socket/stream/Socket</text>
<text text-anchor="middle" x="1346" y="-119.5" font-family="Helvetica,sans-Serif" font-size="10.00">Reader.h</text>
</a>
</g>
</g>
<!-- Node31&#45;&gt;Node32 -->
<g id="edge32" class="edge">
<title>Node31&#45;&gt;Node32</title>
<path fill="none" stroke="midnightblue" d="M1338.17,-179.4C1339.38,-171.56 1340.91,-161.6 1342.3,-152.57"/>
<polygon fill="midnightblue" stroke="midnightblue" points="1345.77,-152.99 1343.83,-142.58 1338.85,-151.93 1345.77,-152.99"/>
</g>
<!-- Node34 -->
<g id="node34" class="node">
<title>Node34</title>
<g id="a_node34"><a xlink:href="_t_l_s_handshake_8h.html" target="_top" xlink:title=" ">
<polygon fill="white" stroke="black" points="1154.5,-112.5 1154.5,-142.5 1263.5,-142.5 1263.5,-112.5 1154.5,-112.5"/>
<text text-anchor="start" x="1162.5" y="-130.5" font-family="Helvetica,sans-Serif" font-size="10.00">net/socket/stream/tls</text>
<text text-anchor="middle" x="1209" y="-119.5" font-family="Helvetica,sans-Serif" font-size="10.00">/TLSHandshake.h</text>
</a>
</g>
</g>
<!-- Node31&#45;&gt;Node34 -->
<g id="edge35" class="edge">
<title>Node31&#45;&gt;Node34</title>
<path fill="none" stroke="midnightblue" d="M1308.44,-179.4C1290.05,-169.98 1265.67,-157.5 1245.65,-147.26"/>
<polygon fill="midnightblue" stroke="midnightblue" points="1247,-144.02 1236.5,-142.58 1243.81,-150.25 1247,-144.02"/>
</g>
<!-- Node31&#45;&gt;Node36 -->
<g id="edge39" class="edge">
<title>Node31&#45;&gt;Node36</title>
<path fill="none" stroke="midnightblue" d="M1367.9,-179.4C1389.57,-169.81 1418.43,-157.05 1441.84,-146.7"/>
<polygon fill="midnightblue" stroke="midnightblue" points="1443.44,-149.82 1451.17,-142.58 1440.6,-143.42 1443.44,-149.82"/>
</g>
<!-- Node33 -->
<g id="node33" class="node">
<title>Node33</title>
<g id="a_node33"><a xlink:href="_read_event_receiver_8h.html" target="_top" xlink:title=" ">
<polygon fill="white" stroke="black" points="1282,-56.5 1282,-75.5 1410,-75.5 1410,-56.5 1282,-56.5"/>
<text text-anchor="middle" x="1346" y="-63.5" font-family="Helvetica,sans-Serif" font-size="10.00">net/ReadEventReceiver.h</text>
</a>
</g>
</g>
<!-- Node32&#45;&gt;Node33 -->
<g id="edge33" class="edge">
<title>Node32&#45;&gt;Node33</title>
<path fill="none" stroke="midnightblue" d="M1346,-112.4C1346,-104.47 1346,-94.46 1346,-85.86"/>
<polygon fill="midnightblue" stroke="midnightblue" points="1349.5,-85.66 1346,-75.66 1342.5,-85.66 1349.5,-85.66"/>
</g>
<!-- Node33&#45;&gt;Node25 -->
<g id="edge34" class="edge">
<title>Node33&#45;&gt;Node25</title>
<path fill="none" stroke="midnightblue" d="M1346,-56.08C1346,-49.01 1346,-38.86 1346,-29.99"/>
<polygon fill="midnightblue" stroke="midnightblue" points="1349.5,-29.75 1346,-19.75 1342.5,-29.75 1349.5,-29.75"/>
</g>
<!-- Node34&#45;&gt;Node33 -->
<g id="edge36" class="edge">
<title>Node34&#45;&gt;Node33</title>
<path fill="none" stroke="midnightblue" d="M1241.47,-112.4C1264.35,-102.46 1294.73,-89.26 1316.84,-79.66"/>
<polygon fill="midnightblue" stroke="midnightblue" points="1318.29,-82.85 1326.07,-75.66 1315.5,-76.43 1318.29,-82.85"/>
</g>
<!-- Node35 -->
<g id="node35" class="node">
<title>Node35</title>
<g id="a_node35"><a xlink:href="_write_event_receiver_8h.html" target="_top" xlink:title=" ">
<polygon fill="white" stroke="black" points="1136,-56.5 1136,-75.5 1264,-75.5 1264,-56.5 1136,-56.5"/>
<text text-anchor="middle" x="1200" y="-63.5" font-family="Helvetica,sans-Serif" font-size="10.00">net/WriteEventReceiver.h</text>
</a>
</g>
</g>
<!-- Node34&#45;&gt;Node35 -->
<g id="edge37" class="edge">
<title>Node34&#45;&gt;Node35</title>
<path fill="none" stroke="midnightblue" d="M1206.87,-112.4C1205.65,-104.38 1204.12,-94.23 1202.81,-85.57"/>
<polygon fill="midnightblue" stroke="midnightblue" points="1206.27,-85.02 1201.31,-75.66 1199.34,-86.07 1206.27,-85.02"/>
</g>
<!-- Node35&#45;&gt;Node25 -->
<g id="edge38" class="edge">
<title>Node35&#45;&gt;Node25</title>
<path fill="none" stroke="midnightblue" d="M1223.13,-56.44C1247.48,-47.44 1286.01,-33.19 1313.42,-23.05"/>
<polygon fill="midnightblue" stroke="midnightblue" points="1314.81,-26.27 1322.97,-19.52 1312.38,-19.7 1314.81,-26.27"/>
</g>
<!-- Node37&#45;&gt;Node34 -->
<g id="edge43" class="edge">
<title>Node37&#45;&gt;Node34</title>
<path fill="none" stroke="midnightblue" d="M1209,-179.4C1209,-171.64 1209,-161.81 1209,-152.86"/>
<polygon fill="midnightblue" stroke="midnightblue" points="1212.5,-152.58 1209,-142.58 1205.5,-152.58 1212.5,-152.58"/>
</g>
<!-- Node37&#45;&gt;Node36 -->
<g id="edge44" class="edge">
<title>Node37&#45;&gt;Node36</title>
<path fill="none" stroke="midnightblue" d="M1263.79,-180.5C1308.4,-169.92 1371.48,-154.96 1418.52,-143.8"/>
<polygon fill="midnightblue" stroke="midnightblue" points="1419.38,-147.19 1428.31,-141.47 1417.77,-140.38 1419.38,-147.19"/>
</g>
<!-- Node38 -->
<g id="node38" class="node">
<title>Node38</title>
<g id="a_node38"><a xlink:href="_socket_writer_8h.html" target="_top" xlink:title=" ">
<polygon fill="white" stroke="black" points="1007.5,-112.5 1007.5,-142.5 1136.5,-142.5 1136.5,-112.5 1007.5,-112.5"/>
<text text-anchor="start" x="1015.5" y="-130.5" font-family="Helvetica,sans-Serif" font-size="10.00">net/socket/stream/Socket</text>
<text text-anchor="middle" x="1072" y="-119.5" font-family="Helvetica,sans-Serif" font-size="10.00">Writer.h</text>
</a>
</g>
</g>
<!-- Node37&#45;&gt;Node38 -->
<g id="edge41" class="edge">
<title>Node37&#45;&gt;Node38</title>
<path fill="none" stroke="midnightblue" d="M1179.27,-179.4C1159.26,-169.9 1132.65,-157.28 1110.95,-146.98"/>
<polygon fill="midnightblue" stroke="midnightblue" points="1112.2,-143.7 1101.67,-142.58 1109.2,-150.03 1112.2,-143.7"/>
</g>
<!-- Node38&#45;&gt;Node35 -->
<g id="edge42" class="edge">
<title>Node38&#45;&gt;Node35</title>
<path fill="none" stroke="midnightblue" d="M1102.33,-112.4C1123.52,-102.55 1151.59,-89.5 1172.2,-79.92"/>
<polygon fill="midnightblue" stroke="midnightblue" points="1173.78,-83.05 1181.37,-75.66 1170.83,-76.7 1173.78,-83.05"/>
</g>
<!-- Node39&#45;&gt;Node20 -->
<g id="edge51" class="edge">
<title>Node39&#45;&gt;Node20</title>
<path fill="none" stroke="midnightblue" d="M1282.89,-447.4C1291.36,-438.79 1302.35,-427.63 1311.89,-417.94"/>
<polygon fill="midnightblue" stroke="midnightblue" points="1314.62,-420.16 1319.14,-410.58 1309.63,-415.25 1314.62,-420.16"/>
</g>
<!-- Node40 -->
<g id="node40" class="node">
<title>Node40</title>
<g id="a_node40"><a xlink:href="socket_2ip_2tcp_2ipv6_2_socket_8h.html" target="_top" xlink:title=" ">
<polygon fill="white" stroke="black" points="1485,-380.5 1485,-410.5 1595,-410.5 1595,-380.5 1485,-380.5"/>
<text text-anchor="start" x="1493" y="-398.5" font-family="Helvetica,sans-Serif" font-size="10.00">net/socket/ip/tcp/ipv6</text>
<text text-anchor="middle" x="1540" y="-387.5" font-family="Helvetica,sans-Serif" font-size="10.00">/Socket.h</text>
</a>
</g>
</g>
<!-- Node39&#45;&gt;Node40 -->
<g id="edge47" class="edge">
<title>Node39&#45;&gt;Node40</title>
<path fill="none" stroke="midnightblue" d="M1324.17,-448.27C1367.85,-437.79 1428.98,-423.13 1475.03,-412.08"/>
<polygon fill="midnightblue" stroke="midnightblue" points="1476,-415.45 1484.91,-409.71 1474.37,-408.64 1476,-415.45"/>
</g>
<!-- Node40&#45;&gt;Node16 -->
<g id="edge48" class="edge">
<title>Node40&#45;&gt;Node16</title>
<path fill="none" stroke="midnightblue" d="M1594.59,-380.48C1641.12,-368.52 1707.09,-351.57 1749.96,-340.56"/>
<polygon fill="midnightblue" stroke="midnightblue" points="1750.99,-343.91 1759.8,-338.03 1749.25,-337.13 1750.99,-343.91"/>
</g>
<!-- Node41 -->
<g id="node41" class="node">
<title>Node41</title>
<g id="a_node41"><a xlink:href="ipv6_2_inet_address_8h.html" target="_top" xlink:title=" ">
<polygon fill="white" stroke="black" points="1485,-313.5 1485,-343.5 1595,-343.5 1595,-313.5 1485,-313.5"/>
<text text-anchor="start" x="1493" y="-331.5" font-family="Helvetica,sans-Serif" font-size="10.00">net/socket/ip/address</text>
<text text-anchor="middle" x="1540" y="-320.5" font-family="Helvetica,sans-Serif" font-size="10.00">/ipv6/InetAddress.h</text>
</a>
</g>
</g>
<!-- Node40&#45;&gt;Node41 -->
<g id="edge49" class="edge">
<title>Node40&#45;&gt;Node41</title>
<path fill="none" stroke="midnightblue" d="M1540,-380.4C1540,-372.64 1540,-362.81 1540,-353.86"/>
<polygon fill="midnightblue" stroke="midnightblue" points="1543.5,-353.58 1540,-343.58 1536.5,-353.58 1543.5,-353.58"/>
</g>
<!-- Node41&#45;&gt;Node19 -->
<g id="edge50" class="edge">
<title>Node41&#45;&gt;Node19</title>
<path fill="none" stroke="midnightblue" d="M1567.12,-313.4C1588.67,-302.19 1618.57,-286.64 1639.64,-275.69"/>
<polygon fill="midnightblue" stroke="midnightblue" points="1641.38,-278.73 1648.64,-271.01 1638.15,-272.52 1641.38,-278.73"/>
</g>
<!-- Node43 -->
<g id="node43" class="node">
<title>Node43</title>
<g id="a_node43"><a xlink:href="server_2_socket_context_8hpp.html" target="_top" xlink:title=" ">
<polygon fill="white" stroke="black" points="570.5,-386 570.5,-405 741.5,-405 741.5,-386 570.5,-386"/>
<text text-anchor="middle" x="656" y="-393" font-family="Helvetica,sans-Serif" font-size="10.00">web/http/server/SocketContext.hpp</text>
</a>
</g>
</g>
<!-- Node42&#45;&gt;Node43 -->
<g id="edge53" class="edge">
<title>Node42&#45;&gt;Node43</title>
<path fill="none" stroke="midnightblue" d="M819.9,-452.87C786.63,-441.42 727.76,-421.18 690.38,-408.32"/>
<polygon fill="midnightblue" stroke="midnightblue" points="691.5,-405.01 680.9,-405.06 689.22,-411.63 691.5,-405.01"/>
</g>
<!-- Node49 -->
<g id="node49" class="node">
<title>Node49</title>
<g id="a_node49"><a xlink:href="web_2http_2server_2_socket_context_factory_8h.html" target="_top" xlink:title=" ">
<polygon fill="white" stroke="black" points="769,-380.5 769,-410.5 921,-410.5 921,-380.5 769,-380.5"/>
<text text-anchor="start" x="777" y="-398.5" font-family="Helvetica,sans-Serif" font-size="10.00">web/http/server/SocketContext</text>
<text text-anchor="middle" x="845" y="-387.5" font-family="Helvetica,sans-Serif" font-size="10.00">Factory.h</text>
</a>
</g>
</g>
<!-- Node42&#45;&gt;Node49 -->
<g id="edge61" class="edge">
<title>Node42&#45;&gt;Node49</title>
<path fill="none" stroke="midnightblue" d="M845,-452.73C845,-444.54 845,-431.92 845,-420.71"/>
<polygon fill="midnightblue" stroke="midnightblue" points="848.5,-420.59 845,-410.59 841.5,-420.59 848.5,-420.59"/>
</g>
<!-- Node43&#45;&gt;Node6 -->
<g id="edge54" class="edge">
<title>Node43&#45;&gt;Node6</title>
<path fill="none" stroke="midnightblue" d="M628.51,-385.87C591.83,-374.35 526.77,-353.92 485.87,-341.08"/>
<polygon fill="midnightblue" stroke="midnightblue" points="486.86,-337.72 476.27,-338.06 484.76,-344.4 486.86,-337.72"/>
</g>
<!-- Node44 -->
<g id="node44" class="node">
<title>Node44</title>
<g id="a_node44"><a xlink:href="http__utils_8h.html" target="_top" xlink:title=" ">
<polygon fill="white" stroke="black" points="536.5,-319 536.5,-338 641.5,-338 641.5,-319 536.5,-319"/>
<text text-anchor="middle" x="589" y="-326" font-family="Helvetica,sans-Serif" font-size="10.00">web/http/http_utils.h</text>
</a>
</g>
</g>
<!-- Node43&#45;&gt;Node44 -->
<g id="edge55" class="edge">
<title>Node43&#45;&gt;Node44</title>
<path fill="none" stroke="midnightblue" d="M646.96,-385.73C636.32,-375.4 618.42,-358.04 605.32,-345.33"/>
<polygon fill="midnightblue" stroke="midnightblue" points="607.51,-342.58 597.89,-338.13 602.63,-347.6 607.51,-342.58"/>
</g>
<!-- Node45 -->
<g id="node45" class="node">
<title>Node45</title>
<g id="a_node45"><a xlink:href="web_2http_2server_2_socket_context_8h.html" target="_top" xlink:title=" ">
<polygon fill="white" stroke="black" points="659.5,-319 659.5,-338 820.5,-338 820.5,-319 659.5,-319"/>
<text text-anchor="middle" x="740" y="-326" font-family="Helvetica,sans-Serif" font-size="10.00">web/http/server/SocketContext.h</text>
</a>
</g>
</g>
<!-- Node43&#45;&gt;Node45 -->
<g id="edge56" class="edge">
<title>Node43&#45;&gt;Node45</title>
<path fill="none" stroke="midnightblue" d="M667.33,-385.73C681.06,-375.11 704.4,-357.05 720.92,-344.26"/>
<polygon fill="midnightblue" stroke="midnightblue" points="723.08,-347.02 728.85,-338.13 718.8,-341.48 723.08,-347.02"/>
</g>
<!-- Node46 -->
<g id="node46" class="node">
<title>Node46</title>
<g id="a_node46"><a xlink:href="web_2http_2_socket_context_8h.html" target="_top" xlink:title=" ">
<polygon fill="white" stroke="black" points="510.5,-252 510.5,-271 641.5,-271 641.5,-252 510.5,-252"/>
<text text-anchor="middle" x="576" y="-259" font-family="Helvetica,sans-Serif" font-size="10.00">web/http/SocketContext.h</text>
</a>
</g>
</g>
<!-- Node45&#45;&gt;Node46 -->
<g id="edge57" class="edge">
<title>Node45&#45;&gt;Node46</title>
<path fill="none" stroke="midnightblue" d="M718.22,-318.87C689.72,-307.57 639.57,-287.7 607.08,-274.82"/>
<polygon fill="midnightblue" stroke="midnightblue" points="608.19,-271.49 597.61,-271.06 605.61,-278 608.19,-271.49"/>
</g>
<!-- Node47 -->
<g id="node47" class="node">
<title>Node47</title>
<g id="a_node47"><a xlink:href="_request_parser_8h.html" target="_top" xlink:title=" ">
<polygon fill="white" stroke="black" points="660,-252 660,-271 820,-271 820,-252 660,-252"/>
<text text-anchor="middle" x="740" y="-259" font-family="Helvetica,sans-Serif" font-size="10.00">web/http/server/RequestParser.h</text>
</a>
</g>
</g>
<!-- Node45&#45;&gt;Node47 -->
<g id="edge59" class="edge">
<title>Node45&#45;&gt;Node47</title>
<path fill="none" stroke="midnightblue" d="M740,-318.73C740,-309.18 740,-293.62 740,-281.28"/>
<polygon fill="midnightblue" stroke="midnightblue" points="743.5,-281.13 740,-271.13 736.5,-281.13 743.5,-281.13"/>
</g>
<!-- Node46&#45;&gt;Node29 -->
<g id="edge58" class="edge">
<title>Node46&#45;&gt;Node29</title>
<path fill="none" stroke="midnightblue" d="M577.68,-251.85C580.66,-236.88 587.3,-205.21 595,-179 597.61,-170.11 600.91,-160.5 603.97,-152.07"/>
<polygon fill="midnightblue" stroke="midnightblue" points="607.32,-153.1 607.52,-142.51 600.76,-150.67 607.32,-153.1"/>
</g>
<!-- Node48 -->
<g id="node48" class="node">
<title>Node48</title>
<g id="a_node48"><a xlink:href="_parser_8h.html" target="_top" xlink:title=" ">
<polygon fill="white" stroke="black" points="604.5,-185 604.5,-204 697.5,-204 697.5,-185 604.5,-185"/>
<text text-anchor="middle" x="651" y="-192" font-family="Helvetica,sans-Serif" font-size="10.00">web/http/Parser.h</text>
</a>
</g>
</g>
<!-- Node47&#45;&gt;Node48 -->
<g id="edge60" class="edge">
<title>Node47&#45;&gt;Node48</title>
<path fill="none" stroke="midnightblue" d="M728,-251.73C713.45,-241.11 688.72,-223.05 671.22,-210.26"/>
<polygon fill="midnightblue" stroke="midnightblue" points="672.95,-207.2 662.81,-204.13 668.82,-212.85 672.95,-207.2"/>
</g>
<!-- Node49&#45;&gt;Node45 -->
<g id="edge64" class="edge">
<title>Node49&#45;&gt;Node45</title>
<path fill="none" stroke="midnightblue" d="M822.22,-380.4C804.45,-369.39 779.9,-354.2 762.26,-343.28"/>
<polygon fill="midnightblue" stroke="midnightblue" points="764.09,-340.29 753.74,-338.01 760.4,-346.25 764.09,-340.29"/>
</g>
<!-- Node50 -->
<g id="node50" class="node">
<title>Node50</title>
<g id="a_node50"><a xlink:href="web_2http_2_socket_context_factory_8h.html" target="_top" xlink:title=" ">
<polygon fill="white" stroke="black" points="716,-185 716,-204 878,-204 878,-185 716,-185"/>
<text text-anchor="middle" x="797" y="-192" font-family="Helvetica,sans-Serif" font-size="10.00">web/http/SocketContextFactory.h</text>
</a>
</g>
</g>
<!-- Node49&#45;&gt;Node50 -->
<g id="edge62" class="edge">
<title>Node49&#45;&gt;Node50</title>
<path fill="none" stroke="midnightblue" d="M845.58,-380.11C846.21,-353.03 845.42,-293 829,-246 824.75,-233.82 817.08,-221.57 810.32,-212.18"/>
<polygon fill="midnightblue" stroke="midnightblue" points="813.07,-210.02 804.25,-204.15 807.49,-214.24 813.07,-210.02"/>
</g>
<!-- Node50&#45;&gt;Node30 -->
<g id="edge63" class="edge">
<title>Node50&#45;&gt;Node30</title>
<path fill="none" stroke="midnightblue" d="M794.44,-184.73C792.02,-176.46 788.28,-163.66 784.98,-152.37"/>
<polygon fill="midnightblue" stroke="midnightblue" points="788.28,-151.21 782.12,-142.59 781.56,-153.17 788.28,-151.21"/>
</g>
</g>
</svg>
