<?xml version="1.0" encoding="UTF-8" standalone="no"?>
<!DOCTYPE svg PUBLIC "-//W3C//DTD SVG 1.1//EN"
 "http://www.w3.org/Graphics/SVG/1.1/DTD/svg11.dtd">
<!-- Generated by graphviz version 2.43.0 (0)
 -->
<!-- Title: http/tls/Client.h Pages: 1 -->
<svg width="1548pt" height="542pt"
 viewBox="0.00 0.00 1548.06 542.00" xmlns="http://www.w3.org/2000/svg" xmlns:xlink="http://www.w3.org/1999/xlink">
<g id="graph0" class="graph" transform="scale(1 1) rotate(0) translate(4 538)">
<title>http/tls/Client.h</title>
<polygon fill="white" stroke="transparent" points="-4,4 -4,-538 1544.06,-538 1544.06,4 -4,4"/>
<!-- Node1 -->
<g id="node1" class="node">
<title>Node1</title>
<g id="a_node1"><a xlink:title=" ">
<polygon fill="#bfbfbf" stroke="black" points="968,-514.5 968,-533.5 1051,-533.5 1051,-514.5 968,-514.5"/>
<text text-anchor="middle" x="1009.5" y="-521.5" font-family="Helvetica,sans-Serif" font-size="10.00">http/tls/Client.h</text>
</a>
</g>
</g>
<!-- Node2 -->
<g id="node2" class="node">
<title>Node2</title>
<g id="a_node2"><a xlink:href="_client_8h.html" target="_top" xlink:title=" ">
<polygon fill="white" stroke="black" points="360,-453 360,-472 419,-472 419,-453 360,-453"/>
<text text-anchor="middle" x="389.5" y="-460" font-family="Helvetica,sans-Serif" font-size="10.00">../Client.h</text>
</a>
</g>
</g>
<!-- Node1&#45;&gt;Node2 -->
<g id="edge1" class="edge">
<title>Node1&#45;&gt;Node2</title>
<path fill="none" stroke="midnightblue" d="M967.86,-519C854.36,-508.11 540.68,-478.01 429.34,-467.32"/>
<polygon fill="midnightblue" stroke="midnightblue" points="429.5,-463.82 419.21,-466.35 428.83,-470.79 429.5,-463.82"/>
</g>
<!-- Node10 -->
<g id="node10" class="node">
<title>Node10</title>
<g id="a_node10"><a xlink:href="ip_2tcp_2ipv4_2tls_2_socket_client_8h.html" target="_top" xlink:title=" ">
<polygon fill="white" stroke="black" points="960.5,-447.5 960.5,-477.5 1058.5,-477.5 1058.5,-447.5 960.5,-447.5"/>
<text text-anchor="start" x="968.5" y="-465.5" font-family="Helvetica,sans-Serif" font-size="10.00">socket/ip/tcp/ipv4</text>
<text text-anchor="middle" x="1009.5" y="-454.5" font-family="Helvetica,sans-Serif" font-size="10.00">/tls/SocketClient.h</text>
</a>
</g>
</g>
<!-- Node1&#45;&gt;Node10 -->
<g id="edge9" class="edge">
<title>Node1&#45;&gt;Node10</title>
<path fill="none" stroke="midnightblue" d="M1009.5,-514.48C1009.5,-507.47 1009.5,-497.19 1009.5,-487.7"/>
<polygon fill="midnightblue" stroke="midnightblue" points="1013,-487.52 1009.5,-477.52 1006,-487.52 1013,-487.52"/>
</g>
<!-- Node35 -->
<g id="node35" class="node">
<title>Node35</title>
<g id="a_node35"><a xlink:href="ip_2tcp_2ipv6_2tls_2_socket_client_8h.html" target="_top" xlink:title=" ">
<polygon fill="white" stroke="black" points="1088.5,-447.5 1088.5,-477.5 1186.5,-477.5 1186.5,-447.5 1088.5,-447.5"/>
<text text-anchor="start" x="1096.5" y="-465.5" font-family="Helvetica,sans-Serif" font-size="10.00">socket/ip/tcp/ipv6</text>
<text text-anchor="middle" x="1137.5" y="-454.5" font-family="Helvetica,sans-Serif" font-size="10.00">/tls/SocketClient.h</text>
</a>
</g>
</g>
<!-- Node1&#45;&gt;Node35 -->
<g id="edge55" class="edge">
<title>Node1&#45;&gt;Node35</title>
<path fill="none" stroke="midnightblue" d="M1027.84,-514.48C1046.07,-506 1074.6,-492.74 1098,-481.86"/>
<polygon fill="midnightblue" stroke="midnightblue" points="1099.74,-484.91 1107.33,-477.52 1096.79,-478.56 1099.74,-484.91"/>
</g>
<!-- Node3 -->
<g id="node3" class="node">
<title>Node3</title>
<g id="a_node3"><a xlink:href="_client_context_8h.html" target="_top" xlink:title=" ">
<polygon fill="white" stroke="black" points="214,-386 214,-405 299,-405 299,-386 214,-386"/>
<text text-anchor="middle" x="256.5" y="-393" font-family="Helvetica,sans-Serif" font-size="10.00">ClientContext.h</text>
</a>
</g>
</g>
<!-- Node2&#45;&gt;Node3 -->
<g id="edge2" class="edge">
<title>Node2&#45;&gt;Node3</title>
<path fill="none" stroke="midnightblue" d="M371.84,-452.87C349.18,-441.8 309.67,-422.49 283.3,-409.6"/>
<polygon fill="midnightblue" stroke="midnightblue" points="284.76,-406.41 274.23,-405.17 281.68,-412.7 284.76,-406.41"/>
</g>
<!-- Node9 -->
<g id="node9" class="node">
<title>Node9</title>
<g id="a_node9"><a xlink:href="_logger_8h.html" target="_top" xlink:title=" ">
<polygon fill="white" stroke="black" points="668,-56.5 668,-75.5 721,-75.5 721,-56.5 668,-56.5"/>
<text text-anchor="middle" x="694.5" y="-63.5" font-family="Helvetica,sans-Serif" font-size="10.00">Logger.h</text>
</a>
</g>
</g>
<!-- Node2&#45;&gt;Node9 -->
<g id="edge8" class="edge">
<title>Node2&#45;&gt;Node9</title>
<path fill="none" stroke="midnightblue" d="M389.5,-452.85C389.5,-431.76 389.5,-376.02 389.5,-329.5 389.5,-329.5 389.5,-329.5 389.5,-193.5 389.5,-156.31 381.26,-137.32 408.5,-112 443.97,-79.03 588.08,-70.2 657.19,-67.85"/>
<polygon fill="midnightblue" stroke="midnightblue" points="657.72,-71.33 667.61,-67.52 657.5,-64.33 657.72,-71.33"/>
</g>
<!-- Node4 -->
<g id="node4" class="node">
<title>Node4</title>
<g id="a_node4"><a xlink:href="_response_parser_8h.html" target="_top" xlink:title=" ">
<polygon fill="white" stroke="black" points="40,-319 40,-338 137,-338 137,-319 40,-319"/>
<text text-anchor="middle" x="88.5" y="-326" font-family="Helvetica,sans-Serif" font-size="10.00">ResponseParser.h</text>
</a>
</g>
</g>
<!-- Node3&#45;&gt;Node4 -->
<g id="edge3" class="edge">
<title>Node3&#45;&gt;Node4</title>
<path fill="none" stroke="midnightblue" d="M234.19,-385.87C204.99,-374.57 153.62,-354.7 120.34,-341.82"/>
<polygon fill="midnightblue" stroke="midnightblue" points="121.22,-338.41 110.63,-338.06 118.7,-344.94 121.22,-338.41"/>
</g>
<!-- Node7 -->
<g id="node7" class="node">
<title>Node7</title>
<g id="a_node7"><a xlink:href="_server_request_8h.html" target="_top" xlink:title=" ">
<polygon fill="white" stroke="black" points="155.5,-319 155.5,-338 245.5,-338 245.5,-319 155.5,-319"/>
<text text-anchor="middle" x="200.5" y="-326" font-family="Helvetica,sans-Serif" font-size="10.00">ServerRequest.h</text>
</a>
</g>
</g>
<!-- Node3&#45;&gt;Node7 -->
<g id="edge6" class="edge">
<title>Node3&#45;&gt;Node7</title>
<path fill="none" stroke="midnightblue" d="M248.95,-385.73C240.22,-375.6 225.65,-358.69 214.76,-346.06"/>
<polygon fill="midnightblue" stroke="midnightblue" points="217.11,-343.42 207.93,-338.13 211.81,-347.99 217.11,-343.42"/>
</g>
<!-- Node8 -->
<g id="node8" class="node">
<title>Node8</title>
<g id="a_node8"><a xlink:href="_server_response_8h.html" target="_top" xlink:title=" ">
<polygon fill="white" stroke="black" points="263.5,-319 263.5,-338 361.5,-338 361.5,-319 263.5,-319"/>
<text text-anchor="middle" x="312.5" y="-326" font-family="Helvetica,sans-Serif" font-size="10.00">ServerResponse.h</text>
</a>
</g>
</g>
<!-- Node3&#45;&gt;Node8 -->
<g id="edge7" class="edge">
<title>Node3&#45;&gt;Node8</title>
<path fill="none" stroke="midnightblue" d="M264.05,-385.73C272.78,-375.6 287.35,-358.69 298.24,-346.06"/>
<polygon fill="midnightblue" stroke="midnightblue" points="301.19,-347.99 305.07,-338.13 295.89,-343.42 301.19,-347.99"/>
</g>
<!-- Node5 -->
<g id="node5" class="node">
<title>Node5</title>
<g id="a_node5"><a xlink:href="_cookie_options_8h.html" target="_top" xlink:title=" ">
<polygon fill="white" stroke="black" points="0,-252 0,-271 89,-271 89,-252 0,-252"/>
<text text-anchor="middle" x="44.5" y="-259" font-family="Helvetica,sans-Serif" font-size="10.00">CookieOptions.h</text>
</a>
</g>
</g>
<!-- Node4&#45;&gt;Node5 -->
<g id="edge4" class="edge">
<title>Node4&#45;&gt;Node5</title>
<path fill="none" stroke="midnightblue" d="M82.57,-318.73C75.77,-308.7 64.48,-292.01 55.95,-279.42"/>
<polygon fill="midnightblue" stroke="midnightblue" points="58.84,-277.45 50.34,-271.13 53.05,-281.37 58.84,-277.45"/>
</g>
<!-- Node6 -->
<g id="node6" class="node">
<title>Node6</title>
<g id="a_node6"><a xlink:href="_parser_8h.html" target="_top" xlink:title=" ">
<polygon fill="white" stroke="black" points="107,-252 107,-271 160,-271 160,-252 107,-252"/>
<text text-anchor="middle" x="133.5" y="-259" font-family="Helvetica,sans-Serif" font-size="10.00">Parser.h</text>
</a>
</g>
</g>
<!-- Node4&#45;&gt;Node6 -->
<g id="edge5" class="edge">
<title>Node4&#45;&gt;Node6</title>
<path fill="none" stroke="midnightblue" d="M94.57,-318.73C101.52,-308.7 113.07,-292.01 121.79,-279.42"/>
<polygon fill="midnightblue" stroke="midnightblue" points="124.71,-281.34 127.53,-271.13 118.96,-277.36 124.71,-281.34"/>
</g>
<!-- Node11 -->
<g id="node11" class="node">
<title>Node11</title>
<g id="a_node11"><a xlink:href="ip_2tcp_2_socket_client_8h.html" target="_top" xlink:title=" ">
<polygon fill="white" stroke="black" points="1080.5,-386 1080.5,-405 1220.5,-405 1220.5,-386 1080.5,-386"/>
<text text-anchor="middle" x="1150.5" y="-393" font-family="Helvetica,sans-Serif" font-size="10.00">socket/ip/tcp/SocketClient.h</text>
</a>
</g>
</g>
<!-- Node10&#45;&gt;Node11 -->
<g id="edge10" class="edge">
<title>Node10&#45;&gt;Node11</title>
<path fill="none" stroke="midnightblue" d="M1040.09,-447.4C1064.73,-436.04 1099.05,-420.22 1122.86,-409.24"/>
<polygon fill="midnightblue" stroke="midnightblue" points="1124.43,-412.37 1132.05,-405.01 1121.5,-406.02 1124.43,-412.37"/>
</g>
<!-- Node12 -->
<g id="node12" class="node">
<title>Node12</title>
<g id="a_node12"><a xlink:href="ip_2tcp_2ipv4_2_socket_8h.html" target="_top" xlink:title=" ">
<polygon fill="white" stroke="black" points="1078.5,-246.5 1078.5,-276.5 1172.5,-276.5 1172.5,-246.5 1078.5,-246.5"/>
<text text-anchor="start" x="1086.5" y="-264.5" font-family="Helvetica,sans-Serif" font-size="10.00">socket/ip/tcp/ipv4</text>
<text text-anchor="middle" x="1125.5" y="-253.5" font-family="Helvetica,sans-Serif" font-size="10.00">/Socket.h</text>
</a>
</g>
</g>
<!-- Node10&#45;&gt;Node12 -->
<g id="edge11" class="edge">
<title>Node10&#45;&gt;Node12</title>
<path fill="none" stroke="midnightblue" d="M982.94,-447.47C969.67,-438.88 954.89,-426.55 947.5,-411 941.59,-398.56 940.97,-392.13 947.5,-380 974.17,-330.44 1031.92,-298.31 1074.45,-280.38"/>
<polygon fill="midnightblue" stroke="midnightblue" points="1075.88,-283.58 1083.81,-276.55 1073.23,-277.09 1075.88,-283.58"/>
</g>
<!-- Node17 -->
<g id="node17" class="node">
<title>Node17</title>
<g id="a_node17"><a xlink:href="sock__stream_2tls_2_socket_client_8h.html" target="_top" xlink:title=" ">
<polygon fill="white" stroke="black" points="957,-380.5 957,-410.5 1062,-410.5 1062,-380.5 957,-380.5"/>
<text text-anchor="start" x="965" y="-398.5" font-family="Helvetica,sans-Serif" font-size="10.00">socket/sock_stream</text>
<text text-anchor="middle" x="1009.5" y="-387.5" font-family="Helvetica,sans-Serif" font-size="10.00">/tls/SocketClient.h</text>
</a>
</g>
</g>
<!-- Node10&#45;&gt;Node17 -->
<g id="edge18" class="edge">
<title>Node10&#45;&gt;Node17</title>
<path fill="none" stroke="midnightblue" d="M1009.5,-447.4C1009.5,-439.64 1009.5,-429.81 1009.5,-420.86"/>
<polygon fill="midnightblue" stroke="midnightblue" points="1013,-420.58 1009.5,-410.58 1006,-420.58 1013,-420.58"/>
</g>
<!-- Node13 -->
<g id="node13" class="node">
<title>Node13</title>
<g id="a_node13"><a xlink:href="_descriptor_8h.html" target="_top" xlink:title=" ">
<polygon fill="white" stroke="black" points="1194,-118 1194,-137 1263,-137 1263,-118 1194,-118"/>
<text text-anchor="middle" x="1228.5" y="-125" font-family="Helvetica,sans-Serif" font-size="10.00">Descriptor.h</text>
</a>
</g>
</g>
<!-- Node12&#45;&gt;Node13 -->
<g id="edge12" class="edge">
<title>Node12&#45;&gt;Node13</title>
<path fill="none" stroke="midnightblue" d="M1107.02,-246.46C1087.4,-229.83 1061.28,-201.52 1077.5,-179 1080.95,-174.21 1146.94,-153.36 1190.53,-139.99"/>
<polygon fill="midnightblue" stroke="midnightblue" points="1191.73,-143.28 1200.27,-137.01 1189.68,-136.59 1191.73,-143.28"/>
</g>
<!-- Node14 -->
<g id="node14" class="node">
<title>Node14</title>
<g id="a_node14"><a xlink:href="_socket_8h.html" target="_top" xlink:title=" ">
<polygon fill="white" stroke="black" points="1258.5,-185 1258.5,-204 1346.5,-204 1346.5,-185 1258.5,-185"/>
<text text-anchor="middle" x="1302.5" y="-192" font-family="Helvetica,sans-Serif" font-size="10.00">socket/Socket.h</text>
</a>
</g>
</g>
<!-- Node12&#45;&gt;Node14 -->
<g id="edge13" class="edge">
<title>Node12&#45;&gt;Node14</title>
<path fill="none" stroke="midnightblue" d="M1163.91,-246.4C1195.51,-234.79 1239.83,-218.51 1269.77,-207.52"/>
<polygon fill="midnightblue" stroke="midnightblue" points="1271.15,-210.74 1279.33,-204.01 1268.74,-204.17 1271.15,-210.74"/>
</g>
<!-- Node16 -->
<g id="node16" class="node">
<title>Node16</title>
<g id="a_node16"><a xlink:href="ipv4_2_inet_address_8h.html" target="_top" xlink:title=" ">
<polygon fill="white" stroke="black" points="1087,-179.5 1087,-209.5 1202,-209.5 1202,-179.5 1087,-179.5"/>
<text text-anchor="start" x="1095" y="-197.5" font-family="Helvetica,sans-Serif" font-size="10.00">socket/ip/address/ipv4</text>
<text text-anchor="middle" x="1144.5" y="-186.5" font-family="Helvetica,sans-Serif" font-size="10.00">/InetAddress.h</text>
</a>
</g>
</g>
<!-- Node12&#45;&gt;Node16 -->
<g id="edge16" class="edge">
<title>Node12&#45;&gt;Node16</title>
<path fill="none" stroke="midnightblue" d="M1129.62,-246.4C1131.94,-238.47 1134.89,-228.38 1137.55,-219.27"/>
<polygon fill="midnightblue" stroke="midnightblue" points="1140.94,-220.16 1140.39,-209.58 1134.22,-218.19 1140.94,-220.16"/>
</g>
<!-- Node14&#45;&gt;Node13 -->
<g id="edge14" class="edge">
<title>Node14&#45;&gt;Node13</title>
<path fill="none" stroke="midnightblue" d="M1292.52,-184.73C1280.65,-174.31 1260.61,-156.71 1246.12,-143.97"/>
<polygon fill="midnightblue" stroke="midnightblue" points="1248.14,-141.1 1238.32,-137.13 1243.53,-146.36 1248.14,-141.1"/>
</g>
<!-- Node15 -->
<g id="node15" class="node">
<title>Node15</title>
<g id="a_node15"><a xlink:href="_socket_address_8h.html" target="_top" xlink:title=" ">
<polygon fill="white" stroke="black" points="1281.5,-118 1281.5,-137 1405.5,-137 1405.5,-118 1281.5,-118"/>
<text text-anchor="middle" x="1343.5" y="-125" font-family="Helvetica,sans-Serif" font-size="10.00">socket/SocketAddress.h</text>
</a>
</g>
</g>
<!-- Node14&#45;&gt;Node15 -->
<g id="edge15" class="edge">
<title>Node14&#45;&gt;Node15</title>
<path fill="none" stroke="midnightblue" d="M1308.03,-184.73C1314.3,-174.79 1324.68,-158.34 1332.59,-145.79"/>
<polygon fill="midnightblue" stroke="midnightblue" points="1335.68,-147.45 1338.06,-137.13 1329.76,-143.72 1335.68,-147.45"/>
</g>
<!-- Node16&#45;&gt;Node15 -->
<g id="edge17" class="edge">
<title>Node16&#45;&gt;Node15</title>
<path fill="none" stroke="midnightblue" d="M1187.68,-179.4C1223.52,-167.69 1273.91,-151.23 1307.58,-140.23"/>
<polygon fill="midnightblue" stroke="midnightblue" points="1309.04,-143.44 1317.46,-137.01 1306.86,-136.78 1309.04,-143.44"/>
</g>
<!-- Node18 -->
<g id="node18" class="node">
<title>Node18</title>
<g id="a_node18"><a xlink:href="tls_2_socket_connector_8h.html" target="_top" xlink:title=" ">
<polygon fill="white" stroke="black" points="796.5,-319 796.5,-338 896.5,-338 896.5,-319 796.5,-319"/>
<text text-anchor="middle" x="846.5" y="-326" font-family="Helvetica,sans-Serif" font-size="10.00">SocketConnector.h</text>
</a>
</g>
</g>
<!-- Node17&#45;&gt;Node18 -->
<g id="edge19" class="edge">
<title>Node17&#45;&gt;Node18</title>
<path fill="none" stroke="midnightblue" d="M974.13,-380.4C945.28,-368.89 904.92,-352.8 877.36,-341.81"/>
<polygon fill="midnightblue" stroke="midnightblue" points="878.42,-338.46 867.83,-338.01 875.83,-344.96 878.42,-338.46"/>
</g>
<!-- Node34 -->
<g id="node34" class="node">
<title>Node34</title>
<g id="a_node34"><a xlink:href="sock__stream_2_socket_client_8h.html" target="_top" xlink:title=" ">
<polygon fill="white" stroke="black" points="1295,-313.5 1295,-343.5 1400,-343.5 1400,-313.5 1295,-313.5"/>
<text text-anchor="start" x="1303" y="-331.5" font-family="Helvetica,sans-Serif" font-size="10.00">socket/sock_stream</text>
<text text-anchor="middle" x="1347.5" y="-320.5" font-family="Helvetica,sans-Serif" font-size="10.00">/SocketClient.h</text>
</a>
</g>
</g>
<!-- Node17&#45;&gt;Node34 -->
<g id="edge53" class="edge">
<title>Node17&#45;&gt;Node34</title>
<path fill="none" stroke="midnightblue" d="M1062.23,-381.98C1065.36,-381.3 1068.47,-380.63 1071.5,-380 1144.45,-364.8 1228.77,-349.74 1284.83,-340.07"/>
<polygon fill="midnightblue" stroke="midnightblue" points="1285.69,-343.47 1294.95,-338.33 1284.51,-336.57 1285.69,-343.47"/>
</g>
<!-- Node18&#45;&gt;Node9 -->
<g id="edge20" class="edge">
<title>Node18&#45;&gt;Node9</title>
<path fill="none" stroke="midnightblue" d="M796.3,-320.67C735.57,-309.42 635.84,-280.7 590.5,-210 580.9,-195.03 582.39,-130.79 595.5,-112 609.87,-91.42 636.01,-80.08 657.82,-73.93"/>
<polygon fill="midnightblue" stroke="midnightblue" points="658.98,-77.25 667.8,-71.38 657.24,-70.47 658.98,-77.25"/>
</g>
<!-- Node19 -->
<g id="node19" class="node">
<title>Node19</title>
<g id="a_node19"><a xlink:href="tls_2_socket_connection_8h.html" target="_top" xlink:title=" ">
<polygon fill="white" stroke="black" points="772,-252 772,-271 877,-271 877,-252 772,-252"/>
<text text-anchor="middle" x="824.5" y="-259" font-family="Helvetica,sans-Serif" font-size="10.00">SocketConnection.h</text>
</a>
</g>
</g>
<!-- Node18&#45;&gt;Node19 -->
<g id="edge21" class="edge">
<title>Node18&#45;&gt;Node19</title>
<path fill="none" stroke="midnightblue" d="M843.53,-318.73C840.27,-309.09 834.92,-293.3 830.73,-280.91"/>
<polygon fill="midnightblue" stroke="midnightblue" points="833.94,-279.48 827.42,-271.13 827.31,-281.72 833.94,-279.48"/>
</g>
<!-- Node24 -->
<g id="node24" class="node">
<title>Node24</title>
<g id="a_node24"><a xlink:href="_t_l_s_handshake_8h.html" target="_top" xlink:title=" ">
<polygon fill="white" stroke="black" points="1045.5,-118 1045.5,-137 1137.5,-137 1137.5,-118 1045.5,-118"/>
<text text-anchor="middle" x="1091.5" y="-125" font-family="Helvetica,sans-Serif" font-size="10.00">TLSHandshake.h</text>
</a>
</g>
</g>
<!-- Node18&#45;&gt;Node24 -->
<g id="edge46" class="edge">
<title>Node18&#45;&gt;Node24</title>
<path fill="none" stroke="midnightblue" d="M858.33,-318.96C884.48,-300 948.93,-252.65 1000.5,-210 1027.29,-187.85 1057.07,-160.65 1075.04,-143.95"/>
<polygon fill="midnightblue" stroke="midnightblue" points="1077.49,-146.46 1082.41,-137.08 1072.71,-141.34 1077.49,-146.46"/>
</g>
<!-- Node29 -->
<g id="node29" class="node">
<title>Node29</title>
<g id="a_node29"><a xlink:href="ssl__utils_8h.html" target="_top" xlink:title=" ">
<polygon fill="white" stroke="black" points="605,-118 605,-137 666,-137 666,-118 605,-118"/>
<text text-anchor="middle" x="635.5" y="-125" font-family="Helvetica,sans-Serif" font-size="10.00">ssl_utils.h</text>
</a>
</g>
</g>
<!-- Node18&#45;&gt;Node29 -->
<g id="edge52" class="edge">
<title>Node18&#45;&gt;Node29</title>
<path fill="none" stroke="midnightblue" d="M825.12,-318.94C806.54,-310.59 779.94,-296.33 762.5,-277 730.26,-241.28 748.45,-214.98 716.5,-179 702.34,-163.05 681.93,-150.37 665.15,-141.71"/>
<polygon fill="midnightblue" stroke="midnightblue" points="666.28,-138.36 655.76,-137.07 663.18,-144.64 666.28,-138.36"/>
</g>
<!-- Node32 -->
<g id="node32" class="node">
<title>Node32</title>
<g id="a_node32"><a xlink:href="_socket_connector_8h.html" target="_top" xlink:title=" ">
<polygon fill="white" stroke="black" points="1314,-246.5 1314,-276.5 1419,-276.5 1419,-246.5 1314,-246.5"/>
<text text-anchor="start" x="1322" y="-264.5" font-family="Helvetica,sans-Serif" font-size="10.00">socket/sock_stream</text>
<text text-anchor="middle" x="1366.5" y="-253.5" font-family="Helvetica,sans-Serif" font-size="10.00">/SocketConnector.h</text>
</a>
</g>
</g>
<!-- Node18&#45;&gt;Node32 -->
<g id="edge47" class="edge">
<title>Node18&#45;&gt;Node32</title>
<path fill="none" stroke="midnightblue" d="M896.59,-323.95C979.29,-317.67 1149.73,-302.89 1303.71,-277"/>
<polygon fill="midnightblue" stroke="midnightblue" points="1304.55,-280.4 1313.82,-275.27 1303.38,-273.5 1304.55,-280.4"/>
</g>
<!-- Node20 -->
<g id="node20" class="node">
<title>Node20</title>
<g id="a_node20"><a xlink:href="_socket_connection_8h.html" target="_top" xlink:title=" ">
<polygon fill="white" stroke="black" points="599.5,-179.5 599.5,-209.5 707.5,-209.5 707.5,-179.5 599.5,-179.5"/>
<text text-anchor="start" x="607.5" y="-197.5" font-family="Helvetica,sans-Serif" font-size="10.00">socket/sock_stream</text>
<text text-anchor="middle" x="653.5" y="-186.5" font-family="Helvetica,sans-Serif" font-size="10.00">/SocketConnection.h</text>
</a>
</g>
</g>
<!-- Node19&#45;&gt;Node20 -->
<g id="edge22" class="edge">
<title>Node19&#45;&gt;Node20</title>
<path fill="none" stroke="midnightblue" d="M801.79,-251.87C775.91,-242.03 732.92,-225.69 699.87,-213.13"/>
<polygon fill="midnightblue" stroke="midnightblue" points="701,-209.81 690.4,-209.53 698.51,-216.35 701,-209.81"/>
</g>
<!-- Node23 -->
<g id="node23" class="node">
<title>Node23</title>
<g id="a_node23"><a xlink:href="tls_2_socket_reader_8h.html" target="_top" xlink:title=" ">
<polygon fill="white" stroke="black" points="764,-179.5 764,-209.5 869,-209.5 869,-179.5 764,-179.5"/>
<text text-anchor="start" x="772" y="-197.5" font-family="Helvetica,sans-Serif" font-size="10.00">socket/sock_stream</text>
<text text-anchor="middle" x="816.5" y="-186.5" font-family="Helvetica,sans-Serif" font-size="10.00">/tls/SocketReader.h</text>
</a>
</g>
</g>
<!-- Node19&#45;&gt;Node23 -->
<g id="edge25" class="edge">
<title>Node19&#45;&gt;Node23</title>
<path fill="none" stroke="midnightblue" d="M823.42,-251.73C822.41,-243.54 820.86,-230.92 819.48,-219.71"/>
<polygon fill="midnightblue" stroke="midnightblue" points="822.93,-219.09 818.23,-209.59 815.98,-219.94 822.93,-219.09"/>
</g>
<!-- Node30 -->
<g id="node30" class="node">
<title>Node30</title>
<g id="a_node30"><a xlink:href="tls_2_socket_writer_8h.html" target="_top" xlink:title=" ">
<polygon fill="white" stroke="black" points="887,-179.5 887,-209.5 992,-209.5 992,-179.5 887,-179.5"/>
<text text-anchor="start" x="895" y="-197.5" font-family="Helvetica,sans-Serif" font-size="10.00">socket/sock_stream</text>
<text text-anchor="middle" x="939.5" y="-186.5" font-family="Helvetica,sans-Serif" font-size="10.00">/tls/SocketWriter.h</text>
</a>
</g>
</g>
<!-- Node19&#45;&gt;Node30 -->
<g id="edge37" class="edge">
<title>Node19&#45;&gt;Node30</title>
<path fill="none" stroke="midnightblue" d="M840.01,-251.73C856.75,-242.27 883.92,-226.91 905.64,-214.64"/>
<polygon fill="midnightblue" stroke="midnightblue" points="907.59,-217.56 914.57,-209.59 904.15,-211.46 907.59,-217.56"/>
</g>
<!-- Node21 -->
<g id="node21" class="node">
<title>Node21</title>
<g id="a_node21"><a xlink:href="_socket_connection_base_8h.html" target="_top" xlink:title=" ">
<polygon fill="white" stroke="black" points="417.5,-118 417.5,-137 545.5,-137 545.5,-118 417.5,-118"/>
<text text-anchor="middle" x="481.5" y="-125" font-family="Helvetica,sans-Serif" font-size="10.00">SocketConnectionBase.h</text>
</a>
</g>
</g>
<!-- Node20&#45;&gt;Node21 -->
<g id="edge23" class="edge">
<title>Node20&#45;&gt;Node21</title>
<path fill="none" stroke="midnightblue" d="M616.18,-179.4C585.6,-167.84 542.77,-151.66 513.68,-140.66"/>
<polygon fill="midnightblue" stroke="midnightblue" points="514.6,-137.27 504.01,-137.01 512.13,-143.82 514.6,-137.27"/>
</g>
<!-- Node22 -->
<g id="node22" class="node">
<title>Node22</title>
<g id="a_node22"><a xlink:href="_attribute_injector_8h.html" target="_top" xlink:title=" ">
<polygon fill="white" stroke="black" points="435,-56.5 435,-75.5 528,-75.5 528,-56.5 435,-56.5"/>
<text text-anchor="middle" x="481.5" y="-63.5" font-family="Helvetica,sans-Serif" font-size="10.00">AttributeInjector.h</text>
</a>
</g>
</g>
<!-- Node21&#45;&gt;Node22 -->
<g id="edge24" class="edge">
<title>Node21&#45;&gt;Node22</title>
<path fill="none" stroke="midnightblue" d="M481.5,-117.98C481.5,-109.58 481.5,-96.48 481.5,-85.66"/>
<polygon fill="midnightblue" stroke="midnightblue" points="485,-85.51 481.5,-75.51 478,-85.51 485,-85.51"/>
</g>
<!-- Node23&#45;&gt;Node9 -->
<g id="edge27" class="edge">
<title>Node23&#45;&gt;Node9</title>
<path fill="none" stroke="midnightblue" d="M771.98,-179.31C753.17,-171.31 732.44,-159.54 718.5,-143 704.73,-126.67 698.84,-102.4 696.33,-85.7"/>
<polygon fill="midnightblue" stroke="midnightblue" points="699.78,-85.04 695.08,-75.54 692.83,-85.89 699.78,-85.04"/>
</g>
<!-- Node23&#45;&gt;Node13 -->
<g id="edge26" class="edge">
<title>Node23&#45;&gt;Node13</title>
<path fill="none" stroke="midnightblue" d="M869,-180.67C871.87,-180.08 874.72,-179.52 877.5,-179 996.1,-157.02 1027.31,-161.51 1146.5,-143 1158.67,-141.11 1171.81,-138.87 1183.94,-136.73"/>
<polygon fill="midnightblue" stroke="midnightblue" points="1184.61,-140.17 1193.84,-134.96 1183.38,-133.27 1184.61,-140.17"/>
</g>
<!-- Node23&#45;&gt;Node24 -->
<g id="edge28" class="edge">
<title>Node23&#45;&gt;Node24</title>
<path fill="none" stroke="midnightblue" d="M869.07,-180.97C871.92,-180.3 874.74,-179.64 877.5,-179 947.65,-162.67 965.52,-160.03 1035.5,-143 1039.96,-141.92 1044.61,-140.76 1049.24,-139.58"/>
<polygon fill="midnightblue" stroke="midnightblue" points="1050.44,-142.89 1059.26,-137.02 1048.71,-136.11 1050.44,-142.89"/>
</g>
<!-- Node27 -->
<g id="node27" class="node">
<title>Node27</title>
<g id="a_node27"><a xlink:href="_write_event_receiver_8h.html" target="_top" xlink:title=" ">
<polygon fill="white" stroke="black" points="888,-56.5 888,-75.5 999,-75.5 999,-56.5 888,-56.5"/>
<text text-anchor="middle" x="943.5" y="-63.5" font-family="Helvetica,sans-Serif" font-size="10.00">WriteEventReceiver.h</text>
</a>
</g>
</g>
<!-- Node23&#45;&gt;Node27 -->
<g id="edge33" class="edge">
<title>Node23&#45;&gt;Node27</title>
<path fill="none" stroke="midnightblue" d="M804.49,-179.26C791.39,-161.91 774.21,-132.39 789.5,-112 800.81,-96.91 843.24,-85.2 880.7,-77.51"/>
<polygon fill="midnightblue" stroke="midnightblue" points="881.47,-80.92 890.6,-75.54 880.11,-74.05 881.47,-80.92"/>
</g>
<!-- Node28 -->
<g id="node28" class="node">
<title>Node28</title>
<g id="a_node28"><a xlink:href="_socket_reader_8h.html" target="_top" xlink:title=" ">
<polygon fill="white" stroke="black" points="922,-112.5 922,-142.5 1027,-142.5 1027,-112.5 922,-112.5"/>
<text text-anchor="start" x="930" y="-130.5" font-family="Helvetica,sans-Serif" font-size="10.00">socket/sock_stream</text>
<text text-anchor="middle" x="974.5" y="-119.5" font-family="Helvetica,sans-Serif" font-size="10.00">/SocketReader.h</text>
</a>
</g>
</g>
<!-- Node23&#45;&gt;Node28 -->
<g id="edge34" class="edge">
<title>Node23&#45;&gt;Node28</title>
<path fill="none" stroke="midnightblue" d="M850.78,-179.4C874.28,-169.73 905.65,-156.82 930.93,-146.43"/>
<polygon fill="midnightblue" stroke="midnightblue" points="932.37,-149.62 940.28,-142.58 929.7,-143.14 932.37,-149.62"/>
</g>
<!-- Node23&#45;&gt;Node29 -->
<g id="edge36" class="edge">
<title>Node23&#45;&gt;Node29</title>
<path fill="none" stroke="midnightblue" d="M777.23,-179.4C744.91,-167.79 699.59,-151.51 668.97,-140.52"/>
<polygon fill="midnightblue" stroke="midnightblue" points="669.78,-137.09 659.19,-137.01 667.42,-143.68 669.78,-137.09"/>
</g>
<!-- Node25 -->
<g id="node25" class="node">
<title>Node25</title>
<g id="a_node25"><a xlink:href="_read_event_receiver_8h.html" target="_top" xlink:title=" ">
<polygon fill="white" stroke="black" points="1072.5,-56.5 1072.5,-75.5 1184.5,-75.5 1184.5,-56.5 1072.5,-56.5"/>
<text text-anchor="middle" x="1128.5" y="-63.5" font-family="Helvetica,sans-Serif" font-size="10.00">ReadEventReceiver.h</text>
</a>
</g>
</g>
<!-- Node24&#45;&gt;Node25 -->
<g id="edge29" class="edge">
<title>Node24&#45;&gt;Node25</title>
<path fill="none" stroke="midnightblue" d="M1096.8,-117.98C1102.24,-109.23 1110.86,-95.37 1117.74,-84.31"/>
<polygon fill="midnightblue" stroke="midnightblue" points="1120.9,-85.85 1123.21,-75.51 1114.96,-82.15 1120.9,-85.85"/>
</g>
<!-- Node24&#45;&gt;Node27 -->
<g id="edge31" class="edge">
<title>Node24&#45;&gt;Node27</title>
<path fill="none" stroke="midnightblue" d="M1070.3,-117.98C1045.13,-107.86 1002.96,-90.9 974.22,-79.35"/>
<polygon fill="midnightblue" stroke="midnightblue" points="975.25,-75.99 964.67,-75.51 972.64,-82.49 975.25,-75.99"/>
</g>
<!-- Node26 -->
<g id="node26" class="node">
<title>Node26</title>
<g id="a_node26"><a xlink:href="_event_receiver_8h.html" target="_top" xlink:title=" ">
<polygon fill="white" stroke="black" points="1084,-0.5 1084,-19.5 1173,-19.5 1173,-0.5 1084,-0.5"/>
<text text-anchor="middle" x="1128.5" y="-7.5" font-family="Helvetica,sans-Serif" font-size="10.00">EventReceiver.h</text>
</a>
</g>
</g>
<!-- Node25&#45;&gt;Node26 -->
<g id="edge30" class="edge">
<title>Node25&#45;&gt;Node26</title>
<path fill="none" stroke="midnightblue" d="M1128.5,-56.08C1128.5,-49.01 1128.5,-38.86 1128.5,-29.99"/>
<polygon fill="midnightblue" stroke="midnightblue" points="1132,-29.75 1128.5,-19.75 1125,-29.75 1132,-29.75"/>
</g>
<!-- Node27&#45;&gt;Node26 -->
<g id="edge32" class="edge">
<title>Node27&#45;&gt;Node26</title>
<path fill="none" stroke="midnightblue" d="M972.81,-56.44C1004.34,-47.24 1054.63,-32.56 1089.49,-22.39"/>
<polygon fill="midnightblue" stroke="midnightblue" points="1090.7,-25.68 1099.32,-19.52 1088.74,-18.96 1090.7,-25.68"/>
</g>
<!-- Node28&#45;&gt;Node25 -->
<g id="edge35" class="edge">
<title>Node28&#45;&gt;Node25</title>
<path fill="none" stroke="midnightblue" d="M1011,-112.4C1037.07,-102.33 1071.79,-88.91 1096.72,-79.28"/>
<polygon fill="midnightblue" stroke="midnightblue" points="1098.03,-82.53 1106.09,-75.66 1095.5,-76 1098.03,-82.53"/>
</g>
<!-- Node30&#45;&gt;Node9 -->
<g id="edge39" class="edge">
<title>Node30&#45;&gt;Node9</title>
<path fill="none" stroke="midnightblue" d="M886.95,-180.69C857.28,-172.28 820.13,-159.72 789.5,-143 758.96,-126.32 728.38,-99.63 710.46,-82.72"/>
<polygon fill="midnightblue" stroke="midnightblue" points="712.8,-80.12 703.16,-75.72 707.95,-85.17 712.8,-80.12"/>
</g>
<!-- Node30&#45;&gt;Node13 -->
<g id="edge38" class="edge">
<title>Node30&#45;&gt;Node13</title>
<path fill="none" stroke="midnightblue" d="M992.22,-183.67C1041.03,-174.27 1115.51,-159.17 1179.5,-143 1183.36,-142.03 1187.37,-140.95 1191.36,-139.83"/>
<polygon fill="midnightblue" stroke="midnightblue" points="1192.49,-143.15 1201.14,-137.02 1190.56,-136.42 1192.49,-143.15"/>
</g>
<!-- Node30&#45;&gt;Node24 -->
<g id="edge41" class="edge">
<title>Node30&#45;&gt;Node24</title>
<path fill="none" stroke="midnightblue" d="M972.48,-179.4C999.27,-167.94 1036.69,-151.94 1062.38,-140.95"/>
<polygon fill="midnightblue" stroke="midnightblue" points="1063.79,-144.16 1071.61,-137.01 1061.04,-137.72 1063.79,-144.16"/>
</g>
<!-- Node30&#45;&gt;Node25 -->
<g id="edge40" class="edge">
<title>Node30&#45;&gt;Node25</title>
<path fill="none" stroke="midnightblue" d="M992.23,-187.99C1047.11,-181.04 1127.65,-167 1146.5,-143 1159.8,-126.06 1149.67,-100.89 1140.06,-84.22"/>
<polygon fill="midnightblue" stroke="midnightblue" points="1142.9,-82.15 1134.65,-75.51 1136.96,-85.85 1142.9,-82.15"/>
</g>
<!-- Node30&#45;&gt;Node29 -->
<g id="edge45" class="edge">
<title>Node30&#45;&gt;Node29</title>
<path fill="none" stroke="midnightblue" d="M886.75,-181.07C883.62,-180.36 880.52,-179.67 877.5,-179 806.84,-163.37 724.26,-146.42 676.13,-136.67"/>
<polygon fill="midnightblue" stroke="midnightblue" points="676.61,-133.19 666.11,-134.64 675.22,-140.06 676.61,-133.19"/>
</g>
<!-- Node31 -->
<g id="node31" class="node">
<title>Node31</title>
<g id="a_node31"><a xlink:href="_socket_writer_8h.html" target="_top" xlink:title=" ">
<polygon fill="white" stroke="black" points="799,-112.5 799,-142.5 904,-142.5 904,-112.5 799,-112.5"/>
<text text-anchor="start" x="807" y="-130.5" font-family="Helvetica,sans-Serif" font-size="10.00">socket/sock_stream</text>
<text text-anchor="middle" x="851.5" y="-119.5" font-family="Helvetica,sans-Serif" font-size="10.00">/SocketWriter.h</text>
</a>
</g>
</g>
<!-- Node30&#45;&gt;Node31 -->
<g id="edge42" class="edge">
<title>Node30&#45;&gt;Node31</title>
<path fill="none" stroke="midnightblue" d="M920.41,-179.4C908.18,-170.37 892.13,-158.51 878.6,-148.52"/>
<polygon fill="midnightblue" stroke="midnightblue" points="880.68,-145.7 870.56,-142.58 876.52,-151.33 880.68,-145.7"/>
</g>
<!-- Node31&#45;&gt;Node9 -->
<g id="edge43" class="edge">
<title>Node31&#45;&gt;Node9</title>
<path fill="none" stroke="midnightblue" d="M814.29,-112.4C787.72,-102.33 752.31,-88.91 726.89,-79.28"/>
<polygon fill="midnightblue" stroke="midnightblue" points="727.94,-75.93 717.34,-75.66 725.46,-82.47 727.94,-75.93"/>
</g>
<!-- Node31&#45;&gt;Node27 -->
<g id="edge44" class="edge">
<title>Node31&#45;&gt;Node27</title>
<path fill="none" stroke="midnightblue" d="M873.3,-112.4C887.91,-102.95 907.07,-90.56 921.68,-81.11"/>
<polygon fill="midnightblue" stroke="midnightblue" points="923.62,-84.03 930.11,-75.66 919.82,-78.15 923.62,-84.03"/>
</g>
<!-- Node32&#45;&gt;Node14 -->
<g id="edge51" class="edge">
<title>Node32&#45;&gt;Node14</title>
<path fill="none" stroke="midnightblue" d="M1352.61,-246.4C1342.54,-236.16 1328.88,-222.3 1318.37,-211.62"/>
<polygon fill="midnightblue" stroke="midnightblue" points="1320.57,-208.86 1311.06,-204.19 1315.58,-213.78 1320.57,-208.86"/>
</g>
<!-- Node32&#45;&gt;Node25 -->
<g id="edge50" class="edge">
<title>Node32&#45;&gt;Node25</title>
<path fill="none" stroke="midnightblue" d="M1419.22,-252.3C1444.36,-245.46 1472.23,-232.92 1487.5,-210 1495.14,-198.53 1493.04,-191.61 1487.5,-179 1469.78,-138.68 1454.17,-131.13 1414.5,-112 1344.52,-78.26 1254.79,-68.86 1194.67,-66.7"/>
<polygon fill="midnightblue" stroke="midnightblue" points="1194.64,-63.2 1184.54,-66.4 1194.43,-70.2 1194.64,-63.2"/>
</g>
<!-- Node33 -->
<g id="node33" class="node">
<title>Node33</title>
<g id="a_node33"><a xlink:href="_connect_event_receiver_8h.html" target="_top" xlink:title=" ">
<polygon fill="white" stroke="black" points="1360,-56.5 1360,-75.5 1485,-75.5 1485,-56.5 1360,-56.5"/>
<text text-anchor="middle" x="1422.5" y="-63.5" font-family="Helvetica,sans-Serif" font-size="10.00">ConnectEventReceiver.h</text>
</a>
</g>
</g>
<!-- Node32&#45;&gt;Node33 -->
<g id="edge48" class="edge">
<title>Node32&#45;&gt;Node33</title>
<path fill="none" stroke="midnightblue" d="M1419.17,-258.49C1454.36,-254.08 1498.31,-241.95 1521.5,-210 1547.09,-174.75 1545.08,-148.62 1521.5,-112 1511.19,-95.99 1493.65,-85.62 1476.17,-78.92"/>
<polygon fill="midnightblue" stroke="midnightblue" points="1477.1,-75.54 1466.51,-75.56 1474.8,-82.15 1477.1,-75.54"/>
</g>
<!-- Node33&#45;&gt;Node26 -->
<g id="edge49" class="edge">
<title>Node33&#45;&gt;Node26</title>
<path fill="none" stroke="midnightblue" d="M1375.91,-56.44C1323.63,-46.84 1238.89,-31.28 1183.42,-21.09"/>
<polygon fill="midnightblue" stroke="midnightblue" points="1183.89,-17.61 1173.42,-19.25 1182.62,-24.5 1183.89,-17.61"/>
</g>
<!-- Node34&#45;&gt;Node32 -->
<g id="edge54" class="edge">
<title>Node34&#45;&gt;Node32</title>
<path fill="none" stroke="midnightblue" d="M1351.62,-313.4C1353.94,-305.47 1356.89,-295.38 1359.55,-286.27"/>
<polygon fill="midnightblue" stroke="midnightblue" points="1362.94,-287.16 1362.39,-276.58 1356.22,-285.19 1362.94,-287.16"/>
</g>
<!-- Node35&#45;&gt;Node11 -->
<g id="edge56" class="edge">
<title>Node35&#45;&gt;Node11</title>
<path fill="none" stroke="midnightblue" d="M1140.32,-447.4C1142.21,-437.96 1144.71,-425.45 1146.76,-415.19"/>
<polygon fill="midnightblue" stroke="midnightblue" points="1150.23,-415.69 1148.76,-405.19 1143.37,-414.31 1150.23,-415.69"/>
</g>
<!-- Node35&#45;&gt;Node17 -->
<g id="edge62" class="edge">
<title>Node35&#45;&gt;Node17</title>
<path fill="none" stroke="midnightblue" d="M1109.73,-447.4C1091.11,-437.94 1066.39,-425.39 1046.16,-415.12"/>
<polygon fill="midnightblue" stroke="midnightblue" points="1047.72,-411.98 1037.22,-410.58 1044.55,-418.23 1047.72,-411.98"/>
</g>
<!-- Node36 -->
<g id="node36" class="node">
<title>Node36</title>
<g id="a_node36"><a xlink:href="ip_2tcp_2ipv6_2_socket_8h.html" target="_top" xlink:title=" ">
<polygon fill="white" stroke="black" points="1201.5,-246.5 1201.5,-276.5 1295.5,-276.5 1295.5,-246.5 1201.5,-246.5"/>
<text text-anchor="start" x="1209.5" y="-264.5" font-family="Helvetica,sans-Serif" font-size="10.00">socket/ip/tcp/ipv6</text>
<text text-anchor="middle" x="1248.5" y="-253.5" font-family="Helvetica,sans-Serif" font-size="10.00">/Socket.h</text>
</a>
</g>
</g>
<!-- Node35&#45;&gt;Node36 -->
<g id="edge57" class="edge">
<title>Node35&#45;&gt;Node36</title>
<path fill="none" stroke="midnightblue" d="M1181.65,-447.34C1199.3,-439.43 1218.11,-427.71 1229.5,-411 1255.03,-373.53 1254.59,-318.18 1251.72,-286.71"/>
<polygon fill="midnightblue" stroke="midnightblue" points="1255.18,-286.21 1250.64,-276.64 1248.22,-286.96 1255.18,-286.21"/>
</g>
<!-- Node36&#45;&gt;Node13 -->
<g id="edge58" class="edge">
<title>Node36&#45;&gt;Node13</title>
<path fill="none" stroke="midnightblue" d="M1246.36,-246.37C1242.73,-222.4 1235.36,-173.75 1231.31,-147.06"/>
<polygon fill="midnightblue" stroke="midnightblue" points="1234.76,-146.46 1229.8,-137.1 1227.84,-147.51 1234.76,-146.46"/>
</g>
<!-- Node36&#45;&gt;Node14 -->
<g id="edge59" class="edge">
<title>Node36&#45;&gt;Node14</title>
<path fill="none" stroke="midnightblue" d="M1260.22,-246.4C1268.64,-236.26 1280.01,-222.57 1288.84,-211.94"/>
<polygon fill="midnightblue" stroke="midnightblue" points="1291.58,-214.12 1295.28,-204.19 1286.19,-209.65 1291.58,-214.12"/>
</g>
<!-- Node37 -->
<g id="node37" class="node">
<title>Node37</title>
<g id="a_node37"><a xlink:href="ipv6_2_inet_address_8h.html" target="_top" xlink:title=" ">
<polygon fill="white" stroke="black" points="1364,-179.5 1364,-209.5 1479,-209.5 1479,-179.5 1364,-179.5"/>
<text text-anchor="start" x="1372" y="-197.5" font-family="Helvetica,sans-Serif" font-size="10.00">socket/ip/address/ipv6</text>
<text text-anchor="middle" x="1421.5" y="-186.5" font-family="Helvetica,sans-Serif" font-size="10.00">/InetAddress.h</text>
</a>
</g>
</g>
<!-- Node36&#45;&gt;Node37 -->
<g id="edge60" class="edge">
<title>Node36&#45;&gt;Node37</title>
<path fill="none" stroke="midnightblue" d="M1286.04,-246.4C1312,-236.64 1346.72,-223.59 1374.52,-213.15"/>
<polygon fill="midnightblue" stroke="midnightblue" points="1375.9,-216.37 1384.03,-209.58 1373.44,-209.82 1375.9,-216.37"/>
</g>
<!-- Node37&#45;&gt;Node15 -->
<g id="edge61" class="edge">
<title>Node37&#45;&gt;Node15</title>
<path fill="none" stroke="midnightblue" d="M1404.58,-179.4C1391.93,-168.86 1374.67,-154.48 1361.73,-143.69"/>
<polygon fill="midnightblue" stroke="midnightblue" points="1363.86,-140.91 1353.93,-137.19 1359.38,-146.29 1363.86,-140.91"/>
</g>
</g>
</svg>
