<?xml version="1.0" encoding="UTF-8" standalone="no"?>
<!DOCTYPE svg PUBLIC "-//W3C//DTD SVG 1.1//EN"
 "http://www.w3.org/Graphics/SVG/1.1/DTD/svg11.dtd">
<!-- Generated by graphviz version 2.43.0 (0)
 -->
<!-- Title: net/socket/sock_stream/tls/SocketConnector.h Pages: 1 -->
<svg width="1175pt" height="352pt"
 viewBox="0.00 0.00 1174.50 352.00" xmlns="http://www.w3.org/2000/svg" xmlns:xlink="http://www.w3.org/1999/xlink">
<g id="graph0" class="graph" transform="scale(1 1) rotate(0) translate(4 348)">
<title>net/socket/sock_stream/tls/SocketConnector.h</title>
<polygon fill="white" stroke="transparent" points="-4,4 -4,-348 1170.5,-348 1170.5,4 -4,4"/>
<!-- Node1 -->
<g id="node1" class="node">
<title>Node1</title>
<g id="a_node1"><a xlink:title=" ">
<polygon fill="#bfbfbf" stroke="black" points="328,-313.5 328,-343.5 450,-343.5 450,-313.5 328,-313.5"/>
<text text-anchor="start" x="336" y="-331.5" font-family="Helvetica,sans-Serif" font-size="10.00">net/socket/sock_stream</text>
<text text-anchor="middle" x="389" y="-320.5" font-family="Helvetica,sans-Serif" font-size="10.00">/tls/SocketConnector.h</text>
</a>
</g>
</g>
<!-- Node2 -->
<g id="node2" class="node">
<title>Node2</title>
<g id="a_node2"><a xlink:href="_logger_8h.html" target="_top" xlink:title=" ">
<polygon fill="white" stroke="black" points="215.5,-56.5 215.5,-75.5 268.5,-75.5 268.5,-56.5 215.5,-56.5"/>
<text text-anchor="middle" x="242" y="-63.5" font-family="Helvetica,sans-Serif" font-size="10.00">Logger.h</text>
</a>
</g>
</g>
<!-- Node1&#45;&gt;Node2 -->
<g id="edge1" class="edge">
<title>Node1&#45;&gt;Node2</title>
<path fill="none" stroke="midnightblue" d="M358.36,-313.37C340.97,-304.45 319.47,-291.82 303,-277 247.96,-227.47 227.16,-213.33 204,-143 199.69,-129.91 199.27,-124.94 204,-112 208.06,-100.91 216.19,-90.67 223.89,-82.76"/>
<polygon fill="midnightblue" stroke="midnightblue" points="226.47,-85.14 231.29,-75.7 221.64,-80.07 226.47,-85.14"/>
</g>
<!-- Node3 -->
<g id="node3" class="node">
<title>Node3</title>
<g id="a_node3"><a xlink:href="tls_2_socket_connection_8h.html" target="_top" xlink:title=" ">
<polygon fill="white" stroke="black" points="336.5,-252 336.5,-271 441.5,-271 441.5,-252 336.5,-252"/>
<text text-anchor="middle" x="389" y="-259" font-family="Helvetica,sans-Serif" font-size="10.00">SocketConnection.h</text>
</a>
</g>
</g>
<!-- Node1&#45;&gt;Node3 -->
<g id="edge2" class="edge">
<title>Node1&#45;&gt;Node3</title>
<path fill="none" stroke="midnightblue" d="M389,-313.4C389,-304.06 389,-291.71 389,-281.52"/>
<polygon fill="midnightblue" stroke="midnightblue" points="392.5,-281.19 389,-271.19 385.5,-281.19 392.5,-281.19"/>
</g>
<!-- Node9 -->
<g id="node9" class="node">
<title>Node9</title>
<g id="a_node9"><a xlink:href="_t_l_s_handshake_8h.html" target="_top" xlink:title=" ">
<polygon fill="white" stroke="black" points="540,-118 540,-137 632,-137 632,-118 540,-118"/>
<text text-anchor="middle" x="586" y="-125" font-family="Helvetica,sans-Serif" font-size="10.00">TLSHandshake.h</text>
</a>
</g>
</g>
<!-- Node1&#45;&gt;Node9 -->
<g id="edge29" class="edge">
<title>Node1&#45;&gt;Node9</title>
<path fill="none" stroke="midnightblue" d="M429.56,-313.48C472.85,-296.25 539.83,-262.67 574,-210 586.2,-191.2 587.96,-164.89 587.49,-147.3"/>
<polygon fill="midnightblue" stroke="midnightblue" points="590.98,-146.96 586.95,-137.16 583.99,-147.34 590.98,-146.96"/>
</g>
<!-- Node15 -->
<g id="node15" class="node">
<title>Node15</title>
<g id="a_node15"><a xlink:href="ssl__utils_8h.html" target="_top" xlink:title=" ">
<polygon fill="white" stroke="black" points="222.5,-118 222.5,-137 283.5,-137 283.5,-118 222.5,-118"/>
<text text-anchor="middle" x="253" y="-125" font-family="Helvetica,sans-Serif" font-size="10.00">ssl_utils.h</text>
</a>
</g>
</g>
<!-- Node1&#45;&gt;Node15 -->
<g id="edge37" class="edge">
<title>Node1&#45;&gt;Node15</title>
<path fill="none" stroke="midnightblue" d="M367.9,-313.42C355.18,-304.17 339.32,-291.19 328,-277 294.63,-235.18 270.28,-176.12 259.37,-146.67"/>
<polygon fill="midnightblue" stroke="midnightblue" points="262.66,-145.47 255.97,-137.25 256.07,-147.85 262.66,-145.47"/>
</g>
<!-- Node19 -->
<g id="node19" class="node">
<title>Node19</title>
<g id="a_node19"><a xlink:href="_socket_connector_8h.html" target="_top" xlink:title=" ">
<polygon fill="white" stroke="black" points="915.5,-246.5 915.5,-276.5 1020.5,-276.5 1020.5,-246.5 915.5,-246.5"/>
<text text-anchor="start" x="923.5" y="-264.5" font-family="Helvetica,sans-Serif" font-size="10.00">socket/sock_stream</text>
<text text-anchor="middle" x="968" y="-253.5" font-family="Helvetica,sans-Serif" font-size="10.00">/SocketConnector.h</text>
</a>
</g>
</g>
<!-- Node1&#45;&gt;Node19 -->
<g id="edge30" class="edge">
<title>Node1&#45;&gt;Node19</title>
<path fill="none" stroke="midnightblue" d="M450.14,-320.64C560.78,-308.22 793.11,-282.13 905.06,-269.57"/>
<polygon fill="midnightblue" stroke="midnightblue" points="905.64,-273.02 915.18,-268.43 904.86,-266.07 905.64,-273.02"/>
</g>
<!-- Node4 -->
<g id="node4" class="node">
<title>Node4</title>
<g id="a_node4"><a xlink:href="_socket_connection_8h.html" target="_top" xlink:title=" ">
<polygon fill="white" stroke="black" points="15,-179.5 15,-209.5 123,-209.5 123,-179.5 15,-179.5"/>
<text text-anchor="start" x="23" y="-197.5" font-family="Helvetica,sans-Serif" font-size="10.00">socket/sock_stream</text>
<text text-anchor="middle" x="69" y="-186.5" font-family="Helvetica,sans-Serif" font-size="10.00">/SocketConnection.h</text>
</a>
</g>
</g>
<!-- Node3&#45;&gt;Node4 -->
<g id="edge3" class="edge">
<title>Node3&#45;&gt;Node4</title>
<path fill="none" stroke="midnightblue" d="M346.84,-251.94C292.22,-240.84 196.51,-221.4 132.94,-208.49"/>
<polygon fill="midnightblue" stroke="midnightblue" points="133.52,-205.03 123.02,-206.47 132.12,-211.89 133.52,-205.03"/>
</g>
<!-- Node7 -->
<g id="node7" class="node">
<title>Node7</title>
<g id="a_node7"><a xlink:href="tls_2_socket_reader_8h.html" target="_top" xlink:title=" ">
<polygon fill="white" stroke="black" points="459.5,-179.5 459.5,-209.5 564.5,-209.5 564.5,-179.5 459.5,-179.5"/>
<text text-anchor="start" x="467.5" y="-197.5" font-family="Helvetica,sans-Serif" font-size="10.00">socket/sock_stream</text>
<text text-anchor="middle" x="512" y="-186.5" font-family="Helvetica,sans-Serif" font-size="10.00">/tls/SocketReader.h</text>
</a>
</g>
</g>
<!-- Node3&#45;&gt;Node7 -->
<g id="edge6" class="edge">
<title>Node3&#45;&gt;Node7</title>
<path fill="none" stroke="midnightblue" d="M405.33,-251.87C423.33,-242.36 452.84,-226.77 476.26,-214.39"/>
<polygon fill="midnightblue" stroke="midnightblue" points="478.01,-217.42 485.22,-209.65 474.74,-211.23 478.01,-217.42"/>
</g>
<!-- Node16 -->
<g id="node16" class="node">
<title>Node16</title>
<g id="a_node16"><a xlink:href="tls_2_socket_writer_8h.html" target="_top" xlink:title=" ">
<polygon fill="white" stroke="black" points="336.5,-179.5 336.5,-209.5 441.5,-209.5 441.5,-179.5 336.5,-179.5"/>
<text text-anchor="start" x="344.5" y="-197.5" font-family="Helvetica,sans-Serif" font-size="10.00">socket/sock_stream</text>
<text text-anchor="middle" x="389" y="-186.5" font-family="Helvetica,sans-Serif" font-size="10.00">/tls/SocketWriter.h</text>
</a>
</g>
</g>
<!-- Node3&#45;&gt;Node16 -->
<g id="edge19" class="edge">
<title>Node3&#45;&gt;Node16</title>
<path fill="none" stroke="midnightblue" d="M389,-251.73C389,-243.54 389,-230.92 389,-219.71"/>
<polygon fill="midnightblue" stroke="midnightblue" points="392.5,-219.59 389,-209.59 385.5,-219.59 392.5,-219.59"/>
</g>
<!-- Node5 -->
<g id="node5" class="node">
<title>Node5</title>
<g id="a_node5"><a xlink:href="_socket_connection_base_8h.html" target="_top" xlink:title=" ">
<polygon fill="white" stroke="black" points="0,-118 0,-137 128,-137 128,-118 0,-118"/>
<text text-anchor="middle" x="64" y="-125" font-family="Helvetica,sans-Serif" font-size="10.00">SocketConnectionBase.h</text>
</a>
</g>
</g>
<!-- Node4&#45;&gt;Node5 -->
<g id="edge4" class="edge">
<title>Node4&#45;&gt;Node5</title>
<path fill="none" stroke="midnightblue" d="M67.92,-179.4C67.19,-169.96 66.23,-157.45 65.44,-147.19"/>
<polygon fill="midnightblue" stroke="midnightblue" points="68.93,-146.9 64.67,-137.19 61.95,-147.43 68.93,-146.9"/>
</g>
<!-- Node6 -->
<g id="node6" class="node">
<title>Node6</title>
<g id="a_node6"><a xlink:href="_attribute_injector_8h.html" target="_top" xlink:title=" ">
<polygon fill="white" stroke="black" points="17.5,-56.5 17.5,-75.5 110.5,-75.5 110.5,-56.5 17.5,-56.5"/>
<text text-anchor="middle" x="64" y="-63.5" font-family="Helvetica,sans-Serif" font-size="10.00">AttributeInjector.h</text>
</a>
</g>
</g>
<!-- Node5&#45;&gt;Node6 -->
<g id="edge5" class="edge">
<title>Node5&#45;&gt;Node6</title>
<path fill="none" stroke="midnightblue" d="M64,-117.98C64,-109.58 64,-96.48 64,-85.66"/>
<polygon fill="midnightblue" stroke="midnightblue" points="67.5,-85.51 64,-75.51 60.5,-85.51 67.5,-85.51"/>
</g>
<!-- Node7&#45;&gt;Node2 -->
<g id="edge8" class="edge">
<title>Node7&#45;&gt;Node2</title>
<path fill="none" stroke="midnightblue" d="M459.43,-179.97C410.49,-167.17 343.44,-149.06 332,-143 323.92,-138.72 283.18,-103.3 259.37,-82.36"/>
<polygon fill="midnightblue" stroke="midnightblue" points="261.55,-79.62 251.74,-75.63 256.93,-84.87 261.55,-79.62"/>
</g>
<!-- Node8 -->
<g id="node8" class="node">
<title>Node8</title>
<g id="a_node8"><a xlink:href="_descriptor_8h.html" target="_top" xlink:title=" ">
<polygon fill="white" stroke="black" points="650.5,-118 650.5,-137 719.5,-137 719.5,-118 650.5,-118"/>
<text text-anchor="middle" x="685" y="-125" font-family="Helvetica,sans-Serif" font-size="10.00">Descriptor.h</text>
</a>
</g>
</g>
<!-- Node7&#45;&gt;Node8 -->
<g id="edge7" class="edge">
<title>Node7&#45;&gt;Node8</title>
<path fill="none" stroke="midnightblue" d="M549.54,-179.4C580.3,-167.84 623.37,-151.66 652.63,-140.66"/>
<polygon fill="midnightblue" stroke="midnightblue" points="654.23,-143.8 662.36,-137.01 651.77,-137.25 654.23,-143.8"/>
</g>
<!-- Node7&#45;&gt;Node9 -->
<g id="edge9" class="edge">
<title>Node7&#45;&gt;Node9</title>
<path fill="none" stroke="midnightblue" d="M528.06,-179.4C539.94,-168.96 556.11,-154.75 568.36,-144"/>
<polygon fill="midnightblue" stroke="midnightblue" points="570.9,-146.42 576.1,-137.19 566.28,-141.16 570.9,-146.42"/>
</g>
<!-- Node12 -->
<g id="node12" class="node">
<title>Node12</title>
<g id="a_node12"><a xlink:href="_write_event_receiver_8h.html" target="_top" xlink:title=" ">
<polygon fill="white" stroke="black" points="470.5,-56.5 470.5,-75.5 581.5,-75.5 581.5,-56.5 470.5,-56.5"/>
<text text-anchor="middle" x="526" y="-63.5" font-family="Helvetica,sans-Serif" font-size="10.00">WriteEventReceiver.h</text>
</a>
</g>
</g>
<!-- Node7&#45;&gt;Node12 -->
<g id="edge14" class="edge">
<title>Node7&#45;&gt;Node12</title>
<path fill="none" stroke="midnightblue" d="M513.55,-179.48C516.07,-156.72 521.05,-111.7 523.89,-86.06"/>
<polygon fill="midnightblue" stroke="midnightblue" points="527.41,-86.11 525.03,-75.79 520.45,-85.34 527.41,-86.11"/>
</g>
<!-- Node13 -->
<g id="node13" class="node">
<title>Node13</title>
<g id="a_node13"><a xlink:href="_socket_reader_8h.html" target="_top" xlink:title=" ">
<polygon fill="white" stroke="black" points="737.5,-112.5 737.5,-142.5 842.5,-142.5 842.5,-112.5 737.5,-112.5"/>
<text text-anchor="start" x="745.5" y="-130.5" font-family="Helvetica,sans-Serif" font-size="10.00">socket/sock_stream</text>
<text text-anchor="middle" x="790" y="-119.5" font-family="Helvetica,sans-Serif" font-size="10.00">/SocketReader.h</text>
</a>
</g>
</g>
<!-- Node7&#45;&gt;Node13 -->
<g id="edge15" class="edge">
<title>Node7&#45;&gt;Node13</title>
<path fill="none" stroke="midnightblue" d="M564.64,-181.32C606.36,-171.66 666.42,-157.7 727.6,-143.32"/>
<polygon fill="midnightblue" stroke="midnightblue" points="728.5,-146.71 737.43,-141.01 726.9,-139.89 728.5,-146.71"/>
</g>
<!-- Node7&#45;&gt;Node15 -->
<g id="edge18" class="edge">
<title>Node7&#45;&gt;Node15</title>
<path fill="none" stroke="midnightblue" d="M459.43,-181C456.58,-180.32 453.75,-179.65 451,-179 383.02,-162.92 365.3,-161.73 298,-143 294.84,-142.12 291.56,-141.16 288.29,-140.17"/>
<polygon fill="midnightblue" stroke="midnightblue" points="289.18,-136.78 278.59,-137.14 287.1,-143.46 289.18,-136.78"/>
</g>
<!-- Node10 -->
<g id="node10" class="node">
<title>Node10</title>
<g id="a_node10"><a xlink:href="_read_event_receiver_8h.html" target="_top" xlink:title=" ">
<polygon fill="white" stroke="black" points="601,-56.5 601,-75.5 713,-75.5 713,-56.5 601,-56.5"/>
<text text-anchor="middle" x="657" y="-63.5" font-family="Helvetica,sans-Serif" font-size="10.00">ReadEventReceiver.h</text>
</a>
</g>
</g>
<!-- Node9&#45;&gt;Node10 -->
<g id="edge10" class="edge">
<title>Node9&#45;&gt;Node10</title>
<path fill="none" stroke="midnightblue" d="M596.17,-117.98C607.35,-108.61 625.52,-93.38 639.09,-82.01"/>
<polygon fill="midnightblue" stroke="midnightblue" points="641.43,-84.61 646.85,-75.51 636.93,-79.25 641.43,-84.61"/>
</g>
<!-- Node9&#45;&gt;Node12 -->
<g id="edge12" class="edge">
<title>Node9&#45;&gt;Node12</title>
<path fill="none" stroke="midnightblue" d="M577.4,-117.98C568.14,-108.78 553.18,-93.96 541.79,-82.66"/>
<polygon fill="midnightblue" stroke="midnightblue" points="544.15,-80.07 534.58,-75.51 539.22,-85.04 544.15,-80.07"/>
</g>
<!-- Node11 -->
<g id="node11" class="node">
<title>Node11</title>
<g id="a_node11"><a xlink:href="_event_receiver_8h.html" target="_top" xlink:title=" ">
<polygon fill="white" stroke="black" points="612.5,-0.5 612.5,-19.5 701.5,-19.5 701.5,-0.5 612.5,-0.5"/>
<text text-anchor="middle" x="657" y="-7.5" font-family="Helvetica,sans-Serif" font-size="10.00">EventReceiver.h</text>
</a>
</g>
</g>
<!-- Node10&#45;&gt;Node11 -->
<g id="edge11" class="edge">
<title>Node10&#45;&gt;Node11</title>
<path fill="none" stroke="midnightblue" d="M657,-56.08C657,-49.01 657,-38.86 657,-29.99"/>
<polygon fill="midnightblue" stroke="midnightblue" points="660.5,-29.75 657,-19.75 653.5,-29.75 660.5,-29.75"/>
</g>
<!-- Node12&#45;&gt;Node11 -->
<g id="edge13" class="edge">
<title>Node12&#45;&gt;Node11</title>
<path fill="none" stroke="midnightblue" d="M546.76,-56.44C568.32,-47.56 602.26,-33.56 626.79,-23.45"/>
<polygon fill="midnightblue" stroke="midnightblue" points="628.43,-26.56 636.34,-19.52 625.76,-20.09 628.43,-26.56"/>
</g>
<!-- Node13&#45;&gt;Node10 -->
<g id="edge16" class="edge">
<title>Node13&#45;&gt;Node10</title>
<path fill="none" stroke="midnightblue" d="M758.48,-112.4C736.36,-102.51 707.03,-89.38 685.59,-79.79"/>
<polygon fill="midnightblue" stroke="midnightblue" points="686.91,-76.55 676.35,-75.66 684.05,-82.94 686.91,-76.55"/>
</g>
<!-- Node14 -->
<g id="node14" class="node">
<title>Node14</title>
<g id="a_node14"><a xlink:href="_read_stream_8h.html" target="_top" xlink:title=" ">
<polygon fill="white" stroke="black" points="731,-56.5 731,-75.5 849,-75.5 849,-56.5 731,-56.5"/>
<text text-anchor="middle" x="790" y="-63.5" font-family="Helvetica,sans-Serif" font-size="10.00">streams/ReadStream.h</text>
</a>
</g>
</g>
<!-- Node13&#45;&gt;Node14 -->
<g id="edge17" class="edge">
<title>Node13&#45;&gt;Node14</title>
<path fill="none" stroke="midnightblue" d="M790,-112.4C790,-104.47 790,-94.46 790,-85.86"/>
<polygon fill="midnightblue" stroke="midnightblue" points="793.5,-85.66 790,-75.66 786.5,-85.66 793.5,-85.66"/>
</g>
<!-- Node16&#45;&gt;Node2 -->
<g id="edge21" class="edge">
<title>Node16&#45;&gt;Node2</title>
<path fill="none" stroke="midnightblue" d="M336.24,-185.47C290.01,-177.22 227.92,-162.8 213,-143 199.4,-124.94 214.15,-99.75 227.11,-83.4"/>
<polygon fill="midnightblue" stroke="midnightblue" points="229.8,-85.65 233.57,-75.75 224.44,-81.14 229.8,-85.65"/>
</g>
<!-- Node16&#45;&gt;Node8 -->
<g id="edge20" class="edge">
<title>Node16&#45;&gt;Node8</title>
<path fill="none" stroke="midnightblue" d="M441.73,-181.01C444.86,-180.31 447.97,-179.64 451,-179 535.09,-161.21 557.78,-164.5 641,-143 644.37,-142.13 647.86,-141.14 651.34,-140.09"/>
<polygon fill="midnightblue" stroke="midnightblue" points="652.48,-143.4 660.96,-137.05 650.37,-136.73 652.48,-143.4"/>
</g>
<!-- Node16&#45;&gt;Node9 -->
<g id="edge23" class="edge">
<title>Node16&#45;&gt;Node9</title>
<path fill="none" stroke="midnightblue" d="M431.75,-179.4C467.23,-167.69 517.11,-151.23 550.44,-140.23"/>
<polygon fill="midnightblue" stroke="midnightblue" points="551.82,-143.46 560.22,-137.01 549.62,-136.82 551.82,-143.46"/>
</g>
<!-- Node16&#45;&gt;Node10 -->
<g id="edge22" class="edge">
<title>Node16&#45;&gt;Node10</title>
<path fill="none" stroke="midnightblue" d="M410.97,-179.24C438.33,-161.88 486.86,-132.35 531,-112 559.77,-98.73 593.65,-86.83 619.03,-78.6"/>
<polygon fill="midnightblue" stroke="midnightblue" points="620.19,-81.9 628.65,-75.53 618.06,-75.24 620.19,-81.9"/>
</g>
<!-- Node16&#45;&gt;Node15 -->
<g id="edge28" class="edge">
<title>Node16&#45;&gt;Node15</title>
<path fill="none" stroke="midnightblue" d="M359.49,-179.4C335.84,-168.09 302.92,-152.36 279.97,-141.39"/>
<polygon fill="midnightblue" stroke="midnightblue" points="281.33,-138.16 270.8,-137.01 278.31,-144.48 281.33,-138.16"/>
</g>
<!-- Node17 -->
<g id="node17" class="node">
<title>Node17</title>
<g id="a_node17"><a xlink:href="_socket_writer_8h.html" target="_top" xlink:title=" ">
<polygon fill="white" stroke="black" points="340.5,-112.5 340.5,-142.5 445.5,-142.5 445.5,-112.5 340.5,-112.5"/>
<text text-anchor="start" x="348.5" y="-130.5" font-family="Helvetica,sans-Serif" font-size="10.00">socket/sock_stream</text>
<text text-anchor="middle" x="393" y="-119.5" font-family="Helvetica,sans-Serif" font-size="10.00">/SocketWriter.h</text>
</a>
</g>
</g>
<!-- Node16&#45;&gt;Node17 -->
<g id="edge24" class="edge">
<title>Node16&#45;&gt;Node17</title>
<path fill="none" stroke="midnightblue" d="M389.87,-179.4C390.35,-171.56 390.96,-161.6 391.52,-152.57"/>
<polygon fill="midnightblue" stroke="midnightblue" points="395.01,-152.77 392.13,-142.58 388.03,-152.34 395.01,-152.77"/>
</g>
<!-- Node17&#45;&gt;Node2 -->
<g id="edge25" class="edge">
<title>Node17&#45;&gt;Node2</title>
<path fill="none" stroke="midnightblue" d="M357.22,-112.4C331.77,-102.37 297.9,-89.03 273.48,-79.4"/>
<polygon fill="midnightblue" stroke="midnightblue" points="274.56,-76.07 263.97,-75.66 271.99,-82.58 274.56,-76.07"/>
</g>
<!-- Node17&#45;&gt;Node12 -->
<g id="edge26" class="edge">
<title>Node17&#45;&gt;Node12</title>
<path fill="none" stroke="midnightblue" d="M424.52,-112.4C446.64,-102.51 475.97,-89.38 497.41,-79.79"/>
<polygon fill="midnightblue" stroke="midnightblue" points="498.95,-82.94 506.65,-75.66 496.09,-76.55 498.95,-82.94"/>
</g>
<!-- Node18 -->
<g id="node18" class="node">
<title>Node18</title>
<g id="a_node18"><a xlink:href="_write_stream_8h.html" target="_top" xlink:title=" ">
<polygon fill="white" stroke="black" points="334.5,-56.5 334.5,-75.5 451.5,-75.5 451.5,-56.5 334.5,-56.5"/>
<text text-anchor="middle" x="393" y="-63.5" font-family="Helvetica,sans-Serif" font-size="10.00">streams/WriteStream.h</text>
</a>
</g>
</g>
<!-- Node17&#45;&gt;Node18 -->
<g id="edge27" class="edge">
<title>Node17&#45;&gt;Node18</title>
<path fill="none" stroke="midnightblue" d="M393,-112.4C393,-104.47 393,-94.46 393,-85.86"/>
<polygon fill="midnightblue" stroke="midnightblue" points="396.5,-85.66 393,-75.66 389.5,-85.66 396.5,-85.66"/>
</g>
<!-- Node19&#45;&gt;Node10 -->
<g id="edge33" class="edge">
<title>Node19&#45;&gt;Node10</title>
<path fill="none" stroke="midnightblue" d="M977.19,-246.21C994.61,-217.13 1027.81,-150.58 994,-112 955.62,-68.21 797.55,-82.69 722.97,-75.89"/>
<polygon fill="midnightblue" stroke="midnightblue" points="723.34,-72.41 713.02,-74.78 722.57,-79.36 723.34,-72.41"/>
</g>
<!-- Node20 -->
<g id="node20" class="node">
<title>Node20</title>
<g id="a_node20"><a xlink:href="_connect_event_receiver_8h.html" target="_top" xlink:title=" ">
<polygon fill="white" stroke="black" points="1041.5,-185 1041.5,-204 1166.5,-204 1166.5,-185 1041.5,-185"/>
<text text-anchor="middle" x="1104" y="-192" font-family="Helvetica,sans-Serif" font-size="10.00">ConnectEventReceiver.h</text>
</a>
</g>
</g>
<!-- Node19&#45;&gt;Node20 -->
<g id="edge31" class="edge">
<title>Node19&#45;&gt;Node20</title>
<path fill="none" stroke="midnightblue" d="M997.51,-246.4C1021.16,-235.09 1054.08,-219.36 1077.03,-208.39"/>
<polygon fill="midnightblue" stroke="midnightblue" points="1078.69,-211.48 1086.2,-204.01 1075.67,-205.16 1078.69,-211.48"/>
</g>
<!-- Node21 -->
<g id="node21" class="node">
<title>Node21</title>
<g id="a_node21"><a xlink:href="_socket_8h.html" target="_top" xlink:title=" ">
<polygon fill="white" stroke="black" points="879,-185 879,-204 967,-204 967,-185 879,-185"/>
<text text-anchor="middle" x="923" y="-192" font-family="Helvetica,sans-Serif" font-size="10.00">socket/Socket.h</text>
</a>
</g>
</g>
<!-- Node19&#45;&gt;Node21 -->
<g id="edge34" class="edge">
<title>Node19&#45;&gt;Node21</title>
<path fill="none" stroke="midnightblue" d="M958.24,-246.4C951.36,-236.46 942.11,-223.11 934.82,-212.57"/>
<polygon fill="midnightblue" stroke="midnightblue" points="937.59,-210.42 929.02,-204.19 931.83,-214.41 937.59,-210.42"/>
</g>
<!-- Node20&#45;&gt;Node11 -->
<g id="edge32" class="edge">
<title>Node20&#45;&gt;Node11</title>
<path fill="none" stroke="midnightblue" d="M1096.45,-184.67C1081.98,-168.25 1048.71,-132.82 1014,-112 916.93,-53.78 784.9,-27.9 711.65,-17.39"/>
<polygon fill="midnightblue" stroke="midnightblue" points="712.1,-13.92 701.71,-16.01 711.14,-20.85 712.1,-13.92"/>
</g>
<!-- Node21&#45;&gt;Node8 -->
<g id="edge35" class="edge">
<title>Node21&#45;&gt;Node8</title>
<path fill="none" stroke="midnightblue" d="M887.41,-184.96C848.36,-175.42 783.92,-159.18 729,-143 726.01,-142.12 722.92,-141.17 719.82,-140.2"/>
<polygon fill="midnightblue" stroke="midnightblue" points="720.63,-136.79 710.04,-137.06 718.49,-143.45 720.63,-136.79"/>
</g>
<!-- Node22 -->
<g id="node22" class="node">
<title>Node22</title>
<g id="a_node22"><a xlink:href="_socket_address_8h.html" target="_top" xlink:title=" ">
<polygon fill="white" stroke="black" points="861,-118 861,-137 985,-137 985,-118 861,-118"/>
<text text-anchor="middle" x="923" y="-125" font-family="Helvetica,sans-Serif" font-size="10.00">socket/SocketAddress.h</text>
</a>
</g>
</g>
<!-- Node21&#45;&gt;Node22 -->
<g id="edge36" class="edge">
<title>Node21&#45;&gt;Node22</title>
<path fill="none" stroke="midnightblue" d="M923,-184.73C923,-175.18 923,-159.62 923,-147.28"/>
<polygon fill="midnightblue" stroke="midnightblue" points="926.5,-147.13 923,-137.13 919.5,-147.13 926.5,-147.13"/>
</g>
</g>
</svg>
