<?xml version="1.0" encoding="UTF-8" standalone="no"?>
<!DOCTYPE svg PUBLIC "-//W3C//DTD SVG 1.1//EN"
 "http://www.w3.org/Graphics/SVG/1.1/DTD/svg11.dtd">
<!-- Generated by graphviz version 2.43.0 (0)
 -->
<!-- Title: net/socket/sock_stream/tls/SocketListener.h Pages: 1 -->
<svg width="246pt" height="285pt"
 viewBox="0.00 0.00 246.00 285.00" xmlns="http://www.w3.org/2000/svg" xmlns:xlink="http://www.w3.org/1999/xlink">
<g id="graph0" class="graph" transform="scale(1 1) rotate(0) translate(4 281)">
<title>net/socket/sock_stream/tls/SocketListener.h</title>
<polygon fill="white" stroke="transparent" points="-4,4 -4,-281 242,-281 242,4 -4,4"/>
<!-- Node1 -->
<g id="node1" class="node">
<title>Node1</title>
<g id="a_node1"><a xlink:title=" ">
<polygon fill="#bfbfbf" stroke="black" points="58,-246.5 58,-276.5 180,-276.5 180,-246.5 58,-246.5"/>
<text text-anchor="start" x="66" y="-264.5" font-family="Helvetica,sans-Serif" font-size="10.00">net/socket/sock_stream</text>
<text text-anchor="middle" x="119" y="-253.5" font-family="Helvetica,sans-Serif" font-size="10.00">/tls/SocketListener.h</text>
</a>
</g>
</g>
<!-- Node2 -->
<g id="node2" class="node">
<title>Node2</title>
<g id="a_node2"><a xlink:href="sock__stream_2tls_2_socket_server_8h.html" target="_top" xlink:title=" ">
<polygon fill="white" stroke="black" points="58,-179.5 58,-209.5 180,-209.5 180,-179.5 58,-179.5"/>
<text text-anchor="start" x="66" y="-197.5" font-family="Helvetica,sans-Serif" font-size="10.00">net/socket/sock_stream</text>
<text text-anchor="middle" x="119" y="-186.5" font-family="Helvetica,sans-Serif" font-size="10.00">/tls/SocketServer.h</text>
</a>
</g>
</g>
<!-- Node1&#45;&gt;Node2 -->
<g id="edge1" class="edge">
<title>Node1&#45;&gt;Node2</title>
<path fill="none" stroke="midnightblue" d="M119,-236.11C119,-227.15 119,-217.32 119,-209.58"/>
<polygon fill="midnightblue" stroke="midnightblue" points="115.5,-236.4 119,-246.4 122.5,-236.4 115.5,-236.4"/>
</g>
<!-- Node3 -->
<g id="node3" class="node">
<title>Node3</title>
<g id="a_node3"><a xlink:href="ip_2tcp_2ipv4_2tls_2_socket_server_8h.html" target="_top" xlink:title=" ">
<polygon fill="white" stroke="black" points="0,-112.5 0,-142.5 110,-142.5 110,-112.5 0,-112.5"/>
<text text-anchor="start" x="8" y="-130.5" font-family="Helvetica,sans-Serif" font-size="10.00">net/socket/ip/tcp/ipv4</text>
<text text-anchor="middle" x="55" y="-119.5" font-family="Helvetica,sans-Serif" font-size="10.00">/tls/SocketServer.h</text>
</a>
</g>
</g>
<!-- Node2&#45;&gt;Node3 -->
<g id="edge2" class="edge">
<title>Node2&#45;&gt;Node3</title>
<path fill="none" stroke="midnightblue" d="M97.85,-172.02C88.32,-162.34 77.33,-151.17 68.86,-142.58"/>
<polygon fill="midnightblue" stroke="midnightblue" points="95.6,-174.73 105.11,-179.4 100.59,-169.81 95.6,-174.73"/>
</g>
<!-- Node6 -->
<g id="node6" class="node">
<title>Node6</title>
<g id="a_node6"><a xlink:href="ip_2tcp_2ipv6_2tls_2_socket_server_8h.html" target="_top" xlink:title=" ">
<polygon fill="white" stroke="black" points="128,-112.5 128,-142.5 238,-142.5 238,-112.5 128,-112.5"/>
<text text-anchor="start" x="136" y="-130.5" font-family="Helvetica,sans-Serif" font-size="10.00">net/socket/ip/tcp/ipv6</text>
<text text-anchor="middle" x="183" y="-119.5" font-family="Helvetica,sans-Serif" font-size="10.00">/tls/SocketServer.h</text>
</a>
</g>
</g>
<!-- Node2&#45;&gt;Node6 -->
<g id="edge5" class="edge">
<title>Node2&#45;&gt;Node6</title>
<path fill="none" stroke="midnightblue" d="M140.15,-172.02C149.68,-162.34 160.67,-151.17 169.14,-142.58"/>
<polygon fill="midnightblue" stroke="midnightblue" points="137.41,-169.81 132.89,-179.4 142.4,-174.73 137.41,-169.81"/>
</g>
<!-- Node4 -->
<g id="node4" class="node">
<title>Node4</title>
<g id="a_node4"><a xlink:href="tls_2_server_8h.html" target="_top" xlink:title=" ">
<polygon fill="white" stroke="black" points="76,-56.5 76,-75.5 162,-75.5 162,-56.5 76,-56.5"/>
<text text-anchor="middle" x="119" y="-63.5" font-family="Helvetica,sans-Serif" font-size="10.00">http/tls/Server.h</text>
</a>
</g>
</g>
<!-- Node3&#45;&gt;Node4 -->
<g id="edge3" class="edge">
<title>Node3&#45;&gt;Node4</title>
<path fill="none" stroke="midnightblue" d="M77.8,-105.3C88.79,-95.09 101.35,-83.41 109.69,-75.66"/>
<polygon fill="midnightblue" stroke="midnightblue" points="75.11,-103.03 70.17,-112.4 79.87,-108.15 75.11,-103.03"/>
</g>
<!-- Node5 -->
<g id="node5" class="node">
<title>Node5</title>
<g id="a_node5"><a xlink:href="tls_2_web_app_8h.html" target="_top" xlink:title=" ">
<polygon fill="white" stroke="black" points="62.5,-0.5 62.5,-19.5 175.5,-19.5 175.5,-0.5 62.5,-0.5"/>
<text text-anchor="middle" x="119" y="-7.5" font-family="Helvetica,sans-Serif" font-size="10.00">express/tls/WebApp.h</text>
</a>
</g>
</g>
<!-- Node4&#45;&gt;Node5 -->
<g id="edge4" class="edge">
<title>Node4&#45;&gt;Node5</title>
<path fill="none" stroke="midnightblue" d="M119,-45.8C119,-36.91 119,-26.78 119,-19.75"/>
<polygon fill="midnightblue" stroke="midnightblue" points="115.5,-46.08 119,-56.08 122.5,-46.08 115.5,-46.08"/>
</g>
<!-- Node6&#45;&gt;Node4 -->
<g id="edge6" class="edge">
<title>Node6&#45;&gt;Node4</title>
<path fill="none" stroke="midnightblue" d="M160.2,-105.3C149.21,-95.09 136.65,-83.41 128.31,-75.66"/>
<polygon fill="midnightblue" stroke="midnightblue" points="158.13,-108.15 167.83,-112.4 162.89,-103.03 158.13,-108.15"/>
</g>
</g>
</svg>
