<?xml version="1.0" encoding="UTF-8" standalone="no"?>
<!DOCTYPE svg PUBLIC "-//W3C//DTD SVG 1.1//EN"
 "http://www.w3.org/Graphics/SVG/1.1/DTD/svg11.dtd">
<!-- Generated by graphviz version 2.43.0 (0)
 -->
<!-- Title: express/tls/WebApp.h Pages: 1 -->
<svg width="1599pt" height="598pt"
 viewBox="0.00 0.00 1599.00 598.00" xmlns="http://www.w3.org/2000/svg" xmlns:xlink="http://www.w3.org/1999/xlink">
<g id="graph0" class="graph" transform="scale(1 1) rotate(0) translate(4 594)">
<title>express/tls/WebApp.h</title>
<polygon fill="white" stroke="transparent" points="-4,4 -4,-594 1595,-594 1595,4 -4,4"/>
<!-- Node1 -->
<g id="node1" class="node">
<title>Node1</title>
<g id="a_node1"><a xlink:title=" ">
<polygon fill="#bfbfbf" stroke="black" points="603,-570.5 603,-589.5 716,-589.5 716,-570.5 603,-570.5"/>
<text text-anchor="middle" x="659.5" y="-577.5" font-family="Helvetica,sans-Serif" font-size="10.00">express/tls/WebApp.h</text>
</a>
</g>
</g>
<!-- Node2 -->
<g id="node2" class="node">
<title>Node2</title>
<g id="a_node2"><a xlink:href="_web_app_t_8h.html" target="_top" xlink:title=" ">
<polygon fill="white" stroke="black" points="912.5,-386 912.5,-405 978.5,-405 978.5,-386 912.5,-386"/>
<text text-anchor="middle" x="945.5" y="-393" font-family="Helvetica,sans-Serif" font-size="10.00">WebAppT.h</text>
</a>
</g>
</g>
<!-- Node1&#45;&gt;Node2 -->
<g id="edge1" class="edge">
<title>Node1&#45;&gt;Node2</title>
<path fill="none" stroke="midnightblue" d="M672.91,-570.44C718.42,-541.4 867.24,-446.44 923.6,-410.48"/>
<polygon fill="midnightblue" stroke="midnightblue" points="925.57,-413.37 932.12,-405.04 921.81,-407.47 925.57,-413.37"/>
</g>
<!-- Node12 -->
<g id="node12" class="node">
<title>Node12</title>
<g id="a_node12"><a xlink:href="tls_2_server_8h.html" target="_top" xlink:title=" ">
<polygon fill="white" stroke="black" points="596.5,-514.5 596.5,-533.5 662.5,-533.5 662.5,-514.5 596.5,-514.5"/>
<text text-anchor="middle" x="629.5" y="-521.5" font-family="Helvetica,sans-Serif" font-size="10.00">tls/Server.h</text>
</a>
</g>
</g>
<!-- Node1&#45;&gt;Node12 -->
<g id="edge11" class="edge">
<title>Node1&#45;&gt;Node12</title>
<path fill="none" stroke="midnightblue" d="M654.55,-570.08C650.4,-562.61 644.35,-551.72 639.23,-542.52"/>
<polygon fill="midnightblue" stroke="midnightblue" points="642.28,-540.79 634.36,-533.75 636.16,-544.19 642.28,-540.79"/>
</g>
<!-- Node3 -->
<g id="node3" class="node">
<title>Node3</title>
<g id="a_node3"><a xlink:href="_logger_8h.html" target="_top" xlink:title=" ">
<polygon fill="white" stroke="black" points="991,-118 991,-137 1044,-137 1044,-118 991,-118"/>
<text text-anchor="middle" x="1017.5" y="-125" font-family="Helvetica,sans-Serif" font-size="10.00">Logger.h</text>
</a>
</g>
</g>
<!-- Node2&#45;&gt;Node3 -->
<g id="edge2" class="edge">
<title>Node2&#45;&gt;Node3</title>
<path fill="none" stroke="midnightblue" d="M944.17,-385.71C939.98,-355.26 929.3,-252.09 964.5,-179 971.44,-164.58 984.38,-152.13 995.73,-143.2"/>
<polygon fill="midnightblue" stroke="midnightblue" points="998.03,-145.85 1003.98,-137.08 993.86,-140.23 998.03,-145.85"/>
</g>
<!-- Node4 -->
<g id="node4" class="node">
<title>Node4</title>
<g id="a_node4"><a xlink:href="_web_app_8h.html" target="_top" xlink:title=" ">
<polygon fill="white" stroke="black" points="1417.5,-319 1417.5,-338 1479.5,-338 1479.5,-319 1417.5,-319"/>
<text text-anchor="middle" x="1448.5" y="-326" font-family="Helvetica,sans-Serif" font-size="10.00">WebApp.h</text>
</a>
</g>
</g>
<!-- Node2&#45;&gt;Node4 -->
<g id="edge3" class="edge">
<title>Node2&#45;&gt;Node4</title>
<path fill="none" stroke="midnightblue" d="M978.5,-390.24C1067.07,-378.79 1309.86,-347.42 1407.27,-334.83"/>
<polygon fill="midnightblue" stroke="midnightblue" points="1407.85,-338.28 1417.32,-333.53 1406.95,-331.34 1407.85,-338.28"/>
</g>
<!-- Node5 -->
<g id="node5" class="node">
<title>Node5</title>
<g id="a_node5"><a xlink:href="_router_8h.html" target="_top" xlink:title=" ">
<polygon fill="white" stroke="black" points="1522,-252 1522,-271 1575,-271 1575,-252 1522,-252"/>
<text text-anchor="middle" x="1548.5" y="-259" font-family="Helvetica,sans-Serif" font-size="10.00">Router.h</text>
</a>
</g>
</g>
<!-- Node4&#45;&gt;Node5 -->
<g id="edge4" class="edge">
<title>Node4&#45;&gt;Node5</title>
<path fill="none" stroke="midnightblue" d="M1461.99,-318.73C1478.55,-307.96 1506.88,-289.55 1526.59,-276.74"/>
<polygon fill="midnightblue" stroke="midnightblue" points="1528.75,-279.51 1535.23,-271.13 1524.94,-273.64 1528.75,-279.51"/>
</g>
<!-- Node6 -->
<g id="node6" class="node">
<title>Node6</title>
<g id="a_node6"><a xlink:href="express_2_request_8h.html" target="_top" xlink:title=" ">
<polygon fill="white" stroke="black" points="1297.5,-185 1297.5,-204 1359.5,-204 1359.5,-185 1297.5,-185"/>
<text text-anchor="middle" x="1328.5" y="-192" font-family="Helvetica,sans-Serif" font-size="10.00">Request.h</text>
</a>
</g>
</g>
<!-- Node5&#45;&gt;Node6 -->
<g id="edge5" class="edge">
<title>Node5&#45;&gt;Node6</title>
<path fill="none" stroke="midnightblue" d="M1521.78,-253.67C1486.47,-244.49 1422.43,-227.31 1368.5,-210 1365.95,-209.18 1363.32,-208.3 1360.69,-207.4"/>
<polygon fill="midnightblue" stroke="midnightblue" points="1361.84,-204.1 1351.24,-204.08 1359.51,-210.7 1361.84,-204.1"/>
</g>
<!-- Node9 -->
<g id="node9" class="node">
<title>Node9</title>
<g id="a_node9"><a xlink:href="express_2_response_8h.html" target="_top" xlink:title=" ">
<polygon fill="white" stroke="black" points="1522,-185 1522,-204 1591,-204 1591,-185 1522,-185"/>
<text text-anchor="middle" x="1556.5" y="-192" font-family="Helvetica,sans-Serif" font-size="10.00">Response.h</text>
</a>
</g>
</g>
<!-- Node5&#45;&gt;Node9 -->
<g id="edge8" class="edge">
<title>Node5&#45;&gt;Node9</title>
<path fill="none" stroke="midnightblue" d="M1549.58,-251.73C1550.75,-242.18 1552.67,-226.62 1554.19,-214.28"/>
<polygon fill="midnightblue" stroke="midnightblue" points="1557.69,-214.48 1555.44,-204.13 1550.74,-213.62 1557.69,-214.48"/>
</g>
<!-- Node7 -->
<g id="node7" class="node">
<title>Node7</title>
<g id="a_node7"><a xlink:href="http_2_request_8h.html" target="_top" xlink:title=" ">
<polygon fill="white" stroke="black" points="1249.5,-118 1249.5,-137 1339.5,-137 1339.5,-118 1249.5,-118"/>
<text text-anchor="middle" x="1294.5" y="-125" font-family="Helvetica,sans-Serif" font-size="10.00">../http/Request.h</text>
</a>
</g>
</g>
<!-- Node6&#45;&gt;Node7 -->
<g id="edge6" class="edge">
<title>Node6&#45;&gt;Node7</title>
<path fill="none" stroke="midnightblue" d="M1323.91,-184.73C1318.77,-174.89 1310.28,-158.66 1303.74,-146.16"/>
<polygon fill="midnightblue" stroke="midnightblue" points="1306.75,-144.37 1299.01,-137.13 1300.55,-147.61 1306.75,-144.37"/>
</g>
<!-- Node8 -->
<g id="node8" class="node">
<title>Node8</title>
<g id="a_node8"><a xlink:href="_attribute_injector_8h.html" target="_top" xlink:title=" ">
<polygon fill="white" stroke="black" points="1174,-56.5 1174,-75.5 1267,-75.5 1267,-56.5 1174,-56.5"/>
<text text-anchor="middle" x="1220.5" y="-63.5" font-family="Helvetica,sans-Serif" font-size="10.00">AttributeInjector.h</text>
</a>
</g>
</g>
<!-- Node7&#45;&gt;Node8 -->
<g id="edge7" class="edge">
<title>Node7&#45;&gt;Node8</title>
<path fill="none" stroke="midnightblue" d="M1283.9,-117.98C1272.25,-108.61 1253.31,-93.38 1239.17,-82.01"/>
<polygon fill="midnightblue" stroke="midnightblue" points="1241.07,-79.05 1231.08,-75.51 1236.68,-84.5 1241.07,-79.05"/>
</g>
<!-- Node10 -->
<g id="node10" class="node">
<title>Node10</title>
<g id="a_node10"><a xlink:href="http_2_response_8h.html" target="_top" xlink:title=" ">
<polygon fill="white" stroke="black" points="1473.5,-118 1473.5,-137 1571.5,-137 1571.5,-118 1473.5,-118"/>
<text text-anchor="middle" x="1522.5" y="-125" font-family="Helvetica,sans-Serif" font-size="10.00">../http/Response.h</text>
</a>
</g>
</g>
<!-- Node9&#45;&gt;Node10 -->
<g id="edge9" class="edge">
<title>Node9&#45;&gt;Node10</title>
<path fill="none" stroke="midnightblue" d="M1551.91,-184.73C1546.77,-174.89 1538.28,-158.66 1531.74,-146.16"/>
<polygon fill="midnightblue" stroke="midnightblue" points="1534.75,-144.37 1527.01,-137.13 1528.55,-147.61 1534.75,-144.37"/>
</g>
<!-- Node11 -->
<g id="node11" class="node">
<title>Node11</title>
<g id="a_node11"><a xlink:href="_cookie_options_8h.html" target="_top" xlink:title=" ">
<polygon fill="white" stroke="black" points="1478,-56.5 1478,-75.5 1567,-75.5 1567,-56.5 1478,-56.5"/>
<text text-anchor="middle" x="1522.5" y="-63.5" font-family="Helvetica,sans-Serif" font-size="10.00">CookieOptions.h</text>
</a>
</g>
</g>
<!-- Node10&#45;&gt;Node11 -->
<g id="edge10" class="edge">
<title>Node10&#45;&gt;Node11</title>
<path fill="none" stroke="midnightblue" d="M1522.5,-117.98C1522.5,-109.58 1522.5,-96.48 1522.5,-85.66"/>
<polygon fill="midnightblue" stroke="midnightblue" points="1526,-85.51 1522.5,-75.51 1519,-85.51 1526,-85.51"/>
</g>
<!-- Node13 -->
<g id="node13" class="node">
<title>Node13</title>
<g id="a_node13"><a xlink:href="_server_8h.html" target="_top" xlink:title=" ">
<polygon fill="white" stroke="black" points="1199.5,-319 1199.5,-338 1261.5,-338 1261.5,-319 1199.5,-319"/>
<text text-anchor="middle" x="1230.5" y="-326" font-family="Helvetica,sans-Serif" font-size="10.00">../Server.h</text>
</a>
</g>
</g>
<!-- Node12&#45;&gt;Node13 -->
<g id="edge12" class="edge">
<title>Node12&#45;&gt;Node13</title>
<path fill="none" stroke="midnightblue" d="M642.22,-514.39C680.09,-489.21 796.18,-415.22 903.5,-380 1002.56,-347.49 1125.53,-335.69 1188.71,-331.58"/>
<polygon fill="midnightblue" stroke="midnightblue" points="1189.29,-335.05 1199.05,-330.94 1188.86,-328.07 1189.29,-335.05"/>
</g>
<!-- Node20 -->
<g id="node20" class="node">
<title>Node20</title>
<g id="a_node20"><a xlink:href="ip_2tcp_2ipv4_2tls_2_socket_server_8h.html" target="_top" xlink:title=" ">
<polygon fill="white" stroke="black" points="320.5,-447.5 320.5,-477.5 420.5,-477.5 420.5,-447.5 320.5,-447.5"/>
<text text-anchor="start" x="328.5" y="-465.5" font-family="Helvetica,sans-Serif" font-size="10.00">socket/ip/tcp/ipv4</text>
<text text-anchor="middle" x="370.5" y="-454.5" font-family="Helvetica,sans-Serif" font-size="10.00">/tls/SocketServer.h</text>
</a>
</g>
</g>
<!-- Node12&#45;&gt;Node20 -->
<g id="edge25" class="edge">
<title>Node12&#45;&gt;Node20</title>
<path fill="none" stroke="midnightblue" d="M596.43,-515.4C554.76,-505.83 482.33,-489.19 430.72,-477.33"/>
<polygon fill="midnightblue" stroke="midnightblue" points="431.22,-473.86 420.69,-475.03 429.65,-480.68 431.22,-473.86"/>
</g>
<!-- Node43 -->
<g id="node43" class="node">
<title>Node43</title>
<g id="a_node43"><a xlink:href="ip_2tcp_2ipv6_2tls_2_socket_server_8h.html" target="_top" xlink:title=" ">
<polygon fill="white" stroke="black" points="454.5,-447.5 454.5,-477.5 554.5,-477.5 554.5,-447.5 454.5,-447.5"/>
<text text-anchor="start" x="462.5" y="-465.5" font-family="Helvetica,sans-Serif" font-size="10.00">socket/ip/tcp/ipv6</text>
<text text-anchor="middle" x="504.5" y="-454.5" font-family="Helvetica,sans-Serif" font-size="10.00">/tls/SocketServer.h</text>
</a>
</g>
</g>
<!-- Node12&#45;&gt;Node43 -->
<g id="edge69" class="edge">
<title>Node12&#45;&gt;Node43</title>
<path fill="none" stroke="midnightblue" d="M611.59,-514.48C593.79,-506 565.92,-492.74 543.08,-481.86"/>
<polygon fill="midnightblue" stroke="midnightblue" points="544.49,-478.66 533.96,-477.52 541.49,-484.98 544.49,-478.66"/>
</g>
<!-- Node13&#45;&gt;Node7 -->
<g id="edge13" class="edge">
<title>Node13&#45;&gt;Node7</title>
<path fill="none" stroke="midnightblue" d="M1234.28,-318.65C1238.5,-308.64 1245.39,-291.8 1250.5,-277 1266.46,-230.78 1281.95,-175.29 1289.58,-147.02"/>
<polygon fill="midnightblue" stroke="midnightblue" points="1292.98,-147.86 1292.19,-137.29 1286.22,-146.04 1292.98,-147.86"/>
</g>
<!-- Node13&#45;&gt;Node10 -->
<g id="edge14" class="edge">
<title>Node13&#45;&gt;Node10</title>
<path fill="none" stroke="midnightblue" d="M1261.62,-318.99C1311.57,-304.03 1410.48,-268.89 1474.5,-210 1493.9,-192.16 1507.84,-164.65 1515.54,-146.61"/>
<polygon fill="midnightblue" stroke="midnightblue" points="1518.83,-147.81 1519.35,-137.23 1512.35,-145.18 1518.83,-147.81"/>
</g>
<!-- Node14 -->
<g id="node14" class="node">
<title>Node14</title>
<g id="a_node14"><a xlink:href="_server_context_8hpp.html" target="_top" xlink:title=" ">
<polygon fill="white" stroke="black" points="1143.5,-252 1143.5,-271 1241.5,-271 1241.5,-252 1143.5,-252"/>
<text text-anchor="middle" x="1192.5" y="-259" font-family="Helvetica,sans-Serif" font-size="10.00">ServerContext.hpp</text>
</a>
</g>
</g>
<!-- Node13&#45;&gt;Node14 -->
<g id="edge15" class="edge">
<title>Node13&#45;&gt;Node14</title>
<path fill="none" stroke="midnightblue" d="M1225.38,-318.73C1219.56,-308.79 1209.94,-292.34 1202.61,-279.79"/>
<polygon fill="midnightblue" stroke="midnightblue" points="1205.61,-277.99 1197.54,-271.13 1199.57,-281.53 1205.61,-277.99"/>
</g>
<!-- Node14&#45;&gt;Node3 -->
<g id="edge16" class="edge">
<title>Node14&#45;&gt;Node3</title>
<path fill="none" stroke="midnightblue" d="M1182.26,-251.93C1164.09,-236.81 1124.87,-204.57 1090.5,-179 1073.5,-166.35 1053.71,-152.73 1039.03,-142.82"/>
<polygon fill="midnightblue" stroke="midnightblue" points="1040.87,-139.84 1030.61,-137.17 1036.97,-145.65 1040.87,-139.84"/>
</g>
<!-- Node15 -->
<g id="node15" class="node">
<title>Node15</title>
<g id="a_node15"><a xlink:href="_server_context_8h.html" target="_top" xlink:title=" ">
<polygon fill="white" stroke="black" points="1377.5,-185 1377.5,-204 1465.5,-204 1465.5,-185 1377.5,-185"/>
<text text-anchor="middle" x="1421.5" y="-192" font-family="Helvetica,sans-Serif" font-size="10.00">ServerContext.h</text>
</a>
</g>
</g>
<!-- Node14&#45;&gt;Node15 -->
<g id="edge17" class="edge">
<title>Node14&#45;&gt;Node15</title>
<path fill="none" stroke="midnightblue" d="M1222.91,-251.87C1263.74,-240.28 1336.37,-219.66 1381.57,-206.83"/>
<polygon fill="midnightblue" stroke="midnightblue" points="1382.67,-210.16 1391.33,-204.06 1380.75,-203.43 1382.67,-210.16"/>
</g>
<!-- Node18 -->
<g id="node18" class="node">
<title>Node18</title>
<g id="a_node18"><a xlink:href="http__utils_8h.html" target="_top" xlink:title=" ">
<polygon fill="white" stroke="black" points="1176,-185 1176,-204 1241,-204 1241,-185 1176,-185"/>
<text text-anchor="middle" x="1208.5" y="-192" font-family="Helvetica,sans-Serif" font-size="10.00">http_utils.h</text>
</a>
</g>
</g>
<!-- Node14&#45;&gt;Node18 -->
<g id="edge22" class="edge">
<title>Node14&#45;&gt;Node18</title>
<path fill="none" stroke="midnightblue" d="M1194.66,-251.73C1197.03,-242.09 1200.92,-226.3 1203.97,-213.91"/>
<polygon fill="midnightblue" stroke="midnightblue" points="1207.38,-214.67 1206.38,-204.13 1200.59,-213 1207.38,-214.67"/>
</g>
<!-- Node19 -->
<g id="node19" class="node">
<title>Node19</title>
<g id="a_node19"><a xlink:href="_socket_connection_base_8h.html" target="_top" xlink:title=" ">
<polygon fill="white" stroke="black" points="1082,-112.5 1082,-142.5 1213,-142.5 1213,-112.5 1082,-112.5"/>
<text text-anchor="start" x="1090" y="-130.5" font-family="Helvetica,sans-Serif" font-size="10.00">socket/sock_stream</text>
<text text-anchor="middle" x="1147.5" y="-119.5" font-family="Helvetica,sans-Serif" font-size="10.00">/SocketConnectionBase.h</text>
</a>
</g>
</g>
<!-- Node14&#45;&gt;Node19 -->
<g id="edge23" class="edge">
<title>Node14&#45;&gt;Node19</title>
<path fill="none" stroke="midnightblue" d="M1187.21,-251.86C1181.4,-242.04 1172.15,-225.36 1166.5,-210 1159.59,-191.21 1154.62,-169.03 1151.49,-152.56"/>
<polygon fill="midnightblue" stroke="midnightblue" points="1154.93,-151.87 1149.71,-142.65 1148.04,-153.11 1154.93,-151.87"/>
</g>
<!-- Node15&#45;&gt;Node7 -->
<g id="edge18" class="edge">
<title>Node15&#45;&gt;Node7</title>
<path fill="none" stroke="midnightblue" d="M1404.64,-184.87C1383.1,-173.84 1345.6,-154.66 1320.42,-141.77"/>
<polygon fill="midnightblue" stroke="midnightblue" points="1321.93,-138.61 1311.43,-137.17 1318.74,-144.84 1321.93,-138.61"/>
</g>
<!-- Node15&#45;&gt;Node10 -->
<g id="edge21" class="edge">
<title>Node15&#45;&gt;Node10</title>
<path fill="none" stroke="midnightblue" d="M1435.12,-184.73C1451.93,-173.92 1480.73,-155.38 1500.64,-142.57"/>
<polygon fill="midnightblue" stroke="midnightblue" points="1502.58,-145.48 1509.09,-137.13 1498.79,-139.6 1502.58,-145.48"/>
</g>
<!-- Node16 -->
<g id="node16" class="node">
<title>Node16</title>
<g id="a_node16"><a xlink:href="_request_parser_8h.html" target="_top" xlink:title=" ">
<polygon fill="white" stroke="black" points="1367,-118 1367,-137 1456,-137 1456,-118 1367,-118"/>
<text text-anchor="middle" x="1411.5" y="-125" font-family="Helvetica,sans-Serif" font-size="10.00">RequestParser.h</text>
</a>
</g>
</g>
<!-- Node15&#45;&gt;Node16 -->
<g id="edge19" class="edge">
<title>Node15&#45;&gt;Node16</title>
<path fill="none" stroke="midnightblue" d="M1420.15,-184.73C1418.68,-175.18 1416.29,-159.62 1414.39,-147.28"/>
<polygon fill="midnightblue" stroke="midnightblue" points="1417.81,-146.48 1412.83,-137.13 1410.89,-147.54 1417.81,-146.48"/>
</g>
<!-- Node17 -->
<g id="node17" class="node">
<title>Node17</title>
<g id="a_node17"><a xlink:href="_parser_8h.html" target="_top" xlink:title=" ">
<polygon fill="white" stroke="black" points="1385,-56.5 1385,-75.5 1438,-75.5 1438,-56.5 1385,-56.5"/>
<text text-anchor="middle" x="1411.5" y="-63.5" font-family="Helvetica,sans-Serif" font-size="10.00">Parser.h</text>
</a>
</g>
</g>
<!-- Node16&#45;&gt;Node17 -->
<g id="edge20" class="edge">
<title>Node16&#45;&gt;Node17</title>
<path fill="none" stroke="midnightblue" d="M1411.5,-117.98C1411.5,-109.58 1411.5,-96.48 1411.5,-85.66"/>
<polygon fill="midnightblue" stroke="midnightblue" points="1415,-85.51 1411.5,-75.51 1408,-85.51 1415,-85.51"/>
</g>
<!-- Node19&#45;&gt;Node8 -->
<g id="edge24" class="edge">
<title>Node19&#45;&gt;Node8</title>
<path fill="none" stroke="midnightblue" d="M1164.8,-112.4C1175.95,-103.31 1190.45,-91.49 1201.86,-82.19"/>
<polygon fill="midnightblue" stroke="midnightblue" points="1204.34,-84.69 1209.88,-75.66 1199.92,-79.26 1204.34,-84.69"/>
</g>
<!-- Node21 -->
<g id="node21" class="node">
<title>Node21</title>
<g id="a_node21"><a xlink:href="ip_2tcp_2_socket_server_8h.html" target="_top" xlink:title=" ">
<polygon fill="white" stroke="black" points="283,-386 283,-405 426,-405 426,-386 283,-386"/>
<text text-anchor="middle" x="354.5" y="-393" font-family="Helvetica,sans-Serif" font-size="10.00">socket/ip/tcp/SocketServer.h</text>
</a>
</g>
</g>
<!-- Node20&#45;&gt;Node21 -->
<g id="edge26" class="edge">
<title>Node20&#45;&gt;Node21</title>
<path fill="none" stroke="midnightblue" d="M367.03,-447.4C364.71,-437.96 361.63,-425.45 359.1,-415.19"/>
<polygon fill="midnightblue" stroke="midnightblue" points="362.43,-414.07 356.64,-405.19 355.63,-415.74 362.43,-414.07"/>
</g>
<!-- Node22 -->
<g id="node22" class="node">
<title>Node22</title>
<g id="a_node22"><a xlink:href="ip_2tcp_2ipv4_2_socket_8h.html" target="_top" xlink:title=" ">
<polygon fill="white" stroke="black" points="137.5,-246.5 137.5,-276.5 231.5,-276.5 231.5,-246.5 137.5,-246.5"/>
<text text-anchor="start" x="145.5" y="-264.5" font-family="Helvetica,sans-Serif" font-size="10.00">socket/ip/tcp/ipv4</text>
<text text-anchor="middle" x="184.5" y="-253.5" font-family="Helvetica,sans-Serif" font-size="10.00">/Socket.h</text>
</a>
</g>
</g>
<!-- Node20&#45;&gt;Node22 -->
<g id="edge27" class="edge">
<title>Node20&#45;&gt;Node22</title>
<path fill="none" stroke="midnightblue" d="M331.98,-447.32C312.81,-438.89 290.22,-426.75 273.5,-411 235,-374.74 207.38,-318.17 193.87,-286.34"/>
<polygon fill="midnightblue" stroke="midnightblue" points="197.04,-284.84 189.98,-276.93 190.57,-287.51 197.04,-284.84"/>
</g>
<!-- Node27 -->
<g id="node27" class="node">
<title>Node27</title>
<g id="a_node27"><a xlink:href="sock__stream_2tls_2_socket_server_8h.html" target="_top" xlink:title=" ">
<polygon fill="white" stroke="black" points="483,-380.5 483,-410.5 588,-410.5 588,-380.5 483,-380.5"/>
<text text-anchor="start" x="491" y="-398.5" font-family="Helvetica,sans-Serif" font-size="10.00">socket/sock_stream</text>
<text text-anchor="middle" x="535.5" y="-387.5" font-family="Helvetica,sans-Serif" font-size="10.00">/tls/SocketServer.h</text>
</a>
</g>
</g>
<!-- Node20&#45;&gt;Node27 -->
<g id="edge34" class="edge">
<title>Node20&#45;&gt;Node27</title>
<path fill="none" stroke="midnightblue" d="M406.3,-447.4C430.95,-437.69 463.89,-424.71 490.34,-414.29"/>
<polygon fill="midnightblue" stroke="midnightblue" points="491.75,-417.5 499.77,-410.58 489.18,-410.99 491.75,-417.5"/>
</g>
<!-- Node23 -->
<g id="node23" class="node">
<title>Node23</title>
<g id="a_node23"><a xlink:href="_descriptor_8h.html" target="_top" xlink:title=" ">
<polygon fill="white" stroke="black" points="315,-118 315,-137 384,-137 384,-118 315,-118"/>
<text text-anchor="middle" x="349.5" y="-125" font-family="Helvetica,sans-Serif" font-size="10.00">Descriptor.h</text>
</a>
</g>
</g>
<!-- Node22&#45;&gt;Node23 -->
<g id="edge28" class="edge">
<title>Node22&#45;&gt;Node23</title>
<path fill="none" stroke="midnightblue" d="M173.97,-246.38C162.32,-228.88 147.09,-198.95 162.5,-179 201.25,-128.84 239.43,-160 300.5,-143 304.09,-142 307.81,-140.94 311.54,-139.87"/>
<polygon fill="midnightblue" stroke="midnightblue" points="312.68,-143.18 321.3,-137.01 310.72,-136.46 312.68,-143.18"/>
</g>
<!-- Node24 -->
<g id="node24" class="node">
<title>Node24</title>
<g id="a_node24"><a xlink:href="_socket_8h.html" target="_top" xlink:title=" ">
<polygon fill="white" stroke="black" points="305.5,-185 305.5,-204 393.5,-204 393.5,-185 305.5,-185"/>
<text text-anchor="middle" x="349.5" y="-192" font-family="Helvetica,sans-Serif" font-size="10.00">socket/Socket.h</text>
</a>
</g>
</g>
<!-- Node22&#45;&gt;Node24 -->
<g id="edge29" class="edge">
<title>Node22&#45;&gt;Node24</title>
<path fill="none" stroke="midnightblue" d="M220.3,-246.4C249.51,-234.89 290.36,-218.8 318.26,-207.81"/>
<polygon fill="midnightblue" stroke="midnightblue" points="319.88,-210.93 327.91,-204.01 317.32,-204.42 319.88,-210.93"/>
</g>
<!-- Node26 -->
<g id="node26" class="node">
<title>Node26</title>
<g id="a_node26"><a xlink:href="ipv4_2_inet_address_8h.html" target="_top" xlink:title=" ">
<polygon fill="white" stroke="black" points="0,-179.5 0,-209.5 115,-209.5 115,-179.5 0,-179.5"/>
<text text-anchor="start" x="8" y="-197.5" font-family="Helvetica,sans-Serif" font-size="10.00">socket/ip/address/ipv4</text>
<text text-anchor="middle" x="57.5" y="-186.5" font-family="Helvetica,sans-Serif" font-size="10.00">/InetAddress.h</text>
</a>
</g>
</g>
<!-- Node22&#45;&gt;Node26 -->
<g id="edge32" class="edge">
<title>Node22&#45;&gt;Node26</title>
<path fill="none" stroke="midnightblue" d="M156.94,-246.4C138.55,-236.98 114.17,-224.5 94.15,-214.26"/>
<polygon fill="midnightblue" stroke="midnightblue" points="95.5,-211.02 85,-209.58 92.31,-217.25 95.5,-211.02"/>
</g>
<!-- Node24&#45;&gt;Node23 -->
<g id="edge30" class="edge">
<title>Node24&#45;&gt;Node23</title>
<path fill="none" stroke="midnightblue" d="M349.5,-184.73C349.5,-175.18 349.5,-159.62 349.5,-147.28"/>
<polygon fill="midnightblue" stroke="midnightblue" points="353,-147.13 349.5,-137.13 346,-147.13 353,-147.13"/>
</g>
<!-- Node25 -->
<g id="node25" class="node">
<title>Node25</title>
<g id="a_node25"><a xlink:href="_socket_address_8h.html" target="_top" xlink:title=" ">
<polygon fill="white" stroke="black" points="167.5,-118 167.5,-137 291.5,-137 291.5,-118 167.5,-118"/>
<text text-anchor="middle" x="229.5" y="-125" font-family="Helvetica,sans-Serif" font-size="10.00">socket/SocketAddress.h</text>
</a>
</g>
</g>
<!-- Node24&#45;&gt;Node25 -->
<g id="edge31" class="edge">
<title>Node24&#45;&gt;Node25</title>
<path fill="none" stroke="midnightblue" d="M333.32,-184.73C313.07,-173.77 278.2,-154.88 254.51,-142.05"/>
<polygon fill="midnightblue" stroke="midnightblue" points="255.89,-138.81 245.43,-137.13 252.55,-144.97 255.89,-138.81"/>
</g>
<!-- Node26&#45;&gt;Node25 -->
<g id="edge33" class="edge">
<title>Node26&#45;&gt;Node25</title>
<path fill="none" stroke="midnightblue" d="M94.82,-179.4C125.4,-167.84 168.23,-151.66 197.32,-140.66"/>
<polygon fill="midnightblue" stroke="midnightblue" points="198.87,-143.82 206.99,-137.01 196.4,-137.27 198.87,-143.82"/>
</g>
<!-- Node28 -->
<g id="node28" class="node">
<title>Node28</title>
<g id="a_node28"><a xlink:href="tls_2_socket_listener_8h.html" target="_top" xlink:title=" ">
<polygon fill="white" stroke="black" points="669,-319 669,-338 758,-338 758,-319 669,-319"/>
<text text-anchor="middle" x="713.5" y="-326" font-family="Helvetica,sans-Serif" font-size="10.00">SocketListener.h</text>
</a>
</g>
</g>
<!-- Node27&#45;&gt;Node28 -->
<g id="edge35" class="edge">
<title>Node27&#45;&gt;Node28</title>
<path fill="none" stroke="midnightblue" d="M574.12,-380.4C605.91,-368.79 650.48,-352.51 680.59,-341.52"/>
<polygon fill="midnightblue" stroke="midnightblue" points="682.01,-344.72 690.2,-338.01 679.61,-338.15 682.01,-344.72"/>
</g>
<!-- Node42 -->
<g id="node42" class="node">
<title>Node42</title>
<g id="a_node42"><a xlink:href="sock__stream_2_socket_server_8h.html" target="_top" xlink:title=" ">
<polygon fill="white" stroke="black" points="483,-313.5 483,-343.5 588,-343.5 588,-313.5 483,-313.5"/>
<text text-anchor="start" x="491" y="-331.5" font-family="Helvetica,sans-Serif" font-size="10.00">socket/sock_stream</text>
<text text-anchor="middle" x="535.5" y="-320.5" font-family="Helvetica,sans-Serif" font-size="10.00">/SocketServer.h</text>
</a>
</g>
</g>
<!-- Node27&#45;&gt;Node42 -->
<g id="edge67" class="edge">
<title>Node27&#45;&gt;Node42</title>
<path fill="none" stroke="midnightblue" d="M535.5,-380.4C535.5,-372.64 535.5,-362.81 535.5,-353.86"/>
<polygon fill="midnightblue" stroke="midnightblue" points="539,-353.58 535.5,-343.58 532,-353.58 539,-353.58"/>
</g>
<!-- Node28&#45;&gt;Node3 -->
<g id="edge36" class="edge">
<title>Node28&#45;&gt;Node3</title>
<path fill="none" stroke="midnightblue" d="M758.07,-324.84C796.48,-320.37 851.3,-308.47 887.5,-277 923.53,-245.68 899.63,-214.55 931.5,-179 946.32,-162.47 967.88,-149.82 985.7,-141.32"/>
<polygon fill="midnightblue" stroke="midnightblue" points="987.49,-144.35 995.15,-137.03 984.6,-137.98 987.49,-144.35"/>
</g>
<!-- Node29 -->
<g id="node29" class="node">
<title>Node29</title>
<g id="a_node29"><a xlink:href="tls_2_socket_connection_8h.html" target="_top" xlink:title=" ">
<polygon fill="white" stroke="black" points="774,-252 774,-271 879,-271 879,-252 774,-252"/>
<text text-anchor="middle" x="826.5" y="-259" font-family="Helvetica,sans-Serif" font-size="10.00">SocketConnection.h</text>
</a>
</g>
</g>
<!-- Node28&#45;&gt;Node29 -->
<g id="edge37" class="edge">
<title>Node28&#45;&gt;Node29</title>
<path fill="none" stroke="midnightblue" d="M728.74,-318.73C747.72,-307.82 780.35,-289.05 802.65,-276.22"/>
<polygon fill="midnightblue" stroke="midnightblue" points="804.58,-279.15 811.5,-271.13 801.09,-273.08 804.58,-279.15"/>
</g>
<!-- Node32 -->
<g id="node32" class="node">
<title>Node32</title>
<g id="a_node32"><a xlink:href="_t_l_s_handshake_8h.html" target="_top" xlink:title=" ">
<polygon fill="white" stroke="black" points="516.5,-118 516.5,-137 608.5,-137 608.5,-118 516.5,-118"/>
<text text-anchor="middle" x="562.5" y="-125" font-family="Helvetica,sans-Serif" font-size="10.00">TLSHandshake.h</text>
</a>
</g>
</g>
<!-- Node28&#45;&gt;Node32 -->
<g id="edge60" class="edge">
<title>Node28&#45;&gt;Node32</title>
<path fill="none" stroke="midnightblue" d="M703.55,-318.89C682.76,-300.52 634.02,-255.42 602.5,-210 588.36,-189.62 576.49,-163.51 569.44,-146.4"/>
<polygon fill="midnightblue" stroke="midnightblue" points="572.67,-145.04 565.7,-137.05 566.17,-147.64 572.67,-145.04"/>
</g>
<!-- Node37 -->
<g id="node37" class="node">
<title>Node37</title>
<g id="a_node37"><a xlink:href="ssl__utils_8h.html" target="_top" xlink:title=" ">
<polygon fill="white" stroke="black" points="750,-118 750,-137 811,-137 811,-118 750,-118"/>
<text text-anchor="middle" x="780.5" y="-125" font-family="Helvetica,sans-Serif" font-size="10.00">ssl_utils.h</text>
</a>
</g>
</g>
<!-- Node28&#45;&gt;Node37 -->
<g id="edge66" class="edge">
<title>Node28&#45;&gt;Node37</title>
<path fill="none" stroke="midnightblue" d="M716.38,-318.95C726.45,-289.04 760.25,-188.66 774.29,-146.93"/>
<polygon fill="midnightblue" stroke="midnightblue" points="777.68,-147.84 777.56,-137.24 771.05,-145.6 777.68,-147.84"/>
</g>
<!-- Node40 -->
<g id="node40" class="node">
<title>Node40</title>
<g id="a_node40"><a xlink:href="_socket_listener_8h.html" target="_top" xlink:title=" ">
<polygon fill="white" stroke="black" points="450,-179.5 450,-209.5 555,-209.5 555,-179.5 450,-179.5"/>
<text text-anchor="start" x="458" y="-197.5" font-family="Helvetica,sans-Serif" font-size="10.00">socket/sock_stream</text>
<text text-anchor="middle" x="502.5" y="-186.5" font-family="Helvetica,sans-Serif" font-size="10.00">/SocketListener.h</text>
</a>
</g>
</g>
<!-- Node28&#45;&gt;Node40 -->
<g id="edge61" class="edge">
<title>Node28&#45;&gt;Node40</title>
<path fill="none" stroke="midnightblue" d="M670.64,-318.96C640.4,-311.45 600.01,-298.32 569.5,-277 547.25,-261.45 528.32,-236.6 516.31,-218.42"/>
<polygon fill="midnightblue" stroke="midnightblue" points="519.01,-216.15 510.68,-209.61 513.11,-219.92 519.01,-216.15"/>
</g>
<!-- Node30 -->
<g id="node30" class="node">
<title>Node30</title>
<g id="a_node30"><a xlink:href="_socket_connection_8h.html" target="_top" xlink:title=" ">
<polygon fill="white" stroke="black" points="973.5,-179.5 973.5,-209.5 1081.5,-209.5 1081.5,-179.5 973.5,-179.5"/>
<text text-anchor="start" x="981.5" y="-197.5" font-family="Helvetica,sans-Serif" font-size="10.00">socket/sock_stream</text>
<text text-anchor="middle" x="1027.5" y="-186.5" font-family="Helvetica,sans-Serif" font-size="10.00">/SocketConnection.h</text>
</a>
</g>
</g>
<!-- Node29&#45;&gt;Node30 -->
<g id="edge38" class="edge">
<title>Node29&#45;&gt;Node30</title>
<path fill="none" stroke="midnightblue" d="M853.19,-251.87C884,-241.9 935.45,-225.27 974.48,-212.64"/>
<polygon fill="midnightblue" stroke="midnightblue" points="975.68,-215.94 984.12,-209.53 973.53,-209.27 975.68,-215.94"/>
</g>
<!-- Node31 -->
<g id="node31" class="node">
<title>Node31</title>
<g id="a_node31"><a xlink:href="tls_2_socket_reader_8h.html" target="_top" xlink:title=" ">
<polygon fill="white" stroke="black" points="612,-179.5 612,-209.5 717,-209.5 717,-179.5 612,-179.5"/>
<text text-anchor="start" x="620" y="-197.5" font-family="Helvetica,sans-Serif" font-size="10.00">socket/sock_stream</text>
<text text-anchor="middle" x="664.5" y="-186.5" font-family="Helvetica,sans-Serif" font-size="10.00">/tls/SocketReader.h</text>
</a>
</g>
</g>
<!-- Node29&#45;&gt;Node31 -->
<g id="edge40" class="edge">
<title>Node29&#45;&gt;Node31</title>
<path fill="none" stroke="midnightblue" d="M804.99,-251.87C780.57,-242.07 740.09,-225.83 708.84,-213.29"/>
<polygon fill="midnightblue" stroke="midnightblue" points="710.05,-210 699.46,-209.53 707.44,-216.5 710.05,-210"/>
</g>
<!-- Node38 -->
<g id="node38" class="node">
<title>Node38</title>
<g id="a_node38"><a xlink:href="tls_2_socket_writer_8h.html" target="_top" xlink:title=" ">
<polygon fill="white" stroke="black" points="774,-179.5 774,-209.5 879,-209.5 879,-179.5 774,-179.5"/>
<text text-anchor="start" x="782" y="-197.5" font-family="Helvetica,sans-Serif" font-size="10.00">socket/sock_stream</text>
<text text-anchor="middle" x="826.5" y="-186.5" font-family="Helvetica,sans-Serif" font-size="10.00">/tls/SocketWriter.h</text>
</a>
</g>
</g>
<!-- Node29&#45;&gt;Node38 -->
<g id="edge52" class="edge">
<title>Node29&#45;&gt;Node38</title>
<path fill="none" stroke="midnightblue" d="M826.5,-251.73C826.5,-243.54 826.5,-230.92 826.5,-219.71"/>
<polygon fill="midnightblue" stroke="midnightblue" points="830,-219.59 826.5,-209.59 823,-219.59 830,-219.59"/>
</g>
<!-- Node30&#45;&gt;Node19 -->
<g id="edge39" class="edge">
<title>Node30&#45;&gt;Node19</title>
<path fill="none" stroke="midnightblue" d="M1053.54,-179.4C1070.84,-170.03 1093.75,-157.62 1112.62,-147.39"/>
<polygon fill="midnightblue" stroke="midnightblue" points="1114.39,-150.42 1121.51,-142.58 1111.05,-144.26 1114.39,-150.42"/>
</g>
<!-- Node31&#45;&gt;Node3 -->
<g id="edge42" class="edge">
<title>Node31&#45;&gt;Node3</title>
<path fill="none" stroke="midnightblue" d="M717.05,-184.14C772.98,-174.13 864.03,-157.71 942.5,-143 955.03,-140.65 968.72,-138.02 980.93,-135.66"/>
<polygon fill="midnightblue" stroke="midnightblue" points="981.64,-139.08 990.79,-133.74 980.3,-132.21 981.64,-139.08"/>
</g>
<!-- Node31&#45;&gt;Node23 -->
<g id="edge41" class="edge">
<title>Node31&#45;&gt;Node23</title>
<path fill="none" stroke="midnightblue" d="M611.78,-182.62C550.81,-170.04 451.51,-149.55 394.18,-137.72"/>
<polygon fill="midnightblue" stroke="midnightblue" points="394.83,-134.28 384.33,-135.69 393.41,-141.13 394.83,-134.28"/>
</g>
<!-- Node31&#45;&gt;Node32 -->
<g id="edge43" class="edge">
<title>Node31&#45;&gt;Node32</title>
<path fill="none" stroke="midnightblue" d="M642.37,-179.4C625.26,-168.5 601.7,-153.48 584.6,-142.58"/>
<polygon fill="midnightblue" stroke="midnightblue" points="586.16,-139.43 575.85,-137.01 582.4,-145.33 586.16,-139.43"/>
</g>
<!-- Node35 -->
<g id="node35" class="node">
<title>Node35</title>
<g id="a_node35"><a xlink:href="_write_event_receiver_8h.html" target="_top" xlink:title=" ">
<polygon fill="white" stroke="black" points="493,-56.5 493,-75.5 604,-75.5 604,-56.5 493,-56.5"/>
<text text-anchor="middle" x="548.5" y="-63.5" font-family="Helvetica,sans-Serif" font-size="10.00">WriteEventReceiver.h</text>
</a>
</g>
</g>
<!-- Node31&#45;&gt;Node35 -->
<g id="edge48" class="edge">
<title>Node31&#45;&gt;Node35</title>
<path fill="none" stroke="midnightblue" d="M611.73,-183.44C571.19,-174.52 520.06,-160.24 507.5,-143 493.31,-123.53 513.09,-98.56 529.79,-82.66"/>
<polygon fill="midnightblue" stroke="midnightblue" points="532.48,-84.94 537.57,-75.65 527.8,-79.74 532.48,-84.94"/>
</g>
<!-- Node36 -->
<g id="node36" class="node">
<title>Node36</title>
<g id="a_node36"><a xlink:href="_socket_reader_8h.html" target="_top" xlink:title=" ">
<polygon fill="white" stroke="black" points="627,-112.5 627,-142.5 732,-142.5 732,-112.5 627,-112.5"/>
<text text-anchor="start" x="635" y="-130.5" font-family="Helvetica,sans-Serif" font-size="10.00">socket/sock_stream</text>
<text text-anchor="middle" x="679.5" y="-119.5" font-family="Helvetica,sans-Serif" font-size="10.00">/SocketReader.h</text>
</a>
</g>
</g>
<!-- Node31&#45;&gt;Node36 -->
<g id="edge49" class="edge">
<title>Node31&#45;&gt;Node36</title>
<path fill="none" stroke="midnightblue" d="M667.75,-179.4C669.56,-171.56 671.86,-161.6 673.95,-152.57"/>
<polygon fill="midnightblue" stroke="midnightblue" points="677.41,-153.11 676.25,-142.58 670.59,-151.53 677.41,-153.11"/>
</g>
<!-- Node31&#45;&gt;Node37 -->
<g id="edge51" class="edge">
<title>Node31&#45;&gt;Node37</title>
<path fill="none" stroke="midnightblue" d="M689.67,-179.4C709.48,-168.29 736.92,-152.92 756.44,-141.98"/>
<polygon fill="midnightblue" stroke="midnightblue" points="758.31,-144.95 765.32,-137.01 754.88,-138.84 758.31,-144.95"/>
</g>
<!-- Node33 -->
<g id="node33" class="node">
<title>Node33</title>
<g id="a_node33"><a xlink:href="_read_event_receiver_8h.html" target="_top" xlink:title=" ">
<polygon fill="white" stroke="black" points="622.5,-56.5 622.5,-75.5 734.5,-75.5 734.5,-56.5 622.5,-56.5"/>
<text text-anchor="middle" x="678.5" y="-63.5" font-family="Helvetica,sans-Serif" font-size="10.00">ReadEventReceiver.h</text>
</a>
</g>
</g>
<!-- Node32&#45;&gt;Node33 -->
<g id="edge44" class="edge">
<title>Node32&#45;&gt;Node33</title>
<path fill="none" stroke="midnightblue" d="M579.12,-117.98C598.42,-108.08 630.46,-91.64 652.93,-80.12"/>
<polygon fill="midnightblue" stroke="midnightblue" points="654.61,-83.19 661.91,-75.51 651.42,-76.96 654.61,-83.19"/>
</g>
<!-- Node32&#45;&gt;Node35 -->
<g id="edge46" class="edge">
<title>Node32&#45;&gt;Node35</title>
<path fill="none" stroke="midnightblue" d="M560.49,-117.98C558.5,-109.49 555.37,-96.2 552.81,-85.32"/>
<polygon fill="midnightblue" stroke="midnightblue" points="556.2,-84.44 550.5,-75.51 549.39,-86.04 556.2,-84.44"/>
</g>
<!-- Node34 -->
<g id="node34" class="node">
<title>Node34</title>
<g id="a_node34"><a xlink:href="_event_receiver_8h.html" target="_top" xlink:title=" ">
<polygon fill="white" stroke="black" points="504,-0.5 504,-19.5 593,-19.5 593,-0.5 504,-0.5"/>
<text text-anchor="middle" x="548.5" y="-7.5" font-family="Helvetica,sans-Serif" font-size="10.00">EventReceiver.h</text>
</a>
</g>
</g>
<!-- Node33&#45;&gt;Node34 -->
<g id="edge45" class="edge">
<title>Node33&#45;&gt;Node34</title>
<path fill="none" stroke="midnightblue" d="M657.9,-56.44C636.51,-47.56 602.82,-33.56 578.48,-23.45"/>
<polygon fill="midnightblue" stroke="midnightblue" points="579.58,-20.12 569,-19.52 576.89,-26.58 579.58,-20.12"/>
</g>
<!-- Node35&#45;&gt;Node34 -->
<g id="edge47" class="edge">
<title>Node35&#45;&gt;Node34</title>
<path fill="none" stroke="midnightblue" d="M548.5,-56.08C548.5,-49.01 548.5,-38.86 548.5,-29.99"/>
<polygon fill="midnightblue" stroke="midnightblue" points="552,-29.75 548.5,-19.75 545,-29.75 552,-29.75"/>
</g>
<!-- Node36&#45;&gt;Node33 -->
<g id="edge50" class="edge">
<title>Node36&#45;&gt;Node33</title>
<path fill="none" stroke="midnightblue" d="M679.26,-112.4C679.13,-104.47 678.96,-94.46 678.82,-85.86"/>
<polygon fill="midnightblue" stroke="midnightblue" points="682.31,-85.6 678.65,-75.66 675.31,-85.72 682.31,-85.6"/>
</g>
<!-- Node38&#45;&gt;Node3 -->
<g id="edge54" class="edge">
<title>Node38&#45;&gt;Node3</title>
<path fill="none" stroke="midnightblue" d="M868.91,-179.41C898.98,-169.38 940.27,-155.51 976.5,-143 978.87,-142.18 981.32,-141.33 983.79,-140.47"/>
<polygon fill="midnightblue" stroke="midnightblue" points="984.96,-143.76 993.24,-137.15 982.64,-137.16 984.96,-143.76"/>
</g>
<!-- Node38&#45;&gt;Node23 -->
<g id="edge53" class="edge">
<title>Node38&#45;&gt;Node23</title>
<path fill="none" stroke="midnightblue" d="M773.83,-185.85C758.27,-183.61 741.2,-181.18 725.5,-179 606.05,-162.4 465.12,-143.71 394.55,-134.42"/>
<polygon fill="midnightblue" stroke="midnightblue" points="394.62,-130.89 384.25,-133.06 393.7,-137.84 394.62,-130.89"/>
</g>
<!-- Node38&#45;&gt;Node32 -->
<g id="edge56" class="edge">
<title>Node38&#45;&gt;Node32</title>
<path fill="none" stroke="midnightblue" d="M773.6,-181.04C731.3,-171 670.52,-156.39 617.5,-143 613.18,-141.91 608.68,-140.75 604.19,-139.59"/>
<polygon fill="midnightblue" stroke="midnightblue" points="605.02,-136.19 594.46,-137.05 603.25,-142.96 605.02,-136.19"/>
</g>
<!-- Node38&#45;&gt;Node33 -->
<g id="edge55" class="edge">
<title>Node38&#45;&gt;Node33</title>
<path fill="none" stroke="midnightblue" d="M876.71,-179.48C918.46,-165.34 967.34,-141.44 942.5,-112 917.67,-82.58 814.49,-72.39 744.71,-68.86"/>
<polygon fill="midnightblue" stroke="midnightblue" points="744.83,-65.37 734.68,-68.39 744.5,-72.36 744.83,-65.37"/>
</g>
<!-- Node38&#45;&gt;Node37 -->
<g id="edge59" class="edge">
<title>Node38&#45;&gt;Node37</title>
<path fill="none" stroke="midnightblue" d="M816.52,-179.4C809.49,-169.46 800.04,-156.11 792.58,-145.57"/>
<polygon fill="midnightblue" stroke="midnightblue" points="795.29,-143.34 786.65,-137.19 789.57,-147.38 795.29,-143.34"/>
</g>
<!-- Node39 -->
<g id="node39" class="node">
<title>Node39</title>
<g id="a_node39"><a xlink:href="_socket_writer_8h.html" target="_top" xlink:title=" ">
<polygon fill="white" stroke="black" points="829,-112.5 829,-142.5 934,-142.5 934,-112.5 829,-112.5"/>
<text text-anchor="start" x="837" y="-130.5" font-family="Helvetica,sans-Serif" font-size="10.00">socket/sock_stream</text>
<text text-anchor="middle" x="881.5" y="-119.5" font-family="Helvetica,sans-Serif" font-size="10.00">/SocketWriter.h</text>
</a>
</g>
</g>
<!-- Node38&#45;&gt;Node39 -->
<g id="edge57" class="edge">
<title>Node38&#45;&gt;Node39</title>
<path fill="none" stroke="midnightblue" d="M838.43,-179.4C845.64,-170.88 854.98,-159.85 863.11,-150.23"/>
<polygon fill="midnightblue" stroke="midnightblue" points="865.8,-152.47 869.59,-142.58 860.46,-147.95 865.8,-152.47"/>
</g>
<!-- Node39&#45;&gt;Node35 -->
<g id="edge58" class="edge">
<title>Node39&#45;&gt;Node35</title>
<path fill="none" stroke="midnightblue" d="M828.79,-113.93C825.65,-113.25 822.54,-112.61 819.5,-112 749.71,-98.06 669.21,-85.08 614.2,-76.68"/>
<polygon fill="midnightblue" stroke="midnightblue" points="614.64,-73.21 604.23,-75.17 613.59,-80.13 614.64,-73.21"/>
</g>
<!-- Node40&#45;&gt;Node3 -->
<g id="edge64" class="edge">
<title>Node40&#45;&gt;Node3</title>
<path fill="none" stroke="midnightblue" d="M555.13,-185.48C570.39,-183.26 587.1,-180.93 602.5,-179 753.28,-160.09 792.21,-165.44 942.5,-143 955.1,-141.12 968.81,-138.61 981.02,-136.2"/>
<polygon fill="midnightblue" stroke="midnightblue" points="981.75,-139.62 990.87,-134.22 980.37,-132.76 981.75,-139.62"/>
</g>
<!-- Node40&#45;&gt;Node33 -->
<g id="edge65" class="edge">
<title>Node40&#45;&gt;Node33</title>
<path fill="none" stroke="midnightblue" d="M498.83,-179.33C495.13,-161.51 491.94,-130.96 507.5,-112 521.02,-95.53 570.19,-83.68 612.36,-76.29"/>
<polygon fill="midnightblue" stroke="midnightblue" points="613.06,-79.72 622.34,-74.6 611.9,-72.82 613.06,-79.72"/>
</g>
<!-- Node41 -->
<g id="node41" class="node">
<title>Node41</title>
<g id="a_node41"><a xlink:href="_accept_event_receiver_8h.html" target="_top" xlink:title=" ">
<polygon fill="white" stroke="black" points="355,-56.5 355,-75.5 474,-75.5 474,-56.5 355,-56.5"/>
<text text-anchor="middle" x="414.5" y="-63.5" font-family="Helvetica,sans-Serif" font-size="10.00">AcceptEventReceiver.h</text>
</a>
</g>
</g>
<!-- Node40&#45;&gt;Node41 -->
<g id="edge62" class="edge">
<title>Node40&#45;&gt;Node41</title>
<path fill="none" stroke="midnightblue" d="M476.99,-179.48C463.17,-170.67 446.84,-158.13 436.5,-143 424.66,-125.68 419.11,-101.97 416.57,-85.66"/>
<polygon fill="midnightblue" stroke="midnightblue" points="420.04,-85.18 415.25,-75.73 413.1,-86.1 420.04,-85.18"/>
</g>
<!-- Node41&#45;&gt;Node34 -->
<g id="edge63" class="edge">
<title>Node41&#45;&gt;Node34</title>
<path fill="none" stroke="midnightblue" d="M435.73,-56.44C457.88,-47.52 492.82,-33.44 517.94,-23.32"/>
<polygon fill="midnightblue" stroke="midnightblue" points="519.4,-26.5 527.37,-19.52 516.78,-20.01 519.4,-26.5"/>
</g>
<!-- Node42&#45;&gt;Node40 -->
<g id="edge68" class="edge">
<title>Node42&#45;&gt;Node40</title>
<path fill="none" stroke="midnightblue" d="M531.97,-313.37C526.36,-290.94 515.36,-246.92 508.5,-219.49"/>
<polygon fill="midnightblue" stroke="midnightblue" points="511.83,-218.38 506.01,-209.52 505.04,-220.08 511.83,-218.38"/>
</g>
<!-- Node43&#45;&gt;Node21 -->
<g id="edge70" class="edge">
<title>Node43&#45;&gt;Node21</title>
<path fill="none" stroke="midnightblue" d="M471.95,-447.4C445.63,-435.99 408.91,-420.08 383.57,-409.1"/>
<polygon fill="midnightblue" stroke="midnightblue" points="384.7,-405.77 374.13,-405.01 381.92,-412.19 384.7,-405.77"/>
</g>
<!-- Node43&#45;&gt;Node27 -->
<g id="edge76" class="edge">
<title>Node43&#45;&gt;Node27</title>
<path fill="none" stroke="midnightblue" d="M511.23,-447.4C515.09,-439.3 520.03,-428.94 524.44,-419.69"/>
<polygon fill="midnightblue" stroke="midnightblue" points="527.64,-421.11 528.79,-410.58 521.32,-418.1 527.64,-421.11"/>
</g>
<!-- Node44 -->
<g id="node44" class="node">
<title>Node44</title>
<g id="a_node44"><a xlink:href="ip_2tcp_2ipv6_2_socket_8h.html" target="_top" xlink:title=" ">
<polygon fill="white" stroke="black" points="338.5,-246.5 338.5,-276.5 432.5,-276.5 432.5,-246.5 338.5,-246.5"/>
<text text-anchor="start" x="346.5" y="-264.5" font-family="Helvetica,sans-Serif" font-size="10.00">socket/ip/tcp/ipv6</text>
<text text-anchor="middle" x="385.5" y="-253.5" font-family="Helvetica,sans-Serif" font-size="10.00">/Socket.h</text>
</a>
</g>
</g>
<!-- Node43&#45;&gt;Node44 -->
<g id="edge71" class="edge">
<title>Node43&#45;&gt;Node44</title>
<path fill="none" stroke="midnightblue" d="M495.76,-447.39C489.51,-437.28 480.94,-423.33 473.5,-411 446.82,-366.77 416.18,-314.79 399,-285.54"/>
<polygon fill="midnightblue" stroke="midnightblue" points="402,-283.73 393.92,-276.88 395.96,-287.28 402,-283.73"/>
</g>
<!-- Node44&#45;&gt;Node23 -->
<g id="edge72" class="edge">
<title>Node44&#45;&gt;Node23</title>
<path fill="none" stroke="midnightblue" d="M393.39,-246.44C401.63,-229.78 412.12,-201.45 402.5,-179 396.28,-164.48 383.6,-152.15 372.21,-143.31"/>
<polygon fill="midnightblue" stroke="midnightblue" points="374.02,-140.3 363.87,-137.25 369.9,-145.96 374.02,-140.3"/>
</g>
<!-- Node44&#45;&gt;Node24 -->
<g id="edge73" class="edge">
<title>Node44&#45;&gt;Node24</title>
<path fill="none" stroke="midnightblue" d="M377.69,-246.4C372.3,-236.66 365.09,-223.65 359.31,-213.21"/>
<polygon fill="midnightblue" stroke="midnightblue" points="362.22,-211.25 354.32,-204.19 356.1,-214.64 362.22,-211.25"/>
</g>
<!-- Node45 -->
<g id="node45" class="node">
<title>Node45</title>
<g id="a_node45"><a xlink:href="ipv6_2_inet_address_8h.html" target="_top" xlink:title=" ">
<polygon fill="white" stroke="black" points="172,-179.5 172,-209.5 287,-209.5 287,-179.5 172,-179.5"/>
<text text-anchor="start" x="180" y="-197.5" font-family="Helvetica,sans-Serif" font-size="10.00">socket/ip/address/ipv6</text>
<text text-anchor="middle" x="229.5" y="-186.5" font-family="Helvetica,sans-Serif" font-size="10.00">/InetAddress.h</text>
</a>
</g>
</g>
<!-- Node44&#45;&gt;Node45 -->
<g id="edge74" class="edge">
<title>Node44&#45;&gt;Node45</title>
<path fill="none" stroke="midnightblue" d="M351.65,-246.4C328.45,-236.73 297.47,-223.82 272.52,-213.43"/>
<polygon fill="midnightblue" stroke="midnightblue" points="273.86,-210.19 263.28,-209.58 271.17,-216.65 273.86,-210.19"/>
</g>
<!-- Node45&#45;&gt;Node25 -->
<g id="edge75" class="edge">
<title>Node45&#45;&gt;Node25</title>
<path fill="none" stroke="midnightblue" d="M229.5,-179.4C229.5,-170.06 229.5,-157.71 229.5,-147.52"/>
<polygon fill="midnightblue" stroke="midnightblue" points="233,-147.19 229.5,-137.19 226,-147.19 233,-147.19"/>
</g>
</g>
</svg>
