<?xml version="1.0" encoding="UTF-8" standalone="no"?>
<!DOCTYPE svg PUBLIC "-//W3C//DTD SVG 1.1//EN"
 "http://www.w3.org/Graphics/SVG/1.1/DTD/svg11.dtd">
<!-- Generated by graphviz version 2.43.0 (0)
 -->
<!-- Title: net/socket/sock_stream/tls/SocketConnection.h Pages: 1 -->
<svg width="787pt" height="285pt"
 viewBox="0.00 0.00 787.41 285.00" xmlns="http://www.w3.org/2000/svg" xmlns:xlink="http://www.w3.org/1999/xlink">
<g id="graph0" class="graph" transform="scale(1 1) rotate(0) translate(4 281)">
<title>net/socket/sock_stream/tls/SocketConnection.h</title>
<polygon fill="white" stroke="transparent" points="-4,4 -4,-281 783.41,-281 783.41,4 -4,4"/>
<!-- Node1 -->
<g id="node1" class="node">
<title>Node1</title>
<g id="a_node1"><a xlink:title=" ">
<polygon fill="#bfbfbf" stroke="black" points="300,-246.5 300,-276.5 422,-276.5 422,-246.5 300,-246.5"/>
<text text-anchor="start" x="308" y="-264.5" font-family="Helvetica,sans-Serif" font-size="10.00">net/socket/sock_stream</text>
<text text-anchor="middle" x="361" y="-253.5" font-family="Helvetica,sans-Serif" font-size="10.00">/tls/SocketConnection.h</text>
</a>
</g>
</g>
<!-- Node2 -->
<g id="node2" class="node">
<title>Node2</title>
<g id="a_node2"><a xlink:href="_socket_connection_8h.html" target="_top" xlink:title=" ">
<polygon fill="white" stroke="black" points="110,-179.5 110,-209.5 218,-209.5 218,-179.5 110,-179.5"/>
<text text-anchor="start" x="118" y="-197.5" font-family="Helvetica,sans-Serif" font-size="10.00">socket/sock_stream</text>
<text text-anchor="middle" x="164" y="-186.5" font-family="Helvetica,sans-Serif" font-size="10.00">/SocketConnection.h</text>
</a>
</g>
</g>
<!-- Node1&#45;&gt;Node2 -->
<g id="edge1" class="edge">
<title>Node1&#45;&gt;Node2</title>
<path fill="none" stroke="midnightblue" d="M318.25,-246.4C288.31,-236.52 248.11,-223.25 216.26,-212.74"/>
<polygon fill="midnightblue" stroke="midnightblue" points="217.26,-209.39 206.66,-209.58 215.06,-216.03 217.26,-209.39"/>
</g>
<!-- Node5 -->
<g id="node5" class="node">
<title>Node5</title>
<g id="a_node5"><a xlink:href="tls_2_socket_reader_8h.html" target="_top" xlink:title=" ">
<polygon fill="white" stroke="black" points="459.5,-179.5 459.5,-209.5 564.5,-209.5 564.5,-179.5 459.5,-179.5"/>
<text text-anchor="start" x="467.5" y="-197.5" font-family="Helvetica,sans-Serif" font-size="10.00">socket/sock_stream</text>
<text text-anchor="middle" x="512" y="-186.5" font-family="Helvetica,sans-Serif" font-size="10.00">/tls/SocketReader.h</text>
</a>
</g>
</g>
<!-- Node1&#45;&gt;Node5 -->
<g id="edge4" class="edge">
<title>Node1&#45;&gt;Node5</title>
<path fill="none" stroke="midnightblue" d="M393.76,-246.4C416.12,-236.77 445.94,-223.94 470.04,-213.56"/>
<polygon fill="midnightblue" stroke="midnightblue" points="471.5,-216.75 479.3,-209.58 468.73,-210.32 471.5,-216.75"/>
</g>
<!-- Node14 -->
<g id="node14" class="node">
<title>Node14</title>
<g id="a_node14"><a xlink:href="tls_2_socket_writer_8h.html" target="_top" xlink:title=" ">
<polygon fill="white" stroke="black" points="308.5,-179.5 308.5,-209.5 413.5,-209.5 413.5,-179.5 308.5,-179.5"/>
<text text-anchor="start" x="316.5" y="-197.5" font-family="Helvetica,sans-Serif" font-size="10.00">socket/sock_stream</text>
<text text-anchor="middle" x="361" y="-186.5" font-family="Helvetica,sans-Serif" font-size="10.00">/tls/SocketWriter.h</text>
</a>
</g>
</g>
<!-- Node1&#45;&gt;Node14 -->
<g id="edge16" class="edge">
<title>Node1&#45;&gt;Node14</title>
<path fill="none" stroke="midnightblue" d="M361,-246.4C361,-238.64 361,-228.81 361,-219.86"/>
<polygon fill="midnightblue" stroke="midnightblue" points="364.5,-219.58 361,-209.58 357.5,-219.58 364.5,-219.58"/>
</g>
<!-- Node3 -->
<g id="node3" class="node">
<title>Node3</title>
<g id="a_node3"><a xlink:href="_socket_connection_base_8h.html" target="_top" xlink:title=" ">
<polygon fill="white" stroke="black" points="0,-118 0,-137 128,-137 128,-118 0,-118"/>
<text text-anchor="middle" x="64" y="-125" font-family="Helvetica,sans-Serif" font-size="10.00">SocketConnectionBase.h</text>
</a>
</g>
</g>
<!-- Node2&#45;&gt;Node3 -->
<g id="edge2" class="edge">
<title>Node2&#45;&gt;Node3</title>
<path fill="none" stroke="midnightblue" d="M142.3,-179.4C125.53,-168.5 102.43,-153.48 85.67,-142.58"/>
<polygon fill="midnightblue" stroke="midnightblue" points="87.38,-139.52 77.09,-137.01 83.56,-145.39 87.38,-139.52"/>
</g>
<!-- Node4 -->
<g id="node4" class="node">
<title>Node4</title>
<g id="a_node4"><a xlink:href="_attribute_injector_8h.html" target="_top" xlink:title=" ">
<polygon fill="white" stroke="black" points="17.5,-56.5 17.5,-75.5 110.5,-75.5 110.5,-56.5 17.5,-56.5"/>
<text text-anchor="middle" x="64" y="-63.5" font-family="Helvetica,sans-Serif" font-size="10.00">AttributeInjector.h</text>
</a>
</g>
</g>
<!-- Node3&#45;&gt;Node4 -->
<g id="edge3" class="edge">
<title>Node3&#45;&gt;Node4</title>
<path fill="none" stroke="midnightblue" d="M64,-117.98C64,-109.58 64,-96.48 64,-85.66"/>
<polygon fill="midnightblue" stroke="midnightblue" points="67.5,-85.51 64,-75.51 60.5,-85.51 67.5,-85.51"/>
</g>
<!-- Node6 -->
<g id="node6" class="node">
<title>Node6</title>
<g id="a_node6"><a xlink:href="_descriptor_8h.html" target="_top" xlink:title=" ">
<polygon fill="white" stroke="black" points="378.5,-118 378.5,-137 447.5,-137 447.5,-118 378.5,-118"/>
<text text-anchor="middle" x="413" y="-125" font-family="Helvetica,sans-Serif" font-size="10.00">Descriptor.h</text>
</a>
</g>
</g>
<!-- Node5&#45;&gt;Node6 -->
<g id="edge5" class="edge">
<title>Node5&#45;&gt;Node6</title>
<path fill="none" stroke="midnightblue" d="M490.52,-179.4C473.92,-168.5 451.04,-153.48 434.45,-142.58"/>
<polygon fill="midnightblue" stroke="midnightblue" points="436.24,-139.57 425.96,-137.01 432.4,-145.42 436.24,-139.57"/>
</g>
<!-- Node7 -->
<g id="node7" class="node">
<title>Node7</title>
<g id="a_node7"><a xlink:href="_logger_8h.html" target="_top" xlink:title=" ">
<polygon fill="white" stroke="black" points="307.5,-118 307.5,-137 360.5,-137 360.5,-118 307.5,-118"/>
<text text-anchor="middle" x="334" y="-125" font-family="Helvetica,sans-Serif" font-size="10.00">Logger.h</text>
</a>
</g>
</g>
<!-- Node5&#45;&gt;Node7 -->
<g id="edge6" class="edge">
<title>Node5&#45;&gt;Node7</title>
<path fill="none" stroke="midnightblue" d="M471.13,-179.47C442.67,-169.57 403.89,-155.84 370,-143 368.16,-142.3 366.27,-141.57 364.36,-140.83"/>
<polygon fill="midnightblue" stroke="midnightblue" points="365.47,-137.51 354.88,-137.08 362.89,-144.01 365.47,-137.51"/>
</g>
<!-- Node8 -->
<g id="node8" class="node">
<title>Node8</title>
<g id="a_node8"><a xlink:href="_t_l_s_handshake_8h.html" target="_top" xlink:title=" ">
<polygon fill="white" stroke="black" points="466,-118 466,-137 558,-137 558,-118 466,-118"/>
<text text-anchor="middle" x="512" y="-125" font-family="Helvetica,sans-Serif" font-size="10.00">TLSHandshake.h</text>
</a>
</g>
</g>
<!-- Node5&#45;&gt;Node8 -->
<g id="edge7" class="edge">
<title>Node5&#45;&gt;Node8</title>
<path fill="none" stroke="midnightblue" d="M512,-179.4C512,-170.06 512,-157.71 512,-147.52"/>
<polygon fill="midnightblue" stroke="midnightblue" points="515.5,-147.19 512,-137.19 508.5,-147.19 515.5,-147.19"/>
</g>
<!-- Node11 -->
<g id="node11" class="node">
<title>Node11</title>
<g id="a_node11"><a xlink:href="_write_event_receiver_8h.html" target="_top" xlink:title=" ">
<polygon fill="white" stroke="black" points="521.5,-56.5 521.5,-75.5 632.5,-75.5 632.5,-56.5 521.5,-56.5"/>
<text text-anchor="middle" x="577" y="-63.5" font-family="Helvetica,sans-Serif" font-size="10.00">WriteEventReceiver.h</text>
</a>
</g>
</g>
<!-- Node5&#45;&gt;Node11 -->
<g id="edge12" class="edge">
<title>Node5&#45;&gt;Node11</title>
<path fill="none" stroke="midnightblue" d="M564.65,-190.85C632.42,-186.21 744.51,-173.96 770,-143 808.56,-96.16 712.79,-78.06 642.79,-71.15"/>
<polygon fill="midnightblue" stroke="midnightblue" points="642.95,-67.65 632.67,-70.21 642.3,-74.62 642.95,-67.65"/>
</g>
<!-- Node12 -->
<g id="node12" class="node">
<title>Node12</title>
<g id="a_node12"><a xlink:href="_socket_reader_8h.html" target="_top" xlink:title=" ">
<polygon fill="white" stroke="black" points="655.5,-112.5 655.5,-142.5 760.5,-142.5 760.5,-112.5 655.5,-112.5"/>
<text text-anchor="start" x="663.5" y="-130.5" font-family="Helvetica,sans-Serif" font-size="10.00">socket/sock_stream</text>
<text text-anchor="middle" x="708" y="-119.5" font-family="Helvetica,sans-Serif" font-size="10.00">/SocketReader.h</text>
</a>
</g>
</g>
<!-- Node5&#45;&gt;Node12 -->
<g id="edge13" class="edge">
<title>Node5&#45;&gt;Node12</title>
<path fill="none" stroke="midnightblue" d="M554.53,-179.4C584.32,-169.52 624.32,-156.25 656.01,-145.74"/>
<polygon fill="midnightblue" stroke="midnightblue" points="657.16,-149.05 665.55,-142.58 654.96,-142.4 657.16,-149.05"/>
</g>
<!-- Node13 -->
<g id="node13" class="node">
<title>Node13</title>
<g id="a_node13"><a xlink:href="ssl__utils_8h.html" target="_top" xlink:title=" ">
<polygon fill="white" stroke="black" points="576.5,-118 576.5,-137 637.5,-137 637.5,-118 576.5,-118"/>
<text text-anchor="middle" x="607" y="-125" font-family="Helvetica,sans-Serif" font-size="10.00">ssl_utils.h</text>
</a>
</g>
</g>
<!-- Node5&#45;&gt;Node13 -->
<g id="edge15" class="edge">
<title>Node5&#45;&gt;Node13</title>
<path fill="none" stroke="midnightblue" d="M532.61,-179.4C548.4,-168.6 570.09,-153.76 585.97,-142.89"/>
<polygon fill="midnightblue" stroke="midnightblue" points="588.29,-145.54 594.57,-137.01 584.34,-139.77 588.29,-145.54"/>
</g>
<!-- Node9 -->
<g id="node9" class="node">
<title>Node9</title>
<g id="a_node9"><a xlink:href="_read_event_receiver_8h.html" target="_top" xlink:title=" ">
<polygon fill="white" stroke="black" points="391,-56.5 391,-75.5 503,-75.5 503,-56.5 391,-56.5"/>
<text text-anchor="middle" x="447" y="-63.5" font-family="Helvetica,sans-Serif" font-size="10.00">ReadEventReceiver.h</text>
</a>
</g>
</g>
<!-- Node8&#45;&gt;Node9 -->
<g id="edge8" class="edge">
<title>Node8&#45;&gt;Node9</title>
<path fill="none" stroke="midnightblue" d="M502.69,-117.98C492.55,-108.7 476.14,-93.67 463.75,-82.33"/>
<polygon fill="midnightblue" stroke="midnightblue" points="466.04,-79.68 456.3,-75.51 461.31,-84.84 466.04,-79.68"/>
</g>
<!-- Node8&#45;&gt;Node11 -->
<g id="edge10" class="edge">
<title>Node8&#45;&gt;Node11</title>
<path fill="none" stroke="midnightblue" d="M521.31,-117.98C531.45,-108.7 547.86,-93.67 560.25,-82.33"/>
<polygon fill="midnightblue" stroke="midnightblue" points="562.69,-84.84 567.7,-75.51 557.96,-79.68 562.69,-84.84"/>
</g>
<!-- Node10 -->
<g id="node10" class="node">
<title>Node10</title>
<g id="a_node10"><a xlink:href="_event_receiver_8h.html" target="_top" xlink:title=" ">
<polygon fill="white" stroke="black" points="467.5,-0.5 467.5,-19.5 556.5,-19.5 556.5,-0.5 467.5,-0.5"/>
<text text-anchor="middle" x="512" y="-7.5" font-family="Helvetica,sans-Serif" font-size="10.00">EventReceiver.h</text>
</a>
</g>
</g>
<!-- Node9&#45;&gt;Node10 -->
<g id="edge9" class="edge">
<title>Node9&#45;&gt;Node10</title>
<path fill="none" stroke="midnightblue" d="M457.44,-56.32C467.15,-48.26 481.82,-36.08 493.5,-26.37"/>
<polygon fill="midnightblue" stroke="midnightblue" points="495.91,-28.92 501.37,-19.83 491.44,-23.53 495.91,-28.92"/>
</g>
<!-- Node11&#45;&gt;Node10 -->
<g id="edge11" class="edge">
<title>Node11&#45;&gt;Node10</title>
<path fill="none" stroke="midnightblue" d="M566.56,-56.32C556.85,-48.26 542.18,-36.08 530.5,-26.37"/>
<polygon fill="midnightblue" stroke="midnightblue" points="532.56,-23.53 522.63,-19.83 528.09,-28.92 532.56,-23.53"/>
</g>
<!-- Node12&#45;&gt;Node9 -->
<g id="edge14" class="edge">
<title>Node12&#45;&gt;Node9</title>
<path fill="none" stroke="midnightblue" d="M655.44,-113.96C652.58,-113.3 649.76,-112.64 647,-112 595.38,-100.06 536.15,-86.79 495.63,-77.77"/>
<polygon fill="midnightblue" stroke="midnightblue" points="496.27,-74.33 485.75,-75.57 494.75,-81.16 496.27,-74.33"/>
</g>
<!-- Node14&#45;&gt;Node6 -->
<g id="edge17" class="edge">
<title>Node14&#45;&gt;Node6</title>
<path fill="none" stroke="midnightblue" d="M372.28,-179.4C380.31,-169.36 391.13,-155.84 399.6,-145.25"/>
<polygon fill="midnightblue" stroke="midnightblue" points="402.53,-147.19 406.04,-137.19 397.06,-142.82 402.53,-147.19"/>
</g>
<!-- Node14&#45;&gt;Node7 -->
<g id="edge18" class="edge">
<title>Node14&#45;&gt;Node7</title>
<path fill="none" stroke="midnightblue" d="M355.14,-179.4C351.14,-169.76 345.8,-156.91 341.49,-146.54"/>
<polygon fill="midnightblue" stroke="midnightblue" points="344.68,-145.09 337.61,-137.19 338.22,-147.77 344.68,-145.09"/>
</g>
<!-- Node14&#45;&gt;Node8 -->
<g id="edge20" class="edge">
<title>Node14&#45;&gt;Node8</title>
<path fill="none" stroke="midnightblue" d="M393.76,-179.4C420.26,-167.99 457.22,-152.08 482.73,-141.1"/>
<polygon fill="midnightblue" stroke="midnightblue" points="484.44,-144.18 492.24,-137.01 481.67,-137.75 484.44,-144.18"/>
</g>
<!-- Node14&#45;&gt;Node9 -->
<g id="edge19" class="edge">
<title>Node14&#45;&gt;Node9</title>
<path fill="none" stroke="midnightblue" d="M308.42,-188.74C240.19,-180.57 134.41,-159.86 175,-112 200.86,-81.51 308.77,-71.65 380.65,-68.48"/>
<polygon fill="midnightblue" stroke="midnightblue" points="381.13,-71.96 390.98,-68.06 380.85,-64.97 381.13,-71.96"/>
</g>
<!-- Node14&#45;&gt;Node13 -->
<g id="edge23" class="edge">
<title>Node14&#45;&gt;Node13</title>
<path fill="none" stroke="midnightblue" d="M413.92,-182.17C455.78,-172.82 515.55,-158.58 567,-143 569.63,-142.2 572.33,-141.33 575.04,-140.43"/>
<polygon fill="midnightblue" stroke="midnightblue" points="576.43,-143.65 584.72,-137.06 574.12,-137.04 576.43,-143.65"/>
</g>
<!-- Node15 -->
<g id="node15" class="node">
<title>Node15</title>
<g id="a_node15"><a xlink:href="_socket_writer_8h.html" target="_top" xlink:title=" ">
<polygon fill="white" stroke="black" points="184.5,-112.5 184.5,-142.5 289.5,-142.5 289.5,-112.5 184.5,-112.5"/>
<text text-anchor="start" x="192.5" y="-130.5" font-family="Helvetica,sans-Serif" font-size="10.00">socket/sock_stream</text>
<text text-anchor="middle" x="237" y="-119.5" font-family="Helvetica,sans-Serif" font-size="10.00">/SocketWriter.h</text>
</a>
</g>
</g>
<!-- Node14&#45;&gt;Node15 -->
<g id="edge21" class="edge">
<title>Node14&#45;&gt;Node15</title>
<path fill="none" stroke="midnightblue" d="M334.09,-179.4C316.14,-169.98 292.33,-157.5 272.78,-147.26"/>
<polygon fill="midnightblue" stroke="midnightblue" points="274.34,-144.12 263.85,-142.58 271.09,-150.32 274.34,-144.12"/>
</g>
<!-- Node15&#45;&gt;Node11 -->
<g id="edge22" class="edge">
<title>Node15&#45;&gt;Node11</title>
<path fill="none" stroke="midnightblue" d="M289.71,-113.91C292.85,-113.24 295.96,-112.6 299,-112 371.25,-97.72 454.72,-84.67 511.19,-76.34"/>
<polygon fill="midnightblue" stroke="midnightblue" points="512.03,-79.75 521.42,-74.84 511.01,-72.83 512.03,-79.75"/>
</g>
</g>
</svg>
