<?xml version="1.0" encoding="UTF-8" standalone="no"?>
<!DOCTYPE svg PUBLIC "-//W3C//DTD SVG 1.1//EN"
 "http://www.w3.org/Graphics/SVG/1.1/DTD/svg11.dtd">
<!-- Generated by graphviz version 2.43.0 (0)
 -->
<!-- Title: express/tls/WebApp.h Pages: 1 -->
<svg width="1747pt" height="587pt"
 viewBox="0.00 0.00 1747.27 587.00" xmlns="http://www.w3.org/2000/svg" xmlns:xlink="http://www.w3.org/1999/xlink">
<g id="graph0" class="graph" transform="scale(1 1) rotate(0) translate(4 583)">
<title>express/tls/WebApp.h</title>
<polygon fill="white" stroke="transparent" points="-4,4 -4,-583 1743.27,-583 1743.27,4 -4,4"/>
<!-- Node1 -->
<g id="node1" class="node">
<title>Node1</title>
<g id="a_node1"><a xlink:title=" ">
<polygon fill="#bfbfbf" stroke="black" points="921.27,-559.5 921.27,-578.5 1034.27,-578.5 1034.27,-559.5 921.27,-559.5"/>
<text text-anchor="middle" x="977.77" y="-566.5" font-family="Helvetica,sans-Serif" font-size="10.00">express/tls/WebApp.h</text>
</a>
</g>
</g>
<!-- Node2 -->
<g id="node2" class="node">
<title>Node2</title>
<g id="a_node2"><a xlink:href="_web_app_t_8h.html" target="_top" xlink:title=" ">
<polygon fill="white" stroke="black" points="1017.77,-375 1017.77,-394 1083.77,-394 1083.77,-375 1017.77,-375"/>
<text text-anchor="middle" x="1050.77" y="-382" font-family="Helvetica,sans-Serif" font-size="10.00">WebAppT.h</text>
</a>
</g>
</g>
<!-- Node1&#45;&gt;Node2 -->
<g id="edge1" class="edge">
<title>Node1&#45;&gt;Node2</title>
<path fill="none" stroke="midnightblue" d="M981.29,-559.2C992.59,-530.95 1028.09,-442.2 1043.51,-403.66"/>
<polygon fill="midnightblue" stroke="midnightblue" points="1046.82,-404.8 1047.29,-394.21 1040.32,-402.2 1046.82,-404.8"/>
</g>
<!-- Node14 -->
<g id="node14" class="node">
<title>Node14</title>
<g id="a_node14"><a xlink:href="tls_2_server_8h.html" target="_top" xlink:title=" ">
<polygon fill="white" stroke="black" points="914.77,-503.5 914.77,-522.5 980.77,-522.5 980.77,-503.5 914.77,-503.5"/>
<text text-anchor="middle" x="947.77" y="-510.5" font-family="Helvetica,sans-Serif" font-size="10.00">tls/Server.h</text>
</a>
</g>
</g>
<!-- Node1&#45;&gt;Node14 -->
<g id="edge14" class="edge">
<title>Node1&#45;&gt;Node14</title>
<path fill="none" stroke="midnightblue" d="M972.82,-559.08C968.67,-551.61 962.62,-540.72 957.51,-531.52"/>
<polygon fill="midnightblue" stroke="midnightblue" points="960.55,-529.79 952.64,-522.75 954.43,-533.19 960.55,-529.79"/>
</g>
<!-- Node3 -->
<g id="node3" class="node">
<title>Node3</title>
<g id="a_node3"><a xlink:href="_logger_8h.html" target="_top" xlink:title=" ">
<polygon fill="white" stroke="black" points="727.27,-56.5 727.27,-75.5 780.27,-75.5 780.27,-56.5 727.27,-56.5"/>
<text text-anchor="middle" x="753.77" y="-63.5" font-family="Helvetica,sans-Serif" font-size="10.00">Logger.h</text>
</a>
</g>
</g>
<!-- Node2&#45;&gt;Node3 -->
<g id="edge2" class="edge">
<title>Node2&#45;&gt;Node3</title>
<path fill="none" stroke="midnightblue" d="M1050.77,-374.91C1050.77,-354.48 1050.77,-301.36 1050.77,-257 1050.77,-257 1050.77,-257 1050.77,-193.5 1050.77,-69.52 920.35,-103.84 790.63,-76.04"/>
<polygon fill="midnightblue" stroke="midnightblue" points="791.02,-72.54 780.5,-73.74 789.47,-79.37 791.02,-72.54"/>
</g>
<!-- Node4 -->
<g id="node4" class="node">
<title>Node4</title>
<g id="a_node4"><a xlink:href="_web_app_8h.html" target="_top" xlink:title=" ">
<polygon fill="white" stroke="black" points="1563.77,-308 1563.77,-327 1625.77,-327 1625.77,-308 1563.77,-308"/>
<text text-anchor="middle" x="1594.77" y="-315" font-family="Helvetica,sans-Serif" font-size="10.00">WebApp.h</text>
</a>
</g>
</g>
<!-- Node2&#45;&gt;Node4 -->
<g id="edge3" class="edge">
<title>Node2&#45;&gt;Node4</title>
<path fill="none" stroke="midnightblue" d="M1083.98,-379.53C1178.66,-368.22 1449.75,-335.83 1553.6,-323.42"/>
<polygon fill="midnightblue" stroke="midnightblue" points="1554.18,-326.87 1563.7,-322.21 1553.35,-319.92 1554.18,-326.87"/>
</g>
<!-- Node5 -->
<g id="node5" class="node">
<title>Node5</title>
<g id="a_node5"><a xlink:href="_router_8h.html" target="_top" xlink:title=" ">
<polygon fill="white" stroke="black" points="1628.27,-246.5 1628.27,-265.5 1681.27,-265.5 1681.27,-246.5 1628.27,-246.5"/>
<text text-anchor="middle" x="1654.77" y="-253.5" font-family="Helvetica,sans-Serif" font-size="10.00">Router.h</text>
</a>
</g>
</g>
<!-- Node4&#45;&gt;Node5 -->
<g id="edge4" class="edge">
<title>Node4&#45;&gt;Node5</title>
<path fill="none" stroke="midnightblue" d="M1603.37,-307.98C1612.64,-298.78 1627.59,-283.96 1638.99,-272.66"/>
<polygon fill="midnightblue" stroke="midnightblue" points="1641.56,-275.04 1646.19,-265.51 1636.63,-270.07 1641.56,-275.04"/>
</g>
<!-- Node6 -->
<g id="node6" class="node">
<title>Node6</title>
<g id="a_node6"><a xlink:href="express_2_request_8h.html" target="_top" xlink:title=" ">
<polygon fill="white" stroke="black" points="1509.77,-185 1509.77,-204 1571.77,-204 1571.77,-185 1509.77,-185"/>
<text text-anchor="middle" x="1540.77" y="-192" font-family="Helvetica,sans-Serif" font-size="10.00">Request.h</text>
</a>
</g>
</g>
<!-- Node5&#45;&gt;Node6 -->
<g id="edge5" class="edge">
<title>Node5&#45;&gt;Node6</title>
<path fill="none" stroke="midnightblue" d="M1638.44,-246.48C1619.56,-236.62 1588.27,-220.29 1566.2,-208.77"/>
<polygon fill="midnightblue" stroke="midnightblue" points="1567.56,-205.53 1557.08,-204.01 1564.32,-211.74 1567.56,-205.53"/>
</g>
<!-- Node10 -->
<g id="node10" class="node">
<title>Node10</title>
<g id="a_node10"><a xlink:href="express_2_response_8h.html" target="_top" xlink:title=" ">
<polygon fill="white" stroke="black" points="1628.27,-185 1628.27,-204 1697.27,-204 1697.27,-185 1628.27,-185"/>
<text text-anchor="middle" x="1662.77" y="-192" font-family="Helvetica,sans-Serif" font-size="10.00">Response.h</text>
</a>
</g>
</g>
<!-- Node5&#45;&gt;Node10 -->
<g id="edge9" class="edge">
<title>Node5&#45;&gt;Node10</title>
<path fill="none" stroke="midnightblue" d="M1655.92,-246.48C1657.05,-238.08 1658.81,-224.98 1660.26,-214.16"/>
<polygon fill="midnightblue" stroke="midnightblue" points="1663.77,-214.39 1661.63,-204.01 1656.83,-213.45 1663.77,-214.39"/>
</g>
<!-- Node7 -->
<g id="node7" class="node">
<title>Node7</title>
<g id="a_node7"><a xlink:href="http_2_request_8h.html" target="_top" xlink:title=" ">
<polygon fill="white" stroke="black" points="1442.77,-118 1442.77,-137 1532.77,-137 1532.77,-118 1442.77,-118"/>
<text text-anchor="middle" x="1487.77" y="-125" font-family="Helvetica,sans-Serif" font-size="10.00">../http/Request.h</text>
</a>
</g>
</g>
<!-- Node6&#45;&gt;Node7 -->
<g id="edge6" class="edge">
<title>Node6&#45;&gt;Node7</title>
<path fill="none" stroke="midnightblue" d="M1533.63,-184.73C1525.36,-174.6 1511.57,-157.69 1501.27,-145.06"/>
<polygon fill="midnightblue" stroke="midnightblue" points="1503.84,-142.67 1494.81,-137.13 1498.41,-147.09 1503.84,-142.67"/>
</g>
<!-- Node8 -->
<g id="node8" class="node">
<title>Node8</title>
<g id="a_node8"><a xlink:href="_attribute_injector_8h.html" target="_top" xlink:title=" ">
<polygon fill="white" stroke="black" points="1327.27,-56.5 1327.27,-75.5 1420.27,-75.5 1420.27,-56.5 1327.27,-56.5"/>
<text text-anchor="middle" x="1373.77" y="-63.5" font-family="Helvetica,sans-Serif" font-size="10.00">AttributeInjector.h</text>
</a>
</g>
</g>
<!-- Node7&#45;&gt;Node8 -->
<g id="edge7" class="edge">
<title>Node7&#45;&gt;Node8</title>
<path fill="none" stroke="midnightblue" d="M1471.44,-117.98C1452.56,-108.12 1421.27,-91.79 1399.2,-80.27"/>
<polygon fill="midnightblue" stroke="midnightblue" points="1400.56,-77.03 1390.08,-75.51 1397.32,-83.24 1400.56,-77.03"/>
</g>
<!-- Node9 -->
<g id="node9" class="node">
<title>Node9</title>
<g id="a_node9"><a xlink:href="_connection_state_8h.html" target="_top" xlink:title=" ">
<polygon fill="white" stroke="black" points="1438.77,-56.5 1438.77,-75.5 1536.77,-75.5 1536.77,-56.5 1438.77,-56.5"/>
<text text-anchor="middle" x="1487.77" y="-63.5" font-family="Helvetica,sans-Serif" font-size="10.00">ConnectionState.h</text>
</a>
</g>
</g>
<!-- Node7&#45;&gt;Node9 -->
<g id="edge8" class="edge">
<title>Node7&#45;&gt;Node9</title>
<path fill="none" stroke="midnightblue" d="M1487.77,-117.98C1487.77,-109.58 1487.77,-96.48 1487.77,-85.66"/>
<polygon fill="midnightblue" stroke="midnightblue" points="1491.27,-85.51 1487.77,-75.51 1484.27,-85.51 1491.27,-85.51"/>
</g>
<!-- Node11 -->
<g id="node11" class="node">
<title>Node11</title>
<g id="a_node11"><a xlink:href="http_2_response_8h.html" target="_top" xlink:title=" ">
<polygon fill="white" stroke="black" points="1550.77,-118 1550.77,-137 1648.77,-137 1648.77,-118 1550.77,-118"/>
<text text-anchor="middle" x="1599.77" y="-125" font-family="Helvetica,sans-Serif" font-size="10.00">../http/Response.h</text>
</a>
</g>
</g>
<!-- Node10&#45;&gt;Node11 -->
<g id="edge10" class="edge">
<title>Node10&#45;&gt;Node11</title>
<path fill="none" stroke="midnightblue" d="M1654.28,-184.73C1644.26,-174.4 1627.43,-157.04 1615.12,-144.33"/>
<polygon fill="midnightblue" stroke="midnightblue" points="1617.61,-141.87 1608.14,-137.13 1612.58,-146.74 1617.61,-141.87"/>
</g>
<!-- Node11&#45;&gt;Node9 -->
<g id="edge11" class="edge">
<title>Node11&#45;&gt;Node9</title>
<path fill="none" stroke="midnightblue" d="M1583.73,-117.98C1565.18,-108.12 1534.43,-91.79 1512.75,-80.27"/>
<polygon fill="midnightblue" stroke="midnightblue" points="1514.26,-77.11 1503.79,-75.51 1510.98,-83.29 1514.26,-77.11"/>
</g>
<!-- Node12 -->
<g id="node12" class="node">
<title>Node12</title>
<g id="a_node12"><a xlink:href="_cookie_options_8h.html" target="_top" xlink:title=" ">
<polygon fill="white" stroke="black" points="1555.27,-56.5 1555.27,-75.5 1644.27,-75.5 1644.27,-56.5 1555.27,-56.5"/>
<text text-anchor="middle" x="1599.77" y="-63.5" font-family="Helvetica,sans-Serif" font-size="10.00">CookieOptions.h</text>
</a>
</g>
</g>
<!-- Node11&#45;&gt;Node12 -->
<g id="edge12" class="edge">
<title>Node11&#45;&gt;Node12</title>
<path fill="none" stroke="midnightblue" d="M1599.77,-117.98C1599.77,-109.58 1599.77,-96.48 1599.77,-85.66"/>
<polygon fill="midnightblue" stroke="midnightblue" points="1603.27,-85.51 1599.77,-75.51 1596.27,-85.51 1603.27,-85.51"/>
</g>
<!-- Node13 -->
<g id="node13" class="node">
<title>Node13</title>
<g id="a_node13"><a xlink:href="_sink_8h.html" target="_top" xlink:title=" ">
<polygon fill="white" stroke="black" points="1662.27,-56.5 1662.27,-75.5 1739.27,-75.5 1739.27,-56.5 1662.27,-56.5"/>
<text text-anchor="middle" x="1700.77" y="-63.5" font-family="Helvetica,sans-Serif" font-size="10.00">stream/Sink.h</text>
</a>
</g>
</g>
<!-- Node11&#45;&gt;Node13 -->
<g id="edge13" class="edge">
<title>Node11&#45;&gt;Node13</title>
<path fill="none" stroke="midnightblue" d="M1614.24,-117.98C1630.74,-108.25 1657.95,-92.23 1677.45,-80.74"/>
<polygon fill="midnightblue" stroke="midnightblue" points="1679.49,-83.6 1686.33,-75.51 1675.94,-77.57 1679.49,-83.6"/>
</g>
<!-- Node15 -->
<g id="node15" class="node">
<title>Node15</title>
<g id="a_node15"><a xlink:href="_server_8h.html" target="_top" xlink:title=" ">
<polygon fill="white" stroke="black" points="1346.77,-308 1346.77,-327 1408.77,-327 1408.77,-308 1346.77,-308"/>
<text text-anchor="middle" x="1377.77" y="-315" font-family="Helvetica,sans-Serif" font-size="10.00">../Server.h</text>
</a>
</g>
</g>
<!-- Node14&#45;&gt;Node15 -->
<g id="edge15" class="edge">
<title>Node14&#45;&gt;Node15</title>
<path fill="none" stroke="midnightblue" d="M950.93,-503.26C961.73,-473.57 997.19,-377.84 1008.77,-369 1059.48,-330.31 1251.15,-321.26 1336.43,-319.15"/>
<polygon fill="midnightblue" stroke="midnightblue" points="1336.61,-322.64 1346.53,-318.92 1336.45,-315.64 1336.61,-322.64"/>
</g>
<!-- Node22 -->
<g id="node22" class="node">
<title>Node22</title>
<g id="a_node22"><a xlink:href="ip_2tcp_2ipv4_2tls_2_socket_server_8h.html" target="_top" xlink:title=" ">
<polygon fill="white" stroke="black" points="853.77,-436.5 853.77,-466.5 953.77,-466.5 953.77,-436.5 853.77,-436.5"/>
<text text-anchor="start" x="861.77" y="-454.5" font-family="Helvetica,sans-Serif" font-size="10.00">socket/ip/tcp/ipv4</text>
<text text-anchor="middle" x="903.77" y="-443.5" font-family="Helvetica,sans-Serif" font-size="10.00">/tls/SocketServer.h</text>
</a>
</g>
</g>
<!-- Node14&#45;&gt;Node22 -->
<g id="edge29" class="edge">
<title>Node14&#45;&gt;Node22</title>
<path fill="none" stroke="midnightblue" d="M941.47,-503.48C935.9,-495.94 927.53,-484.63 920.09,-474.57"/>
<polygon fill="midnightblue" stroke="midnightblue" points="922.9,-472.48 914.14,-466.52 917.27,-476.64 922.9,-472.48"/>
</g>
<!-- Node44 -->
<g id="node44" class="node">
<title>Node44</title>
<g id="a_node44"><a xlink:href="ip_2tcp_2ipv6_2tls_2_socket_server_8h.html" target="_top" xlink:title=" ">
<polygon fill="white" stroke="black" points="732.77,-436.5 732.77,-466.5 832.77,-466.5 832.77,-436.5 732.77,-436.5"/>
<text text-anchor="start" x="740.77" y="-454.5" font-family="Helvetica,sans-Serif" font-size="10.00">socket/ip/tcp/ipv6</text>
<text text-anchor="middle" x="782.77" y="-443.5" font-family="Helvetica,sans-Serif" font-size="10.00">/tls/SocketServer.h</text>
</a>
</g>
</g>
<!-- Node14&#45;&gt;Node44 -->
<g id="edge72" class="edge">
<title>Node14&#45;&gt;Node44</title>
<path fill="none" stroke="midnightblue" d="M924.13,-503.48C900.01,-494.78 861.88,-481.03 831.3,-470"/>
<polygon fill="midnightblue" stroke="midnightblue" points="832.25,-466.62 821.66,-466.52 829.88,-473.21 832.25,-466.62"/>
</g>
<!-- Node15&#45;&gt;Node7 -->
<g id="edge16" class="edge">
<title>Node15&#45;&gt;Node7</title>
<path fill="none" stroke="midnightblue" d="M1386.55,-307.93C1403.58,-290.82 1441.35,-250.59 1462.77,-210 1473.43,-189.81 1480.32,-164.37 1484.11,-147.33"/>
<polygon fill="midnightblue" stroke="midnightblue" points="1487.55,-147.99 1486.17,-137.49 1480.7,-146.56 1487.55,-147.99"/>
</g>
<!-- Node15&#45;&gt;Node11 -->
<g id="edge17" class="edge">
<title>Node15&#45;&gt;Node11</title>
<path fill="none" stroke="midnightblue" d="M1408.86,-309C1453.93,-296.46 1536.82,-266.82 1580.77,-210 1594.84,-191.81 1598.78,-164.97 1599.73,-147.12"/>
<polygon fill="midnightblue" stroke="midnightblue" points="1603.23,-147.19 1600,-137.1 1596.23,-147 1603.23,-147.19"/>
</g>
<!-- Node16 -->
<g id="node16" class="node">
<title>Node16</title>
<g id="a_node16"><a xlink:href="_server_context_8hpp.html" target="_top" xlink:title=" ">
<polygon fill="white" stroke="black" points="1269.77,-246.5 1269.77,-265.5 1367.77,-265.5 1367.77,-246.5 1269.77,-246.5"/>
<text text-anchor="middle" x="1318.77" y="-253.5" font-family="Helvetica,sans-Serif" font-size="10.00">ServerContext.hpp</text>
</a>
</g>
</g>
<!-- Node15&#45;&gt;Node16 -->
<g id="edge18" class="edge">
<title>Node15&#45;&gt;Node16</title>
<path fill="none" stroke="midnightblue" d="M1369.32,-307.98C1360.21,-298.78 1345.5,-283.96 1334.3,-272.66"/>
<polygon fill="midnightblue" stroke="midnightblue" points="1336.74,-270.15 1327.21,-265.51 1331.77,-275.07 1336.74,-270.15"/>
</g>
<!-- Node16&#45;&gt;Node3 -->
<g id="edge20" class="edge">
<title>Node16&#45;&gt;Node3</title>
<path fill="none" stroke="midnightblue" d="M1288.41,-246.46C1263.08,-238.71 1226.46,-226.06 1196.77,-210 1188.74,-205.65 1073.24,-115.43 1064.77,-112 953.52,-66.99 913.02,-97.29 790.57,-75.88"/>
<polygon fill="midnightblue" stroke="midnightblue" points="790.9,-72.39 780.43,-74.03 789.64,-79.27 790.9,-72.39"/>
</g>
<!-- Node16&#45;&gt;Node9 -->
<g id="edge19" class="edge">
<title>Node16&#45;&gt;Node9</title>
<path fill="none" stroke="midnightblue" d="M1321.8,-246.4C1327.26,-231.63 1339.79,-200.92 1356.77,-179 1365.6,-167.61 1435.34,-109.92 1469.31,-82.08"/>
<polygon fill="midnightblue" stroke="midnightblue" points="1471.59,-84.73 1477.12,-75.69 1467.16,-79.32 1471.59,-84.73"/>
</g>
<!-- Node17 -->
<g id="node17" class="node">
<title>Node17</title>
<g id="a_node17"><a xlink:href="_server_context_8h.html" target="_top" xlink:title=" ">
<polygon fill="white" stroke="black" points="1365.77,-185 1365.77,-204 1453.77,-204 1453.77,-185 1365.77,-185"/>
<text text-anchor="middle" x="1409.77" y="-192" font-family="Helvetica,sans-Serif" font-size="10.00">ServerContext.h</text>
</a>
</g>
</g>
<!-- Node16&#45;&gt;Node17 -->
<g id="edge21" class="edge">
<title>Node16&#45;&gt;Node17</title>
<path fill="none" stroke="midnightblue" d="M1331.81,-246.48C1346.54,-236.84 1370.75,-221.02 1388.28,-209.55"/>
<polygon fill="midnightblue" stroke="midnightblue" points="1390.31,-212.41 1396.76,-204.01 1386.47,-206.55 1390.31,-212.41"/>
</g>
<!-- Node20 -->
<g id="node20" class="node">
<title>Node20</title>
<g id="a_node20"><a xlink:href="http__utils_8h.html" target="_top" xlink:title=" ">
<polygon fill="white" stroke="black" points="1206.27,-185 1206.27,-204 1271.27,-204 1271.27,-185 1206.27,-185"/>
<text text-anchor="middle" x="1238.77" y="-192" font-family="Helvetica,sans-Serif" font-size="10.00">http_utils.h</text>
</a>
</g>
</g>
<!-- Node16&#45;&gt;Node20 -->
<g id="edge26" class="edge">
<title>Node16&#45;&gt;Node20</title>
<path fill="none" stroke="midnightblue" d="M1307.31,-246.48C1294.6,-237.02 1273.86,-221.6 1258.52,-210.19"/>
<polygon fill="midnightblue" stroke="midnightblue" points="1260.33,-207.17 1250.21,-204.01 1256.15,-212.79 1260.33,-207.17"/>
</g>
<!-- Node21 -->
<g id="node21" class="node">
<title>Node21</title>
<g id="a_node21"><a xlink:href="_socket_connection_base_8h.html" target="_top" xlink:title=" ">
<polygon fill="white" stroke="black" points="1116.77,-112.5 1116.77,-142.5 1278.77,-142.5 1278.77,-112.5 1116.77,-112.5"/>
<text text-anchor="start" x="1124.77" y="-130.5" font-family="Helvetica,sans-Serif" font-size="10.00">socket/stream/SocketConnection</text>
<text text-anchor="middle" x="1197.77" y="-119.5" font-family="Helvetica,sans-Serif" font-size="10.00">Base.h</text>
</a>
</g>
</g>
<!-- Node16&#45;&gt;Node21 -->
<g id="edge27" class="edge">
<title>Node16&#45;&gt;Node21</title>
<path fill="none" stroke="midnightblue" d="M1315.99,-246.09C1310.86,-230.86 1298.71,-199.47 1279.77,-179 1268.02,-166.29 1252.37,-155.61 1237.89,-147.38"/>
<polygon fill="midnightblue" stroke="midnightblue" points="1239.52,-144.29 1229.07,-142.59 1236.18,-150.44 1239.52,-144.29"/>
</g>
<!-- Node17&#45;&gt;Node7 -->
<g id="edge22" class="edge">
<title>Node17&#45;&gt;Node7</title>
<path fill="none" stroke="midnightblue" d="M1420.29,-184.73C1432.92,-174.21 1454.32,-156.38 1469.63,-143.62"/>
<polygon fill="midnightblue" stroke="midnightblue" points="1471.98,-146.22 1477.42,-137.13 1467.5,-140.84 1471.98,-146.22"/>
</g>
<!-- Node17&#45;&gt;Node11 -->
<g id="edge25" class="edge">
<title>Node17&#45;&gt;Node11</title>
<path fill="none" stroke="midnightblue" d="M1435,-184.87C1468.46,-173.42 1527.63,-153.18 1565.22,-140.32"/>
<polygon fill="midnightblue" stroke="midnightblue" points="1566.41,-143.61 1574.74,-137.06 1564.15,-136.99 1566.41,-143.61"/>
</g>
<!-- Node18 -->
<g id="node18" class="node">
<title>Node18</title>
<g id="a_node18"><a xlink:href="_request_parser_8h.html" target="_top" xlink:title=" ">
<polygon fill="white" stroke="black" points="1297.27,-118 1297.27,-137 1386.27,-137 1386.27,-118 1297.27,-118"/>
<text text-anchor="middle" x="1341.77" y="-125" font-family="Helvetica,sans-Serif" font-size="10.00">RequestParser.h</text>
</a>
</g>
</g>
<!-- Node17&#45;&gt;Node18 -->
<g id="edge23" class="edge">
<title>Node17&#45;&gt;Node18</title>
<path fill="none" stroke="midnightblue" d="M1400.6,-184.73C1389.79,-174.4 1371.63,-157.04 1358.34,-144.33"/>
<polygon fill="midnightblue" stroke="midnightblue" points="1360.45,-141.51 1350.8,-137.13 1355.61,-146.57 1360.45,-141.51"/>
</g>
<!-- Node19 -->
<g id="node19" class="node">
<title>Node19</title>
<g id="a_node19"><a xlink:href="_parser_8h.html" target="_top" xlink:title=" ">
<polygon fill="white" stroke="black" points="1256.27,-56.5 1256.27,-75.5 1309.27,-75.5 1309.27,-56.5 1256.27,-56.5"/>
<text text-anchor="middle" x="1282.77" y="-63.5" font-family="Helvetica,sans-Serif" font-size="10.00">Parser.h</text>
</a>
</g>
</g>
<!-- Node18&#45;&gt;Node19 -->
<g id="edge24" class="edge">
<title>Node18&#45;&gt;Node19</title>
<path fill="none" stroke="midnightblue" d="M1333.32,-117.98C1324.21,-108.78 1309.5,-93.96 1298.3,-82.66"/>
<polygon fill="midnightblue" stroke="midnightblue" points="1300.74,-80.15 1291.21,-75.51 1295.77,-85.07 1300.74,-80.15"/>
</g>
<!-- Node21&#45;&gt;Node8 -->
<g id="edge28" class="edge">
<title>Node21&#45;&gt;Node8</title>
<path fill="none" stroke="midnightblue" d="M1239.48,-112.4C1269.76,-102.16 1310.26,-88.47 1338.84,-78.81"/>
<polygon fill="midnightblue" stroke="midnightblue" points="1340.07,-82.09 1348.42,-75.57 1337.83,-75.46 1340.07,-82.09"/>
</g>
<!-- Node23 -->
<g id="node23" class="node">
<title>Node23</title>
<g id="a_node23"><a xlink:href="ip_2tcp_2ipv4_2_socket_8h.html" target="_top" xlink:title=" ">
<polygon fill="white" stroke="black" points="856.77,-369.5 856.77,-399.5 950.77,-399.5 950.77,-369.5 856.77,-369.5"/>
<text text-anchor="start" x="864.77" y="-387.5" font-family="Helvetica,sans-Serif" font-size="10.00">socket/ip/tcp/ipv4</text>
<text text-anchor="middle" x="903.77" y="-376.5" font-family="Helvetica,sans-Serif" font-size="10.00">/Socket.h</text>
</a>
</g>
</g>
<!-- Node22&#45;&gt;Node23 -->
<g id="edge30" class="edge">
<title>Node22&#45;&gt;Node23</title>
<path fill="none" stroke="midnightblue" d="M903.77,-436.4C903.77,-428.64 903.77,-418.81 903.77,-409.86"/>
<polygon fill="midnightblue" stroke="midnightblue" points="907.27,-409.58 903.77,-399.58 900.27,-409.58 907.27,-409.58"/>
</g>
<!-- Node28 -->
<g id="node28" class="node">
<title>Node28</title>
<g id="a_node28"><a xlink:href="stream_2tls_2_socket_server_8h.html" target="_top" xlink:title=" ">
<polygon fill="white" stroke="black" points="578.77,-369.5 578.77,-399.5 704.77,-399.5 704.77,-369.5 578.77,-369.5"/>
<text text-anchor="start" x="586.77" y="-387.5" font-family="Helvetica,sans-Serif" font-size="10.00">socket/stream/tls/Socket</text>
<text text-anchor="middle" x="641.77" y="-376.5" font-family="Helvetica,sans-Serif" font-size="10.00">Server.h</text>
</a>
</g>
</g>
<!-- Node22&#45;&gt;Node28 -->
<g id="edge36" class="edge">
<title>Node22&#45;&gt;Node28</title>
<path fill="none" stroke="midnightblue" d="M853.57,-438.04C812.32,-427.81 753.53,-413.23 708.35,-402.02"/>
<polygon fill="midnightblue" stroke="midnightblue" points="709.19,-398.62 698.64,-399.61 707.5,-405.41 709.19,-398.62"/>
</g>
<!-- Node24 -->
<g id="node24" class="node">
<title>Node24</title>
<g id="a_node24"><a xlink:href="_socket_8h.html" target="_top" xlink:title=" ">
<polygon fill="white" stroke="black" points="934.77,-308 934.77,-327 1022.77,-327 1022.77,-308 934.77,-308"/>
<text text-anchor="middle" x="978.77" y="-315" font-family="Helvetica,sans-Serif" font-size="10.00">socket/Socket.h</text>
</a>
</g>
</g>
<!-- Node23&#45;&gt;Node24 -->
<g id="edge31" class="edge">
<title>Node23&#45;&gt;Node24</title>
<path fill="none" stroke="midnightblue" d="M920.05,-369.4C932.09,-358.96 948.48,-344.75 960.89,-334"/>
<polygon fill="midnightblue" stroke="midnightblue" points="963.48,-336.39 968.74,-327.19 958.89,-331.1 963.48,-336.39"/>
</g>
<!-- Node27 -->
<g id="node27" class="node">
<title>Node27</title>
<g id="a_node27"><a xlink:href="ipv4_2_inet_address_8h.html" target="_top" xlink:title=" ">
<polygon fill="white" stroke="black" points="801.27,-302.5 801.27,-332.5 916.27,-332.5 916.27,-302.5 801.27,-302.5"/>
<text text-anchor="start" x="809.27" y="-320.5" font-family="Helvetica,sans-Serif" font-size="10.00">socket/ip/address/ipv4</text>
<text text-anchor="middle" x="858.77" y="-309.5" font-family="Helvetica,sans-Serif" font-size="10.00">/InetAddress.h</text>
</a>
</g>
</g>
<!-- Node23&#45;&gt;Node27 -->
<g id="edge34" class="edge">
<title>Node23&#45;&gt;Node27</title>
<path fill="none" stroke="midnightblue" d="M894.01,-369.4C888.23,-361.05 880.78,-350.29 874.22,-340.81"/>
<polygon fill="midnightblue" stroke="midnightblue" points="877.09,-338.81 868.52,-332.58 871.33,-342.79 877.09,-338.81"/>
</g>
<!-- Node25 -->
<g id="node25" class="node">
<title>Node25</title>
<g id="a_node25"><a xlink:href="_descriptor_8h.html" target="_top" xlink:title=" ">
<polygon fill="white" stroke="black" points="454.27,-118 454.27,-137 523.27,-137 523.27,-118 454.27,-118"/>
<text text-anchor="middle" x="488.77" y="-125" font-family="Helvetica,sans-Serif" font-size="10.00">Descriptor.h</text>
</a>
</g>
</g>
<!-- Node24&#45;&gt;Node25 -->
<g id="edge32" class="edge">
<title>Node24&#45;&gt;Node25</title>
<path fill="none" stroke="midnightblue" d="M977.04,-307.63C973.64,-292.59 964.59,-262.13 944.77,-246 908.18,-216.21 578.1,-156.12 532.77,-143 529.78,-142.13 526.68,-141.2 523.59,-140.23"/>
<polygon fill="midnightblue" stroke="midnightblue" points="524.39,-136.82 513.8,-137.1 522.26,-143.48 524.39,-136.82"/>
</g>
<!-- Node26 -->
<g id="node26" class="node">
<title>Node26</title>
<g id="a_node26"><a xlink:href="_socket_address_8h.html" target="_top" xlink:title=" ">
<polygon fill="white" stroke="black" points="811.77,-246.5 811.77,-265.5 935.77,-265.5 935.77,-246.5 811.77,-246.5"/>
<text text-anchor="middle" x="873.77" y="-253.5" font-family="Helvetica,sans-Serif" font-size="10.00">socket/SocketAddress.h</text>
</a>
</g>
</g>
<!-- Node24&#45;&gt;Node26 -->
<g id="edge33" class="edge">
<title>Node24&#45;&gt;Node26</title>
<path fill="none" stroke="midnightblue" d="M963.73,-307.98C946.5,-298.21 918.03,-282.08 897.74,-270.58"/>
<polygon fill="midnightblue" stroke="midnightblue" points="899.22,-267.39 888.79,-265.51 895.76,-273.48 899.22,-267.39"/>
</g>
<!-- Node27&#45;&gt;Node26 -->
<g id="edge35" class="edge">
<title>Node27&#45;&gt;Node26</title>
<path fill="none" stroke="midnightblue" d="M862.33,-302.4C864.35,-294.38 866.91,-284.23 869.09,-275.57"/>
<polygon fill="midnightblue" stroke="midnightblue" points="872.54,-276.21 871.59,-265.66 865.75,-274.5 872.54,-276.21"/>
</g>
<!-- Node29 -->
<g id="node29" class="node">
<title>Node29</title>
<g id="a_node29"><a xlink:href="tls_2_socket_listener_8h.html" target="_top" xlink:title=" ">
<polygon fill="white" stroke="black" points="493.27,-308 493.27,-327 582.27,-327 582.27,-308 493.27,-308"/>
<text text-anchor="middle" x="537.77" y="-315" font-family="Helvetica,sans-Serif" font-size="10.00">SocketListener.h</text>
</a>
</g>
</g>
<!-- Node28&#45;&gt;Node29 -->
<g id="edge37" class="edge">
<title>Node28&#45;&gt;Node29</title>
<path fill="none" stroke="midnightblue" d="M619.21,-369.4C601.77,-358.5 577.74,-343.48 560.31,-332.58"/>
<polygon fill="midnightblue" stroke="midnightblue" points="561.72,-329.34 551.38,-327.01 558.01,-335.28 561.72,-329.34"/>
</g>
<!-- Node43 -->
<g id="node43" class="node">
<title>Node43</title>
<g id="a_node43"><a xlink:href="stream_2_socket_server_8h.html" target="_top" xlink:title=" ">
<polygon fill="white" stroke="black" points="645.27,-246.5 645.27,-265.5 794.27,-265.5 794.27,-246.5 645.27,-246.5"/>
<text text-anchor="middle" x="719.77" y="-253.5" font-family="Helvetica,sans-Serif" font-size="10.00">socket/stream/SocketServer.h</text>
</a>
</g>
</g>
<!-- Node28&#45;&gt;Node43 -->
<g id="edge70" class="edge">
<title>Node28&#45;&gt;Node43</title>
<path fill="none" stroke="midnightblue" d="M641.74,-369.39C642.33,-352.18 645.43,-322.8 658.77,-302 667.15,-288.94 680.76,-278.36 693,-270.75"/>
<polygon fill="midnightblue" stroke="midnightblue" points="695.1,-273.57 701.98,-265.52 691.58,-267.53 695.1,-273.57"/>
</g>
<!-- Node29&#45;&gt;Node3 -->
<g id="edge38" class="edge">
<title>Node29&#45;&gt;Node3</title>
<path fill="none" stroke="midnightblue" d="M545.03,-307.91C556.7,-294.29 580.56,-267.09 602.77,-246 654.73,-196.67 685.76,-201.74 726.77,-143 739.02,-125.46 746.26,-101.8 750.12,-85.56"/>
<polygon fill="midnightblue" stroke="midnightblue" points="753.56,-86.18 752.26,-75.67 746.72,-84.7 753.56,-86.18"/>
</g>
<!-- Node30 -->
<g id="node30" class="node">
<title>Node30</title>
<g id="a_node30"><a xlink:href="tls_2_socket_connection_8h.html" target="_top" xlink:title=" ">
<polygon fill="white" stroke="black" points="441.27,-246.5 441.27,-265.5 546.27,-265.5 546.27,-246.5 441.27,-246.5"/>
<text text-anchor="middle" x="493.77" y="-253.5" font-family="Helvetica,sans-Serif" font-size="10.00">SocketConnection.h</text>
</a>
</g>
</g>
<!-- Node29&#45;&gt;Node30 -->
<g id="edge39" class="edge">
<title>Node29&#45;&gt;Node30</title>
<path fill="none" stroke="midnightblue" d="M531.47,-307.98C524.87,-299.05 514.34,-284.81 506.08,-273.64"/>
<polygon fill="midnightblue" stroke="midnightblue" points="508.83,-271.47 500.07,-265.51 503.2,-275.63 508.83,-271.47"/>
</g>
<!-- Node33 -->
<g id="node33" class="node">
<title>Node33</title>
<g id="a_node33"><a xlink:href="_t_l_s_handshake_8h.html" target="_top" xlink:title=" ">
<polygon fill="white" stroke="black" points="17.77,-118 17.77,-137 109.77,-137 109.77,-118 17.77,-118"/>
<text text-anchor="middle" x="63.77" y="-125" font-family="Helvetica,sans-Serif" font-size="10.00">TLSHandshake.h</text>
</a>
</g>
</g>
<!-- Node29&#45;&gt;Node33 -->
<g id="edge63" class="edge">
<title>Node29&#45;&gt;Node33</title>
<path fill="none" stroke="midnightblue" d="M510.25,-307.92C456.58,-290.94 334.51,-251.16 234.77,-210 182.2,-188.31 122.63,-158.73 89.5,-141.82"/>
<polygon fill="midnightblue" stroke="midnightblue" points="90.99,-138.65 80.49,-137.21 87.79,-144.88 90.99,-138.65"/>
</g>
<!-- Node38 -->
<g id="node38" class="node">
<title>Node38</title>
<g id="a_node38"><a xlink:href="ssl__utils_8h.html" target="_top" xlink:title=" ">
<polygon fill="white" stroke="black" points="336.27,-118 336.27,-137 397.27,-137 397.27,-118 336.27,-118"/>
<text text-anchor="middle" x="366.77" y="-125" font-family="Helvetica,sans-Serif" font-size="10.00">ssl_utils.h</text>
</a>
</g>
</g>
<!-- Node29&#45;&gt;Node38 -->
<g id="edge69" class="edge">
<title>Node29&#45;&gt;Node38</title>
<path fill="none" stroke="midnightblue" d="M506.56,-307.9C483.45,-300.17 452.5,-286.79 431.77,-266 397.54,-231.66 378.97,-175.84 371.21,-147.02"/>
<polygon fill="midnightblue" stroke="midnightblue" points="374.54,-145.91 368.68,-137.09 367.76,-147.64 374.54,-145.91"/>
</g>
<!-- Node41 -->
<g id="node41" class="node">
<title>Node41</title>
<g id="a_node41"><a xlink:href="_socket_listener_8h.html" target="_top" xlink:title=" ">
<polygon fill="white" stroke="black" points="782.27,-118 782.27,-137 937.27,-137 937.27,-118 782.27,-118"/>
<text text-anchor="middle" x="859.77" y="-125" font-family="Helvetica,sans-Serif" font-size="10.00">socket/stream/SocketListener.h</text>
</a>
</g>
</g>
<!-- Node29&#45;&gt;Node41 -->
<g id="edge64" class="edge">
<title>Node29&#45;&gt;Node41</title>
<path fill="none" stroke="midnightblue" d="M548.59,-307.94C566.3,-294.12 602.79,-266.38 635.77,-246 704.06,-203.82 789.01,-161.98 832.03,-141.49"/>
<polygon fill="midnightblue" stroke="midnightblue" points="833.75,-144.55 841.29,-137.1 830.76,-138.22 833.75,-144.55"/>
</g>
<!-- Node31 -->
<g id="node31" class="node">
<title>Node31</title>
<g id="a_node31"><a xlink:href="_socket_connection_8h.html" target="_top" xlink:title=" ">
<polygon fill="white" stroke="black" points="852.77,-185 852.77,-204 1022.77,-204 1022.77,-185 852.77,-185"/>
<text text-anchor="middle" x="937.77" y="-192" font-family="Helvetica,sans-Serif" font-size="10.00">socket/stream/SocketConnection.h</text>
</a>
</g>
</g>
<!-- Node30&#45;&gt;Node31 -->
<g id="edge40" class="edge">
<title>Node30&#45;&gt;Node31</title>
<path fill="none" stroke="midnightblue" d="M546.45,-247.94C625.3,-237.37 774.32,-217.4 863.98,-205.39"/>
<polygon fill="midnightblue" stroke="midnightblue" points="864.63,-208.83 874.07,-204.04 863.7,-201.9 864.63,-208.83"/>
</g>
<!-- Node32 -->
<g id="node32" class="node">
<title>Node32</title>
<g id="a_node32"><a xlink:href="tls_2_socket_reader_8h.html" target="_top" xlink:title=" ">
<polygon fill="white" stroke="black" points="243.77,-179.5 243.77,-209.5 369.77,-209.5 369.77,-179.5 243.77,-179.5"/>
<text text-anchor="start" x="251.77" y="-197.5" font-family="Helvetica,sans-Serif" font-size="10.00">socket/stream/tls/Socket</text>
<text text-anchor="middle" x="306.77" y="-186.5" font-family="Helvetica,sans-Serif" font-size="10.00">Reader.h</text>
</a>
</g>
</g>
<!-- Node30&#45;&gt;Node32 -->
<g id="edge42" class="edge">
<title>Node30&#45;&gt;Node32</title>
<path fill="none" stroke="midnightblue" d="M466.98,-246.48C439.29,-237.66 395.3,-223.67 360.42,-212.57"/>
<polygon fill="midnightblue" stroke="midnightblue" points="361.44,-209.22 350.85,-209.52 359.31,-215.89 361.44,-209.22"/>
</g>
<!-- Node39 -->
<g id="node39" class="node">
<title>Node39</title>
<g id="a_node39"><a xlink:href="tls_2_socket_writer_8h.html" target="_top" xlink:title=" ">
<polygon fill="white" stroke="black" points="425.77,-179.5 425.77,-209.5 551.77,-209.5 551.77,-179.5 425.77,-179.5"/>
<text text-anchor="start" x="433.77" y="-197.5" font-family="Helvetica,sans-Serif" font-size="10.00">socket/stream/tls/Socket</text>
<text text-anchor="middle" x="488.77" y="-186.5" font-family="Helvetica,sans-Serif" font-size="10.00">Writer.h</text>
</a>
</g>
</g>
<!-- Node30&#45;&gt;Node39 -->
<g id="edge54" class="edge">
<title>Node30&#45;&gt;Node39</title>
<path fill="none" stroke="midnightblue" d="M493.06,-246.48C492.47,-239.47 491.6,-229.19 490.81,-219.7"/>
<polygon fill="midnightblue" stroke="midnightblue" points="494.28,-219.19 489.95,-209.52 487.3,-219.78 494.28,-219.19"/>
</g>
<!-- Node31&#45;&gt;Node21 -->
<g id="edge41" class="edge">
<title>Node31&#45;&gt;Node21</title>
<path fill="none" stroke="midnightblue" d="M972.03,-184.94C1012.49,-174.82 1080.73,-157.76 1131.61,-145.04"/>
<polygon fill="midnightblue" stroke="midnightblue" points="1132.68,-148.38 1141.54,-142.56 1130.99,-141.59 1132.68,-148.38"/>
</g>
<!-- Node32&#45;&gt;Node3 -->
<g id="edge44" class="edge">
<title>Node32&#45;&gt;Node3</title>
<path fill="none" stroke="midnightblue" d="M305.74,-179.22C305.27,-160.69 307.56,-128.77 326.77,-112 355.93,-86.55 618.81,-72.78 717,-68.48"/>
<polygon fill="midnightblue" stroke="midnightblue" points="717.22,-71.98 727.06,-68.05 716.92,-64.98 717.22,-71.98"/>
</g>
<!-- Node32&#45;&gt;Node25 -->
<g id="edge43" class="edge">
<title>Node32&#45;&gt;Node25</title>
<path fill="none" stroke="midnightblue" d="M346.26,-179.4C378.91,-167.74 424.73,-151.37 455.52,-140.38"/>
<polygon fill="midnightblue" stroke="midnightblue" points="456.71,-143.67 464.95,-137.01 454.36,-137.07 456.71,-143.67"/>
</g>
<!-- Node32&#45;&gt;Node33 -->
<g id="edge45" class="edge">
<title>Node32&#45;&gt;Node33</title>
<path fill="none" stroke="midnightblue" d="M254.35,-179.48C209.75,-167.55 146.56,-150.64 105.37,-139.63"/>
<polygon fill="midnightblue" stroke="midnightblue" points="106.22,-136.23 95.66,-137.03 104.41,-142.99 106.22,-136.23"/>
</g>
<!-- Node36 -->
<g id="node36" class="node">
<title>Node36</title>
<g id="a_node36"><a xlink:href="_write_event_receiver_8h.html" target="_top" xlink:title=" ">
<polygon fill="white" stroke="black" points="124.27,-56.5 124.27,-75.5 235.27,-75.5 235.27,-56.5 124.27,-56.5"/>
<text text-anchor="middle" x="179.77" y="-63.5" font-family="Helvetica,sans-Serif" font-size="10.00">WriteEventReceiver.h</text>
</a>
</g>
</g>
<!-- Node32&#45;&gt;Node36 -->
<g id="edge50" class="edge">
<title>Node32&#45;&gt;Node36</title>
<path fill="none" stroke="midnightblue" d="M243.7,-192.01C165.32,-188.67 38.23,-177.87 8.77,-143 -25.24,-102.74 52.52,-82.99 114.05,-73.92"/>
<polygon fill="midnightblue" stroke="midnightblue" points="114.74,-77.36 124.15,-72.5 113.76,-70.42 114.74,-77.36"/>
</g>
<!-- Node37 -->
<g id="node37" class="node">
<title>Node37</title>
<g id="a_node37"><a xlink:href="_socket_reader_8h.html" target="_top" xlink:title=" ">
<polygon fill="white" stroke="black" points="127.77,-118 127.77,-137 279.77,-137 279.77,-118 127.77,-118"/>
<text text-anchor="middle" x="203.77" y="-125" font-family="Helvetica,sans-Serif" font-size="10.00">socket/stream/SocketReader.h</text>
</a>
</g>
</g>
<!-- Node32&#45;&gt;Node37 -->
<g id="edge51" class="edge">
<title>Node32&#45;&gt;Node37</title>
<path fill="none" stroke="midnightblue" d="M284.42,-179.4C267.15,-168.5 243.35,-153.48 226.09,-142.58"/>
<polygon fill="midnightblue" stroke="midnightblue" points="227.58,-139.38 217.25,-137.01 223.84,-145.3 227.58,-139.38"/>
</g>
<!-- Node32&#45;&gt;Node38 -->
<g id="edge53" class="edge">
<title>Node32&#45;&gt;Node38</title>
<path fill="none" stroke="midnightblue" d="M319.79,-179.4C329.24,-169.16 342.04,-155.3 351.89,-144.62"/>
<polygon fill="midnightblue" stroke="midnightblue" points="354.54,-146.92 358.75,-137.19 349.39,-142.17 354.54,-146.92"/>
</g>
<!-- Node34 -->
<g id="node34" class="node">
<title>Node34</title>
<g id="a_node34"><a xlink:href="_read_event_receiver_8h.html" target="_top" xlink:title=" ">
<polygon fill="white" stroke="black" points="258.77,-56.5 258.77,-75.5 370.77,-75.5 370.77,-56.5 258.77,-56.5"/>
<text text-anchor="middle" x="314.77" y="-63.5" font-family="Helvetica,sans-Serif" font-size="10.00">ReadEventReceiver.h</text>
</a>
</g>
</g>
<!-- Node33&#45;&gt;Node34 -->
<g id="edge46" class="edge">
<title>Node33&#45;&gt;Node34</title>
<path fill="none" stroke="midnightblue" d="M95.43,-117.97C103.06,-115.96 111.2,-113.87 118.77,-112 168.82,-99.66 226.34,-86.59 266.06,-77.73"/>
<polygon fill="midnightblue" stroke="midnightblue" points="267.01,-81.1 276.01,-75.51 265.49,-74.27 267.01,-81.1"/>
</g>
<!-- Node33&#45;&gt;Node36 -->
<g id="edge48" class="edge">
<title>Node33&#45;&gt;Node36</title>
<path fill="none" stroke="midnightblue" d="M80.39,-117.98C99.69,-108.08 131.73,-91.64 154.2,-80.12"/>
<polygon fill="midnightblue" stroke="midnightblue" points="155.88,-83.19 163.18,-75.51 152.69,-76.96 155.88,-83.19"/>
</g>
<!-- Node35 -->
<g id="node35" class="node">
<title>Node35</title>
<g id="a_node35"><a xlink:href="_descriptor_event_receiver_8h.html" target="_top" xlink:title=" ">
<polygon fill="white" stroke="black" points="247.77,-0.5 247.77,-19.5 381.77,-19.5 381.77,-0.5 247.77,-0.5"/>
<text text-anchor="middle" x="314.77" y="-7.5" font-family="Helvetica,sans-Serif" font-size="10.00">DescriptorEventReceiver.h</text>
</a>
</g>
</g>
<!-- Node34&#45;&gt;Node35 -->
<g id="edge47" class="edge">
<title>Node34&#45;&gt;Node35</title>
<path fill="none" stroke="midnightblue" d="M314.77,-56.08C314.77,-49.01 314.77,-38.86 314.77,-29.99"/>
<polygon fill="midnightblue" stroke="midnightblue" points="318.27,-29.75 314.77,-19.75 311.27,-29.75 318.27,-29.75"/>
</g>
<!-- Node36&#45;&gt;Node35 -->
<g id="edge49" class="edge">
<title>Node36&#45;&gt;Node35</title>
<path fill="none" stroke="midnightblue" d="M201.16,-56.44C223.48,-47.52 258.68,-33.44 283.98,-23.32"/>
<polygon fill="midnightblue" stroke="midnightblue" points="285.5,-26.48 293.48,-19.52 282.9,-19.98 285.5,-26.48"/>
</g>
<!-- Node37&#45;&gt;Node34 -->
<g id="edge52" class="edge">
<title>Node37&#45;&gt;Node34</title>
<path fill="none" stroke="midnightblue" d="M219.68,-117.98C238.06,-108.12 268.53,-91.79 290.02,-80.27"/>
<polygon fill="midnightblue" stroke="midnightblue" points="291.74,-83.32 298.9,-75.51 288.43,-77.15 291.74,-83.32"/>
</g>
<!-- Node39&#45;&gt;Node3 -->
<g id="edge56" class="edge">
<title>Node39&#45;&gt;Node3</title>
<path fill="none" stroke="midnightblue" d="M552.03,-180.4C608.64,-168.31 684.56,-151.05 696.77,-143 718.88,-128.43 735.67,-102.26 745.12,-84.76"/>
<polygon fill="midnightblue" stroke="midnightblue" points="748.37,-86.1 749.82,-75.61 742.14,-82.9 748.37,-86.1"/>
</g>
<!-- Node39&#45;&gt;Node25 -->
<g id="edge55" class="edge">
<title>Node39&#45;&gt;Node25</title>
<path fill="none" stroke="midnightblue" d="M488.77,-179.4C488.77,-170.06 488.77,-157.71 488.77,-147.52"/>
<polygon fill="midnightblue" stroke="midnightblue" points="492.27,-147.19 488.77,-137.19 485.27,-147.19 492.27,-147.19"/>
</g>
<!-- Node39&#45;&gt;Node33 -->
<g id="edge58" class="edge">
<title>Node39&#45;&gt;Node33</title>
<path fill="none" stroke="midnightblue" d="M425.46,-185.06C323.7,-171.47 133.62,-145.96 118.77,-143 113.76,-142 108.52,-140.81 103.35,-139.55"/>
<polygon fill="midnightblue" stroke="midnightblue" points="104.14,-136.14 93.59,-137.07 102.42,-142.93 104.14,-136.14"/>
</g>
<!-- Node39&#45;&gt;Node34 -->
<g id="edge57" class="edge">
<title>Node39&#45;&gt;Node34</title>
<path fill="none" stroke="midnightblue" d="M476.97,-179.43C461.82,-161.99 434.09,-132.12 405.77,-112 387.26,-98.85 364.33,-87.53 346.12,-79.54"/>
<polygon fill="midnightblue" stroke="midnightblue" points="347.38,-76.28 336.81,-75.56 344.63,-82.71 347.38,-76.28"/>
</g>
<!-- Node39&#45;&gt;Node38 -->
<g id="edge62" class="edge">
<title>Node39&#45;&gt;Node38</title>
<path fill="none" stroke="midnightblue" d="M462.3,-179.4C441.37,-168.24 412.35,-152.78 391.8,-141.83"/>
<polygon fill="midnightblue" stroke="midnightblue" points="393.21,-138.62 382.74,-137.01 389.92,-144.8 393.21,-138.62"/>
</g>
<!-- Node40 -->
<g id="node40" class="node">
<title>Node40</title>
<g id="a_node40"><a xlink:href="_socket_writer_8h.html" target="_top" xlink:title=" ">
<polygon fill="white" stroke="black" points="541.77,-118 541.77,-137 687.77,-137 687.77,-118 541.77,-118"/>
<text text-anchor="middle" x="614.77" y="-125" font-family="Helvetica,sans-Serif" font-size="10.00">socket/stream/SocketWriter.h</text>
</a>
</g>
</g>
<!-- Node39&#45;&gt;Node40 -->
<g id="edge59" class="edge">
<title>Node39&#45;&gt;Node40</title>
<path fill="none" stroke="midnightblue" d="M516.11,-179.4C537.83,-168.19 567.98,-152.64 589.21,-141.69"/>
<polygon fill="midnightblue" stroke="midnightblue" points="591,-144.7 598.28,-137.01 587.79,-138.48 591,-144.7"/>
</g>
<!-- Node40&#45;&gt;Node3 -->
<g id="edge60" class="edge">
<title>Node40&#45;&gt;Node3</title>
<path fill="none" stroke="midnightblue" d="M634.69,-117.98C658.22,-107.9 697.58,-91.05 724.57,-79.5"/>
<polygon fill="midnightblue" stroke="midnightblue" points="726.08,-82.66 733.89,-75.51 723.32,-76.23 726.08,-82.66"/>
</g>
<!-- Node40&#45;&gt;Node36 -->
<g id="edge61" class="edge">
<title>Node40&#45;&gt;Node36</title>
<path fill="none" stroke="midnightblue" d="M568.3,-117.99C556.41,-115.92 543.63,-113.79 531.77,-112 406.84,-93.12 375.1,-92.06 249.77,-76 248.47,-75.83 247.16,-75.67 245.84,-75.5"/>
<polygon fill="midnightblue" stroke="midnightblue" points="245.92,-71.98 235.56,-74.18 245.03,-78.92 245.92,-71.98"/>
</g>
<!-- Node41&#45;&gt;Node3 -->
<g id="edge67" class="edge">
<title>Node41&#45;&gt;Node3</title>
<path fill="none" stroke="midnightblue" d="M844.59,-117.98C827.11,-108.17 798.19,-91.93 777.69,-80.42"/>
<polygon fill="midnightblue" stroke="midnightblue" points="779.37,-77.35 768.93,-75.51 775.94,-83.46 779.37,-77.35"/>
</g>
<!-- Node41&#45;&gt;Node34 -->
<g id="edge68" class="edge">
<title>Node41&#45;&gt;Node34</title>
<path fill="none" stroke="midnightblue" d="M782.27,-118.04C674.73,-106.3 482.11,-85.27 380.95,-74.23"/>
<polygon fill="midnightblue" stroke="midnightblue" points="381.18,-70.73 370.86,-73.12 380.42,-77.69 381.18,-70.73"/>
</g>
<!-- Node42 -->
<g id="node42" class="node">
<title>Node42</title>
<g id="a_node42"><a xlink:href="_accept_event_receiver_8h.html" target="_top" xlink:title=" ">
<polygon fill="white" stroke="black" points="799.27,-56.5 799.27,-75.5 918.27,-75.5 918.27,-56.5 799.27,-56.5"/>
<text text-anchor="middle" x="858.77" y="-63.5" font-family="Helvetica,sans-Serif" font-size="10.00">AcceptEventReceiver.h</text>
</a>
</g>
</g>
<!-- Node41&#45;&gt;Node42 -->
<g id="edge65" class="edge">
<title>Node41&#45;&gt;Node42</title>
<path fill="none" stroke="midnightblue" d="M859.63,-117.98C859.49,-109.58 859.27,-96.48 859.09,-85.66"/>
<polygon fill="midnightblue" stroke="midnightblue" points="862.58,-85.45 858.92,-75.51 855.58,-85.57 862.58,-85.45"/>
</g>
<!-- Node42&#45;&gt;Node35 -->
<g id="edge66" class="edge">
<title>Node42&#45;&gt;Node35</title>
<path fill="none" stroke="midnightblue" d="M799.22,-57.21C795.68,-56.79 792.18,-56.38 788.77,-56 649.07,-40.39 485.81,-25.66 391.94,-17.53"/>
<polygon fill="midnightblue" stroke="midnightblue" points="392.22,-14.04 381.96,-16.67 391.62,-21.02 392.22,-14.04"/>
</g>
<!-- Node43&#45;&gt;Node41 -->
<g id="edge71" class="edge">
<title>Node43&#45;&gt;Node41</title>
<path fill="none" stroke="midnightblue" d="M729.4,-246.31C752.77,-225.18 812.82,-170.93 842.55,-144.06"/>
<polygon fill="midnightblue" stroke="midnightblue" points="845.01,-146.56 850.08,-137.26 840.32,-141.36 845.01,-146.56"/>
</g>
<!-- Node44&#45;&gt;Node28 -->
<g id="edge77" class="edge">
<title>Node44&#45;&gt;Node28</title>
<path fill="none" stroke="midnightblue" d="M752.18,-436.4C731.48,-426.86 703.95,-414.16 681.56,-403.84"/>
<polygon fill="midnightblue" stroke="midnightblue" points="682.86,-400.58 672.31,-399.58 679.92,-406.94 682.86,-400.58"/>
</g>
<!-- Node45 -->
<g id="node45" class="node">
<title>Node45</title>
<g id="a_node45"><a xlink:href="ip_2tcp_2ipv6_2_socket_8h.html" target="_top" xlink:title=" ">
<polygon fill="white" stroke="black" points="735.77,-369.5 735.77,-399.5 829.77,-399.5 829.77,-369.5 735.77,-369.5"/>
<text text-anchor="start" x="743.77" y="-387.5" font-family="Helvetica,sans-Serif" font-size="10.00">socket/ip/tcp/ipv6</text>
<text text-anchor="middle" x="782.77" y="-376.5" font-family="Helvetica,sans-Serif" font-size="10.00">/Socket.h</text>
</a>
</g>
</g>
<!-- Node44&#45;&gt;Node45 -->
<g id="edge73" class="edge">
<title>Node44&#45;&gt;Node45</title>
<path fill="none" stroke="midnightblue" d="M782.77,-436.4C782.77,-428.64 782.77,-418.81 782.77,-409.86"/>
<polygon fill="midnightblue" stroke="midnightblue" points="786.27,-409.58 782.77,-399.58 779.27,-409.58 786.27,-409.58"/>
</g>
<!-- Node45&#45;&gt;Node24 -->
<g id="edge74" class="edge">
<title>Node45&#45;&gt;Node24</title>
<path fill="none" stroke="midnightblue" d="M825.3,-369.4C860.61,-357.69 910.23,-341.23 943.39,-330.23"/>
<polygon fill="midnightblue" stroke="midnightblue" points="944.73,-333.48 953.12,-327.01 942.53,-326.83 944.73,-333.48"/>
</g>
<!-- Node46 -->
<g id="node46" class="node">
<title>Node46</title>
<g id="a_node46"><a xlink:href="ipv6_2_inet_address_8h.html" target="_top" xlink:title=" ">
<polygon fill="white" stroke="black" points="668.27,-302.5 668.27,-332.5 783.27,-332.5 783.27,-302.5 668.27,-302.5"/>
<text text-anchor="start" x="676.27" y="-320.5" font-family="Helvetica,sans-Serif" font-size="10.00">socket/ip/address/ipv6</text>
<text text-anchor="middle" x="725.77" y="-309.5" font-family="Helvetica,sans-Serif" font-size="10.00">/InetAddress.h</text>
</a>
</g>
</g>
<!-- Node45&#45;&gt;Node46 -->
<g id="edge75" class="edge">
<title>Node45&#45;&gt;Node46</title>
<path fill="none" stroke="midnightblue" d="M770.41,-369.4C762.94,-360.88 753.26,-349.85 744.83,-340.23"/>
<polygon fill="midnightblue" stroke="midnightblue" points="747.34,-337.79 738.12,-332.58 742.08,-342.4 747.34,-337.79"/>
</g>
<!-- Node46&#45;&gt;Node26 -->
<g id="edge76" class="edge">
<title>Node46&#45;&gt;Node26</title>
<path fill="none" stroke="midnightblue" d="M760.85,-302.4C785.79,-292.37 818.98,-279.03 842.92,-269.4"/>
<polygon fill="midnightblue" stroke="midnightblue" points="844.27,-272.64 852.24,-265.66 841.65,-266.14 844.27,-272.64"/>
</g>
</g>
</svg>
