<?xml version="1.0" encoding="UTF-8" standalone="no"?>
<!DOCTYPE svg PUBLIC "-//W3C//DTD SVG 1.1//EN"
 "http://www.w3.org/Graphics/SVG/1.1/DTD/svg11.dtd">
<!-- Generated by graphviz version 2.43.0 (0)
 -->
<!-- Title: web/http/server/SocketContext.h Pages: 1 -->
<svg width="403pt" height="151pt"
 viewBox="0.00 0.00 402.50 151.00" xmlns="http://www.w3.org/2000/svg" xmlns:xlink="http://www.w3.org/1999/xlink">
<g id="graph0" class="graph" transform="scale(1 1) rotate(0) translate(4 147)">
<title>web/http/server/SocketContext.h</title>
<polygon fill="white" stroke="transparent" points="-4,4 -4,-147 398.5,-147 398.5,4 -4,4"/>
<!-- Node1 -->
<g id="node1" class="node">
<title>Node1</title>
<g id="a_node1"><a xlink:title=" ">
<polygon fill="#bfbfbf" stroke="black" points="71,-123.5 71,-142.5 232,-142.5 232,-123.5 71,-123.5"/>
<text text-anchor="middle" x="151.5" y="-130.5" font-family="Helvetica,sans-Serif" font-size="10.00">web/http/server/SocketContext.h</text>
</a>
</g>
</g>
<!-- Node2 -->
<g id="node2" class="node">
<title>Node2</title>
<g id="a_node2"><a xlink:href="_logger_8h.html" target="_top" xlink:title=" ">
<polygon fill="white" stroke="black" points="0,-62 0,-81 69,-81 69,-62 0,-62"/>
<text text-anchor="middle" x="34.5" y="-69" font-family="Helvetica,sans-Serif" font-size="10.00">log/Logger.h</text>
</a>
</g>
</g>
<!-- Node1&#45;&gt;Node2 -->
<g id="edge1" class="edge">
<title>Node1&#45;&gt;Node2</title>
<path fill="none" stroke="midnightblue" d="M134.74,-123.48C115.28,-113.58 82.95,-97.14 60.29,-85.62"/>
<polygon fill="midnightblue" stroke="midnightblue" points="61.73,-82.42 51.23,-81.01 58.56,-88.66 61.73,-82.42"/>
</g>
<!-- Node3 -->
<g id="node3" class="node">
<title>Node3</title>
<g id="a_node3"><a xlink:href="net_2socket_2stream_2_socket_context_8h.html" target="_top" xlink:title=" ">
<polygon fill="white" stroke="black" points="87,-56.5 87,-86.5 216,-86.5 216,-56.5 87,-56.5"/>
<text text-anchor="start" x="95" y="-74.5" font-family="Helvetica,sans-Serif" font-size="10.00">net/socket/stream/Socket</text>
<text text-anchor="middle" x="151.5" y="-63.5" font-family="Helvetica,sans-Serif" font-size="10.00">Context.h</text>
</a>
</g>
</g>
<!-- Node1&#45;&gt;Node3 -->
<g id="edge2" class="edge">
<title>Node1&#45;&gt;Node3</title>
<path fill="none" stroke="midnightblue" d="M151.5,-123.48C151.5,-116.47 151.5,-106.19 151.5,-96.7"/>
<polygon fill="midnightblue" stroke="midnightblue" points="155,-96.52 151.5,-86.52 148,-96.52 155,-96.52"/>
</g>
<!-- Node4 -->
<g id="node4" class="node">
<title>Node4</title>
<g id="a_node4"><a xlink:href="_request_parser_8h.html" target="_top" xlink:title=" ">
<polygon fill="white" stroke="black" points="234.5,-62 234.5,-81 394.5,-81 394.5,-62 234.5,-62"/>
<text text-anchor="middle" x="314.5" y="-69" font-family="Helvetica,sans-Serif" font-size="10.00">web/http/server/RequestParser.h</text>
</a>
</g>
</g>
<!-- Node1&#45;&gt;Node4 -->
<g id="edge3" class="edge">
<title>Node1&#45;&gt;Node4</title>
<path fill="none" stroke="midnightblue" d="M174.85,-123.48C202.81,-113.27 249.83,-96.11 281.49,-84.55"/>
<polygon fill="midnightblue" stroke="midnightblue" points="283,-87.73 291.19,-81.01 280.6,-81.15 283,-87.73"/>
</g>
<!-- Node5 -->
<g id="node5" class="node">
<title>Node5</title>
<g id="a_node5"><a xlink:href="_parser_8h.html" target="_top" xlink:title=" ">
<polygon fill="white" stroke="black" points="268,-0.5 268,-19.5 361,-19.5 361,-0.5 268,-0.5"/>
<text text-anchor="middle" x="314.5" y="-7.5" font-family="Helvetica,sans-Serif" font-size="10.00">web/http/Parser.h</text>
</a>
</g>
</g>
<!-- Node4&#45;&gt;Node5 -->
<g id="edge4" class="edge">
<title>Node4&#45;&gt;Node5</title>
<path fill="none" stroke="midnightblue" d="M314.5,-61.98C314.5,-53.58 314.5,-40.48 314.5,-29.66"/>
<polygon fill="midnightblue" stroke="midnightblue" points="318,-29.51 314.5,-19.51 311,-29.51 318,-29.51"/>
</g>
</g>
</svg>
