<?xml version="1.0" encoding="UTF-8" standalone="no"?>
<!DOCTYPE svg PUBLIC "-//W3C//DTD SVG 1.1//EN"
 "http://www.w3.org/Graphics/SVG/1.1/DTD/svg11.dtd">
<!-- Generated by graphviz version 2.43.0 (0)
 -->
<!-- Title: web/http/server/SocketContext.h Pages: 1 -->
<svg width="881pt" height="151pt"
 viewBox="0.00 0.00 880.50 151.00" xmlns="http://www.w3.org/2000/svg" xmlns:xlink="http://www.w3.org/1999/xlink">
<g id="graph0" class="graph" transform="scale(1 1) rotate(0) translate(4 147)">
<title>web/http/server/SocketContext.h</title>
<polygon fill="white" stroke="transparent" points="-4,4 -4,-147 876.5,-147 876.5,4 -4,4"/>
<!-- Node1 -->
<g id="node1" class="node">
<title>Node1</title>
<g id="a_node1"><a xlink:title=" ">
<polygon fill="#bfbfbf" stroke="black" points="234,-123.5 234,-142.5 395,-142.5 395,-123.5 234,-123.5"/>
<text text-anchor="middle" x="314.5" y="-130.5" font-family="Helvetica,sans-Serif" font-size="10.00">web/http/server/SocketContext.h</text>
</a>
</g>
</g>
<!-- Node2 -->
<g id="node2" class="node">
<title>Node2</title>
<g id="a_node2"><a xlink:href="_logger_8h.html" target="_top" xlink:title=" ">
<polygon fill="white" stroke="black" points="0,-62 0,-81 69,-81 69,-62 0,-62"/>
<text text-anchor="middle" x="34.5" y="-69" font-family="Helvetica,sans-Serif" font-size="10.00">log/Logger.h</text>
</a>
</g>
</g>
<!-- Node1&#45;&gt;Node2 -->
<g id="edge1" class="edge">
<title>Node1&#45;&gt;Node2</title>
<path fill="none" stroke="midnightblue" d="M257.51,-123.44C209.19,-115.64 138.27,-102.93 77.5,-87 74.3,-86.16 70.99,-85.21 67.7,-84.2"/>
<polygon fill="midnightblue" stroke="midnightblue" points="68.57,-80.8 57.98,-81.07 66.43,-87.47 68.57,-80.8"/>
</g>
<!-- Node3 -->
<g id="node3" class="node">
<title>Node3</title>
<g id="a_node3"><a xlink:href="net_2socket_2stream_2_socket_context_8h.html" target="_top" xlink:title=" ">
<polygon fill="white" stroke="black" points="87,-56.5 87,-86.5 216,-86.5 216,-56.5 87,-56.5"/>
<text text-anchor="start" x="95" y="-74.5" font-family="Helvetica,sans-Serif" font-size="10.00">net/socket/stream/Socket</text>
<text text-anchor="middle" x="151.5" y="-63.5" font-family="Helvetica,sans-Serif" font-size="10.00">Context.h</text>
</a>
</g>
</g>
<!-- Node1&#45;&gt;Node3 -->
<g id="edge2" class="edge">
<title>Node1&#45;&gt;Node3</title>
<path fill="none" stroke="midnightblue" d="M291.15,-123.48C267.32,-114.78 229.65,-101.03 199.44,-90"/>
<polygon fill="midnightblue" stroke="midnightblue" points="200.51,-86.66 189.92,-86.52 198.11,-93.24 200.51,-86.66"/>
</g>
<!-- Node4 -->
<g id="node4" class="node">
<title>Node4</title>
<g id="a_node4"><a xlink:href="web_2http_2server_2_request_8h.html" target="_top" xlink:title=" ">
<polygon fill="white" stroke="black" points="412.5,-62 412.5,-81 544.5,-81 544.5,-62 412.5,-62"/>
<text text-anchor="middle" x="478.5" y="-69" font-family="Helvetica,sans-Serif" font-size="10.00">web/http/server/Request.h</text>
</a>
</g>
</g>
<!-- Node1&#45;&gt;Node4 -->
<g id="edge3" class="edge">
<title>Node1&#45;&gt;Node4</title>
<path fill="none" stroke="midnightblue" d="M338,-123.48C366.13,-113.27 413.43,-96.11 445.29,-84.55"/>
<polygon fill="midnightblue" stroke="midnightblue" points="446.84,-87.71 455.05,-81.01 444.45,-81.13 446.84,-87.71"/>
</g>
<!-- Node7 -->
<g id="node7" class="node">
<title>Node7</title>
<g id="a_node7"><a xlink:href="_request_parser_8h.html" target="_top" xlink:title=" ">
<polygon fill="white" stroke="black" points="234.5,-62 234.5,-81 394.5,-81 394.5,-62 234.5,-62"/>
<text text-anchor="middle" x="314.5" y="-69" font-family="Helvetica,sans-Serif" font-size="10.00">web/http/server/RequestParser.h</text>
</a>
</g>
</g>
<!-- Node1&#45;&gt;Node7 -->
<g id="edge6" class="edge">
<title>Node1&#45;&gt;Node7</title>
<path fill="none" stroke="midnightblue" d="M314.5,-123.48C314.5,-115.08 314.5,-101.98 314.5,-91.16"/>
<polygon fill="midnightblue" stroke="midnightblue" points="318,-91.01 314.5,-81.01 311,-91.01 318,-91.01"/>
</g>
<!-- Node9 -->
<g id="node9" class="node">
<title>Node9</title>
<g id="a_node9"><a xlink:href="web_2http_2server_2_response_8h.html" target="_top" xlink:title=" ">
<polygon fill="white" stroke="black" points="612.5,-62 612.5,-81 752.5,-81 752.5,-62 612.5,-62"/>
<text text-anchor="middle" x="682.5" y="-69" font-family="Helvetica,sans-Serif" font-size="10.00">web/http/server/Response.h</text>
</a>
</g>
</g>
<!-- Node1&#45;&gt;Node9 -->
<g id="edge8" class="edge">
<title>Node1&#45;&gt;Node9</title>
<path fill="none" stroke="midnightblue" d="M367.23,-123.48C433.9,-112.69 548.57,-94.15 619.7,-82.65"/>
<polygon fill="midnightblue" stroke="midnightblue" points="620.56,-86.06 629.87,-81.01 619.44,-79.15 620.56,-86.06"/>
</g>
<!-- Node5 -->
<g id="node5" class="node">
<title>Node5</title>
<g id="a_node5"><a xlink:href="_attribute_injector_8h.html" target="_top" xlink:title=" ">
<polygon fill="white" stroke="black" points="354.5,-0.5 354.5,-19.5 468.5,-19.5 468.5,-0.5 354.5,-0.5"/>
<text text-anchor="middle" x="411.5" y="-7.5" font-family="Helvetica,sans-Serif" font-size="10.00">utils/AttributeInjector.h</text>
</a>
</g>
</g>
<!-- Node4&#45;&gt;Node5 -->
<g id="edge4" class="edge">
<title>Node4&#45;&gt;Node5</title>
<path fill="none" stroke="midnightblue" d="M468.9,-61.98C458.45,-52.7 441.53,-37.67 428.76,-26.33"/>
<polygon fill="midnightblue" stroke="midnightblue" points="430.88,-23.53 421.08,-19.51 426.23,-28.77 430.88,-23.53"/>
</g>
<!-- Node6 -->
<g id="node6" class="node">
<title>Node6</title>
<g id="a_node6"><a xlink:href="_connection_state_8h.html" target="_top" xlink:title=" ">
<polygon fill="white" stroke="black" points="486.5,-0.5 486.5,-19.5 624.5,-19.5 624.5,-0.5 486.5,-0.5"/>
<text text-anchor="middle" x="555.5" y="-7.5" font-family="Helvetica,sans-Serif" font-size="10.00">web/http/ConnectionState.h</text>
</a>
</g>
</g>
<!-- Node4&#45;&gt;Node6 -->
<g id="edge5" class="edge">
<title>Node4&#45;&gt;Node6</title>
<path fill="none" stroke="midnightblue" d="M489.53,-61.98C501.77,-52.52 521.73,-37.1 536.49,-25.69"/>
<polygon fill="midnightblue" stroke="midnightblue" points="538.72,-28.39 544.49,-19.51 534.44,-22.85 538.72,-28.39"/>
</g>
<!-- Node8 -->
<g id="node8" class="node">
<title>Node8</title>
<g id="a_node8"><a xlink:href="_parser_8h.html" target="_top" xlink:title=" ">
<polygon fill="white" stroke="black" points="243,-0.5 243,-19.5 336,-19.5 336,-0.5 243,-0.5"/>
<text text-anchor="middle" x="289.5" y="-7.5" font-family="Helvetica,sans-Serif" font-size="10.00">web/http/Parser.h</text>
</a>
</g>
</g>
<!-- Node7&#45;&gt;Node8 -->
<g id="edge7" class="edge">
<title>Node7&#45;&gt;Node8</title>
<path fill="none" stroke="midnightblue" d="M310.92,-61.98C307.32,-53.4 301.65,-39.93 297.06,-28.98"/>
<polygon fill="midnightblue" stroke="midnightblue" points="300.18,-27.37 293.08,-19.51 293.72,-30.08 300.18,-27.37"/>
</g>
<!-- Node9&#45;&gt;Node6 -->
<g id="edge10" class="edge">
<title>Node9&#45;&gt;Node6</title>
<path fill="none" stroke="midnightblue" d="M664.3,-61.98C642.99,-51.99 607.47,-35.35 582.84,-23.81"/>
<polygon fill="midnightblue" stroke="midnightblue" points="584.2,-20.58 573.66,-19.51 581.23,-26.92 584.2,-20.58"/>
</g>
<!-- Node10 -->
<g id="node10" class="node">
<title>Node10</title>
<g id="a_node10"><a xlink:href="_sink_8h.html" target="_top" xlink:title=" ">
<polygon fill="white" stroke="black" points="790.5,-0.5 790.5,-19.5 872.5,-19.5 872.5,-0.5 790.5,-0.5"/>
<text text-anchor="middle" x="831.5" y="-7.5" font-family="Helvetica,sans-Serif" font-size="10.00">net/pipe/Sink.h</text>
</a>
</g>
</g>
<!-- Node9&#45;&gt;Node10 -->
<g id="edge9" class="edge">
<title>Node9&#45;&gt;Node10</title>
<path fill="none" stroke="midnightblue" d="M703.85,-61.98C729.19,-51.86 771.64,-34.9 800.57,-23.35"/>
<polygon fill="midnightblue" stroke="midnightblue" points="802.2,-26.47 810.19,-19.51 799.61,-19.97 802.2,-26.47"/>
</g>
<!-- Node11 -->
<g id="node11" class="node">
<title>Node11</title>
<g id="a_node11"><a xlink:href="_cookie_options_8h.html" target="_top" xlink:title=" ">
<polygon fill="white" stroke="black" points="642.5,-0.5 642.5,-19.5 772.5,-19.5 772.5,-0.5 642.5,-0.5"/>
<text text-anchor="middle" x="707.5" y="-7.5" font-family="Helvetica,sans-Serif" font-size="10.00">web/http/CookieOptions.h</text>
</a>
</g>
</g>
<!-- Node9&#45;&gt;Node11 -->
<g id="edge11" class="edge">
<title>Node9&#45;&gt;Node11</title>
<path fill="none" stroke="midnightblue" d="M686.08,-61.98C689.68,-53.4 695.35,-39.93 699.94,-28.98"/>
<polygon fill="midnightblue" stroke="midnightblue" points="703.28,-30.08 703.92,-19.51 696.82,-27.37 703.28,-30.08"/>
</g>
</g>
</svg>
