<?xml version="1.0" encoding="UTF-8" standalone="no"?>
<!DOCTYPE svg PUBLIC "-//W3C//DTD SVG 1.1//EN"
 "http://www.w3.org/Graphics/SVG/1.1/DTD/svg11.dtd">
<!-- Generated by graphviz version 2.43.0 (0)
 -->
<!-- Title: web/websocket/server/SocketContext.cpp Pages: 1 -->
<svg width="624pt" height="374pt"
 viewBox="0.00 0.00 624.00 374.00" xmlns="http://www.w3.org/2000/svg" xmlns:xlink="http://www.w3.org/1999/xlink">
<g id="graph0" class="graph" transform="scale(1 1) rotate(0) translate(4 370)">
<title>web/websocket/server/SocketContext.cpp</title>
<polygon fill="white" stroke="transparent" points="-4,4 -4,-370 620,-370 620,4 -4,4"/>
<!-- Node1 -->
<g id="node1" class="node">
<title>Node1</title>
<g id="a_node1"><a xlink:title=" ">
<polygon fill="#bfbfbf" stroke="black" points="231,-335.5 231,-365.5 346,-365.5 346,-335.5 231,-335.5"/>
<text text-anchor="start" x="239" y="-353.5" font-family="Helvetica,sans-Serif" font-size="10.00">web/websocket/server</text>
<text text-anchor="middle" x="288.5" y="-342.5" font-family="Helvetica,sans-Serif" font-size="10.00">/SocketContext.cpp</text>
</a>
</g>
</g>
<!-- Node2 -->
<g id="node2" class="node">
<title>Node2</title>
<g id="a_node2"><a xlink:href="web_2websocket_2server_2_socket_context_8h.html" target="_top" xlink:title=" ">
<polygon fill="white" stroke="black" points="157,-134.5 157,-164.5 272,-164.5 272,-134.5 157,-134.5"/>
<text text-anchor="start" x="165" y="-152.5" font-family="Helvetica,sans-Serif" font-size="10.00">web/websocket/server</text>
<text text-anchor="middle" x="214.5" y="-141.5" font-family="Helvetica,sans-Serif" font-size="10.00">/SocketContext.h</text>
</a>
</g>
</g>
<!-- Node1&#45;&gt;Node2 -->
<g id="edge1" class="edge">
<title>Node1&#45;&gt;Node2</title>
<path fill="none" stroke="midnightblue" d="M280.73,-335.16C275.49,-325.19 268.62,-311.49 263.5,-299 245.88,-256.05 229.94,-204.22 221.29,-174.54"/>
<polygon fill="midnightblue" stroke="midnightblue" points="224.58,-173.3 218.45,-164.66 217.85,-175.24 224.58,-173.3"/>
</g>
<!-- Node7 -->
<g id="node7" class="node">
<title>Node7</title>
<g id="a_node7"><a xlink:href="websocket_2server_2_socket_context_upgrade_factory_8h.html" target="_top" xlink:title=" ">
<polygon fill="white" stroke="black" points="273,-268.5 273,-298.5 434,-298.5 434,-268.5 273,-268.5"/>
<text text-anchor="start" x="281" y="-286.5" font-family="Helvetica,sans-Serif" font-size="10.00">web/websocket/server</text>
<text text-anchor="middle" x="353.5" y="-275.5" font-family="Helvetica,sans-Serif" font-size="10.00">/SocketContextUpgradeFactory.h</text>
</a>
</g>
</g>
<!-- Node1&#45;&gt;Node7 -->
<g id="edge6" class="edge">
<title>Node1&#45;&gt;Node7</title>
<path fill="none" stroke="midnightblue" d="M302.6,-335.4C311.29,-326.71 322.6,-315.4 332.34,-305.66"/>
<polygon fill="midnightblue" stroke="midnightblue" points="334.83,-308.12 339.42,-298.58 329.88,-303.17 334.83,-308.12"/>
</g>
<!-- Node3 -->
<g id="node3" class="node">
<title>Node3</title>
<g id="a_node3"><a xlink:href="web_2websocket_2_socket_context_8h.html" target="_top" xlink:title=" ">
<polygon fill="white" stroke="black" points="134,-73 134,-92 295,-92 295,-73 134,-73"/>
<text text-anchor="middle" x="214.5" y="-80" font-family="Helvetica,sans-Serif" font-size="10.00">web/websocket/SocketContext.h</text>
</a>
</g>
</g>
<!-- Node2&#45;&gt;Node3 -->
<g id="edge2" class="edge">
<title>Node2&#45;&gt;Node3</title>
<path fill="none" stroke="midnightblue" d="M214.5,-134.4C214.5,-125.06 214.5,-112.71 214.5,-102.52"/>
<polygon fill="midnightblue" stroke="midnightblue" points="218,-102.19 214.5,-92.19 211,-102.19 218,-102.19"/>
</g>
<!-- Node4 -->
<g id="node4" class="node">
<title>Node4</title>
<g id="a_node4"><a xlink:href="net_2socket_2stream_2_socket_context_8h.html" target="_top" xlink:title=" ">
<polygon fill="white" stroke="black" points="0,-0.5 0,-30.5 129,-30.5 129,-0.5 0,-0.5"/>
<text text-anchor="start" x="8" y="-18.5" font-family="Helvetica,sans-Serif" font-size="10.00">net/socket/stream/Socket</text>
<text text-anchor="middle" x="64.5" y="-7.5" font-family="Helvetica,sans-Serif" font-size="10.00">Context.h</text>
</a>
</g>
</g>
<!-- Node3&#45;&gt;Node4 -->
<g id="edge3" class="edge">
<title>Node3&#45;&gt;Node4</title>
<path fill="none" stroke="midnightblue" d="M194.58,-72.87C172.17,-63.16 135.14,-47.11 106.3,-34.61"/>
<polygon fill="midnightblue" stroke="midnightblue" points="107.44,-31.29 96.87,-30.53 104.66,-37.72 107.44,-31.29"/>
</g>
<!-- Node5 -->
<g id="node5" class="node">
<title>Node5</title>
<g id="a_node5"><a xlink:href="_receiver_8h.html" target="_top" xlink:title=" ">
<polygon fill="white" stroke="black" points="147.5,-6 147.5,-25 281.5,-25 281.5,-6 147.5,-6"/>
<text text-anchor="middle" x="214.5" y="-13" font-family="Helvetica,sans-Serif" font-size="10.00">web/websocket/Receiver.h</text>
</a>
</g>
</g>
<!-- Node3&#45;&gt;Node5 -->
<g id="edge4" class="edge">
<title>Node3&#45;&gt;Node5</title>
<path fill="none" stroke="midnightblue" d="M214.5,-72.73C214.5,-63.18 214.5,-47.62 214.5,-35.28"/>
<polygon fill="midnightblue" stroke="midnightblue" points="218,-35.13 214.5,-25.13 211,-35.13 218,-35.13"/>
</g>
<!-- Node6 -->
<g id="node6" class="node">
<title>Node6</title>
<g id="a_node6"><a xlink:href="_transmitter_8h.html" target="_top" xlink:title=" ">
<polygon fill="white" stroke="black" points="300,-6 300,-25 445,-25 445,-6 300,-6"/>
<text text-anchor="middle" x="372.5" y="-13" font-family="Helvetica,sans-Serif" font-size="10.00">web/websocket/Transmitter.h</text>
</a>
</g>
</g>
<!-- Node3&#45;&gt;Node6 -->
<g id="edge5" class="edge">
<title>Node3&#45;&gt;Node6</title>
<path fill="none" stroke="midnightblue" d="M235.48,-72.87C262.75,-61.65 310.57,-41.98 341.89,-29.09"/>
<polygon fill="midnightblue" stroke="midnightblue" points="343.52,-32.21 351.43,-25.17 340.85,-25.74 343.52,-32.21"/>
</g>
<!-- Node8 -->
<g id="node8" class="node">
<title>Node8</title>
<g id="a_node8"><a xlink:href="http_2server_2_socket_context_upgrade_factory_8h.html" target="_top" xlink:title=" ">
<polygon fill="white" stroke="black" points="444.5,-201.5 444.5,-231.5 596.5,-231.5 596.5,-201.5 444.5,-201.5"/>
<text text-anchor="start" x="452.5" y="-219.5" font-family="Helvetica,sans-Serif" font-size="10.00">web/http/server/SocketContext</text>
<text text-anchor="middle" x="520.5" y="-208.5" font-family="Helvetica,sans-Serif" font-size="10.00">UpgradeFactory.h</text>
</a>
</g>
</g>
<!-- Node7&#45;&gt;Node8 -->
<g id="edge7" class="edge">
<title>Node7&#45;&gt;Node8</title>
<path fill="none" stroke="midnightblue" d="M389.74,-268.4C414.68,-258.69 448.03,-245.71 474.8,-235.29"/>
<polygon fill="midnightblue" stroke="midnightblue" points="476.28,-238.47 484.33,-231.58 473.75,-231.94 476.28,-238.47"/>
</g>
<!-- Node11 -->
<g id="node11" class="node">
<title>Node11</title>
<g id="a_node11"><a xlink:href="server_2_sub_protocol_8h.html" target="_top" xlink:title=" ">
<polygon fill="white" stroke="black" points="296,-201.5 296,-231.5 411,-231.5 411,-201.5 296,-201.5"/>
<text text-anchor="start" x="304" y="-219.5" font-family="Helvetica,sans-Serif" font-size="10.00">web/websocket/server</text>
<text text-anchor="middle" x="353.5" y="-208.5" font-family="Helvetica,sans-Serif" font-size="10.00">/SubProtocol.h</text>
</a>
</g>
</g>
<!-- Node7&#45;&gt;Node11 -->
<g id="edge10" class="edge">
<title>Node7&#45;&gt;Node11</title>
<path fill="none" stroke="midnightblue" d="M353.5,-268.4C353.5,-260.64 353.5,-250.81 353.5,-241.86"/>
<polygon fill="midnightblue" stroke="midnightblue" points="357,-241.58 353.5,-231.58 350,-241.58 357,-241.58"/>
</g>
<!-- Node9 -->
<g id="node9" class="node">
<title>Node9</title>
<g id="a_node9"><a xlink:href="http_2_socket_context_upgrade_factory_8h.html" target="_top" xlink:title=" ">
<polygon fill="white" stroke="black" points="457,-134.5 457,-164.5 616,-164.5 616,-134.5 457,-134.5"/>
<text text-anchor="start" x="465" y="-152.5" font-family="Helvetica,sans-Serif" font-size="10.00">web/http/SocketContextUpgrade</text>
<text text-anchor="middle" x="536.5" y="-141.5" font-family="Helvetica,sans-Serif" font-size="10.00">Factory.h</text>
</a>
</g>
</g>
<!-- Node8&#45;&gt;Node9 -->
<g id="edge8" class="edge">
<title>Node8&#45;&gt;Node9</title>
<path fill="none" stroke="midnightblue" d="M523.97,-201.4C525.9,-193.56 528.35,-183.6 530.58,-174.57"/>
<polygon fill="midnightblue" stroke="midnightblue" points="534.04,-175.12 533.04,-164.58 527.25,-173.45 534.04,-175.12"/>
</g>
<!-- Node10 -->
<g id="node10" class="node">
<title>Node10</title>
<g id="a_node10"><a xlink:href="net_2socket_2stream_2_socket_context_factory_8h.html" target="_top" xlink:title=" ">
<polygon fill="white" stroke="black" points="472,-67.5 472,-97.5 601,-97.5 601,-67.5 472,-67.5"/>
<text text-anchor="start" x="480" y="-85.5" font-family="Helvetica,sans-Serif" font-size="10.00">net/socket/stream/Socket</text>
<text text-anchor="middle" x="536.5" y="-74.5" font-family="Helvetica,sans-Serif" font-size="10.00">ContextFactory.h</text>
</a>
</g>
</g>
<!-- Node9&#45;&gt;Node10 -->
<g id="edge9" class="edge">
<title>Node9&#45;&gt;Node10</title>
<path fill="none" stroke="midnightblue" d="M536.5,-134.4C536.5,-126.64 536.5,-116.81 536.5,-107.86"/>
<polygon fill="midnightblue" stroke="midnightblue" points="540,-107.58 536.5,-97.58 533,-107.58 540,-107.58"/>
</g>
<!-- Node11&#45;&gt;Node2 -->
<g id="edge12" class="edge">
<title>Node11&#45;&gt;Node2</title>
<path fill="none" stroke="midnightblue" d="M323.34,-201.4C302.94,-191.86 275.8,-179.16 253.72,-168.84"/>
<polygon fill="midnightblue" stroke="midnightblue" points="255.14,-165.64 244.6,-164.58 252.18,-171.98 255.14,-165.64"/>
</g>
<!-- Node12 -->
<g id="node12" class="node">
<title>Node12</title>
<g id="a_node12"><a xlink:href="_sub_protocol_8h.html" target="_top" xlink:title=" ">
<polygon fill="white" stroke="black" points="290,-140 290,-159 439,-159 439,-140 290,-140"/>
<text text-anchor="middle" x="364.5" y="-147" font-family="Helvetica,sans-Serif" font-size="10.00">web/websocket/SubProtocol.h</text>
</a>
</g>
</g>
<!-- Node11&#45;&gt;Node12 -->
<g id="edge11" class="edge">
<title>Node11&#45;&gt;Node12</title>
<path fill="none" stroke="midnightblue" d="M355.89,-201.4C357.48,-191.96 359.6,-179.45 361.34,-169.19"/>
<polygon fill="midnightblue" stroke="midnightblue" points="364.81,-169.64 363.03,-159.19 357.91,-168.47 364.81,-169.64"/>
</g>
</g>
</svg>
