<?xml version="1.0" encoding="UTF-8" standalone="no"?>
<!DOCTYPE svg PUBLIC "-//W3C//DTD SVG 1.1//EN"
 "http://www.w3.org/Graphics/SVG/1.1/DTD/svg11.dtd">
<!-- Generated by graphviz version 2.43.0 (0)
 -->
<!-- Title: web/http/client/SocketContext.h Pages: 1 -->
<svg width="499pt" height="218pt"
 viewBox="0.00 0.00 499.00 218.00" xmlns="http://www.w3.org/2000/svg" xmlns:xlink="http://www.w3.org/1999/xlink">
<g id="graph0" class="graph" transform="scale(1 1) rotate(0) translate(4 214)">
<title>web/http/client/SocketContext.h</title>
<polygon fill="white" stroke="transparent" points="-4,4 -4,-214 495,-214 495,4 -4,4"/>
<!-- Node1 -->
<g id="node1" class="node">
<title>Node1</title>
<g id="a_node1"><a xlink:title=" ">
<polygon fill="#bfbfbf" stroke="black" points="162,-190.5 162,-209.5 319,-209.5 319,-190.5 162,-190.5"/>
<text text-anchor="middle" x="240.5" y="-197.5" font-family="Helvetica,sans-Serif" font-size="10.00">web/http/client/SocketContext.h</text>
</a>
</g>
</g>
<!-- Node2 -->
<g id="node2" class="node">
<title>Node2</title>
<g id="a_node2"><a xlink:href="web_2http_2client_2_request_8cpp.html" target="_top" xlink:title=" ">
<polygon fill="white" stroke="black" points="0,-129 0,-148 139,-148 139,-129 0,-129"/>
<text text-anchor="middle" x="69.5" y="-136" font-family="Helvetica,sans-Serif" font-size="10.00">web/http/client/Request.cpp</text>
</a>
</g>
</g>
<!-- Node1&#45;&gt;Node2 -->
<g id="edge1" class="edge">
<title>Node1&#45;&gt;Node2</title>
<path fill="none" stroke="midnightblue" d="M206.25,-187.08C173.01,-175.52 123.39,-158.25 93.95,-148.01"/>
<polygon fill="midnightblue" stroke="midnightblue" points="205.41,-190.49 216,-190.48 207.71,-183.88 205.41,-190.49"/>
</g>
<!-- Node3 -->
<g id="node3" class="node">
<title>Node3</title>
<g id="a_node3"><a xlink:href="client_2_socket_context_8hpp.html" target="_top" xlink:title=" ">
<polygon fill="white" stroke="black" points="157,-129 157,-148 324,-148 324,-129 157,-129"/>
<text text-anchor="middle" x="240.5" y="-136" font-family="Helvetica,sans-Serif" font-size="10.00">web/http/client/SocketContext.hpp</text>
</a>
</g>
</g>
<!-- Node1&#45;&gt;Node3 -->
<g id="edge2" class="edge">
<title>Node1&#45;&gt;Node3</title>
<path fill="none" stroke="midnightblue" d="M240.5,-180.32C240.5,-169.5 240.5,-156.4 240.5,-148.01"/>
<polygon fill="midnightblue" stroke="midnightblue" points="237,-180.48 240.5,-190.48 244,-180.48 237,-180.48"/>
</g>
<!-- Node7 -->
<g id="node7" class="node">
<title>Node7</title>
<g id="a_node7"><a xlink:href="web_2http_2client_2_socket_context_factory_8h.html" target="_top" xlink:title=" ">
<polygon fill="white" stroke="black" points="342,-123.5 342,-153.5 491,-153.5 491,-123.5 342,-123.5"/>
<text text-anchor="start" x="350" y="-141.5" font-family="Helvetica,sans-Serif" font-size="10.00">web/http/client/SocketContext</text>
<text text-anchor="middle" x="416.5" y="-130.5" font-family="Helvetica,sans-Serif" font-size="10.00">Factory.h</text>
</a>
</g>
</g>
<!-- Node1&#45;&gt;Node7 -->
<g id="edge6" class="edge">
<title>Node1&#45;&gt;Node7</title>
<path fill="none" stroke="midnightblue" d="M275.31,-187.23C303.97,-177.54 344.68,-163.78 375.02,-153.52"/>
<polygon fill="midnightblue" stroke="midnightblue" points="274.07,-183.96 265.72,-190.48 276.31,-190.59 274.07,-183.96"/>
</g>
<!-- Node4 -->
<g id="node4" class="node">
<title>Node4</title>
<g id="a_node4"><a xlink:href="_client_8h.html" target="_top" xlink:title=" ">
<polygon fill="white" stroke="black" points="270,-67.5 270,-86.5 387,-86.5 387,-67.5 270,-67.5"/>
<text text-anchor="middle" x="328.5" y="-74.5" font-family="Helvetica,sans-Serif" font-size="10.00">web/http/client/Client.h</text>
</a>
</g>
</g>
<!-- Node3&#45;&gt;Node4 -->
<g id="edge3" class="edge">
<title>Node3&#45;&gt;Node4</title>
<path fill="none" stroke="midnightblue" d="M261.78,-123.11C278.7,-111.67 301.81,-96.05 315.92,-86.51"/>
<polygon fill="midnightblue" stroke="midnightblue" points="259.43,-120.47 253.11,-128.98 263.35,-126.27 259.43,-120.47"/>
</g>
<!-- Node5 -->
<g id="node5" class="node">
<title>Node5</title>
<g id="a_node5"><a xlink:href="legacy_2_client_8h.html" target="_top" xlink:title=" ">
<polygon fill="white" stroke="black" points="212.5,-0.5 212.5,-30.5 324.5,-30.5 324.5,-0.5 212.5,-0.5"/>
<text text-anchor="start" x="220.5" y="-18.5" font-family="Helvetica,sans-Serif" font-size="10.00">web/http/client/legacy</text>
<text text-anchor="middle" x="268.5" y="-7.5" font-family="Helvetica,sans-Serif" font-size="10.00">/Client.h</text>
</a>
</g>
</g>
<!-- Node4&#45;&gt;Node5 -->
<g id="edge4" class="edge">
<title>Node4&#45;&gt;Node5</title>
<path fill="none" stroke="midnightblue" d="M312.74,-60.37C303.4,-51.11 291.68,-39.48 282.64,-30.52"/>
<polygon fill="midnightblue" stroke="midnightblue" points="310.34,-62.92 319.9,-67.48 315.27,-57.95 310.34,-62.92"/>
</g>
<!-- Node6 -->
<g id="node6" class="node">
<title>Node6</title>
<g id="a_node6"><a xlink:href="tls_2_client_8h.html" target="_top" xlink:title=" ">
<polygon fill="white" stroke="black" points="342.5,-0.5 342.5,-30.5 436.5,-30.5 436.5,-0.5 342.5,-0.5"/>
<text text-anchor="start" x="350.5" y="-18.5" font-family="Helvetica,sans-Serif" font-size="10.00">web/http/client/tls</text>
<text text-anchor="middle" x="389.5" y="-7.5" font-family="Helvetica,sans-Serif" font-size="10.00">/Client.h</text>
</a>
</g>
</g>
<!-- Node4&#45;&gt;Node6 -->
<g id="edge5" class="edge">
<title>Node4&#45;&gt;Node6</title>
<path fill="none" stroke="midnightblue" d="M344.53,-60.37C354.01,-51.11 365.94,-39.48 375.12,-30.52"/>
<polygon fill="midnightblue" stroke="midnightblue" points="341.95,-57.99 337.24,-67.48 346.84,-63 341.95,-57.99"/>
</g>
<!-- Node7&#45;&gt;Node4 -->
<g id="edge7" class="edge">
<title>Node7&#45;&gt;Node4</title>
<path fill="none" stroke="midnightblue" d="M387.33,-117.78C371.73,-107.23 353.32,-94.78 341.3,-86.66"/>
<polygon fill="midnightblue" stroke="midnightblue" points="385.4,-120.7 395.65,-123.4 389.32,-114.9 385.4,-120.7"/>
</g>
</g>
</svg>
