<?xml version="1.0" encoding="UTF-8" standalone="no"?>
<!DOCTYPE svg PUBLIC "-//W3C//DTD SVG 1.1//EN"
 "http://www.w3.org/Graphics/SVG/1.1/DTD/svg11.dtd">
<!-- Generated by graphviz version 2.43.0 (0)
 -->
<!-- Title: web/ws/server/SocketContextUpgradeFactory.h Pages: 1 -->
<svg width="1253pt" height="240pt"
 viewBox="0.00 0.00 1253.00 240.00" xmlns="http://www.w3.org/2000/svg" xmlns:xlink="http://www.w3.org/1999/xlink">
<g id="graph0" class="graph" transform="scale(1 1) rotate(0) translate(4 236)">
<title>web/ws/server/SocketContextUpgradeFactory.h</title>
<polygon fill="white" stroke="transparent" points="-4,4 -4,-236 1249,-236 1249,4 -4,4"/>
<!-- Node1 -->
<g id="node1" class="node">
<title>Node1</title>
<g id="a_node1"><a xlink:title=" ">
<polygon fill="#bfbfbf" stroke="black" points="257.5,-201.5 257.5,-231.5 406.5,-231.5 406.5,-201.5 257.5,-201.5"/>
<text text-anchor="start" x="265.5" y="-219.5" font-family="Helvetica,sans-Serif" font-size="10.00">web/ws/server/SocketContext</text>
<text text-anchor="middle" x="332" y="-208.5" font-family="Helvetica,sans-Serif" font-size="10.00">UpgradeFactory.h</text>
</a>
</g>
</g>
<!-- Node2 -->
<g id="node2" class="node">
<title>Node2</title>
<g id="a_node2"><a xlink:href="http_2server_2_socket_context_upgrade_factory_8h.html" target="_top" xlink:title=" ">
<polygon fill="white" stroke="black" points="0,-134.5 0,-164.5 152,-164.5 152,-134.5 0,-134.5"/>
<text text-anchor="start" x="8" y="-152.5" font-family="Helvetica,sans-Serif" font-size="10.00">web/http/server/SocketContext</text>
<text text-anchor="middle" x="76" y="-141.5" font-family="Helvetica,sans-Serif" font-size="10.00">UpgradeFactory.h</text>
</a>
</g>
</g>
<!-- Node1&#45;&gt;Node2 -->
<g id="edge1" class="edge">
<title>Node1&#45;&gt;Node2</title>
<path fill="none" stroke="midnightblue" d="M276.77,-201.48C237.03,-191.39 183.29,-177.74 141.41,-167.11"/>
<polygon fill="midnightblue" stroke="midnightblue" points="142.13,-163.68 131.58,-164.61 140.41,-170.46 142.13,-163.68"/>
</g>
<!-- Node4 -->
<g id="node4" class="node">
<title>Node4</title>
<g id="a_node4"><a xlink:href="_socket_context_upgrade_interface_8h.html" target="_top" xlink:title=" ">
<polygon fill="white" stroke="black" points="170,-134.5 170,-164.5 322,-164.5 322,-134.5 170,-134.5"/>
<text text-anchor="start" x="178" y="-152.5" font-family="Helvetica,sans-Serif" font-size="10.00">web/http/server/SocketContext</text>
<text text-anchor="middle" x="246" y="-141.5" font-family="Helvetica,sans-Serif" font-size="10.00">UpgradeInterface.h</text>
</a>
</g>
</g>
<!-- Node1&#45;&gt;Node4 -->
<g id="edge3" class="edge">
<title>Node1&#45;&gt;Node4</title>
<path fill="none" stroke="midnightblue" d="M313.34,-201.4C301.51,-192.45 286.01,-180.74 272.86,-170.8"/>
<polygon fill="midnightblue" stroke="midnightblue" points="274.71,-167.81 264.62,-164.58 270.49,-173.4 274.71,-167.81"/>
</g>
<!-- Node5 -->
<g id="node5" class="node">
<title>Node5</title>
<g id="a_node5"><a xlink:href="web_2ws_2server_2_socket_context_8h.html" target="_top" xlink:title=" ">
<polygon fill="white" stroke="black" points="340.5,-140 340.5,-159 497.5,-159 497.5,-140 340.5,-140"/>
<text text-anchor="middle" x="419" y="-147" font-family="Helvetica,sans-Serif" font-size="10.00">web/ws/server/SocketContext.h</text>
</a>
</g>
</g>
<!-- Node1&#45;&gt;Node5 -->
<g id="edge4" class="edge">
<title>Node1&#45;&gt;Node5</title>
<path fill="none" stroke="midnightblue" d="M350.88,-201.4C365.11,-190.76 384.6,-176.2 399.08,-165.38"/>
<polygon fill="midnightblue" stroke="midnightblue" points="401.45,-167.98 407.36,-159.19 397.26,-162.38 401.45,-167.98"/>
</g>
<!-- Node16 -->
<g id="node16" class="node">
<title>Node16</title>
<g id="a_node16"><a xlink:href="server_2_sub_protocol_selector_8h.html" target="_top" xlink:title=" ">
<polygon fill="white" stroke="black" points="798.5,-134.5 798.5,-164.5 935.5,-164.5 935.5,-134.5 798.5,-134.5"/>
<text text-anchor="start" x="806.5" y="-152.5" font-family="Helvetica,sans-Serif" font-size="10.00">web/ws/server/SubProtocol</text>
<text text-anchor="middle" x="867" y="-141.5" font-family="Helvetica,sans-Serif" font-size="10.00">Selector.h</text>
</a>
</g>
</g>
<!-- Node1&#45;&gt;Node16 -->
<g id="edge16" class="edge">
<title>Node1&#45;&gt;Node16</title>
<path fill="none" stroke="midnightblue" d="M406.67,-206.43C507.34,-194.2 685.77,-172.52 788.41,-160.05"/>
<polygon fill="midnightblue" stroke="midnightblue" points="788.9,-163.51 798.4,-158.83 788.05,-156.57 788.9,-163.51"/>
</g>
<!-- Node3 -->
<g id="node3" class="node">
<title>Node3</title>
<g id="a_node3"><a xlink:href="net_2socket_2stream_2_socket_context_factory_8h.html" target="_top" xlink:title=" ">
<polygon fill="white" stroke="black" points="11.5,-67.5 11.5,-97.5 140.5,-97.5 140.5,-67.5 11.5,-67.5"/>
<text text-anchor="start" x="19.5" y="-85.5" font-family="Helvetica,sans-Serif" font-size="10.00">net/socket/stream/Socket</text>
<text text-anchor="middle" x="76" y="-74.5" font-family="Helvetica,sans-Serif" font-size="10.00">ContextFactory.h</text>
</a>
</g>
</g>
<!-- Node2&#45;&gt;Node3 -->
<g id="edge2" class="edge">
<title>Node2&#45;&gt;Node3</title>
<path fill="none" stroke="midnightblue" d="M76,-134.4C76,-126.64 76,-116.81 76,-107.86"/>
<polygon fill="midnightblue" stroke="midnightblue" points="79.5,-107.58 76,-97.58 72.5,-107.58 79.5,-107.58"/>
</g>
<!-- Node6 -->
<g id="node6" class="node">
<title>Node6</title>
<g id="a_node6"><a xlink:href="web_2http_2server_2_request_8h.html" target="_top" xlink:title=" ">
<polygon fill="white" stroke="black" points="179,-73 179,-92 311,-92 311,-73 179,-73"/>
<text text-anchor="middle" x="245" y="-80" font-family="Helvetica,sans-Serif" font-size="10.00">web/http/server/Request.h</text>
</a>
</g>
</g>
<!-- Node5&#45;&gt;Node6 -->
<g id="edge5" class="edge">
<title>Node5&#45;&gt;Node6</title>
<path fill="none" stroke="midnightblue" d="M395.89,-139.87C365.52,-128.52 311.99,-108.52 277.53,-95.65"/>
<polygon fill="midnightblue" stroke="midnightblue" points="278.52,-92.28 267.92,-92.06 276.07,-98.84 278.52,-92.28"/>
</g>
<!-- Node9 -->
<g id="node9" class="node">
<title>Node9</title>
<g id="a_node9"><a xlink:href="web_2http_2server_2_response_8h.html" target="_top" xlink:title=" ">
<polygon fill="white" stroke="black" points="339,-73 339,-92 479,-92 479,-73 339,-73"/>
<text text-anchor="middle" x="409" y="-80" font-family="Helvetica,sans-Serif" font-size="10.00">web/http/server/Response.h</text>
</a>
</g>
</g>
<!-- Node5&#45;&gt;Node9 -->
<g id="edge8" class="edge">
<title>Node5&#45;&gt;Node9</title>
<path fill="none" stroke="midnightblue" d="M417.65,-139.73C416.18,-130.18 413.79,-114.62 411.89,-102.28"/>
<polygon fill="midnightblue" stroke="midnightblue" points="415.31,-101.48 410.33,-92.13 408.39,-102.54 415.31,-101.48"/>
</g>
<!-- Node12 -->
<g id="node12" class="node">
<title>Node12</title>
<g id="a_node12"><a xlink:href="web_2ws_2_socket_context_8h.html" target="_top" xlink:title=" ">
<polygon fill="white" stroke="black" points="603.5,-73 603.5,-92 730.5,-92 730.5,-73 603.5,-73"/>
<text text-anchor="middle" x="667" y="-80" font-family="Helvetica,sans-Serif" font-size="10.00">web/ws/SocketContext.h</text>
</a>
</g>
</g>
<!-- Node5&#45;&gt;Node12 -->
<g id="edge12" class="edge">
<title>Node5&#45;&gt;Node12</title>
<path fill="none" stroke="midnightblue" d="M451.68,-139.94C496.01,-128.32 575.27,-107.54 624.28,-94.7"/>
<polygon fill="midnightblue" stroke="midnightblue" points="625.47,-98 634.25,-92.08 623.69,-91.23 625.47,-98"/>
</g>
<!-- Node7 -->
<g id="node7" class="node">
<title>Node7</title>
<g id="a_node7"><a xlink:href="_attribute_injector_8h.html" target="_top" xlink:title=" ">
<polygon fill="white" stroke="black" points="44,-6 44,-25 158,-25 158,-6 44,-6"/>
<text text-anchor="middle" x="101" y="-13" font-family="Helvetica,sans-Serif" font-size="10.00">utils/AttributeInjector.h</text>
</a>
</g>
</g>
<!-- Node6&#45;&gt;Node7 -->
<g id="edge6" class="edge">
<title>Node6&#45;&gt;Node7</title>
<path fill="none" stroke="midnightblue" d="M225.88,-72.87C201.24,-61.75 158.19,-42.32 129.64,-29.43"/>
<polygon fill="midnightblue" stroke="midnightblue" points="130.76,-26.09 120.2,-25.17 127.88,-32.47 130.76,-26.09"/>
</g>
<!-- Node8 -->
<g id="node8" class="node">
<title>Node8</title>
<g id="a_node8"><a xlink:href="_connection_state_8h.html" target="_top" xlink:title=" ">
<polygon fill="white" stroke="black" points="176,-6 176,-25 314,-25 314,-6 176,-6"/>
<text text-anchor="middle" x="245" y="-13" font-family="Helvetica,sans-Serif" font-size="10.00">web/http/ConnectionState.h</text>
</a>
</g>
</g>
<!-- Node6&#45;&gt;Node8 -->
<g id="edge7" class="edge">
<title>Node6&#45;&gt;Node8</title>
<path fill="none" stroke="midnightblue" d="M245,-72.73C245,-63.18 245,-47.62 245,-35.28"/>
<polygon fill="midnightblue" stroke="midnightblue" points="248.5,-35.13 245,-25.13 241.5,-35.13 248.5,-35.13"/>
</g>
<!-- Node9&#45;&gt;Node8 -->
<g id="edge10" class="edge">
<title>Node9&#45;&gt;Node8</title>
<path fill="none" stroke="midnightblue" d="M387.22,-72.87C358.72,-61.57 308.57,-41.7 276.08,-28.82"/>
<polygon fill="midnightblue" stroke="midnightblue" points="277.19,-25.49 266.61,-25.06 274.61,-32 277.19,-25.49"/>
</g>
<!-- Node10 -->
<g id="node10" class="node">
<title>Node10</title>
<g id="a_node10"><a xlink:href="_sink_8h.html" target="_top" xlink:title=" ">
<polygon fill="white" stroke="black" points="332,-6 332,-25 414,-25 414,-6 332,-6"/>
<text text-anchor="middle" x="373" y="-13" font-family="Helvetica,sans-Serif" font-size="10.00">net/pipe/Sink.h</text>
</a>
</g>
</g>
<!-- Node9&#45;&gt;Node10 -->
<g id="edge9" class="edge">
<title>Node9&#45;&gt;Node10</title>
<path fill="none" stroke="midnightblue" d="M404.14,-72.73C398.69,-62.89 389.7,-46.66 382.78,-34.16"/>
<polygon fill="midnightblue" stroke="midnightblue" points="385.69,-32.18 377.78,-25.13 379.56,-35.57 385.69,-32.18"/>
</g>
<!-- Node11 -->
<g id="node11" class="node">
<title>Node11</title>
<g id="a_node11"><a xlink:href="_cookie_options_8h.html" target="_top" xlink:title=" ">
<polygon fill="white" stroke="black" points="432,-6 432,-25 562,-25 562,-6 432,-6"/>
<text text-anchor="middle" x="497" y="-13" font-family="Helvetica,sans-Serif" font-size="10.00">web/http/CookieOptions.h</text>
</a>
</g>
</g>
<!-- Node9&#45;&gt;Node11 -->
<g id="edge11" class="edge">
<title>Node9&#45;&gt;Node11</title>
<path fill="none" stroke="midnightblue" d="M420.87,-72.73C435.25,-62.11 459.7,-44.05 477.01,-31.26"/>
<polygon fill="midnightblue" stroke="midnightblue" points="479.36,-33.88 485.32,-25.13 475.2,-28.25 479.36,-33.88"/>
</g>
<!-- Node13 -->
<g id="node13" class="node">
<title>Node13</title>
<g id="a_node13"><a xlink:href="net_2socket_2stream_2_socket_context_8h.html" target="_top" xlink:title=" ">
<polygon fill="white" stroke="black" points="580.5,-0.5 580.5,-30.5 709.5,-30.5 709.5,-0.5 580.5,-0.5"/>
<text text-anchor="start" x="588.5" y="-18.5" font-family="Helvetica,sans-Serif" font-size="10.00">net/socket/stream/Socket</text>
<text text-anchor="middle" x="645" y="-7.5" font-family="Helvetica,sans-Serif" font-size="10.00">Context.h</text>
</a>
</g>
</g>
<!-- Node12&#45;&gt;Node13 -->
<g id="edge13" class="edge">
<title>Node12&#45;&gt;Node13</title>
<path fill="none" stroke="midnightblue" d="M664.03,-72.73C661.23,-64.46 656.9,-51.66 653.08,-40.37"/>
<polygon fill="midnightblue" stroke="midnightblue" points="656.29,-38.94 649.77,-30.59 649.66,-41.18 656.29,-38.94"/>
</g>
<!-- Node14 -->
<g id="node14" class="node">
<title>Node14</title>
<g id="a_node14"><a xlink:href="_receiver_8h.html" target="_top" xlink:title=" ">
<polygon fill="white" stroke="black" points="728,-6 728,-25 828,-25 828,-6 728,-6"/>
<text text-anchor="middle" x="778" y="-13" font-family="Helvetica,sans-Serif" font-size="10.00">web/ws/Receiver.h</text>
</a>
</g>
</g>
<!-- Node12&#45;&gt;Node14 -->
<g id="edge14" class="edge">
<title>Node12&#45;&gt;Node14</title>
<path fill="none" stroke="midnightblue" d="M681.97,-72.73C700.61,-61.82 732.66,-43.05 754.57,-30.22"/>
<polygon fill="midnightblue" stroke="midnightblue" points="756.41,-33.2 763.27,-25.13 752.87,-27.16 756.41,-33.2"/>
</g>
<!-- Node15 -->
<g id="node15" class="node">
<title>Node15</title>
<g id="a_node15"><a xlink:href="_transmitter_8h.html" target="_top" xlink:title=" ">
<polygon fill="white" stroke="black" points="846,-6 846,-25 956,-25 956,-6 846,-6"/>
<text text-anchor="middle" x="901" y="-13" font-family="Helvetica,sans-Serif" font-size="10.00">web/ws/Transmitter.h</text>
</a>
</g>
</g>
<!-- Node12&#45;&gt;Node15 -->
<g id="edge15" class="edge">
<title>Node12&#45;&gt;Node15</title>
<path fill="none" stroke="midnightblue" d="M698.07,-72.87C739.89,-61.25 814.33,-40.58 860.49,-27.75"/>
<polygon fill="midnightblue" stroke="midnightblue" points="861.47,-31.11 870.17,-25.06 859.6,-24.37 861.47,-31.11"/>
</g>
<!-- Node17 -->
<g id="node17" class="node">
<title>Node17</title>
<g id="a_node17"><a xlink:href="_sub_protocol_selector_8h.html" target="_top" xlink:title=" ">
<polygon fill="white" stroke="black" points="792,-73 792,-92 942,-92 942,-73 792,-73"/>
<text text-anchor="middle" x="867" y="-80" font-family="Helvetica,sans-Serif" font-size="10.00">web/ws/SubProtocolSelector.h</text>
</a>
</g>
</g>
<!-- Node16&#45;&gt;Node17 -->
<g id="edge17" class="edge">
<title>Node16&#45;&gt;Node17</title>
<path fill="none" stroke="midnightblue" d="M867,-134.4C867,-125.06 867,-112.71 867,-102.52"/>
<polygon fill="midnightblue" stroke="midnightblue" points="870.5,-102.19 867,-92.19 863.5,-102.19 870.5,-102.19"/>
</g>
<!-- Node18 -->
<g id="node18" class="node">
<title>Node18</title>
<g id="a_node18"><a xlink:href="server_2_sub_protocol_interface_8h.html" target="_top" xlink:title=" ">
<polygon fill="white" stroke="black" points="1036.5,-67.5 1036.5,-97.5 1173.5,-97.5 1173.5,-67.5 1036.5,-67.5"/>
<text text-anchor="start" x="1044.5" y="-85.5" font-family="Helvetica,sans-Serif" font-size="10.00">web/ws/server/SubProtocol</text>
<text text-anchor="middle" x="1105" y="-74.5" font-family="Helvetica,sans-Serif" font-size="10.00">Interface.h</text>
</a>
</g>
</g>
<!-- Node16&#45;&gt;Node18 -->
<g id="edge18" class="edge">
<title>Node16&#45;&gt;Node18</title>
<path fill="none" stroke="midnightblue" d="M918.35,-134.48C954.98,-124.47 1004.41,-110.97 1043.2,-100.38"/>
<polygon fill="midnightblue" stroke="midnightblue" points="1044.61,-103.62 1053.33,-97.61 1042.76,-96.87 1044.61,-103.62"/>
</g>
<!-- Node19 -->
<g id="node19" class="node">
<title>Node19</title>
<g id="a_node19"><a xlink:href="_sub_protocol_interface_8h.html" target="_top" xlink:title=" ">
<polygon fill="white" stroke="black" points="974.5,-6 974.5,-25 1127.5,-25 1127.5,-6 974.5,-6"/>
<text text-anchor="middle" x="1051" y="-13" font-family="Helvetica,sans-Serif" font-size="10.00">web/ws/SubProtocolInterface.h</text>
</a>
</g>
</g>
<!-- Node18&#45;&gt;Node19 -->
<g id="edge19" class="edge">
<title>Node18&#45;&gt;Node19</title>
<path fill="none" stroke="midnightblue" d="M1093.28,-67.4C1084.86,-57.26 1073.49,-43.57 1064.66,-32.94"/>
<polygon fill="midnightblue" stroke="midnightblue" points="1067.31,-30.65 1058.22,-25.19 1061.92,-35.12 1067.31,-30.65"/>
</g>
<!-- Node20 -->
<g id="node20" class="node">
<title>Node20</title>
<g id="a_node20"><a xlink:title=" ">
<polygon fill="white" stroke="#bfbfbf" points="1145.5,-6 1145.5,-25 1174.5,-25 1174.5,-6 1145.5,-6"/>
<text text-anchor="middle" x="1160" y="-13" font-family="Helvetica,sans-Serif" font-size="10.00">list</text>
</a>
</g>
</g>
<!-- Node18&#45;&gt;Node20 -->
<g id="edge20" class="edge">
<title>Node18&#45;&gt;Node20</title>
<path fill="none" stroke="midnightblue" d="M1116.93,-67.4C1125.51,-57.26 1137.1,-43.57 1146.09,-32.94"/>
<polygon fill="midnightblue" stroke="midnightblue" points="1148.86,-35.09 1152.64,-25.19 1143.51,-30.57 1148.86,-35.09"/>
</g>
<!-- Node21 -->
<g id="node21" class="node">
<title>Node21</title>
<g id="a_node21"><a xlink:title=" ">
<polygon fill="white" stroke="#bfbfbf" points="1193,-6 1193,-25 1245,-25 1245,-6 1193,-6"/>
<text text-anchor="middle" x="1219" y="-13" font-family="Helvetica,sans-Serif" font-size="10.00">memory</text>
</a>
</g>
</g>
<!-- Node18&#45;&gt;Node21 -->
<g id="edge21" class="edge">
<title>Node18&#45;&gt;Node21</title>
<path fill="none" stroke="midnightblue" d="M1129.74,-67.4C1149.21,-56.29 1176.17,-40.92 1195.35,-29.98"/>
<polygon fill="midnightblue" stroke="midnightblue" points="1197.13,-33 1204.08,-25.01 1193.66,-26.92 1197.13,-33"/>
</g>
</g>
</svg>
