<?xml version="1.0" encoding="UTF-8" standalone="no"?>
<!DOCTYPE svg PUBLIC "-//W3C//DTD SVG 1.1//EN"
 "http://www.w3.org/Graphics/SVG/1.1/DTD/svg11.dtd">
<!-- Generated by graphviz version 2.43.0 (0)
 -->
<!-- Title: web/ws/server/SocketContextUpgradeFactory.h Pages: 1 -->
<svg width="1223pt" height="296pt"
 viewBox="0.00 0.00 1223.00 296.00" xmlns="http://www.w3.org/2000/svg" xmlns:xlink="http://www.w3.org/1999/xlink">
<g id="graph0" class="graph" transform="scale(1 1) rotate(0) translate(4 292)">
<title>web/ws/server/SocketContextUpgradeFactory.h</title>
<polygon fill="white" stroke="transparent" points="-4,4 -4,-292 1219,-292 1219,4 -4,4"/>
<!-- Node1 -->
<g id="node1" class="node">
<title>Node1</title>
<g id="a_node1"><a xlink:title=" ">
<polygon fill="#bfbfbf" stroke="black" points="604.5,-257.5 604.5,-287.5 753.5,-287.5 753.5,-257.5 604.5,-257.5"/>
<text text-anchor="start" x="612.5" y="-275.5" font-family="Helvetica,sans-Serif" font-size="10.00">web/ws/server/SocketContext</text>
<text text-anchor="middle" x="679" y="-264.5" font-family="Helvetica,sans-Serif" font-size="10.00">UpgradeFactory.h</text>
</a>
</g>
</g>
<!-- Node2 -->
<g id="node2" class="node">
<title>Node2</title>
<g id="a_node2"><a xlink:href="http_2server_2_socket_context_upgrade_factory_8h.html" target="_top" xlink:title=" ">
<polygon fill="white" stroke="black" points="381,-190.5 381,-220.5 533,-220.5 533,-190.5 381,-190.5"/>
<text text-anchor="start" x="389" y="-208.5" font-family="Helvetica,sans-Serif" font-size="10.00">web/http/server/SocketContext</text>
<text text-anchor="middle" x="457" y="-197.5" font-family="Helvetica,sans-Serif" font-size="10.00">UpgradeFactory.h</text>
</a>
</g>
</g>
<!-- Node1&#45;&gt;Node2 -->
<g id="edge1" class="edge">
<title>Node1&#45;&gt;Node2</title>
<path fill="none" stroke="midnightblue" d="M631.1,-257.48C597.08,-247.51 551.22,-234.09 515.1,-223.51"/>
<polygon fill="midnightblue" stroke="midnightblue" points="515.77,-220.06 505.19,-220.61 513.81,-226.78 515.77,-220.06"/>
</g>
<!-- Node4 -->
<g id="node4" class="node">
<title>Node4</title>
<g id="a_node4"><a xlink:href="_socket_context_upgrade_interface_8h.html" target="_top" xlink:title=" ">
<polygon fill="white" stroke="black" points="551,-190.5 551,-220.5 703,-220.5 703,-190.5 551,-190.5"/>
<text text-anchor="start" x="559" y="-208.5" font-family="Helvetica,sans-Serif" font-size="10.00">web/http/server/SocketContext</text>
<text text-anchor="middle" x="627" y="-197.5" font-family="Helvetica,sans-Serif" font-size="10.00">UpgradeInterface.h</text>
</a>
</g>
</g>
<!-- Node1&#45;&gt;Node4 -->
<g id="edge3" class="edge">
<title>Node1&#45;&gt;Node4</title>
<path fill="none" stroke="midnightblue" d="M667.72,-257.4C660.97,-248.96 652.25,-238.07 644.62,-228.52"/>
<polygon fill="midnightblue" stroke="midnightblue" points="647.24,-226.2 638.26,-220.58 641.78,-230.57 647.24,-226.2"/>
</g>
<!-- Node5 -->
<g id="node5" class="node">
<title>Node5</title>
<g id="a_node5"><a xlink:href="web_2ws_2server_2_socket_context_8h.html" target="_top" xlink:title=" ">
<polygon fill="white" stroke="black" points="614.5,-129 614.5,-148 771.5,-148 771.5,-129 614.5,-129"/>
<text text-anchor="middle" x="693" y="-136" font-family="Helvetica,sans-Serif" font-size="10.00">web/ws/server/SocketContext.h</text>
</a>
</g>
</g>
<!-- Node1&#45;&gt;Node5 -->
<g id="edge4" class="edge">
<title>Node1&#45;&gt;Node5</title>
<path fill="none" stroke="midnightblue" d="M691.61,-257.19C699.14,-247.66 707.99,-234.45 712,-221 718.46,-199.32 710.03,-173.87 702.44,-157.25"/>
<polygon fill="midnightblue" stroke="midnightblue" points="705.52,-155.58 697.96,-148.16 699.24,-158.67 705.52,-155.58"/>
</g>
<!-- Node18 -->
<g id="node18" class="node">
<title>Node18</title>
<g id="a_node18"><a xlink:href="server_2_sub_protocol_selector_8h.html" target="_top" xlink:title=" ">
<polygon fill="white" stroke="black" points="796.5,-190.5 796.5,-220.5 933.5,-220.5 933.5,-190.5 796.5,-190.5"/>
<text text-anchor="start" x="804.5" y="-208.5" font-family="Helvetica,sans-Serif" font-size="10.00">web/ws/server/SubProtocol</text>
<text text-anchor="middle" x="865" y="-197.5" font-family="Helvetica,sans-Serif" font-size="10.00">Selector.h</text>
</a>
</g>
</g>
<!-- Node1&#45;&gt;Node18 -->
<g id="edge19" class="edge">
<title>Node1&#45;&gt;Node18</title>
<path fill="none" stroke="midnightblue" d="M719.36,-257.4C747.51,-247.56 785.26,-234.37 815.27,-223.88"/>
<polygon fill="midnightblue" stroke="midnightblue" points="816.43,-227.18 824.72,-220.58 814.12,-220.57 816.43,-227.18"/>
</g>
<!-- Node3 -->
<g id="node3" class="node">
<title>Node3</title>
<g id="a_node3"><a xlink:href="net_2socket_2stream_2_socket_context_factory_8h.html" target="_top" xlink:title=" ">
<polygon fill="white" stroke="black" points="392.5,-123.5 392.5,-153.5 521.5,-153.5 521.5,-123.5 392.5,-123.5"/>
<text text-anchor="start" x="400.5" y="-141.5" font-family="Helvetica,sans-Serif" font-size="10.00">net/socket/stream/Socket</text>
<text text-anchor="middle" x="457" y="-130.5" font-family="Helvetica,sans-Serif" font-size="10.00">ContextFactory.h</text>
</a>
</g>
</g>
<!-- Node2&#45;&gt;Node3 -->
<g id="edge2" class="edge">
<title>Node2&#45;&gt;Node3</title>
<path fill="none" stroke="midnightblue" d="M457,-190.4C457,-182.64 457,-172.81 457,-163.86"/>
<polygon fill="midnightblue" stroke="midnightblue" points="460.5,-163.58 457,-153.58 453.5,-163.58 460.5,-163.58"/>
</g>
<!-- Node6 -->
<g id="node6" class="node">
<title>Node6</title>
<g id="a_node6"><a xlink:href="web_2http_2server_2_request_8h.html" target="_top" xlink:title=" ">
<polygon fill="white" stroke="black" points="135,-67.5 135,-86.5 267,-86.5 267,-67.5 135,-67.5"/>
<text text-anchor="middle" x="201" y="-74.5" font-family="Helvetica,sans-Serif" font-size="10.00">web/http/server/Request.h</text>
</a>
</g>
</g>
<!-- Node5&#45;&gt;Node6 -->
<g id="edge5" class="edge">
<title>Node5&#45;&gt;Node6</title>
<path fill="none" stroke="midnightblue" d="M622.51,-128.98C530.86,-117.89 371.39,-98.61 277.08,-87.2"/>
<polygon fill="midnightblue" stroke="midnightblue" points="277.38,-83.71 267.03,-85.99 276.54,-90.66 277.38,-83.71"/>
</g>
<!-- Node9 -->
<g id="node9" class="node">
<title>Node9</title>
<g id="a_node9"><a xlink:href="web_2http_2server_2_response_8h.html" target="_top" xlink:title=" ">
<polygon fill="white" stroke="black" points="334,-67.5 334,-86.5 474,-86.5 474,-67.5 334,-67.5"/>
<text text-anchor="middle" x="404" y="-74.5" font-family="Helvetica,sans-Serif" font-size="10.00">web/http/server/Response.h</text>
</a>
</g>
</g>
<!-- Node5&#45;&gt;Node9 -->
<g id="edge8" class="edge">
<title>Node5&#45;&gt;Node9</title>
<path fill="none" stroke="midnightblue" d="M651.59,-128.98C599.87,-118.33 511.39,-100.11 455.39,-88.58"/>
<polygon fill="midnightblue" stroke="midnightblue" points="455.83,-85.1 445.33,-86.51 454.42,-91.95 455.83,-85.1"/>
</g>
<!-- Node12 -->
<g id="node12" class="node">
<title>Node12</title>
<g id="a_node12"><a xlink:href="web_2ws_2_socket_context_8h.html" target="_top" xlink:title=" ">
<polygon fill="white" stroke="black" points="636.5,-67.5 636.5,-86.5 763.5,-86.5 763.5,-67.5 636.5,-67.5"/>
<text text-anchor="middle" x="700" y="-74.5" font-family="Helvetica,sans-Serif" font-size="10.00">web/ws/SocketContext.h</text>
</a>
</g>
</g>
<!-- Node5&#45;&gt;Node12 -->
<g id="edge12" class="edge">
<title>Node5&#45;&gt;Node12</title>
<path fill="none" stroke="midnightblue" d="M694,-128.98C694.99,-120.58 696.53,-107.48 697.8,-96.66"/>
<polygon fill="midnightblue" stroke="midnightblue" points="701.31,-96.85 699,-86.51 694.35,-96.03 701.31,-96.85"/>
</g>
<!-- Node17 -->
<g id="node17" class="node">
<title>Node17</title>
<g id="a_node17"><a xlink:href="server_2_sub_protocol_8h.html" target="_top" xlink:title=" ">
<polygon fill="white" stroke="black" points="781.5,-67.5 781.5,-86.5 926.5,-86.5 926.5,-67.5 781.5,-67.5"/>
<text text-anchor="middle" x="854" y="-74.5" font-family="Helvetica,sans-Serif" font-size="10.00">web/ws/server/SubProtocol.h</text>
</a>
</g>
</g>
<!-- Node5&#45;&gt;Node17 -->
<g id="edge17" class="edge">
<title>Node5&#45;&gt;Node17</title>
<path fill="none" stroke="midnightblue" d="M716.07,-128.98C743.68,-118.77 790.12,-101.61 821.4,-90.05"/>
<polygon fill="midnightblue" stroke="midnightblue" points="822.81,-93.26 830.98,-86.51 820.38,-86.69 822.81,-93.26"/>
</g>
<!-- Node7 -->
<g id="node7" class="node">
<title>Node7</title>
<g id="a_node7"><a xlink:href="_attribute_injector_8h.html" target="_top" xlink:title=" ">
<polygon fill="white" stroke="black" points="0,-6 0,-25 114,-25 114,-6 0,-6"/>
<text text-anchor="middle" x="57" y="-13" font-family="Helvetica,sans-Serif" font-size="10.00">utils/AttributeInjector.h</text>
</a>
</g>
</g>
<!-- Node6&#45;&gt;Node7 -->
<g id="edge6" class="edge">
<title>Node6&#45;&gt;Node7</title>
<path fill="none" stroke="midnightblue" d="M180.37,-67.48C155.88,-57.36 114.85,-40.4 86.89,-28.85"/>
<polygon fill="midnightblue" stroke="midnightblue" points="88.17,-25.59 77.59,-25.01 85.5,-32.06 88.17,-25.59"/>
</g>
<!-- Node8 -->
<g id="node8" class="node">
<title>Node8</title>
<g id="a_node8"><a xlink:href="_connection_state_8h.html" target="_top" xlink:title=" ">
<polygon fill="white" stroke="black" points="132,-6 132,-25 270,-25 270,-6 132,-6"/>
<text text-anchor="middle" x="201" y="-13" font-family="Helvetica,sans-Serif" font-size="10.00">web/http/ConnectionState.h</text>
</a>
</g>
</g>
<!-- Node6&#45;&gt;Node8 -->
<g id="edge7" class="edge">
<title>Node6&#45;&gt;Node8</title>
<path fill="none" stroke="midnightblue" d="M201,-67.48C201,-59.08 201,-45.98 201,-35.16"/>
<polygon fill="midnightblue" stroke="midnightblue" points="204.5,-35.01 201,-25.01 197.5,-35.01 204.5,-35.01"/>
</g>
<!-- Node9&#45;&gt;Node8 -->
<g id="edge10" class="edge">
<title>Node9&#45;&gt;Node8</title>
<path fill="none" stroke="midnightblue" d="M374.92,-67.48C339.42,-57.07 279.25,-39.44 239.83,-27.88"/>
<polygon fill="midnightblue" stroke="midnightblue" points="240.61,-24.46 230.03,-25.01 238.64,-31.18 240.61,-24.46"/>
</g>
<!-- Node10 -->
<g id="node10" class="node">
<title>Node10</title>
<g id="a_node10"><a xlink:href="_sink_8h.html" target="_top" xlink:title=" ">
<polygon fill="white" stroke="black" points="288,-6 288,-25 370,-25 370,-6 288,-6"/>
<text text-anchor="middle" x="329" y="-13" font-family="Helvetica,sans-Serif" font-size="10.00">net/pipe/Sink.h</text>
</a>
</g>
</g>
<!-- Node9&#45;&gt;Node10 -->
<g id="edge9" class="edge">
<title>Node9&#45;&gt;Node10</title>
<path fill="none" stroke="midnightblue" d="M393.25,-67.48C381.45,-58.11 362.26,-42.88 347.92,-31.51"/>
<polygon fill="midnightblue" stroke="midnightblue" points="349.74,-28.48 339.73,-25.01 345.38,-33.97 349.74,-28.48"/>
</g>
<!-- Node11 -->
<g id="node11" class="node">
<title>Node11</title>
<g id="a_node11"><a xlink:href="_cookie_options_8h.html" target="_top" xlink:title=" ">
<polygon fill="white" stroke="black" points="388,-6 388,-25 518,-25 518,-6 388,-6"/>
<text text-anchor="middle" x="453" y="-13" font-family="Helvetica,sans-Serif" font-size="10.00">web/http/CookieOptions.h</text>
</a>
</g>
</g>
<!-- Node9&#45;&gt;Node11 -->
<g id="edge11" class="edge">
<title>Node9&#45;&gt;Node11</title>
<path fill="none" stroke="midnightblue" d="M411.02,-67.48C418.44,-58.46 430.33,-44.02 439.57,-32.81"/>
<polygon fill="midnightblue" stroke="midnightblue" points="442.34,-34.95 445.99,-25.01 436.93,-30.5 442.34,-34.95"/>
</g>
<!-- Node13 -->
<g id="node13" class="node">
<title>Node13</title>
<g id="a_node13"><a xlink:href="net_2socket_2stream_2_socket_context_8h.html" target="_top" xlink:title=" ">
<polygon fill="white" stroke="black" points="536.5,-0.5 536.5,-30.5 665.5,-30.5 665.5,-0.5 536.5,-0.5"/>
<text text-anchor="start" x="544.5" y="-18.5" font-family="Helvetica,sans-Serif" font-size="10.00">net/socket/stream/Socket</text>
<text text-anchor="middle" x="601" y="-7.5" font-family="Helvetica,sans-Serif" font-size="10.00">Context.h</text>
</a>
</g>
</g>
<!-- Node12&#45;&gt;Node13 -->
<g id="edge13" class="edge">
<title>Node12&#45;&gt;Node13</title>
<path fill="none" stroke="midnightblue" d="M685.82,-67.48C672.16,-59.27 651.01,-46.56 633.25,-35.88"/>
<polygon fill="midnightblue" stroke="midnightblue" points="634.71,-32.67 624.33,-30.52 631.1,-38.67 634.71,-32.67"/>
</g>
<!-- Node14 -->
<g id="node14" class="node">
<title>Node14</title>
<g id="a_node14"><a xlink:href="_receiver_8h.html" target="_top" xlink:title=" ">
<polygon fill="white" stroke="black" points="684,-6 684,-25 784,-25 784,-6 684,-6"/>
<text text-anchor="middle" x="734" y="-13" font-family="Helvetica,sans-Serif" font-size="10.00">web/ws/Receiver.h</text>
</a>
</g>
</g>
<!-- Node12&#45;&gt;Node14 -->
<g id="edge14" class="edge">
<title>Node12&#45;&gt;Node14</title>
<path fill="none" stroke="midnightblue" d="M704.87,-67.48C709.87,-58.73 717.79,-44.87 724.11,-33.81"/>
<polygon fill="midnightblue" stroke="midnightblue" points="727.22,-35.43 729.14,-25.01 721.14,-31.96 727.22,-35.43"/>
</g>
<!-- Node15 -->
<g id="node15" class="node">
<title>Node15</title>
<g id="a_node15"><a xlink:href="_sub_protocol_8h.html" target="_top" xlink:title=" ">
<polygon fill="white" stroke="black" points="930.5,-6 930.5,-25 1045.5,-25 1045.5,-6 930.5,-6"/>
<text text-anchor="middle" x="988" y="-13" font-family="Helvetica,sans-Serif" font-size="10.00">web/ws/SubProtocol.h</text>
</a>
</g>
</g>
<!-- Node12&#45;&gt;Node15 -->
<g id="edge15" class="edge">
<title>Node12&#45;&gt;Node15</title>
<path fill="none" stroke="midnightblue" d="M742.81,-67.44C787.36,-58.5 859.11,-44 921,-31 926.82,-29.78 932.92,-28.48 938.97,-27.18"/>
<polygon fill="midnightblue" stroke="midnightblue" points="940.01,-30.54 949.05,-25.01 938.53,-23.7 940.01,-30.54"/>
</g>
<!-- Node16 -->
<g id="node16" class="node">
<title>Node16</title>
<g id="a_node16"><a xlink:href="_transmitter_8h.html" target="_top" xlink:title=" ">
<polygon fill="white" stroke="black" points="802,-6 802,-25 912,-25 912,-6 802,-6"/>
<text text-anchor="middle" x="857" y="-13" font-family="Helvetica,sans-Serif" font-size="10.00">web/ws/Transmitter.h</text>
</a>
</g>
</g>
<!-- Node12&#45;&gt;Node16 -->
<g id="edge16" class="edge">
<title>Node12&#45;&gt;Node16</title>
<path fill="none" stroke="midnightblue" d="M722.49,-67.48C749.31,-57.31 794.32,-40.26 824.81,-28.7"/>
<polygon fill="midnightblue" stroke="midnightblue" points="826.44,-31.83 834.55,-25.01 823.96,-25.28 826.44,-31.83"/>
</g>
<!-- Node17&#45;&gt;Node15 -->
<g id="edge18" class="edge">
<title>Node17&#45;&gt;Node15</title>
<path fill="none" stroke="midnightblue" d="M873.2,-67.48C895.79,-57.45 933.5,-40.7 959.5,-29.15"/>
<polygon fill="midnightblue" stroke="midnightblue" points="961.12,-32.27 968.84,-25.01 958.28,-25.87 961.12,-32.27"/>
</g>
<!-- Node19 -->
<g id="node19" class="node">
<title>Node19</title>
<g id="a_node19"><a xlink:href="_sub_protocol_selector_8h.html" target="_top" xlink:title=" ">
<polygon fill="white" stroke="black" points="790,-129 790,-148 940,-148 940,-129 790,-129"/>
<text text-anchor="middle" x="865" y="-136" font-family="Helvetica,sans-Serif" font-size="10.00">web/ws/SubProtocolSelector.h</text>
</a>
</g>
</g>
<!-- Node18&#45;&gt;Node19 -->
<g id="edge20" class="edge">
<title>Node18&#45;&gt;Node19</title>
<path fill="none" stroke="midnightblue" d="M865,-190.4C865,-181.06 865,-168.71 865,-158.52"/>
<polygon fill="midnightblue" stroke="midnightblue" points="868.5,-158.19 865,-148.19 861.5,-158.19 868.5,-158.19"/>
</g>
<!-- Node20 -->
<g id="node20" class="node">
<title>Node20</title>
<g id="a_node20"><a xlink:href="server_2_sub_protocol_interface_8h.html" target="_top" xlink:title=" ">
<polygon fill="white" stroke="black" points="958.5,-123.5 958.5,-153.5 1095.5,-153.5 1095.5,-123.5 958.5,-123.5"/>
<text text-anchor="start" x="966.5" y="-141.5" font-family="Helvetica,sans-Serif" font-size="10.00">web/ws/server/SubProtocol</text>
<text text-anchor="middle" x="1027" y="-130.5" font-family="Helvetica,sans-Serif" font-size="10.00">Interface.h</text>
</a>
</g>
</g>
<!-- Node18&#45;&gt;Node20 -->
<g id="edge21" class="edge">
<title>Node18&#45;&gt;Node20</title>
<path fill="none" stroke="midnightblue" d="M900.15,-190.4C924.25,-180.73 956.41,-167.82 982.32,-157.43"/>
<polygon fill="midnightblue" stroke="midnightblue" points="983.94,-160.55 991.92,-153.58 981.33,-154.05 983.94,-160.55"/>
</g>
<!-- Node20&#45;&gt;Node17 -->
<g id="edge24" class="edge">
<title>Node20&#45;&gt;Node17</title>
<path fill="none" stroke="midnightblue" d="M986,-123.4C956.37,-113.21 916.77,-99.59 888.7,-89.93"/>
<polygon fill="midnightblue" stroke="midnightblue" points="889.52,-86.51 878.92,-86.57 887.24,-93.13 889.52,-86.51"/>
</g>
<!-- Node21 -->
<g id="node21" class="node">
<title>Node21</title>
<g id="a_node21"><a xlink:href="_sub_protocol_interface_8h.html" target="_top" xlink:title=" ">
<polygon fill="white" stroke="black" points="944.5,-67.5 944.5,-86.5 1097.5,-86.5 1097.5,-67.5 944.5,-67.5"/>
<text text-anchor="middle" x="1021" y="-74.5" font-family="Helvetica,sans-Serif" font-size="10.00">web/ws/SubProtocolInterface.h</text>
</a>
</g>
</g>
<!-- Node20&#45;&gt;Node21 -->
<g id="edge22" class="edge">
<title>Node20&#45;&gt;Node21</title>
<path fill="none" stroke="midnightblue" d="M1025.58,-123.4C1024.78,-115.47 1023.77,-105.46 1022.9,-96.86"/>
<polygon fill="midnightblue" stroke="midnightblue" points="1026.36,-96.26 1021.87,-86.66 1019.39,-96.96 1026.36,-96.26"/>
</g>
<!-- Node22 -->
<g id="node22" class="node">
<title>Node22</title>
<g id="a_node22"><a xlink:title=" ">
<polygon fill="white" stroke="#bfbfbf" points="1115.5,-67.5 1115.5,-86.5 1144.5,-86.5 1144.5,-67.5 1115.5,-67.5"/>
<text text-anchor="middle" x="1130" y="-74.5" font-family="Helvetica,sans-Serif" font-size="10.00">list</text>
</a>
</g>
</g>
<!-- Node20&#45;&gt;Node22 -->
<g id="edge25" class="edge">
<title>Node20&#45;&gt;Node22</title>
<path fill="none" stroke="midnightblue" d="M1051.41,-123.4C1068.02,-113.8 1089.88,-101.17 1106.33,-91.67"/>
<polygon fill="midnightblue" stroke="midnightblue" points="1108.4,-94.52 1115.31,-86.48 1104.9,-88.46 1108.4,-94.52"/>
</g>
<!-- Node23 -->
<g id="node23" class="node">
<title>Node23</title>
<g id="a_node23"><a xlink:title=" ">
<polygon fill="white" stroke="#bfbfbf" points="1163,-67.5 1163,-86.5 1215,-86.5 1215,-67.5 1163,-67.5"/>
<text text-anchor="middle" x="1189" y="-74.5" font-family="Helvetica,sans-Serif" font-size="10.00">memory</text>
</a>
</g>
</g>
<!-- Node20&#45;&gt;Node23 -->
<g id="edge26" class="edge">
<title>Node20&#45;&gt;Node23</title>
<path fill="none" stroke="midnightblue" d="M1065.39,-123.4C1092.94,-113.28 1129.67,-99.79 1155.92,-90.15"/>
<polygon fill="midnightblue" stroke="midnightblue" points="1157.25,-93.39 1165.43,-86.66 1154.83,-86.82 1157.25,-93.39"/>
</g>
<!-- Node21&#45;&gt;Node15 -->
<g id="edge23" class="edge">
<title>Node21&#45;&gt;Node15</title>
<path fill="none" stroke="midnightblue" d="M1016.27,-67.48C1011.42,-58.73 1003.73,-44.87 997.6,-33.81"/>
<polygon fill="midnightblue" stroke="midnightblue" points="1000.63,-32.06 992.72,-25.01 994.51,-35.45 1000.63,-32.06"/>
</g>
</g>
</svg>
